  0
SECTION
  2
HEADER
  9
$ACADVER
  1
AC1027
  9
$ACADMAINTVER
 70
105
  9
$DWGCODEPAGE
  3
ANSI_1252
  9
$LASTSAVEDBY
  1
ezdxf
  9
$REQUIREDVERSIONS
160
0
  9
$INSBASE
 10
0.0
 20
0.0
 30
0.0
  9
$EXTMIN
 10
1e+20
 20
1e+20
 30
1e+20
  9
$EXTMAX
 10
-1e+20
 20
-1e+20
 30
-1e+20
  9
$LIMMIN
 10
0.0
 20
0.0
  9
$LIMMAX
 10
420.0
 20
297.0
  9
$ORTHOMODE
 70
0
  9
$REGENMODE
 70
1
  9
$FILLMODE
 70
1
  9
$QTEXTMODE
 70
0
  9
$MIRRTEXT
 70
1
  9
$LTSCALE
 40
1.0
  9
$ATTMODE
 70
1
  9
$TEXTSIZE
 40
2.5
  9
$TRACEWID
 40
1.0
  9
$TEXTSTYLE
  7
Standard
  9
$CLAYER
  8
0
  9
$CELTYPE
  6
ByLayer
  9
$CECOLOR
 62
256
  9
$CELTSCALE
 40
1.0
  9
$DISPSILH
 70
0
  9
$DIMSCALE
 40
1.0
  9
$DIMASZ
 40
2.5
  9
$DIMEXO
 40
0.625
  9
$DIMDLI
 40
3.75
  9
$DIMRND
 40
0.0
  9
$DIMDLE
 40
0.0
  9
$DIMEXE
 40
1.25
  9
$DIMTP
 40
0.0
  9
$DIMTM
 40
0.0
  9
$DIMTXT
 40
2.5
  9
$DIMCEN
 40
2.5
  9
$DIMTSZ
 40
0.0
  9
$DIMTOL
 70
0
  9
$DIMLIM
 70
0
  9
$DIMTIH
 70
0
  9
$DIMTOH
 70
0
  9
$DIMSE1
 70
0
  9
$DIMSE2
 70
0
  9
$DIMTAD
 70
1
  9
$DIMZIN
 70
8
  9
$DIMBLK
  1

  9
$DIMASO
 70
1
  9
$DIMSHO
 70
1
  9
$DIMPOST
  1

  9
$DIMAPOST
  1

  9
$DIMALT
 70
0
  9
$DIMALTD
 70
3
  9
$DIMALTF
 40
0.03937007874
  9
$DIMLFAC
 40
1.0
  9
$DIMTOFL
 70
1
  9
$DIMTVP
 40
0.0
  9
$DIMTIX
 70
0
  9
$DIMSOXD
 70
0
  9
$DIMSAH
 70
0
  9
$DIMBLK1
  1

  9
$DIMBLK2
  1

  9
$DIMSTYLE
  2
ISO-25
  9
$DIMCLRD
 70
0
  9
$DIMCLRE
 70
0
  9
$DIMCLRT
 70
0
  9
$DIMTFAC
 40
1.0
  9
$DIMGAP
 40
0.625
  9
$DIMJUST
 70
0
  9
$DIMSD1
 70
0
  9
$DIMSD2
 70
0
  9
$DIMTOLJ
 70
0
  9
$DIMTZIN
 70
8
  9
$DIMALTZ
 70
0
  9
$DIMALTTZ
 70
0
  9
$DIMUPT
 70
0
  9
$DIMDEC
 70
2
  9
$DIMTDEC
 70
2
  9
$DIMALTU
 70
2
  9
$DIMALTTD
 70
3
  9
$DIMTXSTY
  7
Standard
  9
$DIMAUNIT
 70
0
  9
$DIMADEC
 70
0
  9
$DIMALTRND
 40
0.0
  9
$DIMAZIN
 70
0
  9
$DIMDSEP
 70
44
  9
$DIMATFIT
 70
3
  9
$DIMFRAC
 70
0
  9
$DIMLDRBLK
  1

  9
$DIMLUNIT
 70
2
  9
$DIMLWD
 70
-2
  9
$DIMLWE
 70
-2
  9
$DIMTMOVE
 70
0
  9
$DIMFXL
 40
1.0
  9
$DIMFXLON
 70
0
  9
$DIMJOGANG
 40
0.785398163397
  9
$DIMTFILL
 70
0
  9
$DIMTFILLCLR
 70
0
  9
$DIMARCSYM
 70
0
  9
$DIMLTYPE
  6

  9
$DIMLTEX1
  6

  9
$DIMLTEX2
  6

  9
$DIMTXTDIRECTION
 70
0
  9
$LUNITS
 70
2
  9
$LUPREC
 70
4
  9
$SKETCHINC
 40
1.0
  9
$FILLETRAD
 40
10.0
  9
$AUNITS
 70
0
  9
$AUPREC
 70
2
  9
$MENU
  1
.
  9
$ELEVATION
 40
0.0
  9
$PELEVATION
 40
0.0
  9
$THICKNESS
 40
0.0
  9
$LIMCHECK
 70
0
  9
$CHAMFERA
 40
0.0
  9
$CHAMFERB
 40
0.0
  9
$CHAMFERC
 40
0.0
  9
$CHAMFERD
 40
0.0
  9
$SKPOLY
 70
0
  9
$TDCREATE
 40
2460825.77875
  9
$TDUCREATE
 40
2458532.153996898
  9
$TDUPDATE
 40
2460825.77875
  9
$TDUUPDATE
 40
2458532.1544311
  9
$TDINDWG
 40
0.0
  9
$TDUSRTIMER
 40
0.0
  9
$USRTIMER
 70
1
  9
$ANGBASE
 50
0.0
  9
$ANGDIR
 70
0
  9
$PDMODE
 70
0
  9
$PDSIZE
 40
0.0
  9
$PLINEWID
 40
0.0
  9
$SPLFRAME
 70
0
  9
$SPLINETYPE
 70
6
  9
$SPLINESEGS
 70
8
  9
$HANDSEED
  5
45
  9
$SURFTAB1
 70
6
  9
$SURFTAB2
 70
6
  9
$SURFTYPE
 70
6
  9
$SURFU
 70
6
  9
$SURFV
 70
6
  9
$UCSBASE
  2

  9
$UCSNAME
  2

  9
$UCSORG
 10
0.0
 20
0.0
 30
0.0
  9
$UCSXDIR
 10
1.0
 20
0.0
 30
0.0
  9
$UCSYDIR
 10
0.0
 20
1.0
 30
0.0
  9
$UCSORTHOREF
  2

  9
$UCSORTHOVIEW
 70
0
  9
$UCSORGTOP
 10
0.0
 20
0.0
 30
0.0
  9
$UCSORGBOTTOM
 10
0.0
 20
0.0
 30
0.0
  9
$UCSORGLEFT
 10
0.0
 20
0.0
 30
0.0
  9
$UCSORGRIGHT
 10
0.0
 20
0.0
 30
0.0
  9
$UCSORGFRONT
 10
0.0
 20
0.0
 30
0.0
  9
$UCSORGBACK
 10
0.0
 20
0.0
 30
0.0
  9
$PUCSBASE
  2

  9
$PUCSNAME
  2

  9
$PUCSORG
 10
0.0
 20
0.0
 30
0.0
  9
$PUCSXDIR
 10
1.0
 20
0.0
 30
0.0
  9
$PUCSYDIR
 10
0.0
 20
1.0
 30
0.0
  9
$PUCSORTHOREF
  2

  9
$PUCSORTHOVIEW
 70
0
  9
$PUCSORGTOP
 10
0.0
 20
0.0
 30
0.0
  9
$PUCSORGBOTTOM
 10
0.0
 20
0.0
 30
0.0
  9
$PUCSORGLEFT
 10
0.0
 20
0.0
 30
0.0
  9
$PUCSORGRIGHT
 10
0.0
 20
0.0
 30
0.0
  9
$PUCSORGFRONT
 10
0.0
 20
0.0
 30
0.0
  9
$PUCSORGBACK
 10
0.0
 20
0.0
 30
0.0
  9
$USERI1
 70
0
  9
$USERI2
 70
0
  9
$USERI3
 70
0
  9
$USERI4
 70
0
  9
$USERI5
 70
0
  9
$USERR1
 40
0.0
  9
$USERR2
 40
0.0
  9
$USERR3
 40
0.0
  9
$USERR4
 40
0.0
  9
$USERR5
 40
0.0
  9
$WORLDVIEW
 70
1
  9
$SHADEDGE
 70
3
  9
$SHADEDIF
 70
70
  9
$TILEMODE
 70
1
  9
$MAXACTVP
 70
64
  9
$PINSBASE
 10
0.0
 20
0.0
 30
0.0
  9
$PLIMCHECK
 70
0
  9
$PEXTMIN
 10
1e+20
 20
1e+20
 30
1e+20
  9
$PEXTMAX
 10
-1e+20
 20
-1e+20
 30
-1e+20
  9
$PLIMMIN
 10
0.0
 20
0.0
  9
$PLIMMAX
 10
420.0
 20
297.0
  9
$UNITMODE
 70
0
  9
$VISRETAIN
 70
1
  9
$PLINEGEN
 70
0
  9
$PSLTSCALE
 70
1
  9
$TREEDEPTH
 70
3020
  9
$CMLSTYLE
  2
Standard
  9
$CMLJUST
 70
0
  9
$CMLSCALE
 40
20.0
  9
$PROXYGRAPHICS
 70
1
  9
$MEASUREMENT
 70
1
  9
$CELWEIGHT
370
-1
  9
$ENDCAPS
280
0
  9
$JOINSTYLE
280
0
  9
$LWDISPLAY
290
0
  9
$INSUNITS
 70
6
  9
$HYPERLINKBASE
  1

  9
$STYLESHEET
  1

  9
$XEDIT
290
1
  9
$CEPSNTYPE
380
0
  9
$PSTYLEMODE
290
1
  9
$FINGERPRINTGUID
  2
{7D855299-AD76-4AE3-B011-ABAA304A0C3B}
  9
$VERSIONGUID
  2
{B99817C8-5AE4-4591-B4A9-AEC33A030063}
  9
$EXTNAMES
290
1
  9
$PSVPSCALE
 40
0.0
  9
$OLESTARTUP
290
0
  9
$SORTENTS
280
127
  9
$INDEXCTL
280
0
  9
$HIDETEXT
280
1
  9
$XCLIPFRAME
280
0
  9
$HALOGAP
280
0
  9
$OBSCOLOR
 70
257
  9
$OBSLTYPE
280
0
  9
$INTERSECTIONDISPLAY
280
0
  9
$INTERSECTIONCOLOR
 70
257
  9
$DIMASSOC
280
2
  9
$PROJECTNAME
  1

  9
$CAMERADISPLAY
290
0
  9
$LENSLENGTH
 40
50.0
  9
$CAMERAHEIGHT
 40
0.0
  9
$STEPSPERSEC
 40
24.0
  9
$STEPSIZE
 40
100.0
  9
$3DDWFPREC
 40
2.0
  9
$PSOLWIDTH
 40
0.005
  9
$PSOLHEIGHT
 40
0.08
  9
$LOFTANG1
 40
1.570796326795
  9
$LOFTANG2
 40
1.570796326795
  9
$LOFTMAG1
 40
0.0
  9
$LOFTMAG2
 40
0.0
  9
$LOFTPARAM
 70
7
  9
$LOFTNORMALS
280
1
  9
$LATITUDE
 40
37.795
  9
$LONGITUDE
 40
-122.394
  9
$NORTHDIRECTION
 40
0.0
  9
$TIMEZONE
 70
-8000
  9
$LIGHTGLYPHDISPLAY
280
1
  9
$TILEMODELIGHTSYNCH
280
1
  9
$CMATERIAL
347
20
  9
$SOLIDHIST
280
0
  9
$SHOWHIST
280
1
  9
$DWFFRAME
280
2
  9
$DGNFRAME
280
2
  9
$REALWORLDSCALE
290
1
  9
$INTERFERECOLOR
 62
256
  9
$CSHADOW
280
0
  9
$SHADOWPLANELOCATION
 40
0.0
  0
ENDSEC
  0
SECTION
  2
CLASSES
  0
CLASS
  1
ACDBDICTIONARYWDFLT
  2
AcDbDictionaryWithDefault
  3
ObjectDBX Classes
 90
0
 91
0
280
0
281
0
  0
CLASS
  1
SUN
  2
AcDbSun
  3
SCENEOE
 90
1153
 91
0
280
0
281
0
  0
CLASS
  1
VISUALSTYLE
  2
AcDbVisualStyle
  3
ObjectDBX Classes
 90
4095
 91
0
280
0
281
0
  0
CLASS
  1
MATERIAL
  2
AcDbMaterial
  3
ObjectDBX Classes
 90
1153
 91
0
280
0
281
0
  0
CLASS
  1
SCALE
  2
AcDbScale
  3
ObjectDBX Classes
 90
1153
 91
0
280
0
281
0
  0
CLASS
  1
TABLESTYLE
  2
AcDbTableStyle
  3
ObjectDBX Classes
 90
4095
 91
0
280
0
281
0
  0
CLASS
  1
MLEADERSTYLE
  2
AcDbMLeaderStyle
  3
ACDB_MLEADERSTYLE_CLASS
 90
4095
 91
0
280
0
281
0
  0
CLASS
  1
DICTIONARYVAR
  2
AcDbDictionaryVar
  3
ObjectDBX Classes
 90
0
 91
0
280
0
281
0
  0
CLASS
  1
CELLSTYLEMAP
  2
AcDbCellStyleMap
  3
ObjectDBX Classes
 90
1152
 91
0
280
0
281
0
  0
CLASS
  1
MENTALRAYRENDERSETTINGS
  2
AcDbMentalRayRenderSettings
  3
SCENEOE
 90
1024
 91
0
280
0
281
0
  0
CLASS
  1
ACDBDETAILVIEWSTYLE
  2
AcDbDetailViewStyle
  3
ObjectDBX Classes
 90
1025
 91
0
280
0
281
0
  0
CLASS
  1
ACDBSECTIONVIEWSTYLE
  2
AcDbSectionViewStyle
  3
ObjectDBX Classes
 90
1025
 91
0
280
0
281
0
  0
CLASS
  1
RASTERVARIABLES
  2
AcDbRasterVariables
  3
ISM
 90
0
 91
0
280
0
281
0
  0
CLASS
  1
LAYOUT
  2
AcDbLayout
  3
ObjectDBX Classes
 90
0
 91
0
280
0
281
0
  0
CLASS
  1
ACDBPLACEHOLDER
  2
AcDbPlaceHolder
  3
ObjectDBX Classes
 90
0
 91
0
280
0
281
0
  0
ENDSEC
  0
SECTION
  2
TABLES
  0
TABLE
  2
VPORT
  5
8
330
0
100
AcDbSymbolTable
 70
1
  0
VPORT
  5
23
330
8
100
AcDbSymbolTableRecord
100
AcDbViewportTableRecord
  2
*Active
 70
0
 10
0.0
 20
0.0
 11
1.0
 21
1.0
 12
0.0
 22
0.0
 13
0.0
 23
0.0
 14
0.5
 24
0.5
 15
0.5
 25
0.5
 16
0.0
 26
0.0
 36
1.0
 17
0.0
 27
0.0
 37
0.0
 40
1000.0
 41
1.34
 42
50.0
 43
0.0
 44
0.0
 50
0.0
 51
0.0
 71
0
 72
1000
 73
1
 74
3
 75
0
 76
0
 77
0
 78
0
281
0
 65
0
146
0.0
  0
ENDTAB
  0
TABLE
  2
LTYPE
  5
2
330
0
100
AcDbSymbolTable
 70
3
  0
LTYPE
  5
24
330
2
100
AcDbSymbolTableRecord
100
AcDbLinetypeTableRecord
  2
ByBlock
 70
0
  3

 72
65
 73
0
 40
0.0
  0
LTYPE
  5
25
330
2
100
AcDbSymbolTableRecord
100
AcDbLinetypeTableRecord
  2
ByLayer
 70
0
  3

 72
65
 73
0
 40
0.0
  0
LTYPE
  5
26
330
2
100
AcDbSymbolTableRecord
100
AcDbLinetypeTableRecord
  2
Continuous
 70
0
  3

 72
65
 73
0
 40
0.0
  0
ENDTAB
  0
TABLE
  2
LAYER
  5
1
330
0
100
AcDbSymbolTable
 70
2
  0
LAYER
  5
27
330
1
100
AcDbSymbolTableRecord
100
AcDbLayerTableRecord
  2
0
 70
0
 62
7
  6
Continuous
370
-3
390
13
347
21
  0
LAYER
  5
28
330
1
100
AcDbSymbolTableRecord
100
AcDbLayerTableRecord
  2
Defpoints
 70
0
 62
7
  6
Continuous
290
0
370
-3
390
13
347
21
  0
ENDTAB
  0
TABLE
  2
STYLE
  5
5
330
0
100
AcDbSymbolTable
 70
1
  0
STYLE
  5
29
330
5
100
AcDbSymbolTableRecord
100
AcDbTextStyleTableRecord
  2
Standard
 70
0
 40
0.0
 41
1.0
 50
0.0
 71
0
 42
2.5
  3
txt
  4

  0
ENDTAB
  0
TABLE
  2
VIEW
  5
7
330
0
100
AcDbSymbolTable
 70
0
  0
ENDTAB
  0
TABLE
  2
UCS
  5
6
330
0
100
AcDbSymbolTable
 70
0
  0
ENDTAB
  0
TABLE
  2
APPID
  5
3
330
0
100
AcDbSymbolTable
 70
3
  0
APPID
  5
2A
330
3
100
AcDbSymbolTableRecord
100
AcDbRegAppTableRecord
  2
ACAD
 70
0
  0
APPID
  5
42
330
3
100
AcDbSymbolTableRecord
100
AcDbRegAppTableRecord
  2
HATCHBACKGROUNDCOLOR
 70
0
  0
APPID
  5
43
330
3
100
AcDbSymbolTableRecord
100
AcDbRegAppTableRecord
  2
EZDXF
 70
0
  0
ENDTAB
  0
TABLE
  2
DIMSTYLE
  5
4
330
0
100
AcDbSymbolTable
 70
1
100
AcDbDimStyleTable
  0
DIMSTYLE
105
2B
330
4
100
AcDbSymbolTableRecord
100
AcDbDimStyleTableRecord
  2
Standard
 70
0
 40
1.0
 41
2.5
 42
0.625
 43
3.75
 44
1.25
 45
0.0
 46
0.0
 47
0.0
 48
0.0
 49
2.5
140
2.5
141
2.5
142
0.0
143
0.03937007874
144
1.0
145
0.0
146
1.0
147
0.625
148
0.0
 69
0
 70
0
 71
0
 72
0
 73
0
 74
0
 75
0
 76
0
 77
1
 78
8
 79
3
170
0
171
3
172
1
173
0
174
0
175
0
176
0
177
0
178
0
179
2
271
2
272
2
273
2
274
3
275
0
276
0
277
2
278
44
279
0
280
0
281
0
282
0
283
0
284
8
285
0
286
0
288
0
289
3
290
0
371
-2
372
-2
  0
ENDTAB
  0
TABLE
  2
BLOCK_RECORD
  5
9
330
0
100
AcDbSymbolTable
 70
2
  0
BLOCK_RECORD
  5
17
330
9
100
AcDbSymbolTableRecord
100
AcDbBlockTableRecord
  2
*Model_Space
340
1A
 70
0
280
1
281
0
  0
BLOCK_RECORD
  5
1B
330
9
100
AcDbSymbolTableRecord
100
AcDbBlockTableRecord
  2
*Paper_Space
340
1E
 70
0
280
1
281
0
  0
ENDTAB
  0
ENDSEC
  0
SECTION
  2
BLOCKS
  0
BLOCK
  5
18
330
17
100
AcDbEntity
  8
0
100
AcDbBlockBegin
  2
*Model_Space
 70
0
 10
0.0
 20
0.0
 30
0.0
  3
*Model_Space
  1

  0
ENDBLK
  5
19
330
17
100
AcDbEntity
  8
0
100
AcDbBlockEnd
  0
BLOCK
  5
1C
330
1B
100
AcDbEntity
  8
0
100
AcDbBlockBegin
  2
*Paper_Space
 70
0
 10
0.0
 20
0.0
 30
0.0
  3
*Paper_Space
  1

  0
ENDBLK
  5
1D
330
1B
100
AcDbEntity
  8
0
100
AcDbBlockEnd
  0
ENDSEC
  0
SECTION
  2
ENTITIES
  0
LWPOLYLINE
  5
2F
330
17
100
AcDbEntity
  8
0
100
AcDbPolyline
 90
51
 70
0
 10
-3.0
 20
-5.0
 10
-3.0
 20
-5.1
 10
-3.0
 20
-5.2
 10
-3.0
 20
-5.3
 10
-3.0
 20
-5.4
 10
-3.0
 20
-5.5
 10
-3.0
 20
-5.6
 10
-3.0
 20
-5.7
 10
-3.0
 20
-5.8
 10
-3.0
 20
-5.9
 10
-3.0
 20
-6.0
 10
-3.0
 20
-6.1
 10
-3.0
 20
-6.2
 10
-3.0
 20
-6.3
 10
-3.0
 20
-6.4
 10
-3.0
 20
-6.5
 10
-3.0
 20
-6.6
 10
-3.0
 20
-6.7
 10
-3.0
 20
-6.8
 10
-3.0
 20
-6.9
 10
-3.0
 20
-7.0
 10
-3.0
 20
-7.1
 10
-3.0
 20
-7.2
 10
-3.0
 20
-7.3
 10
-3.0
 20
-7.4
 10
-3.0
 20
-7.5
 10
-3.0
 20
-7.6
 10
-3.0
 20
-7.7
 10
-3.0
 20
-7.8
 10
-3.0
 20
-7.9
 10
-3.0
 20
-8.0
 10
-3.0
 20
-8.1
 10
-3.0
 20
-8.2
 10
-3.0
 20
-8.3
 10
-3.0
 20
-8.4
 10
-3.0
 20
-8.5
 10
-3.0
 20
-8.6
 10
-3.0
 20
-8.7
 10
-3.0
 20
-8.8
 10
-3.0
 20
-8.9
 10
-3.0
 20
-9.0
 10
-3.0
 20
-9.1
 10
-3.0
 20
-9.2
 10
-3.0
 20
-9.3
 10
-3.0
 20
-9.4
 10
-3.0
 20
-9.5
 10
-3.0
 20
-9.6
 10
-3.0
 20
-9.7
 10
-3.0
 20
-9.8
 10
-3.0
 20
-9.9
 10
-3.0
 20
-10.0
  0
LWPOLYLINE
  5
30
330
17
100
AcDbEntity
  8
0
100
AcDbPolyline
 90
51
 70
0
 10
3.0
 20
-5.0
 10
3.0
 20
-5.1
 10
3.0
 20
-5.2
 10
3.0
 20
-5.3
 10
3.0
 20
-5.4
 10
3.0
 20
-5.5
 10
3.0
 20
-5.6
 10
3.0
 20
-5.7
 10
3.0
 20
-5.8
 10
3.0
 20
-5.9
 10
3.0
 20
-6.0
 10
3.0
 20
-6.1
 10
3.0
 20
-6.2
 10
3.0
 20
-6.3
 10
3.0
 20
-6.4
 10
3.0
 20
-6.5
 10
3.0
 20
-6.6
 10
3.0
 20
-6.7
 10
3.0
 20
-6.8
 10
3.0
 20
-6.9
 10
3.0
 20
-7.0
 10
3.0
 20
-7.1
 10
3.0
 20
-7.2
 10
3.0
 20
-7.3
 10
3.0
 20
-7.4
 10
3.0
 20
-7.5
 10
3.0
 20
-7.6
 10
3.0
 20
-7.7
 10
3.0
 20
-7.8
 10
3.0
 20
-7.9
 10
3.0
 20
-8.0
 10
3.0
 20
-8.1
 10
3.0
 20
-8.2
 10
3.0
 20
-8.3
 10
3.0
 20
-8.4
 10
3.0
 20
-8.5
 10
3.0
 20
-8.6
 10
3.0
 20
-8.7
 10
3.0
 20
-8.8
 10
3.0
 20
-8.9
 10
3.0
 20
-9.0
 10
3.0
 20
-9.1
 10
3.0
 20
-9.2
 10
3.0
 20
-9.3
 10
3.0
 20
-9.4
 10
3.0
 20
-9.5
 10
3.0
 20
-9.6
 10
3.0
 20
-9.7
 10
3.0
 20
-9.8
 10
3.0
 20
-9.9
 10
3.0
 20
-10.0
  0
LWPOLYLINE
  5
31
330
17
100
AcDbEntity
  8
0
100
AcDbPolyline
 90
51
 70
0
 10
6.0
 20
0.0
 10
6.0
 20
-0.1
 10
6.0
 20
-0.2
 10
6.0
 20
-0.3
 10
6.0
 20
-0.4
 10
6.0
 20
-0.5
 10
6.0
 20
-0.6
 10
6.0
 20
-0.7
 10
6.0
 20
-0.8
 10
6.0
 20
-0.9
 10
6.0
 20
-1.0
 10
6.0
 20
-1.1
 10
6.0
 20
-1.2
 10
6.0
 20
-1.3
 10
6.0
 20
-1.4
 10
6.0
 20
-1.5
 10
6.0
 20
-1.6
 10
6.0
 20
-1.7
 10
6.0
 20
-1.8
 10
6.0
 20
-1.9
 10
6.0
 20
-2.0
 10
6.0
 20
-2.1
 10
6.0
 20
-2.2
 10
6.0
 20
-2.3
 10
6.0
 20
-2.4
 10
6.0
 20
-2.5
 10
6.0
 20
-2.6
 10
6.0
 20
-2.7
 10
6.0
 20
-2.8
 10
6.0
 20
-2.9
 10
6.0
 20
-3.0
 10
6.0
 20
-3.1
 10
6.0
 20
-3.2
 10
6.0
 20
-3.3
 10
6.0
 20
-3.4
 10
6.0
 20
-3.5
 10
6.0
 20
-3.6
 10
6.0
 20
-3.7
 10
6.0
 20
-3.8
 10
6.0
 20
-3.9
 10
6.0
 20
-4.0
 10
6.0
 20
-4.1
 10
6.0
 20
-4.2
 10
6.0
 20
-4.3
 10
6.0
 20
-4.4
 10
6.0
 20
-4.5
 10
6.0
 20
-4.6
 10
6.0
 20
-4.7
 10
6.0
 20
-4.8
 10
6.0
 20
-4.9
 10
6.0
 20
-5.0
  0
LWPOLYLINE
  5
32
330
17
100
AcDbEntity
  8
0
100
AcDbPolyline
 90
51
 70
0
 10
-5.0
 20
-10.0
 10
-5.0
 20
-10.1
 10
-5.0
 20
-10.2
 10
-5.0
 20
-10.3
 10
-5.0
 20
-10.4
 10
-5.0
 20
-10.5
 10
-5.0
 20
-10.6
 10
-5.0
 20
-10.7
 10
-5.0
 20
-10.8
 10
-5.0
 20
-10.9
 10
-5.0
 20
-11.0
 10
-5.0
 20
-11.1
 10
-5.0
 20
-11.2
 10
-5.0
 20
-11.3
 10
-5.0
 20
-11.4
 10
-5.0
 20
-11.5
 10
-5.0
 20
-11.6
 10
-5.0
 20
-11.7
 10
-5.0
 20
-11.8
 10
-5.0
 20
-11.9
 10
-5.0
 20
-12.0
 10
-5.0
 20
-12.1
 10
-5.0
 20
-12.2
 10
-5.0
 20
-12.3
 10
-5.0
 20
-12.4
 10
-5.0
 20
-12.5
 10
-5.0
 20
-12.6
 10
-5.0
 20
-12.7
 10
-5.0
 20
-12.8
 10
-5.0
 20
-12.9
 10
-5.0
 20
-13.0
 10
-5.0
 20
-13.1
 10
-5.0
 20
-13.2
 10
-5.0
 20
-13.3
 10
-5.0
 20
-13.4
 10
-5.0
 20
-13.5
 10
-5.0
 20
-13.6
 10
-5.0
 20
-13.7
 10
-5.0
 20
-13.8
 10
-5.0
 20
-13.9
 10
-5.0
 20
-14.0
 10
-5.0
 20
-14.1
 10
-5.0
 20
-14.2
 10
-5.0
 20
-14.3
 10
-5.0
 20
-14.4
 10
-5.0
 20
-14.5
 10
-5.0
 20
-14.6
 10
-5.0
 20
-14.7
 10
-5.0
 20
-14.8
 10
-5.0
 20
-14.9
 10
-5.0
 20
-15.0
  0
LWPOLYLINE
  5
33
330
17
100
AcDbEntity
  8
0
100
AcDbPolyline
 90
51
 70
0
 10
5.0
 20
-10.0
 10
5.0
 20
-10.1
 10
5.0
 20
-10.2
 10
5.0
 20
-10.3
 10
5.0
 20
-10.4
 10
5.0
 20
-10.5
 10
5.0
 20
-10.6
 10
5.0
 20
-10.7
 10
5.0
 20
-10.8
 10
5.0
 20
-10.9
 10
5.0
 20
-11.0
 10
5.0
 20
-11.1
 10
5.0
 20
-11.2
 10
5.0
 20
-11.3
 10
5.0
 20
-11.4
 10
5.0
 20
-11.5
 10
5.0
 20
-11.6
 10
5.0
 20
-11.7
 10
5.0
 20
-11.8
 10
5.0
 20
-11.9
 10
5.0
 20
-12.0
 10
5.0
 20
-12.1
 10
5.0
 20
-12.2
 10
5.0
 20
-12.3
 10
5.0
 20
-12.4
 10
5.0
 20
-12.5
 10
5.0
 20
-12.6
 10
5.0
 20
-12.7
 10
5.0
 20
-12.8
 10
5.0
 20
-12.9
 10
5.0
 20
-13.0
 10
5.0
 20
-13.1
 10
5.0
 20
-13.2
 10
5.0
 20
-13.3
 10
5.0
 20
-13.4
 10
5.0
 20
-13.5
 10
5.0
 20
-13.6
 10
5.0
 20
-13.7
 10
5.0
 20
-13.8
 10
5.0
 20
-13.9
 10
5.0
 20
-14.0
 10
5.0
 20
-14.1
 10
5.0
 20
-14.2
 10
5.0
 20
-14.3
 10
5.0
 20
-14.4
 10
5.0
 20
-14.5
 10
5.0
 20
-14.6
 10
5.0
 20
-14.7
 10
5.0
 20
-14.8
 10
5.0
 20
-14.9
 10
5.0
 20
-15.0
  0
LWPOLYLINE
  5
34
330
17
100
AcDbEntity
  8
0
100
AcDbPolyline
 90
51
 70
0
 10
-6.0
 20
-5.0
 10
-6.24
 20
-5.0
 10
-6.48
 20
-5.0
 10
-6.720000000000001
 20
-5.0
 10
-6.96
 20
-5.0
 10
-7.2
 20
-5.0
 10
-7.44
 20
-5.0
 10
-7.680000000000001
 20
-5.0
 10
-7.92
 20
-5.0
 10
-8.16
 20
-5.0
 10
-8.4
 20
-5.0
 10
-8.64
 20
-5.0
 10
-8.88
 20
-5.0
 10
-9.120000000000001
 20
-5.0
 10
-9.360000000000001
 20
-5.0
 10
-9.600000000000001
 20
-5.0
 10
-9.84
 20
-5.0
 10
-10.080000000000002
 20
-5.0
 10
-10.32
 20
-5.0
 10
-10.56
 20
-5.0
 10
-10.8
 20
-5.0
 10
-11.040000000000001
 20
-5.0
 10
-11.280000000000001
 20
-5.0
 10
-11.520000000000001
 20
-5.0
 10
-11.760000000000002
 20
-5.0
 10
-12.0
 20
-5.0
 10
-12.240000000000002
 20
-5.0
 10
-12.48
 20
-5.0
 10
-12.720000000000002
 20
-5.0
 10
-12.96
 20
-5.0
 10
-13.200000000000001
 20
-5.0
 10
-13.440000000000001
 20
-5.0
 10
-13.680000000000001
 20
-5.0
 10
-13.920000000000002
 20
-5.0
 10
-14.160000000000002
 20
-5.0
 10
-14.4
 20
-5.0
 10
-14.64
 20
-5.0
 10
-14.88
 20
-5.0
 10
-15.120000000000001
 20
-5.0
 10
-15.360000000000001
 20
-5.0
 10
-15.600000000000001
 20
-5.0
 10
-15.840000000000002
 20
-5.0
 10
-16.080000000000002
 20
-5.0
 10
-16.32
 20
-5.0
 10
-16.560000000000002
 20
-5.0
 10
-16.800000000000004
 20
-5.0
 10
-17.040000000000003
 20
-5.0
 10
-17.28
 20
-5.0
 10
-17.520000000000003
 20
-5.0
 10
-17.76
 20
-5.0
 10
-18.0
 20
-5.0
  0
LWPOLYLINE
  5
35
330
17
100
AcDbEntity
  8
0
100
AcDbPolyline
 90
51
 70
0
 10
6.0
 20
-5.0
 10
5.989436512620648
 20
-5.0
 10
5.978873025241295
 20
-5.0
 10
5.968309537861942
 20
-5.0
 10
5.948748565007234
 20
-5.0
 10
5.91719094485205
 20
-5.0
 10
5.885633324696866
 20
-5.0
 10
5.854075704541683
 20
-5.0
 10
5.804863275193165
 20
-5.0
 10
5.752708377645759
 20
-5.0
 10
5.700553480098353
 20
-5.0
 10
5.642701039895351
 20
-5.0
 10
5.570604743053357
 20
-5.0
 10
5.498508446211364
 20
-5.0
 10
5.426412149369371
 20
-5.0
 10
5.340719605005553
 20
-5.0
 10
5.249588561633007
 20
-5.0
 10
5.158457518260461
 20
-5.0
 10
5.064770943347245
 20
-5.0
 10
4.955751179190019
 20
-5.0
 10
4.84673141503279
 20
-5.0
 10
4.737711650875563
 20
-5.0
 10
4.619253181577958
 20
-5.0
 10
4.493715683425067
 20
-5.0
 10
4.368178185272175
 20
-5.0
 10
4.242640687119286
 20
-5.0
 10
4.102164161848559
 20
-5.0
 10
3.961687636577832
 20
-5.0
 10
3.8212111113071034
 20
-5.0
 10
3.675089248905155
 20
-5.0
 10
3.521440270328249
 20
-5.0
 10
3.367791291751343
 20
-5.0
 10
3.214142313174437
 20
-5.0
 10
3.0508588532392196
 20
-5.0
 10
2.8859696464109503
 20
-5.0
 10
2.7210804395826833
 20
-5.0
 10
2.5535721896674026
 20
-5.0
 10
2.3795163320345867
 20
-5.0
 10
2.205460474401768
 20
-5.0
 10
2.03140461676895
 20
-5.0
 10
1.85236461813238
 20
-5.0
 10
1.6713309630943085
 20
-5.0
 10
1.490297308056237
 20
-5.0
 10
1.3085920538531632
 20
-5.0
 10
1.1228572046601135
 20
-5.0
 10
0.9371223554670636
 20
-5.0
 10
0.7513875062740136
 20
-5.0
 10
0.5643009595606745
 20
-5.0
 10
0.37620063970711304
 20
-5.0
 10
0.1881003198535569
 20
-5.0
 10
7.347880794884119e-16
 20
-5.0
  0
LWPOLYLINE
  5
36
330
17
100
AcDbEntity
  8
0
100
AcDbPolyline
 90
51
 70
0
 10
0.0
 20
-5.0
 10
-0.12
 20
-5.0
 10
-0.24
 20
-5.0
 10
-0.36
 20
-5.0
 10
-0.48
 20
-5.0
 10
-0.6
 20
-5.0
 10
-0.72
 20
-5.0
 10
-0.84
 20
-5.0
 10
-0.96
 20
-5.0
 10
-1.08
 20
-5.0
 10
-1.2
 20
-5.0
 10
-1.32
 20
-5.0
 10
-1.44
 20
-5.0
 10
-1.56
 20
-5.0
 10
-1.68
 20
-5.0
 10
-1.8
 20
-5.0
 10
-1.92
 20
-5.0
 10
-2.04
 20
-5.0
 10
-2.16
 20
-5.0
 10
-2.28
 20
-5.0
 10
-2.4
 20
-5.0
 10
-2.52
 20
-5.0
 10
-2.64
 20
-5.0
 10
-2.76
 20
-5.0
 10
-2.88
 20
-5.0
 10
-3.0
 20
-5.0
 10
-3.12
 20
-5.0
 10
-3.24
 20
-5.0
 10
-3.36
 20
-5.0
 10
-3.48
 20
-5.0
 10
-3.6
 20
-5.0
 10
-3.72
 20
-5.0
 10
-3.84
 20
-5.0
 10
-3.96
 20
-5.0
 10
-4.08
 20
-5.0
 10
-4.2
 20
-5.0
 10
-4.32
 20
-5.0
 10
-4.44
 20
-5.0
 10
-4.56
 20
-5.0
 10
-4.68
 20
-5.0
 10
-4.8
 20
-5.0
 10
-4.92
 20
-5.0
 10
-5.04
 20
-5.0
 10
-5.16
 20
-5.0
 10
-5.28
 20
-5.0
 10
-5.4
 20
-5.0
 10
-5.52
 20
-5.0
 10
-5.64
 20
-5.0
 10
-5.76
 20
-5.0
 10
-5.88
 20
-5.0
 10
-6.0
 20
-5.0
  0
LWPOLYLINE
  5
37
330
17
100
AcDbEntity
  8
0
100
AcDbPolyline
 90
51
 70
0
 10
-18.0
 20
0.0
 10
-18.0
 20
-0.1
 10
-18.0
 20
-0.2
 10
-18.0
 20
-0.3
 10
-18.0
 20
-0.4
 10
-18.0
 20
-0.5
 10
-18.0
 20
-0.6
 10
-18.0
 20
-0.7
 10
-18.0
 20
-0.8
 10
-18.0
 20
-0.9
 10
-18.0
 20
-1.0
 10
-18.0
 20
-1.1
 10
-18.0
 20
-1.2
 10
-18.0
 20
-1.3
 10
-18.0
 20
-1.4
 10
-18.0
 20
-1.5
 10
-18.0
 20
-1.6
 10
-18.0
 20
-1.7
 10
-18.0
 20
-1.8
 10
-18.0
 20
-1.9
 10
-18.0
 20
-2.0
 10
-18.0
 20
-2.1
 10
-18.0
 20
-2.2
 10
-18.0
 20
-2.3
 10
-18.0
 20
-2.4
 10
-18.0
 20
-2.5
 10
-18.0
 20
-2.6
 10
-18.0
 20
-2.7
 10
-18.0
 20
-2.8
 10
-18.0
 20
-2.9
 10
-18.0
 20
-3.0
 10
-18.0
 20
-3.1
 10
-18.0
 20
-3.2
 10
-18.0
 20
-3.3
 10
-18.0
 20
-3.4
 10
-18.0
 20
-3.5
 10
-18.0
 20
-3.6
 10
-18.0
 20
-3.7
 10
-18.0
 20
-3.8
 10
-18.0
 20
-3.9
 10
-18.0
 20
-4.0
 10
-18.0
 20
-4.1
 10
-18.0
 20
-4.2
 10
-18.0
 20
-4.3
 10
-18.0
 20
-4.4
 10
-18.0
 20
-4.5
 10
-18.0
 20
-4.6
 10
-18.0
 20
-4.7
 10
-18.0
 20
-4.8
 10
-18.0
 20
-4.9
 10
-18.0
 20
-5.0
  0
LWPOLYLINE
  5
38
330
17
100
AcDbEntity
  8
0
100
AcDbPolyline
 90
51
 70
0
 10
-6.0
 20
0.0
 10
-6.0
 20
-0.1
 10
-6.0
 20
-0.2
 10
-6.0
 20
-0.3
 10
-6.0
 20
-0.4
 10
-6.0
 20
-0.5
 10
-6.0
 20
-0.6
 10
-6.0
 20
-0.7
 10
-6.0
 20
-0.8
 10
-6.0
 20
-0.9
 10
-6.0
 20
-1.0
 10
-6.0
 20
-1.1
 10
-6.0
 20
-1.2
 10
-6.0
 20
-1.3
 10
-6.0
 20
-1.4
 10
-6.0
 20
-1.5
 10
-6.0
 20
-1.6
 10
-6.0
 20
-1.7
 10
-6.0
 20
-1.8
 10
-6.0
 20
-1.9
 10
-6.0
 20
-2.0
 10
-6.0
 20
-2.1
 10
-6.0
 20
-2.2
 10
-6.0
 20
-2.3
 10
-6.0
 20
-2.4
 10
-6.0
 20
-2.5
 10
-6.0
 20
-2.6
 10
-6.0
 20
-2.7
 10
-6.0
 20
-2.8
 10
-6.0
 20
-2.9
 10
-6.0
 20
-3.0
 10
-6.0
 20
-3.1
 10
-6.0
 20
-3.2
 10
-6.0
 20
-3.3
 10
-6.0
 20
-3.4
 10
-6.0
 20
-3.5
 10
-6.0
 20
-3.6
 10
-6.0
 20
-3.7
 10
-6.0
 20
-3.8
 10
-6.0
 20
-3.9
 10
-6.0
 20
-4.0
 10
-6.0
 20
-4.1
 10
-6.0
 20
-4.2
 10
-6.0
 20
-4.3
 10
-6.0
 20
-4.4
 10
-6.0
 20
-4.5
 10
-6.0
 20
-4.6
 10
-6.0
 20
-4.7
 10
-6.0
 20
-4.8
 10
-6.0
 20
-4.9
 10
-6.0
 20
-5.0
  0
LWPOLYLINE
  5
39
330
17
100
AcDbEntity
  8
0
100
AcDbPolyline
 90
51
 70
0
 10
-6.0
 20
0.0
 10
-6.24
 20
0.0
 10
-6.48
 20
0.0
 10
-6.720000000000001
 20
0.0
 10
-6.96
 20
0.0
 10
-7.2
 20
0.0
 10
-7.44
 20
0.0
 10
-7.680000000000001
 20
0.0
 10
-7.92
 20
0.0
 10
-8.16
 20
0.0
 10
-8.4
 20
0.0
 10
-8.64
 20
0.0
 10
-8.88
 20
0.0
 10
-9.120000000000001
 20
0.0
 10
-9.360000000000001
 20
0.0
 10
-9.600000000000001
 20
0.0
 10
-9.84
 20
0.0
 10
-10.080000000000002
 20
0.0
 10
-10.32
 20
0.0
 10
-10.56
 20
0.0
 10
-10.8
 20
0.0
 10
-11.040000000000001
 20
0.0
 10
-11.280000000000001
 20
0.0
 10
-11.520000000000001
 20
0.0
 10
-11.760000000000002
 20
0.0
 10
-12.0
 20
0.0
 10
-12.240000000000002
 20
0.0
 10
-12.48
 20
0.0
 10
-12.720000000000002
 20
0.0
 10
-12.96
 20
0.0
 10
-13.200000000000001
 20
0.0
 10
-13.440000000000001
 20
0.0
 10
-13.680000000000001
 20
0.0
 10
-13.920000000000002
 20
0.0
 10
-14.160000000000002
 20
0.0
 10
-14.4
 20
0.0
 10
-14.64
 20
0.0
 10
-14.88
 20
0.0
 10
-15.120000000000001
 20
0.0
 10
-15.360000000000001
 20
0.0
 10
-15.600000000000001
 20
0.0
 10
-15.840000000000002
 20
0.0
 10
-16.080000000000002
 20
0.0
 10
-16.32
 20
0.0
 10
-16.560000000000002
 20
0.0
 10
-16.800000000000004
 20
0.0
 10
-17.040000000000003
 20
0.0
 10
-17.28
 20
0.0
 10
-17.520000000000003
 20
0.0
 10
-17.76
 20
0.0
 10
-18.0
 20
0.0
  0
LWPOLYLINE
  5
3A
330
17
100
AcDbEntity
  8
0
100
AcDbPolyline
 90
51
 70
0
 10
-18.0
 20
0.0
 10
-18.52
 20
0.0
 10
-19.04
 20
0.0
 10
-19.56
 20
0.0
 10
-20.08
 20
0.0
 10
-20.6
 20
0.0
 10
-21.12
 20
0.0
 10
-21.64
 20
0.0
 10
-22.16
 20
0.0
 10
-22.68
 20
0.0
 10
-23.2
 20
0.0
 10
-23.72
 20
0.0
 10
-24.240000000000002
 20
0.0
 10
-24.759999999999998
 20
0.0
 10
-25.28
 20
0.0
 10
-25.8
 20
0.0
 10
-26.32
 20
0.0
 10
-26.84
 20
0.0
 10
-27.36
 20
0.0
 10
-27.880000000000003
 20
0.0
 10
-28.4
 20
0.0
 10
-28.92
 20
0.0
 10
-29.439999999999998
 20
0.0
 10
-29.96
 20
0.0
 10
-30.48
 20
0.0
 10
-31.0
 20
0.0
 10
-31.52
 20
0.0
 10
-32.04
 20
0.0
 10
-32.56
 20
0.0
 10
-33.08
 20
0.0
 10
-33.6
 20
0.0
 10
-34.120000000000005
 20
0.0
 10
-34.64
 20
0.0
 10
-35.16
 20
0.0
 10
-35.68
 20
0.0
 10
-36.2
 20
0.0
 10
-36.72
 20
0.0
 10
-37.239999999999995
 20
0.0
 10
-37.760000000000005
 20
0.0
 10
-38.28
 20
0.0
 10
-38.8
 20
0.0
 10
-39.32
 20
0.0
 10
-39.84
 20
0.0
 10
-40.36
 20
0.0
 10
-40.879999999999995
 20
0.0
 10
-41.4
 20
0.0
 10
-41.92
 20
0.0
 10
-42.44
 20
0.0
 10
-42.96
 20
0.0
 10
-43.480000000000004
 20
0.0
 10
-44.0
 20
0.0
  0
LWPOLYLINE
  5
3B
330
17
100
AcDbEntity
  8
0
100
AcDbPolyline
 90
51
 70
0
 10
-44.0
 20
0.0
 10
-44.0
 20
-0.2
 10
-44.0
 20
-0.4
 10
-44.0
 20
-0.6
 10
-44.0
 20
-0.8
 10
-44.0
 20
-1.0
 10
-44.0
 20
-1.2
 10
-44.0
 20
-1.4
 10
-44.0
 20
-1.6
 10
-44.0
 20
-1.8
 10
-44.0
 20
-2.0
 10
-44.0
 20
-2.2
 10
-44.0
 20
-2.4
 10
-44.0
 20
-2.6
 10
-44.0
 20
-2.8
 10
-44.0
 20
-3.0
 10
-44.0
 20
-3.2
 10
-44.0
 20
-3.4
 10
-44.0
 20
-3.6
 10
-44.0
 20
-3.8
 10
-44.0
 20
-4.0
 10
-44.0
 20
-4.2
 10
-44.0
 20
-4.4
 10
-44.0
 20
-4.6
 10
-44.0
 20
-4.8
 10
-44.0
 20
-5.0
 10
-44.0
 20
-5.2
 10
-44.0
 20
-5.4
 10
-44.0
 20
-5.6
 10
-44.0
 20
-5.8
 10
-44.0
 20
-6.0
 10
-44.0
 20
-6.2
 10
-44.0
 20
-6.4
 10
-44.0
 20
-6.6
 10
-44.0
 20
-6.8
 10
-44.0
 20
-7.0
 10
-44.0
 20
-7.2
 10
-44.0
 20
-7.4
 10
-44.0
 20
-7.6
 10
-44.0
 20
-7.8
 10
-44.0
 20
-8.0
 10
-44.0
 20
-8.2
 10
-44.0
 20
-8.4
 10
-44.0
 20
-8.6
 10
-44.0
 20
-8.8
 10
-44.0
 20
-9.0
 10
-44.0
 20
-9.2
 10
-44.0
 20
-9.4
 10
-44.0
 20
-9.6
 10
-44.0
 20
-9.8
 10
-44.0
 20
-10.0
  0
LWPOLYLINE
  5
3C
330
17
100
AcDbEntity
  8
0
100
AcDbPolyline
 90
51
 70
0
 10
-6.0
 20
-10.0
 10
-6.76
 20
-10.0
 10
-7.52
 20
-10.0
 10
-8.28
 20
-10.0
 10
-9.04
 20
-10.0
 10
-9.8
 20
-10.0
 10
-10.559999999999999
 20
-10.0
 10
-11.32
 20
-10.0
 10
-12.08
 20
-10.0
 10
-12.84
 20
-10.0
 10
-13.6
 20
-10.0
 10
-14.36
 20
-10.0
 10
-15.12
 20
-10.0
 10
-15.88
 20
-10.0
 10
-16.64
 20
-10.0
 10
-17.4
 20
-10.0
 10
-18.16
 20
-10.0
 10
-18.92
 20
-10.0
 10
-19.68
 20
-10.0
 10
-20.439999999999998
 20
-10.0
 10
-21.2
 20
-10.0
 10
-21.96
 20
-10.0
 10
-22.72
 20
-10.0
 10
-23.48
 20
-10.0
 10
-24.24
 20
-10.0
 10
-25.0
 20
-10.0
 10
-25.76
 20
-10.0
 10
-26.52
 20
-10.0
 10
-27.28
 20
-10.0
 10
-28.04
 20
-10.0
 10
-28.8
 20
-10.0
 10
-29.56
 20
-10.0
 10
-30.32
 20
-10.0
 10
-31.08
 20
-10.0
 10
-31.84
 20
-10.0
 10
-32.6
 20
-10.0
 10
-33.36
 20
-10.0
 10
-34.120000000000005
 20
-10.0
 10
-34.879999999999995
 20
-10.0
 10
-35.64
 20
-10.0
 10
-36.4
 20
-10.0
 10
-37.16
 20
-10.0
 10
-37.92
 20
-10.0
 10
-38.68
 20
-10.0
 10
-39.44
 20
-10.0
 10
-40.2
 20
-10.0
 10
-40.96
 20
-10.0
 10
-41.72
 20
-10.0
 10
-42.48
 20
-10.0
 10
-43.24
 20
-10.0
 10
-44.0
 20
-10.0
  0
LWPOLYLINE
  5
3D
330
17
100
AcDbEntity
  8
0
100
AcDbPolyline
 90
51
 70
0
 10
-6.0
 20
-5.0
 10
-6.0
 20
-5.1
 10
-6.0
 20
-5.2
 10
-6.0
 20
-5.3
 10
-6.0
 20
-5.4
 10
-6.0
 20
-5.5
 10
-6.0
 20
-5.6
 10
-6.0
 20
-5.7
 10
-6.0
 20
-5.8
 10
-6.0
 20
-5.9
 10
-6.0
 20
-6.0
 10
-6.0
 20
-6.1
 10
-6.0
 20
-6.2
 10
-6.0
 20
-6.3
 10
-6.0
 20
-6.4
 10
-6.0
 20
-6.5
 10
-6.0
 20
-6.6
 10
-6.0
 20
-6.7
 10
-6.0
 20
-6.8
 10
-6.0
 20
-6.9
 10
-6.0
 20
-7.0
 10
-6.0
 20
-7.1
 10
-6.0
 20
-7.2
 10
-6.0
 20
-7.3
 10
-6.0
 20
-7.4
 10
-6.0
 20
-7.5
 10
-6.0
 20
-7.6
 10
-6.0
 20
-7.7
 10
-6.0
 20
-7.8
 10
-6.0
 20
-7.9
 10
-6.0
 20
-8.0
 10
-6.0
 20
-8.1
 10
-6.0
 20
-8.2
 10
-6.0
 20
-8.3
 10
-6.0
 20
-8.4
 10
-6.0
 20
-8.5
 10
-6.0
 20
-8.6
 10
-6.0
 20
-8.7
 10
-6.0
 20
-8.8
 10
-6.0
 20
-8.9
 10
-6.0
 20
-9.0
 10
-6.0
 20
-9.1
 10
-6.0
 20
-9.2
 10
-6.0
 20
-9.3
 10
-6.0
 20
-9.4
 10
-6.0
 20
-9.5
 10
-6.0
 20
-9.6
 10
-6.0
 20
-9.7
 10
-6.0
 20
-9.8
 10
-6.0
 20
-9.9
 10
-6.0
 20
-10.0
  0
LWPOLYLINE
  5
3E
330
17
100
AcDbEntity
  8
0
100
AcDbPolyline
 90
51
 70
0
 10
0.0
 20
0.0
 10
-0.12
 20
0.0
 10
-0.24
 20
0.0
 10
-0.36
 20
0.0
 10
-0.48
 20
0.0
 10
-0.6
 20
0.0
 10
-0.72
 20
0.0
 10
-0.84
 20
0.0
 10
-0.96
 20
0.0
 10
-1.08
 20
0.0
 10
-1.2
 20
0.0
 10
-1.32
 20
0.0
 10
-1.44
 20
0.0
 10
-1.56
 20
0.0
 10
-1.68
 20
0.0
 10
-1.8
 20
0.0
 10
-1.92
 20
0.0
 10
-2.04
 20
0.0
 10
-2.16
 20
0.0
 10
-2.28
 20
0.0
 10
-2.4
 20
0.0
 10
-2.52
 20
0.0
 10
-2.64
 20
0.0
 10
-2.76
 20
0.0
 10
-2.88
 20
0.0
 10
-3.0
 20
0.0
 10
-3.12
 20
0.0
 10
-3.24
 20
0.0
 10
-3.36
 20
0.0
 10
-3.48
 20
0.0
 10
-3.6
 20
0.0
 10
-3.72
 20
0.0
 10
-3.84
 20
0.0
 10
-3.96
 20
0.0
 10
-4.08
 20
0.0
 10
-4.2
 20
0.0
 10
-4.32
 20
0.0
 10
-4.44
 20
0.0
 10
-4.56
 20
0.0
 10
-4.68
 20
0.0
 10
-4.8
 20
0.0
 10
-4.92
 20
0.0
 10
-5.04
 20
0.0
 10
-5.16
 20
0.0
 10
-5.28
 20
0.0
 10
-5.4
 20
0.0
 10
-5.52
 20
0.0
 10
-5.64
 20
0.0
 10
-5.76
 20
0.0
 10
-5.88
 20
0.0
 10
-6.0
 20
0.0
  0
LWPOLYLINE
  5
3F
330
17
100
AcDbEntity
  8
0
100
AcDbPolyline
 90
51
 70
0
 10
6.0
 20
0.0
 10
5.989436512620648
 20
0.0
 10
5.978873025241295
 20
0.0
 10
5.968309537861942
 20
0.0
 10
5.948748565007234
 20
0.0
 10
5.91719094485205
 20
0.0
 10
5.885633324696866
 20
0.0
 10
5.854075704541683
 20
0.0
 10
5.804863275193165
 20
0.0
 10
5.752708377645759
 20
0.0
 10
5.700553480098353
 20
0.0
 10
5.642701039895351
 20
0.0
 10
5.570604743053357
 20
0.0
 10
5.498508446211364
 20
0.0
 10
5.426412149369371
 20
0.0
 10
5.340719605005553
 20
0.0
 10
5.249588561633007
 20
0.0
 10
5.158457518260461
 20
0.0
 10
5.064770943347245
 20
0.0
 10
4.955751179190019
 20
0.0
 10
4.84673141503279
 20
0.0
 10
4.737711650875563
 20
0.0
 10
4.619253181577958
 20
0.0
 10
4.493715683425067
 20
0.0
 10
4.368178185272175
 20
0.0
 10
4.242640687119286
 20
0.0
 10
4.102164161848559
 20
0.0
 10
3.961687636577832
 20
0.0
 10
3.8212111113071034
 20
0.0
 10
3.675089248905155
 20
0.0
 10
3.521440270328249
 20
0.0
 10
3.367791291751343
 20
0.0
 10
3.214142313174437
 20
0.0
 10
3.0508588532392196
 20
0.0
 10
2.8859696464109503
 20
0.0
 10
2.7210804395826833
 20
0.0
 10
2.5535721896674026
 20
0.0
 10
2.3795163320345867
 20
0.0
 10
2.205460474401768
 20
0.0
 10
2.03140461676895
 20
0.0
 10
1.85236461813238
 20
0.0
 10
1.6713309630943085
 20
0.0
 10
1.490297308056237
 20
0.0
 10
1.3085920538531632
 20
0.0
 10
1.1228572046601135
 20
0.0
 10
0.9371223554670636
 20
0.0
 10
0.7513875062740136
 20
0.0
 10
0.5643009595606745
 20
0.0
 10
0.37620063970711304
 20
0.0
 10
0.1881003198535569
 20
0.0
 10
7.347880794884119e-16
 20
0.0
  0
LWPOLYLINE
  5
40
330
17
100
AcDbEntity
  8
0
100
AcDbPolyline
 90
51
 70
0
 10
5.0
 20
-10.0
 10
4.964899077054553
 20
-10.0
 10
4.929798154109106
 20
-10.0
 10
4.89469723116366
 20
-10.0
 10
4.830264134341475
 20
-10.0
 10
4.7267214723503095
 20
-10.0
 10
4.623178810359144
 20
-10.0
 10
4.519636148367977
 20
-10.0
 10
4.361879476990829
 20
-10.0
 10
4.195087137382683
 20
-10.0
 10
4.028294797774539
 20
-10.0
 10
3.8458207400964324
 20
-10.0
 10
3.624142387243416
 20
-10.0
 10
3.4024640343904022
 20
-10.0
 10
3.180785681537386
 20
-10.0
 10
2.9278429465524933
 20
-10.0
 10
2.662394458714849
 20
-10.0
 10
2.3969459708772014
 20
-10.0
 10
2.127146134555544
 20
-10.0
 10
1.8312382073298
 20
-10.0
 10
1.5353302801040605
 20
-10.0
 10
1.239422352878321
 20
-10.0
 10
0.9345879226165208
 20
-10.0
 10
0.6230586150776823
 20
-10.0
 10
0.31152930753883945
 20
-10.0
 10
1.2246467991473533e-15
 20
-10.0
 10
-0.3115293075388373
 20
-10.0
 10
-0.6230586150776802
 20
-10.0
 10
-0.9345879226165187
 20
-10.0
 10
-1.2394223528783188
 20
-10.0
 10
-1.5353302801040583
 20
-10.0
 10
-1.831238207329798
 20
-10.0
 10
-2.1271461345555416
 20
-10.0
 10
-2.396945970877203
 20
-10.0
 10
-2.6623944587148474
 20
-10.0
 10
-2.9278429465524916
 20
-10.0
 10
-3.180785681537384
 20
-10.0
 10
-3.402464034390401
 20
-10.0
 10
-3.624142387243414
 20
-10.0
 10
-3.8458207400964306
 20
-10.0
 10
-4.028294797774537
 20
-10.0
 10
-4.195087137382681
 20
-10.0
 10
-4.361879476990828
 20
-10.0
 10
-4.519636148367976
 20
-10.0
 10
-4.623178810359143
 20
-10.0
 10
-4.726721472350309
 20
-10.0
 10
-4.8302641343414745
 20
-10.0
 10
-4.894697231163659
 20
-10.0
 10
-4.929798154109106
 20
-10.0
 10
-4.964899077054553
 20
-10.0
 10
-5.0
 20
-10.0
  0
LWPOLYLINE
  5
41
330
17
100
AcDbEntity
  8
0
100
AcDbPolyline
 90
51
 70
0
 10
5.0
 20
-15.0
 10
4.964899077054553
 20
-15.0
 10
4.929798154109106
 20
-15.0
 10
4.89469723116366
 20
-15.0
 10
4.830264134341475
 20
-15.0
 10
4.7267214723503095
 20
-15.0
 10
4.623178810359144
 20
-15.0
 10
4.519636148367977
 20
-15.0
 10
4.361879476990829
 20
-15.0
 10
4.195087137382683
 20
-15.0
 10
4.028294797774539
 20
-15.0
 10
3.8458207400964324
 20
-15.0
 10
3.624142387243416
 20
-15.0
 10
3.4024640343904022
 20
-15.0
 10
3.180785681537386
 20
-15.0
 10
2.9278429465524933
 20
-15.0
 10
2.662394458714849
 20
-15.0
 10
2.3969459708772014
 20
-15.0
 10
2.127146134555544
 20
-15.0
 10
1.8312382073298
 20
-15.0
 10
1.5353302801040605
 20
-15.0
 10
1.239422352878321
 20
-15.0
 10
0.9345879226165208
 20
-15.0
 10
0.6230586150776823
 20
-15.0
 10
0.31152930753883945
 20
-15.0
 10
1.2246467991473533e-15
 20
-15.0
 10
-0.3115293075388373
 20
-15.0
 10
-0.6230586150776802
 20
-15.0
 10
-0.9345879226165187
 20
-15.0
 10
-1.2394223528783188
 20
-15.0
 10
-1.5353302801040583
 20
-15.0
 10
-1.831238207329798
 20
-15.0
 10
-2.1271461345555416
 20
-15.0
 10
-2.396945970877203
 20
-15.0
 10
-2.6623944587148474
 20
-15.0
 10
-2.9278429465524916
 20
-15.0
 10
-3.180785681537384
 20
-15.0
 10
-3.402464034390401
 20
-15.0
 10
-3.624142387243414
 20
-15.0
 10
-3.8458207400964306
 20
-15.0
 10
-4.028294797774537
 20
-15.0
 10
-4.195087137382681
 20
-15.0
 10
-4.361879476990828
 20
-15.0
 10
-4.519636148367976
 20
-15.0
 10
-4.623178810359143
 20
-15.0
 10
-4.726721472350309
 20
-15.0
 10
-4.8302641343414745
 20
-15.0
 10
-4.894697231163659
 20
-15.0
 10
-4.929798154109106
 20
-15.0
 10
-4.964899077054553
 20
-15.0
 10
-5.0
 20
-15.0
  0
ENDSEC
  0
SECTION
  2
OBJECTS
  0
DICTIONARY
  5
A
330
0
100
AcDbDictionary
280
0
281
1
  3
ACAD_COLOR
350
B
  3
ACAD_GROUP
350
C
  3
ACAD_LAYOUT
350
D
  3
ACAD_MATERIAL
350
E
  3
ACAD_MLEADERSTYLE
350
F
  3
ACAD_MLINESTYLE
350
10
  3
ACAD_PLOTSETTINGS
350
11
  3
ACAD_PLOTSTYLENAME
350
12
  3
ACAD_SCALELIST
350
14
  3
ACAD_TABLESTYLE
350
15
  3
ACAD_VISUALSTYLE
350
16
  3
EZDXF_META
350
2D
  0
DICTIONARY
  5
B
330
A
100
AcDbDictionary
280
0
281
1
  0
DICTIONARY
  5
C
330
A
100
AcDbDictionary
280
0
281
1
  0
DICTIONARY
  5
D
330
A
100
AcDbDictionary
280
0
281
1
  3
Model
350
1A
  3
Layout1
350
1E
  0
DICTIONARY
  5
E
330
A
100
AcDbDictionary
280
0
281
1
  3
ByBlock
350
1F
  3
ByLayer
350
20
  3
Global
350
21
  0
DICTIONARY
  5
F
330
A
100
AcDbDictionary
280
0
281
1
  3
Standard
350
2C
  0
DICTIONARY
  5
10
330
A
100
AcDbDictionary
280
0
281
1
  3
Standard
350
22
  0
DICTIONARY
  5
11
330
A
100
AcDbDictionary
280
0
281
1
  0
ACDBDICTIONARYWDFLT
  5
12
330
A
100
AcDbDictionary
280
0
281
1
  3
Normal
350
13
100
AcDbDictionaryWithDefault
340
13
  0
ACDBPLACEHOLDER
  5
13
330
12
  0
DICTIONARY
  5
14
330
A
100
AcDbDictionary
280
0
281
1
  0
DICTIONARY
  5
15
330
A
100
AcDbDictionary
280
0
281
1
  0
DICTIONARY
  5
16
330
A
100
AcDbDictionary
280
0
281
1
  0
LAYOUT
  5
1A
330
D
100
AcDbPlotSettings
  1

  2
Adobe PDF
  4
A3
  6

 40
7.5
 41
20.0
 42
7.5
 43
20.0
 44
420.0
 45
297.0
 46
0.0
 47
0.0
 48
0.0
 49
0.0
140
0.0
141
0.0
142
1.0
143
1.0
 70
1024
 72
1
 73
0
 74
5
  7

 75
16
 76
0
 77
2
 78
300
147
1.0
148
0.0
149
0.0
100
AcDbLayout
  1
Model
 70
1
 71
0
 10
0.0
 20
0.0
 11
420.0
 21
297.0
 12
0.0
 22
0.0
 32
0.0
 14
1e+20
 24
1e+20
 34
1e+20
 15
-1e+20
 25
-1e+20
 35
-1e+20
146
0.0
 13
0.0
 23
0.0
 33
0.0
 16
1.0
 26
0.0
 36
0.0
 17
0.0
 27
1.0
 37
0.0
 76
1
330
17
  0
LAYOUT
  5
1E
330
D
100
AcDbPlotSettings
  1

  2
Adobe PDF
  4
A3
  6

 40
7.5
 41
20.0
 42
7.5
 43
20.0
 44
420.0
 45
297.0
 46
0.0
 47
0.0
 48
0.0
 49
0.0
140
0.0
141
0.0
142
1.0
143
1.0
 70
0
 72
1
 73
0
 74
5
  7

 75
16
 76
0
 77
2
 78
300
147
1.0
148
0.0
149
0.0
100
AcDbLayout
  1
Layout1
 70
1
 71
1
 10
0.0
 20
0.0
 11
420.0
 21
297.0
 12
0.0
 22
0.0
 32
0.0
 14
1e+20
 24
1e+20
 34
1e+20
 15
-1e+20
 25
-1e+20
 35
-1e+20
146
0.0
 13
0.0
 23
0.0
 33
0.0
 16
1.0
 26
0.0
 36
0.0
 17
0.0
 27
1.0
 37
0.0
 76
1
330
1B
  0
MATERIAL
  5
1F
102
{ACAD_REACTORS
330
E
102
}
330
E
100
AcDbMaterial
  1
ByBlock
  2

 70
0
 40
1.0
 71
1
 41
1.0
 91
-1023410177
 42
1.0
 72
1
  3

 73
1
 74
1
 75
1
 44
0.5
 73
0
 45
1.0
 46
1.0
 77
1
  4

 78
1
 79
1
170
1
 48
1.0
171
1
  6

172
1
173
1
174
1
140
1.0
141
1.0
175
1
  7

176
1
177
1
178
1
143
1.0
179
1
  8

270
1
271
1
272
1
145
1.0
146
1.0
273
1
  9

274
1
275
1
276
1
 42
1.0
 72
1
  3

 73
1
 74
1
 75
1
 94
63
  0
MATERIAL
  5
20
102
{ACAD_REACTORS
330
E
102
}
330
E
100
AcDbMaterial
  1
ByLayer
  2

 70
0
 40
1.0
 71
1
 41
1.0
 91
-1023410177
 42
1.0
 72
1
  3

 73
1
 74
1
 75
1
 44
0.5
 73
0
 45
1.0
 46
1.0
 77
1
  4

 78
1
 79
1
170
1
 48
1.0
171
1
  6

172
1
173
1
174
1
140
1.0
141
1.0
175
1
  7

176
1
177
1
178
1
143
1.0
179
1
  8

270
1
271
1
272
1
145
1.0
146
1.0
273
1
  9

274
1
275
1
276
1
 42
1.0
 72
1
  3

 73
1
 74
1
 75
1
 94
63
  0
MATERIAL
  5
21
102
{ACAD_REACTORS
330
E
102
}
330
E
100
AcDbMaterial
  1
Global
  2

 70
0
 40
1.0
 71
1
 41
1.0
 91
-1023410177
 42
1.0
 72
1
  3

 73
1
 74
1
 75
1
 44
0.5
 73
0
 45
1.0
 46
1.0
 77
1
  4

 78
1
 79
1
170
1
 48
1.0
171
1
  6

172
1
173
1
174
1
140
1.0
141
1.0
175
1
  7

176
1
177
1
178
1
143
1.0
179
1
  8

270
1
271
1
272
1
145
1.0
146
1.0
273
1
  9

274
1
275
1
276
1
 42
1.0
 72
1
  3

 73
1
 74
1
 75
1
 94
63
  0
MLINESTYLE
  5
22
102
{ACAD_REACTORS
330
10
102
}
330
10
100
AcDbMlineStyle
  2
Standard
 70
0
  3

 62
256
 51
90.0
 52
90.0
 71
2
 49
0.5
 62
256
  6
BYLAYER
 49
-0.5
 62
256
  6
BYLAYER
  0
MLEADERSTYLE
  5
2C
102
{ACAD_REACTORS
330
F
102
}
330
F
100
AcDbMLeaderStyle
179
2
170
2
171
1
172
0
 90
2
 40
0.0
 41
0.0
173
1
 91
-1056964608
 92
-2
290
1
 42
2.0
291
1
 43
8.0
  3
Standard
 44
4.0
300

342
29
174
1
175
1
176
0
178
1
 93
-1056964608
 45
4.0
292
0
297
0
 46
4.0
 94
-1056964608
 47
1.0
 49
1.0
140
1.0
294
1
141
0.0
177
0
142
1.0
295
0
296
0
143
3.75
271
0
272
9
273
9
  0
DICTIONARY
  5
2D
330
A
100
AcDbDictionary
281
1
  3
CREATED_BY_EZDXF
350
2E
  3
WRITTEN_BY_EZDXF
350
44
  0
DICTIONARYVAR
  5
2E
330
2D
100
DictionaryVariables
280
0
  1
1.0.3 @ 2025-05-29T09:41:24.400888+00:00
  0
DICTIONARYVAR
  5
44
330
2D
100
DictionaryVariables
280
0
  1
1.0.3 @ 2025-05-29T09:41:24.406414+00:00
  0
ENDSEC
  0
EOF
