  0
SECTION
  2
HEADER
  9
$ACADVER
  1
AC1027
  9
$ACADMAINTVER
 70
105
  9
$DWGCODEPAGE
  3
ANSI_1252
  9
$LASTSAVEDBY
  1
ezdxf
  9
$REQUIREDVERSIONS
160
0
  9
$INSBASE
 10
0.0
 20
0.0
 30
0.0
  9
$EXTMIN
 10
1e+20
 20
1e+20
 30
1e+20
  9
$EXTMAX
 10
-1e+20
 20
-1e+20
 30
-1e+20
  9
$LIMMIN
 10
0.0
 20
0.0
  9
$LIMMAX
 10
420.0
 20
297.0
  9
$ORTHOMODE
 70
0
  9
$REGENMODE
 70
1
  9
$FILLMODE
 70
1
  9
$QTEXTMODE
 70
0
  9
$MIRRTEXT
 70
1
  9
$LTSCALE
 40
1.0
  9
$ATTMODE
 70
1
  9
$TEXTSIZE
 40
2.5
  9
$TRACEWID
 40
1.0
  9
$TEXTSTYLE
  7
Standard
  9
$CLAYER
  8
0
  9
$CELTYPE
  6
ByLayer
  9
$CECOLOR
 62
256
  9
$CELTSCALE
 40
1.0
  9
$DISPSILH
 70
0
  9
$DIMSCALE
 40
1.0
  9
$DIMASZ
 40
2.5
  9
$DIMEXO
 40
0.625
  9
$DIMDLI
 40
3.75
  9
$DIMRND
 40
0.0
  9
$DIMDLE
 40
0.0
  9
$DIMEXE
 40
1.25
  9
$DIMTP
 40
0.0
  9
$DIMTM
 40
0.0
  9
$DIMTXT
 40
2.5
  9
$DIMCEN
 40
2.5
  9
$DIMTSZ
 40
0.0
  9
$DIMTOL
 70
0
  9
$DIMLIM
 70
0
  9
$DIMTIH
 70
0
  9
$DIMTOH
 70
0
  9
$DIMSE1
 70
0
  9
$DIMSE2
 70
0
  9
$DIMTAD
 70
1
  9
$DIMZIN
 70
8
  9
$DIMBLK
  1

  9
$DIMASO
 70
1
  9
$DIMSHO
 70
1
  9
$DIMPOST
  1

  9
$DIMAPOST
  1

  9
$DIMALT
 70
0
  9
$DIMALTD
 70
3
  9
$DIMALTF
 40
0.03937007874
  9
$DIMLFAC
 40
1.0
  9
$DIMTOFL
 70
1
  9
$DIMTVP
 40
0.0
  9
$DIMTIX
 70
0
  9
$DIMSOXD
 70
0
  9
$DIMSAH
 70
0
  9
$DIMBLK1
  1

  9
$DIMBLK2
  1

  9
$DIMSTYLE
  2
ISO-25
  9
$DIMCLRD
 70
0
  9
$DIMCLRE
 70
0
  9
$DIMCLRT
 70
0
  9
$DIMTFAC
 40
1.0
  9
$DIMGAP
 40
0.625
  9
$DIMJUST
 70
0
  9
$DIMSD1
 70
0
  9
$DIMSD2
 70
0
  9
$DIMTOLJ
 70
0
  9
$DIMTZIN
 70
8
  9
$DIMALTZ
 70
0
  9
$DIMALTTZ
 70
0
  9
$DIMUPT
 70
0
  9
$DIMDEC
 70
2
  9
$DIMTDEC
 70
2
  9
$DIMALTU
 70
2
  9
$DIMALTTD
 70
3
  9
$DIMTXSTY
  7
Standard
  9
$DIMAUNIT
 70
0
  9
$DIMADEC
 70
0
  9
$DIMALTRND
 40
0.0
  9
$DIMAZIN
 70
0
  9
$DIMDSEP
 70
44
  9
$DIMATFIT
 70
3
  9
$DIMFRAC
 70
0
  9
$DIMLDRBLK
  1

  9
$DIMLUNIT
 70
2
  9
$DIMLWD
 70
-2
  9
$DIMLWE
 70
-2
  9
$DIMTMOVE
 70
0
  9
$DIMFXL
 40
1.0
  9
$DIMFXLON
 70
0
  9
$DIMJOGANG
 40
0.785398163397
  9
$DIMTFILL
 70
0
  9
$DIMTFILLCLR
 70
0
  9
$DIMARCSYM
 70
0
  9
$DIMLTYPE
  6

  9
$DIMLTEX1
  6

  9
$DIMLTEX2
  6

  9
$DIMTXTDIRECTION
 70
0
  9
$LUNITS
 70
2
  9
$LUPREC
 70
4
  9
$SKETCHINC
 40
1.0
  9
$FILLETRAD
 40
10.0
  9
$AUNITS
 70
0
  9
$AUPREC
 70
2
  9
$MENU
  1
.
  9
$ELEVATION
 40
0.0
  9
$PELEVATION
 40
0.0
  9
$THICKNESS
 40
0.0
  9
$LIMCHECK
 70
0
  9
$CHAMFERA
 40
0.0
  9
$CHAMFERB
 40
0.0
  9
$CHAMFERC
 40
0.0
  9
$CHAMFERD
 40
0.0
  9
$SKPOLY
 70
0
  9
$TDCREATE
 40
2460825.77875
  9
$TDUCREATE
 40
2458532.153996898
  9
$TDUPDATE
 40
2460825.77875
  9
$TDUUPDATE
 40
2458532.1544311
  9
$TDINDWG
 40
0.0
  9
$TDUSRTIMER
 40
0.0
  9
$USRTIMER
 70
1
  9
$ANGBASE
 50
0.0
  9
$ANGDIR
 70
0
  9
$PDMODE
 70
0
  9
$PDSIZE
 40
0.0
  9
$PLINEWID
 40
0.0
  9
$SPLFRAME
 70
0
  9
$SPLINETYPE
 70
6
  9
$SPLINESEGS
 70
8
  9
$HANDSEED
  5
48
  9
$SURFTAB1
 70
6
  9
$SURFTAB2
 70
6
  9
$SURFTYPE
 70
6
  9
$SURFU
 70
6
  9
$SURFV
 70
6
  9
$UCSBASE
  2

  9
$UCSNAME
  2

  9
$UCSORG
 10
0.0
 20
0.0
 30
0.0
  9
$UCSXDIR
 10
1.0
 20
0.0
 30
0.0
  9
$UCSYDIR
 10
0.0
 20
1.0
 30
0.0
  9
$UCSORTHOREF
  2

  9
$UCSORTHOVIEW
 70
0
  9
$UCSORGTOP
 10
0.0
 20
0.0
 30
0.0
  9
$UCSORGBOTTOM
 10
0.0
 20
0.0
 30
0.0
  9
$UCSORGLEFT
 10
0.0
 20
0.0
 30
0.0
  9
$UCSORGRIGHT
 10
0.0
 20
0.0
 30
0.0
  9
$UCSORGFRONT
 10
0.0
 20
0.0
 30
0.0
  9
$UCSORGBACK
 10
0.0
 20
0.0
 30
0.0
  9
$PUCSBASE
  2

  9
$PUCSNAME
  2

  9
$PUCSORG
 10
0.0
 20
0.0
 30
0.0
  9
$PUCSXDIR
 10
1.0
 20
0.0
 30
0.0
  9
$PUCSYDIR
 10
0.0
 20
1.0
 30
0.0
  9
$PUCSORTHOREF
  2

  9
$PUCSORTHOVIEW
 70
0
  9
$PUCSORGTOP
 10
0.0
 20
0.0
 30
0.0
  9
$PUCSORGBOTTOM
 10
0.0
 20
0.0
 30
0.0
  9
$PUCSORGLEFT
 10
0.0
 20
0.0
 30
0.0
  9
$PUCSORGRIGHT
 10
0.0
 20
0.0
 30
0.0
  9
$PUCSORGFRONT
 10
0.0
 20
0.0
 30
0.0
  9
$PUCSORGBACK
 10
0.0
 20
0.0
 30
0.0
  9
$USERI1
 70
0
  9
$USERI2
 70
0
  9
$USERI3
 70
0
  9
$USERI4
 70
0
  9
$USERI5
 70
0
  9
$USERR1
 40
0.0
  9
$USERR2
 40
0.0
  9
$USERR3
 40
0.0
  9
$USERR4
 40
0.0
  9
$USERR5
 40
0.0
  9
$WORLDVIEW
 70
1
  9
$SHADEDGE
 70
3
  9
$SHADEDIF
 70
70
  9
$TILEMODE
 70
1
  9
$MAXACTVP
 70
64
  9
$PINSBASE
 10
0.0
 20
0.0
 30
0.0
  9
$PLIMCHECK
 70
0
  9
$PEXTMIN
 10
1e+20
 20
1e+20
 30
1e+20
  9
$PEXTMAX
 10
-1e+20
 20
-1e+20
 30
-1e+20
  9
$PLIMMIN
 10
0.0
 20
0.0
  9
$PLIMMAX
 10
420.0
 20
297.0
  9
$UNITMODE
 70
0
  9
$VISRETAIN
 70
1
  9
$PLINEGEN
 70
0
  9
$PSLTSCALE
 70
1
  9
$TREEDEPTH
 70
3020
  9
$CMLSTYLE
  2
Standard
  9
$CMLJUST
 70
0
  9
$CMLSCALE
 40
20.0
  9
$PROXYGRAPHICS
 70
1
  9
$MEASUREMENT
 70
1
  9
$CELWEIGHT
370
-1
  9
$ENDCAPS
280
0
  9
$JOINSTYLE
280
0
  9
$LWDISPLAY
290
0
  9
$INSUNITS
 70
6
  9
$HYPERLINKBASE
  1

  9
$STYLESHEET
  1

  9
$XEDIT
290
1
  9
$CEPSNTYPE
380
0
  9
$PSTYLEMODE
290
1
  9
$FINGERPRINTGUID
  2
{12207E92-82B4-4504-8B15-EC21753EDCEB}
  9
$VERSIONGUID
  2
{FC3371B0-71F1-4572-8B79-73F171DFE801}
  9
$EXTNAMES
290
1
  9
$PSVPSCALE
 40
0.0
  9
$OLESTARTUP
290
0
  9
$SORTENTS
280
127
  9
$INDEXCTL
280
0
  9
$HIDETEXT
280
1
  9
$XCLIPFRAME
280
0
  9
$HALOGAP
280
0
  9
$OBSCOLOR
 70
257
  9
$OBSLTYPE
280
0
  9
$INTERSECTIONDISPLAY
280
0
  9
$INTERSECTIONCOLOR
 70
257
  9
$DIMASSOC
280
2
  9
$PROJECTNAME
  1

  9
$CAMERADISPLAY
290
0
  9
$LENSLENGTH
 40
50.0
  9
$CAMERAHEIGHT
 40
0.0
  9
$STEPSPERSEC
 40
24.0
  9
$STEPSIZE
 40
100.0
  9
$3DDWFPREC
 40
2.0
  9
$PSOLWIDTH
 40
0.005
  9
$PSOLHEIGHT
 40
0.08
  9
$LOFTANG1
 40
1.570796326795
  9
$LOFTANG2
 40
1.570796326795
  9
$LOFTMAG1
 40
0.0
  9
$LOFTMAG2
 40
0.0
  9
$LOFTPARAM
 70
7
  9
$LOFTNORMALS
280
1
  9
$LATITUDE
 40
37.795
  9
$LONGITUDE
 40
-122.394
  9
$NORTHDIRECTION
 40
0.0
  9
$TIMEZONE
 70
-8000
  9
$LIGHTGLYPHDISPLAY
280
1
  9
$TILEMODELIGHTSYNCH
280
1
  9
$CMATERIAL
347
20
  9
$SOLIDHIST
280
0
  9
$SHOWHIST
280
1
  9
$DWFFRAME
280
2
  9
$DGNFRAME
280
2
  9
$REALWORLDSCALE
290
1
  9
$INTERFERECOLOR
 62
256
  9
$CSHADOW
280
0
  9
$SHADOWPLANELOCATION
 40
0.0
  0
ENDSEC
  0
SECTION
  2
CLASSES
  0
CLASS
  1
ACDBDICTIONARYWDFLT
  2
AcDbDictionaryWithDefault
  3
ObjectDBX Classes
 90
0
 91
0
280
0
281
0
  0
CLASS
  1
SUN
  2
AcDbSun
  3
SCENEOE
 90
1153
 91
0
280
0
281
0
  0
CLASS
  1
VISUALSTYLE
  2
AcDbVisualStyle
  3
ObjectDBX Classes
 90
4095
 91
0
280
0
281
0
  0
CLASS
  1
MATERIAL
  2
AcDbMaterial
  3
ObjectDBX Classes
 90
1153
 91
0
280
0
281
0
  0
CLASS
  1
SCALE
  2
AcDbScale
  3
ObjectDBX Classes
 90
1153
 91
0
280
0
281
0
  0
CLASS
  1
TABLESTYLE
  2
AcDbTableStyle
  3
ObjectDBX Classes
 90
4095
 91
0
280
0
281
0
  0
CLASS
  1
MLEADERSTYLE
  2
AcDbMLeaderStyle
  3
ACDB_MLEADERSTYLE_CLASS
 90
4095
 91
0
280
0
281
0
  0
CLASS
  1
DICTIONARYVAR
  2
AcDbDictionaryVar
  3
ObjectDBX Classes
 90
0
 91
0
280
0
281
0
  0
CLASS
  1
CELLSTYLEMAP
  2
AcDbCellStyleMap
  3
ObjectDBX Classes
 90
1152
 91
0
280
0
281
0
  0
CLASS
  1
MENTALRAYRENDERSETTINGS
  2
AcDbMentalRayRenderSettings
  3
SCENEOE
 90
1024
 91
0
280
0
281
0
  0
CLASS
  1
ACDBDETAILVIEWSTYLE
  2
AcDbDetailViewStyle
  3
ObjectDBX Classes
 90
1025
 91
0
280
0
281
0
  0
CLASS
  1
ACDBSECTIONVIEWSTYLE
  2
AcDbSectionViewStyle
  3
ObjectDBX Classes
 90
1025
 91
0
280
0
281
0
  0
CLASS
  1
RASTERVARIABLES
  2
AcDbRasterVariables
  3
ISM
 90
0
 91
0
280
0
281
0
  0
CLASS
  1
LAYOUT
  2
AcDbLayout
  3
ObjectDBX Classes
 90
0
 91
0
280
0
281
0
  0
CLASS
  1
ACDBPLACEHOLDER
  2
AcDbPlaceHolder
  3
ObjectDBX Classes
 90
0
 91
0
280
0
281
0
  0
ENDSEC
  0
SECTION
  2
TABLES
  0
TABLE
  2
VPORT
  5
8
330
0
100
AcDbSymbolTable
 70
1
  0
VPORT
  5
23
330
8
100
AcDbSymbolTableRecord
100
AcDbViewportTableRecord
  2
*Active
 70
0
 10
0.0
 20
0.0
 11
1.0
 21
1.0
 12
0.0
 22
0.0
 13
0.0
 23
0.0
 14
0.5
 24
0.5
 15
0.5
 25
0.5
 16
0.0
 26
0.0
 36
1.0
 17
0.0
 27
0.0
 37
0.0
 40
1000.0
 41
1.34
 42
50.0
 43
0.0
 44
0.0
 50
0.0
 51
0.0
 71
0
 72
1000
 73
1
 74
3
 75
0
 76
0
 77
0
 78
0
281
0
 65
0
146
0.0
  0
ENDTAB
  0
TABLE
  2
LTYPE
  5
2
330
0
100
AcDbSymbolTable
 70
3
  0
LTYPE
  5
24
330
2
100
AcDbSymbolTableRecord
100
AcDbLinetypeTableRecord
  2
ByBlock
 70
0
  3

 72
65
 73
0
 40
0.0
  0
LTYPE
  5
25
330
2
100
AcDbSymbolTableRecord
100
AcDbLinetypeTableRecord
  2
ByLayer
 70
0
  3

 72
65
 73
0
 40
0.0
  0
LTYPE
  5
26
330
2
100
AcDbSymbolTableRecord
100
AcDbLinetypeTableRecord
  2
Continuous
 70
0
  3

 72
65
 73
0
 40
0.0
  0
ENDTAB
  0
TABLE
  2
LAYER
  5
1
330
0
100
AcDbSymbolTable
 70
2
  0
LAYER
  5
27
330
1
100
AcDbSymbolTableRecord
100
AcDbLayerTableRecord
  2
0
 70
0
 62
7
  6
Continuous
370
-3
390
13
347
21
  0
LAYER
  5
28
330
1
100
AcDbSymbolTableRecord
100
AcDbLayerTableRecord
  2
Defpoints
 70
0
 62
7
  6
Continuous
290
0
370
-3
390
13
347
21
  0
ENDTAB
  0
TABLE
  2
STYLE
  5
5
330
0
100
AcDbSymbolTable
 70
1
  0
STYLE
  5
29
330
5
100
AcDbSymbolTableRecord
100
AcDbTextStyleTableRecord
  2
Standard
 70
0
 40
0.0
 41
1.0
 50
0.0
 71
0
 42
2.5
  3
txt
  4

  0
ENDTAB
  0
TABLE
  2
VIEW
  5
7
330
0
100
AcDbSymbolTable
 70
0
  0
ENDTAB
  0
TABLE
  2
UCS
  5
6
330
0
100
AcDbSymbolTable
 70
0
  0
ENDTAB
  0
TABLE
  2
APPID
  5
3
330
0
100
AcDbSymbolTable
 70
3
  0
APPID
  5
2A
330
3
100
AcDbSymbolTableRecord
100
AcDbRegAppTableRecord
  2
ACAD
 70
0
  0
APPID
  5
45
330
3
100
AcDbSymbolTableRecord
100
AcDbRegAppTableRecord
  2
HATCHBACKGROUNDCOLOR
 70
0
  0
APPID
  5
46
330
3
100
AcDbSymbolTableRecord
100
AcDbRegAppTableRecord
  2
EZDXF
 70
0
  0
ENDTAB
  0
TABLE
  2
DIMSTYLE
  5
4
330
0
100
AcDbSymbolTable
 70
1
100
AcDbDimStyleTable
  0
DIMSTYLE
105
2B
330
4
100
AcDbSymbolTableRecord
100
AcDbDimStyleTableRecord
  2
Standard
 70
0
 40
1.0
 41
2.5
 42
0.625
 43
3.75
 44
1.25
 45
0.0
 46
0.0
 47
0.0
 48
0.0
 49
2.5
140
2.5
141
2.5
142
0.0
143
0.03937007874
144
1.0
145
0.0
146
1.0
147
0.625
148
0.0
 69
0
 70
0
 71
0
 72
0
 73
0
 74
0
 75
0
 76
0
 77
1
 78
8
 79
3
170
0
171
3
172
1
173
0
174
0
175
0
176
0
177
0
178
0
179
2
271
2
272
2
273
2
274
3
275
0
276
0
277
2
278
44
279
0
280
0
281
0
282
0
283
0
284
8
285
0
286
0
288
0
289
3
290
0
371
-2
372
-2
  0
ENDTAB
  0
TABLE
  2
BLOCK_RECORD
  5
9
330
0
100
AcDbSymbolTable
 70
2
  0
BLOCK_RECORD
  5
17
330
9
100
AcDbSymbolTableRecord
100
AcDbBlockTableRecord
  2
*Model_Space
340
1A
 70
0
280
1
281
0
  0
BLOCK_RECORD
  5
1B
330
9
100
AcDbSymbolTableRecord
100
AcDbBlockTableRecord
  2
*Paper_Space
340
1E
 70
0
280
1
281
0
  0
ENDTAB
  0
ENDSEC
  0
SECTION
  2
BLOCKS
  0
BLOCK
  5
18
330
17
100
AcDbEntity
  8
0
100
AcDbBlockBegin
  2
*Model_Space
 70
0
 10
0.0
 20
0.0
 30
0.0
  3
*Model_Space
  1

  0
ENDBLK
  5
19
330
17
100
AcDbEntity
  8
0
100
AcDbBlockEnd
  0
BLOCK
  5
1C
330
1B
100
AcDbEntity
  8
0
100
AcDbBlockBegin
  2
*Paper_Space
 70
0
 10
0.0
 20
0.0
 30
0.0
  3
*Paper_Space
  1

  0
ENDBLK
  5
1D
330
1B
100
AcDbEntity
  8
0
100
AcDbBlockEnd
  0
ENDSEC
  0
SECTION
  2
ENTITIES
  0
LWPOLYLINE
  5
2F
330
17
100
AcDbEntity
  8
0
100
AcDbPolyline
 90
51
 70
0
 10
-37.360679774999994
 20
-9.0
 10
-37.3720879586237
 20
-9.0
 10
-37.3834961422474
 20
-9.0
 10
-37.39490432587111
 20
-9.0
 10
-37.41607767233007
 20
-9.0
 10
-37.45027123590271
 20
-9.0
 10
-37.484464799475354
 20
-9.0
 10
-37.518658363048
 20
-9.0
 10
-37.57230264281116
 20
-9.0
 10
-37.62918870860607
 20
-9.0
 10
-37.686074774400986
 20
-9.0
 10
-37.74940026486592
 20
-9.0
 10
-37.82882431700591
 20
-9.0
 10
-37.90824836914591
 20
-9.0
 10
-37.9876724212859
 20
-9.0
 10
-38.083040939153506
 20
-9.0
 10
-38.18478724331216
 20
-9.0
 10
-38.28653354747081
 20
-9.0
 10
-38.39142926380489
 20
-9.0
 10
-38.51522145319152
 20
-9.0
 10
-38.639013642578156
 20
-9.0
 10
-38.76280583196479
 20
-9.0
 10
-38.899003528008535
 20
-9.0
 10
-39.044505354045114
 20
-9.0
 10
-39.19000718008169
 20
-9.0
 10
-39.33550900611827
 20
-9.0
 10
-39.50232525176933
 20
-9.0
 10
-39.669141497420384
 20
-9.0
 10
-39.83595774307144
 20
-9.0
 10
-40.0117145491326
 20
-9.0
 10
-40.19939210240722
 20
-9.0
 10
-40.38706965568184
 20
-9.0
 10
-40.57474720895646
 20
-9.0
 10
-40.779868932032954
 20
-9.0
 10
-40.987898016743095
 20
-9.0
 10
-41.195927101453236
 20
-9.0
 10
-41.40960946494104
 20
-9.0
 10
-41.63742502537303
 20
-9.0
 10
-41.86524058580501
 20
-9.0
 10
-42.093056146237
 20
-9.0
 10
-42.334562903316254
 20
-9.0
 10
-42.581546139054424
 20
-9.0
 10
-42.8285293747926
 20
-9.0
 10
-43.07815501210154
 20
-9.0
 10
-43.34363505883512
 20
-9.0
 10
-43.6091151055687
 20
-9.0
 10
-43.87459515230228
 20
-9.0
 10
-44.150232744758185
 20
-9.0
 10
-44.433488496505845
 20
-9.0
 10
-44.716744248253505
 20
-9.0
 10
-45.000000000001165
 20
-9.0
  0
LWPOLYLINE
  5
30
330
17
100
AcDbEntity
  8
0
100
AcDbPolyline
 90
51
 70
0
 10
-37.360679775
 20
-9.0
 10
-36.6134661795
 20
-9.0
 10
-35.866252584
 20
-9.0
 10
-35.1190389885
 20
-9.0
 10
-34.371825393
 20
-9.0
 10
-33.6246117975
 20
-9.0
 10
-32.877398202
 20
-9.0
 10
-32.1301846065
 20
-9.0
 10
-31.382971011000002
 20
-9.0
 10
-30.635757415500002
 20
-9.0
 10
-29.888543820000002
 20
-9.0
 10
-29.141330224500003
 20
-9.0
 10
-28.394116629000003
 20
-9.0
 10
-27.646903033500003
 20
-9.0
 10
-26.899689438000003
 20
-9.0
 10
-26.152475842500003
 20
-9.0
 10
-25.405262247000003
 20
-9.0
 10
-24.658048651500003
 20
-9.0
 10
-23.910835056000003
 20
-9.0
 10
-23.163621460500003
 20
-9.0
 10
-22.416407865000004
 20
-9.0
 10
-21.669194269500004
 20
-9.0
 10
-20.921980674
 20
-9.0
 10
-20.1747670785
 20
-9.0
 10
-19.427553483
 20
-9.0
 10
-18.6803398875
 20
-9.0
 10
-17.933126292
 20
-9.0
 10
-17.1859126965
 20
-9.0
 10
-16.438699101
 20
-9.0
 10
-15.691485505500001
 20
-9.0
 10
-14.944271910000001
 20
-9.0
 10
-14.197058314500001
 20
-9.0
 10
-13.449844719000001
 20
-9.0
 10
-12.702631123499998
 20
-9.0
 10
-11.955417528000002
 20
-9.0
 10
-11.208203932499998
 20
-9.0
 10
-10.460990337000002
 20
-9.0
 10
-9.713776741499998
 20
-9.0
 10
-8.966563146000002
 20
-9.0
 10
-8.219349550499999
 20
-9.0
 10
-7.472135955000002
 20
-9.0
 10
-6.724922359499999
 20
-9.0
 10
-5.977708764000003
 20
-9.0
 10
-5.230495168499999
 20
-9.0
 10
-4.483281572999999
 20
-9.0
 10
-3.7360679774999994
 20
-9.0
 10
-2.9888543819999995
 20
-9.0
 10
-2.2416407864999996
 20
-9.0
 10
-1.4944271909999998
 20
-9.0
 10
-0.7472135954999999
 20
-9.0
 10
0.0
 20
-9.0
  0
LWPOLYLINE
  5
31
330
17
100
AcDbEntity
  8
0
100
AcDbPolyline
 90
51
 70
0
 10
-37.78028085950205
 20
4.0
 10
-37.84317286787647
 20
4.0
 10
-37.90606487625088
 20
4.0
 10
-37.9689568846253
 20
4.0
 10
-38.03753042041786
 20
4.0
 10
-38.113679326101284
 20
4.0
 10
-38.18982823178471
 20
4.0
 10
-38.265977137468134
 20
4.0
 10
-38.353383827400656
 20
4.0
 10
-38.44266681470803
 20
4.0
 10
-38.531949802015404
 20
4.0
 10
-38.624944241557415
 20
4.0
 10
-38.72721731168599
 20
4.0
 10
-38.829490381814566
 20
4.0
 10
-38.93176345194314
 20
4.0
 10
-39.04319733146256
 20
4.0
 10
-39.15829553473831
 20
4.0
 10
-39.27339373801406
 20
4.0
 10
-39.39029758395247
 20
4.0
 10
-39.51803528586683
 20
4.0
 10
-39.64577298778119
 20
4.0
 10
-39.773510689695556
 20
4.0
 10
-39.90835323657765
 20
4.0
 10
-40.04852441718554
 20
4.0
 10
-40.18869559779343
 20
4.0
 10
-40.32886677840133
 20
4.0
 10
-40.48124536459748
 20
4.0
 10
-40.63362395079363
 20
4.0
 10
-40.78600253698977
 20
4.0
 10
-40.94350754201804
 20
4.0
 10
-41.1078477721558
 20
4.0
 10
-41.27218800229357
 20
4.0
 10
-41.43652823243133
 20
4.0
 10
-41.6108941112492
 20
4.0
 10
-41.78693093151376
 20
4.0
 10
-41.962967751778315
 20
4.0
 10
-42.142265335366325
 20
4.0
 10
-42.32971482726296
 20
4.0
 10
-42.517164319159605
 20
4.0
 10
-42.70461381105624
 20
4.0
 10
-42.899999264646766
 20
4.0
 10
-43.098559102914834
 20
4.0
 10
-43.2971189411829
 20
4.0
 10
-43.49722022258609
 20
4.0
 10
-43.706570162799984
 20
4.0
 10
-43.91592010301388
 20
4.0
 10
-44.12527004322778
 20
4.0
 10
-44.34059281478852
 20
4.0
 10
-44.5603952098594
 20
4.0
 10
-44.78019760493029
 20
4.0
 10
-45.000000000001165
 20
4.0
  0
LWPOLYLINE
  5
32
330
17
100
AcDbEntity
  8
0
100
AcDbPolyline
 90
51
 70
0
 10
-37.7802808595
 20
4.0
 10
-37.084675242310006
 20
4.0
 10
-36.38906962512
 20
4.0
 10
-35.693464007930004
 20
4.0
 10
-34.99785839074001
 20
4.0
 10
-34.30225277355
 20
4.0
 10
-33.606647156360005
 20
4.0
 10
-32.91104153917
 20
4.0
 10
-32.21543592198
 20
4.0
 10
-31.519830304790002
 20
4.0
 10
-30.8242246876
 20
4.0
 10
-30.128619070410004
 20
4.0
 10
-29.433013453220003
 20
4.0
 10
-28.737407836030002
 20
4.0
 10
-28.041802218840004
 20
4.0
 10
-27.34619660165
 20
4.0
 10
-26.650590984460003
 20
4.0
 10
-25.954985367270005
 20
4.0
 10
-25.25937975008
 20
4.0
 10
-24.563774132890003
 20
4.0
 10
-23.8681685157
 20
4.0
 10
-23.17256289851
 20
4.0
 10
-22.47695728132
 20
4.0
 10
-21.78135166413
 20
4.0
 10
-21.085746046940002
 20
4.0
 10
-20.39014042975
 20
4.0
 10
-19.69453481256
 20
4.0
 10
-18.99892919537
 20
4.0
 10
-18.303323578180002
 20
4.0
 10
-17.60771796099
 20
4.0
 10
-16.9121123438
 20
4.0
 10
-16.21650672661
 20
4.0
 10
-15.520901109420002
 20
4.0
 10
-14.825295492230001
 20
4.0
 10
-14.129689875040004
 20
4.0
 10
-13.43408425785
 20
4.0
 10
-12.738478640659999
 20
4.0
 10
-12.042873023470001
 20
4.0
 10
-11.347267406280004
 20
4.0
 10
-10.65166178909
 20
4.0
 10
-9.956056171899998
 20
4.0
 10
-9.260450554710001
 20
4.0
 10
-8.56484493752
 20
4.0
 10
-7.869239320330003
 20
4.0
 10
-7.173633703139998
 20
4.0
 10
-6.478028085950001
 20
4.0
 10
-5.78242246876
 20
4.0
 10
-5.086816851569999
 20
4.0
 10
-4.391211234380002
 20
4.0
 10
-3.6956056171899974
 20
4.0
 10
-3.0
 20
4.0
  0
LWPOLYLINE
  5
33
330
17
100
AcDbEntity
  8
0
100
AcDbPolyline
 90
51
 70
0
 10
-37.360679774999994
 20
9.0
 10
-37.3720879586237
 20
9.0
 10
-37.3834961422474
 20
9.0
 10
-37.39490432587111
 20
9.0
 10
-37.41607767233007
 20
9.0
 10
-37.45027123590271
 20
9.0
 10
-37.484464799475354
 20
9.0
 10
-37.518658363048
 20
9.0
 10
-37.57230264281116
 20
9.0
 10
-37.62918870860607
 20
9.0
 10
-37.686074774400986
 20
9.0
 10
-37.74940026486592
 20
9.0
 10
-37.82882431700591
 20
9.0
 10
-37.90824836914591
 20
9.0
 10
-37.9876724212859
 20
9.0
 10
-38.083040939153506
 20
9.0
 10
-38.18478724331216
 20
9.0
 10
-38.28653354747081
 20
9.0
 10
-38.39142926380489
 20
9.0
 10
-38.51522145319152
 20
9.0
 10
-38.639013642578156
 20
9.0
 10
-38.76280583196479
 20
9.0
 10
-38.899003528008535
 20
9.0
 10
-39.044505354045114
 20
9.0
 10
-39.19000718008169
 20
9.0
 10
-39.33550900611827
 20
9.0
 10
-39.50232525176933
 20
9.0
 10
-39.669141497420384
 20
9.0
 10
-39.83595774307144
 20
9.0
 10
-40.0117145491326
 20
9.0
 10
-40.19939210240722
 20
9.0
 10
-40.38706965568184
 20
9.0
 10
-40.57474720895646
 20
9.0
 10
-40.779868932032954
 20
9.0
 10
-40.987898016743095
 20
9.0
 10
-41.195927101453236
 20
9.0
 10
-41.40960946494104
 20
9.0
 10
-41.63742502537303
 20
9.0
 10
-41.86524058580501
 20
9.0
 10
-42.093056146237
 20
9.0
 10
-42.334562903316254
 20
9.0
 10
-42.581546139054424
 20
9.0
 10
-42.8285293747926
 20
9.0
 10
-43.07815501210154
 20
9.0
 10
-43.34363505883512
 20
9.0
 10
-43.6091151055687
 20
9.0
 10
-43.87459515230228
 20
9.0
 10
-44.150232744758185
 20
9.0
 10
-44.433488496505845
 20
9.0
 10
-44.716744248253505
 20
9.0
 10
-45.000000000001165
 20
9.0
  0
LWPOLYLINE
  5
34
330
17
100
AcDbEntity
  8
0
100
AcDbPolyline
 90
51
 70
0
 10
-37.360679775
 20
9.0
 10
-36.6134661795
 20
9.0
 10
-35.866252584
 20
9.0
 10
-35.1190389885
 20
9.0
 10
-34.371825393
 20
9.0
 10
-33.6246117975
 20
9.0
 10
-32.877398202
 20
9.0
 10
-32.1301846065
 20
9.0
 10
-31.382971011000002
 20
9.0
 10
-30.635757415500002
 20
9.0
 10
-29.888543820000002
 20
9.0
 10
-29.141330224500003
 20
9.0
 10
-28.394116629000003
 20
9.0
 10
-27.646903033500003
 20
9.0
 10
-26.899689438000003
 20
9.0
 10
-26.152475842500003
 20
9.0
 10
-25.405262247000003
 20
9.0
 10
-24.658048651500003
 20
9.0
 10
-23.910835056000003
 20
9.0
 10
-23.163621460500003
 20
9.0
 10
-22.416407865000004
 20
9.0
 10
-21.669194269500004
 20
9.0
 10
-20.921980674
 20
9.0
 10
-20.1747670785
 20
9.0
 10
-19.427553483
 20
9.0
 10
-18.6803398875
 20
9.0
 10
-17.933126292
 20
9.0
 10
-17.1859126965
 20
9.0
 10
-16.438699101
 20
9.0
 10
-15.691485505500001
 20
9.0
 10
-14.944271910000001
 20
9.0
 10
-14.197058314500001
 20
9.0
 10
-13.449844719000001
 20
9.0
 10
-12.702631123499998
 20
9.0
 10
-11.955417528000002
 20
9.0
 10
-11.208203932499998
 20
9.0
 10
-10.460990337000002
 20
9.0
 10
-9.713776741499998
 20
9.0
 10
-8.966563146000002
 20
9.0
 10
-8.219349550499999
 20
9.0
 10
-7.472135955000002
 20
9.0
 10
-6.724922359499999
 20
9.0
 10
-5.977708764000003
 20
9.0
 10
-5.230495168499999
 20
9.0
 10
-4.483281572999999
 20
9.0
 10
-3.7360679774999994
 20
9.0
 10
-2.9888543819999995
 20
9.0
 10
-2.2416407864999996
 20
9.0
 10
-1.4944271909999998
 20
9.0
 10
-0.7472135954999999
 20
9.0
 10
0.0
 20
9.0
  0
LWPOLYLINE
  5
35
330
17
100
AcDbEntity
  8
0
100
AcDbPolyline
 90
51
 70
0
 10
-37.78028085950205
 20
-4.0
 10
-37.84317286787647
 20
-4.0
 10
-37.90606487625088
 20
-4.0
 10
-37.9689568846253
 20
-4.0
 10
-38.03753042041786
 20
-4.0
 10
-38.113679326101284
 20
-4.0
 10
-38.18982823178471
 20
-4.0
 10
-38.265977137468134
 20
-4.0
 10
-38.353383827400656
 20
-4.0
 10
-38.44266681470803
 20
-4.0
 10
-38.531949802015404
 20
-4.0
 10
-38.624944241557415
 20
-4.0
 10
-38.72721731168599
 20
-4.0
 10
-38.829490381814566
 20
-4.0
 10
-38.93176345194314
 20
-4.0
 10
-39.04319733146256
 20
-4.0
 10
-39.15829553473831
 20
-4.0
 10
-39.27339373801406
 20
-4.0
 10
-39.39029758395247
 20
-4.0
 10
-39.51803528586683
 20
-4.0
 10
-39.64577298778119
 20
-4.0
 10
-39.773510689695556
 20
-4.0
 10
-39.90835323657765
 20
-4.0
 10
-40.04852441718554
 20
-4.0
 10
-40.18869559779343
 20
-4.0
 10
-40.32886677840133
 20
-4.0
 10
-40.48124536459748
 20
-4.0
 10
-40.63362395079363
 20
-4.0
 10
-40.78600253698977
 20
-4.0
 10
-40.94350754201804
 20
-4.0
 10
-41.1078477721558
 20
-4.0
 10
-41.27218800229357
 20
-4.0
 10
-41.43652823243133
 20
-4.0
 10
-41.6108941112492
 20
-4.0
 10
-41.78693093151376
 20
-4.0
 10
-41.962967751778315
 20
-4.0
 10
-42.142265335366325
 20
-4.0
 10
-42.32971482726296
 20
-4.0
 10
-42.517164319159605
 20
-4.0
 10
-42.70461381105624
 20
-4.0
 10
-42.899999264646766
 20
-4.0
 10
-43.098559102914834
 20
-4.0
 10
-43.2971189411829
 20
-4.0
 10
-43.49722022258609
 20
-4.0
 10
-43.706570162799984
 20
-4.0
 10
-43.91592010301388
 20
-4.0
 10
-44.12527004322778
 20
-4.0
 10
-44.34059281478852
 20
-4.0
 10
-44.5603952098594
 20
-4.0
 10
-44.78019760493029
 20
-4.0
 10
-45.000000000001165
 20
-4.0
  0
LWPOLYLINE
  5
36
330
17
100
AcDbEntity
  8
0
100
AcDbPolyline
 90
51
 70
0
 10
-37.7802808595
 20
-4.0
 10
-37.084675242310006
 20
-4.0
 10
-36.38906962512
 20
-4.0
 10
-35.693464007930004
 20
-4.0
 10
-34.99785839074001
 20
-4.0
 10
-34.30225277355
 20
-4.0
 10
-33.606647156360005
 20
-4.0
 10
-32.91104153917
 20
-4.0
 10
-32.21543592198
 20
-4.0
 10
-31.519830304790002
 20
-4.0
 10
-30.8242246876
 20
-4.0
 10
-30.128619070410004
 20
-4.0
 10
-29.433013453220003
 20
-4.0
 10
-28.737407836030002
 20
-4.0
 10
-28.041802218840004
 20
-4.0
 10
-27.34619660165
 20
-4.0
 10
-26.650590984460003
 20
-4.0
 10
-25.954985367270005
 20
-4.0
 10
-25.25937975008
 20
-4.0
 10
-24.563774132890003
 20
-4.0
 10
-23.8681685157
 20
-4.0
 10
-23.17256289851
 20
-4.0
 10
-22.47695728132
 20
-4.0
 10
-21.78135166413
 20
-4.0
 10
-21.085746046940002
 20
-4.0
 10
-20.39014042975
 20
-4.0
 10
-19.69453481256
 20
-4.0
 10
-18.99892919537
 20
-4.0
 10
-18.303323578180002
 20
-4.0
 10
-17.60771796099
 20
-4.0
 10
-16.9121123438
 20
-4.0
 10
-16.21650672661
 20
-4.0
 10
-15.520901109420002
 20
-4.0
 10
-14.825295492230001
 20
-4.0
 10
-14.129689875040004
 20
-4.0
 10
-13.43408425785
 20
-4.0
 10
-12.738478640659999
 20
-4.0
 10
-12.042873023470001
 20
-4.0
 10
-11.347267406280004
 20
-4.0
 10
-10.65166178909
 20
-4.0
 10
-9.956056171899998
 20
-4.0
 10
-9.260450554710001
 20
-4.0
 10
-8.56484493752
 20
-4.0
 10
-7.869239320330003
 20
-4.0
 10
-7.173633703139998
 20
-4.0
 10
-6.478028085950001
 20
-4.0
 10
-5.78242246876
 20
-4.0
 10
-5.086816851569999
 20
-4.0
 10
-4.391211234380002
 20
-4.0
 10
-3.6956056171899974
 20
-4.0
 10
-3.0
 20
-4.0
  0
LWPOLYLINE
  5
37
330
17
100
AcDbEntity
  8
0
100
AcDbPolyline
 90
51
 70
0
 10
-45.0
 20
-9.0
 10
-45.0
 20
-8.9
 10
-45.0
 20
-8.8
 10
-45.0
 20
-8.7
 10
-45.0
 20
-8.6
 10
-45.0
 20
-8.5
 10
-45.0
 20
-8.4
 10
-45.0
 20
-8.3
 10
-45.0
 20
-8.2
 10
-45.0
 20
-8.1
 10
-45.0
 20
-8.0
 10
-45.0
 20
-7.9
 10
-45.0
 20
-7.8
 10
-45.0
 20
-7.7
 10
-45.0
 20
-7.6
 10
-45.0
 20
-7.5
 10
-45.0
 20
-7.4
 10
-45.0
 20
-7.3
 10
-45.0
 20
-7.2
 10
-45.0
 20
-7.1
 10
-45.0
 20
-7.0
 10
-45.0
 20
-6.9
 10
-45.0
 20
-6.8
 10
-45.0
 20
-6.7
 10
-45.0
 20
-6.6
 10
-45.0
 20
-6.5
 10
-45.0
 20
-6.4
 10
-45.0
 20
-6.3
 10
-45.0
 20
-6.2
 10
-45.0
 20
-6.1
 10
-45.0
 20
-6.0
 10
-45.0
 20
-5.9
 10
-45.0
 20
-5.8
 10
-45.0
 20
-5.7
 10
-45.0
 20
-5.6
 10
-45.0
 20
-5.5
 10
-45.0
 20
-5.4
 10
-45.0
 20
-5.3
 10
-45.0
 20
-5.2
 10
-45.0
 20
-5.1
 10
-45.0
 20
-5.0
 10
-45.0
 20
-4.9
 10
-45.0
 20
-4.8
 10
-45.0
 20
-4.7
 10
-45.0
 20
-4.6
 10
-45.0
 20
-4.5
 10
-45.0
 20
-4.4
 10
-45.0
 20
-4.3
 10
-45.0
 20
-4.2
 10
-45.0
 20
-4.1
 10
-45.0
 20
-4.0
  0
LWPOLYLINE
  5
38
330
17
100
AcDbEntity
  8
0
100
AcDbPolyline
 90
51
 70
0
 10
-37.7802808595
 20
-7.0
 10
-37.7802808595
 20
-6.94
 10
-37.7802808595
 20
-6.88
 10
-37.7802808595
 20
-6.82
 10
-37.7802808595
 20
-6.76
 10
-37.7802808595
 20
-6.7
 10
-37.7802808595
 20
-6.64
 10
-37.7802808595
 20
-6.58
 10
-37.7802808595
 20
-6.52
 10
-37.7802808595
 20
-6.46
 10
-37.7802808595
 20
-6.4
 10
-37.7802808595
 20
-6.34
 10
-37.7802808595
 20
-6.28
 10
-37.7802808595
 20
-6.22
 10
-37.7802808595
 20
-6.16
 10
-37.7802808595
 20
-6.1
 10
-37.7802808595
 20
-6.04
 10
-37.7802808595
 20
-5.98
 10
-37.7802808595
 20
-5.92
 10
-37.7802808595
 20
-5.86
 10
-37.7802808595
 20
-5.8
 10
-37.7802808595
 20
-5.74
 10
-37.7802808595
 20
-5.68
 10
-37.7802808595
 20
-5.62
 10
-37.7802808595
 20
-5.5600000000000005
 10
-37.7802808595
 20
-5.5
 10
-37.7802808595
 20
-5.4399999999999995
 10
-37.7802808595
 20
-5.38
 10
-37.7802808595
 20
-5.32
 10
-37.7802808595
 20
-5.26
 10
-37.7802808595
 20
-5.2
 10
-37.7802808595
 20
-5.14
 10
-37.7802808595
 20
-5.08
 10
-37.7802808595
 20
-5.02
 10
-37.7802808595
 20
-4.96
 10
-37.7802808595
 20
-4.9
 10
-37.7802808595
 20
-4.84
 10
-37.7802808595
 20
-4.779999999999999
 10
-37.7802808595
 20
-4.720000000000001
 10
-37.7802808595
 20
-4.66
 10
-37.7802808595
 20
-4.6
 10
-37.7802808595
 20
-4.54
 10
-37.7802808595
 20
-4.48
 10
-37.7802808595
 20
-4.42
 10
-37.7802808595
 20
-4.359999999999999
 10
-37.7802808595
 20
-4.3
 10
-37.7802808595
 20
-4.24
 10
-37.7802808595
 20
-4.18
 10
-37.7802808595
 20
-4.12
 10
-37.7802808595
 20
-4.0600000000000005
 10
-37.7802808595
 20
-4.0
  0
LWPOLYLINE
  5
39
330
17
100
AcDbEntity
  8
0
100
AcDbPolyline
 90
51
 70
0
 10
-37.360679774999994
 20
-7.0
 10
-37.36128060053521
 20
-7.0
 10
-37.361881426070426
 20
-7.0
 10
-37.36248225160564
 20
-7.0
 10
-37.3635980336209
 20
-7.0
 10
-37.36540042427624
 20
-7.0
 10
-37.367202814931574
 20
-7.0
 10
-37.36900520558691
 20
-7.0
 10
-37.37183728819779
 20
-7.0
 10
-37.374840986134586
 20
-7.0
 10
-37.377844684071384
 20
-7.0
 10
-37.381191489891435
 20
-7.0
 10
-37.385396065419606
 20
-7.0
 10
-37.389600640947776
 20
-7.0
 10
-37.39380521647595
 20
-7.0
 10
-37.3988671320836
 20
-7.0
 10
-37.404271983723056
 20
-7.0
 10
-37.40967683536251
 20
-7.0
 10
-37.415253044562995
 20
-7.0
 10
-37.42185739912972
 20
-7.0
 10
-37.42846175369644
 20
-7.0
 10
-37.43506610826316
 20
-7.0
 10
-37.44235535320126
 20
-7.0
 10
-37.4501582659179
 20
-7.0
 10
-37.457961178634534
 20
-7.0
 10
-37.465764091351176
 20
-7.0
 10
-37.4747644459822
 20
-7.0
 10
-37.48376480061324
 20
-7.0
 10
-37.492765155244264
 20
-7.0
 10
-37.50227814746688
 20
-7.0
 10
-37.51247465647828
 20
-7.0
 10
-37.52267116548968
 20
-7.0
 10
-37.53286767450109
 20
-7.0
 10
-37.54408820842566
 20
-7.0
 10
-37.5554794131691
 20
-7.0
 10
-37.56687061791254
 20
-7.0
 10
-37.57860269870686
 20
-7.0
 10
-37.591186969628374
 20
-7.0
 10
-37.60377124054988
 20
-7.0
 10
-37.6163555114714
 20
-7.0
 10
-37.62979068664402
 20
-7.0
 10
-37.64356622351709
 20
-7.0
 10
-37.65734176039016
 20
-7.0
 10
-37.67128719659325
 20
-7.0
 10
-37.68625202877638
 20
-7.0
 10
-37.70121686095952
 20
-7.0
 10
-37.71618169314265
 20
-7.0
 10
-37.73182489934606
 20
-7.0
 10
-37.747976886064656
 20
-7.0
 10
-37.76412887278326
 20
-7.0
 10
-37.78028085950186
 20
-7.0
  0
LWPOLYLINE
  5
3A
330
17
100
AcDbEntity
  8
0
100
AcDbPolyline
 90
51
 70
0
 10
-37.360679775
 20
-9.0
 10
-37.360679775
 20
-8.96
 10
-37.360679775
 20
-8.92
 10
-37.360679775
 20
-8.88
 10
-37.360679775
 20
-8.84
 10
-37.360679775
 20
-8.8
 10
-37.360679775
 20
-8.76
 10
-37.360679775
 20
-8.72
 10
-37.360679775
 20
-8.68
 10
-37.360679775
 20
-8.64
 10
-37.360679775
 20
-8.6
 10
-37.360679775
 20
-8.56
 10
-37.360679775
 20
-8.52
 10
-37.360679775
 20
-8.48
 10
-37.360679775
 20
-8.44
 10
-37.360679775
 20
-8.4
 10
-37.360679775
 20
-8.36
 10
-37.360679775
 20
-8.32
 10
-37.360679775
 20
-8.28
 10
-37.360679775
 20
-8.24
 10
-37.360679775
 20
-8.2
 10
-37.360679775
 20
-8.16
 10
-37.360679775
 20
-8.12
 10
-37.360679775
 20
-8.08
 10
-37.360679775
 20
-8.04
 10
-37.360679775
 20
-8.0
 10
-37.360679775
 20
-7.96
 10
-37.360679775
 20
-7.92
 10
-37.360679775
 20
-7.88
 10
-37.360679775
 20
-7.84
 10
-37.360679775
 20
-7.8
 10
-37.360679775
 20
-7.76
 10
-37.360679775
 20
-7.72
 10
-37.360679775
 20
-7.68
 10
-37.360679775
 20
-7.64
 10
-37.360679775
 20
-7.6
 10
-37.360679775
 20
-7.5600000000000005
 10
-37.360679775
 20
-7.52
 10
-37.360679775
 20
-7.48
 10
-37.360679775
 20
-7.4399999999999995
 10
-37.360679775
 20
-7.4
 10
-37.360679775
 20
-7.36
 10
-37.360679775
 20
-7.32
 10
-37.360679775
 20
-7.28
 10
-37.360679775
 20
-7.24
 10
-37.360679775
 20
-7.2
 10
-37.360679775
 20
-7.16
 10
-37.360679775
 20
-7.12
 10
-37.360679775
 20
-7.08
 10
-37.360679775
 20
-7.04
 10
-37.360679775
 20
-7.0
  0
LWPOLYLINE
  5
3B
330
17
100
AcDbEntity
  8
0
100
AcDbPolyline
 90
51
 70
0
 10
-37.360679775
 20
7.0
 10
-37.360679775
 20
7.04
 10
-37.360679775
 20
7.08
 10
-37.360679775
 20
7.12
 10
-37.360679775
 20
7.16
 10
-37.360679775
 20
7.2
 10
-37.360679775
 20
7.24
 10
-37.360679775
 20
7.28
 10
-37.360679775
 20
7.32
 10
-37.360679775
 20
7.36
 10
-37.360679775
 20
7.4
 10
-37.360679775
 20
7.44
 10
-37.360679775
 20
7.48
 10
-37.360679775
 20
7.52
 10
-37.360679775
 20
7.5600000000000005
 10
-37.360679775
 20
7.6
 10
-37.360679775
 20
7.64
 10
-37.360679775
 20
7.68
 10
-37.360679775
 20
7.72
 10
-37.360679775
 20
7.76
 10
-37.360679775
 20
7.8
 10
-37.360679775
 20
7.84
 10
-37.360679775
 20
7.88
 10
-37.360679775
 20
7.92
 10
-37.360679775
 20
7.96
 10
-37.360679775
 20
8.0
 10
-37.360679775
 20
8.04
 10
-37.360679775
 20
8.08
 10
-37.360679775
 20
8.120000000000001
 10
-37.360679775
 20
8.16
 10
-37.360679775
 20
8.2
 10
-37.360679775
 20
8.24
 10
-37.360679775
 20
8.28
 10
-37.360679775
 20
8.32
 10
-37.360679775
 20
8.36
 10
-37.360679775
 20
8.4
 10
-37.360679775
 20
8.44
 10
-37.360679775
 20
8.48
 10
-37.360679775
 20
8.52
 10
-37.360679775
 20
8.56
 10
-37.360679775
 20
8.6
 10
-37.360679775
 20
8.64
 10
-37.360679775
 20
8.68
 10
-37.360679775
 20
8.72
 10
-37.360679775
 20
8.76
 10
-37.360679775
 20
8.8
 10
-37.360679775
 20
8.84
 10
-37.360679775
 20
8.879999999999999
 10
-37.360679775
 20
8.92
 10
-37.360679775
 20
8.96
 10
-37.360679775
 20
9.0
  0
LWPOLYLINE
  5
3C
330
17
100
AcDbEntity
  8
0
100
AcDbPolyline
 90
51
 70
0
 10
-37.360679774999994
 20
7.0
 10
-37.36128060053521
 20
7.0
 10
-37.361881426070426
 20
7.0
 10
-37.36248225160564
 20
7.0
 10
-37.3635980336209
 20
7.0
 10
-37.36540042427624
 20
7.0
 10
-37.367202814931574
 20
7.0
 10
-37.36900520558691
 20
7.0
 10
-37.37183728819779
 20
7.0
 10
-37.374840986134586
 20
7.0
 10
-37.377844684071384
 20
7.0
 10
-37.381191489891435
 20
7.0
 10
-37.385396065419606
 20
7.0
 10
-37.389600640947776
 20
7.0
 10
-37.39380521647595
 20
7.0
 10
-37.3988671320836
 20
7.0
 10
-37.404271983723056
 20
7.0
 10
-37.40967683536251
 20
7.0
 10
-37.415253044562995
 20
7.0
 10
-37.42185739912972
 20
7.0
 10
-37.42846175369644
 20
7.0
 10
-37.43506610826316
 20
7.0
 10
-37.44235535320126
 20
7.0
 10
-37.4501582659179
 20
7.0
 10
-37.457961178634534
 20
7.0
 10
-37.465764091351176
 20
7.0
 10
-37.4747644459822
 20
7.0
 10
-37.48376480061324
 20
7.0
 10
-37.492765155244264
 20
7.0
 10
-37.50227814746688
 20
7.0
 10
-37.51247465647828
 20
7.0
 10
-37.52267116548968
 20
7.0
 10
-37.53286767450109
 20
7.0
 10
-37.54408820842566
 20
7.0
 10
-37.5554794131691
 20
7.0
 10
-37.56687061791254
 20
7.0
 10
-37.57860269870686
 20
7.0
 10
-37.591186969628374
 20
7.0
 10
-37.60377124054988
 20
7.0
 10
-37.6163555114714
 20
7.0
 10
-37.62979068664402
 20
7.0
 10
-37.64356622351709
 20
7.0
 10
-37.65734176039016
 20
7.0
 10
-37.67128719659325
 20
7.0
 10
-37.68625202877638
 20
7.0
 10
-37.70121686095952
 20
7.0
 10
-37.71618169314265
 20
7.0
 10
-37.73182489934606
 20
7.0
 10
-37.747976886064656
 20
7.0
 10
-37.76412887278326
 20
7.0
 10
-37.78028085950186
 20
7.0
  0
LWPOLYLINE
  5
3D
330
17
100
AcDbEntity
  8
0
100
AcDbPolyline
 90
51
 70
0
 10
-37.7802808595
 20
4.0
 10
-37.7802808595
 20
4.06
 10
-37.7802808595
 20
4.12
 10
-37.7802808595
 20
4.18
 10
-37.7802808595
 20
4.24
 10
-37.7802808595
 20
4.3
 10
-37.7802808595
 20
4.36
 10
-37.7802808595
 20
4.42
 10
-37.7802808595
 20
4.48
 10
-37.7802808595
 20
4.54
 10
-37.7802808595
 20
4.6
 10
-37.7802808595
 20
4.66
 10
-37.7802808595
 20
4.72
 10
-37.7802808595
 20
4.78
 10
-37.7802808595
 20
4.84
 10
-37.7802808595
 20
4.9
 10
-37.7802808595
 20
4.96
 10
-37.7802808595
 20
5.02
 10
-37.7802808595
 20
5.08
 10
-37.7802808595
 20
5.14
 10
-37.7802808595
 20
5.2
 10
-37.7802808595
 20
5.26
 10
-37.7802808595
 20
5.32
 10
-37.7802808595
 20
5.38
 10
-37.7802808595
 20
5.4399999999999995
 10
-37.7802808595
 20
5.5
 10
-37.7802808595
 20
5.5600000000000005
 10
-37.7802808595
 20
5.62
 10
-37.7802808595
 20
5.68
 10
-37.7802808595
 20
5.74
 10
-37.7802808595
 20
5.8
 10
-37.7802808595
 20
5.86
 10
-37.7802808595
 20
5.92
 10
-37.7802808595
 20
5.98
 10
-37.7802808595
 20
6.04
 10
-37.7802808595
 20
6.1
 10
-37.7802808595
 20
6.16
 10
-37.7802808595
 20
6.220000000000001
 10
-37.7802808595
 20
6.279999999999999
 10
-37.7802808595
 20
6.34
 10
-37.7802808595
 20
6.4
 10
-37.7802808595
 20
6.46
 10
-37.7802808595
 20
6.52
 10
-37.7802808595
 20
6.58
 10
-37.7802808595
 20
6.640000000000001
 10
-37.7802808595
 20
6.7
 10
-37.7802808595
 20
6.76
 10
-37.7802808595
 20
6.82
 10
-37.7802808595
 20
6.88
 10
-37.7802808595
 20
6.9399999999999995
 10
-37.7802808595
 20
7.0
  0
LWPOLYLINE
  5
3E
330
17
100
AcDbEntity
  8
0
100
AcDbPolyline
 90
51
 70
0
 10
-45.0
 20
4.0
 10
-45.0
 20
4.1
 10
-45.0
 20
4.2
 10
-45.0
 20
4.3
 10
-45.0
 20
4.4
 10
-45.0
 20
4.5
 10
-45.0
 20
4.6
 10
-45.0
 20
4.7
 10
-45.0
 20
4.8
 10
-45.0
 20
4.9
 10
-45.0
 20
5.0
 10
-45.0
 20
5.1
 10
-45.0
 20
5.2
 10
-45.0
 20
5.3
 10
-45.0
 20
5.4
 10
-45.0
 20
5.5
 10
-45.0
 20
5.6
 10
-45.0
 20
5.7
 10
-45.0
 20
5.8
 10
-45.0
 20
5.9
 10
-45.0
 20
6.0
 10
-45.0
 20
6.1
 10
-45.0
 20
6.2
 10
-45.0
 20
6.3
 10
-45.0
 20
6.4
 10
-45.0
 20
6.5
 10
-45.0
 20
6.6
 10
-45.0
 20
6.7
 10
-45.0
 20
6.8
 10
-45.0
 20
6.9
 10
-45.0
 20
7.0
 10
-45.0
 20
7.1
 10
-45.0
 20
7.2
 10
-45.0
 20
7.3
 10
-45.0
 20
7.4
 10
-45.0
 20
7.5
 10
-45.0
 20
7.6
 10
-45.0
 20
7.7
 10
-45.0
 20
7.8
 10
-45.0
 20
7.9
 10
-45.0
 20
8.0
 10
-45.0
 20
8.1
 10
-45.0
 20
8.2
 10
-45.0
 20
8.3
 10
-45.0
 20
8.4
 10
-45.0
 20
8.5
 10
-45.0
 20
8.6
 10
-45.0
 20
8.7
 10
-45.0
 20
8.8
 10
-45.0
 20
8.9
 10
-45.0
 20
9.0
  0
LWPOLYLINE
  5
3F
330
17
100
AcDbEntity
  8
0
100
AcDbPolyline
 90
51
 70
0
 10
-45.0
 20
4.0
 10
-45.0
 20
3.84
 10
-45.0
 20
3.68
 10
-45.0
 20
3.52
 10
-45.0
 20
3.36
 10
-45.0
 20
3.2
 10
-45.0
 20
3.04
 10
-45.0
 20
2.88
 10
-45.0
 20
2.7199999999999998
 10
-45.0
 20
2.56
 10
-45.0
 20
2.4
 10
-45.0
 20
2.24
 10
-45.0
 20
2.08
 10
-45.0
 20
1.92
 10
-45.0
 20
1.7599999999999998
 10
-45.0
 20
1.6
 10
-45.0
 20
1.44
 10
-45.0
 20
1.2799999999999998
 10
-45.0
 20
1.12
 10
-45.0
 20
0.96
 10
-45.0
 20
0.7999999999999998
 10
-45.0
 20
0.6400000000000001
 10
-45.0
 20
0.48
 10
-45.0
 20
0.31999999999999984
 10
-45.0
 20
0.16000000000000014
 10
-45.0
 20
0.0
 10
-45.0
 20
-0.16000000000000014
 10
-45.0
 20
-0.3200000000000003
 10
-45.0
 20
-0.4800000000000004
 10
-45.0
 20
-0.6399999999999997
 10
-45.0
 20
-0.7999999999999998
 10
-45.0
 20
-0.96
 10
-45.0
 20
-1.12
 10
-45.0
 20
-1.2800000000000002
 10
-45.0
 20
-1.4400000000000004
 10
-45.0
 20
-1.5999999999999996
 10
-45.0
 20
-1.7599999999999998
 10
-45.0
 20
-1.92
 10
-45.0
 20
-2.08
 10
-45.0
 20
-2.24
 10
-45.0
 20
-2.4000000000000004
 10
-45.0
 20
-2.5599999999999996
 10
-45.0
 20
-2.7199999999999998
 10
-45.0
 20
-2.88
 10
-45.0
 20
-3.04
 10
-45.0
 20
-3.2
 10
-45.0
 20
-3.3600000000000003
 10
-45.0
 20
-3.5199999999999996
 10
-45.0
 20
-3.6799999999999997
 10
-45.0
 20
-3.84
 10
-45.0
 20
-4.0
  0
LWPOLYLINE
  5
40
330
17
100
AcDbEntity
  8
0
100
AcDbPolyline
 90
51
 70
0
 10
0.0
 20
-9.0
 10
0.0
 20
-8.64
 10
0.0
 20
-8.28
 10
0.0
 20
-7.92
 10
0.0
 20
-7.5600000000000005
 10
0.0
 20
-7.2
 10
0.0
 20
-6.84
 10
0.0
 20
-6.48
 10
0.0
 20
-6.12
 10
0.0
 20
-5.76
 10
0.0
 20
-5.4
 10
0.0
 20
-5.04
 10
0.0
 20
-4.68
 10
0.0
 20
-4.32
 10
0.0
 20
-3.96
 10
0.0
 20
-3.5999999999999996
 10
0.0
 20
-3.24
 10
0.0
 20
-2.88
 10
0.0
 20
-2.5199999999999996
 10
0.0
 20
-2.16
 10
0.0
 20
-1.7999999999999998
 10
0.0
 20
-1.4400000000000004
 10
0.0
 20
-1.08
 10
0.0
 20
-0.7200000000000006
 10
0.0
 20
-0.35999999999999943
 10
0.0
 20
0.0
 10
0.0
 20
0.35999999999999943
 10
0.0
 20
0.7200000000000006
 10
0.0
 20
1.08
 10
0.0
 20
1.4399999999999995
 10
0.0
 20
1.8000000000000007
 10
0.0
 20
2.16
 10
0.0
 20
2.5199999999999996
 10
0.0
 20
2.880000000000001
 10
0.0
 20
3.24
 10
0.0
 20
3.5999999999999996
 10
0.0
 20
3.960000000000001
 10
0.0
 20
4.32
 10
0.0
 20
4.68
 10
0.0
 20
5.039999999999999
 10
0.0
 20
5.4
 10
0.0
 20
5.76
 10
0.0
 20
6.119999999999999
 10
0.0
 20
6.48
 10
0.0
 20
6.84
 10
0.0
 20
7.199999999999999
 10
0.0
 20
7.559999999999999
 10
0.0
 20
7.920000000000002
 10
0.0
 20
8.280000000000001
 10
0.0
 20
8.64
 10
0.0
 20
9.0
  0
LWPOLYLINE
  5
41
330
17
100
AcDbEntity
  8
0
100
AcDbPolyline
 90
51
 70
0
 10
-37.360679775
 20
7.0
 10
-36.673466179500004
 20
7.0
 10
-35.986252584
 20
7.0
 10
-35.2990389885
 20
7.0
 10
-34.611825393000004
 20
7.0
 10
-33.9246117975
 20
7.0
 10
-33.237398202
 20
7.0
 10
-32.550184606500004
 20
7.0
 10
-31.862971011
 20
7.0
 10
-31.1757574155
 20
7.0
 10
-30.48854382
 20
7.0
 10
-29.801330224500003
 20
7.0
 10
-29.114116629
 20
7.0
 10
-28.4269030335
 20
7.0
 10
-27.739689438
 20
7.0
 10
-27.0524758425
 20
7.0
 10
-26.365262247
 20
7.0
 10
-25.6780486515
 20
7.0
 10
-24.990835056
 20
7.0
 10
-24.3036214605
 20
7.0
 10
-23.616407865
 20
7.0
 10
-22.9291942695
 20
7.0
 10
-22.241980674000004
 20
7.0
 10
-21.5547670785
 20
7.0
 10
-20.867553483
 20
7.0
 10
-20.1803398875
 20
7.0
 10
-19.493126292
 20
7.0
 10
-18.8059126965
 20
7.0
 10
-18.118699101
 20
7.0
 10
-17.4314855055
 20
7.0
 10
-16.744271910000002
 20
7.0
 10
-16.057058314500004
 20
7.0
 10
-15.369844719
 20
7.0
 10
-14.682631123499998
 20
7.0
 10
-13.995417528
 20
7.0
 10
-13.3082039325
 20
7.0
 10
-12.620990337000002
 20
7.0
 10
-11.933776741499997
 20
7.0
 10
-11.246563146
 20
7.0
 10
-10.559349550499999
 20
7.0
 10
-9.872135955000001
 20
7.0
 10
-9.1849223595
 20
7.0
 10
-8.497708764000002
 20
7.0
 10
-7.810495168500001
 20
7.0
 10
-7.123281573000003
 20
7.0
 10
-6.436067977499999
 20
7.0
 10
-5.748854382000001
 20
7.0
 10
-5.0616407865
 20
7.0
 10
-4.374427190999995
 20
7.0
 10
-3.6872135954999976
 20
7.0
 10
-3.0
 20
7.0
  0
LWPOLYLINE
  5
42
330
17
100
AcDbEntity
  8
0
100
AcDbPolyline
 90
51
 70
0
 10
-3.0
 20
7.0
 10
-3.0
 20
6.72
 10
-3.0
 20
6.4399999999999995
 10
-3.0
 20
6.16
 10
-3.0
 20
5.88
 10
-3.0
 20
5.6
 10
-3.0
 20
5.32
 10
-3.0
 20
5.04
 10
-3.0
 20
4.76
 10
-3.0
 20
4.48
 10
-3.0
 20
4.2
 10
-3.0
 20
3.92
 10
-3.0
 20
3.64
 10
-3.0
 20
3.36
 10
-3.0
 20
3.08
 10
-3.0
 20
2.8
 10
-3.0
 20
2.5199999999999996
 10
-3.0
 20
2.24
 10
-3.0
 20
1.96
 10
-3.0
 20
1.6799999999999997
 10
-3.0
 20
1.4000000000000004
 10
-3.0
 20
1.12
 10
-3.0
 20
0.8399999999999999
 10
-3.0
 20
0.5599999999999996
 10
-3.0
 20
0.28000000000000025
 10
-3.0
 20
0.0
 10
-3.0
 20
-0.28000000000000025
 10
-3.0
 20
-0.5599999999999996
 10
-3.0
 20
-0.8399999999999999
 10
-3.0
 20
-1.1199999999999992
 10
-3.0
 20
-1.4000000000000004
 10
-3.0
 20
-1.6799999999999997
 10
-3.0
 20
-1.9600000000000009
 10
-3.0
 20
-2.24
 10
-3.0
 20
-2.5199999999999996
 10
-3.0
 20
-2.8000000000000007
 10
-3.0
 20
-3.08
 10
-3.0
 20
-3.3599999999999994
 10
-3.0
 20
-3.6400000000000006
 10
-3.0
 20
-3.92
 10
-3.0
 20
-4.199999999999999
 10
-3.0
 20
-4.48
 10
-3.0
 20
-4.76
 10
-3.0
 20
-5.039999999999999
 10
-3.0
 20
-5.32
 10
-3.0
 20
-5.6
 10
-3.0
 20
-5.880000000000001
 10
-3.0
 20
-6.16
 10
-3.0
 20
-6.4399999999999995
 10
-3.0
 20
-6.720000000000001
 10
-3.0
 20
-7.0
  0
LWPOLYLINE
  5
43
330
17
100
AcDbEntity
  8
0
100
AcDbPolyline
 90
51
 70
0
 10
-37.360679775
 20
-7.0
 10
-36.673466179500004
 20
-7.0
 10
-35.986252584
 20
-7.0
 10
-35.2990389885
 20
-7.0
 10
-34.611825393000004
 20
-7.0
 10
-33.9246117975
 20
-7.0
 10
-33.237398202
 20
-7.0
 10
-32.550184606500004
 20
-7.0
 10
-31.862971011
 20
-7.0
 10
-31.1757574155
 20
-7.0
 10
-30.48854382
 20
-7.0
 10
-29.801330224500003
 20
-7.0
 10
-29.114116629
 20
-7.0
 10
-28.4269030335
 20
-7.0
 10
-27.739689438
 20
-7.0
 10
-27.0524758425
 20
-7.0
 10
-26.365262247
 20
-7.0
 10
-25.6780486515
 20
-7.0
 10
-24.990835056
 20
-7.0
 10
-24.3036214605
 20
-7.0
 10
-23.616407865
 20
-7.0
 10
-22.9291942695
 20
-7.0
 10
-22.241980674000004
 20
-7.0
 10
-21.5547670785
 20
-7.0
 10
-20.867553483
 20
-7.0
 10
-20.1803398875
 20
-7.0
 10
-19.493126292
 20
-7.0
 10
-18.8059126965
 20
-7.0
 10
-18.118699101
 20
-7.0
 10
-17.4314855055
 20
-7.0
 10
-16.744271910000002
 20
-7.0
 10
-16.057058314500004
 20
-7.0
 10
-15.369844719
 20
-7.0
 10
-14.682631123499998
 20
-7.0
 10
-13.995417528
 20
-7.0
 10
-13.3082039325
 20
-7.0
 10
-12.620990337000002
 20
-7.0
 10
-11.933776741499997
 20
-7.0
 10
-11.246563146
 20
-7.0
 10
-10.559349550499999
 20
-7.0
 10
-9.872135955000001
 20
-7.0
 10
-9.1849223595
 20
-7.0
 10
-8.497708764000002
 20
-7.0
 10
-7.810495168500001
 20
-7.0
 10
-7.123281573000003
 20
-7.0
 10
-6.436067977499999
 20
-7.0
 10
-5.748854382000001
 20
-7.0
 10
-5.0616407865
 20
-7.0
 10
-4.374427190999995
 20
-7.0
 10
-3.6872135954999976
 20
-7.0
 10
-3.0
 20
-7.0
  0
LWPOLYLINE
  5
44
330
17
100
AcDbEntity
  8
0
100
AcDbPolyline
 90
51
 70
0
 10
-39.0
 20
4.0
 10
-39.0
 20
3.84
 10
-39.0
 20
3.68
 10
-39.0
 20
3.52
 10
-39.0
 20
3.36
 10
-39.0
 20
3.2
 10
-39.0
 20
3.04
 10
-39.0
 20
2.88
 10
-39.0
 20
2.7199999999999998
 10
-39.0
 20
2.56
 10
-39.0
 20
2.4
 10
-39.0
 20
2.24
 10
-39.0
 20
2.08
 10
-39.0
 20
1.92
 10
-39.0
 20
1.7599999999999998
 10
-39.0
 20
1.6
 10
-39.0
 20
1.44
 10
-39.0
 20
1.2799999999999998
 10
-39.0
 20
1.12
 10
-39.0
 20
0.96
 10
-39.0
 20
0.7999999999999998
 10
-39.0
 20
0.6400000000000001
 10
-39.0
 20
0.48
 10
-39.0
 20
0.31999999999999984
 10
-39.0
 20
0.16000000000000014
 10
-39.0
 20
0.0
 10
-39.0
 20
-0.16000000000000014
 10
-39.0
 20
-0.3200000000000003
 10
-39.0
 20
-0.4800000000000004
 10
-39.0
 20
-0.6399999999999997
 10
-39.0
 20
-0.7999999999999998
 10
-39.0
 20
-0.96
 10
-39.0
 20
-1.12
 10
-39.0
 20
-1.2800000000000002
 10
-39.0
 20
-1.4400000000000004
 10
-39.0
 20
-1.5999999999999996
 10
-39.0
 20
-1.7599999999999998
 10
-39.0
 20
-1.92
 10
-39.0
 20
-2.08
 10
-39.0
 20
-2.24
 10
-39.0
 20
-2.4000000000000004
 10
-39.0
 20
-2.5599999999999996
 10
-39.0
 20
-2.7199999999999998
 10
-39.0
 20
-2.88
 10
-39.0
 20
-3.04
 10
-39.0
 20
-3.2
 10
-39.0
 20
-3.3600000000000003
 10
-39.0
 20
-3.5199999999999996
 10
-39.0
 20
-3.6799999999999997
 10
-39.0
 20
-3.84
 10
-39.0
 20
-4.0
  0
ENDSEC
  0
SECTION
  2
OBJECTS
  0
DICTIONARY
  5
A
330
0
100
AcDbDictionary
280
0
281
1
  3
ACAD_COLOR
350
B
  3
ACAD_GROUP
350
C
  3
ACAD_LAYOUT
350
D
  3
ACAD_MATERIAL
350
E
  3
ACAD_MLEADERSTYLE
350
F
  3
ACAD_MLINESTYLE
350
10
  3
ACAD_PLOTSETTINGS
350
11
  3
ACAD_PLOTSTYLENAME
350
12
  3
ACAD_SCALELIST
350
14
  3
ACAD_TABLESTYLE
350
15
  3
ACAD_VISUALSTYLE
350
16
  3
EZDXF_META
350
2D
  0
DICTIONARY
  5
B
330
A
100
AcDbDictionary
280
0
281
1
  0
DICTIONARY
  5
C
330
A
100
AcDbDictionary
280
0
281
1
  0
DICTIONARY
  5
D
330
A
100
AcDbDictionary
280
0
281
1
  3
Model
350
1A
  3
Layout1
350
1E
  0
DICTIONARY
  5
E
330
A
100
AcDbDictionary
280
0
281
1
  3
ByBlock
350
1F
  3
ByLayer
350
20
  3
Global
350
21
  0
DICTIONARY
  5
F
330
A
100
AcDbDictionary
280
0
281
1
  3
Standard
350
2C
  0
DICTIONARY
  5
10
330
A
100
AcDbDictionary
280
0
281
1
  3
Standard
350
22
  0
DICTIONARY
  5
11
330
A
100
AcDbDictionary
280
0
281
1
  0
ACDBDICTIONARYWDFLT
  5
12
330
A
100
AcDbDictionary
280
0
281
1
  3
Normal
350
13
100
AcDbDictionaryWithDefault
340
13
  0
ACDBPLACEHOLDER
  5
13
330
12
  0
DICTIONARY
  5
14
330
A
100
AcDbDictionary
280
0
281
1
  0
DICTIONARY
  5
15
330
A
100
AcDbDictionary
280
0
281
1
  0
DICTIONARY
  5
16
330
A
100
AcDbDictionary
280
0
281
1
  0
LAYOUT
  5
1A
330
D
100
AcDbPlotSettings
  1

  2
Adobe PDF
  4
A3
  6

 40
7.5
 41
20.0
 42
7.5
 43
20.0
 44
420.0
 45
297.0
 46
0.0
 47
0.0
 48
0.0
 49
0.0
140
0.0
141
0.0
142
1.0
143
1.0
 70
1024
 72
1
 73
0
 74
5
  7

 75
16
 76
0
 77
2
 78
300
147
1.0
148
0.0
149
0.0
100
AcDbLayout
  1
Model
 70
1
 71
0
 10
0.0
 20
0.0
 11
420.0
 21
297.0
 12
0.0
 22
0.0
 32
0.0
 14
1e+20
 24
1e+20
 34
1e+20
 15
-1e+20
 25
-1e+20
 35
-1e+20
146
0.0
 13
0.0
 23
0.0
 33
0.0
 16
1.0
 26
0.0
 36
0.0
 17
0.0
 27
1.0
 37
0.0
 76
1
330
17
  0
LAYOUT
  5
1E
330
D
100
AcDbPlotSettings
  1

  2
Adobe PDF
  4
A3
  6

 40
7.5
 41
20.0
 42
7.5
 43
20.0
 44
420.0
 45
297.0
 46
0.0
 47
0.0
 48
0.0
 49
0.0
140
0.0
141
0.0
142
1.0
143
1.0
 70
0
 72
1
 73
0
 74
5
  7

 75
16
 76
0
 77
2
 78
300
147
1.0
148
0.0
149
0.0
100
AcDbLayout
  1
Layout1
 70
1
 71
1
 10
0.0
 20
0.0
 11
420.0
 21
297.0
 12
0.0
 22
0.0
 32
0.0
 14
1e+20
 24
1e+20
 34
1e+20
 15
-1e+20
 25
-1e+20
 35
-1e+20
146
0.0
 13
0.0
 23
0.0
 33
0.0
 16
1.0
 26
0.0
 36
0.0
 17
0.0
 27
1.0
 37
0.0
 76
1
330
1B
  0
MATERIAL
  5
1F
102
{ACAD_REACTORS
330
E
102
}
330
E
100
AcDbMaterial
  1
ByBlock
  2

 70
0
 40
1.0
 71
1
 41
1.0
 91
-1023410177
 42
1.0
 72
1
  3

 73
1
 74
1
 75
1
 44
0.5
 73
0
 45
1.0
 46
1.0
 77
1
  4

 78
1
 79
1
170
1
 48
1.0
171
1
  6

172
1
173
1
174
1
140
1.0
141
1.0
175
1
  7

176
1
177
1
178
1
143
1.0
179
1
  8

270
1
271
1
272
1
145
1.0
146
1.0
273
1
  9

274
1
275
1
276
1
 42
1.0
 72
1
  3

 73
1
 74
1
 75
1
 94
63
  0
MATERIAL
  5
20
102
{ACAD_REACTORS
330
E
102
}
330
E
100
AcDbMaterial
  1
ByLayer
  2

 70
0
 40
1.0
 71
1
 41
1.0
 91
-1023410177
 42
1.0
 72
1
  3

 73
1
 74
1
 75
1
 44
0.5
 73
0
 45
1.0
 46
1.0
 77
1
  4

 78
1
 79
1
170
1
 48
1.0
171
1
  6

172
1
173
1
174
1
140
1.0
141
1.0
175
1
  7

176
1
177
1
178
1
143
1.0
179
1
  8

270
1
271
1
272
1
145
1.0
146
1.0
273
1
  9

274
1
275
1
276
1
 42
1.0
 72
1
  3

 73
1
 74
1
 75
1
 94
63
  0
MATERIAL
  5
21
102
{ACAD_REACTORS
330
E
102
}
330
E
100
AcDbMaterial
  1
Global
  2

 70
0
 40
1.0
 71
1
 41
1.0
 91
-1023410177
 42
1.0
 72
1
  3

 73
1
 74
1
 75
1
 44
0.5
 73
0
 45
1.0
 46
1.0
 77
1
  4

 78
1
 79
1
170
1
 48
1.0
171
1
  6

172
1
173
1
174
1
140
1.0
141
1.0
175
1
  7

176
1
177
1
178
1
143
1.0
179
1
  8

270
1
271
1
272
1
145
1.0
146
1.0
273
1
  9

274
1
275
1
276
1
 42
1.0
 72
1
  3

 73
1
 74
1
 75
1
 94
63
  0
MLINESTYLE
  5
22
102
{ACAD_REACTORS
330
10
102
}
330
10
100
AcDbMlineStyle
  2
Standard
 70
0
  3

 62
256
 51
90.0
 52
90.0
 71
2
 49
0.5
 62
256
  6
BYLAYER
 49
-0.5
 62
256
  6
BYLAYER
  0
MLEADERSTYLE
  5
2C
102
{ACAD_REACTORS
330
F
102
}
330
F
100
AcDbMLeaderStyle
179
2
170
2
171
1
172
0
 90
2
 40
0.0
 41
0.0
173
1
 91
-1056964608
 92
-2
290
1
 42
2.0
291
1
 43
8.0
  3
Standard
 44
4.0
300

342
29
174
1
175
1
176
0
178
1
 93
-1056964608
 45
4.0
292
0
297
0
 46
4.0
 94
-1056964608
 47
1.0
 49
1.0
140
1.0
294
1
141
0.0
177
0
142
1.0
295
0
296
0
143
3.75
271
0
272
9
273
9
  0
DICTIONARY
  5
2D
330
A
100
AcDbDictionary
281
1
  3
CREATED_BY_EZDXF
350
2E
  3
WRITTEN_BY_EZDXF
350
47
  0
DICTIONARYVAR
  5
2E
330
2D
100
DictionaryVariables
280
0
  1
1.0.3 @ 2025-05-29T09:41:24.616351+00:00
  0
DICTIONARYVAR
  5
47
330
2D
100
DictionaryVariables
280
0
  1
1.0.3 @ 2025-05-29T09:41:24.625862+00:00
  0
ENDSEC
  0
EOF
