  0
SECTION
  2
HEADER
  9
$ACADVER
  1
AC1027
  9
$ACADMAINTVER
 70
105
  9
$DWGCODEPAGE
  3
ANSI_1252
  9
$LASTSAVEDBY
  1
ezdxf
  9
$REQUIREDVERSIONS
160
0
  9
$INSBASE
 10
0.0
 20
0.0
 30
0.0
  9
$EXTMIN
 10
1e+20
 20
1e+20
 30
1e+20
  9
$EXTMAX
 10
-1e+20
 20
-1e+20
 30
-1e+20
  9
$LIMMIN
 10
0.0
 20
0.0
  9
$LIMMAX
 10
420.0
 20
297.0
  9
$ORTHOMODE
 70
0
  9
$REGENMODE
 70
1
  9
$FILLMODE
 70
1
  9
$QTEXTMODE
 70
0
  9
$MIRRTEXT
 70
1
  9
$LTSCALE
 40
1.0
  9
$ATTMODE
 70
1
  9
$TEXTSIZE
 40
2.5
  9
$TRACEWID
 40
1.0
  9
$TEXTSTYLE
  7
Standard
  9
$CLAYER
  8
0
  9
$CELTYPE
  6
ByLayer
  9
$CECOLOR
 62
256
  9
$CELTSCALE
 40
1.0
  9
$DISPSILH
 70
0
  9
$DIMSCALE
 40
1.0
  9
$DIMASZ
 40
2.5
  9
$DIMEXO
 40
0.625
  9
$DIMDLI
 40
3.75
  9
$DIMRND
 40
0.0
  9
$DIMDLE
 40
0.0
  9
$DIMEXE
 40
1.25
  9
$DIMTP
 40
0.0
  9
$DIMTM
 40
0.0
  9
$DIMTXT
 40
2.5
  9
$DIMCEN
 40
2.5
  9
$DIMTSZ
 40
0.0
  9
$DIMTOL
 70
0
  9
$DIMLIM
 70
0
  9
$DIMTIH
 70
0
  9
$DIMTOH
 70
0
  9
$DIMSE1
 70
0
  9
$DIMSE2
 70
0
  9
$DIMTAD
 70
1
  9
$DIMZIN
 70
8
  9
$DIMBLK
  1

  9
$DIMASO
 70
1
  9
$DIMSHO
 70
1
  9
$DIMPOST
  1

  9
$DIMAPOST
  1

  9
$DIMALT
 70
0
  9
$DIMALTD
 70
3
  9
$DIMALTF
 40
0.03937007874
  9
$DIMLFAC
 40
1.0
  9
$DIMTOFL
 70
1
  9
$DIMTVP
 40
0.0
  9
$DIMTIX
 70
0
  9
$DIMSOXD
 70
0
  9
$DIMSAH
 70
0
  9
$DIMBLK1
  1

  9
$DIMBLK2
  1

  9
$DIMSTYLE
  2
ISO-25
  9
$DIMCLRD
 70
0
  9
$DIMCLRE
 70
0
  9
$DIMCLRT
 70
0
  9
$DIMTFAC
 40
1.0
  9
$DIMGAP
 40
0.625
  9
$DIMJUST
 70
0
  9
$DIMSD1
 70
0
  9
$DIMSD2
 70
0
  9
$DIMTOLJ
 70
0
  9
$DIMTZIN
 70
8
  9
$DIMALTZ
 70
0
  9
$DIMALTTZ
 70
0
  9
$DIMUPT
 70
0
  9
$DIMDEC
 70
2
  9
$DIMTDEC
 70
2
  9
$DIMALTU
 70
2
  9
$DIMALTTD
 70
3
  9
$DIMTXSTY
  7
Standard
  9
$DIMAUNIT
 70
0
  9
$DIMADEC
 70
0
  9
$DIMALTRND
 40
0.0
  9
$DIMAZIN
 70
0
  9
$DIMDSEP
 70
44
  9
$DIMATFIT
 70
3
  9
$DIMFRAC
 70
0
  9
$DIMLDRBLK
  1

  9
$DIMLUNIT
 70
2
  9
$DIMLWD
 70
-2
  9
$DIMLWE
 70
-2
  9
$DIMTMOVE
 70
0
  9
$DIMFXL
 40
1.0
  9
$DIMFXLON
 70
0
  9
$DIMJOGANG
 40
0.785398163397
  9
$DIMTFILL
 70
0
  9
$DIMTFILLCLR
 70
0
  9
$DIMARCSYM
 70
0
  9
$DIMLTYPE
  6

  9
$DIMLTEX1
  6

  9
$DIMLTEX2
  6

  9
$DIMTXTDIRECTION
 70
0
  9
$LUNITS
 70
2
  9
$LUPREC
 70
4
  9
$SKETCHINC
 40
1.0
  9
$FILLETRAD
 40
10.0
  9
$AUNITS
 70
0
  9
$AUPREC
 70
2
  9
$MENU
  1
.
  9
$ELEVATION
 40
0.0
  9
$PELEVATION
 40
0.0
  9
$THICKNESS
 40
0.0
  9
$LIMCHECK
 70
0
  9
$CHAMFERA
 40
0.0
  9
$CHAMFERB
 40
0.0
  9
$CHAMFERC
 40
0.0
  9
$CHAMFERD
 40
0.0
  9
$SKPOLY
 70
0
  9
$TDCREATE
 40
2460825.77875
  9
$TDUCREATE
 40
2458532.153996898
  9
$TDUPDATE
 40
2460825.77875
  9
$TDUUPDATE
 40
2458532.1544311
  9
$TDINDWG
 40
0.0
  9
$TDUSRTIMER
 40
0.0
  9
$USRTIMER
 70
1
  9
$ANGBASE
 50
0.0
  9
$ANGDIR
 70
0
  9
$PDMODE
 70
0
  9
$PDSIZE
 40
0.0
  9
$PLINEWID
 40
0.0
  9
$SPLFRAME
 70
0
  9
$SPLINETYPE
 70
6
  9
$SPLINESEGS
 70
8
  9
$HANDSEED
  5
43
  9
$SURFTAB1
 70
6
  9
$SURFTAB2
 70
6
  9
$SURFTYPE
 70
6
  9
$SURFU
 70
6
  9
$SURFV
 70
6
  9
$UCSBASE
  2

  9
$UCSNAME
  2

  9
$UCSORG
 10
0.0
 20
0.0
 30
0.0
  9
$UCSXDIR
 10
1.0
 20
0.0
 30
0.0
  9
$UCSYDIR
 10
0.0
 20
1.0
 30
0.0
  9
$UCSORTHOREF
  2

  9
$UCSORTHOVIEW
 70
0
  9
$UCSORGTOP
 10
0.0
 20
0.0
 30
0.0
  9
$UCSORGBOTTOM
 10
0.0
 20
0.0
 30
0.0
  9
$UCSORGLEFT
 10
0.0
 20
0.0
 30
0.0
  9
$UCSORGRIGHT
 10
0.0
 20
0.0
 30
0.0
  9
$UCSORGFRONT
 10
0.0
 20
0.0
 30
0.0
  9
$UCSORGBACK
 10
0.0
 20
0.0
 30
0.0
  9
$PUCSBASE
  2

  9
$PUCSNAME
  2

  9
$PUCSORG
 10
0.0
 20
0.0
 30
0.0
  9
$PUCSXDIR
 10
1.0
 20
0.0
 30
0.0
  9
$PUCSYDIR
 10
0.0
 20
1.0
 30
0.0
  9
$PUCSORTHOREF
  2

  9
$PUCSORTHOVIEW
 70
0
  9
$PUCSORGTOP
 10
0.0
 20
0.0
 30
0.0
  9
$PUCSORGBOTTOM
 10
0.0
 20
0.0
 30
0.0
  9
$PUCSORGLEFT
 10
0.0
 20
0.0
 30
0.0
  9
$PUCSORGRIGHT
 10
0.0
 20
0.0
 30
0.0
  9
$PUCSORGFRONT
 10
0.0
 20
0.0
 30
0.0
  9
$PUCSORGBACK
 10
0.0
 20
0.0
 30
0.0
  9
$USERI1
 70
0
  9
$USERI2
 70
0
  9
$USERI3
 70
0
  9
$USERI4
 70
0
  9
$USERI5
 70
0
  9
$USERR1
 40
0.0
  9
$USERR2
 40
0.0
  9
$USERR3
 40
0.0
  9
$USERR4
 40
0.0
  9
$USERR5
 40
0.0
  9
$WORLDVIEW
 70
1
  9
$SHADEDGE
 70
3
  9
$SHADEDIF
 70
70
  9
$TILEMODE
 70
1
  9
$MAXACTVP
 70
64
  9
$PINSBASE
 10
0.0
 20
0.0
 30
0.0
  9
$PLIMCHECK
 70
0
  9
$PEXTMIN
 10
1e+20
 20
1e+20
 30
1e+20
  9
$PEXTMAX
 10
-1e+20
 20
-1e+20
 30
-1e+20
  9
$PLIMMIN
 10
0.0
 20
0.0
  9
$PLIMMAX
 10
420.0
 20
297.0
  9
$UNITMODE
 70
0
  9
$VISRETAIN
 70
1
  9
$PLINEGEN
 70
0
  9
$PSLTSCALE
 70
1
  9
$TREEDEPTH
 70
3020
  9
$CMLSTYLE
  2
Standard
  9
$CMLJUST
 70
0
  9
$CMLSCALE
 40
20.0
  9
$PROXYGRAPHICS
 70
1
  9
$MEASUREMENT
 70
1
  9
$CELWEIGHT
370
-1
  9
$ENDCAPS
280
0
  9
$JOINSTYLE
280
0
  9
$LWDISPLAY
290
0
  9
$INSUNITS
 70
6
  9
$HYPERLINKBASE
  1

  9
$STYLESHEET
  1

  9
$XEDIT
290
1
  9
$CEPSNTYPE
380
0
  9
$PSTYLEMODE
290
1
  9
$FINGERPRINTGUID
  2
{4AB5F273-D7D0-47DB-A982-63A36E4DC78F}
  9
$VERSIONGUID
  2
{4356B978-2316-4DD0-95F5-DE4A9B698B1C}
  9
$EXTNAMES
290
1
  9
$PSVPSCALE
 40
0.0
  9
$OLESTARTUP
290
0
  9
$SORTENTS
280
127
  9
$INDEXCTL
280
0
  9
$HIDETEXT
280
1
  9
$XCLIPFRAME
280
0
  9
$HALOGAP
280
0
  9
$OBSCOLOR
 70
257
  9
$OBSLTYPE
280
0
  9
$INTERSECTIONDISPLAY
280
0
  9
$INTERSECTIONCOLOR
 70
257
  9
$DIMASSOC
280
2
  9
$PROJECTNAME
  1

  9
$CAMERADISPLAY
290
0
  9
$LENSLENGTH
 40
50.0
  9
$CAMERAHEIGHT
 40
0.0
  9
$STEPSPERSEC
 40
24.0
  9
$STEPSIZE
 40
100.0
  9
$3DDWFPREC
 40
2.0
  9
$PSOLWIDTH
 40
0.005
  9
$PSOLHEIGHT
 40
0.08
  9
$LOFTANG1
 40
1.570796326795
  9
$LOFTANG2
 40
1.570796326795
  9
$LOFTMAG1
 40
0.0
  9
$LOFTMAG2
 40
0.0
  9
$LOFTPARAM
 70
7
  9
$LOFTNORMALS
280
1
  9
$LATITUDE
 40
37.795
  9
$LONGITUDE
 40
-122.394
  9
$NORTHDIRECTION
 40
0.0
  9
$TIMEZONE
 70
-8000
  9
$LIGHTGLYPHDISPLAY
280
1
  9
$TILEMODELIGHTSYNCH
280
1
  9
$CMATERIAL
347
20
  9
$SOLIDHIST
280
0
  9
$SHOWHIST
280
1
  9
$DWFFRAME
280
2
  9
$DGNFRAME
280
2
  9
$REALWORLDSCALE
290
1
  9
$INTERFERECOLOR
 62
256
  9
$CSHADOW
280
0
  9
$SHADOWPLANELOCATION
 40
0.0
  0
ENDSEC
  0
SECTION
  2
CLASSES
  0
CLASS
  1
ACDBDICTIONARYWDFLT
  2
AcDbDictionaryWithDefault
  3
ObjectDBX Classes
 90
0
 91
0
280
0
281
0
  0
CLASS
  1
SUN
  2
AcDbSun
  3
SCENEOE
 90
1153
 91
0
280
0
281
0
  0
CLASS
  1
VISUALSTYLE
  2
AcDbVisualStyle
  3
ObjectDBX Classes
 90
4095
 91
0
280
0
281
0
  0
CLASS
  1
MATERIAL
  2
AcDbMaterial
  3
ObjectDBX Classes
 90
1153
 91
0
280
0
281
0
  0
CLASS
  1
SCALE
  2
AcDbScale
  3
ObjectDBX Classes
 90
1153
 91
0
280
0
281
0
  0
CLASS
  1
TABLESTYLE
  2
AcDbTableStyle
  3
ObjectDBX Classes
 90
4095
 91
0
280
0
281
0
  0
CLASS
  1
MLEADERSTYLE
  2
AcDbMLeaderStyle
  3
ACDB_MLEADERSTYLE_CLASS
 90
4095
 91
0
280
0
281
0
  0
CLASS
  1
DICTIONARYVAR
  2
AcDbDictionaryVar
  3
ObjectDBX Classes
 90
0
 91
0
280
0
281
0
  0
CLASS
  1
CELLSTYLEMAP
  2
AcDbCellStyleMap
  3
ObjectDBX Classes
 90
1152
 91
0
280
0
281
0
  0
CLASS
  1
MENTALRAYRENDERSETTINGS
  2
AcDbMentalRayRenderSettings
  3
SCENEOE
 90
1024
 91
0
280
0
281
0
  0
CLASS
  1
ACDBDETAILVIEWSTYLE
  2
AcDbDetailViewStyle
  3
ObjectDBX Classes
 90
1025
 91
0
280
0
281
0
  0
CLASS
  1
ACDBSECTIONVIEWSTYLE
  2
AcDbSectionViewStyle
  3
ObjectDBX Classes
 90
1025
 91
0
280
0
281
0
  0
CLASS
  1
RASTERVARIABLES
  2
AcDbRasterVariables
  3
ISM
 90
0
 91
0
280
0
281
0
  0
CLASS
  1
LAYOUT
  2
AcDbLayout
  3
ObjectDBX Classes
 90
0
 91
0
280
0
281
0
  0
CLASS
  1
ACDBPLACEHOLDER
  2
AcDbPlaceHolder
  3
ObjectDBX Classes
 90
0
 91
0
280
0
281
0
  0
ENDSEC
  0
SECTION
  2
TABLES
  0
TABLE
  2
VPORT
  5
8
330
0
100
AcDbSymbolTable
 70
1
  0
VPORT
  5
23
330
8
100
AcDbSymbolTableRecord
100
AcDbViewportTableRecord
  2
*Active
 70
0
 10
0.0
 20
0.0
 11
1.0
 21
1.0
 12
0.0
 22
0.0
 13
0.0
 23
0.0
 14
0.5
 24
0.5
 15
0.5
 25
0.5
 16
0.0
 26
0.0
 36
1.0
 17
0.0
 27
0.0
 37
0.0
 40
1000.0
 41
1.34
 42
50.0
 43
0.0
 44
0.0
 50
0.0
 51
0.0
 71
0
 72
1000
 73
1
 74
3
 75
0
 76
0
 77
0
 78
0
281
0
 65
0
146
0.0
  0
ENDTAB
  0
TABLE
  2
LTYPE
  5
2
330
0
100
AcDbSymbolTable
 70
3
  0
LTYPE
  5
24
330
2
100
AcDbSymbolTableRecord
100
AcDbLinetypeTableRecord
  2
ByBlock
 70
0
  3

 72
65
 73
0
 40
0.0
  0
LTYPE
  5
25
330
2
100
AcDbSymbolTableRecord
100
AcDbLinetypeTableRecord
  2
ByLayer
 70
0
  3

 72
65
 73
0
 40
0.0
  0
LTYPE
  5
26
330
2
100
AcDbSymbolTableRecord
100
AcDbLinetypeTableRecord
  2
Continuous
 70
0
  3

 72
65
 73
0
 40
0.0
  0
ENDTAB
  0
TABLE
  2
LAYER
  5
1
330
0
100
AcDbSymbolTable
 70
2
  0
LAYER
  5
27
330
1
100
AcDbSymbolTableRecord
100
AcDbLayerTableRecord
  2
0
 70
0
 62
7
  6
Continuous
370
-3
390
13
347
21
  0
LAYER
  5
28
330
1
100
AcDbSymbolTableRecord
100
AcDbLayerTableRecord
  2
Defpoints
 70
0
 62
7
  6
Continuous
290
0
370
-3
390
13
347
21
  0
ENDTAB
  0
TABLE
  2
STYLE
  5
5
330
0
100
AcDbSymbolTable
 70
1
  0
STYLE
  5
29
330
5
100
AcDbSymbolTableRecord
100
AcDbTextStyleTableRecord
  2
Standard
 70
0
 40
0.0
 41
1.0
 50
0.0
 71
0
 42
2.5
  3
txt
  4

  0
ENDTAB
  0
TABLE
  2
VIEW
  5
7
330
0
100
AcDbSymbolTable
 70
0
  0
ENDTAB
  0
TABLE
  2
UCS
  5
6
330
0
100
AcDbSymbolTable
 70
0
  0
ENDTAB
  0
TABLE
  2
APPID
  5
3
330
0
100
AcDbSymbolTable
 70
3
  0
APPID
  5
2A
330
3
100
AcDbSymbolTableRecord
100
AcDbRegAppTableRecord
  2
ACAD
 70
0
  0
APPID
  5
40
330
3
100
AcDbSymbolTableRecord
100
AcDbRegAppTableRecord
  2
HATCHBACKGROUNDCOLOR
 70
0
  0
APPID
  5
41
330
3
100
AcDbSymbolTableRecord
100
AcDbRegAppTableRecord
  2
EZDXF
 70
0
  0
ENDTAB
  0
TABLE
  2
DIMSTYLE
  5
4
330
0
100
AcDbSymbolTable
 70
1
100
AcDbDimStyleTable
  0
DIMSTYLE
105
2B
330
4
100
AcDbSymbolTableRecord
100
AcDbDimStyleTableRecord
  2
Standard
 70
0
 40
1.0
 41
2.5
 42
0.625
 43
3.75
 44
1.25
 45
0.0
 46
0.0
 47
0.0
 48
0.0
 49
2.5
140
2.5
141
2.5
142
0.0
143
0.03937007874
144
1.0
145
0.0
146
1.0
147
0.625
148
0.0
 69
0
 70
0
 71
0
 72
0
 73
0
 74
0
 75
0
 76
0
 77
1
 78
8
 79
3
170
0
171
3
172
1
173
0
174
0
175
0
176
0
177
0
178
0
179
2
271
2
272
2
273
2
274
3
275
0
276
0
277
2
278
44
279
0
280
0
281
0
282
0
283
0
284
8
285
0
286
0
288
0
289
3
290
0
371
-2
372
-2
  0
ENDTAB
  0
TABLE
  2
BLOCK_RECORD
  5
9
330
0
100
AcDbSymbolTable
 70
2
  0
BLOCK_RECORD
  5
17
330
9
100
AcDbSymbolTableRecord
100
AcDbBlockTableRecord
  2
*Model_Space
340
1A
 70
0
280
1
281
0
  0
BLOCK_RECORD
  5
1B
330
9
100
AcDbSymbolTableRecord
100
AcDbBlockTableRecord
  2
*Paper_Space
340
1E
 70
0
280
1
281
0
  0
ENDTAB
  0
ENDSEC
  0
SECTION
  2
BLOCKS
  0
BLOCK
  5
18
330
17
100
AcDbEntity
  8
0
100
AcDbBlockBegin
  2
*Model_Space
 70
0
 10
0.0
 20
0.0
 30
0.0
  3
*Model_Space
  1

  0
ENDBLK
  5
19
330
17
100
AcDbEntity
  8
0
100
AcDbBlockEnd
  0
BLOCK
  5
1C
330
1B
100
AcDbEntity
  8
0
100
AcDbBlockBegin
  2
*Paper_Space
 70
0
 10
0.0
 20
0.0
 30
0.0
  3
*Paper_Space
  1

  0
ENDBLK
  5
1D
330
1B
100
AcDbEntity
  8
0
100
AcDbBlockEnd
  0
ENDSEC
  0
SECTION
  2
ENTITIES
  0
LWPOLYLINE
  5
2F
330
17
100
AcDbEntity
  8
0
100
AcDbPolyline
 90
51
 70
0
 10
-11.0
 20
-3.15
 10
-10.9
 20
-3.15
 10
-10.8
 20
-3.15
 10
-10.7
 20
-3.15
 10
-10.6
 20
-3.15
 10
-10.5
 20
-3.15
 10
-10.4
 20
-3.15
 10
-10.3
 20
-3.15
 10
-10.2
 20
-3.15
 10
-10.1
 20
-3.15
 10
-10.0
 20
-3.15
 10
-9.9
 20
-3.15
 10
-9.8
 20
-3.15
 10
-9.7
 20
-3.15
 10
-9.6
 20
-3.15
 10
-9.5
 20
-3.15
 10
-9.4
 20
-3.15
 10
-9.3
 20
-3.15
 10
-9.2
 20
-3.15
 10
-9.1
 20
-3.15
 10
-9.0
 20
-3.15
 10
-8.9
 20
-3.15
 10
-8.8
 20
-3.15
 10
-8.7
 20
-3.15
 10
-8.6
 20
-3.15
 10
-8.5
 20
-3.15
 10
-8.4
 20
-3.15
 10
-8.3
 20
-3.15
 10
-8.2
 20
-3.15
 10
-8.1
 20
-3.15
 10
-8.0
 20
-3.15
 10
-7.9
 20
-3.15
 10
-7.8
 20
-3.15
 10
-7.7
 20
-3.15
 10
-7.6
 20
-3.15
 10
-7.5
 20
-3.15
 10
-7.4
 20
-3.15
 10
-7.3
 20
-3.15
 10
-7.2
 20
-3.15
 10
-7.1
 20
-3.15
 10
-7.0
 20
-3.15
 10
-6.9
 20
-3.15
 10
-6.8
 20
-3.15
 10
-6.7
 20
-3.15
 10
-6.6
 20
-3.15
 10
-6.5
 20
-3.15
 10
-6.4
 20
-3.15
 10
-6.3
 20
-3.15
 10
-6.2
 20
-3.15
 10
-6.1
 20
-3.15
 10
-6.0
 20
-3.15
  0
LWPOLYLINE
  5
30
330
17
100
AcDbEntity
  8
0
100
AcDbPolyline
 90
51
 70
0
 10
6.0
 20
-3.15
 10
6.100000000000001
 20
-3.15
 10
6.199999999999999
 20
-3.15
 10
6.300000000000001
 20
-3.15
 10
6.399999999999999
 20
-3.15
 10
6.5
 20
-3.15
 10
6.600000000000001
 20
-3.15
 10
6.699999999999999
 20
-3.15
 10
6.800000000000001
 20
-3.15
 10
6.899999999999999
 20
-3.15
 10
7.0
 20
-3.15
 10
7.100000000000001
 20
-3.15
 10
7.199999999999999
 20
-3.15
 10
7.300000000000001
 20
-3.15
 10
7.399999999999999
 20
-3.15
 10
7.5
 20
-3.15
 10
7.600000000000001
 20
-3.15
 10
7.699999999999999
 20
-3.15
 10
7.800000000000001
 20
-3.15
 10
7.899999999999999
 20
-3.15
 10
8.0
 20
-3.15
 10
8.100000000000001
 20
-3.15
 10
8.2
 20
-3.15
 10
8.3
 20
-3.15
 10
8.399999999999999
 20
-3.15
 10
8.5
 20
-3.15
 10
8.600000000000001
 20
-3.15
 10
8.7
 20
-3.15
 10
8.8
 20
-3.15
 10
8.899999999999999
 20
-3.15
 10
9.0
 20
-3.15
 10
9.100000000000001
 20
-3.15
 10
9.2
 20
-3.15
 10
9.3
 20
-3.15
 10
9.399999999999999
 20
-3.15
 10
9.5
 20
-3.15
 10
9.600000000000001
 20
-3.15
 10
9.7
 20
-3.15
 10
9.8
 20
-3.15
 10
9.899999999999999
 20
-3.15
 10
10.0
 20
-3.15
 10
10.100000000000001
 20
-3.15
 10
10.2
 20
-3.15
 10
10.3
 20
-3.15
 10
10.399999999999999
 20
-3.15
 10
10.5
 20
-3.15
 10
10.600000000000001
 20
-3.15
 10
10.7
 20
-3.15
 10
10.8
 20
-3.15
 10
10.899999999999999
 20
-3.15
 10
11.0
 20
-3.15
  0
LWPOLYLINE
  5
31
330
17
100
AcDbEntity
  8
0
100
AcDbPolyline
 90
51
 70
0
 10
11.0
 20
0.0
 10
10.9
 20
0.0
 10
10.8
 20
0.0
 10
10.7
 20
0.0
 10
10.6
 20
0.0
 10
10.5
 20
0.0
 10
10.4
 20
0.0
 10
10.3
 20
0.0
 10
10.2
 20
0.0
 10
10.1
 20
0.0
 10
10.0
 20
0.0
 10
9.9
 20
0.0
 10
9.8
 20
0.0
 10
9.7
 20
0.0
 10
9.6
 20
0.0
 10
9.5
 20
0.0
 10
9.4
 20
0.0
 10
9.3
 20
0.0
 10
9.2
 20
0.0
 10
9.1
 20
0.0
 10
9.0
 20
0.0
 10
8.9
 20
0.0
 10
8.8
 20
0.0
 10
8.7
 20
0.0
 10
8.6
 20
0.0
 10
8.5
 20
0.0
 10
8.4
 20
0.0
 10
8.3
 20
0.0
 10
8.2
 20
0.0
 10
8.1
 20
0.0
 10
8.0
 20
0.0
 10
7.9
 20
0.0
 10
7.8
 20
0.0
 10
7.7
 20
0.0
 10
7.6
 20
0.0
 10
7.5
 20
0.0
 10
7.4
 20
0.0
 10
7.3
 20
0.0
 10
7.2
 20
0.0
 10
7.1
 20
0.0
 10
7.0
 20
0.0
 10
6.9
 20
0.0
 10
6.8
 20
0.0
 10
6.7
 20
0.0
 10
6.6
 20
0.0
 10
6.5
 20
0.0
 10
6.4
 20
0.0
 10
6.3
 20
0.0
 10
6.2
 20
0.0
 10
6.1
 20
0.0
 10
6.0
 20
0.0
  0
LWPOLYLINE
  5
32
330
17
100
AcDbEntity
  8
0
100
AcDbPolyline
 90
51
 70
0
 10
-6.0
 20
0.0
 10
-6.1
 20
0.0
 10
-6.2
 20
0.0
 10
-6.3
 20
0.0
 10
-6.4
 20
0.0
 10
-6.5
 20
0.0
 10
-6.6
 20
0.0
 10
-6.7
 20
0.0
 10
-6.8
 20
0.0
 10
-6.9
 20
0.0
 10
-7.0
 20
0.0
 10
-7.1
 20
0.0
 10
-7.2
 20
0.0
 10
-7.3
 20
0.0
 10
-7.4
 20
0.0
 10
-7.5
 20
0.0
 10
-7.6
 20
0.0
 10
-7.7
 20
0.0
 10
-7.8
 20
0.0
 10
-7.9
 20
0.0
 10
-8.0
 20
0.0
 10
-8.1
 20
0.0
 10
-8.2
 20
0.0
 10
-8.3
 20
0.0
 10
-8.4
 20
0.0
 10
-8.5
 20
0.0
 10
-8.6
 20
0.0
 10
-8.7
 20
0.0
 10
-8.8
 20
0.0
 10
-8.9
 20
0.0
 10
-9.0
 20
0.0
 10
-9.1
 20
0.0
 10
-9.2
 20
0.0
 10
-9.3
 20
0.0
 10
-9.4
 20
0.0
 10
-9.5
 20
0.0
 10
-9.6
 20
0.0
 10
-9.7
 20
0.0
 10
-9.8
 20
0.0
 10
-9.9
 20
0.0
 10
-10.0
 20
0.0
 10
-10.1
 20
0.0
 10
-10.2
 20
0.0
 10
-10.3
 20
0.0
 10
-10.4
 20
0.0
 10
-10.5
 20
0.0
 10
-10.6
 20
0.0
 10
-10.7
 20
0.0
 10
-10.8
 20
0.0
 10
-10.9
 20
0.0
 10
-11.0
 20
0.0
  0
LWPOLYLINE
  5
33
330
17
100
AcDbEntity
  8
0
100
AcDbPolyline
 90
51
 70
0
 10
-11.0
 20
-19.0
 10
-11.0
 20
-18.62
 10
-11.0
 20
-18.24
 10
-11.0
 20
-17.86
 10
-11.0
 20
-17.48
 10
-11.0
 20
-17.1
 10
-11.0
 20
-16.72
 10
-11.0
 20
-16.34
 10
-11.0
 20
-15.96
 10
-11.0
 20
-15.58
 10
-11.0
 20
-15.2
 10
-11.0
 20
-14.82
 10
-11.0
 20
-14.440000000000001
 10
-11.0
 20
-14.059999999999999
 10
-11.0
 20
-13.68
 10
-11.0
 20
-13.3
 10
-11.0
 20
-12.92
 10
-11.0
 20
-12.54
 10
-11.0
 20
-12.16
 10
-11.0
 20
-11.780000000000001
 10
-11.0
 20
-11.4
 10
-11.0
 20
-11.02
 10
-11.0
 20
-10.64
 10
-11.0
 20
-10.26
 10
-11.0
 20
-9.88
 10
-11.0
 20
-9.5
 10
-11.0
 20
-9.12
 10
-11.0
 20
-8.74
 10
-11.0
 20
-8.36
 10
-11.0
 20
-7.98
 10
-11.0
 20
-7.6
 10
-11.0
 20
-7.220000000000001
 10
-11.0
 20
-6.84
 10
-11.0
 20
-6.460000000000001
 10
-11.0
 20
-6.08
 10
-11.0
 20
-5.699999999999999
 10
-11.0
 20
-5.32
 10
-11.0
 20
-4.9399999999999995
 10
-11.0
 20
-4.5600000000000005
 10
-11.0
 20
-4.18
 10
-11.0
 20
-3.8000000000000007
 10
-11.0
 20
-3.42
 10
-11.0
 20
-3.039999999999999
 10
-11.0
 20
-2.66
 10
-11.0
 20
-2.280000000000001
 10
-11.0
 20
-1.8999999999999986
 10
-11.0
 20
-1.5199999999999996
 10
-11.0
 20
-1.1400000000000006
 10
-11.0
 20
-0.7600000000000016
 10
-11.0
 20
-0.379999999999999
 10
-11.0
 20
0.0
  0
LWPOLYLINE
  5
34
330
17
100
AcDbEntity
  8
0
100
AcDbPolyline
 90
51
 70
0
 10
11.0
 20
-19.0
 10
10.56
 20
-19.0
 10
10.12
 20
-19.0
 10
9.68
 20
-19.0
 10
9.24
 20
-19.0
 10
8.8
 20
-19.0
 10
8.36
 20
-19.0
 10
7.92
 20
-19.0
 10
7.48
 20
-19.0
 10
7.04
 20
-19.0
 10
6.6
 20
-19.0
 10
6.16
 20
-19.0
 10
5.72
 20
-19.0
 10
5.28
 20
-19.0
 10
4.84
 20
-19.0
 10
4.4
 20
-19.0
 10
3.96
 20
-19.0
 10
3.5199999999999996
 20
-19.0
 10
3.08
 20
-19.0
 10
2.6400000000000006
 20
-19.0
 10
2.1999999999999993
 20
-19.0
 10
1.7599999999999998
 20
-19.0
 10
1.3200000000000003
 20
-19.0
 10
0.8800000000000008
 20
-19.0
 10
0.4399999999999995
 20
-19.0
 10
0.0
 20
-19.0
 10
-0.4399999999999995
 20
-19.0
 10
-0.8800000000000008
 20
-19.0
 10
-1.3200000000000003
 20
-19.0
 10
-1.7599999999999998
 20
-19.0
 10
-2.1999999999999993
 20
-19.0
 10
-2.6400000000000006
 20
-19.0
 10
-3.08
 20
-19.0
 10
-3.5199999999999996
 20
-19.0
 10
-3.960000000000001
 20
-19.0
 10
-4.4
 20
-19.0
 10
-4.84
 20
-19.0
 10
-5.280000000000001
 20
-19.0
 10
-5.719999999999999
 20
-19.0
 10
-6.16
 20
-19.0
 10
-6.600000000000001
 20
-19.0
 10
-7.039999999999999
 20
-19.0
 10
-7.48
 20
-19.0
 10
-7.920000000000002
 20
-19.0
 10
-8.36
 20
-19.0
 10
-8.8
 20
-19.0
 10
-9.239999999999998
 20
-19.0
 10
-9.68
 20
-19.0
 10
-10.120000000000001
 20
-19.0
 10
-10.559999999999999
 20
-19.0
 10
-11.0
 20
-19.0
  0
LWPOLYLINE
  5
35
330
17
100
AcDbEntity
  8
0
100
AcDbPolyline
 90
51
 70
0
 10
11.0
 20
-19.0
 10
11.0
 20
-18.62
 10
11.0
 20
-18.24
 10
11.0
 20
-17.86
 10
11.0
 20
-17.48
 10
11.0
 20
-17.1
 10
11.0
 20
-16.72
 10
11.0
 20
-16.34
 10
11.0
 20
-15.96
 10
11.0
 20
-15.58
 10
11.0
 20
-15.2
 10
11.0
 20
-14.82
 10
11.0
 20
-14.440000000000001
 10
11.0
 20
-14.059999999999999
 10
11.0
 20
-13.68
 10
11.0
 20
-13.3
 10
11.0
 20
-12.92
 10
11.0
 20
-12.54
 10
11.0
 20
-12.16
 10
11.0
 20
-11.780000000000001
 10
11.0
 20
-11.4
 10
11.0
 20
-11.02
 10
11.0
 20
-10.64
 10
11.0
 20
-10.26
 10
11.0
 20
-9.88
 10
11.0
 20
-9.5
 10
11.0
 20
-9.12
 10
11.0
 20
-8.74
 10
11.0
 20
-8.36
 10
11.0
 20
-7.98
 10
11.0
 20
-7.6
 10
11.0
 20
-7.220000000000001
 10
11.0
 20
-6.84
 10
11.0
 20
-6.460000000000001
 10
11.0
 20
-6.08
 10
11.0
 20
-5.699999999999999
 10
11.0
 20
-5.32
 10
11.0
 20
-4.9399999999999995
 10
11.0
 20
-4.5600000000000005
 10
11.0
 20
-4.18
 10
11.0
 20
-3.8000000000000007
 10
11.0
 20
-3.42
 10
11.0
 20
-3.039999999999999
 10
11.0
 20
-2.66
 10
11.0
 20
-2.280000000000001
 10
11.0
 20
-1.8999999999999986
 10
11.0
 20
-1.5199999999999996
 10
11.0
 20
-1.1400000000000006
 10
11.0
 20
-0.7600000000000016
 10
11.0
 20
-0.379999999999999
 10
11.0
 20
0.0
  0
LWPOLYLINE
  5
36
330
17
100
AcDbEntity
  8
0
100
AcDbPolyline
 90
51
 70
0
 10
-6.0
 20
-7.0
 10
-6.0
 20
-7.219450373162483
 10
-6.0
 20
-7.438900746324967
 10
-6.0
 20
-7.658351119487451
 10
-6.0
 20
-7.87661875731968
 10
-6.0
 20
-8.093309414711573
 10
-6.0
 20
-8.310000072103467
 10
-6.0
 20
-8.526690729495359
 10
-6.0
 20
-8.738680192732273
 10
-6.0
 20
-8.949886123610025
 10
-6.0
 20
-9.161092054487776
 10
-6.0
 20
-9.36997205289711
 10
-6.0
 20
-9.573037220135395
 10
-6.0
 20
-9.776102387373681
 10
-6.0
 20
-9.979167554611967
 10
-6.0
 20
-10.174593846179796
 10
-6.0
 20
-10.366964587479442
 10
-6.0
 20
-10.559335328779088
 10
-6.0
 20
-10.749832698703507
 10
-6.0
 20
-10.929089840376564
 10
-6.0
 20
-11.108346982049623
 10
-6.0
 20
-11.287604123722682
 10
-6.0
 20
-11.458079629858288
 10
-6.0
 20
-11.621968909340803
 10
-6.0
 20
-11.785858188823317
 10
-6.0
 20
-11.949747468305834
 10
-6.0
 20
-12.09620788281754
 10
-6.0
 20
-12.242668297329244
 10
-6.0
 20
-12.389128711840948
 10
-6.0
 20
-12.527330259354823
 10
-6.0
 20
-12.65451998420492
 10
-6.0
 20
-12.781709709055018
 10
-6.0
 20
-12.908899433905118
 10
-6.0
 20
-13.018200437970536
 10
-6.0
 20
-13.124519988571842
 10
-6.0
 20
-13.230839539173147
 10
-6.0
 20
-13.330814174264265
 10
-6.0
 20
-13.414926520579925
 10
-6.0
 20
-13.499038866895582
 10
-6.0
 20
-13.583151213211242
 10
-6.0
 20
-13.650645726781411
 10
-6.0
 20
-13.711493107253384
 10
-6.0
 20
-13.772340487725359
 10
-6.0
 20
-13.829754988631963
 10
-6.0
 20
-13.866572212146345
 10
-6.0
 20
-13.903389435660726
 10
-6.0
 20
-13.940206659175107
 10
-6.0
 20
-13.963027794172268
 10
-6.0
 20
-13.975351862781512
 10
-6.0
 20
-13.987675931390756
 10
-6.0
 20
-14.0
  0
LWPOLYLINE
  5
37
330
17
100
AcDbEntity
  8
0
100
AcDbPolyline
 90
51
 70
0
 10
-6.0
 20
5.0
 10
-6.0
 20
4.76
 10
-6.0
 20
4.52
 10
-6.0
 20
4.28
 10
-6.0
 20
4.04
 10
-6.0
 20
3.8
 10
-6.0
 20
3.56
 10
-6.0
 20
3.3200000000000003
 10
-6.0
 20
3.08
 10
-6.0
 20
2.84
 10
-6.0
 20
2.6
 10
-6.0
 20
2.36
 10
-6.0
 20
2.12
 10
-6.0
 20
1.88
 10
-6.0
 20
1.6400000000000001
 10
-6.0
 20
1.4
 10
-6.0
 20
1.1600000000000001
 10
-6.0
 20
0.9199999999999999
 10
-6.0
 20
0.6799999999999997
 10
-6.0
 20
0.4400000000000004
 10
-6.0
 20
0.20000000000000018
 10
-6.0
 20
-0.040000000000000036
 10
-6.0
 20
-0.28000000000000025
 10
-6.0
 20
-0.5199999999999996
 10
-6.0
 20
-0.7599999999999998
 10
-6.0
 20
-1.0
 10
-6.0
 20
-1.2400000000000002
 10
-6.0
 20
-1.4800000000000004
 10
-6.0
 20
-1.7199999999999998
 10
-6.0
 20
-1.96
 10
-6.0
 20
-2.2
 10
-6.0
 20
-2.4400000000000004
 10
-6.0
 20
-2.6799999999999997
 10
-6.0
 20
-2.92
 10
-6.0
 20
-3.16
 10
-6.0
 20
-3.4000000000000004
 10
-6.0
 20
-3.6400000000000006
 10
-6.0
 20
-3.880000000000001
 10
-6.0
 20
-4.119999999999999
 10
-6.0
 20
-4.359999999999999
 10
-6.0
 20
-4.6
 10
-6.0
 20
-4.84
 10
-6.0
 20
-5.08
 10
-6.0
 20
-5.32
 10
-6.0
 20
-5.5600000000000005
 10
-6.0
 20
-5.800000000000001
 10
-6.0
 20
-6.039999999999999
 10
-6.0
 20
-6.279999999999999
 10
-6.0
 20
-6.52
 10
-6.0
 20
-6.76
 10
-6.0
 20
-7.0
  0
LWPOLYLINE
  5
38
330
17
100
AcDbEntity
  8
0
100
AcDbPolyline
 90
51
 70
0
 10
-6.0
 20
-10.85
 10
-6.1
 20
-10.85
 10
-6.2
 20
-10.85
 10
-6.3
 20
-10.85
 10
-6.4
 20
-10.85
 10
-6.5
 20
-10.85
 10
-6.6
 20
-10.85
 10
-6.7
 20
-10.85
 10
-6.8
 20
-10.85
 10
-6.9
 20
-10.85
 10
-7.0
 20
-10.85
 10
-7.1
 20
-10.85
 10
-7.2
 20
-10.85
 10
-7.3
 20
-10.85
 10
-7.4
 20
-10.85
 10
-7.5
 20
-10.85
 10
-7.6
 20
-10.85
 10
-7.7
 20
-10.85
 10
-7.8
 20
-10.85
 10
-7.9
 20
-10.85
 10
-8.0
 20
-10.85
 10
-8.1
 20
-10.85
 10
-8.2
 20
-10.85
 10
-8.3
 20
-10.85
 10
-8.4
 20
-10.85
 10
-8.5
 20
-10.85
 10
-8.6
 20
-10.85
 10
-8.7
 20
-10.85
 10
-8.8
 20
-10.85
 10
-8.9
 20
-10.85
 10
-9.0
 20
-10.85
 10
-9.1
 20
-10.85
 10
-9.2
 20
-10.85
 10
-9.3
 20
-10.85
 10
-9.4
 20
-10.85
 10
-9.5
 20
-10.85
 10
-9.6
 20
-10.85
 10
-9.7
 20
-10.85
 10
-9.8
 20
-10.85
 10
-9.9
 20
-10.85
 10
-10.0
 20
-10.85
 10
-10.1
 20
-10.85
 10
-10.2
 20
-10.85
 10
-10.3
 20
-10.85
 10
-10.4
 20
-10.85
 10
-10.5
 20
-10.85
 10
-10.6
 20
-10.85
 10
-10.7
 20
-10.85
 10
-10.8
 20
-10.85
 10
-10.9
 20
-10.85
 10
-11.0
 20
-10.85
  0
LWPOLYLINE
  5
39
330
17
100
AcDbEntity
  8
0
100
AcDbPolyline
 90
51
 70
0
 10
-11.0
 20
-3.15
 10
-11.0
 20
-3.177027710667994
 10
-11.0
 20
-3.204055421335988
 10
-11.0
 20
-3.2310831320039823
 10
-11.0
 20
-3.2806966165570643
 10
-11.0
 20
-3.3604244662902616
 10
-11.0
 20
-3.4401523160234593
 10
-11.0
 20
-3.5198801657566574
 10
-11.0
 20
-3.641352802717061
 10
-11.0
 20
-3.769782904215334
 10
-11.0
 20
-3.898213005713605
 10
-11.0
 20
-4.038718030125747
 10
-11.0
 20
-4.20941036182257
 10
-11.0
 20
-4.38010269351939
 10
-11.0
 20
-4.550795025216213
 10
-11.0
 20
-4.74556093115458
 10
-11.0
 20
-4.949956266789567
 10
-11.0
 20
-5.154351602424555
 10
-11.0
 20
-5.362097476392231
 10
-11.0
 20
-5.589946580356054
 10
-11.0
 20
-5.817795684319873
 10
-11.0
 20
-6.045644788283693
 10
-11.0
 20
-6.280367299585279
 10
-11.0
 20
-6.520244866390184
 10
-11.0
 20
-6.760122433195094
 10
-11.0
 20
-6.999999999999999
 10
-11.0
 20
-7.239877566804905
 10
-11.0
 20
-7.479755133609814
 10
-11.0
 20
-7.7196327004147225
 10
-11.0
 20
-7.954355211716305
 10
-11.0
 20
-8.182204315680126
 10
-11.0
 20
-8.410053419643944
 10
-11.0
 20
-8.637902523607764
 10
-11.0
 20
-8.845648397575447
 10
-11.0
 20
-9.050043733210432
 10
-11.0
 20
-9.254439068845418
 10
-11.0
 20
-9.449204974783784
 10
-11.0
 20
-9.61989730648061
 10
-11.0
 20
-9.79058963817743
 10
-11.0
 20
-9.961281969874252
 10
-11.0
 20
-10.101786994286392
 10
-11.0
 20
-10.230217095784665
 10
-11.0
 20
-10.358647197282936
 10
-11.0
 20
-10.48011983424334
 10
-11.0
 20
-10.55984768397654
 10
-11.0
 20
-10.639575533709738
 10
-11.0
 20
-10.719303383442936
 10
-11.0
 20
-10.768916867996017
 10
-11.0
 20
-10.795944578664011
 10
-11.0
 20
-10.822972289332006
 10
-11.0
 20
-10.85
  0
LWPOLYLINE
  5
3A
330
17
100
AcDbEntity
  8
0
100
AcDbPolyline
 90
51
 70
0
 10
11.0
 20
-3.15
 10
11.0
 20
-3.177027710667994
 10
11.0
 20
-3.204055421335988
 10
11.0
 20
-3.2310831320039823
 10
11.0
 20
-3.2806966165570643
 10
11.0
 20
-3.3604244662902616
 10
11.0
 20
-3.4401523160234593
 10
11.0
 20
-3.5198801657566574
 10
11.0
 20
-3.641352802717061
 10
11.0
 20
-3.769782904215334
 10
11.0
 20
-3.898213005713605
 10
11.0
 20
-4.038718030125747
 10
11.0
 20
-4.20941036182257
 10
11.0
 20
-4.38010269351939
 10
11.0
 20
-4.550795025216213
 10
11.0
 20
-4.74556093115458
 10
11.0
 20
-4.949956266789567
 10
11.0
 20
-5.154351602424555
 10
11.0
 20
-5.362097476392231
 10
11.0
 20
-5.589946580356054
 10
11.0
 20
-5.817795684319873
 10
11.0
 20
-6.045644788283693
 10
11.0
 20
-6.280367299585279
 10
11.0
 20
-6.520244866390184
 10
11.0
 20
-6.760122433195094
 10
11.0
 20
-6.999999999999999
 10
11.0
 20
-7.239877566804905
 10
11.0
 20
-7.479755133609814
 10
11.0
 20
-7.7196327004147225
 10
11.0
 20
-7.954355211716305
 10
11.0
 20
-8.182204315680126
 10
11.0
 20
-8.410053419643944
 10
11.0
 20
-8.637902523607764
 10
11.0
 20
-8.845648397575447
 10
11.0
 20
-9.050043733210432
 10
11.0
 20
-9.254439068845418
 10
11.0
 20
-9.449204974783784
 10
11.0
 20
-9.61989730648061
 10
11.0
 20
-9.79058963817743
 10
11.0
 20
-9.961281969874252
 10
11.0
 20
-10.101786994286392
 10
11.0
 20
-10.230217095784665
 10
11.0
 20
-10.358647197282936
 10
11.0
 20
-10.48011983424334
 10
11.0
 20
-10.55984768397654
 10
11.0
 20
-10.639575533709738
 10
11.0
 20
-10.719303383442936
 10
11.0
 20
-10.768916867996017
 10
11.0
 20
-10.795944578664011
 10
11.0
 20
-10.822972289332006
 10
11.0
 20
-10.85
  0
LWPOLYLINE
  5
3B
330
17
100
AcDbEntity
  8
0
100
AcDbPolyline
 90
51
 70
0
 10
11.0
 20
-10.85
 10
10.899999999999999
 20
-10.85
 10
10.8
 20
-10.85
 10
10.7
 20
-10.85
 10
10.600000000000001
 20
-10.85
 10
10.5
 20
-10.85
 10
10.399999999999999
 20
-10.85
 10
10.3
 20
-10.85
 10
10.2
 20
-10.85
 10
10.100000000000001
 20
-10.85
 10
10.0
 20
-10.85
 10
9.899999999999999
 20
-10.85
 10
9.8
 20
-10.85
 10
9.7
 20
-10.85
 10
9.600000000000001
 20
-10.85
 10
9.5
 20
-10.85
 10
9.399999999999999
 20
-10.85
 10
9.3
 20
-10.85
 10
9.2
 20
-10.85
 10
9.100000000000001
 20
-10.85
 10
9.0
 20
-10.85
 10
8.899999999999999
 20
-10.85
 10
8.8
 20
-10.85
 10
8.7
 20
-10.85
 10
8.600000000000001
 20
-10.85
 10
8.5
 20
-10.85
 10
8.399999999999999
 20
-10.85
 10
8.3
 20
-10.85
 10
8.2
 20
-10.85
 10
8.100000000000001
 20
-10.85
 10
8.0
 20
-10.85
 10
7.899999999999999
 20
-10.85
 10
7.800000000000001
 20
-10.85
 10
7.699999999999999
 20
-10.85
 10
7.600000000000001
 20
-10.85
 10
7.5
 20
-10.85
 10
7.399999999999999
 20
-10.85
 10
7.300000000000001
 20
-10.85
 10
7.199999999999999
 20
-10.85
 10
7.100000000000001
 20
-10.85
 10
7.0
 20
-10.85
 10
6.899999999999999
 20
-10.85
 10
6.800000000000001
 20
-10.85
 10
6.699999999999999
 20
-10.85
 10
6.600000000000001
 20
-10.85
 10
6.5
 20
-10.85
 10
6.399999999999999
 20
-10.85
 10
6.300000000000001
 20
-10.85
 10
6.199999999999999
 20
-10.85
 10
6.100000000000001
 20
-10.85
 10
6.0
 20
-10.85
  0
LWPOLYLINE
  5
3C
330
17
100
AcDbEntity
  8
0
100
AcDbPolyline
 90
51
 70
0
 10
6.0
 20
5.0
 10
6.0
 20
4.76
 10
6.0
 20
4.52
 10
6.0
 20
4.28
 10
6.0
 20
4.04
 10
6.0
 20
3.8
 10
6.0
 20
3.56
 10
6.0
 20
3.3200000000000003
 10
6.0
 20
3.08
 10
6.0
 20
2.84
 10
6.0
 20
2.6
 10
6.0
 20
2.36
 10
6.0
 20
2.12
 10
6.0
 20
1.88
 10
6.0
 20
1.6400000000000001
 10
6.0
 20
1.4
 10
6.0
 20
1.1600000000000001
 10
6.0
 20
0.9199999999999999
 10
6.0
 20
0.6799999999999997
 10
6.0
 20
0.4400000000000004
 10
6.0
 20
0.20000000000000018
 10
6.0
 20
-0.040000000000000036
 10
6.0
 20
-0.28000000000000025
 10
6.0
 20
-0.5199999999999996
 10
6.0
 20
-0.7599999999999998
 10
6.0
 20
-1.0
 10
6.0
 20
-1.2400000000000002
 10
6.0
 20
-1.4800000000000004
 10
6.0
 20
-1.7199999999999998
 10
6.0
 20
-1.96
 10
6.0
 20
-2.2
 10
6.0
 20
-2.4400000000000004
 10
6.0
 20
-2.6799999999999997
 10
6.0
 20
-2.92
 10
6.0
 20
-3.16
 10
6.0
 20
-3.4000000000000004
 10
6.0
 20
-3.6400000000000006
 10
6.0
 20
-3.880000000000001
 10
6.0
 20
-4.119999999999999
 10
6.0
 20
-4.359999999999999
 10
6.0
 20
-4.6
 10
6.0
 20
-4.84
 10
6.0
 20
-5.08
 10
6.0
 20
-5.32
 10
6.0
 20
-5.5600000000000005
 10
6.0
 20
-5.800000000000001
 10
6.0
 20
-6.039999999999999
 10
6.0
 20
-6.279999999999999
 10
6.0
 20
-6.52
 10
6.0
 20
-6.76
 10
6.0
 20
-7.0
  0
LWPOLYLINE
  5
3D
330
17
100
AcDbEntity
  8
0
100
AcDbPolyline
 90
51
 70
0
 10
6.0
 20
-7.0
 10
6.0
 20
-7.219450373162483
 10
6.0
 20
-7.438900746324967
 10
6.0
 20
-7.658351119487451
 10
6.0
 20
-7.87661875731968
 10
6.0
 20
-8.093309414711573
 10
6.0
 20
-8.310000072103467
 10
6.0
 20
-8.526690729495359
 10
6.0
 20
-8.738680192732273
 10
6.0
 20
-8.949886123610025
 10
6.0
 20
-9.161092054487776
 10
6.0
 20
-9.36997205289711
 10
6.0
 20
-9.573037220135395
 10
6.0
 20
-9.776102387373681
 10
6.0
 20
-9.979167554611967
 10
6.0
 20
-10.174593846179796
 10
6.0
 20
-10.366964587479442
 10
6.0
 20
-10.559335328779088
 10
6.0
 20
-10.749832698703507
 10
6.0
 20
-10.929089840376564
 10
6.0
 20
-11.108346982049623
 10
6.0
 20
-11.287604123722682
 10
6.0
 20
-11.458079629858288
 10
6.0
 20
-11.621968909340803
 10
6.0
 20
-11.785858188823317
 10
6.0
 20
-11.949747468305834
 10
6.0
 20
-12.09620788281754
 10
6.0
 20
-12.242668297329244
 10
6.0
 20
-12.389128711840948
 10
6.0
 20
-12.527330259354823
 10
6.0
 20
-12.65451998420492
 10
6.0
 20
-12.781709709055018
 10
6.0
 20
-12.908899433905118
 10
6.0
 20
-13.018200437970536
 10
6.0
 20
-13.124519988571842
 10
6.0
 20
-13.230839539173147
 10
6.0
 20
-13.330814174264265
 10
6.0
 20
-13.414926520579925
 10
6.0
 20
-13.499038866895582
 10
6.0
 20
-13.583151213211242
 10
6.0
 20
-13.650645726781411
 10
6.0
 20
-13.711493107253384
 10
6.0
 20
-13.772340487725359
 10
6.0
 20
-13.829754988631963
 10
6.0
 20
-13.866572212146345
 10
6.0
 20
-13.903389435660726
 10
6.0
 20
-13.940206659175107
 10
6.0
 20
-13.963027794172268
 10
6.0
 20
-13.975351862781512
 10
6.0
 20
-13.987675931390756
 10
6.0
 20
-14.0
  0
LWPOLYLINE
  5
3E
330
17
100
AcDbEntity
  8
0
100
AcDbPolyline
 90
51
 70
0
 10
-6.0
 20
5.0
 10
-5.76
 20
5.0
 10
-5.52
 20
5.0
 10
-5.28
 20
5.0
 10
-5.04
 20
5.0
 10
-4.8
 20
5.0
 10
-4.5600000000000005
 20
5.0
 10
-4.32
 20
5.0
 10
-4.08
 20
5.0
 10
-3.84
 20
5.0
 10
-3.6
 20
5.0
 10
-3.36
 20
5.0
 10
-3.12
 20
5.0
 10
-2.88
 20
5.0
 10
-2.64
 20
5.0
 10
-2.4
 20
5.0
 10
-2.16
 20
5.0
 10
-1.92
 20
5.0
 10
-1.6799999999999997
 20
5.0
 10
-1.4400000000000004
 20
5.0
 10
-1.2000000000000002
 20
5.0
 10
-0.96
 20
5.0
 10
-0.7199999999999998
 20
5.0
 10
-0.4800000000000004
 20
5.0
 10
-0.2400000000000002
 20
5.0
 10
0.0
 20
5.0
 10
0.2400000000000002
 20
5.0
 10
0.4800000000000004
 20
5.0
 10
0.7199999999999998
 20
5.0
 10
0.96
 20
5.0
 10
1.2000000000000002
 20
5.0
 10
1.4400000000000004
 20
5.0
 10
1.6799999999999997
 20
5.0
 10
1.92
 20
5.0
 10
2.16
 20
5.0
 10
2.4000000000000004
 20
5.0
 10
2.6400000000000006
 20
5.0
 10
2.880000000000001
 20
5.0
 10
3.119999999999999
 20
5.0
 10
3.3599999999999994
 20
5.0
 10
3.5999999999999996
 20
5.0
 10
3.84
 20
5.0
 10
4.08
 20
5.0
 10
4.32
 20
5.0
 10
4.5600000000000005
 20
5.0
 10
4.800000000000001
 20
5.0
 10
5.039999999999999
 20
5.0
 10
5.279999999999999
 20
5.0
 10
5.52
 20
5.0
 10
5.76
 20
5.0
 10
6.0
 20
5.0
  0
LWPOLYLINE
  5
3F
330
17
100
AcDbEntity
  8
0
100
AcDbPolyline
 90
51
 70
0
 10
-6.0
 20
-14.0
 10
-5.76
 20
-14.0
 10
-5.52
 20
-14.0
 10
-5.28
 20
-14.0
 10
-5.04
 20
-14.0
 10
-4.8
 20
-14.0
 10
-4.5600000000000005
 20
-14.0
 10
-4.32
 20
-14.0
 10
-4.08
 20
-14.0
 10
-3.84
 20
-14.0
 10
-3.6
 20
-14.0
 10
-3.36
 20
-14.0
 10
-3.12
 20
-14.0
 10
-2.88
 20
-14.0
 10
-2.64
 20
-14.0
 10
-2.4
 20
-14.0
 10
-2.16
 20
-14.0
 10
-1.92
 20
-14.0
 10
-1.6799999999999997
 20
-14.0
 10
-1.4400000000000004
 20
-14.0
 10
-1.2000000000000002
 20
-14.0
 10
-0.96
 20
-14.0
 10
-0.7199999999999998
 20
-14.0
 10
-0.4800000000000004
 20
-14.0
 10
-0.2400000000000002
 20
-14.0
 10
0.0
 20
-14.0
 10
0.2400000000000002
 20
-14.0
 10
0.4800000000000004
 20
-14.0
 10
0.7199999999999998
 20
-14.0
 10
0.96
 20
-14.0
 10
1.2000000000000002
 20
-14.0
 10
1.4400000000000004
 20
-14.0
 10
1.6799999999999997
 20
-14.0
 10
1.92
 20
-14.0
 10
2.16
 20
-14.0
 10
2.4000000000000004
 20
-14.0
 10
2.6400000000000006
 20
-14.0
 10
2.880000000000001
 20
-14.0
 10
3.119999999999999
 20
-14.0
 10
3.3599999999999994
 20
-14.0
 10
3.5999999999999996
 20
-14.0
 10
3.84
 20
-14.0
 10
4.08
 20
-14.0
 10
4.32
 20
-14.0
 10
4.5600000000000005
 20
-14.0
 10
4.800000000000001
 20
-14.0
 10
5.039999999999999
 20
-14.0
 10
5.279999999999999
 20
-14.0
 10
5.52
 20
-14.0
 10
5.76
 20
-14.0
 10
6.0
 20
-14.0
  0
ENDSEC
  0
SECTION
  2
OBJECTS
  0
DICTIONARY
  5
A
330
0
100
AcDbDictionary
280
0
281
1
  3
ACAD_COLOR
350
B
  3
ACAD_GROUP
350
C
  3
ACAD_LAYOUT
350
D
  3
ACAD_MATERIAL
350
E
  3
ACAD_MLEADERSTYLE
350
F
  3
ACAD_MLINESTYLE
350
10
  3
ACAD_PLOTSETTINGS
350
11
  3
ACAD_PLOTSTYLENAME
350
12
  3
ACAD_SCALELIST
350
14
  3
ACAD_TABLESTYLE
350
15
  3
ACAD_VISUALSTYLE
350
16
  3
EZDXF_META
350
2D
  0
DICTIONARY
  5
B
330
A
100
AcDbDictionary
280
0
281
1
  0
DICTIONARY
  5
C
330
A
100
AcDbDictionary
280
0
281
1
  0
DICTIONARY
  5
D
330
A
100
AcDbDictionary
280
0
281
1
  3
Model
350
1A
  3
Layout1
350
1E
  0
DICTIONARY
  5
E
330
A
100
AcDbDictionary
280
0
281
1
  3
ByBlock
350
1F
  3
ByLayer
350
20
  3
Global
350
21
  0
DICTIONARY
  5
F
330
A
100
AcDbDictionary
280
0
281
1
  3
Standard
350
2C
  0
DICTIONARY
  5
10
330
A
100
AcDbDictionary
280
0
281
1
  3
Standard
350
22
  0
DICTIONARY
  5
11
330
A
100
AcDbDictionary
280
0
281
1
  0
ACDBDICTIONARYWDFLT
  5
12
330
A
100
AcDbDictionary
280
0
281
1
  3
Normal
350
13
100
AcDbDictionaryWithDefault
340
13
  0
ACDBPLACEHOLDER
  5
13
330
12
  0
DICTIONARY
  5
14
330
A
100
AcDbDictionary
280
0
281
1
  0
DICTIONARY
  5
15
330
A
100
AcDbDictionary
280
0
281
1
  0
DICTIONARY
  5
16
330
A
100
AcDbDictionary
280
0
281
1
  0
LAYOUT
  5
1A
330
D
100
AcDbPlotSettings
  1

  2
Adobe PDF
  4
A3
  6

 40
7.5
 41
20.0
 42
7.5
 43
20.0
 44
420.0
 45
297.0
 46
0.0
 47
0.0
 48
0.0
 49
0.0
140
0.0
141
0.0
142
1.0
143
1.0
 70
1024
 72
1
 73
0
 74
5
  7

 75
16
 76
0
 77
2
 78
300
147
1.0
148
0.0
149
0.0
100
AcDbLayout
  1
Model
 70
1
 71
0
 10
0.0
 20
0.0
 11
420.0
 21
297.0
 12
0.0
 22
0.0
 32
0.0
 14
1e+20
 24
1e+20
 34
1e+20
 15
-1e+20
 25
-1e+20
 35
-1e+20
146
0.0
 13
0.0
 23
0.0
 33
0.0
 16
1.0
 26
0.0
 36
0.0
 17
0.0
 27
1.0
 37
0.0
 76
1
330
17
  0
LAYOUT
  5
1E
330
D
100
AcDbPlotSettings
  1

  2
Adobe PDF
  4
A3
  6

 40
7.5
 41
20.0
 42
7.5
 43
20.0
 44
420.0
 45
297.0
 46
0.0
 47
0.0
 48
0.0
 49
0.0
140
0.0
141
0.0
142
1.0
143
1.0
 70
0
 72
1
 73
0
 74
5
  7

 75
16
 76
0
 77
2
 78
300
147
1.0
148
0.0
149
0.0
100
AcDbLayout
  1
Layout1
 70
1
 71
1
 10
0.0
 20
0.0
 11
420.0
 21
297.0
 12
0.0
 22
0.0
 32
0.0
 14
1e+20
 24
1e+20
 34
1e+20
 15
-1e+20
 25
-1e+20
 35
-1e+20
146
0.0
 13
0.0
 23
0.0
 33
0.0
 16
1.0
 26
0.0
 36
0.0
 17
0.0
 27
1.0
 37
0.0
 76
1
330
1B
  0
MATERIAL
  5
1F
102
{ACAD_REACTORS
330
E
102
}
330
E
100
AcDbMaterial
  1
ByBlock
  2

 70
0
 40
1.0
 71
1
 41
1.0
 91
-1023410177
 42
1.0
 72
1
  3

 73
1
 74
1
 75
1
 44
0.5
 73
0
 45
1.0
 46
1.0
 77
1
  4

 78
1
 79
1
170
1
 48
1.0
171
1
  6

172
1
173
1
174
1
140
1.0
141
1.0
175
1
  7

176
1
177
1
178
1
143
1.0
179
1
  8

270
1
271
1
272
1
145
1.0
146
1.0
273
1
  9

274
1
275
1
276
1
 42
1.0
 72
1
  3

 73
1
 74
1
 75
1
 94
63
  0
MATERIAL
  5
20
102
{ACAD_REACTORS
330
E
102
}
330
E
100
AcDbMaterial
  1
ByLayer
  2

 70
0
 40
1.0
 71
1
 41
1.0
 91
-1023410177
 42
1.0
 72
1
  3

 73
1
 74
1
 75
1
 44
0.5
 73
0
 45
1.0
 46
1.0
 77
1
  4

 78
1
 79
1
170
1
 48
1.0
171
1
  6

172
1
173
1
174
1
140
1.0
141
1.0
175
1
  7

176
1
177
1
178
1
143
1.0
179
1
  8

270
1
271
1
272
1
145
1.0
146
1.0
273
1
  9

274
1
275
1
276
1
 42
1.0
 72
1
  3

 73
1
 74
1
 75
1
 94
63
  0
MATERIAL
  5
21
102
{ACAD_REACTORS
330
E
102
}
330
E
100
AcDbMaterial
  1
Global
  2

 70
0
 40
1.0
 71
1
 41
1.0
 91
-1023410177
 42
1.0
 72
1
  3

 73
1
 74
1
 75
1
 44
0.5
 73
0
 45
1.0
 46
1.0
 77
1
  4

 78
1
 79
1
170
1
 48
1.0
171
1
  6

172
1
173
1
174
1
140
1.0
141
1.0
175
1
  7

176
1
177
1
178
1
143
1.0
179
1
  8

270
1
271
1
272
1
145
1.0
146
1.0
273
1
  9

274
1
275
1
276
1
 42
1.0
 72
1
  3

 73
1
 74
1
 75
1
 94
63
  0
MLINESTYLE
  5
22
102
{ACAD_REACTORS
330
10
102
}
330
10
100
AcDbMlineStyle
  2
Standard
 70
0
  3

 62
256
 51
90.0
 52
90.0
 71
2
 49
0.5
 62
256
  6
BYLAYER
 49
-0.5
 62
256
  6
BYLAYER
  0
MLEADERSTYLE
  5
2C
102
{ACAD_REACTORS
330
F
102
}
330
F
100
AcDbMLeaderStyle
179
2
170
2
171
1
172
0
 90
2
 40
0.0
 41
0.0
173
1
 91
-1056964608
 92
-2
290
1
 42
2.0
291
1
 43
8.0
  3
Standard
 44
4.0
300

342
29
174
1
175
1
176
0
178
1
 93
-1056964608
 45
4.0
292
0
297
0
 46
4.0
 94
-1056964608
 47
1.0
 49
1.0
140
1.0
294
1
141
0.0
177
0
142
1.0
295
0
296
0
143
3.75
271
0
272
9
273
9
  0
DICTIONARY
  5
2D
330
A
100
AcDbDictionary
281
1
  3
CREATED_BY_EZDXF
350
2E
  3
WRITTEN_BY_EZDXF
350
42
  0
DICTIONARYVAR
  5
2E
330
2D
100
DictionaryVariables
280
0
  1
1.0.3 @ 2025-05-29T09:41:24.985245+00:00
  0
DICTIONARYVAR
  5
42
330
2D
100
DictionaryVariables
280
0
  1
1.0.3 @ 2025-05-29T09:41:24.991569+00:00
  0
ENDSEC
  0
EOF
