  0
SECTION
  2
HEADER
  9
$ACADVER
  1
AC1027
  9
$ACADMAINTVER
 70
105
  9
$DWGCODEPAGE
  3
ANSI_1252
  9
$LASTSAVEDBY
  1
ezdxf
  9
$REQUIREDVERSIONS
160
0
  9
$INSBASE
 10
0.0
 20
0.0
 30
0.0
  9
$EXTMIN
 10
1e+20
 20
1e+20
 30
1e+20
  9
$EXTMAX
 10
-1e+20
 20
-1e+20
 30
-1e+20
  9
$LIMMIN
 10
0.0
 20
0.0
  9
$LIMMAX
 10
420.0
 20
297.0
  9
$ORTHOMODE
 70
0
  9
$REGENMODE
 70
1
  9
$FILLMODE
 70
1
  9
$QTEXTMODE
 70
0
  9
$MIRRTEXT
 70
1
  9
$LTSCALE
 40
1.0
  9
$ATTMODE
 70
1
  9
$TEXTSIZE
 40
2.5
  9
$TRACEWID
 40
1.0
  9
$TEXTSTYLE
  7
Standard
  9
$CLAYER
  8
0
  9
$CELTYPE
  6
ByLayer
  9
$CECOLOR
 62
256
  9
$CELTSCALE
 40
1.0
  9
$DISPSILH
 70
0
  9
$DIMSCALE
 40
1.0
  9
$DIMASZ
 40
2.5
  9
$DIMEXO
 40
0.625
  9
$DIMDLI
 40
3.75
  9
$DIMRND
 40
0.0
  9
$DIMDLE
 40
0.0
  9
$DIMEXE
 40
1.25
  9
$DIMTP
 40
0.0
  9
$DIMTM
 40
0.0
  9
$DIMTXT
 40
2.5
  9
$DIMCEN
 40
2.5
  9
$DIMTSZ
 40
0.0
  9
$DIMTOL
 70
0
  9
$DIMLIM
 70
0
  9
$DIMTIH
 70
0
  9
$DIMTOH
 70
0
  9
$DIMSE1
 70
0
  9
$DIMSE2
 70
0
  9
$DIMTAD
 70
1
  9
$DIMZIN
 70
8
  9
$DIMBLK
  1

  9
$DIMASO
 70
1
  9
$DIMSHO
 70
1
  9
$DIMPOST
  1

  9
$DIMAPOST
  1

  9
$DIMALT
 70
0
  9
$DIMALTD
 70
3
  9
$DIMALTF
 40
0.03937007874
  9
$DIMLFAC
 40
1.0
  9
$DIMTOFL
 70
1
  9
$DIMTVP
 40
0.0
  9
$DIMTIX
 70
0
  9
$DIMSOXD
 70
0
  9
$DIMSAH
 70
0
  9
$DIMBLK1
  1

  9
$DIMBLK2
  1

  9
$DIMSTYLE
  2
ISO-25
  9
$DIMCLRD
 70
0
  9
$DIMCLRE
 70
0
  9
$DIMCLRT
 70
0
  9
$DIMTFAC
 40
1.0
  9
$DIMGAP
 40
0.625
  9
$DIMJUST
 70
0
  9
$DIMSD1
 70
0
  9
$DIMSD2
 70
0
  9
$DIMTOLJ
 70
0
  9
$DIMTZIN
 70
8
  9
$DIMALTZ
 70
0
  9
$DIMALTTZ
 70
0
  9
$DIMUPT
 70
0
  9
$DIMDEC
 70
2
  9
$DIMTDEC
 70
2
  9
$DIMALTU
 70
2
  9
$DIMALTTD
 70
3
  9
$DIMTXSTY
  7
Standard
  9
$DIMAUNIT
 70
0
  9
$DIMADEC
 70
0
  9
$DIMALTRND
 40
0.0
  9
$DIMAZIN
 70
0
  9
$DIMDSEP
 70
44
  9
$DIMATFIT
 70
3
  9
$DIMFRAC
 70
0
  9
$DIMLDRBLK
  1

  9
$DIMLUNIT
 70
2
  9
$DIMLWD
 70
-2
  9
$DIMLWE
 70
-2
  9
$DIMTMOVE
 70
0
  9
$DIMFXL
 40
1.0
  9
$DIMFXLON
 70
0
  9
$DIMJOGANG
 40
0.785398163397
  9
$DIMTFILL
 70
0
  9
$DIMTFILLCLR
 70
0
  9
$DIMARCSYM
 70
0
  9
$DIMLTYPE
  6

  9
$DIMLTEX1
  6

  9
$DIMLTEX2
  6

  9
$DIMTXTDIRECTION
 70
0
  9
$LUNITS
 70
2
  9
$LUPREC
 70
4
  9
$SKETCHINC
 40
1.0
  9
$FILLETRAD
 40
10.0
  9
$AUNITS
 70
0
  9
$AUPREC
 70
2
  9
$MENU
  1
.
  9
$ELEVATION
 40
0.0
  9
$PELEVATION
 40
0.0
  9
$THICKNESS
 40
0.0
  9
$LIMCHECK
 70
0
  9
$CHAMFERA
 40
0.0
  9
$CHAMFERB
 40
0.0
  9
$CHAMFERC
 40
0.0
  9
$CHAMFERD
 40
0.0
  9
$SKPOLY
 70
0
  9
$TDCREATE
 40
2460825.77875
  9
$TDUCREATE
 40
2458532.153996898
  9
$TDUPDATE
 40
2460825.77875
  9
$TDUUPDATE
 40
2458532.1544311
  9
$TDINDWG
 40
0.0
  9
$TDUSRTIMER
 40
0.0
  9
$USRTIMER
 70
1
  9
$ANGBASE
 50
0.0
  9
$ANGDIR
 70
0
  9
$PDMODE
 70
0
  9
$PDSIZE
 40
0.0
  9
$PLINEWID
 40
0.0
  9
$SPLFRAME
 70
0
  9
$SPLINETYPE
 70
6
  9
$SPLINESEGS
 70
8
  9
$HANDSEED
  5
3E
  9
$SURFTAB1
 70
6
  9
$SURFTAB2
 70
6
  9
$SURFTYPE
 70
6
  9
$SURFU
 70
6
  9
$SURFV
 70
6
  9
$UCSBASE
  2

  9
$UCSNAME
  2

  9
$UCSORG
 10
0.0
 20
0.0
 30
0.0
  9
$UCSXDIR
 10
1.0
 20
0.0
 30
0.0
  9
$UCSYDIR
 10
0.0
 20
1.0
 30
0.0
  9
$UCSORTHOREF
  2

  9
$UCSORTHOVIEW
 70
0
  9
$UCSORGTOP
 10
0.0
 20
0.0
 30
0.0
  9
$UCSORGBOTTOM
 10
0.0
 20
0.0
 30
0.0
  9
$UCSORGLEFT
 10
0.0
 20
0.0
 30
0.0
  9
$UCSORGRIGHT
 10
0.0
 20
0.0
 30
0.0
  9
$UCSORGFRONT
 10
0.0
 20
0.0
 30
0.0
  9
$UCSORGBACK
 10
0.0
 20
0.0
 30
0.0
  9
$PUCSBASE
  2

  9
$PUCSNAME
  2

  9
$PUCSORG
 10
0.0
 20
0.0
 30
0.0
  9
$PUCSXDIR
 10
1.0
 20
0.0
 30
0.0
  9
$PUCSYDIR
 10
0.0
 20
1.0
 30
0.0
  9
$PUCSORTHOREF
  2

  9
$PUCSORTHOVIEW
 70
0
  9
$PUCSORGTOP
 10
0.0
 20
0.0
 30
0.0
  9
$PUCSORGBOTTOM
 10
0.0
 20
0.0
 30
0.0
  9
$PUCSORGLEFT
 10
0.0
 20
0.0
 30
0.0
  9
$PUCSORGRIGHT
 10
0.0
 20
0.0
 30
0.0
  9
$PUCSORGFRONT
 10
0.0
 20
0.0
 30
0.0
  9
$PUCSORGBACK
 10
0.0
 20
0.0
 30
0.0
  9
$USERI1
 70
0
  9
$USERI2
 70
0
  9
$USERI3
 70
0
  9
$USERI4
 70
0
  9
$USERI5
 70
0
  9
$USERR1
 40
0.0
  9
$USERR2
 40
0.0
  9
$USERR3
 40
0.0
  9
$USERR4
 40
0.0
  9
$USERR5
 40
0.0
  9
$WORLDVIEW
 70
1
  9
$SHADEDGE
 70
3
  9
$SHADEDIF
 70
70
  9
$TILEMODE
 70
1
  9
$MAXACTVP
 70
64
  9
$PINSBASE
 10
0.0
 20
0.0
 30
0.0
  9
$PLIMCHECK
 70
0
  9
$PEXTMIN
 10
1e+20
 20
1e+20
 30
1e+20
  9
$PEXTMAX
 10
-1e+20
 20
-1e+20
 30
-1e+20
  9
$PLIMMIN
 10
0.0
 20
0.0
  9
$PLIMMAX
 10
420.0
 20
297.0
  9
$UNITMODE
 70
0
  9
$VISRETAIN
 70
1
  9
$PLINEGEN
 70
0
  9
$PSLTSCALE
 70
1
  9
$TREEDEPTH
 70
3020
  9
$CMLSTYLE
  2
Standard
  9
$CMLJUST
 70
0
  9
$CMLSCALE
 40
20.0
  9
$PROXYGRAPHICS
 70
1
  9
$MEASUREMENT
 70
1
  9
$CELWEIGHT
370
-1
  9
$ENDCAPS
280
0
  9
$JOINSTYLE
280
0
  9
$LWDISPLAY
290
0
  9
$INSUNITS
 70
6
  9
$HYPERLINKBASE
  1

  9
$STYLESHEET
  1

  9
$XEDIT
290
1
  9
$CEPSNTYPE
380
0
  9
$PSTYLEMODE
290
1
  9
$FINGERPRINTGUID
  2
{5585C1C0-7CC8-48FC-89C3-EE15C66BF776}
  9
$VERSIONGUID
  2
{993165C3-4527-41A4-8AD8-B2549CBD1407}
  9
$EXTNAMES
290
1
  9
$PSVPSCALE
 40
0.0
  9
$OLESTARTUP
290
0
  9
$SORTENTS
280
127
  9
$INDEXCTL
280
0
  9
$HIDETEXT
280
1
  9
$XCLIPFRAME
280
0
  9
$HALOGAP
280
0
  9
$OBSCOLOR
 70
257
  9
$OBSLTYPE
280
0
  9
$INTERSECTIONDISPLAY
280
0
  9
$INTERSECTIONCOLOR
 70
257
  9
$DIMASSOC
280
2
  9
$PROJECTNAME
  1

  9
$CAMERADISPLAY
290
0
  9
$LENSLENGTH
 40
50.0
  9
$CAMERAHEIGHT
 40
0.0
  9
$STEPSPERSEC
 40
24.0
  9
$STEPSIZE
 40
100.0
  9
$3DDWFPREC
 40
2.0
  9
$PSOLWIDTH
 40
0.005
  9
$PSOLHEIGHT
 40
0.08
  9
$LOFTANG1
 40
1.570796326795
  9
$LOFTANG2
 40
1.570796326795
  9
$LOFTMAG1
 40
0.0
  9
$LOFTMAG2
 40
0.0
  9
$LOFTPARAM
 70
7
  9
$LOFTNORMALS
280
1
  9
$LATITUDE
 40
37.795
  9
$LONGITUDE
 40
-122.394
  9
$NORTHDIRECTION
 40
0.0
  9
$TIMEZONE
 70
-8000
  9
$LIGHTGLYPHDISPLAY
280
1
  9
$TILEMODELIGHTSYNCH
280
1
  9
$CMATERIAL
347
20
  9
$SOLIDHIST
280
0
  9
$SHOWHIST
280
1
  9
$DWFFRAME
280
2
  9
$DGNFRAME
280
2
  9
$REALWORLDSCALE
290
1
  9
$INTERFERECOLOR
 62
256
  9
$CSHADOW
280
0
  9
$SHADOWPLANELOCATION
 40
0.0
  0
ENDSEC
  0
SECTION
  2
CLASSES
  0
CLASS
  1
ACDBDICTIONARYWDFLT
  2
AcDbDictionaryWithDefault
  3
ObjectDBX Classes
 90
0
 91
0
280
0
281
0
  0
CLASS
  1
SUN
  2
AcDbSun
  3
SCENEOE
 90
1153
 91
0
280
0
281
0
  0
CLASS
  1
VISUALSTYLE
  2
AcDbVisualStyle
  3
ObjectDBX Classes
 90
4095
 91
0
280
0
281
0
  0
CLASS
  1
MATERIAL
  2
AcDbMaterial
  3
ObjectDBX Classes
 90
1153
 91
0
280
0
281
0
  0
CLASS
  1
SCALE
  2
AcDbScale
  3
ObjectDBX Classes
 90
1153
 91
0
280
0
281
0
  0
CLASS
  1
TABLESTYLE
  2
AcDbTableStyle
  3
ObjectDBX Classes
 90
4095
 91
0
280
0
281
0
  0
CLASS
  1
MLEADERSTYLE
  2
AcDbMLeaderStyle
  3
ACDB_MLEADERSTYLE_CLASS
 90
4095
 91
0
280
0
281
0
  0
CLASS
  1
DICTIONARYVAR
  2
AcDbDictionaryVar
  3
ObjectDBX Classes
 90
0
 91
0
280
0
281
0
  0
CLASS
  1
CELLSTYLEMAP
  2
AcDbCellStyleMap
  3
ObjectDBX Classes
 90
1152
 91
0
280
0
281
0
  0
CLASS
  1
MENTALRAYRENDERSETTINGS
  2
AcDbMentalRayRenderSettings
  3
SCENEOE
 90
1024
 91
0
280
0
281
0
  0
CLASS
  1
ACDBDETAILVIEWSTYLE
  2
AcDbDetailViewStyle
  3
ObjectDBX Classes
 90
1025
 91
0
280
0
281
0
  0
CLASS
  1
ACDBSECTIONVIEWSTYLE
  2
AcDbSectionViewStyle
  3
ObjectDBX Classes
 90
1025
 91
0
280
0
281
0
  0
CLASS
  1
RASTERVARIABLES
  2
AcDbRasterVariables
  3
ISM
 90
0
 91
0
280
0
281
0
  0
CLASS
  1
LAYOUT
  2
AcDbLayout
  3
ObjectDBX Classes
 90
0
 91
0
280
0
281
0
  0
CLASS
  1
ACDBPLACEHOLDER
  2
AcDbPlaceHolder
  3
ObjectDBX Classes
 90
0
 91
0
280
0
281
0
  0
ENDSEC
  0
SECTION
  2
TABLES
  0
TABLE
  2
VPORT
  5
8
330
0
100
AcDbSymbolTable
 70
1
  0
VPORT
  5
23
330
8
100
AcDbSymbolTableRecord
100
AcDbViewportTableRecord
  2
*Active
 70
0
 10
0.0
 20
0.0
 11
1.0
 21
1.0
 12
0.0
 22
0.0
 13
0.0
 23
0.0
 14
0.5
 24
0.5
 15
0.5
 25
0.5
 16
0.0
 26
0.0
 36
1.0
 17
0.0
 27
0.0
 37
0.0
 40
1000.0
 41
1.34
 42
50.0
 43
0.0
 44
0.0
 50
0.0
 51
0.0
 71
0
 72
1000
 73
1
 74
3
 75
0
 76
0
 77
0
 78
0
281
0
 65
0
146
0.0
  0
ENDTAB
  0
TABLE
  2
LTYPE
  5
2
330
0
100
AcDbSymbolTable
 70
3
  0
LTYPE
  5
24
330
2
100
AcDbSymbolTableRecord
100
AcDbLinetypeTableRecord
  2
ByBlock
 70
0
  3

 72
65
 73
0
 40
0.0
  0
LTYPE
  5
25
330
2
100
AcDbSymbolTableRecord
100
AcDbLinetypeTableRecord
  2
ByLayer
 70
0
  3

 72
65
 73
0
 40
0.0
  0
LTYPE
  5
26
330
2
100
AcDbSymbolTableRecord
100
AcDbLinetypeTableRecord
  2
Continuous
 70
0
  3

 72
65
 73
0
 40
0.0
  0
ENDTAB
  0
TABLE
  2
LAYER
  5
1
330
0
100
AcDbSymbolTable
 70
2
  0
LAYER
  5
27
330
1
100
AcDbSymbolTableRecord
100
AcDbLayerTableRecord
  2
0
 70
0
 62
7
  6
Continuous
370
-3
390
13
347
21
  0
LAYER
  5
28
330
1
100
AcDbSymbolTableRecord
100
AcDbLayerTableRecord
  2
Defpoints
 70
0
 62
7
  6
Continuous
290
0
370
-3
390
13
347
21
  0
ENDTAB
  0
TABLE
  2
STYLE
  5
5
330
0
100
AcDbSymbolTable
 70
1
  0
STYLE
  5
29
330
5
100
AcDbSymbolTableRecord
100
AcDbTextStyleTableRecord
  2
Standard
 70
0
 40
0.0
 41
1.0
 50
0.0
 71
0
 42
2.5
  3
txt
  4

  0
ENDTAB
  0
TABLE
  2
VIEW
  5
7
330
0
100
AcDbSymbolTable
 70
0
  0
ENDTAB
  0
TABLE
  2
UCS
  5
6
330
0
100
AcDbSymbolTable
 70
0
  0
ENDTAB
  0
TABLE
  2
APPID
  5
3
330
0
100
AcDbSymbolTable
 70
3
  0
APPID
  5
2A
330
3
100
AcDbSymbolTableRecord
100
AcDbRegAppTableRecord
  2
ACAD
 70
0
  0
APPID
  5
3B
330
3
100
AcDbSymbolTableRecord
100
AcDbRegAppTableRecord
  2
HATCHBACKGROUNDCOLOR
 70
0
  0
APPID
  5
3C
330
3
100
AcDbSymbolTableRecord
100
AcDbRegAppTableRecord
  2
EZDXF
 70
0
  0
ENDTAB
  0
TABLE
  2
DIMSTYLE
  5
4
330
0
100
AcDbSymbolTable
 70
1
100
AcDbDimStyleTable
  0
DIMSTYLE
105
2B
330
4
100
AcDbSymbolTableRecord
100
AcDbDimStyleTableRecord
  2
Standard
 70
0
 40
1.0
 41
2.5
 42
0.625
 43
3.75
 44
1.25
 45
0.0
 46
0.0
 47
0.0
 48
0.0
 49
2.5
140
2.5
141
2.5
142
0.0
143
0.03937007874
144
1.0
145
0.0
146
1.0
147
0.625
148
0.0
 69
0
 70
0
 71
0
 72
0
 73
0
 74
0
 75
0
 76
0
 77
1
 78
8
 79
3
170
0
171
3
172
1
173
0
174
0
175
0
176
0
177
0
178
0
179
2
271
2
272
2
273
2
274
3
275
0
276
0
277
2
278
44
279
0
280
0
281
0
282
0
283
0
284
8
285
0
286
0
288
0
289
3
290
0
371
-2
372
-2
  0
ENDTAB
  0
TABLE
  2
BLOCK_RECORD
  5
9
330
0
100
AcDbSymbolTable
 70
2
  0
BLOCK_RECORD
  5
17
330
9
100
AcDbSymbolTableRecord
100
AcDbBlockTableRecord
  2
*Model_Space
340
1A
 70
0
280
1
281
0
  0
BLOCK_RECORD
  5
1B
330
9
100
AcDbSymbolTableRecord
100
AcDbBlockTableRecord
  2
*Paper_Space
340
1E
 70
0
280
1
281
0
  0
ENDTAB
  0
ENDSEC
  0
SECTION
  2
BLOCKS
  0
BLOCK
  5
18
330
17
100
AcDbEntity
  8
0
100
AcDbBlockBegin
  2
*Model_Space
 70
0
 10
0.0
 20
0.0
 30
0.0
  3
*Model_Space
  1

  0
ENDBLK
  5
19
330
17
100
AcDbEntity
  8
0
100
AcDbBlockEnd
  0
BLOCK
  5
1C
330
1B
100
AcDbEntity
  8
0
100
AcDbBlockBegin
  2
*Paper_Space
 70
0
 10
0.0
 20
0.0
 30
0.0
  3
*Paper_Space
  1

  0
ENDBLK
  5
1D
330
1B
100
AcDbEntity
  8
0
100
AcDbBlockEnd
  0
ENDSEC
  0
SECTION
  2
ENTITIES
  0
LWPOLYLINE
  5
2F
330
17
100
AcDbEntity
  8
0
100
AcDbPolyline
 90
51
 70
0
 10
-10.0
 20
0.0
 10
-9.8
 20
0.0
 10
-9.6
 20
0.0
 10
-9.4
 20
0.0
 10
-9.2
 20
0.0
 10
-9.0
 20
0.0
 10
-8.8
 20
0.0
 10
-8.6
 20
0.0
 10
-8.4
 20
0.0
 10
-8.2
 20
0.0
 10
-8.0
 20
0.0
 10
-7.8
 20
0.0
 10
-7.6
 20
0.0
 10
-7.4
 20
0.0
 10
-7.2
 20
0.0
 10
-7.0
 20
0.0
 10
-6.8
 20
0.0
 10
-6.6
 20
0.0
 10
-6.4
 20
0.0
 10
-6.2
 20
0.0
 10
-6.0
 20
0.0
 10
-5.8
 20
0.0
 10
-5.6
 20
0.0
 10
-5.4
 20
0.0
 10
-5.2
 20
0.0
 10
-5.0
 20
0.0
 10
-4.8
 20
0.0
 10
-4.6
 20
0.0
 10
-4.4
 20
0.0
 10
-4.2
 20
0.0
 10
-4.0
 20
0.0
 10
-3.8
 20
0.0
 10
-3.5999999999999996
 20
0.0
 10
-3.4000000000000004
 20
0.0
 10
-3.2
 20
0.0
 10
-3.0
 20
0.0
 10
-2.8
 20
0.0
 10
-2.5999999999999996
 20
0.0
 10
-2.4000000000000004
 20
0.0
 10
-2.2
 20
0.0
 10
-2.0
 20
0.0
 10
-1.8000000000000007
 20
0.0
 10
-1.5999999999999996
 20
0.0
 10
-1.4000000000000004
 20
0.0
 10
-1.1999999999999993
 20
0.0
 10
-1.0
 20
0.0
 10
-0.8000000000000007
 20
0.0
 10
-0.5999999999999996
 20
0.0
 10
-0.40000000000000036
 20
0.0
 10
-0.1999999999999993
 20
0.0
 10
0.0
 20
0.0
  0
LWPOLYLINE
  5
30
330
17
100
AcDbEntity
  8
0
100
AcDbPolyline
 90
51
 70
0
 10
0.0
 20
0.0
 10
0.1
 20
0.0
 10
0.2
 20
0.0
 10
0.3
 20
0.0
 10
0.4
 20
0.0
 10
0.5
 20
0.0
 10
0.6
 20
0.0
 10
0.7
 20
0.0
 10
0.8
 20
0.0
 10
0.9
 20
0.0
 10
1.0
 20
0.0
 10
1.1
 20
0.0
 10
1.2
 20
0.0
 10
1.3
 20
0.0
 10
1.4
 20
0.0
 10
1.5
 20
0.0
 10
1.6
 20
0.0
 10
1.7
 20
0.0
 10
1.8
 20
0.0
 10
1.9
 20
0.0
 10
2.0
 20
0.0
 10
2.1
 20
0.0
 10
2.2
 20
0.0
 10
2.3
 20
0.0
 10
2.4
 20
0.0
 10
2.5
 20
0.0
 10
2.6
 20
0.0
 10
2.7
 20
0.0
 10
2.8
 20
0.0
 10
2.9
 20
0.0
 10
3.0
 20
0.0
 10
3.1
 20
0.0
 10
3.2
 20
0.0
 10
3.3
 20
0.0
 10
3.4
 20
0.0
 10
3.5
 20
0.0
 10
3.6
 20
0.0
 10
3.7
 20
0.0
 10
3.8
 20
0.0
 10
3.9
 20
0.0
 10
4.0
 20
0.0
 10
4.1
 20
0.0
 10
4.2
 20
0.0
 10
4.3
 20
0.0
 10
4.4
 20
0.0
 10
4.5
 20
0.0
 10
4.6
 20
0.0
 10
4.7
 20
0.0
 10
4.8
 20
0.0
 10
4.9
 20
0.0
 10
5.0
 20
0.0
  0
LWPOLYLINE
  5
31
330
17
100
AcDbEntity
  8
0
100
AcDbPolyline
 90
51
 70
0
 10
0.0
 20
19.0
 10
0.0
 20
18.62
 10
0.0
 20
18.24
 10
0.0
 20
17.86
 10
0.0
 20
17.48
 10
0.0
 20
17.1
 10
0.0
 20
16.72
 10
0.0
 20
16.34
 10
0.0
 20
15.96
 10
0.0
 20
15.58
 10
0.0
 20
15.2
 10
0.0
 20
14.82
 10
0.0
 20
14.440000000000001
 10
0.0
 20
14.059999999999999
 10
0.0
 20
13.68
 10
0.0
 20
13.3
 10
0.0
 20
12.92
 10
0.0
 20
12.54
 10
0.0
 20
12.16
 10
0.0
 20
11.780000000000001
 10
0.0
 20
11.4
 10
0.0
 20
11.02
 10
0.0
 20
10.64
 10
0.0
 20
10.26
 10
0.0
 20
9.88
 10
0.0
 20
9.5
 10
0.0
 20
9.12
 10
0.0
 20
8.74
 10
0.0
 20
8.36
 10
0.0
 20
7.98
 10
0.0
 20
7.6
 10
0.0
 20
7.220000000000001
 10
0.0
 20
6.84
 10
0.0
 20
6.460000000000001
 10
0.0
 20
6.08
 10
0.0
 20
5.699999999999999
 10
0.0
 20
5.32
 10
0.0
 20
4.9399999999999995
 10
0.0
 20
4.5600000000000005
 10
0.0
 20
4.18
 10
0.0
 20
3.8000000000000007
 10
0.0
 20
3.42
 10
0.0
 20
3.039999999999999
 10
0.0
 20
2.66
 10
0.0
 20
2.280000000000001
 10
0.0
 20
1.8999999999999986
 10
0.0
 20
1.5199999999999996
 10
0.0
 20
1.1400000000000006
 10
0.0
 20
0.7600000000000016
 10
0.0
 20
0.379999999999999
 10
0.0
 20
0.0
  0
LWPOLYLINE
  5
32
330
17
100
AcDbEntity
  8
0
100
AcDbPolyline
 90
51
 70
0
 10
8.0
 20
10.85
 10
7.517467050777428
 20
10.81964160006074
 10
7.04254393441531
 20
10.72904517034523
 10
6.58272047216399
 20
10.579639470669768
 10
6.145248354708397
 20
10.373780718168875
 10
5.737026778673979
 20
10.114715428343548
 10
5.364493642174548
 20
9.806529215572434
 10
5.033524015313211
 20
9.454082360532455
 10
4.749337486817243
 20
9.06293316066914
 10
4.516415848005826
 20
8.639250272525532
 10
4.338432412263659
 20
8.189715428343549
 10
4.218194084694549
 20
7.72141806115504
 10
4.1575970955511545
 20
7.241743500187856
 10
4.1575970955511545
 20
6.758256499812146
 10
4.218194084694549
 20
6.278581938844962
 10
4.338432412263659
 20
5.810284571656453
 10
4.516415848005824
 20
5.36074972747447
 10
4.749337486817242
 20
4.937066839330862
 10
5.03352401531321
 20
4.545917639467547
 10
5.364493642174548
 20
4.193470784427567
 10
5.737026778673977
 20
3.885284571656453
 10
6.1452483547083965
 20
3.626219281831125
 10
6.58272047216399
 20
3.4203605293302317
 10
7.042543934415307
 20
3.270954829654771
 10
7.5174670507774275
 20
3.1803583999392604
 10
7.999999999999999
 20
3.15
 10
8.482532949222572
 20
3.18035839993926
 10
8.957456065584692
 20
3.2709548296547704
 10
9.417279527836008
 20
3.420360529330231
 10
9.854751645291605
 20
3.626219281831126
 10
10.262973221326021
 20
3.885284571656452
 10
10.635506357825449
 20
4.1934707844275625
 10
10.966475984686788
 20
4.545917639467545
 10
11.250662513182759
 20
4.937066839330864
 10
11.483584151994176
 20
5.360749727474472
 10
11.661567587736341
 20
5.810284571656451
 10
11.781805915305451
 20
6.27858193884496
 10
11.842402904448846
 20
6.758256499812144
 10
11.842402904448846
 20
7.241743500187854
 10
11.781805915305451
 20
7.721418061155042
 10
11.661567587736341
 20
8.189715428343547
 10
11.483584151994178
 20
8.639250272525526
 10
11.250662513182759
 20
9.062933160669138
 10
10.96647598468679
 20
9.454082360532453
 10
10.63550635782545
 20
9.806529215572436
 10
10.262973221326023
 20
10.114715428343548
 10
9.854751645291607
 20
10.373780718168874
 10
9.41727952783601
 20
10.579639470669768
 10
8.957456065584694
 20
10.729045170345229
 10
8.48253294922257
 20
10.81964160006074
 10
8.000000000000002
 20
10.85
  0
LWPOLYLINE
  5
33
330
17
100
AcDbEntity
  8
0
100
AcDbPolyline
 90
51
 70
0
 10
5.0
 20
-3.0
 10
5.04
 20
-3.04
 10
5.08
 20
-3.08
 10
5.12
 20
-3.12
 10
5.16
 20
-3.16
 10
5.2
 20
-3.2
 10
5.24
 20
-3.2399999999999998
 10
5.28
 20
-3.28
 10
5.32
 20
-3.32
 10
5.36
 20
-3.36
 10
5.4
 20
-3.4
 10
5.4399999999999995
 20
-3.44
 10
5.4799999999999995
 20
-3.48
 10
5.52
 20
-3.52
 10
5.56
 20
-3.56
 10
5.6
 20
-3.5999999999999996
 10
5.64
 20
-3.6399999999999997
 10
5.68
 20
-3.6799999999999997
 10
5.72
 20
-3.7199999999999998
 10
5.76
 20
-3.76
 10
5.8
 20
-3.8
 10
5.84
 20
-3.84
 10
5.88
 20
-3.88
 10
5.92
 20
-3.92
 10
5.96
 20
-3.96
 10
6.0
 20
-4.0
 10
6.04
 20
-4.04
 10
6.08
 20
-4.08
 10
6.12
 20
-4.12
 10
6.16
 20
-4.16
 10
6.199999999999999
 20
-4.199999999999999
 10
6.24
 20
-4.24
 10
6.279999999999999
 20
-4.279999999999999
 10
6.319999999999999
 20
-4.319999999999999
 10
6.359999999999999
 20
-4.359999999999999
 10
6.3999999999999995
 20
-4.3999999999999995
 10
6.4399999999999995
 20
-4.4399999999999995
 10
6.48
 20
-4.48
 10
6.52
 20
-4.52
 10
6.56
 20
-4.56
 10
6.6
 20
-4.6
 10
6.64
 20
-4.64
 10
6.68
 20
-4.68
 10
6.72
 20
-4.72
 10
6.76
 20
-4.76
 10
6.8
 20
-4.8
 10
6.84
 20
-4.84
 10
6.88
 20
-4.88
 10
6.92
 20
-4.92
 10
6.959999999999999
 20
-4.959999999999999
 10
7.0
 20
-5.0
  0
LWPOLYLINE
  5
34
330
17
100
AcDbEntity
  8
0
100
AcDbPolyline
 90
51
 70
0
 10
7.0
 20
-5.0
 10
7.16
 20
-5.0
 10
7.32
 20
-5.0
 10
7.48
 20
-5.0
 10
7.64
 20
-5.0
 10
7.8
 20
-5.0
 10
7.96
 20
-5.0
 10
8.120000000000001
 20
-5.0
 10
8.28
 20
-5.0
 10
8.44
 20
-5.0
 10
8.6
 20
-5.0
 10
8.76
 20
-5.0
 10
8.92
 20
-5.0
 10
9.08
 20
-5.0
 10
9.24
 20
-5.0
 10
9.4
 20
-5.0
 10
9.56
 20
-5.0
 10
9.72
 20
-5.0
 10
9.879999999999999
 20
-5.0
 10
10.04
 20
-5.0
 10
10.2
 20
-5.0
 10
10.36
 20
-5.0
 10
10.52
 20
-5.0
 10
10.68
 20
-5.0
 10
10.84
 20
-5.0
 10
11.0
 20
-5.0
 10
11.16
 20
-5.0
 10
11.32
 20
-5.0
 10
11.48
 20
-5.0
 10
11.64
 20
-5.0
 10
11.8
 20
-5.0
 10
11.96
 20
-5.0
 10
12.120000000000001
 20
-5.0
 10
12.280000000000001
 20
-5.0
 10
12.440000000000001
 20
-5.0
 10
12.6
 20
-5.0
 10
12.76
 20
-5.0
 10
12.92
 20
-5.0
 10
13.08
 20
-5.0
 10
13.24
 20
-5.0
 10
13.4
 20
-5.0
 10
13.559999999999999
 20
-5.0
 10
13.719999999999999
 20
-5.0
 10
13.879999999999999
 20
-5.0
 10
14.04
 20
-5.0
 10
14.2
 20
-5.0
 10
14.36
 20
-5.0
 10
14.52
 20
-5.0
 10
14.68
 20
-5.0
 10
14.84
 20
-5.0
 10
15.0
 20
-5.0
  0
LWPOLYLINE
  5
35
330
17
100
AcDbEntity
  8
0
100
AcDbPolyline
 90
51
 70
0
 10
15.0
 20
-5.0
 10
15.0
 20
-4.76
 10
15.0
 20
-4.52
 10
15.0
 20
-4.28
 10
15.0
 20
-4.04
 10
15.0
 20
-3.8
 10
15.0
 20
-3.56
 10
15.0
 20
-3.3200000000000003
 10
15.0
 20
-3.08
 10
15.0
 20
-2.84
 10
15.0
 20
-2.6
 10
15.0
 20
-2.36
 10
15.0
 20
-2.12
 10
15.0
 20
-1.88
 10
15.0
 20
-1.6400000000000001
 10
15.0
 20
-1.4
 10
15.0
 20
-1.1600000000000001
 10
15.0
 20
-0.9199999999999999
 10
15.0
 20
-0.6799999999999997
 10
15.0
 20
-0.4400000000000004
 10
15.0
 20
-0.20000000000000018
 10
15.0
 20
0.040000000000000036
 10
15.0
 20
0.28000000000000025
 10
15.0
 20
0.5199999999999996
 10
15.0
 20
0.7599999999999998
 10
15.0
 20
1.0
 10
15.0
 20
1.2400000000000002
 10
15.0
 20
1.4800000000000004
 10
15.0
 20
1.7199999999999998
 10
15.0
 20
1.96
 10
15.0
 20
2.2
 10
15.0
 20
2.4400000000000004
 10
15.0
 20
2.6799999999999997
 10
15.0
 20
2.92
 10
15.0
 20
3.16
 10
15.0
 20
3.4000000000000004
 10
15.0
 20
3.6400000000000006
 10
15.0
 20
3.880000000000001
 10
15.0
 20
4.119999999999999
 10
15.0
 20
4.359999999999999
 10
15.0
 20
4.6
 10
15.0
 20
4.84
 10
15.0
 20
5.08
 10
15.0
 20
5.32
 10
15.0
 20
5.5600000000000005
 10
15.0
 20
5.800000000000001
 10
15.0
 20
6.039999999999999
 10
15.0
 20
6.279999999999999
 10
15.0
 20
6.52
 10
15.0
 20
6.76
 10
15.0
 20
7.0
  0
LWPOLYLINE
  5
36
330
17
100
AcDbEntity
  8
0
100
AcDbPolyline
 90
51
 70
0
 10
15.0
 20
7.0
 10
14.99654592256012
 20
7.219875313546898
 10
14.9861870989979
 20
7.439533636705193
 10
14.96893375222156
 20
7.6587581932296
 10
14.944802909201346
 20
7.87733263495013
 10
14.913818384165964
 20
8.095041255281616
 10
14.876010755100822
 20
8.311669202100072
 10
14.831417333571231
 20
8.527002689775799
 10
14.780082127900418
 20
8.740829210153983
 10
14.722055799738602
 20
8.952937742274605
 10
14.657395614066075
 20
9.163118960624631
 10
14.586165382679578
 20
9.37116544171704
 10
14.50843540121776
 20
9.576871868792745
 10
14.424282379787869
 20
9.780035234443464
 10
14.333789367262137
 20
9.980455040955508
 10
14.237045669318576
 20
10.177933498176827
 10
14.134146760307045
 20
10.372275718712007
 10
14.025194189027605
 20
10.5632899102526
 10
13.910295478514104
 20
10.750787564852978
 10
13.789564019921933
 20
10.934583644964913
 10
13.663118960624633
 20
11.114496766047312
 10
13.531085086629833
 20
11.290349375570836
 10
13.393592699430524
 20
11.461967928240828
 10
13.250777487413217
 20
11.629183057265562
 10
13.102780391949882
 20
11.79182974150082
 10
12.949747468305834
 20
11.949747468305834
 10
12.79182974150082
 20
12.102780391949882
 10
12.629183057265564
 20
12.250777487413217
 10
12.461967928240828
 20
12.393592699430524
 10
12.290349375570836
 20
12.531085086629833
 10
12.114496766047314
 20
12.663118960624631
 10
11.934583644964915
 20
12.789564019921933
 10
11.750787564852976
 20
12.910295478514104
 10
11.563289910252598
 20
13.025194189027605
 10
11.372275718712006
 20
13.134146760307047
 10
11.177933498176827
 20
13.237045669318574
 10
10.980455040955508
 20
13.333789367262137
 10
10.780035234443464
 20
13.424282379787869
 10
10.576871868792747
 20
13.50843540121776
 10
10.37116544171704
 20
13.586165382679578
 10
10.163118960624633
 20
13.657395614066075
 10
9.952937742274607
 20
13.722055799738602
 10
9.740829210153983
 20
13.780082127900418
 10
9.527002689775799
 20
13.831417333571231
 10
9.311669202100074
 20
13.87601075510082
 10
9.095041255281616
 20
13.913818384165964
 10
8.87733263495013
 20
13.944802909201345
 10
8.6587581932296
 20
13.96893375222156
 10
8.439533636705194
 20
13.9861870989979
 10
8.219875313546899
 20
13.99654592256012
 10
8.0
 20
14.0
  0
LWPOLYLINE
  5
37
330
17
100
AcDbEntity
  8
0
100
AcDbPolyline
 90
51
 70
0
 10
8.0
 20
14.0
 10
7.84
 20
14.0
 10
7.68
 20
14.0
 10
7.52
 20
14.0
 10
7.36
 20
14.0
 10
7.2
 20
14.0
 10
7.04
 20
14.0
 10
6.88
 20
14.0
 10
6.72
 20
14.0
 10
6.5600000000000005
 20
14.0
 10
6.4
 20
14.0
 10
6.24
 20
14.0
 10
6.08
 20
14.0
 10
5.92
 20
14.0
 10
5.76
 20
14.0
 10
5.6
 20
14.0
 10
5.4399999999999995
 20
14.0
 10
5.279999999999999
 20
14.0
 10
5.12
 20
14.0
 10
4.96
 20
14.0
 10
4.8
 20
14.0
 10
4.640000000000001
 20
14.0
 10
4.48
 20
14.0
 10
4.32
 20
14.0
 10
4.16
 20
14.0
 10
4.0
 20
14.0
 10
3.84
 20
14.0
 10
3.6799999999999997
 20
14.0
 10
3.5199999999999996
 20
14.0
 10
3.3600000000000003
 20
14.0
 10
3.2
 20
14.0
 10
3.04
 20
14.0
 10
2.88
 20
14.0
 10
2.7199999999999998
 20
14.0
 10
2.5599999999999996
 20
14.0
 10
2.4000000000000004
 20
14.0
 10
2.24
 20
14.0
 10
2.08
 20
14.0
 10
1.92
 20
14.0
 10
1.7599999999999998
 20
14.0
 10
1.5999999999999996
 20
14.0
 10
1.4400000000000004
 20
14.0
 10
1.2800000000000002
 20
14.0
 10
1.12
 20
14.0
 10
0.96
 20
14.0
 10
0.7999999999999998
 20
14.0
 10
0.6399999999999997
 20
14.0
 10
0.4800000000000004
 20
14.0
 10
0.3200000000000003
 20
14.0
 10
0.16000000000000014
 20
14.0
 10
0.0
 20
14.0
  0
LWPOLYLINE
  5
38
330
17
100
AcDbEntity
  8
0
100
AcDbPolyline
 90
51
 70
0
 10
5.0
 20
0.0
 10
5.0
 20
-0.06
 10
5.0
 20
-0.12
 10
5.0
 20
-0.18
 10
5.0
 20
-0.24
 10
5.0
 20
-0.3
 10
5.0
 20
-0.36
 10
5.0
 20
-0.42
 10
5.0
 20
-0.48
 10
5.0
 20
-0.54
 10
5.0
 20
-0.6
 10
5.0
 20
-0.66
 10
5.0
 20
-0.72
 10
5.0
 20
-0.78
 10
5.0
 20
-0.84
 10
5.0
 20
-0.9
 10
5.0
 20
-0.96
 10
5.0
 20
-1.02
 10
5.0
 20
-1.08
 10
5.0
 20
-1.14
 10
5.0
 20
-1.2
 10
5.0
 20
-1.26
 10
5.0
 20
-1.32
 10
5.0
 20
-1.38
 10
5.0
 20
-1.44
 10
5.0
 20
-1.5
 10
5.0
 20
-1.56
 10
5.0
 20
-1.62
 10
5.0
 20
-1.68
 10
5.0
 20
-1.74
 10
5.0
 20
-1.8
 10
5.0
 20
-1.86
 10
5.0
 20
-1.92
 10
5.0
 20
-1.98
 10
5.0
 20
-2.04
 10
5.0
 20
-2.1
 10
5.0
 20
-2.16
 10
5.0
 20
-2.22
 10
5.0
 20
-2.28
 10
5.0
 20
-2.34
 10
5.0
 20
-2.4
 10
5.0
 20
-2.46
 10
5.0
 20
-2.52
 10
5.0
 20
-2.58
 10
5.0
 20
-2.64
 10
5.0
 20
-2.7
 10
5.0
 20
-2.76
 10
5.0
 20
-2.82
 10
5.0
 20
-2.88
 10
5.0
 20
-2.94
 10
5.0
 20
-3.0
  0
LWPOLYLINE
  5
39
330
17
100
AcDbEntity
  8
0
100
AcDbPolyline
 90
51
 70
0
 10
-10.0
 20
19.0
 10
-9.8
 20
19.0
 10
-9.6
 20
19.0
 10
-9.4
 20
19.0
 10
-9.2
 20
19.0
 10
-9.0
 20
19.0
 10
-8.8
 20
19.0
 10
-8.6
 20
19.0
 10
-8.4
 20
19.0
 10
-8.2
 20
19.0
 10
-8.0
 20
19.0
 10
-7.8
 20
19.0
 10
-7.6
 20
19.0
 10
-7.4
 20
19.0
 10
-7.2
 20
19.0
 10
-7.0
 20
19.0
 10
-6.8
 20
19.0
 10
-6.6
 20
19.0
 10
-6.4
 20
19.0
 10
-6.2
 20
19.0
 10
-6.0
 20
19.0
 10
-5.8
 20
19.0
 10
-5.6
 20
19.0
 10
-5.4
 20
19.0
 10
-5.2
 20
19.0
 10
-5.0
 20
19.0
 10
-4.8
 20
19.0
 10
-4.6
 20
19.0
 10
-4.4
 20
19.0
 10
-4.2
 20
19.0
 10
-4.0
 20
19.0
 10
-3.8
 20
19.0
 10
-3.5999999999999996
 20
19.0
 10
-3.4000000000000004
 20
19.0
 10
-3.2
 20
19.0
 10
-3.0
 20
19.0
 10
-2.8
 20
19.0
 10
-2.5999999999999996
 20
19.0
 10
-2.4000000000000004
 20
19.0
 10
-2.2
 20
19.0
 10
-2.0
 20
19.0
 10
-1.8000000000000007
 20
19.0
 10
-1.5999999999999996
 20
19.0
 10
-1.4000000000000004
 20
19.0
 10
-1.1999999999999993
 20
19.0
 10
-1.0
 20
19.0
 10
-0.8000000000000007
 20
19.0
 10
-0.5999999999999996
 20
19.0
 10
-0.40000000000000036
 20
19.0
 10
-0.1999999999999993
 20
19.0
 10
0.0
 20
19.0
  0
LWPOLYLINE
  5
3A
330
17
100
AcDbEntity
  8
0
100
AcDbPolyline
 90
51
 70
0
 10
-10.0
 20
19.0
 10
-10.0
 20
18.62
 10
-10.0
 20
18.24
 10
-10.0
 20
17.86
 10
-10.0
 20
17.48
 10
-10.0
 20
17.1
 10
-10.0
 20
16.72
 10
-10.0
 20
16.34
 10
-10.0
 20
15.96
 10
-10.0
 20
15.58
 10
-10.0
 20
15.2
 10
-10.0
 20
14.82
 10
-10.0
 20
14.440000000000001
 10
-10.0
 20
14.059999999999999
 10
-10.0
 20
13.68
 10
-10.0
 20
13.3
 10
-10.0
 20
12.92
 10
-10.0
 20
12.54
 10
-10.0
 20
12.16
 10
-10.0
 20
11.780000000000001
 10
-10.0
 20
11.4
 10
-10.0
 20
11.02
 10
-10.0
 20
10.64
 10
-10.0
 20
10.26
 10
-10.0
 20
9.88
 10
-10.0
 20
9.5
 10
-10.0
 20
9.12
 10
-10.0
 20
8.74
 10
-10.0
 20
8.36
 10
-10.0
 20
7.98
 10
-10.0
 20
7.6
 10
-10.0
 20
7.220000000000001
 10
-10.0
 20
6.84
 10
-10.0
 20
6.460000000000001
 10
-10.0
 20
6.08
 10
-10.0
 20
5.699999999999999
 10
-10.0
 20
5.32
 10
-10.0
 20
4.9399999999999995
 10
-10.0
 20
4.5600000000000005
 10
-10.0
 20
4.18
 10
-10.0
 20
3.8000000000000007
 10
-10.0
 20
3.42
 10
-10.0
 20
3.039999999999999
 10
-10.0
 20
2.66
 10
-10.0
 20
2.280000000000001
 10
-10.0
 20
1.8999999999999986
 10
-10.0
 20
1.5199999999999996
 10
-10.0
 20
1.1400000000000006
 10
-10.0
 20
0.7600000000000016
 10
-10.0
 20
0.379999999999999
 10
-10.0
 20
0.0
  0
ENDSEC
  0
SECTION
  2
OBJECTS
  0
DICTIONARY
  5
A
330
0
100
AcDbDictionary
280
0
281
1
  3
ACAD_COLOR
350
B
  3
ACAD_GROUP
350
C
  3
ACAD_LAYOUT
350
D
  3
ACAD_MATERIAL
350
E
  3
ACAD_MLEADERSTYLE
350
F
  3
ACAD_MLINESTYLE
350
10
  3
ACAD_PLOTSETTINGS
350
11
  3
ACAD_PLOTSTYLENAME
350
12
  3
ACAD_SCALELIST
350
14
  3
ACAD_TABLESTYLE
350
15
  3
ACAD_VISUALSTYLE
350
16
  3
EZDXF_META
350
2D
  0
DICTIONARY
  5
B
330
A
100
AcDbDictionary
280
0
281
1
  0
DICTIONARY
  5
C
330
A
100
AcDbDictionary
280
0
281
1
  0
DICTIONARY
  5
D
330
A
100
AcDbDictionary
280
0
281
1
  3
Model
350
1A
  3
Layout1
350
1E
  0
DICTIONARY
  5
E
330
A
100
AcDbDictionary
280
0
281
1
  3
ByBlock
350
1F
  3
ByLayer
350
20
  3
Global
350
21
  0
DICTIONARY
  5
F
330
A
100
AcDbDictionary
280
0
281
1
  3
Standard
350
2C
  0
DICTIONARY
  5
10
330
A
100
AcDbDictionary
280
0
281
1
  3
Standard
350
22
  0
DICTIONARY
  5
11
330
A
100
AcDbDictionary
280
0
281
1
  0
ACDBDICTIONARYWDFLT
  5
12
330
A
100
AcDbDictionary
280
0
281
1
  3
Normal
350
13
100
AcDbDictionaryWithDefault
340
13
  0
ACDBPLACEHOLDER
  5
13
330
12
  0
DICTIONARY
  5
14
330
A
100
AcDbDictionary
280
0
281
1
  0
DICTIONARY
  5
15
330
A
100
AcDbDictionary
280
0
281
1
  0
DICTIONARY
  5
16
330
A
100
AcDbDictionary
280
0
281
1
  0
LAYOUT
  5
1A
330
D
100
AcDbPlotSettings
  1

  2
Adobe PDF
  4
A3
  6

 40
7.5
 41
20.0
 42
7.5
 43
20.0
 44
420.0
 45
297.0
 46
0.0
 47
0.0
 48
0.0
 49
0.0
140
0.0
141
0.0
142
1.0
143
1.0
 70
1024
 72
1
 73
0
 74
5
  7

 75
16
 76
0
 77
2
 78
300
147
1.0
148
0.0
149
0.0
100
AcDbLayout
  1
Model
 70
1
 71
0
 10
0.0
 20
0.0
 11
420.0
 21
297.0
 12
0.0
 22
0.0
 32
0.0
 14
1e+20
 24
1e+20
 34
1e+20
 15
-1e+20
 25
-1e+20
 35
-1e+20
146
0.0
 13
0.0
 23
0.0
 33
0.0
 16
1.0
 26
0.0
 36
0.0
 17
0.0
 27
1.0
 37
0.0
 76
1
330
17
  0
LAYOUT
  5
1E
330
D
100
AcDbPlotSettings
  1

  2
Adobe PDF
  4
A3
  6

 40
7.5
 41
20.0
 42
7.5
 43
20.0
 44
420.0
 45
297.0
 46
0.0
 47
0.0
 48
0.0
 49
0.0
140
0.0
141
0.0
142
1.0
143
1.0
 70
0
 72
1
 73
0
 74
5
  7

 75
16
 76
0
 77
2
 78
300
147
1.0
148
0.0
149
0.0
100
AcDbLayout
  1
Layout1
 70
1
 71
1
 10
0.0
 20
0.0
 11
420.0
 21
297.0
 12
0.0
 22
0.0
 32
0.0
 14
1e+20
 24
1e+20
 34
1e+20
 15
-1e+20
 25
-1e+20
 35
-1e+20
146
0.0
 13
0.0
 23
0.0
 33
0.0
 16
1.0
 26
0.0
 36
0.0
 17
0.0
 27
1.0
 37
0.0
 76
1
330
1B
  0
MATERIAL
  5
1F
102
{ACAD_REACTORS
330
E
102
}
330
E
100
AcDbMaterial
  1
ByBlock
  2

 70
0
 40
1.0
 71
1
 41
1.0
 91
-1023410177
 42
1.0
 72
1
  3

 73
1
 74
1
 75
1
 44
0.5
 73
0
 45
1.0
 46
1.0
 77
1
  4

 78
1
 79
1
170
1
 48
1.0
171
1
  6

172
1
173
1
174
1
140
1.0
141
1.0
175
1
  7

176
1
177
1
178
1
143
1.0
179
1
  8

270
1
271
1
272
1
145
1.0
146
1.0
273
1
  9

274
1
275
1
276
1
 42
1.0
 72
1
  3

 73
1
 74
1
 75
1
 94
63
  0
MATERIAL
  5
20
102
{ACAD_REACTORS
330
E
102
}
330
E
100
AcDbMaterial
  1
ByLayer
  2

 70
0
 40
1.0
 71
1
 41
1.0
 91
-1023410177
 42
1.0
 72
1
  3

 73
1
 74
1
 75
1
 44
0.5
 73
0
 45
1.0
 46
1.0
 77
1
  4

 78
1
 79
1
170
1
 48
1.0
171
1
  6

172
1
173
1
174
1
140
1.0
141
1.0
175
1
  7

176
1
177
1
178
1
143
1.0
179
1
  8

270
1
271
1
272
1
145
1.0
146
1.0
273
1
  9

274
1
275
1
276
1
 42
1.0
 72
1
  3

 73
1
 74
1
 75
1
 94
63
  0
MATERIAL
  5
21
102
{ACAD_REACTORS
330
E
102
}
330
E
100
AcDbMaterial
  1
Global
  2

 70
0
 40
1.0
 71
1
 41
1.0
 91
-1023410177
 42
1.0
 72
1
  3

 73
1
 74
1
 75
1
 44
0.5
 73
0
 45
1.0
 46
1.0
 77
1
  4

 78
1
 79
1
170
1
 48
1.0
171
1
  6

172
1
173
1
174
1
140
1.0
141
1.0
175
1
  7

176
1
177
1
178
1
143
1.0
179
1
  8

270
1
271
1
272
1
145
1.0
146
1.0
273
1
  9

274
1
275
1
276
1
 42
1.0
 72
1
  3

 73
1
 74
1
 75
1
 94
63
  0
MLINESTYLE
  5
22
102
{ACAD_REACTORS
330
10
102
}
330
10
100
AcDbMlineStyle
  2
Standard
 70
0
  3

 62
256
 51
90.0
 52
90.0
 71
2
 49
0.5
 62
256
  6
BYLAYER
 49
-0.5
 62
256
  6
BYLAYER
  0
MLEADERSTYLE
  5
2C
102
{ACAD_REACTORS
330
F
102
}
330
F
100
AcDbMLeaderStyle
179
2
170
2
171
1
172
0
 90
2
 40
0.0
 41
0.0
173
1
 91
-1056964608
 92
-2
290
1
 42
2.0
291
1
 43
8.0
  3
Standard
 44
4.0
300

342
29
174
1
175
1
176
0
178
1
 93
-1056964608
 45
4.0
292
0
297
0
 46
4.0
 94
-1056964608
 47
1.0
 49
1.0
140
1.0
294
1
141
0.0
177
0
142
1.0
295
0
296
0
143
3.75
271
0
272
9
273
9
  0
DICTIONARY
  5
2D
330
A
100
AcDbDictionary
281
1
  3
CREATED_BY_EZDXF
350
2E
  3
WRITTEN_BY_EZDXF
350
3D
  0
DICTIONARYVAR
  5
2E
330
2D
100
DictionaryVariables
280
0
  1
1.0.3 @ 2025-05-29T09:41:24.966265+00:00
  0
DICTIONARYVAR
  5
3D
330
2D
100
DictionaryVariables
280
0
  1
1.0.3 @ 2025-05-29T09:41:24.969265+00:00
  0
ENDSEC
  0
EOF
