  0
SECTION
  2
HEADER
  9
$ACADVER
  1
AC1027
  9
$ACADMAINTVER
 70
105
  9
$DWGCODEPAGE
  3
ANSI_1252
  9
$LASTSAVEDBY
  1
ezdxf
  9
$REQUIREDVERSIONS
160
0
  9
$INSBASE
 10
0.0
 20
0.0
 30
0.0
  9
$EXTMIN
 10
1e+20
 20
1e+20
 30
1e+20
  9
$EXTMAX
 10
-1e+20
 20
-1e+20
 30
-1e+20
  9
$LIMMIN
 10
0.0
 20
0.0
  9
$LIMMAX
 10
420.0
 20
297.0
  9
$ORTHOMODE
 70
0
  9
$REGENMODE
 70
1
  9
$FILLMODE
 70
1
  9
$QTEXTMODE
 70
0
  9
$MIRRTEXT
 70
1
  9
$LTSCALE
 40
1.0
  9
$ATTMODE
 70
1
  9
$TEXTSIZE
 40
2.5
  9
$TRACEWID
 40
1.0
  9
$TEXTSTYLE
  7
Standard
  9
$CLAYER
  8
0
  9
$CELTYPE
  6
ByLayer
  9
$CECOLOR
 62
256
  9
$CELTSCALE
 40
1.0
  9
$DISPSILH
 70
0
  9
$DIMSCALE
 40
1.0
  9
$DIMASZ
 40
2.5
  9
$DIMEXO
 40
0.625
  9
$DIMDLI
 40
3.75
  9
$DIMRND
 40
0.0
  9
$DIMDLE
 40
0.0
  9
$DIMEXE
 40
1.25
  9
$DIMTP
 40
0.0
  9
$DIMTM
 40
0.0
  9
$DIMTXT
 40
2.5
  9
$DIMCEN
 40
2.5
  9
$DIMTSZ
 40
0.0
  9
$DIMTOL
 70
0
  9
$DIMLIM
 70
0
  9
$DIMTIH
 70
0
  9
$DIMTOH
 70
0
  9
$DIMSE1
 70
0
  9
$DIMSE2
 70
0
  9
$DIMTAD
 70
1
  9
$DIMZIN
 70
8
  9
$DIMBLK
  1

  9
$DIMASO
 70
1
  9
$DIMSHO
 70
1
  9
$DIMPOST
  1

  9
$DIMAPOST
  1

  9
$DIMALT
 70
0
  9
$DIMALTD
 70
3
  9
$DIMALTF
 40
0.03937007874
  9
$DIMLFAC
 40
1.0
  9
$DIMTOFL
 70
1
  9
$DIMTVP
 40
0.0
  9
$DIMTIX
 70
0
  9
$DIMSOXD
 70
0
  9
$DIMSAH
 70
0
  9
$DIMBLK1
  1

  9
$DIMBLK2
  1

  9
$DIMSTYLE
  2
ISO-25
  9
$DIMCLRD
 70
0
  9
$DIMCLRE
 70
0
  9
$DIMCLRT
 70
0
  9
$DIMTFAC
 40
1.0
  9
$DIMGAP
 40
0.625
  9
$DIMJUST
 70
0
  9
$DIMSD1
 70
0
  9
$DIMSD2
 70
0
  9
$DIMTOLJ
 70
0
  9
$DIMTZIN
 70
8
  9
$DIMALTZ
 70
0
  9
$DIMALTTZ
 70
0
  9
$DIMUPT
 70
0
  9
$DIMDEC
 70
2
  9
$DIMTDEC
 70
2
  9
$DIMALTU
 70
2
  9
$DIMALTTD
 70
3
  9
$DIMTXSTY
  7
Standard
  9
$DIMAUNIT
 70
0
  9
$DIMADEC
 70
0
  9
$DIMALTRND
 40
0.0
  9
$DIMAZIN
 70
0
  9
$DIMDSEP
 70
44
  9
$DIMATFIT
 70
3
  9
$DIMFRAC
 70
0
  9
$DIMLDRBLK
  1

  9
$DIMLUNIT
 70
2
  9
$DIMLWD
 70
-2
  9
$DIMLWE
 70
-2
  9
$DIMTMOVE
 70
0
  9
$DIMFXL
 40
1.0
  9
$DIMFXLON
 70
0
  9
$DIMJOGANG
 40
0.785398163397
  9
$DIMTFILL
 70
0
  9
$DIMTFILLCLR
 70
0
  9
$DIMARCSYM
 70
0
  9
$DIMLTYPE
  6

  9
$DIMLTEX1
  6

  9
$DIMLTEX2
  6

  9
$DIMTXTDIRECTION
 70
0
  9
$LUNITS
 70
2
  9
$LUPREC
 70
4
  9
$SKETCHINC
 40
1.0
  9
$FILLETRAD
 40
10.0
  9
$AUNITS
 70
0
  9
$AUPREC
 70
2
  9
$MENU
  1
.
  9
$ELEVATION
 40
0.0
  9
$PELEVATION
 40
0.0
  9
$THICKNESS
 40
0.0
  9
$LIMCHECK
 70
0
  9
$CHAMFERA
 40
0.0
  9
$CHAMFERB
 40
0.0
  9
$CHAMFERC
 40
0.0
  9
$CHAMFERD
 40
0.0
  9
$SKPOLY
 70
0
  9
$TDCREATE
 40
2460825.77875
  9
$TDUCREATE
 40
2458532.153996898
  9
$TDUPDATE
 40
2460825.77875
  9
$TDUUPDATE
 40
2458532.1544311
  9
$TDINDWG
 40
0.0
  9
$TDUSRTIMER
 40
0.0
  9
$USRTIMER
 70
1
  9
$ANGBASE
 50
0.0
  9
$ANGDIR
 70
0
  9
$PDMODE
 70
0
  9
$PDSIZE
 40
0.0
  9
$PLINEWID
 40
0.0
  9
$SPLFRAME
 70
0
  9
$SPLINETYPE
 70
6
  9
$SPLINESEGS
 70
8
  9
$HANDSEED
  5
43
  9
$SURFTAB1
 70
6
  9
$SURFTAB2
 70
6
  9
$SURFTYPE
 70
6
  9
$SURFU
 70
6
  9
$SURFV
 70
6
  9
$UCSBASE
  2

  9
$UCSNAME
  2

  9
$UCSORG
 10
0.0
 20
0.0
 30
0.0
  9
$UCSXDIR
 10
1.0
 20
0.0
 30
0.0
  9
$UCSYDIR
 10
0.0
 20
1.0
 30
0.0
  9
$UCSORTHOREF
  2

  9
$UCSORTHOVIEW
 70
0
  9
$UCSORGTOP
 10
0.0
 20
0.0
 30
0.0
  9
$UCSORGBOTTOM
 10
0.0
 20
0.0
 30
0.0
  9
$UCSORGLEFT
 10
0.0
 20
0.0
 30
0.0
  9
$UCSORGRIGHT
 10
0.0
 20
0.0
 30
0.0
  9
$UCSORGFRONT
 10
0.0
 20
0.0
 30
0.0
  9
$UCSORGBACK
 10
0.0
 20
0.0
 30
0.0
  9
$PUCSBASE
  2

  9
$PUCSNAME
  2

  9
$PUCSORG
 10
0.0
 20
0.0
 30
0.0
  9
$PUCSXDIR
 10
1.0
 20
0.0
 30
0.0
  9
$PUCSYDIR
 10
0.0
 20
1.0
 30
0.0
  9
$PUCSORTHOREF
  2

  9
$PUCSORTHOVIEW
 70
0
  9
$PUCSORGTOP
 10
0.0
 20
0.0
 30
0.0
  9
$PUCSORGBOTTOM
 10
0.0
 20
0.0
 30
0.0
  9
$PUCSORGLEFT
 10
0.0
 20
0.0
 30
0.0
  9
$PUCSORGRIGHT
 10
0.0
 20
0.0
 30
0.0
  9
$PUCSORGFRONT
 10
0.0
 20
0.0
 30
0.0
  9
$PUCSORGBACK
 10
0.0
 20
0.0
 30
0.0
  9
$USERI1
 70
0
  9
$USERI2
 70
0
  9
$USERI3
 70
0
  9
$USERI4
 70
0
  9
$USERI5
 70
0
  9
$USERR1
 40
0.0
  9
$USERR2
 40
0.0
  9
$USERR3
 40
0.0
  9
$USERR4
 40
0.0
  9
$USERR5
 40
0.0
  9
$WORLDVIEW
 70
1
  9
$SHADEDGE
 70
3
  9
$SHADEDIF
 70
70
  9
$TILEMODE
 70
1
  9
$MAXACTVP
 70
64
  9
$PINSBASE
 10
0.0
 20
0.0
 30
0.0
  9
$PLIMCHECK
 70
0
  9
$PEXTMIN
 10
1e+20
 20
1e+20
 30
1e+20
  9
$PEXTMAX
 10
-1e+20
 20
-1e+20
 30
-1e+20
  9
$PLIMMIN
 10
0.0
 20
0.0
  9
$PLIMMAX
 10
420.0
 20
297.0
  9
$UNITMODE
 70
0
  9
$VISRETAIN
 70
1
  9
$PLINEGEN
 70
0
  9
$PSLTSCALE
 70
1
  9
$TREEDEPTH
 70
3020
  9
$CMLSTYLE
  2
Standard
  9
$CMLJUST
 70
0
  9
$CMLSCALE
 40
20.0
  9
$PROXYGRAPHICS
 70
1
  9
$MEASUREMENT
 70
1
  9
$CELWEIGHT
370
-1
  9
$ENDCAPS
280
0
  9
$JOINSTYLE
280
0
  9
$LWDISPLAY
290
0
  9
$INSUNITS
 70
6
  9
$HYPERLINKBASE
  1

  9
$STYLESHEET
  1

  9
$XEDIT
290
1
  9
$CEPSNTYPE
380
0
  9
$PSTYLEMODE
290
1
  9
$FINGERPRINTGUID
  2
{7A0F3638-4674-40B8-BF23-4F4335A7B09F}
  9
$VERSIONGUID
  2
{7534AF43-CF65-4C8A-ADCD-D2E25CEF0C49}
  9
$EXTNAMES
290
1
  9
$PSVPSCALE
 40
0.0
  9
$OLESTARTUP
290
0
  9
$SORTENTS
280
127
  9
$INDEXCTL
280
0
  9
$HIDETEXT
280
1
  9
$XCLIPFRAME
280
0
  9
$HALOGAP
280
0
  9
$OBSCOLOR
 70
257
  9
$OBSLTYPE
280
0
  9
$INTERSECTIONDISPLAY
280
0
  9
$INTERSECTIONCOLOR
 70
257
  9
$DIMASSOC
280
2
  9
$PROJECTNAME
  1

  9
$CAMERADISPLAY
290
0
  9
$LENSLENGTH
 40
50.0
  9
$CAMERAHEIGHT
 40
0.0
  9
$STEPSPERSEC
 40
24.0
  9
$STEPSIZE
 40
100.0
  9
$3DDWFPREC
 40
2.0
  9
$PSOLWIDTH
 40
0.005
  9
$PSOLHEIGHT
 40
0.08
  9
$LOFTANG1
 40
1.570796326795
  9
$LOFTANG2
 40
1.570796326795
  9
$LOFTMAG1
 40
0.0
  9
$LOFTMAG2
 40
0.0
  9
$LOFTPARAM
 70
7
  9
$LOFTNORMALS
280
1
  9
$LATITUDE
 40
37.795
  9
$LONGITUDE
 40
-122.394
  9
$NORTHDIRECTION
 40
0.0
  9
$TIMEZONE
 70
-8000
  9
$LIGHTGLYPHDISPLAY
280
1
  9
$TILEMODELIGHTSYNCH
280
1
  9
$CMATERIAL
347
20
  9
$SOLIDHIST
280
0
  9
$SHOWHIST
280
1
  9
$DWFFRAME
280
2
  9
$DGNFRAME
280
2
  9
$REALWORLDSCALE
290
1
  9
$INTERFERECOLOR
 62
256
  9
$CSHADOW
280
0
  9
$SHADOWPLANELOCATION
 40
0.0
  0
ENDSEC
  0
SECTION
  2
CLASSES
  0
CLASS
  1
ACDBDICTIONARYWDFLT
  2
AcDbDictionaryWithDefault
  3
ObjectDBX Classes
 90
0
 91
0
280
0
281
0
  0
CLASS
  1
SUN
  2
AcDbSun
  3
SCENEOE
 90
1153
 91
0
280
0
281
0
  0
CLASS
  1
VISUALSTYLE
  2
AcDbVisualStyle
  3
ObjectDBX Classes
 90
4095
 91
0
280
0
281
0
  0
CLASS
  1
MATERIAL
  2
AcDbMaterial
  3
ObjectDBX Classes
 90
1153
 91
0
280
0
281
0
  0
CLASS
  1
SCALE
  2
AcDbScale
  3
ObjectDBX Classes
 90
1153
 91
0
280
0
281
0
  0
CLASS
  1
TABLESTYLE
  2
AcDbTableStyle
  3
ObjectDBX Classes
 90
4095
 91
0
280
0
281
0
  0
CLASS
  1
MLEADERSTYLE
  2
AcDbMLeaderStyle
  3
ACDB_MLEADERSTYLE_CLASS
 90
4095
 91
0
280
0
281
0
  0
CLASS
  1
DICTIONARYVAR
  2
AcDbDictionaryVar
  3
ObjectDBX Classes
 90
0
 91
0
280
0
281
0
  0
CLASS
  1
CELLSTYLEMAP
  2
AcDbCellStyleMap
  3
ObjectDBX Classes
 90
1152
 91
0
280
0
281
0
  0
CLASS
  1
MENTALRAYRENDERSETTINGS
  2
AcDbMentalRayRenderSettings
  3
SCENEOE
 90
1024
 91
0
280
0
281
0
  0
CLASS
  1
ACDBDETAILVIEWSTYLE
  2
AcDbDetailViewStyle
  3
ObjectDBX Classes
 90
1025
 91
0
280
0
281
0
  0
CLASS
  1
ACDBSECTIONVIEWSTYLE
  2
AcDbSectionViewStyle
  3
ObjectDBX Classes
 90
1025
 91
0
280
0
281
0
  0
CLASS
  1
RASTERVARIABLES
  2
AcDbRasterVariables
  3
ISM
 90
0
 91
0
280
0
281
0
  0
CLASS
  1
LAYOUT
  2
AcDbLayout
  3
ObjectDBX Classes
 90
0
 91
0
280
0
281
0
  0
CLASS
  1
ACDBPLACEHOLDER
  2
AcDbPlaceHolder
  3
ObjectDBX Classes
 90
0
 91
0
280
0
281
0
  0
ENDSEC
  0
SECTION
  2
TABLES
  0
TABLE
  2
VPORT
  5
8
330
0
100
AcDbSymbolTable
 70
1
  0
VPORT
  5
23
330
8
100
AcDbSymbolTableRecord
100
AcDbViewportTableRecord
  2
*Active
 70
0
 10
0.0
 20
0.0
 11
1.0
 21
1.0
 12
0.0
 22
0.0
 13
0.0
 23
0.0
 14
0.5
 24
0.5
 15
0.5
 25
0.5
 16
0.0
 26
0.0
 36
1.0
 17
0.0
 27
0.0
 37
0.0
 40
1000.0
 41
1.34
 42
50.0
 43
0.0
 44
0.0
 50
0.0
 51
0.0
 71
0
 72
1000
 73
1
 74
3
 75
0
 76
0
 77
0
 78
0
281
0
 65
0
146
0.0
  0
ENDTAB
  0
TABLE
  2
LTYPE
  5
2
330
0
100
AcDbSymbolTable
 70
3
  0
LTYPE
  5
24
330
2
100
AcDbSymbolTableRecord
100
AcDbLinetypeTableRecord
  2
ByBlock
 70
0
  3

 72
65
 73
0
 40
0.0
  0
LTYPE
  5
25
330
2
100
AcDbSymbolTableRecord
100
AcDbLinetypeTableRecord
  2
ByLayer
 70
0
  3

 72
65
 73
0
 40
0.0
  0
LTYPE
  5
26
330
2
100
AcDbSymbolTableRecord
100
AcDbLinetypeTableRecord
  2
Continuous
 70
0
  3

 72
65
 73
0
 40
0.0
  0
ENDTAB
  0
TABLE
  2
LAYER
  5
1
330
0
100
AcDbSymbolTable
 70
2
  0
LAYER
  5
27
330
1
100
AcDbSymbolTableRecord
100
AcDbLayerTableRecord
  2
0
 70
0
 62
7
  6
Continuous
370
-3
390
13
347
21
  0
LAYER
  5
28
330
1
100
AcDbSymbolTableRecord
100
AcDbLayerTableRecord
  2
Defpoints
 70
0
 62
7
  6
Continuous
290
0
370
-3
390
13
347
21
  0
ENDTAB
  0
TABLE
  2
STYLE
  5
5
330
0
100
AcDbSymbolTable
 70
1
  0
STYLE
  5
29
330
5
100
AcDbSymbolTableRecord
100
AcDbTextStyleTableRecord
  2
Standard
 70
0
 40
0.0
 41
1.0
 50
0.0
 71
0
 42
2.5
  3
txt
  4

  0
ENDTAB
  0
TABLE
  2
VIEW
  5
7
330
0
100
AcDbSymbolTable
 70
0
  0
ENDTAB
  0
TABLE
  2
UCS
  5
6
330
0
100
AcDbSymbolTable
 70
0
  0
ENDTAB
  0
TABLE
  2
APPID
  5
3
330
0
100
AcDbSymbolTable
 70
3
  0
APPID
  5
2A
330
3
100
AcDbSymbolTableRecord
100
AcDbRegAppTableRecord
  2
ACAD
 70
0
  0
APPID
  5
40
330
3
100
AcDbSymbolTableRecord
100
AcDbRegAppTableRecord
  2
HATCHBACKGROUNDCOLOR
 70
0
  0
APPID
  5
41
330
3
100
AcDbSymbolTableRecord
100
AcDbRegAppTableRecord
  2
EZDXF
 70
0
  0
ENDTAB
  0
TABLE
  2
DIMSTYLE
  5
4
330
0
100
AcDbSymbolTable
 70
1
100
AcDbDimStyleTable
  0
DIMSTYLE
105
2B
330
4
100
AcDbSymbolTableRecord
100
AcDbDimStyleTableRecord
  2
Standard
 70
0
 40
1.0
 41
2.5
 42
0.625
 43
3.75
 44
1.25
 45
0.0
 46
0.0
 47
0.0
 48
0.0
 49
2.5
140
2.5
141
2.5
142
0.0
143
0.03937007874
144
1.0
145
0.0
146
1.0
147
0.625
148
0.0
 69
0
 70
0
 71
0
 72
0
 73
0
 74
0
 75
0
 76
0
 77
1
 78
8
 79
3
170
0
171
3
172
1
173
0
174
0
175
0
176
0
177
0
178
0
179
2
271
2
272
2
273
2
274
3
275
0
276
0
277
2
278
44
279
0
280
0
281
0
282
0
283
0
284
8
285
0
286
0
288
0
289
3
290
0
371
-2
372
-2
  0
ENDTAB
  0
TABLE
  2
BLOCK_RECORD
  5
9
330
0
100
AcDbSymbolTable
 70
2
  0
BLOCK_RECORD
  5
17
330
9
100
AcDbSymbolTableRecord
100
AcDbBlockTableRecord
  2
*Model_Space
340
1A
 70
0
280
1
281
0
  0
BLOCK_RECORD
  5
1B
330
9
100
AcDbSymbolTableRecord
100
AcDbBlockTableRecord
  2
*Paper_Space
340
1E
 70
0
280
1
281
0
  0
ENDTAB
  0
ENDSEC
  0
SECTION
  2
BLOCKS
  0
BLOCK
  5
18
330
17
100
AcDbEntity
  8
0
100
AcDbBlockBegin
  2
*Model_Space
 70
0
 10
0.0
 20
0.0
 30
0.0
  3
*Model_Space
  1

  0
ENDBLK
  5
19
330
17
100
AcDbEntity
  8
0
100
AcDbBlockEnd
  0
BLOCK
  5
1C
330
1B
100
AcDbEntity
  8
0
100
AcDbBlockBegin
  2
*Paper_Space
 70
0
 10
0.0
 20
0.0
 30
0.0
  3
*Paper_Space
  1

  0
ENDBLK
  5
1D
330
1B
100
AcDbEntity
  8
0
100
AcDbBlockEnd
  0
ENDSEC
  0
SECTION
  2
ENTITIES
  0
LWPOLYLINE
  5
2F
330
17
100
AcDbEntity
  8
0
100
AcDbPolyline
 90
51
 70
0
 10
-4.15
 20
-11.0
 10
-4.15
 20
-10.9
 10
-4.15
 20
-10.8
 10
-4.15
 20
-10.7
 10
-4.15
 20
-10.6
 10
-4.15
 20
-10.5
 10
-4.15
 20
-10.4
 10
-4.15
 20
-10.3
 10
-4.15
 20
-10.2
 10
-4.15
 20
-10.1
 10
-4.15
 20
-10.0
 10
-4.15
 20
-9.9
 10
-4.15
 20
-9.8
 10
-4.15
 20
-9.7
 10
-4.15
 20
-9.6
 10
-4.15
 20
-9.5
 10
-4.15
 20
-9.4
 10
-4.15
 20
-9.3
 10
-4.15
 20
-9.2
 10
-4.15
 20
-9.1
 10
-4.15
 20
-9.0
 10
-4.15
 20
-8.9
 10
-4.15
 20
-8.8
 10
-4.15
 20
-8.7
 10
-4.15
 20
-8.6
 10
-4.15
 20
-8.5
 10
-4.15
 20
-8.4
 10
-4.15
 20
-8.3
 10
-4.15
 20
-8.2
 10
-4.15
 20
-8.1
 10
-4.15
 20
-8.0
 10
-4.15
 20
-7.9
 10
-4.15
 20
-7.8
 10
-4.15
 20
-7.7
 10
-4.15
 20
-7.6
 10
-4.15
 20
-7.5
 10
-4.15
 20
-7.4
 10
-4.15
 20
-7.3
 10
-4.15
 20
-7.2
 10
-4.15
 20
-7.1
 10
-4.15
 20
-7.0
 10
-4.15
 20
-6.9
 10
-4.15
 20
-6.8
 10
-4.15
 20
-6.7
 10
-4.15
 20
-6.6
 10
-4.15
 20
-6.5
 10
-4.15
 20
-6.4
 10
-4.15
 20
-6.3
 10
-4.15
 20
-6.2
 10
-4.15
 20
-6.1
 10
-4.15
 20
-6.0
  0
LWPOLYLINE
  5
30
330
17
100
AcDbEntity
  8
0
100
AcDbPolyline
 90
51
 70
0
 10
-11.85
 20
-11.0
 10
-11.85
 20
-10.9
 10
-11.85
 20
-10.8
 10
-11.85
 20
-10.7
 10
-11.85
 20
-10.6
 10
-11.85
 20
-10.5
 10
-11.85
 20
-10.4
 10
-11.85
 20
-10.3
 10
-11.85
 20
-10.2
 10
-11.85
 20
-10.1
 10
-11.85
 20
-10.0
 10
-11.85
 20
-9.9
 10
-11.85
 20
-9.8
 10
-11.85
 20
-9.7
 10
-11.85
 20
-9.6
 10
-11.85
 20
-9.5
 10
-11.85
 20
-9.4
 10
-11.85
 20
-9.3
 10
-11.85
 20
-9.2
 10
-11.85
 20
-9.1
 10
-11.85
 20
-9.0
 10
-11.85
 20
-8.9
 10
-11.85
 20
-8.8
 10
-11.85
 20
-8.7
 10
-11.85
 20
-8.6
 10
-11.85
 20
-8.5
 10
-11.85
 20
-8.4
 10
-11.85
 20
-8.3
 10
-11.85
 20
-8.2
 10
-11.85
 20
-8.1
 10
-11.85
 20
-8.0
 10
-11.85
 20
-7.9
 10
-11.85
 20
-7.8
 10
-11.85
 20
-7.7
 10
-11.85
 20
-7.6
 10
-11.85
 20
-7.5
 10
-11.85
 20
-7.4
 10
-11.85
 20
-7.3
 10
-11.85
 20
-7.2
 10
-11.85
 20
-7.1
 10
-11.85
 20
-7.0
 10
-11.85
 20
-6.9
 10
-11.85
 20
-6.8
 10
-11.85
 20
-6.7
 10
-11.85
 20
-6.6
 10
-11.85
 20
-6.5
 10
-11.85
 20
-6.4
 10
-11.85
 20
-6.3
 10
-11.85
 20
-6.2
 10
-11.85
 20
-6.1
 10
-11.85
 20
-6.0
  0
LWPOLYLINE
  5
31
330
17
100
AcDbEntity
  8
0
100
AcDbPolyline
 90
51
 70
0
 10
-4.15
 20
6.0
 10
-4.15
 20
6.100000000000001
 10
-4.15
 20
6.199999999999999
 10
-4.15
 20
6.300000000000001
 10
-4.15
 20
6.399999999999999
 10
-4.15
 20
6.5
 10
-4.15
 20
6.600000000000001
 10
-4.15
 20
6.699999999999999
 10
-4.15
 20
6.800000000000001
 10
-4.15
 20
6.899999999999999
 10
-4.15
 20
7.0
 10
-4.15
 20
7.100000000000001
 10
-4.15
 20
7.199999999999999
 10
-4.15
 20
7.300000000000001
 10
-4.15
 20
7.399999999999999
 10
-4.15
 20
7.5
 10
-4.15
 20
7.600000000000001
 10
-4.15
 20
7.699999999999999
 10
-4.15
 20
7.800000000000001
 10
-4.15
 20
7.899999999999999
 10
-4.15
 20
8.0
 10
-4.15
 20
8.100000000000001
 10
-4.15
 20
8.2
 10
-4.15
 20
8.3
 10
-4.15
 20
8.399999999999999
 10
-4.15
 20
8.5
 10
-4.15
 20
8.600000000000001
 10
-4.15
 20
8.7
 10
-4.15
 20
8.8
 10
-4.15
 20
8.899999999999999
 10
-4.15
 20
9.0
 10
-4.15
 20
9.100000000000001
 10
-4.15
 20
9.2
 10
-4.15
 20
9.3
 10
-4.15
 20
9.399999999999999
 10
-4.15
 20
9.5
 10
-4.15
 20
9.600000000000001
 10
-4.15
 20
9.7
 10
-4.15
 20
9.8
 10
-4.15
 20
9.899999999999999
 10
-4.15
 20
10.0
 10
-4.15
 20
10.100000000000001
 10
-4.15
 20
10.2
 10
-4.15
 20
10.3
 10
-4.15
 20
10.399999999999999
 10
-4.15
 20
10.5
 10
-4.15
 20
10.600000000000001
 10
-4.15
 20
10.7
 10
-4.15
 20
10.8
 10
-4.15
 20
10.899999999999999
 10
-4.15
 20
11.0
  0
LWPOLYLINE
  5
32
330
17
100
AcDbEntity
  8
0
100
AcDbPolyline
 90
51
 70
0
 10
-11.85
 20
6.0
 10
-11.85
 20
6.100000000000001
 10
-11.85
 20
6.199999999999999
 10
-11.85
 20
6.300000000000001
 10
-11.85
 20
6.399999999999999
 10
-11.85
 20
6.5
 10
-11.85
 20
6.600000000000001
 10
-11.85
 20
6.699999999999999
 10
-11.85
 20
6.800000000000001
 10
-11.85
 20
6.899999999999999
 10
-11.85
 20
7.0
 10
-11.85
 20
7.100000000000001
 10
-11.85
 20
7.199999999999999
 10
-11.85
 20
7.300000000000001
 10
-11.85
 20
7.399999999999999
 10
-11.85
 20
7.5
 10
-11.85
 20
7.600000000000001
 10
-11.85
 20
7.699999999999999
 10
-11.85
 20
7.800000000000001
 10
-11.85
 20
7.899999999999999
 10
-11.85
 20
8.0
 10
-11.85
 20
8.100000000000001
 10
-11.85
 20
8.2
 10
-11.85
 20
8.3
 10
-11.85
 20
8.399999999999999
 10
-11.85
 20
8.5
 10
-11.85
 20
8.600000000000001
 10
-11.85
 20
8.7
 10
-11.85
 20
8.8
 10
-11.85
 20
8.899999999999999
 10
-11.85
 20
9.0
 10
-11.85
 20
9.100000000000001
 10
-11.85
 20
9.2
 10
-11.85
 20
9.3
 10
-11.85
 20
9.399999999999999
 10
-11.85
 20
9.5
 10
-11.85
 20
9.600000000000001
 10
-11.85
 20
9.7
 10
-11.85
 20
9.8
 10
-11.85
 20
9.899999999999999
 10
-11.85
 20
10.0
 10
-11.85
 20
10.100000000000001
 10
-11.85
 20
10.2
 10
-11.85
 20
10.3
 10
-11.85
 20
10.399999999999999
 10
-11.85
 20
10.5
 10
-11.85
 20
10.600000000000001
 10
-11.85
 20
10.7
 10
-11.85
 20
10.8
 10
-11.85
 20
10.899999999999999
 10
-11.85
 20
11.0
  0
LWPOLYLINE
  5
33
330
17
100
AcDbEntity
  8
0
100
AcDbPolyline
 90
51
 70
0
 10
0.0
 20
11.0
 10
0.0
 20
10.56
 10
0.0
 20
10.12
 10
0.0
 20
9.68
 10
0.0
 20
9.24
 10
0.0
 20
8.8
 10
0.0
 20
8.36
 10
0.0
 20
7.92
 10
0.0
 20
7.48
 10
0.0
 20
7.04
 10
0.0
 20
6.6
 10
0.0
 20
6.16
 10
0.0
 20
5.72
 10
0.0
 20
5.28
 10
0.0
 20
4.84
 10
0.0
 20
4.4
 10
0.0
 20
3.96
 10
0.0
 20
3.5199999999999996
 10
0.0
 20
3.08
 10
0.0
 20
2.6400000000000006
 10
0.0
 20
2.1999999999999993
 10
0.0
 20
1.7599999999999998
 10
0.0
 20
1.3200000000000003
 10
0.0
 20
0.8800000000000008
 10
0.0
 20
0.4399999999999995
 10
0.0
 20
0.0
 10
0.0
 20
-0.4399999999999995
 10
0.0
 20
-0.8800000000000008
 10
0.0
 20
-1.3200000000000003
 10
0.0
 20
-1.7599999999999998
 10
0.0
 20
-2.1999999999999993
 10
0.0
 20
-2.6400000000000006
 10
0.0
 20
-3.08
 10
0.0
 20
-3.5199999999999996
 10
0.0
 20
-3.960000000000001
 10
0.0
 20
-4.4
 10
0.0
 20
-4.84
 10
0.0
 20
-5.280000000000001
 10
0.0
 20
-5.719999999999999
 10
0.0
 20
-6.16
 10
0.0
 20
-6.600000000000001
 10
0.0
 20
-7.039999999999999
 10
0.0
 20
-7.48
 10
0.0
 20
-7.920000000000002
 10
0.0
 20
-8.36
 10
0.0
 20
-8.8
 10
0.0
 20
-9.239999999999998
 10
0.0
 20
-9.68
 10
0.0
 20
-10.120000000000001
 10
0.0
 20
-10.559999999999999
 10
0.0
 20
-11.0
  0
LWPOLYLINE
  5
34
330
17
100
AcDbEntity
  8
0
100
AcDbPolyline
 90
51
 70
0
 10
-8.0
 20
-6.0
 10
-7.84
 20
-6.0
 10
-7.68
 20
-6.0
 10
-7.52
 20
-6.0
 10
-7.36
 20
-6.0
 10
-7.2
 20
-6.0
 10
-7.04
 20
-6.0
 10
-6.88
 20
-6.0
 10
-6.72
 20
-6.0
 10
-6.5600000000000005
 20
-6.0
 10
-6.4
 20
-6.0
 10
-6.24
 20
-6.0
 10
-6.08
 20
-6.0
 10
-5.92
 20
-6.0
 10
-5.76
 20
-6.0
 10
-5.6
 20
-6.0
 10
-5.4399999999999995
 20
-6.0
 10
-5.279999999999999
 20
-6.0
 10
-5.12
 20
-6.0
 10
-4.96
 20
-6.0
 10
-4.8
 20
-6.0
 10
-4.640000000000001
 20
-6.0
 10
-4.48
 20
-6.0
 10
-4.32
 20
-6.0
 10
-4.16
 20
-6.0
 10
-4.0
 20
-6.0
 10
-3.84
 20
-6.0
 10
-3.6799999999999997
 20
-6.0
 10
-3.5199999999999996
 20
-6.0
 10
-3.3600000000000003
 20
-6.0
 10
-3.2
 20
-6.0
 10
-3.04
 20
-6.0
 10
-2.88
 20
-6.0
 10
-2.7199999999999998
 20
-6.0
 10
-2.5599999999999996
 20
-6.0
 10
-2.4000000000000004
 20
-6.0
 10
-2.24
 20
-6.0
 10
-2.08
 20
-6.0
 10
-1.92
 20
-6.0
 10
-1.7599999999999998
 20
-6.0
 10
-1.5999999999999996
 20
-6.0
 10
-1.4400000000000004
 20
-6.0
 10
-1.2800000000000002
 20
-6.0
 10
-1.12
 20
-6.0
 10
-0.96
 20
-6.0
 10
-0.7999999999999998
 20
-6.0
 10
-0.6399999999999997
 20
-6.0
 10
-0.4800000000000004
 20
-6.0
 10
-0.3200000000000003
 20
-6.0
 10
-0.16000000000000014
 20
-6.0
 10
0.0
 20
-6.0
  0
LWPOLYLINE
  5
35
330
17
100
AcDbEntity
  8
0
100
AcDbPolyline
 90
51
 70
0
 10
-15.0
 20
-6.0
 10
-14.987675931390756
 20
-6.0
 10
-14.975351862781512
 20
-6.0
 10
-14.963027794172268
 20
-6.0
 10
-14.940206659175107
 20
-6.0
 10
-14.903389435660726
 20
-6.0
 10
-14.866572212146345
 20
-6.0
 10
-14.829754988631963
 20
-6.0
 10
-14.772340487725359
 20
-6.0
 10
-14.711493107253386
 20
-6.0
 10
-14.650645726781411
 20
-6.0
 10
-14.583151213211242
 20
-6.0
 10
-14.499038866895583
 20
-6.0
 10
-14.414926520579924
 20
-6.0
 10
-14.330814174264265
 20
-6.0
 10
-14.230839539173147
 20
-6.0
 10
-14.12451998857184
 20
-6.0
 10
-14.018200437970536
 20
-6.0
 10
-13.908899433905118
 20
-6.0
 10
-13.78170970905502
 20
-6.0
 10
-13.65451998420492
 20
-6.0
 10
-13.527330259354823
 20
-6.0
 10
-13.389128711840948
 20
-6.0
 10
-13.242668297329244
 20
-6.0
 10
-13.096207882817538
 20
-6.0
 10
-12.949747468305834
 20
-6.0
 10
-12.785858188823317
 20
-6.0
 10
-12.621968909340803
 20
-6.0
 10
-12.458079629858286
 20
-6.0
 10
-12.287604123722682
 20
-6.0
 10
-12.108346982049625
 20
-6.0
 10
-11.929089840376566
 20
-6.0
 10
-11.749832698703505
 20
-6.0
 10
-11.559335328779087
 20
-6.0
 10
-11.36696458747944
 20
-6.0
 10
-11.174593846179796
 20
-6.0
 10
-10.979167554611967
 20
-6.0
 10
-10.776102387373681
 20
-6.0
 10
-10.573037220135395
 20
-6.0
 10
-10.36997205289711
 20
-6.0
 10
-10.161092054487776
 20
-6.0
 10
-9.949886123610026
 20
-6.0
 10
-9.738680192732273
 20
-6.0
 10
-9.526690729495359
 20
-6.0
 10
-9.310000072103467
 20
-6.0
 10
-9.093309414711573
 20
-6.0
 10
-8.876618757319683
 20
-6.0
 10
-8.65835111948745
 20
-6.0
 10
-8.438900746324968
 20
-6.0
 10
-8.219450373162484
 20
-6.0
 10
-8.0
 20
-6.0
  0
LWPOLYLINE
  5
36
330
17
100
AcDbEntity
  8
0
100
AcDbPolyline
 90
51
 70
0
 10
-8.0
 20
-11.0
 10
-7.879302294760635
 20
-11.0
 10
-7.758604589521268
 20
-11.0
 10
-7.637906884281903
 20
-11.0
 10
-7.5178596834741755
 20
-11.0
 10
-7.398679821908635
 20
-11.0
 10
-7.279499960343094
 20
-11.0
 10
-7.160320098777552
 20
-11.0
 10
-7.04372589399725
 20
-11.0
 10
-6.927562632014486
 20
-11.0
 10
-6.811399370031724
 20
-11.0
 10
-6.696515370906591
 20
-11.0
 10
-6.584829528925533
 20
-11.0
 10
-6.473143686944476
 20
-11.0
 10
-6.361457844963417
 20
-11.0
 10
-6.253973384601112
 20
-11.0
 10
-6.1481694768863075
 20
-11.0
 10
-6.042365569171501
 20
-11.0
 10
-5.937592015713071
 20
-11.0
 10
-5.8390005877928886
 20
-11.0
 10
-5.740409159872708
 20
-11.0
 10
-5.641817731952527
 20
-11.0
 10
-5.548056203577943
 20
-11.0
 10
-5.457917099862559
 20
-11.0
 10
-5.367777996147175
 20
-11.0
 10
-5.277638892431792
 20
-11.0
 10
-5.197085664450355
 20
-11.0
 10
-5.1165324364689155
 20
-11.0
 10
-5.035979208487477
 20
-11.0
 10
-4.959968357354847
 20
-11.0
 10
-4.890014008687293
 20
-11.0
 10
-4.82005966001974
 20
-11.0
 10
-4.750105311352186
 20
-11.0
 10
-4.689989759116205
 20
-11.0
 10
-4.631514006285488
 20
-11.0
 10
-4.57303825345477
 20
-11.0
 10
-4.518052204154655
 20
-11.0
 10
-4.471790413681042
 20
-11.0
 10
-4.42552862320743
 20
-11.0
 10
-4.379266832733817
 20
-11.0
 10
-4.342144850270224
 20
-11.0
 10
-4.308678791010639
 20
-11.0
 10
-4.275212731751053
 20
-11.0
 10
-4.243634756252421
 20
-11.0
 10
-4.223385283319511
 20
-11.0
 10
-4.203135810386602
 20
-11.0
 10
-4.182886337453692
 20
-11.0
 10
-4.1703347132052535
 20
-11.0
 10
-4.16355647547017
 20
-11.0
 10
-4.156778237735085
 20
-11.0
 10
-4.15
 20
-11.0
  0
LWPOLYLINE
  5
37
330
17
100
AcDbEntity
  8
0
100
AcDbPolyline
 90
51
 70
0
 10
-11.85
 20
-11.0
 10
-11.843221762264916
 20
-11.0
 10
-11.83644352452983
 20
-11.0
 10
-11.829665286794746
 20
-11.0
 10
-11.817113662546308
 20
-11.0
 10
-11.7968641896134
 20
-11.0
 10
-11.776614716680488
 20
-11.0
 10
-11.75636524374758
 20
-11.0
 10
-11.724787268248948
 20
-11.0
 10
-11.691321208989361
 20
-11.0
 10
-11.657855149729777
 20
-11.0
 10
-11.620733167266183
 20
-11.0
 10
-11.574471376792571
 20
-11.0
 10
-11.52820958631896
 20
-11.0
 10
-11.481947795845347
 20
-11.0
 10
-11.426961746545231
 20
-11.0
 10
-11.368485993714511
 20
-11.0
 10
-11.310010240883795
 20
-11.0
 10
-11.249894688647815
 20
-11.0
 10
-11.179940339980261
 20
-11.0
 10
-11.109985991312708
 20
-11.0
 10
-11.040031642645154
 20
-11.0
 10
-10.964020791512523
 20
-11.0
 10
-10.883467563531086
 20
-11.0
 10
-10.80291433554965
 20
-11.0
 10
-10.722361107568211
 20
-11.0
 10
-10.632222003852824
 20
-11.0
 10
-10.54208290013744
 20
-11.0
 10
-10.451943796422057
 20
-11.0
 10
-10.358182268047473
 20
-11.0
 10
-10.259590840127293
 20
-11.0
 10
-10.160999412207113
 20
-11.0
 10
-10.062407984286933
 20
-11.0
 10
-9.957634430828502
 20
-11.0
 10
-9.851830523113698
 20
-11.0
 10
-9.746026615398888
 20
-11.0
 10
-9.638542155036582
 20
-11.0
 10
-9.526856313055525
 20
-11.0
 10
-9.415170471074468
 20
-11.0
 10
-9.30348462909341
 20
-11.0
 10
-9.188600629968278
 20
-11.0
 10
-9.072437367985515
 20
-11.0
 10
-8.956274106002754
 20
-11.0
 10
-8.839679901222452
 20
-11.0
 10
-8.72050003965691
 20
-11.0
 10
-8.60132017809137
 20
-11.0
 10
-8.482140316525824
 20
-11.0
 10
-8.362093115718096
 20
-11.0
 10
-8.241395410478733
 20
-11.0
 10
-8.120697705239367
 20
-11.0
 10
-8.000000000000002
 20
-11.0
  0
LWPOLYLINE
  5
38
330
17
100
AcDbEntity
  8
0
100
AcDbPolyline
 90
51
 70
0
 10
-8.0
 20
11.0
 10
-7.879302294760635
 20
11.0
 10
-7.758604589521268
 20
11.0
 10
-7.637906884281903
 20
11.0
 10
-7.5178596834741755
 20
11.0
 10
-7.398679821908635
 20
11.0
 10
-7.279499960343094
 20
11.0
 10
-7.160320098777552
 20
11.0
 10
-7.04372589399725
 20
11.0
 10
-6.927562632014486
 20
11.0
 10
-6.811399370031724
 20
11.0
 10
-6.696515370906591
 20
11.0
 10
-6.584829528925533
 20
11.0
 10
-6.473143686944476
 20
11.0
 10
-6.361457844963417
 20
11.0
 10
-6.253973384601112
 20
11.0
 10
-6.1481694768863075
 20
11.0
 10
-6.042365569171501
 20
11.0
 10
-5.937592015713071
 20
11.0
 10
-5.8390005877928886
 20
11.0
 10
-5.740409159872708
 20
11.0
 10
-5.641817731952527
 20
11.0
 10
-5.548056203577943
 20
11.0
 10
-5.457917099862559
 20
11.0
 10
-5.367777996147175
 20
11.0
 10
-5.277638892431792
 20
11.0
 10
-5.197085664450355
 20
11.0
 10
-5.1165324364689155
 20
11.0
 10
-5.035979208487477
 20
11.0
 10
-4.959968357354847
 20
11.0
 10
-4.890014008687293
 20
11.0
 10
-4.82005966001974
 20
11.0
 10
-4.750105311352186
 20
11.0
 10
-4.689989759116205
 20
11.0
 10
-4.631514006285488
 20
11.0
 10
-4.57303825345477
 20
11.0
 10
-4.518052204154655
 20
11.0
 10
-4.471790413681042
 20
11.0
 10
-4.42552862320743
 20
11.0
 10
-4.379266832733817
 20
11.0
 10
-4.342144850270224
 20
11.0
 10
-4.308678791010639
 20
11.0
 10
-4.275212731751053
 20
11.0
 10
-4.243634756252421
 20
11.0
 10
-4.223385283319511
 20
11.0
 10
-4.203135810386602
 20
11.0
 10
-4.182886337453692
 20
11.0
 10
-4.1703347132052535
 20
11.0
 10
-4.16355647547017
 20
11.0
 10
-4.156778237735085
 20
11.0
 10
-4.15
 20
11.0
  0
LWPOLYLINE
  5
39
330
17
100
AcDbEntity
  8
0
100
AcDbPolyline
 90
51
 70
0
 10
-11.85
 20
11.0
 10
-11.843221762264916
 20
11.0
 10
-11.83644352452983
 20
11.0
 10
-11.829665286794746
 20
11.0
 10
-11.817113662546308
 20
11.0
 10
-11.7968641896134
 20
11.0
 10
-11.776614716680488
 20
11.0
 10
-11.75636524374758
 20
11.0
 10
-11.724787268248948
 20
11.0
 10
-11.691321208989361
 20
11.0
 10
-11.657855149729777
 20
11.0
 10
-11.620733167266183
 20
11.0
 10
-11.574471376792571
 20
11.0
 10
-11.52820958631896
 20
11.0
 10
-11.481947795845347
 20
11.0
 10
-11.426961746545231
 20
11.0
 10
-11.368485993714511
 20
11.0
 10
-11.310010240883795
 20
11.0
 10
-11.249894688647815
 20
11.0
 10
-11.179940339980261
 20
11.0
 10
-11.109985991312708
 20
11.0
 10
-11.040031642645154
 20
11.0
 10
-10.964020791512523
 20
11.0
 10
-10.883467563531086
 20
11.0
 10
-10.80291433554965
 20
11.0
 10
-10.722361107568211
 20
11.0
 10
-10.632222003852824
 20
11.0
 10
-10.54208290013744
 20
11.0
 10
-10.451943796422057
 20
11.0
 10
-10.358182268047473
 20
11.0
 10
-10.259590840127293
 20
11.0
 10
-10.160999412207113
 20
11.0
 10
-10.062407984286933
 20
11.0
 10
-9.957634430828502
 20
11.0
 10
-9.851830523113698
 20
11.0
 10
-9.746026615398888
 20
11.0
 10
-9.638542155036582
 20
11.0
 10
-9.526856313055525
 20
11.0
 10
-9.415170471074468
 20
11.0
 10
-9.30348462909341
 20
11.0
 10
-9.188600629968278
 20
11.0
 10
-9.072437367985515
 20
11.0
 10
-8.956274106002754
 20
11.0
 10
-8.839679901222452
 20
11.0
 10
-8.72050003965691
 20
11.0
 10
-8.60132017809137
 20
11.0
 10
-8.482140316525824
 20
11.0
 10
-8.362093115718096
 20
11.0
 10
-8.241395410478733
 20
11.0
 10
-8.120697705239367
 20
11.0
 10
-8.000000000000002
 20
11.0
  0
LWPOLYLINE
  5
3A
330
17
100
AcDbEntity
  8
0
100
AcDbPolyline
 90
51
 70
0
 10
-15.0
 20
6.0
 10
-14.987675931390756
 20
6.0
 10
-14.975351862781512
 20
6.0
 10
-14.963027794172268
 20
6.0
 10
-14.940206659175107
 20
6.0
 10
-14.903389435660726
 20
6.0
 10
-14.866572212146345
 20
6.0
 10
-14.829754988631963
 20
6.0
 10
-14.772340487725359
 20
6.0
 10
-14.711493107253386
 20
6.0
 10
-14.650645726781411
 20
6.0
 10
-14.583151213211242
 20
6.0
 10
-14.499038866895583
 20
6.0
 10
-14.414926520579924
 20
6.0
 10
-14.330814174264265
 20
6.0
 10
-14.230839539173147
 20
6.0
 10
-14.12451998857184
 20
6.0
 10
-14.018200437970536
 20
6.0
 10
-13.908899433905118
 20
6.0
 10
-13.78170970905502
 20
6.0
 10
-13.65451998420492
 20
6.0
 10
-13.527330259354823
 20
6.0
 10
-13.389128711840948
 20
6.0
 10
-13.242668297329244
 20
6.0
 10
-13.096207882817538
 20
6.0
 10
-12.949747468305834
 20
6.0
 10
-12.785858188823317
 20
6.0
 10
-12.621968909340803
 20
6.0
 10
-12.458079629858286
 20
6.0
 10
-12.287604123722682
 20
6.0
 10
-12.108346982049625
 20
6.0
 10
-11.929089840376566
 20
6.0
 10
-11.749832698703505
 20
6.0
 10
-11.559335328779087
 20
6.0
 10
-11.36696458747944
 20
6.0
 10
-11.174593846179796
 20
6.0
 10
-10.979167554611967
 20
6.0
 10
-10.776102387373681
 20
6.0
 10
-10.573037220135395
 20
6.0
 10
-10.36997205289711
 20
6.0
 10
-10.161092054487776
 20
6.0
 10
-9.949886123610026
 20
6.0
 10
-9.738680192732273
 20
6.0
 10
-9.526690729495359
 20
6.0
 10
-9.310000072103467
 20
6.0
 10
-9.093309414711573
 20
6.0
 10
-8.876618757319683
 20
6.0
 10
-8.65835111948745
 20
6.0
 10
-8.438900746324968
 20
6.0
 10
-8.219450373162484
 20
6.0
 10
-8.0
 20
6.0
  0
LWPOLYLINE
  5
3B
330
17
100
AcDbEntity
  8
0
100
AcDbPolyline
 90
51
 70
0
 10
-8.0
 20
6.0
 10
-7.84
 20
6.0
 10
-7.68
 20
6.0
 10
-7.52
 20
6.0
 10
-7.36
 20
6.0
 10
-7.2
 20
6.0
 10
-7.04
 20
6.0
 10
-6.88
 20
6.0
 10
-6.72
 20
6.0
 10
-6.5600000000000005
 20
6.0
 10
-6.4
 20
6.0
 10
-6.24
 20
6.0
 10
-6.08
 20
6.0
 10
-5.92
 20
6.0
 10
-5.76
 20
6.0
 10
-5.6
 20
6.0
 10
-5.4399999999999995
 20
6.0
 10
-5.279999999999999
 20
6.0
 10
-5.12
 20
6.0
 10
-4.96
 20
6.0
 10
-4.8
 20
6.0
 10
-4.640000000000001
 20
6.0
 10
-4.48
 20
6.0
 10
-4.32
 20
6.0
 10
-4.16
 20
6.0
 10
-4.0
 20
6.0
 10
-3.84
 20
6.0
 10
-3.6799999999999997
 20
6.0
 10
-3.5199999999999996
 20
6.0
 10
-3.3600000000000003
 20
6.0
 10
-3.2
 20
6.0
 10
-3.04
 20
6.0
 10
-2.88
 20
6.0
 10
-2.7199999999999998
 20
6.0
 10
-2.5599999999999996
 20
6.0
 10
-2.4000000000000004
 20
6.0
 10
-2.24
 20
6.0
 10
-2.08
 20
6.0
 10
-1.92
 20
6.0
 10
-1.7599999999999998
 20
6.0
 10
-1.5999999999999996
 20
6.0
 10
-1.4400000000000004
 20
6.0
 10
-1.2800000000000002
 20
6.0
 10
-1.12
 20
6.0
 10
-0.96
 20
6.0
 10
-0.7999999999999998
 20
6.0
 10
-0.6399999999999997
 20
6.0
 10
-0.4800000000000004
 20
6.0
 10
-0.3200000000000003
 20
6.0
 10
-0.16000000000000014
 20
6.0
 10
0.0
 20
6.0
  0
LWPOLYLINE
  5
3C
330
17
100
AcDbEntity
  8
0
100
AcDbPolyline
 90
51
 70
0
 10
-15.0
 20
-6.0
 10
-15.0
 20
-5.76
 10
-15.0
 20
-5.52
 10
-15.0
 20
-5.28
 10
-15.0
 20
-5.04
 10
-15.0
 20
-4.8
 10
-15.0
 20
-4.5600000000000005
 10
-15.0
 20
-4.32
 10
-15.0
 20
-4.08
 10
-15.0
 20
-3.84
 10
-15.0
 20
-3.6
 10
-15.0
 20
-3.36
 10
-15.0
 20
-3.12
 10
-15.0
 20
-2.88
 10
-15.0
 20
-2.64
 10
-15.0
 20
-2.4
 10
-15.0
 20
-2.16
 10
-15.0
 20
-1.92
 10
-15.0
 20
-1.6799999999999997
 10
-15.0
 20
-1.4400000000000004
 10
-15.0
 20
-1.2000000000000002
 10
-15.0
 20
-0.96
 10
-15.0
 20
-0.7199999999999998
 10
-15.0
 20
-0.4800000000000004
 10
-15.0
 20
-0.2400000000000002
 10
-15.0
 20
0.0
 10
-15.0
 20
0.2400000000000002
 10
-15.0
 20
0.4800000000000004
 10
-15.0
 20
0.7199999999999998
 10
-15.0
 20
0.96
 10
-15.0
 20
1.2000000000000002
 10
-15.0
 20
1.4400000000000004
 10
-15.0
 20
1.6799999999999997
 10
-15.0
 20
1.92
 10
-15.0
 20
2.16
 10
-15.0
 20
2.4000000000000004
 10
-15.0
 20
2.6400000000000006
 10
-15.0
 20
2.880000000000001
 10
-15.0
 20
3.119999999999999
 10
-15.0
 20
3.3599999999999994
 10
-15.0
 20
3.5999999999999996
 10
-15.0
 20
3.84
 10
-15.0
 20
4.08
 10
-15.0
 20
4.32
 10
-15.0
 20
4.5600000000000005
 10
-15.0
 20
4.800000000000001
 10
-15.0
 20
5.039999999999999
 10
-15.0
 20
5.279999999999999
 10
-15.0
 20
5.52
 10
-15.0
 20
5.76
 10
-15.0
 20
6.0
  0
LWPOLYLINE
  5
3D
330
17
100
AcDbEntity
  8
0
100
AcDbPolyline
 90
51
 70
0
 10
10.0
 20
11.0
 10
9.8
 20
11.0
 10
9.6
 20
11.0
 10
9.4
 20
11.0
 10
9.2
 20
11.0
 10
9.0
 20
11.0
 10
8.8
 20
11.0
 10
8.6
 20
11.0
 10
8.4
 20
11.0
 10
8.2
 20
11.0
 10
8.0
 20
11.0
 10
7.8
 20
11.0
 10
7.6
 20
11.0
 10
7.4
 20
11.0
 10
7.2
 20
11.0
 10
7.0
 20
11.0
 10
6.8
 20
11.0
 10
6.6
 20
11.0
 10
6.4
 20
11.0
 10
6.2
 20
11.0
 10
6.0
 20
11.0
 10
5.8
 20
11.0
 10
5.6
 20
11.0
 10
5.4
 20
11.0
 10
5.2
 20
11.0
 10
5.0
 20
11.0
 10
4.8
 20
11.0
 10
4.6
 20
11.0
 10
4.4
 20
11.0
 10
4.2
 20
11.0
 10
4.0
 20
11.0
 10
3.8
 20
11.0
 10
3.5999999999999996
 20
11.0
 10
3.4000000000000004
 20
11.0
 10
3.2
 20
11.0
 10
3.0
 20
11.0
 10
2.8
 20
11.0
 10
2.5999999999999996
 20
11.0
 10
2.4000000000000004
 20
11.0
 10
2.2
 20
11.0
 10
2.0
 20
11.0
 10
1.8000000000000007
 20
11.0
 10
1.5999999999999996
 20
11.0
 10
1.4000000000000004
 20
11.0
 10
1.1999999999999993
 20
11.0
 10
1.0
 20
11.0
 10
0.8000000000000007
 20
11.0
 10
0.5999999999999996
 20
11.0
 10
0.40000000000000036
 20
11.0
 10
0.1999999999999993
 20
11.0
 10
0.0
 20
11.0
  0
LWPOLYLINE
  5
3E
330
17
100
AcDbEntity
  8
0
100
AcDbPolyline
 90
51
 70
0
 10
10.0
 20
-11.0
 10
10.0
 20
-10.56
 10
10.0
 20
-10.12
 10
10.0
 20
-9.68
 10
10.0
 20
-9.24
 10
10.0
 20
-8.8
 10
10.0
 20
-8.36
 10
10.0
 20
-7.92
 10
10.0
 20
-7.48
 10
10.0
 20
-7.04
 10
10.0
 20
-6.6
 10
10.0
 20
-6.16
 10
10.0
 20
-5.72
 10
10.0
 20
-5.28
 10
10.0
 20
-4.84
 10
10.0
 20
-4.4
 10
10.0
 20
-3.96
 10
10.0
 20
-3.5199999999999996
 10
10.0
 20
-3.08
 10
10.0
 20
-2.6400000000000006
 10
10.0
 20
-2.1999999999999993
 10
10.0
 20
-1.7599999999999998
 10
10.0
 20
-1.3200000000000003
 10
10.0
 20
-0.8800000000000008
 10
10.0
 20
-0.4399999999999995
 10
10.0
 20
0.0
 10
10.0
 20
0.4399999999999995
 10
10.0
 20
0.8800000000000008
 10
10.0
 20
1.3200000000000003
 10
10.0
 20
1.7599999999999998
 10
10.0
 20
2.1999999999999993
 10
10.0
 20
2.6400000000000006
 10
10.0
 20
3.08
 10
10.0
 20
3.5199999999999996
 10
10.0
 20
3.960000000000001
 10
10.0
 20
4.4
 10
10.0
 20
4.84
 10
10.0
 20
5.280000000000001
 10
10.0
 20
5.719999999999999
 10
10.0
 20
6.16
 10
10.0
 20
6.600000000000001
 10
10.0
 20
7.039999999999999
 10
10.0
 20
7.48
 10
10.0
 20
7.920000000000002
 10
10.0
 20
8.36
 10
10.0
 20
8.8
 10
10.0
 20
9.239999999999998
 10
10.0
 20
9.68
 10
10.0
 20
10.120000000000001
 10
10.0
 20
10.559999999999999
 10
10.0
 20
11.0
  0
LWPOLYLINE
  5
3F
330
17
100
AcDbEntity
  8
0
100
AcDbPolyline
 90
51
 70
0
 10
0.0
 20
-11.0
 10
0.2
 20
-11.0
 10
0.4
 20
-11.0
 10
0.6
 20
-11.0
 10
0.8
 20
-11.0
 10
1.0
 20
-11.0
 10
1.2
 20
-11.0
 10
1.4
 20
-11.0
 10
1.6
 20
-11.0
 10
1.8
 20
-11.0
 10
2.0
 20
-11.0
 10
2.2
 20
-11.0
 10
2.4
 20
-11.0
 10
2.6
 20
-11.0
 10
2.8
 20
-11.0
 10
3.0
 20
-11.0
 10
3.2
 20
-11.0
 10
3.4
 20
-11.0
 10
3.6
 20
-11.0
 10
3.8
 20
-11.0
 10
4.0
 20
-11.0
 10
4.2
 20
-11.0
 10
4.4
 20
-11.0
 10
4.6
 20
-11.0
 10
4.8
 20
-11.0
 10
5.0
 20
-11.0
 10
5.2
 20
-11.0
 10
5.4
 20
-11.0
 10
5.6
 20
-11.0
 10
5.8
 20
-11.0
 10
6.0
 20
-11.0
 10
6.2
 20
-11.0
 10
6.4
 20
-11.0
 10
6.6
 20
-11.0
 10
6.8
 20
-11.0
 10
7.0
 20
-11.0
 10
7.2
 20
-11.0
 10
7.4
 20
-11.0
 10
7.6
 20
-11.0
 10
7.8
 20
-11.0
 10
8.0
 20
-11.0
 10
8.2
 20
-11.0
 10
8.4
 20
-11.0
 10
8.6
 20
-11.0
 10
8.8
 20
-11.0
 10
9.0
 20
-11.0
 10
9.2
 20
-11.0
 10
9.4
 20
-11.0
 10
9.6
 20
-11.0
 10
9.8
 20
-11.0
 10
10.0
 20
-11.0
  0
ENDSEC
  0
SECTION
  2
OBJECTS
  0
DICTIONARY
  5
A
330
0
100
AcDbDictionary
280
0
281
1
  3
ACAD_COLOR
350
B
  3
ACAD_GROUP
350
C
  3
ACAD_LAYOUT
350
D
  3
ACAD_MATERIAL
350
E
  3
ACAD_MLEADERSTYLE
350
F
  3
ACAD_MLINESTYLE
350
10
  3
ACAD_PLOTSETTINGS
350
11
  3
ACAD_PLOTSTYLENAME
350
12
  3
ACAD_SCALELIST
350
14
  3
ACAD_TABLESTYLE
350
15
  3
ACAD_VISUALSTYLE
350
16
  3
EZDXF_META
350
2D
  0
DICTIONARY
  5
B
330
A
100
AcDbDictionary
280
0
281
1
  0
DICTIONARY
  5
C
330
A
100
AcDbDictionary
280
0
281
1
  0
DICTIONARY
  5
D
330
A
100
AcDbDictionary
280
0
281
1
  3
Model
350
1A
  3
Layout1
350
1E
  0
DICTIONARY
  5
E
330
A
100
AcDbDictionary
280
0
281
1
  3
ByBlock
350
1F
  3
ByLayer
350
20
  3
Global
350
21
  0
DICTIONARY
  5
F
330
A
100
AcDbDictionary
280
0
281
1
  3
Standard
350
2C
  0
DICTIONARY
  5
10
330
A
100
AcDbDictionary
280
0
281
1
  3
Standard
350
22
  0
DICTIONARY
  5
11
330
A
100
AcDbDictionary
280
0
281
1
  0
ACDBDICTIONARYWDFLT
  5
12
330
A
100
AcDbDictionary
280
0
281
1
  3
Normal
350
13
100
AcDbDictionaryWithDefault
340
13
  0
ACDBPLACEHOLDER
  5
13
330
12
  0
DICTIONARY
  5
14
330
A
100
AcDbDictionary
280
0
281
1
  0
DICTIONARY
  5
15
330
A
100
AcDbDictionary
280
0
281
1
  0
DICTIONARY
  5
16
330
A
100
AcDbDictionary
280
0
281
1
  0
LAYOUT
  5
1A
330
D
100
AcDbPlotSettings
  1

  2
Adobe PDF
  4
A3
  6

 40
7.5
 41
20.0
 42
7.5
 43
20.0
 44
420.0
 45
297.0
 46
0.0
 47
0.0
 48
0.0
 49
0.0
140
0.0
141
0.0
142
1.0
143
1.0
 70
1024
 72
1
 73
0
 74
5
  7

 75
16
 76
0
 77
2
 78
300
147
1.0
148
0.0
149
0.0
100
AcDbLayout
  1
Model
 70
1
 71
0
 10
0.0
 20
0.0
 11
420.0
 21
297.0
 12
0.0
 22
0.0
 32
0.0
 14
1e+20
 24
1e+20
 34
1e+20
 15
-1e+20
 25
-1e+20
 35
-1e+20
146
0.0
 13
0.0
 23
0.0
 33
0.0
 16
1.0
 26
0.0
 36
0.0
 17
0.0
 27
1.0
 37
0.0
 76
1
330
17
  0
LAYOUT
  5
1E
330
D
100
AcDbPlotSettings
  1

  2
Adobe PDF
  4
A3
  6

 40
7.5
 41
20.0
 42
7.5
 43
20.0
 44
420.0
 45
297.0
 46
0.0
 47
0.0
 48
0.0
 49
0.0
140
0.0
141
0.0
142
1.0
143
1.0
 70
0
 72
1
 73
0
 74
5
  7

 75
16
 76
0
 77
2
 78
300
147
1.0
148
0.0
149
0.0
100
AcDbLayout
  1
Layout1
 70
1
 71
1
 10
0.0
 20
0.0
 11
420.0
 21
297.0
 12
0.0
 22
0.0
 32
0.0
 14
1e+20
 24
1e+20
 34
1e+20
 15
-1e+20
 25
-1e+20
 35
-1e+20
146
0.0
 13
0.0
 23
0.0
 33
0.0
 16
1.0
 26
0.0
 36
0.0
 17
0.0
 27
1.0
 37
0.0
 76
1
330
1B
  0
MATERIAL
  5
1F
102
{ACAD_REACTORS
330
E
102
}
330
E
100
AcDbMaterial
  1
ByBlock
  2

 70
0
 40
1.0
 71
1
 41
1.0
 91
-1023410177
 42
1.0
 72
1
  3

 73
1
 74
1
 75
1
 44
0.5
 73
0
 45
1.0
 46
1.0
 77
1
  4

 78
1
 79
1
170
1
 48
1.0
171
1
  6

172
1
173
1
174
1
140
1.0
141
1.0
175
1
  7

176
1
177
1
178
1
143
1.0
179
1
  8

270
1
271
1
272
1
145
1.0
146
1.0
273
1
  9

274
1
275
1
276
1
 42
1.0
 72
1
  3

 73
1
 74
1
 75
1
 94
63
  0
MATERIAL
  5
20
102
{ACAD_REACTORS
330
E
102
}
330
E
100
AcDbMaterial
  1
ByLayer
  2

 70
0
 40
1.0
 71
1
 41
1.0
 91
-1023410177
 42
1.0
 72
1
  3

 73
1
 74
1
 75
1
 44
0.5
 73
0
 45
1.0
 46
1.0
 77
1
  4

 78
1
 79
1
170
1
 48
1.0
171
1
  6

172
1
173
1
174
1
140
1.0
141
1.0
175
1
  7

176
1
177
1
178
1
143
1.0
179
1
  8

270
1
271
1
272
1
145
1.0
146
1.0
273
1
  9

274
1
275
1
276
1
 42
1.0
 72
1
  3

 73
1
 74
1
 75
1
 94
63
  0
MATERIAL
  5
21
102
{ACAD_REACTORS
330
E
102
}
330
E
100
AcDbMaterial
  1
Global
  2

 70
0
 40
1.0
 71
1
 41
1.0
 91
-1023410177
 42
1.0
 72
1
  3

 73
1
 74
1
 75
1
 44
0.5
 73
0
 45
1.0
 46
1.0
 77
1
  4

 78
1
 79
1
170
1
 48
1.0
171
1
  6

172
1
173
1
174
1
140
1.0
141
1.0
175
1
  7

176
1
177
1
178
1
143
1.0
179
1
  8

270
1
271
1
272
1
145
1.0
146
1.0
273
1
  9

274
1
275
1
276
1
 42
1.0
 72
1
  3

 73
1
 74
1
 75
1
 94
63
  0
MLINESTYLE
  5
22
102
{ACAD_REACTORS
330
10
102
}
330
10
100
AcDbMlineStyle
  2
Standard
 70
0
  3

 62
256
 51
90.0
 52
90.0
 71
2
 49
0.5
 62
256
  6
BYLAYER
 49
-0.5
 62
256
  6
BYLAYER
  0
MLEADERSTYLE
  5
2C
102
{ACAD_REACTORS
330
F
102
}
330
F
100
AcDbMLeaderStyle
179
2
170
2
171
1
172
0
 90
2
 40
0.0
 41
0.0
173
1
 91
-1056964608
 92
-2
290
1
 42
2.0
291
1
 43
8.0
  3
Standard
 44
4.0
300

342
29
174
1
175
1
176
0
178
1
 93
-1056964608
 45
4.0
292
0
297
0
 46
4.0
 94
-1056964608
 47
1.0
 49
1.0
140
1.0
294
1
141
0.0
177
0
142
1.0
295
0
296
0
143
3.75
271
0
272
9
273
9
  0
DICTIONARY
  5
2D
330
A
100
AcDbDictionary
281
1
  3
CREATED_BY_EZDXF
350
2E
  3
WRITTEN_BY_EZDXF
350
42
  0
DICTIONARYVAR
  5
2E
330
2D
100
DictionaryVariables
280
0
  1
1.0.3 @ 2025-05-29T09:41:24.929303+00:00
  0
DICTIONARYVAR
  5
42
330
2D
100
DictionaryVariables
280
0
  1
1.0.3 @ 2025-05-29T09:41:24.933811+00:00
  0
ENDSEC
  0
EOF
