  0
SECTION
  2
HEADER
  9
$ACADVER
  1
AC1027
  9
$ACADMAINTVER
 70
105
  9
$DWGCODEPAGE
  3
ANSI_1252
  9
$LASTSAVEDBY
  1
ezdxf
  9
$REQUIREDVERSIONS
160
0
  9
$INSBASE
 10
0.0
 20
0.0
 30
0.0
  9
$EXTMIN
 10
1e+20
 20
1e+20
 30
1e+20
  9
$EXTMAX
 10
-1e+20
 20
-1e+20
 30
-1e+20
  9
$LIMMIN
 10
0.0
 20
0.0
  9
$LIMMAX
 10
420.0
 20
297.0
  9
$ORTHOMODE
 70
0
  9
$REGENMODE
 70
1
  9
$FILLMODE
 70
1
  9
$QTEXTMODE
 70
0
  9
$MIRRTEXT
 70
1
  9
$LTSCALE
 40
1.0
  9
$ATTMODE
 70
1
  9
$TEXTSIZE
 40
2.5
  9
$TRACEWID
 40
1.0
  9
$TEXTSTYLE
  7
Standard
  9
$CLAYER
  8
0
  9
$CELTYPE
  6
ByLayer
  9
$CECOLOR
 62
256
  9
$CELTSCALE
 40
1.0
  9
$DISPSILH
 70
0
  9
$DIMSCALE
 40
1.0
  9
$DIMASZ
 40
2.5
  9
$DIMEXO
 40
0.625
  9
$DIMDLI
 40
3.75
  9
$DIMRND
 40
0.0
  9
$DIMDLE
 40
0.0
  9
$DIMEXE
 40
1.25
  9
$DIMTP
 40
0.0
  9
$DIMTM
 40
0.0
  9
$DIMTXT
 40
2.5
  9
$DIMCEN
 40
2.5
  9
$DIMTSZ
 40
0.0
  9
$DIMTOL
 70
0
  9
$DIMLIM
 70
0
  9
$DIMTIH
 70
0
  9
$DIMTOH
 70
0
  9
$DIMSE1
 70
0
  9
$DIMSE2
 70
0
  9
$DIMTAD
 70
1
  9
$DIMZIN
 70
8
  9
$DIMBLK
  1

  9
$DIMASO
 70
1
  9
$DIMSHO
 70
1
  9
$DIMPOST
  1

  9
$DIMAPOST
  1

  9
$DIMALT
 70
0
  9
$DIMALTD
 70
3
  9
$DIMALTF
 40
0.03937007874
  9
$DIMLFAC
 40
1.0
  9
$DIMTOFL
 70
1
  9
$DIMTVP
 40
0.0
  9
$DIMTIX
 70
0
  9
$DIMSOXD
 70
0
  9
$DIMSAH
 70
0
  9
$DIMBLK1
  1

  9
$DIMBLK2
  1

  9
$DIMSTYLE
  2
ISO-25
  9
$DIMCLRD
 70
0
  9
$DIMCLRE
 70
0
  9
$DIMCLRT
 70
0
  9
$DIMTFAC
 40
1.0
  9
$DIMGAP
 40
0.625
  9
$DIMJUST
 70
0
  9
$DIMSD1
 70
0
  9
$DIMSD2
 70
0
  9
$DIMTOLJ
 70
0
  9
$DIMTZIN
 70
8
  9
$DIMALTZ
 70
0
  9
$DIMALTTZ
 70
0
  9
$DIMUPT
 70
0
  9
$DIMDEC
 70
2
  9
$DIMTDEC
 70
2
  9
$DIMALTU
 70
2
  9
$DIMALTTD
 70
3
  9
$DIMTXSTY
  7
Standard
  9
$DIMAUNIT
 70
0
  9
$DIMADEC
 70
0
  9
$DIMALTRND
 40
0.0
  9
$DIMAZIN
 70
0
  9
$DIMDSEP
 70
44
  9
$DIMATFIT
 70
3
  9
$DIMFRAC
 70
0
  9
$DIMLDRBLK
  1

  9
$DIMLUNIT
 70
2
  9
$DIMLWD
 70
-2
  9
$DIMLWE
 70
-2
  9
$DIMTMOVE
 70
0
  9
$DIMFXL
 40
1.0
  9
$DIMFXLON
 70
0
  9
$DIMJOGANG
 40
0.785398163397
  9
$DIMTFILL
 70
0
  9
$DIMTFILLCLR
 70
0
  9
$DIMARCSYM
 70
0
  9
$DIMLTYPE
  6

  9
$DIMLTEX1
  6

  9
$DIMLTEX2
  6

  9
$DIMTXTDIRECTION
 70
0
  9
$LUNITS
 70
2
  9
$LUPREC
 70
4
  9
$SKETCHINC
 40
1.0
  9
$FILLETRAD
 40
10.0
  9
$AUNITS
 70
0
  9
$AUPREC
 70
2
  9
$MENU
  1
.
  9
$ELEVATION
 40
0.0
  9
$PELEVATION
 40
0.0
  9
$THICKNESS
 40
0.0
  9
$LIMCHECK
 70
0
  9
$CHAMFERA
 40
0.0
  9
$CHAMFERB
 40
0.0
  9
$CHAMFERC
 40
0.0
  9
$CHAMFERD
 40
0.0
  9
$SKPOLY
 70
0
  9
$TDCREATE
 40
2460825.778761574
  9
$TDUCREATE
 40
2458532.153996898
  9
$TDUPDATE
 40
2460825.778761574
  9
$TDUUPDATE
 40
2458532.1544311
  9
$TDINDWG
 40
0.0
  9
$TDUSRTIMER
 40
0.0
  9
$USRTIMER
 70
1
  9
$ANGBASE
 50
0.0
  9
$ANGDIR
 70
0
  9
$PDMODE
 70
0
  9
$PDSIZE
 40
0.0
  9
$PLINEWID
 40
0.0
  9
$SPLFRAME
 70
0
  9
$SPLINETYPE
 70
6
  9
$SPLINESEGS
 70
8
  9
$HANDSEED
  5
43
  9
$SURFTAB1
 70
6
  9
$SURFTAB2
 70
6
  9
$SURFTYPE
 70
6
  9
$SURFU
 70
6
  9
$SURFV
 70
6
  9
$UCSBASE
  2

  9
$UCSNAME
  2

  9
$UCSORG
 10
0.0
 20
0.0
 30
0.0
  9
$UCSXDIR
 10
1.0
 20
0.0
 30
0.0
  9
$UCSYDIR
 10
0.0
 20
1.0
 30
0.0
  9
$UCSORTHOREF
  2

  9
$UCSORTHOVIEW
 70
0
  9
$UCSORGTOP
 10
0.0
 20
0.0
 30
0.0
  9
$UCSORGBOTTOM
 10
0.0
 20
0.0
 30
0.0
  9
$UCSORGLEFT
 10
0.0
 20
0.0
 30
0.0
  9
$UCSORGRIGHT
 10
0.0
 20
0.0
 30
0.0
  9
$UCSORGFRONT
 10
0.0
 20
0.0
 30
0.0
  9
$UCSORGBACK
 10
0.0
 20
0.0
 30
0.0
  9
$PUCSBASE
  2

  9
$PUCSNAME
  2

  9
$PUCSORG
 10
0.0
 20
0.0
 30
0.0
  9
$PUCSXDIR
 10
1.0
 20
0.0
 30
0.0
  9
$PUCSYDIR
 10
0.0
 20
1.0
 30
0.0
  9
$PUCSORTHOREF
  2

  9
$PUCSORTHOVIEW
 70
0
  9
$PUCSORGTOP
 10
0.0
 20
0.0
 30
0.0
  9
$PUCSORGBOTTOM
 10
0.0
 20
0.0
 30
0.0
  9
$PUCSORGLEFT
 10
0.0
 20
0.0
 30
0.0
  9
$PUCSORGRIGHT
 10
0.0
 20
0.0
 30
0.0
  9
$PUCSORGFRONT
 10
0.0
 20
0.0
 30
0.0
  9
$PUCSORGBACK
 10
0.0
 20
0.0
 30
0.0
  9
$USERI1
 70
0
  9
$USERI2
 70
0
  9
$USERI3
 70
0
  9
$USERI4
 70
0
  9
$USERI5
 70
0
  9
$USERR1
 40
0.0
  9
$USERR2
 40
0.0
  9
$USERR3
 40
0.0
  9
$USERR4
 40
0.0
  9
$USERR5
 40
0.0
  9
$WORLDVIEW
 70
1
  9
$SHADEDGE
 70
3
  9
$SHADEDIF
 70
70
  9
$TILEMODE
 70
1
  9
$MAXACTVP
 70
64
  9
$PINSBASE
 10
0.0
 20
0.0
 30
0.0
  9
$PLIMCHECK
 70
0
  9
$PEXTMIN
 10
1e+20
 20
1e+20
 30
1e+20
  9
$PEXTMAX
 10
-1e+20
 20
-1e+20
 30
-1e+20
  9
$PLIMMIN
 10
0.0
 20
0.0
  9
$PLIMMAX
 10
420.0
 20
297.0
  9
$UNITMODE
 70
0
  9
$VISRETAIN
 70
1
  9
$PLINEGEN
 70
0
  9
$PSLTSCALE
 70
1
  9
$TREEDEPTH
 70
3020
  9
$CMLSTYLE
  2
Standard
  9
$CMLJUST
 70
0
  9
$CMLSCALE
 40
20.0
  9
$PROXYGRAPHICS
 70
1
  9
$MEASUREMENT
 70
1
  9
$CELWEIGHT
370
-1
  9
$ENDCAPS
280
0
  9
$JOINSTYLE
280
0
  9
$LWDISPLAY
290
0
  9
$INSUNITS
 70
6
  9
$HYPERLINKBASE
  1

  9
$STYLESHEET
  1

  9
$XEDIT
290
1
  9
$CEPSNTYPE
380
0
  9
$PSTYLEMODE
290
1
  9
$FINGERPRINTGUID
  2
{65D295D9-EB89-411E-9B6C-CB53B44F763F}
  9
$VERSIONGUID
  2
{FF2CFC05-7C32-4976-841A-EC41CFCBFE88}
  9
$EXTNAMES
290
1
  9
$PSVPSCALE
 40
0.0
  9
$OLESTARTUP
290
0
  9
$SORTENTS
280
127
  9
$INDEXCTL
280
0
  9
$HIDETEXT
280
1
  9
$XCLIPFRAME
280
0
  9
$HALOGAP
280
0
  9
$OBSCOLOR
 70
257
  9
$OBSLTYPE
280
0
  9
$INTERSECTIONDISPLAY
280
0
  9
$INTERSECTIONCOLOR
 70
257
  9
$DIMASSOC
280
2
  9
$PROJECTNAME
  1

  9
$CAMERADISPLAY
290
0
  9
$LENSLENGTH
 40
50.0
  9
$CAMERAHEIGHT
 40
0.0
  9
$STEPSPERSEC
 40
24.0
  9
$STEPSIZE
 40
100.0
  9
$3DDWFPREC
 40
2.0
  9
$PSOLWIDTH
 40
0.005
  9
$PSOLHEIGHT
 40
0.08
  9
$LOFTANG1
 40
1.570796326795
  9
$LOFTANG2
 40
1.570796326795
  9
$LOFTMAG1
 40
0.0
  9
$LOFTMAG2
 40
0.0
  9
$LOFTPARAM
 70
7
  9
$LOFTNORMALS
280
1
  9
$LATITUDE
 40
37.795
  9
$LONGITUDE
 40
-122.394
  9
$NORTHDIRECTION
 40
0.0
  9
$TIMEZONE
 70
-8000
  9
$LIGHTGLYPHDISPLAY
280
1
  9
$TILEMODELIGHTSYNCH
280
1
  9
$CMATERIAL
347
20
  9
$SOLIDHIST
280
0
  9
$SHOWHIST
280
1
  9
$DWFFRAME
280
2
  9
$DGNFRAME
280
2
  9
$REALWORLDSCALE
290
1
  9
$INTERFERECOLOR
 62
256
  9
$CSHADOW
280
0
  9
$SHADOWPLANELOCATION
 40
0.0
  0
ENDSEC
  0
SECTION
  2
CLASSES
  0
CLASS
  1
ACDBDICTIONARYWDFLT
  2
AcDbDictionaryWithDefault
  3
ObjectDBX Classes
 90
0
 91
0
280
0
281
0
  0
CLASS
  1
SUN
  2
AcDbSun
  3
SCENEOE
 90
1153
 91
0
280
0
281
0
  0
CLASS
  1
VISUALSTYLE
  2
AcDbVisualStyle
  3
ObjectDBX Classes
 90
4095
 91
0
280
0
281
0
  0
CLASS
  1
MATERIAL
  2
AcDbMaterial
  3
ObjectDBX Classes
 90
1153
 91
0
280
0
281
0
  0
CLASS
  1
SCALE
  2
AcDbScale
  3
ObjectDBX Classes
 90
1153
 91
0
280
0
281
0
  0
CLASS
  1
TABLESTYLE
  2
AcDbTableStyle
  3
ObjectDBX Classes
 90
4095
 91
0
280
0
281
0
  0
CLASS
  1
MLEADERSTYLE
  2
AcDbMLeaderStyle
  3
ACDB_MLEADERSTYLE_CLASS
 90
4095
 91
0
280
0
281
0
  0
CLASS
  1
DICTIONARYVAR
  2
AcDbDictionaryVar
  3
ObjectDBX Classes
 90
0
 91
0
280
0
281
0
  0
CLASS
  1
CELLSTYLEMAP
  2
AcDbCellStyleMap
  3
ObjectDBX Classes
 90
1152
 91
0
280
0
281
0
  0
CLASS
  1
MENTALRAYRENDERSETTINGS
  2
AcDbMentalRayRenderSettings
  3
SCENEOE
 90
1024
 91
0
280
0
281
0
  0
CLASS
  1
ACDBDETAILVIEWSTYLE
  2
AcDbDetailViewStyle
  3
ObjectDBX Classes
 90
1025
 91
0
280
0
281
0
  0
CLASS
  1
ACDBSECTIONVIEWSTYLE
  2
AcDbSectionViewStyle
  3
ObjectDBX Classes
 90
1025
 91
0
280
0
281
0
  0
CLASS
  1
RASTERVARIABLES
  2
AcDbRasterVariables
  3
ISM
 90
0
 91
0
280
0
281
0
  0
CLASS
  1
LAYOUT
  2
AcDbLayout
  3
ObjectDBX Classes
 90
0
 91
0
280
0
281
0
  0
CLASS
  1
ACDBPLACEHOLDER
  2
AcDbPlaceHolder
  3
ObjectDBX Classes
 90
0
 91
0
280
0
281
0
  0
ENDSEC
  0
SECTION
  2
TABLES
  0
TABLE
  2
VPORT
  5
8
330
0
100
AcDbSymbolTable
 70
1
  0
VPORT
  5
23
330
8
100
AcDbSymbolTableRecord
100
AcDbViewportTableRecord
  2
*Active
 70
0
 10
0.0
 20
0.0
 11
1.0
 21
1.0
 12
0.0
 22
0.0
 13
0.0
 23
0.0
 14
0.5
 24
0.5
 15
0.5
 25
0.5
 16
0.0
 26
0.0
 36
1.0
 17
0.0
 27
0.0
 37
0.0
 40
1000.0
 41
1.34
 42
50.0
 43
0.0
 44
0.0
 50
0.0
 51
0.0
 71
0
 72
1000
 73
1
 74
3
 75
0
 76
0
 77
0
 78
0
281
0
 65
0
146
0.0
  0
ENDTAB
  0
TABLE
  2
LTYPE
  5
2
330
0
100
AcDbSymbolTable
 70
3
  0
LTYPE
  5
24
330
2
100
AcDbSymbolTableRecord
100
AcDbLinetypeTableRecord
  2
ByBlock
 70
0
  3

 72
65
 73
0
 40
0.0
  0
LTYPE
  5
25
330
2
100
AcDbSymbolTableRecord
100
AcDbLinetypeTableRecord
  2
ByLayer
 70
0
  3

 72
65
 73
0
 40
0.0
  0
LTYPE
  5
26
330
2
100
AcDbSymbolTableRecord
100
AcDbLinetypeTableRecord
  2
Continuous
 70
0
  3

 72
65
 73
0
 40
0.0
  0
ENDTAB
  0
TABLE
  2
LAYER
  5
1
330
0
100
AcDbSymbolTable
 70
2
  0
LAYER
  5
27
330
1
100
AcDbSymbolTableRecord
100
AcDbLayerTableRecord
  2
0
 70
0
 62
7
  6
Continuous
370
-3
390
13
347
21
  0
LAYER
  5
28
330
1
100
AcDbSymbolTableRecord
100
AcDbLayerTableRecord
  2
Defpoints
 70
0
 62
7
  6
Continuous
290
0
370
-3
390
13
347
21
  0
ENDTAB
  0
TABLE
  2
STYLE
  5
5
330
0
100
AcDbSymbolTable
 70
1
  0
STYLE
  5
29
330
5
100
AcDbSymbolTableRecord
100
AcDbTextStyleTableRecord
  2
Standard
 70
0
 40
0.0
 41
1.0
 50
0.0
 71
0
 42
2.5
  3
txt
  4

  0
ENDTAB
  0
TABLE
  2
VIEW
  5
7
330
0
100
AcDbSymbolTable
 70
0
  0
ENDTAB
  0
TABLE
  2
UCS
  5
6
330
0
100
AcDbSymbolTable
 70
0
  0
ENDTAB
  0
TABLE
  2
APPID
  5
3
330
0
100
AcDbSymbolTable
 70
3
  0
APPID
  5
2A
330
3
100
AcDbSymbolTableRecord
100
AcDbRegAppTableRecord
  2
ACAD
 70
0
  0
APPID
  5
40
330
3
100
AcDbSymbolTableRecord
100
AcDbRegAppTableRecord
  2
HATCHBACKGROUNDCOLOR
 70
0
  0
APPID
  5
41
330
3
100
AcDbSymbolTableRecord
100
AcDbRegAppTableRecord
  2
EZDXF
 70
0
  0
ENDTAB
  0
TABLE
  2
DIMSTYLE
  5
4
330
0
100
AcDbSymbolTable
 70
1
100
AcDbDimStyleTable
  0
DIMSTYLE
105
2B
330
4
100
AcDbSymbolTableRecord
100
AcDbDimStyleTableRecord
  2
Standard
 70
0
 40
1.0
 41
2.5
 42
0.625
 43
3.75
 44
1.25
 45
0.0
 46
0.0
 47
0.0
 48
0.0
 49
2.5
140
2.5
141
2.5
142
0.0
143
0.03937007874
144
1.0
145
0.0
146
1.0
147
0.625
148
0.0
 69
0
 70
0
 71
0
 72
0
 73
0
 74
0
 75
0
 76
0
 77
1
 78
8
 79
3
170
0
171
3
172
1
173
0
174
0
175
0
176
0
177
0
178
0
179
2
271
2
272
2
273
2
274
3
275
0
276
0
277
2
278
44
279
0
280
0
281
0
282
0
283
0
284
8
285
0
286
0
288
0
289
3
290
0
371
-2
372
-2
  0
ENDTAB
  0
TABLE
  2
BLOCK_RECORD
  5
9
330
0
100
AcDbSymbolTable
 70
2
  0
BLOCK_RECORD
  5
17
330
9
100
AcDbSymbolTableRecord
100
AcDbBlockTableRecord
  2
*Model_Space
340
1A
 70
0
280
1
281
0
  0
BLOCK_RECORD
  5
1B
330
9
100
AcDbSymbolTableRecord
100
AcDbBlockTableRecord
  2
*Paper_Space
340
1E
 70
0
280
1
281
0
  0
ENDTAB
  0
ENDSEC
  0
SECTION
  2
BLOCKS
  0
BLOCK
  5
18
330
17
100
AcDbEntity
  8
0
100
AcDbBlockBegin
  2
*Model_Space
 70
0
 10
0.0
 20
0.0
 30
0.0
  3
*Model_Space
  1

  0
ENDBLK
  5
19
330
17
100
AcDbEntity
  8
0
100
AcDbBlockEnd
  0
BLOCK
  5
1C
330
1B
100
AcDbEntity
  8
0
100
AcDbBlockBegin
  2
*Paper_Space
 70
0
 10
0.0
 20
0.0
 30
0.0
  3
*Paper_Space
  1

  0
ENDBLK
  5
1D
330
1B
100
AcDbEntity
  8
0
100
AcDbBlockEnd
  0
ENDSEC
  0
SECTION
  2
ENTITIES
  0
LWPOLYLINE
  5
2F
330
17
100
AcDbEntity
  8
0
100
AcDbPolyline
 90
51
 70
0
 10
-40.00211450448
 20
-4.5
 10
-39.922072214390354
 20
-4.410000000000041
 10
-39.842029924300704
 20
-4.320000000000082
 10
-39.76198763421106
 20
-4.230000000000122
 10
-39.68194534412142
 20
-4.140000000000163
 10
-39.601903054031766
 20
-4.050000000000204
 10
-39.52186076394212
 20
-3.960000000000245
 10
-39.44181847385248
 20
-3.8700000000002857
 10
-39.36177618376283
 20
-3.7800000000003267
 10
-39.281733893673184
 20
-3.690000000000367
 10
-39.20169160358354
 20
-3.600000000000408
 10
-39.12164931349389
 20
-3.510000000000449
 10
-39.04160702340425
 20
-3.42000000000049
 10
-38.9615647333146
 20
-3.330000000000531
 10
-38.88152244322495
 20
-3.2400000000005713
 10
-38.80148015313531
 20
-3.1500000000006123
 10
-38.721437863045665
 20
-3.0600000000006533
 10
-38.64139557295602
 20
-2.9700000000006943
 10
-38.56135328286637
 20
-2.880000000000735
 10
-38.48131099277673
 20
-2.7900000000007754
 10
-38.401268702687084
 20
-2.7000000000008164
 10
-38.32122641259743
 20
-2.6100000000008574
 10
-38.24118412250779
 20
-2.5200000000008984
 10
-38.161141832418146
 20
-2.430000000000939
 10
-38.081099542328495
 20
-2.34000000000098
 10
-38.00105725223885
 20
-2.2500000000010205
 10
-37.92101496214921
 20
-2.160000000001062
 10
-37.84097267205956
 20
-2.070000000001102
 10
-37.760930381969914
 20
-1.980000000001143
 10
-37.68088809188027
 20
-1.890000000001184
 10
-37.60084580179062
 20
-1.8000000000012246
 10
-37.520803511700976
 20
-1.7100000000012656
 10
-37.44076122161133
 20
-1.6200000000013066
 10
-37.36071893152168
 20
-1.5300000000013472
 10
-37.28067664143204
 20
-1.4400000000013882
 10
-37.200634351342394
 20
-1.3500000000014292
 10
-37.120592061252744
 20
-1.2600000000014697
 10
-37.0405497711631
 20
-1.1700000000015107
 10
-36.960507481073456
 20
-1.0800000000015513
 10
-36.880465190983806
 20
-0.9900000000015918
 10
-36.80042290089416
 20
-0.9000000000016328
 10
-36.72038061080452
 20
-0.8100000000016734
 10
-36.640338320714875
 20
-0.7200000000017148
 10
-36.560296030625224
 20
-0.6300000000017554
 10
-36.48025374053558
 20
-0.5400000000017964
 10
-36.40021145044594
 20
-0.45000000000183693
 10
-36.320169160356286
 20
-0.36000000000187793
 10
-36.24012687026664
 20
-0.2700000000019189
 10
-36.160084580177
 20
-0.18000000000195993
 10
-36.08004229008735
 20
-0.09000000000200004
 10
-35.999999999997705
 20
-2.0410340084708878e-12
  0
LWPOLYLINE
  5
30
330
17
100
AcDbEntity
  8
0
100
AcDbPolyline
 90
51
 70
0
 10
-44.0
 20
-4.5
 10
-43.9200422900896
 20
-4.5
 10
-43.8400845801792
 20
-4.5
 10
-43.7601268702688
 20
-4.5
 10
-43.6801691603584
 20
-4.5
 10
-43.600211450448
 20
-4.5
 10
-43.5202537405376
 20
-4.5
 10
-43.4402960306272
 20
-4.5
 10
-43.3603383207168
 20
-4.5
 10
-43.2803806108064
 20
-4.5
 10
-43.200422900896
 20
-4.5
 10
-43.1204651909856
 20
-4.5
 10
-43.0405074810752
 20
-4.5
 10
-42.9605497711648
 20
-4.5
 10
-42.8805920612544
 20
-4.5
 10
-42.800634351344
 20
-4.5
 10
-42.7206766414336
 20
-4.5
 10
-42.640718931523196
 20
-4.5
 10
-42.5607612216128
 20
-4.5
 10
-42.4808035117024
 20
-4.5
 10
-42.400845801792
 20
-4.5
 10
-42.3208880918816
 20
-4.5
 10
-42.2409303819712
 20
-4.5
 10
-42.1609726720608
 20
-4.5
 10
-42.0810149621504
 20
-4.5
 10
-42.00105725224
 20
-4.5
 10
-41.9210995423296
 20
-4.5
 10
-41.8411418324192
 20
-4.5
 10
-41.7611841225088
 20
-4.5
 10
-41.6812264125984
 20
-4.5
 10
-41.601268702687996
 20
-4.5
 10
-41.5213109927776
 20
-4.5
 10
-41.4413532828672
 20
-4.5
 10
-41.3613955729568
 20
-4.5
 10
-41.2814378630464
 20
-4.5
 10
-41.201480153135996
 20
-4.5
 10
-41.1215224432256
 20
-4.5
 10
-41.0415647333152
 20
-4.5
 10
-40.961607023404795
 20
-4.5
 10
-40.8816493134944
 20
-4.5
 10
-40.801691603584
 20
-4.5
 10
-40.7217338936736
 20
-4.5
 10
-40.6417761837632
 20
-4.5
 10
-40.561818473852796
 20
-4.5
 10
-40.4818607639424
 20
-4.5
 10
-40.401903054032
 20
-4.5
 10
-40.321945344121595
 20
-4.5
 10
-40.2419876342112
 20
-4.5
 10
-40.162029924300796
 20
-4.5
 10
-40.0820722143904
 20
-4.5
 10
-40.00211450448
 20
-4.5
  0
LWPOLYLINE
  5
31
330
17
100
AcDbEntity
  8
0
100
AcDbPolyline
 90
51
 70
0
 10
-44.0
 20
-4.5
 10
-44.477751820011335
 20
-4.519050811244434
 10
-44.95246978677442
 20
-4.576082267174714
 10
-45.42113931282956
 20
-4.67073220262353
 10
-45.88078421995111
 20
-4.802399564906039
 10
-46.32848563868406
 20
-4.970248230666941
 10
-46.76140054395436
 20
-5.1732123154898915
 10
-47.17677980904694
 20
-5.410002942551767
 10
-47.571985663303764
 20
-5.679116427339034
 10
-47.94450844268078
 20
-5.97884382645102
 10
-48.29198252679326
 20
-6.307281789852636
 10
-48.61220136124496
 20
-6.662344647661792
 10
-48.9031314698452
 20
-7.041777654717144
 10
-49.16292536773255
 20
-7.443171308819586
 10
-49.3899332934033
 20
-7.863976651722777
 10
-49.58271368514315
 20
-8.301521455707285
 10
-49.74004233533387
 20
-8.753027192949213
 10
-49.86092016450276
 20
-9.215626679923236
 10
-49.944579565747425
 20
-9.686382284793314
 10
-49.99048927924724
 20
-10.162304582169238
 10
-49.9983577659068
 20
-10.64037133676623
 10
-49.96813505870808
 20
-11.117546695416266
 10
-49.90001308001443
 20
-11.590800465556635
 10
-49.79442442281178
 20
-12.05712735777212
 10
-49.65203960362608
 20
-12.513566070195449
 10
-49.473762804562135
 20
-12.957218093574948
 10
-49.26072613150268
 20
-13.38526611759208
 10
-49.01428242492992
 20
-13.794991921543806
 10
-48.73599666902261
 20
-14.183793635779113
 10
-48.42763605358337
 20
-14.54920226427486
 10
-48.09115875190551
 20
-14.888897363428194
 10
-47.72870148584312
 20
-15.20072177750091
 10
-47.34256595704952
 20
-15.482695337141699
 10
-46.93520423054931
 20
-15.73302743399702
 10
-46.509203163462416
 20
-15.95012839155833
 10
-46.06726797776184
 20
-16.132619560037806
 10
-45.61220508138259
 20
-16.279342071167285
 10
-45.14690424677243
 20
-16.389364197325158
 10
-44.67432026005537
 20
-16.461987268258703
 10
-44.197454157340765
 20
-16.496750107829143
 10
-43.719334167332526
 20
-16.49343196260482
 10
-43.24299648125792
 20
-16.452053903705185
 10
-42.77146597223229
 20
-16.37287869299348
 10
-42.307736986496785
 20
-16.256409114467893
 10
-41.854754328510005
 20
-16.103384781447144
 10
-41.41539456064339
 20
-15.914777439825965
 10
-40.992447736232286
 20
-15.691784797225871
 10
-40.588599681982785
 20
-15.43582291722789
 10
-40.206414942245864
 20
-15.148517226985884
 10
-39.84832049346727
 20
-14.831692195324614
 10
-39.51659033223079
 20
-14.4873597468693
  0
LWPOLYLINE
  5
32
330
17
100
AcDbEntity
  8
0
100
AcDbPolyline
 90
51
 70
0
 10
-32.85764121151
 20
-7.0
 10
-32.9908201939244
 20
-7.149747194937403
 10
-33.12399917633879
 20
-7.299494389874805
 10
-33.25717815875319
 20
-7.449241584812207
 10
-33.39035714116759
 20
-7.598988779749609
 10
-33.523536123581984
 20
-7.748735974687012
 10
-33.65671510599638
 20
-7.898483169624415
 10
-33.78989408841078
 20
-8.048230364561817
 10
-33.923073070825176
 20
-8.197977559499218
 10
-34.056252053239575
 20
-8.347724754436621
 10
-34.189431035653975
 20
-8.497471949374024
 10
-34.322610018068374
 20
-8.647219144311427
 10
-34.45578900048277
 20
-8.79696633924883
 10
-34.58896798289717
 20
-8.94671353418623
 10
-34.722146965311566
 20
-9.096460729123633
 10
-34.85532594772596
 20
-9.246207924061036
 10
-34.98850493014036
 20
-9.395955118998438
 10
-35.12168391255476
 20
-9.545702313935841
 10
-35.25486289496915
 20
-9.695449508873242
 10
-35.38804187738355
 20
-9.845196703810645
 10
-35.52122085979795
 20
-9.994943898748048
 10
-35.65439984221234
 20
-10.14469109368545
 10
-35.78757882462674
 20
-10.294438288622853
 10
-35.92075780704114
 20
-10.444185483560254
 10
-36.053936789455534
 20
-10.593932678497657
 10
-36.187115771869934
 20
-10.74367987343506
 10
-36.32029475428433
 20
-10.893427068372462
 10
-36.453473736698726
 20
-11.043174263309865
 10
-36.586652719113125
 20
-11.192921458247266
 10
-36.719831701527525
 20
-11.342668653184669
 10
-36.85301068394192
 20
-11.492415848122072
 10
-36.98618966635632
 20
-11.642163043059472
 10
-37.11936864877072
 20
-11.791910237996877
 10
-37.25254763118511
 20
-11.941657432934278
 10
-37.38572661359951
 20
-12.09140462787168
 10
-37.51890559601391
 20
-12.241151822809083
 10
-37.65208457842831
 20
-12.390899017746484
 10
-37.7852635608427
 20
-12.540646212683889
 10
-37.9184425432571
 20
-12.69039340762129
 10
-38.0516215256715
 20
-12.840140602558693
 10
-38.1848005080859
 20
-12.989887797496095
 10
-38.31797949050029
 20
-13.139634992433496
 10
-38.45115847291469
 20
-13.2893821873709
 10
-38.584337455329084
 20
-13.439129382308302
 10
-38.717516437743484
 20
-13.588876577245705
 10
-38.850695420157884
 20
-13.738623772183107
 10
-38.98387440257228
 20
-13.88837096712051
 10
-39.117053384986676
 20
-14.038118162057913
 10
-39.250232367401075
 20
-14.187865356995314
 10
-39.38341134981547
 20
-14.337612551932715
 10
-39.51659033222987
 20
-14.48735974687012
  0
LWPOLYLINE
  5
33
330
17
100
AcDbEntity
  8
0
100
AcDbPolyline
 90
51
 70
0
 10
-32.85764121151
 20
-7.0
 10
-32.7604883872798
 20
-7.0
 10
-32.6633355630496
 20
-7.0
 10
-32.5661827388194
 20
-7.0
 10
-32.4690299145892
 20
-7.0
 10
-32.371877090359
 20
-7.0
 10
-32.2747242661288
 20
-7.0
 10
-32.1775714418986
 20
-7.0
 10
-32.0804186176684
 20
-7.0
 10
-31.9832657934382
 20
-7.0
 10
-31.886112969208
 20
-7.0
 10
-31.7889601449778
 20
-7.0
 10
-31.6918073207476
 20
-7.0
 10
-31.5946544965174
 20
-7.0
 10
-31.4975016722872
 20
-7.0
 10
-31.400348848057
 20
-7.0
 10
-31.3031960238268
 20
-7.0
 10
-31.2060431995966
 20
-7.0
 10
-31.1088903753664
 20
-7.0
 10
-31.0117375511362
 20
-7.0
 10
-30.914584726906
 20
-7.0
 10
-30.8174319026758
 20
-7.0
 10
-30.7202790784456
 20
-7.0
 10
-30.6231262542154
 20
-7.0
 10
-30.5259734299852
 20
-7.0
 10
-30.428820605755
 20
-7.0
 10
-30.3316677815248
 20
-7.0
 10
-30.2345149572946
 20
-7.0
 10
-30.1373621330644
 20
-7.0
 10
-30.0402093088342
 20
-7.0
 10
-29.943056484604
 20
-7.0
 10
-29.8459036603738
 20
-7.0
 10
-29.7487508361436
 20
-7.0
 10
-29.6515980119134
 20
-7.0
 10
-29.5544451876832
 20
-7.0
 10
-29.457292363453
 20
-7.0
 10
-29.3601395392228
 20
-7.0
 10
-29.2629867149926
 20
-7.0
 10
-29.1658338907624
 20
-7.0
 10
-29.0686810665322
 20
-7.0
 10
-28.971528242302
 20
-7.0
 10
-28.8743754180718
 20
-7.0
 10
-28.7772225938416
 20
-7.0
 10
-28.6800697696114
 20
-7.0
 10
-28.5829169453812
 20
-7.0
 10
-28.485764121151
 20
-7.0
 10
-28.3886112969208
 20
-7.0
 10
-28.2914584726906
 20
-7.0
 10
-28.1943056484604
 20
-7.0
 10
-28.0971528242302
 20
-7.0
 10
-28.0
 20
-7.0
  0
LWPOLYLINE
  5
34
330
17
100
AcDbEntity
  8
0
100
AcDbPolyline
 90
51
 70
0
 10
-28.0
 20
0.0
 10
-28.0
 20
-0.14
 10
-28.0
 20
-0.28
 10
-28.0
 20
-0.42
 10
-28.0
 20
-0.56
 10
-28.0
 20
-0.7
 10
-28.0
 20
-0.84
 10
-28.0
 20
-0.98
 10
-28.0
 20
-1.12
 10
-28.0
 20
-1.26
 10
-28.0
 20
-1.4
 10
-28.0
 20
-1.54
 10
-28.0
 20
-1.68
 10
-28.0
 20
-1.82
 10
-28.0
 20
-1.96
 10
-28.0
 20
-2.1
 10
-28.0
 20
-2.24
 10
-28.0
 20
-2.38
 10
-28.0
 20
-2.52
 10
-28.0
 20
-2.66
 10
-28.0
 20
-2.8
 10
-28.0
 20
-2.94
 10
-28.0
 20
-3.08
 10
-28.0
 20
-3.22
 10
-28.0
 20
-3.36
 10
-28.0
 20
-3.5
 10
-28.0
 20
-3.64
 10
-28.0
 20
-3.78
 10
-28.0
 20
-3.92
 10
-28.0
 20
-4.06
 10
-28.0
 20
-4.2
 10
-28.0
 20
-4.34
 10
-28.0
 20
-4.48
 10
-28.0
 20
-4.62
 10
-28.0
 20
-4.76
 10
-28.0
 20
-4.9
 10
-28.0
 20
-5.04
 10
-28.0
 20
-5.18
 10
-28.0
 20
-5.32
 10
-28.0
 20
-5.46
 10
-28.0
 20
-5.6
 10
-28.0
 20
-5.74
 10
-28.0
 20
-5.88
 10
-28.0
 20
-6.02
 10
-28.0
 20
-6.16
 10
-28.0
 20
-6.3
 10
-28.0
 20
-6.44
 10
-28.0
 20
-6.58
 10
-28.0
 20
-6.72
 10
-28.0
 20
-6.86
 10
-28.0
 20
-7.0
  0
LWPOLYLINE
  5
35
330
17
100
AcDbEntity
  8
0
100
AcDbPolyline
 90
51
 70
0
 10
-36.0
 20
0.0
 10
-35.84
 20
0.0
 10
-35.68
 20
0.0
 10
-35.52
 20
0.0
 10
-35.36
 20
0.0
 10
-35.2
 20
0.0
 10
-35.04
 20
0.0
 10
-34.88
 20
0.0
 10
-34.72
 20
0.0
 10
-34.56
 20
0.0
 10
-34.4
 20
0.0
 10
-34.24
 20
0.0
 10
-34.08
 20
0.0
 10
-33.92
 20
0.0
 10
-33.76
 20
0.0
 10
-33.6
 20
0.0
 10
-33.44
 20
0.0
 10
-33.28
 20
0.0
 10
-33.12
 20
0.0
 10
-32.96
 20
0.0
 10
-32.8
 20
0.0
 10
-32.64
 20
0.0
 10
-32.48
 20
0.0
 10
-32.32
 20
0.0
 10
-32.16
 20
0.0
 10
-32.0
 20
0.0
 10
-31.84
 20
0.0
 10
-31.68
 20
0.0
 10
-31.52
 20
0.0
 10
-31.36
 20
0.0
 10
-31.2
 20
0.0
 10
-31.04
 20
0.0
 10
-30.88
 20
0.0
 10
-30.72
 20
0.0
 10
-30.56
 20
0.0
 10
-30.4
 20
0.0
 10
-30.240000000000002
 20
0.0
 10
-30.08
 20
0.0
 10
-29.92
 20
0.0
 10
-29.759999999999998
 20
0.0
 10
-29.6
 20
0.0
 10
-29.44
 20
0.0
 10
-29.28
 20
0.0
 10
-29.12
 20
0.0
 10
-28.96
 20
0.0
 10
-28.8
 20
0.0
 10
-28.64
 20
0.0
 10
-28.48
 20
0.0
 10
-28.32
 20
0.0
 10
-28.16
 20
0.0
 10
-28.0
 20
0.0
  0
LWPOLYLINE
  5
36
330
17
100
AcDbEntity
  8
0
100
AcDbPolyline
 90
51
 70
0
 10
-41.0
 20
-10.5
 10
-41.02365589605657
 20
-10.124000299307086
 10
-41.0942505166141
 20
-9.753930338505436
 10
-41.210670542335244
 20
-9.395626341945967
 10
-41.37107995986841
 20
-9.054738977694855
 10
-41.57294901687516
 20
-8.73664424312258
 10
-41.813094117735766
 20
-8.446358682213933
 10
-42.08772803075393
 20
-8.188460271672632
 10
-42.39251961506301
 20
-7.967016223493956
 10
-42.72266212530478
 20
-7.785518842601942
 10
-43.07294901687516
 20
-7.646830451114539
 10
-43.43785605624283
 20
-7.5531382478139335
 10
-43.81162844141206
 20
-7.5059198147151855
 10
-44.18837155858794
 20
-7.5059198147151855
 10
-44.56214394375717
 20
-7.5531382478139335
 10
-44.92705098312484
 20
-7.646830451114539
 10
-45.27733787469522
 20
-7.785518842601942
 10
-45.60748038493699
 20
-7.967016223493955
 10
-45.91227196924607
 20
-8.188460271672632
 10
-46.186905882264234
 20
-8.446358682213933
 10
-46.42705098312484
 20
-8.73664424312258
 10
-46.62892004013159
 20
-9.054738977694853
 10
-46.789329457664756
 20
-9.395626341945967
 10
-46.90574948338589
 20
-9.753930338505434
 10
-46.97634410394343
 20
-10.124000299307086
 10
-47.0
 20
-10.5
 10
-46.97634410394343
 20
-10.875999700692912
 10
-46.90574948338589
 20
-11.246069661494564
 10
-46.789329457664756
 20
-11.604373658054032
 10
-46.62892004013159
 20
-11.945261022305147
 10
-46.42705098312484
 20
-12.263355756877418
 10
-46.186905882264234
 20
-12.553641317786063
 10
-45.91227196924607
 20
-12.811539728327368
 10
-45.60748038493699
 20
-13.032983776506045
 10
-45.27733787469522
 20
-13.214481157398058
 10
-44.92705098312484
 20
-13.353169548885461
 10
-44.56214394375717
 20
-13.446861752186066
 10
-44.18837155858794
 20
-13.494080185284815
 10
-43.81162844141206
 20
-13.494080185284815
 10
-43.43785605624282
 20
-13.446861752186066
 10
-43.07294901687516
 20
-13.353169548885461
 10
-42.72266212530479
 20
-13.21448115739806
 10
-42.39251961506301
 20
-13.032983776506045
 10
-42.08772803075393
 20
-12.811539728327368
 10
-41.813094117735766
 20
-12.553641317786065
 10
-41.57294901687516
 20
-12.26335575687742
 10
-41.37107995986841
 20
-11.945261022305148
 10
-41.210670542335244
 20
-11.604373658054033
 10
-41.09425051661411
 20
-11.246069661494566
 10
-41.02365589605657
 20
-10.875999700692912
 10
-41.0
 20
-10.500000000000002
  0
LWPOLYLINE
  5
37
330
17
100
AcDbEntity
  8
0
100
AcDbPolyline
 90
51
 70
0
 10
-28.0
 20
0.0
 10
-27.815249256072608
 20
0.0
 10
-27.630498512145216
 20
0.0
 10
-27.445747768217828
 20
0.0
 10
-27.260997024290436
 20
0.0
 10
-27.076246280363044
 20
0.0
 10
-26.891495536435656
 20
0.0
 10
-26.706744792508264
 20
0.0
 10
-26.521994048580872
 20
0.0
 10
-26.33724330465348
 20
0.0
 10
-26.15249256072609
 20
0.0
 10
-25.9677418167987
 20
0.0
 10
-25.782991072871308
 20
0.0
 10
-25.598240328943916
 20
0.0
 10
-25.413489585016528
 20
0.0
 10
-25.228738841089136
 20
0.0
 10
-25.043988097161744
 20
0.0
 10
-24.859237353234352
 20
0.0
 10
-24.67448660930696
 20
0.0
 10
-24.489735865379572
 20
0.0
 10
-24.30498512145218
 20
0.0
 10
-24.12023437752479
 20
0.0
 10
-23.9354836335974
 20
0.0
 10
-23.750732889670008
 20
0.0
 10
-23.565982145742616
 20
0.0
 10
-23.381231401815224
 20
0.0
 10
-23.196480657887832
 20
0.0
 10
-23.011729913960444
 20
0.0
 10
-22.826979170033052
 20
0.0
 10
-22.64222842610566
 20
0.0
 10
-22.457477682178272
 20
0.0
 10
-22.27272693825088
 20
0.0
 10
-22.08797619432349
 20
0.0
 10
-21.903225450396096
 20
0.0
 10
-21.718474706468704
 20
0.0
 10
-21.533723962541316
 20
0.0
 10
-21.348973218613924
 20
0.0
 10
-21.164222474686532
 20
0.0
 10
-20.97947173075914
 20
0.0
 10
-20.794720986831752
 20
0.0
 10
-20.60997024290436
 20
0.0
 10
-20.42521949897697
 20
0.0
 10
-20.240468755049577
 20
0.0
 10
-20.055718011122188
 20
0.0
 10
-19.870967267194796
 20
0.0
 10
-19.686216523267404
 20
0.0
 10
-19.501465779340016
 20
0.0
 10
-19.316715035412624
 20
0.0
 10
-19.131964291485232
 20
0.0
 10
-18.94721354755784
 20
0.0
 10
-18.76246280363045
 20
0.0
  0
LWPOLYLINE
  5
38
330
17
100
AcDbEntity
  8
0
100
AcDbPolyline
 90
51
 70
0
 10
-18.76246280363
 20
0.0
 10
-18.3872135475574
 20
0.0
 10
-18.0119642914848
 20
0.0
 10
-17.6367150354122
 20
0.0
 10
-17.261465779339602
 20
0.0
 10
-16.886216523267002
 20
0.0
 10
-16.510967267194403
 20
0.0
 10
-16.135718011121803
 20
0.0
 10
-15.760468755049201
 20
0.0
 10
-15.3852194989766
 20
0.0
 10
-15.009970242904
 20
0.0
 10
-14.6347209868314
 20
0.0
 10
-14.2594717307588
 20
0.0
 10
-13.8842224746862
 20
0.0
 10
-13.508973218613601
 20
0.0
 10
-13.133723962541001
 20
0.0
 10
-12.758474706468402
 20
0.0
 10
-12.383225450395802
 20
0.0
 10
-12.0079761943232
 20
0.0
 10
-11.6327269382506
 20
0.0
 10
-11.257477682178001
 20
0.0
 10
-10.8822284261054
 20
0.0
 10
-10.5069791700328
 20
0.0
 10
-10.1317299139602
 20
0.0
 10
-9.7564806578876
 20
0.0
 10
-9.381231401815
 20
0.0
 10
-9.0059821457424
 20
0.0
 10
-8.630732889669801
 20
0.0
 10
-8.255483633597201
 20
0.0
 10
-7.8802343775246
 20
0.0
 10
-7.504985121452
 20
0.0
 10
-7.1297358653794
 20
0.0
 10
-6.754486609306801
 20
0.0
 10
-6.379237353234201
 20
0.0
 10
-6.003988097161601
 20
0.0
 10
-5.628738841089
 20
0.0
 10
-5.2534895850164
 20
0.0
 10
-4.8782403289438
 20
0.0
 10
-4.5029910728712
 20
0.0
 10
-4.127741816798601
 20
0.0
 10
-3.752492560726001
 20
0.0
 10
-3.3772433046533994
 20
0.0
 10
-3.0019940485807997
 20
0.0
 10
-2.6267447925082017
 20
0.0
 10
-2.2514955364355984
 20
0.0
 10
-1.8762462803629987
 20
0.0
 10
-1.500997024290399
 20
0.0
 10
-1.1257477682177992
 20
0.0
 10
-0.7504985121451995
 20
0.0
 10
-0.37524925607259974
 20
0.0
 10
0.0
 20
0.0
  0
LWPOLYLINE
  5
39
330
17
100
AcDbEntity
  8
0
100
AcDbPolyline
 90
51
 70
0
 10
-18.76246280363
 20
-7.0
 10
-18.5472135475574
 20
-7.0
 10
-18.331964291484802
 20
-7.0
 10
-18.116715035412202
 20
-7.0
 10
-17.901465779339603
 20
-7.0
 10
-17.686216523267
 20
-7.0
 10
-17.4709672671944
 20
-7.0
 10
-17.2557180111218
 20
-7.0
 10
-17.0404687550492
 20
-7.0
 10
-16.8252194989766
 20
-7.0
 10
-16.609970242904
 20
-7.0
 10
-16.394720986831402
 20
-7.0
 10
-16.1794717307588
 20
-7.0
 10
-15.964222474686201
 20
-7.0
 10
-15.748973218613601
 20
-7.0
 10
-15.533723962541
 20
-7.0
 10
-15.3184747064684
 20
-7.0
 10
-15.1032254503958
 20
-7.0
 10
-14.887976194323201
 20
-7.0
 10
-14.672726938250602
 20
-7.0
 10
-14.457477682178
 20
-7.0
 10
-14.2422284261054
 20
-7.0
 10
-14.0269791700328
 20
-7.0
 10
-13.8117299139602
 20
-7.0
 10
-13.5964806578876
 20
-7.0
 10
-13.381231401815
 20
-7.0
 10
-13.165982145742401
 20
-7.0
 10
-12.950732889669801
 20
-7.0
 10
-12.735483633597202
 20
-7.0
 10
-12.5202343775246
 20
-7.0
 10
-12.304985121452
 20
-7.0
 10
-12.0897358653794
 20
-7.0
 10
-11.8744866093068
 20
-7.0
 10
-11.6592373532342
 20
-7.0
 10
-11.4439880971616
 20
-7.0
 10
-11.228738841089001
 20
-7.0
 10
-11.013489585016401
 20
-7.0
 10
-10.7982403289438
 20
-7.0
 10
-10.5829910728712
 20
-7.0
 10
-10.3677418167986
 20
-7.0
 10
-10.152492560726
 20
-7.0
 10
-9.9372433046534
 20
-7.0
 10
-9.7219940485808
 20
-7.0
 10
-9.5067447925082
 20
-7.0
 10
-9.2914955364356
 20
-7.0
 10
-9.076246280363
 20
-7.0
 10
-8.8609970242904
 20
-7.0
 10
-8.6457477682178
 20
-7.0
 10
-8.4304985121452
 20
-7.0
 10
-8.2152492560726
 20
-7.0
 10
-8.0
 20
-7.0
  0
LWPOLYLINE
  5
3A
330
17
100
AcDbEntity
  8
0
100
AcDbPolyline
 90
51
 70
0
 10
-28.0
 20
-7.0
 10
-27.815249256072608
 20
-7.0
 10
-27.630498512145216
 20
-7.0
 10
-27.445747768217828
 20
-7.0
 10
-27.260997024290436
 20
-7.0
 10
-27.076246280363044
 20
-7.0
 10
-26.891495536435656
 20
-7.0
 10
-26.706744792508264
 20
-7.0
 10
-26.521994048580872
 20
-7.0
 10
-26.33724330465348
 20
-7.0
 10
-26.15249256072609
 20
-7.0
 10
-25.9677418167987
 20
-7.0
 10
-25.782991072871308
 20
-7.0
 10
-25.598240328943916
 20
-7.0
 10
-25.413489585016528
 20
-7.0
 10
-25.228738841089136
 20
-7.0
 10
-25.043988097161744
 20
-7.0
 10
-24.859237353234352
 20
-7.0
 10
-24.67448660930696
 20
-7.0
 10
-24.489735865379572
 20
-7.0
 10
-24.30498512145218
 20
-7.0
 10
-24.12023437752479
 20
-7.0
 10
-23.9354836335974
 20
-7.0
 10
-23.750732889670008
 20
-7.0
 10
-23.565982145742616
 20
-7.0
 10
-23.381231401815224
 20
-7.0
 10
-23.196480657887832
 20
-7.0
 10
-23.011729913960444
 20
-7.0
 10
-22.826979170033052
 20
-7.0
 10
-22.64222842610566
 20
-7.0
 10
-22.457477682178272
 20
-7.0
 10
-22.27272693825088
 20
-7.0
 10
-22.08797619432349
 20
-7.0
 10
-21.903225450396096
 20
-7.0
 10
-21.718474706468704
 20
-7.0
 10
-21.533723962541316
 20
-7.0
 10
-21.348973218613924
 20
-7.0
 10
-21.164222474686532
 20
-7.0
 10
-20.97947173075914
 20
-7.0
 10
-20.794720986831752
 20
-7.0
 10
-20.60997024290436
 20
-7.0
 10
-20.42521949897697
 20
-7.0
 10
-20.240468755049577
 20
-7.0
 10
-20.055718011122188
 20
-7.0
 10
-19.870967267194796
 20
-7.0
 10
-19.686216523267404
 20
-7.0
 10
-19.501465779340016
 20
-7.0
 10
-19.316715035412624
 20
-7.0
 10
-19.131964291485232
 20
-7.0
 10
-18.94721354755784
 20
-7.0
 10
-18.76246280363045
 20
-7.0
  0
LWPOLYLINE
  5
3B
330
17
100
AcDbEntity
  8
0
100
AcDbPolyline
 90
51
 70
0
 10
-15.5
 20
-7.0
 10
-15.35
 20
-7.0
 10
-15.2
 20
-7.0
 10
-15.05
 20
-7.0
 10
-14.9
 20
-7.0
 10
-14.75
 20
-7.0
 10
-14.6
 20
-7.0
 10
-14.45
 20
-7.0
 10
-14.3
 20
-7.0
 10
-14.15
 20
-7.0
 10
-14.0
 20
-7.0
 10
-13.85
 20
-7.0
 10
-13.7
 20
-7.0
 10
-13.55
 20
-7.0
 10
-13.4
 20
-7.0
 10
-13.25
 20
-7.0
 10
-13.1
 20
-7.0
 10
-12.95
 20
-7.0
 10
-12.8
 20
-7.0
 10
-12.65
 20
-7.0
 10
-12.5
 20
-7.0
 10
-12.35
 20
-7.0
 10
-12.2
 20
-7.0
 10
-12.05
 20
-7.0
 10
-11.9
 20
-7.0
 10
-11.75
 20
-7.0
 10
-11.6
 20
-7.0
 10
-11.45
 20
-7.0
 10
-11.3
 20
-7.0
 10
-11.15
 20
-7.0
 10
-11.0
 20
-7.0
 10
-10.85
 20
-7.0
 10
-10.7
 20
-7.0
 10
-10.55
 20
-7.0
 10
-10.4
 20
-7.0
 10
-10.25
 20
-7.0
 10
-10.1
 20
-7.0
 10
-9.95
 20
-7.0
 10
-9.8
 20
-7.0
 10
-9.65
 20
-7.0
 10
-9.5
 20
-7.0
 10
-9.35
 20
-7.0
 10
-9.2
 20
-7.0
 10
-9.05
 20
-7.0
 10
-8.9
 20
-7.0
 10
-8.75
 20
-7.0
 10
-8.6
 20
-7.0
 10
-8.45
 20
-7.0
 10
-8.3
 20
-7.0
 10
-8.15
 20
-7.0
 10
-8.0
 20
-7.0
  0
LWPOLYLINE
  5
3C
330
17
100
AcDbEntity
  8
0
100
AcDbPolyline
 90
51
 70
0
 10
-8.0
 20
-7.0
 10
-8.0
 20
-7.14
 10
-8.0
 20
-7.28
 10
-8.0
 20
-7.42
 10
-8.0
 20
-7.5600000000000005
 10
-8.0
 20
-7.7
 10
-8.0
 20
-7.84
 10
-8.0
 20
-7.98
 10
-8.0
 20
-8.120000000000001
 10
-8.0
 20
-8.26
 10
-8.0
 20
-8.4
 10
-8.0
 20
-8.54
 10
-8.0
 20
-8.68
 10
-8.0
 20
-8.82
 10
-8.0
 20
-8.96
 10
-8.0
 20
-9.1
 10
-8.0
 20
-9.24
 10
-8.0
 20
-9.379999999999999
 10
-8.0
 20
-9.52
 10
-8.0
 20
-9.66
 10
-8.0
 20
-9.8
 10
-8.0
 20
-9.94
 10
-8.0
 20
-10.08
 10
-8.0
 20
-10.22
 10
-8.0
 20
-10.36
 10
-8.0
 20
-10.5
 10
-8.0
 20
-10.64
 10
-8.0
 20
-10.78
 10
-8.0
 20
-10.92
 10
-8.0
 20
-11.059999999999999
 10
-8.0
 20
-11.2
 10
-8.0
 20
-11.34
 10
-8.0
 20
-11.48
 10
-8.0
 20
-11.620000000000001
 10
-8.0
 20
-11.76
 10
-8.0
 20
-11.9
 10
-8.0
 20
-12.04
 10
-8.0
 20
-12.18
 10
-8.0
 20
-12.32
 10
-8.0
 20
-12.46
 10
-8.0
 20
-12.6
 10
-8.0
 20
-12.74
 10
-8.0
 20
-12.879999999999999
 10
-8.0
 20
-13.02
 10
-8.0
 20
-13.16
 10
-8.0
 20
-13.3
 10
-8.0
 20
-13.440000000000001
 10
-8.0
 20
-13.58
 10
-8.0
 20
-13.719999999999999
 10
-8.0
 20
-13.86
 10
-8.0
 20
-14.0
  0
LWPOLYLINE
  5
3D
330
17
100
AcDbEntity
  8
0
100
AcDbPolyline
 90
51
 70
0
 10
0.0
 20
-14.0
 10
0.0
 20
-13.72
 10
0.0
 20
-13.44
 10
0.0
 20
-13.16
 10
0.0
 20
-12.879999999999999
 10
0.0
 20
-12.6
 10
0.0
 20
-12.32
 10
0.0
 20
-12.04
 10
0.0
 20
-11.76
 10
0.0
 20
-11.48
 10
0.0
 20
-11.2
 10
0.0
 20
-10.92
 10
0.0
 20
-10.64
 10
0.0
 20
-10.36
 10
0.0
 20
-10.08
 10
0.0
 20
-9.8
 10
0.0
 20
-9.52
 10
0.0
 20
-9.24
 10
0.0
 20
-8.96
 10
0.0
 20
-8.68
 10
0.0
 20
-8.4
 10
0.0
 20
-8.120000000000001
 10
0.0
 20
-7.84
 10
0.0
 20
-7.56
 10
0.0
 20
-7.28
 10
0.0
 20
-7.0
 10
0.0
 20
-6.72
 10
0.0
 20
-6.44
 10
0.0
 20
-6.16
 10
0.0
 20
-5.880000000000001
 10
0.0
 20
-5.6
 10
0.0
 20
-5.32
 10
0.0
 20
-5.039999999999999
 10
0.0
 20
-4.76
 10
0.0
 20
-4.48
 10
0.0
 20
-4.199999999999999
 10
0.0
 20
-3.92
 10
0.0
 20
-3.6400000000000006
 10
0.0
 20
-3.3599999999999994
 10
0.0
 20
-3.08
 10
0.0
 20
-2.8000000000000007
 10
0.0
 20
-2.5199999999999996
 10
0.0
 20
-2.24
 10
0.0
 20
-1.9600000000000009
 10
0.0
 20
-1.6799999999999997
 10
0.0
 20
-1.4000000000000004
 10
0.0
 20
-1.1199999999999992
 10
0.0
 20
-0.8399999999999999
 10
0.0
 20
-0.5600000000000005
 10
0.0
 20
-0.27999999999999936
 10
0.0
 20
0.0
  0
LWPOLYLINE
  5
3E
330
17
100
AcDbEntity
  8
0
100
AcDbPolyline
 90
51
 70
0
 10
-18.76246280363
 20
0.0
 10
-18.76246280363
 20
-0.14
 10
-18.76246280363
 20
-0.28
 10
-18.76246280363
 20
-0.42
 10
-18.76246280363
 20
-0.56
 10
-18.76246280363
 20
-0.7
 10
-18.76246280363
 20
-0.84
 10
-18.76246280363
 20
-0.98
 10
-18.76246280363
 20
-1.12
 10
-18.76246280363
 20
-1.26
 10
-18.76246280363
 20
-1.4
 10
-18.76246280363
 20
-1.54
 10
-18.76246280363
 20
-1.68
 10
-18.76246280363
 20
-1.82
 10
-18.76246280363
 20
-1.96
 10
-18.76246280363
 20
-2.1
 10
-18.76246280363
 20
-2.24
 10
-18.76246280363
 20
-2.38
 10
-18.76246280363
 20
-2.52
 10
-18.76246280363
 20
-2.66
 10
-18.76246280363
 20
-2.8
 10
-18.76246280363
 20
-2.94
 10
-18.76246280363
 20
-3.08
 10
-18.76246280363
 20
-3.22
 10
-18.76246280363
 20
-3.36
 10
-18.76246280363
 20
-3.5
 10
-18.76246280363
 20
-3.64
 10
-18.76246280363
 20
-3.78
 10
-18.76246280363
 20
-3.92
 10
-18.76246280363
 20
-4.06
 10
-18.76246280363
 20
-4.2
 10
-18.76246280363
 20
-4.34
 10
-18.76246280363
 20
-4.48
 10
-18.76246280363
 20
-4.62
 10
-18.76246280363
 20
-4.76
 10
-18.76246280363
 20
-4.9
 10
-18.76246280363
 20
-5.04
 10
-18.76246280363
 20
-5.18
 10
-18.76246280363
 20
-5.32
 10
-18.76246280363
 20
-5.46
 10
-18.76246280363
 20
-5.6
 10
-18.76246280363
 20
-5.74
 10
-18.76246280363
 20
-5.88
 10
-18.76246280363
 20
-6.02
 10
-18.76246280363
 20
-6.16
 10
-18.76246280363
 20
-6.3
 10
-18.76246280363
 20
-6.44
 10
-18.76246280363
 20
-6.58
 10
-18.76246280363
 20
-6.72
 10
-18.76246280363
 20
-6.86
 10
-18.76246280363
 20
-7.0
  0
LWPOLYLINE
  5
3F
330
17
100
AcDbEntity
  8
0
100
AcDbPolyline
 90
51
 70
0
 10
-8.0
 20
-14.0
 10
-7.84
 20
-14.0
 10
-7.68
 20
-14.0
 10
-7.52
 20
-14.0
 10
-7.36
 20
-14.0
 10
-7.2
 20
-14.0
 10
-7.04
 20
-14.0
 10
-6.88
 20
-14.0
 10
-6.72
 20
-14.0
 10
-6.5600000000000005
 20
-14.0
 10
-6.4
 20
-14.0
 10
-6.24
 20
-14.0
 10
-6.08
 20
-14.0
 10
-5.92
 20
-14.0
 10
-5.76
 20
-14.0
 10
-5.6
 20
-14.0
 10
-5.4399999999999995
 20
-14.0
 10
-5.279999999999999
 20
-14.0
 10
-5.12
 20
-14.0
 10
-4.96
 20
-14.0
 10
-4.8
 20
-14.0
 10
-4.640000000000001
 20
-14.0
 10
-4.48
 20
-14.0
 10
-4.32
 20
-14.0
 10
-4.16
 20
-14.0
 10
-4.0
 20
-14.0
 10
-3.84
 20
-14.0
 10
-3.6799999999999997
 20
-14.0
 10
-3.5199999999999996
 20
-14.0
 10
-3.3600000000000003
 20
-14.0
 10
-3.2
 20
-14.0
 10
-3.04
 20
-14.0
 10
-2.88
 20
-14.0
 10
-2.7199999999999998
 20
-14.0
 10
-2.5599999999999996
 20
-14.0
 10
-2.4000000000000004
 20
-14.0
 10
-2.24
 20
-14.0
 10
-2.08
 20
-14.0
 10
-1.92
 20
-14.0
 10
-1.7599999999999998
 20
-14.0
 10
-1.5999999999999996
 20
-14.0
 10
-1.4400000000000004
 20
-14.0
 10
-1.2800000000000002
 20
-14.0
 10
-1.12
 20
-14.0
 10
-0.96
 20
-14.0
 10
-0.7999999999999998
 20
-14.0
 10
-0.6399999999999997
 20
-14.0
 10
-0.4800000000000004
 20
-14.0
 10
-0.3200000000000003
 20
-14.0
 10
-0.16000000000000014
 20
-14.0
 10
0.0
 20
-14.0
  0
ENDSEC
  0
SECTION
  2
OBJECTS
  0
DICTIONARY
  5
A
330
0
100
AcDbDictionary
280
0
281
1
  3
ACAD_COLOR
350
B
  3
ACAD_GROUP
350
C
  3
ACAD_LAYOUT
350
D
  3
ACAD_MATERIAL
350
E
  3
ACAD_MLEADERSTYLE
350
F
  3
ACAD_MLINESTYLE
350
10
  3
ACAD_PLOTSETTINGS
350
11
  3
ACAD_PLOTSTYLENAME
350
12
  3
ACAD_SCALELIST
350
14
  3
ACAD_TABLESTYLE
350
15
  3
ACAD_VISUALSTYLE
350
16
  3
EZDXF_META
350
2D
  0
DICTIONARY
  5
B
330
A
100
AcDbDictionary
280
0
281
1
  0
DICTIONARY
  5
C
330
A
100
AcDbDictionary
280
0
281
1
  0
DICTIONARY
  5
D
330
A
100
AcDbDictionary
280
0
281
1
  3
Model
350
1A
  3
Layout1
350
1E
  0
DICTIONARY
  5
E
330
A
100
AcDbDictionary
280
0
281
1
  3
ByBlock
350
1F
  3
ByLayer
350
20
  3
Global
350
21
  0
DICTIONARY
  5
F
330
A
100
AcDbDictionary
280
0
281
1
  3
Standard
350
2C
  0
DICTIONARY
  5
10
330
A
100
AcDbDictionary
280
0
281
1
  3
Standard
350
22
  0
DICTIONARY
  5
11
330
A
100
AcDbDictionary
280
0
281
1
  0
ACDBDICTIONARYWDFLT
  5
12
330
A
100
AcDbDictionary
280
0
281
1
  3
Normal
350
13
100
AcDbDictionaryWithDefault
340
13
  0
ACDBPLACEHOLDER
  5
13
330
12
  0
DICTIONARY
  5
14
330
A
100
AcDbDictionary
280
0
281
1
  0
DICTIONARY
  5
15
330
A
100
AcDbDictionary
280
0
281
1
  0
DICTIONARY
  5
16
330
A
100
AcDbDictionary
280
0
281
1
  0
LAYOUT
  5
1A
330
D
100
AcDbPlotSettings
  1

  2
Adobe PDF
  4
A3
  6

 40
7.5
 41
20.0
 42
7.5
 43
20.0
 44
420.0
 45
297.0
 46
0.0
 47
0.0
 48
0.0
 49
0.0
140
0.0
141
0.0
142
1.0
143
1.0
 70
1024
 72
1
 73
0
 74
5
  7

 75
16
 76
0
 77
2
 78
300
147
1.0
148
0.0
149
0.0
100
AcDbLayout
  1
Model
 70
1
 71
0
 10
0.0
 20
0.0
 11
420.0
 21
297.0
 12
0.0
 22
0.0
 32
0.0
 14
1e+20
 24
1e+20
 34
1e+20
 15
-1e+20
 25
-1e+20
 35
-1e+20
146
0.0
 13
0.0
 23
0.0
 33
0.0
 16
1.0
 26
0.0
 36
0.0
 17
0.0
 27
1.0
 37
0.0
 76
1
330
17
  0
LAYOUT
  5
1E
330
D
100
AcDbPlotSettings
  1

  2
Adobe PDF
  4
A3
  6

 40
7.5
 41
20.0
 42
7.5
 43
20.0
 44
420.0
 45
297.0
 46
0.0
 47
0.0
 48
0.0
 49
0.0
140
0.0
141
0.0
142
1.0
143
1.0
 70
0
 72
1
 73
0
 74
5
  7

 75
16
 76
0
 77
2
 78
300
147
1.0
148
0.0
149
0.0
100
AcDbLayout
  1
Layout1
 70
1
 71
1
 10
0.0
 20
0.0
 11
420.0
 21
297.0
 12
0.0
 22
0.0
 32
0.0
 14
1e+20
 24
1e+20
 34
1e+20
 15
-1e+20
 25
-1e+20
 35
-1e+20
146
0.0
 13
0.0
 23
0.0
 33
0.0
 16
1.0
 26
0.0
 36
0.0
 17
0.0
 27
1.0
 37
0.0
 76
1
330
1B
  0
MATERIAL
  5
1F
102
{ACAD_REACTORS
330
E
102
}
330
E
100
AcDbMaterial
  1
ByBlock
  2

 70
0
 40
1.0
 71
1
 41
1.0
 91
-1023410177
 42
1.0
 72
1
  3

 73
1
 74
1
 75
1
 44
0.5
 73
0
 45
1.0
 46
1.0
 77
1
  4

 78
1
 79
1
170
1
 48
1.0
171
1
  6

172
1
173
1
174
1
140
1.0
141
1.0
175
1
  7

176
1
177
1
178
1
143
1.0
179
1
  8

270
1
271
1
272
1
145
1.0
146
1.0
273
1
  9

274
1
275
1
276
1
 42
1.0
 72
1
  3

 73
1
 74
1
 75
1
 94
63
  0
MATERIAL
  5
20
102
{ACAD_REACTORS
330
E
102
}
330
E
100
AcDbMaterial
  1
ByLayer
  2

 70
0
 40
1.0
 71
1
 41
1.0
 91
-1023410177
 42
1.0
 72
1
  3

 73
1
 74
1
 75
1
 44
0.5
 73
0
 45
1.0
 46
1.0
 77
1
  4

 78
1
 79
1
170
1
 48
1.0
171
1
  6

172
1
173
1
174
1
140
1.0
141
1.0
175
1
  7

176
1
177
1
178
1
143
1.0
179
1
  8

270
1
271
1
272
1
145
1.0
146
1.0
273
1
  9

274
1
275
1
276
1
 42
1.0
 72
1
  3

 73
1
 74
1
 75
1
 94
63
  0
MATERIAL
  5
21
102
{ACAD_REACTORS
330
E
102
}
330
E
100
AcDbMaterial
  1
Global
  2

 70
0
 40
1.0
 71
1
 41
1.0
 91
-1023410177
 42
1.0
 72
1
  3

 73
1
 74
1
 75
1
 44
0.5
 73
0
 45
1.0
 46
1.0
 77
1
  4

 78
1
 79
1
170
1
 48
1.0
171
1
  6

172
1
173
1
174
1
140
1.0
141
1.0
175
1
  7

176
1
177
1
178
1
143
1.0
179
1
  8

270
1
271
1
272
1
145
1.0
146
1.0
273
1
  9

274
1
275
1
276
1
 42
1.0
 72
1
  3

 73
1
 74
1
 75
1
 94
63
  0
MLINESTYLE
  5
22
102
{ACAD_REACTORS
330
10
102
}
330
10
100
AcDbMlineStyle
  2
Standard
 70
0
  3

 62
256
 51
90.0
 52
90.0
 71
2
 49
0.5
 62
256
  6
BYLAYER
 49
-0.5
 62
256
  6
BYLAYER
  0
MLEADERSTYLE
  5
2C
102
{ACAD_REACTORS
330
F
102
}
330
F
100
AcDbMLeaderStyle
179
2
170
2
171
1
172
0
 90
2
 40
0.0
 41
0.0
173
1
 91
-1056964608
 92
-2
290
1
 42
2.0
291
1
 43
8.0
  3
Standard
 44
4.0
300

342
29
174
1
175
1
176
0
178
1
 93
-1056964608
 45
4.0
292
0
297
0
 46
4.0
 94
-1056964608
 47
1.0
 49
1.0
140
1.0
294
1
141
0.0
177
0
142
1.0
295
0
296
0
143
3.75
271
0
272
9
273
9
  0
DICTIONARY
  5
2D
330
A
100
AcDbDictionary
281
1
  3
CREATED_BY_EZDXF
350
2E
  3
WRITTEN_BY_EZDXF
350
42
  0
DICTIONARYVAR
  5
2E
330
2D
100
DictionaryVariables
280
0
  1
1.0.3 @ 2025-05-29T09:41:25.171840+00:00
  0
DICTIONARYVAR
  5
42
330
2D
100
DictionaryVariables
280
0
  1
1.0.3 @ 2025-05-29T09:41:25.175370+00:00
  0
ENDSEC
  0
EOF
