  0
SECTION
  2
HEADER
  9
$ACADVER
  1
AC1027
  9
$ACADMAINTVER
 70
105
  9
$DWGCODEPAGE
  3
ANSI_1252
  9
$LASTSAVEDBY
  1
ezdxf
  9
$REQUIREDVERSIONS
160
0
  9
$INSBASE
 10
0.0
 20
0.0
 30
0.0
  9
$EXTMIN
 10
1e+20
 20
1e+20
 30
1e+20
  9
$EXTMAX
 10
-1e+20
 20
-1e+20
 30
-1e+20
  9
$LIMMIN
 10
0.0
 20
0.0
  9
$LIMMAX
 10
420.0
 20
297.0
  9
$ORTHOMODE
 70
0
  9
$REGENMODE
 70
1
  9
$FILLMODE
 70
1
  9
$QTEXTMODE
 70
0
  9
$MIRRTEXT
 70
1
  9
$LTSCALE
 40
1.0
  9
$ATTMODE
 70
1
  9
$TEXTSIZE
 40
2.5
  9
$TRACEWID
 40
1.0
  9
$TEXTSTYLE
  7
Standard
  9
$CLAYER
  8
0
  9
$CELTYPE
  6
ByLayer
  9
$CECOLOR
 62
256
  9
$CELTSCALE
 40
1.0
  9
$DISPSILH
 70
0
  9
$DIMSCALE
 40
1.0
  9
$DIMASZ
 40
2.5
  9
$DIMEXO
 40
0.625
  9
$DIMDLI
 40
3.75
  9
$DIMRND
 40
0.0
  9
$DIMDLE
 40
0.0
  9
$DIMEXE
 40
1.25
  9
$DIMTP
 40
0.0
  9
$DIMTM
 40
0.0
  9
$DIMTXT
 40
2.5
  9
$DIMCEN
 40
2.5
  9
$DIMTSZ
 40
0.0
  9
$DIMTOL
 70
0
  9
$DIMLIM
 70
0
  9
$DIMTIH
 70
0
  9
$DIMTOH
 70
0
  9
$DIMSE1
 70
0
  9
$DIMSE2
 70
0
  9
$DIMTAD
 70
1
  9
$DIMZIN
 70
8
  9
$DIMBLK
  1

  9
$DIMASO
 70
1
  9
$DIMSHO
 70
1
  9
$DIMPOST
  1

  9
$DIMAPOST
  1

  9
$DIMALT
 70
0
  9
$DIMALTD
 70
3
  9
$DIMALTF
 40
0.03937007874
  9
$DIMLFAC
 40
1.0
  9
$DIMTOFL
 70
1
  9
$DIMTVP
 40
0.0
  9
$DIMTIX
 70
0
  9
$DIMSOXD
 70
0
  9
$DIMSAH
 70
0
  9
$DIMBLK1
  1

  9
$DIMBLK2
  1

  9
$DIMSTYLE
  2
ISO-25
  9
$DIMCLRD
 70
0
  9
$DIMCLRE
 70
0
  9
$DIMCLRT
 70
0
  9
$DIMTFAC
 40
1.0
  9
$DIMGAP
 40
0.625
  9
$DIMJUST
 70
0
  9
$DIMSD1
 70
0
  9
$DIMSD2
 70
0
  9
$DIMTOLJ
 70
0
  9
$DIMTZIN
 70
8
  9
$DIMALTZ
 70
0
  9
$DIMALTTZ
 70
0
  9
$DIMUPT
 70
0
  9
$DIMDEC
 70
2
  9
$DIMTDEC
 70
2
  9
$DIMALTU
 70
2
  9
$DIMALTTD
 70
3
  9
$DIMTXSTY
  7
Standard
  9
$DIMAUNIT
 70
0
  9
$DIMADEC
 70
0
  9
$DIMALTRND
 40
0.0
  9
$DIMAZIN
 70
0
  9
$DIMDSEP
 70
44
  9
$DIMATFIT
 70
3
  9
$DIMFRAC
 70
0
  9
$DIMLDRBLK
  1

  9
$DIMLUNIT
 70
2
  9
$DIMLWD
 70
-2
  9
$DIMLWE
 70
-2
  9
$DIMTMOVE
 70
0
  9
$DIMFXL
 40
1.0
  9
$DIMFXLON
 70
0
  9
$DIMJOGANG
 40
0.785398163397
  9
$DIMTFILL
 70
0
  9
$DIMTFILLCLR
 70
0
  9
$DIMARCSYM
 70
0
  9
$DIMLTYPE
  6

  9
$DIMLTEX1
  6

  9
$DIMLTEX2
  6

  9
$DIMTXTDIRECTION
 70
0
  9
$LUNITS
 70
2
  9
$LUPREC
 70
4
  9
$SKETCHINC
 40
1.0
  9
$FILLETRAD
 40
10.0
  9
$AUNITS
 70
0
  9
$AUPREC
 70
2
  9
$MENU
  1
.
  9
$ELEVATION
 40
0.0
  9
$PELEVATION
 40
0.0
  9
$THICKNESS
 40
0.0
  9
$LIMCHECK
 70
0
  9
$CHAMFERA
 40
0.0
  9
$CHAMFERB
 40
0.0
  9
$CHAMFERC
 40
0.0
  9
$CHAMFERD
 40
0.0
  9
$SKPOLY
 70
0
  9
$TDCREATE
 40
2460825.778761574
  9
$TDUCREATE
 40
2458532.153996898
  9
$TDUPDATE
 40
2460825.778761574
  9
$TDUUPDATE
 40
2458532.1544311
  9
$TDINDWG
 40
0.0
  9
$TDUSRTIMER
 40
0.0
  9
$USRTIMER
 70
1
  9
$ANGBASE
 50
0.0
  9
$ANGDIR
 70
0
  9
$PDMODE
 70
0
  9
$PDSIZE
 40
0.0
  9
$PLINEWID
 40
0.0
  9
$SPLFRAME
 70
0
  9
$SPLINETYPE
 70
6
  9
$SPLINESEGS
 70
8
  9
$HANDSEED
  5
43
  9
$SURFTAB1
 70
6
  9
$SURFTAB2
 70
6
  9
$SURFTYPE
 70
6
  9
$SURFU
 70
6
  9
$SURFV
 70
6
  9
$UCSBASE
  2

  9
$UCSNAME
  2

  9
$UCSORG
 10
0.0
 20
0.0
 30
0.0
  9
$UCSXDIR
 10
1.0
 20
0.0
 30
0.0
  9
$UCSYDIR
 10
0.0
 20
1.0
 30
0.0
  9
$UCSORTHOREF
  2

  9
$UCSORTHOVIEW
 70
0
  9
$UCSORGTOP
 10
0.0
 20
0.0
 30
0.0
  9
$UCSORGBOTTOM
 10
0.0
 20
0.0
 30
0.0
  9
$UCSORGLEFT
 10
0.0
 20
0.0
 30
0.0
  9
$UCSORGRIGHT
 10
0.0
 20
0.0
 30
0.0
  9
$UCSORGFRONT
 10
0.0
 20
0.0
 30
0.0
  9
$UCSORGBACK
 10
0.0
 20
0.0
 30
0.0
  9
$PUCSBASE
  2

  9
$PUCSNAME
  2

  9
$PUCSORG
 10
0.0
 20
0.0
 30
0.0
  9
$PUCSXDIR
 10
1.0
 20
0.0
 30
0.0
  9
$PUCSYDIR
 10
0.0
 20
1.0
 30
0.0
  9
$PUCSORTHOREF
  2

  9
$PUCSORTHOVIEW
 70
0
  9
$PUCSORGTOP
 10
0.0
 20
0.0
 30
0.0
  9
$PUCSORGBOTTOM
 10
0.0
 20
0.0
 30
0.0
  9
$PUCSORGLEFT
 10
0.0
 20
0.0
 30
0.0
  9
$PUCSORGRIGHT
 10
0.0
 20
0.0
 30
0.0
  9
$PUCSORGFRONT
 10
0.0
 20
0.0
 30
0.0
  9
$PUCSORGBACK
 10
0.0
 20
0.0
 30
0.0
  9
$USERI1
 70
0
  9
$USERI2
 70
0
  9
$USERI3
 70
0
  9
$USERI4
 70
0
  9
$USERI5
 70
0
  9
$USERR1
 40
0.0
  9
$USERR2
 40
0.0
  9
$USERR3
 40
0.0
  9
$USERR4
 40
0.0
  9
$USERR5
 40
0.0
  9
$WORLDVIEW
 70
1
  9
$SHADEDGE
 70
3
  9
$SHADEDIF
 70
70
  9
$TILEMODE
 70
1
  9
$MAXACTVP
 70
64
  9
$PINSBASE
 10
0.0
 20
0.0
 30
0.0
  9
$PLIMCHECK
 70
0
  9
$PEXTMIN
 10
1e+20
 20
1e+20
 30
1e+20
  9
$PEXTMAX
 10
-1e+20
 20
-1e+20
 30
-1e+20
  9
$PLIMMIN
 10
0.0
 20
0.0
  9
$PLIMMAX
 10
420.0
 20
297.0
  9
$UNITMODE
 70
0
  9
$VISRETAIN
 70
1
  9
$PLINEGEN
 70
0
  9
$PSLTSCALE
 70
1
  9
$TREEDEPTH
 70
3020
  9
$CMLSTYLE
  2
Standard
  9
$CMLJUST
 70
0
  9
$CMLSCALE
 40
20.0
  9
$PROXYGRAPHICS
 70
1
  9
$MEASUREMENT
 70
1
  9
$CELWEIGHT
370
-1
  9
$ENDCAPS
280
0
  9
$JOINSTYLE
280
0
  9
$LWDISPLAY
290
0
  9
$INSUNITS
 70
6
  9
$HYPERLINKBASE
  1

  9
$STYLESHEET
  1

  9
$XEDIT
290
1
  9
$CEPSNTYPE
380
0
  9
$PSTYLEMODE
290
1
  9
$FINGERPRINTGUID
  2
{FCB2BA5C-D5BE-4613-8FAD-F3DC021AC272}
  9
$VERSIONGUID
  2
{0EA77F39-8426-4957-8DA0-74DD85823C1F}
  9
$EXTNAMES
290
1
  9
$PSVPSCALE
 40
0.0
  9
$OLESTARTUP
290
0
  9
$SORTENTS
280
127
  9
$INDEXCTL
280
0
  9
$HIDETEXT
280
1
  9
$XCLIPFRAME
280
0
  9
$HALOGAP
280
0
  9
$OBSCOLOR
 70
257
  9
$OBSLTYPE
280
0
  9
$INTERSECTIONDISPLAY
280
0
  9
$INTERSECTIONCOLOR
 70
257
  9
$DIMASSOC
280
2
  9
$PROJECTNAME
  1

  9
$CAMERADISPLAY
290
0
  9
$LENSLENGTH
 40
50.0
  9
$CAMERAHEIGHT
 40
0.0
  9
$STEPSPERSEC
 40
24.0
  9
$STEPSIZE
 40
100.0
  9
$3DDWFPREC
 40
2.0
  9
$PSOLWIDTH
 40
0.005
  9
$PSOLHEIGHT
 40
0.08
  9
$LOFTANG1
 40
1.570796326795
  9
$LOFTANG2
 40
1.570796326795
  9
$LOFTMAG1
 40
0.0
  9
$LOFTMAG2
 40
0.0
  9
$LOFTPARAM
 70
7
  9
$LOFTNORMALS
280
1
  9
$LATITUDE
 40
37.795
  9
$LONGITUDE
 40
-122.394
  9
$NORTHDIRECTION
 40
0.0
  9
$TIMEZONE
 70
-8000
  9
$LIGHTGLYPHDISPLAY
280
1
  9
$TILEMODELIGHTSYNCH
280
1
  9
$CMATERIAL
347
20
  9
$SOLIDHIST
280
0
  9
$SHOWHIST
280
1
  9
$DWFFRAME
280
2
  9
$DGNFRAME
280
2
  9
$REALWORLDSCALE
290
1
  9
$INTERFERECOLOR
 62
256
  9
$CSHADOW
280
0
  9
$SHADOWPLANELOCATION
 40
0.0
  0
ENDSEC
  0
SECTION
  2
CLASSES
  0
CLASS
  1
ACDBDICTIONARYWDFLT
  2
AcDbDictionaryWithDefault
  3
ObjectDBX Classes
 90
0
 91
0
280
0
281
0
  0
CLASS
  1
SUN
  2
AcDbSun
  3
SCENEOE
 90
1153
 91
0
280
0
281
0
  0
CLASS
  1
VISUALSTYLE
  2
AcDbVisualStyle
  3
ObjectDBX Classes
 90
4095
 91
0
280
0
281
0
  0
CLASS
  1
MATERIAL
  2
AcDbMaterial
  3
ObjectDBX Classes
 90
1153
 91
0
280
0
281
0
  0
CLASS
  1
SCALE
  2
AcDbScale
  3
ObjectDBX Classes
 90
1153
 91
0
280
0
281
0
  0
CLASS
  1
TABLESTYLE
  2
AcDbTableStyle
  3
ObjectDBX Classes
 90
4095
 91
0
280
0
281
0
  0
CLASS
  1
MLEADERSTYLE
  2
AcDbMLeaderStyle
  3
ACDB_MLEADERSTYLE_CLASS
 90
4095
 91
0
280
0
281
0
  0
CLASS
  1
DICTIONARYVAR
  2
AcDbDictionaryVar
  3
ObjectDBX Classes
 90
0
 91
0
280
0
281
0
  0
CLASS
  1
CELLSTYLEMAP
  2
AcDbCellStyleMap
  3
ObjectDBX Classes
 90
1152
 91
0
280
0
281
0
  0
CLASS
  1
MENTALRAYRENDERSETTINGS
  2
AcDbMentalRayRenderSettings
  3
SCENEOE
 90
1024
 91
0
280
0
281
0
  0
CLASS
  1
ACDBDETAILVIEWSTYLE
  2
AcDbDetailViewStyle
  3
ObjectDBX Classes
 90
1025
 91
0
280
0
281
0
  0
CLASS
  1
ACDBSECTIONVIEWSTYLE
  2
AcDbSectionViewStyle
  3
ObjectDBX Classes
 90
1025
 91
0
280
0
281
0
  0
CLASS
  1
RASTERVARIABLES
  2
AcDbRasterVariables
  3
ISM
 90
0
 91
0
280
0
281
0
  0
CLASS
  1
LAYOUT
  2
AcDbLayout
  3
ObjectDBX Classes
 90
0
 91
0
280
0
281
0
  0
CLASS
  1
ACDBPLACEHOLDER
  2
AcDbPlaceHolder
  3
ObjectDBX Classes
 90
0
 91
0
280
0
281
0
  0
ENDSEC
  0
SECTION
  2
TABLES
  0
TABLE
  2
VPORT
  5
8
330
0
100
AcDbSymbolTable
 70
1
  0
VPORT
  5
23
330
8
100
AcDbSymbolTableRecord
100
AcDbViewportTableRecord
  2
*Active
 70
0
 10
0.0
 20
0.0
 11
1.0
 21
1.0
 12
0.0
 22
0.0
 13
0.0
 23
0.0
 14
0.5
 24
0.5
 15
0.5
 25
0.5
 16
0.0
 26
0.0
 36
1.0
 17
0.0
 27
0.0
 37
0.0
 40
1000.0
 41
1.34
 42
50.0
 43
0.0
 44
0.0
 50
0.0
 51
0.0
 71
0
 72
1000
 73
1
 74
3
 75
0
 76
0
 77
0
 78
0
281
0
 65
0
146
0.0
  0
ENDTAB
  0
TABLE
  2
LTYPE
  5
2
330
0
100
AcDbSymbolTable
 70
3
  0
LTYPE
  5
24
330
2
100
AcDbSymbolTableRecord
100
AcDbLinetypeTableRecord
  2
ByBlock
 70
0
  3

 72
65
 73
0
 40
0.0
  0
LTYPE
  5
25
330
2
100
AcDbSymbolTableRecord
100
AcDbLinetypeTableRecord
  2
ByLayer
 70
0
  3

 72
65
 73
0
 40
0.0
  0
LTYPE
  5
26
330
2
100
AcDbSymbolTableRecord
100
AcDbLinetypeTableRecord
  2
Continuous
 70
0
  3

 72
65
 73
0
 40
0.0
  0
ENDTAB
  0
TABLE
  2
LAYER
  5
1
330
0
100
AcDbSymbolTable
 70
2
  0
LAYER
  5
27
330
1
100
AcDbSymbolTableRecord
100
AcDbLayerTableRecord
  2
0
 70
0
 62
7
  6
Continuous
370
-3
390
13
347
21
  0
LAYER
  5
28
330
1
100
AcDbSymbolTableRecord
100
AcDbLayerTableRecord
  2
Defpoints
 70
0
 62
7
  6
Continuous
290
0
370
-3
390
13
347
21
  0
ENDTAB
  0
TABLE
  2
STYLE
  5
5
330
0
100
AcDbSymbolTable
 70
1
  0
STYLE
  5
29
330
5
100
AcDbSymbolTableRecord
100
AcDbTextStyleTableRecord
  2
Standard
 70
0
 40
0.0
 41
1.0
 50
0.0
 71
0
 42
2.5
  3
txt
  4

  0
ENDTAB
  0
TABLE
  2
VIEW
  5
7
330
0
100
AcDbSymbolTable
 70
0
  0
ENDTAB
  0
TABLE
  2
UCS
  5
6
330
0
100
AcDbSymbolTable
 70
0
  0
ENDTAB
  0
TABLE
  2
APPID
  5
3
330
0
100
AcDbSymbolTable
 70
3
  0
APPID
  5
2A
330
3
100
AcDbSymbolTableRecord
100
AcDbRegAppTableRecord
  2
ACAD
 70
0
  0
APPID
  5
40
330
3
100
AcDbSymbolTableRecord
100
AcDbRegAppTableRecord
  2
HATCHBACKGROUNDCOLOR
 70
0
  0
APPID
  5
41
330
3
100
AcDbSymbolTableRecord
100
AcDbRegAppTableRecord
  2
EZDXF
 70
0
  0
ENDTAB
  0
TABLE
  2
DIMSTYLE
  5
4
330
0
100
AcDbSymbolTable
 70
1
100
AcDbDimStyleTable
  0
DIMSTYLE
105
2B
330
4
100
AcDbSymbolTableRecord
100
AcDbDimStyleTableRecord
  2
Standard
 70
0
 40
1.0
 41
2.5
 42
0.625
 43
3.75
 44
1.25
 45
0.0
 46
0.0
 47
0.0
 48
0.0
 49
2.5
140
2.5
141
2.5
142
0.0
143
0.03937007874
144
1.0
145
0.0
146
1.0
147
0.625
148
0.0
 69
0
 70
0
 71
0
 72
0
 73
0
 74
0
 75
0
 76
0
 77
1
 78
8
 79
3
170
0
171
3
172
1
173
0
174
0
175
0
176
0
177
0
178
0
179
2
271
2
272
2
273
2
274
3
275
0
276
0
277
2
278
44
279
0
280
0
281
0
282
0
283
0
284
8
285
0
286
0
288
0
289
3
290
0
371
-2
372
-2
  0
ENDTAB
  0
TABLE
  2
BLOCK_RECORD
  5
9
330
0
100
AcDbSymbolTable
 70
2
  0
BLOCK_RECORD
  5
17
330
9
100
AcDbSymbolTableRecord
100
AcDbBlockTableRecord
  2
*Model_Space
340
1A
 70
0
280
1
281
0
  0
BLOCK_RECORD
  5
1B
330
9
100
AcDbSymbolTableRecord
100
AcDbBlockTableRecord
  2
*Paper_Space
340
1E
 70
0
280
1
281
0
  0
ENDTAB
  0
ENDSEC
  0
SECTION
  2
BLOCKS
  0
BLOCK
  5
18
330
17
100
AcDbEntity
  8
0
100
AcDbBlockBegin
  2
*Model_Space
 70
0
 10
0.0
 20
0.0
 30
0.0
  3
*Model_Space
  1

  0
ENDBLK
  5
19
330
17
100
AcDbEntity
  8
0
100
AcDbBlockEnd
  0
BLOCK
  5
1C
330
1B
100
AcDbEntity
  8
0
100
AcDbBlockBegin
  2
*Paper_Space
 70
0
 10
0.0
 20
0.0
 30
0.0
  3
*Paper_Space
  1

  0
ENDBLK
  5
1D
330
1B
100
AcDbEntity
  8
0
100
AcDbBlockEnd
  0
ENDSEC
  0
SECTION
  2
ENTITIES
  0
LWPOLYLINE
  5
2F
330
17
100
AcDbEntity
  8
0
100
AcDbPolyline
 90
51
 70
0
 10
-4.0
 20
16.5
 10
-3.84
 20
16.5
 10
-3.68
 20
16.5
 10
-3.52
 20
16.5
 10
-3.36
 20
16.5
 10
-3.2
 20
16.5
 10
-3.04
 20
16.5
 10
-2.88
 20
16.5
 10
-2.7199999999999998
 20
16.5
 10
-2.56
 20
16.5
 10
-2.4
 20
16.5
 10
-2.24
 20
16.5
 10
-2.08
 20
16.5
 10
-1.92
 20
16.5
 10
-1.7599999999999998
 20
16.5
 10
-1.6
 20
16.5
 10
-1.44
 20
16.5
 10
-1.2799999999999998
 20
16.5
 10
-1.12
 20
16.5
 10
-0.96
 20
16.5
 10
-0.7999999999999998
 20
16.5
 10
-0.6400000000000001
 20
16.5
 10
-0.48
 20
16.5
 10
-0.31999999999999984
 20
16.5
 10
-0.16000000000000014
 20
16.5
 10
0.0
 20
16.5
 10
0.16000000000000014
 20
16.5
 10
0.3200000000000003
 20
16.5
 10
0.4800000000000004
 20
16.5
 10
0.6399999999999997
 20
16.5
 10
0.7999999999999998
 20
16.5
 10
0.96
 20
16.5
 10
1.12
 20
16.5
 10
1.2800000000000002
 20
16.5
 10
1.4400000000000004
 20
16.5
 10
1.5999999999999996
 20
16.5
 10
1.7599999999999998
 20
16.5
 10
1.92
 20
16.5
 10
2.08
 20
16.5
 10
2.24
 20
16.5
 10
2.4000000000000004
 20
16.5
 10
2.5599999999999996
 20
16.5
 10
2.7199999999999998
 20
16.5
 10
2.88
 20
16.5
 10
3.04
 20
16.5
 10
3.2
 20
16.5
 10
3.3600000000000003
 20
16.5
 10
3.5199999999999996
 20
16.5
 10
3.6799999999999997
 20
16.5
 10
3.84
 20
16.5
 10
4.0
 20
16.5
  0
LWPOLYLINE
  5
30
330
17
100
AcDbEntity
  8
0
100
AcDbPolyline
 90
51
 70
0
 10
-4.0
 20
4.5
 10
-4.0
 20
4.410000000000041
 10
-4.0
 20
4.320000000000082
 10
-4.0
 20
4.230000000000122
 10
-4.0
 20
4.140000000000163
 10
-4.0
 20
4.050000000000204
 10
-4.0
 20
3.960000000000245
 10
-4.0
 20
3.8700000000002857
 10
-4.0
 20
3.7800000000003267
 10
-4.0
 20
3.690000000000367
 10
-4.0
 20
3.600000000000408
 10
-4.0
 20
3.510000000000449
 10
-4.0
 20
3.4200000000004898
 10
-4.0
 20
3.3300000000005303
 10
-4.0
 20
3.2400000000005713
 10
-4.0
 20
3.1500000000006123
 10
-4.0
 20
3.0600000000006533
 10
-4.0
 20
2.9700000000006943
 10
-4.0
 20
2.8800000000007344
 10
-4.0
 20
2.7900000000007754
 10
-4.0
 20
2.7000000000008164
 10
-4.0
 20
2.6100000000008574
 10
-4.0
 20
2.5200000000008984
 10
-4.0
 20
2.430000000000939
 10
-4.0
 20
2.3400000000009795
 10
-4.0
 20
2.2500000000010205
 10
-4.0
 20
2.160000000001061
 10
-4.0
 20
2.070000000001102
 10
-4.0
 20
1.980000000001143
 10
-4.0
 20
1.890000000001184
 10
-4.0
 20
1.8000000000012246
 10
-4.0
 20
1.7100000000012652
 10
-4.0
 20
1.6200000000013062
 10
-4.0
 20
1.5300000000013472
 10
-4.0
 20
1.4400000000013882
 10
-4.0
 20
1.3500000000014283
 10
-4.0
 20
1.2600000000014693
 10
-4.0
 20
1.1700000000015103
 10
-4.0
 20
1.0800000000015513
 10
-4.0
 20
0.9900000000015923
 10
-4.0
 20
0.9000000000016324
 10
-4.0
 20
0.8100000000016734
 10
-4.0
 20
0.7200000000017144
 10
-4.0
 20
0.6300000000017554
 10
-4.0
 20
0.5400000000017964
 10
-4.0
 20
0.45000000000183693
 10
-4.0
 20
0.36000000000187793
 10
-4.0
 20
0.27000000000191804
 10
-4.0
 20
0.18000000000195904
 10
-4.0
 20
0.09000000000200004
 10
-4.0
 20
2.0410340084708878e-12
  0
LWPOLYLINE
  5
31
330
17
100
AcDbEntity
  8
0
100
AcDbPolyline
 90
51
 70
0
 10
-4.0
 20
4.5
 10
-4.0
 20
4.542121107534537
 10
-4.0
 20
4.5842422150690725
 10
-4.0
 20
4.626363322603609
 10
-4.0
 20
4.7036830387902295
 10
-4.0
 20
4.827934233179628
 10
-4.0
 20
4.952185427569028
 10
-4.0
 20
5.076436621958428
 10
-4.0
 20
5.265744627611006
 10
-4.0
 20
5.46589543514078
 10
-4.0
 20
5.6660462426705545
 10
-4.0
 20
5.885015111884283
 10
-4.0
 20
6.151029135307901
 10
-4.0
 20
6.417043158731519
 10
-4.0
 20
6.683057182155136
 10
-4.0
 20
6.986588464137008
 10
-4.0
 20
7.305126649542184
 10
-4.0
 20
7.623664834947359
 10
-4.0
 20
7.94742463853335
 10
-4.0
 20
8.302514151204239
 10
-4.0
 20
8.657603663875129
 10
-4.0
 20
9.01269317654602
 10
-4.0
 20
9.378494492860176
 10
-4.0
 20
9.752329661906783
 10
-4.0
 20
10.12616483095339
 10
-4.0
 20
10.5
 10
-4.0
 20
10.87383516904661
 10
-4.0
 20
11.247670338093215
 10
-4.0
 20
11.621505507139824
 10
-4.0
 20
11.987306823453983
 10
-4.0
 20
12.34239633612487
 10
-4.0
 20
12.69748584879576
 10
-4.0
 20
13.052575361466651
 10
-4.0
 20
13.376335165052643
 10
-4.0
 20
13.694873350457817
 10
-4.0
 20
14.01341153586299
 10
-4.0
 20
14.316942817844863
 10
-4.0
 20
14.582956841268482
 10
-4.0
 20
14.848970864692097
 10
-4.0
 20
15.114984888115716
 10
-4.0
 20
15.333953757329446
 10
-4.0
 20
15.534104564859218
 10
-4.0
 20
15.734255372388994
 10
-4.0
 20
15.923563378041571
 10
-4.0
 20
16.047814572430973
 10
-4.0
 20
16.17206576682037
 10
-4.0
 20
16.296316961209772
 10
-4.0
 20
16.37363667739639
 10
-4.0
 20
16.41575778493093
 10
-4.0
 20
16.457878892465462
 10
-4.0
 20
16.5
  0
LWPOLYLINE
  5
32
330
17
100
AcDbEntity
  8
0
100
AcDbPolyline
 90
51
 70
0
 10
4.0
 20
16.5
 10
4.0
 20
16.457878892465462
 10
4.0
 20
16.41575778493093
 10
4.0
 20
16.37363667739639
 10
4.0
 20
16.296316961209772
 10
4.0
 20
16.17206576682037
 10
4.0
 20
16.047814572430973
 10
4.0
 20
15.923563378041571
 10
4.0
 20
15.734255372388994
 10
4.0
 20
15.53410456485922
 10
4.0
 20
15.333953757329446
 10
4.0
 20
15.114984888115718
 10
4.0
 20
14.848970864692099
 10
4.0
 20
14.582956841268482
 10
4.0
 20
14.316942817844863
 10
4.0
 20
14.01341153586299
 10
4.0
 20
13.694873350457815
 10
4.0
 20
13.37633516505264
 10
4.0
 20
13.052575361466648
 10
4.0
 20
12.697485848795758
 10
4.0
 20
12.342396336124867
 10
4.0
 20
11.98730682345398
 10
4.0
 20
11.621505507139823
 10
4.0
 20
11.247670338093213
 10
4.0
 20
10.873835169046608
 10
4.0
 20
10.5
 10
4.0
 20
10.12616483095339
 10
4.0
 20
9.752329661906781
 10
4.0
 20
9.378494492860176
 10
4.0
 20
9.012693176546017
 10
4.0
 20
8.657603663875129
 10
4.0
 20
8.302514151204239
 10
4.0
 20
7.947424638533351
 10
4.0
 20
7.623664834947359
 10
4.0
 20
7.305126649542184
 10
4.0
 20
6.986588464137009
 10
4.0
 20
6.683057182155135
 10
4.0
 20
6.41704315873152
 10
4.0
 20
6.151029135307902
 10
4.0
 20
5.885015111884284
 10
4.0
 20
5.666046242670554
 10
4.0
 20
5.465895435140781
 10
4.0
 20
5.265744627611008
 10
4.0
 20
5.076436621958428
 10
4.0
 20
4.952185427569029
 10
4.0
 20
4.827934233179629
 10
4.0
 20
4.7036830387902295
 10
4.0
 20
4.626363322603608
 10
4.0
 20
4.5842422150690725
 10
4.0
 20
4.542121107534537
 10
4.0
 20
4.5
  0
LWPOLYLINE
  5
33
330
17
100
AcDbEntity
  8
0
100
AcDbPolyline
 90
51
 70
0
 10
4.0
 20
4.5
 10
4.0
 20
4.410000000000041
 10
4.0
 20
4.320000000000082
 10
4.0
 20
4.230000000000122
 10
4.0
 20
4.140000000000163
 10
4.0
 20
4.050000000000204
 10
4.0
 20
3.960000000000245
 10
4.0
 20
3.8700000000002857
 10
4.0
 20
3.7800000000003267
 10
4.0
 20
3.690000000000367
 10
4.0
 20
3.600000000000408
 10
4.0
 20
3.510000000000449
 10
4.0
 20
3.4200000000004898
 10
4.0
 20
3.3300000000005303
 10
4.0
 20
3.2400000000005713
 10
4.0
 20
3.1500000000006123
 10
4.0
 20
3.0600000000006533
 10
4.0
 20
2.9700000000006943
 10
4.0
 20
2.8800000000007344
 10
4.0
 20
2.7900000000007754
 10
4.0
 20
2.7000000000008164
 10
4.0
 20
2.6100000000008574
 10
4.0
 20
2.5200000000008984
 10
4.0
 20
2.430000000000939
 10
4.0
 20
2.3400000000009795
 10
4.0
 20
2.2500000000010205
 10
4.0
 20
2.160000000001061
 10
4.0
 20
2.070000000001102
 10
4.0
 20
1.980000000001143
 10
4.0
 20
1.890000000001184
 10
4.0
 20
1.8000000000012246
 10
4.0
 20
1.7100000000012652
 10
4.0
 20
1.6200000000013062
 10
4.0
 20
1.5300000000013472
 10
4.0
 20
1.4400000000013882
 10
4.0
 20
1.3500000000014283
 10
4.0
 20
1.2600000000014693
 10
4.0
 20
1.1700000000015103
 10
4.0
 20
1.0800000000015513
 10
4.0
 20
0.9900000000015923
 10
4.0
 20
0.9000000000016324
 10
4.0
 20
0.8100000000016734
 10
4.0
 20
0.7200000000017144
 10
4.0
 20
0.6300000000017554
 10
4.0
 20
0.5400000000017964
 10
4.0
 20
0.45000000000183693
 10
4.0
 20
0.36000000000187793
 10
4.0
 20
0.27000000000191804
 10
4.0
 20
0.18000000000195904
 10
4.0
 20
0.09000000000200004
 10
4.0
 20
2.0410340084708878e-12
  0
LWPOLYLINE
  5
34
330
17
100
AcDbEntity
  8
0
100
AcDbPolyline
 90
51
 70
0
 10
-4.0
 20
4.5
 10
-3.84
 20
4.5
 10
-3.68
 20
4.5
 10
-3.52
 20
4.5
 10
-3.36
 20
4.5
 10
-3.2
 20
4.5
 10
-3.04
 20
4.5
 10
-2.88
 20
4.5
 10
-2.7199999999999998
 20
4.5
 10
-2.56
 20
4.5
 10
-2.4
 20
4.5
 10
-2.24
 20
4.5
 10
-2.08
 20
4.5
 10
-1.92
 20
4.5
 10
-1.7599999999999998
 20
4.5
 10
-1.6
 20
4.5
 10
-1.44
 20
4.5
 10
-1.2799999999999998
 20
4.5
 10
-1.12
 20
4.5
 10
-0.96
 20
4.5
 10
-0.7999999999999998
 20
4.5
 10
-0.6400000000000001
 20
4.5
 10
-0.48
 20
4.5
 10
-0.31999999999999984
 20
4.5
 10
-0.16000000000000014
 20
4.5
 10
0.0
 20
4.5
 10
0.16000000000000014
 20
4.5
 10
0.3200000000000003
 20
4.5
 10
0.4800000000000004
 20
4.5
 10
0.6399999999999997
 20
4.5
 10
0.7999999999999998
 20
4.5
 10
0.96
 20
4.5
 10
1.12
 20
4.5
 10
1.2800000000000002
 20
4.5
 10
1.4400000000000004
 20
4.5
 10
1.5999999999999996
 20
4.5
 10
1.7599999999999998
 20
4.5
 10
1.92
 20
4.5
 10
2.08
 20
4.5
 10
2.24
 20
4.5
 10
2.4000000000000004
 20
4.5
 10
2.5599999999999996
 20
4.5
 10
2.7199999999999998
 20
4.5
 10
2.88
 20
4.5
 10
3.04
 20
4.5
 10
3.2
 20
4.5
 10
3.3600000000000003
 20
4.5
 10
3.5199999999999996
 20
4.5
 10
3.6799999999999997
 20
4.5
 10
3.84
 20
4.5
 10
4.0
 20
4.5
  0
LWPOLYLINE
  5
35
330
17
100
AcDbEntity
  8
0
100
AcDbPolyline
 90
51
 70
0
 10
-4.0
 20
0.0
 10
-3.84
 20
0.0
 10
-3.68
 20
0.0
 10
-3.52
 20
0.0
 10
-3.36
 20
0.0
 10
-3.2
 20
0.0
 10
-3.04
 20
0.0
 10
-2.88
 20
0.0
 10
-2.7199999999999998
 20
0.0
 10
-2.56
 20
0.0
 10
-2.4
 20
0.0
 10
-2.24
 20
0.0
 10
-2.08
 20
0.0
 10
-1.92
 20
0.0
 10
-1.7599999999999998
 20
0.0
 10
-1.6
 20
0.0
 10
-1.44
 20
0.0
 10
-1.2799999999999998
 20
0.0
 10
-1.12
 20
0.0
 10
-0.96
 20
0.0
 10
-0.7999999999999998
 20
0.0
 10
-0.6400000000000001
 20
0.0
 10
-0.48
 20
0.0
 10
-0.31999999999999984
 20
0.0
 10
-0.16000000000000014
 20
0.0
 10
0.0
 20
0.0
 10
0.16000000000000014
 20
0.0
 10
0.3200000000000003
 20
0.0
 10
0.4800000000000004
 20
0.0
 10
0.6399999999999997
 20
0.0
 10
0.7999999999999998
 20
0.0
 10
0.96
 20
0.0
 10
1.12
 20
0.0
 10
1.2800000000000002
 20
0.0
 10
1.4400000000000004
 20
0.0
 10
1.5999999999999996
 20
0.0
 10
1.7599999999999998
 20
0.0
 10
1.92
 20
0.0
 10
2.08
 20
0.0
 10
2.24
 20
0.0
 10
2.4000000000000004
 20
0.0
 10
2.5599999999999996
 20
0.0
 10
2.7199999999999998
 20
0.0
 10
2.88
 20
0.0
 10
3.04
 20
0.0
 10
3.2
 20
0.0
 10
3.3600000000000003
 20
0.0
 10
3.5199999999999996
 20
0.0
 10
3.6799999999999997
 20
0.0
 10
3.84
 20
0.0
 10
4.0
 20
0.0
  0
LWPOLYLINE
  5
36
330
17
100
AcDbEntity
  8
0
100
AcDbPolyline
 90
51
 70
0
 10
-4.0
 20
0.0
 10
-4.220000000000008
 20
0.0
 10
-4.440000000000015
 20
0.0
 10
-4.660000000000022
 20
0.0
 10
-4.88000000000003
 20
0.0
 10
-5.100000000000038
 20
0.0
 10
-5.320000000000045
 20
0.0
 10
-5.540000000000052
 20
0.0
 10
-5.76000000000006
 20
0.0
 10
-5.980000000000067
 20
0.0
 10
-6.200000000000076
 20
0.0
 10
-6.4200000000000825
 20
0.0
 10
-6.640000000000089
 20
0.0
 10
-6.860000000000097
 20
0.0
 10
-7.080000000000105
 20
0.0
 10
-7.300000000000113
 20
0.0
 10
-7.52000000000012
 20
0.0
 10
-7.740000000000127
 20
0.0
 10
-7.960000000000134
 20
0.0
 10
-8.180000000000142
 20
0.0
 10
-8.400000000000151
 20
0.0
 10
-8.620000000000157
 20
0.0
 10
-8.840000000000165
 20
0.0
 10
-9.060000000000173
 20
0.0
 10
-9.280000000000179
 20
0.0
 10
-9.500000000000188
 20
0.0
 10
-9.720000000000194
 20
0.0
 10
-9.940000000000202
 20
0.0
 10
-10.16000000000021
 20
0.0
 10
-10.380000000000217
 20
0.0
 10
-10.600000000000225
 20
0.0
 10
-10.820000000000231
 20
0.0
 10
-11.04000000000024
 20
0.0
 10
-11.260000000000247
 20
0.0
 10
-11.480000000000254
 20
0.0
 10
-11.700000000000262
 20
0.0
 10
-11.920000000000268
 20
0.0
 10
-12.140000000000278
 20
0.0
 10
-12.360000000000285
 20
0.0
 10
-12.580000000000291
 20
0.0
 10
-12.800000000000301
 20
0.0
 10
-13.020000000000307
 20
0.0
 10
-13.240000000000315
 20
0.0
 10
-13.460000000000322
 20
0.0
 10
-13.68000000000033
 20
0.0
 10
-13.900000000000338
 20
0.0
 10
-14.120000000000344
 20
0.0
 10
-14.340000000000352
 20
0.0
 10
-14.56000000000036
 20
0.0
 10
-14.780000000000369
 20
0.0
 10
-15.000000000000375
 20
0.0
  0
LWPOLYLINE
  5
37
330
17
100
AcDbEntity
  8
0
100
AcDbPolyline
 90
51
 70
0
 10
15.0
 20
0.0
 10
14.779999999999992
 20
0.0
 10
14.559999999999985
 20
0.0
 10
14.339999999999977
 20
0.0
 10
14.11999999999997
 20
0.0
 10
13.899999999999963
 20
0.0
 10
13.679999999999955
 20
0.0
 10
13.459999999999948
 20
0.0
 10
13.23999999999994
 20
0.0
 10
13.019999999999932
 20
0.0
 10
12.799999999999924
 20
0.0
 10
12.579999999999917
 20
0.0
 10
12.35999999999991
 20
0.0
 10
12.139999999999903
 20
0.0
 10
11.919999999999895
 20
0.0
 10
11.699999999999887
 20
0.0
 10
11.47999999999988
 20
0.0
 10
11.259999999999874
 20
0.0
 10
11.039999999999866
 20
0.0
 10
10.819999999999858
 20
0.0
 10
10.599999999999849
 20
0.0
 10
10.379999999999843
 20
0.0
 10
10.159999999999835
 20
0.0
 10
9.939999999999827
 20
0.0
 10
9.719999999999821
 20
0.0
 10
9.499999999999812
 20
0.0
 10
9.279999999999806
 20
0.0
 10
9.059999999999798
 20
0.0
 10
8.83999999999979
 20
0.0
 10
8.619999999999783
 20
0.0
 10
8.399999999999775
 20
0.0
 10
8.179999999999769
 20
0.0
 10
7.95999999999976
 20
0.0
 10
7.739999999999752
 20
0.0
 10
7.5199999999997456
 20
0.0
 10
7.299999999999738
 20
0.0
 10
7.079999999999731
 20
0.0
 10
6.859999999999722
 20
0.0
 10
6.639999999999715
 20
0.0
 10
6.419999999999709
 20
0.0
 10
6.199999999999699
 20
0.0
 10
5.979999999999693
 20
0.0
 10
5.759999999999685
 20
0.0
 10
5.539999999999678
 20
0.0
 10
5.31999999999967
 20
0.0
 10
5.099999999999662
 20
0.0
 10
4.879999999999656
 20
0.0
 10
4.659999999999648
 20
0.0
 10
4.439999999999641
 20
0.0
 10
4.219999999999631
 20
0.0
 10
3.999999999999625
 20
0.0
  0
LWPOLYLINE
  5
38
330
17
100
AcDbEntity
  8
0
100
AcDbPolyline
 90
51
 70
0
 10
15.0
 20
0.0
 10
15.0
 20
0.14
 10
15.0
 20
0.28
 10
15.0
 20
0.42
 10
15.0
 20
0.56
 10
15.0
 20
0.7
 10
15.0
 20
0.84
 10
15.0
 20
0.98
 10
15.0
 20
1.12
 10
15.0
 20
1.26
 10
15.0
 20
1.4
 10
15.0
 20
1.54
 10
15.0
 20
1.68
 10
15.0
 20
1.82
 10
15.0
 20
1.96
 10
15.0
 20
2.1
 10
15.0
 20
2.24
 10
15.0
 20
2.38
 10
15.0
 20
2.52
 10
15.0
 20
2.66
 10
15.0
 20
2.8
 10
15.0
 20
2.94
 10
15.0
 20
3.08
 10
15.0
 20
3.22
 10
15.0
 20
3.36
 10
15.0
 20
3.5
 10
15.0
 20
3.64
 10
15.0
 20
3.78
 10
15.0
 20
3.92
 10
15.0
 20
4.06
 10
15.0
 20
4.2
 10
15.0
 20
4.34
 10
15.0
 20
4.48
 10
15.0
 20
4.62
 10
15.0
 20
4.76
 10
15.0
 20
4.9
 10
15.0
 20
5.04
 10
15.0
 20
5.18
 10
15.0
 20
5.32
 10
15.0
 20
5.46
 10
15.0
 20
5.6
 10
15.0
 20
5.74
 10
15.0
 20
5.88
 10
15.0
 20
6.02
 10
15.0
 20
6.16
 10
15.0
 20
6.3
 10
15.0
 20
6.44
 10
15.0
 20
6.58
 10
15.0
 20
6.72
 10
15.0
 20
6.86
 10
15.0
 20
7.0
  0
LWPOLYLINE
  5
39
330
17
100
AcDbEntity
  8
0
100
AcDbPolyline
 90
51
 70
0
 10
15.0
 20
7.0
 10
14.779999999999992
 20
7.0
 10
14.559999999999985
 20
7.0
 10
14.339999999999977
 20
7.0
 10
14.11999999999997
 20
7.0
 10
13.899999999999963
 20
7.0
 10
13.679999999999955
 20
7.0
 10
13.459999999999948
 20
7.0
 10
13.23999999999994
 20
7.0
 10
13.019999999999932
 20
7.0
 10
12.799999999999924
 20
7.0
 10
12.579999999999917
 20
7.0
 10
12.35999999999991
 20
7.0
 10
12.139999999999903
 20
7.0
 10
11.919999999999895
 20
7.0
 10
11.699999999999887
 20
7.0
 10
11.47999999999988
 20
7.0
 10
11.259999999999874
 20
7.0
 10
11.039999999999866
 20
7.0
 10
10.819999999999858
 20
7.0
 10
10.599999999999849
 20
7.0
 10
10.379999999999843
 20
7.0
 10
10.159999999999835
 20
7.0
 10
9.939999999999827
 20
7.0
 10
9.719999999999821
 20
7.0
 10
9.499999999999812
 20
7.0
 10
9.279999999999806
 20
7.0
 10
9.059999999999798
 20
7.0
 10
8.83999999999979
 20
7.0
 10
8.619999999999783
 20
7.0
 10
8.399999999999775
 20
7.0
 10
8.179999999999769
 20
7.0
 10
7.95999999999976
 20
7.0
 10
7.739999999999752
 20
7.0
 10
7.5199999999997456
 20
7.0
 10
7.299999999999738
 20
7.0
 10
7.079999999999731
 20
7.0
 10
6.859999999999722
 20
7.0
 10
6.639999999999715
 20
7.0
 10
6.419999999999709
 20
7.0
 10
6.199999999999699
 20
7.0
 10
5.979999999999693
 20
7.0
 10
5.759999999999685
 20
7.0
 10
5.539999999999678
 20
7.0
 10
5.31999999999967
 20
7.0
 10
5.099999999999662
 20
7.0
 10
4.879999999999656
 20
7.0
 10
4.659999999999648
 20
7.0
 10
4.439999999999641
 20
7.0
 10
4.219999999999631
 20
7.0
 10
3.999999999999625
 20
7.0
  0
LWPOLYLINE
  5
3A
330
17
100
AcDbEntity
  8
0
100
AcDbPolyline
 90
51
 70
0
 10
-4.0
 20
7.0
 10
-4.220000000000008
 20
7.0
 10
-4.440000000000015
 20
7.0
 10
-4.660000000000022
 20
7.0
 10
-4.88000000000003
 20
7.0
 10
-5.100000000000038
 20
7.0
 10
-5.320000000000045
 20
7.0
 10
-5.540000000000052
 20
7.0
 10
-5.76000000000006
 20
7.0
 10
-5.980000000000067
 20
7.0
 10
-6.200000000000076
 20
7.0
 10
-6.4200000000000825
 20
7.0
 10
-6.640000000000089
 20
7.0
 10
-6.860000000000097
 20
7.0
 10
-7.080000000000105
 20
7.0
 10
-7.300000000000113
 20
7.0
 10
-7.52000000000012
 20
7.0
 10
-7.740000000000127
 20
7.0
 10
-7.960000000000134
 20
7.0
 10
-8.180000000000142
 20
7.0
 10
-8.400000000000151
 20
7.0
 10
-8.620000000000157
 20
7.0
 10
-8.840000000000165
 20
7.0
 10
-9.060000000000173
 20
7.0
 10
-9.280000000000179
 20
7.0
 10
-9.500000000000188
 20
7.0
 10
-9.720000000000194
 20
7.0
 10
-9.940000000000202
 20
7.0
 10
-10.16000000000021
 20
7.0
 10
-10.380000000000217
 20
7.0
 10
-10.600000000000225
 20
7.0
 10
-10.820000000000231
 20
7.0
 10
-11.04000000000024
 20
7.0
 10
-11.260000000000247
 20
7.0
 10
-11.480000000000254
 20
7.0
 10
-11.700000000000262
 20
7.0
 10
-11.920000000000268
 20
7.0
 10
-12.140000000000278
 20
7.0
 10
-12.360000000000285
 20
7.0
 10
-12.580000000000291
 20
7.0
 10
-12.800000000000301
 20
7.0
 10
-13.020000000000307
 20
7.0
 10
-13.240000000000315
 20
7.0
 10
-13.460000000000322
 20
7.0
 10
-13.68000000000033
 20
7.0
 10
-13.900000000000338
 20
7.0
 10
-14.120000000000344
 20
7.0
 10
-14.340000000000352
 20
7.0
 10
-14.56000000000036
 20
7.0
 10
-14.780000000000369
 20
7.0
 10
-15.000000000000375
 20
7.0
  0
LWPOLYLINE
  5
3B
330
17
100
AcDbEntity
  8
0
100
AcDbPolyline
 90
51
 70
0
 10
-15.0
 20
14.0
 10
-14.78
 20
14.0
 10
-14.56
 20
14.0
 10
-14.34
 20
14.0
 10
-14.12
 20
14.0
 10
-13.9
 20
14.0
 10
-13.68
 20
14.0
 10
-13.46
 20
14.0
 10
-13.24
 20
14.0
 10
-13.02
 20
14.0
 10
-12.8
 20
14.0
 10
-12.58
 20
14.0
 10
-12.36
 20
14.0
 10
-12.14
 20
14.0
 10
-11.92
 20
14.0
 10
-11.7
 20
14.0
 10
-11.48
 20
14.0
 10
-11.26
 20
14.0
 10
-11.04
 20
14.0
 10
-10.82
 20
14.0
 10
-10.6
 20
14.0
 10
-10.379999999999999
 20
14.0
 10
-10.16
 20
14.0
 10
-9.940000000000001
 20
14.0
 10
-9.719999999999999
 20
14.0
 10
-9.5
 20
14.0
 10
-9.280000000000001
 20
14.0
 10
-9.059999999999999
 20
14.0
 10
-8.84
 20
14.0
 10
-8.620000000000001
 20
14.0
 10
-8.4
 20
14.0
 10
-8.18
 20
14.0
 10
-7.96
 20
14.0
 10
-7.74
 20
14.0
 10
-7.52
 20
14.0
 10
-7.3
 20
14.0
 10
-7.08
 20
14.0
 10
-6.859999999999999
 20
14.0
 10
-6.640000000000001
 20
14.0
 10
-6.42
 20
14.0
 10
-6.199999999999999
 20
14.0
 10
-5.98
 20
14.0
 10
-5.76
 20
14.0
 10
-5.539999999999999
 20
14.0
 10
-5.32
 20
14.0
 10
-5.1
 20
14.0
 10
-4.880000000000001
 20
14.0
 10
-4.66
 20
14.0
 10
-4.4399999999999995
 20
14.0
 10
-4.220000000000001
 20
14.0
 10
-4.0
 20
14.0
  0
LWPOLYLINE
  5
3C
330
17
100
AcDbEntity
  8
0
100
AcDbPolyline
 90
51
 70
0
 10
-15.0
 20
7.0
 10
-15.0
 20
7.14
 10
-15.0
 20
7.28
 10
-15.0
 20
7.42
 10
-15.0
 20
7.5600000000000005
 10
-15.0
 20
7.7
 10
-15.0
 20
7.84
 10
-15.0
 20
7.98
 10
-15.0
 20
8.120000000000001
 10
-15.0
 20
8.26
 10
-15.0
 20
8.4
 10
-15.0
 20
8.54
 10
-15.0
 20
8.68
 10
-15.0
 20
8.82
 10
-15.0
 20
8.96
 10
-15.0
 20
9.1
 10
-15.0
 20
9.24
 10
-15.0
 20
9.379999999999999
 10
-15.0
 20
9.52
 10
-15.0
 20
9.66
 10
-15.0
 20
9.8
 10
-15.0
 20
9.94
 10
-15.0
 20
10.08
 10
-15.0
 20
10.22
 10
-15.0
 20
10.36
 10
-15.0
 20
10.5
 10
-15.0
 20
10.64
 10
-15.0
 20
10.78
 10
-15.0
 20
10.92
 10
-15.0
 20
11.059999999999999
 10
-15.0
 20
11.2
 10
-15.0
 20
11.34
 10
-15.0
 20
11.48
 10
-15.0
 20
11.620000000000001
 10
-15.0
 20
11.76
 10
-15.0
 20
11.9
 10
-15.0
 20
12.04
 10
-15.0
 20
12.18
 10
-15.0
 20
12.32
 10
-15.0
 20
12.46
 10
-15.0
 20
12.6
 10
-15.0
 20
12.74
 10
-15.0
 20
12.879999999999999
 10
-15.0
 20
13.02
 10
-15.0
 20
13.16
 10
-15.0
 20
13.3
 10
-15.0
 20
13.440000000000001
 10
-15.0
 20
13.58
 10
-15.0
 20
13.719999999999999
 10
-15.0
 20
13.86
 10
-15.0
 20
14.0
  0
LWPOLYLINE
  5
3D
330
17
100
AcDbEntity
  8
0
100
AcDbPolyline
 90
51
 70
0
 10
-15.0
 20
0.0
 10
-15.0
 20
0.14
 10
-15.0
 20
0.28
 10
-15.0
 20
0.42
 10
-15.0
 20
0.56
 10
-15.0
 20
0.7
 10
-15.0
 20
0.84
 10
-15.0
 20
0.98
 10
-15.0
 20
1.12
 10
-15.0
 20
1.26
 10
-15.0
 20
1.4
 10
-15.0
 20
1.54
 10
-15.0
 20
1.68
 10
-15.0
 20
1.82
 10
-15.0
 20
1.96
 10
-15.0
 20
2.1
 10
-15.0
 20
2.24
 10
-15.0
 20
2.38
 10
-15.0
 20
2.52
 10
-15.0
 20
2.66
 10
-15.0
 20
2.8
 10
-15.0
 20
2.94
 10
-15.0
 20
3.08
 10
-15.0
 20
3.22
 10
-15.0
 20
3.36
 10
-15.0
 20
3.5
 10
-15.0
 20
3.64
 10
-15.0
 20
3.78
 10
-15.0
 20
3.92
 10
-15.0
 20
4.06
 10
-15.0
 20
4.2
 10
-15.0
 20
4.34
 10
-15.0
 20
4.48
 10
-15.0
 20
4.62
 10
-15.0
 20
4.76
 10
-15.0
 20
4.9
 10
-15.0
 20
5.04
 10
-15.0
 20
5.18
 10
-15.0
 20
5.32
 10
-15.0
 20
5.46
 10
-15.0
 20
5.6
 10
-15.0
 20
5.74
 10
-15.0
 20
5.88
 10
-15.0
 20
6.02
 10
-15.0
 20
6.16
 10
-15.0
 20
6.3
 10
-15.0
 20
6.44
 10
-15.0
 20
6.58
 10
-15.0
 20
6.72
 10
-15.0
 20
6.86
 10
-15.0
 20
7.0
  0
LWPOLYLINE
  5
3E
330
17
100
AcDbEntity
  8
0
100
AcDbPolyline
 90
51
 70
0
 10
15.0
 20
14.0
 10
15.0
 20
13.86
 10
15.0
 20
13.72
 10
15.0
 20
13.58
 10
15.0
 20
13.44
 10
15.0
 20
13.3
 10
15.0
 20
13.16
 10
15.0
 20
13.02
 10
15.0
 20
12.879999999999999
 10
15.0
 20
12.74
 10
15.0
 20
12.6
 10
15.0
 20
12.46
 10
15.0
 20
12.32
 10
15.0
 20
12.18
 10
15.0
 20
12.04
 10
15.0
 20
11.9
 10
15.0
 20
11.76
 10
15.0
 20
11.620000000000001
 10
15.0
 20
11.48
 10
15.0
 20
11.34
 10
15.0
 20
11.2
 10
15.0
 20
11.06
 10
15.0
 20
10.92
 10
15.0
 20
10.78
 10
15.0
 20
10.64
 10
15.0
 20
10.5
 10
15.0
 20
10.36
 10
15.0
 20
10.22
 10
15.0
 20
10.08
 10
15.0
 20
9.940000000000001
 10
15.0
 20
9.8
 10
15.0
 20
9.66
 10
15.0
 20
9.52
 10
15.0
 20
9.379999999999999
 10
15.0
 20
9.24
 10
15.0
 20
9.1
 10
15.0
 20
8.96
 10
15.0
 20
8.82
 10
15.0
 20
8.68
 10
15.0
 20
8.54
 10
15.0
 20
8.4
 10
15.0
 20
8.26
 10
15.0
 20
8.120000000000001
 10
15.0
 20
7.98
 10
15.0
 20
7.84
 10
15.0
 20
7.7
 10
15.0
 20
7.56
 10
15.0
 20
7.42
 10
15.0
 20
7.28
 10
15.0
 20
7.14
 10
15.0
 20
7.0
  0
LWPOLYLINE
  5
3F
330
17
100
AcDbEntity
  8
0
100
AcDbPolyline
 90
51
 70
0
 10
15.0
 20
14.0
 10
14.78
 20
14.0
 10
14.56
 20
14.0
 10
14.34
 20
14.0
 10
14.12
 20
14.0
 10
13.9
 20
14.0
 10
13.68
 20
14.0
 10
13.46
 20
14.0
 10
13.24
 20
14.0
 10
13.02
 20
14.0
 10
12.8
 20
14.0
 10
12.58
 20
14.0
 10
12.36
 20
14.0
 10
12.14
 20
14.0
 10
11.92
 20
14.0
 10
11.7
 20
14.0
 10
11.48
 20
14.0
 10
11.26
 20
14.0
 10
11.04
 20
14.0
 10
10.82
 20
14.0
 10
10.6
 20
14.0
 10
10.379999999999999
 20
14.0
 10
10.16
 20
14.0
 10
9.940000000000001
 20
14.0
 10
9.719999999999999
 20
14.0
 10
9.5
 20
14.0
 10
9.280000000000001
 20
14.0
 10
9.059999999999999
 20
14.0
 10
8.84
 20
14.0
 10
8.620000000000001
 20
14.0
 10
8.4
 20
14.0
 10
8.18
 20
14.0
 10
7.96
 20
14.0
 10
7.74
 20
14.0
 10
7.52
 20
14.0
 10
7.3
 20
14.0
 10
7.08
 20
14.0
 10
6.859999999999999
 20
14.0
 10
6.640000000000001
 20
14.0
 10
6.42
 20
14.0
 10
6.199999999999999
 20
14.0
 10
5.98
 20
14.0
 10
5.76
 20
14.0
 10
5.539999999999999
 20
14.0
 10
5.32
 20
14.0
 10
5.1
 20
14.0
 10
4.880000000000001
 20
14.0
 10
4.66
 20
14.0
 10
4.4399999999999995
 20
14.0
 10
4.220000000000001
 20
14.0
 10
4.0
 20
14.0
  0
ENDSEC
  0
SECTION
  2
OBJECTS
  0
DICTIONARY
  5
A
330
0
100
AcDbDictionary
280
0
281
1
  3
ACAD_COLOR
350
B
  3
ACAD_GROUP
350
C
  3
ACAD_LAYOUT
350
D
  3
ACAD_MATERIAL
350
E
  3
ACAD_MLEADERSTYLE
350
F
  3
ACAD_MLINESTYLE
350
10
  3
ACAD_PLOTSETTINGS
350
11
  3
ACAD_PLOTSTYLENAME
350
12
  3
ACAD_SCALELIST
350
14
  3
ACAD_TABLESTYLE
350
15
  3
ACAD_VISUALSTYLE
350
16
  3
EZDXF_META
350
2D
  0
DICTIONARY
  5
B
330
A
100
AcDbDictionary
280
0
281
1
  0
DICTIONARY
  5
C
330
A
100
AcDbDictionary
280
0
281
1
  0
DICTIONARY
  5
D
330
A
100
AcDbDictionary
280
0
281
1
  3
Model
350
1A
  3
Layout1
350
1E
  0
DICTIONARY
  5
E
330
A
100
AcDbDictionary
280
0
281
1
  3
ByBlock
350
1F
  3
ByLayer
350
20
  3
Global
350
21
  0
DICTIONARY
  5
F
330
A
100
AcDbDictionary
280
0
281
1
  3
Standard
350
2C
  0
DICTIONARY
  5
10
330
A
100
AcDbDictionary
280
0
281
1
  3
Standard
350
22
  0
DICTIONARY
  5
11
330
A
100
AcDbDictionary
280
0
281
1
  0
ACDBDICTIONARYWDFLT
  5
12
330
A
100
AcDbDictionary
280
0
281
1
  3
Normal
350
13
100
AcDbDictionaryWithDefault
340
13
  0
ACDBPLACEHOLDER
  5
13
330
12
  0
DICTIONARY
  5
14
330
A
100
AcDbDictionary
280
0
281
1
  0
DICTIONARY
  5
15
330
A
100
AcDbDictionary
280
0
281
1
  0
DICTIONARY
  5
16
330
A
100
AcDbDictionary
280
0
281
1
  0
LAYOUT
  5
1A
330
D
100
AcDbPlotSettings
  1

  2
Adobe PDF
  4
A3
  6

 40
7.5
 41
20.0
 42
7.5
 43
20.0
 44
420.0
 45
297.0
 46
0.0
 47
0.0
 48
0.0
 49
0.0
140
0.0
141
0.0
142
1.0
143
1.0
 70
1024
 72
1
 73
0
 74
5
  7

 75
16
 76
0
 77
2
 78
300
147
1.0
148
0.0
149
0.0
100
AcDbLayout
  1
Model
 70
1
 71
0
 10
0.0
 20
0.0
 11
420.0
 21
297.0
 12
0.0
 22
0.0
 32
0.0
 14
1e+20
 24
1e+20
 34
1e+20
 15
-1e+20
 25
-1e+20
 35
-1e+20
146
0.0
 13
0.0
 23
0.0
 33
0.0
 16
1.0
 26
0.0
 36
0.0
 17
0.0
 27
1.0
 37
0.0
 76
1
330
17
  0
LAYOUT
  5
1E
330
D
100
AcDbPlotSettings
  1

  2
Adobe PDF
  4
A3
  6

 40
7.5
 41
20.0
 42
7.5
 43
20.0
 44
420.0
 45
297.0
 46
0.0
 47
0.0
 48
0.0
 49
0.0
140
0.0
141
0.0
142
1.0
143
1.0
 70
0
 72
1
 73
0
 74
5
  7

 75
16
 76
0
 77
2
 78
300
147
1.0
148
0.0
149
0.0
100
AcDbLayout
  1
Layout1
 70
1
 71
1
 10
0.0
 20
0.0
 11
420.0
 21
297.0
 12
0.0
 22
0.0
 32
0.0
 14
1e+20
 24
1e+20
 34
1e+20
 15
-1e+20
 25
-1e+20
 35
-1e+20
146
0.0
 13
0.0
 23
0.0
 33
0.0
 16
1.0
 26
0.0
 36
0.0
 17
0.0
 27
1.0
 37
0.0
 76
1
330
1B
  0
MATERIAL
  5
1F
102
{ACAD_REACTORS
330
E
102
}
330
E
100
AcDbMaterial
  1
ByBlock
  2

 70
0
 40
1.0
 71
1
 41
1.0
 91
-1023410177
 42
1.0
 72
1
  3

 73
1
 74
1
 75
1
 44
0.5
 73
0
 45
1.0
 46
1.0
 77
1
  4

 78
1
 79
1
170
1
 48
1.0
171
1
  6

172
1
173
1
174
1
140
1.0
141
1.0
175
1
  7

176
1
177
1
178
1
143
1.0
179
1
  8

270
1
271
1
272
1
145
1.0
146
1.0
273
1
  9

274
1
275
1
276
1
 42
1.0
 72
1
  3

 73
1
 74
1
 75
1
 94
63
  0
MATERIAL
  5
20
102
{ACAD_REACTORS
330
E
102
}
330
E
100
AcDbMaterial
  1
ByLayer
  2

 70
0
 40
1.0
 71
1
 41
1.0
 91
-1023410177
 42
1.0
 72
1
  3

 73
1
 74
1
 75
1
 44
0.5
 73
0
 45
1.0
 46
1.0
 77
1
  4

 78
1
 79
1
170
1
 48
1.0
171
1
  6

172
1
173
1
174
1
140
1.0
141
1.0
175
1
  7

176
1
177
1
178
1
143
1.0
179
1
  8

270
1
271
1
272
1
145
1.0
146
1.0
273
1
  9

274
1
275
1
276
1
 42
1.0
 72
1
  3

 73
1
 74
1
 75
1
 94
63
  0
MATERIAL
  5
21
102
{ACAD_REACTORS
330
E
102
}
330
E
100
AcDbMaterial
  1
Global
  2

 70
0
 40
1.0
 71
1
 41
1.0
 91
-1023410177
 42
1.0
 72
1
  3

 73
1
 74
1
 75
1
 44
0.5
 73
0
 45
1.0
 46
1.0
 77
1
  4

 78
1
 79
1
170
1
 48
1.0
171
1
  6

172
1
173
1
174
1
140
1.0
141
1.0
175
1
  7

176
1
177
1
178
1
143
1.0
179
1
  8

270
1
271
1
272
1
145
1.0
146
1.0
273
1
  9

274
1
275
1
276
1
 42
1.0
 72
1
  3

 73
1
 74
1
 75
1
 94
63
  0
MLINESTYLE
  5
22
102
{ACAD_REACTORS
330
10
102
}
330
10
100
AcDbMlineStyle
  2
Standard
 70
0
  3

 62
256
 51
90.0
 52
90.0
 71
2
 49
0.5
 62
256
  6
BYLAYER
 49
-0.5
 62
256
  6
BYLAYER
  0
MLEADERSTYLE
  5
2C
102
{ACAD_REACTORS
330
F
102
}
330
F
100
AcDbMLeaderStyle
179
2
170
2
171
1
172
0
 90
2
 40
0.0
 41
0.0
173
1
 91
-1056964608
 92
-2
290
1
 42
2.0
291
1
 43
8.0
  3
Standard
 44
4.0
300

342
29
174
1
175
1
176
0
178
1
 93
-1056964608
 45
4.0
292
0
297
0
 46
4.0
 94
-1056964608
 47
1.0
 49
1.0
140
1.0
294
1
141
0.0
177
0
142
1.0
295
0
296
0
143
3.75
271
0
272
9
273
9
  0
DICTIONARY
  5
2D
330
A
100
AcDbDictionary
281
1
  3
CREATED_BY_EZDXF
350
2E
  3
WRITTEN_BY_EZDXF
350
42
  0
DICTIONARYVAR
  5
2E
330
2D
100
DictionaryVariables
280
0
  1
1.0.3 @ 2025-05-29T09:41:25.131757+00:00
  0
DICTIONARYVAR
  5
42
330
2D
100
DictionaryVariables
280
0
  1
1.0.3 @ 2025-05-29T09:41:25.135280+00:00
  0
ENDSEC
  0
EOF
