  0
SECTION
  2
HEADER
  9
$ACADVER
  1
AC1027
  9
$ACADMAINTVER
 70
105
  9
$DWGCODEPAGE
  3
ANSI_1252
  9
$LASTSAVEDBY
  1
ezdxf
  9
$REQUIREDVERSIONS
160
0
  9
$INSBASE
 10
0.0
 20
0.0
 30
0.0
  9
$EXTMIN
 10
1e+20
 20
1e+20
 30
1e+20
  9
$EXTMAX
 10
-1e+20
 20
-1e+20
 30
-1e+20
  9
$LIMMIN
 10
0.0
 20
0.0
  9
$LIMMAX
 10
420.0
 20
297.0
  9
$ORTHOMODE
 70
0
  9
$REGENMODE
 70
1
  9
$FILLMODE
 70
1
  9
$QTEXTMODE
 70
0
  9
$MIRRTEXT
 70
1
  9
$LTSCALE
 40
1.0
  9
$ATTMODE
 70
1
  9
$TEXTSIZE
 40
2.5
  9
$TRACEWID
 40
1.0
  9
$TEXTSTYLE
  7
Standard
  9
$CLAYER
  8
0
  9
$CELTYPE
  6
ByLayer
  9
$CECOLOR
 62
256
  9
$CELTSCALE
 40
1.0
  9
$DISPSILH
 70
0
  9
$DIMSCALE
 40
1.0
  9
$DIMASZ
 40
2.5
  9
$DIMEXO
 40
0.625
  9
$DIMDLI
 40
3.75
  9
$DIMRND
 40
0.0
  9
$DIMDLE
 40
0.0
  9
$DIMEXE
 40
1.25
  9
$DIMTP
 40
0.0
  9
$DIMTM
 40
0.0
  9
$DIMTXT
 40
2.5
  9
$DIMCEN
 40
2.5
  9
$DIMTSZ
 40
0.0
  9
$DIMTOL
 70
0
  9
$DIMLIM
 70
0
  9
$DIMTIH
 70
0
  9
$DIMTOH
 70
0
  9
$DIMSE1
 70
0
  9
$DIMSE2
 70
0
  9
$DIMTAD
 70
1
  9
$DIMZIN
 70
8
  9
$DIMBLK
  1

  9
$DIMASO
 70
1
  9
$DIMSHO
 70
1
  9
$DIMPOST
  1

  9
$DIMAPOST
  1

  9
$DIMALT
 70
0
  9
$DIMALTD
 70
3
  9
$DIMALTF
 40
0.03937007874
  9
$DIMLFAC
 40
1.0
  9
$DIMTOFL
 70
1
  9
$DIMTVP
 40
0.0
  9
$DIMTIX
 70
0
  9
$DIMSOXD
 70
0
  9
$DIMSAH
 70
0
  9
$DIMBLK1
  1

  9
$DIMBLK2
  1

  9
$DIMSTYLE
  2
ISO-25
  9
$DIMCLRD
 70
0
  9
$DIMCLRE
 70
0
  9
$DIMCLRT
 70
0
  9
$DIMTFAC
 40
1.0
  9
$DIMGAP
 40
0.625
  9
$DIMJUST
 70
0
  9
$DIMSD1
 70
0
  9
$DIMSD2
 70
0
  9
$DIMTOLJ
 70
0
  9
$DIMTZIN
 70
8
  9
$DIMALTZ
 70
0
  9
$DIMALTTZ
 70
0
  9
$DIMUPT
 70
0
  9
$DIMDEC
 70
2
  9
$DIMTDEC
 70
2
  9
$DIMALTU
 70
2
  9
$DIMALTTD
 70
3
  9
$DIMTXSTY
  7
Standard
  9
$DIMAUNIT
 70
0
  9
$DIMADEC
 70
0
  9
$DIMALTRND
 40
0.0
  9
$DIMAZIN
 70
0
  9
$DIMDSEP
 70
44
  9
$DIMATFIT
 70
3
  9
$DIMFRAC
 70
0
  9
$DIMLDRBLK
  1

  9
$DIMLUNIT
 70
2
  9
$DIMLWD
 70
-2
  9
$DIMLWE
 70
-2
  9
$DIMTMOVE
 70
0
  9
$DIMFXL
 40
1.0
  9
$DIMFXLON
 70
0
  9
$DIMJOGANG
 40
0.785398163397
  9
$DIMTFILL
 70
0
  9
$DIMTFILLCLR
 70
0
  9
$DIMARCSYM
 70
0
  9
$DIMLTYPE
  6

  9
$DIMLTEX1
  6

  9
$DIMLTEX2
  6

  9
$DIMTXTDIRECTION
 70
0
  9
$LUNITS
 70
2
  9
$LUPREC
 70
4
  9
$SKETCHINC
 40
1.0
  9
$FILLETRAD
 40
10.0
  9
$AUNITS
 70
0
  9
$AUPREC
 70
2
  9
$MENU
  1
.
  9
$ELEVATION
 40
0.0
  9
$PELEVATION
 40
0.0
  9
$THICKNESS
 40
0.0
  9
$LIMCHECK
 70
0
  9
$CHAMFERA
 40
0.0
  9
$CHAMFERB
 40
0.0
  9
$CHAMFERC
 40
0.0
  9
$CHAMFERD
 40
0.0
  9
$SKPOLY
 70
0
  9
$TDCREATE
 40
2460825.778761574
  9
$TDUCREATE
 40
2458532.153996898
  9
$TDUPDATE
 40
2460825.778761574
  9
$TDUUPDATE
 40
2458532.1544311
  9
$TDINDWG
 40
0.0
  9
$TDUSRTIMER
 40
0.0
  9
$USRTIMER
 70
1
  9
$ANGBASE
 50
0.0
  9
$ANGDIR
 70
0
  9
$PDMODE
 70
0
  9
$PDSIZE
 40
0.0
  9
$PLINEWID
 40
0.0
  9
$SPLFRAME
 70
0
  9
$SPLINETYPE
 70
6
  9
$SPLINESEGS
 70
8
  9
$HANDSEED
  5
4E
  9
$SURFTAB1
 70
6
  9
$SURFTAB2
 70
6
  9
$SURFTYPE
 70
6
  9
$SURFU
 70
6
  9
$SURFV
 70
6
  9
$UCSBASE
  2

  9
$UCSNAME
  2

  9
$UCSORG
 10
0.0
 20
0.0
 30
0.0
  9
$UCSXDIR
 10
1.0
 20
0.0
 30
0.0
  9
$UCSYDIR
 10
0.0
 20
1.0
 30
0.0
  9
$UCSORTHOREF
  2

  9
$UCSORTHOVIEW
 70
0
  9
$UCSORGTOP
 10
0.0
 20
0.0
 30
0.0
  9
$UCSORGBOTTOM
 10
0.0
 20
0.0
 30
0.0
  9
$UCSORGLEFT
 10
0.0
 20
0.0
 30
0.0
  9
$UCSORGRIGHT
 10
0.0
 20
0.0
 30
0.0
  9
$UCSORGFRONT
 10
0.0
 20
0.0
 30
0.0
  9
$UCSORGBACK
 10
0.0
 20
0.0
 30
0.0
  9
$PUCSBASE
  2

  9
$PUCSNAME
  2

  9
$PUCSORG
 10
0.0
 20
0.0
 30
0.0
  9
$PUCSXDIR
 10
1.0
 20
0.0
 30
0.0
  9
$PUCSYDIR
 10
0.0
 20
1.0
 30
0.0
  9
$PUCSORTHOREF
  2

  9
$PUCSORTHOVIEW
 70
0
  9
$PUCSORGTOP
 10
0.0
 20
0.0
 30
0.0
  9
$PUCSORGBOTTOM
 10
0.0
 20
0.0
 30
0.0
  9
$PUCSORGLEFT
 10
0.0
 20
0.0
 30
0.0
  9
$PUCSORGRIGHT
 10
0.0
 20
0.0
 30
0.0
  9
$PUCSORGFRONT
 10
0.0
 20
0.0
 30
0.0
  9
$PUCSORGBACK
 10
0.0
 20
0.0
 30
0.0
  9
$USERI1
 70
0
  9
$USERI2
 70
0
  9
$USERI3
 70
0
  9
$USERI4
 70
0
  9
$USERI5
 70
0
  9
$USERR1
 40
0.0
  9
$USERR2
 40
0.0
  9
$USERR3
 40
0.0
  9
$USERR4
 40
0.0
  9
$USERR5
 40
0.0
  9
$WORLDVIEW
 70
1
  9
$SHADEDGE
 70
3
  9
$SHADEDIF
 70
70
  9
$TILEMODE
 70
1
  9
$MAXACTVP
 70
64
  9
$PINSBASE
 10
0.0
 20
0.0
 30
0.0
  9
$PLIMCHECK
 70
0
  9
$PEXTMIN
 10
1e+20
 20
1e+20
 30
1e+20
  9
$PEXTMAX
 10
-1e+20
 20
-1e+20
 30
-1e+20
  9
$PLIMMIN
 10
0.0
 20
0.0
  9
$PLIMMAX
 10
420.0
 20
297.0
  9
$UNITMODE
 70
0
  9
$VISRETAIN
 70
1
  9
$PLINEGEN
 70
0
  9
$PSLTSCALE
 70
1
  9
$TREEDEPTH
 70
3020
  9
$CMLSTYLE
  2
Standard
  9
$CMLJUST
 70
0
  9
$CMLSCALE
 40
20.0
  9
$PROXYGRAPHICS
 70
1
  9
$MEASUREMENT
 70
1
  9
$CELWEIGHT
370
-1
  9
$ENDCAPS
280
0
  9
$JOINSTYLE
280
0
  9
$LWDISPLAY
290
0
  9
$INSUNITS
 70
6
  9
$HYPERLINKBASE
  1

  9
$STYLESHEET
  1

  9
$XEDIT
290
1
  9
$CEPSNTYPE
380
0
  9
$PSTYLEMODE
290
1
  9
$FINGERPRINTGUID
  2
{1088AABB-A671-401A-894E-A8B3DE4FD57C}
  9
$VERSIONGUID
  2
{FA061EDE-585A-4945-A764-0B0A340C0635}
  9
$EXTNAMES
290
1
  9
$PSVPSCALE
 40
0.0
  9
$OLESTARTUP
290
0
  9
$SORTENTS
280
127
  9
$INDEXCTL
280
0
  9
$HIDETEXT
280
1
  9
$XCLIPFRAME
280
0
  9
$HALOGAP
280
0
  9
$OBSCOLOR
 70
257
  9
$OBSLTYPE
280
0
  9
$INTERSECTIONDISPLAY
280
0
  9
$INTERSECTIONCOLOR
 70
257
  9
$DIMASSOC
280
2
  9
$PROJECTNAME
  1

  9
$CAMERADISPLAY
290
0
  9
$LENSLENGTH
 40
50.0
  9
$CAMERAHEIGHT
 40
0.0
  9
$STEPSPERSEC
 40
24.0
  9
$STEPSIZE
 40
100.0
  9
$3DDWFPREC
 40
2.0
  9
$PSOLWIDTH
 40
0.005
  9
$PSOLHEIGHT
 40
0.08
  9
$LOFTANG1
 40
1.570796326795
  9
$LOFTANG2
 40
1.570796326795
  9
$LOFTMAG1
 40
0.0
  9
$LOFTMAG2
 40
0.0
  9
$LOFTPARAM
 70
7
  9
$LOFTNORMALS
280
1
  9
$LATITUDE
 40
37.795
  9
$LONGITUDE
 40
-122.394
  9
$NORTHDIRECTION
 40
0.0
  9
$TIMEZONE
 70
-8000
  9
$LIGHTGLYPHDISPLAY
280
1
  9
$TILEMODELIGHTSYNCH
280
1
  9
$CMATERIAL
347
20
  9
$SOLIDHIST
280
0
  9
$SHOWHIST
280
1
  9
$DWFFRAME
280
2
  9
$DGNFRAME
280
2
  9
$REALWORLDSCALE
290
1
  9
$INTERFERECOLOR
 62
256
  9
$CSHADOW
280
0
  9
$SHADOWPLANELOCATION
 40
0.0
  0
ENDSEC
  0
SECTION
  2
CLASSES
  0
CLASS
  1
ACDBDICTIONARYWDFLT
  2
AcDbDictionaryWithDefault
  3
ObjectDBX Classes
 90
0
 91
0
280
0
281
0
  0
CLASS
  1
SUN
  2
AcDbSun
  3
SCENEOE
 90
1153
 91
0
280
0
281
0
  0
CLASS
  1
VISUALSTYLE
  2
AcDbVisualStyle
  3
ObjectDBX Classes
 90
4095
 91
0
280
0
281
0
  0
CLASS
  1
MATERIAL
  2
AcDbMaterial
  3
ObjectDBX Classes
 90
1153
 91
0
280
0
281
0
  0
CLASS
  1
SCALE
  2
AcDbScale
  3
ObjectDBX Classes
 90
1153
 91
0
280
0
281
0
  0
CLASS
  1
TABLESTYLE
  2
AcDbTableStyle
  3
ObjectDBX Classes
 90
4095
 91
0
280
0
281
0
  0
CLASS
  1
MLEADERSTYLE
  2
AcDbMLeaderStyle
  3
ACDB_MLEADERSTYLE_CLASS
 90
4095
 91
0
280
0
281
0
  0
CLASS
  1
DICTIONARYVAR
  2
AcDbDictionaryVar
  3
ObjectDBX Classes
 90
0
 91
0
280
0
281
0
  0
CLASS
  1
CELLSTYLEMAP
  2
AcDbCellStyleMap
  3
ObjectDBX Classes
 90
1152
 91
0
280
0
281
0
  0
CLASS
  1
MENTALRAYRENDERSETTINGS
  2
AcDbMentalRayRenderSettings
  3
SCENEOE
 90
1024
 91
0
280
0
281
0
  0
CLASS
  1
ACDBDETAILVIEWSTYLE
  2
AcDbDetailViewStyle
  3
ObjectDBX Classes
 90
1025
 91
0
280
0
281
0
  0
CLASS
  1
ACDBSECTIONVIEWSTYLE
  2
AcDbSectionViewStyle
  3
ObjectDBX Classes
 90
1025
 91
0
280
0
281
0
  0
CLASS
  1
RASTERVARIABLES
  2
AcDbRasterVariables
  3
ISM
 90
0
 91
0
280
0
281
0
  0
CLASS
  1
LAYOUT
  2
AcDbLayout
  3
ObjectDBX Classes
 90
0
 91
0
280
0
281
0
  0
CLASS
  1
ACDBPLACEHOLDER
  2
AcDbPlaceHolder
  3
ObjectDBX Classes
 90
0
 91
0
280
0
281
0
  0
ENDSEC
  0
SECTION
  2
TABLES
  0
TABLE
  2
VPORT
  5
8
330
0
100
AcDbSymbolTable
 70
1
  0
VPORT
  5
23
330
8
100
AcDbSymbolTableRecord
100
AcDbViewportTableRecord
  2
*Active
 70
0
 10
0.0
 20
0.0
 11
1.0
 21
1.0
 12
0.0
 22
0.0
 13
0.0
 23
0.0
 14
0.5
 24
0.5
 15
0.5
 25
0.5
 16
0.0
 26
0.0
 36
1.0
 17
0.0
 27
0.0
 37
0.0
 40
1000.0
 41
1.34
 42
50.0
 43
0.0
 44
0.0
 50
0.0
 51
0.0
 71
0
 72
1000
 73
1
 74
3
 75
0
 76
0
 77
0
 78
0
281
0
 65
0
146
0.0
  0
ENDTAB
  0
TABLE
  2
LTYPE
  5
2
330
0
100
AcDbSymbolTable
 70
3
  0
LTYPE
  5
24
330
2
100
AcDbSymbolTableRecord
100
AcDbLinetypeTableRecord
  2
ByBlock
 70
0
  3

 72
65
 73
0
 40
0.0
  0
LTYPE
  5
25
330
2
100
AcDbSymbolTableRecord
100
AcDbLinetypeTableRecord
  2
ByLayer
 70
0
  3

 72
65
 73
0
 40
0.0
  0
LTYPE
  5
26
330
2
100
AcDbSymbolTableRecord
100
AcDbLinetypeTableRecord
  2
Continuous
 70
0
  3

 72
65
 73
0
 40
0.0
  0
ENDTAB
  0
TABLE
  2
LAYER
  5
1
330
0
100
AcDbSymbolTable
 70
2
  0
LAYER
  5
27
330
1
100
AcDbSymbolTableRecord
100
AcDbLayerTableRecord
  2
0
 70
0
 62
7
  6
Continuous
370
-3
390
13
347
21
  0
LAYER
  5
28
330
1
100
AcDbSymbolTableRecord
100
AcDbLayerTableRecord
  2
Defpoints
 70
0
 62
7
  6
Continuous
290
0
370
-3
390
13
347
21
  0
ENDTAB
  0
TABLE
  2
STYLE
  5
5
330
0
100
AcDbSymbolTable
 70
1
  0
STYLE
  5
29
330
5
100
AcDbSymbolTableRecord
100
AcDbTextStyleTableRecord
  2
Standard
 70
0
 40
0.0
 41
1.0
 50
0.0
 71
0
 42
2.5
  3
txt
  4

  0
ENDTAB
  0
TABLE
  2
VIEW
  5
7
330
0
100
AcDbSymbolTable
 70
0
  0
ENDTAB
  0
TABLE
  2
UCS
  5
6
330
0
100
AcDbSymbolTable
 70
0
  0
ENDTAB
  0
TABLE
  2
APPID
  5
3
330
0
100
AcDbSymbolTable
 70
3
  0
APPID
  5
2A
330
3
100
AcDbSymbolTableRecord
100
AcDbRegAppTableRecord
  2
ACAD
 70
0
  0
APPID
  5
4B
330
3
100
AcDbSymbolTableRecord
100
AcDbRegAppTableRecord
  2
HATCHBACKGROUNDCOLOR
 70
0
  0
APPID
  5
4C
330
3
100
AcDbSymbolTableRecord
100
AcDbRegAppTableRecord
  2
EZDXF
 70
0
  0
ENDTAB
  0
TABLE
  2
DIMSTYLE
  5
4
330
0
100
AcDbSymbolTable
 70
1
100
AcDbDimStyleTable
  0
DIMSTYLE
105
2B
330
4
100
AcDbSymbolTableRecord
100
AcDbDimStyleTableRecord
  2
Standard
 70
0
 40
1.0
 41
2.5
 42
0.625
 43
3.75
 44
1.25
 45
0.0
 46
0.0
 47
0.0
 48
0.0
 49
2.5
140
2.5
141
2.5
142
0.0
143
0.03937007874
144
1.0
145
0.0
146
1.0
147
0.625
148
0.0
 69
0
 70
0
 71
0
 72
0
 73
0
 74
0
 75
0
 76
0
 77
1
 78
8
 79
3
170
0
171
3
172
1
173
0
174
0
175
0
176
0
177
0
178
0
179
2
271
2
272
2
273
2
274
3
275
0
276
0
277
2
278
44
279
0
280
0
281
0
282
0
283
0
284
8
285
0
286
0
288
0
289
3
290
0
371
-2
372
-2
  0
ENDTAB
  0
TABLE
  2
BLOCK_RECORD
  5
9
330
0
100
AcDbSymbolTable
 70
2
  0
BLOCK_RECORD
  5
17
330
9
100
AcDbSymbolTableRecord
100
AcDbBlockTableRecord
  2
*Model_Space
340
1A
 70
0
280
1
281
0
  0
BLOCK_RECORD
  5
1B
330
9
100
AcDbSymbolTableRecord
100
AcDbBlockTableRecord
  2
*Paper_Space
340
1E
 70
0
280
1
281
0
  0
ENDTAB
  0
ENDSEC
  0
SECTION
  2
BLOCKS
  0
BLOCK
  5
18
330
17
100
AcDbEntity
  8
0
100
AcDbBlockBegin
  2
*Model_Space
 70
0
 10
0.0
 20
0.0
 30
0.0
  3
*Model_Space
  1

  0
ENDBLK
  5
19
330
17
100
AcDbEntity
  8
0
100
AcDbBlockEnd
  0
BLOCK
  5
1C
330
1B
100
AcDbEntity
  8
0
100
AcDbBlockBegin
  2
*Paper_Space
 70
0
 10
0.0
 20
0.0
 30
0.0
  3
*Paper_Space
  1

  0
ENDBLK
  5
1D
330
1B
100
AcDbEntity
  8
0
100
AcDbBlockEnd
  0
ENDSEC
  0
SECTION
  2
ENTITIES
  0
LWPOLYLINE
  5
2F
330
17
100
AcDbEntity
  8
0
100
AcDbPolyline
 90
51
 70
0
 10
-4.0
 20
50.0
 10
-3.84
 20
50.0
 10
-3.68
 20
50.0
 10
-3.52
 20
50.0
 10
-3.36
 20
50.0
 10
-3.2
 20
50.0
 10
-3.04
 20
50.0
 10
-2.88
 20
50.0
 10
-2.7199999999999998
 20
50.0
 10
-2.56
 20
50.0
 10
-2.4
 20
50.0
 10
-2.24
 20
50.0
 10
-2.08
 20
50.0
 10
-1.92
 20
50.0
 10
-1.7599999999999998
 20
50.0
 10
-1.6
 20
50.0
 10
-1.44
 20
50.0
 10
-1.2799999999999998
 20
50.0
 10
-1.12
 20
50.0
 10
-0.96
 20
50.0
 10
-0.7999999999999998
 20
50.0
 10
-0.6400000000000001
 20
50.0
 10
-0.48
 20
50.0
 10
-0.31999999999999984
 20
50.0
 10
-0.16000000000000014
 20
50.0
 10
0.0
 20
50.0
 10
0.16000000000000014
 20
50.0
 10
0.3200000000000003
 20
50.0
 10
0.4800000000000004
 20
50.0
 10
0.6399999999999997
 20
50.0
 10
0.7999999999999998
 20
50.0
 10
0.96
 20
50.0
 10
1.12
 20
50.0
 10
1.2800000000000002
 20
50.0
 10
1.4400000000000004
 20
50.0
 10
1.5999999999999996
 20
50.0
 10
1.7599999999999998
 20
50.0
 10
1.92
 20
50.0
 10
2.08
 20
50.0
 10
2.24
 20
50.0
 10
2.4000000000000004
 20
50.0
 10
2.5599999999999996
 20
50.0
 10
2.7199999999999998
 20
50.0
 10
2.88
 20
50.0
 10
3.04
 20
50.0
 10
3.2
 20
50.0
 10
3.3600000000000003
 20
50.0
 10
3.5199999999999996
 20
50.0
 10
3.6799999999999997
 20
50.0
 10
3.84
 20
50.0
 10
4.0
 20
50.0
  0
LWPOLYLINE
  5
30
330
17
100
AcDbEntity
  8
0
100
AcDbPolyline
 90
51
 70
0
 10
-4.0
 20
40.00211450448
 10
-4.0
 20
39.922072214390354
 10
-4.0
 20
39.842029924300704
 10
-4.0
 20
39.76198763421106
 10
-4.0
 20
39.68194534412142
 10
-4.0
 20
39.601903054031766
 10
-4.0
 20
39.52186076394212
 10
-4.0
 20
39.44181847385248
 10
-4.0
 20
39.36177618376283
 10
-4.0
 20
39.281733893673184
 10
-4.0
 20
39.20169160358354
 10
-4.0
 20
39.12164931349389
 10
-4.0
 20
39.04160702340425
 10
-4.0
 20
38.9615647333146
 10
-4.0
 20
38.88152244322496
 10
-4.0
 20
38.80148015313531
 10
-4.0
 20
38.721437863045665
 10
-4.0
 20
38.64139557295602
 10
-4.0
 20
38.56135328286637
 10
-4.0
 20
38.48131099277673
 10
-4.0
 20
38.401268702687084
 10
-4.0
 20
38.32122641259743
 10
-4.0
 20
38.24118412250779
 10
-4.0
 20
38.161141832418146
 10
-4.0
 20
38.081099542328495
 10
-4.0
 20
38.00105725223885
 10
-4.0
 20
37.92101496214921
 10
-4.0
 20
37.84097267205956
 10
-4.0
 20
37.760930381969914
 10
-4.0
 20
37.68088809188027
 10
-4.0
 20
37.60084580179062
 10
-4.0
 20
37.520803511700976
 10
-4.0
 20
37.44076122161133
 10
-4.0
 20
37.36071893152169
 10
-4.0
 20
37.28067664143204
 10
-4.0
 20
37.200634351342394
 10
-4.0
 20
37.12059206125275
 10
-4.0
 20
37.0405497711631
 10
-4.0
 20
36.960507481073456
 10
-4.0
 20
36.88046519098381
 10
-4.0
 20
36.80042290089416
 10
-4.0
 20
36.72038061080452
 10
-4.0
 20
36.640338320714875
 10
-4.0
 20
36.560296030625224
 10
-4.0
 20
36.48025374053558
 10
-4.0
 20
36.40021145044594
 10
-4.0
 20
36.320169160356286
 10
-4.0
 20
36.24012687026664
 10
-4.0
 20
36.160084580177
 10
-4.0
 20
36.08004229008735
 10
-4.0
 20
35.999999999997705
  0
LWPOLYLINE
  5
31
330
17
100
AcDbEntity
  8
0
100
AcDbPolyline
 90
51
 70
0
 10
-4.0
 20
44.0
 10
-4.0
 20
43.9200422900896
 10
-4.0
 20
43.8400845801792
 10
-4.0
 20
43.7601268702688
 10
-4.0
 20
43.6801691603584
 10
-4.0
 20
43.600211450448
 10
-4.0
 20
43.5202537405376
 10
-4.0
 20
43.4402960306272
 10
-4.0
 20
43.3603383207168
 10
-4.0
 20
43.2803806108064
 10
-4.0
 20
43.200422900896
 10
-4.0
 20
43.1204651909856
 10
-4.0
 20
43.0405074810752
 10
-4.0
 20
42.9605497711648
 10
-4.0
 20
42.8805920612544
 10
-4.0
 20
42.800634351344
 10
-4.0
 20
42.7206766414336
 10
-4.0
 20
42.640718931523196
 10
-4.0
 20
42.5607612216128
 10
-4.0
 20
42.4808035117024
 10
-4.0
 20
42.400845801792
 10
-4.0
 20
42.3208880918816
 10
-4.0
 20
42.2409303819712
 10
-4.0
 20
42.1609726720608
 10
-4.0
 20
42.0810149621504
 10
-4.0
 20
42.00105725224
 10
-4.0
 20
41.9210995423296
 10
-4.0
 20
41.8411418324192
 10
-4.0
 20
41.7611841225088
 10
-4.0
 20
41.6812264125984
 10
-4.0
 20
41.601268702687996
 10
-4.0
 20
41.5213109927776
 10
-4.0
 20
41.4413532828672
 10
-4.0
 20
41.3613955729568
 10
-4.0
 20
41.2814378630464
 10
-4.0
 20
41.201480153135996
 10
-4.0
 20
41.1215224432256
 10
-4.0
 20
41.0415647333152
 10
-4.0
 20
40.961607023404795
 10
-4.0
 20
40.8816493134944
 10
-4.0
 20
40.801691603584
 10
-4.0
 20
40.7217338936736
 10
-4.0
 20
40.6417761837632
 10
-4.0
 20
40.561818473852796
 10
-4.0
 20
40.4818607639424
 10
-4.0
 20
40.401903054032
 10
-4.0
 20
40.321945344121595
 10
-4.0
 20
40.2419876342112
 10
-4.0
 20
40.162029924300796
 10
-4.0
 20
40.0820722143904
 10
-4.0
 20
40.00211450448
  0
LWPOLYLINE
  5
32
330
17
100
AcDbEntity
  8
0
100
AcDbPolyline
 90
51
 70
0
 10
-4.0
 20
44.0
 10
-4.0
 20
44.188100319853554
 10
-4.0
 20
44.376200639707115
 10
-4.0
 20
44.56430095956067
 10
-4.0
 20
44.751387506274014
 10
-4.0
 20
44.93712235546706
 10
-4.0
 20
45.122857204660114
 10
-4.0
 20
45.30859205385316
 10
-4.0
 20
45.490297308056235
 10
-4.0
 20
45.671330963094306
 10
-4.0
 20
45.85236461813238
 10
-4.0
 20
46.03140461676895
 10
-4.0
 20
46.20546047440177
 10
-4.0
 20
46.379516332034584
 10
-4.0
 20
46.5535721896674
 10
-4.0
 20
46.721080439582686
 10
-4.0
 20
46.88596964641095
 10
-4.0
 20
47.05085885323922
 10
-4.0
 20
47.214142313174435
 10
-4.0
 20
47.367791291751345
 10
-4.0
 20
47.52144027032825
 10
-4.0
 20
47.67508924890516
 10
-4.0
 20
47.82121111130711
 10
-4.0
 20
47.96168763657783
 10
-4.0
 20
48.102164161848556
 10
-4.0
 20
48.242640687119284
 10
-4.0
 20
48.36817818527217
 10
-4.0
 20
48.493715683425066
 10
-4.0
 20
48.61925318157795
 10
-4.0
 20
48.73771165087556
 10
-4.0
 20
48.846731415032785
 10
-4.0
 20
48.95575117919002
 10
-4.0
 20
49.06477094334724
 10
-4.0
 20
49.158457518260455
 10
-4.0
 20
49.249588561633004
 10
-4.0
 20
49.340719605005546
 10
-4.0
 20
49.42641214936937
 10
-4.0
 20
49.49850844621136
 10
-4.0
 20
49.57060474305335
 10
-4.0
 20
49.64270103989534
 10
-4.0
 20
49.70055348009835
 10
-4.0
 20
49.75270837764576
 10
-4.0
 20
49.80486327519316
 10
-4.0
 20
49.854075704541685
 10
-4.0
 20
49.88563332469687
 10
-4.0
 20
49.91719094485205
 10
-4.0
 20
49.948748565007236
 10
-4.0
 20
49.96830953786194
 10
-4.0
 20
49.9788730252413
 10
-4.0
 20
49.98943651262065
 10
-4.0
 20
50.0
  0
LWPOLYLINE
  5
33
330
17
100
AcDbEntity
  8
0
100
AcDbPolyline
 90
51
 70
0
 10
-4.0
 20
36.0
 10
-4.0
 20
35.84
 10
-4.0
 20
35.68
 10
-4.0
 20
35.52
 10
-4.0
 20
35.36
 10
-4.0
 20
35.2
 10
-4.0
 20
35.04
 10
-4.0
 20
34.88
 10
-4.0
 20
34.72
 10
-4.0
 20
34.56
 10
-4.0
 20
34.4
 10
-4.0
 20
34.24
 10
-4.0
 20
34.08
 10
-4.0
 20
33.92
 10
-4.0
 20
33.76
 10
-4.0
 20
33.6
 10
-4.0
 20
33.44
 10
-4.0
 20
33.28
 10
-4.0
 20
33.12
 10
-4.0
 20
32.96
 10
-4.0
 20
32.8
 10
-4.0
 20
32.64
 10
-4.0
 20
32.48
 10
-4.0
 20
32.32
 10
-4.0
 20
32.16
 10
-4.0
 20
32.0
 10
-4.0
 20
31.84
 10
-4.0
 20
31.68
 10
-4.0
 20
31.52
 10
-4.0
 20
31.36
 10
-4.0
 20
31.2
 10
-4.0
 20
31.04
 10
-4.0
 20
30.88
 10
-4.0
 20
30.72
 10
-4.0
 20
30.56
 10
-4.0
 20
30.4
 10
-4.0
 20
30.240000000000002
 10
-4.0
 20
30.08
 10
-4.0
 20
29.92
 10
-4.0
 20
29.759999999999998
 10
-4.0
 20
29.6
 10
-4.0
 20
29.44
 10
-4.0
 20
29.28
 10
-4.0
 20
29.12
 10
-4.0
 20
28.96
 10
-4.0
 20
28.8
 10
-4.0
 20
28.64
 10
-4.0
 20
28.48
 10
-4.0
 20
28.32
 10
-4.0
 20
28.16
 10
-4.0
 20
28.0
  0
LWPOLYLINE
  5
34
330
17
100
AcDbEntity
  8
0
100
AcDbPolyline
 90
51
 70
0
 10
4.0
 20
50.0
 10
4.0
 20
49.98943651262065
 10
4.0
 20
49.9788730252413
 10
4.0
 20
49.96830953786194
 10
4.0
 20
49.948748565007236
 10
4.0
 20
49.91719094485205
 10
4.0
 20
49.88563332469687
 10
4.0
 20
49.854075704541685
 10
4.0
 20
49.80486327519316
 10
4.0
 20
49.75270837764576
 10
4.0
 20
49.70055348009835
 10
4.0
 20
49.64270103989535
 10
4.0
 20
49.57060474305335
 10
4.0
 20
49.49850844621136
 10
4.0
 20
49.42641214936937
 10
4.0
 20
49.34071960500555
 10
4.0
 20
49.249588561633004
 10
4.0
 20
49.158457518260455
 10
4.0
 20
49.06477094334724
 10
4.0
 20
48.95575117919002
 10
4.0
 20
48.84673141503279
 10
4.0
 20
48.73771165087556
 10
4.0
 20
48.61925318157796
 10
4.0
 20
48.493715683425066
 10
4.0
 20
48.36817818527218
 10
4.0
 20
48.242640687119284
 10
4.0
 20
48.102164161848556
 10
4.0
 20
47.96168763657783
 10
4.0
 20
47.8212111113071
 10
4.0
 20
47.67508924890515
 10
4.0
 20
47.52144027032825
 10
4.0
 20
47.36779129175134
 10
4.0
 20
47.214142313174435
 10
4.0
 20
47.05085885323922
 10
4.0
 20
46.88596964641095
 10
4.0
 20
46.72108043958268
 10
4.0
 20
46.5535721896674
 10
4.0
 20
46.379516332034584
 10
4.0
 20
46.20546047440177
 10
4.0
 20
46.03140461676895
 10
4.0
 20
45.85236461813238
 10
4.0
 20
45.671330963094306
 10
4.0
 20
45.490297308056235
 10
4.0
 20
45.30859205385316
 10
4.0
 20
45.122857204660114
 10
4.0
 20
44.93712235546706
 10
4.0
 20
44.751387506274014
 10
4.0
 20
44.56430095956067
 10
4.0
 20
44.376200639707115
 10
4.0
 20
44.188100319853554
 10
4.0
 20
44.0
  0
LWPOLYLINE
  5
35
330
17
100
AcDbEntity
  8
0
100
AcDbPolyline
 90
51
 70
0
 10
4.0
 20
44.0
 10
4.0
 20
43.9200422900896
 10
4.0
 20
43.8400845801792
 10
4.0
 20
43.7601268702688
 10
4.0
 20
43.6801691603584
 10
4.0
 20
43.600211450448
 10
4.0
 20
43.5202537405376
 10
4.0
 20
43.4402960306272
 10
4.0
 20
43.3603383207168
 10
4.0
 20
43.2803806108064
 10
4.0
 20
43.200422900896
 10
4.0
 20
43.1204651909856
 10
4.0
 20
43.0405074810752
 10
4.0
 20
42.9605497711648
 10
4.0
 20
42.8805920612544
 10
4.0
 20
42.800634351344
 10
4.0
 20
42.7206766414336
 10
4.0
 20
42.640718931523196
 10
4.0
 20
42.5607612216128
 10
4.0
 20
42.4808035117024
 10
4.0
 20
42.400845801792
 10
4.0
 20
42.3208880918816
 10
4.0
 20
42.2409303819712
 10
4.0
 20
42.1609726720608
 10
4.0
 20
42.0810149621504
 10
4.0
 20
42.00105725224
 10
4.0
 20
41.9210995423296
 10
4.0
 20
41.8411418324192
 10
4.0
 20
41.7611841225088
 10
4.0
 20
41.6812264125984
 10
4.0
 20
41.601268702687996
 10
4.0
 20
41.5213109927776
 10
4.0
 20
41.4413532828672
 10
4.0
 20
41.3613955729568
 10
4.0
 20
41.2814378630464
 10
4.0
 20
41.201480153135996
 10
4.0
 20
41.1215224432256
 10
4.0
 20
41.0415647333152
 10
4.0
 20
40.961607023404795
 10
4.0
 20
40.8816493134944
 10
4.0
 20
40.801691603584
 10
4.0
 20
40.7217338936736
 10
4.0
 20
40.6417761837632
 10
4.0
 20
40.561818473852796
 10
4.0
 20
40.4818607639424
 10
4.0
 20
40.401903054032
 10
4.0
 20
40.321945344121595
 10
4.0
 20
40.2419876342112
 10
4.0
 20
40.162029924300796
 10
4.0
 20
40.0820722143904
 10
4.0
 20
40.00211450448
  0
LWPOLYLINE
  5
36
330
17
100
AcDbEntity
  8
0
100
AcDbPolyline
 90
51
 70
0
 10
4.0
 20
40.00211450448
 10
4.0
 20
39.922072214390354
 10
4.0
 20
39.842029924300704
 10
4.0
 20
39.76198763421106
 10
4.0
 20
39.68194534412142
 10
4.0
 20
39.601903054031766
 10
4.0
 20
39.52186076394212
 10
4.0
 20
39.44181847385248
 10
4.0
 20
39.36177618376283
 10
4.0
 20
39.281733893673184
 10
4.0
 20
39.20169160358354
 10
4.0
 20
39.12164931349389
 10
4.0
 20
39.04160702340425
 10
4.0
 20
38.9615647333146
 10
4.0
 20
38.88152244322496
 10
4.0
 20
38.80148015313531
 10
4.0
 20
38.721437863045665
 10
4.0
 20
38.64139557295602
 10
4.0
 20
38.56135328286637
 10
4.0
 20
38.48131099277673
 10
4.0
 20
38.401268702687084
 10
4.0
 20
38.32122641259743
 10
4.0
 20
38.24118412250779
 10
4.0
 20
38.161141832418146
 10
4.0
 20
38.081099542328495
 10
4.0
 20
38.00105725223885
 10
4.0
 20
37.92101496214921
 10
4.0
 20
37.84097267205956
 10
4.0
 20
37.760930381969914
 10
4.0
 20
37.68088809188027
 10
4.0
 20
37.60084580179062
 10
4.0
 20
37.520803511700976
 10
4.0
 20
37.44076122161133
 10
4.0
 20
37.36071893152169
 10
4.0
 20
37.28067664143204
 10
4.0
 20
37.200634351342394
 10
4.0
 20
37.12059206125275
 10
4.0
 20
37.0405497711631
 10
4.0
 20
36.960507481073456
 10
4.0
 20
36.88046519098381
 10
4.0
 20
36.80042290089416
 10
4.0
 20
36.72038061080452
 10
4.0
 20
36.640338320714875
 10
4.0
 20
36.560296030625224
 10
4.0
 20
36.48025374053558
 10
4.0
 20
36.40021145044594
 10
4.0
 20
36.320169160356286
 10
4.0
 20
36.24012687026664
 10
4.0
 20
36.160084580177
 10
4.0
 20
36.08004229008735
 10
4.0
 20
35.999999999997705
  0
LWPOLYLINE
  5
37
330
17
100
AcDbEntity
  8
0
100
AcDbPolyline
 90
51
 70
0
 10
4.0
 20
28.0
 10
4.0
 20
28.16
 10
4.0
 20
28.32
 10
4.0
 20
28.48
 10
4.0
 20
28.64
 10
4.0
 20
28.8
 10
4.0
 20
28.96
 10
4.0
 20
29.12
 10
4.0
 20
29.28
 10
4.0
 20
29.44
 10
4.0
 20
29.6
 10
4.0
 20
29.76
 10
4.0
 20
29.92
 10
4.0
 20
30.08
 10
4.0
 20
30.240000000000002
 10
4.0
 20
30.4
 10
4.0
 20
30.56
 10
4.0
 20
30.72
 10
4.0
 20
30.88
 10
4.0
 20
31.04
 10
4.0
 20
31.2
 10
4.0
 20
31.36
 10
4.0
 20
31.52
 10
4.0
 20
31.68
 10
4.0
 20
31.84
 10
4.0
 20
32.0
 10
4.0
 20
32.16
 10
4.0
 20
32.32
 10
4.0
 20
32.480000000000004
 10
4.0
 20
32.64
 10
4.0
 20
32.8
 10
4.0
 20
32.96
 10
4.0
 20
33.12
 10
4.0
 20
33.28
 10
4.0
 20
33.44
 10
4.0
 20
33.6
 10
4.0
 20
33.76
 10
4.0
 20
33.92
 10
4.0
 20
34.08
 10
4.0
 20
34.24
 10
4.0
 20
34.4
 10
4.0
 20
34.56
 10
4.0
 20
34.72
 10
4.0
 20
34.88
 10
4.0
 20
35.04
 10
4.0
 20
35.2
 10
4.0
 20
35.36
 10
4.0
 20
35.519999999999996
 10
4.0
 20
35.68
 10
4.0
 20
35.84
 10
4.0
 20
36.0
  0
LWPOLYLINE
  5
38
330
17
100
AcDbEntity
  8
0
100
AcDbPolyline
 90
51
 70
0
 10
-4.0
 20
40.00211450448
 10
-3.84
 20
40.00211450448
 10
-3.68
 20
40.00211450448
 10
-3.52
 20
40.00211450448
 10
-3.36
 20
40.00211450448
 10
-3.2
 20
40.00211450448
 10
-3.04
 20
40.00211450448
 10
-2.88
 20
40.00211450448
 10
-2.7199999999999998
 20
40.00211450448
 10
-2.56
 20
40.00211450448
 10
-2.4
 20
40.00211450448
 10
-2.24
 20
40.00211450448
 10
-2.08
 20
40.00211450448
 10
-1.92
 20
40.00211450448
 10
-1.7599999999999998
 20
40.00211450448
 10
-1.6
 20
40.00211450448
 10
-1.44
 20
40.00211450448
 10
-1.2799999999999998
 20
40.00211450448
 10
-1.12
 20
40.00211450448
 10
-0.96
 20
40.00211450448
 10
-0.7999999999999998
 20
40.00211450448
 10
-0.6400000000000001
 20
40.00211450448
 10
-0.48
 20
40.00211450448
 10
-0.31999999999999984
 20
40.00211450448
 10
-0.16000000000000014
 20
40.00211450448
 10
0.0
 20
40.00211450448
 10
0.16000000000000014
 20
40.00211450448
 10
0.3200000000000003
 20
40.00211450448
 10
0.4800000000000004
 20
40.00211450448
 10
0.6399999999999997
 20
40.00211450448
 10
0.7999999999999998
 20
40.00211450448
 10
0.96
 20
40.00211450448
 10
1.12
 20
40.00211450448
 10
1.2800000000000002
 20
40.00211450448
 10
1.4400000000000004
 20
40.00211450448
 10
1.5999999999999996
 20
40.00211450448
 10
1.7599999999999998
 20
40.00211450448
 10
1.92
 20
40.00211450448
 10
2.08
 20
40.00211450448
 10
2.24
 20
40.00211450448
 10
2.4000000000000004
 20
40.00211450448
 10
2.5599999999999996
 20
40.00211450448
 10
2.7199999999999998
 20
40.00211450448
 10
2.88
 20
40.00211450448
 10
3.04
 20
40.00211450448
 10
3.2
 20
40.00211450448
 10
3.3600000000000003
 20
40.00211450448
 10
3.5199999999999996
 20
40.00211450448
 10
3.6799999999999997
 20
40.00211450448
 10
3.84
 20
40.00211450448
 10
4.0
 20
40.00211450448
  0
LWPOLYLINE
  5
39
330
17
100
AcDbEntity
  8
0
100
AcDbPolyline
 90
51
 70
0
 10
-4.0
 20
36.0
 10
-3.84
 20
36.0
 10
-3.68
 20
36.0
 10
-3.52
 20
36.0
 10
-3.36
 20
36.0
 10
-3.2
 20
36.0
 10
-3.04
 20
36.0
 10
-2.88
 20
36.0
 10
-2.7199999999999998
 20
36.0
 10
-2.56
 20
36.0
 10
-2.4
 20
36.0
 10
-2.24
 20
36.0
 10
-2.08
 20
36.0
 10
-1.92
 20
36.0
 10
-1.7599999999999998
 20
36.0
 10
-1.6
 20
36.0
 10
-1.44
 20
36.0
 10
-1.2799999999999998
 20
36.0
 10
-1.12
 20
36.0
 10
-0.96
 20
36.0
 10
-0.7999999999999998
 20
36.0
 10
-0.6400000000000001
 20
36.0
 10
-0.48
 20
36.0
 10
-0.31999999999999984
 20
36.0
 10
-0.16000000000000014
 20
36.0
 10
0.0
 20
36.0
 10
0.16000000000000014
 20
36.0
 10
0.3200000000000003
 20
36.0
 10
0.4800000000000004
 20
36.0
 10
0.6399999999999997
 20
36.0
 10
0.7999999999999998
 20
36.0
 10
0.96
 20
36.0
 10
1.12
 20
36.0
 10
1.2800000000000002
 20
36.0
 10
1.4400000000000004
 20
36.0
 10
1.5999999999999996
 20
36.0
 10
1.7599999999999998
 20
36.0
 10
1.92
 20
36.0
 10
2.08
 20
36.0
 10
2.24
 20
36.0
 10
2.4000000000000004
 20
36.0
 10
2.5599999999999996
 20
36.0
 10
2.7199999999999998
 20
36.0
 10
2.88
 20
36.0
 10
3.04
 20
36.0
 10
3.2
 20
36.0
 10
3.3600000000000003
 20
36.0
 10
3.5199999999999996
 20
36.0
 10
3.6799999999999997
 20
36.0
 10
3.84
 20
36.0
 10
4.0
 20
36.0
  0
LWPOLYLINE
  5
3A
330
17
100
AcDbEntity
  8
0
100
AcDbPolyline
 90
51
 70
0
 10
-4.0
 20
28.0
 10
-4.220000000000008
 20
27.815249256072608
 10
-4.4400000000000155
 20
27.630498512145216
 10
-4.660000000000022
 20
27.445747768217828
 10
-4.88000000000003
 20
27.260997024290436
 10
-5.100000000000038
 20
27.076246280363044
 10
-5.320000000000045
 20
26.891495536435656
 10
-5.540000000000052
 20
26.706744792508264
 10
-5.76000000000006
 20
26.521994048580872
 10
-5.980000000000068
 20
26.33724330465348
 10
-6.200000000000076
 20
26.15249256072609
 10
-6.4200000000000825
 20
25.9677418167987
 10
-6.64000000000009
 20
25.782991072871308
 10
-6.860000000000097
 20
25.598240328943916
 10
-7.080000000000105
 20
25.413489585016524
 10
-7.300000000000113
 20
25.228738841089136
 10
-7.52000000000012
 20
25.043988097161744
 10
-7.740000000000127
 20
24.859237353234352
 10
-7.960000000000136
 20
24.67448660930696
 10
-8.180000000000142
 20
24.489735865379572
 10
-8.400000000000151
 20
24.30498512145218
 10
-8.620000000000157
 20
24.12023437752479
 10
-8.840000000000165
 20
23.9354836335974
 10
-9.060000000000173
 20
23.750732889670008
 10
-9.28000000000018
 20
23.565982145742616
 10
-9.500000000000188
 20
23.381231401815224
 10
-9.720000000000194
 20
23.196480657887832
 10
-9.940000000000204
 20
23.011729913960444
 10
-10.16000000000021
 20
22.826979170033052
 10
-10.380000000000217
 20
22.64222842610566
 10
-10.600000000000225
 20
22.457477682178272
 10
-10.820000000000231
 20
22.27272693825088
 10
-11.04000000000024
 20
22.08797619432349
 10
-11.260000000000247
 20
21.903225450396096
 10
-11.480000000000254
 20
21.718474706468704
 10
-11.700000000000262
 20
21.533723962541316
 10
-11.920000000000272
 20
21.348973218613924
 10
-12.140000000000278
 20
21.164222474686532
 10
-12.360000000000285
 20
20.979471730759144
 10
-12.580000000000293
 20
20.79472098683175
 10
-12.800000000000301
 20
20.60997024290436
 10
-13.020000000000307
 20
20.425219498976972
 10
-13.240000000000315
 20
20.240468755049577
 10
-13.460000000000322
 20
20.055718011122188
 10
-13.68000000000033
 20
19.870967267194796
 10
-13.900000000000338
 20
19.686216523267404
 10
-14.120000000000346
 20
19.501465779340016
 10
-14.340000000000353
 20
19.31671503541262
 10
-14.560000000000361
 20
19.131964291485232
 10
-14.780000000000367
 20
18.947213547557844
 10
-15.000000000000375
 20
18.76246280363045
  0
LWPOLYLINE
  5
3B
330
17
100
AcDbEntity
  8
0
100
AcDbPolyline
 90
51
 70
0
 10
-15.0
 20
18.76246280363
 10
-15.0
 20
18.3872135475574
 10
-15.0
 20
18.0119642914848
 10
-15.0
 20
17.6367150354122
 10
-15.0
 20
17.261465779339602
 10
-15.0
 20
16.886216523267002
 10
-15.0
 20
16.510967267194403
 10
-15.0
 20
16.135718011121803
 10
-15.0
 20
15.760468755049201
 10
-15.0
 20
15.3852194989766
 10
-15.0
 20
15.009970242904
 10
-15.0
 20
14.6347209868314
 10
-15.0
 20
14.2594717307588
 10
-15.0
 20
13.8842224746862
 10
-15.0
 20
13.508973218613601
 10
-15.0
 20
13.133723962541001
 10
-15.0
 20
12.758474706468402
 10
-15.0
 20
12.383225450395802
 10
-15.0
 20
12.0079761943232
 10
-15.0
 20
11.6327269382506
 10
-15.0
 20
11.257477682178001
 10
-15.0
 20
10.8822284261054
 10
-15.0
 20
10.5069791700328
 10
-15.0
 20
10.1317299139602
 10
-15.0
 20
9.7564806578876
 10
-15.0
 20
9.381231401815
 10
-15.0
 20
9.0059821457424
 10
-15.0
 20
8.630732889669801
 10
-15.0
 20
8.255483633597201
 10
-15.0
 20
7.8802343775246
 10
-15.0
 20
7.504985121452
 10
-15.0
 20
7.1297358653794
 10
-15.0
 20
6.754486609306801
 10
-15.0
 20
6.379237353234201
 10
-15.0
 20
6.003988097161601
 10
-15.0
 20
5.628738841089
 10
-15.0
 20
5.2534895850164
 10
-15.0
 20
4.8782403289438
 10
-15.0
 20
4.5029910728712
 10
-15.0
 20
4.127741816798601
 10
-15.0
 20
3.752492560726001
 10
-15.0
 20
3.3772433046533994
 10
-15.0
 20
3.0019940485807997
 10
-15.0
 20
2.6267447925082017
 10
-15.0
 20
2.2514955364355984
 10
-15.0
 20
1.8762462803629987
 10
-15.0
 20
1.500997024290399
 10
-15.0
 20
1.1257477682177992
 10
-15.0
 20
0.7504985121451995
 10
-15.0
 20
0.37524925607259974
 10
-15.0
 20
0.0
  0
LWPOLYLINE
  5
3C
330
17
100
AcDbEntity
  8
0
100
AcDbPolyline
 90
51
 70
0
 10
-15.0
 20
0.0
 10
-14.86
 20
0.0
 10
-14.72
 20
0.0
 10
-14.58
 20
0.0
 10
-14.44
 20
0.0
 10
-14.3
 20
0.0
 10
-14.16
 20
0.0
 10
-14.02
 20
0.0
 10
-13.879999999999999
 20
0.0
 10
-13.74
 20
0.0
 10
-13.6
 20
0.0
 10
-13.46
 20
0.0
 10
-13.32
 20
0.0
 10
-13.18
 20
0.0
 10
-13.04
 20
0.0
 10
-12.9
 20
0.0
 10
-12.76
 20
0.0
 10
-12.620000000000001
 20
0.0
 10
-12.48
 20
0.0
 10
-12.34
 20
0.0
 10
-12.2
 20
0.0
 10
-12.06
 20
0.0
 10
-11.92
 20
0.0
 10
-11.78
 20
0.0
 10
-11.64
 20
0.0
 10
-11.5
 20
0.0
 10
-11.36
 20
0.0
 10
-11.22
 20
0.0
 10
-11.08
 20
0.0
 10
-10.940000000000001
 20
0.0
 10
-10.8
 20
0.0
 10
-10.66
 20
0.0
 10
-10.52
 20
0.0
 10
-10.379999999999999
 20
0.0
 10
-10.24
 20
0.0
 10
-10.1
 20
0.0
 10
-9.96
 20
0.0
 10
-9.82
 20
0.0
 10
-9.68
 20
0.0
 10
-9.54
 20
0.0
 10
-9.4
 20
0.0
 10
-9.26
 20
0.0
 10
-9.120000000000001
 20
0.0
 10
-8.98
 20
0.0
 10
-8.84
 20
0.0
 10
-8.7
 20
0.0
 10
-8.559999999999999
 20
0.0
 10
-8.42
 20
0.0
 10
-8.280000000000001
 20
0.0
 10
-8.14
 20
0.0
 10
-8.0
 20
0.0
  0
LWPOLYLINE
  5
3D
330
17
100
AcDbEntity
  8
0
100
AcDbPolyline
 90
51
 70
0
 10
-8.0
 20
0.0
 10
-8.0
 20
0.31
 10
-8.0
 20
0.62
 10
-8.0
 20
0.93
 10
-8.0
 20
1.24
 10
-8.0
 20
1.55
 10
-8.0
 20
1.86
 10
-8.0
 20
2.17
 10
-8.0
 20
2.48
 10
-8.0
 20
2.79
 10
-8.0
 20
3.1
 10
-8.0
 20
3.41
 10
-8.0
 20
3.72
 10
-8.0
 20
4.03
 10
-8.0
 20
4.34
 10
-8.0
 20
4.65
 10
-8.0
 20
4.96
 10
-8.0
 20
5.27
 10
-8.0
 20
5.58
 10
-8.0
 20
5.89
 10
-8.0
 20
6.2
 10
-8.0
 20
6.51
 10
-8.0
 20
6.82
 10
-8.0
 20
7.13
 10
-8.0
 20
7.44
 10
-8.0
 20
7.75
 10
-8.0
 20
8.06
 10
-8.0
 20
8.37
 10
-8.0
 20
8.68
 10
-8.0
 20
8.99
 10
-8.0
 20
9.3
 10
-8.0
 20
9.61
 10
-8.0
 20
9.92
 10
-8.0
 20
10.23
 10
-8.0
 20
10.54
 10
-8.0
 20
10.85
 10
-8.0
 20
11.16
 10
-8.0
 20
11.47
 10
-8.0
 20
11.78
 10
-8.0
 20
12.09
 10
-8.0
 20
12.4
 10
-8.0
 20
12.71
 10
-8.0
 20
13.02
 10
-8.0
 20
13.33
 10
-8.0
 20
13.64
 10
-8.0
 20
13.95
 10
-8.0
 20
14.26
 10
-8.0
 20
14.57
 10
-8.0
 20
14.88
 10
-8.0
 20
15.19
 10
-8.0
 20
15.5
  0
LWPOLYLINE
  5
3E
330
17
100
AcDbEntity
  8
0
100
AcDbPolyline
 90
51
 70
0
 10
-8.0
 20
15.5
 10
-7.892828577687455
 20
15.589999999999995
 10
-7.78565715537491
 20
15.679999999999987
 10
-7.678485733062364
 20
15.769999999999982
 10
-7.571314310749819
 20
15.859999999999975
 10
-7.464142888437274
 20
15.949999999999969
 10
-7.356971466124728
 20
16.039999999999964
 10
-7.249800043812183
 20
16.129999999999956
 10
-7.142628621499638
 20
16.21999999999995
 10
-7.035457199187093
 20
16.309999999999945
 10
-6.928285776874548
 20
16.399999999999938
 10
-6.8211143545620025
 20
16.48999999999993
 10
-6.713942932249457
 20
16.579999999999924
 10
-6.6067715099369115
 20
16.66999999999992
 10
-6.4996000876243665
 20
16.759999999999913
 10
-6.3924286653118205
 20
16.849999999999905
 10
-6.2852572429992755
 20
16.9399999999999
 10
-6.17808582068673
 20
17.029999999999895
 10
-6.070914398374185
 20
17.119999999999887
 10
-5.96374297606164
 20
17.20999999999988
 10
-5.856571553749095
 20
17.299999999999876
 10
-5.749400131436548
 20
17.38999999999987
 10
-5.642228709124004
 20
17.479999999999862
 10
-5.535057286811458
 20
17.569999999999855
 10
-5.427885864498913
 20
17.65999999999985
 10
-5.320714442186368
 20
17.749999999999844
 10
-5.213543019873823
 20
17.839999999999836
 10
-5.106371597561278
 20
17.929999999999833
 10
-4.999200175248733
 20
18.019999999999825
 10
-4.892028752936187
 20
18.10999999999982
 10
-4.784857330623642
 20
18.19999999999981
 10
-4.677685908311096
 20
18.289999999999807
 10
-4.570514485998551
 20
18.3799999999998
 10
-4.463343063686006
 20
18.469999999999793
 10
-4.356171641373461
 20
18.55999999999979
 10
-4.249000219060916
 20
18.649999999999782
 10
-4.14182879674837
 20
18.739999999999775
 10
-4.034657374435825
 20
18.829999999999767
 10
-3.9274859521232797
 20
18.91999999999976
 10
-3.8203145298107337
 20
19.009999999999756
 10
-3.7131431074981895
 20
19.09999999999975
 10
-3.6059716851856436
 20
19.189999999999742
 10
-3.4988002628730976
 20
19.27999999999974
 10
-3.3916288405605535
 20
19.36999999999973
 10
-3.2844574182480084
 20
19.459999999999724
 10
-3.1772859959354625
 20
19.54999999999972
 10
-3.0701145736229174
 20
19.639999999999713
 10
-2.9629431513103723
 20
19.729999999999706
 10
-2.8557717289978264
 20
19.819999999999702
 10
-2.7486003066852813
 20
19.909999999999695
 10
-2.641428884372737
 20
19.999999999999687
  0
LWPOLYLINE
  5
3F
330
17
100
AcDbEntity
  8
0
100
AcDbPolyline
 90
51
 70
0
 10
-2.641428884373
 20
20.0
 10
-2.53577172899808
 20
20.0
 10
-2.43011457362316
 20
20.0
 10
-2.3244574182482403
 20
20.0
 10
-2.21880026287332
 20
20.0
 10
-2.1131431074984
 20
20.0
 10
-2.00748595212348
 20
20.0
 10
-1.90182879674856
 20
20.0
 10
-1.7961716413736402
 20
20.0
 10
-1.6905144859987202
 20
20.0
 10
-1.5848573306238
 20
20.0
 10
-1.47920017524888
 20
20.0
 10
-1.37354301987396
 20
20.0
 10
-1.2678858644990398
 20
20.0
 10
-1.16222870912412
 20
20.0
 10
-1.0565715537492
 20
20.0
 10
-0.95091439837428
 20
20.0
 10
-0.8452572429993601
 20
20.0
 10
-0.7396000876244402
 20
20.0
 10
-0.63394293224952
 20
20.0
 10
-0.5282857768746001
 20
20.0
 10
-0.4226286214996797
 20
20.0
 10
-0.3169714661247598
 20
20.0
 10
-0.21131431074983986
 20
20.0
 10
-0.10565715537491993
 20
20.0
 10
4.440892098500626e-16
 20
20.0
 10
0.10565715537492038
 20
20.0
 10
0.2113143107498403
 20
20.0
 10
0.31697146612476024
 20
20.0
 10
0.42262862149968017
 20
20.0
 10
0.5282857768746001
 20
20.0
 10
0.63394293224952
 20
20.0
 10
0.73960008762444
 20
20.0
 10
0.8452572429993599
 20
20.0
 10
0.9509143983742798
 20
20.0
 10
1.0565715537491998
 20
20.0
 10
1.1622287091241197
 20
20.0
 10
1.26788586449904
 20
20.0
 10
1.37354301987396
 20
20.0
 10
1.47920017524888
 20
20.0
 10
1.5848573306237999
 20
20.0
 10
1.6905144859987207
 20
20.0
 10
1.7961716413736406
 20
20.0
 10
1.9018287967485605
 20
20.0
 10
2.0074859521234805
 20
20.0
 10
2.1131431074984004
 20
20.0
 10
2.2188002628733203
 20
20.0
 10
2.3244574182482403
 20
20.0
 10
2.43011457362316
 20
20.0
 10
2.535771728998081
 20
20.0
 10
2.641428884373001
 20
20.0
  0
LWPOLYLINE
  5
40
330
17
100
AcDbEntity
  8
0
100
AcDbPolyline
 90
51
 70
0
 10
2.641428884373
 20
20.0
 10
2.748600306685545
 20
19.910000000000007
 10
2.8557717289980906
 20
19.82000000000001
 10
2.962943151310636
 20
19.730000000000018
 10
3.070114573623181
 20
19.640000000000025
 10
3.1772859959357262
 20
19.550000000000033
 10
3.2844574182482718
 20
19.460000000000036
 10
3.391628840560817
 20
19.370000000000044
 10
3.4988002628733623
 20
19.28000000000005
 10
3.6059716851859074
 20
19.190000000000055
 10
3.7131431074984524
 20
19.100000000000062
 10
3.820314529810998
 20
19.01000000000007
 10
3.9274859521235435
 20
18.920000000000076
 10
4.0346573744360885
 20
18.83000000000008
 10
4.141828796748634
 20
18.740000000000087
 10
4.249000219061179
 20
18.650000000000095
 10
4.356171641373725
 20
18.5600000000001
 10
4.46334306368627
 20
18.470000000000105
 10
4.570514485998816
 20
18.380000000000113
 10
4.677685908311361
 20
18.29000000000012
 10
4.784857330623906
 20
18.200000000000124
 10
4.892028752936451
 20
18.11000000000013
 10
4.999200175248996
 20
18.020000000000138
 10
5.106371597561541
 20
17.930000000000145
 10
5.213543019874087
 20
17.84000000000015
 10
5.320714442186631
 20
17.750000000000156
 10
5.427885864499178
 20
17.660000000000164
 10
5.535057286811723
 20
17.570000000000167
 10
5.642228709124268
 20
17.480000000000175
 10
5.749400131436813
 20
17.39000000000018
 10
5.856571553749358
 20
17.30000000000019
 10
5.963742976061903
 20
17.210000000000193
 10
6.070914398374448
 20
17.1200000000002
 10
6.178085820686994
 20
17.030000000000207
 10
6.28525724299954
 20
16.94000000000021
 10
6.392428665312085
 20
16.850000000000218
 10
6.49960008762463
 20
16.760000000000225
 10
6.606771509937175
 20
16.670000000000233
 10
6.71394293224972
 20
16.58000000000024
 10
6.821114354562266
 20
16.490000000000244
 10
6.9282857768748105
 20
16.40000000000025
 10
7.0354571991873565
 20
16.310000000000258
 10
7.142628621499902
 20
16.22000000000026
 10
7.249800043812447
 20
16.13000000000027
 10
7.356971466124992
 20
16.040000000000276
 10
7.464142888437538
 20
15.95000000000028
 10
7.571314310750083
 20
15.860000000000287
 10
7.678485733062628
 20
15.770000000000294
 10
7.785657155375174
 20
15.6800000000003
 10
7.892828577687719
 20
15.590000000000305
 10
8.000000000000263
 20
15.500000000000313
  0
LWPOLYLINE
  5
41
330
17
100
AcDbEntity
  8
0
100
AcDbPolyline
 90
51
 70
0
 10
8.0
 20
15.5
 10
8.0
 20
15.19
 10
8.0
 20
14.88
 10
8.0
 20
14.57
 10
8.0
 20
14.26
 10
8.0
 20
13.95
 10
8.0
 20
13.64
 10
8.0
 20
13.33
 10
8.0
 20
13.02
 10
8.0
 20
12.71
 10
8.0
 20
12.4
 10
8.0
 20
12.09
 10
8.0
 20
11.78
 10
8.0
 20
11.469999999999999
 10
8.0
 20
11.16
 10
8.0
 20
10.85
 10
8.0
 20
10.54
 10
8.0
 20
10.23
 10
8.0
 20
9.92
 10
8.0
 20
9.61
 10
8.0
 20
9.3
 10
8.0
 20
8.99
 10
8.0
 20
8.68
 10
8.0
 20
8.370000000000001
 10
8.0
 20
8.059999999999999
 10
8.0
 20
7.75
 10
8.0
 20
7.4399999999999995
 10
8.0
 20
7.130000000000001
 10
8.0
 20
6.82
 10
8.0
 20
6.51
 10
8.0
 20
6.199999999999999
 10
8.0
 20
5.890000000000001
 10
8.0
 20
5.58
 10
8.0
 20
5.27
 10
8.0
 20
4.960000000000001
 10
8.0
 20
4.65
 10
8.0
 20
4.34
 10
8.0
 20
4.029999999999999
 10
8.0
 20
3.7200000000000006
 10
8.0
 20
3.41
 10
8.0
 20
3.0999999999999996
 10
8.0
 20
2.789999999999999
 10
8.0
 20
2.4800000000000004
 10
8.0
 20
2.17
 10
8.0
 20
1.8599999999999994
 10
8.0
 20
1.5500000000000007
 10
8.0
 20
1.2400000000000002
 10
8.0
 20
0.9299999999999997
 10
8.0
 20
0.6199999999999992
 10
8.0
 20
0.3100000000000005
 10
8.0
 20
0.0
  0
LWPOLYLINE
  5
42
330
17
100
AcDbEntity
  8
0
100
AcDbPolyline
 90
51
 70
0
 10
8.0
 20
0.0
 10
8.14
 20
0.0
 10
8.28
 20
0.0
 10
8.42
 20
0.0
 10
8.56
 20
0.0
 10
8.7
 20
0.0
 10
8.84
 20
0.0
 10
8.98
 20
0.0
 10
9.120000000000001
 20
0.0
 10
9.26
 20
0.0
 10
9.4
 20
0.0
 10
9.54
 20
0.0
 10
9.68
 20
0.0
 10
9.82
 20
0.0
 10
9.96
 20
0.0
 10
10.1
 20
0.0
 10
10.24
 20
0.0
 10
10.379999999999999
 20
0.0
 10
10.52
 20
0.0
 10
10.66
 20
0.0
 10
10.8
 20
0.0
 10
10.94
 20
0.0
 10
11.08
 20
0.0
 10
11.22
 20
0.0
 10
11.36
 20
0.0
 10
11.5
 20
0.0
 10
11.64
 20
0.0
 10
11.78
 20
0.0
 10
11.92
 20
0.0
 10
12.059999999999999
 20
0.0
 10
12.2
 20
0.0
 10
12.34
 20
0.0
 10
12.48
 20
0.0
 10
12.620000000000001
 20
0.0
 10
12.76
 20
0.0
 10
12.9
 20
0.0
 10
13.04
 20
0.0
 10
13.18
 20
0.0
 10
13.32
 20
0.0
 10
13.46
 20
0.0
 10
13.6
 20
0.0
 10
13.74
 20
0.0
 10
13.879999999999999
 20
0.0
 10
14.02
 20
0.0
 10
14.16
 20
0.0
 10
14.3
 20
0.0
 10
14.440000000000001
 20
0.0
 10
14.58
 20
0.0
 10
14.719999999999999
 20
0.0
 10
14.86
 20
0.0
 10
15.0
 20
0.0
  0
LWPOLYLINE
  5
43
330
17
100
AcDbEntity
  8
0
100
AcDbPolyline
 90
51
 70
0
 10
15.0
 20
0.0
 10
15.0
 20
0.3752492560726
 10
15.0
 20
0.7504985121452
 10
15.0
 20
1.1257477682178
 10
15.0
 20
1.5009970242904
 10
15.0
 20
1.876246280363
 10
15.0
 20
2.2514955364356
 10
15.0
 20
2.6267447925082
 10
15.0
 20
3.0019940485808
 10
15.0
 20
3.3772433046534003
 10
15.0
 20
3.752492560726
 10
15.0
 20
4.127741816798601
 10
15.0
 20
4.5029910728712
 10
15.0
 20
4.8782403289438
 10
15.0
 20
5.2534895850164
 10
15.0
 20
5.6287388410890005
 10
15.0
 20
6.0039880971616
 10
15.0
 20
6.3792373532342
 10
15.0
 20
6.754486609306801
 10
15.0
 20
7.1297358653794
 10
15.0
 20
7.504985121452
 10
15.0
 20
7.880234377524601
 10
15.0
 20
8.255483633597201
 10
15.0
 20
8.630732889669801
 10
15.0
 20
9.0059821457424
 10
15.0
 20
9.381231401815
 10
15.0
 20
9.7564806578876
 10
15.0
 20
10.1317299139602
 10
15.0
 20
10.5069791700328
 10
15.0
 20
10.882228426105401
 10
15.0
 20
11.257477682178001
 10
15.0
 20
11.6327269382506
 10
15.0
 20
12.0079761943232
 10
15.0
 20
12.3832254503958
 10
15.0
 20
12.7584747064684
 10
15.0
 20
13.133723962541001
 10
15.0
 20
13.508973218613601
 10
15.0
 20
13.8842224746862
 10
15.0
 20
14.2594717307588
 10
15.0
 20
14.6347209868314
 10
15.0
 20
15.009970242904
 10
15.0
 20
15.385219498976602
 10
15.0
 20
15.760468755049201
 10
15.0
 20
16.1357180111218
 10
15.0
 20
16.510967267194403
 10
15.0
 20
16.886216523267002
 10
15.0
 20
17.261465779339602
 10
15.0
 20
17.6367150354122
 10
15.0
 20
18.0119642914848
 10
15.0
 20
18.3872135475574
 10
15.0
 20
18.76246280363
  0
LWPOLYLINE
  5
44
330
17
100
AcDbEntity
  8
0
100
AcDbPolyline
 90
51
 70
0
 10
15.0
 20
18.76246280363
 10
14.779999999999992
 20
18.947213547557393
 10
14.559999999999985
 20
19.131964291484785
 10
14.339999999999977
 20
19.316715035412173
 10
14.119999999999969
 20
19.501465779339565
 10
13.899999999999963
 20
19.686216523266957
 10
13.679999999999955
 20
19.870967267194345
 10
13.459999999999948
 20
20.055718011121737
 10
13.23999999999994
 20
20.24046875504913
 10
13.019999999999932
 20
20.42521949897652
 10
12.799999999999924
 20
20.609970242903913
 10
12.579999999999917
 20
20.7947209868313
 10
12.35999999999991
 20
20.979471730758693
 10
12.139999999999903
 20
21.164222474686085
 10
11.919999999999895
 20
21.348973218613477
 10
11.699999999999887
 20
21.533723962540865
 10
11.47999999999988
 20
21.718474706468257
 10
11.259999999999874
 20
21.90322545039565
 10
11.039999999999864
 20
22.08797619432304
 10
10.819999999999858
 20
22.27272693825043
 10
10.599999999999849
 20
22.45747768217782
 10
10.379999999999843
 20
22.642228426105213
 10
10.159999999999835
 20
22.8269791700326
 10
9.939999999999827
 20
23.011729913959993
 10
9.71999999999982
 20
23.196480657887385
 10
9.499999999999812
 20
23.381231401814777
 10
9.279999999999806
 20
23.56598214574217
 10
9.059999999999796
 20
23.750732889669557
 10
8.83999999999979
 20
23.93548363359695
 10
8.619999999999783
 20
24.12023437752434
 10
8.399999999999775
 20
24.30498512145173
 10
8.179999999999769
 20
24.48973586537912
 10
7.959999999999759
 20
24.674486609306513
 10
7.739999999999752
 20
24.859237353233905
 10
7.5199999999997456
 20
25.043988097161296
 10
7.299999999999738
 20
25.228738841088685
 10
7.079999999999729
 20
25.413489585016077
 10
6.859999999999722
 20
25.59824032894347
 10
6.639999999999715
 20
25.782991072870857
 10
6.419999999999707
 20
25.967741816798252
 10
6.199999999999699
 20
26.15249256072564
 10
5.979999999999693
 20
26.33724330465303
 10
5.759999999999685
 20
26.521994048580424
 10
5.539999999999678
 20
26.706744792507813
 10
5.31999999999967
 20
26.891495536435205
 10
5.099999999999662
 20
27.076246280362597
 10
4.879999999999654
 20
27.260997024289985
 10
4.659999999999647
 20
27.44574776821738
 10
4.439999999999639
 20
27.63049851214477
 10
4.219999999999633
 20
27.815249256072157
 10
3.999999999999625
 20
27.999999999999552
  0
LWPOLYLINE
  5
45
330
17
100
AcDbEntity
  8
0
100
AcDbPolyline
 90
51
 70
0
 10
-8.0
 20
8.0
 10
-7.92
 20
8.0
 10
-7.84
 20
8.0
 10
-7.76
 20
8.0
 10
-7.68
 20
8.0
 10
-7.6
 20
8.0
 10
-7.52
 20
8.0
 10
-7.4399999999999995
 20
8.0
 10
-7.36
 20
8.0
 10
-7.28
 20
8.0
 10
-7.2
 20
8.0
 10
-7.12
 20
8.0
 10
-7.04
 20
8.0
 10
-6.96
 20
8.0
 10
-6.88
 20
8.0
 10
-6.8
 20
8.0
 10
-6.72
 20
8.0
 10
-6.64
 20
8.0
 10
-6.5600000000000005
 20
8.0
 10
-6.48
 20
8.0
 10
-6.4
 20
8.0
 10
-6.32
 20
8.0
 10
-6.24
 20
8.0
 10
-6.16
 20
8.0
 10
-6.08
 20
8.0
 10
-6.0
 20
8.0
 10
-5.92
 20
8.0
 10
-5.84
 20
8.0
 10
-5.76
 20
8.0
 10
-5.68
 20
8.0
 10
-5.6
 20
8.0
 10
-5.52
 20
8.0
 10
-5.4399999999999995
 20
8.0
 10
-5.359999999999999
 20
8.0
 10
-5.279999999999999
 20
8.0
 10
-5.2
 20
8.0
 10
-5.12
 20
8.0
 10
-5.04
 20
8.0
 10
-4.96
 20
8.0
 10
-4.88
 20
8.0
 10
-4.8
 20
8.0
 10
-4.720000000000001
 20
8.0
 10
-4.640000000000001
 20
8.0
 10
-4.5600000000000005
 20
8.0
 10
-4.48
 20
8.0
 10
-4.4
 20
8.0
 10
-4.32
 20
8.0
 10
-4.24
 20
8.0
 10
-4.16
 20
8.0
 10
-4.08
 20
8.0
 10
-4.0
 20
8.0
  0
LWPOLYLINE
  5
46
330
17
100
AcDbEntity
  8
0
100
AcDbPolyline
 90
51
 70
0
 10
-8.0
 20
0.0
 10
-7.92
 20
0.0
 10
-7.84
 20
0.0
 10
-7.76
 20
0.0
 10
-7.68
 20
0.0
 10
-7.6
 20
0.0
 10
-7.52
 20
0.0
 10
-7.4399999999999995
 20
0.0
 10
-7.36
 20
0.0
 10
-7.28
 20
0.0
 10
-7.2
 20
0.0
 10
-7.12
 20
0.0
 10
-7.04
 20
0.0
 10
-6.96
 20
0.0
 10
-6.88
 20
0.0
 10
-6.8
 20
0.0
 10
-6.72
 20
0.0
 10
-6.64
 20
0.0
 10
-6.5600000000000005
 20
0.0
 10
-6.48
 20
0.0
 10
-6.4
 20
0.0
 10
-6.32
 20
0.0
 10
-6.24
 20
0.0
 10
-6.16
 20
0.0
 10
-6.08
 20
0.0
 10
-6.0
 20
0.0
 10
-5.92
 20
0.0
 10
-5.84
 20
0.0
 10
-5.76
 20
0.0
 10
-5.68
 20
0.0
 10
-5.6
 20
0.0
 10
-5.52
 20
0.0
 10
-5.4399999999999995
 20
0.0
 10
-5.359999999999999
 20
0.0
 10
-5.279999999999999
 20
0.0
 10
-5.2
 20
0.0
 10
-5.12
 20
0.0
 10
-5.04
 20
0.0
 10
-4.96
 20
0.0
 10
-4.88
 20
0.0
 10
-4.8
 20
0.0
 10
-4.720000000000001
 20
0.0
 10
-4.640000000000001
 20
0.0
 10
-4.5600000000000005
 20
0.0
 10
-4.48
 20
0.0
 10
-4.4
 20
0.0
 10
-4.32
 20
0.0
 10
-4.24
 20
0.0
 10
-4.16
 20
0.0
 10
-4.08
 20
0.0
 10
-4.0
 20
0.0
  0
LWPOLYLINE
  5
47
330
17
100
AcDbEntity
  8
0
100
AcDbPolyline
 90
51
 70
0
 10
-4.0
 20
0.0
 10
-4.0
 20
0.16
 10
-4.0
 20
0.32
 10
-4.0
 20
0.48
 10
-4.0
 20
0.64
 10
-4.0
 20
0.8
 10
-4.0
 20
0.96
 10
-4.0
 20
1.12
 10
-4.0
 20
1.28
 10
-4.0
 20
1.44
 10
-4.0
 20
1.6
 10
-4.0
 20
1.76
 10
-4.0
 20
1.92
 10
-4.0
 20
2.08
 10
-4.0
 20
2.24
 10
-4.0
 20
2.4
 10
-4.0
 20
2.56
 10
-4.0
 20
2.72
 10
-4.0
 20
2.88
 10
-4.0
 20
3.04
 10
-4.0
 20
3.2
 10
-4.0
 20
3.36
 10
-4.0
 20
3.52
 10
-4.0
 20
3.68
 10
-4.0
 20
3.84
 10
-4.0
 20
4.0
 10
-4.0
 20
4.16
 10
-4.0
 20
4.32
 10
-4.0
 20
4.48
 10
-4.0
 20
4.64
 10
-4.0
 20
4.8
 10
-4.0
 20
4.96
 10
-4.0
 20
5.12
 10
-4.0
 20
5.28
 10
-4.0
 20
5.44
 10
-4.0
 20
5.6
 10
-4.0
 20
5.76
 10
-4.0
 20
5.92
 10
-4.0
 20
6.08
 10
-4.0
 20
6.24
 10
-4.0
 20
6.4
 10
-4.0
 20
6.56
 10
-4.0
 20
6.72
 10
-4.0
 20
6.88
 10
-4.0
 20
7.04
 10
-4.0
 20
7.2
 10
-4.0
 20
7.36
 10
-4.0
 20
7.52
 10
-4.0
 20
7.68
 10
-4.0
 20
7.84
 10
-4.0
 20
8.0
  0
LWPOLYLINE
  5
48
330
17
100
AcDbEntity
  8
0
100
AcDbPolyline
 90
51
 70
0
 10
8.0
 20
8.0
 10
7.92
 20
8.0
 10
7.84
 20
8.0
 10
7.76
 20
8.0
 10
7.68
 20
8.0
 10
7.6
 20
8.0
 10
7.52
 20
8.0
 10
7.4399999999999995
 20
8.0
 10
7.36
 20
8.0
 10
7.28
 20
8.0
 10
7.2
 20
8.0
 10
7.12
 20
8.0
 10
7.04
 20
8.0
 10
6.96
 20
8.0
 10
6.88
 20
8.0
 10
6.8
 20
8.0
 10
6.72
 20
8.0
 10
6.64
 20
8.0
 10
6.5600000000000005
 20
8.0
 10
6.48
 20
8.0
 10
6.4
 20
8.0
 10
6.32
 20
8.0
 10
6.24
 20
8.0
 10
6.16
 20
8.0
 10
6.08
 20
8.0
 10
6.0
 20
8.0
 10
5.92
 20
8.0
 10
5.84
 20
8.0
 10
5.76
 20
8.0
 10
5.68
 20
8.0
 10
5.6
 20
8.0
 10
5.52
 20
8.0
 10
5.4399999999999995
 20
8.0
 10
5.359999999999999
 20
8.0
 10
5.279999999999999
 20
8.0
 10
5.2
 20
8.0
 10
5.12
 20
8.0
 10
5.04
 20
8.0
 10
4.96
 20
8.0
 10
4.88
 20
8.0
 10
4.8
 20
8.0
 10
4.720000000000001
 20
8.0
 10
4.640000000000001
 20
8.0
 10
4.5600000000000005
 20
8.0
 10
4.48
 20
8.0
 10
4.4
 20
8.0
 10
4.32
 20
8.0
 10
4.24
 20
8.0
 10
4.16
 20
8.0
 10
4.08
 20
8.0
 10
4.0
 20
8.0
  0
LWPOLYLINE
  5
49
330
17
100
AcDbEntity
  8
0
100
AcDbPolyline
 90
51
 70
0
 10
4.0
 20
8.0
 10
4.0
 20
7.84
 10
4.0
 20
7.68
 10
4.0
 20
7.52
 10
4.0
 20
7.36
 10
4.0
 20
7.2
 10
4.0
 20
7.04
 10
4.0
 20
6.88
 10
4.0
 20
6.72
 10
4.0
 20
6.5600000000000005
 10
4.0
 20
6.4
 10
4.0
 20
6.24
 10
4.0
 20
6.08
 10
4.0
 20
5.92
 10
4.0
 20
5.76
 10
4.0
 20
5.6
 10
4.0
 20
5.4399999999999995
 10
4.0
 20
5.279999999999999
 10
4.0
 20
5.12
 10
4.0
 20
4.96
 10
4.0
 20
4.8
 10
4.0
 20
4.640000000000001
 10
4.0
 20
4.48
 10
4.0
 20
4.32
 10
4.0
 20
4.16
 10
4.0
 20
4.0
 10
4.0
 20
3.84
 10
4.0
 20
3.6799999999999997
 10
4.0
 20
3.5199999999999996
 10
4.0
 20
3.3600000000000003
 10
4.0
 20
3.2
 10
4.0
 20
3.04
 10
4.0
 20
2.88
 10
4.0
 20
2.7199999999999998
 10
4.0
 20
2.5599999999999996
 10
4.0
 20
2.4000000000000004
 10
4.0
 20
2.24
 10
4.0
 20
2.08
 10
4.0
 20
1.92
 10
4.0
 20
1.7599999999999998
 10
4.0
 20
1.5999999999999996
 10
4.0
 20
1.4400000000000004
 10
4.0
 20
1.2800000000000002
 10
4.0
 20
1.12
 10
4.0
 20
0.96
 10
4.0
 20
0.7999999999999998
 10
4.0
 20
0.6399999999999997
 10
4.0
 20
0.4800000000000004
 10
4.0
 20
0.3200000000000003
 10
4.0
 20
0.16000000000000014
 10
4.0
 20
0.0
  0
LWPOLYLINE
  5
4A
330
17
100
AcDbEntity
  8
0
100
AcDbPolyline
 90
51
 70
0
 10
8.0
 20
0.0
 10
7.92
 20
0.0
 10
7.84
 20
0.0
 10
7.76
 20
0.0
 10
7.68
 20
0.0
 10
7.6
 20
0.0
 10
7.52
 20
0.0
 10
7.4399999999999995
 20
0.0
 10
7.36
 20
0.0
 10
7.28
 20
0.0
 10
7.2
 20
0.0
 10
7.12
 20
0.0
 10
7.04
 20
0.0
 10
6.96
 20
0.0
 10
6.88
 20
0.0
 10
6.8
 20
0.0
 10
6.72
 20
0.0
 10
6.64
 20
0.0
 10
6.5600000000000005
 20
0.0
 10
6.48
 20
0.0
 10
6.4
 20
0.0
 10
6.32
 20
0.0
 10
6.24
 20
0.0
 10
6.16
 20
0.0
 10
6.08
 20
0.0
 10
6.0
 20
0.0
 10
5.92
 20
0.0
 10
5.84
 20
0.0
 10
5.76
 20
0.0
 10
5.68
 20
0.0
 10
5.6
 20
0.0
 10
5.52
 20
0.0
 10
5.4399999999999995
 20
0.0
 10
5.359999999999999
 20
0.0
 10
5.279999999999999
 20
0.0
 10
5.2
 20
0.0
 10
5.12
 20
0.0
 10
5.04
 20
0.0
 10
4.96
 20
0.0
 10
4.88
 20
0.0
 10
4.8
 20
0.0
 10
4.720000000000001
 20
0.0
 10
4.640000000000001
 20
0.0
 10
4.5600000000000005
 20
0.0
 10
4.48
 20
0.0
 10
4.4
 20
0.0
 10
4.32
 20
0.0
 10
4.24
 20
0.0
 10
4.16
 20
0.0
 10
4.08
 20
0.0
 10
4.0
 20
0.0
  0
ENDSEC
  0
SECTION
  2
OBJECTS
  0
DICTIONARY
  5
A
330
0
100
AcDbDictionary
280
0
281
1
  3
ACAD_COLOR
350
B
  3
ACAD_GROUP
350
C
  3
ACAD_LAYOUT
350
D
  3
ACAD_MATERIAL
350
E
  3
ACAD_MLEADERSTYLE
350
F
  3
ACAD_MLINESTYLE
350
10
  3
ACAD_PLOTSETTINGS
350
11
  3
ACAD_PLOTSTYLENAME
350
12
  3
ACAD_SCALELIST
350
14
  3
ACAD_TABLESTYLE
350
15
  3
ACAD_VISUALSTYLE
350
16
  3
EZDXF_META
350
2D
  0
DICTIONARY
  5
B
330
A
100
AcDbDictionary
280
0
281
1
  0
DICTIONARY
  5
C
330
A
100
AcDbDictionary
280
0
281
1
  0
DICTIONARY
  5
D
330
A
100
AcDbDictionary
280
0
281
1
  3
Model
350
1A
  3
Layout1
350
1E
  0
DICTIONARY
  5
E
330
A
100
AcDbDictionary
280
0
281
1
  3
ByBlock
350
1F
  3
ByLayer
350
20
  3
Global
350
21
  0
DICTIONARY
  5
F
330
A
100
AcDbDictionary
280
0
281
1
  3
Standard
350
2C
  0
DICTIONARY
  5
10
330
A
100
AcDbDictionary
280
0
281
1
  3
Standard
350
22
  0
DICTIONARY
  5
11
330
A
100
AcDbDictionary
280
0
281
1
  0
ACDBDICTIONARYWDFLT
  5
12
330
A
100
AcDbDictionary
280
0
281
1
  3
Normal
350
13
100
AcDbDictionaryWithDefault
340
13
  0
ACDBPLACEHOLDER
  5
13
330
12
  0
DICTIONARY
  5
14
330
A
100
AcDbDictionary
280
0
281
1
  0
DICTIONARY
  5
15
330
A
100
AcDbDictionary
280
0
281
1
  0
DICTIONARY
  5
16
330
A
100
AcDbDictionary
280
0
281
1
  0
LAYOUT
  5
1A
330
D
100
AcDbPlotSettings
  1

  2
Adobe PDF
  4
A3
  6

 40
7.5
 41
20.0
 42
7.5
 43
20.0
 44
420.0
 45
297.0
 46
0.0
 47
0.0
 48
0.0
 49
0.0
140
0.0
141
0.0
142
1.0
143
1.0
 70
1024
 72
1
 73
0
 74
5
  7

 75
16
 76
0
 77
2
 78
300
147
1.0
148
0.0
149
0.0
100
AcDbLayout
  1
Model
 70
1
 71
0
 10
0.0
 20
0.0
 11
420.0
 21
297.0
 12
0.0
 22
0.0
 32
0.0
 14
1e+20
 24
1e+20
 34
1e+20
 15
-1e+20
 25
-1e+20
 35
-1e+20
146
0.0
 13
0.0
 23
0.0
 33
0.0
 16
1.0
 26
0.0
 36
0.0
 17
0.0
 27
1.0
 37
0.0
 76
1
330
17
  0
LAYOUT
  5
1E
330
D
100
AcDbPlotSettings
  1

  2
Adobe PDF
  4
A3
  6

 40
7.5
 41
20.0
 42
7.5
 43
20.0
 44
420.0
 45
297.0
 46
0.0
 47
0.0
 48
0.0
 49
0.0
140
0.0
141
0.0
142
1.0
143
1.0
 70
0
 72
1
 73
0
 74
5
  7

 75
16
 76
0
 77
2
 78
300
147
1.0
148
0.0
149
0.0
100
AcDbLayout
  1
Layout1
 70
1
 71
1
 10
0.0
 20
0.0
 11
420.0
 21
297.0
 12
0.0
 22
0.0
 32
0.0
 14
1e+20
 24
1e+20
 34
1e+20
 15
-1e+20
 25
-1e+20
 35
-1e+20
146
0.0
 13
0.0
 23
0.0
 33
0.0
 16
1.0
 26
0.0
 36
0.0
 17
0.0
 27
1.0
 37
0.0
 76
1
330
1B
  0
MATERIAL
  5
1F
102
{ACAD_REACTORS
330
E
102
}
330
E
100
AcDbMaterial
  1
ByBlock
  2

 70
0
 40
1.0
 71
1
 41
1.0
 91
-1023410177
 42
1.0
 72
1
  3

 73
1
 74
1
 75
1
 44
0.5
 73
0
 45
1.0
 46
1.0
 77
1
  4

 78
1
 79
1
170
1
 48
1.0
171
1
  6

172
1
173
1
174
1
140
1.0
141
1.0
175
1
  7

176
1
177
1
178
1
143
1.0
179
1
  8

270
1
271
1
272
1
145
1.0
146
1.0
273
1
  9

274
1
275
1
276
1
 42
1.0
 72
1
  3

 73
1
 74
1
 75
1
 94
63
  0
MATERIAL
  5
20
102
{ACAD_REACTORS
330
E
102
}
330
E
100
AcDbMaterial
  1
ByLayer
  2

 70
0
 40
1.0
 71
1
 41
1.0
 91
-1023410177
 42
1.0
 72
1
  3

 73
1
 74
1
 75
1
 44
0.5
 73
0
 45
1.0
 46
1.0
 77
1
  4

 78
1
 79
1
170
1
 48
1.0
171
1
  6

172
1
173
1
174
1
140
1.0
141
1.0
175
1
  7

176
1
177
1
178
1
143
1.0
179
1
  8

270
1
271
1
272
1
145
1.0
146
1.0
273
1
  9

274
1
275
1
276
1
 42
1.0
 72
1
  3

 73
1
 74
1
 75
1
 94
63
  0
MATERIAL
  5
21
102
{ACAD_REACTORS
330
E
102
}
330
E
100
AcDbMaterial
  1
Global
  2

 70
0
 40
1.0
 71
1
 41
1.0
 91
-1023410177
 42
1.0
 72
1
  3

 73
1
 74
1
 75
1
 44
0.5
 73
0
 45
1.0
 46
1.0
 77
1
  4

 78
1
 79
1
170
1
 48
1.0
171
1
  6

172
1
173
1
174
1
140
1.0
141
1.0
175
1
  7

176
1
177
1
178
1
143
1.0
179
1
  8

270
1
271
1
272
1
145
1.0
146
1.0
273
1
  9

274
1
275
1
276
1
 42
1.0
 72
1
  3

 73
1
 74
1
 75
1
 94
63
  0
MLINESTYLE
  5
22
102
{ACAD_REACTORS
330
10
102
}
330
10
100
AcDbMlineStyle
  2
Standard
 70
0
  3

 62
256
 51
90.0
 52
90.0
 71
2
 49
0.5
 62
256
  6
BYLAYER
 49
-0.5
 62
256
  6
BYLAYER
  0
MLEADERSTYLE
  5
2C
102
{ACAD_REACTORS
330
F
102
}
330
F
100
AcDbMLeaderStyle
179
2
170
2
171
1
172
0
 90
2
 40
0.0
 41
0.0
173
1
 91
-1056964608
 92
-2
290
1
 42
2.0
291
1
 43
8.0
  3
Standard
 44
4.0
300

342
29
174
1
175
1
176
0
178
1
 93
-1056964608
 45
4.0
292
0
297
0
 46
4.0
 94
-1056964608
 47
1.0
 49
1.0
140
1.0
294
1
141
0.0
177
0
142
1.0
295
0
296
0
143
3.75
271
0
272
9
273
9
  0
DICTIONARY
  5
2D
330
A
100
AcDbDictionary
281
1
  3
CREATED_BY_EZDXF
350
2E
  3
WRITTEN_BY_EZDXF
350
4D
  0
DICTIONARYVAR
  5
2E
330
2D
100
DictionaryVariables
280
0
  1
1.0.3 @ 2025-05-29T09:41:25.049548+00:00
  0
DICTIONARYVAR
  5
4D
330
2D
100
DictionaryVariables
280
0
  1
1.0.3 @ 2025-05-29T09:41:25.055908+00:00
  0
ENDSEC
  0
EOF
