  0
SECTION
  2
HEADER
  9
$ACADVER
  1
AC1027
  9
$ACADMAINTVER
 70
105
  9
$DWGCODEPAGE
  3
ANSI_1252
  9
$LASTSAVEDBY
  1
ezdxf
  9
$REQUIREDVERSIONS
160
0
  9
$INSBASE
 10
0.0
 20
0.0
 30
0.0
  9
$EXTMIN
 10
1e+20
 20
1e+20
 30
1e+20
  9
$EXTMAX
 10
-1e+20
 20
-1e+20
 30
-1e+20
  9
$LIMMIN
 10
0.0
 20
0.0
  9
$LIMMAX
 10
420.0
 20
297.0
  9
$ORTHOMODE
 70
0
  9
$REGENMODE
 70
1
  9
$FILLMODE
 70
1
  9
$QTEXTMODE
 70
0
  9
$MIRRTEXT
 70
1
  9
$LTSCALE
 40
1.0
  9
$ATTMODE
 70
1
  9
$TEXTSIZE
 40
2.5
  9
$TRACEWID
 40
1.0
  9
$TEXTSTYLE
  7
Standard
  9
$CLAYER
  8
0
  9
$CELTYPE
  6
ByLayer
  9
$CECOLOR
 62
256
  9
$CELTSCALE
 40
1.0
  9
$DISPSILH
 70
0
  9
$DIMSCALE
 40
1.0
  9
$DIMASZ
 40
2.5
  9
$DIMEXO
 40
0.625
  9
$DIMDLI
 40
3.75
  9
$DIMRND
 40
0.0
  9
$DIMDLE
 40
0.0
  9
$DIMEXE
 40
1.25
  9
$DIMTP
 40
0.0
  9
$DIMTM
 40
0.0
  9
$DIMTXT
 40
2.5
  9
$DIMCEN
 40
2.5
  9
$DIMTSZ
 40
0.0
  9
$DIMTOL
 70
0
  9
$DIMLIM
 70
0
  9
$DIMTIH
 70
0
  9
$DIMTOH
 70
0
  9
$DIMSE1
 70
0
  9
$DIMSE2
 70
0
  9
$DIMTAD
 70
1
  9
$DIMZIN
 70
8
  9
$DIMBLK
  1

  9
$DIMASO
 70
1
  9
$DIMSHO
 70
1
  9
$DIMPOST
  1

  9
$DIMAPOST
  1

  9
$DIMALT
 70
0
  9
$DIMALTD
 70
3
  9
$DIMALTF
 40
0.03937007874
  9
$DIMLFAC
 40
1.0
  9
$DIMTOFL
 70
1
  9
$DIMTVP
 40
0.0
  9
$DIMTIX
 70
0
  9
$DIMSOXD
 70
0
  9
$DIMSAH
 70
0
  9
$DIMBLK1
  1

  9
$DIMBLK2
  1

  9
$DIMSTYLE
  2
ISO-25
  9
$DIMCLRD
 70
0
  9
$DIMCLRE
 70
0
  9
$DIMCLRT
 70
0
  9
$DIMTFAC
 40
1.0
  9
$DIMGAP
 40
0.625
  9
$DIMJUST
 70
0
  9
$DIMSD1
 70
0
  9
$DIMSD2
 70
0
  9
$DIMTOLJ
 70
0
  9
$DIMTZIN
 70
8
  9
$DIMALTZ
 70
0
  9
$DIMALTTZ
 70
0
  9
$DIMUPT
 70
0
  9
$DIMDEC
 70
2
  9
$DIMTDEC
 70
2
  9
$DIMALTU
 70
2
  9
$DIMALTTD
 70
3
  9
$DIMTXSTY
  7
Standard
  9
$DIMAUNIT
 70
0
  9
$DIMADEC
 70
0
  9
$DIMALTRND
 40
0.0
  9
$DIMAZIN
 70
0
  9
$DIMDSEP
 70
44
  9
$DIMATFIT
 70
3
  9
$DIMFRAC
 70
0
  9
$DIMLDRBLK
  1

  9
$DIMLUNIT
 70
2
  9
$DIMLWD
 70
-2
  9
$DIMLWE
 70
-2
  9
$DIMTMOVE
 70
0
  9
$DIMFXL
 40
1.0
  9
$DIMFXLON
 70
0
  9
$DIMJOGANG
 40
0.785398163397
  9
$DIMTFILL
 70
0
  9
$DIMTFILLCLR
 70
0
  9
$DIMARCSYM
 70
0
  9
$DIMLTYPE
  6

  9
$DIMLTEX1
  6

  9
$DIMLTEX2
  6

  9
$DIMTXTDIRECTION
 70
0
  9
$LUNITS
 70
2
  9
$LUPREC
 70
4
  9
$SKETCHINC
 40
1.0
  9
$FILLETRAD
 40
10.0
  9
$AUNITS
 70
0
  9
$AUPREC
 70
2
  9
$MENU
  1
.
  9
$ELEVATION
 40
0.0
  9
$PELEVATION
 40
0.0
  9
$THICKNESS
 40
0.0
  9
$LIMCHECK
 70
0
  9
$CHAMFERA
 40
0.0
  9
$CHAMFERB
 40
0.0
  9
$CHAMFERC
 40
0.0
  9
$CHAMFERD
 40
0.0
  9
$SKPOLY
 70
0
  9
$TDCREATE
 40
2460825.778761574
  9
$TDUCREATE
 40
2458532.153996898
  9
$TDUPDATE
 40
2460825.778761574
  9
$TDUUPDATE
 40
2458532.1544311
  9
$TDINDWG
 40
0.0
  9
$TDUSRTIMER
 40
0.0
  9
$USRTIMER
 70
1
  9
$ANGBASE
 50
0.0
  9
$ANGDIR
 70
0
  9
$PDMODE
 70
0
  9
$PDSIZE
 40
0.0
  9
$PLINEWID
 40
0.0
  9
$SPLFRAME
 70
0
  9
$SPLINETYPE
 70
6
  9
$SPLINESEGS
 70
8
  9
$HANDSEED
  5
42
  9
$SURFTAB1
 70
6
  9
$SURFTAB2
 70
6
  9
$SURFTYPE
 70
6
  9
$SURFU
 70
6
  9
$SURFV
 70
6
  9
$UCSBASE
  2

  9
$UCSNAME
  2

  9
$UCSORG
 10
0.0
 20
0.0
 30
0.0
  9
$UCSXDIR
 10
1.0
 20
0.0
 30
0.0
  9
$UCSYDIR
 10
0.0
 20
1.0
 30
0.0
  9
$UCSORTHOREF
  2

  9
$UCSORTHOVIEW
 70
0
  9
$UCSORGTOP
 10
0.0
 20
0.0
 30
0.0
  9
$UCSORGBOTTOM
 10
0.0
 20
0.0
 30
0.0
  9
$UCSORGLEFT
 10
0.0
 20
0.0
 30
0.0
  9
$UCSORGRIGHT
 10
0.0
 20
0.0
 30
0.0
  9
$UCSORGFRONT
 10
0.0
 20
0.0
 30
0.0
  9
$UCSORGBACK
 10
0.0
 20
0.0
 30
0.0
  9
$PUCSBASE
  2

  9
$PUCSNAME
  2

  9
$PUCSORG
 10
0.0
 20
0.0
 30
0.0
  9
$PUCSXDIR
 10
1.0
 20
0.0
 30
0.0
  9
$PUCSYDIR
 10
0.0
 20
1.0
 30
0.0
  9
$PUCSORTHOREF
  2

  9
$PUCSORTHOVIEW
 70
0
  9
$PUCSORGTOP
 10
0.0
 20
0.0
 30
0.0
  9
$PUCSORGBOTTOM
 10
0.0
 20
0.0
 30
0.0
  9
$PUCSORGLEFT
 10
0.0
 20
0.0
 30
0.0
  9
$PUCSORGRIGHT
 10
0.0
 20
0.0
 30
0.0
  9
$PUCSORGFRONT
 10
0.0
 20
0.0
 30
0.0
  9
$PUCSORGBACK
 10
0.0
 20
0.0
 30
0.0
  9
$USERI1
 70
0
  9
$USERI2
 70
0
  9
$USERI3
 70
0
  9
$USERI4
 70
0
  9
$USERI5
 70
0
  9
$USERR1
 40
0.0
  9
$USERR2
 40
0.0
  9
$USERR3
 40
0.0
  9
$USERR4
 40
0.0
  9
$USERR5
 40
0.0
  9
$WORLDVIEW
 70
1
  9
$SHADEDGE
 70
3
  9
$SHADEDIF
 70
70
  9
$TILEMODE
 70
1
  9
$MAXACTVP
 70
64
  9
$PINSBASE
 10
0.0
 20
0.0
 30
0.0
  9
$PLIMCHECK
 70
0
  9
$PEXTMIN
 10
1e+20
 20
1e+20
 30
1e+20
  9
$PEXTMAX
 10
-1e+20
 20
-1e+20
 30
-1e+20
  9
$PLIMMIN
 10
0.0
 20
0.0
  9
$PLIMMAX
 10
420.0
 20
297.0
  9
$UNITMODE
 70
0
  9
$VISRETAIN
 70
1
  9
$PLINEGEN
 70
0
  9
$PSLTSCALE
 70
1
  9
$TREEDEPTH
 70
3020
  9
$CMLSTYLE
  2
Standard
  9
$CMLJUST
 70
0
  9
$CMLSCALE
 40
20.0
  9
$PROXYGRAPHICS
 70
1
  9
$MEASUREMENT
 70
1
  9
$CELWEIGHT
370
-1
  9
$ENDCAPS
280
0
  9
$JOINSTYLE
280
0
  9
$LWDISPLAY
290
0
  9
$INSUNITS
 70
6
  9
$HYPERLINKBASE
  1

  9
$STYLESHEET
  1

  9
$XEDIT
290
1
  9
$CEPSNTYPE
380
0
  9
$PSTYLEMODE
290
1
  9
$FINGERPRINTGUID
  2
{9A767BAD-B7A1-4FC1-A8FE-9D278C64DE53}
  9
$VERSIONGUID
  2
{38489926-F5E1-4E97-AB64-B39587CAB15A}
  9
$EXTNAMES
290
1
  9
$PSVPSCALE
 40
0.0
  9
$OLESTARTUP
290
0
  9
$SORTENTS
280
127
  9
$INDEXCTL
280
0
  9
$HIDETEXT
280
1
  9
$XCLIPFRAME
280
0
  9
$HALOGAP
280
0
  9
$OBSCOLOR
 70
257
  9
$OBSLTYPE
280
0
  9
$INTERSECTIONDISPLAY
280
0
  9
$INTERSECTIONCOLOR
 70
257
  9
$DIMASSOC
280
2
  9
$PROJECTNAME
  1

  9
$CAMERADISPLAY
290
0
  9
$LENSLENGTH
 40
50.0
  9
$CAMERAHEIGHT
 40
0.0
  9
$STEPSPERSEC
 40
24.0
  9
$STEPSIZE
 40
100.0
  9
$3DDWFPREC
 40
2.0
  9
$PSOLWIDTH
 40
0.005
  9
$PSOLHEIGHT
 40
0.08
  9
$LOFTANG1
 40
1.570796326795
  9
$LOFTANG2
 40
1.570796326795
  9
$LOFTMAG1
 40
0.0
  9
$LOFTMAG2
 40
0.0
  9
$LOFTPARAM
 70
7
  9
$LOFTNORMALS
280
1
  9
$LATITUDE
 40
37.795
  9
$LONGITUDE
 40
-122.394
  9
$NORTHDIRECTION
 40
0.0
  9
$TIMEZONE
 70
-8000
  9
$LIGHTGLYPHDISPLAY
280
1
  9
$TILEMODELIGHTSYNCH
280
1
  9
$CMATERIAL
347
20
  9
$SOLIDHIST
280
0
  9
$SHOWHIST
280
1
  9
$DWFFRAME
280
2
  9
$DGNFRAME
280
2
  9
$REALWORLDSCALE
290
1
  9
$INTERFERECOLOR
 62
256
  9
$CSHADOW
280
0
  9
$SHADOWPLANELOCATION
 40
0.0
  0
ENDSEC
  0
SECTION
  2
CLASSES
  0
CLASS
  1
ACDBDICTIONARYWDFLT
  2
AcDbDictionaryWithDefault
  3
ObjectDBX Classes
 90
0
 91
0
280
0
281
0
  0
CLASS
  1
SUN
  2
AcDbSun
  3
SCENEOE
 90
1153
 91
0
280
0
281
0
  0
CLASS
  1
VISUALSTYLE
  2
AcDbVisualStyle
  3
ObjectDBX Classes
 90
4095
 91
0
280
0
281
0
  0
CLASS
  1
MATERIAL
  2
AcDbMaterial
  3
ObjectDBX Classes
 90
1153
 91
0
280
0
281
0
  0
CLASS
  1
SCALE
  2
AcDbScale
  3
ObjectDBX Classes
 90
1153
 91
0
280
0
281
0
  0
CLASS
  1
TABLESTYLE
  2
AcDbTableStyle
  3
ObjectDBX Classes
 90
4095
 91
0
280
0
281
0
  0
CLASS
  1
MLEADERSTYLE
  2
AcDbMLeaderStyle
  3
ACDB_MLEADERSTYLE_CLASS
 90
4095
 91
0
280
0
281
0
  0
CLASS
  1
DICTIONARYVAR
  2
AcDbDictionaryVar
  3
ObjectDBX Classes
 90
0
 91
0
280
0
281
0
  0
CLASS
  1
CELLSTYLEMAP
  2
AcDbCellStyleMap
  3
ObjectDBX Classes
 90
1152
 91
0
280
0
281
0
  0
CLASS
  1
MENTALRAYRENDERSETTINGS
  2
AcDbMentalRayRenderSettings
  3
SCENEOE
 90
1024
 91
0
280
0
281
0
  0
CLASS
  1
ACDBDETAILVIEWSTYLE
  2
AcDbDetailViewStyle
  3
ObjectDBX Classes
 90
1025
 91
0
280
0
281
0
  0
CLASS
  1
ACDBSECTIONVIEWSTYLE
  2
AcDbSectionViewStyle
  3
ObjectDBX Classes
 90
1025
 91
0
280
0
281
0
  0
CLASS
  1
RASTERVARIABLES
  2
AcDbRasterVariables
  3
ISM
 90
0
 91
0
280
0
281
0
  0
CLASS
  1
LAYOUT
  2
AcDbLayout
  3
ObjectDBX Classes
 90
0
 91
0
280
0
281
0
  0
CLASS
  1
ACDBPLACEHOLDER
  2
AcDbPlaceHolder
  3
ObjectDBX Classes
 90
0
 91
0
280
0
281
0
  0
ENDSEC
  0
SECTION
  2
TABLES
  0
TABLE
  2
VPORT
  5
8
330
0
100
AcDbSymbolTable
 70
1
  0
VPORT
  5
23
330
8
100
AcDbSymbolTableRecord
100
AcDbViewportTableRecord
  2
*Active
 70
0
 10
0.0
 20
0.0
 11
1.0
 21
1.0
 12
0.0
 22
0.0
 13
0.0
 23
0.0
 14
0.5
 24
0.5
 15
0.5
 25
0.5
 16
0.0
 26
0.0
 36
1.0
 17
0.0
 27
0.0
 37
0.0
 40
1000.0
 41
1.34
 42
50.0
 43
0.0
 44
0.0
 50
0.0
 51
0.0
 71
0
 72
1000
 73
1
 74
3
 75
0
 76
0
 77
0
 78
0
281
0
 65
0
146
0.0
  0
ENDTAB
  0
TABLE
  2
LTYPE
  5
2
330
0
100
AcDbSymbolTable
 70
3
  0
LTYPE
  5
24
330
2
100
AcDbSymbolTableRecord
100
AcDbLinetypeTableRecord
  2
ByBlock
 70
0
  3

 72
65
 73
0
 40
0.0
  0
LTYPE
  5
25
330
2
100
AcDbSymbolTableRecord
100
AcDbLinetypeTableRecord
  2
ByLayer
 70
0
  3

 72
65
 73
0
 40
0.0
  0
LTYPE
  5
26
330
2
100
AcDbSymbolTableRecord
100
AcDbLinetypeTableRecord
  2
Continuous
 70
0
  3

 72
65
 73
0
 40
0.0
  0
ENDTAB
  0
TABLE
  2
LAYER
  5
1
330
0
100
AcDbSymbolTable
 70
2
  0
LAYER
  5
27
330
1
100
AcDbSymbolTableRecord
100
AcDbLayerTableRecord
  2
0
 70
0
 62
7
  6
Continuous
370
-3
390
13
347
21
  0
LAYER
  5
28
330
1
100
AcDbSymbolTableRecord
100
AcDbLayerTableRecord
  2
Defpoints
 70
0
 62
7
  6
Continuous
290
0
370
-3
390
13
347
21
  0
ENDTAB
  0
TABLE
  2
STYLE
  5
5
330
0
100
AcDbSymbolTable
 70
1
  0
STYLE
  5
29
330
5
100
AcDbSymbolTableRecord
100
AcDbTextStyleTableRecord
  2
Standard
 70
0
 40
0.0
 41
1.0
 50
0.0
 71
0
 42
2.5
  3
txt
  4

  0
ENDTAB
  0
TABLE
  2
VIEW
  5
7
330
0
100
AcDbSymbolTable
 70
0
  0
ENDTAB
  0
TABLE
  2
UCS
  5
6
330
0
100
AcDbSymbolTable
 70
0
  0
ENDTAB
  0
TABLE
  2
APPID
  5
3
330
0
100
AcDbSymbolTable
 70
3
  0
APPID
  5
2A
330
3
100
AcDbSymbolTableRecord
100
AcDbRegAppTableRecord
  2
ACAD
 70
0
  0
APPID
  5
3F
330
3
100
AcDbSymbolTableRecord
100
AcDbRegAppTableRecord
  2
HATCHBACKGROUNDCOLOR
 70
0
  0
APPID
  5
40
330
3
100
AcDbSymbolTableRecord
100
AcDbRegAppTableRecord
  2
EZDXF
 70
0
  0
ENDTAB
  0
TABLE
  2
DIMSTYLE
  5
4
330
0
100
AcDbSymbolTable
 70
1
100
AcDbDimStyleTable
  0
DIMSTYLE
105
2B
330
4
100
AcDbSymbolTableRecord
100
AcDbDimStyleTableRecord
  2
Standard
 70
0
 40
1.0
 41
2.5
 42
0.625
 43
3.75
 44
1.25
 45
0.0
 46
0.0
 47
0.0
 48
0.0
 49
2.5
140
2.5
141
2.5
142
0.0
143
0.03937007874
144
1.0
145
0.0
146
1.0
147
0.625
148
0.0
 69
0
 70
0
 71
0
 72
0
 73
0
 74
0
 75
0
 76
0
 77
1
 78
8
 79
3
170
0
171
3
172
1
173
0
174
0
175
0
176
0
177
0
178
0
179
2
271
2
272
2
273
2
274
3
275
0
276
0
277
2
278
44
279
0
280
0
281
0
282
0
283
0
284
8
285
0
286
0
288
0
289
3
290
0
371
-2
372
-2
  0
ENDTAB
  0
TABLE
  2
BLOCK_RECORD
  5
9
330
0
100
AcDbSymbolTable
 70
2
  0
BLOCK_RECORD
  5
17
330
9
100
AcDbSymbolTableRecord
100
AcDbBlockTableRecord
  2
*Model_Space
340
1A
 70
0
280
1
281
0
  0
BLOCK_RECORD
  5
1B
330
9
100
AcDbSymbolTableRecord
100
AcDbBlockTableRecord
  2
*Paper_Space
340
1E
 70
0
280
1
281
0
  0
ENDTAB
  0
ENDSEC
  0
SECTION
  2
BLOCKS
  0
BLOCK
  5
18
330
17
100
AcDbEntity
  8
0
100
AcDbBlockBegin
  2
*Model_Space
 70
0
 10
0.0
 20
0.0
 30
0.0
  3
*Model_Space
  1

  0
ENDBLK
  5
19
330
17
100
AcDbEntity
  8
0
100
AcDbBlockEnd
  0
BLOCK
  5
1C
330
1B
100
AcDbEntity
  8
0
100
AcDbBlockBegin
  2
*Paper_Space
 70
0
 10
0.0
 20
0.0
 30
0.0
  3
*Paper_Space
  1

  0
ENDBLK
  5
1D
330
1B
100
AcDbEntity
  8
0
100
AcDbBlockEnd
  0
ENDSEC
  0
SECTION
  2
ENTITIES
  0
LWPOLYLINE
  5
2F
330
17
100
AcDbEntity
  8
0
100
AcDbPolyline
 90
51
 70
0
 10
-3.5
 20
35.0
 10
-3.4724014546006727
 20
34.56133368252493
 10
-3.390041063950209
 20
34.12958539492301
 10
-3.25421770060888
 20
33.711564065603625
 10
-3.067073380153523
 20
33.313862140644
 10
-2.831559480312316
 20
32.942751616976345
 10
-2.5513901959749403
 20
32.60408512924959
 10
-2.2309839641204134
 20
32.303203650284736
 10
-1.87539378242649
 20
32.04485226074295
 10
-1.4902275204777553
 20
31.833105316368933
 10
-1.0815594803123165
 20
31.671302192966962
 10
-0.6558346010500362
 20
31.56199462244959
 10
-0.21976681835259623
 20
31.50690645050105
 10
0.21976681835259493
 20
31.50690645050105
 10
0.6558346010500349
 20
31.56199462244959
 10
1.0815594803123152
 20
31.671302192966962
 10
1.4902275204777542
 20
31.833105316368933
 10
1.8753937824264888
 20
32.04485226074295
 10
2.2309839641204126
 20
32.303203650284736
 10
2.5513901959749394
 20
32.60408512924959
 10
2.8315594803123156
 20
32.942751616976345
 10
3.0670733801535226
 20
33.313862140644
 10
3.25421770060888
 20
33.711564065603625
 10
3.3900410639502083
 20
34.129585394923005
 10
3.4724014546006723
 20
34.56133368252493
 10
3.5
 20
35.0
 10
3.4724014546006727
 20
35.43866631747507
 10
3.3900410639502088
 20
35.870414605076995
 10
3.254217700608881
 20
36.28843593439637
 10
3.0670733801535217
 20
36.686137859356
 10
2.8315594803123165
 20
37.057248383023655
 10
2.5513901959749425
 20
37.39591487075041
 10
2.230983964120414
 20
37.696796349715264
 10
1.8753937824264875
 20
37.95514773925705
 10
1.4902275204777529
 20
38.16689468363107
 10
1.081559480312317
 20
38.32869780703304
 10
0.6558346010500365
 20
38.43800537755041
 10
0.21976681835259662
 20
38.49309354949895
 10
-0.21976681835259448
 20
38.49309354949895
 10
-0.6558346010500375
 20
38.43800537755041
 10
-1.081559480312315
 20
38.32869780703304
 10
-1.490227520477751
 20
38.16689468363107
 10
-1.8753937824264884
 20
37.95514773925705
 10
-2.230983964120412
 20
37.696796349715264
 10
-2.551390195974941
 20
37.39591487075041
 10
-2.831559480312315
 20
37.057248383023655
 10
-3.067073380153521
 20
36.68613785935601
 10
-3.25421770060888
 20
36.288435934396375
 10
-3.3900410639502083
 20
35.870414605076995
 10
-3.4724014546006727
 20
35.43866631747506
 10
-3.5
 20
35.0
  0
LWPOLYLINE
  5
30
330
17
100
AcDbEntity
  8
0
100
AcDbPolyline
 90
51
 70
0
 10
-9.238795325113
 20
38.82683432365
 10
-9.31915884590969
 20
38.63281962182258
 10
-9.39952236670638
 20
38.43880491999516
 10
-9.479885887503071
 20
38.244790218167736
 10
-9.560249408299763
 20
38.050775516340316
 10
-9.640612929096452
 20
37.856760814512896
 10
-9.720976449893143
 20
37.662746112685475
 10
-9.801339970689835
 20
37.468731410858055
 10
-9.881703491486524
 20
37.274716709030635
 10
-9.962067012283216
 20
37.080702007203215
 10
-10.042430533079905
 20
36.886687305375794
 10
-10.122794053876596
 20
36.692672603548374
 10
-10.203157574673288
 20
36.498657901720954
 10
-10.283521095469979
 20
36.30464319989353
 10
-10.363884616266668
 20
36.11062849806611
 10
-10.44424813706336
 20
35.91661379623869
 10
-10.52461165786005
 20
35.72259909441127
 10
-10.60497517865674
 20
35.52858439258385
 10
-10.685338699453432
 20
35.33456969075643
 10
-10.765702220250121
 20
35.14055498892901
 10
-10.846065741046813
 20
34.94654028710159
 10
-10.926429261843504
 20
34.75252558527417
 10
-11.006792782640193
 20
34.55851088344675
 10
-11.087156303436885
 20
34.36449618161933
 10
-11.167519824233576
 20
34.17048147979191
 10
-11.247883345030267
 20
33.97646677796449
 10
-11.328246865826957
 20
33.78245207613707
 10
-11.408610386623648
 20
33.58843737430965
 10
-11.488973907420338
 20
33.39442267248223
 10
-11.569337428217029
 20
33.20040797065481
 10
-11.64970094901372
 20
33.00639326882739
 10
-11.73006446981041
 20
32.81237856699997
 10
-11.810427990607101
 20
32.61836386517255
 10
-11.89079151140379
 20
32.42434916334513
 10
-11.971155032200482
 20
32.23033446151771
 10
-12.051518552997173
 20
32.036319759690286
 10
-12.131882073793864
 20
31.842305057862866
 10
-12.212245594590554
 20
31.648290356035446
 10
-12.292609115387245
 20
31.454275654208026
 10
-12.372972636183935
 20
31.260260952380605
 10
-12.453336156980626
 20
31.066246250553185
 10
-12.533699677777317
 20
30.87223154872576
 10
-12.614063198574009
 20
30.678216846898344
 10
-12.694426719370698
 20
30.484202145070924
 10
-12.774790240167388
 20
30.290187443243504
 10
-12.855153760964079
 20
30.096172741416083
 10
-12.93551728176077
 20
29.902158039588663
 10
-13.015880802557461
 20
29.708143337761243
 10
-13.096244323354151
 20
29.514128635933822
 10
-13.176607844150842
 20
29.320113934106402
 10
-13.256971364947534
 20
29.12609923227898
  0
LWPOLYLINE
  5
31
330
17
100
AcDbEntity
  8
0
100
AcDbPolyline
 90
51
 70
0
 10
9.238795325113
 20
38.82683432365
 10
9.31915884590969
 20
38.63281962182258
 10
9.39952236670638
 20
38.43880491999516
 10
9.479885887503071
 20
38.244790218167736
 10
9.560249408299763
 20
38.050775516340316
 10
9.640612929096452
 20
37.856760814512896
 10
9.720976449893143
 20
37.662746112685475
 10
9.801339970689835
 20
37.468731410858055
 10
9.881703491486524
 20
37.274716709030635
 10
9.962067012283216
 20
37.080702007203215
 10
10.042430533079905
 20
36.886687305375794
 10
10.122794053876596
 20
36.692672603548374
 10
10.203157574673288
 20
36.498657901720954
 10
10.283521095469979
 20
36.30464319989353
 10
10.363884616266668
 20
36.11062849806611
 10
10.44424813706336
 20
35.91661379623869
 10
10.52461165786005
 20
35.72259909441127
 10
10.60497517865674
 20
35.52858439258385
 10
10.685338699453432
 20
35.33456969075643
 10
10.765702220250121
 20
35.14055498892901
 10
10.846065741046813
 20
34.94654028710159
 10
10.926429261843504
 20
34.75252558527417
 10
11.006792782640193
 20
34.55851088344675
 10
11.087156303436885
 20
34.36449618161933
 10
11.167519824233576
 20
34.17048147979191
 10
11.247883345030267
 20
33.97646677796449
 10
11.328246865826957
 20
33.78245207613707
 10
11.408610386623648
 20
33.58843737430965
 10
11.488973907420338
 20
33.39442267248223
 10
11.569337428217029
 20
33.20040797065481
 10
11.64970094901372
 20
33.00639326882739
 10
11.73006446981041
 20
32.81237856699997
 10
11.810427990607101
 20
32.61836386517255
 10
11.89079151140379
 20
32.42434916334513
 10
11.971155032200482
 20
32.23033446151771
 10
12.051518552997173
 20
32.036319759690286
 10
12.131882073793864
 20
31.842305057862866
 10
12.212245594590554
 20
31.648290356035446
 10
12.292609115387245
 20
31.454275654208026
 10
12.372972636183935
 20
31.260260952380605
 10
12.453336156980626
 20
31.066246250553185
 10
12.533699677777317
 20
30.87223154872576
 10
12.614063198574009
 20
30.678216846898344
 10
12.694426719370698
 20
30.484202145070924
 10
12.774790240167388
 20
30.290187443243504
 10
12.855153760964079
 20
30.096172741416083
 10
12.93551728176077
 20
29.902158039588663
 10
13.015880802557461
 20
29.708143337761243
 10
13.096244323354151
 20
29.514128635933822
 10
13.176607844150842
 20
29.320113934106402
 10
13.256971364947534
 20
29.12609923227898
  0
LWPOLYLINE
  5
32
330
17
100
AcDbEntity
  8
0
100
AcDbPolyline
 90
51
 70
0
 10
9.23879532511285
 20
38.82683432365094
 10
9.04827052466017
 20
39.25779291565078
 10
8.837656300886898
 20
39.6792981426058
 10
8.60742027003939
 20
40.090414157503794
 10
8.358073613682642
 20
40.490228179981415
 10
8.0901699437494
 20
40.87785252292484
 10
7.804304073383207
 20
41.25242656335716
 10
7.50111069630449
 20
41.61311865323664
 10
7.181262977631763
 20
41.95912796592327
 10
6.845471059286744
 20
42.28968627421425
 10
6.494480483301676
 20
42.60405965600045
 10
6.129070536529585
 20
42.90155012375705
 10
5.750052520432586
 20
43.18149717425038
 10
5.358267949789744
 20
43.44327925502029
 10
4.954586684323833
 20
43.68631514438205
 10
4.539904997395205
 20
43.910065241883814
 10
4.115143586050802
 20
44.11403276635458
 10
3.6812455268464728
 20
44.29776485888264
 10
3.239174181981167
 20
44.46085358827557
 10
2.7899110603919444
 20
44.60293685676953
 10
2.3344536385586854
 20
44.72369920397686
 10
1.8738131458568579
 20
44.82287250728696
 10
1.4090123193754178
 20
44.900236577165636
 10
0.9410831331847174
 20
44.95561964603084
 10
0.47106450709598136
 20
44.98889874961972
 10
-4.631850458736153e-13
 20
45.0
 10
-0.47106450709690684
 20
44.98889874961968
 10
-0.9410831331856389
 20
44.955619646030755
 10
-1.4090123193763344
 20
44.90023657716551
 10
-1.8738131458577674
 20
44.82287250728679
 10
-2.3344536385595847
 20
44.723699203976636
 10
-2.7899110603928348
 20
44.602936856769276
 10
-3.239174181982043
 20
44.46085358827527
 10
-3.6812455268473325
 20
44.297764858882296
 10
-4.115143586051649
 20
44.1140327663542
 10
-4.539904997396029
 20
43.910065241883395
 10
-4.954586684324637
 20
43.686315144381595
 10
-5.358267949790525
 20
43.443279255019796
 10
-5.750052520433344
 20
43.18149717424984
 10
-6.129070536530316
 20
42.90155012375648
 10
-6.494480483302381
 20
42.60405965599985
 10
-6.845471059287419
 20
42.289686274213615
 10
-7.181262977632408
 20
41.959127965922605
 10
-7.501110696305102
 20
41.613118653235944
 10
-7.804304073383786
 20
41.252426563356444
 10
-8.090169943749942
 20
40.87785252292409
 10
-8.35807361368315
 20
40.49022817998064
 10
-8.60742027003986
 20
40.090414157503
 10
-8.83765630088733
 20
39.67929814260499
 10
-9.048270524660563
 20
39.25779291564995
 10
-9.238795325113205
 20
38.82683432365008
  0
LWPOLYLINE
  5
33
330
17
100
AcDbEntity
  8
0
100
AcDbPolyline
 90
51
 70
0
 10
-15.42123538185
 20
23.90110369012
 10
-15.297586580715281
 20
24.199618302790608
 10
-15.173937779580562
 20
24.498132915461216
 10
-15.050288978445842
 20
24.796647528131825
 10
-14.926640177311123
 20
25.095162140802433
 10
-14.802991376176404
 20
25.39367675347304
 10
-14.679342575041685
 20
25.69219136614365
 10
-14.555693773906967
 20
25.990705978814262
 10
-14.432044972772248
 20
26.28922059148487
 10
-14.308396171637527
 20
26.58773520415548
 10
-14.184747370502809
 20
26.886249816826087
 10
-14.06109856936809
 20
27.184764429496695
 10
-13.937449768233371
 20
27.483279042167304
 10
-13.813800967098652
 20
27.781793654837912
 10
-13.690152165963934
 20
28.08030826750852
 10
-13.566503364829213
 20
28.37882288017913
 10
-13.442854563694494
 20
28.677337492849738
 10
-13.319205762559776
 20
28.975852105520346
 10
-13.195556961425057
 20
29.274366718190954
 10
-13.071908160290338
 20
29.572881330861563
 10
-12.948259359155617
 20
29.87139594353217
 10
-12.824610558020899
 20
30.16991055620278
 10
-12.70096175688618
 20
30.468425168873388
 10
-12.577312955751461
 20
30.766939781544
 10
-12.453664154616742
 20
31.065454394214605
 10
-12.330015353482024
 20
31.363969006885217
 10
-12.206366552347303
 20
31.662483619555825
 10
-12.082717751212584
 20
31.960998232226434
 10
-11.959068950077866
 20
32.259512844897046
 10
-11.835420148943147
 20
32.55802745756765
 10
-11.711771347808428
 20
32.85654207023826
 10
-11.588122546673707
 20
33.15505668290887
 10
-11.464473745538989
 20
33.45357129557948
 10
-11.34082494440427
 20
33.75208590825009
 10
-11.217176143269551
 20
34.050600520920696
 10
-11.093527342134832
 20
34.349115133591305
 10
-10.969878541000114
 20
34.64762974626191
 10
-10.846229739865395
 20
34.946144358932514
 10
-10.722580938730676
 20
35.24465897160313
 10
-10.598932137595956
 20
35.54317358427374
 10
-10.475283336461235
 20
35.84168819694435
 10
-10.351634535326518
 20
36.140202809614955
 10
-10.227985734191797
 20
36.43871742228556
 10
-10.104336933057079
 20
36.73723203495617
 10
-9.98068813192236
 20
37.03574664762678
 10
-9.857039330787641
 20
37.33426126029739
 10
-9.733390529652922
 20
37.632775872968
 10
-9.609741728518204
 20
37.931290485638606
 10
-9.486092927383485
 20
38.229805098309214
 10
-9.362444126248764
 20
38.52831971097982
 10
-9.238795325114047
 20
38.82683432365043
  0
LWPOLYLINE
  5
34
330
17
100
AcDbEntity
  8
0
100
AcDbPolyline
 90
51
 70
0
 10
-9.320420340454321
 20
23.8923555747744
 10
-9.006642814035047
 20
23.636444868774962
 10
-8.685842178475589
 20
23.389395121243062
 10
-8.358268584461648
 20
23.151398974140385
 10
-8.024177464028186
 20
22.922642009703356
 10
-7.683829331381227
 20
22.70330260573167
 10
-7.337489579756687
 20
22.493551796494657
 10
-6.985428274474744
 20
22.293553139363908
 10
-6.627919942350999
 20
22.103462587276148
 10
-6.2652433576287425
 20
21.923428367125847
 10
-5.8976813245991675
 20
21.753590864182314
 10
-5.525520457079107
 20
21.59408251262151
 10
-5.149050954918188
 20
21.445027692257867
 10
-4.768566377709728
 20
21.306542631556617
 10
-4.384363415881788
 20
21.178735317002378
 10
-3.9967416593469034
 20
21.061705408894493
 10
-3.606003363890883
 20
20.955544163634972
 10
-3.2124532154828387
 20
20.86033436256946
 10
-2.8163980926902283
 20
20.776150247436846
 10
-2.418146827384195
 20
20.703057462477798
 10
-2.0180099639217337
 20
20.641113003247337
 10
-1.6162995169925791
 20
20.59036517217145
 10
-1.2133287283195102
 20
20.550853540882265
 10
-0.8094118224018825
 20
20.52260891936133
 10
-0.40486376149282943
 20
20.505653331914893
 10
-1.1528555887707626e-12
 20
20.5
 10
0.40486376149052195
 20
20.505653331914825
 10
0.8094118223995803
 20
20.5226089193612
 10
1.213328728317209
 20
20.550853540882073
 10
1.6162995169902858
 20
20.59036517217119
 10
2.0180099639194475
 20
20.64111300324702
 10
2.4181468273819196
 20
20.703057462477414
 10
2.816398092687966
 20
20.776150247436398
 10
3.212453215480587
 20
20.86033436256895
 10
3.6060033638886484
 20
20.9555441636344
 10
3.9967416593446874
 20
21.06170540889386
 10
4.384363415879592
 20
21.178735317001678
 10
4.768566377707551
 20
21.30654263155586
 10
5.1490509549160315
 20
21.445027692257046
 10
5.525520457076974
 20
21.59408251262063
 10
5.897681324597062
 20
21.753590864181376
 10
6.265243357626664
 20
21.923428367124853
 10
6.627919942348949
 20
22.103462587275096
 10
6.985428274472723
 20
22.293553139362793
 10
7.337489579754697
 20
22.493551796493488
 10
7.68382933137927
 20
22.703302605730446
 10
8.024177464026264
 20
22.922642009702077
 10
8.358268584459763
 20
23.151398974139056
 10
8.685842178473742
 20
23.389395121241677
 10
9.006642814033238
 20
23.63644486877353
 10
9.320420340452554
 20
23.892355574772914
  0
LWPOLYLINE
  5
35
330
17
100
AcDbEntity
  8
0
100
AcDbPolyline
 90
51
 70
0
 10
-4.820907072649231
 20
29.254666676606522
 10
-4.99369760343917
 20
29.390639416435793
 10
-5.17468497056254
 20
29.51549423792498
 10
-5.36315489956657
 20
29.62873839613441
 10
-5.558363585745202
 20
29.729924968107966
 10
-5.759540629596451
 20
29.818654616673815
 10
-5.965892077237288
 20
29.89457716644579
 10
-6.176603553776883
 20
29.957392985805647
 10
-6.3908434772822496
 20
30.0068541694122
 10
-6.607766340652225
 20
30.042765516570416
 10
-6.826516048447716
 20
30.064985301599396
 10
-7.046229295509289
 20
30.073425833158883
 10
-7.266038974028228
 20
30.068053800326926
 10
-7.485077595624907
 20
30.04889040406286
 10
-7.702480714929113
 20
30.016011273536822
 10
-7.917390341150987
 20
29.96954616765595
 10
-8.128958324178704
 20
29.909678462965267
 10
-8.336349701839469
 20
29.836644429944236
 10
-8.53874599511376
 20
29.750732300555114
 10
-8.7353484382981
 20
29.652281130723086
 10
-8.925381131368349
 20
29.54167946223741
 10
-9.108094102102639
 20
29.419363789354506
 10
-9.282766265879097
 20
29.28581683615453
 10
-9.44870827146742
 20
29.141565651449962
 10
-9.605265221583242
 20
28.987179528764734
 10
-9.751819257468522
 20
28.82326775959277
 10
-9.887791997297791
 20
28.65047722880283
 10
-10.01264681878698
 20
28.46948986167946
 10
-10.12589097699641
 20
28.28101993267543
 10
-10.227077548969966
 20
28.0858112464968
 10
-10.315807197535813
 20
27.88463420264555
 10
-10.391729747307785
 20
27.678282755004712
 10
-10.454545566667647
 20
27.46757127846512
 10
-10.5040067502742
 20
27.253331354959748
 10
-10.539918097432416
 20
27.036408491589775
 10
-10.562137882461396
 20
26.817658783794286
 10
-10.570578414020883
 20
26.597945536732713
 10
-10.565206381188926
 20
26.37813585821377
 10
-10.54604298492486
 20
26.159097236617093
 10
-10.513163854398822
 20
25.94169411731289
 10
-10.466698748517949
 20
25.726784491091014
 10
-10.406831043827268
 20
25.515216508063297
 10
-10.333797010806236
 20
25.307825130402534
 10
-10.247884881417114
 20
25.10542883712824
 10
-10.149433711585084
 20
24.9088263939439
 10
-10.038832043099408
 20
24.718793700873654
 10
-9.916516370216506
 20
24.536080730139364
 10
-9.782969417016531
 20
24.361408566362904
 10
-9.638718232311962
 20
24.19546656077458
 10
-9.484332109626733
 20
24.038909610658756
 10
-9.320420340454769
 20
23.89235557477348
  0
LWPOLYLINE
  5
36
330
17
100
AcDbEntity
  8
0
100
AcDbPolyline
 90
51
 70
0
 10
-4.8209070726487875
 20
29.25466667660745
 10
-4.658608352087046
 20
29.12229907005598
 10
-4.492676988866588
 20
28.994514717884268
 10
-4.323242371273119
 20
28.8714132624863
 10
-4.150436619324726
 20
28.753090694674015
 10
-3.974394481748656
 20
28.639639278826564
 10
-3.7952532309083207
 20
28.53114748094533
 10
-3.613152555762431
 20
28.427699899670785
 10
-3.4282344529397464
 20
28.32937720031503
 10
-3.2406431160143803
 20
28.236256051961412
 10
-3.050524823067988
 20
28.148409067680262
 10
-2.858027822626515
 20
28.065904747907428
 10
-2.663302218060459
 20
27.988807427029677
 10
-2.466499850538779
 20
27.917177223218687
 10
-2.267774180627711
 20
27.8510699915527
 10
-2.0672801686268443
 20
27.790537280462424
 10
-1.865174153735735
 20
27.73562629153509
 10
-1.6616137321453013
 20
27.686379842708114
 10
-1.4567576341490605
 20
27.64283633488092
 10
-1.2507656003700132
 20
27.605029721971086
 10
-1.043798257199711
 20
27.57298948443811
 10
-0.8360169915466353
 20
27.546740606295437
 10
-0.6275838249915355
 20
27.526303555628648
 10
-0.4186612874478737
 20
27.511694268635093
 10
-0.20941229042588771
 20
27.50292413719732
 10
9.015010959956271e-13
 20
27.5
 10
0.20941229042769027
 20
27.50292413719737
 10
0.4186612874496731
 20
27.511694268635196
 10
0.6275838249933319
 20
27.5263035556288
 10
0.8360169915484268
 20
27.546740606295636
 10
1.0437982572014959
 20
27.572989484438363
 10
1.2507656003717895
 20
27.605029721971384
 10
1.4567576341508288
 20
27.642836334881267
 10
1.6616137321470594
 20
27.686379842708515
 10
1.865174153737481
 20
27.73562629153554
 10
2.067280168628578
 20
27.790537280462917
 10
2.2677741806294307
 20
27.851069991553246
 10
2.4664998505404805
 20
27.917177223219277
 10
2.6633022180621433
 20
27.988807427030316
 10
2.8580278226281814
 20
28.065904747908114
 10
3.050524823069635
 20
28.148409067680998
 10
3.240643116016007
 20
28.236256051962194
 10
3.4282344529413487
 20
28.329377200315854
 10
3.6131525557640103
 20
28.42769989967165
 10
3.7952532309098768
 20
28.53114748094624
 10
3.974394481750184
 20
28.639639278827524
 10
4.150436619326226
 20
28.753090694675013
 10
4.323242371274592
 20
28.87141326248734
 10
4.492676988868032
 20
28.99451471788535
 10
4.658608352088458
 20
29.122299070057096
 10
4.820907072650169
 20
29.254666676608608
  0
LWPOLYLINE
  5
37
330
17
100
AcDbEntity
  8
0
100
AcDbPolyline
 90
51
 70
0
 10
9.320420340454769
 20
23.89235557477348
 10
9.484332109626731
 20
24.038909610658756
 10
9.638718232311962
 20
24.195466560774577
 10
9.782969417016531
 20
24.361408566362904
 10
9.916516370216506
 20
24.53608073013936
 10
10.038832043099408
 20
24.71879370087365
 10
10.149433711585083
 20
24.9088263939439
 10
10.247884881417114
 20
25.10542883712824
 10
10.333797010806236
 20
25.307825130402534
 10
10.406831043827268
 20
25.515216508063297
 10
10.466698748517949
 20
25.726784491091014
 10
10.513163854398822
 20
25.94169411731289
 10
10.54604298492486
 20
26.159097236617093
 10
10.565206381188926
 20
26.378135858213774
 10
10.570578414020883
 20
26.597945536732713
 10
10.562137882461396
 20
26.817658783794283
 10
10.539918097432416
 20
27.036408491589775
 10
10.5040067502742
 20
27.25333135495975
 10
10.454545566667647
 20
27.46757127846512
 10
10.391729747307787
 20
27.678282755004712
 10
10.315807197535813
 20
27.88463420264555
 10
10.227077548969966
 20
28.0858112464968
 10
10.12589097699641
 20
28.281019932675427
 10
10.01264681878698
 20
28.46948986167946
 10
9.887791997297793
 20
28.65047722880283
 10
9.751819257468522
 20
28.82326775959277
 10
9.605265221583243
 20
28.987179528764734
 10
9.44870827146742
 20
29.141565651449962
 10
9.282766265879097
 20
29.28581683615453
 10
9.108094102102639
 20
29.419363789354506
 10
8.925381131368349
 20
29.541679462237408
 10
8.7353484382981
 20
29.652281130723082
 10
8.53874599511376
 20
29.750732300555114
 10
8.336349701839467
 20
29.836644429944236
 10
8.128958324178702
 20
29.909678462965267
 10
7.917390341150988
 20
29.96954616765595
 10
7.702480714929113
 20
30.016011273536822
 10
7.485077595624906
 20
30.04889040406286
 10
7.266038974028229
 20
30.068053800326926
 10
7.04622929550929
 20
30.073425833158883
 10
6.826516048447717
 20
30.064985301599396
 10
6.607766340652226
 20
30.042765516570416
 10
6.3908434772822496
 20
30.0068541694122
 10
6.176603553776884
 20
29.957392985805647
 10
5.965892077237289
 20
29.89457716644579
 10
5.759540629596452
 20
29.818654616673815
 10
5.558363585745203
 20
29.729924968107966
 10
5.36315489956657
 20
29.62873839613441
 10
5.1746849705625415
 20
29.51549423792498
 10
4.99369760343917
 20
29.390639416435793
 10
4.820907072649231
 20
29.254666676606526
  0
LWPOLYLINE
  5
38
330
17
100
AcDbEntity
  8
0
100
AcDbPolyline
 90
51
 70
0
 10
-15.421235381850662
 20
23.90110369011597
 10
-14.989865379767885
 20
23.32507233870649
 10
-14.536990850519402
 20
22.76578989015166
 10
-14.063261489907683
 20
22.224058693525567
 10
-13.569356912168509
 20
21.700655918798674
 10
-13.055985674993371
 20
21.196332441906318
 10
-12.523884263029474
 20
20.7118117675388
 10
-11.973816031315621
 20
20.247788991198334
 10
-11.406570110169667
 20
19.80492980201197
 10
-10.822960273098708
 20
19.38386952773104
 10
-10.223823769355988
 20
18.98521222328714
 10
-9.610020122819424
 20
18.609529804212272
 10
-8.982429898914859
 20
18.257361226166275
 10
-8.341953441352988
 20
17.929211711748657
 10
-7.689509580492295
 20
17.62555202570403
 10
-7.026034315180981
 20
17.346817799560913
 10
-6.352479469968836
 20
17.093408906672813
 10
-5.669811329615573
 20
16.86568888855816
 10
-4.9790092528543965
 20
16.663984433362018
 10
-4.281064267399669
 20
16.488584907187843
 10
-3.5769776482141484
 20
16.33974193897157
 10
-2.8677594810755043
 20
16.217669059493666
 10
-2.154427213502796
 20
16.12254139504688
 10
-1.4380041951217546
 20
16.054495416199327
 10
-0.7195182095628923
 20
16.013628742013193
 10
1.4406253967536031e-12
 20
15.999999999999996
 10
0.71951820956577
 20
16.013628742013303
 10
1.438004195124627
 20
16.054495416199543
 10
2.154427213505657
 20
16.122541395047207
 10
2.8677594810783518
 20
16.2176690594941
 10
3.576977648216979
 20
16.339741938972114
 10
4.281064267402479
 20
16.48858490718849
 10
4.979009252857178
 20
16.663984433362774
 10
5.669811329618322
 20
16.865688888559017
 10
6.352479469971551
 20
17.093408906673776
 10
7.026034315183658
 20
17.34681779956198
 10
7.689509580494927
 20
17.625552025705197
 10
8.341953441355574
 20
17.92921171174992
 10
8.9824298989174
 20
18.257361226167635
 10
9.610020122821911
 20
18.609529804213732
 10
10.223823769358416
 20
18.985212223288695
 10
10.822960273101073
 20
19.383869527732678
 10
11.406570110171971
 20
19.804929802013696
 10
11.97381603131786
 20
20.24778899120015
 10
12.523884263031645
 20
20.7118117675407
 10
13.055985674995465
 20
21.196332441908304
 10
13.569356912170525
 20
21.700655918800727
 10
14.063261489909621
 20
22.224058693527702
 10
14.536990850521256
 20
22.76578989015386
 10
14.989865379769657
 20
23.325072338708768
 10
15.421235381852345
 20
23.90110369011831
  0
LWPOLYLINE
  5
39
330
17
100
AcDbEntity
  8
0
100
AcDbPolyline
 90
51
 70
0
 10
9.238795325113
 20
38.82683432365
 10
9.362444126247718
 20
38.52831971097939
 10
9.486092927382437
 20
38.22980509830878
 10
9.609741728517157
 20
37.93129048563817
 10
9.733390529651876
 20
37.632775872967564
 10
9.857039330786595
 20
37.334261260296955
 10
9.980688131921314
 20
37.03574664762635
 10
10.104336933056032
 20
36.73723203495574
 10
10.227985734190751
 20
36.43871742228513
 10
10.351634535325472
 20
36.14020280961452
 10
10.47528333646019
 20
35.84168819694391
 10
10.59893213759491
 20
35.543173584273305
 10
10.722580938729628
 20
35.244658971602696
 10
10.846229739864347
 20
34.94614435893209
 10
10.969878540999066
 20
34.64762974626147
 10
11.093527342133786
 20
34.34911513359087
 10
11.217176143268505
 20
34.050600520920256
 10
11.340824944403224
 20
33.752085908249654
 10
11.464473745537942
 20
33.45357129557904
 10
11.588122546672661
 20
33.15505668290843
 10
11.711771347807382
 20
32.85654207023782
 10
11.8354201489421
 20
32.55802745756721
 10
11.95906895007682
 20
32.259512844896605
 10
12.082717751211538
 20
31.960998232225997
 10
12.206366552346257
 20
31.66248361955539
 10
12.330015353480976
 20
31.36396900688478
 10
12.453664154615696
 20
31.06545439421417
 10
12.577312955750415
 20
30.766939781543563
 10
12.700961756885134
 20
30.468425168872955
 10
12.824610558019852
 20
30.169910556202346
 10
12.948259359154571
 20
29.871395943531738
 10
13.071908160289292
 20
29.57288133086113
 10
13.19555696142401
 20
29.27436671819052
 10
13.31920576255873
 20
28.975852105519913
 10
13.442854563693448
 20
28.677337492849304
 10
13.566503364828167
 20
28.378822880178696
 10
13.690152165962886
 20
28.080308267508087
 10
13.813800967097604
 20
27.78179365483748
 10
13.937449768232323
 20
27.48327904216687
 10
14.061098569367044
 20
27.18476442949626
 10
14.184747370501764
 20
26.88624981682565
 10
14.308396171636481
 20
26.587735204155045
 10
14.432044972771202
 20
26.289220591484433
 10
14.55569377390592
 20
25.99070597881382
 10
14.67934257504064
 20
25.69219136614322
 10
14.802991376175358
 20
25.393676753472608
 10
14.926640177310077
 20
25.095162140801996
 10
15.050288978444796
 20
24.79664752813139
 10
15.173937779579514
 20
24.498132915460783
 10
15.297586580714235
 20
24.19961830279017
 10
15.421235381848952
 20
23.901103690119562
  0
LWPOLYLINE
  5
3A
330
17
100
AcDbEntity
  8
0
100
AcDbPolyline
 90
51
 70
0
 10
10.0
 20
18.8445055785965
 10
10.0
 20
18.84227111329259
 10
10.0
 20
18.83568412256896
 10
10.0
 20
18.824919214207753
 10
10.0
 20
18.810150995991123
 10
10.0
 20
18.791554075701217
 10
10.0
 20
18.76930306112018
 10
10.0
 20
18.74357256003016
 10
10.0
 20
18.714537180213306
 10
10.0
 20
18.682371529451764
 10
10.0
 20
18.647250215527684
 10
10.0
 20
18.609347846223216
 10
10.0
 20
18.567967709351098
 10
10.0
 20
18.522090001859052
 10
10.0
 20
18.47207960643081
 10
10.0
 20
18.41831515540701
 10
10.0
 20
18.36117528112831
 10
10.0
 20
18.301038615935344
 10
10.0
 20
18.238283792168765
 10
10.0
 20
18.173289442169214
 10
10.0
 20
18.106434198277334
 10
10.0
 20
18.038096692833776
 10
10.0
 20
17.968655558179186
 10
10.0
 20
17.898489426654205
 10
10.0
 20
17.82670638554915
 10
10.0
 20
17.75113659605169
 10
10.0
 20
17.67213029104989
 10
10.0
 20
17.590112263444855
 10
10.0
 20
17.505507306137684
 10
10.0
 20
17.418740212029483
 10
10.0
 20
17.33023577402135
 10
10.0
 20
17.240418785014388
 10
10.0
 20
17.1497140379097
 10
10.0
 20
17.058546325608386
 10
10.0
 20
16.96734044101155
 10
10.0
 20
16.876521177020294
 10
10.0
 20
16.78651332653572
 10
10.0
 20
16.696606820091766
 10
10.0
 20
16.60380536976651
 10
10.0
 20
16.508309492885587
 10
10.0
 20
16.410552963446253
 10
10.0
 20
16.31096955544575
 10
10.0
 20
16.20999304288133
 10
10.0
 20
16.108057199750235
 10
10.0
 20
16.00559580004972
 10
10.0
 20
15.903042617777022
 10
10.0
 20
15.800831426929403
 10
10.0
 20
15.699396001504102
 10
10.0
 20
15.599170115498367
 10
10.0
 20
15.500587542909452
 10
10.0
 20
15.4040820577346
  0
LWPOLYLINE
  5
3B
330
17
100
AcDbEntity
  8
0
100
AcDbPolyline
 90
51
 70
0
 10
-10.0
 20
15.4040820577346
 10
-10.0
 20
15.500587542909452
 10
-10.0
 20
15.599170115498369
 10
-10.0
 20
15.699396001504102
 10
-10.0
 20
15.800831426929403
 10
-10.0
 20
15.903042617777023
 10
-10.0
 20
16.005595800049715
 10
-10.0
 20
16.108057199750235
 10
-10.0
 20
16.20999304288133
 10
-10.0
 20
16.31096955544575
 10
-10.0
 20
16.410552963446253
 10
-10.0
 20
16.50830949288559
 10
-10.0
 20
16.60380536976651
 10
-10.0
 20
16.696606820091766
 10
-10.0
 20
16.786513326535722
 10
-10.0
 20
16.876521177020297
 10
-10.0
 20
16.967340441011554
 10
-10.0
 20
17.05854632560839
 10
-10.0
 20
17.149714037909703
 10
-10.0
 20
17.24041878501439
 10
-10.0
 20
17.330235774021357
 10
-10.0
 20
17.41874021202949
 10
-10.0
 20
17.50550730613769
 10
-10.0
 20
17.590112263444862
 10
-10.0
 20
17.6721302910499
 10
-10.0
 20
17.751136596051698
 10
-10.0
 20
17.82670638554916
 10
-10.0
 20
17.898489426654212
 10
-10.0
 20
17.968655558179194
 10
-10.0
 20
18.038096692833786
 10
-10.0
 20
18.10643419827734
 10
-10.0
 20
18.173289442169217
 10
-10.0
 20
18.23828379216877
 10
-10.0
 20
18.301038615935347
 10
-10.0
 20
18.36117528112831
 10
-10.0
 20
18.418315155407015
 10
-10.0
 20
18.47207960643081
 10
-10.0
 20
18.522090001859052
 10
-10.0
 20
18.567967709351098
 10
-10.0
 20
18.609347846223216
 10
-10.0
 20
18.647250215527684
 10
-10.0
 20
18.682371529451764
 10
-10.0
 20
18.714537180213306
 10
-10.0
 20
18.74357256003016
 10
-10.0
 20
18.76930306112018
 10
-10.0
 20
18.791554075701217
 10
-10.0
 20
18.810150995991126
 10
-10.0
 20
18.824919214207757
 10
-10.0
 20
18.83568412256896
 10
-10.0
 20
18.842271113292593
 10
-10.0
 20
18.8445055785965
  0
LWPOLYLINE
  5
3C
330
17
100
AcDbEntity
  8
0
100
AcDbPolyline
 90
51
 70
0
 10
10.0
 20
0.0
 10
10.0
 20
0.30808164115459996
 10
10.0
 20
0.6161632823091999
 10
10.0
 20
0.9242449234637999
 10
10.0
 20
1.2323265646183998
 10
10.0
 20
1.540408205773
 10
10.0
 20
1.8484898469275999
 10
10.0
 20
2.1565714880822
 10
10.0
 20
2.4646531292367997
 10
10.0
 20
2.7727347703914003
 10
10.0
 20
3.080816411546
 10
10.0
 20
3.3888980527005996
 10
10.0
 20
3.6969796938551998
 10
10.0
 20
4.0050613350098
 10
10.0
 20
4.3131429761644
 10
10.0
 20
4.621224617319
 10
10.0
 20
4.929306258473599
 10
10.0
 20
5.2373878996281995
 10
10.0
 20
5.5454695407828005
 10
10.0
 20
5.8535511819374
 10
10.0
 20
6.161632823092
 10
10.0
 20
6.469714464246599
 10
10.0
 20
6.777796105401199
 10
10.0
 20
7.0858777465558
 10
10.0
 20
7.3939593877103995
 10
10.0
 20
7.702041028865
 10
10.0
 20
8.0101226700196
 10
10.0
 20
8.318204311174199
 10
10.0
 20
8.6262859523288
 10
10.0
 20
8.9343675934834
 10
10.0
 20
9.242449234638
 10
10.0
 20
9.5505308757926
 10
10.0
 20
9.858612516947199
 10
10.0
 20
10.1666941581018
 10
10.0
 20
10.474775799256399
 10
10.0
 20
10.782857440410998
 10
10.0
 20
11.090939081565601
 10
10.0
 20
11.3990207227202
 10
10.0
 20
11.7071023638748
 10
10.0
 20
12.0151840050294
 10
10.0
 20
12.323265646184
 10
10.0
 20
12.631347287338599
 10
10.0
 20
12.939428928493198
 10
10.0
 20
13.2475105696478
 10
10.0
 20
13.555592210802399
 10
10.0
 20
13.863673851956998
 10
10.0
 20
14.1717554931116
 10
10.0
 20
14.4798371342662
 10
10.0
 20
14.787918775420799
 10
10.0
 20
15.0960004165754
 10
10.0
 20
15.40408205773
  0
LWPOLYLINE
  5
3D
330
17
100
AcDbEntity
  8
0
100
AcDbPolyline
 90
51
 70
0
 10
-10.0
 20
15.40408205773
 10
-10.0
 20
15.0960004165754
 10
-10.0
 20
14.787918775420799
 10
-10.0
 20
14.4798371342662
 10
-10.0
 20
14.171755493111599
 10
-10.0
 20
13.863673851957
 10
-10.0
 20
13.555592210802399
 10
-10.0
 20
13.2475105696478
 10
-10.0
 20
12.9394289284932
 10
-10.0
 20
12.631347287338599
 10
-10.0
 20
12.323265646184
 10
-10.0
 20
12.0151840050294
 10
-10.0
 20
11.7071023638748
 10
-10.0
 20
11.399020722720199
 10
-10.0
 20
11.0909390815656
 10
-10.0
 20
10.782857440411
 10
-10.0
 20
10.474775799256399
 10
-10.0
 20
10.1666941581018
 10
-10.0
 20
9.858612516947199
 10
-10.0
 20
9.5505308757926
 10
-10.0
 20
9.242449234637999
 10
-10.0
 20
8.934367593483401
 10
-10.0
 20
8.6262859523288
 10
-10.0
 20
8.318204311174199
 10
-10.0
 20
8.0101226700196
 10
-10.0
 20
7.702041028865
 10
-10.0
 20
7.3939593877103995
 10
-10.0
 20
7.0858777465558
 10
-10.0
 20
6.777796105401199
 10
-10.0
 20
6.4697144642466
 10
-10.0
 20
6.161632823091999
 10
-10.0
 20
5.8535511819374
 10
-10.0
 20
5.5454695407828005
 10
-10.0
 20
5.2373878996281995
 10
-10.0
 20
4.9293062584736
 10
-10.0
 20
4.621224617319001
 10
-10.0
 20
4.313142976164398
 10
-10.0
 20
4.005061335009799
 10
-10.0
 20
3.6969796938551998
 10
-10.0
 20
3.3888980527005987
 10
-10.0
 20
3.0808164115459995
 10
-10.0
 20
2.7727347703914003
 10
-10.0
 20
2.464653129236801
 10
-10.0
 20
2.1565714880822
 10
-10.0
 20
1.8484898469276008
 10
-10.0
 20
1.5404082057730015
 10
-10.0
 20
1.2323265646183987
 10
-10.0
 20
0.9242449234637995
 10
-10.0
 20
0.6161632823092003
 10
-10.0
 20
0.30808164115459924
 10
-10.0
 20
0.0
  0
LWPOLYLINE
  5
3E
330
17
100
AcDbEntity
  8
0
100
AcDbPolyline
 90
51
 70
0
 10
-10.0
 20
0.0
 10
-9.6
 20
0.0
 10
-9.2
 20
0.0
 10
-8.8
 20
0.0
 10
-8.4
 20
0.0
 10
-8.0
 20
0.0
 10
-7.6
 20
0.0
 10
-7.2
 20
0.0
 10
-6.8
 20
0.0
 10
-6.4
 20
0.0
 10
-6.0
 20
0.0
 10
-5.6
 20
0.0
 10
-5.2
 20
0.0
 10
-4.8
 20
0.0
 10
-4.4
 20
0.0
 10
-4.0
 20
0.0
 10
-3.5999999999999996
 20
0.0
 10
-3.2
 20
0.0
 10
-2.8
 20
0.0
 10
-2.4000000000000004
 20
0.0
 10
-2.0
 20
0.0
 10
-1.5999999999999996
 20
0.0
 10
-1.1999999999999993
 20
0.0
 10
-0.8000000000000007
 20
0.0
 10
-0.40000000000000036
 20
0.0
 10
0.0
 20
0.0
 10
0.40000000000000036
 20
0.0
 10
0.8000000000000007
 20
0.0
 10
1.1999999999999993
 20
0.0
 10
1.5999999999999996
 20
0.0
 10
2.0
 20
0.0
 10
2.4000000000000004
 20
0.0
 10
2.8000000000000007
 20
0.0
 10
3.1999999999999993
 20
0.0
 10
3.5999999999999996
 20
0.0
 10
4.0
 20
0.0
 10
4.4
 20
0.0
 10
4.800000000000001
 20
0.0
 10
5.199999999999999
 20
0.0
 10
5.6
 20
0.0
 10
6.0
 20
0.0
 10
6.399999999999999
 20
0.0
 10
6.800000000000001
 20
0.0
 10
7.199999999999999
 20
0.0
 10
7.600000000000001
 20
0.0
 10
8.0
 20
0.0
 10
8.399999999999999
 20
0.0
 10
8.8
 20
0.0
 10
9.2
 20
0.0
 10
9.600000000000001
 20
0.0
 10
10.0
 20
0.0
  0
ENDSEC
  0
SECTION
  2
OBJECTS
  0
DICTIONARY
  5
A
330
0
100
AcDbDictionary
280
0
281
1
  3
ACAD_COLOR
350
B
  3
ACAD_GROUP
350
C
  3
ACAD_LAYOUT
350
D
  3
ACAD_MATERIAL
350
E
  3
ACAD_MLEADERSTYLE
350
F
  3
ACAD_MLINESTYLE
350
10
  3
ACAD_PLOTSETTINGS
350
11
  3
ACAD_PLOTSTYLENAME
350
12
  3
ACAD_SCALELIST
350
14
  3
ACAD_TABLESTYLE
350
15
  3
ACAD_VISUALSTYLE
350
16
  3
EZDXF_META
350
2D
  0
DICTIONARY
  5
B
330
A
100
AcDbDictionary
280
0
281
1
  0
DICTIONARY
  5
C
330
A
100
AcDbDictionary
280
0
281
1
  0
DICTIONARY
  5
D
330
A
100
AcDbDictionary
280
0
281
1
  3
Model
350
1A
  3
Layout1
350
1E
  0
DICTIONARY
  5
E
330
A
100
AcDbDictionary
280
0
281
1
  3
ByBlock
350
1F
  3
ByLayer
350
20
  3
Global
350
21
  0
DICTIONARY
  5
F
330
A
100
AcDbDictionary
280
0
281
1
  3
Standard
350
2C
  0
DICTIONARY
  5
10
330
A
100
AcDbDictionary
280
0
281
1
  3
Standard
350
22
  0
DICTIONARY
  5
11
330
A
100
AcDbDictionary
280
0
281
1
  0
ACDBDICTIONARYWDFLT
  5
12
330
A
100
AcDbDictionary
280
0
281
1
  3
Normal
350
13
100
AcDbDictionaryWithDefault
340
13
  0
ACDBPLACEHOLDER
  5
13
330
12
  0
DICTIONARY
  5
14
330
A
100
AcDbDictionary
280
0
281
1
  0
DICTIONARY
  5
15
330
A
100
AcDbDictionary
280
0
281
1
  0
DICTIONARY
  5
16
330
A
100
AcDbDictionary
280
0
281
1
  0
LAYOUT
  5
1A
330
D
100
AcDbPlotSettings
  1

  2
Adobe PDF
  4
A3
  6

 40
7.5
 41
20.0
 42
7.5
 43
20.0
 44
420.0
 45
297.0
 46
0.0
 47
0.0
 48
0.0
 49
0.0
140
0.0
141
0.0
142
1.0
143
1.0
 70
1024
 72
1
 73
0
 74
5
  7

 75
16
 76
0
 77
2
 78
300
147
1.0
148
0.0
149
0.0
100
AcDbLayout
  1
Model
 70
1
 71
0
 10
0.0
 20
0.0
 11
420.0
 21
297.0
 12
0.0
 22
0.0
 32
0.0
 14
1e+20
 24
1e+20
 34
1e+20
 15
-1e+20
 25
-1e+20
 35
-1e+20
146
0.0
 13
0.0
 23
0.0
 33
0.0
 16
1.0
 26
0.0
 36
0.0
 17
0.0
 27
1.0
 37
0.0
 76
1
330
17
  0
LAYOUT
  5
1E
330
D
100
AcDbPlotSettings
  1

  2
Adobe PDF
  4
A3
  6

 40
7.5
 41
20.0
 42
7.5
 43
20.0
 44
420.0
 45
297.0
 46
0.0
 47
0.0
 48
0.0
 49
0.0
140
0.0
141
0.0
142
1.0
143
1.0
 70
0
 72
1
 73
0
 74
5
  7

 75
16
 76
0
 77
2
 78
300
147
1.0
148
0.0
149
0.0
100
AcDbLayout
  1
Layout1
 70
1
 71
1
 10
0.0
 20
0.0
 11
420.0
 21
297.0
 12
0.0
 22
0.0
 32
0.0
 14
1e+20
 24
1e+20
 34
1e+20
 15
-1e+20
 25
-1e+20
 35
-1e+20
146
0.0
 13
0.0
 23
0.0
 33
0.0
 16
1.0
 26
0.0
 36
0.0
 17
0.0
 27
1.0
 37
0.0
 76
1
330
1B
  0
MATERIAL
  5
1F
102
{ACAD_REACTORS
330
E
102
}
330
E
100
AcDbMaterial
  1
ByBlock
  2

 70
0
 40
1.0
 71
1
 41
1.0
 91
-1023410177
 42
1.0
 72
1
  3

 73
1
 74
1
 75
1
 44
0.5
 73
0
 45
1.0
 46
1.0
 77
1
  4

 78
1
 79
1
170
1
 48
1.0
171
1
  6

172
1
173
1
174
1
140
1.0
141
1.0
175
1
  7

176
1
177
1
178
1
143
1.0
179
1
  8

270
1
271
1
272
1
145
1.0
146
1.0
273
1
  9

274
1
275
1
276
1
 42
1.0
 72
1
  3

 73
1
 74
1
 75
1
 94
63
  0
MATERIAL
  5
20
102
{ACAD_REACTORS
330
E
102
}
330
E
100
AcDbMaterial
  1
ByLayer
  2

 70
0
 40
1.0
 71
1
 41
1.0
 91
-1023410177
 42
1.0
 72
1
  3

 73
1
 74
1
 75
1
 44
0.5
 73
0
 45
1.0
 46
1.0
 77
1
  4

 78
1
 79
1
170
1
 48
1.0
171
1
  6

172
1
173
1
174
1
140
1.0
141
1.0
175
1
  7

176
1
177
1
178
1
143
1.0
179
1
  8

270
1
271
1
272
1
145
1.0
146
1.0
273
1
  9

274
1
275
1
276
1
 42
1.0
 72
1
  3

 73
1
 74
1
 75
1
 94
63
  0
MATERIAL
  5
21
102
{ACAD_REACTORS
330
E
102
}
330
E
100
AcDbMaterial
  1
Global
  2

 70
0
 40
1.0
 71
1
 41
1.0
 91
-1023410177
 42
1.0
 72
1
  3

 73
1
 74
1
 75
1
 44
0.5
 73
0
 45
1.0
 46
1.0
 77
1
  4

 78
1
 79
1
170
1
 48
1.0
171
1
  6

172
1
173
1
174
1
140
1.0
141
1.0
175
1
  7

176
1
177
1
178
1
143
1.0
179
1
  8

270
1
271
1
272
1
145
1.0
146
1.0
273
1
  9

274
1
275
1
276
1
 42
1.0
 72
1
  3

 73
1
 74
1
 75
1
 94
63
  0
MLINESTYLE
  5
22
102
{ACAD_REACTORS
330
10
102
}
330
10
100
AcDbMlineStyle
  2
Standard
 70
0
  3

 62
256
 51
90.0
 52
90.0
 71
2
 49
0.5
 62
256
  6
BYLAYER
 49
-0.5
 62
256
  6
BYLAYER
  0
MLEADERSTYLE
  5
2C
102
{ACAD_REACTORS
330
F
102
}
330
F
100
AcDbMLeaderStyle
179
2
170
2
171
1
172
0
 90
2
 40
0.0
 41
0.0
173
1
 91
-1056964608
 92
-2
290
1
 42
2.0
291
1
 43
8.0
  3
Standard
 44
4.0
300

342
29
174
1
175
1
176
0
178
1
 93
-1056964608
 45
4.0
292
0
297
0
 46
4.0
 94
-1056964608
 47
1.0
 49
1.0
140
1.0
294
1
141
0.0
177
0
142
1.0
295
0
296
0
143
3.75
271
0
272
9
273
9
  0
DICTIONARY
  5
2D
330
A
100
AcDbDictionary
281
1
  3
CREATED_BY_EZDXF
350
2E
  3
WRITTEN_BY_EZDXF
350
41
  0
DICTIONARYVAR
  5
2E
330
2D
100
DictionaryVariables
280
0
  1
1.0.3 @ 2025-05-29T09:41:25.471195+00:00
  0
DICTIONARYVAR
  5
41
330
2D
100
DictionaryVariables
280
0
  1
1.0.3 @ 2025-05-29T09:41:25.475397+00:00
  0
ENDSEC
  0
EOF
