  0
SECTION
  2
HEADER
  9
$ACADVER
  1
AC1027
  9
$ACADMAINTVER
 70
105
  9
$DWGCODEPAGE
  3
ANSI_1252
  9
$LASTSAVEDBY
  1
ezdxf
  9
$REQUIREDVERSIONS
160
0
  9
$INSBASE
 10
0.0
 20
0.0
 30
0.0
  9
$EXTMIN
 10
1e+20
 20
1e+20
 30
1e+20
  9
$EXTMAX
 10
-1e+20
 20
-1e+20
 30
-1e+20
  9
$LIMMIN
 10
0.0
 20
0.0
  9
$LIMMAX
 10
420.0
 20
297.0
  9
$ORTHOMODE
 70
0
  9
$REGENMODE
 70
1
  9
$FILLMODE
 70
1
  9
$QTEXTMODE
 70
0
  9
$MIRRTEXT
 70
1
  9
$LTSCALE
 40
1.0
  9
$ATTMODE
 70
1
  9
$TEXTSIZE
 40
2.5
  9
$TRACEWID
 40
1.0
  9
$TEXTSTYLE
  7
Standard
  9
$CLAYER
  8
0
  9
$CELTYPE
  6
ByLayer
  9
$CECOLOR
 62
256
  9
$CELTSCALE
 40
1.0
  9
$DISPSILH
 70
0
  9
$DIMSCALE
 40
1.0
  9
$DIMASZ
 40
2.5
  9
$DIMEXO
 40
0.625
  9
$DIMDLI
 40
3.75
  9
$DIMRND
 40
0.0
  9
$DIMDLE
 40
0.0
  9
$DIMEXE
 40
1.25
  9
$DIMTP
 40
0.0
  9
$DIMTM
 40
0.0
  9
$DIMTXT
 40
2.5
  9
$DIMCEN
 40
2.5
  9
$DIMTSZ
 40
0.0
  9
$DIMTOL
 70
0
  9
$DIMLIM
 70
0
  9
$DIMTIH
 70
0
  9
$DIMTOH
 70
0
  9
$DIMSE1
 70
0
  9
$DIMSE2
 70
0
  9
$DIMTAD
 70
1
  9
$DIMZIN
 70
8
  9
$DIMBLK
  1

  9
$DIMASO
 70
1
  9
$DIMSHO
 70
1
  9
$DIMPOST
  1

  9
$DIMAPOST
  1

  9
$DIMALT
 70
0
  9
$DIMALTD
 70
3
  9
$DIMALTF
 40
0.03937007874
  9
$DIMLFAC
 40
1.0
  9
$DIMTOFL
 70
1
  9
$DIMTVP
 40
0.0
  9
$DIMTIX
 70
0
  9
$DIMSOXD
 70
0
  9
$DIMSAH
 70
0
  9
$DIMBLK1
  1

  9
$DIMBLK2
  1

  9
$DIMSTYLE
  2
ISO-25
  9
$DIMCLRD
 70
0
  9
$DIMCLRE
 70
0
  9
$DIMCLRT
 70
0
  9
$DIMTFAC
 40
1.0
  9
$DIMGAP
 40
0.625
  9
$DIMJUST
 70
0
  9
$DIMSD1
 70
0
  9
$DIMSD2
 70
0
  9
$DIMTOLJ
 70
0
  9
$DIMTZIN
 70
8
  9
$DIMALTZ
 70
0
  9
$DIMALTTZ
 70
0
  9
$DIMUPT
 70
0
  9
$DIMDEC
 70
2
  9
$DIMTDEC
 70
2
  9
$DIMALTU
 70
2
  9
$DIMALTTD
 70
3
  9
$DIMTXSTY
  7
Standard
  9
$DIMAUNIT
 70
0
  9
$DIMADEC
 70
0
  9
$DIMALTRND
 40
0.0
  9
$DIMAZIN
 70
0
  9
$DIMDSEP
 70
44
  9
$DIMATFIT
 70
3
  9
$DIMFRAC
 70
0
  9
$DIMLDRBLK
  1

  9
$DIMLUNIT
 70
2
  9
$DIMLWD
 70
-2
  9
$DIMLWE
 70
-2
  9
$DIMTMOVE
 70
0
  9
$DIMFXL
 40
1.0
  9
$DIMFXLON
 70
0
  9
$DIMJOGANG
 40
0.785398163397
  9
$DIMTFILL
 70
0
  9
$DIMTFILLCLR
 70
0
  9
$DIMARCSYM
 70
0
  9
$DIMLTYPE
  6

  9
$DIMLTEX1
  6

  9
$DIMLTEX2
  6

  9
$DIMTXTDIRECTION
 70
0
  9
$LUNITS
 70
2
  9
$LUPREC
 70
4
  9
$SKETCHINC
 40
1.0
  9
$FILLETRAD
 40
10.0
  9
$AUNITS
 70
0
  9
$AUPREC
 70
2
  9
$MENU
  1
.
  9
$ELEVATION
 40
0.0
  9
$PELEVATION
 40
0.0
  9
$THICKNESS
 40
0.0
  9
$LIMCHECK
 70
0
  9
$CHAMFERA
 40
0.0
  9
$CHAMFERB
 40
0.0
  9
$CHAMFERC
 40
0.0
  9
$CHAMFERD
 40
0.0
  9
$SKPOLY
 70
0
  9
$TDCREATE
 40
2460825.778761574
  9
$TDUCREATE
 40
2458532.153996898
  9
$TDUPDATE
 40
2460825.778761574
  9
$TDUUPDATE
 40
2458532.1544311
  9
$TDINDWG
 40
0.0
  9
$TDUSRTIMER
 40
0.0
  9
$USRTIMER
 70
1
  9
$ANGBASE
 50
0.0
  9
$ANGDIR
 70
0
  9
$PDMODE
 70
0
  9
$PDSIZE
 40
0.0
  9
$PLINEWID
 40
0.0
  9
$SPLFRAME
 70
0
  9
$SPLINETYPE
 70
6
  9
$SPLINESEGS
 70
8
  9
$HANDSEED
  5
42
  9
$SURFTAB1
 70
6
  9
$SURFTAB2
 70
6
  9
$SURFTYPE
 70
6
  9
$SURFU
 70
6
  9
$SURFV
 70
6
  9
$UCSBASE
  2

  9
$UCSNAME
  2

  9
$UCSORG
 10
0.0
 20
0.0
 30
0.0
  9
$UCSXDIR
 10
1.0
 20
0.0
 30
0.0
  9
$UCSYDIR
 10
0.0
 20
1.0
 30
0.0
  9
$UCSORTHOREF
  2

  9
$UCSORTHOVIEW
 70
0
  9
$UCSORGTOP
 10
0.0
 20
0.0
 30
0.0
  9
$UCSORGBOTTOM
 10
0.0
 20
0.0
 30
0.0
  9
$UCSORGLEFT
 10
0.0
 20
0.0
 30
0.0
  9
$UCSORGRIGHT
 10
0.0
 20
0.0
 30
0.0
  9
$UCSORGFRONT
 10
0.0
 20
0.0
 30
0.0
  9
$UCSORGBACK
 10
0.0
 20
0.0
 30
0.0
  9
$PUCSBASE
  2

  9
$PUCSNAME
  2

  9
$PUCSORG
 10
0.0
 20
0.0
 30
0.0
  9
$PUCSXDIR
 10
1.0
 20
0.0
 30
0.0
  9
$PUCSYDIR
 10
0.0
 20
1.0
 30
0.0
  9
$PUCSORTHOREF
  2

  9
$PUCSORTHOVIEW
 70
0
  9
$PUCSORGTOP
 10
0.0
 20
0.0
 30
0.0
  9
$PUCSORGBOTTOM
 10
0.0
 20
0.0
 30
0.0
  9
$PUCSORGLEFT
 10
0.0
 20
0.0
 30
0.0
  9
$PUCSORGRIGHT
 10
0.0
 20
0.0
 30
0.0
  9
$PUCSORGFRONT
 10
0.0
 20
0.0
 30
0.0
  9
$PUCSORGBACK
 10
0.0
 20
0.0
 30
0.0
  9
$USERI1
 70
0
  9
$USERI2
 70
0
  9
$USERI3
 70
0
  9
$USERI4
 70
0
  9
$USERI5
 70
0
  9
$USERR1
 40
0.0
  9
$USERR2
 40
0.0
  9
$USERR3
 40
0.0
  9
$USERR4
 40
0.0
  9
$USERR5
 40
0.0
  9
$WORLDVIEW
 70
1
  9
$SHADEDGE
 70
3
  9
$SHADEDIF
 70
70
  9
$TILEMODE
 70
1
  9
$MAXACTVP
 70
64
  9
$PINSBASE
 10
0.0
 20
0.0
 30
0.0
  9
$PLIMCHECK
 70
0
  9
$PEXTMIN
 10
1e+20
 20
1e+20
 30
1e+20
  9
$PEXTMAX
 10
-1e+20
 20
-1e+20
 30
-1e+20
  9
$PLIMMIN
 10
0.0
 20
0.0
  9
$PLIMMAX
 10
420.0
 20
297.0
  9
$UNITMODE
 70
0
  9
$VISRETAIN
 70
1
  9
$PLINEGEN
 70
0
  9
$PSLTSCALE
 70
1
  9
$TREEDEPTH
 70
3020
  9
$CMLSTYLE
  2
Standard
  9
$CMLJUST
 70
0
  9
$CMLSCALE
 40
20.0
  9
$PROXYGRAPHICS
 70
1
  9
$MEASUREMENT
 70
1
  9
$CELWEIGHT
370
-1
  9
$ENDCAPS
280
0
  9
$JOINSTYLE
280
0
  9
$LWDISPLAY
290
0
  9
$INSUNITS
 70
6
  9
$HYPERLINKBASE
  1

  9
$STYLESHEET
  1

  9
$XEDIT
290
1
  9
$CEPSNTYPE
380
0
  9
$PSTYLEMODE
290
1
  9
$FINGERPRINTGUID
  2
{F7819A3D-5D35-4FE9-9D15-73BD9AFB433C}
  9
$VERSIONGUID
  2
{EE4932F2-C703-48EE-B769-D437A221838E}
  9
$EXTNAMES
290
1
  9
$PSVPSCALE
 40
0.0
  9
$OLESTARTUP
290
0
  9
$SORTENTS
280
127
  9
$INDEXCTL
280
0
  9
$HIDETEXT
280
1
  9
$XCLIPFRAME
280
0
  9
$HALOGAP
280
0
  9
$OBSCOLOR
 70
257
  9
$OBSLTYPE
280
0
  9
$INTERSECTIONDISPLAY
280
0
  9
$INTERSECTIONCOLOR
 70
257
  9
$DIMASSOC
280
2
  9
$PROJECTNAME
  1

  9
$CAMERADISPLAY
290
0
  9
$LENSLENGTH
 40
50.0
  9
$CAMERAHEIGHT
 40
0.0
  9
$STEPSPERSEC
 40
24.0
  9
$STEPSIZE
 40
100.0
  9
$3DDWFPREC
 40
2.0
  9
$PSOLWIDTH
 40
0.005
  9
$PSOLHEIGHT
 40
0.08
  9
$LOFTANG1
 40
1.570796326795
  9
$LOFTANG2
 40
1.570796326795
  9
$LOFTMAG1
 40
0.0
  9
$LOFTMAG2
 40
0.0
  9
$LOFTPARAM
 70
7
  9
$LOFTNORMALS
280
1
  9
$LATITUDE
 40
37.795
  9
$LONGITUDE
 40
-122.394
  9
$NORTHDIRECTION
 40
0.0
  9
$TIMEZONE
 70
-8000
  9
$LIGHTGLYPHDISPLAY
280
1
  9
$TILEMODELIGHTSYNCH
280
1
  9
$CMATERIAL
347
20
  9
$SOLIDHIST
280
0
  9
$SHOWHIST
280
1
  9
$DWFFRAME
280
2
  9
$DGNFRAME
280
2
  9
$REALWORLDSCALE
290
1
  9
$INTERFERECOLOR
 62
256
  9
$CSHADOW
280
0
  9
$SHADOWPLANELOCATION
 40
0.0
  0
ENDSEC
  0
SECTION
  2
CLASSES
  0
CLASS
  1
ACDBDICTIONARYWDFLT
  2
AcDbDictionaryWithDefault
  3
ObjectDBX Classes
 90
0
 91
0
280
0
281
0
  0
CLASS
  1
SUN
  2
AcDbSun
  3
SCENEOE
 90
1153
 91
0
280
0
281
0
  0
CLASS
  1
VISUALSTYLE
  2
AcDbVisualStyle
  3
ObjectDBX Classes
 90
4095
 91
0
280
0
281
0
  0
CLASS
  1
MATERIAL
  2
AcDbMaterial
  3
ObjectDBX Classes
 90
1153
 91
0
280
0
281
0
  0
CLASS
  1
SCALE
  2
AcDbScale
  3
ObjectDBX Classes
 90
1153
 91
0
280
0
281
0
  0
CLASS
  1
TABLESTYLE
  2
AcDbTableStyle
  3
ObjectDBX Classes
 90
4095
 91
0
280
0
281
0
  0
CLASS
  1
MLEADERSTYLE
  2
AcDbMLeaderStyle
  3
ACDB_MLEADERSTYLE_CLASS
 90
4095
 91
0
280
0
281
0
  0
CLASS
  1
DICTIONARYVAR
  2
AcDbDictionaryVar
  3
ObjectDBX Classes
 90
0
 91
0
280
0
281
0
  0
CLASS
  1
CELLSTYLEMAP
  2
AcDbCellStyleMap
  3
ObjectDBX Classes
 90
1152
 91
0
280
0
281
0
  0
CLASS
  1
MENTALRAYRENDERSETTINGS
  2
AcDbMentalRayRenderSettings
  3
SCENEOE
 90
1024
 91
0
280
0
281
0
  0
CLASS
  1
ACDBDETAILVIEWSTYLE
  2
AcDbDetailViewStyle
  3
ObjectDBX Classes
 90
1025
 91
0
280
0
281
0
  0
CLASS
  1
ACDBSECTIONVIEWSTYLE
  2
AcDbSectionViewStyle
  3
ObjectDBX Classes
 90
1025
 91
0
280
0
281
0
  0
CLASS
  1
RASTERVARIABLES
  2
AcDbRasterVariables
  3
ISM
 90
0
 91
0
280
0
281
0
  0
CLASS
  1
LAYOUT
  2
AcDbLayout
  3
ObjectDBX Classes
 90
0
 91
0
280
0
281
0
  0
CLASS
  1
ACDBPLACEHOLDER
  2
AcDbPlaceHolder
  3
ObjectDBX Classes
 90
0
 91
0
280
0
281
0
  0
ENDSEC
  0
SECTION
  2
TABLES
  0
TABLE
  2
VPORT
  5
8
330
0
100
AcDbSymbolTable
 70
1
  0
VPORT
  5
23
330
8
100
AcDbSymbolTableRecord
100
AcDbViewportTableRecord
  2
*Active
 70
0
 10
0.0
 20
0.0
 11
1.0
 21
1.0
 12
0.0
 22
0.0
 13
0.0
 23
0.0
 14
0.5
 24
0.5
 15
0.5
 25
0.5
 16
0.0
 26
0.0
 36
1.0
 17
0.0
 27
0.0
 37
0.0
 40
1000.0
 41
1.34
 42
50.0
 43
0.0
 44
0.0
 50
0.0
 51
0.0
 71
0
 72
1000
 73
1
 74
3
 75
0
 76
0
 77
0
 78
0
281
0
 65
0
146
0.0
  0
ENDTAB
  0
TABLE
  2
LTYPE
  5
2
330
0
100
AcDbSymbolTable
 70
3
  0
LTYPE
  5
24
330
2
100
AcDbSymbolTableRecord
100
AcDbLinetypeTableRecord
  2
ByBlock
 70
0
  3

 72
65
 73
0
 40
0.0
  0
LTYPE
  5
25
330
2
100
AcDbSymbolTableRecord
100
AcDbLinetypeTableRecord
  2
ByLayer
 70
0
  3

 72
65
 73
0
 40
0.0
  0
LTYPE
  5
26
330
2
100
AcDbSymbolTableRecord
100
AcDbLinetypeTableRecord
  2
Continuous
 70
0
  3

 72
65
 73
0
 40
0.0
  0
ENDTAB
  0
TABLE
  2
LAYER
  5
1
330
0
100
AcDbSymbolTable
 70
2
  0
LAYER
  5
27
330
1
100
AcDbSymbolTableRecord
100
AcDbLayerTableRecord
  2
0
 70
0
 62
7
  6
Continuous
370
-3
390
13
347
21
  0
LAYER
  5
28
330
1
100
AcDbSymbolTableRecord
100
AcDbLayerTableRecord
  2
Defpoints
 70
0
 62
7
  6
Continuous
290
0
370
-3
390
13
347
21
  0
ENDTAB
  0
TABLE
  2
STYLE
  5
5
330
0
100
AcDbSymbolTable
 70
1
  0
STYLE
  5
29
330
5
100
AcDbSymbolTableRecord
100
AcDbTextStyleTableRecord
  2
Standard
 70
0
 40
0.0
 41
1.0
 50
0.0
 71
0
 42
2.5
  3
txt
  4

  0
ENDTAB
  0
TABLE
  2
VIEW
  5
7
330
0
100
AcDbSymbolTable
 70
0
  0
ENDTAB
  0
TABLE
  2
UCS
  5
6
330
0
100
AcDbSymbolTable
 70
0
  0
ENDTAB
  0
TABLE
  2
APPID
  5
3
330
0
100
AcDbSymbolTable
 70
3
  0
APPID
  5
2A
330
3
100
AcDbSymbolTableRecord
100
AcDbRegAppTableRecord
  2
ACAD
 70
0
  0
APPID
  5
3F
330
3
100
AcDbSymbolTableRecord
100
AcDbRegAppTableRecord
  2
HATCHBACKGROUNDCOLOR
 70
0
  0
APPID
  5
40
330
3
100
AcDbSymbolTableRecord
100
AcDbRegAppTableRecord
  2
EZDXF
 70
0
  0
ENDTAB
  0
TABLE
  2
DIMSTYLE
  5
4
330
0
100
AcDbSymbolTable
 70
1
100
AcDbDimStyleTable
  0
DIMSTYLE
105
2B
330
4
100
AcDbSymbolTableRecord
100
AcDbDimStyleTableRecord
  2
Standard
 70
0
 40
1.0
 41
2.5
 42
0.625
 43
3.75
 44
1.25
 45
0.0
 46
0.0
 47
0.0
 48
0.0
 49
2.5
140
2.5
141
2.5
142
0.0
143
0.03937007874
144
1.0
145
0.0
146
1.0
147
0.625
148
0.0
 69
0
 70
0
 71
0
 72
0
 73
0
 74
0
 75
0
 76
0
 77
1
 78
8
 79
3
170
0
171
3
172
1
173
0
174
0
175
0
176
0
177
0
178
0
179
2
271
2
272
2
273
2
274
3
275
0
276
0
277
2
278
44
279
0
280
0
281
0
282
0
283
0
284
8
285
0
286
0
288
0
289
3
290
0
371
-2
372
-2
  0
ENDTAB
  0
TABLE
  2
BLOCK_RECORD
  5
9
330
0
100
AcDbSymbolTable
 70
2
  0
BLOCK_RECORD
  5
17
330
9
100
AcDbSymbolTableRecord
100
AcDbBlockTableRecord
  2
*Model_Space
340
1A
 70
0
280
1
281
0
  0
BLOCK_RECORD
  5
1B
330
9
100
AcDbSymbolTableRecord
100
AcDbBlockTableRecord
  2
*Paper_Space
340
1E
 70
0
280
1
281
0
  0
ENDTAB
  0
ENDSEC
  0
SECTION
  2
BLOCKS
  0
BLOCK
  5
18
330
17
100
AcDbEntity
  8
0
100
AcDbBlockBegin
  2
*Model_Space
 70
0
 10
0.0
 20
0.0
 30
0.0
  3
*Model_Space
  1

  0
ENDBLK
  5
19
330
17
100
AcDbEntity
  8
0
100
AcDbBlockEnd
  0
BLOCK
  5
1C
330
1B
100
AcDbEntity
  8
0
100
AcDbBlockBegin
  2
*Paper_Space
 70
0
 10
0.0
 20
0.0
 30
0.0
  3
*Paper_Space
  1

  0
ENDBLK
  5
1D
330
1B
100
AcDbEntity
  8
0
100
AcDbBlockEnd
  0
ENDSEC
  0
SECTION
  2
ENTITIES
  0
LWPOLYLINE
  5
2F
330
17
100
AcDbEntity
  8
0
100
AcDbPolyline
 90
51
 70
0
 10
-8.0
 20
-15.42123538185
 10
-8.0
 20
-15.297586580715281
 10
-8.0
 20
-15.173937779580562
 10
-8.0
 20
-15.050288978445842
 10
-8.0
 20
-14.926640177311123
 10
-8.0
 20
-14.802991376176404
 10
-8.0
 20
-14.679342575041685
 10
-8.0
 20
-14.555693773906967
 10
-8.0
 20
-14.432044972772248
 10
-8.0
 20
-14.30839617163753
 10
-8.0
 20
-14.184747370502809
 10
-8.0
 20
-14.06109856936809
 10
-8.0
 20
-13.937449768233371
 10
-8.0
 20
-13.813800967098652
 10
-8.0
 20
-13.690152165963934
 10
-8.0
 20
-13.566503364829213
 10
-8.0
 20
-13.442854563694494
 10
-8.0
 20
-13.319205762559776
 10
-8.0
 20
-13.195556961425057
 10
-8.0
 20
-13.071908160290338
 10
-8.0
 20
-12.94825935915562
 10
-8.0
 20
-12.824610558020899
 10
-8.0
 20
-12.70096175688618
 10
-8.0
 20
-12.577312955751461
 10
-8.0
 20
-12.453664154616742
 10
-8.0
 20
-12.330015353482024
 10
-8.0
 20
-12.206366552347305
 10
-8.0
 20
-12.082717751212584
 10
-8.0
 20
-11.959068950077866
 10
-8.0
 20
-11.835420148943147
 10
-8.0
 20
-11.711771347808428
 10
-8.0
 20
-11.58812254667371
 10
-8.0
 20
-11.464473745538989
 10
-8.0
 20
-11.340824944404272
 10
-8.0
 20
-11.217176143269551
 10
-8.0
 20
-11.093527342134832
 10
-8.0
 20
-10.969878541000114
 10
-8.0
 20
-10.846229739865393
 10
-8.0
 20
-10.722580938730676
 10
-8.0
 20
-10.598932137595956
 10
-8.0
 20
-10.475283336461239
 10
-8.0
 20
-10.351634535326518
 10
-8.0
 20
-10.227985734191797
 10
-8.0
 20
-10.10433693305708
 10
-8.0
 20
-9.98068813192236
 10
-8.0
 20
-9.857039330787641
 10
-8.0
 20
-9.733390529652922
 10
-8.0
 20
-9.609741728518204
 10
-8.0
 20
-9.486092927383485
 10
-8.0
 20
-9.362444126248766
 10
-8.0
 20
-9.238795325114047
  0
LWPOLYLINE
  5
30
330
17
100
AcDbEntity
  8
0
100
AcDbPolyline
 90
51
 70
0
 10
-8.0
 20
9.23879532511285
 10
-8.0
 20
9.022760391920432
 10
-8.0
 20
8.806725458728014
 10
-8.0
 20
8.590690525535598
 10
-8.0
 20
8.345943551068638
 10
-8.0
 20
8.062913854902291
 10
-8.0
 20
7.779884158735943
 10
-8.0
 20
7.496854462569596
 10
-8.0
 20
7.163255977572893
 10
-8.0
 20
6.821229361104465
 10
-8.0
 20
6.479202744636037
 10
-8.0
 20
6.123081286784359
 10
-8.0
 20
5.731722725474556
 10
-8.0
 20
5.340364164164753
 10
-8.0
 20
4.9490056028549505
 10
-8.0
 20
4.530309220751989
 10
-8.0
 20
4.100677710331764
 10
-8.0
 20
3.6710461999115394
 10
-8.0
 20
3.237681484091172
 10
-8.0
 20
2.7819175358699444
 10
-8.0
 20
2.3261535876487183
 10
-8.0
 20
1.8703896394274921
 10
-8.0
 20
1.4070522757593769
 10
-8.0
 20
0.9380348505060983
 10
-8.0
 20
0.46901742525281764
 10
-8.0
 20
-4.631850458736153e-13
 10
-8.0
 20
-0.4690174252537403
 10
-8.0
 20
-0.9380348505070174
 10
-8.0
 20
-1.4070522757602923
 10
-8.0
 20
-1.8703896394284005
 10
-8.0
 20
-2.3261535876496144
 10
-8.0
 20
-2.781917535870833
 10
-8.0
 20
-3.2376814840920467
 10
-8.0
 20
-3.6710461999123964
 10
-8.0
 20
-4.100677710332606
 10
-8.0
 20
-4.5303092207528115
 10
-8.0
 20
-4.949005602855754
 10
-8.0
 20
-5.340364164165531
 10
-8.0
 20
-5.731722725475312
 10
-8.0
 20
-6.123081286785089
 10
-8.0
 20
-6.47920274463674
 10
-8.0
 20
-6.821229361105139
 10
-8.0
 20
-7.163255977573536
 10
-8.0
 20
-7.4968544625702105
 10
-8.0
 20
-7.779884158736522
 10
-8.0
 20
-8.062913854902833
 10
-8.0
 20
-8.345943551069144
 10
-8.0
 20
-8.590690525536067
 10
-8.0
 20
-8.806725458728446
 10
-8.0
 20
-9.022760391920825
 10
-8.0
 20
-9.238795325113205
  0
LWPOLYLINE
  5
31
330
17
100
AcDbEntity
  8
0
100
AcDbPolyline
 90
51
 70
0
 10
-8.0
 20
9.238795325113
 10
-8.0
 20
9.362444126247718
 10
-8.0
 20
9.486092927382437
 10
-8.0
 20
9.609741728517157
 10
-8.0
 20
9.733390529651876
 10
-8.0
 20
9.857039330786595
 10
-8.0
 20
9.980688131921314
 10
-8.0
 20
10.104336933056032
 10
-8.0
 20
10.227985734190751
 10
-8.0
 20
10.35163453532547
 10
-8.0
 20
10.47528333646019
 10
-8.0
 20
10.59893213759491
 10
-8.0
 20
10.722580938729628
 10
-8.0
 20
10.846229739864347
 10
-8.0
 20
10.969878540999066
 10
-8.0
 20
11.093527342133786
 10
-8.0
 20
11.217176143268505
 10
-8.0
 20
11.340824944403224
 10
-8.0
 20
11.464473745537942
 10
-8.0
 20
11.588122546672661
 10
-8.0
 20
11.71177134780738
 10
-8.0
 20
11.8354201489421
 10
-8.0
 20
11.95906895007682
 10
-8.0
 20
12.082717751211538
 10
-8.0
 20
12.206366552346257
 10
-8.0
 20
12.330015353480976
 10
-8.0
 20
12.453664154615694
 10
-8.0
 20
12.577312955750415
 10
-8.0
 20
12.700961756885134
 10
-8.0
 20
12.824610558019852
 10
-8.0
 20
12.948259359154571
 10
-8.0
 20
13.07190816028929
 10
-8.0
 20
13.19555696142401
 10
-8.0
 20
13.319205762558727
 10
-8.0
 20
13.442854563693448
 10
-8.0
 20
13.566503364828167
 10
-8.0
 20
13.690152165962886
 10
-8.0
 20
13.813800967097606
 10
-8.0
 20
13.937449768232323
 10
-8.0
 20
14.061098569367044
 10
-8.0
 20
14.18474737050176
 10
-8.0
 20
14.308396171636481
 10
-8.0
 20
14.432044972771202
 10
-8.0
 20
14.555693773905919
 10
-8.0
 20
14.67934257504064
 10
-8.0
 20
14.802991376175358
 10
-8.0
 20
14.926640177310077
 10
-8.0
 20
15.050288978444796
 10
-8.0
 20
15.173937779579514
 10
-8.0
 20
15.297586580714233
 10
-8.0
 20
15.421235381848952
  0
LWPOLYLINE
  5
32
330
17
100
AcDbEntity
  8
0
100
AcDbPolyline
 90
51
 70
0
 10
-3.5
 20
9.23879532511285
 10
-3.5
 20
9.022760391920432
 10
-3.5
 20
8.806725458728014
 10
-3.5
 20
8.590690525535598
 10
-3.5
 20
8.345943551068638
 10
-3.5
 20
8.062913854902291
 10
-3.5
 20
7.779884158735943
 10
-3.5
 20
7.496854462569596
 10
-3.5
 20
7.163255977572893
 10
-3.5
 20
6.821229361104465
 10
-3.5
 20
6.479202744636037
 10
-3.5
 20
6.123081286784359
 10
-3.5
 20
5.731722725474556
 10
-3.5
 20
5.340364164164753
 10
-3.5
 20
4.9490056028549505
 10
-3.5
 20
4.530309220751989
 10
-3.5
 20
4.100677710331764
 10
-3.5
 20
3.6710461999115394
 10
-3.5
 20
3.237681484091172
 10
-3.5
 20
2.7819175358699444
 10
-3.5
 20
2.3261535876487183
 10
-3.5
 20
1.8703896394274921
 10
-3.5
 20
1.4070522757593769
 10
-3.5
 20
0.9380348505060983
 10
-3.5
 20
0.46901742525281764
 10
-3.5
 20
-4.631850458736153e-13
 10
-3.5
 20
-0.4690174252537403
 10
-3.5
 20
-0.9380348505070174
 10
-3.5
 20
-1.4070522757602923
 10
-3.5
 20
-1.8703896394284005
 10
-3.5
 20
-2.3261535876496144
 10
-3.5
 20
-2.781917535870833
 10
-3.5
 20
-3.2376814840920467
 10
-3.5
 20
-3.6710461999123964
 10
-3.5
 20
-4.100677710332606
 10
-3.5
 20
-4.5303092207528115
 10
-3.5
 20
-4.949005602855754
 10
-3.5
 20
-5.340364164165531
 10
-3.5
 20
-5.731722725475312
 10
-3.5
 20
-6.123081286785089
 10
-3.5
 20
-6.47920274463674
 10
-3.5
 20
-6.821229361105139
 10
-3.5
 20
-7.163255977573536
 10
-3.5
 20
-7.4968544625702105
 10
-3.5
 20
-7.779884158736522
 10
-3.5
 20
-8.062913854902833
 10
-3.5
 20
-8.345943551069144
 10
-3.5
 20
-8.590690525536067
 10
-3.5
 20
-8.806725458728446
 10
-3.5
 20
-9.022760391920825
 10
-3.5
 20
-9.238795325113205
  0
LWPOLYLINE
  5
33
330
17
100
AcDbEntity
  8
0
100
AcDbPolyline
 90
51
 70
0
 10
-3.5
 20
-9.238795325113
 10
-3.5
 20
-9.31915884590969
 10
-3.5
 20
-9.39952236670638
 10
-3.5
 20
-9.479885887503071
 10
-3.5
 20
-9.560249408299763
 10
-3.5
 20
-9.640612929096452
 10
-3.5
 20
-9.720976449893143
 10
-3.5
 20
-9.801339970689835
 10
-3.5
 20
-9.881703491486524
 10
-3.5
 20
-9.962067012283216
 10
-3.5
 20
-10.042430533079905
 10
-3.5
 20
-10.122794053876596
 10
-3.5
 20
-10.203157574673288
 10
-3.5
 20
-10.283521095469979
 10
-3.5
 20
-10.363884616266668
 10
-3.5
 20
-10.44424813706336
 10
-3.5
 20
-10.52461165786005
 10
-3.5
 20
-10.60497517865674
 10
-3.5
 20
-10.685338699453432
 10
-3.5
 20
-10.765702220250121
 10
-3.5
 20
-10.846065741046813
 10
-3.5
 20
-10.926429261843504
 10
-3.5
 20
-11.006792782640193
 10
-3.5
 20
-11.087156303436885
 10
-3.5
 20
-11.167519824233576
 10
-3.5
 20
-11.247883345030266
 10
-3.5
 20
-11.328246865826957
 10
-3.5
 20
-11.408610386623646
 10
-3.5
 20
-11.488973907420338
 10
-3.5
 20
-11.569337428217029
 10
-3.5
 20
-11.64970094901372
 10
-3.5
 20
-11.73006446981041
 10
-3.5
 20
-11.810427990607101
 10
-3.5
 20
-11.89079151140379
 10
-3.5
 20
-11.971155032200482
 10
-3.5
 20
-12.051518552997173
 10
-3.5
 20
-12.131882073793864
 10
-3.5
 20
-12.212245594590554
 10
-3.5
 20
-12.292609115387245
 10
-3.5
 20
-12.372972636183935
 10
-3.5
 20
-12.453336156980626
 10
-3.5
 20
-12.533699677777317
 10
-3.5
 20
-12.614063198574009
 10
-3.5
 20
-12.694426719370698
 10
-3.5
 20
-12.77479024016739
 10
-3.5
 20
-12.855153760964079
 10
-3.5
 20
-12.93551728176077
 10
-3.5
 20
-13.015880802557461
 10
-3.5
 20
-13.096244323354151
 10
-3.5
 20
-13.176607844150842
 10
-3.5
 20
-13.256971364947532
  0
LWPOLYLINE
  5
34
330
17
100
AcDbEntity
  8
0
100
AcDbPolyline
 90
51
 70
0
 10
-3.5
 20
9.238795325113
 10
-3.5
 20
9.31915884590969
 10
-3.5
 20
9.39952236670638
 10
-3.5
 20
9.479885887503071
 10
-3.5
 20
9.560249408299763
 10
-3.5
 20
9.640612929096452
 10
-3.5
 20
9.720976449893143
 10
-3.5
 20
9.801339970689835
 10
-3.5
 20
9.881703491486524
 10
-3.5
 20
9.962067012283216
 10
-3.5
 20
10.042430533079905
 10
-3.5
 20
10.122794053876596
 10
-3.5
 20
10.203157574673288
 10
-3.5
 20
10.283521095469979
 10
-3.5
 20
10.363884616266668
 10
-3.5
 20
10.44424813706336
 10
-3.5
 20
10.52461165786005
 10
-3.5
 20
10.60497517865674
 10
-3.5
 20
10.685338699453432
 10
-3.5
 20
10.765702220250121
 10
-3.5
 20
10.846065741046813
 10
-3.5
 20
10.926429261843504
 10
-3.5
 20
11.006792782640193
 10
-3.5
 20
11.087156303436885
 10
-3.5
 20
11.167519824233576
 10
-3.5
 20
11.247883345030266
 10
-3.5
 20
11.328246865826957
 10
-3.5
 20
11.408610386623646
 10
-3.5
 20
11.488973907420338
 10
-3.5
 20
11.569337428217029
 10
-3.5
 20
11.64970094901372
 10
-3.5
 20
11.73006446981041
 10
-3.5
 20
11.810427990607101
 10
-3.5
 20
11.89079151140379
 10
-3.5
 20
11.971155032200482
 10
-3.5
 20
12.051518552997173
 10
-3.5
 20
12.131882073793864
 10
-3.5
 20
12.212245594590554
 10
-3.5
 20
12.292609115387245
 10
-3.5
 20
12.372972636183935
 10
-3.5
 20
12.453336156980626
 10
-3.5
 20
12.533699677777317
 10
-3.5
 20
12.614063198574009
 10
-3.5
 20
12.694426719370698
 10
-3.5
 20
12.77479024016739
 10
-3.5
 20
12.855153760964079
 10
-3.5
 20
12.93551728176077
 10
-3.5
 20
13.015880802557461
 10
-3.5
 20
13.096244323354151
 10
-3.5
 20
13.176607844150842
 10
-3.5
 20
13.256971364947532
  0
LWPOLYLINE
  5
35
330
17
100
AcDbEntity
  8
0
100
AcDbPolyline
 90
51
 70
0
 10
3.5
 20
9.23879532511285
 10
3.5
 20
9.022760391920432
 10
3.5
 20
8.806725458728014
 10
3.5
 20
8.590690525535598
 10
3.5
 20
8.345943551068638
 10
3.5
 20
8.062913854902291
 10
3.5
 20
7.779884158735943
 10
3.5
 20
7.496854462569596
 10
3.5
 20
7.163255977572893
 10
3.5
 20
6.821229361104465
 10
3.5
 20
6.479202744636037
 10
3.5
 20
6.123081286784359
 10
3.5
 20
5.731722725474556
 10
3.5
 20
5.340364164164753
 10
3.5
 20
4.9490056028549505
 10
3.5
 20
4.530309220751989
 10
3.5
 20
4.100677710331764
 10
3.5
 20
3.6710461999115394
 10
3.5
 20
3.237681484091172
 10
3.5
 20
2.7819175358699444
 10
3.5
 20
2.3261535876487183
 10
3.5
 20
1.8703896394274921
 10
3.5
 20
1.4070522757593769
 10
3.5
 20
0.9380348505060983
 10
3.5
 20
0.46901742525281764
 10
3.5
 20
-4.631850458736153e-13
 10
3.5
 20
-0.4690174252537403
 10
3.5
 20
-0.9380348505070174
 10
3.5
 20
-1.4070522757602923
 10
3.5
 20
-1.8703896394284005
 10
3.5
 20
-2.3261535876496144
 10
3.5
 20
-2.781917535870833
 10
3.5
 20
-3.2376814840920467
 10
3.5
 20
-3.6710461999123964
 10
3.5
 20
-4.100677710332606
 10
3.5
 20
-4.5303092207528115
 10
3.5
 20
-4.949005602855754
 10
3.5
 20
-5.340364164165531
 10
3.5
 20
-5.731722725475312
 10
3.5
 20
-6.123081286785089
 10
3.5
 20
-6.47920274463674
 10
3.5
 20
-6.821229361105139
 10
3.5
 20
-7.163255977573536
 10
3.5
 20
-7.4968544625702105
 10
3.5
 20
-7.779884158736522
 10
3.5
 20
-8.062913854902833
 10
3.5
 20
-8.345943551069144
 10
3.5
 20
-8.590690525536067
 10
3.5
 20
-8.806725458728446
 10
3.5
 20
-9.022760391920825
 10
3.5
 20
-9.238795325113205
  0
LWPOLYLINE
  5
36
330
17
100
AcDbEntity
  8
0
100
AcDbPolyline
 90
51
 70
0
 10
3.5
 20
9.238795325113
 10
3.5
 20
9.31915884590969
 10
3.5
 20
9.39952236670638
 10
3.5
 20
9.479885887503071
 10
3.5
 20
9.560249408299763
 10
3.5
 20
9.640612929096452
 10
3.5
 20
9.720976449893143
 10
3.5
 20
9.801339970689835
 10
3.5
 20
9.881703491486524
 10
3.5
 20
9.962067012283216
 10
3.5
 20
10.042430533079905
 10
3.5
 20
10.122794053876596
 10
3.5
 20
10.203157574673288
 10
3.5
 20
10.283521095469979
 10
3.5
 20
10.363884616266668
 10
3.5
 20
10.44424813706336
 10
3.5
 20
10.52461165786005
 10
3.5
 20
10.60497517865674
 10
3.5
 20
10.685338699453432
 10
3.5
 20
10.765702220250121
 10
3.5
 20
10.846065741046813
 10
3.5
 20
10.926429261843504
 10
3.5
 20
11.006792782640193
 10
3.5
 20
11.087156303436885
 10
3.5
 20
11.167519824233576
 10
3.5
 20
11.247883345030266
 10
3.5
 20
11.328246865826957
 10
3.5
 20
11.408610386623646
 10
3.5
 20
11.488973907420338
 10
3.5
 20
11.569337428217029
 10
3.5
 20
11.64970094901372
 10
3.5
 20
11.73006446981041
 10
3.5
 20
11.810427990607101
 10
3.5
 20
11.89079151140379
 10
3.5
 20
11.971155032200482
 10
3.5
 20
12.051518552997173
 10
3.5
 20
12.131882073793864
 10
3.5
 20
12.212245594590554
 10
3.5
 20
12.292609115387245
 10
3.5
 20
12.372972636183935
 10
3.5
 20
12.453336156980626
 10
3.5
 20
12.533699677777317
 10
3.5
 20
12.614063198574009
 10
3.5
 20
12.694426719370698
 10
3.5
 20
12.77479024016739
 10
3.5
 20
12.855153760964079
 10
3.5
 20
12.93551728176077
 10
3.5
 20
13.015880802557461
 10
3.5
 20
13.096244323354151
 10
3.5
 20
13.176607844150842
 10
3.5
 20
13.256971364947532
  0
LWPOLYLINE
  5
37
330
17
100
AcDbEntity
  8
0
100
AcDbPolyline
 90
51
 70
0
 10
3.5
 20
-9.238795325113
 10
3.5
 20
-9.31915884590969
 10
3.5
 20
-9.39952236670638
 10
3.5
 20
-9.479885887503071
 10
3.5
 20
-9.560249408299763
 10
3.5
 20
-9.640612929096452
 10
3.5
 20
-9.720976449893143
 10
3.5
 20
-9.801339970689835
 10
3.5
 20
-9.881703491486524
 10
3.5
 20
-9.962067012283216
 10
3.5
 20
-10.042430533079905
 10
3.5
 20
-10.122794053876596
 10
3.5
 20
-10.203157574673288
 10
3.5
 20
-10.283521095469979
 10
3.5
 20
-10.363884616266668
 10
3.5
 20
-10.44424813706336
 10
3.5
 20
-10.52461165786005
 10
3.5
 20
-10.60497517865674
 10
3.5
 20
-10.685338699453432
 10
3.5
 20
-10.765702220250121
 10
3.5
 20
-10.846065741046813
 10
3.5
 20
-10.926429261843504
 10
3.5
 20
-11.006792782640193
 10
3.5
 20
-11.087156303436885
 10
3.5
 20
-11.167519824233576
 10
3.5
 20
-11.247883345030266
 10
3.5
 20
-11.328246865826957
 10
3.5
 20
-11.408610386623646
 10
3.5
 20
-11.488973907420338
 10
3.5
 20
-11.569337428217029
 10
3.5
 20
-11.64970094901372
 10
3.5
 20
-11.73006446981041
 10
3.5
 20
-11.810427990607101
 10
3.5
 20
-11.89079151140379
 10
3.5
 20
-11.971155032200482
 10
3.5
 20
-12.051518552997173
 10
3.5
 20
-12.131882073793864
 10
3.5
 20
-12.212245594590554
 10
3.5
 20
-12.292609115387245
 10
3.5
 20
-12.372972636183935
 10
3.5
 20
-12.453336156980626
 10
3.5
 20
-12.533699677777317
 10
3.5
 20
-12.614063198574009
 10
3.5
 20
-12.694426719370698
 10
3.5
 20
-12.77479024016739
 10
3.5
 20
-12.855153760964079
 10
3.5
 20
-12.93551728176077
 10
3.5
 20
-13.015880802557461
 10
3.5
 20
-13.096244323354151
 10
3.5
 20
-13.176607844150842
 10
3.5
 20
-13.256971364947532
  0
LWPOLYLINE
  5
38
330
17
100
AcDbEntity
  8
0
100
AcDbPolyline
 90
51
 70
0
 10
8.0
 20
9.23879532511285
 10
8.0
 20
9.022760391920432
 10
8.0
 20
8.806725458728014
 10
8.0
 20
8.590690525535598
 10
8.0
 20
8.345943551068638
 10
8.0
 20
8.062913854902291
 10
8.0
 20
7.779884158735943
 10
8.0
 20
7.496854462569596
 10
8.0
 20
7.163255977572893
 10
8.0
 20
6.821229361104465
 10
8.0
 20
6.479202744636037
 10
8.0
 20
6.123081286784359
 10
8.0
 20
5.731722725474556
 10
8.0
 20
5.340364164164753
 10
8.0
 20
4.9490056028549505
 10
8.0
 20
4.530309220751989
 10
8.0
 20
4.100677710331764
 10
8.0
 20
3.6710461999115394
 10
8.0
 20
3.237681484091172
 10
8.0
 20
2.7819175358699444
 10
8.0
 20
2.3261535876487183
 10
8.0
 20
1.8703896394274921
 10
8.0
 20
1.4070522757593769
 10
8.0
 20
0.9380348505060983
 10
8.0
 20
0.46901742525281764
 10
8.0
 20
-4.631850458736153e-13
 10
8.0
 20
-0.4690174252537403
 10
8.0
 20
-0.9380348505070174
 10
8.0
 20
-1.4070522757602923
 10
8.0
 20
-1.8703896394284005
 10
8.0
 20
-2.3261535876496144
 10
8.0
 20
-2.781917535870833
 10
8.0
 20
-3.2376814840920467
 10
8.0
 20
-3.6710461999123964
 10
8.0
 20
-4.100677710332606
 10
8.0
 20
-4.5303092207528115
 10
8.0
 20
-4.949005602855754
 10
8.0
 20
-5.340364164165531
 10
8.0
 20
-5.731722725475312
 10
8.0
 20
-6.123081286785089
 10
8.0
 20
-6.47920274463674
 10
8.0
 20
-6.821229361105139
 10
8.0
 20
-7.163255977573536
 10
8.0
 20
-7.4968544625702105
 10
8.0
 20
-7.779884158736522
 10
8.0
 20
-8.062913854902833
 10
8.0
 20
-8.345943551069144
 10
8.0
 20
-8.590690525536067
 10
8.0
 20
-8.806725458728446
 10
8.0
 20
-9.022760391920825
 10
8.0
 20
-9.238795325113205
  0
LWPOLYLINE
  5
39
330
17
100
AcDbEntity
  8
0
100
AcDbPolyline
 90
51
 70
0
 10
-8.0
 20
-15.42123538185
 10
-7.68
 20
-15.42123538185
 10
-7.36
 20
-15.42123538185
 10
-7.04
 20
-15.42123538185
 10
-6.72
 20
-15.42123538185
 10
-6.4
 20
-15.42123538185
 10
-6.08
 20
-15.42123538185
 10
-5.76
 20
-15.42123538185
 10
-5.4399999999999995
 20
-15.42123538185
 10
-5.12
 20
-15.42123538185
 10
-4.8
 20
-15.42123538185
 10
-4.48
 20
-15.42123538185
 10
-4.16
 20
-15.42123538185
 10
-3.84
 20
-15.42123538185
 10
-3.5199999999999996
 20
-15.42123538185
 10
-3.2
 20
-15.42123538185
 10
-2.88
 20
-15.42123538185
 10
-2.5599999999999996
 20
-15.42123538185
 10
-2.24
 20
-15.42123538185
 10
-1.92
 20
-15.42123538185
 10
-1.5999999999999996
 20
-15.42123538185
 10
-1.2800000000000002
 20
-15.42123538185
 10
-0.96
 20
-15.42123538185
 10
-0.6399999999999997
 20
-15.42123538185
 10
-0.3200000000000003
 20
-15.42123538185
 10
0.0
 20
-15.42123538185
 10
0.3200000000000003
 20
-15.42123538185
 10
0.6400000000000006
 20
-15.42123538185
 10
0.9600000000000009
 20
-15.42123538185
 10
1.2799999999999994
 20
-15.42123538185
 10
1.5999999999999996
 20
-15.42123538185
 10
1.92
 20
-15.42123538185
 10
2.24
 20
-15.42123538185
 10
2.5600000000000005
 20
-15.42123538185
 10
2.880000000000001
 20
-15.42123538185
 10
3.1999999999999993
 20
-15.42123538185
 10
3.5199999999999996
 20
-15.42123538185
 10
3.84
 20
-15.42123538185
 10
4.16
 20
-15.42123538185
 10
4.48
 20
-15.42123538185
 10
4.800000000000001
 20
-15.42123538185
 10
5.119999999999999
 20
-15.42123538185
 10
5.4399999999999995
 20
-15.42123538185
 10
5.76
 20
-15.42123538185
 10
6.08
 20
-15.42123538185
 10
6.4
 20
-15.42123538185
 10
6.720000000000001
 20
-15.42123538185
 10
7.039999999999999
 20
-15.42123538185
 10
7.359999999999999
 20
-15.42123538185
 10
7.68
 20
-15.42123538185
 10
8.0
 20
-15.42123538185
  0
LWPOLYLINE
  5
3A
330
17
100
AcDbEntity
  8
0
100
AcDbPolyline
 90
51
 70
0
 10
8.0
 20
-15.42123538185
 10
8.0
 20
-15.297586580715281
 10
8.0
 20
-15.173937779580562
 10
8.0
 20
-15.050288978445842
 10
8.0
 20
-14.926640177311123
 10
8.0
 20
-14.802991376176404
 10
8.0
 20
-14.679342575041685
 10
8.0
 20
-14.555693773906967
 10
8.0
 20
-14.432044972772248
 10
8.0
 20
-14.30839617163753
 10
8.0
 20
-14.184747370502809
 10
8.0
 20
-14.06109856936809
 10
8.0
 20
-13.937449768233371
 10
8.0
 20
-13.813800967098652
 10
8.0
 20
-13.690152165963934
 10
8.0
 20
-13.566503364829213
 10
8.0
 20
-13.442854563694494
 10
8.0
 20
-13.319205762559776
 10
8.0
 20
-13.195556961425057
 10
8.0
 20
-13.071908160290338
 10
8.0
 20
-12.94825935915562
 10
8.0
 20
-12.824610558020899
 10
8.0
 20
-12.70096175688618
 10
8.0
 20
-12.577312955751461
 10
8.0
 20
-12.453664154616742
 10
8.0
 20
-12.330015353482024
 10
8.0
 20
-12.206366552347305
 10
8.0
 20
-12.082717751212584
 10
8.0
 20
-11.959068950077866
 10
8.0
 20
-11.835420148943147
 10
8.0
 20
-11.711771347808428
 10
8.0
 20
-11.58812254667371
 10
8.0
 20
-11.464473745538989
 10
8.0
 20
-11.340824944404272
 10
8.0
 20
-11.217176143269551
 10
8.0
 20
-11.093527342134832
 10
8.0
 20
-10.969878541000114
 10
8.0
 20
-10.846229739865393
 10
8.0
 20
-10.722580938730676
 10
8.0
 20
-10.598932137595956
 10
8.0
 20
-10.475283336461239
 10
8.0
 20
-10.351634535326518
 10
8.0
 20
-10.227985734191797
 10
8.0
 20
-10.10433693305708
 10
8.0
 20
-9.98068813192236
 10
8.0
 20
-9.857039330787641
 10
8.0
 20
-9.733390529652922
 10
8.0
 20
-9.609741728518204
 10
8.0
 20
-9.486092927383485
 10
8.0
 20
-9.362444126248766
 10
8.0
 20
-9.238795325114047
  0
LWPOLYLINE
  5
3B
330
17
100
AcDbEntity
  8
0
100
AcDbPolyline
 90
51
 70
0
 10
-3.5
 20
-13.25697136495
 10
-3.36
 20
-13.25697136495
 10
-3.2199999999999998
 20
-13.25697136495
 10
-3.08
 20
-13.25697136495
 10
-2.94
 20
-13.25697136495
 10
-2.8
 20
-13.25697136495
 10
-2.66
 20
-13.25697136495
 10
-2.52
 20
-13.25697136495
 10
-2.38
 20
-13.25697136495
 10
-2.24
 20
-13.25697136495
 10
-2.1
 20
-13.25697136495
 10
-1.96
 20
-13.25697136495
 10
-1.82
 20
-13.25697136495
 10
-1.68
 20
-13.25697136495
 10
-1.54
 20
-13.25697136495
 10
-1.4
 20
-13.25697136495
 10
-1.2599999999999998
 20
-13.25697136495
 10
-1.12
 20
-13.25697136495
 10
-0.98
 20
-13.25697136495
 10
-0.8399999999999999
 20
-13.25697136495
 10
-0.7000000000000002
 20
-13.25697136495
 10
-0.56
 20
-13.25697136495
 10
-0.41999999999999993
 20
-13.25697136495
 10
-0.2799999999999998
 20
-13.25697136495
 10
-0.14000000000000012
 20
-13.25697136495
 10
0.0
 20
-13.25697136495
 10
0.14000000000000012
 20
-13.25697136495
 10
0.2799999999999998
 20
-13.25697136495
 10
0.41999999999999993
 20
-13.25697136495
 10
0.5599999999999996
 20
-13.25697136495
 10
0.7000000000000002
 20
-13.25697136495
 10
0.8399999999999999
 20
-13.25697136495
 10
0.9800000000000004
 20
-13.25697136495
 10
1.12
 20
-13.25697136495
 10
1.2599999999999998
 20
-13.25697136495
 10
1.4000000000000004
 20
-13.25697136495
 10
1.54
 20
-13.25697136495
 10
1.6799999999999997
 20
-13.25697136495
 10
1.8200000000000003
 20
-13.25697136495
 10
1.96
 20
-13.25697136495
 10
2.0999999999999996
 20
-13.25697136495
 10
2.24
 20
-13.25697136495
 10
2.38
 20
-13.25697136495
 10
2.5199999999999996
 20
-13.25697136495
 10
2.66
 20
-13.25697136495
 10
2.8
 20
-13.25697136495
 10
2.9400000000000004
 20
-13.25697136495
 10
3.08
 20
-13.25697136495
 10
3.2199999999999998
 20
-13.25697136495
 10
3.3600000000000003
 20
-13.25697136495
 10
3.5
 20
-13.25697136495
  0
LWPOLYLINE
  5
3C
330
17
100
AcDbEntity
  8
0
100
AcDbPolyline
 90
51
 70
0
 10
-3.5
 20
13.25697136495
 10
-3.36
 20
13.25697136495
 10
-3.2199999999999998
 20
13.25697136495
 10
-3.08
 20
13.25697136495
 10
-2.94
 20
13.25697136495
 10
-2.8
 20
13.25697136495
 10
-2.66
 20
13.25697136495
 10
-2.52
 20
13.25697136495
 10
-2.38
 20
13.25697136495
 10
-2.24
 20
13.25697136495
 10
-2.1
 20
13.25697136495
 10
-1.96
 20
13.25697136495
 10
-1.82
 20
13.25697136495
 10
-1.68
 20
13.25697136495
 10
-1.54
 20
13.25697136495
 10
-1.4
 20
13.25697136495
 10
-1.2599999999999998
 20
13.25697136495
 10
-1.12
 20
13.25697136495
 10
-0.98
 20
13.25697136495
 10
-0.8399999999999999
 20
13.25697136495
 10
-0.7000000000000002
 20
13.25697136495
 10
-0.56
 20
13.25697136495
 10
-0.41999999999999993
 20
13.25697136495
 10
-0.2799999999999998
 20
13.25697136495
 10
-0.14000000000000012
 20
13.25697136495
 10
0.0
 20
13.25697136495
 10
0.14000000000000012
 20
13.25697136495
 10
0.2799999999999998
 20
13.25697136495
 10
0.41999999999999993
 20
13.25697136495
 10
0.5599999999999996
 20
13.25697136495
 10
0.7000000000000002
 20
13.25697136495
 10
0.8399999999999999
 20
13.25697136495
 10
0.9800000000000004
 20
13.25697136495
 10
1.12
 20
13.25697136495
 10
1.2599999999999998
 20
13.25697136495
 10
1.4000000000000004
 20
13.25697136495
 10
1.54
 20
13.25697136495
 10
1.6799999999999997
 20
13.25697136495
 10
1.8200000000000003
 20
13.25697136495
 10
1.96
 20
13.25697136495
 10
2.0999999999999996
 20
13.25697136495
 10
2.24
 20
13.25697136495
 10
2.38
 20
13.25697136495
 10
2.5199999999999996
 20
13.25697136495
 10
2.66
 20
13.25697136495
 10
2.8
 20
13.25697136495
 10
2.9400000000000004
 20
13.25697136495
 10
3.08
 20
13.25697136495
 10
3.2199999999999998
 20
13.25697136495
 10
3.3600000000000003
 20
13.25697136495
 10
3.5
 20
13.25697136495
  0
LWPOLYLINE
  5
3D
330
17
100
AcDbEntity
  8
0
100
AcDbPolyline
 90
51
 70
0
 10
8.0
 20
9.238795325113
 10
8.0
 20
9.362444126247718
 10
8.0
 20
9.486092927382437
 10
8.0
 20
9.609741728517157
 10
8.0
 20
9.733390529651876
 10
8.0
 20
9.857039330786595
 10
8.0
 20
9.980688131921314
 10
8.0
 20
10.104336933056032
 10
8.0
 20
10.227985734190751
 10
8.0
 20
10.35163453532547
 10
8.0
 20
10.47528333646019
 10
8.0
 20
10.59893213759491
 10
8.0
 20
10.722580938729628
 10
8.0
 20
10.846229739864347
 10
8.0
 20
10.969878540999066
 10
8.0
 20
11.093527342133786
 10
8.0
 20
11.217176143268505
 10
8.0
 20
11.340824944403224
 10
8.0
 20
11.464473745537942
 10
8.0
 20
11.588122546672661
 10
8.0
 20
11.71177134780738
 10
8.0
 20
11.8354201489421
 10
8.0
 20
11.95906895007682
 10
8.0
 20
12.082717751211538
 10
8.0
 20
12.206366552346257
 10
8.0
 20
12.330015353480976
 10
8.0
 20
12.453664154615694
 10
8.0
 20
12.577312955750415
 10
8.0
 20
12.700961756885134
 10
8.0
 20
12.824610558019852
 10
8.0
 20
12.948259359154571
 10
8.0
 20
13.07190816028929
 10
8.0
 20
13.19555696142401
 10
8.0
 20
13.319205762558727
 10
8.0
 20
13.442854563693448
 10
8.0
 20
13.566503364828167
 10
8.0
 20
13.690152165962886
 10
8.0
 20
13.813800967097606
 10
8.0
 20
13.937449768232323
 10
8.0
 20
14.061098569367044
 10
8.0
 20
14.18474737050176
 10
8.0
 20
14.308396171636481
 10
8.0
 20
14.432044972771202
 10
8.0
 20
14.555693773905919
 10
8.0
 20
14.67934257504064
 10
8.0
 20
14.802991376175358
 10
8.0
 20
14.926640177310077
 10
8.0
 20
15.050288978444796
 10
8.0
 20
15.173937779579514
 10
8.0
 20
15.297586580714233
 10
8.0
 20
15.421235381848952
  0
LWPOLYLINE
  5
3E
330
17
100
AcDbEntity
  8
0
100
AcDbPolyline
 90
51
 70
0
 10
-8.0
 20
15.42123538185
 10
-7.68
 20
15.42123538185
 10
-7.36
 20
15.42123538185
 10
-7.04
 20
15.42123538185
 10
-6.72
 20
15.42123538185
 10
-6.4
 20
15.42123538185
 10
-6.08
 20
15.42123538185
 10
-5.76
 20
15.42123538185
 10
-5.4399999999999995
 20
15.42123538185
 10
-5.12
 20
15.42123538185
 10
-4.8
 20
15.42123538185
 10
-4.48
 20
15.42123538185
 10
-4.16
 20
15.42123538185
 10
-3.84
 20
15.42123538185
 10
-3.5199999999999996
 20
15.42123538185
 10
-3.2
 20
15.42123538185
 10
-2.88
 20
15.42123538185
 10
-2.5599999999999996
 20
15.42123538185
 10
-2.24
 20
15.42123538185
 10
-1.92
 20
15.42123538185
 10
-1.5999999999999996
 20
15.42123538185
 10
-1.2800000000000002
 20
15.42123538185
 10
-0.96
 20
15.42123538185
 10
-0.6399999999999997
 20
15.42123538185
 10
-0.3200000000000003
 20
15.42123538185
 10
0.0
 20
15.42123538185
 10
0.3200000000000003
 20
15.42123538185
 10
0.6400000000000006
 20
15.42123538185
 10
0.9600000000000009
 20
15.42123538185
 10
1.2799999999999994
 20
15.42123538185
 10
1.5999999999999996
 20
15.42123538185
 10
1.92
 20
15.42123538185
 10
2.24
 20
15.42123538185
 10
2.5600000000000005
 20
15.42123538185
 10
2.880000000000001
 20
15.42123538185
 10
3.1999999999999993
 20
15.42123538185
 10
3.5199999999999996
 20
15.42123538185
 10
3.84
 20
15.42123538185
 10
4.16
 20
15.42123538185
 10
4.48
 20
15.42123538185
 10
4.800000000000001
 20
15.42123538185
 10
5.119999999999999
 20
15.42123538185
 10
5.4399999999999995
 20
15.42123538185
 10
5.76
 20
15.42123538185
 10
6.08
 20
15.42123538185
 10
6.4
 20
15.42123538185
 10
6.720000000000001
 20
15.42123538185
 10
7.039999999999999
 20
15.42123538185
 10
7.359999999999999
 20
15.42123538185
 10
7.68
 20
15.42123538185
 10
8.0
 20
15.42123538185
  0
ENDSEC
  0
SECTION
  2
OBJECTS
  0
DICTIONARY
  5
A
330
0
100
AcDbDictionary
280
0
281
1
  3
ACAD_COLOR
350
B
  3
ACAD_GROUP
350
C
  3
ACAD_LAYOUT
350
D
  3
ACAD_MATERIAL
350
E
  3
ACAD_MLEADERSTYLE
350
F
  3
ACAD_MLINESTYLE
350
10
  3
ACAD_PLOTSETTINGS
350
11
  3
ACAD_PLOTSTYLENAME
350
12
  3
ACAD_SCALELIST
350
14
  3
ACAD_TABLESTYLE
350
15
  3
ACAD_VISUALSTYLE
350
16
  3
EZDXF_META
350
2D
  0
DICTIONARY
  5
B
330
A
100
AcDbDictionary
280
0
281
1
  0
DICTIONARY
  5
C
330
A
100
AcDbDictionary
280
0
281
1
  0
DICTIONARY
  5
D
330
A
100
AcDbDictionary
280
0
281
1
  3
Model
350
1A
  3
Layout1
350
1E
  0
DICTIONARY
  5
E
330
A
100
AcDbDictionary
280
0
281
1
  3
ByBlock
350
1F
  3
ByLayer
350
20
  3
Global
350
21
  0
DICTIONARY
  5
F
330
A
100
AcDbDictionary
280
0
281
1
  3
Standard
350
2C
  0
DICTIONARY
  5
10
330
A
100
AcDbDictionary
280
0
281
1
  3
Standard
350
22
  0
DICTIONARY
  5
11
330
A
100
AcDbDictionary
280
0
281
1
  0
ACDBDICTIONARYWDFLT
  5
12
330
A
100
AcDbDictionary
280
0
281
1
  3
Normal
350
13
100
AcDbDictionaryWithDefault
340
13
  0
ACDBPLACEHOLDER
  5
13
330
12
  0
DICTIONARY
  5
14
330
A
100
AcDbDictionary
280
0
281
1
  0
DICTIONARY
  5
15
330
A
100
AcDbDictionary
280
0
281
1
  0
DICTIONARY
  5
16
330
A
100
AcDbDictionary
280
0
281
1
  0
LAYOUT
  5
1A
330
D
100
AcDbPlotSettings
  1

  2
Adobe PDF
  4
A3
  6

 40
7.5
 41
20.0
 42
7.5
 43
20.0
 44
420.0
 45
297.0
 46
0.0
 47
0.0
 48
0.0
 49
0.0
140
0.0
141
0.0
142
1.0
143
1.0
 70
1024
 72
1
 73
0
 74
5
  7

 75
16
 76
0
 77
2
 78
300
147
1.0
148
0.0
149
0.0
100
AcDbLayout
  1
Model
 70
1
 71
0
 10
0.0
 20
0.0
 11
420.0
 21
297.0
 12
0.0
 22
0.0
 32
0.0
 14
1e+20
 24
1e+20
 34
1e+20
 15
-1e+20
 25
-1e+20
 35
-1e+20
146
0.0
 13
0.0
 23
0.0
 33
0.0
 16
1.0
 26
0.0
 36
0.0
 17
0.0
 27
1.0
 37
0.0
 76
1
330
17
  0
LAYOUT
  5
1E
330
D
100
AcDbPlotSettings
  1

  2
Adobe PDF
  4
A3
  6

 40
7.5
 41
20.0
 42
7.5
 43
20.0
 44
420.0
 45
297.0
 46
0.0
 47
0.0
 48
0.0
 49
0.0
140
0.0
141
0.0
142
1.0
143
1.0
 70
0
 72
1
 73
0
 74
5
  7

 75
16
 76
0
 77
2
 78
300
147
1.0
148
0.0
149
0.0
100
AcDbLayout
  1
Layout1
 70
1
 71
1
 10
0.0
 20
0.0
 11
420.0
 21
297.0
 12
0.0
 22
0.0
 32
0.0
 14
1e+20
 24
1e+20
 34
1e+20
 15
-1e+20
 25
-1e+20
 35
-1e+20
146
0.0
 13
0.0
 23
0.0
 33
0.0
 16
1.0
 26
0.0
 36
0.0
 17
0.0
 27
1.0
 37
0.0
 76
1
330
1B
  0
MATERIAL
  5
1F
102
{ACAD_REACTORS
330
E
102
}
330
E
100
AcDbMaterial
  1
ByBlock
  2

 70
0
 40
1.0
 71
1
 41
1.0
 91
-1023410177
 42
1.0
 72
1
  3

 73
1
 74
1
 75
1
 44
0.5
 73
0
 45
1.0
 46
1.0
 77
1
  4

 78
1
 79
1
170
1
 48
1.0
171
1
  6

172
1
173
1
174
1
140
1.0
141
1.0
175
1
  7

176
1
177
1
178
1
143
1.0
179
1
  8

270
1
271
1
272
1
145
1.0
146
1.0
273
1
  9

274
1
275
1
276
1
 42
1.0
 72
1
  3

 73
1
 74
1
 75
1
 94
63
  0
MATERIAL
  5
20
102
{ACAD_REACTORS
330
E
102
}
330
E
100
AcDbMaterial
  1
ByLayer
  2

 70
0
 40
1.0
 71
1
 41
1.0
 91
-1023410177
 42
1.0
 72
1
  3

 73
1
 74
1
 75
1
 44
0.5
 73
0
 45
1.0
 46
1.0
 77
1
  4

 78
1
 79
1
170
1
 48
1.0
171
1
  6

172
1
173
1
174
1
140
1.0
141
1.0
175
1
  7

176
1
177
1
178
1
143
1.0
179
1
  8

270
1
271
1
272
1
145
1.0
146
1.0
273
1
  9

274
1
275
1
276
1
 42
1.0
 72
1
  3

 73
1
 74
1
 75
1
 94
63
  0
MATERIAL
  5
21
102
{ACAD_REACTORS
330
E
102
}
330
E
100
AcDbMaterial
  1
Global
  2

 70
0
 40
1.0
 71
1
 41
1.0
 91
-1023410177
 42
1.0
 72
1
  3

 73
1
 74
1
 75
1
 44
0.5
 73
0
 45
1.0
 46
1.0
 77
1
  4

 78
1
 79
1
170
1
 48
1.0
171
1
  6

172
1
173
1
174
1
140
1.0
141
1.0
175
1
  7

176
1
177
1
178
1
143
1.0
179
1
  8

270
1
271
1
272
1
145
1.0
146
1.0
273
1
  9

274
1
275
1
276
1
 42
1.0
 72
1
  3

 73
1
 74
1
 75
1
 94
63
  0
MLINESTYLE
  5
22
102
{ACAD_REACTORS
330
10
102
}
330
10
100
AcDbMlineStyle
  2
Standard
 70
0
  3

 62
256
 51
90.0
 52
90.0
 71
2
 49
0.5
 62
256
  6
BYLAYER
 49
-0.5
 62
256
  6
BYLAYER
  0
MLEADERSTYLE
  5
2C
102
{ACAD_REACTORS
330
F
102
}
330
F
100
AcDbMLeaderStyle
179
2
170
2
171
1
172
0
 90
2
 40
0.0
 41
0.0
173
1
 91
-1056964608
 92
-2
290
1
 42
2.0
291
1
 43
8.0
  3
Standard
 44
4.0
300

342
29
174
1
175
1
176
0
178
1
 93
-1056964608
 45
4.0
292
0
297
0
 46
4.0
 94
-1056964608
 47
1.0
 49
1.0
140
1.0
294
1
141
0.0
177
0
142
1.0
295
0
296
0
143
3.75
271
0
272
9
273
9
  0
DICTIONARY
  5
2D
330
A
100
AcDbDictionary
281
1
  3
CREATED_BY_EZDXF
350
2E
  3
WRITTEN_BY_EZDXF
350
41
  0
DICTIONARYVAR
  5
2E
330
2D
100
DictionaryVariables
280
0
  1
1.0.3 @ 2025-05-29T09:41:25.343759+00:00
  0
DICTIONARYVAR
  5
41
330
2D
100
DictionaryVariables
280
0
  1
1.0.3 @ 2025-05-29T09:41:25.349513+00:00
  0
ENDSEC
  0
EOF
