  0
SECTION
  2
HEADER
  9
$ACADVER
  1
AC1027
  9
$ACADMAINTVER
 70
105
  9
$DWGCODEPAGE
  3
ANSI_1252
  9
$LASTSAVEDBY
  1
ezdxf
  9
$REQUIREDVERSIONS
160
0
  9
$INSBASE
 10
0.0
 20
0.0
 30
0.0
  9
$EXTMIN
 10
1e+20
 20
1e+20
 30
1e+20
  9
$EXTMAX
 10
-1e+20
 20
-1e+20
 30
-1e+20
  9
$LIMMIN
 10
0.0
 20
0.0
  9
$LIMMAX
 10
420.0
 20
297.0
  9
$ORTHOMODE
 70
0
  9
$REGENMODE
 70
1
  9
$FILLMODE
 70
1
  9
$QTEXTMODE
 70
0
  9
$MIRRTEXT
 70
1
  9
$LTSCALE
 40
1.0
  9
$ATTMODE
 70
1
  9
$TEXTSIZE
 40
2.5
  9
$TRACEWID
 40
1.0
  9
$TEXTSTYLE
  7
Standard
  9
$CLAYER
  8
0
  9
$CELTYPE
  6
ByLayer
  9
$CECOLOR
 62
256
  9
$CELTSCALE
 40
1.0
  9
$DISPSILH
 70
0
  9
$DIMSCALE
 40
1.0
  9
$DIMASZ
 40
2.5
  9
$DIMEXO
 40
0.625
  9
$DIMDLI
 40
3.75
  9
$DIMRND
 40
0.0
  9
$DIMDLE
 40
0.0
  9
$DIMEXE
 40
1.25
  9
$DIMTP
 40
0.0
  9
$DIMTM
 40
0.0
  9
$DIMTXT
 40
2.5
  9
$DIMCEN
 40
2.5
  9
$DIMTSZ
 40
0.0
  9
$DIMTOL
 70
0
  9
$DIMLIM
 70
0
  9
$DIMTIH
 70
0
  9
$DIMTOH
 70
0
  9
$DIMSE1
 70
0
  9
$DIMSE2
 70
0
  9
$DIMTAD
 70
1
  9
$DIMZIN
 70
8
  9
$DIMBLK
  1

  9
$DIMASO
 70
1
  9
$DIMSHO
 70
1
  9
$DIMPOST
  1

  9
$DIMAPOST
  1

  9
$DIMALT
 70
0
  9
$DIMALTD
 70
3
  9
$DIMALTF
 40
0.03937007874
  9
$DIMLFAC
 40
1.0
  9
$DIMTOFL
 70
1
  9
$DIMTVP
 40
0.0
  9
$DIMTIX
 70
0
  9
$DIMSOXD
 70
0
  9
$DIMSAH
 70
0
  9
$DIMBLK1
  1

  9
$DIMBLK2
  1

  9
$DIMSTYLE
  2
ISO-25
  9
$DIMCLRD
 70
0
  9
$DIMCLRE
 70
0
  9
$DIMCLRT
 70
0
  9
$DIMTFAC
 40
1.0
  9
$DIMGAP
 40
0.625
  9
$DIMJUST
 70
0
  9
$DIMSD1
 70
0
  9
$DIMSD2
 70
0
  9
$DIMTOLJ
 70
0
  9
$DIMTZIN
 70
8
  9
$DIMALTZ
 70
0
  9
$DIMALTTZ
 70
0
  9
$DIMUPT
 70
0
  9
$DIMDEC
 70
2
  9
$DIMTDEC
 70
2
  9
$DIMALTU
 70
2
  9
$DIMALTTD
 70
3
  9
$DIMTXSTY
  7
Standard
  9
$DIMAUNIT
 70
0
  9
$DIMADEC
 70
0
  9
$DIMALTRND
 40
0.0
  9
$DIMAZIN
 70
0
  9
$DIMDSEP
 70
44
  9
$DIMATFIT
 70
3
  9
$DIMFRAC
 70
0
  9
$DIMLDRBLK
  1

  9
$DIMLUNIT
 70
2
  9
$DIMLWD
 70
-2
  9
$DIMLWE
 70
-2
  9
$DIMTMOVE
 70
0
  9
$DIMFXL
 40
1.0
  9
$DIMFXLON
 70
0
  9
$DIMJOGANG
 40
0.785398163397
  9
$DIMTFILL
 70
0
  9
$DIMTFILLCLR
 70
0
  9
$DIMARCSYM
 70
0
  9
$DIMLTYPE
  6

  9
$DIMLTEX1
  6

  9
$DIMLTEX2
  6

  9
$DIMTXTDIRECTION
 70
0
  9
$LUNITS
 70
2
  9
$LUPREC
 70
4
  9
$SKETCHINC
 40
1.0
  9
$FILLETRAD
 40
10.0
  9
$AUNITS
 70
0
  9
$AUPREC
 70
2
  9
$MENU
  1
.
  9
$ELEVATION
 40
0.0
  9
$PELEVATION
 40
0.0
  9
$THICKNESS
 40
0.0
  9
$LIMCHECK
 70
0
  9
$CHAMFERA
 40
0.0
  9
$CHAMFERB
 40
0.0
  9
$CHAMFERC
 40
0.0
  9
$CHAMFERD
 40
0.0
  9
$SKPOLY
 70
0
  9
$TDCREATE
 40
2460825.778761574
  9
$TDUCREATE
 40
2458532.153996898
  9
$TDUPDATE
 40
2460825.778761574
  9
$TDUUPDATE
 40
2458532.1544311
  9
$TDINDWG
 40
0.0
  9
$TDUSRTIMER
 40
0.0
  9
$USRTIMER
 70
1
  9
$ANGBASE
 50
0.0
  9
$ANGDIR
 70
0
  9
$PDMODE
 70
0
  9
$PDSIZE
 40
0.0
  9
$PLINEWID
 40
0.0
  9
$SPLFRAME
 70
0
  9
$SPLINETYPE
 70
6
  9
$SPLINESEGS
 70
8
  9
$HANDSEED
  5
49
  9
$SURFTAB1
 70
6
  9
$SURFTAB2
 70
6
  9
$SURFTYPE
 70
6
  9
$SURFU
 70
6
  9
$SURFV
 70
6
  9
$UCSBASE
  2

  9
$UCSNAME
  2

  9
$UCSORG
 10
0.0
 20
0.0
 30
0.0
  9
$UCSXDIR
 10
1.0
 20
0.0
 30
0.0
  9
$UCSYDIR
 10
0.0
 20
1.0
 30
0.0
  9
$UCSORTHOREF
  2

  9
$UCSORTHOVIEW
 70
0
  9
$UCSORGTOP
 10
0.0
 20
0.0
 30
0.0
  9
$UCSORGBOTTOM
 10
0.0
 20
0.0
 30
0.0
  9
$UCSORGLEFT
 10
0.0
 20
0.0
 30
0.0
  9
$UCSORGRIGHT
 10
0.0
 20
0.0
 30
0.0
  9
$UCSORGFRONT
 10
0.0
 20
0.0
 30
0.0
  9
$UCSORGBACK
 10
0.0
 20
0.0
 30
0.0
  9
$PUCSBASE
  2

  9
$PUCSNAME
  2

  9
$PUCSORG
 10
0.0
 20
0.0
 30
0.0
  9
$PUCSXDIR
 10
1.0
 20
0.0
 30
0.0
  9
$PUCSYDIR
 10
0.0
 20
1.0
 30
0.0
  9
$PUCSORTHOREF
  2

  9
$PUCSORTHOVIEW
 70
0
  9
$PUCSORGTOP
 10
0.0
 20
0.0
 30
0.0
  9
$PUCSORGBOTTOM
 10
0.0
 20
0.0
 30
0.0
  9
$PUCSORGLEFT
 10
0.0
 20
0.0
 30
0.0
  9
$PUCSORGRIGHT
 10
0.0
 20
0.0
 30
0.0
  9
$PUCSORGFRONT
 10
0.0
 20
0.0
 30
0.0
  9
$PUCSORGBACK
 10
0.0
 20
0.0
 30
0.0
  9
$USERI1
 70
0
  9
$USERI2
 70
0
  9
$USERI3
 70
0
  9
$USERI4
 70
0
  9
$USERI5
 70
0
  9
$USERR1
 40
0.0
  9
$USERR2
 40
0.0
  9
$USERR3
 40
0.0
  9
$USERR4
 40
0.0
  9
$USERR5
 40
0.0
  9
$WORLDVIEW
 70
1
  9
$SHADEDGE
 70
3
  9
$SHADEDIF
 70
70
  9
$TILEMODE
 70
1
  9
$MAXACTVP
 70
64
  9
$PINSBASE
 10
0.0
 20
0.0
 30
0.0
  9
$PLIMCHECK
 70
0
  9
$PEXTMIN
 10
1e+20
 20
1e+20
 30
1e+20
  9
$PEXTMAX
 10
-1e+20
 20
-1e+20
 30
-1e+20
  9
$PLIMMIN
 10
0.0
 20
0.0
  9
$PLIMMAX
 10
420.0
 20
297.0
  9
$UNITMODE
 70
0
  9
$VISRETAIN
 70
1
  9
$PLINEGEN
 70
0
  9
$PSLTSCALE
 70
1
  9
$TREEDEPTH
 70
3020
  9
$CMLSTYLE
  2
Standard
  9
$CMLJUST
 70
0
  9
$CMLSCALE
 40
20.0
  9
$PROXYGRAPHICS
 70
1
  9
$MEASUREMENT
 70
1
  9
$CELWEIGHT
370
-1
  9
$ENDCAPS
280
0
  9
$JOINSTYLE
280
0
  9
$LWDISPLAY
290
0
  9
$INSUNITS
 70
6
  9
$HYPERLINKBASE
  1

  9
$STYLESHEET
  1

  9
$XEDIT
290
1
  9
$CEPSNTYPE
380
0
  9
$PSTYLEMODE
290
1
  9
$FINGERPRINTGUID
  2
{68070473-0F13-48DE-A375-F60042EFAA43}
  9
$VERSIONGUID
  2
{0B653649-DA61-4E38-904F-62E1C682A5FE}
  9
$EXTNAMES
290
1
  9
$PSVPSCALE
 40
0.0
  9
$OLESTARTUP
290
0
  9
$SORTENTS
280
127
  9
$INDEXCTL
280
0
  9
$HIDETEXT
280
1
  9
$XCLIPFRAME
280
0
  9
$HALOGAP
280
0
  9
$OBSCOLOR
 70
257
  9
$OBSLTYPE
280
0
  9
$INTERSECTIONDISPLAY
280
0
  9
$INTERSECTIONCOLOR
 70
257
  9
$DIMASSOC
280
2
  9
$PROJECTNAME
  1

  9
$CAMERADISPLAY
290
0
  9
$LENSLENGTH
 40
50.0
  9
$CAMERAHEIGHT
 40
0.0
  9
$STEPSPERSEC
 40
24.0
  9
$STEPSIZE
 40
100.0
  9
$3DDWFPREC
 40
2.0
  9
$PSOLWIDTH
 40
0.005
  9
$PSOLHEIGHT
 40
0.08
  9
$LOFTANG1
 40
1.570796326795
  9
$LOFTANG2
 40
1.570796326795
  9
$LOFTMAG1
 40
0.0
  9
$LOFTMAG2
 40
0.0
  9
$LOFTPARAM
 70
7
  9
$LOFTNORMALS
280
1
  9
$LATITUDE
 40
37.795
  9
$LONGITUDE
 40
-122.394
  9
$NORTHDIRECTION
 40
0.0
  9
$TIMEZONE
 70
-8000
  9
$LIGHTGLYPHDISPLAY
280
1
  9
$TILEMODELIGHTSYNCH
280
1
  9
$CMATERIAL
347
20
  9
$SOLIDHIST
280
0
  9
$SHOWHIST
280
1
  9
$DWFFRAME
280
2
  9
$DGNFRAME
280
2
  9
$REALWORLDSCALE
290
1
  9
$INTERFERECOLOR
 62
256
  9
$CSHADOW
280
0
  9
$SHADOWPLANELOCATION
 40
0.0
  0
ENDSEC
  0
SECTION
  2
CLASSES
  0
CLASS
  1
ACDBDICTIONARYWDFLT
  2
AcDbDictionaryWithDefault
  3
ObjectDBX Classes
 90
0
 91
0
280
0
281
0
  0
CLASS
  1
SUN
  2
AcDbSun
  3
SCENEOE
 90
1153
 91
0
280
0
281
0
  0
CLASS
  1
VISUALSTYLE
  2
AcDbVisualStyle
  3
ObjectDBX Classes
 90
4095
 91
0
280
0
281
0
  0
CLASS
  1
MATERIAL
  2
AcDbMaterial
  3
ObjectDBX Classes
 90
1153
 91
0
280
0
281
0
  0
CLASS
  1
SCALE
  2
AcDbScale
  3
ObjectDBX Classes
 90
1153
 91
0
280
0
281
0
  0
CLASS
  1
TABLESTYLE
  2
AcDbTableStyle
  3
ObjectDBX Classes
 90
4095
 91
0
280
0
281
0
  0
CLASS
  1
MLEADERSTYLE
  2
AcDbMLeaderStyle
  3
ACDB_MLEADERSTYLE_CLASS
 90
4095
 91
0
280
0
281
0
  0
CLASS
  1
DICTIONARYVAR
  2
AcDbDictionaryVar
  3
ObjectDBX Classes
 90
0
 91
0
280
0
281
0
  0
CLASS
  1
CELLSTYLEMAP
  2
AcDbCellStyleMap
  3
ObjectDBX Classes
 90
1152
 91
0
280
0
281
0
  0
CLASS
  1
MENTALRAYRENDERSETTINGS
  2
AcDbMentalRayRenderSettings
  3
SCENEOE
 90
1024
 91
0
280
0
281
0
  0
CLASS
  1
ACDBDETAILVIEWSTYLE
  2
AcDbDetailViewStyle
  3
ObjectDBX Classes
 90
1025
 91
0
280
0
281
0
  0
CLASS
  1
ACDBSECTIONVIEWSTYLE
  2
AcDbSectionViewStyle
  3
ObjectDBX Classes
 90
1025
 91
0
280
0
281
0
  0
CLASS
  1
RASTERVARIABLES
  2
AcDbRasterVariables
  3
ISM
 90
0
 91
0
280
0
281
0
  0
CLASS
  1
LAYOUT
  2
AcDbLayout
  3
ObjectDBX Classes
 90
0
 91
0
280
0
281
0
  0
CLASS
  1
ACDBPLACEHOLDER
  2
AcDbPlaceHolder
  3
ObjectDBX Classes
 90
0
 91
0
280
0
281
0
  0
ENDSEC
  0
SECTION
  2
TABLES
  0
TABLE
  2
VPORT
  5
8
330
0
100
AcDbSymbolTable
 70
1
  0
VPORT
  5
23
330
8
100
AcDbSymbolTableRecord
100
AcDbViewportTableRecord
  2
*Active
 70
0
 10
0.0
 20
0.0
 11
1.0
 21
1.0
 12
0.0
 22
0.0
 13
0.0
 23
0.0
 14
0.5
 24
0.5
 15
0.5
 25
0.5
 16
0.0
 26
0.0
 36
1.0
 17
0.0
 27
0.0
 37
0.0
 40
1000.0
 41
1.34
 42
50.0
 43
0.0
 44
0.0
 50
0.0
 51
0.0
 71
0
 72
1000
 73
1
 74
3
 75
0
 76
0
 77
0
 78
0
281
0
 65
0
146
0.0
  0
ENDTAB
  0
TABLE
  2
LTYPE
  5
2
330
0
100
AcDbSymbolTable
 70
3
  0
LTYPE
  5
24
330
2
100
AcDbSymbolTableRecord
100
AcDbLinetypeTableRecord
  2
ByBlock
 70
0
  3

 72
65
 73
0
 40
0.0
  0
LTYPE
  5
25
330
2
100
AcDbSymbolTableRecord
100
AcDbLinetypeTableRecord
  2
ByLayer
 70
0
  3

 72
65
 73
0
 40
0.0
  0
LTYPE
  5
26
330
2
100
AcDbSymbolTableRecord
100
AcDbLinetypeTableRecord
  2
Continuous
 70
0
  3

 72
65
 73
0
 40
0.0
  0
ENDTAB
  0
TABLE
  2
LAYER
  5
1
330
0
100
AcDbSymbolTable
 70
2
  0
LAYER
  5
27
330
1
100
AcDbSymbolTableRecord
100
AcDbLayerTableRecord
  2
0
 70
0
 62
7
  6
Continuous
370
-3
390
13
347
21
  0
LAYER
  5
28
330
1
100
AcDbSymbolTableRecord
100
AcDbLayerTableRecord
  2
Defpoints
 70
0
 62
7
  6
Continuous
290
0
370
-3
390
13
347
21
  0
ENDTAB
  0
TABLE
  2
STYLE
  5
5
330
0
100
AcDbSymbolTable
 70
1
  0
STYLE
  5
29
330
5
100
AcDbSymbolTableRecord
100
AcDbTextStyleTableRecord
  2
Standard
 70
0
 40
0.0
 41
1.0
 50
0.0
 71
0
 42
2.5
  3
txt
  4

  0
ENDTAB
  0
TABLE
  2
VIEW
  5
7
330
0
100
AcDbSymbolTable
 70
0
  0
ENDTAB
  0
TABLE
  2
UCS
  5
6
330
0
100
AcDbSymbolTable
 70
0
  0
ENDTAB
  0
TABLE
  2
APPID
  5
3
330
0
100
AcDbSymbolTable
 70
3
  0
APPID
  5
2A
330
3
100
AcDbSymbolTableRecord
100
AcDbRegAppTableRecord
  2
ACAD
 70
0
  0
APPID
  5
46
330
3
100
AcDbSymbolTableRecord
100
AcDbRegAppTableRecord
  2
HATCHBACKGROUNDCOLOR
 70
0
  0
APPID
  5
47
330
3
100
AcDbSymbolTableRecord
100
AcDbRegAppTableRecord
  2
EZDXF
 70
0
  0
ENDTAB
  0
TABLE
  2
DIMSTYLE
  5
4
330
0
100
AcDbSymbolTable
 70
1
100
AcDbDimStyleTable
  0
DIMSTYLE
105
2B
330
4
100
AcDbSymbolTableRecord
100
AcDbDimStyleTableRecord
  2
Standard
 70
0
 40
1.0
 41
2.5
 42
0.625
 43
3.75
 44
1.25
 45
0.0
 46
0.0
 47
0.0
 48
0.0
 49
2.5
140
2.5
141
2.5
142
0.0
143
0.03937007874
144
1.0
145
0.0
146
1.0
147
0.625
148
0.0
 69
0
 70
0
 71
0
 72
0
 73
0
 74
0
 75
0
 76
0
 77
1
 78
8
 79
3
170
0
171
3
172
1
173
0
174
0
175
0
176
0
177
0
178
0
179
2
271
2
272
2
273
2
274
3
275
0
276
0
277
2
278
44
279
0
280
0
281
0
282
0
283
0
284
8
285
0
286
0
288
0
289
3
290
0
371
-2
372
-2
  0
ENDTAB
  0
TABLE
  2
BLOCK_RECORD
  5
9
330
0
100
AcDbSymbolTable
 70
2
  0
BLOCK_RECORD
  5
17
330
9
100
AcDbSymbolTableRecord
100
AcDbBlockTableRecord
  2
*Model_Space
340
1A
 70
0
280
1
281
0
  0
BLOCK_RECORD
  5
1B
330
9
100
AcDbSymbolTableRecord
100
AcDbBlockTableRecord
  2
*Paper_Space
340
1E
 70
0
280
1
281
0
  0
ENDTAB
  0
ENDSEC
  0
SECTION
  2
BLOCKS
  0
BLOCK
  5
18
330
17
100
AcDbEntity
  8
0
100
AcDbBlockBegin
  2
*Model_Space
 70
0
 10
0.0
 20
0.0
 30
0.0
  3
*Model_Space
  1

  0
ENDBLK
  5
19
330
17
100
AcDbEntity
  8
0
100
AcDbBlockEnd
  0
BLOCK
  5
1C
330
1B
100
AcDbEntity
  8
0
100
AcDbBlockBegin
  2
*Paper_Space
 70
0
 10
0.0
 20
0.0
 30
0.0
  3
*Paper_Space
  1

  0
ENDBLK
  5
1D
330
1B
100
AcDbEntity
  8
0
100
AcDbBlockEnd
  0
ENDSEC
  0
SECTION
  2
ENTITIES
  0
LWPOLYLINE
  5
2F
330
17
100
AcDbEntity
  8
0
100
AcDbPolyline
 90
51
 70
0
 10
-8.0
 20
-45.0
 10
-7.91
 20
-45.0
 10
-7.82
 20
-45.0
 10
-7.73
 20
-45.0
 10
-7.640000000000001
 20
-45.0
 10
-7.550000000000001
 20
-45.0
 10
-7.460000000000001
 20
-45.0
 10
-7.370000000000001
 20
-45.0
 10
-7.280000000000001
 20
-45.0
 10
-7.190000000000001
 20
-45.0
 10
-7.100000000000001
 20
-45.0
 10
-7.010000000000002
 20
-45.0
 10
-6.920000000000002
 20
-45.0
 10
-6.829999999999998
 20
-45.0
 10
-6.739999999999998
 20
-45.0
 10
-6.649999999999999
 20
-45.0
 10
-6.559999999999999
 20
-45.0
 10
-6.469999999999999
 20
-45.0
 10
-6.379999999999999
 20
-45.0
 10
-6.289999999999999
 20
-45.0
 10
-6.199999999999999
 20
-45.0
 10
-6.109999999999999
 20
-45.0
 10
-6.02
 20
-45.0
 10
-5.93
 20
-45.0
 10
-5.84
 20
-45.0
 10
-5.75
 20
-45.0
 10
-5.66
 20
-45.0
 10
-5.57
 20
-45.0
 10
-5.48
 20
-45.0
 10
-5.390000000000001
 20
-45.0
 10
-5.300000000000001
 20
-45.0
 10
-5.210000000000001
 20
-45.0
 10
-5.120000000000001
 20
-45.0
 10
-5.029999999999999
 20
-45.0
 10
-4.9399999999999995
 20
-45.0
 10
-4.85
 20
-45.0
 10
-4.76
 20
-45.0
 10
-4.67
 20
-45.0
 10
-4.58
 20
-45.0
 10
-4.49
 20
-45.0
 10
-4.4
 20
-45.0
 10
-4.3100000000000005
 20
-45.0
 10
-4.220000000000001
 20
-45.0
 10
-4.129999999999999
 20
-45.0
 10
-4.039999999999999
 20
-45.0
 10
-3.9499999999999993
 20
-45.0
 10
-3.8599999999999994
 20
-45.0
 10
-3.7699999999999996
 20
-45.0
 10
-3.6799999999999997
 20
-45.0
 10
-3.59
 20
-45.0
 10
-3.5
 20
-45.0
  0
LWPOLYLINE
  5
30
330
17
100
AcDbEntity
  8
0
100
AcDbPolyline
 90
51
 70
0
 10
3.5
 20
-45.0
 10
3.59
 20
-45.0
 10
3.6799999999999997
 20
-45.0
 10
3.7699999999999996
 20
-45.0
 10
3.8600000000000003
 20
-45.0
 10
3.95
 20
-45.0
 10
4.04
 20
-45.0
 10
4.13
 20
-45.0
 10
4.22
 20
-45.0
 10
4.3100000000000005
 20
-45.0
 10
4.4
 20
-45.0
 10
4.49
 20
-45.0
 10
4.58
 20
-45.0
 10
4.67
 20
-45.0
 10
4.76
 20
-45.0
 10
4.85
 20
-45.0
 10
4.9399999999999995
 20
-45.0
 10
5.03
 20
-45.0
 10
5.12
 20
-45.0
 10
5.21
 20
-45.0
 10
5.3
 20
-45.0
 10
5.39
 20
-45.0
 10
5.48
 20
-45.0
 10
5.57
 20
-45.0
 10
5.66
 20
-45.0
 10
5.75
 20
-45.0
 10
5.84
 20
-45.0
 10
5.93
 20
-45.0
 10
6.02
 20
-45.0
 10
6.109999999999999
 20
-45.0
 10
6.2
 20
-45.0
 10
6.29
 20
-45.0
 10
6.38
 20
-45.0
 10
6.470000000000001
 20
-45.0
 10
6.5600000000000005
 20
-45.0
 10
6.65
 20
-45.0
 10
6.74
 20
-45.0
 10
6.83
 20
-45.0
 10
6.92
 20
-45.0
 10
7.01
 20
-45.0
 10
7.1
 20
-45.0
 10
7.1899999999999995
 20
-45.0
 10
7.279999999999999
 20
-45.0
 10
7.37
 20
-45.0
 10
7.46
 20
-45.0
 10
7.55
 20
-45.0
 10
7.64
 20
-45.0
 10
7.73
 20
-45.0
 10
7.82
 20
-45.0
 10
7.91
 20
-45.0
 10
8.0
 20
-45.0
  0
LWPOLYLINE
  5
31
330
17
100
AcDbEntity
  8
0
100
AcDbPolyline
 90
51
 70
0
 10
3.0
 20
-16.0
 10
3.0999999999999996
 20
-16.0
 10
3.1999999999999993
 20
-16.0
 10
3.3000000000000007
 20
-16.0
 10
3.4000000000000004
 20
-16.0
 10
3.5
 20
-16.0
 10
3.5999999999999996
 20
-16.0
 10
3.6999999999999993
 20
-16.0
 10
3.8000000000000007
 20
-16.0
 10
3.9000000000000004
 20
-16.0
 10
4.0
 20
-16.0
 10
4.1
 20
-16.0
 10
4.199999999999999
 20
-16.0
 10
4.300000000000001
 20
-16.0
 10
4.4
 20
-16.0
 10
4.5
 20
-16.0
 10
4.6
 20
-16.0
 10
4.699999999999999
 20
-16.0
 10
4.800000000000001
 20
-16.0
 10
4.9
 20
-16.0
 10
5.0
 20
-16.0
 10
5.1
 20
-16.0
 10
5.199999999999999
 20
-16.0
 10
5.300000000000001
 20
-16.0
 10
5.4
 20
-16.0
 10
5.5
 20
-16.0
 10
5.6
 20
-16.0
 10
5.699999999999999
 20
-16.0
 10
5.800000000000001
 20
-16.0
 10
5.9
 20
-16.0
 10
6.0
 20
-16.0
 10
6.1
 20
-16.0
 10
6.199999999999999
 20
-16.0
 10
6.300000000000001
 20
-16.0
 10
6.4
 20
-16.0
 10
6.5
 20
-16.0
 10
6.6
 20
-16.0
 10
6.699999999999999
 20
-16.0
 10
6.800000000000001
 20
-16.0
 10
6.9
 20
-16.0
 10
7.0
 20
-16.0
 10
7.1
 20
-16.0
 10
7.199999999999999
 20
-16.0
 10
7.300000000000001
 20
-16.0
 10
7.4
 20
-16.0
 10
7.5
 20
-16.0
 10
7.6
 20
-16.0
 10
7.699999999999999
 20
-16.0
 10
7.800000000000001
 20
-16.0
 10
7.9
 20
-16.0
 10
8.0
 20
-16.0
  0
LWPOLYLINE
  5
32
330
17
100
AcDbEntity
  8
0
100
AcDbPolyline
 90
51
 70
0
 10
3.0000000000000044
 20
-16.0
 10
2.9057733614943926
 20
-15.998519858939927
 10
2.8116396167555666
 20
-15.994080887128483
 10
2.7176917910573164
 20
-15.986687476510788
 10
2.624022577688124
 20
-15.97634692136895
 10
2.5307243379511646
 20
-15.963069418322073
 10
2.437889101164306
 20
-15.946868066326253
 10
2.345608564660109
 20
-15.927758866674573
 10
2.2539738455591287
 20
-15.905760670794098
 10
2.163075154865488
 20
-15.88089514589946
 10
2.0730023423130413
 20
-15.853186878884303
 10
1.9838443055174917
 20
-15.82266321563906
 10
1.8956889632867322
 20
-15.789354254665886
 10
1.8086232556208444
 20
-15.753292847078644
 10
1.7227331437120994
 20
-15.714514596602916
 10
1.6381035102198125
 20
-15.673057812428377
 10
1.554817634538406
 20
-15.628963289858273
 10
1.472957814098621
 20
-15.582274614747153
 10
1.3926048703484462
 20
-15.53303788368379
 10
1.313838049686948
 20
-15.481301653733976
 10
1.2367350234642722
 20
-15.427116942440508
 10
1.1613718879816437
 20
-15.3705372278232
 10
1.087823145039574
 20
-15.311618433239257
 10
1.0161612320865139
 20
-15.250418586972252
 10
0.9464568507273745
 20
-15.186998131888377
 10
0.8787787695958824
 20
-15.121419739007901
 10
0.8131936495784986
 20
-15.053748164154008
 10
0.7497660438144187
 20
-14.984050247952789
 10
0.6885583976955725
 20
-14.91239491583324
 10
0.6296306147327834
 20
-14.838851811746501
 10
0.5730389188645418
 20
-14.763486922766383
 10
0.5188402351504968
 20
-14.68637639614197
 10
0.46708925773556126
 20
-14.607598883181247
 10
0.41783792708601547
 20
-14.527234002363876
 10
0.37113542998950755
 20
-14.445362339341207
 10
0.32702819955505313
 20
-14.362065446936269
 10
0.2855599152130351
 20
-14.277425845143775
 10
0.24677150271520432
 20
-14.19152702113012
 10
0.21070113413467906
 20
-14.104453429233384
 10
0.17738422786594527
 20
-14.01629049096333
 10
0.14685344862485616
 20
-13.927124595001398
 10
0.1191387074486332
 20
-13.837043097200722
 10
0.09426716169586447
 20
-13.746134320586107
 10
0.07226321504650624
 20
-13.654487555354047
 10
0.05314851750188232
 20
-13.562193058872719
 10
0.03694196538468397
 20
-13.469342055681981
 10
0.023659701338969885
 20
-13.376026737493374
 10
0.013315114330166744
 20
-13.282340263190125
 10
0.005918839645068452
 20
-13.188376758827138
 10
0.0014787588918364625
 20
-13.094231317631003
 10
0.0
 20
-12.999999999999996
  0
LWPOLYLINE
  5
33
330
17
100
AcDbEntity
  8
0
100
AcDbPolyline
 90
51
 70
0
 10
-8.0
 20
-38.82683432365094
 10
-8.0
 20
-39.04046993353779
 10
-8.0
 20
-39.25410554342465
 10
-8.0
 20
-39.4677411533115
 10
-8.0
 20
-39.67747889913277
 10
-8.0
 20
-39.88201949286661
 10
-8.0
 20
-40.08656008660044
 10
-8.0
 20
-40.291100680334274
 10
-8.0
 20
-40.48660480063276
 10
-8.0
 20
-40.68060284202536
 10
-8.0
 20
-40.87460088341795
 10
-8.0
 20
-41.065194502306966
 10
-8.0
 20
-41.24727706493704
 10
-8.0
 20
-41.429359627567116
 10
-8.0
 20
-41.61144219019719
 10
-8.0
 20
-41.78409326768411
 10
-8.0
 20
-41.95297175111377
 10
-8.0
 20
-42.12185023454344
 10
-8.0
 20
-42.28867168451389
 10
-8.0
 20
-42.4431509337291
 10
-8.0
 20
-42.59763018294431
 10
-8.0
 20
-42.752109432159514
 10
-8.0
 20
-42.897735832415535
 10
-8.0
 20
-43.03672259595218
 10
-8.0
 20
-43.17570935948882
 10
-8.0
 20
-43.31469612302546
 10
-8.0
 20
-43.43720678992285
 10
-8.0
 20
-43.55971745682023
 10
-8.0
 20
-43.682228123717614
 10
-8.0
 20
-43.79730603087062
 10
-8.0
 20
-43.902473591697806
 10
-8.0
 20
-44.00764115252499
 10
-8.0
 20
-44.112808713352166
 10
-8.0
 20
-44.202472807206114
 10
-8.0
 20
-44.28955298989785
 10
-8.0
 20
-44.376633172589585
 10
-8.0
 20
-44.4583694565348
 10
-8.0
 20
-44.5267459936137
 10
-8.0
 20
-44.5951225306926
 10
-8.0
 20
-44.663499067771504
 10
-8.0
 20
-44.71817021401456
 10
-8.0
 20
-44.76735920392329
 10
-8.0
 20
-44.81654819383202
 10
-8.0
 20
-44.86294637542211
 10
-8.0
 20
-44.89259970710039
 10
-8.0
 20
-44.92225303877866
 10
-8.0
 20
-44.95190637045693
 10
-8.0
 20
-44.970276550588004
 10
-8.0
 20
-44.98018436705867
 10
-8.0
 20
-44.990092183529335
 10
-8.0
 20
-45.0
  0
LWPOLYLINE
  5
34
330
17
100
AcDbEntity
  8
0
100
AcDbPolyline
 90
51
 70
0
 10
-8.0
 20
-38.82683432365
 10
-8.0
 20
-38.52831971097939
 10
-8.0
 20
-38.22980509830878
 10
-8.0
 20
-37.93129048563817
 10
-8.0
 20
-37.632775872967564
 10
-8.0
 20
-37.334261260296955
 10
-8.0
 20
-37.03574664762635
 10
-8.0
 20
-36.73723203495574
 10
-8.0
 20
-36.43871742228513
 10
-8.0
 20
-36.14020280961452
 10
-8.0
 20
-35.84168819694391
 10
-8.0
 20
-35.543173584273305
 10
-8.0
 20
-35.244658971602696
 10
-8.0
 20
-34.94614435893209
 10
-8.0
 20
-34.64762974626147
 10
-8.0
 20
-34.34911513359087
 10
-8.0
 20
-34.050600520920256
 10
-8.0
 20
-33.75208590824965
 10
-8.0
 20
-33.45357129557904
 10
-8.0
 20
-33.15505668290843
 10
-8.0
 20
-32.85654207023782
 10
-8.0
 20
-32.55802745756721
 10
-8.0
 20
-32.259512844896605
 10
-8.0
 20
-31.960998232225997
 10
-8.0
 20
-31.66248361955539
 10
-8.0
 20
-31.36396900688478
 10
-8.0
 20
-31.06545439421417
 10
-8.0
 20
-30.766939781543563
 10
-8.0
 20
-30.468425168872955
 10
-8.0
 20
-30.169910556202346
 10
-8.0
 20
-29.871395943531738
 10
-8.0
 20
-29.57288133086113
 10
-8.0
 20
-29.27436671819052
 10
-8.0
 20
-28.975852105519913
 10
-8.0
 20
-28.677337492849304
 10
-8.0
 20
-28.378822880178696
 10
-8.0
 20
-28.080308267508087
 10
-8.0
 20
-27.781793654837475
 10
-8.0
 20
-27.48327904216687
 10
-8.0
 20
-27.184764429496262
 10
-8.0
 20
-26.886249816825654
 10
-8.0
 20
-26.58773520415504
 10
-8.0
 20
-26.289220591484433
 10
-8.0
 20
-25.990705978813825
 10
-8.0
 20
-25.692191366143216
 10
-8.0
 20
-25.393676753472604
 10
-8.0
 20
-25.095162140801996
 10
-8.0
 20
-24.796647528131388
 10
-8.0
 20
-24.498132915460783
 10
-8.0
 20
-24.199618302790174
 10
-8.0
 20
-23.901103690119562
  0
LWPOLYLINE
  5
35
330
17
100
AcDbEntity
  8
0
100
AcDbPolyline
 90
51
 70
0
 10
-8.0
 20
-18.844505578596465
 10
-8.0
 20
-18.924814536845684
 10
-8.0
 20
-19.005123495094903
 10
-8.0
 20
-19.085432453344122
 10
-8.0
 20
-19.167239568094516
 10
-8.0
 20
-19.251044224846485
 10
-8.0
 20
-19.33484888159845
 10
-8.0
 20
-19.41865353835042
 10
-8.0
 20
-19.50539799403455
 10
-8.0
 20
-19.592632416207376
 10
-8.0
 20
-19.679866838380203
 10
-8.0
 20
-19.768061584547464
 10
-8.0
 20
-19.85865714070081
 10
-8.0
 20
-19.949252696854156
 10
-8.0
 20
-20.039848253007502
 10
-8.0
 20
-20.132793707858923
 10
-8.0
 20
-20.22667912218958
 10
-8.0
 20
-20.320564536520234
 10
-8.0
 20
-20.414909378577644
 10
-8.0
 20
-20.512010786995578
 10
-8.0
 20
-20.609112195413516
 10
-8.0
 20
-20.70621360383145
 10
-8.0
 20
-20.80510906929099
 10
-8.0
 20
-20.905350077531725
 10
-8.0
 20
-21.005591085772465
 10
-8.0
 20
-21.105832094013202
 10
-8.0
 20
-21.209133837740787
 10
-8.0
 20
-21.31243558146837
 10
-8.0
 20
-21.415737325195956
 10
-8.0
 20
-21.520315981691702
 10
-8.0
 20
-21.626597188544995
 10
-8.0
 20
-21.73287839539829
 10
-8.0
 20
-21.839159602251584
 10
-8.0
 20
-21.9479229634022
 10
-8.0
 20
-22.0571000169357
 10
-8.0
 20
-22.1662770704692
 10
-8.0
 20
-22.276256967412795
 10
-8.0
 20
-22.38824397288163
 10
-8.0
 20
-22.500230978350462
 10
-8.0
 20
-22.612217983819296
 10
-8.0
 20
-22.726149165337088
 10
-8.0
 20
-22.840858017274467
 10
-8.0
 20
-22.955566869211847
 10
-8.0
 20
-23.070651663948738
 10
-8.0
 20
-23.1879921154827
 10
-8.0
 20
-23.305332567016663
 10
-8.0
 20
-23.422673018550622
 10
-8.0
 20
-23.54146448855368
 10
-8.0
 20
-23.66134422240856
 10
-8.0
 20
-23.781223956263435
 10
-8.0
 20
-23.901103690118312
  0
LWPOLYLINE
  5
36
330
17
100
AcDbEntity
  8
0
100
AcDbPolyline
 90
51
 70
0
 10
-8.0
 20
0.0
 10
-8.0
 20
-0.376890111572
 10
-8.0
 20
-0.753780223144
 10
-8.0
 20
-1.130670334716
 10
-8.0
 20
-1.507560446288
 10
-8.0
 20
-1.8844505578600002
 10
-8.0
 20
-2.261340669432
 10
-8.0
 20
-2.6382307810039998
 10
-8.0
 20
-3.015120892576
 10
-8.0
 20
-3.3920110041480003
 10
-8.0
 20
-3.7689011157200003
 10
-8.0
 20
-4.1457912272919994
 10
-8.0
 20
-4.522681338864
 10
-8.0
 20
-4.899571450436
 10
-8.0
 20
-5.2764615620079995
 10
-8.0
 20
-5.6533516735800005
 10
-8.0
 20
-6.030241785152
 10
-8.0
 20
-6.407131896724
 10
-8.0
 20
-6.7840220082960005
 10
-8.0
 20
-7.160912119868
 10
-8.0
 20
-7.537802231440001
 10
-8.0
 20
-7.914692343012
 10
-8.0
 20
-8.291582454583999
 10
-8.0
 20
-8.668472566156
 10
-8.0
 20
-9.045362677728
 10
-8.0
 20
-9.4222527893
 10
-8.0
 20
-9.799142900872
 10
-8.0
 20
-10.176033012444
 10
-8.0
 20
-10.552923124015999
 10
-8.0
 20
-10.929813235587998
 10
-8.0
 20
-11.306703347160001
 10
-8.0
 20
-11.683593458732
 10
-8.0
 20
-12.060483570304
 10
-8.0
 20
-12.437373681876
 10
-8.0
 20
-12.814263793448
 10
-8.0
 20
-13.19115390502
 10
-8.0
 20
-13.568044016592001
 10
-8.0
 20
-13.944934128164
 10
-8.0
 20
-14.321824239736
 10
-8.0
 20
-14.698714351307999
 10
-8.0
 20
-15.075604462880001
 10
-8.0
 20
-15.452494574452
 10
-8.0
 20
-15.829384686024
 10
-8.0
 20
-16.206274797596
 10
-8.0
 20
-16.583164909167998
 10
-8.0
 20
-16.96005502074
 10
-8.0
 20
-17.336945132312
 10
-8.0
 20
-17.713835243884
 10
-8.0
 20
-18.090725355456
 10
-8.0
 20
-18.467615467028
 10
-8.0
 20
-18.8445055786
  0
LWPOLYLINE
  5
37
330
17
100
AcDbEntity
  8
0
100
AcDbPolyline
 90
51
 70
0
 10
-3.5
 20
-38.82683432365094
 10
-3.5
 20
-39.04046993353779
 10
-3.5
 20
-39.25410554342465
 10
-3.5
 20
-39.4677411533115
 10
-3.5
 20
-39.67747889913277
 10
-3.5
 20
-39.88201949286661
 10
-3.5
 20
-40.08656008660044
 10
-3.5
 20
-40.291100680334274
 10
-3.5
 20
-40.48660480063276
 10
-3.5
 20
-40.68060284202536
 10
-3.5
 20
-40.87460088341795
 10
-3.5
 20
-41.065194502306966
 10
-3.5
 20
-41.24727706493704
 10
-3.5
 20
-41.429359627567116
 10
-3.5
 20
-41.61144219019719
 10
-3.5
 20
-41.78409326768411
 10
-3.5
 20
-41.95297175111377
 10
-3.5
 20
-42.12185023454344
 10
-3.5
 20
-42.28867168451389
 10
-3.5
 20
-42.4431509337291
 10
-3.5
 20
-42.59763018294431
 10
-3.5
 20
-42.752109432159514
 10
-3.5
 20
-42.897735832415535
 10
-3.5
 20
-43.03672259595218
 10
-3.5
 20
-43.17570935948882
 10
-3.5
 20
-43.31469612302546
 10
-3.5
 20
-43.43720678992285
 10
-3.5
 20
-43.55971745682023
 10
-3.5
 20
-43.682228123717614
 10
-3.5
 20
-43.79730603087062
 10
-3.5
 20
-43.902473591697806
 10
-3.5
 20
-44.00764115252499
 10
-3.5
 20
-44.112808713352166
 10
-3.5
 20
-44.202472807206114
 10
-3.5
 20
-44.28955298989785
 10
-3.5
 20
-44.376633172589585
 10
-3.5
 20
-44.4583694565348
 10
-3.5
 20
-44.5267459936137
 10
-3.5
 20
-44.5951225306926
 10
-3.5
 20
-44.663499067771504
 10
-3.5
 20
-44.71817021401456
 10
-3.5
 20
-44.76735920392329
 10
-3.5
 20
-44.81654819383202
 10
-3.5
 20
-44.86294637542211
 10
-3.5
 20
-44.89259970710039
 10
-3.5
 20
-44.92225303877866
 10
-3.5
 20
-44.95190637045693
 10
-3.5
 20
-44.970276550588004
 10
-3.5
 20
-44.98018436705867
 10
-3.5
 20
-44.990092183529335
 10
-3.5
 20
-45.0
  0
LWPOLYLINE
  5
38
330
17
100
AcDbEntity
  8
0
100
AcDbPolyline
 90
51
 70
0
 10
-3.5
 20
-29.12609923228
 10
-3.5
 20
-29.16113327177335
 10
-3.5
 20
-29.19616731126669
 10
-3.5
 20
-29.231201350760035
 10
-3.5
 20
-29.265304861635524
 10
-3.5
 20
-29.298167667687206
 10
-3.5
 20
-29.33103047373889
 10
-3.5
 20
-29.36389327979057
 10
-3.5
 20
-29.39481345627903
 10
-3.5
 20
-29.425409861173627
 10
-3.5
 20
-29.45600626606822
 10
-3.5
 20
-29.48592981222577
 10
-3.5
 20
-29.51417121154071
 10
-3.5
 20
-29.542412610855653
 10
-3.5
 20
-29.570654010170596
 10
-3.5
 20
-29.597154845114858
 10
-3.5
 20
-29.62295945431085
 10
-3.5
 20
-29.64876406350684
 10
-3.5
 20
-29.674209884426492
 10
-3.5
 20
-29.697502975688113
 10
-3.5
 20
-29.720796066949738
 10
-3.5
 20
-29.74408915821136
 10
-3.5
 20
-29.765908550832474
 10
-3.5
 20
-29.786622669473207
 10
-3.5
 20
-29.807336788113943
 10
-3.5
 20
-29.828050906754676
 10
-3.5
 20
-29.846126066559556
 10
-3.5
 20
-29.86420122636444
 10
-3.5
 20
-29.882276386169323
 10
-3.5
 20
-29.899198130460807
 10
-3.5
 20
-29.914581987401096
 10
-3.5
 20
-29.929965844341385
 10
-3.5
 20
-29.945349701281675
 10
-3.5
 20
-29.958388541258923
 10
-3.5
 20
-29.97103654507567
 10
-3.5
 20
-29.983684548892416
 10
-3.5
 20
-29.99554041539511
 10
-3.5
 20
-30.00541593861268
 10
-3.5
 20
-30.015291461830248
 10
-3.5
 20
-30.025166985047818
 10
-3.5
 20
-30.03304173739279
 10
-3.5
 20
-30.040116181388722
 10
-3.5
 20
-30.047190625384655
 10
-3.5
 20
-30.053861988498888
 10
-3.5
 20
-30.058114866322924
 10
-3.5
 20
-30.06236774414696
 10
-3.5
 20
-30.066620621970994
 10
-3.5
 20
-30.06925413858269
 10
-3.5
 20
-30.070673134285126
 10
-3.5
 20
-30.072092129987563
 10
-3.5
 20
-30.07351112569
  0
LWPOLYLINE
  5
39
330
17
100
AcDbEntity
  8
0
100
AcDbPolyline
 90
51
 70
0
 10
-3.5
 20
-38.82683432365
 10
-3.5
 20
-38.63281962182258
 10
-3.5
 20
-38.43880491999516
 10
-3.5
 20
-38.244790218167736
 10
-3.5
 20
-38.050775516340316
 10
-3.5
 20
-37.856760814512896
 10
-3.5
 20
-37.662746112685475
 10
-3.5
 20
-37.468731410858055
 10
-3.5
 20
-37.274716709030635
 10
-3.5
 20
-37.080702007203215
 10
-3.5
 20
-36.886687305375794
 10
-3.5
 20
-36.692672603548374
 10
-3.5
 20
-36.498657901720954
 10
-3.5
 20
-36.30464319989353
 10
-3.5
 20
-36.11062849806611
 10
-3.5
 20
-35.91661379623869
 10
-3.5
 20
-35.72259909441127
 10
-3.5
 20
-35.52858439258385
 10
-3.5
 20
-35.33456969075643
 10
-3.5
 20
-35.14055498892901
 10
-3.5
 20
-34.94654028710159
 10
-3.5
 20
-34.75252558527417
 10
-3.5
 20
-34.55851088344675
 10
-3.5
 20
-34.36449618161933
 10
-3.5
 20
-34.17048147979191
 10
-3.5
 20
-33.97646677796449
 10
-3.5
 20
-33.78245207613707
 10
-3.5
 20
-33.58843737430965
 10
-3.5
 20
-33.39442267248223
 10
-3.5
 20
-33.20040797065481
 10
-3.5
 20
-33.00639326882739
 10
-3.5
 20
-32.81237856699997
 10
-3.5
 20
-32.61836386517255
 10
-3.5
 20
-32.42434916334513
 10
-3.5
 20
-32.23033446151771
 10
-3.5
 20
-32.036319759690286
 10
-3.5
 20
-31.842305057862866
 10
-3.5
 20
-31.648290356035446
 10
-3.5
 20
-31.454275654208026
 10
-3.5
 20
-31.260260952380605
 10
-3.5
 20
-31.066246250553185
 10
-3.5
 20
-30.872231548725765
 10
-3.5
 20
-30.678216846898344
 10
-3.5
 20
-30.484202145070924
 10
-3.5
 20
-30.290187443243504
 10
-3.5
 20
-30.096172741416083
 10
-3.5
 20
-29.902158039588663
 10
-3.5
 20
-29.708143337761243
 10
-3.5
 20
-29.514128635933822
 10
-3.5
 20
-29.320113934106402
 10
-3.5
 20
-29.126099232278982
  0
LWPOLYLINE
  5
3A
330
17
100
AcDbEntity
  8
0
100
AcDbPolyline
 90
51
 70
0
 10
3.5
 20
-38.82683432365094
 10
3.5
 20
-39.04046993353779
 10
3.5
 20
-39.25410554342465
 10
3.5
 20
-39.4677411533115
 10
3.5
 20
-39.67747889913277
 10
3.5
 20
-39.88201949286661
 10
3.5
 20
-40.08656008660044
 10
3.5
 20
-40.291100680334274
 10
3.5
 20
-40.48660480063276
 10
3.5
 20
-40.68060284202536
 10
3.5
 20
-40.87460088341795
 10
3.5
 20
-41.065194502306966
 10
3.5
 20
-41.24727706493704
 10
3.5
 20
-41.429359627567116
 10
3.5
 20
-41.61144219019719
 10
3.5
 20
-41.78409326768411
 10
3.5
 20
-41.95297175111377
 10
3.5
 20
-42.12185023454344
 10
3.5
 20
-42.28867168451389
 10
3.5
 20
-42.4431509337291
 10
3.5
 20
-42.59763018294431
 10
3.5
 20
-42.752109432159514
 10
3.5
 20
-42.897735832415535
 10
3.5
 20
-43.03672259595218
 10
3.5
 20
-43.17570935948882
 10
3.5
 20
-43.31469612302546
 10
3.5
 20
-43.43720678992285
 10
3.5
 20
-43.55971745682023
 10
3.5
 20
-43.682228123717614
 10
3.5
 20
-43.79730603087062
 10
3.5
 20
-43.902473591697806
 10
3.5
 20
-44.00764115252499
 10
3.5
 20
-44.112808713352166
 10
3.5
 20
-44.202472807206114
 10
3.5
 20
-44.28955298989785
 10
3.5
 20
-44.376633172589585
 10
3.5
 20
-44.4583694565348
 10
3.5
 20
-44.5267459936137
 10
3.5
 20
-44.5951225306926
 10
3.5
 20
-44.663499067771504
 10
3.5
 20
-44.71817021401456
 10
3.5
 20
-44.76735920392329
 10
3.5
 20
-44.81654819383202
 10
3.5
 20
-44.86294637542211
 10
3.5
 20
-44.89259970710039
 10
3.5
 20
-44.92225303877866
 10
3.5
 20
-44.95190637045693
 10
3.5
 20
-44.970276550588004
 10
3.5
 20
-44.98018436705867
 10
3.5
 20
-44.990092183529335
 10
3.5
 20
-45.0
  0
LWPOLYLINE
  5
3B
330
17
100
AcDbEntity
  8
0
100
AcDbPolyline
 90
51
 70
0
 10
3.5
 20
-38.82683432365
 10
3.5
 20
-38.63281962182258
 10
3.5
 20
-38.43880491999516
 10
3.5
 20
-38.244790218167736
 10
3.5
 20
-38.050775516340316
 10
3.5
 20
-37.856760814512896
 10
3.5
 20
-37.662746112685475
 10
3.5
 20
-37.468731410858055
 10
3.5
 20
-37.274716709030635
 10
3.5
 20
-37.080702007203215
 10
3.5
 20
-36.886687305375794
 10
3.5
 20
-36.692672603548374
 10
3.5
 20
-36.498657901720954
 10
3.5
 20
-36.30464319989353
 10
3.5
 20
-36.11062849806611
 10
3.5
 20
-35.91661379623869
 10
3.5
 20
-35.72259909441127
 10
3.5
 20
-35.52858439258385
 10
3.5
 20
-35.33456969075643
 10
3.5
 20
-35.14055498892901
 10
3.5
 20
-34.94654028710159
 10
3.5
 20
-34.75252558527417
 10
3.5
 20
-34.55851088344675
 10
3.5
 20
-34.36449618161933
 10
3.5
 20
-34.17048147979191
 10
3.5
 20
-33.97646677796449
 10
3.5
 20
-33.78245207613707
 10
3.5
 20
-33.58843737430965
 10
3.5
 20
-33.39442267248223
 10
3.5
 20
-33.20040797065481
 10
3.5
 20
-33.00639326882739
 10
3.5
 20
-32.81237856699997
 10
3.5
 20
-32.61836386517255
 10
3.5
 20
-32.42434916334513
 10
3.5
 20
-32.23033446151771
 10
3.5
 20
-32.036319759690286
 10
3.5
 20
-31.842305057862866
 10
3.5
 20
-31.648290356035446
 10
3.5
 20
-31.454275654208026
 10
3.5
 20
-31.260260952380605
 10
3.5
 20
-31.066246250553185
 10
3.5
 20
-30.872231548725765
 10
3.5
 20
-30.678216846898344
 10
3.5
 20
-30.484202145070924
 10
3.5
 20
-30.290187443243504
 10
3.5
 20
-30.096172741416083
 10
3.5
 20
-29.902158039588663
 10
3.5
 20
-29.708143337761243
 10
3.5
 20
-29.514128635933822
 10
3.5
 20
-29.320113934106402
 10
3.5
 20
-29.126099232278982
  0
LWPOLYLINE
  5
3C
330
17
100
AcDbEntity
  8
0
100
AcDbPolyline
 90
51
 70
0
 10
3.5
 20
-29.12609923228
 10
3.5
 20
-29.16113327177335
 10
3.5
 20
-29.196167311266695
 10
3.5
 20
-29.23120135076004
 10
3.5
 20
-29.265304861635528
 10
3.5
 20
-29.29816766768721
 10
3.5
 20
-29.331030473738892
 10
3.5
 20
-29.36389327979057
 10
3.5
 20
-29.394813456279035
 10
3.5
 20
-29.425409861173627
 10
3.5
 20
-29.45600626606822
 10
3.5
 20
-29.48592981222577
 10
3.5
 20
-29.514171211540713
 10
3.5
 20
-29.542412610855653
 10
3.5
 20
-29.570654010170596
 10
3.5
 20
-29.597154845114858
 10
3.5
 20
-29.62295945431085
 10
3.5
 20
-29.64876406350684
 10
3.5
 20
-29.674209884426492
 10
3.5
 20
-29.697502975688113
 10
3.5
 20
-29.720796066949738
 10
3.5
 20
-29.74408915821136
 10
3.5
 20
-29.765908550832474
 10
3.5
 20
-29.786622669473207
 10
3.5
 20
-29.807336788113943
 10
3.5
 20
-29.828050906754676
 10
3.5
 20
-29.84612606655956
 10
3.5
 20
-29.86420122636444
 10
3.5
 20
-29.882276386169323
 10
3.5
 20
-29.899198130460807
 10
3.5
 20
-29.914581987401096
 10
3.5
 20
-29.929965844341385
 10
3.5
 20
-29.945349701281675
 10
3.5
 20
-29.958388541258923
 10
3.5
 20
-29.97103654507567
 10
3.5
 20
-29.983684548892416
 10
3.5
 20
-29.99554041539511
 10
3.5
 20
-30.00541593861268
 10
3.5
 20
-30.015291461830248
 10
3.5
 20
-30.025166985047814
 10
3.5
 20
-30.03304173739279
 10
3.5
 20
-30.040116181388722
 10
3.5
 20
-30.047190625384655
 10
3.5
 20
-30.053861988498888
 10
3.5
 20
-30.058114866322924
 10
3.5
 20
-30.06236774414696
 10
3.5
 20
-30.066620621970998
 10
3.5
 20
-30.069254138582693
 10
3.5
 20
-30.07067313428513
 10
3.5
 20
-30.072092129987563
 10
3.5
 20
-30.07351112569
  0
LWPOLYLINE
  5
3D
330
17
100
AcDbEntity
  8
0
100
AcDbPolyline
 90
51
 70
0
 10
8.0
 20
-38.82683432365094
 10
8.0
 20
-39.04046993353779
 10
8.0
 20
-39.25410554342465
 10
8.0
 20
-39.4677411533115
 10
8.0
 20
-39.67747889913277
 10
8.0
 20
-39.88201949286661
 10
8.0
 20
-40.08656008660044
 10
8.0
 20
-40.291100680334274
 10
8.0
 20
-40.48660480063276
 10
8.0
 20
-40.68060284202536
 10
8.0
 20
-40.87460088341795
 10
8.0
 20
-41.065194502306966
 10
8.0
 20
-41.24727706493704
 10
8.0
 20
-41.429359627567116
 10
8.0
 20
-41.61144219019719
 10
8.0
 20
-41.78409326768411
 10
8.0
 20
-41.95297175111377
 10
8.0
 20
-42.12185023454344
 10
8.0
 20
-42.28867168451389
 10
8.0
 20
-42.4431509337291
 10
8.0
 20
-42.59763018294431
 10
8.0
 20
-42.752109432159514
 10
8.0
 20
-42.897735832415535
 10
8.0
 20
-43.03672259595218
 10
8.0
 20
-43.17570935948882
 10
8.0
 20
-43.31469612302546
 10
8.0
 20
-43.43720678992285
 10
8.0
 20
-43.55971745682023
 10
8.0
 20
-43.682228123717614
 10
8.0
 20
-43.79730603087062
 10
8.0
 20
-43.902473591697806
 10
8.0
 20
-44.00764115252499
 10
8.0
 20
-44.112808713352166
 10
8.0
 20
-44.202472807206114
 10
8.0
 20
-44.28955298989785
 10
8.0
 20
-44.376633172589585
 10
8.0
 20
-44.4583694565348
 10
8.0
 20
-44.5267459936137
 10
8.0
 20
-44.5951225306926
 10
8.0
 20
-44.663499067771504
 10
8.0
 20
-44.71817021401456
 10
8.0
 20
-44.76735920392329
 10
8.0
 20
-44.81654819383202
 10
8.0
 20
-44.86294637542211
 10
8.0
 20
-44.89259970710039
 10
8.0
 20
-44.92225303877866
 10
8.0
 20
-44.95190637045693
 10
8.0
 20
-44.970276550588004
 10
8.0
 20
-44.98018436705867
 10
8.0
 20
-44.990092183529335
 10
8.0
 20
-45.0
  0
LWPOLYLINE
  5
3E
330
17
100
AcDbEntity
  8
0
100
AcDbPolyline
 90
51
 70
0
 10
-3.5
 20
-29.12609923228
 10
-3.36
 20
-29.12609923228
 10
-3.2199999999999998
 20
-29.12609923228
 10
-3.08
 20
-29.12609923228
 10
-2.94
 20
-29.12609923228
 10
-2.8
 20
-29.12609923228
 10
-2.66
 20
-29.12609923228
 10
-2.52
 20
-29.12609923228
 10
-2.38
 20
-29.12609923228
 10
-2.24
 20
-29.12609923228
 10
-2.1
 20
-29.12609923228
 10
-1.96
 20
-29.12609923228
 10
-1.82
 20
-29.12609923228
 10
-1.68
 20
-29.12609923228
 10
-1.54
 20
-29.12609923228
 10
-1.4
 20
-29.12609923228
 10
-1.2599999999999998
 20
-29.12609923228
 10
-1.12
 20
-29.12609923228
 10
-0.98
 20
-29.12609923228
 10
-0.8399999999999999
 20
-29.12609923228
 10
-0.7000000000000002
 20
-29.12609923228
 10
-0.56
 20
-29.12609923228
 10
-0.41999999999999993
 20
-29.12609923228
 10
-0.2799999999999998
 20
-29.12609923228
 10
-0.14000000000000012
 20
-29.12609923228
 10
0.0
 20
-29.12609923228
 10
0.14000000000000012
 20
-29.12609923228
 10
0.2799999999999998
 20
-29.12609923228
 10
0.41999999999999993
 20
-29.12609923228
 10
0.5599999999999996
 20
-29.12609923228
 10
0.7000000000000002
 20
-29.12609923228
 10
0.8399999999999999
 20
-29.12609923228
 10
0.9800000000000004
 20
-29.12609923228
 10
1.12
 20
-29.12609923228
 10
1.2599999999999998
 20
-29.12609923228
 10
1.4000000000000004
 20
-29.12609923228
 10
1.54
 20
-29.12609923228
 10
1.6799999999999997
 20
-29.12609923228
 10
1.8200000000000003
 20
-29.12609923228
 10
1.96
 20
-29.12609923228
 10
2.0999999999999996
 20
-29.12609923228
 10
2.24
 20
-29.12609923228
 10
2.38
 20
-29.12609923228
 10
2.5199999999999996
 20
-29.12609923228
 10
2.66
 20
-29.12609923228
 10
2.8
 20
-29.12609923228
 10
2.9400000000000004
 20
-29.12609923228
 10
3.08
 20
-29.12609923228
 10
3.2199999999999998
 20
-29.12609923228
 10
3.3600000000000003
 20
-29.12609923228
 10
3.5
 20
-29.12609923228
  0
LWPOLYLINE
  5
3F
330
17
100
AcDbEntity
  8
0
100
AcDbPolyline
 90
51
 70
0
 10
8.0
 20
-15.999999999999996
 10
8.0
 20
-16.012165335407765
 10
8.0
 20
-16.024330670815534
 10
8.0
 20
-16.036496006223302
 10
8.0
 20
-16.05906492739644
 10
8.0
 20
-16.095505296256743
 10
8.0
 20
-16.131945665117044
 10
8.0
 20
-16.168386033977345
 10
8.0
 20
-16.225490724966814
 10
8.0
 20
-16.28603946964447
 10
8.0
 20
-16.346588214322132
 10
8.0
 20
-16.413945947602013
 10
8.0
 20
-16.498326152387435
 10
8.0
 20
-16.582706357172857
 10
8.0
 20
-16.66708656195828
 10
8.0
 20
-16.768213590157682
 10
8.0
 20
-16.876039347722678
 10
8.0
 20
-16.983865105287673
 10
8.0
 20
-17.094969779817614
 10
8.0
 20
-17.225747956137226
 10
8.0
 20
-17.35652613245684
 10
8.0
 20
-17.487304308776448
 10
8.0
 20
-17.63085637843835
 10
8.0
 20
-17.78398886810696
 10
8.0
 20
-17.937121357775574
 10
8.0
 20
-18.09025384744419
 10
8.0
 20
-18.26504030907133
 10
8.0
 20
-18.439826770698474
 10
8.0
 20
-18.614613232325617
 10
8.0
 20
-18.79833737861645
 10
8.0
 20
-18.993978437792187
 10
8.0
 20
-19.189619496967925
 10
8.0
 20
-19.385260556143667
 10
8.0
 20
-19.598010054752766
 10
8.0
 20
-19.813610959934092
 10
8.0
 20
-20.02921186511542
 10
8.0
 20
-20.25023385870159
 10
8.0
 20
-20.484808573299876
 10
8.0
 20
-20.719383287898157
 10
8.0
 20
-20.953958002496442
 10
8.0
 20
-21.20131914377782
 10
8.0
 20
-21.453794855732436
 10
8.0
 20
-21.706270567687053
 10
8.0
 20
-21.961138610535848
 10
8.0
 20
-22.230360638749712
 10
8.0
 20
-22.499582666963576
 10
8.0
 20
-22.76880469517744
 10
8.0
 20
-23.046892464524973
 10
8.0
 20
-23.33162953972275
 10
8.0
 20
-23.61636661492053
 10
8.0
 20
-23.90110369011831
  0
LWPOLYLINE
  5
40
330
17
100
AcDbEntity
  8
0
100
AcDbPolyline
 90
51
 70
0
 10
8.0
 20
-38.82683432365
 10
8.0
 20
-38.52831971097939
 10
8.0
 20
-38.22980509830878
 10
8.0
 20
-37.93129048563817
 10
8.0
 20
-37.632775872967564
 10
8.0
 20
-37.334261260296955
 10
8.0
 20
-37.03574664762635
 10
8.0
 20
-36.73723203495574
 10
8.0
 20
-36.43871742228513
 10
8.0
 20
-36.14020280961452
 10
8.0
 20
-35.84168819694391
 10
8.0
 20
-35.543173584273305
 10
8.0
 20
-35.244658971602696
 10
8.0
 20
-34.94614435893209
 10
8.0
 20
-34.64762974626147
 10
8.0
 20
-34.34911513359087
 10
8.0
 20
-34.050600520920256
 10
8.0
 20
-33.75208590824965
 10
8.0
 20
-33.45357129557904
 10
8.0
 20
-33.15505668290843
 10
8.0
 20
-32.85654207023782
 10
8.0
 20
-32.55802745756721
 10
8.0
 20
-32.259512844896605
 10
8.0
 20
-31.960998232225997
 10
8.0
 20
-31.66248361955539
 10
8.0
 20
-31.36396900688478
 10
8.0
 20
-31.06545439421417
 10
8.0
 20
-30.766939781543563
 10
8.0
 20
-30.468425168872955
 10
8.0
 20
-30.169910556202346
 10
8.0
 20
-29.871395943531738
 10
8.0
 20
-29.57288133086113
 10
8.0
 20
-29.27436671819052
 10
8.0
 20
-28.975852105519913
 10
8.0
 20
-28.677337492849304
 10
8.0
 20
-28.378822880178696
 10
8.0
 20
-28.080308267508087
 10
8.0
 20
-27.781793654837475
 10
8.0
 20
-27.48327904216687
 10
8.0
 20
-27.184764429496262
 10
8.0
 20
-26.886249816825654
 10
8.0
 20
-26.58773520415504
 10
8.0
 20
-26.289220591484433
 10
8.0
 20
-25.990705978813825
 10
8.0
 20
-25.692191366143216
 10
8.0
 20
-25.393676753472604
 10
8.0
 20
-25.095162140801996
 10
8.0
 20
-24.796647528131388
 10
8.0
 20
-24.498132915460783
 10
8.0
 20
-24.199618302790174
 10
8.0
 20
-23.901103690119562
  0
LWPOLYLINE
  5
41
330
17
100
AcDbEntity
  8
0
100
AcDbPolyline
 90
51
 70
0
 10
-8.0
 20
-23.90110369012
 10
-7.68
 20
-23.90110369012
 10
-7.36
 20
-23.90110369012
 10
-7.04
 20
-23.90110369012
 10
-6.72
 20
-23.90110369012
 10
-6.4
 20
-23.90110369012
 10
-6.08
 20
-23.90110369012
 10
-5.76
 20
-23.90110369012
 10
-5.4399999999999995
 20
-23.90110369012
 10
-5.12
 20
-23.90110369012
 10
-4.8
 20
-23.90110369012
 10
-4.48
 20
-23.90110369012
 10
-4.16
 20
-23.90110369012
 10
-3.84
 20
-23.90110369012
 10
-3.5199999999999996
 20
-23.90110369012
 10
-3.2
 20
-23.90110369012
 10
-2.88
 20
-23.90110369012
 10
-2.5599999999999996
 20
-23.90110369012
 10
-2.24
 20
-23.90110369012
 10
-1.92
 20
-23.90110369012
 10
-1.5999999999999996
 20
-23.90110369012
 10
-1.2800000000000002
 20
-23.90110369012
 10
-0.96
 20
-23.90110369012
 10
-0.6399999999999997
 20
-23.90110369012
 10
-0.3200000000000003
 20
-23.90110369012
 10
0.0
 20
-23.90110369012
 10
0.3200000000000003
 20
-23.90110369012
 10
0.6400000000000006
 20
-23.90110369012
 10
0.9600000000000009
 20
-23.90110369012
 10
1.2799999999999994
 20
-23.90110369012
 10
1.5999999999999996
 20
-23.90110369012
 10
1.92
 20
-23.90110369012
 10
2.24
 20
-23.90110369012
 10
2.5600000000000005
 20
-23.90110369012
 10
2.880000000000001
 20
-23.90110369012
 10
3.1999999999999993
 20
-23.90110369012
 10
3.5199999999999996
 20
-23.90110369012
 10
3.84
 20
-23.90110369012
 10
4.16
 20
-23.90110369012
 10
4.48
 20
-23.90110369012
 10
4.800000000000001
 20
-23.90110369012
 10
5.119999999999999
 20
-23.90110369012
 10
5.4399999999999995
 20
-23.90110369012
 10
5.76
 20
-23.90110369012
 10
6.08
 20
-23.90110369012
 10
6.4
 20
-23.90110369012
 10
6.720000000000001
 20
-23.90110369012
 10
7.039999999999999
 20
-23.90110369012
 10
7.359999999999999
 20
-23.90110369012
 10
7.68
 20
-23.90110369012
 10
8.0
 20
-23.90110369012
  0
LWPOLYLINE
  5
42
330
17
100
AcDbEntity
  8
0
100
AcDbPolyline
 90
51
 70
0
 10
3.0
 20
-18.8445055786
 10
2.78
 20
-18.8445055786
 10
2.56
 20
-18.8445055786
 10
2.34
 20
-18.8445055786
 10
2.12
 20
-18.8445055786
 10
1.9
 20
-18.8445055786
 10
1.68
 20
-18.8445055786
 10
1.46
 20
-18.8445055786
 10
1.24
 20
-18.8445055786
 10
1.02
 20
-18.8445055786
 10
0.7999999999999998
 20
-18.8445055786
 10
0.5800000000000001
 20
-18.8445055786
 10
0.3599999999999999
 20
-18.8445055786
 10
0.14000000000000012
 20
-18.8445055786
 10
-0.08000000000000007
 20
-18.8445055786
 10
-0.2999999999999998
 20
-18.8445055786
 10
-0.52
 20
-18.8445055786
 10
-0.7400000000000002
 20
-18.8445055786
 10
-0.96
 20
-18.8445055786
 10
-1.1799999999999997
 20
-18.8445055786
 10
-1.4000000000000004
 20
-18.8445055786
 10
-1.62
 20
-18.8445055786
 10
-1.8399999999999999
 20
-18.8445055786
 10
-2.0599999999999996
 20
-18.8445055786
 10
-2.2800000000000002
 20
-18.8445055786
 10
-2.5
 20
-18.8445055786
 10
-2.7199999999999998
 20
-18.8445055786
 10
-2.9400000000000004
 20
-18.8445055786
 10
-3.16
 20
-18.8445055786
 10
-3.38
 20
-18.8445055786
 10
-3.5999999999999996
 20
-18.8445055786
 10
-3.8200000000000003
 20
-18.8445055786
 10
-4.04
 20
-18.8445055786
 10
-4.26
 20
-18.8445055786
 10
-4.48
 20
-18.8445055786
 10
-4.7
 20
-18.8445055786
 10
-4.92
 20
-18.8445055786
 10
-5.140000000000001
 20
-18.8445055786
 10
-5.359999999999999
 20
-18.8445055786
 10
-5.58
 20
-18.8445055786
 10
-5.800000000000001
 20
-18.8445055786
 10
-6.02
 20
-18.8445055786
 10
-6.24
 20
-18.8445055786
 10
-6.460000000000001
 20
-18.8445055786
 10
-6.68
 20
-18.8445055786
 10
-6.9
 20
-18.8445055786
 10
-7.119999999999999
 20
-18.8445055786
 10
-7.34
 20
-18.8445055786
 10
-7.5600000000000005
 20
-18.8445055786
 10
-7.779999999999999
 20
-18.8445055786
 10
-8.0
 20
-18.8445055786
  0
LWPOLYLINE
  5
43
330
17
100
AcDbEntity
  8
0
100
AcDbPolyline
 90
51
 70
0
 10
3.0
 20
-18.8445055785965
 10
2.903324618301983
 20
-18.84227111329259
 10
2.804387243331217
 20
-18.83568412256896
 10
2.7038539798663916
 20
-18.824919214207753
 10
2.6023909326861903
 20
-18.810150995991123
 10
2.500664206569297
 20
-18.791554075701217
 10
2.3993399062944007
 20
-18.76930306112018
 10
2.2990841366401846
 20
-18.74357256003016
 10
2.200563002385337
 20
-18.714537180213306
 10
2.1044426083085397
 20
-18.682371529451764
 10
2.01138905918848
 20
-18.647250215527684
 10
1.9220684598038467
 20
-18.609347846223216
 10
1.835045657324927
 20
-18.567967709351098
 10
1.7476761887695593
 20
-18.522090001859052
 10
1.6603638877360622
 20
-18.47207960643081
 10
1.573544286325523
 20
-18.41831515540701
 10
1.4876529166390369
 20
-18.36117528112831
 10
1.4031253107776918
 20
-18.301038615935344
 10
1.3203970008425814
 20
-18.238283792168765
 10
1.2399035189347987
 20
-18.173289442169214
 10
1.1620803971554317
 20
-18.106434198277334
 10
1.087363167605574
 20
-18.038096692833776
 10
1.0161873623863187
 20
-17.968655558179186
 10
0.9489885135987537
 20
-17.898489426654205
 10
0.8849857049815786
 20
-17.82670638554915
 10
0.8220382626290811
 20
-17.75113659605169
 10
0.7603052915049096
 20
-17.67213029104989
 10
0.7000156973170419
 20
-17.590112263444855
 10
0.6413983857734566
 20
-17.505507306137684
 10
0.5846822625821274
 20
-17.418740212029483
 10
0.5300962334510324
 20
-17.33023577402135
 10
0.4778692040881496
 20
-17.240418785014388
 10
0.42823008020145314
 20
-17.1497140379097
 10
0.38140776749892114
 20
-17.058546325608386
 10
0.33763117168853096
 20
-16.96734044101155
 10
0.2971291984782578
 20
-16.876521177020294
 10
0.26013075357607907
 20
-16.78651332653572
 10
0.226417504469535
 20
-16.696606820091766
 10
0.19479680676619665
 20
-16.60380536976651
 10
0.16525728160941533
 20
-16.508309492885587
 10
0.13787697133150784
 20
-16.410552963446253
 10
0.11273391826478896
 20
-16.31096955544575
 10
0.0899061647415755
 20
-16.20999304288133
 10
0.0694717530941841
 20
-16.108057199750235
 10
0.05150872565492989
 20
-16.00559580004972
 10
0.036095124756129526
 20
-15.903042617777022
 10
0.023308992730099343
 20
-15.800831426929403
 10
0.013228371909155046
 20
-15.699396001504102
 10
0.005931304625612949
 20
-15.599170115498367
 10
0.0014958332117892548
 20
-15.500587542909452
 10
0.0
 20
-15.4040820577346
  0
LWPOLYLINE
  5
44
330
17
100
AcDbEntity
  8
0
100
AcDbPolyline
 90
51
 70
0
 10
0.0
 20
0.0
 10
0.0
 20
-0.30808164115459996
 10
0.0
 20
-0.6161632823091999
 10
0.0
 20
-0.9242449234637999
 10
0.0
 20
-1.2323265646183998
 10
0.0
 20
-1.540408205773
 10
0.0
 20
-1.8484898469275999
 10
0.0
 20
-2.1565714880822
 10
0.0
 20
-2.4646531292367997
 10
0.0
 20
-2.7727347703914003
 10
0.0
 20
-3.080816411546
 10
0.0
 20
-3.3888980527005996
 10
0.0
 20
-3.6969796938551998
 10
0.0
 20
-4.0050613350098
 10
0.0
 20
-4.3131429761644
 10
0.0
 20
-4.621224617319
 10
0.0
 20
-4.929306258473599
 10
0.0
 20
-5.2373878996281995
 10
0.0
 20
-5.5454695407828005
 10
0.0
 20
-5.8535511819374
 10
0.0
 20
-6.161632823092
 10
0.0
 20
-6.469714464246599
 10
0.0
 20
-6.777796105401199
 10
0.0
 20
-7.0858777465558
 10
0.0
 20
-7.3939593877103995
 10
0.0
 20
-7.702041028865
 10
0.0
 20
-8.0101226700196
 10
0.0
 20
-8.318204311174199
 10
0.0
 20
-8.6262859523288
 10
0.0
 20
-8.9343675934834
 10
0.0
 20
-9.242449234638
 10
0.0
 20
-9.5505308757926
 10
0.0
 20
-9.858612516947199
 10
0.0
 20
-10.1666941581018
 10
0.0
 20
-10.474775799256399
 10
0.0
 20
-10.782857440410998
 10
0.0
 20
-11.090939081565601
 10
0.0
 20
-11.3990207227202
 10
0.0
 20
-11.7071023638748
 10
0.0
 20
-12.0151840050294
 10
0.0
 20
-12.323265646184
 10
0.0
 20
-12.631347287338599
 10
0.0
 20
-12.939428928493198
 10
0.0
 20
-13.2475105696478
 10
0.0
 20
-13.555592210802399
 10
0.0
 20
-13.863673851956998
 10
0.0
 20
-14.1717554931116
 10
0.0
 20
-14.4798371342662
 10
0.0
 20
-14.787918775420799
 10
0.0
 20
-15.0960004165754
 10
0.0
 20
-15.40408205773
  0
LWPOLYLINE
  5
45
330
17
100
AcDbEntity
  8
0
100
AcDbPolyline
 90
51
 70
0
 10
-8.0
 20
0.0
 10
-7.84
 20
0.0
 10
-7.68
 20
0.0
 10
-7.52
 20
0.0
 10
-7.36
 20
0.0
 10
-7.2
 20
0.0
 10
-7.04
 20
0.0
 10
-6.88
 20
0.0
 10
-6.72
 20
0.0
 10
-6.5600000000000005
 20
0.0
 10
-6.4
 20
0.0
 10
-6.24
 20
0.0
 10
-6.08
 20
0.0
 10
-5.92
 20
0.0
 10
-5.76
 20
0.0
 10
-5.6
 20
0.0
 10
-5.4399999999999995
 20
0.0
 10
-5.279999999999999
 20
0.0
 10
-5.12
 20
0.0
 10
-4.96
 20
0.0
 10
-4.8
 20
0.0
 10
-4.640000000000001
 20
0.0
 10
-4.48
 20
0.0
 10
-4.32
 20
0.0
 10
-4.16
 20
0.0
 10
-4.0
 20
0.0
 10
-3.84
 20
0.0
 10
-3.6799999999999997
 20
0.0
 10
-3.5199999999999996
 20
0.0
 10
-3.3600000000000003
 20
0.0
 10
-3.2
 20
0.0
 10
-3.04
 20
0.0
 10
-2.88
 20
0.0
 10
-2.7199999999999998
 20
0.0
 10
-2.5599999999999996
 20
0.0
 10
-2.4000000000000004
 20
0.0
 10
-2.24
 20
0.0
 10
-2.08
 20
0.0
 10
-1.92
 20
0.0
 10
-1.7599999999999998
 20
0.0
 10
-1.5999999999999996
 20
0.0
 10
-1.4400000000000004
 20
0.0
 10
-1.2800000000000002
 20
0.0
 10
-1.12
 20
0.0
 10
-0.96
 20
0.0
 10
-0.7999999999999998
 20
0.0
 10
-0.6399999999999997
 20
0.0
 10
-0.4800000000000004
 20
0.0
 10
-0.3200000000000003
 20
0.0
 10
-0.16000000000000014
 20
0.0
 10
0.0
 20
0.0
  0
ENDSEC
  0
SECTION
  2
OBJECTS
  0
DICTIONARY
  5
A
330
0
100
AcDbDictionary
280
0
281
1
  3
ACAD_COLOR
350
B
  3
ACAD_GROUP
350
C
  3
ACAD_LAYOUT
350
D
  3
ACAD_MATERIAL
350
E
  3
ACAD_MLEADERSTYLE
350
F
  3
ACAD_MLINESTYLE
350
10
  3
ACAD_PLOTSETTINGS
350
11
  3
ACAD_PLOTSTYLENAME
350
12
  3
ACAD_SCALELIST
350
14
  3
ACAD_TABLESTYLE
350
15
  3
ACAD_VISUALSTYLE
350
16
  3
EZDXF_META
350
2D
  0
DICTIONARY
  5
B
330
A
100
AcDbDictionary
280
0
281
1
  0
DICTIONARY
  5
C
330
A
100
AcDbDictionary
280
0
281
1
  0
DICTIONARY
  5
D
330
A
100
AcDbDictionary
280
0
281
1
  3
Model
350
1A
  3
Layout1
350
1E
  0
DICTIONARY
  5
E
330
A
100
AcDbDictionary
280
0
281
1
  3
ByBlock
350
1F
  3
ByLayer
350
20
  3
Global
350
21
  0
DICTIONARY
  5
F
330
A
100
AcDbDictionary
280
0
281
1
  3
Standard
350
2C
  0
DICTIONARY
  5
10
330
A
100
AcDbDictionary
280
0
281
1
  3
Standard
350
22
  0
DICTIONARY
  5
11
330
A
100
AcDbDictionary
280
0
281
1
  0
ACDBDICTIONARYWDFLT
  5
12
330
A
100
AcDbDictionary
280
0
281
1
  3
Normal
350
13
100
AcDbDictionaryWithDefault
340
13
  0
ACDBPLACEHOLDER
  5
13
330
12
  0
DICTIONARY
  5
14
330
A
100
AcDbDictionary
280
0
281
1
  0
DICTIONARY
  5
15
330
A
100
AcDbDictionary
280
0
281
1
  0
DICTIONARY
  5
16
330
A
100
AcDbDictionary
280
0
281
1
  0
LAYOUT
  5
1A
330
D
100
AcDbPlotSettings
  1

  2
Adobe PDF
  4
A3
  6

 40
7.5
 41
20.0
 42
7.5
 43
20.0
 44
420.0
 45
297.0
 46
0.0
 47
0.0
 48
0.0
 49
0.0
140
0.0
141
0.0
142
1.0
143
1.0
 70
1024
 72
1
 73
0
 74
5
  7

 75
16
 76
0
 77
2
 78
300
147
1.0
148
0.0
149
0.0
100
AcDbLayout
  1
Model
 70
1
 71
0
 10
0.0
 20
0.0
 11
420.0
 21
297.0
 12
0.0
 22
0.0
 32
0.0
 14
1e+20
 24
1e+20
 34
1e+20
 15
-1e+20
 25
-1e+20
 35
-1e+20
146
0.0
 13
0.0
 23
0.0
 33
0.0
 16
1.0
 26
0.0
 36
0.0
 17
0.0
 27
1.0
 37
0.0
 76
1
330
17
  0
LAYOUT
  5
1E
330
D
100
AcDbPlotSettings
  1

  2
Adobe PDF
  4
A3
  6

 40
7.5
 41
20.0
 42
7.5
 43
20.0
 44
420.0
 45
297.0
 46
0.0
 47
0.0
 48
0.0
 49
0.0
140
0.0
141
0.0
142
1.0
143
1.0
 70
0
 72
1
 73
0
 74
5
  7

 75
16
 76
0
 77
2
 78
300
147
1.0
148
0.0
149
0.0
100
AcDbLayout
  1
Layout1
 70
1
 71
1
 10
0.0
 20
0.0
 11
420.0
 21
297.0
 12
0.0
 22
0.0
 32
0.0
 14
1e+20
 24
1e+20
 34
1e+20
 15
-1e+20
 25
-1e+20
 35
-1e+20
146
0.0
 13
0.0
 23
0.0
 33
0.0
 16
1.0
 26
0.0
 36
0.0
 17
0.0
 27
1.0
 37
0.0
 76
1
330
1B
  0
MATERIAL
  5
1F
102
{ACAD_REACTORS
330
E
102
}
330
E
100
AcDbMaterial
  1
ByBlock
  2

 70
0
 40
1.0
 71
1
 41
1.0
 91
-1023410177
 42
1.0
 72
1
  3

 73
1
 74
1
 75
1
 44
0.5
 73
0
 45
1.0
 46
1.0
 77
1
  4

 78
1
 79
1
170
1
 48
1.0
171
1
  6

172
1
173
1
174
1
140
1.0
141
1.0
175
1
  7

176
1
177
1
178
1
143
1.0
179
1
  8

270
1
271
1
272
1
145
1.0
146
1.0
273
1
  9

274
1
275
1
276
1
 42
1.0
 72
1
  3

 73
1
 74
1
 75
1
 94
63
  0
MATERIAL
  5
20
102
{ACAD_REACTORS
330
E
102
}
330
E
100
AcDbMaterial
  1
ByLayer
  2

 70
0
 40
1.0
 71
1
 41
1.0
 91
-1023410177
 42
1.0
 72
1
  3

 73
1
 74
1
 75
1
 44
0.5
 73
0
 45
1.0
 46
1.0
 77
1
  4

 78
1
 79
1
170
1
 48
1.0
171
1
  6

172
1
173
1
174
1
140
1.0
141
1.0
175
1
  7

176
1
177
1
178
1
143
1.0
179
1
  8

270
1
271
1
272
1
145
1.0
146
1.0
273
1
  9

274
1
275
1
276
1
 42
1.0
 72
1
  3

 73
1
 74
1
 75
1
 94
63
  0
MATERIAL
  5
21
102
{ACAD_REACTORS
330
E
102
}
330
E
100
AcDbMaterial
  1
Global
  2

 70
0
 40
1.0
 71
1
 41
1.0
 91
-1023410177
 42
1.0
 72
1
  3

 73
1
 74
1
 75
1
 44
0.5
 73
0
 45
1.0
 46
1.0
 77
1
  4

 78
1
 79
1
170
1
 48
1.0
171
1
  6

172
1
173
1
174
1
140
1.0
141
1.0
175
1
  7

176
1
177
1
178
1
143
1.0
179
1
  8

270
1
271
1
272
1
145
1.0
146
1.0
273
1
  9

274
1
275
1
276
1
 42
1.0
 72
1
  3

 73
1
 74
1
 75
1
 94
63
  0
MLINESTYLE
  5
22
102
{ACAD_REACTORS
330
10
102
}
330
10
100
AcDbMlineStyle
  2
Standard
 70
0
  3

 62
256
 51
90.0
 52
90.0
 71
2
 49
0.5
 62
256
  6
BYLAYER
 49
-0.5
 62
256
  6
BYLAYER
  0
MLEADERSTYLE
  5
2C
102
{ACAD_REACTORS
330
F
102
}
330
F
100
AcDbMLeaderStyle
179
2
170
2
171
1
172
0
 90
2
 40
0.0
 41
0.0
173
1
 91
-1056964608
 92
-2
290
1
 42
2.0
291
1
 43
8.0
  3
Standard
 44
4.0
300

342
29
174
1
175
1
176
0
178
1
 93
-1056964608
 45
4.0
292
0
297
0
 46
4.0
 94
-1056964608
 47
1.0
 49
1.0
140
1.0
294
1
141
0.0
177
0
142
1.0
295
0
296
0
143
3.75
271
0
272
9
273
9
  0
DICTIONARY
  5
2D
330
A
100
AcDbDictionary
281
1
  3
CREATED_BY_EZDXF
350
2E
  3
WRITTEN_BY_EZDXF
350
48
  0
DICTIONARYVAR
  5
2E
330
2D
100
DictionaryVariables
280
0
  1
1.0.3 @ 2025-05-29T09:41:25.447663+00:00
  0
DICTIONARYVAR
  5
48
330
2D
100
DictionaryVariables
280
0
  1
1.0.3 @ 2025-05-29T09:41:25.453166+00:00
  0
ENDSEC
  0
EOF
