  0
SECTION
  2
HEADER
  9
$ACADVER
  1
AC1027
  9
$ACADMAINTVER
 70
105
  9
$DWGCODEPAGE
  3
ANSI_1252
  9
$LASTSAVEDBY
  1
ezdxf
  9
$REQUIREDVERSIONS
160
0
  9
$INSBASE
 10
0.0
 20
0.0
 30
0.0
  9
$EXTMIN
 10
1e+20
 20
1e+20
 30
1e+20
  9
$EXTMAX
 10
-1e+20
 20
-1e+20
 30
-1e+20
  9
$LIMMIN
 10
0.0
 20
0.0
  9
$LIMMAX
 10
420.0
 20
297.0
  9
$ORTHOMODE
 70
0
  9
$REGENMODE
 70
1
  9
$FILLMODE
 70
1
  9
$QTEXTMODE
 70
0
  9
$MIRRTEXT
 70
1
  9
$LTSCALE
 40
1.0
  9
$ATTMODE
 70
1
  9
$TEXTSIZE
 40
2.5
  9
$TRACEWID
 40
1.0
  9
$TEXTSTYLE
  7
Standard
  9
$CLAYER
  8
0
  9
$CELTYPE
  6
ByLayer
  9
$CECOLOR
 62
256
  9
$CELTSCALE
 40
1.0
  9
$DISPSILH
 70
0
  9
$DIMSCALE
 40
1.0
  9
$DIMASZ
 40
2.5
  9
$DIMEXO
 40
0.625
  9
$DIMDLI
 40
3.75
  9
$DIMRND
 40
0.0
  9
$DIMDLE
 40
0.0
  9
$DIMEXE
 40
1.25
  9
$DIMTP
 40
0.0
  9
$DIMTM
 40
0.0
  9
$DIMTXT
 40
2.5
  9
$DIMCEN
 40
2.5
  9
$DIMTSZ
 40
0.0
  9
$DIMTOL
 70
0
  9
$DIMLIM
 70
0
  9
$DIMTIH
 70
0
  9
$DIMTOH
 70
0
  9
$DIMSE1
 70
0
  9
$DIMSE2
 70
0
  9
$DIMTAD
 70
1
  9
$DIMZIN
 70
8
  9
$DIMBLK
  1

  9
$DIMASO
 70
1
  9
$DIMSHO
 70
1
  9
$DIMPOST
  1

  9
$DIMAPOST
  1

  9
$DIMALT
 70
0
  9
$DIMALTD
 70
3
  9
$DIMALTF
 40
0.03937007874
  9
$DIMLFAC
 40
1.0
  9
$DIMTOFL
 70
1
  9
$DIMTVP
 40
0.0
  9
$DIMTIX
 70
0
  9
$DIMSOXD
 70
0
  9
$DIMSAH
 70
0
  9
$DIMBLK1
  1

  9
$DIMBLK2
  1

  9
$DIMSTYLE
  2
ISO-25
  9
$DIMCLRD
 70
0
  9
$DIMCLRE
 70
0
  9
$DIMCLRT
 70
0
  9
$DIMTFAC
 40
1.0
  9
$DIMGAP
 40
0.625
  9
$DIMJUST
 70
0
  9
$DIMSD1
 70
0
  9
$DIMSD2
 70
0
  9
$DIMTOLJ
 70
0
  9
$DIMTZIN
 70
8
  9
$DIMALTZ
 70
0
  9
$DIMALTTZ
 70
0
  9
$DIMUPT
 70
0
  9
$DIMDEC
 70
2
  9
$DIMTDEC
 70
2
  9
$DIMALTU
 70
2
  9
$DIMALTTD
 70
3
  9
$DIMTXSTY
  7
Standard
  9
$DIMAUNIT
 70
0
  9
$DIMADEC
 70
0
  9
$DIMALTRND
 40
0.0
  9
$DIMAZIN
 70
0
  9
$DIMDSEP
 70
44
  9
$DIMATFIT
 70
3
  9
$DIMFRAC
 70
0
  9
$DIMLDRBLK
  1

  9
$DIMLUNIT
 70
2
  9
$DIMLWD
 70
-2
  9
$DIMLWE
 70
-2
  9
$DIMTMOVE
 70
0
  9
$DIMFXL
 40
1.0
  9
$DIMFXLON
 70
0
  9
$DIMJOGANG
 40
0.785398163397
  9
$DIMTFILL
 70
0
  9
$DIMTFILLCLR
 70
0
  9
$DIMARCSYM
 70
0
  9
$DIMLTYPE
  6

  9
$DIMLTEX1
  6

  9
$DIMLTEX2
  6

  9
$DIMTXTDIRECTION
 70
0
  9
$LUNITS
 70
2
  9
$LUPREC
 70
4
  9
$SKETCHINC
 40
1.0
  9
$FILLETRAD
 40
10.0
  9
$AUNITS
 70
0
  9
$AUPREC
 70
2
  9
$MENU
  1
.
  9
$ELEVATION
 40
0.0
  9
$PELEVATION
 40
0.0
  9
$THICKNESS
 40
0.0
  9
$LIMCHECK
 70
0
  9
$CHAMFERA
 40
0.0
  9
$CHAMFERB
 40
0.0
  9
$CHAMFERC
 40
0.0
  9
$CHAMFERD
 40
0.0
  9
$SKPOLY
 70
0
  9
$TDCREATE
 40
2460825.778761574
  9
$TDUCREATE
 40
2458532.153996898
  9
$TDUPDATE
 40
2460825.778761574
  9
$TDUUPDATE
 40
2458532.1544311
  9
$TDINDWG
 40
0.0
  9
$TDUSRTIMER
 40
0.0
  9
$USRTIMER
 70
1
  9
$ANGBASE
 50
0.0
  9
$ANGDIR
 70
0
  9
$PDMODE
 70
0
  9
$PDSIZE
 40
0.0
  9
$PLINEWID
 40
0.0
  9
$SPLFRAME
 70
0
  9
$SPLINETYPE
 70
6
  9
$SPLINESEGS
 70
8
  9
$HANDSEED
  5
42
  9
$SURFTAB1
 70
6
  9
$SURFTAB2
 70
6
  9
$SURFTYPE
 70
6
  9
$SURFU
 70
6
  9
$SURFV
 70
6
  9
$UCSBASE
  2

  9
$UCSNAME
  2

  9
$UCSORG
 10
0.0
 20
0.0
 30
0.0
  9
$UCSXDIR
 10
1.0
 20
0.0
 30
0.0
  9
$UCSYDIR
 10
0.0
 20
1.0
 30
0.0
  9
$UCSORTHOREF
  2

  9
$UCSORTHOVIEW
 70
0
  9
$UCSORGTOP
 10
0.0
 20
0.0
 30
0.0
  9
$UCSORGBOTTOM
 10
0.0
 20
0.0
 30
0.0
  9
$UCSORGLEFT
 10
0.0
 20
0.0
 30
0.0
  9
$UCSORGRIGHT
 10
0.0
 20
0.0
 30
0.0
  9
$UCSORGFRONT
 10
0.0
 20
0.0
 30
0.0
  9
$UCSORGBACK
 10
0.0
 20
0.0
 30
0.0
  9
$PUCSBASE
  2

  9
$PUCSNAME
  2

  9
$PUCSORG
 10
0.0
 20
0.0
 30
0.0
  9
$PUCSXDIR
 10
1.0
 20
0.0
 30
0.0
  9
$PUCSYDIR
 10
0.0
 20
1.0
 30
0.0
  9
$PUCSORTHOREF
  2

  9
$PUCSORTHOVIEW
 70
0
  9
$PUCSORGTOP
 10
0.0
 20
0.0
 30
0.0
  9
$PUCSORGBOTTOM
 10
0.0
 20
0.0
 30
0.0
  9
$PUCSORGLEFT
 10
0.0
 20
0.0
 30
0.0
  9
$PUCSORGRIGHT
 10
0.0
 20
0.0
 30
0.0
  9
$PUCSORGFRONT
 10
0.0
 20
0.0
 30
0.0
  9
$PUCSORGBACK
 10
0.0
 20
0.0
 30
0.0
  9
$USERI1
 70
0
  9
$USERI2
 70
0
  9
$USERI3
 70
0
  9
$USERI4
 70
0
  9
$USERI5
 70
0
  9
$USERR1
 40
0.0
  9
$USERR2
 40
0.0
  9
$USERR3
 40
0.0
  9
$USERR4
 40
0.0
  9
$USERR5
 40
0.0
  9
$WORLDVIEW
 70
1
  9
$SHADEDGE
 70
3
  9
$SHADEDIF
 70
70
  9
$TILEMODE
 70
1
  9
$MAXACTVP
 70
64
  9
$PINSBASE
 10
0.0
 20
0.0
 30
0.0
  9
$PLIMCHECK
 70
0
  9
$PEXTMIN
 10
1e+20
 20
1e+20
 30
1e+20
  9
$PEXTMAX
 10
-1e+20
 20
-1e+20
 30
-1e+20
  9
$PLIMMIN
 10
0.0
 20
0.0
  9
$PLIMMAX
 10
420.0
 20
297.0
  9
$UNITMODE
 70
0
  9
$VISRETAIN
 70
1
  9
$PLINEGEN
 70
0
  9
$PSLTSCALE
 70
1
  9
$TREEDEPTH
 70
3020
  9
$CMLSTYLE
  2
Standard
  9
$CMLJUST
 70
0
  9
$CMLSCALE
 40
20.0
  9
$PROXYGRAPHICS
 70
1
  9
$MEASUREMENT
 70
1
  9
$CELWEIGHT
370
-1
  9
$ENDCAPS
280
0
  9
$JOINSTYLE
280
0
  9
$LWDISPLAY
290
0
  9
$INSUNITS
 70
6
  9
$HYPERLINKBASE
  1

  9
$STYLESHEET
  1

  9
$XEDIT
290
1
  9
$CEPSNTYPE
380
0
  9
$PSTYLEMODE
290
1
  9
$FINGERPRINTGUID
  2
{0E97DE9C-F834-4C12-AC0E-0BDA0977E686}
  9
$VERSIONGUID
  2
{789C692D-BE7A-4C03-A5DA-57AE6B10087F}
  9
$EXTNAMES
290
1
  9
$PSVPSCALE
 40
0.0
  9
$OLESTARTUP
290
0
  9
$SORTENTS
280
127
  9
$INDEXCTL
280
0
  9
$HIDETEXT
280
1
  9
$XCLIPFRAME
280
0
  9
$HALOGAP
280
0
  9
$OBSCOLOR
 70
257
  9
$OBSLTYPE
280
0
  9
$INTERSECTIONDISPLAY
280
0
  9
$INTERSECTIONCOLOR
 70
257
  9
$DIMASSOC
280
2
  9
$PROJECTNAME
  1

  9
$CAMERADISPLAY
290
0
  9
$LENSLENGTH
 40
50.0
  9
$CAMERAHEIGHT
 40
0.0
  9
$STEPSPERSEC
 40
24.0
  9
$STEPSIZE
 40
100.0
  9
$3DDWFPREC
 40
2.0
  9
$PSOLWIDTH
 40
0.005
  9
$PSOLHEIGHT
 40
0.08
  9
$LOFTANG1
 40
1.570796326795
  9
$LOFTANG2
 40
1.570796326795
  9
$LOFTMAG1
 40
0.0
  9
$LOFTMAG2
 40
0.0
  9
$LOFTPARAM
 70
7
  9
$LOFTNORMALS
280
1
  9
$LATITUDE
 40
37.795
  9
$LONGITUDE
 40
-122.394
  9
$NORTHDIRECTION
 40
0.0
  9
$TIMEZONE
 70
-8000
  9
$LIGHTGLYPHDISPLAY
280
1
  9
$TILEMODELIGHTSYNCH
280
1
  9
$CMATERIAL
347
20
  9
$SOLIDHIST
280
0
  9
$SHOWHIST
280
1
  9
$DWFFRAME
280
2
  9
$DGNFRAME
280
2
  9
$REALWORLDSCALE
290
1
  9
$INTERFERECOLOR
 62
256
  9
$CSHADOW
280
0
  9
$SHADOWPLANELOCATION
 40
0.0
  0
ENDSEC
  0
SECTION
  2
CLASSES
  0
CLASS
  1
ACDBDICTIONARYWDFLT
  2
AcDbDictionaryWithDefault
  3
ObjectDBX Classes
 90
0
 91
0
280
0
281
0
  0
CLASS
  1
SUN
  2
AcDbSun
  3
SCENEOE
 90
1153
 91
0
280
0
281
0
  0
CLASS
  1
VISUALSTYLE
  2
AcDbVisualStyle
  3
ObjectDBX Classes
 90
4095
 91
0
280
0
281
0
  0
CLASS
  1
MATERIAL
  2
AcDbMaterial
  3
ObjectDBX Classes
 90
1153
 91
0
280
0
281
0
  0
CLASS
  1
SCALE
  2
AcDbScale
  3
ObjectDBX Classes
 90
1153
 91
0
280
0
281
0
  0
CLASS
  1
TABLESTYLE
  2
AcDbTableStyle
  3
ObjectDBX Classes
 90
4095
 91
0
280
0
281
0
  0
CLASS
  1
MLEADERSTYLE
  2
AcDbMLeaderStyle
  3
ACDB_MLEADERSTYLE_CLASS
 90
4095
 91
0
280
0
281
0
  0
CLASS
  1
DICTIONARYVAR
  2
AcDbDictionaryVar
  3
ObjectDBX Classes
 90
0
 91
0
280
0
281
0
  0
CLASS
  1
CELLSTYLEMAP
  2
AcDbCellStyleMap
  3
ObjectDBX Classes
 90
1152
 91
0
280
0
281
0
  0
CLASS
  1
MENTALRAYRENDERSETTINGS
  2
AcDbMentalRayRenderSettings
  3
SCENEOE
 90
1024
 91
0
280
0
281
0
  0
CLASS
  1
ACDBDETAILVIEWSTYLE
  2
AcDbDetailViewStyle
  3
ObjectDBX Classes
 90
1025
 91
0
280
0
281
0
  0
CLASS
  1
ACDBSECTIONVIEWSTYLE
  2
AcDbSectionViewStyle
  3
ObjectDBX Classes
 90
1025
 91
0
280
0
281
0
  0
CLASS
  1
RASTERVARIABLES
  2
AcDbRasterVariables
  3
ISM
 90
0
 91
0
280
0
281
0
  0
CLASS
  1
LAYOUT
  2
AcDbLayout
  3
ObjectDBX Classes
 90
0
 91
0
280
0
281
0
  0
CLASS
  1
ACDBPLACEHOLDER
  2
AcDbPlaceHolder
  3
ObjectDBX Classes
 90
0
 91
0
280
0
281
0
  0
ENDSEC
  0
SECTION
  2
TABLES
  0
TABLE
  2
VPORT
  5
8
330
0
100
AcDbSymbolTable
 70
1
  0
VPORT
  5
23
330
8
100
AcDbSymbolTableRecord
100
AcDbViewportTableRecord
  2
*Active
 70
0
 10
0.0
 20
0.0
 11
1.0
 21
1.0
 12
0.0
 22
0.0
 13
0.0
 23
0.0
 14
0.5
 24
0.5
 15
0.5
 25
0.5
 16
0.0
 26
0.0
 36
1.0
 17
0.0
 27
0.0
 37
0.0
 40
1000.0
 41
1.34
 42
50.0
 43
0.0
 44
0.0
 50
0.0
 51
0.0
 71
0
 72
1000
 73
1
 74
3
 75
0
 76
0
 77
0
 78
0
281
0
 65
0
146
0.0
  0
ENDTAB
  0
TABLE
  2
LTYPE
  5
2
330
0
100
AcDbSymbolTable
 70
3
  0
LTYPE
  5
24
330
2
100
AcDbSymbolTableRecord
100
AcDbLinetypeTableRecord
  2
ByBlock
 70
0
  3

 72
65
 73
0
 40
0.0
  0
LTYPE
  5
25
330
2
100
AcDbSymbolTableRecord
100
AcDbLinetypeTableRecord
  2
ByLayer
 70
0
  3

 72
65
 73
0
 40
0.0
  0
LTYPE
  5
26
330
2
100
AcDbSymbolTableRecord
100
AcDbLinetypeTableRecord
  2
Continuous
 70
0
  3

 72
65
 73
0
 40
0.0
  0
ENDTAB
  0
TABLE
  2
LAYER
  5
1
330
0
100
AcDbSymbolTable
 70
2
  0
LAYER
  5
27
330
1
100
AcDbSymbolTableRecord
100
AcDbLayerTableRecord
  2
0
 70
0
 62
7
  6
Continuous
370
-3
390
13
347
21
  0
LAYER
  5
28
330
1
100
AcDbSymbolTableRecord
100
AcDbLayerTableRecord
  2
Defpoints
 70
0
 62
7
  6
Continuous
290
0
370
-3
390
13
347
21
  0
ENDTAB
  0
TABLE
  2
STYLE
  5
5
330
0
100
AcDbSymbolTable
 70
1
  0
STYLE
  5
29
330
5
100
AcDbSymbolTableRecord
100
AcDbTextStyleTableRecord
  2
Standard
 70
0
 40
0.0
 41
1.0
 50
0.0
 71
0
 42
2.5
  3
txt
  4

  0
ENDTAB
  0
TABLE
  2
VIEW
  5
7
330
0
100
AcDbSymbolTable
 70
0
  0
ENDTAB
  0
TABLE
  2
UCS
  5
6
330
0
100
AcDbSymbolTable
 70
0
  0
ENDTAB
  0
TABLE
  2
APPID
  5
3
330
0
100
AcDbSymbolTable
 70
3
  0
APPID
  5
2A
330
3
100
AcDbSymbolTableRecord
100
AcDbRegAppTableRecord
  2
ACAD
 70
0
  0
APPID
  5
3F
330
3
100
AcDbSymbolTableRecord
100
AcDbRegAppTableRecord
  2
HATCHBACKGROUNDCOLOR
 70
0
  0
APPID
  5
40
330
3
100
AcDbSymbolTableRecord
100
AcDbRegAppTableRecord
  2
EZDXF
 70
0
  0
ENDTAB
  0
TABLE
  2
DIMSTYLE
  5
4
330
0
100
AcDbSymbolTable
 70
1
100
AcDbDimStyleTable
  0
DIMSTYLE
105
2B
330
4
100
AcDbSymbolTableRecord
100
AcDbDimStyleTableRecord
  2
Standard
 70
0
 40
1.0
 41
2.5
 42
0.625
 43
3.75
 44
1.25
 45
0.0
 46
0.0
 47
0.0
 48
0.0
 49
2.5
140
2.5
141
2.5
142
0.0
143
0.03937007874
144
1.0
145
0.0
146
1.0
147
0.625
148
0.0
 69
0
 70
0
 71
0
 72
0
 73
0
 74
0
 75
0
 76
0
 77
1
 78
8
 79
3
170
0
171
3
172
1
173
0
174
0
175
0
176
0
177
0
178
0
179
2
271
2
272
2
273
2
274
3
275
0
276
0
277
2
278
44
279
0
280
0
281
0
282
0
283
0
284
8
285
0
286
0
288
0
289
3
290
0
371
-2
372
-2
  0
ENDTAB
  0
TABLE
  2
BLOCK_RECORD
  5
9
330
0
100
AcDbSymbolTable
 70
2
  0
BLOCK_RECORD
  5
17
330
9
100
AcDbSymbolTableRecord
100
AcDbBlockTableRecord
  2
*Model_Space
340
1A
 70
0
280
1
281
0
  0
BLOCK_RECORD
  5
1B
330
9
100
AcDbSymbolTableRecord
100
AcDbBlockTableRecord
  2
*Paper_Space
340
1E
 70
0
280
1
281
0
  0
ENDTAB
  0
ENDSEC
  0
SECTION
  2
BLOCKS
  0
BLOCK
  5
18
330
17
100
AcDbEntity
  8
0
100
AcDbBlockBegin
  2
*Model_Space
 70
0
 10
0.0
 20
0.0
 30
0.0
  3
*Model_Space
  1

  0
ENDBLK
  5
19
330
17
100
AcDbEntity
  8
0
100
AcDbBlockEnd
  0
BLOCK
  5
1C
330
1B
100
AcDbEntity
  8
0
100
AcDbBlockBegin
  2
*Paper_Space
 70
0
 10
0.0
 20
0.0
 30
0.0
  3
*Paper_Space
  1

  0
ENDBLK
  5
1D
330
1B
100
AcDbEntity
  8
0
100
AcDbBlockEnd
  0
ENDSEC
  0
SECTION
  2
ENTITIES
  0
LWPOLYLINE
  5
2F
330
17
100
AcDbEntity
  8
0
100
AcDbPolyline
 90
51
 70
0
 10
8.0
 20
3.0
 10
7.91
 20
3.0
 10
7.82
 20
3.0
 10
7.73
 20
3.0
 10
7.64
 20
3.0
 10
7.55
 20
3.0
 10
7.46
 20
3.0
 10
7.37
 20
3.0
 10
7.28
 20
3.0
 10
7.1899999999999995
 20
3.0
 10
7.1
 20
3.0
 10
7.01
 20
3.0
 10
6.92
 20
3.0
 10
6.83
 20
3.0
 10
6.74
 20
3.0
 10
6.65
 20
3.0
 10
6.5600000000000005
 20
3.0
 10
6.47
 20
3.0
 10
6.38
 20
3.0
 10
6.29
 20
3.0
 10
6.2
 20
3.0
 10
6.11
 20
3.0
 10
6.02
 20
3.0
 10
5.93
 20
3.0
 10
5.84
 20
3.0
 10
5.75
 20
3.0
 10
5.66
 20
3.0
 10
5.57
 20
3.0
 10
5.48
 20
3.0
 10
5.390000000000001
 20
3.0
 10
5.3
 20
3.0
 10
5.21
 20
3.0
 10
5.12
 20
3.0
 10
5.029999999999999
 20
3.0
 10
4.9399999999999995
 20
3.0
 10
4.85
 20
3.0
 10
4.76
 20
3.0
 10
4.67
 20
3.0
 10
4.58
 20
3.0
 10
4.49
 20
3.0
 10
4.4
 20
3.0
 10
4.3100000000000005
 20
3.0
 10
4.220000000000001
 20
3.0
 10
4.13
 20
3.0
 10
4.04
 20
3.0
 10
3.95
 20
3.0
 10
3.8600000000000003
 20
3.0
 10
3.7699999999999996
 20
3.0
 10
3.6799999999999997
 20
3.0
 10
3.59
 20
3.0
 10
3.5
 20
3.0
  0
LWPOLYLINE
  5
30
330
17
100
AcDbEntity
  8
0
100
AcDbPolyline
 90
51
 70
0
 10
-3.5
 20
3.0
 10
-3.59
 20
3.0
 10
-3.6799999999999997
 20
3.0
 10
-3.7699999999999996
 20
3.0
 10
-3.8600000000000003
 20
3.0
 10
-3.95
 20
3.0
 10
-4.04
 20
3.0
 10
-4.13
 20
3.0
 10
-4.22
 20
3.0
 10
-4.3100000000000005
 20
3.0
 10
-4.4
 20
3.0
 10
-4.49
 20
3.0
 10
-4.58
 20
3.0
 10
-4.67
 20
3.0
 10
-4.76
 20
3.0
 10
-4.85
 20
3.0
 10
-4.9399999999999995
 20
3.0
 10
-5.029999999999999
 20
3.0
 10
-5.120000000000001
 20
3.0
 10
-5.210000000000001
 20
3.0
 10
-5.300000000000001
 20
3.0
 10
-5.390000000000001
 20
3.0
 10
-5.48
 20
3.0
 10
-5.57
 20
3.0
 10
-5.66
 20
3.0
 10
-5.75
 20
3.0
 10
-5.84
 20
3.0
 10
-5.93
 20
3.0
 10
-6.02
 20
3.0
 10
-6.109999999999999
 20
3.0
 10
-6.199999999999999
 20
3.0
 10
-6.289999999999999
 20
3.0
 10
-6.379999999999999
 20
3.0
 10
-6.470000000000001
 20
3.0
 10
-6.5600000000000005
 20
3.0
 10
-6.65
 20
3.0
 10
-6.74
 20
3.0
 10
-6.83
 20
3.0
 10
-6.92
 20
3.0
 10
-7.01
 20
3.0
 10
-7.1
 20
3.0
 10
-7.1899999999999995
 20
3.0
 10
-7.279999999999999
 20
3.0
 10
-7.370000000000001
 20
3.0
 10
-7.460000000000001
 20
3.0
 10
-7.550000000000001
 20
3.0
 10
-7.640000000000001
 20
3.0
 10
-7.73
 20
3.0
 10
-7.82
 20
3.0
 10
-7.91
 20
3.0
 10
-8.0
 20
3.0
  0
LWPOLYLINE
  5
31
330
17
100
AcDbEntity
  8
0
100
AcDbPolyline
 90
51
 70
0
 10
3.5
 20
-7.0
 10
3.36
 20
-7.0
 10
3.2199999999999998
 20
-7.0
 10
3.08
 20
-7.0
 10
2.94
 20
-7.0
 10
2.8
 20
-7.0
 10
2.66
 20
-7.0
 10
2.52
 20
-7.0
 10
2.38
 20
-7.0
 10
2.24
 20
-7.0
 10
2.1
 20
-7.0
 10
1.96
 20
-7.0
 10
1.82
 20
-7.0
 10
1.68
 20
-7.0
 10
1.54
 20
-7.0
 10
1.4
 20
-7.0
 10
1.2599999999999998
 20
-7.0
 10
1.12
 20
-7.0
 10
0.98
 20
-7.0
 10
0.8399999999999999
 20
-7.0
 10
0.7000000000000002
 20
-7.0
 10
0.56
 20
-7.0
 10
0.41999999999999993
 20
-7.0
 10
0.2799999999999998
 20
-7.0
 10
0.14000000000000012
 20
-7.0
 10
0.0
 20
-7.0
 10
-0.14000000000000012
 20
-7.0
 10
-0.2799999999999998
 20
-7.0
 10
-0.41999999999999993
 20
-7.0
 10
-0.5599999999999996
 20
-7.0
 10
-0.7000000000000002
 20
-7.0
 10
-0.8399999999999999
 20
-7.0
 10
-0.9800000000000004
 20
-7.0
 10
-1.12
 20
-7.0
 10
-1.2599999999999998
 20
-7.0
 10
-1.4000000000000004
 20
-7.0
 10
-1.54
 20
-7.0
 10
-1.6799999999999997
 20
-7.0
 10
-1.8200000000000003
 20
-7.0
 10
-1.96
 20
-7.0
 10
-2.0999999999999996
 20
-7.0
 10
-2.24
 20
-7.0
 10
-2.38
 20
-7.0
 10
-2.5199999999999996
 20
-7.0
 10
-2.66
 20
-7.0
 10
-2.8
 20
-7.0
 10
-2.9400000000000004
 20
-7.0
 10
-3.08
 20
-7.0
 10
-3.2199999999999998
 20
-7.0
 10
-3.3600000000000003
 20
-7.0
 10
-3.5
 20
-7.0
  0
LWPOLYLINE
  5
32
330
17
100
AcDbEntity
  8
0
100
AcDbPolyline
 90
51
 70
0
 10
3.5
 20
7.0
 10
3.36
 20
7.0
 10
3.2199999999999998
 20
7.0
 10
3.08
 20
7.0
 10
2.94
 20
7.0
 10
2.8
 20
7.0
 10
2.66
 20
7.0
 10
2.52
 20
7.0
 10
2.38
 20
7.0
 10
2.24
 20
7.0
 10
2.1
 20
7.0
 10
1.96
 20
7.0
 10
1.82
 20
7.0
 10
1.68
 20
7.0
 10
1.54
 20
7.0
 10
1.4
 20
7.0
 10
1.2599999999999998
 20
7.0
 10
1.12
 20
7.0
 10
0.98
 20
7.0
 10
0.8399999999999999
 20
7.0
 10
0.7000000000000002
 20
7.0
 10
0.56
 20
7.0
 10
0.41999999999999993
 20
7.0
 10
0.2799999999999998
 20
7.0
 10
0.14000000000000012
 20
7.0
 10
0.0
 20
7.0
 10
-0.14000000000000012
 20
7.0
 10
-0.2799999999999998
 20
7.0
 10
-0.41999999999999993
 20
7.0
 10
-0.5599999999999996
 20
7.0
 10
-0.7000000000000002
 20
7.0
 10
-0.8399999999999999
 20
7.0
 10
-0.9800000000000004
 20
7.0
 10
-1.12
 20
7.0
 10
-1.2599999999999998
 20
7.0
 10
-1.4000000000000004
 20
7.0
 10
-1.54
 20
7.0
 10
-1.6799999999999997
 20
7.0
 10
-1.8200000000000003
 20
7.0
 10
-1.96
 20
7.0
 10
-2.0999999999999996
 20
7.0
 10
-2.24
 20
7.0
 10
-2.38
 20
7.0
 10
-2.5199999999999996
 20
7.0
 10
-2.66
 20
7.0
 10
-2.8
 20
7.0
 10
-2.9400000000000004
 20
7.0
 10
-3.08
 20
7.0
 10
-3.2199999999999998
 20
7.0
 10
-3.3600000000000003
 20
7.0
 10
-3.5
 20
7.0
  0
LWPOLYLINE
  5
33
330
17
100
AcDbEntity
  8
0
100
AcDbPolyline
 90
51
 70
0
 10
3.5
 20
-6.520786851065
 10
3.5
 20
-6.446263572767103
 10
3.5
 20
-6.371740294469207
 10
3.5
 20
-6.29721701617131
 10
3.5
 20
-6.222693737873414
 10
3.5
 20
-6.1481704595755176
 10
3.5
 20
-6.073647181277622
 10
3.5
 20
-5.999123902979725
 10
3.5
 20
-5.924600624681829
 10
3.5
 20
-5.850077346383932
 10
3.5
 20
-5.775554068086036
 10
3.5
 20
-5.701030789788139
 10
3.5
 20
-5.626507511490243
 10
3.5
 20
-5.551984233192346
 10
3.5
 20
-5.47746095489445
 10
3.5
 20
-5.4029376765965536
 10
3.5
 20
-5.328414398298658
 10
3.5
 20
-5.253891120000761
 10
3.5
 20
-5.179367841702865
 10
3.5
 20
-5.104844563404969
 10
3.5
 20
-5.030321285107072
 10
3.5
 20
-4.955798006809175
 10
3.5
 20
-4.881274728511279
 10
3.5
 20
-4.806751450213382
 10
3.5
 20
-4.732228171915486
 10
3.5
 20
-4.6577048936175895
 10
3.5
 20
-4.583181615319694
 10
3.5
 20
-4.508658337021797
 10
3.5
 20
-4.4341350587239
 10
3.5
 20
-4.359611780426004
 10
3.5
 20
-4.285088502128108
 10
3.5
 20
-4.210565223830212
 10
3.5
 20
-4.136041945532314
 10
3.5
 20
-4.061518667234418
 10
3.5
 20
-3.986995388936522
 10
3.5
 20
-3.912472110638626
 10
3.5
 20
-3.837948832340729
 10
3.5
 20
-3.7634255540428327
 10
3.5
 20
-3.688902275744937
 10
3.5
 20
-3.61437899744704
 10
3.5
 20
-3.5398557191491435
 10
3.5
 20
-3.465332440851247
 10
3.5
 20
-3.390809162553351
 10
3.5
 20
-3.3162858842554543
 10
3.5
 20
-3.241762605957558
 10
3.5
 20
-3.167239327659662
 10
3.5
 20
-3.092716049361765
 10
3.5
 20
-3.0181927710638687
 10
3.5
 20
-2.9436694927659723
 10
3.5
 20
-2.8691462144680755
 10
3.5
 20
-2.7946229361701795
  0
LWPOLYLINE
  5
34
330
17
100
AcDbEntity
  8
0
100
AcDbPolyline
 90
51
 70
0
 10
3.5
 20
-6.999999999999999
 10
3.5
 20
-6.999307493694826
 10
3.5
 20
-6.998614987389653
 10
3.5
 20
-6.99792248108448
 10
3.5
 20
-6.996636607668597
 10
3.5
 20
-6.9945595781050995
 10
3.5
 20
-6.992482548541603
 10
3.5
 20
-6.990405518978106
 10
3.5
 20
-6.987143013230567
 10
3.5
 20
-6.983682928119022
 10
3.5
 20
-6.980222843007476
 10
3.5
 20
-6.976368297748311
 10
3.5
 20
-6.9715276021201005
 10
3.5
 20
-6.966686906491889
 10
3.5
 20
-6.961846210863678
 10
3.5
 20
-6.956021808169805
 10
3.5
 20
-6.949803922649667
 10
3.5
 20
-6.9435860371295295
 10
3.5
 20
-6.9371720378821085
 10
3.5
 20
-6.929581356270991
 10
3.5
 20
-6.921990674659873
 10
3.5
 20
-6.914399993048755
 10
3.5
 20
-6.906027921598404
 10
3.5
 20
-6.897069807768629
 10
3.5
 20
-6.888111693938854
 10
3.5
 20
-6.879153580109079
 10
3.5
 20
-6.868834364214023
 10
3.5
 20
-6.8585151483189675
 10
3.5
 20
-6.848195932423912
 10
3.5
 20
-6.837296512198578
 10
3.5
 20
-6.82562348619954
 10
3.5
 20
-6.813950460200503
 10
3.5
 20
-6.802277434201464
 10
3.5
 20
-6.789451069784527
 10
3.5
 20
-6.776432482297941
 10
3.5
 20
-6.763413894811354
 10
3.5
 20
-6.750013489597689
 10
3.5
 20
-6.735658540066326
 10
3.5
 20
-6.721303590534964
 10
3.5
 20
-6.706948641003602
 10
3.5
 20
-6.691646392703422
 10
3.5
 20
-6.675965224895715
 10
3.5
 20
-6.660284057088009
 10
3.5
 20
-6.6444150125159815
 10
3.5
 20
-6.62741870735803
 10
3.5
 20
-6.61042240220008
 10
3.5
 20
-6.593426097042129
 10
3.5
 20
-6.5756851478289295
 10
3.5
 20
-6.557385715574292
 10
3.5
 20
-6.539086283319656
 10
3.5
 20
-6.520786851065019
  0
LWPOLYLINE
  5
35
330
17
100
AcDbEntity
  8
0
100
AcDbPolyline
 90
51
 70
0
 10
3.5
 20
6.520786851065115
 10
3.5
 20
6.539086283319747
 10
3.5
 20
6.557385715574381
 10
3.5
 20
6.575685147829014
 10
3.5
 20
6.593426097042211
 10
3.5
 20
6.610422402200158
 10
3.5
 20
6.627418707358106
 10
3.5
 20
6.6444150125160535
 10
3.5
 20
6.660284057088078
 10
3.5
 20
6.675965224895782
 10
3.5
 20
6.691646392703486
 10
3.5
 20
6.706948641003663
 10
3.5
 20
6.721303590535022
 10
3.5
 20
6.73565854006638
 10
3.5
 20
6.750013489597738
 10
3.5
 20
6.763413894811402
 10
3.5
 20
6.776432482297986
 10
3.5
 20
6.789451069784571
 10
3.5
 20
6.802277434201506
 10
3.5
 20
6.813950460200542
 10
3.5
 20
6.825623486199578
 10
3.5
 20
6.837296512198613
 10
3.5
 20
6.848195932423945
 10
3.5
 20
6.8585151483189986
 10
3.5
 20
6.8688343642140515
 10
3.5
 20
6.879153580109105
 10
3.5
 20
6.888111693938878
 10
3.5
 20
6.897069807768651
 10
3.5
 20
6.906027921598425
 10
3.5
 20
6.914399993048773
 10
3.5
 20
6.92199067465989
 10
3.5
 20
6.929581356271006
 10
3.5
 20
6.937172037882123
 10
3.5
 20
6.943586037129542
 10
3.5
 20
6.949803922649679
 10
3.5
 20
6.956021808169815
 10
3.5
 20
6.961846210863688
 10
3.5
 20
6.966686906491898
 10
3.5
 20
6.971527602120107
 10
3.5
 20
6.976368297748317
 10
3.5
 20
6.980222843007481
 10
3.5
 20
6.983682928119026
 10
3.5
 20
6.987143013230571
 10
3.5
 20
6.990405518978109
 10
3.5
 20
6.992482548541606
 10
3.5
 20
6.994559578105102
 10
3.5
 20
6.996636607668599
 10
3.5
 20
6.997922481084482
 10
3.5
 20
6.998614987389654
 10
3.5
 20
6.999307493694828
 10
3.5
 20
7.000000000000001
  0
LWPOLYLINE
  5
36
330
17
100
AcDbEntity
  8
0
100
AcDbPolyline
 90
51
 70
0
 10
3.5
 20
2.794622936171
 10
3.5
 20
2.8691462144688966
 10
3.5
 20
2.943669492766793
 10
3.5
 20
3.0181927710646894
 10
3.5
 20
3.092716049362586
 10
3.5
 20
3.167239327660482
 10
3.5
 20
3.2417626059583786
 10
3.5
 20
3.316285884256275
 10
3.5
 20
3.3908091625541714
 10
3.5
 20
3.465332440852068
 10
3.5
 20
3.539855719149964
 10
3.5
 20
3.6143789974478606
 10
3.5
 20
3.688902275745757
 10
3.5
 20
3.7634255540436534
 10
3.5
 20
3.8379488323415503
 10
3.5
 20
3.912472110639446
 10
3.5
 20
3.986995388937343
 10
3.5
 20
4.061518667235239
 10
3.5
 20
4.136041945533136
 10
3.5
 20
4.210565223831032
 10
3.5
 20
4.285088502128929
 10
3.5
 20
4.359611780426825
 10
3.5
 20
4.4341350587247215
 10
3.5
 20
4.508658337022617
 10
3.5
 20
4.583181615320514
 10
3.5
 20
4.65770489361841
 10
3.5
 20
4.732228171916306
 10
3.5
 20
4.806751450214204
 10
3.5
 20
4.8812747285121
 10
3.5
 20
4.955798006809996
 10
3.5
 20
5.030321285107893
 10
3.5
 20
5.104844563405789
 10
3.5
 20
5.1793678417036855
 10
3.5
 20
5.253891120001581
 10
3.5
 20
5.328414398299478
 10
3.5
 20
5.402937676597374
 10
3.5
 20
5.477460954895271
 10
3.5
 20
5.551984233193167
 10
3.5
 20
5.626507511491063
 10
3.5
 20
5.701030789788961
 10
3.5
 20
5.775554068086857
 10
3.5
 20
5.850077346384753
 10
3.5
 20
5.924600624682649
 10
3.5
 20
5.999123902980546
 10
3.5
 20
6.073647181278442
 10
3.5
 20
6.148170459576338
 10
3.5
 20
6.222693737874235
 10
3.5
 20
6.297217016172132
 10
3.5
 20
6.371740294470028
 10
3.5
 20
6.446263572767925
 10
3.5
 20
6.520786851065821
  0
LWPOLYLINE
  5
37
330
17
100
AcDbEntity
  8
0
100
AcDbPolyline
 90
51
 70
0
 10
8.0
 20
-3.0
 10
8.0
 20
-2.9789394462327317
 10
8.0
 20
-2.9578788924654638
 10
8.0
 20
-2.936818338698196
 10
8.0
 20
-2.8981584806048852
 10
8.0
 20
-2.836032883410186
 10
8.0
 20
-2.773907286215486
 10
8.0
 20
-2.711781689020786
 10
8.0
 20
-2.6171276861944976
 10
8.0
 20
-2.5170522824296104
 10
8.0
 20
-2.416976878664723
 10
8.0
 20
-2.3074924440578584
 10
8.0
 20
-2.1744854323460494
 10
8.0
 20
-2.0414784206342413
 10
8.0
 20
-1.9084714089224313
 10
8.0
 20
-1.7567057679314957
 10
8.0
 20
-1.5974366752289093
 10
8.0
 20
-1.4381675825263205
 10
8.0
 20
-1.276287680733326
 10
8.0
 20
-1.09874292439788
 10
8.0
 20
-0.9211981680624362
 10
8.0
 20
-0.7436534117269925
 10
8.0
 20
-0.5607527535699124
 10
8.0
 20
-0.37383516904660924
 10
8.0
 20
-0.18691758452330348
 10
8.0
 20
-5.51091059616309e-16
 10
8.0
 20
0.18691758452330254
 10
8.0
 20
0.3738351690466083
 10
8.0
 20
0.5607527535699113
 10
8.0
 20
0.7436534117269914
 10
8.0
 20
0.921198168062435
 10
8.0
 20
1.0987429243978788
 10
8.0
 20
1.276287680733325
 10
8.0
 20
1.4381675825263218
 10
8.0
 20
1.5974366752289084
 10
8.0
 20
1.756705767931495
 10
8.0
 20
1.9084714089224306
 10
8.0
 20
2.0414784206342405
 10
8.0
 20
2.174485432346049
 10
8.0
 20
2.307492444057859
 10
8.0
 20
2.4169768786647228
 10
8.0
 20
2.517052282429609
 10
8.0
 20
2.617127686194497
 10
8.0
 20
2.7117816890207855
 10
8.0
 20
2.773907286215486
 10
8.0
 20
2.8360328834101853
 10
8.0
 20
2.8981584806048843
 10
8.0
 20
2.9368183386981954
 10
8.0
 20
2.9578788924654633
 10
8.0
 20
2.978939446232732
 10
8.0
 20
3.0
  0
LWPOLYLINE
  5
38
330
17
100
AcDbEntity
  8
0
100
AcDbPolyline
 90
51
 70
0
 10
-8.0
 20
-3.0
 10
-8.0
 20
-2.9789394462327317
 10
-8.0
 20
-2.9578788924654638
 10
-8.0
 20
-2.936818338698196
 10
-8.0
 20
-2.8981584806048852
 10
-8.0
 20
-2.836032883410186
 10
-8.0
 20
-2.773907286215486
 10
-8.0
 20
-2.711781689020786
 10
-8.0
 20
-2.6171276861944976
 10
-8.0
 20
-2.5170522824296104
 10
-8.0
 20
-2.416976878664723
 10
-8.0
 20
-2.3074924440578584
 10
-8.0
 20
-2.1744854323460494
 10
-8.0
 20
-2.0414784206342413
 10
-8.0
 20
-1.9084714089224313
 10
-8.0
 20
-1.7567057679314957
 10
-8.0
 20
-1.5974366752289093
 10
-8.0
 20
-1.4381675825263205
 10
-8.0
 20
-1.276287680733326
 10
-8.0
 20
-1.09874292439788
 10
-8.0
 20
-0.9211981680624362
 10
-8.0
 20
-0.7436534117269925
 10
-8.0
 20
-0.5607527535699124
 10
-8.0
 20
-0.37383516904660924
 10
-8.0
 20
-0.18691758452330348
 10
-8.0
 20
-5.51091059616309e-16
 10
-8.0
 20
0.18691758452330254
 10
-8.0
 20
0.3738351690466083
 10
-8.0
 20
0.5607527535699113
 10
-8.0
 20
0.7436534117269914
 10
-8.0
 20
0.921198168062435
 10
-8.0
 20
1.0987429243978788
 10
-8.0
 20
1.276287680733325
 10
-8.0
 20
1.4381675825263218
 10
-8.0
 20
1.5974366752289084
 10
-8.0
 20
1.756705767931495
 10
-8.0
 20
1.9084714089224306
 10
-8.0
 20
2.0414784206342405
 10
-8.0
 20
2.174485432346049
 10
-8.0
 20
2.307492444057859
 10
-8.0
 20
2.4169768786647228
 10
-8.0
 20
2.517052282429609
 10
-8.0
 20
2.617127686194497
 10
-8.0
 20
2.7117816890207855
 10
-8.0
 20
2.773907286215486
 10
-8.0
 20
2.8360328834101853
 10
-8.0
 20
2.8981584806048843
 10
-8.0
 20
2.9368183386981954
 10
-8.0
 20
2.9578788924654633
 10
-8.0
 20
2.978939446232732
 10
-8.0
 20
3.0
  0
LWPOLYLINE
  5
39
330
17
100
AcDbEntity
  8
0
100
AcDbPolyline
 90
51
 70
0
 10
-8.0
 20
-3.0
 10
-7.91
 20
-3.0
 10
-7.82
 20
-3.0
 10
-7.73
 20
-3.0
 10
-7.640000000000001
 20
-3.0
 10
-7.550000000000001
 20
-3.0
 10
-7.460000000000001
 20
-3.0
 10
-7.369999999999999
 20
-3.0
 10
-7.279999999999999
 20
-3.0
 10
-7.1899999999999995
 20
-3.0
 10
-7.1
 20
-3.0
 10
-7.01
 20
-3.0
 10
-6.92
 20
-3.0
 10
-6.83
 20
-3.0
 10
-6.74
 20
-3.0
 10
-6.65
 20
-3.0
 10
-6.5600000000000005
 20
-3.0
 10
-6.470000000000001
 20
-3.0
 10
-6.379999999999999
 20
-3.0
 10
-6.289999999999999
 20
-3.0
 10
-6.199999999999999
 20
-3.0
 10
-6.109999999999999
 20
-3.0
 10
-6.02
 20
-3.0
 10
-5.93
 20
-3.0
 10
-5.84
 20
-3.0
 10
-5.75
 20
-3.0
 10
-5.66
 20
-3.0
 10
-5.57
 20
-3.0
 10
-5.48
 20
-3.0
 10
-5.390000000000001
 20
-3.0
 10
-5.300000000000001
 20
-3.0
 10
-5.210000000000001
 20
-3.0
 10
-5.120000000000001
 20
-3.0
 10
-5.029999999999999
 20
-3.0
 10
-4.9399999999999995
 20
-3.0
 10
-4.85
 20
-3.0
 10
-4.76
 20
-3.0
 10
-4.67
 20
-3.0
 10
-4.58
 20
-3.0
 10
-4.49
 20
-3.0
 10
-4.4
 20
-3.0
 10
-4.3100000000000005
 20
-3.0
 10
-4.220000000000001
 20
-3.0
 10
-4.13
 20
-3.0
 10
-4.04
 20
-3.0
 10
-3.95
 20
-3.0
 10
-3.8600000000000003
 20
-3.0
 10
-3.7699999999999996
 20
-3.0
 10
-3.6799999999999997
 20
-3.0
 10
-3.59
 20
-3.0
 10
-3.5
 20
-3.0
  0
LWPOLYLINE
  5
3A
330
17
100
AcDbEntity
  8
0
100
AcDbPolyline
 90
51
 70
0
 10
3.5
 20
-3.0
 10
3.59
 20
-3.0
 10
3.68
 20
-3.0
 10
3.77
 20
-3.0
 10
3.86
 20
-3.0
 10
3.95
 20
-3.0
 10
4.04
 20
-3.0
 10
4.13
 20
-3.0
 10
4.22
 20
-3.0
 10
4.3100000000000005
 20
-3.0
 10
4.4
 20
-3.0
 10
4.49
 20
-3.0
 10
4.58
 20
-3.0
 10
4.67
 20
-3.0
 10
4.76
 20
-3.0
 10
4.85
 20
-3.0
 10
4.9399999999999995
 20
-3.0
 10
5.03
 20
-3.0
 10
5.12
 20
-3.0
 10
5.21
 20
-3.0
 10
5.3
 20
-3.0
 10
5.39
 20
-3.0
 10
5.48
 20
-3.0
 10
5.57
 20
-3.0
 10
5.66
 20
-3.0
 10
5.75
 20
-3.0
 10
5.84
 20
-3.0
 10
5.93
 20
-3.0
 10
6.02
 20
-3.0
 10
6.109999999999999
 20
-3.0
 10
6.2
 20
-3.0
 10
6.29
 20
-3.0
 10
6.38
 20
-3.0
 10
6.470000000000001
 20
-3.0
 10
6.5600000000000005
 20
-3.0
 10
6.65
 20
-3.0
 10
6.74
 20
-3.0
 10
6.83
 20
-3.0
 10
6.92
 20
-3.0
 10
7.01
 20
-3.0
 10
7.1
 20
-3.0
 10
7.1899999999999995
 20
-3.0
 10
7.279999999999999
 20
-3.0
 10
7.37
 20
-3.0
 10
7.46
 20
-3.0
 10
7.55
 20
-3.0
 10
7.64
 20
-3.0
 10
7.73
 20
-3.0
 10
7.82
 20
-3.0
 10
7.91
 20
-3.0
 10
8.0
 20
-3.0
  0
LWPOLYLINE
  5
3B
330
17
100
AcDbEntity
  8
0
100
AcDbPolyline
 90
51
 70
0
 10
-3.5
 20
2.794622936171
 10
-3.5
 20
2.8691462144688966
 10
-3.5
 20
2.943669492766793
 10
-3.5
 20
3.0181927710646894
 10
-3.5
 20
3.092716049362586
 10
-3.5
 20
3.167239327660482
 10
-3.5
 20
3.2417626059583786
 10
-3.5
 20
3.316285884256275
 10
-3.5
 20
3.3908091625541714
 10
-3.5
 20
3.465332440852068
 10
-3.5
 20
3.539855719149964
 10
-3.5
 20
3.6143789974478606
 10
-3.5
 20
3.688902275745757
 10
-3.5
 20
3.7634255540436534
 10
-3.5
 20
3.8379488323415503
 10
-3.5
 20
3.912472110639446
 10
-3.5
 20
3.986995388937343
 10
-3.5
 20
4.061518667235239
 10
-3.5
 20
4.136041945533136
 10
-3.5
 20
4.210565223831032
 10
-3.5
 20
4.285088502128929
 10
-3.5
 20
4.359611780426825
 10
-3.5
 20
4.4341350587247215
 10
-3.5
 20
4.508658337022617
 10
-3.5
 20
4.583181615320514
 10
-3.5
 20
4.65770489361841
 10
-3.5
 20
4.732228171916306
 10
-3.5
 20
4.806751450214204
 10
-3.5
 20
4.8812747285121
 10
-3.5
 20
4.955798006809996
 10
-3.5
 20
5.030321285107893
 10
-3.5
 20
5.104844563405789
 10
-3.5
 20
5.1793678417036855
 10
-3.5
 20
5.253891120001581
 10
-3.5
 20
5.328414398299478
 10
-3.5
 20
5.402937676597374
 10
-3.5
 20
5.477460954895271
 10
-3.5
 20
5.551984233193167
 10
-3.5
 20
5.626507511491063
 10
-3.5
 20
5.701030789788961
 10
-3.5
 20
5.775554068086857
 10
-3.5
 20
5.850077346384753
 10
-3.5
 20
5.924600624682649
 10
-3.5
 20
5.999123902980546
 10
-3.5
 20
6.073647181278442
 10
-3.5
 20
6.148170459576338
 10
-3.5
 20
6.222693737874235
 10
-3.5
 20
6.297217016172132
 10
-3.5
 20
6.371740294470028
 10
-3.5
 20
6.446263572767925
 10
-3.5
 20
6.520786851065821
  0
LWPOLYLINE
  5
3C
330
17
100
AcDbEntity
  8
0
100
AcDbPolyline
 90
51
 70
0
 10
-3.5
 20
6.520786851065115
 10
-3.5
 20
6.539086283319747
 10
-3.5
 20
6.557385715574381
 10
-3.5
 20
6.575685147829014
 10
-3.5
 20
6.593426097042211
 10
-3.5
 20
6.610422402200158
 10
-3.5
 20
6.627418707358106
 10
-3.5
 20
6.6444150125160535
 10
-3.5
 20
6.660284057088078
 10
-3.5
 20
6.675965224895782
 10
-3.5
 20
6.691646392703486
 10
-3.5
 20
6.706948641003663
 10
-3.5
 20
6.721303590535022
 10
-3.5
 20
6.73565854006638
 10
-3.5
 20
6.750013489597739
 10
-3.5
 20
6.763413894811402
 10
-3.5
 20
6.776432482297986
 10
-3.5
 20
6.789451069784571
 10
-3.5
 20
6.802277434201506
 10
-3.5
 20
6.813950460200542
 10
-3.5
 20
6.825623486199578
 10
-3.5
 20
6.837296512198613
 10
-3.5
 20
6.848195932423945
 10
-3.5
 20
6.858515148318998
 10
-3.5
 20
6.868834364214051
 10
-3.5
 20
6.8791535801091035
 10
-3.5
 20
6.888111693938877
 10
-3.5
 20
6.89706980776865
 10
-3.5
 20
6.906027921598424
 10
-3.5
 20
6.9143999930487725
 10
-3.5
 20
6.921990674659889
 10
-3.5
 20
6.929581356271006
 10
-3.5
 20
6.937172037882123
 10
-3.5
 20
6.943586037129542
 10
-3.5
 20
6.949803922649679
 10
-3.5
 20
6.956021808169815
 10
-3.5
 20
6.961846210863688
 10
-3.5
 20
6.966686906491898
 10
-3.5
 20
6.971527602120108
 10
-3.5
 20
6.976368297748317
 10
-3.5
 20
6.98022284300748
 10
-3.5
 20
6.983682928119026
 10
-3.5
 20
6.987143013230571
 10
-3.5
 20
6.9904055189781085
 10
-3.5
 20
6.992482548541606
 10
-3.5
 20
6.994559578105102
 10
-3.5
 20
6.996636607668599
 10
-3.5
 20
6.997922481084482
 10
-3.5
 20
6.998614987389654
 10
-3.5
 20
6.999307493694828
 10
-3.5
 20
7.000000000000001
  0
LWPOLYLINE
  5
3D
330
17
100
AcDbEntity
  8
0
100
AcDbPolyline
 90
51
 70
0
 10
-3.5
 20
-7.0
 10
-3.5
 20
-6.999307493694827
 10
-3.5
 20
-6.9986149873896535
 10
-3.5
 20
-6.997922481084481
 10
-3.5
 20
-6.996636607668598
 10
-3.5
 20
-6.9945595781051
 10
-3.5
 20
-6.992482548541604
 10
-3.5
 20
-6.990405518978107
 10
-3.5
 20
-6.987143013230568
 10
-3.5
 20
-6.983682928119022
 10
-3.5
 20
-6.980222843007476
 10
-3.5
 20
-6.976368297748311
 10
-3.5
 20
-6.9715276021201005
 10
-3.5
 20
-6.966686906491889
 10
-3.5
 20
-6.961846210863678
 10
-3.5
 20
-6.9560218081698055
 10
-3.5
 20
-6.949803922649668
 10
-3.5
 20
-6.94358603712953
 10
-3.5
 20
-6.937172037882109
 10
-3.5
 20
-6.929581356270992
 10
-3.5
 20
-6.921990674659874
 10
-3.5
 20
-6.914399993048756
 10
-3.5
 20
-6.906027921598405
 10
-3.5
 20
-6.89706980776863
 10
-3.5
 20
-6.888111693938855
 10
-3.5
 20
-6.8791535801090795
 10
-3.5
 20
-6.868834364214024
 10
-3.5
 20
-6.858515148318968
 10
-3.5
 20
-6.848195932423913
 10
-3.5
 20
-6.837296512198579
 10
-3.5
 20
-6.825623486199541
 10
-3.5
 20
-6.813950460200503
 10
-3.5
 20
-6.802277434201464
 10
-3.5
 20
-6.789451069784528
 10
-3.5
 20
-6.776432482297941
 10
-3.5
 20
-6.763413894811355
 10
-3.5
 20
-6.750013489597689
 10
-3.5
 20
-6.735658540066327
 10
-3.5
 20
-6.721303590534965
 10
-3.5
 20
-6.706948641003603
 10
-3.5
 20
-6.691646392703423
 10
-3.5
 20
-6.675965224895716
 10
-3.5
 20
-6.66028405708801
 10
-3.5
 20
-6.644415012515982
 10
-3.5
 20
-6.627418707358031
 10
-3.5
 20
-6.61042240220008
 10
-3.5
 20
-6.593426097042129
 10
-3.5
 20
-6.575685147828929
 10
-3.5
 20
-6.557385715574292
 10
-3.5
 20
-6.539086283319656
 10
-3.5
 20
-6.520786851065019
  0
LWPOLYLINE
  5
3E
330
17
100
AcDbEntity
  8
0
100
AcDbPolyline
 90
51
 70
0
 10
-3.5
 20
-6.520786851065
 10
-3.5
 20
-6.446263572767103
 10
-3.5
 20
-6.371740294469207
 10
-3.5
 20
-6.29721701617131
 10
-3.5
 20
-6.222693737873414
 10
-3.5
 20
-6.1481704595755176
 10
-3.5
 20
-6.073647181277622
 10
-3.5
 20
-5.999123902979725
 10
-3.5
 20
-5.924600624681829
 10
-3.5
 20
-5.850077346383932
 10
-3.5
 20
-5.775554068086036
 10
-3.5
 20
-5.701030789788139
 10
-3.5
 20
-5.626507511490243
 10
-3.5
 20
-5.551984233192346
 10
-3.5
 20
-5.47746095489445
 10
-3.5
 20
-5.4029376765965536
 10
-3.5
 20
-5.328414398298658
 10
-3.5
 20
-5.253891120000761
 10
-3.5
 20
-5.179367841702865
 10
-3.5
 20
-5.104844563404969
 10
-3.5
 20
-5.030321285107072
 10
-3.5
 20
-4.955798006809175
 10
-3.5
 20
-4.881274728511279
 10
-3.5
 20
-4.806751450213382
 10
-3.5
 20
-4.732228171915486
 10
-3.5
 20
-4.6577048936175895
 10
-3.5
 20
-4.583181615319694
 10
-3.5
 20
-4.508658337021797
 10
-3.5
 20
-4.4341350587239
 10
-3.5
 20
-4.359611780426004
 10
-3.5
 20
-4.285088502128108
 10
-3.5
 20
-4.210565223830212
 10
-3.5
 20
-4.136041945532314
 10
-3.5
 20
-4.061518667234418
 10
-3.5
 20
-3.986995388936522
 10
-3.5
 20
-3.912472110638626
 10
-3.5
 20
-3.837948832340729
 10
-3.5
 20
-3.7634255540428327
 10
-3.5
 20
-3.688902275744937
 10
-3.5
 20
-3.61437899744704
 10
-3.5
 20
-3.5398557191491435
 10
-3.5
 20
-3.465332440851247
 10
-3.5
 20
-3.390809162553351
 10
-3.5
 20
-3.3162858842554543
 10
-3.5
 20
-3.241762605957558
 10
-3.5
 20
-3.167239327659662
 10
-3.5
 20
-3.092716049361765
 10
-3.5
 20
-3.0181927710638687
 10
-3.5
 20
-2.9436694927659723
 10
-3.5
 20
-2.8691462144680755
 10
-3.5
 20
-2.7946229361701795
  0
ENDSEC
  0
SECTION
  2
OBJECTS
  0
DICTIONARY
  5
A
330
0
100
AcDbDictionary
280
0
281
1
  3
ACAD_COLOR
350
B
  3
ACAD_GROUP
350
C
  3
ACAD_LAYOUT
350
D
  3
ACAD_MATERIAL
350
E
  3
ACAD_MLEADERSTYLE
350
F
  3
ACAD_MLINESTYLE
350
10
  3
ACAD_PLOTSETTINGS
350
11
  3
ACAD_PLOTSTYLENAME
350
12
  3
ACAD_SCALELIST
350
14
  3
ACAD_TABLESTYLE
350
15
  3
ACAD_VISUALSTYLE
350
16
  3
EZDXF_META
350
2D
  0
DICTIONARY
  5
B
330
A
100
AcDbDictionary
280
0
281
1
  0
DICTIONARY
  5
C
330
A
100
AcDbDictionary
280
0
281
1
  0
DICTIONARY
  5
D
330
A
100
AcDbDictionary
280
0
281
1
  3
Model
350
1A
  3
Layout1
350
1E
  0
DICTIONARY
  5
E
330
A
100
AcDbDictionary
280
0
281
1
  3
ByBlock
350
1F
  3
ByLayer
350
20
  3
Global
350
21
  0
DICTIONARY
  5
F
330
A
100
AcDbDictionary
280
0
281
1
  3
Standard
350
2C
  0
DICTIONARY
  5
10
330
A
100
AcDbDictionary
280
0
281
1
  3
Standard
350
22
  0
DICTIONARY
  5
11
330
A
100
AcDbDictionary
280
0
281
1
  0
ACDBDICTIONARYWDFLT
  5
12
330
A
100
AcDbDictionary
280
0
281
1
  3
Normal
350
13
100
AcDbDictionaryWithDefault
340
13
  0
ACDBPLACEHOLDER
  5
13
330
12
  0
DICTIONARY
  5
14
330
A
100
AcDbDictionary
280
0
281
1
  0
DICTIONARY
  5
15
330
A
100
AcDbDictionary
280
0
281
1
  0
DICTIONARY
  5
16
330
A
100
AcDbDictionary
280
0
281
1
  0
LAYOUT
  5
1A
330
D
100
AcDbPlotSettings
  1

  2
Adobe PDF
  4
A3
  6

 40
7.5
 41
20.0
 42
7.5
 43
20.0
 44
420.0
 45
297.0
 46
0.0
 47
0.0
 48
0.0
 49
0.0
140
0.0
141
0.0
142
1.0
143
1.0
 70
1024
 72
1
 73
0
 74
5
  7

 75
16
 76
0
 77
2
 78
300
147
1.0
148
0.0
149
0.0
100
AcDbLayout
  1
Model
 70
1
 71
0
 10
0.0
 20
0.0
 11
420.0
 21
297.0
 12
0.0
 22
0.0
 32
0.0
 14
1e+20
 24
1e+20
 34
1e+20
 15
-1e+20
 25
-1e+20
 35
-1e+20
146
0.0
 13
0.0
 23
0.0
 33
0.0
 16
1.0
 26
0.0
 36
0.0
 17
0.0
 27
1.0
 37
0.0
 76
1
330
17
  0
LAYOUT
  5
1E
330
D
100
AcDbPlotSettings
  1

  2
Adobe PDF
  4
A3
  6

 40
7.5
 41
20.0
 42
7.5
 43
20.0
 44
420.0
 45
297.0
 46
0.0
 47
0.0
 48
0.0
 49
0.0
140
0.0
141
0.0
142
1.0
143
1.0
 70
0
 72
1
 73
0
 74
5
  7

 75
16
 76
0
 77
2
 78
300
147
1.0
148
0.0
149
0.0
100
AcDbLayout
  1
Layout1
 70
1
 71
1
 10
0.0
 20
0.0
 11
420.0
 21
297.0
 12
0.0
 22
0.0
 32
0.0
 14
1e+20
 24
1e+20
 34
1e+20
 15
-1e+20
 25
-1e+20
 35
-1e+20
146
0.0
 13
0.0
 23
0.0
 33
0.0
 16
1.0
 26
0.0
 36
0.0
 17
0.0
 27
1.0
 37
0.0
 76
1
330
1B
  0
MATERIAL
  5
1F
102
{ACAD_REACTORS
330
E
102
}
330
E
100
AcDbMaterial
  1
ByBlock
  2

 70
0
 40
1.0
 71
1
 41
1.0
 91
-1023410177
 42
1.0
 72
1
  3

 73
1
 74
1
 75
1
 44
0.5
 73
0
 45
1.0
 46
1.0
 77
1
  4

 78
1
 79
1
170
1
 48
1.0
171
1
  6

172
1
173
1
174
1
140
1.0
141
1.0
175
1
  7

176
1
177
1
178
1
143
1.0
179
1
  8

270
1
271
1
272
1
145
1.0
146
1.0
273
1
  9

274
1
275
1
276
1
 42
1.0
 72
1
  3

 73
1
 74
1
 75
1
 94
63
  0
MATERIAL
  5
20
102
{ACAD_REACTORS
330
E
102
}
330
E
100
AcDbMaterial
  1
ByLayer
  2

 70
0
 40
1.0
 71
1
 41
1.0
 91
-1023410177
 42
1.0
 72
1
  3

 73
1
 74
1
 75
1
 44
0.5
 73
0
 45
1.0
 46
1.0
 77
1
  4

 78
1
 79
1
170
1
 48
1.0
171
1
  6

172
1
173
1
174
1
140
1.0
141
1.0
175
1
  7

176
1
177
1
178
1
143
1.0
179
1
  8

270
1
271
1
272
1
145
1.0
146
1.0
273
1
  9

274
1
275
1
276
1
 42
1.0
 72
1
  3

 73
1
 74
1
 75
1
 94
63
  0
MATERIAL
  5
21
102
{ACAD_REACTORS
330
E
102
}
330
E
100
AcDbMaterial
  1
Global
  2

 70
0
 40
1.0
 71
1
 41
1.0
 91
-1023410177
 42
1.0
 72
1
  3

 73
1
 74
1
 75
1
 44
0.5
 73
0
 45
1.0
 46
1.0
 77
1
  4

 78
1
 79
1
170
1
 48
1.0
171
1
  6

172
1
173
1
174
1
140
1.0
141
1.0
175
1
  7

176
1
177
1
178
1
143
1.0
179
1
  8

270
1
271
1
272
1
145
1.0
146
1.0
273
1
  9

274
1
275
1
276
1
 42
1.0
 72
1
  3

 73
1
 74
1
 75
1
 94
63
  0
MLINESTYLE
  5
22
102
{ACAD_REACTORS
330
10
102
}
330
10
100
AcDbMlineStyle
  2
Standard
 70
0
  3

 62
256
 51
90.0
 52
90.0
 71
2
 49
0.5
 62
256
  6
BYLAYER
 49
-0.5
 62
256
  6
BYLAYER
  0
MLEADERSTYLE
  5
2C
102
{ACAD_REACTORS
330
F
102
}
330
F
100
AcDbMLeaderStyle
179
2
170
2
171
1
172
0
 90
2
 40
0.0
 41
0.0
173
1
 91
-1056964608
 92
-2
290
1
 42
2.0
291
1
 43
8.0
  3
Standard
 44
4.0
300

342
29
174
1
175
1
176
0
178
1
 93
-1056964608
 45
4.0
292
0
297
0
 46
4.0
 94
-1056964608
 47
1.0
 49
1.0
140
1.0
294
1
141
0.0
177
0
142
1.0
295
0
296
0
143
3.75
271
0
272
9
273
9
  0
DICTIONARY
  5
2D
330
A
100
AcDbDictionary
281
1
  3
CREATED_BY_EZDXF
350
2E
  3
WRITTEN_BY_EZDXF
350
41
  0
DICTIONARYVAR
  5
2E
330
2D
100
DictionaryVariables
280
0
  1
1.0.3 @ 2025-05-29T09:41:25.547588+00:00
  0
DICTIONARYVAR
  5
41
330
2D
100
DictionaryVariables
280
0
  1
1.0.3 @ 2025-05-29T09:41:25.551587+00:00
  0
ENDSEC
  0
EOF
