  0
SECTION
  2
HEADER
  9
$ACADVER
  1
AC1027
  9
$ACADMAINTVER
 70
105
  9
$DWGCODEPAGE
  3
ANSI_1252
  9
$LASTSAVEDBY
  1
ezdxf
  9
$REQUIREDVERSIONS
160
0
  9
$INSBASE
 10
0.0
 20
0.0
 30
0.0
  9
$EXTMIN
 10
1e+20
 20
1e+20
 30
1e+20
  9
$EXTMAX
 10
-1e+20
 20
-1e+20
 30
-1e+20
  9
$LIMMIN
 10
0.0
 20
0.0
  9
$LIMMAX
 10
420.0
 20
297.0
  9
$ORTHOMODE
 70
0
  9
$REGENMODE
 70
1
  9
$FILLMODE
 70
1
  9
$QTEXTMODE
 70
0
  9
$MIRRTEXT
 70
1
  9
$LTSCALE
 40
1.0
  9
$ATTMODE
 70
1
  9
$TEXTSIZE
 40
2.5
  9
$TRACEWID
 40
1.0
  9
$TEXTSTYLE
  7
Standard
  9
$CLAYER
  8
0
  9
$CELTYPE
  6
ByLayer
  9
$CECOLOR
 62
256
  9
$CELTSCALE
 40
1.0
  9
$DISPSILH
 70
0
  9
$DIMSCALE
 40
1.0
  9
$DIMASZ
 40
2.5
  9
$DIMEXO
 40
0.625
  9
$DIMDLI
 40
3.75
  9
$DIMRND
 40
0.0
  9
$DIMDLE
 40
0.0
  9
$DIMEXE
 40
1.25
  9
$DIMTP
 40
0.0
  9
$DIMTM
 40
0.0
  9
$DIMTXT
 40
2.5
  9
$DIMCEN
 40
2.5
  9
$DIMTSZ
 40
0.0
  9
$DIMTOL
 70
0
  9
$DIMLIM
 70
0
  9
$DIMTIH
 70
0
  9
$DIMTOH
 70
0
  9
$DIMSE1
 70
0
  9
$DIMSE2
 70
0
  9
$DIMTAD
 70
1
  9
$DIMZIN
 70
8
  9
$DIMBLK
  1

  9
$DIMASO
 70
1
  9
$DIMSHO
 70
1
  9
$DIMPOST
  1

  9
$DIMAPOST
  1

  9
$DIMALT
 70
0
  9
$DIMALTD
 70
3
  9
$DIMALTF
 40
0.03937007874
  9
$DIMLFAC
 40
1.0
  9
$DIMTOFL
 70
1
  9
$DIMTVP
 40
0.0
  9
$DIMTIX
 70
0
  9
$DIMSOXD
 70
0
  9
$DIMSAH
 70
0
  9
$DIMBLK1
  1

  9
$DIMBLK2
  1

  9
$DIMSTYLE
  2
ISO-25
  9
$DIMCLRD
 70
0
  9
$DIMCLRE
 70
0
  9
$DIMCLRT
 70
0
  9
$DIMTFAC
 40
1.0
  9
$DIMGAP
 40
0.625
  9
$DIMJUST
 70
0
  9
$DIMSD1
 70
0
  9
$DIMSD2
 70
0
  9
$DIMTOLJ
 70
0
  9
$DIMTZIN
 70
8
  9
$DIMALTZ
 70
0
  9
$DIMALTTZ
 70
0
  9
$DIMUPT
 70
0
  9
$DIMDEC
 70
2
  9
$DIMTDEC
 70
2
  9
$DIMALTU
 70
2
  9
$DIMALTTD
 70
3
  9
$DIMTXSTY
  7
Standard
  9
$DIMAUNIT
 70
0
  9
$DIMADEC
 70
0
  9
$DIMALTRND
 40
0.0
  9
$DIMAZIN
 70
0
  9
$DIMDSEP
 70
44
  9
$DIMATFIT
 70
3
  9
$DIMFRAC
 70
0
  9
$DIMLDRBLK
  1

  9
$DIMLUNIT
 70
2
  9
$DIMLWD
 70
-2
  9
$DIMLWE
 70
-2
  9
$DIMTMOVE
 70
0
  9
$DIMFXL
 40
1.0
  9
$DIMFXLON
 70
0
  9
$DIMJOGANG
 40
0.785398163397
  9
$DIMTFILL
 70
0
  9
$DIMTFILLCLR
 70
0
  9
$DIMARCSYM
 70
0
  9
$DIMLTYPE
  6

  9
$DIMLTEX1
  6

  9
$DIMLTEX2
  6

  9
$DIMTXTDIRECTION
 70
0
  9
$LUNITS
 70
2
  9
$LUPREC
 70
4
  9
$SKETCHINC
 40
1.0
  9
$FILLETRAD
 40
10.0
  9
$AUNITS
 70
0
  9
$AUPREC
 70
2
  9
$MENU
  1
.
  9
$ELEVATION
 40
0.0
  9
$PELEVATION
 40
0.0
  9
$THICKNESS
 40
0.0
  9
$LIMCHECK
 70
0
  9
$CHAMFERA
 40
0.0
  9
$CHAMFERB
 40
0.0
  9
$CHAMFERC
 40
0.0
  9
$CHAMFERD
 40
0.0
  9
$SKPOLY
 70
0
  9
$TDCREATE
 40
2460825.778761574
  9
$TDUCREATE
 40
2458532.153996898
  9
$TDUPDATE
 40
2460825.778761574
  9
$TDUUPDATE
 40
2458532.1544311
  9
$TDINDWG
 40
0.0
  9
$TDUSRTIMER
 40
0.0
  9
$USRTIMER
 70
1
  9
$ANGBASE
 50
0.0
  9
$ANGDIR
 70
0
  9
$PDMODE
 70
0
  9
$PDSIZE
 40
0.0
  9
$PLINEWID
 40
0.0
  9
$SPLFRAME
 70
0
  9
$SPLINETYPE
 70
6
  9
$SPLINESEGS
 70
8
  9
$HANDSEED
  5
4A
  9
$SURFTAB1
 70
6
  9
$SURFTAB2
 70
6
  9
$SURFTYPE
 70
6
  9
$SURFU
 70
6
  9
$SURFV
 70
6
  9
$UCSBASE
  2

  9
$UCSNAME
  2

  9
$UCSORG
 10
0.0
 20
0.0
 30
0.0
  9
$UCSXDIR
 10
1.0
 20
0.0
 30
0.0
  9
$UCSYDIR
 10
0.0
 20
1.0
 30
0.0
  9
$UCSORTHOREF
  2

  9
$UCSORTHOVIEW
 70
0
  9
$UCSORGTOP
 10
0.0
 20
0.0
 30
0.0
  9
$UCSORGBOTTOM
 10
0.0
 20
0.0
 30
0.0
  9
$UCSORGLEFT
 10
0.0
 20
0.0
 30
0.0
  9
$UCSORGRIGHT
 10
0.0
 20
0.0
 30
0.0
  9
$UCSORGFRONT
 10
0.0
 20
0.0
 30
0.0
  9
$UCSORGBACK
 10
0.0
 20
0.0
 30
0.0
  9
$PUCSBASE
  2

  9
$PUCSNAME
  2

  9
$PUCSORG
 10
0.0
 20
0.0
 30
0.0
  9
$PUCSXDIR
 10
1.0
 20
0.0
 30
0.0
  9
$PUCSYDIR
 10
0.0
 20
1.0
 30
0.0
  9
$PUCSORTHOREF
  2

  9
$PUCSORTHOVIEW
 70
0
  9
$PUCSORGTOP
 10
0.0
 20
0.0
 30
0.0
  9
$PUCSORGBOTTOM
 10
0.0
 20
0.0
 30
0.0
  9
$PUCSORGLEFT
 10
0.0
 20
0.0
 30
0.0
  9
$PUCSORGRIGHT
 10
0.0
 20
0.0
 30
0.0
  9
$PUCSORGFRONT
 10
0.0
 20
0.0
 30
0.0
  9
$PUCSORGBACK
 10
0.0
 20
0.0
 30
0.0
  9
$USERI1
 70
0
  9
$USERI2
 70
0
  9
$USERI3
 70
0
  9
$USERI4
 70
0
  9
$USERI5
 70
0
  9
$USERR1
 40
0.0
  9
$USERR2
 40
0.0
  9
$USERR3
 40
0.0
  9
$USERR4
 40
0.0
  9
$USERR5
 40
0.0
  9
$WORLDVIEW
 70
1
  9
$SHADEDGE
 70
3
  9
$SHADEDIF
 70
70
  9
$TILEMODE
 70
1
  9
$MAXACTVP
 70
64
  9
$PINSBASE
 10
0.0
 20
0.0
 30
0.0
  9
$PLIMCHECK
 70
0
  9
$PEXTMIN
 10
1e+20
 20
1e+20
 30
1e+20
  9
$PEXTMAX
 10
-1e+20
 20
-1e+20
 30
-1e+20
  9
$PLIMMIN
 10
0.0
 20
0.0
  9
$PLIMMAX
 10
420.0
 20
297.0
  9
$UNITMODE
 70
0
  9
$VISRETAIN
 70
1
  9
$PLINEGEN
 70
0
  9
$PSLTSCALE
 70
1
  9
$TREEDEPTH
 70
3020
  9
$CMLSTYLE
  2
Standard
  9
$CMLJUST
 70
0
  9
$CMLSCALE
 40
20.0
  9
$PROXYGRAPHICS
 70
1
  9
$MEASUREMENT
 70
1
  9
$CELWEIGHT
370
-1
  9
$ENDCAPS
280
0
  9
$JOINSTYLE
280
0
  9
$LWDISPLAY
290
0
  9
$INSUNITS
 70
6
  9
$HYPERLINKBASE
  1

  9
$STYLESHEET
  1

  9
$XEDIT
290
1
  9
$CEPSNTYPE
380
0
  9
$PSTYLEMODE
290
1
  9
$FINGERPRINTGUID
  2
{AFFCA376-DC25-4FBB-85C4-EAB895E3AADB}
  9
$VERSIONGUID
  2
{FEA5E88E-BEB1-444A-8F8C-892D5A353213}
  9
$EXTNAMES
290
1
  9
$PSVPSCALE
 40
0.0
  9
$OLESTARTUP
290
0
  9
$SORTENTS
280
127
  9
$INDEXCTL
280
0
  9
$HIDETEXT
280
1
  9
$XCLIPFRAME
280
0
  9
$HALOGAP
280
0
  9
$OBSCOLOR
 70
257
  9
$OBSLTYPE
280
0
  9
$INTERSECTIONDISPLAY
280
0
  9
$INTERSECTIONCOLOR
 70
257
  9
$DIMASSOC
280
2
  9
$PROJECTNAME
  1

  9
$CAMERADISPLAY
290
0
  9
$LENSLENGTH
 40
50.0
  9
$CAMERAHEIGHT
 40
0.0
  9
$STEPSPERSEC
 40
24.0
  9
$STEPSIZE
 40
100.0
  9
$3DDWFPREC
 40
2.0
  9
$PSOLWIDTH
 40
0.005
  9
$PSOLHEIGHT
 40
0.08
  9
$LOFTANG1
 40
1.570796326795
  9
$LOFTANG2
 40
1.570796326795
  9
$LOFTMAG1
 40
0.0
  9
$LOFTMAG2
 40
0.0
  9
$LOFTPARAM
 70
7
  9
$LOFTNORMALS
280
1
  9
$LATITUDE
 40
37.795
  9
$LONGITUDE
 40
-122.394
  9
$NORTHDIRECTION
 40
0.0
  9
$TIMEZONE
 70
-8000
  9
$LIGHTGLYPHDISPLAY
280
1
  9
$TILEMODELIGHTSYNCH
280
1
  9
$CMATERIAL
347
20
  9
$SOLIDHIST
280
0
  9
$SHOWHIST
280
1
  9
$DWFFRAME
280
2
  9
$DGNFRAME
280
2
  9
$REALWORLDSCALE
290
1
  9
$INTERFERECOLOR
 62
256
  9
$CSHADOW
280
0
  9
$SHADOWPLANELOCATION
 40
0.0
  0
ENDSEC
  0
SECTION
  2
CLASSES
  0
CLASS
  1
ACDBDICTIONARYWDFLT
  2
AcDbDictionaryWithDefault
  3
ObjectDBX Classes
 90
0
 91
0
280
0
281
0
  0
CLASS
  1
SUN
  2
AcDbSun
  3
SCENEOE
 90
1153
 91
0
280
0
281
0
  0
CLASS
  1
VISUALSTYLE
  2
AcDbVisualStyle
  3
ObjectDBX Classes
 90
4095
 91
0
280
0
281
0
  0
CLASS
  1
MATERIAL
  2
AcDbMaterial
  3
ObjectDBX Classes
 90
1153
 91
0
280
0
281
0
  0
CLASS
  1
SCALE
  2
AcDbScale
  3
ObjectDBX Classes
 90
1153
 91
0
280
0
281
0
  0
CLASS
  1
TABLESTYLE
  2
AcDbTableStyle
  3
ObjectDBX Classes
 90
4095
 91
0
280
0
281
0
  0
CLASS
  1
MLEADERSTYLE
  2
AcDbMLeaderStyle
  3
ACDB_MLEADERSTYLE_CLASS
 90
4095
 91
0
280
0
281
0
  0
CLASS
  1
DICTIONARYVAR
  2
AcDbDictionaryVar
  3
ObjectDBX Classes
 90
0
 91
0
280
0
281
0
  0
CLASS
  1
CELLSTYLEMAP
  2
AcDbCellStyleMap
  3
ObjectDBX Classes
 90
1152
 91
0
280
0
281
0
  0
CLASS
  1
MENTALRAYRENDERSETTINGS
  2
AcDbMentalRayRenderSettings
  3
SCENEOE
 90
1024
 91
0
280
0
281
0
  0
CLASS
  1
ACDBDETAILVIEWSTYLE
  2
AcDbDetailViewStyle
  3
ObjectDBX Classes
 90
1025
 91
0
280
0
281
0
  0
CLASS
  1
ACDBSECTIONVIEWSTYLE
  2
AcDbSectionViewStyle
  3
ObjectDBX Classes
 90
1025
 91
0
280
0
281
0
  0
CLASS
  1
RASTERVARIABLES
  2
AcDbRasterVariables
  3
ISM
 90
0
 91
0
280
0
281
0
  0
CLASS
  1
LAYOUT
  2
AcDbLayout
  3
ObjectDBX Classes
 90
0
 91
0
280
0
281
0
  0
CLASS
  1
ACDBPLACEHOLDER
  2
AcDbPlaceHolder
  3
ObjectDBX Classes
 90
0
 91
0
280
0
281
0
  0
ENDSEC
  0
SECTION
  2
TABLES
  0
TABLE
  2
VPORT
  5
8
330
0
100
AcDbSymbolTable
 70
1
  0
VPORT
  5
23
330
8
100
AcDbSymbolTableRecord
100
AcDbViewportTableRecord
  2
*Active
 70
0
 10
0.0
 20
0.0
 11
1.0
 21
1.0
 12
0.0
 22
0.0
 13
0.0
 23
0.0
 14
0.5
 24
0.5
 15
0.5
 25
0.5
 16
0.0
 26
0.0
 36
1.0
 17
0.0
 27
0.0
 37
0.0
 40
1000.0
 41
1.34
 42
50.0
 43
0.0
 44
0.0
 50
0.0
 51
0.0
 71
0
 72
1000
 73
1
 74
3
 75
0
 76
0
 77
0
 78
0
281
0
 65
0
146
0.0
  0
ENDTAB
  0
TABLE
  2
LTYPE
  5
2
330
0
100
AcDbSymbolTable
 70
3
  0
LTYPE
  5
24
330
2
100
AcDbSymbolTableRecord
100
AcDbLinetypeTableRecord
  2
ByBlock
 70
0
  3

 72
65
 73
0
 40
0.0
  0
LTYPE
  5
25
330
2
100
AcDbSymbolTableRecord
100
AcDbLinetypeTableRecord
  2
ByLayer
 70
0
  3

 72
65
 73
0
 40
0.0
  0
LTYPE
  5
26
330
2
100
AcDbSymbolTableRecord
100
AcDbLinetypeTableRecord
  2
Continuous
 70
0
  3

 72
65
 73
0
 40
0.0
  0
ENDTAB
  0
TABLE
  2
LAYER
  5
1
330
0
100
AcDbSymbolTable
 70
2
  0
LAYER
  5
27
330
1
100
AcDbSymbolTableRecord
100
AcDbLayerTableRecord
  2
0
 70
0
 62
7
  6
Continuous
370
-3
390
13
347
21
  0
LAYER
  5
28
330
1
100
AcDbSymbolTableRecord
100
AcDbLayerTableRecord
  2
Defpoints
 70
0
 62
7
  6
Continuous
290
0
370
-3
390
13
347
21
  0
ENDTAB
  0
TABLE
  2
STYLE
  5
5
330
0
100
AcDbSymbolTable
 70
1
  0
STYLE
  5
29
330
5
100
AcDbSymbolTableRecord
100
AcDbTextStyleTableRecord
  2
Standard
 70
0
 40
0.0
 41
1.0
 50
0.0
 71
0
 42
2.5
  3
txt
  4

  0
ENDTAB
  0
TABLE
  2
VIEW
  5
7
330
0
100
AcDbSymbolTable
 70
0
  0
ENDTAB
  0
TABLE
  2
UCS
  5
6
330
0
100
AcDbSymbolTable
 70
0
  0
ENDTAB
  0
TABLE
  2
APPID
  5
3
330
0
100
AcDbSymbolTable
 70
3
  0
APPID
  5
2A
330
3
100
AcDbSymbolTableRecord
100
AcDbRegAppTableRecord
  2
ACAD
 70
0
  0
APPID
  5
47
330
3
100
AcDbSymbolTableRecord
100
AcDbRegAppTableRecord
  2
HATCHBACKGROUNDCOLOR
 70
0
  0
APPID
  5
48
330
3
100
AcDbSymbolTableRecord
100
AcDbRegAppTableRecord
  2
EZDXF
 70
0
  0
ENDTAB
  0
TABLE
  2
DIMSTYLE
  5
4
330
0
100
AcDbSymbolTable
 70
1
100
AcDbDimStyleTable
  0
DIMSTYLE
105
2B
330
4
100
AcDbSymbolTableRecord
100
AcDbDimStyleTableRecord
  2
Standard
 70
0
 40
1.0
 41
2.5
 42
0.625
 43
3.75
 44
1.25
 45
0.0
 46
0.0
 47
0.0
 48
0.0
 49
2.5
140
2.5
141
2.5
142
0.0
143
0.03937007874
144
1.0
145
0.0
146
1.0
147
0.625
148
0.0
 69
0
 70
0
 71
0
 72
0
 73
0
 74
0
 75
0
 76
0
 77
1
 78
8
 79
3
170
0
171
3
172
1
173
0
174
0
175
0
176
0
177
0
178
0
179
2
271
2
272
2
273
2
274
3
275
0
276
0
277
2
278
44
279
0
280
0
281
0
282
0
283
0
284
8
285
0
286
0
288
0
289
3
290
0
371
-2
372
-2
  0
ENDTAB
  0
TABLE
  2
BLOCK_RECORD
  5
9
330
0
100
AcDbSymbolTable
 70
2
  0
BLOCK_RECORD
  5
17
330
9
100
AcDbSymbolTableRecord
100
AcDbBlockTableRecord
  2
*Model_Space
340
1A
 70
0
280
1
281
0
  0
BLOCK_RECORD
  5
1B
330
9
100
AcDbSymbolTableRecord
100
AcDbBlockTableRecord
  2
*Paper_Space
340
1E
 70
0
280
1
281
0
  0
ENDTAB
  0
ENDSEC
  0
SECTION
  2
BLOCKS
  0
BLOCK
  5
18
330
17
100
AcDbEntity
  8
0
100
AcDbBlockBegin
  2
*Model_Space
 70
0
 10
0.0
 20
0.0
 30
0.0
  3
*Model_Space
  1

  0
ENDBLK
  5
19
330
17
100
AcDbEntity
  8
0
100
AcDbBlockEnd
  0
BLOCK
  5
1C
330
1B
100
AcDbEntity
  8
0
100
AcDbBlockBegin
  2
*Paper_Space
 70
0
 10
0.0
 20
0.0
 30
0.0
  3
*Paper_Space
  1

  0
ENDBLK
  5
1D
330
1B
100
AcDbEntity
  8
0
100
AcDbBlockEnd
  0
ENDSEC
  0
SECTION
  2
ENTITIES
  0
LWPOLYLINE
  5
2F
330
17
100
AcDbEntity
  8
0
100
AcDbPolyline
 90
51
 70
0
 10
8.0
 20
3.0
 10
7.91
 20
3.0
 10
7.82
 20
3.0
 10
7.73
 20
3.0
 10
7.64
 20
3.0
 10
7.55
 20
3.0
 10
7.46
 20
3.0
 10
7.37
 20
3.0
 10
7.28
 20
3.0
 10
7.1899999999999995
 20
3.0
 10
7.1
 20
3.0
 10
7.01
 20
3.0
 10
6.92
 20
3.0
 10
6.83
 20
3.0
 10
6.74
 20
3.0
 10
6.65
 20
3.0
 10
6.5600000000000005
 20
3.0
 10
6.47
 20
3.0
 10
6.38
 20
3.0
 10
6.29
 20
3.0
 10
6.2
 20
3.0
 10
6.11
 20
3.0
 10
6.02
 20
3.0
 10
5.93
 20
3.0
 10
5.84
 20
3.0
 10
5.75
 20
3.0
 10
5.66
 20
3.0
 10
5.57
 20
3.0
 10
5.48
 20
3.0
 10
5.390000000000001
 20
3.0
 10
5.3
 20
3.0
 10
5.21
 20
3.0
 10
5.12
 20
3.0
 10
5.029999999999999
 20
3.0
 10
4.9399999999999995
 20
3.0
 10
4.85
 20
3.0
 10
4.76
 20
3.0
 10
4.67
 20
3.0
 10
4.58
 20
3.0
 10
4.49
 20
3.0
 10
4.4
 20
3.0
 10
4.3100000000000005
 20
3.0
 10
4.220000000000001
 20
3.0
 10
4.13
 20
3.0
 10
4.04
 20
3.0
 10
3.95
 20
3.0
 10
3.8600000000000003
 20
3.0
 10
3.7699999999999996
 20
3.0
 10
3.6799999999999997
 20
3.0
 10
3.59
 20
3.0
 10
3.5
 20
3.0
  0
LWPOLYLINE
  5
30
330
17
100
AcDbEntity
  8
0
100
AcDbPolyline
 90
51
 70
0
 10
8.0
 20
-3.0
 10
7.91
 20
-3.0
 10
7.82
 20
-3.0
 10
7.73
 20
-3.0
 10
7.64
 20
-3.0
 10
7.55
 20
-3.0
 10
7.46
 20
-3.0
 10
7.37
 20
-3.0
 10
7.28
 20
-3.0
 10
7.1899999999999995
 20
-3.0
 10
7.1
 20
-3.0
 10
7.01
 20
-3.0
 10
6.92
 20
-3.0
 10
6.83
 20
-3.0
 10
6.74
 20
-3.0
 10
6.65
 20
-3.0
 10
6.5600000000000005
 20
-3.0
 10
6.47
 20
-3.0
 10
6.38
 20
-3.0
 10
6.29
 20
-3.0
 10
6.2
 20
-3.0
 10
6.11
 20
-3.0
 10
6.02
 20
-3.0
 10
5.93
 20
-3.0
 10
5.84
 20
-3.0
 10
5.75
 20
-3.0
 10
5.66
 20
-3.0
 10
5.57
 20
-3.0
 10
5.48
 20
-3.0
 10
5.390000000000001
 20
-3.0
 10
5.3
 20
-3.0
 10
5.21
 20
-3.0
 10
5.12
 20
-3.0
 10
5.029999999999999
 20
-3.0
 10
4.9399999999999995
 20
-3.0
 10
4.85
 20
-3.0
 10
4.76
 20
-3.0
 10
4.67
 20
-3.0
 10
4.58
 20
-3.0
 10
4.49
 20
-3.0
 10
4.4
 20
-3.0
 10
4.3100000000000005
 20
-3.0
 10
4.220000000000001
 20
-3.0
 10
4.13
 20
-3.0
 10
4.04
 20
-3.0
 10
3.95
 20
-3.0
 10
3.8600000000000003
 20
-3.0
 10
3.7699999999999996
 20
-3.0
 10
3.6799999999999997
 20
-3.0
 10
3.59
 20
-3.0
 10
3.5
 20
-3.0
  0
LWPOLYLINE
  5
31
330
17
100
AcDbEntity
  8
0
100
AcDbPolyline
 90
51
 70
0
 10
-3.5
 20
3.0
 10
-3.59
 20
3.0
 10
-3.6799999999999997
 20
3.0
 10
-3.7699999999999996
 20
3.0
 10
-3.8599999999999994
 20
3.0
 10
-3.9499999999999993
 20
3.0
 10
-4.039999999999999
 20
3.0
 10
-4.130000000000001
 20
3.0
 10
-4.220000000000001
 20
3.0
 10
-4.3100000000000005
 20
3.0
 10
-4.4
 20
3.0
 10
-4.49
 20
3.0
 10
-4.58
 20
3.0
 10
-4.67
 20
3.0
 10
-4.76
 20
3.0
 10
-4.85
 20
3.0
 10
-4.9399999999999995
 20
3.0
 10
-5.029999999999999
 20
3.0
 10
-5.120000000000001
 20
3.0
 10
-5.210000000000001
 20
3.0
 10
-5.300000000000001
 20
3.0
 10
-5.390000000000001
 20
3.0
 10
-5.48
 20
3.0
 10
-5.57
 20
3.0
 10
-5.66
 20
3.0
 10
-5.75
 20
3.0
 10
-5.84
 20
3.0
 10
-5.93
 20
3.0
 10
-6.02
 20
3.0
 10
-6.109999999999999
 20
3.0
 10
-6.199999999999999
 20
3.0
 10
-6.289999999999999
 20
3.0
 10
-6.379999999999999
 20
3.0
 10
-6.470000000000001
 20
3.0
 10
-6.5600000000000005
 20
3.0
 10
-6.65
 20
3.0
 10
-6.74
 20
3.0
 10
-6.83
 20
3.0
 10
-6.92
 20
3.0
 10
-7.01
 20
3.0
 10
-7.1
 20
3.0
 10
-7.1899999999999995
 20
3.0
 10
-7.279999999999999
 20
3.0
 10
-7.370000000000001
 20
3.0
 10
-7.460000000000001
 20
3.0
 10
-7.550000000000001
 20
3.0
 10
-7.640000000000001
 20
3.0
 10
-7.73
 20
3.0
 10
-7.82
 20
3.0
 10
-7.91
 20
3.0
 10
-8.0
 20
3.0
  0
LWPOLYLINE
  5
32
330
17
100
AcDbEntity
  8
0
100
AcDbPolyline
 90
51
 70
0
 10
-3.5
 20
-3.0
 10
-3.59
 20
-3.0
 10
-3.6799999999999997
 20
-3.0
 10
-3.7699999999999996
 20
-3.0
 10
-3.8599999999999994
 20
-3.0
 10
-3.9499999999999993
 20
-3.0
 10
-4.039999999999999
 20
-3.0
 10
-4.130000000000001
 20
-3.0
 10
-4.220000000000001
 20
-3.0
 10
-4.3100000000000005
 20
-3.0
 10
-4.4
 20
-3.0
 10
-4.49
 20
-3.0
 10
-4.58
 20
-3.0
 10
-4.67
 20
-3.0
 10
-4.76
 20
-3.0
 10
-4.85
 20
-3.0
 10
-4.9399999999999995
 20
-3.0
 10
-5.029999999999999
 20
-3.0
 10
-5.120000000000001
 20
-3.0
 10
-5.210000000000001
 20
-3.0
 10
-5.300000000000001
 20
-3.0
 10
-5.390000000000001
 20
-3.0
 10
-5.48
 20
-3.0
 10
-5.57
 20
-3.0
 10
-5.66
 20
-3.0
 10
-5.75
 20
-3.0
 10
-5.84
 20
-3.0
 10
-5.93
 20
-3.0
 10
-6.02
 20
-3.0
 10
-6.109999999999999
 20
-3.0
 10
-6.199999999999999
 20
-3.0
 10
-6.289999999999999
 20
-3.0
 10
-6.379999999999999
 20
-3.0
 10
-6.470000000000001
 20
-3.0
 10
-6.5600000000000005
 20
-3.0
 10
-6.65
 20
-3.0
 10
-6.74
 20
-3.0
 10
-6.83
 20
-3.0
 10
-6.92
 20
-3.0
 10
-7.01
 20
-3.0
 10
-7.1
 20
-3.0
 10
-7.1899999999999995
 20
-3.0
 10
-7.279999999999999
 20
-3.0
 10
-7.370000000000001
 20
-3.0
 10
-7.460000000000001
 20
-3.0
 10
-7.550000000000001
 20
-3.0
 10
-7.640000000000001
 20
-3.0
 10
-7.73
 20
-3.0
 10
-7.82
 20
-3.0
 10
-7.91
 20
-3.0
 10
-8.0
 20
-3.0
  0
LWPOLYLINE
  5
33
330
17
100
AcDbEntity
  8
0
100
AcDbPolyline
 90
51
 70
0
 10
8.0
 20
14.0
 10
7.68
 20
14.0
 10
7.359999999999999
 20
14.0
 10
7.04
 20
14.0
 10
6.72
 20
14.0
 10
6.4
 20
14.0
 10
6.08
 20
14.0
 10
5.76
 20
14.0
 10
5.4399999999999995
 20
14.0
 10
5.12
 20
14.0
 10
4.8
 20
14.0
 10
4.48
 20
14.0
 10
4.16
 20
14.0
 10
3.84
 20
14.0
 10
3.5199999999999996
 20
14.0
 10
3.2
 20
14.0
 10
2.88
 20
14.0
 10
2.5599999999999996
 20
14.0
 10
2.24
 20
14.0
 10
1.92
 20
14.0
 10
1.5999999999999996
 20
14.0
 10
1.2800000000000002
 20
14.0
 10
0.96
 20
14.0
 10
0.6399999999999997
 20
14.0
 10
0.3200000000000003
 20
14.0
 10
0.0
 20
14.0
 10
-0.3200000000000003
 20
14.0
 10
-0.6400000000000006
 20
14.0
 10
-0.9600000000000009
 20
14.0
 10
-1.2799999999999994
 20
14.0
 10
-1.5999999999999996
 20
14.0
 10
-1.92
 20
14.0
 10
-2.24
 20
14.0
 10
-2.5600000000000005
 20
14.0
 10
-2.880000000000001
 20
14.0
 10
-3.1999999999999993
 20
14.0
 10
-3.5199999999999996
 20
14.0
 10
-3.84
 20
14.0
 10
-4.16
 20
14.0
 10
-4.48
 20
14.0
 10
-4.800000000000001
 20
14.0
 10
-5.119999999999999
 20
14.0
 10
-5.4399999999999995
 20
14.0
 10
-5.76
 20
14.0
 10
-6.08
 20
14.0
 10
-6.4
 20
14.0
 10
-6.720000000000001
 20
14.0
 10
-7.039999999999999
 20
14.0
 10
-7.359999999999999
 20
14.0
 10
-7.68
 20
14.0
 10
-8.0
 20
14.0
  0
LWPOLYLINE
  5
34
330
17
100
AcDbEntity
  8
0
100
AcDbPolyline
 90
51
 70
0
 10
8.0
 20
8.0
 10
7.91
 20
8.0
 10
7.82
 20
8.0
 10
7.73
 20
8.0
 10
7.64
 20
8.0
 10
7.55
 20
8.0
 10
7.46
 20
8.0
 10
7.37
 20
8.0
 10
7.28
 20
8.0
 10
7.1899999999999995
 20
8.0
 10
7.1
 20
8.0
 10
7.01
 20
8.0
 10
6.92
 20
8.0
 10
6.83
 20
8.0
 10
6.74
 20
8.0
 10
6.65
 20
8.0
 10
6.5600000000000005
 20
8.0
 10
6.47
 20
8.0
 10
6.38
 20
8.0
 10
6.29
 20
8.0
 10
6.2
 20
8.0
 10
6.11
 20
8.0
 10
6.02
 20
8.0
 10
5.93
 20
8.0
 10
5.84
 20
8.0
 10
5.75
 20
8.0
 10
5.66
 20
8.0
 10
5.57
 20
8.0
 10
5.48
 20
8.0
 10
5.390000000000001
 20
8.0
 10
5.3
 20
8.0
 10
5.21
 20
8.0
 10
5.12
 20
8.0
 10
5.029999999999999
 20
8.0
 10
4.9399999999999995
 20
8.0
 10
4.85
 20
8.0
 10
4.76
 20
8.0
 10
4.67
 20
8.0
 10
4.58
 20
8.0
 10
4.49
 20
8.0
 10
4.4
 20
8.0
 10
4.3100000000000005
 20
8.0
 10
4.220000000000001
 20
8.0
 10
4.13
 20
8.0
 10
4.04
 20
8.0
 10
3.95
 20
8.0
 10
3.8600000000000003
 20
8.0
 10
3.7699999999999996
 20
8.0
 10
3.6799999999999997
 20
8.0
 10
3.59
 20
8.0
 10
3.5
 20
8.0
  0
LWPOLYLINE
  5
35
330
17
100
AcDbEntity
  8
0
100
AcDbPolyline
 90
51
 70
0
 10
-3.5
 20
8.0
 10
-3.59
 20
8.0
 10
-3.6799999999999997
 20
8.0
 10
-3.7699999999999996
 20
8.0
 10
-3.8600000000000003
 20
8.0
 10
-3.95
 20
8.0
 10
-4.04
 20
8.0
 10
-4.13
 20
8.0
 10
-4.22
 20
8.0
 10
-4.3100000000000005
 20
8.0
 10
-4.4
 20
8.0
 10
-4.49
 20
8.0
 10
-4.58
 20
8.0
 10
-4.67
 20
8.0
 10
-4.76
 20
8.0
 10
-4.85
 20
8.0
 10
-4.9399999999999995
 20
8.0
 10
-5.029999999999999
 20
8.0
 10
-5.120000000000001
 20
8.0
 10
-5.210000000000001
 20
8.0
 10
-5.300000000000001
 20
8.0
 10
-5.390000000000001
 20
8.0
 10
-5.48
 20
8.0
 10
-5.57
 20
8.0
 10
-5.66
 20
8.0
 10
-5.75
 20
8.0
 10
-5.84
 20
8.0
 10
-5.93
 20
8.0
 10
-6.02
 20
8.0
 10
-6.109999999999999
 20
8.0
 10
-6.199999999999999
 20
8.0
 10
-6.289999999999999
 20
8.0
 10
-6.379999999999999
 20
8.0
 10
-6.470000000000001
 20
8.0
 10
-6.5600000000000005
 20
8.0
 10
-6.65
 20
8.0
 10
-6.74
 20
8.0
 10
-6.83
 20
8.0
 10
-6.92
 20
8.0
 10
-7.01
 20
8.0
 10
-7.1
 20
8.0
 10
-7.1899999999999995
 20
8.0
 10
-7.279999999999999
 20
8.0
 10
-7.370000000000001
 20
8.0
 10
-7.460000000000001
 20
8.0
 10
-7.550000000000001
 20
8.0
 10
-7.640000000000001
 20
8.0
 10
-7.73
 20
8.0
 10
-7.82
 20
8.0
 10
-7.91
 20
8.0
 10
-8.0
 20
8.0
  0
LWPOLYLINE
  5
36
330
17
100
AcDbEntity
  8
0
100
AcDbPolyline
 90
51
 70
0
 10
3.5
 20
-25.5
 10
3.36
 20
-25.5
 10
3.2199999999999998
 20
-25.5
 10
3.08
 20
-25.5
 10
2.94
 20
-25.5
 10
2.8
 20
-25.5
 10
2.66
 20
-25.5
 10
2.52
 20
-25.5
 10
2.38
 20
-25.5
 10
2.24
 20
-25.5
 10
2.1
 20
-25.5
 10
1.96
 20
-25.5
 10
1.82
 20
-25.5
 10
1.68
 20
-25.5
 10
1.54
 20
-25.5
 10
1.4
 20
-25.5
 10
1.2599999999999998
 20
-25.5
 10
1.12
 20
-25.5
 10
0.98
 20
-25.5
 10
0.8399999999999999
 20
-25.5
 10
0.7000000000000002
 20
-25.5
 10
0.56
 20
-25.5
 10
0.41999999999999993
 20
-25.5
 10
0.2799999999999998
 20
-25.5
 10
0.14000000000000012
 20
-25.5
 10
0.0
 20
-25.5
 10
-0.14000000000000012
 20
-25.5
 10
-0.2799999999999998
 20
-25.5
 10
-0.41999999999999993
 20
-25.5
 10
-0.5599999999999996
 20
-25.5
 10
-0.7000000000000002
 20
-25.5
 10
-0.8399999999999999
 20
-25.5
 10
-0.9800000000000004
 20
-25.5
 10
-1.12
 20
-25.5
 10
-1.2599999999999998
 20
-25.5
 10
-1.4000000000000004
 20
-25.5
 10
-1.54
 20
-25.5
 10
-1.6799999999999997
 20
-25.5
 10
-1.8200000000000003
 20
-25.5
 10
-1.96
 20
-25.5
 10
-2.0999999999999996
 20
-25.5
 10
-2.24
 20
-25.5
 10
-2.38
 20
-25.5
 10
-2.5199999999999996
 20
-25.5
 10
-2.66
 20
-25.5
 10
-2.8
 20
-25.5
 10
-2.9400000000000004
 20
-25.5
 10
-3.08
 20
-25.5
 10
-3.2199999999999998
 20
-25.5
 10
-3.3600000000000003
 20
-25.5
 10
-3.5
 20
-25.5
  0
LWPOLYLINE
  5
37
330
17
100
AcDbEntity
  8
0
100
AcDbPolyline
 90
51
 70
0
 10
3.5
 20
2.545454545455
 10
3.5
 20
2.7363636363640937
 10
3.5
 20
2.9272727272731873
 10
3.5
 20
3.118181818182281
 10
3.5
 20
3.3090909090913745
 10
3.5
 20
3.500000000000468
 10
3.5
 20
3.6909090909095617
 10
3.5
 20
3.8818181818186552
 10
3.5
 20
4.072727272727748
 10
3.5
 20
4.263636363636842
 10
3.5
 20
4.4545454545459355
 10
3.5
 20
4.64545454545503
 10
3.5
 20
4.836363636364123
 10
3.5
 20
5.027272727273216
 10
3.5
 20
5.218181818182311
 10
3.5
 20
5.409090909091404
 10
3.5
 20
5.600000000000497
 10
3.5
 20
5.79090909090959
 10
3.5
 20
5.981818181818684
 10
3.5
 20
6.172727272727778
 10
3.5
 20
6.363636363636871
 10
3.5
 20
6.5545454545459645
 10
3.5
 20
6.745454545455059
 10
3.5
 20
6.9363636363641525
 10
3.5
 20
7.127272727273246
 10
3.5
 20
7.318181818182339
 10
3.5
 20
7.509090909091432
 10
3.5
 20
7.700000000000527
 10
3.5
 20
7.89090909090962
 10
3.5
 20
8.081818181818713
 10
3.5
 20
8.272727272727808
 10
3.5
 20
8.463636363636901
 10
3.5
 20
8.654545454545994
 10
3.5
 20
8.845454545455087
 10
3.5
 20
9.03636363636418
 10
3.5
 20
9.227272727273276
 10
3.5
 20
9.418181818182369
 10
3.5
 20
9.609090909091462
 10
3.5
 20
9.800000000000555
 10
3.5
 20
9.990909090909648
 10
3.5
 20
10.181818181818743
 10
3.5
 20
10.372727272727836
 10
3.5
 20
10.56363636363693
 10
3.5
 20
10.754545454546024
 10
3.5
 20
10.945454545455117
 10
3.5
 20
11.13636363636421
 10
3.5
 20
11.327272727273304
 10
3.5
 20
11.518181818182397
 10
3.5
 20
11.709090909091492
 10
3.5
 20
11.900000000000585
 10
3.5
 20
12.090909090909678
  0
LWPOLYLINE
  5
38
330
17
100
AcDbEntity
  8
0
100
AcDbPolyline
 90
51
 70
0
 10
3.5
 20
-1.1136363636363147
 10
3.5
 20
-1.0399061092468982
 10
3.5
 20
-0.9661758548574817
 10
3.5
 20
-0.8924456004680653
 10
3.5
 20
-0.8185680555601011
 10
3.5
 20
-0.7444941232940736
 10
3.5
 20
-0.6704201910280462
 10
3.5
 20
-0.5963462587620186
 10
3.5
 20
-0.5220693955313052
 10
3.5
 20
-0.44775871047314414
 10
3.5
 20
-0.373448025414983
 10
3.5
 20
-0.29910034436909755
 10
3.5
 20
-0.22466017335390095
 10
3.5
 20
-0.15022000233870428
 10
3.5
 20
-0.0757798313235076
 10
3.5
 20
-0.0013239230154026005
 10
3.5
 20
0.07313828020986568
 10
3.5
 20
0.147600483435134
 10
3.5
 20
0.2220504790403738
 10
3.5
 20
0.29642722892544426
 10
3.5
 20
0.37080397881051474
 10
3.5
 20
0.445180728695585
 10
3.5
 20
0.5194472982724807
 10
3.5
 20
0.5936312326182457
 10
3.5
 20
0.66781516696401
 10
3.5
 20
0.7419991013097749
 10
3.5
 20
0.8158831362446998
 10
3.5
 20
0.8897671711796251
 10
3.5
 20
0.96365120611455
 10
3.5
 20
1.0373610051722673
 10
3.5
 20
1.1108384897270398
 10
3.5
 20
1.1843159742818123
 10
3.5
 20
1.257793458836585
 10
3.5
 20
1.3308315595363698
 10
3.5
 20
1.403796429593657
 10
3.5
 20
1.476761299650944
 10
3.5
 20
1.5495496158053164
 10
3.5
 20
1.6218965472024047
 10
3.5
 20
1.6942434785994929
 10
3.5
 20
1.7665904099965812
 10
3.5
 20
1.8384213622266923
 10
3.5
 20
1.910045922790013
 10
3.5
 20
1.9816704833533332
 10
3.5
 20
2.0531770781636185
 10
3.5
 20
2.1239758784556915
 10
3.5
 20
2.1947746787477644
 10
3.5
 20
2.2655734790398374
 10
3.5
 20
2.335842017771411
 10
3.5
 20
2.4057128603326094
 10
3.5
 20
2.4755837028938084
 10
3.5
 20
2.5454545454550077
  0
LWPOLYLINE
  5
39
330
17
100
AcDbEntity
  8
0
100
AcDbPolyline
 90
51
 70
0
 10
3.5
 20
-22.55681818182
 10
3.5
 20
-22.12795454545632
 10
3.5
 20
-21.69909090909264
 10
3.5
 20
-21.270227272728963
 10
3.5
 20
-20.841363636365283
 10
3.5
 20
-20.412500000001604
 10
3.5
 20
-19.983636363637928
 10
3.5
 20
-19.554772727274248
 10
3.5
 20
-19.125909090910568
 10
3.5
 20
-18.69704545454689
 10
3.5
 20
-18.26818181818321
 10
3.5
 20
-17.839318181819532
 10
3.5
 20
-17.410454545455853
 10
3.5
 20
-16.981590909092173
 10
3.5
 20
-16.552727272728493
 10
3.5
 20
-16.123863636364817
 10
3.5
 20
-15.695000000001137
 10
3.5
 20
-15.266136363637457
 10
3.5
 20
-14.837272727273778
 10
3.5
 20
-14.4084090909101
 10
3.5
 20
-13.979545454546422
 10
3.5
 20
-13.550681818182742
 10
3.5
 20
-13.121818181819064
 10
3.5
 20
-12.692954545455384
 10
3.5
 20
-12.264090909091706
 10
3.5
 20
-11.835227272728027
 10
3.5
 20
-11.406363636364349
 10
3.5
 20
-10.977500000000669
 10
3.5
 20
-10.548636363636989
 10
3.5
 20
-10.119772727273311
 10
3.5
 20
-9.690909090909631
 10
3.5
 20
-9.262045454545953
 10
3.5
 20
-8.833181818182274
 10
3.5
 20
-8.404318181818596
 10
3.5
 20
-7.975454545454918
 10
3.5
 20
-7.546590909091236
 10
3.5
 20
-7.117727272727558
 10
3.5
 20
-6.68886363636388
 10
3.5
 20
-6.2600000000002005
 10
3.5
 20
-5.831136363636521
 10
3.5
 20
-5.402272727272845
 10
3.5
 20
-4.973409090909165
 10
3.5
 20
-4.544545454545485
 10
3.5
 20
-4.115681818181805
 10
3.5
 20
-3.686818181818129
 10
3.5
 20
-3.2579545454544494
 10
3.5
 20
-2.8290909090907697
 10
3.5
 20
-2.40022727272709
 10
3.5
 20
-1.9713636363634137
 10
3.5
 20
-1.5424999999997304
 10
3.5
 20
-1.1136363636360542
  0
LWPOLYLINE
  5
3A
330
17
100
AcDbEntity
  8
0
100
AcDbPolyline
 90
51
 70
0
 10
3.5
 20
-25.5
 10
3.5
 20
-25.495026722189614
 10
3.5
 20
-25.490053444379225
 10
3.5
 20
-25.48508016656884
 10
3.5
 20
-25.475865711998683
 10
3.5
 20
-25.46099635508217
 10
3.5
 20
-25.44612699816566
 10
3.5
 20
-25.431257641249147
 10
3.5
 20
-25.408035288439002
 10
3.5
 20
-25.383420769646587
 10
3.5
 20
-25.358806250854173
 10
3.5
 20
-25.331478779012738
 10
3.5
 20
-25.297368924548753
 10
3.5
 20
-25.263259070084768
 10
3.5
 20
-25.229149215620783
 10
3.5
 20
-25.188504263931218
 10
3.5
 20
-25.14524527335142
 10
3.5
 20
-25.101986282771623
 10
3.5
 20
-25.057482995480807
 10
3.5
 20
-25.00551392792387
 10
3.5
 20
-24.953544860366936
 10
3.5
 20
-24.90157579281
 10
3.5
 20
-24.84493094553494
 10
3.5
 20
-24.784779263471293
 10
3.5
 20
-24.724627581407642
 10
3.5
 20
-24.66447589934399
 10
3.5
 20
-24.5967521150709
 10
3.5
 20
-24.52902833079781
 10
3.5
 20
-24.46130454652472
 10
3.5
 20
-24.39063016089093
 10
3.5
 20
-24.316021640109543
 10
3.5
 20
-24.241413119328158
 10
3.5
 20
-24.166804598546772
 10
3.5
 20
-24.086943940176702
 10
3.5
 20
-24.006207925541855
 10
3.5
 20
-23.925471910907003
 10
3.5
 20
-23.84321930772515
 10
3.5
 20
-23.757175233175783
 10
3.5
 20
-23.671131158626416
 10
3.5
 20
-23.58508708407705
 10
3.5
 20
-23.495875329831698
 10
3.5
 20
-23.40539650370796
 10
3.5
 20
-23.314917677584216
 10
3.5
 20
-23.223936503958093
 10
3.5
 20
-23.129941245317678
 10
3.5
 20
-23.03594598667726
 10
3.5
 20
-22.94195072803684
 10
3.5
 20
-22.846491227531594
 10
3.5
 20
-22.74993354562772
 10
3.5
 20
-22.653375863723845
 10
3.5
 20
-22.556818181819974
  0
LWPOLYLINE
  5
3B
330
17
100
AcDbEntity
  8
0
100
AcDbPolyline
 90
51
 70
0
 10
8.0
 20
-3.6739403974420594e-16
 10
8.0
 20
0.0940501599267777
 10
8.0
 20
0.18810031985355713
 10
8.0
 20
0.28215047978033514
 10
8.0
 20
0.3756937531370061
 10
8.0
 20
0.46856117773353106
 10
8.0
 20
0.561428602330056
 10
8.0
 20
0.6542960269265823
 10
8.0
 20
0.7451486540281165
 10
8.0
 20
0.8356654815471535
 10
8.0
 20
0.9261823090661891
 10
8.0
 20
1.015702308384474
 10
8.0
 20
1.1027302372008834
 10
8.0
 20
1.1897581660172913
 10
8.0
 20
1.2767860948337006
 10
8.0
 20
1.360540219791341
 10
8.0
 20
1.4429848232054745
 10
8.0
 20
1.5254294266196091
 10
8.0
 20
1.6070711565872169
 10
8.0
 20
1.6838956458756709
 10
8.0
 20
1.760720135164124
 10
8.0
 20
1.8375446244525768
 10
8.0
 20
1.910605555653551
 10
8.0
 20
1.9808438182889145
 10
8.0
 20
2.051082080924279
 10
8.0
 20
2.1213203435596424
 10
8.0
 20
2.184089092636087
 10
8.0
 20
2.246857841712533
 10
8.0
 20
2.3096265907889784
 10
8.0
 20
2.368855825437781
 10
8.0
 20
2.4233657075163944
 10
8.0
 20
2.477875589595008
 10
8.0
 20
2.532385471673621
 10
8.0
 20
2.57922875913023
 10
8.0
 20
2.624794280816503
 10
8.0
 20
2.670359802502776
 10
8.0
 20
2.7132060746846847
 10
8.0
 20
2.749254223105682
 10
8.0
 20
2.7853023715266785
 10
8.0
 20
2.821350519947675
 10
8.0
 20
2.850276740049176
 10
8.0
 20
2.876354188822879
 10
8.0
 20
2.902431637596582
 10
8.0
 20
2.927037852270841
 10
8.0
 20
2.942816662348433
 10
8.0
 20
2.958595472426025
 10
8.0
 20
2.974374282503617
 10
8.0
 20
2.9841547689309715
 10
8.0
 20
2.9894365126206477
 10
8.0
 20
2.994718256310324
 10
8.0
 20
3.0
  0
LWPOLYLINE
  5
3C
330
17
100
AcDbEntity
  8
0
100
AcDbPolyline
 90
51
 70
0
 10
8.0
 20
-3.0
 10
8.0
 20
-2.994718256310324
 10
8.0
 20
-2.9894365126206477
 10
8.0
 20
-2.984154768930971
 10
8.0
 20
-2.974374282503617
 10
8.0
 20
-2.9585954724260257
 10
8.0
 20
-2.942816662348433
 10
8.0
 20
-2.9270378522708413
 10
8.0
 20
-2.9024316375965826
 10
8.0
 20
-2.8763541888228796
 10
8.0
 20
-2.8502767400491766
 10
8.0
 20
-2.8213505199476754
 10
8.0
 20
-2.7853023715266794
 10
8.0
 20
-2.749254223105683
 10
8.0
 20
-2.7132060746846864
 10
8.0
 20
-2.670359802502778
 10
8.0
 20
-2.6247942808165026
 10
8.0
 20
-2.5792287591302294
 10
8.0
 20
-2.5323854716736216
 10
8.0
 20
-2.4778755895950084
 10
8.0
 20
-2.4233657075163952
 10
8.0
 20
-2.3688558254377825
 10
8.0
 20
-2.3096265907889793
 10
8.0
 20
-2.2468578417125347
 10
8.0
 20
-2.18408909263609
 10
8.0
 20
-2.1213203435596446
 10
8.0
 20
-2.0510820809242776
 10
8.0
 20
-1.9808438182889148
 10
8.0
 20
-1.9106055556535517
 10
8.0
 20
-1.8375446244525777
 10
8.0
 20
-1.760720135164125
 10
8.0
 20
-1.6838956458756724
 10
8.0
 20
-1.6070711565872196
 10
8.0
 20
-1.5254294266196113
 10
8.0
 20
-1.4429848232054783
 10
8.0
 20
-1.3605402197913405
 10
8.0
 20
-1.276786094833699
 10
8.0
 20
-1.1897581660172916
 10
8.0
 20
-1.1027302372008838
 10
8.0
 20
-1.015702308384476
 10
8.0
 20
-0.9261823090661905
 10
8.0
 20
-0.8356654815471549
 10
8.0
 20
-0.7451486540281195
 10
8.0
 20
-0.6542960269265847
 10
8.0
 20
-0.56142860233006
 10
8.0
 20
-0.4685611777335351
 10
8.0
 20
-0.3756937531370051
 10
8.0
 20
-0.2821504797803352
 10
8.0
 20
-0.18810031985355716
 10
8.0
 20
-0.09405015992677909
 10
8.0
 20
-1.102182119232618e-15
  0
LWPOLYLINE
  5
3D
330
17
100
AcDbEntity
  8
0
100
AcDbPolyline
 90
51
 70
0
 10
-8.0
 20
-3.6739403974420594e-16
 10
-8.0
 20
0.0940501599267777
 10
-8.0
 20
0.18810031985355713
 10
-8.0
 20
0.28215047978033514
 10
-8.0
 20
0.3756937531370061
 10
-8.0
 20
0.46856117773353106
 10
-8.0
 20
0.561428602330056
 10
-8.0
 20
0.6542960269265823
 10
-8.0
 20
0.7451486540281165
 10
-8.0
 20
0.8356654815471535
 10
-8.0
 20
0.9261823090661891
 10
-8.0
 20
1.015702308384474
 10
-8.0
 20
1.1027302372008834
 10
-8.0
 20
1.1897581660172913
 10
-8.0
 20
1.2767860948337006
 10
-8.0
 20
1.360540219791341
 10
-8.0
 20
1.4429848232054745
 10
-8.0
 20
1.5254294266196091
 10
-8.0
 20
1.6070711565872169
 10
-8.0
 20
1.6838956458756709
 10
-8.0
 20
1.760720135164124
 10
-8.0
 20
1.8375446244525768
 10
-8.0
 20
1.910605555653551
 10
-8.0
 20
1.9808438182889145
 10
-8.0
 20
2.051082080924279
 10
-8.0
 20
2.1213203435596424
 10
-8.0
 20
2.184089092636087
 10
-8.0
 20
2.246857841712533
 10
-8.0
 20
2.3096265907889784
 10
-8.0
 20
2.368855825437781
 10
-8.0
 20
2.4233657075163944
 10
-8.0
 20
2.477875589595008
 10
-8.0
 20
2.532385471673621
 10
-8.0
 20
2.57922875913023
 10
-8.0
 20
2.624794280816503
 10
-8.0
 20
2.670359802502776
 10
-8.0
 20
2.7132060746846847
 10
-8.0
 20
2.749254223105682
 10
-8.0
 20
2.7853023715266785
 10
-8.0
 20
2.821350519947675
 10
-8.0
 20
2.850276740049176
 10
-8.0
 20
2.876354188822879
 10
-8.0
 20
2.902431637596582
 10
-8.0
 20
2.927037852270841
 10
-8.0
 20
2.942816662348433
 10
-8.0
 20
2.958595472426025
 10
-8.0
 20
2.974374282503617
 10
-8.0
 20
2.9841547689309715
 10
-8.0
 20
2.9894365126206477
 10
-8.0
 20
2.994718256310324
 10
-8.0
 20
3.0
  0
LWPOLYLINE
  5
3E
330
17
100
AcDbEntity
  8
0
100
AcDbPolyline
 90
51
 70
0
 10
-8.0
 20
-3.0
 10
-8.0
 20
-2.994718256310324
 10
-8.0
 20
-2.9894365126206477
 10
-8.0
 20
-2.984154768930971
 10
-8.0
 20
-2.974374282503617
 10
-8.0
 20
-2.9585954724260257
 10
-8.0
 20
-2.942816662348433
 10
-8.0
 20
-2.9270378522708413
 10
-8.0
 20
-2.9024316375965826
 10
-8.0
 20
-2.8763541888228796
 10
-8.0
 20
-2.8502767400491766
 10
-8.0
 20
-2.8213505199476754
 10
-8.0
 20
-2.7853023715266794
 10
-8.0
 20
-2.749254223105683
 10
-8.0
 20
-2.7132060746846864
 10
-8.0
 20
-2.670359802502778
 10
-8.0
 20
-2.6247942808165026
 10
-8.0
 20
-2.5792287591302294
 10
-8.0
 20
-2.5323854716736216
 10
-8.0
 20
-2.4778755895950084
 10
-8.0
 20
-2.4233657075163952
 10
-8.0
 20
-2.3688558254377825
 10
-8.0
 20
-2.3096265907889793
 10
-8.0
 20
-2.2468578417125347
 10
-8.0
 20
-2.18408909263609
 10
-8.0
 20
-2.1213203435596446
 10
-8.0
 20
-2.0510820809242776
 10
-8.0
 20
-1.9808438182889148
 10
-8.0
 20
-1.9106055556535517
 10
-8.0
 20
-1.8375446244525777
 10
-8.0
 20
-1.760720135164125
 10
-8.0
 20
-1.6838956458756724
 10
-8.0
 20
-1.6070711565872196
 10
-8.0
 20
-1.5254294266196113
 10
-8.0
 20
-1.4429848232054783
 10
-8.0
 20
-1.3605402197913405
 10
-8.0
 20
-1.276786094833699
 10
-8.0
 20
-1.1897581660172916
 10
-8.0
 20
-1.1027302372008838
 10
-8.0
 20
-1.015702308384476
 10
-8.0
 20
-0.9261823090661905
 10
-8.0
 20
-0.8356654815471549
 10
-8.0
 20
-0.7451486540281195
 10
-8.0
 20
-0.6542960269265847
 10
-8.0
 20
-0.56142860233006
 10
-8.0
 20
-0.4685611777335351
 10
-8.0
 20
-0.3756937531370051
 10
-8.0
 20
-0.2821504797803352
 10
-8.0
 20
-0.18810031985355716
 10
-8.0
 20
-0.09405015992677909
 10
-8.0
 20
-1.102182119232618e-15
  0
LWPOLYLINE
  5
3F
330
17
100
AcDbEntity
  8
0
100
AcDbPolyline
 90
51
 70
0
 10
8.0
 20
11.0
 10
8.0
 20
11.094050159926779
 10
8.0
 20
11.188100319853557
 10
8.0
 20
11.282150479780334
 10
8.0
 20
11.375693753137005
 10
8.0
 20
11.46856117773353
 10
8.0
 20
11.561428602330055
 10
8.0
 20
11.654296026926582
 10
8.0
 20
11.745148654028117
 10
8.0
 20
11.835665481547155
 10
8.0
 20
11.92618230906619
 10
8.0
 20
12.015702308384475
 10
8.0
 20
12.102730237200884
 10
8.0
 20
12.189758166017292
 10
8.0
 20
12.276786094833701
 10
8.0
 20
12.360540219791341
 10
8.0
 20
12.442984823205474
 10
8.0
 20
12.52542942661961
 10
8.0
 20
12.607071156587217
 10
8.0
 20
12.68389564587567
 10
8.0
 20
12.760720135164124
 10
8.0
 20
12.837544624452576
 10
8.0
 20
12.91060555565355
 10
8.0
 20
12.980843818288914
 10
8.0
 20
13.051082080924278
 10
8.0
 20
13.121320343559642
 10
8.0
 20
13.184089092636087
 10
8.0
 20
13.246857841712533
 10
8.0
 20
13.309626590788978
 10
8.0
 20
13.368855825437782
 10
8.0
 20
13.423365707516394
 10
8.0
 20
13.477875589595008
 10
8.0
 20
13.532385471673622
 10
8.0
 20
13.579228759130231
 10
8.0
 20
13.624794280816504
 10
8.0
 20
13.670359802502777
 10
8.0
 20
13.713206074684685
 10
8.0
 20
13.749254223105682
 10
8.0
 20
13.78530237152668
 10
8.0
 20
13.821350519947675
 10
8.0
 20
13.850276740049177
 10
8.0
 20
13.87635418882288
 10
8.0
 20
13.902431637596582
 10
8.0
 20
13.927037852270841
 10
8.0
 20
13.942816662348434
 10
8.0
 20
13.958595472426026
 10
8.0
 20
13.974374282503618
 10
8.0
 20
13.984154768930972
 10
8.0
 20
13.989436512620648
 10
8.0
 20
13.994718256310325
 10
8.0
 20
14.0
  0
LWPOLYLINE
  5
40
330
17
100
AcDbEntity
  8
0
100
AcDbPolyline
 90
51
 70
0
 10
8.0
 20
8.0
 10
8.0
 20
8.005281743689675
 10
8.0
 20
8.010563487379352
 10
8.0
 20
8.015845231069028
 10
8.0
 20
8.025625717496382
 10
8.0
 20
8.041404527573974
 10
8.0
 20
8.057183337651567
 10
8.0
 20
8.072962147729159
 10
8.0
 20
8.097568362403416
 10
8.0
 20
8.12364581117712
 10
8.0
 20
8.149723259950823
 10
8.0
 20
8.178649480052323
 10
8.0
 20
8.21469762847332
 10
8.0
 20
8.250745776894316
 10
8.0
 20
8.286793925315314
 10
8.0
 20
8.329640197497222
 10
8.0
 20
8.375205719183496
 10
8.0
 20
8.420771240869769
 10
8.0
 20
8.467614528326378
 10
8.0
 20
8.522124410404992
 10
8.0
 20
8.576634292483604
 10
8.0
 20
8.631144174562218
 10
8.0
 20
8.690373409211022
 10
8.0
 20
8.753142158287465
 10
8.0
 20
8.81591090736391
 10
8.0
 20
8.878679656440355
 10
8.0
 20
8.948917919075722
 10
8.0
 20
9.019156181711086
 10
8.0
 20
9.089394444346448
 10
8.0
 20
9.162455375547422
 10
8.0
 20
9.239279864835876
 10
8.0
 20
9.316104354124327
 10
8.0
 20
9.392928843412781
 10
8.0
 20
9.474570573380388
 10
8.0
 20
9.557015176794522
 10
8.0
 20
9.639459780208659
 10
8.0
 20
9.7232139051663
 10
8.0
 20
9.810241833982708
 10
8.0
 20
9.897269762799116
 10
8.0
 20
9.984297691615524
 10
8.0
 20
10.07381769093381
 10
8.0
 20
10.164334518452845
 10
8.0
 20
10.25485134597188
 10
8.0
 20
10.345703973073416
 10
8.0
 20
10.438571397669941
 10
8.0
 20
10.531438822266466
 10
8.0
 20
10.624306246862995
 10
8.0
 20
10.717849520219666
 10
8.0
 20
10.811899680146443
 10
8.0
 20
10.905949840073221
 10
8.0
 20
10.999999999999998
  0
LWPOLYLINE
  5
41
330
17
100
AcDbEntity
  8
0
100
AcDbPolyline
 90
51
 70
0
 10
-8.0
 20
11.0
 10
-8.0
 20
11.094050159926779
 10
-8.0
 20
11.188100319853557
 10
-8.0
 20
11.282150479780334
 10
-8.0
 20
11.375693753137005
 10
-8.0
 20
11.46856117773353
 10
-8.0
 20
11.561428602330055
 10
-8.0
 20
11.654296026926582
 10
-8.0
 20
11.745148654028117
 10
-8.0
 20
11.835665481547155
 10
-8.0
 20
11.92618230906619
 10
-8.0
 20
12.015702308384475
 10
-8.0
 20
12.102730237200884
 10
-8.0
 20
12.189758166017292
 10
-8.0
 20
12.276786094833701
 10
-8.0
 20
12.360540219791341
 10
-8.0
 20
12.442984823205474
 10
-8.0
 20
12.52542942661961
 10
-8.0
 20
12.607071156587217
 10
-8.0
 20
12.68389564587567
 10
-8.0
 20
12.760720135164124
 10
-8.0
 20
12.837544624452576
 10
-8.0
 20
12.91060555565355
 10
-8.0
 20
12.980843818288914
 10
-8.0
 20
13.051082080924278
 10
-8.0
 20
13.121320343559642
 10
-8.0
 20
13.184089092636087
 10
-8.0
 20
13.246857841712533
 10
-8.0
 20
13.309626590788978
 10
-8.0
 20
13.368855825437782
 10
-8.0
 20
13.423365707516394
 10
-8.0
 20
13.477875589595008
 10
-8.0
 20
13.532385471673622
 10
-8.0
 20
13.579228759130231
 10
-8.0
 20
13.624794280816504
 10
-8.0
 20
13.670359802502777
 10
-8.0
 20
13.713206074684685
 10
-8.0
 20
13.749254223105682
 10
-8.0
 20
13.78530237152668
 10
-8.0
 20
13.821350519947675
 10
-8.0
 20
13.850276740049177
 10
-8.0
 20
13.87635418882288
 10
-8.0
 20
13.902431637596582
 10
-8.0
 20
13.927037852270841
 10
-8.0
 20
13.942816662348434
 10
-8.0
 20
13.958595472426026
 10
-8.0
 20
13.974374282503618
 10
-8.0
 20
13.984154768930972
 10
-8.0
 20
13.989436512620648
 10
-8.0
 20
13.994718256310325
 10
-8.0
 20
14.0
  0
LWPOLYLINE
  5
42
330
17
100
AcDbEntity
  8
0
100
AcDbPolyline
 90
51
 70
0
 10
-8.0
 20
8.0
 10
-8.0
 20
8.005281743689675
 10
-8.0
 20
8.010563487379352
 10
-8.0
 20
8.015845231069028
 10
-8.0
 20
8.025625717496382
 10
-8.0
 20
8.041404527573974
 10
-8.0
 20
8.057183337651567
 10
-8.0
 20
8.072962147729159
 10
-8.0
 20
8.097568362403416
 10
-8.0
 20
8.12364581117712
 10
-8.0
 20
8.149723259950823
 10
-8.0
 20
8.178649480052323
 10
-8.0
 20
8.21469762847332
 10
-8.0
 20
8.250745776894316
 10
-8.0
 20
8.286793925315314
 10
-8.0
 20
8.329640197497222
 10
-8.0
 20
8.375205719183496
 10
-8.0
 20
8.420771240869769
 10
-8.0
 20
8.467614528326378
 10
-8.0
 20
8.522124410404992
 10
-8.0
 20
8.576634292483604
 10
-8.0
 20
8.631144174562218
 10
-8.0
 20
8.690373409211022
 10
-8.0
 20
8.753142158287465
 10
-8.0
 20
8.81591090736391
 10
-8.0
 20
8.878679656440355
 10
-8.0
 20
8.948917919075722
 10
-8.0
 20
9.019156181711086
 10
-8.0
 20
9.089394444346448
 10
-8.0
 20
9.162455375547422
 10
-8.0
 20
9.239279864835876
 10
-8.0
 20
9.316104354124327
 10
-8.0
 20
9.392928843412781
 10
-8.0
 20
9.474570573380388
 10
-8.0
 20
9.557015176794522
 10
-8.0
 20
9.639459780208659
 10
-8.0
 20
9.7232139051663
 10
-8.0
 20
9.810241833982708
 10
-8.0
 20
9.897269762799116
 10
-8.0
 20
9.984297691615524
 10
-8.0
 20
10.07381769093381
 10
-8.0
 20
10.164334518452845
 10
-8.0
 20
10.25485134597188
 10
-8.0
 20
10.345703973073416
 10
-8.0
 20
10.438571397669941
 10
-8.0
 20
10.531438822266466
 10
-8.0
 20
10.624306246862995
 10
-8.0
 20
10.717849520219666
 10
-8.0
 20
10.811899680146443
 10
-8.0
 20
10.905949840073221
 10
-8.0
 20
10.999999999999998
  0
LWPOLYLINE
  5
43
330
17
100
AcDbEntity
  8
0
100
AcDbPolyline
 90
51
 70
0
 10
-3.5
 20
-25.5
 10
-3.5
 20
-25.495026722189614
 10
-3.5
 20
-25.490053444379225
 10
-3.5
 20
-25.48508016656884
 10
-3.5
 20
-25.475865711998683
 10
-3.5
 20
-25.46099635508217
 10
-3.5
 20
-25.44612699816566
 10
-3.5
 20
-25.431257641249147
 10
-3.5
 20
-25.408035288439002
 10
-3.5
 20
-25.383420769646587
 10
-3.5
 20
-25.358806250854173
 10
-3.5
 20
-25.331478779012738
 10
-3.5
 20
-25.297368924548753
 10
-3.5
 20
-25.263259070084768
 10
-3.5
 20
-25.229149215620783
 10
-3.5
 20
-25.188504263931218
 10
-3.5
 20
-25.14524527335142
 10
-3.5
 20
-25.101986282771623
 10
-3.5
 20
-25.057482995480807
 10
-3.5
 20
-25.00551392792387
 10
-3.5
 20
-24.953544860366936
 10
-3.5
 20
-24.90157579281
 10
-3.5
 20
-24.84493094553494
 10
-3.5
 20
-24.784779263471293
 10
-3.5
 20
-24.724627581407642
 10
-3.5
 20
-24.66447589934399
 10
-3.5
 20
-24.5967521150709
 10
-3.5
 20
-24.52902833079781
 10
-3.5
 20
-24.46130454652472
 10
-3.5
 20
-24.39063016089093
 10
-3.5
 20
-24.316021640109543
 10
-3.5
 20
-24.241413119328158
 10
-3.5
 20
-24.166804598546772
 10
-3.5
 20
-24.086943940176702
 10
-3.5
 20
-24.006207925541855
 10
-3.5
 20
-23.925471910907003
 10
-3.5
 20
-23.84321930772515
 10
-3.5
 20
-23.757175233175783
 10
-3.5
 20
-23.671131158626416
 10
-3.5
 20
-23.58508708407705
 10
-3.5
 20
-23.495875329831698
 10
-3.5
 20
-23.40539650370796
 10
-3.5
 20
-23.314917677584216
 10
-3.5
 20
-23.223936503958093
 10
-3.5
 20
-23.129941245317678
 10
-3.5
 20
-23.03594598667726
 10
-3.5
 20
-22.94195072803684
 10
-3.5
 20
-22.846491227531594
 10
-3.5
 20
-22.74993354562772
 10
-3.5
 20
-22.653375863723845
 10
-3.5
 20
-22.556818181819974
  0
LWPOLYLINE
  5
44
330
17
100
AcDbEntity
  8
0
100
AcDbPolyline
 90
51
 70
0
 10
-3.5
 20
-22.55681818182
 10
-3.5
 20
-22.12795454545632
 10
-3.5
 20
-21.69909090909264
 10
-3.5
 20
-21.270227272728963
 10
-3.5
 20
-20.841363636365283
 10
-3.5
 20
-20.412500000001604
 10
-3.5
 20
-19.983636363637928
 10
-3.5
 20
-19.554772727274248
 10
-3.5
 20
-19.125909090910568
 10
-3.5
 20
-18.69704545454689
 10
-3.5
 20
-18.26818181818321
 10
-3.5
 20
-17.839318181819532
 10
-3.5
 20
-17.410454545455853
 10
-3.5
 20
-16.981590909092173
 10
-3.5
 20
-16.552727272728493
 10
-3.5
 20
-16.123863636364817
 10
-3.5
 20
-15.695000000001137
 10
-3.5
 20
-15.266136363637457
 10
-3.5
 20
-14.837272727273778
 10
-3.5
 20
-14.4084090909101
 10
-3.5
 20
-13.979545454546422
 10
-3.5
 20
-13.550681818182742
 10
-3.5
 20
-13.121818181819064
 10
-3.5
 20
-12.692954545455384
 10
-3.5
 20
-12.264090909091706
 10
-3.5
 20
-11.835227272728027
 10
-3.5
 20
-11.406363636364349
 10
-3.5
 20
-10.977500000000669
 10
-3.5
 20
-10.548636363636989
 10
-3.5
 20
-10.119772727273311
 10
-3.5
 20
-9.690909090909631
 10
-3.5
 20
-9.262045454545953
 10
-3.5
 20
-8.833181818182274
 10
-3.5
 20
-8.404318181818596
 10
-3.5
 20
-7.975454545454918
 10
-3.5
 20
-7.546590909091236
 10
-3.5
 20
-7.117727272727558
 10
-3.5
 20
-6.68886363636388
 10
-3.5
 20
-6.2600000000002005
 10
-3.5
 20
-5.831136363636521
 10
-3.5
 20
-5.402272727272845
 10
-3.5
 20
-4.973409090909165
 10
-3.5
 20
-4.544545454545485
 10
-3.5
 20
-4.115681818181805
 10
-3.5
 20
-3.686818181818129
 10
-3.5
 20
-3.2579545454544494
 10
-3.5
 20
-2.8290909090907697
 10
-3.5
 20
-2.40022727272709
 10
-3.5
 20
-1.9713636363634137
 10
-3.5
 20
-1.5424999999997304
 10
-3.5
 20
-1.1136363636360542
  0
LWPOLYLINE
  5
45
330
17
100
AcDbEntity
  8
0
100
AcDbPolyline
 90
51
 70
0
 10
-3.5
 20
-1.1136363636363147
 10
-3.5
 20
-1.0399061092468982
 10
-3.5
 20
-0.9661758548574817
 10
-3.5
 20
-0.8924456004680653
 10
-3.5
 20
-0.8185680555601011
 10
-3.5
 20
-0.7444941232940736
 10
-3.5
 20
-0.6704201910280462
 10
-3.5
 20
-0.5963462587620186
 10
-3.5
 20
-0.5220693955313052
 10
-3.5
 20
-0.44775871047314414
 10
-3.5
 20
-0.373448025414983
 10
-3.5
 20
-0.29910034436909755
 10
-3.5
 20
-0.22466017335390095
 10
-3.5
 20
-0.15022000233870428
 10
-3.5
 20
-0.0757798313235076
 10
-3.5
 20
-0.0013239230154026005
 10
-3.5
 20
0.07313828020986568
 10
-3.5
 20
0.147600483435134
 10
-3.5
 20
0.2220504790403738
 10
-3.5
 20
0.29642722892544426
 10
-3.5
 20
0.37080397881051474
 10
-3.5
 20
0.445180728695585
 10
-3.5
 20
0.5194472982724807
 10
-3.5
 20
0.5936312326182457
 10
-3.5
 20
0.66781516696401
 10
-3.5
 20
0.7419991013097749
 10
-3.5
 20
0.8158831362446998
 10
-3.5
 20
0.8897671711796251
 10
-3.5
 20
0.96365120611455
 10
-3.5
 20
1.0373610051722673
 10
-3.5
 20
1.1108384897270398
 10
-3.5
 20
1.1843159742818123
 10
-3.5
 20
1.257793458836585
 10
-3.5
 20
1.3308315595363698
 10
-3.5
 20
1.403796429593657
 10
-3.5
 20
1.476761299650944
 10
-3.5
 20
1.5495496158053164
 10
-3.5
 20
1.6218965472024047
 10
-3.5
 20
1.6942434785994929
 10
-3.5
 20
1.7665904099965812
 10
-3.5
 20
1.8384213622266923
 10
-3.5
 20
1.910045922790013
 10
-3.5
 20
1.9816704833533332
 10
-3.5
 20
2.0531770781636185
 10
-3.5
 20
2.1239758784556915
 10
-3.5
 20
2.1947746787477644
 10
-3.5
 20
2.2655734790398374
 10
-3.5
 20
2.335842017771411
 10
-3.5
 20
2.4057128603326094
 10
-3.5
 20
2.4755837028938084
 10
-3.5
 20
2.5454545454550077
  0
LWPOLYLINE
  5
46
330
17
100
AcDbEntity
  8
0
100
AcDbPolyline
 90
51
 70
0
 10
-3.5
 20
2.545454545455
 10
-3.5
 20
2.7363636363640937
 10
-3.5
 20
2.9272727272731873
 10
-3.5
 20
3.118181818182281
 10
-3.5
 20
3.3090909090913745
 10
-3.5
 20
3.500000000000468
 10
-3.5
 20
3.6909090909095617
 10
-3.5
 20
3.8818181818186552
 10
-3.5
 20
4.072727272727748
 10
-3.5
 20
4.263636363636842
 10
-3.5
 20
4.4545454545459355
 10
-3.5
 20
4.64545454545503
 10
-3.5
 20
4.836363636364123
 10
-3.5
 20
5.027272727273216
 10
-3.5
 20
5.218181818182311
 10
-3.5
 20
5.409090909091404
 10
-3.5
 20
5.600000000000497
 10
-3.5
 20
5.79090909090959
 10
-3.5
 20
5.981818181818684
 10
-3.5
 20
6.172727272727778
 10
-3.5
 20
6.363636363636871
 10
-3.5
 20
6.5545454545459645
 10
-3.5
 20
6.745454545455059
 10
-3.5
 20
6.9363636363641525
 10
-3.5
 20
7.127272727273246
 10
-3.5
 20
7.318181818182339
 10
-3.5
 20
7.509090909091432
 10
-3.5
 20
7.700000000000527
 10
-3.5
 20
7.89090909090962
 10
-3.5
 20
8.081818181818713
 10
-3.5
 20
8.272727272727808
 10
-3.5
 20
8.463636363636901
 10
-3.5
 20
8.654545454545994
 10
-3.5
 20
8.845454545455087
 10
-3.5
 20
9.03636363636418
 10
-3.5
 20
9.227272727273276
 10
-3.5
 20
9.418181818182369
 10
-3.5
 20
9.609090909091462
 10
-3.5
 20
9.800000000000555
 10
-3.5
 20
9.990909090909648
 10
-3.5
 20
10.181818181818743
 10
-3.5
 20
10.372727272727836
 10
-3.5
 20
10.56363636363693
 10
-3.5
 20
10.754545454546024
 10
-3.5
 20
10.945454545455117
 10
-3.5
 20
11.13636363636421
 10
-3.5
 20
11.327272727273304
 10
-3.5
 20
11.518181818182397
 10
-3.5
 20
11.709090909091492
 10
-3.5
 20
11.900000000000585
 10
-3.5
 20
12.090909090909678
  0
ENDSEC
  0
SECTION
  2
OBJECTS
  0
DICTIONARY
  5
A
330
0
100
AcDbDictionary
280
0
281
1
  3
ACAD_COLOR
350
B
  3
ACAD_GROUP
350
C
  3
ACAD_LAYOUT
350
D
  3
ACAD_MATERIAL
350
E
  3
ACAD_MLEADERSTYLE
350
F
  3
ACAD_MLINESTYLE
350
10
  3
ACAD_PLOTSETTINGS
350
11
  3
ACAD_PLOTSTYLENAME
350
12
  3
ACAD_SCALELIST
350
14
  3
ACAD_TABLESTYLE
350
15
  3
ACAD_VISUALSTYLE
350
16
  3
EZDXF_META
350
2D
  0
DICTIONARY
  5
B
330
A
100
AcDbDictionary
280
0
281
1
  0
DICTIONARY
  5
C
330
A
100
AcDbDictionary
280
0
281
1
  0
DICTIONARY
  5
D
330
A
100
AcDbDictionary
280
0
281
1
  3
Model
350
1A
  3
Layout1
350
1E
  0
DICTIONARY
  5
E
330
A
100
AcDbDictionary
280
0
281
1
  3
ByBlock
350
1F
  3
ByLayer
350
20
  3
Global
350
21
  0
DICTIONARY
  5
F
330
A
100
AcDbDictionary
280
0
281
1
  3
Standard
350
2C
  0
DICTIONARY
  5
10
330
A
100
AcDbDictionary
280
0
281
1
  3
Standard
350
22
  0
DICTIONARY
  5
11
330
A
100
AcDbDictionary
280
0
281
1
  0
ACDBDICTIONARYWDFLT
  5
12
330
A
100
AcDbDictionary
280
0
281
1
  3
Normal
350
13
100
AcDbDictionaryWithDefault
340
13
  0
ACDBPLACEHOLDER
  5
13
330
12
  0
DICTIONARY
  5
14
330
A
100
AcDbDictionary
280
0
281
1
  0
DICTIONARY
  5
15
330
A
100
AcDbDictionary
280
0
281
1
  0
DICTIONARY
  5
16
330
A
100
AcDbDictionary
280
0
281
1
  0
LAYOUT
  5
1A
330
D
100
AcDbPlotSettings
  1

  2
Adobe PDF
  4
A3
  6

 40
7.5
 41
20.0
 42
7.5
 43
20.0
 44
420.0
 45
297.0
 46
0.0
 47
0.0
 48
0.0
 49
0.0
140
0.0
141
0.0
142
1.0
143
1.0
 70
1024
 72
1
 73
0
 74
5
  7

 75
16
 76
0
 77
2
 78
300
147
1.0
148
0.0
149
0.0
100
AcDbLayout
  1
Model
 70
1
 71
0
 10
0.0
 20
0.0
 11
420.0
 21
297.0
 12
0.0
 22
0.0
 32
0.0
 14
1e+20
 24
1e+20
 34
1e+20
 15
-1e+20
 25
-1e+20
 35
-1e+20
146
0.0
 13
0.0
 23
0.0
 33
0.0
 16
1.0
 26
0.0
 36
0.0
 17
0.0
 27
1.0
 37
0.0
 76
1
330
17
  0
LAYOUT
  5
1E
330
D
100
AcDbPlotSettings
  1

  2
Adobe PDF
  4
A3
  6

 40
7.5
 41
20.0
 42
7.5
 43
20.0
 44
420.0
 45
297.0
 46
0.0
 47
0.0
 48
0.0
 49
0.0
140
0.0
141
0.0
142
1.0
143
1.0
 70
0
 72
1
 73
0
 74
5
  7

 75
16
 76
0
 77
2
 78
300
147
1.0
148
0.0
149
0.0
100
AcDbLayout
  1
Layout1
 70
1
 71
1
 10
0.0
 20
0.0
 11
420.0
 21
297.0
 12
0.0
 22
0.0
 32
0.0
 14
1e+20
 24
1e+20
 34
1e+20
 15
-1e+20
 25
-1e+20
 35
-1e+20
146
0.0
 13
0.0
 23
0.0
 33
0.0
 16
1.0
 26
0.0
 36
0.0
 17
0.0
 27
1.0
 37
0.0
 76
1
330
1B
  0
MATERIAL
  5
1F
102
{ACAD_REACTORS
330
E
102
}
330
E
100
AcDbMaterial
  1
ByBlock
  2

 70
0
 40
1.0
 71
1
 41
1.0
 91
-1023410177
 42
1.0
 72
1
  3

 73
1
 74
1
 75
1
 44
0.5
 73
0
 45
1.0
 46
1.0
 77
1
  4

 78
1
 79
1
170
1
 48
1.0
171
1
  6

172
1
173
1
174
1
140
1.0
141
1.0
175
1
  7

176
1
177
1
178
1
143
1.0
179
1
  8

270
1
271
1
272
1
145
1.0
146
1.0
273
1
  9

274
1
275
1
276
1
 42
1.0
 72
1
  3

 73
1
 74
1
 75
1
 94
63
  0
MATERIAL
  5
20
102
{ACAD_REACTORS
330
E
102
}
330
E
100
AcDbMaterial
  1
ByLayer
  2

 70
0
 40
1.0
 71
1
 41
1.0
 91
-1023410177
 42
1.0
 72
1
  3

 73
1
 74
1
 75
1
 44
0.5
 73
0
 45
1.0
 46
1.0
 77
1
  4

 78
1
 79
1
170
1
 48
1.0
171
1
  6

172
1
173
1
174
1
140
1.0
141
1.0
175
1
  7

176
1
177
1
178
1
143
1.0
179
1
  8

270
1
271
1
272
1
145
1.0
146
1.0
273
1
  9

274
1
275
1
276
1
 42
1.0
 72
1
  3

 73
1
 74
1
 75
1
 94
63
  0
MATERIAL
  5
21
102
{ACAD_REACTORS
330
E
102
}
330
E
100
AcDbMaterial
  1
Global
  2

 70
0
 40
1.0
 71
1
 41
1.0
 91
-1023410177
 42
1.0
 72
1
  3

 73
1
 74
1
 75
1
 44
0.5
 73
0
 45
1.0
 46
1.0
 77
1
  4

 78
1
 79
1
170
1
 48
1.0
171
1
  6

172
1
173
1
174
1
140
1.0
141
1.0
175
1
  7

176
1
177
1
178
1
143
1.0
179
1
  8

270
1
271
1
272
1
145
1.0
146
1.0
273
1
  9

274
1
275
1
276
1
 42
1.0
 72
1
  3

 73
1
 74
1
 75
1
 94
63
  0
MLINESTYLE
  5
22
102
{ACAD_REACTORS
330
10
102
}
330
10
100
AcDbMlineStyle
  2
Standard
 70
0
  3

 62
256
 51
90.0
 52
90.0
 71
2
 49
0.5
 62
256
  6
BYLAYER
 49
-0.5
 62
256
  6
BYLAYER
  0
MLEADERSTYLE
  5
2C
102
{ACAD_REACTORS
330
F
102
}
330
F
100
AcDbMLeaderStyle
179
2
170
2
171
1
172
0
 90
2
 40
0.0
 41
0.0
173
1
 91
-1056964608
 92
-2
290
1
 42
2.0
291
1
 43
8.0
  3
Standard
 44
4.0
300

342
29
174
1
175
1
176
0
178
1
 93
-1056964608
 45
4.0
292
0
297
0
 46
4.0
 94
-1056964608
 47
1.0
 49
1.0
140
1.0
294
1
141
0.0
177
0
142
1.0
295
0
296
0
143
3.75
271
0
272
9
273
9
  0
DICTIONARY
  5
2D
330
A
100
AcDbDictionary
281
1
  3
CREATED_BY_EZDXF
350
2E
  3
WRITTEN_BY_EZDXF
350
49
  0
DICTIONARYVAR
  5
2E
330
2D
100
DictionaryVariables
280
0
  1
1.0.3 @ 2025-05-29T09:41:25.566688+00:00
  0
DICTIONARYVAR
  5
49
330
2D
100
DictionaryVariables
280
0
  1
1.0.3 @ 2025-05-29T09:41:25.573310+00:00
  0
ENDSEC
  0
EOF
