  0
SECTION
  2
HEADER
  9
$ACADVER
  1
AC1027
  9
$ACADMAINTVER
 70
105
  9
$DWGCODEPAGE
  3
ANSI_1252
  9
$LASTSAVEDBY
  1
ezdxf
  9
$REQUIREDVERSIONS
160
0
  9
$INSBASE
 10
0.0
 20
0.0
 30
0.0
  9
$EXTMIN
 10
1e+20
 20
1e+20
 30
1e+20
  9
$EXTMAX
 10
-1e+20
 20
-1e+20
 30
-1e+20
  9
$LIMMIN
 10
0.0
 20
0.0
  9
$LIMMAX
 10
420.0
 20
297.0
  9
$ORTHOMODE
 70
0
  9
$REGENMODE
 70
1
  9
$FILLMODE
 70
1
  9
$QTEXTMODE
 70
0
  9
$MIRRTEXT
 70
1
  9
$LTSCALE
 40
1.0
  9
$ATTMODE
 70
1
  9
$TEXTSIZE
 40
2.5
  9
$TRACEWID
 40
1.0
  9
$TEXTSTYLE
  7
Standard
  9
$CLAYER
  8
0
  9
$CELTYPE
  6
ByLayer
  9
$CECOLOR
 62
256
  9
$CELTSCALE
 40
1.0
  9
$DISPSILH
 70
0
  9
$DIMSCALE
 40
1.0
  9
$DIMASZ
 40
2.5
  9
$DIMEXO
 40
0.625
  9
$DIMDLI
 40
3.75
  9
$DIMRND
 40
0.0
  9
$DIMDLE
 40
0.0
  9
$DIMEXE
 40
1.25
  9
$DIMTP
 40
0.0
  9
$DIMTM
 40
0.0
  9
$DIMTXT
 40
2.5
  9
$DIMCEN
 40
2.5
  9
$DIMTSZ
 40
0.0
  9
$DIMTOL
 70
0
  9
$DIMLIM
 70
0
  9
$DIMTIH
 70
0
  9
$DIMTOH
 70
0
  9
$DIMSE1
 70
0
  9
$DIMSE2
 70
0
  9
$DIMTAD
 70
1
  9
$DIMZIN
 70
8
  9
$DIMBLK
  1

  9
$DIMASO
 70
1
  9
$DIMSHO
 70
1
  9
$DIMPOST
  1

  9
$DIMAPOST
  1

  9
$DIMALT
 70
0
  9
$DIMALTD
 70
3
  9
$DIMALTF
 40
0.03937007874
  9
$DIMLFAC
 40
1.0
  9
$DIMTOFL
 70
1
  9
$DIMTVP
 40
0.0
  9
$DIMTIX
 70
0
  9
$DIMSOXD
 70
0
  9
$DIMSAH
 70
0
  9
$DIMBLK1
  1

  9
$DIMBLK2
  1

  9
$DIMSTYLE
  2
ISO-25
  9
$DIMCLRD
 70
0
  9
$DIMCLRE
 70
0
  9
$DIMCLRT
 70
0
  9
$DIMTFAC
 40
1.0
  9
$DIMGAP
 40
0.625
  9
$DIMJUST
 70
0
  9
$DIMSD1
 70
0
  9
$DIMSD2
 70
0
  9
$DIMTOLJ
 70
0
  9
$DIMTZIN
 70
8
  9
$DIMALTZ
 70
0
  9
$DIMALTTZ
 70
0
  9
$DIMUPT
 70
0
  9
$DIMDEC
 70
2
  9
$DIMTDEC
 70
2
  9
$DIMALTU
 70
2
  9
$DIMALTTD
 70
3
  9
$DIMTXSTY
  7
Standard
  9
$DIMAUNIT
 70
0
  9
$DIMADEC
 70
0
  9
$DIMALTRND
 40
0.0
  9
$DIMAZIN
 70
0
  9
$DIMDSEP
 70
44
  9
$DIMATFIT
 70
3
  9
$DIMFRAC
 70
0
  9
$DIMLDRBLK
  1

  9
$DIMLUNIT
 70
2
  9
$DIMLWD
 70
-2
  9
$DIMLWE
 70
-2
  9
$DIMTMOVE
 70
0
  9
$DIMFXL
 40
1.0
  9
$DIMFXLON
 70
0
  9
$DIMJOGANG
 40
0.785398163397
  9
$DIMTFILL
 70
0
  9
$DIMTFILLCLR
 70
0
  9
$DIMARCSYM
 70
0
  9
$DIMLTYPE
  6

  9
$DIMLTEX1
  6

  9
$DIMLTEX2
  6

  9
$DIMTXTDIRECTION
 70
0
  9
$LUNITS
 70
2
  9
$LUPREC
 70
4
  9
$SKETCHINC
 40
1.0
  9
$FILLETRAD
 40
10.0
  9
$AUNITS
 70
0
  9
$AUPREC
 70
2
  9
$MENU
  1
.
  9
$ELEVATION
 40
0.0
  9
$PELEVATION
 40
0.0
  9
$THICKNESS
 40
0.0
  9
$LIMCHECK
 70
0
  9
$CHAMFERA
 40
0.0
  9
$CHAMFERB
 40
0.0
  9
$CHAMFERC
 40
0.0
  9
$CHAMFERD
 40
0.0
  9
$SKPOLY
 70
0
  9
$TDCREATE
 40
2460825.778761574
  9
$TDUCREATE
 40
2458532.153996898
  9
$TDUPDATE
 40
2460825.778761574
  9
$TDUUPDATE
 40
2458532.1544311
  9
$TDINDWG
 40
0.0
  9
$TDUSRTIMER
 40
0.0
  9
$USRTIMER
 70
1
  9
$ANGBASE
 50
0.0
  9
$ANGDIR
 70
0
  9
$PDMODE
 70
0
  9
$PDSIZE
 40
0.0
  9
$PLINEWID
 40
0.0
  9
$SPLFRAME
 70
0
  9
$SPLINETYPE
 70
6
  9
$SPLINESEGS
 70
8
  9
$HANDSEED
  5
46
  9
$SURFTAB1
 70
6
  9
$SURFTAB2
 70
6
  9
$SURFTYPE
 70
6
  9
$SURFU
 70
6
  9
$SURFV
 70
6
  9
$UCSBASE
  2

  9
$UCSNAME
  2

  9
$UCSORG
 10
0.0
 20
0.0
 30
0.0
  9
$UCSXDIR
 10
1.0
 20
0.0
 30
0.0
  9
$UCSYDIR
 10
0.0
 20
1.0
 30
0.0
  9
$UCSORTHOREF
  2

  9
$UCSORTHOVIEW
 70
0
  9
$UCSORGTOP
 10
0.0
 20
0.0
 30
0.0
  9
$UCSORGBOTTOM
 10
0.0
 20
0.0
 30
0.0
  9
$UCSORGLEFT
 10
0.0
 20
0.0
 30
0.0
  9
$UCSORGRIGHT
 10
0.0
 20
0.0
 30
0.0
  9
$UCSORGFRONT
 10
0.0
 20
0.0
 30
0.0
  9
$UCSORGBACK
 10
0.0
 20
0.0
 30
0.0
  9
$PUCSBASE
  2

  9
$PUCSNAME
  2

  9
$PUCSORG
 10
0.0
 20
0.0
 30
0.0
  9
$PUCSXDIR
 10
1.0
 20
0.0
 30
0.0
  9
$PUCSYDIR
 10
0.0
 20
1.0
 30
0.0
  9
$PUCSORTHOREF
  2

  9
$PUCSORTHOVIEW
 70
0
  9
$PUCSORGTOP
 10
0.0
 20
0.0
 30
0.0
  9
$PUCSORGBOTTOM
 10
0.0
 20
0.0
 30
0.0
  9
$PUCSORGLEFT
 10
0.0
 20
0.0
 30
0.0
  9
$PUCSORGRIGHT
 10
0.0
 20
0.0
 30
0.0
  9
$PUCSORGFRONT
 10
0.0
 20
0.0
 30
0.0
  9
$PUCSORGBACK
 10
0.0
 20
0.0
 30
0.0
  9
$USERI1
 70
0
  9
$USERI2
 70
0
  9
$USERI3
 70
0
  9
$USERI4
 70
0
  9
$USERI5
 70
0
  9
$USERR1
 40
0.0
  9
$USERR2
 40
0.0
  9
$USERR3
 40
0.0
  9
$USERR4
 40
0.0
  9
$USERR5
 40
0.0
  9
$WORLDVIEW
 70
1
  9
$SHADEDGE
 70
3
  9
$SHADEDIF
 70
70
  9
$TILEMODE
 70
1
  9
$MAXACTVP
 70
64
  9
$PINSBASE
 10
0.0
 20
0.0
 30
0.0
  9
$PLIMCHECK
 70
0
  9
$PEXTMIN
 10
1e+20
 20
1e+20
 30
1e+20
  9
$PEXTMAX
 10
-1e+20
 20
-1e+20
 30
-1e+20
  9
$PLIMMIN
 10
0.0
 20
0.0
  9
$PLIMMAX
 10
420.0
 20
297.0
  9
$UNITMODE
 70
0
  9
$VISRETAIN
 70
1
  9
$PLINEGEN
 70
0
  9
$PSLTSCALE
 70
1
  9
$TREEDEPTH
 70
3020
  9
$CMLSTYLE
  2
Standard
  9
$CMLJUST
 70
0
  9
$CMLSCALE
 40
20.0
  9
$PROXYGRAPHICS
 70
1
  9
$MEASUREMENT
 70
1
  9
$CELWEIGHT
370
-1
  9
$ENDCAPS
280
0
  9
$JOINSTYLE
280
0
  9
$LWDISPLAY
290
0
  9
$INSUNITS
 70
6
  9
$HYPERLINKBASE
  1

  9
$STYLESHEET
  1

  9
$XEDIT
290
1
  9
$CEPSNTYPE
380
0
  9
$PSTYLEMODE
290
1
  9
$FINGERPRINTGUID
  2
{A31B5E3C-CEFF-4D6D-A5B6-F235A95986B7}
  9
$VERSIONGUID
  2
{0F40E221-B82F-475D-9776-CBD385F63962}
  9
$EXTNAMES
290
1
  9
$PSVPSCALE
 40
0.0
  9
$OLESTARTUP
290
0
  9
$SORTENTS
280
127
  9
$INDEXCTL
280
0
  9
$HIDETEXT
280
1
  9
$XCLIPFRAME
280
0
  9
$HALOGAP
280
0
  9
$OBSCOLOR
 70
257
  9
$OBSLTYPE
280
0
  9
$INTERSECTIONDISPLAY
280
0
  9
$INTERSECTIONCOLOR
 70
257
  9
$DIMASSOC
280
2
  9
$PROJECTNAME
  1

  9
$CAMERADISPLAY
290
0
  9
$LENSLENGTH
 40
50.0
  9
$CAMERAHEIGHT
 40
0.0
  9
$STEPSPERSEC
 40
24.0
  9
$STEPSIZE
 40
100.0
  9
$3DDWFPREC
 40
2.0
  9
$PSOLWIDTH
 40
0.005
  9
$PSOLHEIGHT
 40
0.08
  9
$LOFTANG1
 40
1.570796326795
  9
$LOFTANG2
 40
1.570796326795
  9
$LOFTMAG1
 40
0.0
  9
$LOFTMAG2
 40
0.0
  9
$LOFTPARAM
 70
7
  9
$LOFTNORMALS
280
1
  9
$LATITUDE
 40
37.795
  9
$LONGITUDE
 40
-122.394
  9
$NORTHDIRECTION
 40
0.0
  9
$TIMEZONE
 70
-8000
  9
$LIGHTGLYPHDISPLAY
280
1
  9
$TILEMODELIGHTSYNCH
280
1
  9
$CMATERIAL
347
20
  9
$SOLIDHIST
280
0
  9
$SHOWHIST
280
1
  9
$DWFFRAME
280
2
  9
$DGNFRAME
280
2
  9
$REALWORLDSCALE
290
1
  9
$INTERFERECOLOR
 62
256
  9
$CSHADOW
280
0
  9
$SHADOWPLANELOCATION
 40
0.0
  0
ENDSEC
  0
SECTION
  2
CLASSES
  0
CLASS
  1
ACDBDICTIONARYWDFLT
  2
AcDbDictionaryWithDefault
  3
ObjectDBX Classes
 90
0
 91
0
280
0
281
0
  0
CLASS
  1
SUN
  2
AcDbSun
  3
SCENEOE
 90
1153
 91
0
280
0
281
0
  0
CLASS
  1
VISUALSTYLE
  2
AcDbVisualStyle
  3
ObjectDBX Classes
 90
4095
 91
0
280
0
281
0
  0
CLASS
  1
MATERIAL
  2
AcDbMaterial
  3
ObjectDBX Classes
 90
1153
 91
0
280
0
281
0
  0
CLASS
  1
SCALE
  2
AcDbScale
  3
ObjectDBX Classes
 90
1153
 91
0
280
0
281
0
  0
CLASS
  1
TABLESTYLE
  2
AcDbTableStyle
  3
ObjectDBX Classes
 90
4095
 91
0
280
0
281
0
  0
CLASS
  1
MLEADERSTYLE
  2
AcDbMLeaderStyle
  3
ACDB_MLEADERSTYLE_CLASS
 90
4095
 91
0
280
0
281
0
  0
CLASS
  1
DICTIONARYVAR
  2
AcDbDictionaryVar
  3
ObjectDBX Classes
 90
0
 91
0
280
0
281
0
  0
CLASS
  1
CELLSTYLEMAP
  2
AcDbCellStyleMap
  3
ObjectDBX Classes
 90
1152
 91
0
280
0
281
0
  0
CLASS
  1
MENTALRAYRENDERSETTINGS
  2
AcDbMentalRayRenderSettings
  3
SCENEOE
 90
1024
 91
0
280
0
281
0
  0
CLASS
  1
ACDBDETAILVIEWSTYLE
  2
AcDbDetailViewStyle
  3
ObjectDBX Classes
 90
1025
 91
0
280
0
281
0
  0
CLASS
  1
ACDBSECTIONVIEWSTYLE
  2
AcDbSectionViewStyle
  3
ObjectDBX Classes
 90
1025
 91
0
280
0
281
0
  0
CLASS
  1
RASTERVARIABLES
  2
AcDbRasterVariables
  3
ISM
 90
0
 91
0
280
0
281
0
  0
CLASS
  1
LAYOUT
  2
AcDbLayout
  3
ObjectDBX Classes
 90
0
 91
0
280
0
281
0
  0
CLASS
  1
ACDBPLACEHOLDER
  2
AcDbPlaceHolder
  3
ObjectDBX Classes
 90
0
 91
0
280
0
281
0
  0
ENDSEC
  0
SECTION
  2
TABLES
  0
TABLE
  2
VPORT
  5
8
330
0
100
AcDbSymbolTable
 70
1
  0
VPORT
  5
23
330
8
100
AcDbSymbolTableRecord
100
AcDbViewportTableRecord
  2
*Active
 70
0
 10
0.0
 20
0.0
 11
1.0
 21
1.0
 12
0.0
 22
0.0
 13
0.0
 23
0.0
 14
0.5
 24
0.5
 15
0.5
 25
0.5
 16
0.0
 26
0.0
 36
1.0
 17
0.0
 27
0.0
 37
0.0
 40
1000.0
 41
1.34
 42
50.0
 43
0.0
 44
0.0
 50
0.0
 51
0.0
 71
0
 72
1000
 73
1
 74
3
 75
0
 76
0
 77
0
 78
0
281
0
 65
0
146
0.0
  0
ENDTAB
  0
TABLE
  2
LTYPE
  5
2
330
0
100
AcDbSymbolTable
 70
3
  0
LTYPE
  5
24
330
2
100
AcDbSymbolTableRecord
100
AcDbLinetypeTableRecord
  2
ByBlock
 70
0
  3

 72
65
 73
0
 40
0.0
  0
LTYPE
  5
25
330
2
100
AcDbSymbolTableRecord
100
AcDbLinetypeTableRecord
  2
ByLayer
 70
0
  3

 72
65
 73
0
 40
0.0
  0
LTYPE
  5
26
330
2
100
AcDbSymbolTableRecord
100
AcDbLinetypeTableRecord
  2
Continuous
 70
0
  3

 72
65
 73
0
 40
0.0
  0
ENDTAB
  0
TABLE
  2
LAYER
  5
1
330
0
100
AcDbSymbolTable
 70
2
  0
LAYER
  5
27
330
1
100
AcDbSymbolTableRecord
100
AcDbLayerTableRecord
  2
0
 70
0
 62
7
  6
Continuous
370
-3
390
13
347
21
  0
LAYER
  5
28
330
1
100
AcDbSymbolTableRecord
100
AcDbLayerTableRecord
  2
Defpoints
 70
0
 62
7
  6
Continuous
290
0
370
-3
390
13
347
21
  0
ENDTAB
  0
TABLE
  2
STYLE
  5
5
330
0
100
AcDbSymbolTable
 70
1
  0
STYLE
  5
29
330
5
100
AcDbSymbolTableRecord
100
AcDbTextStyleTableRecord
  2
Standard
 70
0
 40
0.0
 41
1.0
 50
0.0
 71
0
 42
2.5
  3
txt
  4

  0
ENDTAB
  0
TABLE
  2
VIEW
  5
7
330
0
100
AcDbSymbolTable
 70
0
  0
ENDTAB
  0
TABLE
  2
UCS
  5
6
330
0
100
AcDbSymbolTable
 70
0
  0
ENDTAB
  0
TABLE
  2
APPID
  5
3
330
0
100
AcDbSymbolTable
 70
3
  0
APPID
  5
2A
330
3
100
AcDbSymbolTableRecord
100
AcDbRegAppTableRecord
  2
ACAD
 70
0
  0
APPID
  5
43
330
3
100
AcDbSymbolTableRecord
100
AcDbRegAppTableRecord
  2
HATCHBACKGROUNDCOLOR
 70
0
  0
APPID
  5
44
330
3
100
AcDbSymbolTableRecord
100
AcDbRegAppTableRecord
  2
EZDXF
 70
0
  0
ENDTAB
  0
TABLE
  2
DIMSTYLE
  5
4
330
0
100
AcDbSymbolTable
 70
1
100
AcDbDimStyleTable
  0
DIMSTYLE
105
2B
330
4
100
AcDbSymbolTableRecord
100
AcDbDimStyleTableRecord
  2
Standard
 70
0
 40
1.0
 41
2.5
 42
0.625
 43
3.75
 44
1.25
 45
0.0
 46
0.0
 47
0.0
 48
0.0
 49
2.5
140
2.5
141
2.5
142
0.0
143
0.03937007874
144
1.0
145
0.0
146
1.0
147
0.625
148
0.0
 69
0
 70
0
 71
0
 72
0
 73
0
 74
0
 75
0
 76
0
 77
1
 78
8
 79
3
170
0
171
3
172
1
173
0
174
0
175
0
176
0
177
0
178
0
179
2
271
2
272
2
273
2
274
3
275
0
276
0
277
2
278
44
279
0
280
0
281
0
282
0
283
0
284
8
285
0
286
0
288
0
289
3
290
0
371
-2
372
-2
  0
ENDTAB
  0
TABLE
  2
BLOCK_RECORD
  5
9
330
0
100
AcDbSymbolTable
 70
2
  0
BLOCK_RECORD
  5
17
330
9
100
AcDbSymbolTableRecord
100
AcDbBlockTableRecord
  2
*Model_Space
340
1A
 70
0
280
1
281
0
  0
BLOCK_RECORD
  5
1B
330
9
100
AcDbSymbolTableRecord
100
AcDbBlockTableRecord
  2
*Paper_Space
340
1E
 70
0
280
1
281
0
  0
ENDTAB
  0
ENDSEC
  0
SECTION
  2
BLOCKS
  0
BLOCK
  5
18
330
17
100
AcDbEntity
  8
0
100
AcDbBlockBegin
  2
*Model_Space
 70
0
 10
0.0
 20
0.0
 30
0.0
  3
*Model_Space
  1

  0
ENDBLK
  5
19
330
17
100
AcDbEntity
  8
0
100
AcDbBlockEnd
  0
BLOCK
  5
1C
330
1B
100
AcDbEntity
  8
0
100
AcDbBlockBegin
  2
*Paper_Space
 70
0
 10
0.0
 20
0.0
 30
0.0
  3
*Paper_Space
  1

  0
ENDBLK
  5
1D
330
1B
100
AcDbEntity
  8
0
100
AcDbBlockEnd
  0
ENDSEC
  0
SECTION
  2
ENTITIES
  0
LWPOLYLINE
  5
2F
330
17
100
AcDbEntity
  8
0
100
AcDbPolyline
 90
51
 70
0
 10
-8.0
 20
-3.0
 10
-7.91
 20
-3.0
 10
-7.82
 20
-3.0
 10
-7.73
 20
-3.0
 10
-7.64
 20
-3.0
 10
-7.55
 20
-3.0
 10
-7.46
 20
-3.0
 10
-7.37
 20
-3.0
 10
-7.28
 20
-3.0
 10
-7.1899999999999995
 20
-3.0
 10
-7.1
 20
-3.0
 10
-7.01
 20
-3.0
 10
-6.92
 20
-3.0
 10
-6.83
 20
-3.0
 10
-6.74
 20
-3.0
 10
-6.65
 20
-3.0
 10
-6.5600000000000005
 20
-3.0
 10
-6.47
 20
-3.0
 10
-6.38
 20
-3.0
 10
-6.29
 20
-3.0
 10
-6.2
 20
-3.0
 10
-6.11
 20
-3.0
 10
-6.02
 20
-3.0
 10
-5.93
 20
-3.0
 10
-5.84
 20
-3.0
 10
-5.75
 20
-3.0
 10
-5.66
 20
-3.0
 10
-5.57
 20
-3.0
 10
-5.48
 20
-3.0
 10
-5.390000000000001
 20
-3.0
 10
-5.3
 20
-3.0
 10
-5.21
 20
-3.0
 10
-5.12
 20
-3.0
 10
-5.029999999999999
 20
-3.0
 10
-4.9399999999999995
 20
-3.0
 10
-4.85
 20
-3.0
 10
-4.76
 20
-3.0
 10
-4.67
 20
-3.0
 10
-4.58
 20
-3.0
 10
-4.49
 20
-3.0
 10
-4.4
 20
-3.0
 10
-4.3100000000000005
 20
-3.0
 10
-4.220000000000001
 20
-3.0
 10
-4.13
 20
-3.0
 10
-4.04
 20
-3.0
 10
-3.95
 20
-3.0
 10
-3.8600000000000003
 20
-3.0
 10
-3.7699999999999996
 20
-3.0
 10
-3.6799999999999997
 20
-3.0
 10
-3.59
 20
-3.0
 10
-3.5
 20
-3.0
  0
LWPOLYLINE
  5
30
330
17
100
AcDbEntity
  8
0
100
AcDbPolyline
 90
51
 70
0
 10
-8.0
 20
3.0
 10
-7.91
 20
3.0
 10
-7.82
 20
3.0
 10
-7.73
 20
3.0
 10
-7.64
 20
3.0
 10
-7.55
 20
3.0
 10
-7.46
 20
3.0
 10
-7.37
 20
3.0
 10
-7.28
 20
3.0
 10
-7.1899999999999995
 20
3.0
 10
-7.1
 20
3.0
 10
-7.01
 20
3.0
 10
-6.92
 20
3.0
 10
-6.83
 20
3.0
 10
-6.74
 20
3.0
 10
-6.65
 20
3.0
 10
-6.5600000000000005
 20
3.0
 10
-6.47
 20
3.0
 10
-6.38
 20
3.0
 10
-6.29
 20
3.0
 10
-6.2
 20
3.0
 10
-6.11
 20
3.0
 10
-6.02
 20
3.0
 10
-5.93
 20
3.0
 10
-5.84
 20
3.0
 10
-5.75
 20
3.0
 10
-5.66
 20
3.0
 10
-5.57
 20
3.0
 10
-5.48
 20
3.0
 10
-5.390000000000001
 20
3.0
 10
-5.3
 20
3.0
 10
-5.21
 20
3.0
 10
-5.12
 20
3.0
 10
-5.029999999999999
 20
3.0
 10
-4.9399999999999995
 20
3.0
 10
-4.85
 20
3.0
 10
-4.76
 20
3.0
 10
-4.67
 20
3.0
 10
-4.58
 20
3.0
 10
-4.49
 20
3.0
 10
-4.4
 20
3.0
 10
-4.3100000000000005
 20
3.0
 10
-4.220000000000001
 20
3.0
 10
-4.13
 20
3.0
 10
-4.04
 20
3.0
 10
-3.95
 20
3.0
 10
-3.8600000000000003
 20
3.0
 10
-3.7699999999999996
 20
3.0
 10
-3.6799999999999997
 20
3.0
 10
-3.59
 20
3.0
 10
-3.5
 20
3.0
  0
LWPOLYLINE
  5
31
330
17
100
AcDbEntity
  8
0
100
AcDbPolyline
 90
51
 70
0
 10
3.5
 20
-3.0
 10
3.59
 20
-3.0
 10
3.6799999999999997
 20
-3.0
 10
3.7699999999999996
 20
-3.0
 10
3.8599999999999994
 20
-3.0
 10
3.9499999999999993
 20
-3.0
 10
4.039999999999999
 20
-3.0
 10
4.130000000000001
 20
-3.0
 10
4.220000000000001
 20
-3.0
 10
4.3100000000000005
 20
-3.0
 10
4.4
 20
-3.0
 10
4.49
 20
-3.0
 10
4.58
 20
-3.0
 10
4.67
 20
-3.0
 10
4.76
 20
-3.0
 10
4.85
 20
-3.0
 10
4.9399999999999995
 20
-3.0
 10
5.029999999999999
 20
-3.0
 10
5.120000000000001
 20
-3.0
 10
5.210000000000001
 20
-3.0
 10
5.300000000000001
 20
-3.0
 10
5.390000000000001
 20
-3.0
 10
5.48
 20
-3.0
 10
5.57
 20
-3.0
 10
5.66
 20
-3.0
 10
5.75
 20
-3.0
 10
5.84
 20
-3.0
 10
5.93
 20
-3.0
 10
6.02
 20
-3.0
 10
6.109999999999999
 20
-3.0
 10
6.199999999999999
 20
-3.0
 10
6.289999999999999
 20
-3.0
 10
6.379999999999999
 20
-3.0
 10
6.470000000000001
 20
-3.0
 10
6.5600000000000005
 20
-3.0
 10
6.65
 20
-3.0
 10
6.74
 20
-3.0
 10
6.83
 20
-3.0
 10
6.92
 20
-3.0
 10
7.01
 20
-3.0
 10
7.1
 20
-3.0
 10
7.1899999999999995
 20
-3.0
 10
7.279999999999999
 20
-3.0
 10
7.370000000000001
 20
-3.0
 10
7.460000000000001
 20
-3.0
 10
7.550000000000001
 20
-3.0
 10
7.640000000000001
 20
-3.0
 10
7.73
 20
-3.0
 10
7.82
 20
-3.0
 10
7.91
 20
-3.0
 10
8.0
 20
-3.0
  0
LWPOLYLINE
  5
32
330
17
100
AcDbEntity
  8
0
100
AcDbPolyline
 90
51
 70
0
 10
3.5
 20
3.0
 10
3.59
 20
3.0
 10
3.6799999999999997
 20
3.0
 10
3.7699999999999996
 20
3.0
 10
3.8599999999999994
 20
3.0
 10
3.9499999999999993
 20
3.0
 10
4.039999999999999
 20
3.0
 10
4.130000000000001
 20
3.0
 10
4.220000000000001
 20
3.0
 10
4.3100000000000005
 20
3.0
 10
4.4
 20
3.0
 10
4.49
 20
3.0
 10
4.58
 20
3.0
 10
4.67
 20
3.0
 10
4.76
 20
3.0
 10
4.85
 20
3.0
 10
4.9399999999999995
 20
3.0
 10
5.029999999999999
 20
3.0
 10
5.120000000000001
 20
3.0
 10
5.210000000000001
 20
3.0
 10
5.300000000000001
 20
3.0
 10
5.390000000000001
 20
3.0
 10
5.48
 20
3.0
 10
5.57
 20
3.0
 10
5.66
 20
3.0
 10
5.75
 20
3.0
 10
5.84
 20
3.0
 10
5.93
 20
3.0
 10
6.02
 20
3.0
 10
6.109999999999999
 20
3.0
 10
6.199999999999999
 20
3.0
 10
6.289999999999999
 20
3.0
 10
6.379999999999999
 20
3.0
 10
6.470000000000001
 20
3.0
 10
6.5600000000000005
 20
3.0
 10
6.65
 20
3.0
 10
6.74
 20
3.0
 10
6.83
 20
3.0
 10
6.92
 20
3.0
 10
7.01
 20
3.0
 10
7.1
 20
3.0
 10
7.1899999999999995
 20
3.0
 10
7.279999999999999
 20
3.0
 10
7.370000000000001
 20
3.0
 10
7.460000000000001
 20
3.0
 10
7.550000000000001
 20
3.0
 10
7.640000000000001
 20
3.0
 10
7.73
 20
3.0
 10
7.82
 20
3.0
 10
7.91
 20
3.0
 10
8.0
 20
3.0
  0
LWPOLYLINE
  5
33
330
17
100
AcDbEntity
  8
0
100
AcDbPolyline
 90
51
 70
0
 10
-8.0
 20
8.0
 10
-7.91
 20
8.0
 10
-7.82
 20
8.0
 10
-7.73
 20
8.0
 10
-7.64
 20
8.0
 10
-7.55
 20
8.0
 10
-7.46
 20
8.0
 10
-7.37
 20
8.0
 10
-7.28
 20
8.0
 10
-7.1899999999999995
 20
8.0
 10
-7.1
 20
8.0
 10
-7.01
 20
8.0
 10
-6.92
 20
8.0
 10
-6.83
 20
8.0
 10
-6.74
 20
8.0
 10
-6.65
 20
8.0
 10
-6.5600000000000005
 20
8.0
 10
-6.47
 20
8.0
 10
-6.38
 20
8.0
 10
-6.29
 20
8.0
 10
-6.2
 20
8.0
 10
-6.11
 20
8.0
 10
-6.02
 20
8.0
 10
-5.93
 20
8.0
 10
-5.84
 20
8.0
 10
-5.75
 20
8.0
 10
-5.66
 20
8.0
 10
-5.57
 20
8.0
 10
-5.48
 20
8.0
 10
-5.390000000000001
 20
8.0
 10
-5.3
 20
8.0
 10
-5.21
 20
8.0
 10
-5.12
 20
8.0
 10
-5.029999999999999
 20
8.0
 10
-4.9399999999999995
 20
8.0
 10
-4.85
 20
8.0
 10
-4.76
 20
8.0
 10
-4.67
 20
8.0
 10
-4.58
 20
8.0
 10
-4.49
 20
8.0
 10
-4.4
 20
8.0
 10
-4.3100000000000005
 20
8.0
 10
-4.220000000000001
 20
8.0
 10
-4.13
 20
8.0
 10
-4.04
 20
8.0
 10
-3.95
 20
8.0
 10
-3.8600000000000003
 20
8.0
 10
-3.7699999999999996
 20
8.0
 10
-3.6799999999999997
 20
8.0
 10
-3.59
 20
8.0
 10
-3.5
 20
8.0
  0
LWPOLYLINE
  5
34
330
17
100
AcDbEntity
  8
0
100
AcDbPolyline
 90
51
 70
0
 10
3.5
 20
8.0
 10
3.59
 20
8.0
 10
3.6799999999999997
 20
8.0
 10
3.7699999999999996
 20
8.0
 10
3.8600000000000003
 20
8.0
 10
3.95
 20
8.0
 10
4.04
 20
8.0
 10
4.13
 20
8.0
 10
4.22
 20
8.0
 10
4.3100000000000005
 20
8.0
 10
4.4
 20
8.0
 10
4.49
 20
8.0
 10
4.58
 20
8.0
 10
4.67
 20
8.0
 10
4.76
 20
8.0
 10
4.85
 20
8.0
 10
4.9399999999999995
 20
8.0
 10
5.029999999999999
 20
8.0
 10
5.120000000000001
 20
8.0
 10
5.210000000000001
 20
8.0
 10
5.300000000000001
 20
8.0
 10
5.390000000000001
 20
8.0
 10
5.48
 20
8.0
 10
5.57
 20
8.0
 10
5.66
 20
8.0
 10
5.75
 20
8.0
 10
5.84
 20
8.0
 10
5.93
 20
8.0
 10
6.02
 20
8.0
 10
6.109999999999999
 20
8.0
 10
6.199999999999999
 20
8.0
 10
6.289999999999999
 20
8.0
 10
6.379999999999999
 20
8.0
 10
6.470000000000001
 20
8.0
 10
6.5600000000000005
 20
8.0
 10
6.65
 20
8.0
 10
6.74
 20
8.0
 10
6.83
 20
8.0
 10
6.92
 20
8.0
 10
7.01
 20
8.0
 10
7.1
 20
8.0
 10
7.1899999999999995
 20
8.0
 10
7.279999999999999
 20
8.0
 10
7.370000000000001
 20
8.0
 10
7.460000000000001
 20
8.0
 10
7.550000000000001
 20
8.0
 10
7.640000000000001
 20
8.0
 10
7.73
 20
8.0
 10
7.82
 20
8.0
 10
7.91
 20
8.0
 10
8.0
 20
8.0
  0
LWPOLYLINE
  5
35
330
17
100
AcDbEntity
  8
0
100
AcDbPolyline
 90
51
 70
0
 10
-8.0
 20
14.0
 10
-7.68
 20
14.0
 10
-7.359999999999999
 20
14.0
 10
-7.04
 20
14.0
 10
-6.72
 20
14.0
 10
-6.4
 20
14.0
 10
-6.08
 20
14.0
 10
-5.76
 20
14.0
 10
-5.4399999999999995
 20
14.0
 10
-5.12
 20
14.0
 10
-4.8
 20
14.0
 10
-4.48
 20
14.0
 10
-4.16
 20
14.0
 10
-3.84
 20
14.0
 10
-3.5199999999999996
 20
14.0
 10
-3.2
 20
14.0
 10
-2.88
 20
14.0
 10
-2.5599999999999996
 20
14.0
 10
-2.24
 20
14.0
 10
-1.92
 20
14.0
 10
-1.5999999999999996
 20
14.0
 10
-1.2800000000000002
 20
14.0
 10
-0.96
 20
14.0
 10
-0.6399999999999997
 20
14.0
 10
-0.3200000000000003
 20
14.0
 10
0.0
 20
14.0
 10
0.3200000000000003
 20
14.0
 10
0.6400000000000006
 20
14.0
 10
0.9600000000000009
 20
14.0
 10
1.2799999999999994
 20
14.0
 10
1.5999999999999996
 20
14.0
 10
1.92
 20
14.0
 10
2.24
 20
14.0
 10
2.5600000000000005
 20
14.0
 10
2.880000000000001
 20
14.0
 10
3.1999999999999993
 20
14.0
 10
3.5199999999999996
 20
14.0
 10
3.84
 20
14.0
 10
4.16
 20
14.0
 10
4.48
 20
14.0
 10
4.800000000000001
 20
14.0
 10
5.119999999999999
 20
14.0
 10
5.4399999999999995
 20
14.0
 10
5.76
 20
14.0
 10
6.08
 20
14.0
 10
6.4
 20
14.0
 10
6.720000000000001
 20
14.0
 10
7.039999999999999
 20
14.0
 10
7.359999999999999
 20
14.0
 10
7.68
 20
14.0
 10
8.0
 20
14.0
  0
LWPOLYLINE
  5
36
330
17
100
AcDbEntity
  8
0
100
AcDbPolyline
 90
51
 70
0
 10
-3.5
 20
-25.5
 10
-3.36
 20
-25.5
 10
-3.2199999999999998
 20
-25.5
 10
-3.08
 20
-25.5
 10
-2.94
 20
-25.5
 10
-2.8
 20
-25.5
 10
-2.66
 20
-25.5
 10
-2.52
 20
-25.5
 10
-2.38
 20
-25.5
 10
-2.24
 20
-25.5
 10
-2.1
 20
-25.5
 10
-1.96
 20
-25.5
 10
-1.82
 20
-25.5
 10
-1.68
 20
-25.5
 10
-1.54
 20
-25.5
 10
-1.4
 20
-25.5
 10
-1.2599999999999998
 20
-25.5
 10
-1.12
 20
-25.5
 10
-0.98
 20
-25.5
 10
-0.8399999999999999
 20
-25.5
 10
-0.7000000000000002
 20
-25.5
 10
-0.56
 20
-25.5
 10
-0.41999999999999993
 20
-25.5
 10
-0.2799999999999998
 20
-25.5
 10
-0.14000000000000012
 20
-25.5
 10
0.0
 20
-25.5
 10
0.14000000000000012
 20
-25.5
 10
0.2799999999999998
 20
-25.5
 10
0.41999999999999993
 20
-25.5
 10
0.5599999999999996
 20
-25.5
 10
0.7000000000000002
 20
-25.5
 10
0.8399999999999999
 20
-25.5
 10
0.9800000000000004
 20
-25.5
 10
1.12
 20
-25.5
 10
1.2599999999999998
 20
-25.5
 10
1.4000000000000004
 20
-25.5
 10
1.54
 20
-25.5
 10
1.6799999999999997
 20
-25.5
 10
1.8200000000000003
 20
-25.5
 10
1.96
 20
-25.5
 10
2.0999999999999996
 20
-25.5
 10
2.24
 20
-25.5
 10
2.38
 20
-25.5
 10
2.5199999999999996
 20
-25.5
 10
2.66
 20
-25.5
 10
2.8
 20
-25.5
 10
2.9400000000000004
 20
-25.5
 10
3.08
 20
-25.5
 10
3.2199999999999998
 20
-25.5
 10
3.3600000000000003
 20
-25.5
 10
3.5
 20
-25.5
  0
LWPOLYLINE
  5
37
330
17
100
AcDbEntity
  8
0
100
AcDbPolyline
 90
51
 70
0
 10
-3.5
 20
-22.55681818181816
 10
-3.5
 20
-22.653375863722076
 10
-3.5
 20
-22.749933545625996
 10
-3.5
 20
-22.846491227529913
 10
-3.5
 20
-22.94195072803521
 10
-3.5
 20
-23.035945986675678
 10
-3.5
 20
-23.129941245316143
 10
-3.5
 20
-23.223936503956608
 10
-3.5
 20
-23.31491767758278
 10
-3.5
 20
-23.405396503706573
 10
-3.5
 20
-23.495875329830366
 10
-3.5
 20
-23.585087084075763
 10
-3.5
 20
-23.671131158625183
 10
-3.5
 20
-23.757175233174603
 10
-3.5
 20
-23.843219307724024
 10
-3.5
 20
-23.925471910905927
 10
-3.5
 20
-24.006207925540828
 10
-3.5
 20
-24.086943940175725
 10
-3.5
 20
-24.166804598545845
 10
-3.5
 20
-24.24141311932728
 10
-3.5
 20
-24.316021640108715
 10
-3.5
 20
-24.390630160890147
 10
-3.5
 20
-24.461304546523984
 10
-3.5
 20
-24.529028330797118
 10
-3.5
 20
-24.596752115070256
 10
-3.5
 20
-24.66447589934339
 10
-3.5
 20
-24.72462758140708
 10
-3.5
 20
-24.784779263470774
 10
-3.5
 20
-24.844930945534465
 10
-3.5
 20
-24.901575792809563
 10
-3.5
 20
-24.953544860366538
 10
-3.5
 20
-25.00551392792351
 10
-3.5
 20
-25.05748299548048
 10
-3.5
 20
-25.101986282771332
 10
-3.5
 20
-25.14524527335116
 10
-3.5
 20
-25.188504263930987
 10
-3.5
 20
-25.229149215620584
 10
-3.5
 20
-25.263259070084594
 10
-3.5
 20
-25.297368924548604
 10
-3.5
 20
-25.331478779012613
 10
-3.5
 20
-25.35880625085407
 10
-3.5
 20
-25.383420769646502
 10
-3.5
 20
-25.408035288438935
 10
-3.5
 20
-25.431257641249097
 10
-3.5
 20
-25.446126998165617
 10
-3.5
 20
-25.46099635508214
 10
-3.5
 20
-25.47586571199866
 10
-3.5
 20
-25.485080166568824
 10
-3.5
 20
-25.490053444379217
 10
-3.5
 20
-25.495026722189607
 10
-3.5
 20
-25.5
  0
LWPOLYLINE
  5
38
330
17
100
AcDbEntity
  8
0
100
AcDbPolyline
 90
51
 70
0
 10
-3.5
 20
-1.113636363636
 10
-3.5
 20
-1.542499999999679
 10
-3.5
 20
-1.9713636363633578
 10
-3.5
 20
-2.4002272727270366
 10
-3.5
 20
-2.8290909090907155
 10
-3.5
 20
-3.2579545454543943
 10
-3.5
 20
-3.686818181818073
 10
-3.5
 20
-4.115681818181752
 10
-3.5
 20
-4.544545454545432
 10
-3.5
 20
-4.97340909090911
 10
-3.5
 20
-5.402272727272789
 10
-3.5
 20
-5.8311363636364675
 10
-3.5
 20
-6.260000000000146
 10
-3.5
 20
-6.688863636363825
 10
-3.5
 20
-7.117727272727505
 10
-3.5
 20
-7.546590909091184
 10
-3.5
 20
-7.975454545454863
 10
-3.5
 20
-8.40431818181854
 10
-3.5
 20
-8.83318181818222
 10
-3.5
 20
-9.262045454545898
 10
-3.5
 20
-9.690909090909578
 10
-3.5
 20
-10.119772727273258
 10
-3.5
 20
-10.548636363636934
 10
-3.5
 20
-10.977500000000614
 10
-3.5
 20
-11.406363636364294
 10
-3.5
 20
-11.835227272727973
 10
-3.5
 20
-12.26409090909165
 10
-3.5
 20
-12.69295454545533
 10
-3.5
 20
-13.121818181819009
 10
-3.5
 20
-13.550681818182689
 10
-3.5
 20
-13.979545454546368
 10
-3.5
 20
-14.408409090910045
 10
-3.5
 20
-14.837272727273724
 10
-3.5
 20
-15.266136363637404
 10
-3.5
 20
-15.69500000000108
 10
-3.5
 20
-16.123863636364764
 10
-3.5
 20
-16.55272727272844
 10
-3.5
 20
-16.98159090909212
 10
-3.5
 20
-17.4104545454558
 10
-3.5
 20
-17.83931818181948
 10
-3.5
 20
-18.268181818183155
 10
-3.5
 20
-18.697045454546835
 10
-3.5
 20
-19.125909090910515
 10
-3.5
 20
-19.554772727274194
 10
-3.5
 20
-19.98363636363787
 10
-3.5
 20
-20.41250000000155
 10
-3.5
 20
-20.84136363636523
 10
-3.5
 20
-21.27022727272891
 10
-3.5
 20
-21.699090909092586
 10
-3.5
 20
-22.12795454545627
 10
-3.5
 20
-22.556818181819946
  0
LWPOLYLINE
  5
39
330
17
100
AcDbEntity
  8
0
100
AcDbPolyline
 90
51
 70
0
 10
-3.5
 20
2.545454545454765
 10
-3.5
 20
2.4755837028935748
 10
-3.5
 20
2.4057128603323847
 10
-3.5
 20
2.3358420177711947
 10
-3.5
 20
2.2655734790396305
 10
-3.5
 20
2.194774678747567
 10
-3.5
 20
2.123975878455503
 10
-3.5
 20
2.05317707816344
 10
-3.5
 20
1.981670483353164
 10
-3.5
 20
1.9100459227898532
 10
-3.5
 20
1.8384213622265422
 10
-3.5
 20
1.7665904099964405
 10
-3.5
 20
1.694243478599362
 10
-3.5
 20
1.621896547202284
 10
-3.5
 20
1.5495496158052058
 10
-3.5
 20
1.4767612996508428
 10
-3.5
 20
1.4037964295935659
 10
-3.5
 20
1.3308315595362892
 10
-3.5
 20
1.2577934588365145
 10
-3.5
 20
1.184315974281752
 10
-3.5
 20
1.1108384897269894
 10
-3.5
 20
1.0373610051722266
 10
-3.5
 20
0.96365120611452
 10
-3.5
 20
0.8897671711796056
 10
-3.5
 20
0.8158831362446907
 10
-3.5
 20
0.7419991013097762
 10
-3.5
 20
0.667815166964022
 10
-3.5
 20
0.5936312326182678
 10
-3.5
 20
0.5194472982725131
 10
-3.5
 20
0.4451807286956277
 10
-3.5
 20
0.3708039788105681
 10
-3.5
 20
0.29642722892550855
 10
-3.5
 20
0.22205047904044856
 10
-3.5
 20
0.14760048343521887
 10
-3.5
 20
0.07313828020996124
 10
-3.5
 20
-0.0013239230152963521
 10
-3.5
 20
-0.07577983132339068
 10
-3.5
 20
-0.15022000233857719
 10
-3.5
 20
-0.22466017335376331
 10
-3.5
 20
-0.29910034436894944
 10
-3.5
 20
-0.3734480254148247
 10
-3.5
 20
-0.44775871047297544
 10
-3.5
 20
-0.5220693955311259
 10
-3.5
 20
-0.5963462587618287
 10
-3.5
 20
-0.6704201910278463
 10
-3.5
 20
-0.7444941232938637
 10
-3.5
 20
-0.818568055559881
 10
-3.5
 20
-0.8924456004678349
 10
-3.5
 20
-0.966175854857242
 10
-3.5
 20
-1.0399061092466484
 10
-3.5
 20
-1.1136363636360547
  0
LWPOLYLINE
  5
3A
330
17
100
AcDbEntity
  8
0
100
AcDbPolyline
 90
51
 70
0
 10
-3.5
 20
12.09090909091
 10
-3.5
 20
11.900000000000906
 10
-3.5
 20
11.709090909091813
 10
-3.5
 20
11.518181818182718
 10
-3.5
 20
11.327272727273625
 10
-3.5
 20
11.136363636364532
 10
-3.5
 20
10.945454545455437
 10
-3.5
 20
10.754545454546344
 10
-3.5
 20
10.56363636363725
 10
-3.5
 20
10.372727272728158
 10
-3.5
 20
10.181818181819065
 10
-3.5
 20
9.99090909090997
 10
-3.5
 20
9.800000000000876
 10
-3.5
 20
9.609090909091783
 10
-3.5
 20
9.418181818182688
 10
-3.5
 20
9.227272727273595
 10
-3.5
 20
9.036363636364502
 10
-3.5
 20
8.845454545455409
 10
-3.5
 20
8.654545454546316
 10
-3.5
 20
8.463636363637221
 10
-3.5
 20
8.272727272728128
 10
-3.5
 20
8.081818181819035
 10
-3.5
 20
7.890909090909941
 10
-3.5
 20
7.7000000000008475
 10
-3.5
 20
7.5090909090917535
 10
-3.5
 20
7.31818181818266
 10
-3.5
 20
7.127272727273567
 10
-3.5
 20
6.936363636364473
 10
-3.5
 20
6.745454545455379
 10
-3.5
 20
6.554545454546286
 10
-3.5
 20
6.363636363637192
 10
-3.5
 20
6.172727272728099
 10
-3.5
 20
5.981818181819006
 10
-3.5
 20
5.790909090909912
 10
-3.5
 20
5.6000000000008185
 10
-3.5
 20
5.4090909090917245
 10
-3.5
 20
5.218181818182631
 10
-3.5
 20
5.027272727273538
 10
-3.5
 20
4.836363636364444
 10
-3.5
 20
4.645454545455351
 10
-3.5
 20
4.454545454546257
 10
-3.5
 20
4.263636363637163
 10
-3.5
 20
4.07272727272807
 10
-3.5
 20
3.881818181818975
 10
-3.5
 20
3.690909090909882
 10
-3.5
 20
3.5000000000007887
 10
-3.5
 20
3.3090909090916956
 10
-3.5
 20
3.1181818181826024
 10
-3.5
 20
2.9272727272735075
 10
-3.5
 20
2.7363636363644144
 10
-3.5
 20
2.5454545454553212
  0
LWPOLYLINE
  5
3B
330
17
100
AcDbEntity
  8
0
100
AcDbPolyline
 90
51
 70
0
 10
-8.0
 20
3.0
 10
-8.0
 20
2.978939446232732
 10
-8.0
 20
2.9578788924654638
 10
-8.0
 20
2.936818338698196
 10
-8.0
 20
2.8981584806048852
 10
-8.0
 20
2.836032883410186
 10
-8.0
 20
2.7739072862154863
 10
-8.0
 20
2.7117816890207864
 10
-8.0
 20
2.617127686194498
 10
-8.0
 20
2.51705228242961
 10
-8.0
 20
2.416976878664723
 10
-8.0
 20
2.3074924440578592
 10
-8.0
 20
2.1744854323460494
 10
-8.0
 20
2.0414784206342413
 10
-8.0
 20
1.9084714089224313
 10
-8.0
 20
1.756705767931496
 10
-8.0
 20
1.5974366752289095
 10
-8.0
 20
1.438167582526321
 10
-8.0
 20
1.2762876807333263
 10
-8.0
 20
1.0987429243978801
 10
-8.0
 20
0.9211981680624364
 10
-8.0
 20
0.7436534117269926
 10
-8.0
 20
0.5607527535699125
 10
-8.0
 20
0.37383516904660946
 10
-8.0
 20
0.18691758452330376
 10
-8.0
 20
7.347880794884119e-16
 10
-8.0
 20
-0.18691758452330237
 10
-8.0
 20
-0.37383516904660813
 10
-8.0
 20
-0.560752753569911
 10
-8.0
 20
-0.7436534117269912
 10
-8.0
 20
-0.921198168062435
 10
-8.0
 20
-1.0987429243978788
 10
-8.0
 20
-1.276287680733325
 10
-8.0
 20
-1.4381675825263218
 10
-8.0
 20
-1.5974366752289084
 10
-8.0
 20
-1.756705767931495
 10
-8.0
 20
-1.9084714089224304
 10
-8.0
 20
-2.0414784206342405
 10
-8.0
 20
-2.1744854323460485
 10
-8.0
 20
-2.3074924440578584
 10
-8.0
 20
-2.4169768786647223
 10
-8.0
 20
-2.517052282429609
 10
-8.0
 20
-2.617127686194497
 10
-8.0
 20
-2.7117816890207855
 10
-8.0
 20
-2.773907286215486
 10
-8.0
 20
-2.8360328834101853
 10
-8.0
 20
-2.8981584806048843
 10
-8.0
 20
-2.9368183386981954
 10
-8.0
 20
-2.9578788924654633
 10
-8.0
 20
-2.978939446232732
 10
-8.0
 20
-3.0
  0
LWPOLYLINE
  5
3C
330
17
100
AcDbEntity
  8
0
100
AcDbPolyline
 90
51
 70
0
 10
8.0
 20
3.0
 10
8.0
 20
2.978939446232732
 10
8.0
 20
2.9578788924654638
 10
8.0
 20
2.936818338698196
 10
8.0
 20
2.8981584806048852
 10
8.0
 20
2.836032883410186
 10
8.0
 20
2.7739072862154863
 10
8.0
 20
2.7117816890207864
 10
8.0
 20
2.617127686194498
 10
8.0
 20
2.51705228242961
 10
8.0
 20
2.416976878664723
 10
8.0
 20
2.3074924440578592
 10
8.0
 20
2.1744854323460494
 10
8.0
 20
2.0414784206342413
 10
8.0
 20
1.9084714089224313
 10
8.0
 20
1.756705767931496
 10
8.0
 20
1.5974366752289095
 10
8.0
 20
1.438167582526321
 10
8.0
 20
1.2762876807333263
 10
8.0
 20
1.0987429243978801
 10
8.0
 20
0.9211981680624364
 10
8.0
 20
0.7436534117269926
 10
8.0
 20
0.5607527535699125
 10
8.0
 20
0.37383516904660946
 10
8.0
 20
0.18691758452330376
 10
8.0
 20
7.347880794884119e-16
 10
8.0
 20
-0.18691758452330237
 10
8.0
 20
-0.37383516904660813
 10
8.0
 20
-0.560752753569911
 10
8.0
 20
-0.7436534117269912
 10
8.0
 20
-0.921198168062435
 10
8.0
 20
-1.0987429243978788
 10
8.0
 20
-1.276287680733325
 10
8.0
 20
-1.4381675825263218
 10
8.0
 20
-1.5974366752289084
 10
8.0
 20
-1.756705767931495
 10
8.0
 20
-1.9084714089224304
 10
8.0
 20
-2.0414784206342405
 10
8.0
 20
-2.1744854323460485
 10
8.0
 20
-2.3074924440578584
 10
8.0
 20
-2.4169768786647223
 10
8.0
 20
-2.517052282429609
 10
8.0
 20
-2.617127686194497
 10
8.0
 20
-2.7117816890207855
 10
8.0
 20
-2.773907286215486
 10
8.0
 20
-2.8360328834101853
 10
8.0
 20
-2.8981584806048843
 10
8.0
 20
-2.9368183386981954
 10
8.0
 20
-2.9578788924654633
 10
8.0
 20
-2.978939446232732
 10
8.0
 20
-3.0
  0
LWPOLYLINE
  5
3D
330
17
100
AcDbEntity
  8
0
100
AcDbPolyline
 90
51
 70
0
 10
-8.0
 20
14.0
 10
-8.0
 20
13.978939446232733
 10
-8.0
 20
13.957878892465464
 10
-8.0
 20
13.936818338698195
 10
-8.0
 20
13.898158480604886
 10
-8.0
 20
13.836032883410187
 10
-8.0
 20
13.773907286215488
 10
-8.0
 20
13.711781689020787
 10
-8.0
 20
13.617127686194499
 10
-8.0
 20
13.51705228242961
 10
-8.0
 20
13.416976878664723
 10
-8.0
 20
13.307492444057859
 10
-8.0
 20
13.17448543234605
 10
-8.0
 20
13.041478420634242
 10
-8.0
 20
12.908471408922432
 10
-8.0
 20
12.756705767931496
 10
-8.0
 20
12.59743667522891
 10
-8.0
 20
12.43816758252632
 10
-8.0
 20
12.276287680733326
 10
-8.0
 20
12.098742924397879
 10
-8.0
 20
11.921198168062435
 10
-8.0
 20
11.743653411726992
 10
-8.0
 20
11.560752753569911
 10
-8.0
 20
11.37383516904661
 10
-8.0
 20
11.186917584523304
 10
-8.0
 20
11.0
 10
-8.0
 20
10.813082415476696
 10
-8.0
 20
10.62616483095339
 10
-8.0
 20
10.439247246430089
 10
-8.0
 20
10.256346588273008
 10
-8.0
 20
10.078801831937565
 10
-8.0
 20
9.901257075602121
 10
-8.0
 20
9.723712319266674
 10
-8.0
 20
9.561832417473678
 10
-8.0
 20
9.40256332477109
 10
-8.0
 20
9.243294232068505
 10
-8.0
 20
9.09152859107757
 10
-8.0
 20
8.95852157936576
 10
-8.0
 20
8.82551456765395
 10
-8.0
 20
8.692507555942141
 10
-8.0
 20
8.583023121335277
 10
-8.0
 20
8.48294771757039
 10
-8.0
 20
8.382872313805503
 10
-8.0
 20
8.288218310979214
 10
-8.0
 20
8.226092713784514
 10
-8.0
 20
8.163967116589815
 10
-8.0
 20
8.101841519395114
 10
-8.0
 20
8.063181661301805
 10
-8.0
 20
8.042121107534536
 10
-8.0
 20
8.021060553767267
 10
-8.0
 20
8.0
  0
LWPOLYLINE
  5
3E
330
17
100
AcDbEntity
  8
0
100
AcDbPolyline
 90
51
 70
0
 10
8.0
 20
14.0
 10
8.0
 20
13.978939446232733
 10
8.0
 20
13.957878892465464
 10
8.0
 20
13.936818338698195
 10
8.0
 20
13.898158480604886
 10
8.0
 20
13.836032883410187
 10
8.0
 20
13.773907286215488
 10
8.0
 20
13.711781689020787
 10
8.0
 20
13.617127686194499
 10
8.0
 20
13.51705228242961
 10
8.0
 20
13.416976878664723
 10
8.0
 20
13.307492444057859
 10
8.0
 20
13.17448543234605
 10
8.0
 20
13.041478420634242
 10
8.0
 20
12.908471408922432
 10
8.0
 20
12.756705767931496
 10
8.0
 20
12.59743667522891
 10
8.0
 20
12.43816758252632
 10
8.0
 20
12.276287680733326
 10
8.0
 20
12.098742924397879
 10
8.0
 20
11.921198168062435
 10
8.0
 20
11.743653411726992
 10
8.0
 20
11.560752753569911
 10
8.0
 20
11.37383516904661
 10
8.0
 20
11.186917584523304
 10
8.0
 20
11.0
 10
8.0
 20
10.813082415476696
 10
8.0
 20
10.62616483095339
 10
8.0
 20
10.439247246430089
 10
8.0
 20
10.256346588273008
 10
8.0
 20
10.078801831937565
 10
8.0
 20
9.901257075602121
 10
8.0
 20
9.723712319266674
 10
8.0
 20
9.561832417473678
 10
8.0
 20
9.40256332477109
 10
8.0
 20
9.243294232068505
 10
8.0
 20
9.09152859107757
 10
8.0
 20
8.95852157936576
 10
8.0
 20
8.82551456765395
 10
8.0
 20
8.692507555942141
 10
8.0
 20
8.583023121335277
 10
8.0
 20
8.48294771757039
 10
8.0
 20
8.382872313805503
 10
8.0
 20
8.288218310979214
 10
8.0
 20
8.226092713784514
 10
8.0
 20
8.163967116589815
 10
8.0
 20
8.101841519395114
 10
8.0
 20
8.063181661301805
 10
8.0
 20
8.042121107534536
 10
8.0
 20
8.021060553767267
 10
8.0
 20
8.0
  0
LWPOLYLINE
  5
3F
330
17
100
AcDbEntity
  8
0
100
AcDbPolyline
 90
51
 70
0
 10
3.5
 20
12.09090909091
 10
3.5
 20
11.900000000000906
 10
3.5
 20
11.709090909091813
 10
3.5
 20
11.518181818182718
 10
3.5
 20
11.327272727273625
 10
3.5
 20
11.136363636364532
 10
3.5
 20
10.945454545455437
 10
3.5
 20
10.754545454546344
 10
3.5
 20
10.56363636363725
 10
3.5
 20
10.372727272728158
 10
3.5
 20
10.181818181819065
 10
3.5
 20
9.99090909090997
 10
3.5
 20
9.800000000000876
 10
3.5
 20
9.609090909091783
 10
3.5
 20
9.418181818182688
 10
3.5
 20
9.227272727273595
 10
3.5
 20
9.036363636364502
 10
3.5
 20
8.845454545455409
 10
3.5
 20
8.654545454546316
 10
3.5
 20
8.463636363637221
 10
3.5
 20
8.272727272728128
 10
3.5
 20
8.081818181819035
 10
3.5
 20
7.890909090909941
 10
3.5
 20
7.7000000000008475
 10
3.5
 20
7.5090909090917535
 10
3.5
 20
7.31818181818266
 10
3.5
 20
7.127272727273567
 10
3.5
 20
6.936363636364473
 10
3.5
 20
6.745454545455379
 10
3.5
 20
6.554545454546286
 10
3.5
 20
6.363636363637192
 10
3.5
 20
6.172727272728099
 10
3.5
 20
5.981818181819006
 10
3.5
 20
5.790909090909912
 10
3.5
 20
5.6000000000008185
 10
3.5
 20
5.4090909090917245
 10
3.5
 20
5.218181818182631
 10
3.5
 20
5.027272727273538
 10
3.5
 20
4.836363636364444
 10
3.5
 20
4.645454545455351
 10
3.5
 20
4.454545454546257
 10
3.5
 20
4.263636363637163
 10
3.5
 20
4.07272727272807
 10
3.5
 20
3.881818181818975
 10
3.5
 20
3.690909090909882
 10
3.5
 20
3.5000000000007887
 10
3.5
 20
3.3090909090916956
 10
3.5
 20
3.1181818181826024
 10
3.5
 20
2.9272727272735075
 10
3.5
 20
2.7363636363644144
 10
3.5
 20
2.5454545454553212
  0
LWPOLYLINE
  5
40
330
17
100
AcDbEntity
  8
0
100
AcDbPolyline
 90
51
 70
0
 10
3.5
 20
2.545454545454765
 10
3.5
 20
2.4755837028935748
 10
3.5
 20
2.4057128603323847
 10
3.5
 20
2.3358420177711947
 10
3.5
 20
2.2655734790396305
 10
3.5
 20
2.194774678747567
 10
3.5
 20
2.123975878455503
 10
3.5
 20
2.05317707816344
 10
3.5
 20
1.981670483353164
 10
3.5
 20
1.9100459227898532
 10
3.5
 20
1.8384213622265422
 10
3.5
 20
1.7665904099964405
 10
3.5
 20
1.694243478599362
 10
3.5
 20
1.621896547202284
 10
3.5
 20
1.5495496158052058
 10
3.5
 20
1.4767612996508428
 10
3.5
 20
1.4037964295935659
 10
3.5
 20
1.3308315595362892
 10
3.5
 20
1.2577934588365145
 10
3.5
 20
1.184315974281752
 10
3.5
 20
1.1108384897269894
 10
3.5
 20
1.0373610051722266
 10
3.5
 20
0.96365120611452
 10
3.5
 20
0.8897671711796056
 10
3.5
 20
0.8158831362446907
 10
3.5
 20
0.7419991013097762
 10
3.5
 20
0.667815166964022
 10
3.5
 20
0.5936312326182678
 10
3.5
 20
0.5194472982725131
 10
3.5
 20
0.4451807286956277
 10
3.5
 20
0.3708039788105681
 10
3.5
 20
0.29642722892550855
 10
3.5
 20
0.22205047904044856
 10
3.5
 20
0.14760048343521887
 10
3.5
 20
0.07313828020996124
 10
3.5
 20
-0.0013239230152963521
 10
3.5
 20
-0.07577983132339068
 10
3.5
 20
-0.15022000233857719
 10
3.5
 20
-0.22466017335376331
 10
3.5
 20
-0.29910034436894944
 10
3.5
 20
-0.3734480254148247
 10
3.5
 20
-0.44775871047297544
 10
3.5
 20
-0.5220693955311259
 10
3.5
 20
-0.5963462587618287
 10
3.5
 20
-0.6704201910278463
 10
3.5
 20
-0.7444941232938637
 10
3.5
 20
-0.818568055559881
 10
3.5
 20
-0.8924456004678349
 10
3.5
 20
-0.966175854857242
 10
3.5
 20
-1.0399061092466484
 10
3.5
 20
-1.1136363636360547
  0
LWPOLYLINE
  5
41
330
17
100
AcDbEntity
  8
0
100
AcDbPolyline
 90
51
 70
0
 10
3.5
 20
-1.113636363636
 10
3.5
 20
-1.542499999999679
 10
3.5
 20
-1.9713636363633578
 10
3.5
 20
-2.4002272727270366
 10
3.5
 20
-2.8290909090907155
 10
3.5
 20
-3.2579545454543943
 10
3.5
 20
-3.686818181818073
 10
3.5
 20
-4.115681818181752
 10
3.5
 20
-4.544545454545432
 10
3.5
 20
-4.97340909090911
 10
3.5
 20
-5.402272727272789
 10
3.5
 20
-5.8311363636364675
 10
3.5
 20
-6.260000000000146
 10
3.5
 20
-6.688863636363825
 10
3.5
 20
-7.117727272727505
 10
3.5
 20
-7.546590909091184
 10
3.5
 20
-7.975454545454863
 10
3.5
 20
-8.40431818181854
 10
3.5
 20
-8.83318181818222
 10
3.5
 20
-9.262045454545898
 10
3.5
 20
-9.690909090909578
 10
3.5
 20
-10.119772727273258
 10
3.5
 20
-10.548636363636934
 10
3.5
 20
-10.977500000000614
 10
3.5
 20
-11.406363636364294
 10
3.5
 20
-11.835227272727973
 10
3.5
 20
-12.26409090909165
 10
3.5
 20
-12.69295454545533
 10
3.5
 20
-13.121818181819009
 10
3.5
 20
-13.550681818182689
 10
3.5
 20
-13.979545454546368
 10
3.5
 20
-14.408409090910045
 10
3.5
 20
-14.837272727273724
 10
3.5
 20
-15.266136363637404
 10
3.5
 20
-15.69500000000108
 10
3.5
 20
-16.123863636364764
 10
3.5
 20
-16.55272727272844
 10
3.5
 20
-16.98159090909212
 10
3.5
 20
-17.4104545454558
 10
3.5
 20
-17.83931818181948
 10
3.5
 20
-18.268181818183155
 10
3.5
 20
-18.697045454546835
 10
3.5
 20
-19.125909090910515
 10
3.5
 20
-19.554772727274194
 10
3.5
 20
-19.98363636363787
 10
3.5
 20
-20.41250000000155
 10
3.5
 20
-20.84136363636523
 10
3.5
 20
-21.27022727272891
 10
3.5
 20
-21.699090909092586
 10
3.5
 20
-22.12795454545627
 10
3.5
 20
-22.556818181819946
  0
LWPOLYLINE
  5
42
330
17
100
AcDbEntity
  8
0
100
AcDbPolyline
 90
51
 70
0
 10
3.5
 20
-22.55681818181816
 10
3.5
 20
-22.653375863722076
 10
3.5
 20
-22.749933545625996
 10
3.5
 20
-22.846491227529913
 10
3.5
 20
-22.94195072803521
 10
3.5
 20
-23.035945986675678
 10
3.5
 20
-23.129941245316143
 10
3.5
 20
-23.223936503956608
 10
3.5
 20
-23.31491767758278
 10
3.5
 20
-23.405396503706573
 10
3.5
 20
-23.495875329830366
 10
3.5
 20
-23.585087084075763
 10
3.5
 20
-23.671131158625183
 10
3.5
 20
-23.757175233174603
 10
3.5
 20
-23.843219307724024
 10
3.5
 20
-23.925471910905927
 10
3.5
 20
-24.006207925540828
 10
3.5
 20
-24.086943940175725
 10
3.5
 20
-24.166804598545845
 10
3.5
 20
-24.24141311932728
 10
3.5
 20
-24.316021640108715
 10
3.5
 20
-24.390630160890147
 10
3.5
 20
-24.461304546523984
 10
3.5
 20
-24.529028330797118
 10
3.5
 20
-24.596752115070256
 10
3.5
 20
-24.66447589934339
 10
3.5
 20
-24.72462758140708
 10
3.5
 20
-24.784779263470774
 10
3.5
 20
-24.844930945534465
 10
3.5
 20
-24.901575792809563
 10
3.5
 20
-24.953544860366538
 10
3.5
 20
-25.00551392792351
 10
3.5
 20
-25.05748299548048
 10
3.5
 20
-25.101986282771332
 10
3.5
 20
-25.14524527335116
 10
3.5
 20
-25.188504263930987
 10
3.5
 20
-25.229149215620584
 10
3.5
 20
-25.263259070084594
 10
3.5
 20
-25.297368924548604
 10
3.5
 20
-25.331478779012613
 10
3.5
 20
-25.35880625085407
 10
3.5
 20
-25.383420769646502
 10
3.5
 20
-25.408035288438935
 10
3.5
 20
-25.431257641249097
 10
3.5
 20
-25.446126998165617
 10
3.5
 20
-25.46099635508214
 10
3.5
 20
-25.47586571199866
 10
3.5
 20
-25.485080166568824
 10
3.5
 20
-25.490053444379217
 10
3.5
 20
-25.495026722189607
 10
3.5
 20
-25.5
  0
ENDSEC
  0
SECTION
  2
OBJECTS
  0
DICTIONARY
  5
A
330
0
100
AcDbDictionary
280
0
281
1
  3
ACAD_COLOR
350
B
  3
ACAD_GROUP
350
C
  3
ACAD_LAYOUT
350
D
  3
ACAD_MATERIAL
350
E
  3
ACAD_MLEADERSTYLE
350
F
  3
ACAD_MLINESTYLE
350
10
  3
ACAD_PLOTSETTINGS
350
11
  3
ACAD_PLOTSTYLENAME
350
12
  3
ACAD_SCALELIST
350
14
  3
ACAD_TABLESTYLE
350
15
  3
ACAD_VISUALSTYLE
350
16
  3
EZDXF_META
350
2D
  0
DICTIONARY
  5
B
330
A
100
AcDbDictionary
280
0
281
1
  0
DICTIONARY
  5
C
330
A
100
AcDbDictionary
280
0
281
1
  0
DICTIONARY
  5
D
330
A
100
AcDbDictionary
280
0
281
1
  3
Model
350
1A
  3
Layout1
350
1E
  0
DICTIONARY
  5
E
330
A
100
AcDbDictionary
280
0
281
1
  3
ByBlock
350
1F
  3
ByLayer
350
20
  3
Global
350
21
  0
DICTIONARY
  5
F
330
A
100
AcDbDictionary
280
0
281
1
  3
Standard
350
2C
  0
DICTIONARY
  5
10
330
A
100
AcDbDictionary
280
0
281
1
  3
Standard
350
22
  0
DICTIONARY
  5
11
330
A
100
AcDbDictionary
280
0
281
1
  0
ACDBDICTIONARYWDFLT
  5
12
330
A
100
AcDbDictionary
280
0
281
1
  3
Normal
350
13
100
AcDbDictionaryWithDefault
340
13
  0
ACDBPLACEHOLDER
  5
13
330
12
  0
DICTIONARY
  5
14
330
A
100
AcDbDictionary
280
0
281
1
  0
DICTIONARY
  5
15
330
A
100
AcDbDictionary
280
0
281
1
  0
DICTIONARY
  5
16
330
A
100
AcDbDictionary
280
0
281
1
  0
LAYOUT
  5
1A
330
D
100
AcDbPlotSettings
  1

  2
Adobe PDF
  4
A3
  6

 40
7.5
 41
20.0
 42
7.5
 43
20.0
 44
420.0
 45
297.0
 46
0.0
 47
0.0
 48
0.0
 49
0.0
140
0.0
141
0.0
142
1.0
143
1.0
 70
1024
 72
1
 73
0
 74
5
  7

 75
16
 76
0
 77
2
 78
300
147
1.0
148
0.0
149
0.0
100
AcDbLayout
  1
Model
 70
1
 71
0
 10
0.0
 20
0.0
 11
420.0
 21
297.0
 12
0.0
 22
0.0
 32
0.0
 14
1e+20
 24
1e+20
 34
1e+20
 15
-1e+20
 25
-1e+20
 35
-1e+20
146
0.0
 13
0.0
 23
0.0
 33
0.0
 16
1.0
 26
0.0
 36
0.0
 17
0.0
 27
1.0
 37
0.0
 76
1
330
17
  0
LAYOUT
  5
1E
330
D
100
AcDbPlotSettings
  1

  2
Adobe PDF
  4
A3
  6

 40
7.5
 41
20.0
 42
7.5
 43
20.0
 44
420.0
 45
297.0
 46
0.0
 47
0.0
 48
0.0
 49
0.0
140
0.0
141
0.0
142
1.0
143
1.0
 70
0
 72
1
 73
0
 74
5
  7

 75
16
 76
0
 77
2
 78
300
147
1.0
148
0.0
149
0.0
100
AcDbLayout
  1
Layout1
 70
1
 71
1
 10
0.0
 20
0.0
 11
420.0
 21
297.0
 12
0.0
 22
0.0
 32
0.0
 14
1e+20
 24
1e+20
 34
1e+20
 15
-1e+20
 25
-1e+20
 35
-1e+20
146
0.0
 13
0.0
 23
0.0
 33
0.0
 16
1.0
 26
0.0
 36
0.0
 17
0.0
 27
1.0
 37
0.0
 76
1
330
1B
  0
MATERIAL
  5
1F
102
{ACAD_REACTORS
330
E
102
}
330
E
100
AcDbMaterial
  1
ByBlock
  2

 70
0
 40
1.0
 71
1
 41
1.0
 91
-1023410177
 42
1.0
 72
1
  3

 73
1
 74
1
 75
1
 44
0.5
 73
0
 45
1.0
 46
1.0
 77
1
  4

 78
1
 79
1
170
1
 48
1.0
171
1
  6

172
1
173
1
174
1
140
1.0
141
1.0
175
1
  7

176
1
177
1
178
1
143
1.0
179
1
  8

270
1
271
1
272
1
145
1.0
146
1.0
273
1
  9

274
1
275
1
276
1
 42
1.0
 72
1
  3

 73
1
 74
1
 75
1
 94
63
  0
MATERIAL
  5
20
102
{ACAD_REACTORS
330
E
102
}
330
E
100
AcDbMaterial
  1
ByLayer
  2

 70
0
 40
1.0
 71
1
 41
1.0
 91
-1023410177
 42
1.0
 72
1
  3

 73
1
 74
1
 75
1
 44
0.5
 73
0
 45
1.0
 46
1.0
 77
1
  4

 78
1
 79
1
170
1
 48
1.0
171
1
  6

172
1
173
1
174
1
140
1.0
141
1.0
175
1
  7

176
1
177
1
178
1
143
1.0
179
1
  8

270
1
271
1
272
1
145
1.0
146
1.0
273
1
  9

274
1
275
1
276
1
 42
1.0
 72
1
  3

 73
1
 74
1
 75
1
 94
63
  0
MATERIAL
  5
21
102
{ACAD_REACTORS
330
E
102
}
330
E
100
AcDbMaterial
  1
Global
  2

 70
0
 40
1.0
 71
1
 41
1.0
 91
-1023410177
 42
1.0
 72
1
  3

 73
1
 74
1
 75
1
 44
0.5
 73
0
 45
1.0
 46
1.0
 77
1
  4

 78
1
 79
1
170
1
 48
1.0
171
1
  6

172
1
173
1
174
1
140
1.0
141
1.0
175
1
  7

176
1
177
1
178
1
143
1.0
179
1
  8

270
1
271
1
272
1
145
1.0
146
1.0
273
1
  9

274
1
275
1
276
1
 42
1.0
 72
1
  3

 73
1
 74
1
 75
1
 94
63
  0
MLINESTYLE
  5
22
102
{ACAD_REACTORS
330
10
102
}
330
10
100
AcDbMlineStyle
  2
Standard
 70
0
  3

 62
256
 51
90.0
 52
90.0
 71
2
 49
0.5
 62
256
  6
BYLAYER
 49
-0.5
 62
256
  6
BYLAYER
  0
MLEADERSTYLE
  5
2C
102
{ACAD_REACTORS
330
F
102
}
330
F
100
AcDbMLeaderStyle
179
2
170
2
171
1
172
0
 90
2
 40
0.0
 41
0.0
173
1
 91
-1056964608
 92
-2
290
1
 42
2.0
291
1
 43
8.0
  3
Standard
 44
4.0
300

342
29
174
1
175
1
176
0
178
1
 93
-1056964608
 45
4.0
292
0
297
0
 46
4.0
 94
-1056964608
 47
1.0
 49
1.0
140
1.0
294
1
141
0.0
177
0
142
1.0
295
0
296
0
143
3.75
271
0
272
9
273
9
  0
DICTIONARY
  5
2D
330
A
100
AcDbDictionary
281
1
  3
CREATED_BY_EZDXF
350
2E
  3
WRITTEN_BY_EZDXF
350
45
  0
DICTIONARYVAR
  5
2E
330
2D
100
DictionaryVariables
280
0
  1
1.0.3 @ 2025-05-29T09:41:25.593227+00:00
  0
DICTIONARYVAR
  5
45
330
2D
100
DictionaryVariables
280
0
  1
1.0.3 @ 2025-05-29T09:41:25.599237+00:00
  0
ENDSEC
  0
EOF
