  0
SECTION
  2
HEADER
  9
$ACADVER
  1
AC1027
  9
$ACADMAINTVER
 70
105
  9
$DWGCODEPAGE
  3
ANSI_1252
  9
$LASTSAVEDBY
  1
ezdxf
  9
$REQUIREDVERSIONS
160
0
  9
$INSBASE
 10
0.0
 20
0.0
 30
0.0
  9
$EXTMIN
 10
1e+20
 20
1e+20
 30
1e+20
  9
$EXTMAX
 10
-1e+20
 20
-1e+20
 30
-1e+20
  9
$LIMMIN
 10
0.0
 20
0.0
  9
$LIMMAX
 10
420.0
 20
297.0
  9
$ORTHOMODE
 70
0
  9
$REGENMODE
 70
1
  9
$FILLMODE
 70
1
  9
$QTEXTMODE
 70
0
  9
$MIRRTEXT
 70
1
  9
$LTSCALE
 40
1.0
  9
$ATTMODE
 70
1
  9
$TEXTSIZE
 40
2.5
  9
$TRACEWID
 40
1.0
  9
$TEXTSTYLE
  7
Standard
  9
$CLAYER
  8
0
  9
$CELTYPE
  6
ByLayer
  9
$CECOLOR
 62
256
  9
$CELTSCALE
 40
1.0
  9
$DISPSILH
 70
0
  9
$DIMSCALE
 40
1.0
  9
$DIMASZ
 40
2.5
  9
$DIMEXO
 40
0.625
  9
$DIMDLI
 40
3.75
  9
$DIMRND
 40
0.0
  9
$DIMDLE
 40
0.0
  9
$DIMEXE
 40
1.25
  9
$DIMTP
 40
0.0
  9
$DIMTM
 40
0.0
  9
$DIMTXT
 40
2.5
  9
$DIMCEN
 40
2.5
  9
$DIMTSZ
 40
0.0
  9
$DIMTOL
 70
0
  9
$DIMLIM
 70
0
  9
$DIMTIH
 70
0
  9
$DIMTOH
 70
0
  9
$DIMSE1
 70
0
  9
$DIMSE2
 70
0
  9
$DIMTAD
 70
1
  9
$DIMZIN
 70
8
  9
$DIMBLK
  1

  9
$DIMASO
 70
1
  9
$DIMSHO
 70
1
  9
$DIMPOST
  1

  9
$DIMAPOST
  1

  9
$DIMALT
 70
0
  9
$DIMALTD
 70
3
  9
$DIMALTF
 40
0.03937007874
  9
$DIMLFAC
 40
1.0
  9
$DIMTOFL
 70
1
  9
$DIMTVP
 40
0.0
  9
$DIMTIX
 70
0
  9
$DIMSOXD
 70
0
  9
$DIMSAH
 70
0
  9
$DIMBLK1
  1

  9
$DIMBLK2
  1

  9
$DIMSTYLE
  2
ISO-25
  9
$DIMCLRD
 70
0
  9
$DIMCLRE
 70
0
  9
$DIMCLRT
 70
0
  9
$DIMTFAC
 40
1.0
  9
$DIMGAP
 40
0.625
  9
$DIMJUST
 70
0
  9
$DIMSD1
 70
0
  9
$DIMSD2
 70
0
  9
$DIMTOLJ
 70
0
  9
$DIMTZIN
 70
8
  9
$DIMALTZ
 70
0
  9
$DIMALTTZ
 70
0
  9
$DIMUPT
 70
0
  9
$DIMDEC
 70
2
  9
$DIMTDEC
 70
2
  9
$DIMALTU
 70
2
  9
$DIMALTTD
 70
3
  9
$DIMTXSTY
  7
Standard
  9
$DIMAUNIT
 70
0
  9
$DIMADEC
 70
0
  9
$DIMALTRND
 40
0.0
  9
$DIMAZIN
 70
0
  9
$DIMDSEP
 70
44
  9
$DIMATFIT
 70
3
  9
$DIMFRAC
 70
0
  9
$DIMLDRBLK
  1

  9
$DIMLUNIT
 70
2
  9
$DIMLWD
 70
-2
  9
$DIMLWE
 70
-2
  9
$DIMTMOVE
 70
0
  9
$DIMFXL
 40
1.0
  9
$DIMFXLON
 70
0
  9
$DIMJOGANG
 40
0.785398163397
  9
$DIMTFILL
 70
0
  9
$DIMTFILLCLR
 70
0
  9
$DIMARCSYM
 70
0
  9
$DIMLTYPE
  6

  9
$DIMLTEX1
  6

  9
$DIMLTEX2
  6

  9
$DIMTXTDIRECTION
 70
0
  9
$LUNITS
 70
2
  9
$LUPREC
 70
4
  9
$SKETCHINC
 40
1.0
  9
$FILLETRAD
 40
10.0
  9
$AUNITS
 70
0
  9
$AUPREC
 70
2
  9
$MENU
  1
.
  9
$ELEVATION
 40
0.0
  9
$PELEVATION
 40
0.0
  9
$THICKNESS
 40
0.0
  9
$LIMCHECK
 70
0
  9
$CHAMFERA
 40
0.0
  9
$CHAMFERB
 40
0.0
  9
$CHAMFERC
 40
0.0
  9
$CHAMFERD
 40
0.0
  9
$SKPOLY
 70
0
  9
$TDCREATE
 40
2460825.778761574
  9
$TDUCREATE
 40
2458532.153996898
  9
$TDUPDATE
 40
2460825.778761574
  9
$TDUUPDATE
 40
2458532.1544311
  9
$TDINDWG
 40
0.0
  9
$TDUSRTIMER
 40
0.0
  9
$USRTIMER
 70
1
  9
$ANGBASE
 50
0.0
  9
$ANGDIR
 70
0
  9
$PDMODE
 70
0
  9
$PDSIZE
 40
0.0
  9
$PLINEWID
 40
0.0
  9
$SPLFRAME
 70
0
  9
$SPLINETYPE
 70
6
  9
$SPLINESEGS
 70
8
  9
$HANDSEED
  5
48
  9
$SURFTAB1
 70
6
  9
$SURFTAB2
 70
6
  9
$SURFTYPE
 70
6
  9
$SURFU
 70
6
  9
$SURFV
 70
6
  9
$UCSBASE
  2

  9
$UCSNAME
  2

  9
$UCSORG
 10
0.0
 20
0.0
 30
0.0
  9
$UCSXDIR
 10
1.0
 20
0.0
 30
0.0
  9
$UCSYDIR
 10
0.0
 20
1.0
 30
0.0
  9
$UCSORTHOREF
  2

  9
$UCSORTHOVIEW
 70
0
  9
$UCSORGTOP
 10
0.0
 20
0.0
 30
0.0
  9
$UCSORGBOTTOM
 10
0.0
 20
0.0
 30
0.0
  9
$UCSORGLEFT
 10
0.0
 20
0.0
 30
0.0
  9
$UCSORGRIGHT
 10
0.0
 20
0.0
 30
0.0
  9
$UCSORGFRONT
 10
0.0
 20
0.0
 30
0.0
  9
$UCSORGBACK
 10
0.0
 20
0.0
 30
0.0
  9
$PUCSBASE
  2

  9
$PUCSNAME
  2

  9
$PUCSORG
 10
0.0
 20
0.0
 30
0.0
  9
$PUCSXDIR
 10
1.0
 20
0.0
 30
0.0
  9
$PUCSYDIR
 10
0.0
 20
1.0
 30
0.0
  9
$PUCSORTHOREF
  2

  9
$PUCSORTHOVIEW
 70
0
  9
$PUCSORGTOP
 10
0.0
 20
0.0
 30
0.0
  9
$PUCSORGBOTTOM
 10
0.0
 20
0.0
 30
0.0
  9
$PUCSORGLEFT
 10
0.0
 20
0.0
 30
0.0
  9
$PUCSORGRIGHT
 10
0.0
 20
0.0
 30
0.0
  9
$PUCSORGFRONT
 10
0.0
 20
0.0
 30
0.0
  9
$PUCSORGBACK
 10
0.0
 20
0.0
 30
0.0
  9
$USERI1
 70
0
  9
$USERI2
 70
0
  9
$USERI3
 70
0
  9
$USERI4
 70
0
  9
$USERI5
 70
0
  9
$USERR1
 40
0.0
  9
$USERR2
 40
0.0
  9
$USERR3
 40
0.0
  9
$USERR4
 40
0.0
  9
$USERR5
 40
0.0
  9
$WORLDVIEW
 70
1
  9
$SHADEDGE
 70
3
  9
$SHADEDIF
 70
70
  9
$TILEMODE
 70
1
  9
$MAXACTVP
 70
64
  9
$PINSBASE
 10
0.0
 20
0.0
 30
0.0
  9
$PLIMCHECK
 70
0
  9
$PEXTMIN
 10
1e+20
 20
1e+20
 30
1e+20
  9
$PEXTMAX
 10
-1e+20
 20
-1e+20
 30
-1e+20
  9
$PLIMMIN
 10
0.0
 20
0.0
  9
$PLIMMAX
 10
420.0
 20
297.0
  9
$UNITMODE
 70
0
  9
$VISRETAIN
 70
1
  9
$PLINEGEN
 70
0
  9
$PSLTSCALE
 70
1
  9
$TREEDEPTH
 70
3020
  9
$CMLSTYLE
  2
Standard
  9
$CMLJUST
 70
0
  9
$CMLSCALE
 40
20.0
  9
$PROXYGRAPHICS
 70
1
  9
$MEASUREMENT
 70
1
  9
$CELWEIGHT
370
-1
  9
$ENDCAPS
280
0
  9
$JOINSTYLE
280
0
  9
$LWDISPLAY
290
0
  9
$INSUNITS
 70
6
  9
$HYPERLINKBASE
  1

  9
$STYLESHEET
  1

  9
$XEDIT
290
1
  9
$CEPSNTYPE
380
0
  9
$PSTYLEMODE
290
1
  9
$FINGERPRINTGUID
  2
{DD434A9E-8BEC-43A4-9FC3-BF96227B64D4}
  9
$VERSIONGUID
  2
{D01294A8-0231-4ABC-B60B-FF535E758DFA}
  9
$EXTNAMES
290
1
  9
$PSVPSCALE
 40
0.0
  9
$OLESTARTUP
290
0
  9
$SORTENTS
280
127
  9
$INDEXCTL
280
0
  9
$HIDETEXT
280
1
  9
$XCLIPFRAME
280
0
  9
$HALOGAP
280
0
  9
$OBSCOLOR
 70
257
  9
$OBSLTYPE
280
0
  9
$INTERSECTIONDISPLAY
280
0
  9
$INTERSECTIONCOLOR
 70
257
  9
$DIMASSOC
280
2
  9
$PROJECTNAME
  1

  9
$CAMERADISPLAY
290
0
  9
$LENSLENGTH
 40
50.0
  9
$CAMERAHEIGHT
 40
0.0
  9
$STEPSPERSEC
 40
24.0
  9
$STEPSIZE
 40
100.0
  9
$3DDWFPREC
 40
2.0
  9
$PSOLWIDTH
 40
0.005
  9
$PSOLHEIGHT
 40
0.08
  9
$LOFTANG1
 40
1.570796326795
  9
$LOFTANG2
 40
1.570796326795
  9
$LOFTMAG1
 40
0.0
  9
$LOFTMAG2
 40
0.0
  9
$LOFTPARAM
 70
7
  9
$LOFTNORMALS
280
1
  9
$LATITUDE
 40
37.795
  9
$LONGITUDE
 40
-122.394
  9
$NORTHDIRECTION
 40
0.0
  9
$TIMEZONE
 70
-8000
  9
$LIGHTGLYPHDISPLAY
280
1
  9
$TILEMODELIGHTSYNCH
280
1
  9
$CMATERIAL
347
20
  9
$SOLIDHIST
280
0
  9
$SHOWHIST
280
1
  9
$DWFFRAME
280
2
  9
$DGNFRAME
280
2
  9
$REALWORLDSCALE
290
1
  9
$INTERFERECOLOR
 62
256
  9
$CSHADOW
280
0
  9
$SHADOWPLANELOCATION
 40
0.0
  0
ENDSEC
  0
SECTION
  2
CLASSES
  0
CLASS
  1
ACDBDICTIONARYWDFLT
  2
AcDbDictionaryWithDefault
  3
ObjectDBX Classes
 90
0
 91
0
280
0
281
0
  0
CLASS
  1
SUN
  2
AcDbSun
  3
SCENEOE
 90
1153
 91
0
280
0
281
0
  0
CLASS
  1
VISUALSTYLE
  2
AcDbVisualStyle
  3
ObjectDBX Classes
 90
4095
 91
0
280
0
281
0
  0
CLASS
  1
MATERIAL
  2
AcDbMaterial
  3
ObjectDBX Classes
 90
1153
 91
0
280
0
281
0
  0
CLASS
  1
SCALE
  2
AcDbScale
  3
ObjectDBX Classes
 90
1153
 91
0
280
0
281
0
  0
CLASS
  1
TABLESTYLE
  2
AcDbTableStyle
  3
ObjectDBX Classes
 90
4095
 91
0
280
0
281
0
  0
CLASS
  1
MLEADERSTYLE
  2
AcDbMLeaderStyle
  3
ACDB_MLEADERSTYLE_CLASS
 90
4095
 91
0
280
0
281
0
  0
CLASS
  1
DICTIONARYVAR
  2
AcDbDictionaryVar
  3
ObjectDBX Classes
 90
0
 91
0
280
0
281
0
  0
CLASS
  1
CELLSTYLEMAP
  2
AcDbCellStyleMap
  3
ObjectDBX Classes
 90
1152
 91
0
280
0
281
0
  0
CLASS
  1
MENTALRAYRENDERSETTINGS
  2
AcDbMentalRayRenderSettings
  3
SCENEOE
 90
1024
 91
0
280
0
281
0
  0
CLASS
  1
ACDBDETAILVIEWSTYLE
  2
AcDbDetailViewStyle
  3
ObjectDBX Classes
 90
1025
 91
0
280
0
281
0
  0
CLASS
  1
ACDBSECTIONVIEWSTYLE
  2
AcDbSectionViewStyle
  3
ObjectDBX Classes
 90
1025
 91
0
280
0
281
0
  0
CLASS
  1
RASTERVARIABLES
  2
AcDbRasterVariables
  3
ISM
 90
0
 91
0
280
0
281
0
  0
CLASS
  1
LAYOUT
  2
AcDbLayout
  3
ObjectDBX Classes
 90
0
 91
0
280
0
281
0
  0
CLASS
  1
ACDBPLACEHOLDER
  2
AcDbPlaceHolder
  3
ObjectDBX Classes
 90
0
 91
0
280
0
281
0
  0
ENDSEC
  0
SECTION
  2
TABLES
  0
TABLE
  2
VPORT
  5
8
330
0
100
AcDbSymbolTable
 70
1
  0
VPORT
  5
23
330
8
100
AcDbSymbolTableRecord
100
AcDbViewportTableRecord
  2
*Active
 70
0
 10
0.0
 20
0.0
 11
1.0
 21
1.0
 12
0.0
 22
0.0
 13
0.0
 23
0.0
 14
0.5
 24
0.5
 15
0.5
 25
0.5
 16
0.0
 26
0.0
 36
1.0
 17
0.0
 27
0.0
 37
0.0
 40
1000.0
 41
1.34
 42
50.0
 43
0.0
 44
0.0
 50
0.0
 51
0.0
 71
0
 72
1000
 73
1
 74
3
 75
0
 76
0
 77
0
 78
0
281
0
 65
0
146
0.0
  0
ENDTAB
  0
TABLE
  2
LTYPE
  5
2
330
0
100
AcDbSymbolTable
 70
3
  0
LTYPE
  5
24
330
2
100
AcDbSymbolTableRecord
100
AcDbLinetypeTableRecord
  2
ByBlock
 70
0
  3

 72
65
 73
0
 40
0.0
  0
LTYPE
  5
25
330
2
100
AcDbSymbolTableRecord
100
AcDbLinetypeTableRecord
  2
ByLayer
 70
0
  3

 72
65
 73
0
 40
0.0
  0
LTYPE
  5
26
330
2
100
AcDbSymbolTableRecord
100
AcDbLinetypeTableRecord
  2
Continuous
 70
0
  3

 72
65
 73
0
 40
0.0
  0
ENDTAB
  0
TABLE
  2
LAYER
  5
1
330
0
100
AcDbSymbolTable
 70
2
  0
LAYER
  5
27
330
1
100
AcDbSymbolTableRecord
100
AcDbLayerTableRecord
  2
0
 70
0
 62
7
  6
Continuous
370
-3
390
13
347
21
  0
LAYER
  5
28
330
1
100
AcDbSymbolTableRecord
100
AcDbLayerTableRecord
  2
Defpoints
 70
0
 62
7
  6
Continuous
290
0
370
-3
390
13
347
21
  0
ENDTAB
  0
TABLE
  2
STYLE
  5
5
330
0
100
AcDbSymbolTable
 70
1
  0
STYLE
  5
29
330
5
100
AcDbSymbolTableRecord
100
AcDbTextStyleTableRecord
  2
Standard
 70
0
 40
0.0
 41
1.0
 50
0.0
 71
0
 42
2.5
  3
txt
  4

  0
ENDTAB
  0
TABLE
  2
VIEW
  5
7
330
0
100
AcDbSymbolTable
 70
0
  0
ENDTAB
  0
TABLE
  2
UCS
  5
6
330
0
100
AcDbSymbolTable
 70
0
  0
ENDTAB
  0
TABLE
  2
APPID
  5
3
330
0
100
AcDbSymbolTable
 70
3
  0
APPID
  5
2A
330
3
100
AcDbSymbolTableRecord
100
AcDbRegAppTableRecord
  2
ACAD
 70
0
  0
APPID
  5
45
330
3
100
AcDbSymbolTableRecord
100
AcDbRegAppTableRecord
  2
HATCHBACKGROUNDCOLOR
 70
0
  0
APPID
  5
46
330
3
100
AcDbSymbolTableRecord
100
AcDbRegAppTableRecord
  2
EZDXF
 70
0
  0
ENDTAB
  0
TABLE
  2
DIMSTYLE
  5
4
330
0
100
AcDbSymbolTable
 70
1
100
AcDbDimStyleTable
  0
DIMSTYLE
105
2B
330
4
100
AcDbSymbolTableRecord
100
AcDbDimStyleTableRecord
  2
Standard
 70
0
 40
1.0
 41
2.5
 42
0.625
 43
3.75
 44
1.25
 45
0.0
 46
0.0
 47
0.0
 48
0.0
 49
2.5
140
2.5
141
2.5
142
0.0
143
0.03937007874
144
1.0
145
0.0
146
1.0
147
0.625
148
0.0
 69
0
 70
0
 71
0
 72
0
 73
0
 74
0
 75
0
 76
0
 77
1
 78
8
 79
3
170
0
171
3
172
1
173
0
174
0
175
0
176
0
177
0
178
0
179
2
271
2
272
2
273
2
274
3
275
0
276
0
277
2
278
44
279
0
280
0
281
0
282
0
283
0
284
8
285
0
286
0
288
0
289
3
290
0
371
-2
372
-2
  0
ENDTAB
  0
TABLE
  2
BLOCK_RECORD
  5
9
330
0
100
AcDbSymbolTable
 70
2
  0
BLOCK_RECORD
  5
17
330
9
100
AcDbSymbolTableRecord
100
AcDbBlockTableRecord
  2
*Model_Space
340
1A
 70
0
280
1
281
0
  0
BLOCK_RECORD
  5
1B
330
9
100
AcDbSymbolTableRecord
100
AcDbBlockTableRecord
  2
*Paper_Space
340
1E
 70
0
280
1
281
0
  0
ENDTAB
  0
ENDSEC
  0
SECTION
  2
BLOCKS
  0
BLOCK
  5
18
330
17
100
AcDbEntity
  8
0
100
AcDbBlockBegin
  2
*Model_Space
 70
0
 10
0.0
 20
0.0
 30
0.0
  3
*Model_Space
  1

  0
ENDBLK
  5
19
330
17
100
AcDbEntity
  8
0
100
AcDbBlockEnd
  0
BLOCK
  5
1C
330
1B
100
AcDbEntity
  8
0
100
AcDbBlockBegin
  2
*Paper_Space
 70
0
 10
0.0
 20
0.0
 30
0.0
  3
*Paper_Space
  1

  0
ENDBLK
  5
1D
330
1B
100
AcDbEntity
  8
0
100
AcDbBlockEnd
  0
ENDSEC
  0
SECTION
  2
ENTITIES
  0
LWPOLYLINE
  5
2F
330
17
100
AcDbEntity
  8
0
100
AcDbPolyline
 90
51
 70
0
 10
-14.5
 20
12.210929330165001
 10
-14.4
 20
12.210929330165001
 10
-14.3
 20
12.210929330165001
 10
-14.2
 20
12.210929330165001
 10
-14.1
 20
12.210929330165001
 10
-14.0
 20
12.210929330165001
 10
-13.9
 20
12.210929330165001
 10
-13.8
 20
12.210929330165001
 10
-13.7
 20
12.210929330165001
 10
-13.6
 20
12.210929330165001
 10
-13.5
 20
12.210929330165001
 10
-13.4
 20
12.210929330165001
 10
-13.3
 20
12.210929330165001
 10
-13.2
 20
12.210929330165001
 10
-13.1
 20
12.210929330165001
 10
-13.0
 20
12.210929330165001
 10
-12.9
 20
12.210929330165001
 10
-12.8
 20
12.210929330165001
 10
-12.7
 20
12.210929330165001
 10
-12.6
 20
12.210929330165001
 10
-12.5
 20
12.210929330165001
 10
-12.4
 20
12.210929330165001
 10
-12.3
 20
12.210929330165001
 10
-12.2
 20
12.210929330165001
 10
-12.1
 20
12.210929330165001
 10
-12.0
 20
12.210929330165001
 10
-11.9
 20
12.210929330165001
 10
-11.8
 20
12.210929330165001
 10
-11.7
 20
12.210929330165001
 10
-11.6
 20
12.210929330165001
 10
-11.5
 20
12.210929330165001
 10
-11.4
 20
12.210929330165001
 10
-11.3
 20
12.210929330165001
 10
-11.2
 20
12.210929330165001
 10
-11.1
 20
12.210929330165001
 10
-11.0
 20
12.210929330165001
 10
-10.9
 20
12.210929330165001
 10
-10.8
 20
12.210929330165001
 10
-10.7
 20
12.210929330165001
 10
-10.6
 20
12.210929330165001
 10
-10.5
 20
12.210929330165001
 10
-10.4
 20
12.210929330165001
 10
-10.3
 20
12.210929330165001
 10
-10.2
 20
12.210929330165001
 10
-10.1
 20
12.210929330165001
 10
-10.0
 20
12.210929330165001
 10
-9.9
 20
12.210929330165001
 10
-9.8
 20
12.210929330165001
 10
-9.7
 20
12.210929330165001
 10
-9.6
 20
12.210929330165001
 10
-9.5
 20
12.210929330165001
  0
LWPOLYLINE
  5
30
330
17
100
AcDbEntity
  8
0
100
AcDbPolyline
 90
51
 70
0
 10
9.5
 20
12.210929330165001
 10
9.600000000000001
 20
12.210929330165001
 10
9.700000000000003
 20
12.210929330165001
 10
9.799999999999997
 20
12.210929330165001
 10
9.899999999999999
 20
12.210929330165001
 10
10.0
 20
12.210929330165001
 10
10.100000000000001
 20
12.210929330165001
 10
10.200000000000003
 20
12.210929330165001
 10
10.299999999999997
 20
12.210929330165001
 10
10.399999999999999
 20
12.210929330165001
 10
10.5
 20
12.210929330165001
 10
10.600000000000001
 20
12.210929330165001
 10
10.700000000000003
 20
12.210929330165001
 10
10.799999999999997
 20
12.210929330165001
 10
10.899999999999999
 20
12.210929330165001
 10
11.0
 20
12.210929330165001
 10
11.100000000000001
 20
12.210929330165001
 10
11.200000000000003
 20
12.210929330165001
 10
11.299999999999997
 20
12.210929330165001
 10
11.399999999999999
 20
12.210929330165001
 10
11.5
 20
12.210929330165001
 10
11.600000000000001
 20
12.210929330165001
 10
11.700000000000003
 20
12.210929330165001
 10
11.799999999999997
 20
12.210929330165001
 10
11.900000000000006
 20
12.210929330165001
 10
12.0
 20
12.210929330165001
 10
12.099999999999994
 20
12.210929330165001
 10
12.200000000000003
 20
12.210929330165001
 10
12.299999999999997
 20
12.210929330165001
 10
12.400000000000006
 20
12.210929330165001
 10
12.5
 20
12.210929330165001
 10
12.599999999999994
 20
12.210929330165001
 10
12.700000000000003
 20
12.210929330165001
 10
12.799999999999997
 20
12.210929330165001
 10
12.900000000000006
 20
12.210929330165001
 10
13.0
 20
12.210929330165001
 10
13.099999999999994
 20
12.210929330165001
 10
13.200000000000003
 20
12.210929330165001
 10
13.299999999999997
 20
12.210929330165001
 10
13.400000000000006
 20
12.210929330165001
 10
13.5
 20
12.210929330165001
 10
13.599999999999994
 20
12.210929330165001
 10
13.700000000000003
 20
12.210929330165001
 10
13.799999999999997
 20
12.210929330165001
 10
13.900000000000006
 20
12.210929330165001
 10
14.0
 20
12.210929330165001
 10
14.099999999999994
 20
12.210929330165001
 10
14.200000000000003
 20
12.210929330165001
 10
14.299999999999997
 20
12.210929330165001
 10
14.400000000000006
 20
12.210929330165001
 10
14.5
 20
12.210929330165001
  0
LWPOLYLINE
  5
31
330
17
100
AcDbEntity
  8
0
100
AcDbPolyline
 90
51
 70
0
 10
9.5
 20
0.0
 10
9.5
 20
0.1442185866033
 10
9.5
 20
0.2884371732066
 10
9.5
 20
0.4326557598099
 10
9.5
 20
0.5768743464132
 10
9.5
 20
0.7210929330165
 10
9.5
 20
0.8653115196198
 10
9.5
 20
1.0095301062231001
 10
9.5
 20
1.1537486928264
 10
9.5
 20
1.2979672794297
 10
9.5
 20
1.442185866033
 10
9.5
 20
1.5864044526363
 10
9.5
 20
1.7306230392396
 10
9.5
 20
1.8748416258429002
 10
9.5
 20
2.0190602124462003
 10
9.5
 20
2.1632787990495
 10
9.5
 20
2.3074973856528
 10
9.5
 20
2.4517159722561
 10
9.5
 20
2.5959345588594
 10
9.5
 20
2.7401531454627004
 10
9.5
 20
2.884371732066
 10
9.5
 20
3.0285903186693
 10
9.5
 20
3.1728089052726
 10
9.5
 20
3.3170274918759004
 10
9.5
 20
3.4612460784792
 10
9.5
 20
3.6054646650825
 10
9.5
 20
3.7496832516858003
 10
9.5
 20
3.8939018382891004
 10
9.5
 20
4.0381204248924005
 10
9.5
 20
4.1823390114957
 10
9.5
 20
4.326557598099
 10
9.5
 20
4.4707761847023
 10
9.5
 20
4.6149947713056
 10
9.5
 20
4.7592133579089
 10
9.5
 20
4.9034319445122
 10
9.5
 20
5.0476505311155
 10
9.5
 20
5.1918691177188
 10
9.5
 20
5.3360877043221
 10
9.5
 20
5.480306290925401
 10
9.5
 20
5.6245248775287005
 10
9.5
 20
5.768743464132
 10
9.5
 20
5.9129620507353
 10
9.5
 20
6.0571806373386
 10
9.5
 20
6.201399223941901
 10
9.5
 20
6.3456178105452
 10
9.5
 20
6.4898363971485
 10
9.5
 20
6.634054983751801
 10
9.5
 20
6.7782735703551005
 10
9.5
 20
6.9224921569584
 10
9.5
 20
7.066710743561701
 10
9.5
 20
7.210929330165
  0
LWPOLYLINE
  5
32
330
17
100
AcDbEntity
  8
0
100
AcDbPolyline
 90
51
 70
0
 10
9.5
 20
7.210929330165
 10
9.5
 20
7.367679596709632
 10
9.5
 20
7.524429863254262
 10
9.5
 20
7.681180129798894
 10
9.5
 20
7.837085585393344
 10
9.5
 20
7.991864626387553
 10
9.5
 20
8.146643667381763
 10
9.5
 20
8.301422708375972
 10
9.5
 20
8.452843753545196
 10
9.5
 20
8.60370513274359
 10
9.5
 20
8.754566511941983
 10
9.5
 20
8.903766510805792
 10
9.5
 20
9.04881305883314
 10
9.5
 20
9.193859606860487
 10
9.5
 20
9.338906154887836
 10
9.5
 20
9.47849636315057
 10
9.5
 20
9.61590403550746
 10
9.5
 20
9.75331170786435
 10
9.5
 20
9.889381257810363
 10
9.5
 20
10.017422073291119
 10
9.5
 20
10.145462888771874
 10
9.5
 20
10.27350370425263
 10
9.5
 20
10.39527192292092
 10
9.5
 20
10.512335693979859
 10
9.5
 20
10.6293994650388
 10
9.5
 20
10.746463236097739
 10
9.5
 20
10.851077817891813
 10
9.5
 20
10.955692399685889
 10
9.5
 20
11.060306981479965
 10
9.5
 20
11.159022372561303
 10
9.5
 20
11.249872176025658
 10
9.5
 20
11.340721979490015
 10
9.5
 20
11.43157178295437
 10
9.5
 20
11.509643928715382
 10
9.5
 20
11.585586464859173
 10
9.5
 20
11.661529001002961
 10
9.5
 20
11.732939454639476
 10
9.5
 20
11.793019702007804
 10
9.5
 20
11.853099949376132
 10
9.5
 20
11.91318019674446
 10
9.5
 20
11.961390563580295
 10
9.5
 20
12.004852978203132
 10
9.5
 20
12.048315392825971
 10
9.5
 20
12.089325750616402
 10
9.5
 20
12.115623767412389
 10
9.5
 20
12.141921784208375
 10
9.5
 20
12.168219801004362
 10
9.5
 20
12.18452061171662
 10
9.5
 20
12.19332351786608
 10
9.5
 20
12.20212642401554
 10
9.5
 20
12.210929330165001
  0
LWPOLYLINE
  5
33
330
17
100
AcDbEntity
  8
0
100
AcDbPolyline
 90
51
 70
0
 10
9.5
 20
12.210929330165001
 10
9.5
 20
12.2867107435617
 10
9.5
 20
12.362492156958401
 10
9.5
 20
12.4382735703551
 10
9.5
 20
12.514054983751802
 10
9.5
 20
12.5898363971485
 10
9.5
 20
12.665617810545202
 10
9.5
 20
12.741399223941901
 10
9.5
 20
12.817180637338602
 10
9.5
 20
12.892962050735301
 10
9.5
 20
12.968743464132
 10
9.5
 20
13.044524877528701
 10
9.5
 20
13.1203062909254
 10
9.5
 20
13.196087704322101
 10
9.5
 20
13.2718691177188
 10
9.5
 20
13.347650531115502
 10
9.5
 20
13.4234319445122
 10
9.5
 20
13.4992133579089
 10
9.5
 20
13.574994771305601
 10
9.5
 20
13.650776184702302
 10
9.5
 20
13.726557598099001
 10
9.5
 20
13.8023390114957
 10
9.5
 20
13.878120424892401
 10
9.5
 20
13.9539018382891
 10
9.5
 20
14.0296832516858
 10
9.5
 20
14.1054646650825
 10
9.5
 20
14.181246078479202
 10
9.5
 20
14.2570274918759
 10
9.5
 20
14.3328089052726
 10
9.5
 20
14.408590318669301
 10
9.5
 20
14.484371732066
 10
9.5
 20
14.560153145462701
 10
9.5
 20
14.6359345588594
 10
9.5
 20
14.711715972256101
 10
9.5
 20
14.7874973856528
 10
9.5
 20
14.8632787990495
 10
9.5
 20
14.9390602124462
 10
9.5
 20
15.0148416258429
 10
9.5
 20
15.0906230392396
 10
9.5
 20
15.1664044526363
 10
9.5
 20
15.242185866033001
 10
9.5
 20
15.3179672794297
 10
9.5
 20
15.3937486928264
 10
9.5
 20
15.4695301062231
 10
9.5
 20
15.5453115196198
 10
9.5
 20
15.6210929330165
 10
9.5
 20
15.6968743464132
 10
9.5
 20
15.7726557598099
 10
9.5
 20
15.8484371732066
 10
9.5
 20
15.924218586603299
 10
9.5
 20
16.0
  0
LWPOLYLINE
  5
34
330
17
100
AcDbEntity
  8
0
100
AcDbPolyline
 90
51
 70
0
 10
14.5
 20
12.210929330165001
 10
14.5
 20
12.246710743561701
 10
14.5
 20
12.282492156958401
 10
14.5
 20
12.318273570355101
 10
14.5
 20
12.354054983751801
 10
14.5
 20
12.389836397148501
 10
14.5
 20
12.425617810545202
 10
14.5
 20
12.461399223941902
 10
14.5
 20
12.497180637338602
 10
14.5
 20
12.532962050735302
 10
14.5
 20
12.568743464132002
 10
14.5
 20
12.6045248775287
 10
14.5
 20
12.640306290925402
 10
14.5
 20
12.6760877043221
 10
14.5
 20
12.711869117718802
 10
14.5
 20
12.7476505311155
 10
14.5
 20
12.7834319445122
 10
14.5
 20
12.8192133579089
 10
14.5
 20
12.8549947713056
 10
14.5
 20
12.8907761847023
 10
14.5
 20
12.926557598099
 10
14.5
 20
12.9623390114957
 10
14.5
 20
12.9981204248924
 10
14.5
 20
13.0339018382891
 10
14.5
 20
13.0696832516858
 10
14.5
 20
13.1054646650825
 10
14.5
 20
13.1412460784792
 10
14.5
 20
13.1770274918759
 10
14.5
 20
13.2128089052726
 10
14.5
 20
13.2485903186693
 10
14.5
 20
13.284371732066
 10
14.5
 20
13.320153145462701
 10
14.5
 20
13.355934558859401
 10
14.5
 20
13.391715972256101
 10
14.5
 20
13.427497385652801
 10
14.5
 20
13.463278799049501
 10
14.5
 20
13.4990602124462
 10
14.5
 20
13.534841625842901
 10
14.5
 20
13.5706230392396
 10
14.5
 20
13.606404452636301
 10
14.5
 20
13.642185866033
 10
14.5
 20
13.677967279429701
 10
14.5
 20
13.7137486928264
 10
14.5
 20
13.7495301062231
 10
14.5
 20
13.7853115196198
 10
14.5
 20
13.8210929330165
 10
14.5
 20
13.8568743464132
 10
14.5
 20
13.8926557598099
 10
14.5
 20
13.9284371732066
 10
14.5
 20
13.9642185866033
 10
14.5
 20
14.0
  0
LWPOLYLINE
  5
35
330
17
100
AcDbEntity
  8
0
100
AcDbPolyline
 90
51
 70
0
 10
14.5
 20
12.210929330165001
 10
14.5
 20
12.20212642401554
 10
14.5
 20
12.19332351786608
 10
14.5
 20
12.184520611716621
 10
14.5
 20
12.168219801004364
 10
14.5
 20
12.141921784208376
 10
14.5
 20
12.115623767412389
 10
14.5
 20
12.089325750616402
 10
14.5
 20
12.048315392825971
 10
14.5
 20
12.004852978203132
 10
14.5
 20
11.961390563580295
 10
14.5
 20
11.91318019674446
 10
14.5
 20
11.853099949376132
 10
14.5
 20
11.793019702007804
 10
14.5
 20
11.732939454639476
 10
14.5
 20
11.661529001002961
 10
14.5
 20
11.585586464859173
 10
14.5
 20
11.509643928715382
 10
14.5
 20
11.43157178295437
 10
14.5
 20
11.340721979490015
 10
14.5
 20
11.249872176025658
 10
14.5
 20
11.159022372561301
 10
14.5
 20
11.060306981479965
 10
14.5
 20
10.955692399685889
 10
14.5
 20
10.851077817891815
 10
14.5
 20
10.746463236097739
 10
14.5
 20
10.6293994650388
 10
14.5
 20
10.512335693979859
 10
14.5
 20
10.39527192292092
 10
14.5
 20
10.27350370425263
 10
14.5
 20
10.145462888771874
 10
14.5
 20
10.017422073291119
 10
14.5
 20
9.889381257810362
 10
14.5
 20
9.753311707864349
 10
14.5
 20
9.615904035507459
 10
14.5
 20
9.478496363150569
 10
14.5
 20
9.338906154887834
 10
14.5
 20
9.193859606860487
 10
14.5
 20
9.04881305883314
 10
14.5
 20
8.903766510805793
 10
14.5
 20
8.754566511941983
 10
14.5
 20
8.60370513274359
 10
14.5
 20
8.452843753545196
 10
14.5
 20
8.301422708375972
 10
14.5
 20
8.146643667381761
 10
14.5
 20
7.991864626387553
 10
14.5
 20
7.8370855853933445
 10
14.5
 20
7.681180129798893
 10
14.5
 20
7.524429863254263
 10
14.5
 20
7.367679596709632
 10
14.5
 20
7.210929330165
  0
LWPOLYLINE
  5
36
330
17
100
AcDbEntity
  8
0
100
AcDbPolyline
 90
51
 70
0
 10
14.5
 20
0.0
 10
14.5
 20
0.1442185866033
 10
14.5
 20
0.2884371732066
 10
14.5
 20
0.4326557598099
 10
14.5
 20
0.5768743464132
 10
14.5
 20
0.7210929330165
 10
14.5
 20
0.8653115196198
 10
14.5
 20
1.0095301062231001
 10
14.5
 20
1.1537486928264
 10
14.5
 20
1.2979672794297
 10
14.5
 20
1.442185866033
 10
14.5
 20
1.5864044526363
 10
14.5
 20
1.7306230392396
 10
14.5
 20
1.8748416258429002
 10
14.5
 20
2.0190602124462003
 10
14.5
 20
2.1632787990495
 10
14.5
 20
2.3074973856528
 10
14.5
 20
2.4517159722561
 10
14.5
 20
2.5959345588594
 10
14.5
 20
2.7401531454627004
 10
14.5
 20
2.884371732066
 10
14.5
 20
3.0285903186693
 10
14.5
 20
3.1728089052726
 10
14.5
 20
3.3170274918759004
 10
14.5
 20
3.4612460784792
 10
14.5
 20
3.6054646650825
 10
14.5
 20
3.7496832516858003
 10
14.5
 20
3.8939018382891004
 10
14.5
 20
4.0381204248924005
 10
14.5
 20
4.1823390114957
 10
14.5
 20
4.326557598099
 10
14.5
 20
4.4707761847023
 10
14.5
 20
4.6149947713056
 10
14.5
 20
4.7592133579089
 10
14.5
 20
4.9034319445122
 10
14.5
 20
5.0476505311155
 10
14.5
 20
5.1918691177188
 10
14.5
 20
5.3360877043221
 10
14.5
 20
5.480306290925401
 10
14.5
 20
5.6245248775287005
 10
14.5
 20
5.768743464132
 10
14.5
 20
5.9129620507353
 10
14.5
 20
6.0571806373386
 10
14.5
 20
6.201399223941901
 10
14.5
 20
6.3456178105452
 10
14.5
 20
6.4898363971485
 10
14.5
 20
6.634054983751801
 10
14.5
 20
6.7782735703551005
 10
14.5
 20
6.9224921569584
 10
14.5
 20
7.066710743561701
 10
14.5
 20
7.210929330165
  0
LWPOLYLINE
  5
37
330
17
100
AcDbEntity
  8
0
100
AcDbPolyline
 90
51
 70
0
 10
14.5
 20
14.0
 10
14.496052482925853
 20
14.251286072625026
 10
14.484213827426172
 20
14.502324156234508
 10
14.46449571682464
 20
14.752866506548115
 10
14.436917610515824
 20
15.002665868514434
 10
14.401506724761102
 20
15.251475720321848
 10
14.35829800582951
 20
15.499050516685797
 10
14.30733409550998
 20
15.74514593117234
 10
14.248665289029049
 20
15.989519097318839
 10
14.182349485415545
 20
16.231928848313835
 10
14.10845213036123
 20
16.47213595499958
 10
14.027046151633805
 20
16.709903361962333
 10
13.93821188710601
 20
16.944996421477423
 10
13.842037005471848
 20
17.177183125078244
 10
13.738616419728157
 20
17.406234332520583
 10
13.628052193506942
 20
17.631923997916374
 10
13.510453440350908
 20
17.85402939281372
 10
13.38593621603155
 20
18.07233132600297
 10
13.25462340401612
 20
18.286614359831972
 10
13.116644594196494
 20
18.496667022817043
 10
12.97213595499958
 20
18.702282018339787
 10
12.821240099005523
 20
18.903256429223813
 10
12.664105942206314
 20
19.099391917989518
 10
12.500888557043677
 20
19.290494922589215
 10
12.331749019371292
 20
19.47637684742951
 10
12.15685424949238
 20
19.65685424949238
 10
11.97637684742951
 20
19.831749019371294
 10
11.790494922589215
 20
20.000888557043677
 10
11.599391917989518
 20
20.164105942206312
 10
11.403256429223813
 20
20.32124009900552
 10
11.202282018339787
 20
20.47213595499958
 10
10.996667022817046
 20
20.616644594196494
 10
10.786614359831972
 20
20.754623404016122
 10
10.57233132600297
 20
20.88593621603155
 10
10.354029392813722
 20
21.010453440350908
 10
10.131923997916374
 20
21.128052193506942
 10
9.906234332520581
 20
21.238616419728157
 10
9.677183125078244
 20
21.34203700547185
 10
9.444996421477425
 20
21.43821188710601
 10
9.209903361962333
 20
21.527046151633805
 10
8.97213595499958
 20
21.60845213036123
 10
8.731928848313835
 20
21.682349485415543
 10
8.489519097318837
 20
21.74866528902905
 10
8.245145931172342
 20
21.80733409550998
 10
7.999050516685798
 20
21.85829800582951
 10
7.751475720321848
 20
21.901506724761102
 10
7.502665868514436
 20
21.93691761051582
 10
7.252866506548115
 20
21.96449571682464
 10
7.002324156234508
 20
21.984213827426174
 10
6.751286072625027
 20
21.996052482925855
 10
6.500000000000001
 20
22.0
  0
LWPOLYLINE
  5
38
330
17
100
AcDbEntity
  8
0
100
AcDbPolyline
 90
51
 70
0
 10
8.5
 20
17.0
 10
8.16
 20
17.0
 10
7.82
 20
17.0
 10
7.48
 20
17.0
 10
7.14
 20
17.0
 10
6.8
 20
17.0
 10
6.46
 20
17.0
 10
6.12
 20
17.0
 10
5.779999999999999
 20
17.0
 10
5.4399999999999995
 20
17.0
 10
5.1
 20
17.0
 10
4.76
 20
17.0
 10
4.42
 20
17.0
 10
4.08
 20
17.0
 10
3.74
 20
17.0
 10
3.4000000000000004
 20
17.0
 10
3.0599999999999996
 20
17.0
 10
2.7199999999999998
 20
17.0
 10
2.38
 20
17.0
 10
2.04
 20
17.0
 10
1.7000000000000002
 20
17.0
 10
1.3600000000000003
 20
17.0
 10
1.0199999999999996
 20
17.0
 10
0.6799999999999997
 20
17.0
 10
0.33999999999999986
 20
17.0
 10
0.0
 20
17.0
 10
-0.33999999999999986
 20
17.0
 10
-0.6799999999999997
 20
17.0
 10
-1.0199999999999996
 20
17.0
 10
-1.3599999999999994
 20
17.0
 10
-1.6999999999999993
 20
17.0
 10
-2.039999999999999
 20
17.0
 10
-2.380000000000001
 20
17.0
 10
-2.7200000000000006
 20
17.0
 10
-3.0600000000000005
 20
17.0
 10
-3.4000000000000004
 20
17.0
 10
-3.74
 20
17.0
 10
-4.08
 20
17.0
 10
-4.42
 20
17.0
 10
-4.76
 20
17.0
 10
-5.1
 20
17.0
 10
-5.4399999999999995
 20
17.0
 10
-5.779999999999999
 20
17.0
 10
-6.119999999999999
 20
17.0
 10
-6.460000000000001
 20
17.0
 10
-6.800000000000001
 20
17.0
 10
-7.140000000000001
 20
17.0
 10
-7.48
 20
17.0
 10
-7.82
 20
17.0
 10
-8.16
 20
17.0
 10
-8.5
 20
17.0
  0
LWPOLYLINE
  5
39
330
17
100
AcDbEntity
  8
0
100
AcDbPolyline
 90
51
 70
0
 10
8.5
 20
17.0
 10
8.531410759078128
 20
16.99950656036573
 10
8.562790519529313
 20
16.998026728428272
 10
8.594108313318515
 20
16.99556196460308
 10
8.625333233564305
 20
16.992114701314478
 10
8.656434465040231
 20
16.987688340595138
 10
8.687381314585725
 20
16.98228725072869
 10
8.718143241396543
 20
16.97591676193875
 10
8.748689887164854
 20
16.96858316112863
 10
8.778991106039228
 20
16.960293685676945
 10
8.809016994374947
 20
16.951056516295154
 10
8.838737920245292
 20
16.940880768954226
 10
8.868124552684678
 20
16.92977648588825
 10
8.89714789063478
 20
16.91775462568398
 10
8.925779291565073
 20
16.90482705246602
 10
8.953990499739547
 20
16.891006524188366
 10
8.981753674101716
 20
16.876306680043864
 10
9.00904141575037
 20
16.860742027003944
 10
9.035826794978997
 20
16.844327925502014
 10
9.062083377852131
 20
16.82708057427456
 10
9.087785252292473
 20
16.809016994374947
 10
9.112907053652977
 20
16.790155012375692
 10
9.13742398974869
 20
16.770513242775788
 10
9.161311865323652
 20
16.75011106963046
 10
9.184547105928688
 20
16.728968627421413
 10
9.207106781186548
 20
16.707106781186546
 10
9.22896862742141
 20
16.68454710592869
 10
9.25011106963046
 20
16.66131186532365
 10
9.27051324277579
 20
16.63742398974869
 10
9.29015501237569
 20
16.612907053652975
 10
9.309016994374947
 20
16.587785252292473
 10
9.327080574274563
 20
16.56208337785213
 10
9.344327925502014
 20
16.535826794978995
 10
9.360742027003944
 20
16.50904141575037
 10
9.376306680043864
 20
16.481753674101714
 10
9.391006524188368
 20
16.453990499739547
 10
9.40482705246602
 20
16.42577929156507
 10
9.417754625683981
 20
16.39714789063478
 10
9.429776485888251
 20
16.368124552684677
 10
9.440880768954225
 20
16.33873792024529
 10
9.451056516295154
 20
16.309016994374947
 10
9.460293685676943
 20
16.27899110603923
 10
9.468583161128631
 20
16.248689887164854
 10
9.475916761938747
 20
16.218143241396543
 10
9.482287250728689
 20
16.187381314585725
 10
9.487688340595138
 20
16.15643446504023
 10
9.492114701314478
 20
16.125333233564305
 10
9.49556196460308
 20
16.094108313318515
 10
9.498026728428272
 20
16.062790519529315
 10
9.499506560365731
 20
16.031410759078128
 10
9.5
 20
16.0
  0
LWPOLYLINE
  5
3A
330
17
100
AcDbEntity
  8
0
100
AcDbPolyline
 90
51
 70
0
 10
6.5
 20
22.0
 10
6.24
 20
22.0
 10
5.98
 20
22.0
 10
5.72
 20
22.0
 10
5.46
 20
22.0
 10
5.2
 20
22.0
 10
4.9399999999999995
 20
22.0
 10
4.68
 20
22.0
 10
4.42
 20
22.0
 10
4.16
 20
22.0
 10
3.9
 20
22.0
 10
3.64
 20
22.0
 10
3.38
 20
22.0
 10
3.12
 20
22.0
 10
2.86
 20
22.0
 10
2.6
 20
22.0
 10
2.34
 20
22.0
 10
2.08
 20
22.0
 10
1.8200000000000003
 20
22.0
 10
1.5599999999999996
 20
22.0
 10
1.2999999999999998
 20
22.0
 10
1.04
 20
22.0
 10
0.7800000000000002
 20
22.0
 10
0.5199999999999996
 20
22.0
 10
0.2599999999999998
 20
22.0
 10
0.0
 20
22.0
 10
-0.2599999999999998
 20
22.0
 10
-0.5199999999999996
 20
22.0
 10
-0.7800000000000002
 20
22.0
 10
-1.04
 20
22.0
 10
-1.2999999999999998
 20
22.0
 10
-1.5600000000000005
 20
22.0
 10
-1.8200000000000003
 20
22.0
 10
-2.08
 20
22.0
 10
-2.34
 20
22.0
 10
-2.5999999999999996
 20
22.0
 10
-2.8599999999999994
 20
22.0
 10
-3.119999999999999
 20
22.0
 10
-3.380000000000001
 20
22.0
 10
-3.6400000000000006
 20
22.0
 10
-3.9000000000000004
 20
22.0
 10
-4.16
 20
22.0
 10
-4.42
 20
22.0
 10
-4.68
 20
22.0
 10
-4.9399999999999995
 20
22.0
 10
-5.199999999999999
 20
22.0
 10
-5.460000000000001
 20
22.0
 10
-5.720000000000001
 20
22.0
 10
-5.98
 20
22.0
 10
-6.24
 20
22.0
 10
-6.5
 20
22.0
  0
LWPOLYLINE
  5
3B
330
17
100
AcDbEntity
  8
0
100
AcDbPolyline
 90
51
 70
0
 10
-6.5
 20
22.0
 10
-6.751286072625026
 20
21.996052482925855
 10
-7.002324156234507
 20
21.984213827426174
 10
-7.252866506548115
 20
21.96449571682464
 10
-7.502665868514434
 20
21.936917610515824
 10
-7.751475720321847
 20
21.901506724761102
 10
-7.999050516685797
 20
21.85829800582951
 10
-8.24514593117234
 20
21.80733409550998
 10
-8.489519097318839
 20
21.74866528902905
 10
-8.731928848313835
 20
21.682349485415543
 10
-8.97213595499958
 20
21.60845213036123
 10
-9.209903361962331
 20
21.527046151633805
 10
-9.444996421477423
 20
21.43821188710601
 10
-9.677183125078244
 20
21.34203700547185
 10
-9.906234332520581
 20
21.238616419728157
 10
-10.131923997916374
 20
21.128052193506942
 10
-10.354029392813722
 20
21.010453440350908
 10
-10.57233132600297
 20
20.88593621603155
 10
-10.786614359831972
 20
20.754623404016122
 10
-10.996667022817045
 20
20.616644594196494
 10
-11.202282018339785
 20
20.47213595499958
 10
-11.403256429223813
 20
20.32124009900552
 10
-11.599391917989518
 20
20.164105942206312
 10
-11.790494922589215
 20
20.000888557043677
 10
-11.97637684742951
 20
19.831749019371294
 10
-12.15685424949238
 20
19.65685424949238
 10
-12.331749019371292
 20
19.47637684742951
 10
-12.500888557043677
 20
19.290494922589215
 10
-12.664105942206314
 20
19.099391917989518
 10
-12.821240099005523
 20
18.903256429223813
 10
-12.97213595499958
 20
18.702282018339787
 10
-13.116644594196494
 20
18.496667022817046
 10
-13.25462340401612
 20
18.286614359831972
 10
-13.38593621603155
 20
18.07233132600297
 10
-13.51045344035091
 20
17.85402939281372
 10
-13.628052193506942
 20
17.631923997916374
 10
-13.738616419728157
 20
17.406234332520583
 10
-13.842037005471848
 20
17.177183125078244
 10
-13.93821188710601
 20
16.944996421477423
 10
-14.027046151633805
 20
16.709903361962333
 10
-14.10845213036123
 20
16.47213595499958
 10
-14.182349485415543
 20
16.231928848313835
 10
-14.248665289029049
 20
15.989519097318837
 10
-14.30733409550998
 20
15.745145931172342
 10
-14.358298005829509
 20
15.499050516685799
 10
-14.401506724761102
 20
15.251475720321848
 10
-14.436917610515822
 20
15.002665868514436
 10
-14.46449571682464
 20
14.752866506548115
 10
-14.484213827426172
 20
14.502324156234508
 10
-14.496052482925853
 20
14.251286072625026
 10
-14.5
 20
14.0
  0
LWPOLYLINE
  5
3C
330
17
100
AcDbEntity
  8
0
100
AcDbPolyline
 90
51
 70
0
 10
-14.5
 20
12.210929330165001
 10
-14.5
 20
12.246710743561701
 10
-14.5
 20
12.282492156958401
 10
-14.5
 20
12.318273570355101
 10
-14.5
 20
12.354054983751801
 10
-14.5
 20
12.389836397148501
 10
-14.5
 20
12.425617810545202
 10
-14.5
 20
12.461399223941902
 10
-14.5
 20
12.497180637338602
 10
-14.5
 20
12.532962050735302
 10
-14.5
 20
12.568743464132002
 10
-14.5
 20
12.6045248775287
 10
-14.5
 20
12.640306290925402
 10
-14.5
 20
12.6760877043221
 10
-14.5
 20
12.711869117718802
 10
-14.5
 20
12.7476505311155
 10
-14.5
 20
12.7834319445122
 10
-14.5
 20
12.8192133579089
 10
-14.5
 20
12.8549947713056
 10
-14.5
 20
12.8907761847023
 10
-14.5
 20
12.926557598099
 10
-14.5
 20
12.9623390114957
 10
-14.5
 20
12.9981204248924
 10
-14.5
 20
13.0339018382891
 10
-14.5
 20
13.0696832516858
 10
-14.5
 20
13.1054646650825
 10
-14.5
 20
13.1412460784792
 10
-14.5
 20
13.1770274918759
 10
-14.5
 20
13.2128089052726
 10
-14.5
 20
13.2485903186693
 10
-14.5
 20
13.284371732066
 10
-14.5
 20
13.320153145462701
 10
-14.5
 20
13.355934558859401
 10
-14.5
 20
13.391715972256101
 10
-14.5
 20
13.427497385652801
 10
-14.5
 20
13.463278799049501
 10
-14.5
 20
13.4990602124462
 10
-14.5
 20
13.534841625842901
 10
-14.5
 20
13.5706230392396
 10
-14.5
 20
13.606404452636301
 10
-14.5
 20
13.642185866033
 10
-14.5
 20
13.677967279429701
 10
-14.5
 20
13.7137486928264
 10
-14.5
 20
13.7495301062231
 10
-14.5
 20
13.7853115196198
 10
-14.5
 20
13.8210929330165
 10
-14.5
 20
13.8568743464132
 10
-14.5
 20
13.8926557598099
 10
-14.5
 20
13.9284371732066
 10
-14.5
 20
13.9642185866033
 10
-14.5
 20
14.0
  0
LWPOLYLINE
  5
3D
330
17
100
AcDbEntity
  8
0
100
AcDbPolyline
 90
51
 70
0
 10
-9.5
 20
12.210929330165001
 10
-9.5
 20
12.2867107435617
 10
-9.5
 20
12.362492156958401
 10
-9.5
 20
12.4382735703551
 10
-9.5
 20
12.514054983751802
 10
-9.5
 20
12.5898363971485
 10
-9.5
 20
12.665617810545202
 10
-9.5
 20
12.741399223941901
 10
-9.5
 20
12.817180637338602
 10
-9.5
 20
12.892962050735301
 10
-9.5
 20
12.968743464132
 10
-9.5
 20
13.044524877528701
 10
-9.5
 20
13.1203062909254
 10
-9.5
 20
13.196087704322101
 10
-9.5
 20
13.2718691177188
 10
-9.5
 20
13.347650531115502
 10
-9.5
 20
13.4234319445122
 10
-9.5
 20
13.4992133579089
 10
-9.5
 20
13.574994771305601
 10
-9.5
 20
13.650776184702302
 10
-9.5
 20
13.726557598099001
 10
-9.5
 20
13.8023390114957
 10
-9.5
 20
13.878120424892401
 10
-9.5
 20
13.9539018382891
 10
-9.5
 20
14.0296832516858
 10
-9.5
 20
14.1054646650825
 10
-9.5
 20
14.181246078479202
 10
-9.5
 20
14.2570274918759
 10
-9.5
 20
14.3328089052726
 10
-9.5
 20
14.408590318669301
 10
-9.5
 20
14.484371732066
 10
-9.5
 20
14.560153145462701
 10
-9.5
 20
14.6359345588594
 10
-9.5
 20
14.711715972256101
 10
-9.5
 20
14.7874973856528
 10
-9.5
 20
14.8632787990495
 10
-9.5
 20
14.9390602124462
 10
-9.5
 20
15.0148416258429
 10
-9.5
 20
15.0906230392396
 10
-9.5
 20
15.1664044526363
 10
-9.5
 20
15.242185866033001
 10
-9.5
 20
15.3179672794297
 10
-9.5
 20
15.3937486928264
 10
-9.5
 20
15.4695301062231
 10
-9.5
 20
15.5453115196198
 10
-9.5
 20
15.6210929330165
 10
-9.5
 20
15.6968743464132
 10
-9.5
 20
15.7726557598099
 10
-9.5
 20
15.8484371732066
 10
-9.5
 20
15.924218586603299
 10
-9.5
 20
16.0
  0
LWPOLYLINE
  5
3E
330
17
100
AcDbEntity
  8
0
100
AcDbPolyline
 90
51
 70
0
 10
-9.5
 20
16.0
 10
-9.499506560365731
 20
16.031410759078128
 10
-9.498026728428272
 20
16.06279051952931
 10
-9.49556196460308
 20
16.094108313318515
 10
-9.492114701314478
 20
16.125333233564305
 10
-9.487688340595138
 20
16.15643446504023
 10
-9.482287250728689
 20
16.187381314585725
 10
-9.475916761938748
 20
16.218143241396543
 10
-9.468583161128631
 20
16.248689887164854
 10
-9.460293685676943
 20
16.27899110603923
 10
-9.451056516295154
 20
16.309016994374947
 10
-9.440880768954225
 20
16.33873792024529
 10
-9.429776485888251
 20
16.368124552684677
 10
-9.417754625683981
 20
16.39714789063478
 10
-9.40482705246602
 20
16.42577929156507
 10
-9.391006524188368
 20
16.453990499739547
 10
-9.376306680043864
 20
16.481753674101714
 10
-9.360742027003944
 20
16.50904141575037
 10
-9.344327925502014
 20
16.535826794979
 10
-9.327080574274563
 20
16.56208337785213
 10
-9.309016994374947
 20
16.587785252292473
 10
-9.29015501237569
 20
16.612907053652975
 10
-9.27051324277579
 20
16.63742398974869
 10
-9.25011106963046
 20
16.66131186532365
 10
-9.22896862742141
 20
16.68454710592869
 10
-9.207106781186548
 20
16.707106781186546
 10
-9.184547105928688
 20
16.728968627421413
 10
-9.161311865323652
 20
16.75011106963046
 10
-9.13742398974869
 20
16.770513242775788
 10
-9.112907053652977
 20
16.790155012375692
 10
-9.087785252292473
 20
16.809016994374947
 10
-9.062083377852131
 20
16.82708057427456
 10
-9.035826794978997
 20
16.844327925502014
 10
-9.00904141575037
 20
16.860742027003944
 10
-8.981753674101714
 20
16.876306680043864
 10
-8.953990499739547
 20
16.891006524188366
 10
-8.925779291565073
 20
16.90482705246602
 10
-8.89714789063478
 20
16.91775462568398
 10
-8.868124552684678
 20
16.92977648588825
 10
-8.838737920245292
 20
16.940880768954226
 10
-8.809016994374947
 20
16.951056516295154
 10
-8.77899110603923
 20
16.960293685676945
 10
-8.748689887164854
 20
16.96858316112863
 10
-8.718143241396543
 20
16.97591676193875
 10
-8.687381314585725
 20
16.98228725072869
 10
-8.656434465040231
 20
16.987688340595138
 10
-8.625333233564305
 20
16.992114701314478
 10
-8.594108313318515
 20
16.99556196460308
 10
-8.562790519529313
 20
16.998026728428272
 10
-8.531410759078128
 20
16.99950656036573
 10
-8.5
 20
17.0
  0
LWPOLYLINE
  5
3F
330
17
100
AcDbEntity
  8
0
100
AcDbPolyline
 90
51
 70
0
 10
-9.5
 20
12.210929330165001
 10
-9.5
 20
12.20212642401554
 10
-9.5
 20
12.19332351786608
 10
-9.5
 20
12.184520611716621
 10
-9.5
 20
12.168219801004364
 10
-9.5
 20
12.141921784208376
 10
-9.5
 20
12.115623767412389
 10
-9.5
 20
12.089325750616402
 10
-9.5
 20
12.048315392825971
 10
-9.5
 20
12.004852978203132
 10
-9.5
 20
11.961390563580295
 10
-9.5
 20
11.91318019674446
 10
-9.5
 20
11.853099949376132
 10
-9.5
 20
11.793019702007804
 10
-9.5
 20
11.732939454639476
 10
-9.5
 20
11.661529001002961
 10
-9.5
 20
11.585586464859173
 10
-9.5
 20
11.509643928715382
 10
-9.5
 20
11.43157178295437
 10
-9.5
 20
11.340721979490015
 10
-9.5
 20
11.249872176025658
 10
-9.5
 20
11.159022372561301
 10
-9.5
 20
11.060306981479965
 10
-9.5
 20
10.955692399685889
 10
-9.5
 20
10.851077817891815
 10
-9.5
 20
10.746463236097739
 10
-9.5
 20
10.6293994650388
 10
-9.5
 20
10.512335693979859
 10
-9.5
 20
10.39527192292092
 10
-9.5
 20
10.27350370425263
 10
-9.5
 20
10.145462888771874
 10
-9.5
 20
10.017422073291119
 10
-9.5
 20
9.889381257810362
 10
-9.5
 20
9.753311707864349
 10
-9.5
 20
9.615904035507459
 10
-9.5
 20
9.478496363150569
 10
-9.5
 20
9.338906154887834
 10
-9.5
 20
9.193859606860487
 10
-9.5
 20
9.04881305883314
 10
-9.5
 20
8.903766510805793
 10
-9.5
 20
8.754566511941983
 10
-9.5
 20
8.60370513274359
 10
-9.5
 20
8.452843753545196
 10
-9.5
 20
8.301422708375972
 10
-9.5
 20
8.146643667381761
 10
-9.5
 20
7.991864626387553
 10
-9.5
 20
7.8370855853933445
 10
-9.5
 20
7.681180129798893
 10
-9.5
 20
7.524429863254263
 10
-9.5
 20
7.367679596709632
 10
-9.5
 20
7.210929330165
  0
LWPOLYLINE
  5
40
330
17
100
AcDbEntity
  8
0
100
AcDbPolyline
 90
51
 70
0
 10
-9.5
 20
0.0
 10
-9.5
 20
0.1442185866033
 10
-9.5
 20
0.2884371732066
 10
-9.5
 20
0.4326557598099
 10
-9.5
 20
0.5768743464132
 10
-9.5
 20
0.7210929330165
 10
-9.5
 20
0.8653115196198
 10
-9.5
 20
1.0095301062231001
 10
-9.5
 20
1.1537486928264
 10
-9.5
 20
1.2979672794297
 10
-9.5
 20
1.442185866033
 10
-9.5
 20
1.5864044526363
 10
-9.5
 20
1.7306230392396
 10
-9.5
 20
1.8748416258429002
 10
-9.5
 20
2.0190602124462003
 10
-9.5
 20
2.1632787990495
 10
-9.5
 20
2.3074973856528
 10
-9.5
 20
2.4517159722561
 10
-9.5
 20
2.5959345588594
 10
-9.5
 20
2.7401531454627004
 10
-9.5
 20
2.884371732066
 10
-9.5
 20
3.0285903186693
 10
-9.5
 20
3.1728089052726
 10
-9.5
 20
3.3170274918759004
 10
-9.5
 20
3.4612460784792
 10
-9.5
 20
3.6054646650825
 10
-9.5
 20
3.7496832516858003
 10
-9.5
 20
3.8939018382891004
 10
-9.5
 20
4.0381204248924005
 10
-9.5
 20
4.1823390114957
 10
-9.5
 20
4.326557598099
 10
-9.5
 20
4.4707761847023
 10
-9.5
 20
4.6149947713056
 10
-9.5
 20
4.7592133579089
 10
-9.5
 20
4.9034319445122
 10
-9.5
 20
5.0476505311155
 10
-9.5
 20
5.1918691177188
 10
-9.5
 20
5.3360877043221
 10
-9.5
 20
5.480306290925401
 10
-9.5
 20
5.6245248775287005
 10
-9.5
 20
5.768743464132
 10
-9.5
 20
5.9129620507353
 10
-9.5
 20
6.0571806373386
 10
-9.5
 20
6.201399223941901
 10
-9.5
 20
6.3456178105452
 10
-9.5
 20
6.4898363971485
 10
-9.5
 20
6.634054983751801
 10
-9.5
 20
6.7782735703551005
 10
-9.5
 20
6.9224921569584
 10
-9.5
 20
7.066710743561701
 10
-9.5
 20
7.210929330165
  0
LWPOLYLINE
  5
41
330
17
100
AcDbEntity
  8
0
100
AcDbPolyline
 90
51
 70
0
 10
-14.5
 20
0.0
 10
-14.5
 20
0.1442185866033
 10
-14.5
 20
0.2884371732066
 10
-14.5
 20
0.4326557598099
 10
-14.5
 20
0.5768743464132
 10
-14.5
 20
0.7210929330165
 10
-14.5
 20
0.8653115196198
 10
-14.5
 20
1.0095301062231001
 10
-14.5
 20
1.1537486928264
 10
-14.5
 20
1.2979672794297
 10
-14.5
 20
1.442185866033
 10
-14.5
 20
1.5864044526363
 10
-14.5
 20
1.7306230392396
 10
-14.5
 20
1.8748416258429002
 10
-14.5
 20
2.0190602124462003
 10
-14.5
 20
2.1632787990495
 10
-14.5
 20
2.3074973856528
 10
-14.5
 20
2.4517159722561
 10
-14.5
 20
2.5959345588594
 10
-14.5
 20
2.7401531454627004
 10
-14.5
 20
2.884371732066
 10
-14.5
 20
3.0285903186693
 10
-14.5
 20
3.1728089052726
 10
-14.5
 20
3.3170274918759004
 10
-14.5
 20
3.4612460784792
 10
-14.5
 20
3.6054646650825
 10
-14.5
 20
3.7496832516858003
 10
-14.5
 20
3.8939018382891004
 10
-14.5
 20
4.0381204248924005
 10
-14.5
 20
4.1823390114957
 10
-14.5
 20
4.326557598099
 10
-14.5
 20
4.4707761847023
 10
-14.5
 20
4.6149947713056
 10
-14.5
 20
4.7592133579089
 10
-14.5
 20
4.9034319445122
 10
-14.5
 20
5.0476505311155
 10
-14.5
 20
5.1918691177188
 10
-14.5
 20
5.3360877043221
 10
-14.5
 20
5.480306290925401
 10
-14.5
 20
5.6245248775287005
 10
-14.5
 20
5.768743464132
 10
-14.5
 20
5.9129620507353
 10
-14.5
 20
6.0571806373386
 10
-14.5
 20
6.201399223941901
 10
-14.5
 20
6.3456178105452
 10
-14.5
 20
6.4898363971485
 10
-14.5
 20
6.634054983751801
 10
-14.5
 20
6.7782735703551005
 10
-14.5
 20
6.9224921569584
 10
-14.5
 20
7.066710743561701
 10
-14.5
 20
7.210929330165
  0
LWPOLYLINE
  5
42
330
17
100
AcDbEntity
  8
0
100
AcDbPolyline
 90
51
 70
0
 10
-14.5
 20
7.210929330165
 10
-14.5
 20
7.367679596709632
 10
-14.5
 20
7.524429863254262
 10
-14.5
 20
7.681180129798894
 10
-14.5
 20
7.837085585393344
 10
-14.5
 20
7.991864626387553
 10
-14.5
 20
8.146643667381763
 10
-14.5
 20
8.301422708375972
 10
-14.5
 20
8.452843753545196
 10
-14.5
 20
8.60370513274359
 10
-14.5
 20
8.754566511941983
 10
-14.5
 20
8.903766510805792
 10
-14.5
 20
9.04881305883314
 10
-14.5
 20
9.193859606860487
 10
-14.5
 20
9.338906154887836
 10
-14.5
 20
9.47849636315057
 10
-14.5
 20
9.61590403550746
 10
-14.5
 20
9.75331170786435
 10
-14.5
 20
9.889381257810363
 10
-14.5
 20
10.017422073291119
 10
-14.5
 20
10.145462888771874
 10
-14.5
 20
10.27350370425263
 10
-14.5
 20
10.39527192292092
 10
-14.5
 20
10.512335693979859
 10
-14.5
 20
10.6293994650388
 10
-14.5
 20
10.746463236097739
 10
-14.5
 20
10.851077817891813
 10
-14.5
 20
10.955692399685889
 10
-14.5
 20
11.060306981479965
 10
-14.5
 20
11.159022372561303
 10
-14.5
 20
11.249872176025658
 10
-14.5
 20
11.340721979490015
 10
-14.5
 20
11.43157178295437
 10
-14.5
 20
11.509643928715382
 10
-14.5
 20
11.585586464859173
 10
-14.5
 20
11.661529001002961
 10
-14.5
 20
11.732939454639476
 10
-14.5
 20
11.793019702007804
 10
-14.5
 20
11.853099949376132
 10
-14.5
 20
11.91318019674446
 10
-14.5
 20
11.961390563580295
 10
-14.5
 20
12.004852978203132
 10
-14.5
 20
12.048315392825971
 10
-14.5
 20
12.089325750616402
 10
-14.5
 20
12.115623767412389
 10
-14.5
 20
12.141921784208375
 10
-14.5
 20
12.168219801004362
 10
-14.5
 20
12.18452061171662
 10
-14.5
 20
12.19332351786608
 10
-14.5
 20
12.20212642401554
 10
-14.5
 20
12.210929330165001
  0
LWPOLYLINE
  5
43
330
17
100
AcDbEntity
  8
0
100
AcDbPolyline
 90
51
 70
0
 10
-9.5
 20
0.0
 10
-9.6
 20
0.0
 10
-9.7
 20
0.0
 10
-9.8
 20
0.0
 10
-9.9
 20
0.0
 10
-10.0
 20
0.0
 10
-10.1
 20
0.0
 10
-10.2
 20
0.0
 10
-10.3
 20
0.0
 10
-10.4
 20
0.0
 10
-10.5
 20
0.0
 10
-10.6
 20
0.0
 10
-10.7
 20
0.0
 10
-10.8
 20
0.0
 10
-10.9
 20
0.0
 10
-11.0
 20
0.0
 10
-11.1
 20
0.0
 10
-11.2
 20
0.0
 10
-11.3
 20
0.0
 10
-11.4
 20
0.0
 10
-11.5
 20
0.0
 10
-11.6
 20
0.0
 10
-11.7
 20
0.0
 10
-11.8
 20
0.0
 10
-11.9
 20
0.0
 10
-12.0
 20
0.0
 10
-12.1
 20
0.0
 10
-12.2
 20
0.0
 10
-12.3
 20
0.0
 10
-12.4
 20
0.0
 10
-12.5
 20
0.0
 10
-12.6
 20
0.0
 10
-12.7
 20
0.0
 10
-12.8
 20
0.0
 10
-12.9
 20
0.0
 10
-13.0
 20
0.0
 10
-13.1
 20
0.0
 10
-13.2
 20
0.0
 10
-13.3
 20
0.0
 10
-13.4
 20
0.0
 10
-13.5
 20
0.0
 10
-13.6
 20
0.0
 10
-13.7
 20
0.0
 10
-13.8
 20
0.0
 10
-13.9
 20
0.0
 10
-14.0
 20
0.0
 10
-14.1
 20
0.0
 10
-14.2
 20
0.0
 10
-14.3
 20
0.0
 10
-14.4
 20
0.0
 10
-14.5
 20
0.0
  0
LWPOLYLINE
  5
44
330
17
100
AcDbEntity
  8
0
100
AcDbPolyline
 90
51
 70
0
 10
9.5
 20
0.0
 10
9.6
 20
0.0
 10
9.7
 20
0.0
 10
9.8
 20
0.0
 10
9.9
 20
0.0
 10
10.0
 20
0.0
 10
10.1
 20
0.0
 10
10.2
 20
0.0
 10
10.3
 20
0.0
 10
10.4
 20
0.0
 10
10.5
 20
0.0
 10
10.6
 20
0.0
 10
10.7
 20
0.0
 10
10.8
 20
0.0
 10
10.9
 20
0.0
 10
11.0
 20
0.0
 10
11.1
 20
0.0
 10
11.2
 20
0.0
 10
11.3
 20
0.0
 10
11.4
 20
0.0
 10
11.5
 20
0.0
 10
11.6
 20
0.0
 10
11.7
 20
0.0
 10
11.8
 20
0.0
 10
11.9
 20
0.0
 10
12.0
 20
0.0
 10
12.1
 20
0.0
 10
12.2
 20
0.0
 10
12.3
 20
0.0
 10
12.4
 20
0.0
 10
12.5
 20
0.0
 10
12.6
 20
0.0
 10
12.7
 20
0.0
 10
12.8
 20
0.0
 10
12.9
 20
0.0
 10
13.0
 20
0.0
 10
13.1
 20
0.0
 10
13.2
 20
0.0
 10
13.3
 20
0.0
 10
13.4
 20
0.0
 10
13.5
 20
0.0
 10
13.6
 20
0.0
 10
13.7
 20
0.0
 10
13.8
 20
0.0
 10
13.9
 20
0.0
 10
14.0
 20
0.0
 10
14.1
 20
0.0
 10
14.2
 20
0.0
 10
14.3
 20
0.0
 10
14.4
 20
0.0
 10
14.5
 20
0.0
  0
ENDSEC
  0
SECTION
  2
OBJECTS
  0
DICTIONARY
  5
A
330
0
100
AcDbDictionary
280
0
281
1
  3
ACAD_COLOR
350
B
  3
ACAD_GROUP
350
C
  3
ACAD_LAYOUT
350
D
  3
ACAD_MATERIAL
350
E
  3
ACAD_MLEADERSTYLE
350
F
  3
ACAD_MLINESTYLE
350
10
  3
ACAD_PLOTSETTINGS
350
11
  3
ACAD_PLOTSTYLENAME
350
12
  3
ACAD_SCALELIST
350
14
  3
ACAD_TABLESTYLE
350
15
  3
ACAD_VISUALSTYLE
350
16
  3
EZDXF_META
350
2D
  0
DICTIONARY
  5
B
330
A
100
AcDbDictionary
280
0
281
1
  0
DICTIONARY
  5
C
330
A
100
AcDbDictionary
280
0
281
1
  0
DICTIONARY
  5
D
330
A
100
AcDbDictionary
280
0
281
1
  3
Model
350
1A
  3
Layout1
350
1E
  0
DICTIONARY
  5
E
330
A
100
AcDbDictionary
280
0
281
1
  3
ByBlock
350
1F
  3
ByLayer
350
20
  3
Global
350
21
  0
DICTIONARY
  5
F
330
A
100
AcDbDictionary
280
0
281
1
  3
Standard
350
2C
  0
DICTIONARY
  5
10
330
A
100
AcDbDictionary
280
0
281
1
  3
Standard
350
22
  0
DICTIONARY
  5
11
330
A
100
AcDbDictionary
280
0
281
1
  0
ACDBDICTIONARYWDFLT
  5
12
330
A
100
AcDbDictionary
280
0
281
1
  3
Normal
350
13
100
AcDbDictionaryWithDefault
340
13
  0
ACDBPLACEHOLDER
  5
13
330
12
  0
DICTIONARY
  5
14
330
A
100
AcDbDictionary
280
0
281
1
  0
DICTIONARY
  5
15
330
A
100
AcDbDictionary
280
0
281
1
  0
DICTIONARY
  5
16
330
A
100
AcDbDictionary
280
0
281
1
  0
LAYOUT
  5
1A
330
D
100
AcDbPlotSettings
  1

  2
Adobe PDF
  4
A3
  6

 40
7.5
 41
20.0
 42
7.5
 43
20.0
 44
420.0
 45
297.0
 46
0.0
 47
0.0
 48
0.0
 49
0.0
140
0.0
141
0.0
142
1.0
143
1.0
 70
1024
 72
1
 73
0
 74
5
  7

 75
16
 76
0
 77
2
 78
300
147
1.0
148
0.0
149
0.0
100
AcDbLayout
  1
Model
 70
1
 71
0
 10
0.0
 20
0.0
 11
420.0
 21
297.0
 12
0.0
 22
0.0
 32
0.0
 14
1e+20
 24
1e+20
 34
1e+20
 15
-1e+20
 25
-1e+20
 35
-1e+20
146
0.0
 13
0.0
 23
0.0
 33
0.0
 16
1.0
 26
0.0
 36
0.0
 17
0.0
 27
1.0
 37
0.0
 76
1
330
17
  0
LAYOUT
  5
1E
330
D
100
AcDbPlotSettings
  1

  2
Adobe PDF
  4
A3
  6

 40
7.5
 41
20.0
 42
7.5
 43
20.0
 44
420.0
 45
297.0
 46
0.0
 47
0.0
 48
0.0
 49
0.0
140
0.0
141
0.0
142
1.0
143
1.0
 70
0
 72
1
 73
0
 74
5
  7

 75
16
 76
0
 77
2
 78
300
147
1.0
148
0.0
149
0.0
100
AcDbLayout
  1
Layout1
 70
1
 71
1
 10
0.0
 20
0.0
 11
420.0
 21
297.0
 12
0.0
 22
0.0
 32
0.0
 14
1e+20
 24
1e+20
 34
1e+20
 15
-1e+20
 25
-1e+20
 35
-1e+20
146
0.0
 13
0.0
 23
0.0
 33
0.0
 16
1.0
 26
0.0
 36
0.0
 17
0.0
 27
1.0
 37
0.0
 76
1
330
1B
  0
MATERIAL
  5
1F
102
{ACAD_REACTORS
330
E
102
}
330
E
100
AcDbMaterial
  1
ByBlock
  2

 70
0
 40
1.0
 71
1
 41
1.0
 91
-1023410177
 42
1.0
 72
1
  3

 73
1
 74
1
 75
1
 44
0.5
 73
0
 45
1.0
 46
1.0
 77
1
  4

 78
1
 79
1
170
1
 48
1.0
171
1
  6

172
1
173
1
174
1
140
1.0
141
1.0
175
1
  7

176
1
177
1
178
1
143
1.0
179
1
  8

270
1
271
1
272
1
145
1.0
146
1.0
273
1
  9

274
1
275
1
276
1
 42
1.0
 72
1
  3

 73
1
 74
1
 75
1
 94
63
  0
MATERIAL
  5
20
102
{ACAD_REACTORS
330
E
102
}
330
E
100
AcDbMaterial
  1
ByLayer
  2

 70
0
 40
1.0
 71
1
 41
1.0
 91
-1023410177
 42
1.0
 72
1
  3

 73
1
 74
1
 75
1
 44
0.5
 73
0
 45
1.0
 46
1.0
 77
1
  4

 78
1
 79
1
170
1
 48
1.0
171
1
  6

172
1
173
1
174
1
140
1.0
141
1.0
175
1
  7

176
1
177
1
178
1
143
1.0
179
1
  8

270
1
271
1
272
1
145
1.0
146
1.0
273
1
  9

274
1
275
1
276
1
 42
1.0
 72
1
  3

 73
1
 74
1
 75
1
 94
63
  0
MATERIAL
  5
21
102
{ACAD_REACTORS
330
E
102
}
330
E
100
AcDbMaterial
  1
Global
  2

 70
0
 40
1.0
 71
1
 41
1.0
 91
-1023410177
 42
1.0
 72
1
  3

 73
1
 74
1
 75
1
 44
0.5
 73
0
 45
1.0
 46
1.0
 77
1
  4

 78
1
 79
1
170
1
 48
1.0
171
1
  6

172
1
173
1
174
1
140
1.0
141
1.0
175
1
  7

176
1
177
1
178
1
143
1.0
179
1
  8

270
1
271
1
272
1
145
1.0
146
1.0
273
1
  9

274
1
275
1
276
1
 42
1.0
 72
1
  3

 73
1
 74
1
 75
1
 94
63
  0
MLINESTYLE
  5
22
102
{ACAD_REACTORS
330
10
102
}
330
10
100
AcDbMlineStyle
  2
Standard
 70
0
  3

 62
256
 51
90.0
 52
90.0
 71
2
 49
0.5
 62
256
  6
BYLAYER
 49
-0.5
 62
256
  6
BYLAYER
  0
MLEADERSTYLE
  5
2C
102
{ACAD_REACTORS
330
F
102
}
330
F
100
AcDbMLeaderStyle
179
2
170
2
171
1
172
0
 90
2
 40
0.0
 41
0.0
173
1
 91
-1056964608
 92
-2
290
1
 42
2.0
291
1
 43
8.0
  3
Standard
 44
4.0
300

342
29
174
1
175
1
176
0
178
1
 93
-1056964608
 45
4.0
292
0
297
0
 46
4.0
 94
-1056964608
 47
1.0
 49
1.0
140
1.0
294
1
141
0.0
177
0
142
1.0
295
0
296
0
143
3.75
271
0
272
9
273
9
  0
DICTIONARY
  5
2D
330
A
100
AcDbDictionary
281
1
  3
CREATED_BY_EZDXF
350
2E
  3
WRITTEN_BY_EZDXF
350
47
  0
DICTIONARYVAR
  5
2E
330
2D
100
DictionaryVariables
280
0
  1
1.0.3 @ 2025-05-29T09:41:25.801920+00:00
  0
DICTIONARYVAR
  5
47
330
2D
100
DictionaryVariables
280
0
  1
1.0.3 @ 2025-05-29T09:41:25.807519+00:00
  0
ENDSEC
  0
EOF
