  0
SECTION
  2
HEADER
  9
$ACADVER
  1
AC1027
  9
$ACADMAINTVER
 70
105
  9
$DWGCODEPAGE
  3
ANSI_1252
  9
$LASTSAVEDBY
  1
ezdxf
  9
$REQUIREDVERSIONS
160
0
  9
$INSBASE
 10
0.0
 20
0.0
 30
0.0
  9
$EXTMIN
 10
1e+20
 20
1e+20
 30
1e+20
  9
$EXTMAX
 10
-1e+20
 20
-1e+20
 30
-1e+20
  9
$LIMMIN
 10
0.0
 20
0.0
  9
$LIMMAX
 10
420.0
 20
297.0
  9
$ORTHOMODE
 70
0
  9
$REGENMODE
 70
1
  9
$FILLMODE
 70
1
  9
$QTEXTMODE
 70
0
  9
$MIRRTEXT
 70
1
  9
$LTSCALE
 40
1.0
  9
$ATTMODE
 70
1
  9
$TEXTSIZE
 40
2.5
  9
$TRACEWID
 40
1.0
  9
$TEXTSTYLE
  7
Standard
  9
$CLAYER
  8
0
  9
$CELTYPE
  6
ByLayer
  9
$CECOLOR
 62
256
  9
$CELTSCALE
 40
1.0
  9
$DISPSILH
 70
0
  9
$DIMSCALE
 40
1.0
  9
$DIMASZ
 40
2.5
  9
$DIMEXO
 40
0.625
  9
$DIMDLI
 40
3.75
  9
$DIMRND
 40
0.0
  9
$DIMDLE
 40
0.0
  9
$DIMEXE
 40
1.25
  9
$DIMTP
 40
0.0
  9
$DIMTM
 40
0.0
  9
$DIMTXT
 40
2.5
  9
$DIMCEN
 40
2.5
  9
$DIMTSZ
 40
0.0
  9
$DIMTOL
 70
0
  9
$DIMLIM
 70
0
  9
$DIMTIH
 70
0
  9
$DIMTOH
 70
0
  9
$DIMSE1
 70
0
  9
$DIMSE2
 70
0
  9
$DIMTAD
 70
1
  9
$DIMZIN
 70
8
  9
$DIMBLK
  1

  9
$DIMASO
 70
1
  9
$DIMSHO
 70
1
  9
$DIMPOST
  1

  9
$DIMAPOST
  1

  9
$DIMALT
 70
0
  9
$DIMALTD
 70
3
  9
$DIMALTF
 40
0.03937007874
  9
$DIMLFAC
 40
1.0
  9
$DIMTOFL
 70
1
  9
$DIMTVP
 40
0.0
  9
$DIMTIX
 70
0
  9
$DIMSOXD
 70
0
  9
$DIMSAH
 70
0
  9
$DIMBLK1
  1

  9
$DIMBLK2
  1

  9
$DIMSTYLE
  2
ISO-25
  9
$DIMCLRD
 70
0
  9
$DIMCLRE
 70
0
  9
$DIMCLRT
 70
0
  9
$DIMTFAC
 40
1.0
  9
$DIMGAP
 40
0.625
  9
$DIMJUST
 70
0
  9
$DIMSD1
 70
0
  9
$DIMSD2
 70
0
  9
$DIMTOLJ
 70
0
  9
$DIMTZIN
 70
8
  9
$DIMALTZ
 70
0
  9
$DIMALTTZ
 70
0
  9
$DIMUPT
 70
0
  9
$DIMDEC
 70
2
  9
$DIMTDEC
 70
2
  9
$DIMALTU
 70
2
  9
$DIMALTTD
 70
3
  9
$DIMTXSTY
  7
Standard
  9
$DIMAUNIT
 70
0
  9
$DIMADEC
 70
0
  9
$DIMALTRND
 40
0.0
  9
$DIMAZIN
 70
0
  9
$DIMDSEP
 70
44
  9
$DIMATFIT
 70
3
  9
$DIMFRAC
 70
0
  9
$DIMLDRBLK
  1

  9
$DIMLUNIT
 70
2
  9
$DIMLWD
 70
-2
  9
$DIMLWE
 70
-2
  9
$DIMTMOVE
 70
0
  9
$DIMFXL
 40
1.0
  9
$DIMFXLON
 70
0
  9
$DIMJOGANG
 40
0.785398163397
  9
$DIMTFILL
 70
0
  9
$DIMTFILLCLR
 70
0
  9
$DIMARCSYM
 70
0
  9
$DIMLTYPE
  6

  9
$DIMLTEX1
  6

  9
$DIMLTEX2
  6

  9
$DIMTXTDIRECTION
 70
0
  9
$LUNITS
 70
2
  9
$LUPREC
 70
4
  9
$SKETCHINC
 40
1.0
  9
$FILLETRAD
 40
10.0
  9
$AUNITS
 70
0
  9
$AUPREC
 70
2
  9
$MENU
  1
.
  9
$ELEVATION
 40
0.0
  9
$PELEVATION
 40
0.0
  9
$THICKNESS
 40
0.0
  9
$LIMCHECK
 70
0
  9
$CHAMFERA
 40
0.0
  9
$CHAMFERB
 40
0.0
  9
$CHAMFERC
 40
0.0
  9
$CHAMFERD
 40
0.0
  9
$SKPOLY
 70
0
  9
$TDCREATE
 40
2460825.778761574
  9
$TDUCREATE
 40
2458532.153996898
  9
$TDUPDATE
 40
2460825.778761574
  9
$TDUUPDATE
 40
2458532.1544311
  9
$TDINDWG
 40
0.0
  9
$TDUSRTIMER
 40
0.0
  9
$USRTIMER
 70
1
  9
$ANGBASE
 50
0.0
  9
$ANGDIR
 70
0
  9
$PDMODE
 70
0
  9
$PDSIZE
 40
0.0
  9
$PLINEWID
 40
0.0
  9
$SPLFRAME
 70
0
  9
$SPLINETYPE
 70
6
  9
$SPLINESEGS
 70
8
  9
$HANDSEED
  5
50
  9
$SURFTAB1
 70
6
  9
$SURFTAB2
 70
6
  9
$SURFTYPE
 70
6
  9
$SURFU
 70
6
  9
$SURFV
 70
6
  9
$UCSBASE
  2

  9
$UCSNAME
  2

  9
$UCSORG
 10
0.0
 20
0.0
 30
0.0
  9
$UCSXDIR
 10
1.0
 20
0.0
 30
0.0
  9
$UCSYDIR
 10
0.0
 20
1.0
 30
0.0
  9
$UCSORTHOREF
  2

  9
$UCSORTHOVIEW
 70
0
  9
$UCSORGTOP
 10
0.0
 20
0.0
 30
0.0
  9
$UCSORGBOTTOM
 10
0.0
 20
0.0
 30
0.0
  9
$UCSORGLEFT
 10
0.0
 20
0.0
 30
0.0
  9
$UCSORGRIGHT
 10
0.0
 20
0.0
 30
0.0
  9
$UCSORGFRONT
 10
0.0
 20
0.0
 30
0.0
  9
$UCSORGBACK
 10
0.0
 20
0.0
 30
0.0
  9
$PUCSBASE
  2

  9
$PUCSNAME
  2

  9
$PUCSORG
 10
0.0
 20
0.0
 30
0.0
  9
$PUCSXDIR
 10
1.0
 20
0.0
 30
0.0
  9
$PUCSYDIR
 10
0.0
 20
1.0
 30
0.0
  9
$PUCSORTHOREF
  2

  9
$PUCSORTHOVIEW
 70
0
  9
$PUCSORGTOP
 10
0.0
 20
0.0
 30
0.0
  9
$PUCSORGBOTTOM
 10
0.0
 20
0.0
 30
0.0
  9
$PUCSORGLEFT
 10
0.0
 20
0.0
 30
0.0
  9
$PUCSORGRIGHT
 10
0.0
 20
0.0
 30
0.0
  9
$PUCSORGFRONT
 10
0.0
 20
0.0
 30
0.0
  9
$PUCSORGBACK
 10
0.0
 20
0.0
 30
0.0
  9
$USERI1
 70
0
  9
$USERI2
 70
0
  9
$USERI3
 70
0
  9
$USERI4
 70
0
  9
$USERI5
 70
0
  9
$USERR1
 40
0.0
  9
$USERR2
 40
0.0
  9
$USERR3
 40
0.0
  9
$USERR4
 40
0.0
  9
$USERR5
 40
0.0
  9
$WORLDVIEW
 70
1
  9
$SHADEDGE
 70
3
  9
$SHADEDIF
 70
70
  9
$TILEMODE
 70
1
  9
$MAXACTVP
 70
64
  9
$PINSBASE
 10
0.0
 20
0.0
 30
0.0
  9
$PLIMCHECK
 70
0
  9
$PEXTMIN
 10
1e+20
 20
1e+20
 30
1e+20
  9
$PEXTMAX
 10
-1e+20
 20
-1e+20
 30
-1e+20
  9
$PLIMMIN
 10
0.0
 20
0.0
  9
$PLIMMAX
 10
420.0
 20
297.0
  9
$UNITMODE
 70
0
  9
$VISRETAIN
 70
1
  9
$PLINEGEN
 70
0
  9
$PSLTSCALE
 70
1
  9
$TREEDEPTH
 70
3020
  9
$CMLSTYLE
  2
Standard
  9
$CMLJUST
 70
0
  9
$CMLSCALE
 40
20.0
  9
$PROXYGRAPHICS
 70
1
  9
$MEASUREMENT
 70
1
  9
$CELWEIGHT
370
-1
  9
$ENDCAPS
280
0
  9
$JOINSTYLE
280
0
  9
$LWDISPLAY
290
0
  9
$INSUNITS
 70
6
  9
$HYPERLINKBASE
  1

  9
$STYLESHEET
  1

  9
$XEDIT
290
1
  9
$CEPSNTYPE
380
0
  9
$PSTYLEMODE
290
1
  9
$FINGERPRINTGUID
  2
{CA44AB40-8168-4E75-B885-F840EA1A145A}
  9
$VERSIONGUID
  2
{FC30459C-A459-44F2-B03B-9EC1BC4305F7}
  9
$EXTNAMES
290
1
  9
$PSVPSCALE
 40
0.0
  9
$OLESTARTUP
290
0
  9
$SORTENTS
280
127
  9
$INDEXCTL
280
0
  9
$HIDETEXT
280
1
  9
$XCLIPFRAME
280
0
  9
$HALOGAP
280
0
  9
$OBSCOLOR
 70
257
  9
$OBSLTYPE
280
0
  9
$INTERSECTIONDISPLAY
280
0
  9
$INTERSECTIONCOLOR
 70
257
  9
$DIMASSOC
280
2
  9
$PROJECTNAME
  1

  9
$CAMERADISPLAY
290
0
  9
$LENSLENGTH
 40
50.0
  9
$CAMERAHEIGHT
 40
0.0
  9
$STEPSPERSEC
 40
24.0
  9
$STEPSIZE
 40
100.0
  9
$3DDWFPREC
 40
2.0
  9
$PSOLWIDTH
 40
0.005
  9
$PSOLHEIGHT
 40
0.08
  9
$LOFTANG1
 40
1.570796326795
  9
$LOFTANG2
 40
1.570796326795
  9
$LOFTMAG1
 40
0.0
  9
$LOFTMAG2
 40
0.0
  9
$LOFTPARAM
 70
7
  9
$LOFTNORMALS
280
1
  9
$LATITUDE
 40
37.795
  9
$LONGITUDE
 40
-122.394
  9
$NORTHDIRECTION
 40
0.0
  9
$TIMEZONE
 70
-8000
  9
$LIGHTGLYPHDISPLAY
280
1
  9
$TILEMODELIGHTSYNCH
280
1
  9
$CMATERIAL
347
20
  9
$SOLIDHIST
280
0
  9
$SHOWHIST
280
1
  9
$DWFFRAME
280
2
  9
$DGNFRAME
280
2
  9
$REALWORLDSCALE
290
1
  9
$INTERFERECOLOR
 62
256
  9
$CSHADOW
280
0
  9
$SHADOWPLANELOCATION
 40
0.0
  0
ENDSEC
  0
SECTION
  2
CLASSES
  0
CLASS
  1
ACDBDICTIONARYWDFLT
  2
AcDbDictionaryWithDefault
  3
ObjectDBX Classes
 90
0
 91
0
280
0
281
0
  0
CLASS
  1
SUN
  2
AcDbSun
  3
SCENEOE
 90
1153
 91
0
280
0
281
0
  0
CLASS
  1
VISUALSTYLE
  2
AcDbVisualStyle
  3
ObjectDBX Classes
 90
4095
 91
0
280
0
281
0
  0
CLASS
  1
MATERIAL
  2
AcDbMaterial
  3
ObjectDBX Classes
 90
1153
 91
0
280
0
281
0
  0
CLASS
  1
SCALE
  2
AcDbScale
  3
ObjectDBX Classes
 90
1153
 91
0
280
0
281
0
  0
CLASS
  1
TABLESTYLE
  2
AcDbTableStyle
  3
ObjectDBX Classes
 90
4095
 91
0
280
0
281
0
  0
CLASS
  1
MLEADERSTYLE
  2
AcDbMLeaderStyle
  3
ACDB_MLEADERSTYLE_CLASS
 90
4095
 91
0
280
0
281
0
  0
CLASS
  1
DICTIONARYVAR
  2
AcDbDictionaryVar
  3
ObjectDBX Classes
 90
0
 91
0
280
0
281
0
  0
CLASS
  1
CELLSTYLEMAP
  2
AcDbCellStyleMap
  3
ObjectDBX Classes
 90
1152
 91
0
280
0
281
0
  0
CLASS
  1
MENTALRAYRENDERSETTINGS
  2
AcDbMentalRayRenderSettings
  3
SCENEOE
 90
1024
 91
0
280
0
281
0
  0
CLASS
  1
ACDBDETAILVIEWSTYLE
  2
AcDbDetailViewStyle
  3
ObjectDBX Classes
 90
1025
 91
0
280
0
281
0
  0
CLASS
  1
ACDBSECTIONVIEWSTYLE
  2
AcDbSectionViewStyle
  3
ObjectDBX Classes
 90
1025
 91
0
280
0
281
0
  0
CLASS
  1
RASTERVARIABLES
  2
AcDbRasterVariables
  3
ISM
 90
0
 91
0
280
0
281
0
  0
CLASS
  1
LAYOUT
  2
AcDbLayout
  3
ObjectDBX Classes
 90
0
 91
0
280
0
281
0
  0
CLASS
  1
ACDBPLACEHOLDER
  2
AcDbPlaceHolder
  3
ObjectDBX Classes
 90
0
 91
0
280
0
281
0
  0
ENDSEC
  0
SECTION
  2
TABLES
  0
TABLE
  2
VPORT
  5
8
330
0
100
AcDbSymbolTable
 70
1
  0
VPORT
  5
23
330
8
100
AcDbSymbolTableRecord
100
AcDbViewportTableRecord
  2
*Active
 70
0
 10
0.0
 20
0.0
 11
1.0
 21
1.0
 12
0.0
 22
0.0
 13
0.0
 23
0.0
 14
0.5
 24
0.5
 15
0.5
 25
0.5
 16
0.0
 26
0.0
 36
1.0
 17
0.0
 27
0.0
 37
0.0
 40
1000.0
 41
1.34
 42
50.0
 43
0.0
 44
0.0
 50
0.0
 51
0.0
 71
0
 72
1000
 73
1
 74
3
 75
0
 76
0
 77
0
 78
0
281
0
 65
0
146
0.0
  0
ENDTAB
  0
TABLE
  2
LTYPE
  5
2
330
0
100
AcDbSymbolTable
 70
3
  0
LTYPE
  5
24
330
2
100
AcDbSymbolTableRecord
100
AcDbLinetypeTableRecord
  2
ByBlock
 70
0
  3

 72
65
 73
0
 40
0.0
  0
LTYPE
  5
25
330
2
100
AcDbSymbolTableRecord
100
AcDbLinetypeTableRecord
  2
ByLayer
 70
0
  3

 72
65
 73
0
 40
0.0
  0
LTYPE
  5
26
330
2
100
AcDbSymbolTableRecord
100
AcDbLinetypeTableRecord
  2
Continuous
 70
0
  3

 72
65
 73
0
 40
0.0
  0
ENDTAB
  0
TABLE
  2
LAYER
  5
1
330
0
100
AcDbSymbolTable
 70
2
  0
LAYER
  5
27
330
1
100
AcDbSymbolTableRecord
100
AcDbLayerTableRecord
  2
0
 70
0
 62
7
  6
Continuous
370
-3
390
13
347
21
  0
LAYER
  5
28
330
1
100
AcDbSymbolTableRecord
100
AcDbLayerTableRecord
  2
Defpoints
 70
0
 62
7
  6
Continuous
290
0
370
-3
390
13
347
21
  0
ENDTAB
  0
TABLE
  2
STYLE
  5
5
330
0
100
AcDbSymbolTable
 70
1
  0
STYLE
  5
29
330
5
100
AcDbSymbolTableRecord
100
AcDbTextStyleTableRecord
  2
Standard
 70
0
 40
0.0
 41
1.0
 50
0.0
 71
0
 42
2.5
  3
txt
  4

  0
ENDTAB
  0
TABLE
  2
VIEW
  5
7
330
0
100
AcDbSymbolTable
 70
0
  0
ENDTAB
  0
TABLE
  2
UCS
  5
6
330
0
100
AcDbSymbolTable
 70
0
  0
ENDTAB
  0
TABLE
  2
APPID
  5
3
330
0
100
AcDbSymbolTable
 70
3
  0
APPID
  5
2A
330
3
100
AcDbSymbolTableRecord
100
AcDbRegAppTableRecord
  2
ACAD
 70
0
  0
APPID
  5
4D
330
3
100
AcDbSymbolTableRecord
100
AcDbRegAppTableRecord
  2
HATCHBACKGROUNDCOLOR
 70
0
  0
APPID
  5
4E
330
3
100
AcDbSymbolTableRecord
100
AcDbRegAppTableRecord
  2
EZDXF
 70
0
  0
ENDTAB
  0
TABLE
  2
DIMSTYLE
  5
4
330
0
100
AcDbSymbolTable
 70
1
100
AcDbDimStyleTable
  0
DIMSTYLE
105
2B
330
4
100
AcDbSymbolTableRecord
100
AcDbDimStyleTableRecord
  2
Standard
 70
0
 40
1.0
 41
2.5
 42
0.625
 43
3.75
 44
1.25
 45
0.0
 46
0.0
 47
0.0
 48
0.0
 49
2.5
140
2.5
141
2.5
142
0.0
143
0.03937007874
144
1.0
145
0.0
146
1.0
147
0.625
148
0.0
 69
0
 70
0
 71
0
 72
0
 73
0
 74
0
 75
0
 76
0
 77
1
 78
8
 79
3
170
0
171
3
172
1
173
0
174
0
175
0
176
0
177
0
178
0
179
2
271
2
272
2
273
2
274
3
275
0
276
0
277
2
278
44
279
0
280
0
281
0
282
0
283
0
284
8
285
0
286
0
288
0
289
3
290
0
371
-2
372
-2
  0
ENDTAB
  0
TABLE
  2
BLOCK_RECORD
  5
9
330
0
100
AcDbSymbolTable
 70
2
  0
BLOCK_RECORD
  5
17
330
9
100
AcDbSymbolTableRecord
100
AcDbBlockTableRecord
  2
*Model_Space
340
1A
 70
0
280
1
281
0
  0
BLOCK_RECORD
  5
1B
330
9
100
AcDbSymbolTableRecord
100
AcDbBlockTableRecord
  2
*Paper_Space
340
1E
 70
0
280
1
281
0
  0
ENDTAB
  0
ENDSEC
  0
SECTION
  2
BLOCKS
  0
BLOCK
  5
18
330
17
100
AcDbEntity
  8
0
100
AcDbBlockBegin
  2
*Model_Space
 70
0
 10
0.0
 20
0.0
 30
0.0
  3
*Model_Space
  1

  0
ENDBLK
  5
19
330
17
100
AcDbEntity
  8
0
100
AcDbBlockEnd
  0
BLOCK
  5
1C
330
1B
100
AcDbEntity
  8
0
100
AcDbBlockBegin
  2
*Paper_Space
 70
0
 10
0.0
 20
0.0
 30
0.0
  3
*Paper_Space
  1

  0
ENDBLK
  5
1D
330
1B
100
AcDbEntity
  8
0
100
AcDbBlockEnd
  0
ENDSEC
  0
SECTION
  2
ENTITIES
  0
LWPOLYLINE
  5
2F
330
17
100
AcDbEntity
  8
0
100
AcDbPolyline
 90
51
 70
0
 10
0.0
 20
-19.0
 10
0.0
 20
-18.909999999999997
 10
0.0
 20
-18.82
 10
0.0
 20
-18.729999999999997
 10
0.0
 20
-18.64
 10
0.0
 20
-18.549999999999997
 10
0.0
 20
-18.46
 10
0.0
 20
-18.369999999999997
 10
0.0
 20
-18.28
 10
0.0
 20
-18.189999999999998
 10
0.0
 20
-18.1
 10
0.0
 20
-18.009999999999998
 10
0.0
 20
-17.92
 10
0.0
 20
-17.83
 10
0.0
 20
-17.740000000000002
 10
0.0
 20
-17.65
 10
0.0
 20
-17.560000000000002
 10
0.0
 20
-17.47
 10
0.0
 20
-17.380000000000003
 10
0.0
 20
-17.29
 10
0.0
 20
-17.200000000000003
 10
0.0
 20
-17.11
 10
0.0
 20
-17.020000000000003
 10
0.0
 20
-16.93
 10
0.0
 20
-16.840000000000003
 10
0.0
 20
-16.75
 10
0.0
 20
-16.659999999999997
 10
0.0
 20
-16.57
 10
0.0
 20
-16.479999999999997
 10
0.0
 20
-16.39
 10
0.0
 20
-16.299999999999997
 10
0.0
 20
-16.21
 10
0.0
 20
-16.119999999999997
 10
0.0
 20
-16.03
 10
0.0
 20
-15.939999999999998
 10
0.0
 20
-15.850000000000001
 10
0.0
 20
-15.759999999999998
 10
0.0
 20
-15.670000000000002
 10
0.0
 20
-15.579999999999998
 10
0.0
 20
-15.490000000000002
 10
0.0
 20
-15.399999999999999
 10
0.0
 20
-15.310000000000002
 10
0.0
 20
-15.219999999999999
 10
0.0
 20
-15.130000000000003
 10
0.0
 20
-15.04
 10
0.0
 20
-14.950000000000003
 10
0.0
 20
-14.86
 10
0.0
 20
-14.769999999999996
 10
0.0
 20
-14.68
 10
0.0
 20
-14.590000000000003
 10
0.0
 20
-14.5
  0
LWPOLYLINE
  5
30
330
17
100
AcDbEntity
  8
0
100
AcDbPolyline
 90
51
 70
0
 10
0.0
 20
19.0
 10
0.0
 20
18.909999999999997
 10
0.0
 20
18.82
 10
0.0
 20
18.729999999999997
 10
0.0
 20
18.64
 10
0.0
 20
18.549999999999997
 10
0.0
 20
18.46
 10
0.0
 20
18.369999999999997
 10
0.0
 20
18.28
 10
0.0
 20
18.189999999999998
 10
0.0
 20
18.1
 10
0.0
 20
18.009999999999998
 10
0.0
 20
17.92
 10
0.0
 20
17.83
 10
0.0
 20
17.740000000000002
 10
0.0
 20
17.65
 10
0.0
 20
17.560000000000002
 10
0.0
 20
17.47
 10
0.0
 20
17.380000000000003
 10
0.0
 20
17.29
 10
0.0
 20
17.200000000000003
 10
0.0
 20
17.11
 10
0.0
 20
17.020000000000003
 10
0.0
 20
16.93
 10
0.0
 20
16.840000000000003
 10
0.0
 20
16.75
 10
0.0
 20
16.659999999999997
 10
0.0
 20
16.57
 10
0.0
 20
16.479999999999997
 10
0.0
 20
16.39
 10
0.0
 20
16.299999999999997
 10
0.0
 20
16.21
 10
0.0
 20
16.119999999999997
 10
0.0
 20
16.03
 10
0.0
 20
15.939999999999998
 10
0.0
 20
15.850000000000001
 10
0.0
 20
15.759999999999998
 10
0.0
 20
15.670000000000002
 10
0.0
 20
15.579999999999998
 10
0.0
 20
15.490000000000002
 10
0.0
 20
15.399999999999999
 10
0.0
 20
15.310000000000002
 10
0.0
 20
15.219999999999999
 10
0.0
 20
15.130000000000003
 10
0.0
 20
15.04
 10
0.0
 20
14.950000000000003
 10
0.0
 20
14.86
 10
0.0
 20
14.769999999999996
 10
0.0
 20
14.68
 10
0.0
 20
14.590000000000003
 10
0.0
 20
14.5
  0
LWPOLYLINE
  5
31
330
17
100
AcDbEntity
  8
0
100
AcDbPolyline
 90
51
 70
0
 10
2.0
 20
14.5
 10
2.0
 20
14.39
 10
2.0
 20
14.28
 10
2.0
 20
14.17
 10
2.0
 20
14.06
 10
2.0
 20
13.95
 10
2.0
 20
13.84
 10
2.0
 20
13.73
 10
2.0
 20
13.62
 10
2.0
 20
13.51
 10
2.0
 20
13.4
 10
2.0
 20
13.29
 10
2.0
 20
13.18
 10
2.0
 20
13.07
 10
2.0
 20
12.96
 10
2.0
 20
12.85
 10
2.0
 20
12.74
 10
2.0
 20
12.629999999999999
 10
2.0
 20
12.52
 10
2.0
 20
12.41
 10
2.0
 20
12.3
 10
2.0
 20
12.19
 10
2.0
 20
12.08
 10
2.0
 20
11.97
 10
2.0
 20
11.86
 10
2.0
 20
11.75
 10
2.0
 20
11.64
 10
2.0
 20
11.53
 10
2.0
 20
11.42
 10
2.0
 20
11.31
 10
2.0
 20
11.2
 10
2.0
 20
11.09
 10
2.0
 20
10.98
 10
2.0
 20
10.870000000000001
 10
2.0
 20
10.76
 10
2.0
 20
10.65
 10
2.0
 20
10.54
 10
2.0
 20
10.43
 10
2.0
 20
10.32
 10
2.0
 20
10.21
 10
2.0
 20
10.1
 10
2.0
 20
9.99
 10
2.0
 20
9.879999999999999
 10
2.0
 20
9.77
 10
2.0
 20
9.66
 10
2.0
 20
9.55
 10
2.0
 20
9.440000000000001
 10
2.0
 20
9.33
 10
2.0
 20
9.219999999999999
 10
2.0
 20
9.11
 10
2.0
 20
9.0
  0
LWPOLYLINE
  5
32
330
17
100
AcDbEntity
  8
0
100
AcDbPolyline
 90
51
 70
0
 10
6.0
 20
14.5
 10
6.0
 20
14.39
 10
6.0
 20
14.28
 10
6.0
 20
14.17
 10
6.0
 20
14.06
 10
6.0
 20
13.95
 10
6.0
 20
13.84
 10
6.0
 20
13.73
 10
6.0
 20
13.62
 10
6.0
 20
13.51
 10
6.0
 20
13.4
 10
6.0
 20
13.29
 10
6.0
 20
13.18
 10
6.0
 20
13.07
 10
6.0
 20
12.96
 10
6.0
 20
12.85
 10
6.0
 20
12.74
 10
6.0
 20
12.629999999999999
 10
6.0
 20
12.52
 10
6.0
 20
12.41
 10
6.0
 20
12.3
 10
6.0
 20
12.19
 10
6.0
 20
12.08
 10
6.0
 20
11.97
 10
6.0
 20
11.86
 10
6.0
 20
11.75
 10
6.0
 20
11.64
 10
6.0
 20
11.53
 10
6.0
 20
11.42
 10
6.0
 20
11.31
 10
6.0
 20
11.2
 10
6.0
 20
11.09
 10
6.0
 20
10.98
 10
6.0
 20
10.870000000000001
 10
6.0
 20
10.76
 10
6.0
 20
10.65
 10
6.0
 20
10.54
 10
6.0
 20
10.43
 10
6.0
 20
10.32
 10
6.0
 20
10.21
 10
6.0
 20
10.1
 10
6.0
 20
9.99
 10
6.0
 20
9.879999999999999
 10
6.0
 20
9.77
 10
6.0
 20
9.66
 10
6.0
 20
9.55
 10
6.0
 20
9.440000000000001
 10
6.0
 20
9.33
 10
6.0
 20
9.219999999999999
 10
6.0
 20
9.11
 10
6.0
 20
9.0
  0
LWPOLYLINE
  5
33
330
17
100
AcDbEntity
  8
0
100
AcDbPolyline
 90
51
 70
0
 10
1.0
 20
9.0
 10
1.0
 20
8.94
 10
1.0
 20
8.88
 10
1.0
 20
8.82
 10
1.0
 20
8.76
 10
1.0
 20
8.7
 10
1.0
 20
8.64
 10
1.0
 20
8.58
 10
1.0
 20
8.52
 10
1.0
 20
8.46
 10
1.0
 20
8.4
 10
1.0
 20
8.34
 10
1.0
 20
8.28
 10
1.0
 20
8.22
 10
1.0
 20
8.16
 10
1.0
 20
8.1
 10
1.0
 20
8.04
 10
1.0
 20
7.98
 10
1.0
 20
7.92
 10
1.0
 20
7.86
 10
1.0
 20
7.8
 10
1.0
 20
7.74
 10
1.0
 20
7.68
 10
1.0
 20
7.62
 10
1.0
 20
7.5600000000000005
 10
1.0
 20
7.5
 10
1.0
 20
7.4399999999999995
 10
1.0
 20
7.38
 10
1.0
 20
7.32
 10
1.0
 20
7.26
 10
1.0
 20
7.2
 10
1.0
 20
7.14
 10
1.0
 20
7.08
 10
1.0
 20
7.02
 10
1.0
 20
6.96
 10
1.0
 20
6.9
 10
1.0
 20
6.84
 10
1.0
 20
6.779999999999999
 10
1.0
 20
6.720000000000001
 10
1.0
 20
6.66
 10
1.0
 20
6.6
 10
1.0
 20
6.54
 10
1.0
 20
6.48
 10
1.0
 20
6.42
 10
1.0
 20
6.359999999999999
 10
1.0
 20
6.3
 10
1.0
 20
6.24
 10
1.0
 20
6.18
 10
1.0
 20
6.12
 10
1.0
 20
6.0600000000000005
 10
1.0
 20
6.0
  0
LWPOLYLINE
  5
34
330
17
100
AcDbEntity
  8
0
100
AcDbPolyline
 90
51
 70
0
 10
7.0
 20
9.0
 10
7.0
 20
8.94
 10
7.0
 20
8.88
 10
7.0
 20
8.82
 10
7.0
 20
8.76
 10
7.0
 20
8.7
 10
7.0
 20
8.64
 10
7.0
 20
8.58
 10
7.0
 20
8.52
 10
7.0
 20
8.46
 10
7.0
 20
8.4
 10
7.0
 20
8.34
 10
7.0
 20
8.28
 10
7.0
 20
8.22
 10
7.0
 20
8.16
 10
7.0
 20
8.1
 10
7.0
 20
8.04
 10
7.0
 20
7.98
 10
7.0
 20
7.92
 10
7.0
 20
7.86
 10
7.0
 20
7.8
 10
7.0
 20
7.74
 10
7.0
 20
7.68
 10
7.0
 20
7.62
 10
7.0
 20
7.5600000000000005
 10
7.0
 20
7.5
 10
7.0
 20
7.4399999999999995
 10
7.0
 20
7.38
 10
7.0
 20
7.32
 10
7.0
 20
7.26
 10
7.0
 20
7.2
 10
7.0
 20
7.14
 10
7.0
 20
7.08
 10
7.0
 20
7.02
 10
7.0
 20
6.96
 10
7.0
 20
6.9
 10
7.0
 20
6.84
 10
7.0
 20
6.779999999999999
 10
7.0
 20
6.720000000000001
 10
7.0
 20
6.66
 10
7.0
 20
6.6
 10
7.0
 20
6.54
 10
7.0
 20
6.48
 10
7.0
 20
6.42
 10
7.0
 20
6.359999999999999
 10
7.0
 20
6.3
 10
7.0
 20
6.24
 10
7.0
 20
6.18
 10
7.0
 20
6.12
 10
7.0
 20
6.0600000000000005
 10
7.0
 20
6.0
  0
LWPOLYLINE
  5
35
330
17
100
AcDbEntity
  8
0
100
AcDbPolyline
 90
51
 70
0
 10
6.0
 20
-14.5
 10
6.0
 20
-14.39
 10
6.0
 20
-14.28
 10
6.0
 20
-14.17
 10
6.0
 20
-14.06
 10
6.0
 20
-13.95
 10
6.0
 20
-13.84
 10
6.0
 20
-13.73
 10
6.0
 20
-13.62
 10
6.0
 20
-13.51
 10
6.0
 20
-13.4
 10
6.0
 20
-13.29
 10
6.0
 20
-13.18
 10
6.0
 20
-13.07
 10
6.0
 20
-12.96
 10
6.0
 20
-12.85
 10
6.0
 20
-12.74
 10
6.0
 20
-12.629999999999999
 10
6.0
 20
-12.52
 10
6.0
 20
-12.41
 10
6.0
 20
-12.3
 10
6.0
 20
-12.19
 10
6.0
 20
-12.08
 10
6.0
 20
-11.97
 10
6.0
 20
-11.86
 10
6.0
 20
-11.75
 10
6.0
 20
-11.64
 10
6.0
 20
-11.53
 10
6.0
 20
-11.42
 10
6.0
 20
-11.31
 10
6.0
 20
-11.2
 10
6.0
 20
-11.09
 10
6.0
 20
-10.98
 10
6.0
 20
-10.870000000000001
 10
6.0
 20
-10.76
 10
6.0
 20
-10.65
 10
6.0
 20
-10.54
 10
6.0
 20
-10.43
 10
6.0
 20
-10.32
 10
6.0
 20
-10.21
 10
6.0
 20
-10.1
 10
6.0
 20
-9.99
 10
6.0
 20
-9.879999999999999
 10
6.0
 20
-9.77
 10
6.0
 20
-9.66
 10
6.0
 20
-9.55
 10
6.0
 20
-9.440000000000001
 10
6.0
 20
-9.33
 10
6.0
 20
-9.219999999999999
 10
6.0
 20
-9.11
 10
6.0
 20
-9.0
  0
LWPOLYLINE
  5
36
330
17
100
AcDbEntity
  8
0
100
AcDbPolyline
 90
51
 70
0
 10
2.0
 20
-14.5
 10
2.0
 20
-14.39
 10
2.0
 20
-14.28
 10
2.0
 20
-14.17
 10
2.0
 20
-14.06
 10
2.0
 20
-13.95
 10
2.0
 20
-13.84
 10
2.0
 20
-13.73
 10
2.0
 20
-13.62
 10
2.0
 20
-13.51
 10
2.0
 20
-13.4
 10
2.0
 20
-13.29
 10
2.0
 20
-13.18
 10
2.0
 20
-13.07
 10
2.0
 20
-12.96
 10
2.0
 20
-12.85
 10
2.0
 20
-12.74
 10
2.0
 20
-12.629999999999999
 10
2.0
 20
-12.52
 10
2.0
 20
-12.41
 10
2.0
 20
-12.3
 10
2.0
 20
-12.19
 10
2.0
 20
-12.08
 10
2.0
 20
-11.97
 10
2.0
 20
-11.86
 10
2.0
 20
-11.75
 10
2.0
 20
-11.64
 10
2.0
 20
-11.53
 10
2.0
 20
-11.42
 10
2.0
 20
-11.31
 10
2.0
 20
-11.2
 10
2.0
 20
-11.09
 10
2.0
 20
-10.98
 10
2.0
 20
-10.870000000000001
 10
2.0
 20
-10.76
 10
2.0
 20
-10.65
 10
2.0
 20
-10.54
 10
2.0
 20
-10.43
 10
2.0
 20
-10.32
 10
2.0
 20
-10.21
 10
2.0
 20
-10.1
 10
2.0
 20
-9.99
 10
2.0
 20
-9.879999999999999
 10
2.0
 20
-9.77
 10
2.0
 20
-9.66
 10
2.0
 20
-9.55
 10
2.0
 20
-9.440000000000001
 10
2.0
 20
-9.33
 10
2.0
 20
-9.219999999999999
 10
2.0
 20
-9.11
 10
2.0
 20
-9.0
  0
LWPOLYLINE
  5
37
330
17
100
AcDbEntity
  8
0
100
AcDbPolyline
 90
51
 70
0
 10
7.0
 20
-9.0
 10
7.0
 20
-8.94
 10
7.0
 20
-8.88
 10
7.0
 20
-8.82
 10
7.0
 20
-8.76
 10
7.0
 20
-8.7
 10
7.0
 20
-8.64
 10
7.0
 20
-8.58
 10
7.0
 20
-8.52
 10
7.0
 20
-8.46
 10
7.0
 20
-8.4
 10
7.0
 20
-8.34
 10
7.0
 20
-8.28
 10
7.0
 20
-8.22
 10
7.0
 20
-8.16
 10
7.0
 20
-8.1
 10
7.0
 20
-8.04
 10
7.0
 20
-7.98
 10
7.0
 20
-7.92
 10
7.0
 20
-7.86
 10
7.0
 20
-7.8
 10
7.0
 20
-7.74
 10
7.0
 20
-7.68
 10
7.0
 20
-7.62
 10
7.0
 20
-7.5600000000000005
 10
7.0
 20
-7.5
 10
7.0
 20
-7.4399999999999995
 10
7.0
 20
-7.38
 10
7.0
 20
-7.32
 10
7.0
 20
-7.26
 10
7.0
 20
-7.2
 10
7.0
 20
-7.14
 10
7.0
 20
-7.08
 10
7.0
 20
-7.02
 10
7.0
 20
-6.96
 10
7.0
 20
-6.9
 10
7.0
 20
-6.84
 10
7.0
 20
-6.779999999999999
 10
7.0
 20
-6.720000000000001
 10
7.0
 20
-6.66
 10
7.0
 20
-6.6
 10
7.0
 20
-6.54
 10
7.0
 20
-6.48
 10
7.0
 20
-6.42
 10
7.0
 20
-6.359999999999999
 10
7.0
 20
-6.3
 10
7.0
 20
-6.24
 10
7.0
 20
-6.18
 10
7.0
 20
-6.12
 10
7.0
 20
-6.0600000000000005
 10
7.0
 20
-6.0
  0
LWPOLYLINE
  5
38
330
17
100
AcDbEntity
  8
0
100
AcDbPolyline
 90
51
 70
0
 10
1.0
 20
-9.0
 10
1.0
 20
-8.94
 10
1.0
 20
-8.88
 10
1.0
 20
-8.82
 10
1.0
 20
-8.76
 10
1.0
 20
-8.7
 10
1.0
 20
-8.64
 10
1.0
 20
-8.58
 10
1.0
 20
-8.52
 10
1.0
 20
-8.46
 10
1.0
 20
-8.4
 10
1.0
 20
-8.34
 10
1.0
 20
-8.28
 10
1.0
 20
-8.22
 10
1.0
 20
-8.16
 10
1.0
 20
-8.1
 10
1.0
 20
-8.04
 10
1.0
 20
-7.98
 10
1.0
 20
-7.92
 10
1.0
 20
-7.86
 10
1.0
 20
-7.8
 10
1.0
 20
-7.74
 10
1.0
 20
-7.68
 10
1.0
 20
-7.62
 10
1.0
 20
-7.5600000000000005
 10
1.0
 20
-7.5
 10
1.0
 20
-7.4399999999999995
 10
1.0
 20
-7.38
 10
1.0
 20
-7.32
 10
1.0
 20
-7.26
 10
1.0
 20
-7.2
 10
1.0
 20
-7.14
 10
1.0
 20
-7.08
 10
1.0
 20
-7.02
 10
1.0
 20
-6.96
 10
1.0
 20
-6.9
 10
1.0
 20
-6.84
 10
1.0
 20
-6.779999999999999
 10
1.0
 20
-6.720000000000001
 10
1.0
 20
-6.66
 10
1.0
 20
-6.6
 10
1.0
 20
-6.54
 10
1.0
 20
-6.48
 10
1.0
 20
-6.42
 10
1.0
 20
-6.359999999999999
 10
1.0
 20
-6.3
 10
1.0
 20
-6.24
 10
1.0
 20
-6.18
 10
1.0
 20
-6.12
 10
1.0
 20
-6.0600000000000005
 10
1.0
 20
-6.0
  0
LWPOLYLINE
  5
39
330
17
100
AcDbEntity
  8
0
100
AcDbPolyline
 90
51
 70
0
 10
16.0
 20
-19.0
 10
15.76
 20
-19.0
 10
15.52
 20
-19.0
 10
15.28
 20
-19.0
 10
15.04
 20
-19.0
 10
14.8
 20
-19.0
 10
14.56
 20
-19.0
 10
14.32
 20
-19.0
 10
14.08
 20
-19.0
 10
13.84
 20
-19.0
 10
13.6
 20
-19.0
 10
13.36
 20
-19.0
 10
13.120000000000001
 20
-19.0
 10
12.879999999999999
 20
-19.0
 10
12.64
 20
-19.0
 10
12.4
 20
-19.0
 10
12.16
 20
-19.0
 10
11.92
 20
-19.0
 10
11.68
 20
-19.0
 10
11.440000000000001
 20
-19.0
 10
11.2
 20
-19.0
 10
10.96
 20
-19.0
 10
10.719999999999999
 20
-19.0
 10
10.48
 20
-19.0
 10
10.24
 20
-19.0
 10
10.0
 20
-19.0
 10
9.76
 20
-19.0
 10
9.52
 20
-19.0
 10
9.280000000000001
 20
-19.0
 10
9.04
 20
-19.0
 10
8.8
 20
-19.0
 10
8.559999999999999
 20
-19.0
 10
8.32
 20
-19.0
 10
8.08
 20
-19.0
 10
7.84
 20
-19.0
 10
7.6
 20
-19.0
 10
7.359999999999999
 20
-19.0
 10
7.119999999999999
 20
-19.0
 10
6.880000000000001
 20
-19.0
 10
6.640000000000001
 20
-19.0
 10
6.4
 20
-19.0
 10
6.16
 20
-19.0
 10
5.92
 20
-19.0
 10
5.68
 20
-19.0
 10
5.4399999999999995
 20
-19.0
 10
5.199999999999999
 20
-19.0
 10
4.960000000000001
 20
-19.0
 10
4.720000000000001
 20
-19.0
 10
4.48
 20
-19.0
 10
4.24
 20
-19.0
 10
4.0
 20
-19.0
  0
LWPOLYLINE
  5
3A
330
17
100
AcDbEntity
  8
0
100
AcDbPolyline
 90
51
 70
0
 10
16.0
 20
-19.0
 10
16.282696831703156
 20
-18.995559043291586
 10
16.56511467576382
 20
-18.982240555854446
 10
16.846974819866627
 20
-18.96005768142772
 10
17.12799910207874
 20
-18.9290323118303
 10
17.407910185362077
 20
-18.88919506535624
 10
17.68643183127152
 20
-18.8405852565582
 10
17.96328917256888
 20
-18.783250857448728
 10
18.23820898448369
 20
-18.71724845015768
 10
18.510919954353064
 20
-18.642643171092487
 10
18.781152949374526
 20
-18.559508646656383
 10
19.048641282207623
 20
-18.467926920588027
 10
19.3131209741621
 20
-18.36798837299426
 10
19.574331015713025
 20
-18.259791631155828
 10
19.832013624085654
 20
-18.14344347219418
 10
20.08591449765592
 20
-18.01905871769531
 10
20.33578306691544
 20
-17.886760120394772
 10
20.58137274175334
 20
-17.746678243035493
 10
20.82244115481097
 20
-17.598951329518137
 10
21.058750400669176
 20
-17.443725168471055
 10
21.290067270632257
 20
-17.281152949374526
 10
21.516163482876788
 20
-17.111395111381213
 10
21.736815907738205
 20
-16.934619184982104
 10
21.951806787912865
 20
-16.750999626674137
 10
22.160923953358196
 20
-16.560717646792703
 10
22.36396103067893
 20
-16.36396103067893
 10
22.560717646792703
 20
-16.160923953358196
 10
22.750999626674137
 20
-15.951806787912869
 10
22.934619184982104
 20
-15.736815907738208
 10
23.111395111381213
 20
-15.516163482876788
 10
23.281152949374526
 20
-15.29006727063226
 10
23.443725168471055
 20
-15.058750400669176
 10
23.598951329518137
 20
-14.822441154810969
 10
23.746678243035493
 20
-14.581372741753341
 10
23.886760120394772
 20
-14.335783066915436
 10
24.01905871769531
 20
-14.08591449765592
 10
24.14344347219418
 20
-13.832013624085654
 10
24.259791631155828
 20
-13.574331015713025
 10
24.36798837299426
 20
-13.313120974162103
 10
24.467926920588027
 20
-13.048641282207623
 10
24.559508646656383
 20
-12.781152949374526
 10
24.642643171092487
 20
-12.510919954353065
 10
24.71724845015768
 20
-12.238208984483693
 10
24.783250857448728
 20
-11.963289172568885
 10
24.8405852565582
 20
-11.686431831271523
 10
24.88919506535624
 20
-11.407910185362079
 10
24.929032311830298
 20
-11.127999102078741
 10
24.96005768142772
 20
-10.84697481986663
 10
24.982240555854446
 20
-10.565114675763821
 10
24.995559043291586
 20
-10.282696831703156
 10
25.0
 20
-10.0
  0
LWPOLYLINE
  5
3B
330
17
100
AcDbEntity
  8
0
100
AcDbPolyline
 90
51
 70
0
 10
25.0
 20
10.0
 10
25.0
 20
9.6
 10
25.0
 20
9.2
 10
25.0
 20
8.8
 10
25.0
 20
8.4
 10
25.0
 20
8.0
 10
25.0
 20
7.6
 10
25.0
 20
7.2
 10
25.0
 20
6.8
 10
25.0
 20
6.4
 10
25.0
 20
6.0
 10
25.0
 20
5.6
 10
25.0
 20
5.2
 10
25.0
 20
4.8
 10
25.0
 20
4.4
 10
25.0
 20
4.0
 10
25.0
 20
3.5999999999999996
 10
25.0
 20
3.2
 10
25.0
 20
2.8
 10
25.0
 20
2.4000000000000004
 10
25.0
 20
2.0
 10
25.0
 20
1.5999999999999996
 10
25.0
 20
1.1999999999999993
 10
25.0
 20
0.8000000000000007
 10
25.0
 20
0.40000000000000036
 10
25.0
 20
0.0
 10
25.0
 20
-0.40000000000000036
 10
25.0
 20
-0.8000000000000007
 10
25.0
 20
-1.1999999999999993
 10
25.0
 20
-1.5999999999999996
 10
25.0
 20
-2.0
 10
25.0
 20
-2.4000000000000004
 10
25.0
 20
-2.8000000000000007
 10
25.0
 20
-3.1999999999999993
 10
25.0
 20
-3.5999999999999996
 10
25.0
 20
-4.0
 10
25.0
 20
-4.4
 10
25.0
 20
-4.800000000000001
 10
25.0
 20
-5.199999999999999
 10
25.0
 20
-5.6
 10
25.0
 20
-6.0
 10
25.0
 20
-6.399999999999999
 10
25.0
 20
-6.800000000000001
 10
25.0
 20
-7.199999999999999
 10
25.0
 20
-7.600000000000001
 10
25.0
 20
-8.0
 10
25.0
 20
-8.399999999999999
 10
25.0
 20
-8.8
 10
25.0
 20
-9.2
 10
25.0
 20
-9.600000000000001
 10
25.0
 20
-10.0
  0
LWPOLYLINE
  5
3C
330
17
100
AcDbEntity
  8
0
100
AcDbPolyline
 90
51
 70
0
 10
25.0
 20
10.0
 10
24.995559043291586
 20
10.282696831703154
 10
24.982240555854446
 20
10.56511467576382
 10
24.96005768142772
 20
10.84697481986663
 10
24.9290323118303
 20
11.12799910207874
 10
24.88919506535624
 20
11.407910185362077
 10
24.8405852565582
 20
11.686431831271522
 10
24.783250857448728
 20
11.963289172568883
 10
24.71724845015768
 20
12.238208984483693
 10
24.642643171092487
 20
12.510919954353064
 10
24.559508646656383
 20
12.781152949374526
 10
24.467926920588027
 20
13.048641282207623
 10
24.36798837299426
 20
13.313120974162102
 10
24.259791631155828
 20
13.574331015713025
 10
24.14344347219418
 20
13.832013624085654
 10
24.01905871769531
 20
14.08591449765592
 10
23.886760120394772
 20
14.335783066915438
 10
23.746678243035493
 20
14.581372741753341
 10
23.598951329518137
 20
14.82244115481097
 10
23.443725168471055
 20
15.058750400669176
 10
23.281152949374526
 20
15.290067270632258
 10
23.111395111381213
 20
15.516163482876788
 10
22.934619184982104
 20
15.736815907738206
 10
22.750999626674137
 20
15.951806787912867
 10
22.560717646792703
 20
16.160923953358196
 10
22.36396103067893
 20
16.36396103067893
 10
22.160923953358196
 20
16.560717646792703
 10
21.95180678791287
 20
16.750999626674137
 10
21.736815907738208
 20
16.934619184982104
 10
21.516163482876788
 20
17.111395111381213
 10
21.29006727063226
 20
17.281152949374526
 10
21.058750400669176
 20
17.443725168471055
 10
20.822441154810967
 20
17.598951329518137
 10
20.58137274175334
 20
17.746678243035493
 10
20.335783066915436
 20
17.886760120394772
 10
20.08591449765592
 20
18.01905871769531
 10
19.832013624085654
 20
18.14344347219418
 10
19.574331015713025
 20
18.259791631155828
 10
19.313120974162103
 20
18.36798837299426
 10
19.048641282207623
 20
18.467926920588027
 10
18.781152949374526
 20
18.559508646656383
 10
18.510919954353064
 20
18.642643171092487
 10
18.23820898448369
 20
18.71724845015768
 10
17.963289172568885
 20
18.783250857448728
 10
17.686431831271523
 20
18.8405852565582
 10
17.407910185362077
 20
18.88919506535624
 10
17.12799910207874
 20
18.929032311830298
 10
16.846974819866627
 20
18.96005768142772
 10
16.565114675763823
 20
18.982240555854446
 10
16.282696831703156
 20
18.995559043291586
 10
16.0
 20
19.0
  0
LWPOLYLINE
  5
3D
330
17
100
AcDbEntity
  8
0
100
AcDbPolyline
 90
51
 70
0
 10
4.0
 20
19.0
 10
4.24
 20
19.0
 10
4.48
 20
19.0
 10
4.72
 20
19.0
 10
4.96
 20
19.0
 10
5.2
 20
19.0
 10
5.4399999999999995
 20
19.0
 10
5.68
 20
19.0
 10
5.92
 20
19.0
 10
6.16
 20
19.0
 10
6.4
 20
19.0
 10
6.640000000000001
 20
19.0
 10
6.88
 20
19.0
 10
7.12
 20
19.0
 10
7.359999999999999
 20
19.0
 10
7.6
 20
19.0
 10
7.84
 20
19.0
 10
8.08
 20
19.0
 10
8.32
 20
19.0
 10
8.559999999999999
 20
19.0
 10
8.8
 20
19.0
 10
9.04
 20
19.0
 10
9.280000000000001
 20
19.0
 10
9.52
 20
19.0
 10
9.76
 20
19.0
 10
10.0
 20
19.0
 10
10.24
 20
19.0
 10
10.48
 20
19.0
 10
10.719999999999999
 20
19.0
 10
10.96
 20
19.0
 10
11.2
 20
19.0
 10
11.440000000000001
 20
19.0
 10
11.68
 20
19.0
 10
11.92
 20
19.0
 10
12.16
 20
19.0
 10
12.4
 20
19.0
 10
12.64
 20
19.0
 10
12.88
 20
19.0
 10
13.12
 20
19.0
 10
13.36
 20
19.0
 10
13.6
 20
19.0
 10
13.84
 20
19.0
 10
14.08
 20
19.0
 10
14.32
 20
19.0
 10
14.56
 20
19.0
 10
14.8
 20
19.0
 10
15.04
 20
19.0
 10
15.28
 20
19.0
 10
15.52
 20
19.0
 10
15.76
 20
19.0
 10
16.0
 20
19.0
  0
LWPOLYLINE
  5
3E
330
17
100
AcDbEntity
  8
0
100
AcDbPolyline
 90
51
 70
0
 10
14.0
 20
14.5
 10
13.8
 20
14.5
 10
13.6
 20
14.5
 10
13.4
 20
14.5
 10
13.2
 20
14.5
 10
13.0
 20
14.5
 10
12.8
 20
14.5
 10
12.6
 20
14.5
 10
12.4
 20
14.5
 10
12.2
 20
14.5
 10
12.0
 20
14.5
 10
11.8
 20
14.5
 10
11.6
 20
14.5
 10
11.4
 20
14.5
 10
11.2
 20
14.5
 10
11.0
 20
14.5
 10
10.8
 20
14.5
 10
10.6
 20
14.5
 10
10.4
 20
14.5
 10
10.2
 20
14.5
 10
10.0
 20
14.5
 10
9.8
 20
14.5
 10
9.6
 20
14.5
 10
9.4
 20
14.5
 10
9.2
 20
14.5
 10
9.0
 20
14.5
 10
8.8
 20
14.5
 10
8.6
 20
14.5
 10
8.4
 20
14.5
 10
8.2
 20
14.5
 10
8.0
 20
14.5
 10
7.8
 20
14.5
 10
7.6
 20
14.5
 10
7.4
 20
14.5
 10
7.2
 20
14.5
 10
7.0
 20
14.5
 10
6.8
 20
14.5
 10
6.6
 20
14.5
 10
6.4
 20
14.5
 10
6.2
 20
14.5
 10
6.0
 20
14.5
 10
5.800000000000001
 20
14.5
 10
5.6
 20
14.5
 10
5.4
 20
14.5
 10
5.199999999999999
 20
14.5
 10
5.0
 20
14.5
 10
4.800000000000001
 20
14.5
 10
4.6
 20
14.5
 10
4.4
 20
14.5
 10
4.199999999999999
 20
14.5
 10
4.0
 20
14.5
  0
LWPOLYLINE
  5
3F
330
17
100
AcDbEntity
  8
0
100
AcDbPolyline
 90
51
 70
0
 10
14.0
 20
14.5
 10
14.06
 20
14.44
 10
14.12
 20
14.38
 10
14.18
 20
14.32
 10
14.24
 20
14.26
 10
14.3
 20
14.2
 10
14.36
 20
14.14
 10
14.42
 20
14.08
 10
14.48
 20
14.02
 10
14.54
 20
13.96
 10
14.6
 20
13.9
 10
14.66
 20
13.84
 10
14.72
 20
13.78
 10
14.78
 20
13.72
 10
14.84
 20
13.66
 10
14.9
 20
13.6
 10
14.959999999999999
 20
13.540000000000001
 10
15.02
 20
13.48
 10
15.08
 20
13.42
 10
15.14
 20
13.36
 10
15.2
 20
13.3
 10
15.26
 20
13.24
 10
15.32
 20
13.18
 10
15.379999999999999
 20
13.120000000000001
 10
15.44
 20
13.06
 10
15.5
 20
13.0
 10
15.559999999999999
 20
12.940000000000001
 10
15.62
 20
12.88
 10
15.68
 20
12.82
 10
15.74
 20
12.76
 10
15.8
 20
12.7
 10
15.86
 20
12.64
 10
15.92
 20
12.58
 10
15.98
 20
12.52
 10
16.04
 20
12.46
 10
16.1
 20
12.4
 10
16.16
 20
12.34
 10
16.22
 20
12.280000000000001
 10
16.28
 20
12.22
 10
16.34
 20
12.16
 10
16.4
 20
12.100000000000001
 10
16.46
 20
12.040000000000001
 10
16.52
 20
11.98
 10
16.58
 20
11.920000000000002
 10
16.64
 20
11.860000000000001
 10
16.7
 20
11.8
 10
16.759999999999998
 20
11.74
 10
16.82
 20
11.680000000000001
 10
16.88
 20
11.620000000000001
 10
16.939999999999998
 20
11.56
 10
17.0
 20
11.5
  0
LWPOLYLINE
  5
40
330
17
100
AcDbEntity
  8
0
100
AcDbPolyline
 90
51
 70
0
 10
17.0
 20
-11.5
 10
17.0
 20
-11.04
 10
17.0
 20
-10.58
 10
17.0
 20
-10.120000000000001
 10
17.0
 20
-9.66
 10
17.0
 20
-9.2
 10
17.0
 20
-8.74
 10
17.0
 20
-8.28
 10
17.0
 20
-7.82
 10
17.0
 20
-7.36
 10
17.0
 20
-6.9
 10
17.0
 20
-6.44
 10
17.0
 20
-5.98
 10
17.0
 20
-5.52
 10
17.0
 20
-5.06
 10
17.0
 20
-4.6
 10
17.0
 20
-4.14
 10
17.0
 20
-3.6799999999999997
 10
17.0
 20
-3.2200000000000006
 10
17.0
 20
-2.76
 10
17.0
 20
-2.3000000000000007
 10
17.0
 20
-1.8399999999999999
 10
17.0
 20
-1.3800000000000008
 10
17.0
 20
-0.9199999999999999
 10
17.0
 20
-0.46000000000000085
 10
17.0
 20
0.0
 10
17.0
 20
0.46000000000000085
 10
17.0
 20
0.9199999999999999
 10
17.0
 20
1.3800000000000008
 10
17.0
 20
1.8399999999999999
 10
17.0
 20
2.3000000000000007
 10
17.0
 20
2.76
 10
17.0
 20
3.2200000000000006
 10
17.0
 20
3.6799999999999997
 10
17.0
 20
4.140000000000001
 10
17.0
 20
4.600000000000001
 10
17.0
 20
5.059999999999999
 10
17.0
 20
5.52
 10
17.0
 20
5.98
 10
17.0
 20
6.440000000000001
 10
17.0
 20
6.899999999999999
 10
17.0
 20
7.359999999999999
 10
17.0
 20
7.82
 10
17.0
 20
8.280000000000001
 10
17.0
 20
8.739999999999998
 10
17.0
 20
9.2
 10
17.0
 20
9.66
 10
17.0
 20
10.120000000000001
 10
17.0
 20
10.579999999999998
 10
17.0
 20
11.04
 10
17.0
 20
11.5
  0
LWPOLYLINE
  5
41
330
17
100
AcDbEntity
  8
0
100
AcDbPolyline
 90
51
 70
0
 10
17.0
 20
-11.5
 10
16.94
 20
-11.56
 10
16.88
 20
-11.62
 10
16.82
 20
-11.68
 10
16.76
 20
-11.74
 10
16.7
 20
-11.8
 10
16.64
 20
-11.86
 10
16.580000000000002
 20
-11.92
 10
16.52
 20
-11.98
 10
16.46
 20
-12.04
 10
16.4
 20
-12.1
 10
16.34
 20
-12.16
 10
16.28
 20
-12.22
 10
16.22
 20
-12.28
 10
16.16
 20
-12.34
 10
16.1
 20
-12.4
 10
16.04
 20
-12.459999999999999
 10
15.98
 20
-12.52
 10
15.92
 20
-12.58
 10
15.86
 20
-12.64
 10
15.8
 20
-12.7
 10
15.74
 20
-12.76
 10
15.68
 20
-12.82
 10
15.620000000000001
 20
-12.879999999999999
 10
15.56
 20
-12.94
 10
15.5
 20
-13.0
 10
15.440000000000001
 20
-13.059999999999999
 10
15.38
 20
-13.12
 10
15.32
 20
-13.18
 10
15.26
 20
-13.24
 10
15.2
 20
-13.3
 10
15.14
 20
-13.36
 10
15.08
 20
-13.42
 10
15.02
 20
-13.48
 10
14.96
 20
-13.54
 10
14.9
 20
-13.6
 10
14.84
 20
-13.66
 10
14.780000000000001
 20
-13.719999999999999
 10
14.72
 20
-13.78
 10
14.66
 20
-13.84
 10
14.600000000000001
 20
-13.899999999999999
 10
14.540000000000001
 20
-13.959999999999999
 10
14.48
 20
-14.02
 10
14.420000000000002
 20
-14.079999999999998
 10
14.360000000000001
 20
-14.139999999999999
 10
14.3
 20
-14.2
 10
14.24
 20
-14.26
 10
14.180000000000001
 20
-14.319999999999999
 10
14.120000000000001
 20
-14.379999999999999
 10
14.06
 20
-14.44
 10
14.0
 20
-14.5
  0
LWPOLYLINE
  5
42
330
17
100
AcDbEntity
  8
0
100
AcDbPolyline
 90
51
 70
0
 10
4.0
 20
-14.5
 10
4.2
 20
-14.5
 10
4.4
 20
-14.5
 10
4.6
 20
-14.5
 10
4.8
 20
-14.5
 10
5.0
 20
-14.5
 10
5.2
 20
-14.5
 10
5.4
 20
-14.5
 10
5.6
 20
-14.5
 10
5.8
 20
-14.5
 10
6.0
 20
-14.5
 10
6.2
 20
-14.5
 10
6.4
 20
-14.5
 10
6.6
 20
-14.5
 10
6.8
 20
-14.5
 10
7.0
 20
-14.5
 10
7.2
 20
-14.5
 10
7.4
 20
-14.5
 10
7.6
 20
-14.5
 10
7.8
 20
-14.5
 10
8.0
 20
-14.5
 10
8.2
 20
-14.5
 10
8.4
 20
-14.5
 10
8.6
 20
-14.5
 10
8.8
 20
-14.5
 10
9.0
 20
-14.5
 10
9.2
 20
-14.5
 10
9.4
 20
-14.5
 10
9.6
 20
-14.5
 10
9.8
 20
-14.5
 10
10.0
 20
-14.5
 10
10.2
 20
-14.5
 10
10.4
 20
-14.5
 10
10.6
 20
-14.5
 10
10.8
 20
-14.5
 10
11.0
 20
-14.5
 10
11.2
 20
-14.5
 10
11.4
 20
-14.5
 10
11.6
 20
-14.5
 10
11.8
 20
-14.5
 10
12.0
 20
-14.5
 10
12.2
 20
-14.5
 10
12.4
 20
-14.5
 10
12.6
 20
-14.5
 10
12.8
 20
-14.5
 10
13.0
 20
-14.5
 10
13.2
 20
-14.5
 10
13.4
 20
-14.5
 10
13.6
 20
-14.5
 10
13.8
 20
-14.5
 10
14.0
 20
-14.5
  0
LWPOLYLINE
  5
43
330
17
100
AcDbEntity
  8
0
100
AcDbPolyline
 90
51
 70
0
 10
4.0
 20
-14.5
 10
3.8745997867642954
 20
-14.5
 10
3.7491995735285903
 20
-14.5
 10
3.6237993602928857
 20
-14.5
 10
3.4990749958173253
 20
-14.5
 10
3.375251763021958
 20
-14.5
 10
3.251428530226591
 20
-14.5
 10
3.1276052974312236
 20
-14.5
 10
3.006468461295844
 20
-14.5
 10
2.8857793579371287
 20
-14.5
 10
2.7650902545784137
 20
-14.5
 10
2.6457302554873667
 20
-14.5
 10
2.5296930170654885
 20
-14.5
 10
2.4136557786436104
 20
-14.5
 10
2.2976185402217326
 20
-14.5
 10
2.185946373611545
 20
-14.5
 10
2.0760202357260327
 20
-14.5
 10
1.9660940978405208
 20
-14.5
 10
1.8572384578837102
 20
-14.5
 10
1.7548058054991058
 20
-14.5
 10
1.6523731531145012
 20
-14.5
 10
1.5499405007298963
 20
-14.5
 10
1.4525259257952652
 20
-14.5
 10
1.3588749089481136
 20
-14.5
 10
1.2652238921009615
 20
-14.5
 10
1.1715728752538097
 20
-14.5
 10
1.0878812098185495
 20
-14.5
 10
1.0041895443832896
 20
-14.5
 10
0.9204978789480294
 20
-14.5
 10
0.8415255660829586
 20
-14.5
 10
0.768845723311474
 20
-14.5
 10
0.6961658805399892
 20
-14.5
 10
0.623486037768504
 20
-14.5
 10
0.5610283211596936
 20
-14.5
 10
0.5002742922446624
 20
-14.5
 10
0.4395202633296314
 20
-14.5
 10
0.3823919004204199
 20
-14.5
 10
0.33432770252575755
 20
-14.5
 10
0.28626350463109557
 20
-14.5
 10
0.23819930673643328
 20
-14.5
 10
0.19963101326776486
 20
-14.5
 10
0.1648610815694943
 20
-14.5
 10
0.13009114987122322
 20
-14.5
 10
0.09728286363887854
 20
-14.5
 10
0.07624445020208925
 20
-14.5
 10
0.05520603676529996
 20
-14.5
 10
0.03416762332851081
 20
-14.5
 10
0.02112697475870483
 20
-14.5
 10
0.014084649839136586
 20
-14.5
 10
0.007042324919568292
 20
-14.5
 10
0.0
 20
-14.5
  0
LWPOLYLINE
  5
44
330
17
100
AcDbEntity
  8
0
100
AcDbPolyline
 90
51
 70
0
 10
0.0
 20
-19.0
 10
0.007042324919568294
 20
-19.0
 10
0.014084649839136588
 20
-19.0
 10
0.02112697475870483
 20
-19.0
 10
0.03416762332851067
 20
-19.0
 10
0.05520603676529996
 20
-19.0
 10
0.07624445020208925
 20
-19.0
 10
0.09728286363887854
 20
-19.0
 10
0.13009114987122322
 20
-19.0
 10
0.16486108156949403
 20
-19.0
 10
0.1996310132677649
 20
-19.0
 10
0.23819930673643328
 20
-19.0
 10
0.28626350463109557
 20
-19.0
 10
0.33432770252575755
 20
-19.0
 10
0.3823919004204202
 20
-19.0
 10
0.43952026332963134
 20
-19.0
 10
0.5002742922446621
 20
-19.0
 10
0.5610283211596937
 20
-19.0
 10
0.6234860377685035
 20
-19.0
 10
0.6961658805399891
 20
-19.0
 10
0.7688457233114735
 20
-19.0
 10
0.8415255660829579
 20
-19.0
 10
0.9204978789480293
 20
-19.0
 10
1.0041895443832891
 20
-19.0
 10
1.08788120981855
 20
-19.0
 10
1.1715728752538097
 20
-19.0
 10
1.2652238921009609
 20
-19.0
 10
1.3588749089481134
 20
-19.0
 10
1.4525259257952645
 20
-19.0
 10
1.5499405007298968
 20
-19.0
 10
1.6523731531145007
 20
-19.0
 10
1.7548058054991047
 20
-19.0
 10
1.8572384578837102
 20
-19.0
 10
1.9660940978405217
 20
-19.0
 10
2.076020235726033
 20
-19.0
 10
2.1859463736115443
 20
-19.0
 10
2.2976185402217313
 20
-19.0
 10
2.4136557786436104
 20
-19.0
 10
2.5296930170654877
 20
-19.0
 10
2.6457302554873667
 20
-19.0
 10
2.7650902545784133
 20
-19.0
 10
2.885779357937128
 20
-19.0
 10
3.0064684612958437
 20
-19.0
 10
3.1276052974312223
 20
-19.0
 10
3.251428530226591
 20
-19.0
 10
3.3752517630219576
 20
-19.0
 10
3.4990749958173244
 20
-19.0
 10
3.6237993602928857
 20
-19.0
 10
3.74919957352859
 20
-19.0
 10
3.8745997867642954
 20
-19.0
 10
3.9999999999999996
 20
-19.0
  0
LWPOLYLINE
  5
45
330
17
100
AcDbEntity
  8
0
100
AcDbPolyline
 90
51
 70
0
 10
4.0
 20
19.0
 10
3.8745997867642954
 20
19.0
 10
3.7491995735285903
 20
19.0
 10
3.6237993602928857
 20
19.0
 10
3.4990749958173253
 20
19.0
 10
3.375251763021958
 20
19.0
 10
3.251428530226591
 20
19.0
 10
3.1276052974312236
 20
19.0
 10
3.006468461295844
 20
19.0
 10
2.8857793579371287
 20
19.0
 10
2.7650902545784137
 20
19.0
 10
2.6457302554873667
 20
19.0
 10
2.5296930170654885
 20
19.0
 10
2.4136557786436104
 20
19.0
 10
2.2976185402217326
 20
19.0
 10
2.185946373611545
 20
19.0
 10
2.0760202357260327
 20
19.0
 10
1.9660940978405208
 20
19.0
 10
1.8572384578837102
 20
19.0
 10
1.7548058054991058
 20
19.0
 10
1.6523731531145012
 20
19.0
 10
1.5499405007298963
 20
19.0
 10
1.4525259257952652
 20
19.0
 10
1.3588749089481136
 20
19.0
 10
1.2652238921009615
 20
19.0
 10
1.1715728752538097
 20
19.0
 10
1.0878812098185495
 20
19.0
 10
1.0041895443832896
 20
19.0
 10
0.9204978789480294
 20
19.0
 10
0.8415255660829586
 20
19.0
 10
0.768845723311474
 20
19.0
 10
0.6961658805399892
 20
19.0
 10
0.623486037768504
 20
19.0
 10
0.5610283211596936
 20
19.0
 10
0.5002742922446624
 20
19.0
 10
0.4395202633296314
 20
19.0
 10
0.3823919004204199
 20
19.0
 10
0.33432770252575755
 20
19.0
 10
0.28626350463109557
 20
19.0
 10
0.23819930673643328
 20
19.0
 10
0.19963101326776486
 20
19.0
 10
0.1648610815694943
 20
19.0
 10
0.13009114987122322
 20
19.0
 10
0.09728286363887854
 20
19.0
 10
0.07624445020208925
 20
19.0
 10
0.05520603676529996
 20
19.0
 10
0.03416762332851081
 20
19.0
 10
0.02112697475870483
 20
19.0
 10
0.014084649839136586
 20
19.0
 10
0.007042324919568292
 20
19.0
 10
0.0
 20
19.0
  0
LWPOLYLINE
  5
46
330
17
100
AcDbEntity
  8
0
100
AcDbPolyline
 90
51
 70
0
 10
0.0
 20
14.5
 10
0.007042324919568294
 20
14.5
 10
0.014084649839136588
 20
14.5
 10
0.02112697475870483
 20
14.5
 10
0.03416762332851067
 20
14.5
 10
0.05520603676529996
 20
14.5
 10
0.07624445020208925
 20
14.5
 10
0.09728286363887854
 20
14.5
 10
0.13009114987122322
 20
14.5
 10
0.16486108156949403
 20
14.5
 10
0.1996310132677649
 20
14.5
 10
0.23819930673643328
 20
14.5
 10
0.28626350463109557
 20
14.5
 10
0.33432770252575755
 20
14.5
 10
0.3823919004204202
 20
14.5
 10
0.43952026332963134
 20
14.5
 10
0.5002742922446621
 20
14.5
 10
0.5610283211596937
 20
14.5
 10
0.6234860377685035
 20
14.5
 10
0.6961658805399891
 20
14.5
 10
0.7688457233114735
 20
14.5
 10
0.8415255660829579
 20
14.5
 10
0.9204978789480293
 20
14.5
 10
1.0041895443832891
 20
14.5
 10
1.08788120981855
 20
14.5
 10
1.1715728752538097
 20
14.5
 10
1.2652238921009609
 20
14.5
 10
1.3588749089481134
 20
14.5
 10
1.4525259257952645
 20
14.5
 10
1.5499405007298968
 20
14.5
 10
1.6523731531145007
 20
14.5
 10
1.7548058054991047
 20
14.5
 10
1.8572384578837102
 20
14.5
 10
1.9660940978405217
 20
14.5
 10
2.076020235726033
 20
14.5
 10
2.1859463736115443
 20
14.5
 10
2.2976185402217313
 20
14.5
 10
2.4136557786436104
 20
14.5
 10
2.5296930170654877
 20
14.5
 10
2.6457302554873667
 20
14.5
 10
2.7650902545784133
 20
14.5
 10
2.885779357937128
 20
14.5
 10
3.0064684612958437
 20
14.5
 10
3.1276052974312223
 20
14.5
 10
3.251428530226591
 20
14.5
 10
3.3752517630219576
 20
14.5
 10
3.4990749958173244
 20
14.5
 10
3.6237993602928857
 20
14.5
 10
3.74919957352859
 20
14.5
 10
3.8745997867642954
 20
14.5
 10
3.9999999999999996
 20
14.5
  0
LWPOLYLINE
  5
47
330
17
100
AcDbEntity
  8
0
100
AcDbPolyline
 90
51
 70
0
 10
4.0
 20
9.0
 10
3.905949840073222
 20
9.0
 10
3.8118996801464426
 20
9.0
 10
3.717849520219665
 20
9.0
 10
3.624306246862994
 20
9.0
 10
3.5314388222664688
 20
9.0
 10
3.4385713976699437
 20
9.0
 10
3.3457039730734177
 20
9.0
 10
3.2548513459718835
 20
9.0
 10
3.1643345184528466
 20
9.0
 10
3.0738176909338106
 20
9.0
 10
2.984297691615526
 20
9.0
 10
2.8972697627991164
 20
9.0
 10
2.8102418339827087
 20
9.0
 10
2.723213905166299
 20
9.0
 10
2.6394597802086586
 20
9.0
 10
2.5570151767945255
 20
9.0
 10
2.4745705733803907
 20
9.0
 10
2.392928843412783
 20
9.0
 10
2.316104354124329
 20
9.0
 10
2.239279864835876
 20
9.0
 10
2.162455375547423
 20
9.0
 10
2.089394444346449
 20
9.0
 10
2.0191561817110855
 20
9.0
 10
1.948917919075721
 20
9.0
 10
1.8786796564403576
 20
9.0
 10
1.8159109073639128
 20
9.0
 10
1.7531421582874671
 20
9.0
 10
1.6903734092110214
 20
9.0
 10
1.6311441745622188
 20
9.0
 10
1.5766342924836054
 20
9.0
 10
1.522124410404992
 20
9.0
 10
1.4676145283263788
 20
9.0
 10
1.42077124086977
 20
9.0
 10
1.375205719183497
 20
9.0
 10
1.3296401974972238
 20
9.0
 10
1.2867939253153156
 20
9.0
 10
1.250745776894318
 20
9.0
 10
1.2146976284733215
 20
9.0
 10
1.1786494800523248
 20
9.0
 10
1.1497232599508238
 20
9.0
 10
1.1236458111771208
 20
9.0
 10
1.0975683624034178
 20
9.0
 10
1.072962147729159
 20
9.0
 10
1.0571833376515667
 20
9.0
 10
1.041404527573975
 20
9.0
 10
1.0256257174963832
 20
9.0
 10
1.0158452310690287
 20
9.0
 10
1.0105634873793525
 20
9.0
 10
1.0052817436896762
 20
9.0
 10
1.0
 20
9.0
  0
LWPOLYLINE
  5
48
330
17
100
AcDbEntity
  8
0
100
AcDbPolyline
 90
51
 70
0
 10
7.0
 20
9.0
 10
6.994718256310324
 20
9.0
 10
6.989436512620648
 20
9.0
 10
6.9841547689309715
 20
9.0
 10
6.974374282503617
 20
9.0
 10
6.958595472426026
 20
9.0
 10
6.9428166623484335
 20
9.0
 10
6.927037852270842
 20
9.0
 10
6.902431637596583
 20
9.0
 10
6.87635418882288
 20
9.0
 10
6.8502767400491775
 20
9.0
 10
6.821350519947676
 20
9.0
 10
6.785302371526679
 20
9.0
 10
6.749254223105683
 20
9.0
 10
6.713206074684687
 20
9.0
 10
6.670359802502778
 20
9.0
 10
6.624794280816503
 20
9.0
 10
6.579228759130229
 20
9.0
 10
6.532385471673622
 20
9.0
 10
6.477875589595008
 20
9.0
 10
6.423365707516395
 20
9.0
 10
6.368855825437782
 20
9.0
 10
6.309626590788978
 20
9.0
 10
6.246857841712535
 20
9.0
 10
6.18408909263609
 20
9.0
 10
6.121320343559645
 20
9.0
 10
6.051082080924278
 20
9.0
 10
5.980843818288915
 20
9.0
 10
5.910605555653552
 20
9.0
 10
5.837544624452578
 20
9.0
 10
5.760720135164125
 20
9.0
 10
5.683895645875672
 20
9.0
 10
5.607071156587219
 20
9.0
 10
5.525429426619611
 20
9.0
 10
5.442984823205478
 20
9.0
 10
5.36054021979134
 20
9.0
 10
5.2767860948336995
 20
9.0
 10
5.189758166017292
 20
9.0
 10
5.102730237200884
 20
9.0
 10
5.015702308384476
 20
9.0
 10
4.92618230906619
 20
9.0
 10
4.835665481547155
 20
9.0
 10
4.74514865402812
 20
9.0
 10
4.654296026926585
 20
9.0
 10
4.561428602330061
 20
9.0
 10
4.468561177733536
 20
9.0
 10
4.375693753137005
 20
9.0
 10
4.282150479780335
 20
9.0
 10
4.188100319853557
 20
9.0
 10
4.094050159926779
 20
9.0
 10
4.000000000000001
 20
9.0
  0
LWPOLYLINE
  5
49
330
17
100
AcDbEntity
  8
0
100
AcDbPolyline
 90
51
 70
0
 10
4.0
 20
6.0
 10
3.905949840073222
 20
6.0
 10
3.8118996801464426
 20
6.0
 10
3.717849520219665
 20
6.0
 10
3.624306246862994
 20
6.0
 10
3.5314388222664688
 20
6.0
 10
3.4385713976699437
 20
6.0
 10
3.3457039730734177
 20
6.0
 10
3.2548513459718835
 20
6.0
 10
3.1643345184528466
 20
6.0
 10
3.0738176909338106
 20
6.0
 10
2.984297691615526
 20
6.0
 10
2.8972697627991164
 20
6.0
 10
2.8102418339827087
 20
6.0
 10
2.723213905166299
 20
6.0
 10
2.6394597802086586
 20
6.0
 10
2.5570151767945255
 20
6.0
 10
2.4745705733803907
 20
6.0
 10
2.392928843412783
 20
6.0
 10
2.316104354124329
 20
6.0
 10
2.239279864835876
 20
6.0
 10
2.162455375547423
 20
6.0
 10
2.089394444346449
 20
6.0
 10
2.0191561817110855
 20
6.0
 10
1.948917919075721
 20
6.0
 10
1.8786796564403576
 20
6.0
 10
1.8159109073639128
 20
6.0
 10
1.7531421582874671
 20
6.0
 10
1.6903734092110214
 20
6.0
 10
1.6311441745622188
 20
6.0
 10
1.5766342924836054
 20
6.0
 10
1.522124410404992
 20
6.0
 10
1.4676145283263788
 20
6.0
 10
1.42077124086977
 20
6.0
 10
1.375205719183497
 20
6.0
 10
1.3296401974972238
 20
6.0
 10
1.2867939253153156
 20
6.0
 10
1.250745776894318
 20
6.0
 10
1.2146976284733215
 20
6.0
 10
1.1786494800523248
 20
6.0
 10
1.1497232599508238
 20
6.0
 10
1.1236458111771208
 20
6.0
 10
1.0975683624034178
 20
6.0
 10
1.072962147729159
 20
6.0
 10
1.0571833376515667
 20
6.0
 10
1.041404527573975
 20
6.0
 10
1.0256257174963832
 20
6.0
 10
1.0158452310690287
 20
6.0
 10
1.0105634873793525
 20
6.0
 10
1.0052817436896762
 20
6.0
 10
1.0
 20
6.0
  0
LWPOLYLINE
  5
4A
330
17
100
AcDbEntity
  8
0
100
AcDbPolyline
 90
51
 70
0
 10
7.0
 20
6.0
 10
6.994718256310324
 20
6.0
 10
6.989436512620648
 20
6.0
 10
6.9841547689309715
 20
6.0
 10
6.974374282503617
 20
6.0
 10
6.958595472426026
 20
6.0
 10
6.9428166623484335
 20
6.0
 10
6.927037852270842
 20
6.0
 10
6.902431637596583
 20
6.0
 10
6.87635418882288
 20
6.0
 10
6.8502767400491775
 20
6.0
 10
6.821350519947676
 20
6.0
 10
6.785302371526679
 20
6.0
 10
6.749254223105683
 20
6.0
 10
6.713206074684687
 20
6.0
 10
6.670359802502778
 20
6.0
 10
6.624794280816503
 20
6.0
 10
6.579228759130229
 20
6.0
 10
6.532385471673622
 20
6.0
 10
6.477875589595008
 20
6.0
 10
6.423365707516395
 20
6.0
 10
6.368855825437782
 20
6.0
 10
6.309626590788978
 20
6.0
 10
6.246857841712535
 20
6.0
 10
6.18408909263609
 20
6.0
 10
6.121320343559645
 20
6.0
 10
6.051082080924278
 20
6.0
 10
5.980843818288915
 20
6.0
 10
5.910605555653552
 20
6.0
 10
5.837544624452578
 20
6.0
 10
5.760720135164125
 20
6.0
 10
5.683895645875672
 20
6.0
 10
5.607071156587219
 20
6.0
 10
5.525429426619611
 20
6.0
 10
5.442984823205478
 20
6.0
 10
5.36054021979134
 20
6.0
 10
5.2767860948336995
 20
6.0
 10
5.189758166017292
 20
6.0
 10
5.102730237200884
 20
6.0
 10
5.015702308384476
 20
6.0
 10
4.92618230906619
 20
6.0
 10
4.835665481547155
 20
6.0
 10
4.74514865402812
 20
6.0
 10
4.654296026926585
 20
6.0
 10
4.561428602330061
 20
6.0
 10
4.468561177733536
 20
6.0
 10
4.375693753137005
 20
6.0
 10
4.282150479780335
 20
6.0
 10
4.188100319853557
 20
6.0
 10
4.094050159926779
 20
6.0
 10
4.000000000000001
 20
6.0
  0
LWPOLYLINE
  5
4B
330
17
100
AcDbEntity
  8
0
100
AcDbPolyline
 90
51
 70
0
 10
1.0
 20
-9.0
 10
1.021060553767268
 20
-9.0
 10
1.0421211075345362
 20
-9.0
 10
1.0631816613018044
 20
-9.0
 10
1.101841519395115
 20
-9.0
 10
1.1639671165898142
 20
-9.0
 10
1.2260927137845135
 20
-9.0
 10
1.2882183109792136
 20
-9.0
 10
1.3828723138055021
 20
-9.0
 10
1.48294771757039
 20
-9.0
 10
1.5830231213352768
 20
-9.0
 10
1.6925075559421405
 20
-9.0
 10
1.8255145676539506
 20
-9.0
 10
1.9585215793657587
 20
-9.0
 10
2.0915285910775685
 20
-9.0
 10
2.243294232068504
 20
-9.0
 10
2.4025633247710907
 20
-9.0
 10
2.561832417473679
 20
-9.0
 10
2.7237123192666735
 20
-9.0
 10
2.90125707560212
 20
-9.0
 10
3.0788018319375636
 20
-9.0
 10
3.2563465882730074
 20
-9.0
 10
3.4392472464300874
 20
-9.0
 10
3.6261648309533907
 20
-9.0
 10
3.8130824154766962
 20
-9.0
 10
3.999999999999999
 20
-9.0
 10
4.186917584523302
 20
-9.0
 10
4.3738351690466075
 20
-9.0
 10
4.56075275356991
 20
-9.0
 10
4.743653411726991
 20
-9.0
 10
4.921198168062435
 20
-9.0
 10
5.098742924397879
 20
-9.0
 10
5.276287680733326
 20
-9.0
 10
5.438167582526322
 20
-9.0
 10
5.597436675228908
 20
-9.0
 10
5.756705767931495
 20
-9.0
 10
5.908471408922431
 20
-9.0
 10
6.041478420634241
 20
-9.0
 10
6.1744854323460485
 20
-9.0
 10
6.307492444057859
 20
-9.0
 10
6.416976878664723
 20
-9.0
 10
6.517052282429609
 20
-9.0
 10
6.617127686194497
 20
-9.0
 10
6.7117816890207855
 20
-9.0
 10
6.773907286215485
 20
-9.0
 10
6.836032883410185
 20
-9.0
 10
6.898158480604884
 20
-9.0
 10
6.936818338698195
 20
-9.0
 10
6.957878892465463
 20
-9.0
 10
6.978939446232732
 20
-9.0
 10
7.0
 20
-9.0
  0
LWPOLYLINE
  5
4C
330
17
100
AcDbEntity
  8
0
100
AcDbPolyline
 90
51
 70
0
 10
1.0
 20
-6.0
 10
1.021060553767268
 20
-6.0
 10
1.0421211075345362
 20
-6.0
 10
1.0631816613018044
 20
-6.0
 10
1.101841519395115
 20
-6.0
 10
1.1639671165898142
 20
-6.0
 10
1.2260927137845135
 20
-6.0
 10
1.2882183109792136
 20
-6.0
 10
1.3828723138055021
 20
-6.0
 10
1.48294771757039
 20
-6.0
 10
1.5830231213352768
 20
-6.0
 10
1.6925075559421405
 20
-6.0
 10
1.8255145676539506
 20
-6.0
 10
1.9585215793657587
 20
-6.0
 10
2.0915285910775685
 20
-6.0
 10
2.243294232068504
 20
-6.0
 10
2.4025633247710907
 20
-6.0
 10
2.561832417473679
 20
-6.0
 10
2.7237123192666735
 20
-6.0
 10
2.90125707560212
 20
-6.0
 10
3.0788018319375636
 20
-6.0
 10
3.2563465882730074
 20
-6.0
 10
3.4392472464300874
 20
-6.0
 10
3.6261648309533907
 20
-6.0
 10
3.8130824154766962
 20
-6.0
 10
3.999999999999999
 20
-6.0
 10
4.186917584523302
 20
-6.0
 10
4.3738351690466075
 20
-6.0
 10
4.56075275356991
 20
-6.0
 10
4.743653411726991
 20
-6.0
 10
4.921198168062435
 20
-6.0
 10
5.098742924397879
 20
-6.0
 10
5.276287680733326
 20
-6.0
 10
5.438167582526322
 20
-6.0
 10
5.597436675228908
 20
-6.0
 10
5.756705767931495
 20
-6.0
 10
5.908471408922431
 20
-6.0
 10
6.041478420634241
 20
-6.0
 10
6.1744854323460485
 20
-6.0
 10
6.307492444057859
 20
-6.0
 10
6.416976878664723
 20
-6.0
 10
6.517052282429609
 20
-6.0
 10
6.617127686194497
 20
-6.0
 10
6.7117816890207855
 20
-6.0
 10
6.773907286215485
 20
-6.0
 10
6.836032883410185
 20
-6.0
 10
6.898158480604884
 20
-6.0
 10
6.936818338698195
 20
-6.0
 10
6.957878892465463
 20
-6.0
 10
6.978939446232732
 20
-6.0
 10
7.0
 20
-6.0
  0
ENDSEC
  0
SECTION
  2
OBJECTS
  0
DICTIONARY
  5
A
330
0
100
AcDbDictionary
280
0
281
1
  3
ACAD_COLOR
350
B
  3
ACAD_GROUP
350
C
  3
ACAD_LAYOUT
350
D
  3
ACAD_MATERIAL
350
E
  3
ACAD_MLEADERSTYLE
350
F
  3
ACAD_MLINESTYLE
350
10
  3
ACAD_PLOTSETTINGS
350
11
  3
ACAD_PLOTSTYLENAME
350
12
  3
ACAD_SCALELIST
350
14
  3
ACAD_TABLESTYLE
350
15
  3
ACAD_VISUALSTYLE
350
16
  3
EZDXF_META
350
2D
  0
DICTIONARY
  5
B
330
A
100
AcDbDictionary
280
0
281
1
  0
DICTIONARY
  5
C
330
A
100
AcDbDictionary
280
0
281
1
  0
DICTIONARY
  5
D
330
A
100
AcDbDictionary
280
0
281
1
  3
Model
350
1A
  3
Layout1
350
1E
  0
DICTIONARY
  5
E
330
A
100
AcDbDictionary
280
0
281
1
  3
ByBlock
350
1F
  3
ByLayer
350
20
  3
Global
350
21
  0
DICTIONARY
  5
F
330
A
100
AcDbDictionary
280
0
281
1
  3
Standard
350
2C
  0
DICTIONARY
  5
10
330
A
100
AcDbDictionary
280
0
281
1
  3
Standard
350
22
  0
DICTIONARY
  5
11
330
A
100
AcDbDictionary
280
0
281
1
  0
ACDBDICTIONARYWDFLT
  5
12
330
A
100
AcDbDictionary
280
0
281
1
  3
Normal
350
13
100
AcDbDictionaryWithDefault
340
13
  0
ACDBPLACEHOLDER
  5
13
330
12
  0
DICTIONARY
  5
14
330
A
100
AcDbDictionary
280
0
281
1
  0
DICTIONARY
  5
15
330
A
100
AcDbDictionary
280
0
281
1
  0
DICTIONARY
  5
16
330
A
100
AcDbDictionary
280
0
281
1
  0
LAYOUT
  5
1A
330
D
100
AcDbPlotSettings
  1

  2
Adobe PDF
  4
A3
  6

 40
7.5
 41
20.0
 42
7.5
 43
20.0
 44
420.0
 45
297.0
 46
0.0
 47
0.0
 48
0.0
 49
0.0
140
0.0
141
0.0
142
1.0
143
1.0
 70
1024
 72
1
 73
0
 74
5
  7

 75
16
 76
0
 77
2
 78
300
147
1.0
148
0.0
149
0.0
100
AcDbLayout
  1
Model
 70
1
 71
0
 10
0.0
 20
0.0
 11
420.0
 21
297.0
 12
0.0
 22
0.0
 32
0.0
 14
1e+20
 24
1e+20
 34
1e+20
 15
-1e+20
 25
-1e+20
 35
-1e+20
146
0.0
 13
0.0
 23
0.0
 33
0.0
 16
1.0
 26
0.0
 36
0.0
 17
0.0
 27
1.0
 37
0.0
 76
1
330
17
  0
LAYOUT
  5
1E
330
D
100
AcDbPlotSettings
  1

  2
Adobe PDF
  4
A3
  6

 40
7.5
 41
20.0
 42
7.5
 43
20.0
 44
420.0
 45
297.0
 46
0.0
 47
0.0
 48
0.0
 49
0.0
140
0.0
141
0.0
142
1.0
143
1.0
 70
0
 72
1
 73
0
 74
5
  7

 75
16
 76
0
 77
2
 78
300
147
1.0
148
0.0
149
0.0
100
AcDbLayout
  1
Layout1
 70
1
 71
1
 10
0.0
 20
0.0
 11
420.0
 21
297.0
 12
0.0
 22
0.0
 32
0.0
 14
1e+20
 24
1e+20
 34
1e+20
 15
-1e+20
 25
-1e+20
 35
-1e+20
146
0.0
 13
0.0
 23
0.0
 33
0.0
 16
1.0
 26
0.0
 36
0.0
 17
0.0
 27
1.0
 37
0.0
 76
1
330
1B
  0
MATERIAL
  5
1F
102
{ACAD_REACTORS
330
E
102
}
330
E
100
AcDbMaterial
  1
ByBlock
  2

 70
0
 40
1.0
 71
1
 41
1.0
 91
-1023410177
 42
1.0
 72
1
  3

 73
1
 74
1
 75
1
 44
0.5
 73
0
 45
1.0
 46
1.0
 77
1
  4

 78
1
 79
1
170
1
 48
1.0
171
1
  6

172
1
173
1
174
1
140
1.0
141
1.0
175
1
  7

176
1
177
1
178
1
143
1.0
179
1
  8

270
1
271
1
272
1
145
1.0
146
1.0
273
1
  9

274
1
275
1
276
1
 42
1.0
 72
1
  3

 73
1
 74
1
 75
1
 94
63
  0
MATERIAL
  5
20
102
{ACAD_REACTORS
330
E
102
}
330
E
100
AcDbMaterial
  1
ByLayer
  2

 70
0
 40
1.0
 71
1
 41
1.0
 91
-1023410177
 42
1.0
 72
1
  3

 73
1
 74
1
 75
1
 44
0.5
 73
0
 45
1.0
 46
1.0
 77
1
  4

 78
1
 79
1
170
1
 48
1.0
171
1
  6

172
1
173
1
174
1
140
1.0
141
1.0
175
1
  7

176
1
177
1
178
1
143
1.0
179
1
  8

270
1
271
1
272
1
145
1.0
146
1.0
273
1
  9

274
1
275
1
276
1
 42
1.0
 72
1
  3

 73
1
 74
1
 75
1
 94
63
  0
MATERIAL
  5
21
102
{ACAD_REACTORS
330
E
102
}
330
E
100
AcDbMaterial
  1
Global
  2

 70
0
 40
1.0
 71
1
 41
1.0
 91
-1023410177
 42
1.0
 72
1
  3

 73
1
 74
1
 75
1
 44
0.5
 73
0
 45
1.0
 46
1.0
 77
1
  4

 78
1
 79
1
170
1
 48
1.0
171
1
  6

172
1
173
1
174
1
140
1.0
141
1.0
175
1
  7

176
1
177
1
178
1
143
1.0
179
1
  8

270
1
271
1
272
1
145
1.0
146
1.0
273
1
  9

274
1
275
1
276
1
 42
1.0
 72
1
  3

 73
1
 74
1
 75
1
 94
63
  0
MLINESTYLE
  5
22
102
{ACAD_REACTORS
330
10
102
}
330
10
100
AcDbMlineStyle
  2
Standard
 70
0
  3

 62
256
 51
90.0
 52
90.0
 71
2
 49
0.5
 62
256
  6
BYLAYER
 49
-0.5
 62
256
  6
BYLAYER
  0
MLEADERSTYLE
  5
2C
102
{ACAD_REACTORS
330
F
102
}
330
F
100
AcDbMLeaderStyle
179
2
170
2
171
1
172
0
 90
2
 40
0.0
 41
0.0
173
1
 91
-1056964608
 92
-2
290
1
 42
2.0
291
1
 43
8.0
  3
Standard
 44
4.0
300

342
29
174
1
175
1
176
0
178
1
 93
-1056964608
 45
4.0
292
0
297
0
 46
4.0
 94
-1056964608
 47
1.0
 49
1.0
140
1.0
294
1
141
0.0
177
0
142
1.0
295
0
296
0
143
3.75
271
0
272
9
273
9
  0
DICTIONARY
  5
2D
330
A
100
AcDbDictionary
281
1
  3
CREATED_BY_EZDXF
350
2E
  3
WRITTEN_BY_EZDXF
350
4F
  0
DICTIONARYVAR
  5
2E
330
2D
100
DictionaryVariables
280
0
  1
1.0.3 @ 2025-05-29T09:41:25.869603+00:00
  0
DICTIONARYVAR
  5
4F
330
2D
100
DictionaryVariables
280
0
  1
1.0.3 @ 2025-05-29T09:41:25.875605+00:00
  0
ENDSEC
  0
EOF
