  0
SECTION
  2
HEADER
  9
$ACADVER
  1
AC1027
  9
$ACADMAINTVER
 70
105
  9
$DWGCODEPAGE
  3
ANSI_1252
  9
$LASTSAVEDBY
  1
ezdxf
  9
$REQUIREDVERSIONS
160
0
  9
$INSBASE
 10
0.0
 20
0.0
 30
0.0
  9
$EXTMIN
 10
1e+20
 20
1e+20
 30
1e+20
  9
$EXTMAX
 10
-1e+20
 20
-1e+20
 30
-1e+20
  9
$LIMMIN
 10
0.0
 20
0.0
  9
$LIMMAX
 10
420.0
 20
297.0
  9
$ORTHOMODE
 70
0
  9
$REGENMODE
 70
1
  9
$FILLMODE
 70
1
  9
$QTEXTMODE
 70
0
  9
$MIRRTEXT
 70
1
  9
$LTSCALE
 40
1.0
  9
$ATTMODE
 70
1
  9
$TEXTSIZE
 40
2.5
  9
$TRACEWID
 40
1.0
  9
$TEXTSTYLE
  7
Standard
  9
$CLAYER
  8
0
  9
$CELTYPE
  6
ByLayer
  9
$CECOLOR
 62
256
  9
$CELTSCALE
 40
1.0
  9
$DISPSILH
 70
0
  9
$DIMSCALE
 40
1.0
  9
$DIMASZ
 40
2.5
  9
$DIMEXO
 40
0.625
  9
$DIMDLI
 40
3.75
  9
$DIMRND
 40
0.0
  9
$DIMDLE
 40
0.0
  9
$DIMEXE
 40
1.25
  9
$DIMTP
 40
0.0
  9
$DIMTM
 40
0.0
  9
$DIMTXT
 40
2.5
  9
$DIMCEN
 40
2.5
  9
$DIMTSZ
 40
0.0
  9
$DIMTOL
 70
0
  9
$DIMLIM
 70
0
  9
$DIMTIH
 70
0
  9
$DIMTOH
 70
0
  9
$DIMSE1
 70
0
  9
$DIMSE2
 70
0
  9
$DIMTAD
 70
1
  9
$DIMZIN
 70
8
  9
$DIMBLK
  1

  9
$DIMASO
 70
1
  9
$DIMSHO
 70
1
  9
$DIMPOST
  1

  9
$DIMAPOST
  1

  9
$DIMALT
 70
0
  9
$DIMALTD
 70
3
  9
$DIMALTF
 40
0.03937007874
  9
$DIMLFAC
 40
1.0
  9
$DIMTOFL
 70
1
  9
$DIMTVP
 40
0.0
  9
$DIMTIX
 70
0
  9
$DIMSOXD
 70
0
  9
$DIMSAH
 70
0
  9
$DIMBLK1
  1

  9
$DIMBLK2
  1

  9
$DIMSTYLE
  2
ISO-25
  9
$DIMCLRD
 70
0
  9
$DIMCLRE
 70
0
  9
$DIMCLRT
 70
0
  9
$DIMTFAC
 40
1.0
  9
$DIMGAP
 40
0.625
  9
$DIMJUST
 70
0
  9
$DIMSD1
 70
0
  9
$DIMSD2
 70
0
  9
$DIMTOLJ
 70
0
  9
$DIMTZIN
 70
8
  9
$DIMALTZ
 70
0
  9
$DIMALTTZ
 70
0
  9
$DIMUPT
 70
0
  9
$DIMDEC
 70
2
  9
$DIMTDEC
 70
2
  9
$DIMALTU
 70
2
  9
$DIMALTTD
 70
3
  9
$DIMTXSTY
  7
Standard
  9
$DIMAUNIT
 70
0
  9
$DIMADEC
 70
0
  9
$DIMALTRND
 40
0.0
  9
$DIMAZIN
 70
0
  9
$DIMDSEP
 70
44
  9
$DIMATFIT
 70
3
  9
$DIMFRAC
 70
0
  9
$DIMLDRBLK
  1

  9
$DIMLUNIT
 70
2
  9
$DIMLWD
 70
-2
  9
$DIMLWE
 70
-2
  9
$DIMTMOVE
 70
0
  9
$DIMFXL
 40
1.0
  9
$DIMFXLON
 70
0
  9
$DIMJOGANG
 40
0.785398163397
  9
$DIMTFILL
 70
0
  9
$DIMTFILLCLR
 70
0
  9
$DIMARCSYM
 70
0
  9
$DIMLTYPE
  6

  9
$DIMLTEX1
  6

  9
$DIMLTEX2
  6

  9
$DIMTXTDIRECTION
 70
0
  9
$LUNITS
 70
2
  9
$LUPREC
 70
4
  9
$SKETCHINC
 40
1.0
  9
$FILLETRAD
 40
10.0
  9
$AUNITS
 70
0
  9
$AUPREC
 70
2
  9
$MENU
  1
.
  9
$ELEVATION
 40
0.0
  9
$PELEVATION
 40
0.0
  9
$THICKNESS
 40
0.0
  9
$LIMCHECK
 70
0
  9
$CHAMFERA
 40
0.0
  9
$CHAMFERB
 40
0.0
  9
$CHAMFERC
 40
0.0
  9
$CHAMFERD
 40
0.0
  9
$SKPOLY
 70
0
  9
$TDCREATE
 40
2460825.778773148
  9
$TDUCREATE
 40
2458532.153996898
  9
$TDUPDATE
 40
2460825.778773148
  9
$TDUUPDATE
 40
2458532.1544311
  9
$TDINDWG
 40
0.0
  9
$TDUSRTIMER
 40
0.0
  9
$USRTIMER
 70
1
  9
$ANGBASE
 50
0.0
  9
$ANGDIR
 70
0
  9
$PDMODE
 70
0
  9
$PDSIZE
 40
0.0
  9
$PLINEWID
 40
0.0
  9
$SPLFRAME
 70
0
  9
$SPLINETYPE
 70
6
  9
$SPLINESEGS
 70
8
  9
$HANDSEED
  5
42
  9
$SURFTAB1
 70
6
  9
$SURFTAB2
 70
6
  9
$SURFTYPE
 70
6
  9
$SURFU
 70
6
  9
$SURFV
 70
6
  9
$UCSBASE
  2

  9
$UCSNAME
  2

  9
$UCSORG
 10
0.0
 20
0.0
 30
0.0
  9
$UCSXDIR
 10
1.0
 20
0.0
 30
0.0
  9
$UCSYDIR
 10
0.0
 20
1.0
 30
0.0
  9
$UCSORTHOREF
  2

  9
$UCSORTHOVIEW
 70
0
  9
$UCSORGTOP
 10
0.0
 20
0.0
 30
0.0
  9
$UCSORGBOTTOM
 10
0.0
 20
0.0
 30
0.0
  9
$UCSORGLEFT
 10
0.0
 20
0.0
 30
0.0
  9
$UCSORGRIGHT
 10
0.0
 20
0.0
 30
0.0
  9
$UCSORGFRONT
 10
0.0
 20
0.0
 30
0.0
  9
$UCSORGBACK
 10
0.0
 20
0.0
 30
0.0
  9
$PUCSBASE
  2

  9
$PUCSNAME
  2

  9
$PUCSORG
 10
0.0
 20
0.0
 30
0.0
  9
$PUCSXDIR
 10
1.0
 20
0.0
 30
0.0
  9
$PUCSYDIR
 10
0.0
 20
1.0
 30
0.0
  9
$PUCSORTHOREF
  2

  9
$PUCSORTHOVIEW
 70
0
  9
$PUCSORGTOP
 10
0.0
 20
0.0
 30
0.0
  9
$PUCSORGBOTTOM
 10
0.0
 20
0.0
 30
0.0
  9
$PUCSORGLEFT
 10
0.0
 20
0.0
 30
0.0
  9
$PUCSORGRIGHT
 10
0.0
 20
0.0
 30
0.0
  9
$PUCSORGFRONT
 10
0.0
 20
0.0
 30
0.0
  9
$PUCSORGBACK
 10
0.0
 20
0.0
 30
0.0
  9
$USERI1
 70
0
  9
$USERI2
 70
0
  9
$USERI3
 70
0
  9
$USERI4
 70
0
  9
$USERI5
 70
0
  9
$USERR1
 40
0.0
  9
$USERR2
 40
0.0
  9
$USERR3
 40
0.0
  9
$USERR4
 40
0.0
  9
$USERR5
 40
0.0
  9
$WORLDVIEW
 70
1
  9
$SHADEDGE
 70
3
  9
$SHADEDIF
 70
70
  9
$TILEMODE
 70
1
  9
$MAXACTVP
 70
64
  9
$PINSBASE
 10
0.0
 20
0.0
 30
0.0
  9
$PLIMCHECK
 70
0
  9
$PEXTMIN
 10
1e+20
 20
1e+20
 30
1e+20
  9
$PEXTMAX
 10
-1e+20
 20
-1e+20
 30
-1e+20
  9
$PLIMMIN
 10
0.0
 20
0.0
  9
$PLIMMAX
 10
420.0
 20
297.0
  9
$UNITMODE
 70
0
  9
$VISRETAIN
 70
1
  9
$PLINEGEN
 70
0
  9
$PSLTSCALE
 70
1
  9
$TREEDEPTH
 70
3020
  9
$CMLSTYLE
  2
Standard
  9
$CMLJUST
 70
0
  9
$CMLSCALE
 40
20.0
  9
$PROXYGRAPHICS
 70
1
  9
$MEASUREMENT
 70
1
  9
$CELWEIGHT
370
-1
  9
$ENDCAPS
280
0
  9
$JOINSTYLE
280
0
  9
$LWDISPLAY
290
0
  9
$INSUNITS
 70
6
  9
$HYPERLINKBASE
  1

  9
$STYLESHEET
  1

  9
$XEDIT
290
1
  9
$CEPSNTYPE
380
0
  9
$PSTYLEMODE
290
1
  9
$FINGERPRINTGUID
  2
{9076BCCF-5900-4AFF-A18B-DA1ECE2E74AE}
  9
$VERSIONGUID
  2
{269CDE02-D897-465E-BF6A-7DB8E7077C54}
  9
$EXTNAMES
290
1
  9
$PSVPSCALE
 40
0.0
  9
$OLESTARTUP
290
0
  9
$SORTENTS
280
127
  9
$INDEXCTL
280
0
  9
$HIDETEXT
280
1
  9
$XCLIPFRAME
280
0
  9
$HALOGAP
280
0
  9
$OBSCOLOR
 70
257
  9
$OBSLTYPE
280
0
  9
$INTERSECTIONDISPLAY
280
0
  9
$INTERSECTIONCOLOR
 70
257
  9
$DIMASSOC
280
2
  9
$PROJECTNAME
  1

  9
$CAMERADISPLAY
290
0
  9
$LENSLENGTH
 40
50.0
  9
$CAMERAHEIGHT
 40
0.0
  9
$STEPSPERSEC
 40
24.0
  9
$STEPSIZE
 40
100.0
  9
$3DDWFPREC
 40
2.0
  9
$PSOLWIDTH
 40
0.005
  9
$PSOLHEIGHT
 40
0.08
  9
$LOFTANG1
 40
1.570796326795
  9
$LOFTANG2
 40
1.570796326795
  9
$LOFTMAG1
 40
0.0
  9
$LOFTMAG2
 40
0.0
  9
$LOFTPARAM
 70
7
  9
$LOFTNORMALS
280
1
  9
$LATITUDE
 40
37.795
  9
$LONGITUDE
 40
-122.394
  9
$NORTHDIRECTION
 40
0.0
  9
$TIMEZONE
 70
-8000
  9
$LIGHTGLYPHDISPLAY
280
1
  9
$TILEMODELIGHTSYNCH
280
1
  9
$CMATERIAL
347
20
  9
$SOLIDHIST
280
0
  9
$SHOWHIST
280
1
  9
$DWFFRAME
280
2
  9
$DGNFRAME
280
2
  9
$REALWORLDSCALE
290
1
  9
$INTERFERECOLOR
 62
256
  9
$CSHADOW
280
0
  9
$SHADOWPLANELOCATION
 40
0.0
  0
ENDSEC
  0
SECTION
  2
CLASSES
  0
CLASS
  1
ACDBDICTIONARYWDFLT
  2
AcDbDictionaryWithDefault
  3
ObjectDBX Classes
 90
0
 91
0
280
0
281
0
  0
CLASS
  1
SUN
  2
AcDbSun
  3
SCENEOE
 90
1153
 91
0
280
0
281
0
  0
CLASS
  1
VISUALSTYLE
  2
AcDbVisualStyle
  3
ObjectDBX Classes
 90
4095
 91
0
280
0
281
0
  0
CLASS
  1
MATERIAL
  2
AcDbMaterial
  3
ObjectDBX Classes
 90
1153
 91
0
280
0
281
0
  0
CLASS
  1
SCALE
  2
AcDbScale
  3
ObjectDBX Classes
 90
1153
 91
0
280
0
281
0
  0
CLASS
  1
TABLESTYLE
  2
AcDbTableStyle
  3
ObjectDBX Classes
 90
4095
 91
0
280
0
281
0
  0
CLASS
  1
MLEADERSTYLE
  2
AcDbMLeaderStyle
  3
ACDB_MLEADERSTYLE_CLASS
 90
4095
 91
0
280
0
281
0
  0
CLASS
  1
DICTIONARYVAR
  2
AcDbDictionaryVar
  3
ObjectDBX Classes
 90
0
 91
0
280
0
281
0
  0
CLASS
  1
CELLSTYLEMAP
  2
AcDbCellStyleMap
  3
ObjectDBX Classes
 90
1152
 91
0
280
0
281
0
  0
CLASS
  1
MENTALRAYRENDERSETTINGS
  2
AcDbMentalRayRenderSettings
  3
SCENEOE
 90
1024
 91
0
280
0
281
0
  0
CLASS
  1
ACDBDETAILVIEWSTYLE
  2
AcDbDetailViewStyle
  3
ObjectDBX Classes
 90
1025
 91
0
280
0
281
0
  0
CLASS
  1
ACDBSECTIONVIEWSTYLE
  2
AcDbSectionViewStyle
  3
ObjectDBX Classes
 90
1025
 91
0
280
0
281
0
  0
CLASS
  1
RASTERVARIABLES
  2
AcDbRasterVariables
  3
ISM
 90
0
 91
0
280
0
281
0
  0
CLASS
  1
LAYOUT
  2
AcDbLayout
  3
ObjectDBX Classes
 90
0
 91
0
280
0
281
0
  0
CLASS
  1
ACDBPLACEHOLDER
  2
AcDbPlaceHolder
  3
ObjectDBX Classes
 90
0
 91
0
280
0
281
0
  0
ENDSEC
  0
SECTION
  2
TABLES
  0
TABLE
  2
VPORT
  5
8
330
0
100
AcDbSymbolTable
 70
1
  0
VPORT
  5
23
330
8
100
AcDbSymbolTableRecord
100
AcDbViewportTableRecord
  2
*Active
 70
0
 10
0.0
 20
0.0
 11
1.0
 21
1.0
 12
0.0
 22
0.0
 13
0.0
 23
0.0
 14
0.5
 24
0.5
 15
0.5
 25
0.5
 16
0.0
 26
0.0
 36
1.0
 17
0.0
 27
0.0
 37
0.0
 40
1000.0
 41
1.34
 42
50.0
 43
0.0
 44
0.0
 50
0.0
 51
0.0
 71
0
 72
1000
 73
1
 74
3
 75
0
 76
0
 77
0
 78
0
281
0
 65
0
146
0.0
  0
ENDTAB
  0
TABLE
  2
LTYPE
  5
2
330
0
100
AcDbSymbolTable
 70
3
  0
LTYPE
  5
24
330
2
100
AcDbSymbolTableRecord
100
AcDbLinetypeTableRecord
  2
ByBlock
 70
0
  3

 72
65
 73
0
 40
0.0
  0
LTYPE
  5
25
330
2
100
AcDbSymbolTableRecord
100
AcDbLinetypeTableRecord
  2
ByLayer
 70
0
  3

 72
65
 73
0
 40
0.0
  0
LTYPE
  5
26
330
2
100
AcDbSymbolTableRecord
100
AcDbLinetypeTableRecord
  2
Continuous
 70
0
  3

 72
65
 73
0
 40
0.0
  0
ENDTAB
  0
TABLE
  2
LAYER
  5
1
330
0
100
AcDbSymbolTable
 70
2
  0
LAYER
  5
27
330
1
100
AcDbSymbolTableRecord
100
AcDbLayerTableRecord
  2
0
 70
0
 62
7
  6
Continuous
370
-3
390
13
347
21
  0
LAYER
  5
28
330
1
100
AcDbSymbolTableRecord
100
AcDbLayerTableRecord
  2
Defpoints
 70
0
 62
7
  6
Continuous
290
0
370
-3
390
13
347
21
  0
ENDTAB
  0
TABLE
  2
STYLE
  5
5
330
0
100
AcDbSymbolTable
 70
1
  0
STYLE
  5
29
330
5
100
AcDbSymbolTableRecord
100
AcDbTextStyleTableRecord
  2
Standard
 70
0
 40
0.0
 41
1.0
 50
0.0
 71
0
 42
2.5
  3
txt
  4

  0
ENDTAB
  0
TABLE
  2
VIEW
  5
7
330
0
100
AcDbSymbolTable
 70
0
  0
ENDTAB
  0
TABLE
  2
UCS
  5
6
330
0
100
AcDbSymbolTable
 70
0
  0
ENDTAB
  0
TABLE
  2
APPID
  5
3
330
0
100
AcDbSymbolTable
 70
3
  0
APPID
  5
2A
330
3
100
AcDbSymbolTableRecord
100
AcDbRegAppTableRecord
  2
ACAD
 70
0
  0
APPID
  5
3F
330
3
100
AcDbSymbolTableRecord
100
AcDbRegAppTableRecord
  2
HATCHBACKGROUNDCOLOR
 70
0
  0
APPID
  5
40
330
3
100
AcDbSymbolTableRecord
100
AcDbRegAppTableRecord
  2
EZDXF
 70
0
  0
ENDTAB
  0
TABLE
  2
DIMSTYLE
  5
4
330
0
100
AcDbSymbolTable
 70
1
100
AcDbDimStyleTable
  0
DIMSTYLE
105
2B
330
4
100
AcDbSymbolTableRecord
100
AcDbDimStyleTableRecord
  2
Standard
 70
0
 40
1.0
 41
2.5
 42
0.625
 43
3.75
 44
1.25
 45
0.0
 46
0.0
 47
0.0
 48
0.0
 49
2.5
140
2.5
141
2.5
142
0.0
143
0.03937007874
144
1.0
145
0.0
146
1.0
147
0.625
148
0.0
 69
0
 70
0
 71
0
 72
0
 73
0
 74
0
 75
0
 76
0
 77
1
 78
8
 79
3
170
0
171
3
172
1
173
0
174
0
175
0
176
0
177
0
178
0
179
2
271
2
272
2
273
2
274
3
275
0
276
0
277
2
278
44
279
0
280
0
281
0
282
0
283
0
284
8
285
0
286
0
288
0
289
3
290
0
371
-2
372
-2
  0
ENDTAB
  0
TABLE
  2
BLOCK_RECORD
  5
9
330
0
100
AcDbSymbolTable
 70
2
  0
BLOCK_RECORD
  5
17
330
9
100
AcDbSymbolTableRecord
100
AcDbBlockTableRecord
  2
*Model_Space
340
1A
 70
0
280
1
281
0
  0
BLOCK_RECORD
  5
1B
330
9
100
AcDbSymbolTableRecord
100
AcDbBlockTableRecord
  2
*Paper_Space
340
1E
 70
0
280
1
281
0
  0
ENDTAB
  0
ENDSEC
  0
SECTION
  2
BLOCKS
  0
BLOCK
  5
18
330
17
100
AcDbEntity
  8
0
100
AcDbBlockBegin
  2
*Model_Space
 70
0
 10
0.0
 20
0.0
 30
0.0
  3
*Model_Space
  1

  0
ENDBLK
  5
19
330
17
100
AcDbEntity
  8
0
100
AcDbBlockEnd
  0
BLOCK
  5
1C
330
1B
100
AcDbEntity
  8
0
100
AcDbBlockBegin
  2
*Paper_Space
 70
0
 10
0.0
 20
0.0
 30
0.0
  3
*Paper_Space
  1

  0
ENDBLK
  5
1D
330
1B
100
AcDbEntity
  8
0
100
AcDbBlockEnd
  0
ENDSEC
  0
SECTION
  2
ENTITIES
  0
LWPOLYLINE
  5
2F
330
17
100
AcDbEntity
  8
0
100
AcDbPolyline
 90
51
 70
0
 10
13.65024623219
 20
10.0
 10
13.65024623219
 20
9.940000000000001
 10
13.65024623219
 20
9.879999999999999
 10
13.65024623219
 20
9.82
 10
13.65024623219
 20
9.760000000000002
 10
13.65024623219
 20
9.7
 10
13.65024623219
 20
9.64
 10
13.65024623219
 20
9.579999999999998
 10
13.65024623219
 20
9.52
 10
13.65024623219
 20
9.46
 10
13.65024623219
 20
9.399999999999999
 10
13.65024623219
 20
9.34
 10
13.65024623219
 20
9.280000000000001
 10
13.65024623219
 20
9.219999999999999
 10
13.65024623219
 20
9.16
 10
13.65024623219
 20
9.100000000000001
 10
13.65024623219
 20
9.04
 10
13.65024623219
 20
8.98
 10
13.65024623219
 20
8.920000000000002
 10
13.65024623219
 20
8.86
 10
13.65024623219
 20
8.8
 10
13.65024623219
 20
8.739999999999998
 10
13.65024623219
 20
8.68
 10
13.65024623219
 20
8.620000000000001
 10
13.65024623219
 20
8.559999999999999
 10
13.65024623219
 20
8.5
 10
13.65024623219
 20
8.440000000000001
 10
13.65024623219
 20
8.379999999999999
 10
13.65024623219
 20
8.32
 10
13.65024623219
 20
8.260000000000002
 10
13.65024623219
 20
8.2
 10
13.65024623219
 20
8.14
 10
13.65024623219
 20
8.079999999999998
 10
13.65024623219
 20
8.02
 10
13.65024623219
 20
7.960000000000001
 10
13.65024623219
 20
7.899999999999999
 10
13.65024623219
 20
7.84
 10
13.65024623219
 20
7.780000000000001
 10
13.65024623219
 20
7.719999999999999
 10
13.65024623219
 20
7.66
 10
13.65024623219
 20
7.600000000000001
 10
13.65024623219
 20
7.539999999999999
 10
13.65024623219
 20
7.48
 10
13.65024623219
 20
7.420000000000002
 10
13.65024623219
 20
7.359999999999999
 10
13.65024623219
 20
7.300000000000001
 10
13.65024623219
 20
7.240000000000002
 10
13.65024623219
 20
7.18
 10
13.65024623219
 20
7.120000000000001
 10
13.65024623219
 20
7.059999999999999
 10
13.65024623219
 20
7.0
  0
LWPOLYLINE
  5
30
330
17
100
AcDbEntity
  8
0
100
AcDbPolyline
 90
51
 70
0
 10
10.0
 20
7.0
 10
10.0
 20
7.0600000000000005
 10
10.0
 20
7.12
 10
10.0
 20
7.18
 10
10.0
 20
7.24
 10
10.0
 20
7.3
 10
10.0
 20
7.359999999999999
 10
10.0
 20
7.42
 10
10.0
 20
7.48
 10
10.0
 20
7.54
 10
10.0
 20
7.6
 10
10.0
 20
7.66
 10
10.0
 20
7.72
 10
10.0
 20
7.78
 10
10.0
 20
7.84
 10
10.0
 20
7.9
 10
10.0
 20
7.96
 10
10.0
 20
8.02
 10
10.0
 20
8.08
 10
10.0
 20
8.14
 10
10.0
 20
8.2
 10
10.0
 20
8.26
 10
10.0
 20
8.32
 10
10.0
 20
8.379999999999999
 10
10.0
 20
8.44
 10
10.0
 20
8.5
 10
10.0
 20
8.56
 10
10.0
 20
8.620000000000001
 10
10.0
 20
8.68
 10
10.0
 20
8.74
 10
10.0
 20
8.8
 10
10.0
 20
8.86
 10
10.0
 20
8.92
 10
10.0
 20
8.98
 10
10.0
 20
9.04
 10
10.0
 20
9.1
 10
10.0
 20
9.16
 10
10.0
 20
9.22
 10
10.0
 20
9.28
 10
10.0
 20
9.34
 10
10.0
 20
9.4
 10
10.0
 20
9.46
 10
10.0
 20
9.52
 10
10.0
 20
9.58
 10
10.0
 20
9.64
 10
10.0
 20
9.7
 10
10.0
 20
9.76
 10
10.0
 20
9.82
 10
10.0
 20
9.879999999999999
 10
10.0
 20
9.94
 10
10.0
 20
10.0
  0
LWPOLYLINE
  5
31
330
17
100
AcDbEntity
  8
0
100
AcDbPolyline
 90
51
 70
0
 10
8.0
 20
10.0
 10
8.0
 20
10.08
 10
8.0
 20
10.16
 10
8.0
 20
10.24
 10
8.0
 20
10.32
 10
8.0
 20
10.4
 10
8.0
 20
10.48
 10
8.0
 20
10.56
 10
8.0
 20
10.64
 10
8.0
 20
10.72
 10
8.0
 20
10.8
 10
8.0
 20
10.88
 10
8.0
 20
10.96
 10
8.0
 20
11.04
 10
8.0
 20
11.120000000000001
 10
8.0
 20
11.2
 10
8.0
 20
11.28
 10
8.0
 20
11.36
 10
8.0
 20
11.44
 10
8.0
 20
11.52
 10
8.0
 20
11.6
 10
8.0
 20
11.68
 10
8.0
 20
11.76
 10
8.0
 20
11.84
 10
8.0
 20
11.92
 10
8.0
 20
12.0
 10
8.0
 20
12.08
 10
8.0
 20
12.16
 10
8.0
 20
12.24
 10
8.0
 20
12.32
 10
8.0
 20
12.4
 10
8.0
 20
12.48
 10
8.0
 20
12.56
 10
8.0
 20
12.64
 10
8.0
 20
12.72
 10
8.0
 20
12.8
 10
8.0
 20
12.879999999999999
 10
8.0
 20
12.96
 10
8.0
 20
13.04
 10
8.0
 20
13.120000000000001
 10
8.0
 20
13.2
 10
8.0
 20
13.28
 10
8.0
 20
13.36
 10
8.0
 20
13.44
 10
8.0
 20
13.52
 10
8.0
 20
13.6
 10
8.0
 20
13.68
 10
8.0
 20
13.76
 10
8.0
 20
13.84
 10
8.0
 20
13.92
 10
8.0
 20
14.0
  0
LWPOLYLINE
  5
32
330
17
100
AcDbEntity
  8
0
100
AcDbPolyline
 90
51
 70
0
 10
47.0
 20
0.0
 10
47.0
 20
0.2
 10
47.0
 20
0.4
 10
47.0
 20
0.6
 10
47.0
 20
0.8
 10
47.0
 20
1.0
 10
47.0
 20
1.2
 10
47.0
 20
1.4
 10
47.0
 20
1.6
 10
47.0
 20
1.8
 10
47.0
 20
2.0
 10
47.0
 20
2.2
 10
47.0
 20
2.4
 10
47.0
 20
2.6
 10
47.0
 20
2.8
 10
47.0
 20
3.0
 10
47.0
 20
3.2
 10
47.0
 20
3.4
 10
47.0
 20
3.6
 10
47.0
 20
3.8
 10
47.0
 20
4.0
 10
47.0
 20
4.2
 10
47.0
 20
4.4
 10
47.0
 20
4.6
 10
47.0
 20
4.8
 10
47.0
 20
5.0
 10
47.0
 20
5.2
 10
47.0
 20
5.4
 10
47.0
 20
5.6
 10
47.0
 20
5.8
 10
47.0
 20
6.0
 10
47.0
 20
6.2
 10
47.0
 20
6.4
 10
47.0
 20
6.6
 10
47.0
 20
6.8
 10
47.0
 20
7.0
 10
47.0
 20
7.2
 10
47.0
 20
7.4
 10
47.0
 20
7.6
 10
47.0
 20
7.8
 10
47.0
 20
8.0
 10
47.0
 20
8.2
 10
47.0
 20
8.4
 10
47.0
 20
8.6
 10
47.0
 20
8.8
 10
47.0
 20
9.0
 10
47.0
 20
9.2
 10
47.0
 20
9.4
 10
47.0
 20
9.6
 10
47.0
 20
9.8
 10
47.0
 20
10.0
  0
LWPOLYLINE
  5
33
330
17
100
AcDbEntity
  8
0
100
AcDbPolyline
 90
51
 70
0
 10
-1.75
 20
0.0
 10
-1.1406249999999858
 20
0.0
 10
-0.5312499999999714
 20
0.0
 10
0.07812500000004285
 20
0.0
 10
0.6875000000000573
 20
0.0
 10
1.2968750000000715
 20
0.0
 10
1.9062500000000857
 20
0.0
 10
2.5156250000001004
 20
0.0
 10
3.1250000000001146
 20
0.0
 10
3.734375000000129
 20
0.0
 10
4.343750000000143
 20
0.0
 10
4.953125000000157
 20
0.0
 10
5.562500000000171
 20
0.0
 10
6.171875000000186
 20
0.0
 10
6.781250000000201
 20
0.0
 10
7.390625000000213
 20
0.0
 10
8.00000000000023
 20
0.0
 10
8.609375000000243
 20
0.0
 10
9.218750000000258
 20
0.0
 10
9.82812500000027
 20
0.0
 10
10.437500000000286
 20
0.0
 10
11.0468750000003
 20
0.0
 10
11.656250000000314
 20
0.0
 10
12.265625000000327
 20
0.0
 10
12.875000000000343
 20
0.0
 10
13.484375000000357
 20
0.0
 10
14.093750000000371
 20
0.0
 10
14.703125000000387
 20
0.0
 10
15.312500000000401
 20
0.0
 10
15.921875000000412
 20
0.0
 10
16.531250000000426
 20
0.0
 10
17.140625000000444
 20
0.0
 10
17.75000000000046
 20
0.0
 10
18.35937500000047
 20
0.0
 10
18.968750000000487
 20
0.0
 10
19.5781250000005
 20
0.0
 10
20.187500000000515
 20
0.0
 10
20.796875000000526
 20
0.0
 10
21.40625000000054
 20
0.0
 10
22.015625000000554
 20
0.0
 10
22.625000000000572
 20
0.0
 10
23.234375000000586
 20
0.0
 10
23.8437500000006
 20
0.0
 10
24.453125000000615
 20
0.0
 10
25.06250000000063
 20
0.0
 10
25.67187500000064
 20
0.0
 10
26.281250000000654
 20
0.0
 10
26.89062500000067
 20
0.0
 10
27.500000000000686
 20
0.0
 10
28.1093750000007
 20
0.0
 10
28.718750000000714
 20
0.0
  0
LWPOLYLINE
  5
34
330
17
100
AcDbEntity
  8
0
100
AcDbPolyline
 90
51
 70
0
 10
-8.0
 20
0.0
 10
-7.98958972869083
 20
0.0
 10
-7.97917945738166
 20
0.0
 10
-7.96876918607249
 20
0.0
 10
-7.949477294616453
 20
0.0
 10
-7.9183432429645935
 20
0.0
 10
-7.887209191312735
 20
0.0
 10
-7.8560751396608755
 20
0.0
 10
-7.807425894086189
 20
0.0
 10
-7.755857449524364
 20
0.0
 10
-7.70428900496254
 20
0.0
 10
-7.647019111788398
 20
0.0
 10
-7.575495597083465
 20
0.0
 10
-7.503972082378533
 20
0.0
 10
-7.4324485676736
 20
0.0
 10
-7.347146290617125
 20
0.0
 10
-7.256332508620034
 20
0.0
 10
-7.165518726622943
 20
0.0
 10
-7.072069778393962
 20
0.0
 10
-6.962809832773642
 20
0.0
 10
-6.8535498871533225
 20
0.0
 10
-6.744289941533004
 20
0.0
 10
-6.625069650208152
 20
0.0
 10
-6.498379099604901
 20
0.0
 10
-6.371688549001651
 20
0.0
 10
-6.244997998398398
 20
0.0
 10
-6.102054416923011
 20
0.0
 10
-5.959110835447621
 20
0.0
 10
-5.816167253972231
 20
0.0
 10
-5.666827506765314
 20
0.0
 10
-5.508959538583021
 20
0.0
 10
-5.351091570400728
 20
0.0
 10
-5.193223602218435
 20
0.0
 10
-5.023821043680078
 20
0.0
 10
-4.852496053415708
 20
0.0
 10
-4.6811710631513375
 20
0.0
 10
-4.5064561940346115
 20
0.0
 10
-4.3232666277869995
 20
0.0
 10
-4.140077061539385
 20
0.0
 10
-3.9568874952917694
 20
0.0
 10
-3.7664394647485
 20
0.0
 10
-3.5730880484869694
 20
0.0
 10
-3.3797366322254416
 20
0.0
 10
-3.185190262990149
 20
0.0
 10
-2.983474175912289
 20
0.0
 10
-2.7817580888344255
 20
0.0
 10
-2.580042001756562
 20
0.0
 10
-2.374617490127481
 20
0.0
 10
-2.1664116600849903
 20
0.0
 10
-1.9582058300424925
 20
0.0
 10
-1.7500000000000018
 20
0.0
  0
LWPOLYLINE
  5
35
330
17
100
AcDbEntity
  8
0
100
AcDbPolyline
 90
51
 70
0
 10
28.718749999999833
 20
0.0
 10
29.24921441897434
 20
0.0
 10
29.779678837948843
 20
0.0
 10
30.31014325692335
 20
0.0
 10
30.843328351808022
 20
0.0
 10
31.38014101457292
 20
0.0
 10
31.916953677337816
 20
0.0
 10
32.45376634010272
 20
0.0
 10
32.98849757583018
 20
0.0
 10
33.522881907051406
 20
0.0
 10
34.05726623827263
 20
0.0
 10
34.58846051090328
 20
0.0
 10
35.11167963705749
 20
0.0
 10
35.63489876321171
 20
0.0
 10
36.15811788936592
 20
0.0
 10
36.66725163411253
 20
0.0
 10
37.17075122629611
 20
0.0
 10
37.6742508184797
 20
0.0
 10
38.17375734495698
 20
0.0
 10
38.64930547719653
 20
0.0
 10
39.12485360943607
 20
0.0
 10
39.60040174167561
 20
0.0
 10
40.055534790613734
 20
0.0
 10
40.495356527075806
 20
0.0
 10
40.93517826353787
 20
0.0
 10
41.374999999999936
 20
0.0
 10
41.771904510677395
 20
0.0
 10
42.16880902135485
 20
0.0
 10
42.565713532032305
 20
0.0
 10
42.94144387810825
 20
0.0
 10
43.28894200471551
 20
0.0
 10
43.63644013132277
 20
0.0
 10
43.98393825793003
 20
0.0
 10
44.284218290253655
 20
0.0
 10
44.57662864019668
 20
0.0
 10
44.86903899013971
 20
0.0
 10
45.14434404976939
 20
0.0
 10
45.37688588361571
 20
0.0
 10
45.609427717462026
 20
0.0
 10
45.841969551308345
 20
0.0
 10
46.02903249940189
 20
0.0
 10
46.197903893194336
 20
0.0
 10
46.36677528698678
 20
0.0
 10
46.52615648230971
 20
0.0
 10
46.62859648681554
 20
0.0
 10
46.73103649132137
 20
0.0
 10
46.8334764958272
 20
0.0
 10
46.89699865811694
 20
0.0
 10
46.931332438744626
 20
0.0
 10
46.96566621937232
 20
0.0
 10
47.0
 20
0.0
  0
LWPOLYLINE
  5
36
330
17
100
AcDbEntity
  8
0
100
AcDbPolyline
 90
51
 70
0
 10
14.43149623219
 20
7.0
 10
14.224960020016153
 20
7.0
 10
14.018423807842307
 20
7.0
 10
13.811887595668463
 20
7.0
 10
13.605351383494616
 20
7.0
 10
13.39881517132077
 20
7.0
 10
13.192278959146925
 20
7.0
 10
12.985742746973079
 20
7.0
 10
12.779206534799233
 20
7.0
 10
12.572670322625386
 20
7.0
 10
12.36613411045154
 20
7.0
 10
12.159597898277696
 20
7.0
 10
11.95306168610385
 20
7.0
 10
11.746525473930003
 20
7.0
 10
11.539989261756158
 20
7.0
 10
11.33345304958231
 20
7.0
 10
11.126916837408466
 20
7.0
 10
10.92038062523462
 20
7.0
 10
10.713844413060773
 20
7.0
 10
10.507308200886929
 20
7.0
 10
10.30077198871308
 20
7.0
 10
10.094235776539236
 20
7.0
 10
9.887699564365391
 20
7.0
 10
9.681163352191543
 20
7.0
 10
9.474627140017699
 20
7.0
 10
9.268090927843852
 20
7.0
 10
9.061554715670006
 20
7.0
 10
8.85501850349616
 20
7.0
 10
8.648482291322315
 20
7.0
 10
8.441946079148469
 20
7.0
 10
8.235409866974623
 20
7.0
 10
8.028873654800776
 20
7.0
 10
7.822337442626931
 20
7.0
 10
7.615801230453084
 20
7.0
 10
7.40926501827924
 20
7.0
 10
7.202728806105394
 20
7.0
 10
6.996192593931547
 20
7.0
 10
6.789656381757702
 20
7.0
 10
6.5831201695838555
 20
7.0
 10
6.376583957410009
 20
7.0
 10
6.170047745236163
 20
7.0
 10
5.963511533062318
 20
7.0
 10
5.756975320888472
 20
7.0
 10
5.550439108714626
 20
7.0
 10
5.343902896540781
 20
7.0
 10
5.137366684366935
 20
7.0
 10
4.9308304721930885
 20
7.0
 10
4.724294260019242
 20
7.0
 10
4.517758047845398
 20
7.0
 10
4.311221835671551
 20
7.0
 10
4.104685623497705
 20
7.0
  0
LWPOLYLINE
  5
37
330
17
100
AcDbEntity
  8
0
100
AcDbPolyline
 90
51
 70
0
 10
4.104685623498
 20
7.0
 10
4.104685623498
 20
7.06
 10
4.104685623498
 20
7.12
 10
4.104685623498
 20
7.18
 10
4.104685623498
 20
7.24
 10
4.104685623498
 20
7.3
 10
4.104685623498
 20
7.36
 10
4.104685623498
 20
7.42
 10
4.104685623498
 20
7.48
 10
4.104685623498
 20
7.54
 10
4.104685623498
 20
7.6
 10
4.104685623498
 20
7.66
 10
4.104685623498
 20
7.72
 10
4.104685623498
 20
7.78
 10
4.104685623498
 20
7.84
 10
4.104685623498
 20
7.9
 10
4.104685623498
 20
7.96
 10
4.104685623498
 20
8.02
 10
4.104685623498
 20
8.08
 10
4.104685623498
 20
8.14
 10
4.104685623498
 20
8.2
 10
4.104685623498
 20
8.26
 10
4.104685623498
 20
8.32
 10
4.104685623498
 20
8.379999999999999
 10
4.104685623498
 20
8.44
 10
4.104685623498
 20
8.5
 10
4.104685623498
 20
8.56
 10
4.104685623498
 20
8.620000000000001
 10
4.104685623498
 20
8.68
 10
4.104685623498
 20
8.74
 10
4.104685623498
 20
8.8
 10
4.104685623498
 20
8.86
 10
4.104685623498
 20
8.92
 10
4.104685623498
 20
8.98
 10
4.104685623498
 20
9.04
 10
4.104685623498
 20
9.1
 10
4.104685623498
 20
9.16
 10
4.104685623498
 20
9.22
 10
4.104685623498
 20
9.28
 10
4.104685623498
 20
9.34
 10
4.104685623498
 20
9.4
 10
4.104685623498
 20
9.46
 10
4.104685623498
 20
9.52
 10
4.104685623498
 20
9.58
 10
4.104685623498
 20
9.64
 10
4.104685623498
 20
9.7
 10
4.104685623498
 20
9.76
 10
4.104685623498
 20
9.82
 10
4.104685623498
 20
9.879999999999999
 10
4.104685623498
 20
9.94
 10
4.104685623498
 20
10.0
  0
LWPOLYLINE
  5
38
330
17
100
AcDbEntity
  8
0
100
AcDbPolyline
 90
51
 70
0
 10
-1.7499999967208169
 20
10.0
 10
-1.6329062843164417
 20
10.0
 10
-1.5158125719120665
 20
10.0
 10
-1.3987188595076914
 20
10.0
 10
-1.2816251471033164
 20
10.0
 10
-1.1645314346989415
 20
10.0
 10
-1.047437722294566
 20
10.0
 10
-0.9303440098901911
 20
10.0
 10
-0.813250297485816
 20
10.0
 10
-0.6961565850814411
 20
10.0
 10
-0.5790628726770661
 20
10.0
 10
-0.46196916027269075
 20
10.0
 10
-0.3448754478683156
 20
10.0
 10
-0.22778173546394065
 20
10.0
 10
-0.11068802305956549
 20
10.0
 10
0.006405689344809451
 20
10.0
 10
0.12349940174918461
 20
10.0
 10
0.24059311415355977
 20
10.0
 10
0.3576868265579347
 20
10.0
 10
0.4747805389623099
 20
10.0
 10
0.5918742513666846
 20
10.0
 10
0.7089679637710602
 20
10.0
 10
0.8260616761754354
 20
10.0
 10
0.9431553885798105
 20
10.0
 10
1.0602491009841857
 20
10.0
 10
1.1773428133885604
 20
10.0
 10
1.2944365257929356
 20
10.0
 10
1.4115302381973107
 20
10.0
 10
1.5286239506016859
 20
10.0
 10
1.645717663006061
 20
10.0
 10
1.7628113754104358
 20
10.0
 10
1.879905087814811
 20
10.0
 10
1.996998800219186
 20
10.0
 10
2.1140925126235612
 20
10.0
 10
2.2311862250279364
 20
10.0
 10
2.3482799374323116
 20
10.0
 10
2.4653736498366867
 20
10.0
 10
2.582467362241062
 20
10.0
 10
2.699561074645437
 20
10.0
 10
2.816654787049812
 20
10.0
 10
2.9337484994541865
 20
10.0
 10
3.0508422118585625
 20
10.0
 10
3.1679359242629377
 20
10.0
 10
3.285029636667313
 20
10.0
 10
3.402123349071688
 20
10.0
 10
3.5192170614760623
 20
10.0
 10
3.6363107738804383
 20
10.0
 10
3.7534044862848126
 20
10.0
 10
3.8704981986891887
 20
10.0
 10
3.987591911093563
 20
10.0
 10
4.104685623497938
 20
10.0
  0
LWPOLYLINE
  5
39
330
17
100
AcDbEntity
  8
0
100
AcDbPolyline
 90
51
 70
0
 10
14.43149623219
 20
10.0
 10
14.717241307546209
 20
10.0
 10
15.002986382902417
 20
10.0
 10
15.288731458258624
 20
10.0
 10
15.574476533614833
 20
10.0
 10
15.860221608971042
 20
10.0
 10
16.14596668432725
 20
10.0
 10
16.43171175968346
 20
10.0
 10
16.717456835039666
 20
10.0
 10
17.003201910395873
 20
10.0
 10
17.288946985752084
 20
10.0
 10
17.57469206110829
 20
10.0
 10
17.8604371364645
 20
10.0
 10
18.146182211820708
 20
10.0
 10
18.431927287176915
 20
10.0
 10
18.717672362533126
 20
10.0
 10
19.003417437889333
 20
10.0
 10
19.289162513245543
 20
10.0
 10
19.57490758860175
 20
10.0
 10
19.860652663957957
 20
10.0
 10
20.146397739314168
 20
10.0
 10
20.432142814670375
 20
10.0
 10
20.71788789002658
 20
10.0
 10
21.003632965382792
 20
10.0
 10
21.289378040739
 20
10.0
 10
21.575123116095206
 20
10.0
 10
21.860868191451416
 20
10.0
 10
22.146613266807623
 20
10.0
 10
22.43235834216383
 20
10.0
 10
22.71810341752004
 20
10.0
 10
23.00384849287625
 20
10.0
 10
23.28959356823246
 20
10.0
 10
23.575338643588665
 20
10.0
 10
23.861083718944876
 20
10.0
 10
24.146828794301083
 20
10.0
 10
24.43257386965729
 20
10.0
 10
24.7183189450135
 20
10.0
 10
25.004064020369707
 20
10.0
 10
25.289809095725914
 20
10.0
 10
25.575554171082125
 20
10.0
 10
25.861299246438332
 20
10.0
 10
26.14704432179454
 20
10.0
 10
26.43278939715075
 20
10.0
 10
26.71853447250696
 20
10.0
 10
27.004279547863167
 20
10.0
 10
27.290024623219374
 20
10.0
 10
27.575769698575584
 20
10.0
 10
27.861514773931788
 20
10.0
 10
28.147259849287998
 20
10.0
 10
28.43300492464421
 20
10.0
 10
28.718750000000416
 20
10.0
  0
LWPOLYLINE
  5
3A
330
17
100
AcDbEntity
  8
0
100
AcDbPolyline
 90
51
 70
0
 10
13.65024623219
 20
10.0
 10
13.651547516103646
 20
10.0
 10
13.652848800017292
 20
10.0
 10
13.65415008393094
 20
10.0
 10
13.656561570362944
 20
10.0
 10
13.660453326819427
 20
10.0
 10
13.66434508327591
 20
10.0
 10
13.668236839732392
 20
10.0
 10
13.674317995429229
 20
10.0
 10
13.680764050999457
 20
10.0
 10
13.687210106569685
 20
10.0
 10
13.694368843216454
 20
10.0
 10
13.70330928255457
 20
10.0
 10
13.71224972189269
 20
10.0
 10
13.721190161230806
 20
10.0
 10
13.731852945862867
 20
10.0
 10
13.743204668612503
 20
10.0
 10
13.75455639136214
 20
10.0
 10
13.766237509890765
 20
10.0
 10
13.779895003093305
 20
10.0
 10
13.793552496295847
 20
10.0
 10
13.807209989498388
 20
10.0
 10
13.822112525913996
 20
10.0
 10
13.837948844739403
 20
10.0
 10
13.85378516356481
 20
10.0
 10
13.869621482390217
 20
10.0
 10
13.887489430074641
 20
10.0
 10
13.905357377759067
 20
10.0
 10
13.923225325443491
 20
10.0
 10
13.941892793844358
 20
10.0
 10
13.961626289867146
 20
10.0
 10
13.981359785889934
 20
10.0
 10
14.001093281912722
 20
10.0
 10
14.022268601730019
 20
10.0
 10
14.043684225513067
 20
10.0
 10
14.065099849296114
 20
10.0
 10
14.086939207935705
 20
10.0
 10
14.10983790371666
 20
10.0
 10
14.132736599497612
 20
10.0
 10
14.155635295278566
 20
10.0
 10
14.179441299096476
 20
10.0
 10
14.203610226129168
 20
10.0
 10
14.227779153161862
 20
10.0
 10
14.252097449316276
 20
10.0
 10
14.27731196020101
 20
10.0
 10
14.302526471085743
 20
10.0
 10
14.327740981970477
 20
10.0
 10
14.353419045924113
 20
10.0
 10
14.379444774679426
 20
10.0
 10
14.40547050343474
 20
10.0
 10
14.431496232190053
 20
10.0
  0
LWPOLYLINE
  5
3B
330
17
100
AcDbEntity
  8
0
100
AcDbPolyline
 90
51
 70
0
 10
4.104685623498082
 20
10.0
 10
4.309925669896657
 20
10.0
 10
4.515165716295232
 20
10.0
 10
4.720405762693806
 20
10.0
 10
4.921745728934689
 20
10.0
 10
5.117885588298651
 20
10.0
 10
5.314025447662614
 20
10.0
 10
5.5101653070265755
 20
10.0
 10
5.697375538676649
 20
10.0
 10
5.8830974990410745
 20
10.0
 10
6.068819459405501
 20
10.0
 10
6.25120838515243
 20
10.0
 10
6.425264724355619
 20
10.0
 10
6.599321063558809
 20
10.0
 10
6.773377402761998
 20
10.0
 10
6.938265905508149
 20
10.0
 10
7.099487273671485
 20
10.0
 10
7.260708641834822
 20
10.0
 10
7.419941711044122
 20
10.0
 10
7.567244986529205
 20
10.0
 10
7.7145482620142865
 20
10.0
 10
7.861851537499368
 20
10.0
 10
8.000636121887224
 20
10.0
 10
8.133031687952158
 20
10.0
 10
8.265427254017093
 20
10.0
 10
8.397822820082027
 20
10.0
 10
8.514421213350667
 20
10.0
 10
8.631019606619308
 20
10.0
 10
8.747617999887947
 20
10.0
 10
8.857110461503547
 20
10.0
 10
8.957128347581756
 20
10.0
 10
9.057146233659967
 20
10.0
 10
9.157164119738178
 20
10.0
 10
9.242394191543688
 20
10.0
 10
9.325159627637081
 20
10.0
 10
9.407925063730474
 20
10.0
 10
9.485602360705098
 20
10.0
 10
9.550559309882802
 20
10.0
 10
9.615516259060504
 20
10.0
 10
9.680473208238208
 20
10.0
 10
9.73239809855798
 20
10.0
 10
9.779110165334577
 20
10.0
 10
9.825822232111177
 20
10.0
 10
9.869883055368144
 20
10.0
 10
9.898036417507313
 20
10.0
 10
9.926189779646485
 20
10.0
 10
9.954343141785655
 20
10.0
 10
9.971783449470053
 20
10.0
 10
9.981188966313368
 20
10.0
 10
9.990594483156684
 20
10.0
 10
10.0
 20
10.0
  0
LWPOLYLINE
  5
3C
330
17
100
AcDbEntity
  8
0
100
AcDbPolyline
 90
51
 70
0
 10
28.718749999999833
 20
10.0
 10
29.249214418974336
 20
10.0
 10
29.779678837948843
 20
10.0
 10
30.310143256923347
 20
10.0
 10
30.84332835180802
 20
10.0
 10
31.380141014572917
 20
10.0
 10
31.916953677337816
 20
10.0
 10
32.45376634010272
 20
10.0
 10
32.98849757583018
 20
10.0
 10
33.522881907051406
 20
10.0
 10
34.05726623827263
 20
10.0
 10
34.58846051090328
 20
10.0
 10
35.11167963705749
 20
10.0
 10
35.6348987632117
 20
10.0
 10
36.15811788936591
 20
10.0
 10
36.667251634112525
 20
10.0
 10
37.17075122629611
 20
10.0
 10
37.67425081847969
 20
10.0
 10
38.17375734495699
 20
10.0
 10
38.64930547719653
 20
10.0
 10
39.12485360943607
 20
10.0
 10
39.60040174167561
 20
10.0
 10
40.055534790613734
 20
10.0
 10
40.4953565270758
 20
10.0
 10
40.935178263537864
 20
10.0
 10
41.37499999999993
 20
10.0
 10
41.77190451067739
 20
10.0
 10
42.168809021354846
 20
10.0
 10
42.5657135320323
 20
10.0
 10
42.941443878108245
 20
10.0
 10
43.2889420047155
 20
10.0
 10
43.63644013132276
 20
10.0
 10
43.98393825793002
 20
10.0
 10
44.28421829025365
 20
10.0
 10
44.57662864019668
 20
10.0
 10
44.86903899013971
 20
10.0
 10
45.14434404976939
 20
10.0
 10
45.37688588361571
 20
10.0
 10
45.609427717462026
 20
10.0
 10
45.84196955130834
 20
10.0
 10
46.02903249940189
 20
10.0
 10
46.197903893194336
 20
10.0
 10
46.36677528698678
 20
10.0
 10
46.52615648230971
 20
10.0
 10
46.62859648681554
 20
10.0
 10
46.73103649132137
 20
10.0
 10
46.83347649582719
 20
10.0
 10
46.89699865811694
 20
10.0
 10
46.931332438744626
 20
10.0
 10
46.96566621937232
 20
10.0
 10
47.0
 20
10.0
  0
LWPOLYLINE
  5
3D
330
17
100
AcDbEntity
  8
0
100
AcDbPolyline
 90
51
 70
0
 10
-8.0
 20
14.0
 10
-7.943838523287285
 20
14.0
 10
-7.88767704657457
 20
14.0
 10
-7.831515569861855
 20
14.0
 10
-7.728422614946361
 20
14.0
 10
-7.562754355760495
 20
14.0
 10
-7.397086096574629
 20
14.0
 10
-7.231417837388762
 20
14.0
 10
-6.979007163185326
 20
14.0
 10
-6.712139419812293
 20
14.0
 10
-6.445271676439261
 20
14.0
 10
-6.153313184154289
 20
14.0
 10
-5.798627819589465
 20
14.0
 10
-5.443942455024642
 20
14.0
 10
-5.089257090459818
 20
14.0
 10
-4.684548714483989
 20
14.0
 10
-4.259831133943755
 20
14.0
 10
-3.835113553403521
 20
14.0
 10
-3.4034338152888672
 20
14.0
 10
-2.9299811317276823
 20
14.0
 10
-2.4565284481664955
 20
14.0
 10
-1.9830757646053088
 20
14.0
 10
-1.4953406761864334
 20
14.0
 10
-0.9968937841242902
 20
14.0
 10
-0.4984468920621452
 20
14.0
 10
-4.898587196589413e-16
 20
14.0
 10
0.49844689206214454
 20
14.0
 10
0.9968937841242879
 20
14.0
 10
1.4953406761864327
 20
14.0
 10
1.9830757646053097
 20
14.0
 10
2.456528448166493
 20
14.0
 10
2.9299811317276796
 20
14.0
 10
3.4034338152888677
 20
14.0
 10
3.8351135534035232
 20
14.0
 10
4.259831133943757
 20
14.0
 10
4.684548714483987
 20
14.0
 10
5.089257090459818
 20
14.0
 10
5.443942455024642
 20
14.0
 10
5.798627819589464
 20
14.0
 10
6.153313184154287
 20
14.0
 10
6.44527167643926
 20
14.0
 10
6.712139419812291
 20
14.0
 10
6.979007163185326
 20
14.0
 10
7.231417837388761
 20
14.0
 10
7.397086096574628
 20
14.0
 10
7.562754355760494
 20
14.0
 10
7.72842261494636
 20
14.0
 10
7.831515569861855
 20
14.0
 10
7.88767704657457
 20
14.0
 10
7.943838523287285
 20
14.0
 10
8.0
 20
14.0
  0
LWPOLYLINE
  5
3E
330
17
100
AcDbEntity
  8
0
100
AcDbPolyline
 90
51
 70
0
 10
-8.0
 20
14.0
 10
-8.0
 20
13.719999999999999
 10
-8.0
 20
13.44
 10
-8.0
 20
13.16
 10
-8.0
 20
12.879999999999999
 10
-8.0
 20
12.6
 10
-8.0
 20
12.32
 10
-8.0
 20
12.04
 10
-8.0
 20
11.76
 10
-8.0
 20
11.48
 10
-8.0
 20
11.2
 10
-8.0
 20
10.92
 10
-8.0
 20
10.64
 10
-8.0
 20
10.36
 10
-8.0
 20
10.08
 10
-8.0
 20
9.8
 10
-8.0
 20
9.52
 10
-8.0
 20
9.24
 10
-8.0
 20
8.96
 10
-8.0
 20
8.68
 10
-8.0
 20
8.4
 10
-8.0
 20
8.120000000000001
 10
-8.0
 20
7.84
 10
-8.0
 20
7.56
 10
-8.0
 20
7.28
 10
-8.0
 20
7.0
 10
-8.0
 20
6.72
 10
-8.0
 20
6.44
 10
-8.0
 20
6.16
 10
-8.0
 20
5.880000000000001
 10
-8.0
 20
5.6
 10
-8.0
 20
5.32
 10
-8.0
 20
5.039999999999999
 10
-8.0
 20
4.76
 10
-8.0
 20
4.48
 10
-8.0
 20
4.199999999999999
 10
-8.0
 20
3.92
 10
-8.0
 20
3.6400000000000006
 10
-8.0
 20
3.3599999999999994
 10
-8.0
 20
3.08
 10
-8.0
 20
2.8000000000000007
 10
-8.0
 20
2.5199999999999996
 10
-8.0
 20
2.24
 10
-8.0
 20
1.9600000000000009
 10
-8.0
 20
1.6799999999999997
 10
-8.0
 20
1.4000000000000004
 10
-8.0
 20
1.1199999999999992
 10
-8.0
 20
0.8399999999999999
 10
-8.0
 20
0.5600000000000005
 10
-8.0
 20
0.27999999999999936
 10
-8.0
 20
0.0
  0
ENDSEC
  0
SECTION
  2
OBJECTS
  0
DICTIONARY
  5
A
330
0
100
AcDbDictionary
280
0
281
1
  3
ACAD_COLOR
350
B
  3
ACAD_GROUP
350
C
  3
ACAD_LAYOUT
350
D
  3
ACAD_MATERIAL
350
E
  3
ACAD_MLEADERSTYLE
350
F
  3
ACAD_MLINESTYLE
350
10
  3
ACAD_PLOTSETTINGS
350
11
  3
ACAD_PLOTSTYLENAME
350
12
  3
ACAD_SCALELIST
350
14
  3
ACAD_TABLESTYLE
350
15
  3
ACAD_VISUALSTYLE
350
16
  3
EZDXF_META
350
2D
  0
DICTIONARY
  5
B
330
A
100
AcDbDictionary
280
0
281
1
  0
DICTIONARY
  5
C
330
A
100
AcDbDictionary
280
0
281
1
  0
DICTIONARY
  5
D
330
A
100
AcDbDictionary
280
0
281
1
  3
Model
350
1A
  3
Layout1
350
1E
  0
DICTIONARY
  5
E
330
A
100
AcDbDictionary
280
0
281
1
  3
ByBlock
350
1F
  3
ByLayer
350
20
  3
Global
350
21
  0
DICTIONARY
  5
F
330
A
100
AcDbDictionary
280
0
281
1
  3
Standard
350
2C
  0
DICTIONARY
  5
10
330
A
100
AcDbDictionary
280
0
281
1
  3
Standard
350
22
  0
DICTIONARY
  5
11
330
A
100
AcDbDictionary
280
0
281
1
  0
ACDBDICTIONARYWDFLT
  5
12
330
A
100
AcDbDictionary
280
0
281
1
  3
Normal
350
13
100
AcDbDictionaryWithDefault
340
13
  0
ACDBPLACEHOLDER
  5
13
330
12
  0
DICTIONARY
  5
14
330
A
100
AcDbDictionary
280
0
281
1
  0
DICTIONARY
  5
15
330
A
100
AcDbDictionary
280
0
281
1
  0
DICTIONARY
  5
16
330
A
100
AcDbDictionary
280
0
281
1
  0
LAYOUT
  5
1A
330
D
100
AcDbPlotSettings
  1

  2
Adobe PDF
  4
A3
  6

 40
7.5
 41
20.0
 42
7.5
 43
20.0
 44
420.0
 45
297.0
 46
0.0
 47
0.0
 48
0.0
 49
0.0
140
0.0
141
0.0
142
1.0
143
1.0
 70
1024
 72
1
 73
0
 74
5
  7

 75
16
 76
0
 77
2
 78
300
147
1.0
148
0.0
149
0.0
100
AcDbLayout
  1
Model
 70
1
 71
0
 10
0.0
 20
0.0
 11
420.0
 21
297.0
 12
0.0
 22
0.0
 32
0.0
 14
1e+20
 24
1e+20
 34
1e+20
 15
-1e+20
 25
-1e+20
 35
-1e+20
146
0.0
 13
0.0
 23
0.0
 33
0.0
 16
1.0
 26
0.0
 36
0.0
 17
0.0
 27
1.0
 37
0.0
 76
1
330
17
  0
LAYOUT
  5
1E
330
D
100
AcDbPlotSettings
  1

  2
Adobe PDF
  4
A3
  6

 40
7.5
 41
20.0
 42
7.5
 43
20.0
 44
420.0
 45
297.0
 46
0.0
 47
0.0
 48
0.0
 49
0.0
140
0.0
141
0.0
142
1.0
143
1.0
 70
0
 72
1
 73
0
 74
5
  7

 75
16
 76
0
 77
2
 78
300
147
1.0
148
0.0
149
0.0
100
AcDbLayout
  1
Layout1
 70
1
 71
1
 10
0.0
 20
0.0
 11
420.0
 21
297.0
 12
0.0
 22
0.0
 32
0.0
 14
1e+20
 24
1e+20
 34
1e+20
 15
-1e+20
 25
-1e+20
 35
-1e+20
146
0.0
 13
0.0
 23
0.0
 33
0.0
 16
1.0
 26
0.0
 36
0.0
 17
0.0
 27
1.0
 37
0.0
 76
1
330
1B
  0
MATERIAL
  5
1F
102
{ACAD_REACTORS
330
E
102
}
330
E
100
AcDbMaterial
  1
ByBlock
  2

 70
0
 40
1.0
 71
1
 41
1.0
 91
-1023410177
 42
1.0
 72
1
  3

 73
1
 74
1
 75
1
 44
0.5
 73
0
 45
1.0
 46
1.0
 77
1
  4

 78
1
 79
1
170
1
 48
1.0
171
1
  6

172
1
173
1
174
1
140
1.0
141
1.0
175
1
  7

176
1
177
1
178
1
143
1.0
179
1
  8

270
1
271
1
272
1
145
1.0
146
1.0
273
1
  9

274
1
275
1
276
1
 42
1.0
 72
1
  3

 73
1
 74
1
 75
1
 94
63
  0
MATERIAL
  5
20
102
{ACAD_REACTORS
330
E
102
}
330
E
100
AcDbMaterial
  1
ByLayer
  2

 70
0
 40
1.0
 71
1
 41
1.0
 91
-1023410177
 42
1.0
 72
1
  3

 73
1
 74
1
 75
1
 44
0.5
 73
0
 45
1.0
 46
1.0
 77
1
  4

 78
1
 79
1
170
1
 48
1.0
171
1
  6

172
1
173
1
174
1
140
1.0
141
1.0
175
1
  7

176
1
177
1
178
1
143
1.0
179
1
  8

270
1
271
1
272
1
145
1.0
146
1.0
273
1
  9

274
1
275
1
276
1
 42
1.0
 72
1
  3

 73
1
 74
1
 75
1
 94
63
  0
MATERIAL
  5
21
102
{ACAD_REACTORS
330
E
102
}
330
E
100
AcDbMaterial
  1
Global
  2

 70
0
 40
1.0
 71
1
 41
1.0
 91
-1023410177
 42
1.0
 72
1
  3

 73
1
 74
1
 75
1
 44
0.5
 73
0
 45
1.0
 46
1.0
 77
1
  4

 78
1
 79
1
170
1
 48
1.0
171
1
  6

172
1
173
1
174
1
140
1.0
141
1.0
175
1
  7

176
1
177
1
178
1
143
1.0
179
1
  8

270
1
271
1
272
1
145
1.0
146
1.0
273
1
  9

274
1
275
1
276
1
 42
1.0
 72
1
  3

 73
1
 74
1
 75
1
 94
63
  0
MLINESTYLE
  5
22
102
{ACAD_REACTORS
330
10
102
}
330
10
100
AcDbMlineStyle
  2
Standard
 70
0
  3

 62
256
 51
90.0
 52
90.0
 71
2
 49
0.5
 62
256
  6
BYLAYER
 49
-0.5
 62
256
  6
BYLAYER
  0
MLEADERSTYLE
  5
2C
102
{ACAD_REACTORS
330
F
102
}
330
F
100
AcDbMLeaderStyle
179
2
170
2
171
1
172
0
 90
2
 40
0.0
 41
0.0
173
1
 91
-1056964608
 92
-2
290
1
 42
2.0
291
1
 43
8.0
  3
Standard
 44
4.0
300

342
29
174
1
175
1
176
0
178
1
 93
-1056964608
 45
4.0
292
0
297
0
 46
4.0
 94
-1056964608
 47
1.0
 49
1.0
140
1.0
294
1
141
0.0
177
0
142
1.0
295
0
296
0
143
3.75
271
0
272
9
273
9
  0
DICTIONARY
  5
2D
330
A
100
AcDbDictionary
281
1
  3
CREATED_BY_EZDXF
350
2E
  3
WRITTEN_BY_EZDXF
350
41
  0
DICTIONARYVAR
  5
2E
330
2D
100
DictionaryVariables
280
0
  1
1.0.3 @ 2025-05-29T09:41:26.086823+00:00
  0
DICTIONARYVAR
  5
41
330
2D
100
DictionaryVariables
280
0
  1
1.0.3 @ 2025-05-29T09:41:26.090341+00:00
  0
ENDSEC
  0
EOF
