  0
SECTION
  2
HEADER
  9
$ACADVER
  1
AC1027
  9
$ACADMAINTVER
 70
105
  9
$DWGCODEPAGE
  3
ANSI_1252
  9
$LASTSAVEDBY
  1
ezdxf
  9
$REQUIREDVERSIONS
160
0
  9
$INSBASE
 10
0.0
 20
0.0
 30
0.0
  9
$EXTMIN
 10
1e+20
 20
1e+20
 30
1e+20
  9
$EXTMAX
 10
-1e+20
 20
-1e+20
 30
-1e+20
  9
$LIMMIN
 10
0.0
 20
0.0
  9
$LIMMAX
 10
420.0
 20
297.0
  9
$ORTHOMODE
 70
0
  9
$REGENMODE
 70
1
  9
$FILLMODE
 70
1
  9
$QTEXTMODE
 70
0
  9
$MIRRTEXT
 70
1
  9
$LTSCALE
 40
1.0
  9
$ATTMODE
 70
1
  9
$TEXTSIZE
 40
2.5
  9
$TRACEWID
 40
1.0
  9
$TEXTSTYLE
  7
Standard
  9
$CLAYER
  8
0
  9
$CELTYPE
  6
ByLayer
  9
$CECOLOR
 62
256
  9
$CELTSCALE
 40
1.0
  9
$DISPSILH
 70
0
  9
$DIMSCALE
 40
1.0
  9
$DIMASZ
 40
2.5
  9
$DIMEXO
 40
0.625
  9
$DIMDLI
 40
3.75
  9
$DIMRND
 40
0.0
  9
$DIMDLE
 40
0.0
  9
$DIMEXE
 40
1.25
  9
$DIMTP
 40
0.0
  9
$DIMTM
 40
0.0
  9
$DIMTXT
 40
2.5
  9
$DIMCEN
 40
2.5
  9
$DIMTSZ
 40
0.0
  9
$DIMTOL
 70
0
  9
$DIMLIM
 70
0
  9
$DIMTIH
 70
0
  9
$DIMTOH
 70
0
  9
$DIMSE1
 70
0
  9
$DIMSE2
 70
0
  9
$DIMTAD
 70
1
  9
$DIMZIN
 70
8
  9
$DIMBLK
  1

  9
$DIMASO
 70
1
  9
$DIMSHO
 70
1
  9
$DIMPOST
  1

  9
$DIMAPOST
  1

  9
$DIMALT
 70
0
  9
$DIMALTD
 70
3
  9
$DIMALTF
 40
0.03937007874
  9
$DIMLFAC
 40
1.0
  9
$DIMTOFL
 70
1
  9
$DIMTVP
 40
0.0
  9
$DIMTIX
 70
0
  9
$DIMSOXD
 70
0
  9
$DIMSAH
 70
0
  9
$DIMBLK1
  1

  9
$DIMBLK2
  1

  9
$DIMSTYLE
  2
ISO-25
  9
$DIMCLRD
 70
0
  9
$DIMCLRE
 70
0
  9
$DIMCLRT
 70
0
  9
$DIMTFAC
 40
1.0
  9
$DIMGAP
 40
0.625
  9
$DIMJUST
 70
0
  9
$DIMSD1
 70
0
  9
$DIMSD2
 70
0
  9
$DIMTOLJ
 70
0
  9
$DIMTZIN
 70
8
  9
$DIMALTZ
 70
0
  9
$DIMALTTZ
 70
0
  9
$DIMUPT
 70
0
  9
$DIMDEC
 70
2
  9
$DIMTDEC
 70
2
  9
$DIMALTU
 70
2
  9
$DIMALTTD
 70
3
  9
$DIMTXSTY
  7
Standard
  9
$DIMAUNIT
 70
0
  9
$DIMADEC
 70
0
  9
$DIMALTRND
 40
0.0
  9
$DIMAZIN
 70
0
  9
$DIMDSEP
 70
44
  9
$DIMATFIT
 70
3
  9
$DIMFRAC
 70
0
  9
$DIMLDRBLK
  1

  9
$DIMLUNIT
 70
2
  9
$DIMLWD
 70
-2
  9
$DIMLWE
 70
-2
  9
$DIMTMOVE
 70
0
  9
$DIMFXL
 40
1.0
  9
$DIMFXLON
 70
0
  9
$DIMJOGANG
 40
0.785398163397
  9
$DIMTFILL
 70
0
  9
$DIMTFILLCLR
 70
0
  9
$DIMARCSYM
 70
0
  9
$DIMLTYPE
  6

  9
$DIMLTEX1
  6

  9
$DIMLTEX2
  6

  9
$DIMTXTDIRECTION
 70
0
  9
$LUNITS
 70
2
  9
$LUPREC
 70
4
  9
$SKETCHINC
 40
1.0
  9
$FILLETRAD
 40
10.0
  9
$AUNITS
 70
0
  9
$AUPREC
 70
2
  9
$MENU
  1
.
  9
$ELEVATION
 40
0.0
  9
$PELEVATION
 40
0.0
  9
$THICKNESS
 40
0.0
  9
$LIMCHECK
 70
0
  9
$CHAMFERA
 40
0.0
  9
$CHAMFERB
 40
0.0
  9
$CHAMFERC
 40
0.0
  9
$CHAMFERD
 40
0.0
  9
$SKPOLY
 70
0
  9
$TDCREATE
 40
2460825.778773148
  9
$TDUCREATE
 40
2458532.153996898
  9
$TDUPDATE
 40
2460825.778773148
  9
$TDUUPDATE
 40
2458532.1544311
  9
$TDINDWG
 40
0.0
  9
$TDUSRTIMER
 40
0.0
  9
$USRTIMER
 70
1
  9
$ANGBASE
 50
0.0
  9
$ANGDIR
 70
0
  9
$PDMODE
 70
0
  9
$PDSIZE
 40
0.0
  9
$PLINEWID
 40
0.0
  9
$SPLFRAME
 70
0
  9
$SPLINETYPE
 70
6
  9
$SPLINESEGS
 70
8
  9
$HANDSEED
  5
42
  9
$SURFTAB1
 70
6
  9
$SURFTAB2
 70
6
  9
$SURFTYPE
 70
6
  9
$SURFU
 70
6
  9
$SURFV
 70
6
  9
$UCSBASE
  2

  9
$UCSNAME
  2

  9
$UCSORG
 10
0.0
 20
0.0
 30
0.0
  9
$UCSXDIR
 10
1.0
 20
0.0
 30
0.0
  9
$UCSYDIR
 10
0.0
 20
1.0
 30
0.0
  9
$UCSORTHOREF
  2

  9
$UCSORTHOVIEW
 70
0
  9
$UCSORGTOP
 10
0.0
 20
0.0
 30
0.0
  9
$UCSORGBOTTOM
 10
0.0
 20
0.0
 30
0.0
  9
$UCSORGLEFT
 10
0.0
 20
0.0
 30
0.0
  9
$UCSORGRIGHT
 10
0.0
 20
0.0
 30
0.0
  9
$UCSORGFRONT
 10
0.0
 20
0.0
 30
0.0
  9
$UCSORGBACK
 10
0.0
 20
0.0
 30
0.0
  9
$PUCSBASE
  2

  9
$PUCSNAME
  2

  9
$PUCSORG
 10
0.0
 20
0.0
 30
0.0
  9
$PUCSXDIR
 10
1.0
 20
0.0
 30
0.0
  9
$PUCSYDIR
 10
0.0
 20
1.0
 30
0.0
  9
$PUCSORTHOREF
  2

  9
$PUCSORTHOVIEW
 70
0
  9
$PUCSORGTOP
 10
0.0
 20
0.0
 30
0.0
  9
$PUCSORGBOTTOM
 10
0.0
 20
0.0
 30
0.0
  9
$PUCSORGLEFT
 10
0.0
 20
0.0
 30
0.0
  9
$PUCSORGRIGHT
 10
0.0
 20
0.0
 30
0.0
  9
$PUCSORGFRONT
 10
0.0
 20
0.0
 30
0.0
  9
$PUCSORGBACK
 10
0.0
 20
0.0
 30
0.0
  9
$USERI1
 70
0
  9
$USERI2
 70
0
  9
$USERI3
 70
0
  9
$USERI4
 70
0
  9
$USERI5
 70
0
  9
$USERR1
 40
0.0
  9
$USERR2
 40
0.0
  9
$USERR3
 40
0.0
  9
$USERR4
 40
0.0
  9
$USERR5
 40
0.0
  9
$WORLDVIEW
 70
1
  9
$SHADEDGE
 70
3
  9
$SHADEDIF
 70
70
  9
$TILEMODE
 70
1
  9
$MAXACTVP
 70
64
  9
$PINSBASE
 10
0.0
 20
0.0
 30
0.0
  9
$PLIMCHECK
 70
0
  9
$PEXTMIN
 10
1e+20
 20
1e+20
 30
1e+20
  9
$PEXTMAX
 10
-1e+20
 20
-1e+20
 30
-1e+20
  9
$PLIMMIN
 10
0.0
 20
0.0
  9
$PLIMMAX
 10
420.0
 20
297.0
  9
$UNITMODE
 70
0
  9
$VISRETAIN
 70
1
  9
$PLINEGEN
 70
0
  9
$PSLTSCALE
 70
1
  9
$TREEDEPTH
 70
3020
  9
$CMLSTYLE
  2
Standard
  9
$CMLJUST
 70
0
  9
$CMLSCALE
 40
20.0
  9
$PROXYGRAPHICS
 70
1
  9
$MEASUREMENT
 70
1
  9
$CELWEIGHT
370
-1
  9
$ENDCAPS
280
0
  9
$JOINSTYLE
280
0
  9
$LWDISPLAY
290
0
  9
$INSUNITS
 70
6
  9
$HYPERLINKBASE
  1

  9
$STYLESHEET
  1

  9
$XEDIT
290
1
  9
$CEPSNTYPE
380
0
  9
$PSTYLEMODE
290
1
  9
$FINGERPRINTGUID
  2
{4FC56AC1-77C8-4626-8BCF-82F169AD6FFF}
  9
$VERSIONGUID
  2
{912861B9-A9D4-4622-94BC-DF7B06A4B404}
  9
$EXTNAMES
290
1
  9
$PSVPSCALE
 40
0.0
  9
$OLESTARTUP
290
0
  9
$SORTENTS
280
127
  9
$INDEXCTL
280
0
  9
$HIDETEXT
280
1
  9
$XCLIPFRAME
280
0
  9
$HALOGAP
280
0
  9
$OBSCOLOR
 70
257
  9
$OBSLTYPE
280
0
  9
$INTERSECTIONDISPLAY
280
0
  9
$INTERSECTIONCOLOR
 70
257
  9
$DIMASSOC
280
2
  9
$PROJECTNAME
  1

  9
$CAMERADISPLAY
290
0
  9
$LENSLENGTH
 40
50.0
  9
$CAMERAHEIGHT
 40
0.0
  9
$STEPSPERSEC
 40
24.0
  9
$STEPSIZE
 40
100.0
  9
$3DDWFPREC
 40
2.0
  9
$PSOLWIDTH
 40
0.005
  9
$PSOLHEIGHT
 40
0.08
  9
$LOFTANG1
 40
1.570796326795
  9
$LOFTANG2
 40
1.570796326795
  9
$LOFTMAG1
 40
0.0
  9
$LOFTMAG2
 40
0.0
  9
$LOFTPARAM
 70
7
  9
$LOFTNORMALS
280
1
  9
$LATITUDE
 40
37.795
  9
$LONGITUDE
 40
-122.394
  9
$NORTHDIRECTION
 40
0.0
  9
$TIMEZONE
 70
-8000
  9
$LIGHTGLYPHDISPLAY
280
1
  9
$TILEMODELIGHTSYNCH
280
1
  9
$CMATERIAL
347
20
  9
$SOLIDHIST
280
0
  9
$SHOWHIST
280
1
  9
$DWFFRAME
280
2
  9
$DGNFRAME
280
2
  9
$REALWORLDSCALE
290
1
  9
$INTERFERECOLOR
 62
256
  9
$CSHADOW
280
0
  9
$SHADOWPLANELOCATION
 40
0.0
  0
ENDSEC
  0
SECTION
  2
CLASSES
  0
CLASS
  1
ACDBDICTIONARYWDFLT
  2
AcDbDictionaryWithDefault
  3
ObjectDBX Classes
 90
0
 91
0
280
0
281
0
  0
CLASS
  1
SUN
  2
AcDbSun
  3
SCENEOE
 90
1153
 91
0
280
0
281
0
  0
CLASS
  1
VISUALSTYLE
  2
AcDbVisualStyle
  3
ObjectDBX Classes
 90
4095
 91
0
280
0
281
0
  0
CLASS
  1
MATERIAL
  2
AcDbMaterial
  3
ObjectDBX Classes
 90
1153
 91
0
280
0
281
0
  0
CLASS
  1
SCALE
  2
AcDbScale
  3
ObjectDBX Classes
 90
1153
 91
0
280
0
281
0
  0
CLASS
  1
TABLESTYLE
  2
AcDbTableStyle
  3
ObjectDBX Classes
 90
4095
 91
0
280
0
281
0
  0
CLASS
  1
MLEADERSTYLE
  2
AcDbMLeaderStyle
  3
ACDB_MLEADERSTYLE_CLASS
 90
4095
 91
0
280
0
281
0
  0
CLASS
  1
DICTIONARYVAR
  2
AcDbDictionaryVar
  3
ObjectDBX Classes
 90
0
 91
0
280
0
281
0
  0
CLASS
  1
CELLSTYLEMAP
  2
AcDbCellStyleMap
  3
ObjectDBX Classes
 90
1152
 91
0
280
0
281
0
  0
CLASS
  1
MENTALRAYRENDERSETTINGS
  2
AcDbMentalRayRenderSettings
  3
SCENEOE
 90
1024
 91
0
280
0
281
0
  0
CLASS
  1
ACDBDETAILVIEWSTYLE
  2
AcDbDetailViewStyle
  3
ObjectDBX Classes
 90
1025
 91
0
280
0
281
0
  0
CLASS
  1
ACDBSECTIONVIEWSTYLE
  2
AcDbSectionViewStyle
  3
ObjectDBX Classes
 90
1025
 91
0
280
0
281
0
  0
CLASS
  1
RASTERVARIABLES
  2
AcDbRasterVariables
  3
ISM
 90
0
 91
0
280
0
281
0
  0
CLASS
  1
LAYOUT
  2
AcDbLayout
  3
ObjectDBX Classes
 90
0
 91
0
280
0
281
0
  0
CLASS
  1
ACDBPLACEHOLDER
  2
AcDbPlaceHolder
  3
ObjectDBX Classes
 90
0
 91
0
280
0
281
0
  0
ENDSEC
  0
SECTION
  2
TABLES
  0
TABLE
  2
VPORT
  5
8
330
0
100
AcDbSymbolTable
 70
1
  0
VPORT
  5
23
330
8
100
AcDbSymbolTableRecord
100
AcDbViewportTableRecord
  2
*Active
 70
0
 10
0.0
 20
0.0
 11
1.0
 21
1.0
 12
0.0
 22
0.0
 13
0.0
 23
0.0
 14
0.5
 24
0.5
 15
0.5
 25
0.5
 16
0.0
 26
0.0
 36
1.0
 17
0.0
 27
0.0
 37
0.0
 40
1000.0
 41
1.34
 42
50.0
 43
0.0
 44
0.0
 50
0.0
 51
0.0
 71
0
 72
1000
 73
1
 74
3
 75
0
 76
0
 77
0
 78
0
281
0
 65
0
146
0.0
  0
ENDTAB
  0
TABLE
  2
LTYPE
  5
2
330
0
100
AcDbSymbolTable
 70
3
  0
LTYPE
  5
24
330
2
100
AcDbSymbolTableRecord
100
AcDbLinetypeTableRecord
  2
ByBlock
 70
0
  3

 72
65
 73
0
 40
0.0
  0
LTYPE
  5
25
330
2
100
AcDbSymbolTableRecord
100
AcDbLinetypeTableRecord
  2
ByLayer
 70
0
  3

 72
65
 73
0
 40
0.0
  0
LTYPE
  5
26
330
2
100
AcDbSymbolTableRecord
100
AcDbLinetypeTableRecord
  2
Continuous
 70
0
  3

 72
65
 73
0
 40
0.0
  0
ENDTAB
  0
TABLE
  2
LAYER
  5
1
330
0
100
AcDbSymbolTable
 70
2
  0
LAYER
  5
27
330
1
100
AcDbSymbolTableRecord
100
AcDbLayerTableRecord
  2
0
 70
0
 62
7
  6
Continuous
370
-3
390
13
347
21
  0
LAYER
  5
28
330
1
100
AcDbSymbolTableRecord
100
AcDbLayerTableRecord
  2
Defpoints
 70
0
 62
7
  6
Continuous
290
0
370
-3
390
13
347
21
  0
ENDTAB
  0
TABLE
  2
STYLE
  5
5
330
0
100
AcDbSymbolTable
 70
1
  0
STYLE
  5
29
330
5
100
AcDbSymbolTableRecord
100
AcDbTextStyleTableRecord
  2
Standard
 70
0
 40
0.0
 41
1.0
 50
0.0
 71
0
 42
2.5
  3
txt
  4

  0
ENDTAB
  0
TABLE
  2
VIEW
  5
7
330
0
100
AcDbSymbolTable
 70
0
  0
ENDTAB
  0
TABLE
  2
UCS
  5
6
330
0
100
AcDbSymbolTable
 70
0
  0
ENDTAB
  0
TABLE
  2
APPID
  5
3
330
0
100
AcDbSymbolTable
 70
3
  0
APPID
  5
2A
330
3
100
AcDbSymbolTableRecord
100
AcDbRegAppTableRecord
  2
ACAD
 70
0
  0
APPID
  5
3F
330
3
100
AcDbSymbolTableRecord
100
AcDbRegAppTableRecord
  2
HATCHBACKGROUNDCOLOR
 70
0
  0
APPID
  5
40
330
3
100
AcDbSymbolTableRecord
100
AcDbRegAppTableRecord
  2
EZDXF
 70
0
  0
ENDTAB
  0
TABLE
  2
DIMSTYLE
  5
4
330
0
100
AcDbSymbolTable
 70
1
100
AcDbDimStyleTable
  0
DIMSTYLE
105
2B
330
4
100
AcDbSymbolTableRecord
100
AcDbDimStyleTableRecord
  2
Standard
 70
0
 40
1.0
 41
2.5
 42
0.625
 43
3.75
 44
1.25
 45
0.0
 46
0.0
 47
0.0
 48
0.0
 49
2.5
140
2.5
141
2.5
142
0.0
143
0.03937007874
144
1.0
145
0.0
146
1.0
147
0.625
148
0.0
 69
0
 70
0
 71
0
 72
0
 73
0
 74
0
 75
0
 76
0
 77
1
 78
8
 79
3
170
0
171
3
172
1
173
0
174
0
175
0
176
0
177
0
178
0
179
2
271
2
272
2
273
2
274
3
275
0
276
0
277
2
278
44
279
0
280
0
281
0
282
0
283
0
284
8
285
0
286
0
288
0
289
3
290
0
371
-2
372
-2
  0
ENDTAB
  0
TABLE
  2
BLOCK_RECORD
  5
9
330
0
100
AcDbSymbolTable
 70
2
  0
BLOCK_RECORD
  5
17
330
9
100
AcDbSymbolTableRecord
100
AcDbBlockTableRecord
  2
*Model_Space
340
1A
 70
0
280
1
281
0
  0
BLOCK_RECORD
  5
1B
330
9
100
AcDbSymbolTableRecord
100
AcDbBlockTableRecord
  2
*Paper_Space
340
1E
 70
0
280
1
281
0
  0
ENDTAB
  0
ENDSEC
  0
SECTION
  2
BLOCKS
  0
BLOCK
  5
18
330
17
100
AcDbEntity
  8
0
100
AcDbBlockBegin
  2
*Model_Space
 70
0
 10
0.0
 20
0.0
 30
0.0
  3
*Model_Space
  1

  0
ENDBLK
  5
19
330
17
100
AcDbEntity
  8
0
100
AcDbBlockEnd
  0
BLOCK
  5
1C
330
1B
100
AcDbEntity
  8
0
100
AcDbBlockBegin
  2
*Paper_Space
 70
0
 10
0.0
 20
0.0
 30
0.0
  3
*Paper_Space
  1

  0
ENDBLK
  5
1D
330
1B
100
AcDbEntity
  8
0
100
AcDbBlockEnd
  0
ENDSEC
  0
SECTION
  2
ENTITIES
  0
LWPOLYLINE
  5
2F
330
17
100
AcDbEntity
  8
0
100
AcDbPolyline
 90
51
 70
0
 10
-13.65024623219
 20
7.0
 10
-13.65024623219
 20
7.059999999999999
 10
-13.65024623219
 20
7.120000000000001
 10
-13.65024623219
 20
7.18
 10
-13.65024623219
 20
7.239999999999998
 10
-13.65024623219
 20
7.300000000000001
 10
-13.65024623219
 20
7.359999999999999
 10
-13.65024623219
 20
7.420000000000002
 10
-13.65024623219
 20
7.48
 10
-13.65024623219
 20
7.539999999999999
 10
-13.65024623219
 20
7.600000000000001
 10
-13.65024623219
 20
7.66
 10
-13.65024623219
 20
7.719999999999999
 10
-13.65024623219
 20
7.780000000000001
 10
-13.65024623219
 20
7.84
 10
-13.65024623219
 20
7.899999999999999
 10
-13.65024623219
 20
7.960000000000001
 10
-13.65024623219
 20
8.02
 10
-13.65024623219
 20
8.079999999999998
 10
-13.65024623219
 20
8.14
 10
-13.65024623219
 20
8.2
 10
-13.65024623219
 20
8.260000000000002
 10
-13.65024623219
 20
8.32
 10
-13.65024623219
 20
8.379999999999999
 10
-13.65024623219
 20
8.440000000000001
 10
-13.65024623219
 20
8.5
 10
-13.65024623219
 20
8.559999999999999
 10
-13.65024623219
 20
8.620000000000001
 10
-13.65024623219
 20
8.68
 10
-13.65024623219
 20
8.739999999999998
 10
-13.65024623219
 20
8.8
 10
-13.65024623219
 20
8.86
 10
-13.65024623219
 20
8.920000000000002
 10
-13.65024623219
 20
8.98
 10
-13.65024623219
 20
9.04
 10
-13.65024623219
 20
9.100000000000001
 10
-13.65024623219
 20
9.16
 10
-13.65024623219
 20
9.219999999999999
 10
-13.65024623219
 20
9.280000000000001
 10
-13.65024623219
 20
9.34
 10
-13.65024623219
 20
9.399999999999999
 10
-13.65024623219
 20
9.46
 10
-13.65024623219
 20
9.52
 10
-13.65024623219
 20
9.579999999999998
 10
-13.65024623219
 20
9.64
 10
-13.65024623219
 20
9.7
 10
-13.65024623219
 20
9.759999999999998
 10
-13.65024623219
 20
9.82
 10
-13.65024623219
 20
9.879999999999999
 10
-13.65024623219
 20
9.940000000000001
 10
-13.65024623219
 20
10.0
  0
LWPOLYLINE
  5
30
330
17
100
AcDbEntity
  8
0
100
AcDbPolyline
 90
51
 70
0
 10
-10.0
 20
7.0
 10
-10.0
 20
7.0600000000000005
 10
-10.0
 20
7.12
 10
-10.0
 20
7.18
 10
-10.0
 20
7.24
 10
-10.0
 20
7.3
 10
-10.0
 20
7.359999999999999
 10
-10.0
 20
7.42
 10
-10.0
 20
7.48
 10
-10.0
 20
7.54
 10
-10.0
 20
7.6
 10
-10.0
 20
7.66
 10
-10.0
 20
7.72
 10
-10.0
 20
7.78
 10
-10.0
 20
7.84
 10
-10.0
 20
7.9
 10
-10.0
 20
7.96
 10
-10.0
 20
8.02
 10
-10.0
 20
8.08
 10
-10.0
 20
8.14
 10
-10.0
 20
8.2
 10
-10.0
 20
8.26
 10
-10.0
 20
8.32
 10
-10.0
 20
8.379999999999999
 10
-10.0
 20
8.44
 10
-10.0
 20
8.5
 10
-10.0
 20
8.56
 10
-10.0
 20
8.620000000000001
 10
-10.0
 20
8.68
 10
-10.0
 20
8.74
 10
-10.0
 20
8.8
 10
-10.0
 20
8.86
 10
-10.0
 20
8.92
 10
-10.0
 20
8.98
 10
-10.0
 20
9.04
 10
-10.0
 20
9.1
 10
-10.0
 20
9.16
 10
-10.0
 20
9.22
 10
-10.0
 20
9.28
 10
-10.0
 20
9.34
 10
-10.0
 20
9.4
 10
-10.0
 20
9.46
 10
-10.0
 20
9.52
 10
-10.0
 20
9.58
 10
-10.0
 20
9.64
 10
-10.0
 20
9.7
 10
-10.0
 20
9.76
 10
-10.0
 20
9.82
 10
-10.0
 20
9.879999999999999
 10
-10.0
 20
9.94
 10
-10.0
 20
10.0
  0
LWPOLYLINE
  5
31
330
17
100
AcDbEntity
  8
0
100
AcDbPolyline
 90
51
 70
0
 10
-8.0
 20
10.0
 10
-8.0
 20
10.08
 10
-8.0
 20
10.16
 10
-8.0
 20
10.24
 10
-8.0
 20
10.32
 10
-8.0
 20
10.4
 10
-8.0
 20
10.48
 10
-8.0
 20
10.56
 10
-8.0
 20
10.64
 10
-8.0
 20
10.72
 10
-8.0
 20
10.8
 10
-8.0
 20
10.88
 10
-8.0
 20
10.96
 10
-8.0
 20
11.04
 10
-8.0
 20
11.120000000000001
 10
-8.0
 20
11.2
 10
-8.0
 20
11.28
 10
-8.0
 20
11.36
 10
-8.0
 20
11.44
 10
-8.0
 20
11.52
 10
-8.0
 20
11.6
 10
-8.0
 20
11.68
 10
-8.0
 20
11.76
 10
-8.0
 20
11.84
 10
-8.0
 20
11.92
 10
-8.0
 20
12.0
 10
-8.0
 20
12.08
 10
-8.0
 20
12.16
 10
-8.0
 20
12.24
 10
-8.0
 20
12.32
 10
-8.0
 20
12.4
 10
-8.0
 20
12.48
 10
-8.0
 20
12.56
 10
-8.0
 20
12.64
 10
-8.0
 20
12.72
 10
-8.0
 20
12.8
 10
-8.0
 20
12.879999999999999
 10
-8.0
 20
12.96
 10
-8.0
 20
13.04
 10
-8.0
 20
13.120000000000001
 10
-8.0
 20
13.2
 10
-8.0
 20
13.28
 10
-8.0
 20
13.36
 10
-8.0
 20
13.44
 10
-8.0
 20
13.52
 10
-8.0
 20
13.6
 10
-8.0
 20
13.68
 10
-8.0
 20
13.76
 10
-8.0
 20
13.84
 10
-8.0
 20
13.92
 10
-8.0
 20
14.0
  0
LWPOLYLINE
  5
32
330
17
100
AcDbEntity
  8
0
100
AcDbPolyline
 90
51
 70
0
 10
-47.0
 20
0.0
 10
-47.0
 20
0.2
 10
-47.0
 20
0.4
 10
-47.0
 20
0.6
 10
-47.0
 20
0.8
 10
-47.0
 20
1.0
 10
-47.0
 20
1.2
 10
-47.0
 20
1.4
 10
-47.0
 20
1.6
 10
-47.0
 20
1.8
 10
-47.0
 20
2.0
 10
-47.0
 20
2.2
 10
-47.0
 20
2.4
 10
-47.0
 20
2.6
 10
-47.0
 20
2.8
 10
-47.0
 20
3.0
 10
-47.0
 20
3.2
 10
-47.0
 20
3.4
 10
-47.0
 20
3.6
 10
-47.0
 20
3.8
 10
-47.0
 20
4.0
 10
-47.0
 20
4.2
 10
-47.0
 20
4.4
 10
-47.0
 20
4.6
 10
-47.0
 20
4.8
 10
-47.0
 20
5.0
 10
-47.0
 20
5.2
 10
-47.0
 20
5.4
 10
-47.0
 20
5.6
 10
-47.0
 20
5.8
 10
-47.0
 20
6.0
 10
-47.0
 20
6.2
 10
-47.0
 20
6.4
 10
-47.0
 20
6.6
 10
-47.0
 20
6.8
 10
-47.0
 20
7.0
 10
-47.0
 20
7.2
 10
-47.0
 20
7.4
 10
-47.0
 20
7.6
 10
-47.0
 20
7.8
 10
-47.0
 20
8.0
 10
-47.0
 20
8.2
 10
-47.0
 20
8.4
 10
-47.0
 20
8.6
 10
-47.0
 20
8.8
 10
-47.0
 20
9.0
 10
-47.0
 20
9.2
 10
-47.0
 20
9.4
 10
-47.0
 20
9.6
 10
-47.0
 20
9.8
 10
-47.0
 20
10.0
  0
LWPOLYLINE
  5
33
330
17
100
AcDbEntity
  8
0
100
AcDbPolyline
 90
51
 70
0
 10
1.7500000000000886
 20
0.0
 10
1.9582058300425795
 20
0.0
 10
2.1664116600850707
 20
0.0
 10
2.374617490127562
 20
0.0
 10
2.5800420017566394
 20
0.0
 10
2.7817580888344993
 20
0.0
 10
2.9834741759123595
 20
0.0
 10
3.185190262990219
 20
0.0
 10
3.379736632225509
 20
0.0
 10
3.573088048487037
 20
0.0
 10
3.766439464748565
 20
0.0
 10
3.9568874952918307
 20
0.0
 10
4.140077061539443
 20
0.0
 10
4.323266627787054
 20
0.0
 10
4.506456194034665
 20
0.0
 10
4.681171063151387
 20
0.0
 10
4.852496053415755
 20
0.0
 10
5.0238210436801225
 20
0.0
 10
5.193223602218478
 20
0.0
 10
5.351091570400769
 20
0.0
 10
5.508959538583059
 20
0.0
 10
5.666827506765349
 20
0.0
 10
5.816167253972266
 20
0.0
 10
5.959110835447653
 20
0.0
 10
6.10205441692304
 20
0.0
 10
6.244997998398427
 20
0.0
 10
6.371688549001676
 20
0.0
 10
6.498379099604925
 20
0.0
 10
6.625069650208173
 20
0.0
 10
6.744289941533023
 20
0.0
 10
6.853549887153341
 20
0.0
 10
6.962809832773659
 20
0.0
 10
7.072069778393977
 20
0.0
 10
7.165518726622956
 20
0.0
 10
7.256332508620046
 20
0.0
 10
7.347146290617136
 20
0.0
 10
7.432448567673609
 20
0.0
 10
7.5039720823785405
 20
0.0
 10
7.5754955970834725
 20
0.0
 10
7.6470191117884045
 20
0.0
 10
7.704289004962544
 20
0.0
 10
7.755857449524369
 20
0.0
 10
7.807425894086192
 20
0.0
 10
7.856075139660878
 20
0.0
 10
7.887209191312737
 20
0.0
 10
7.918343242964595
 20
0.0
 10
7.949477294616454
 20
0.0
 10
7.968769186072491
 20
0.0
 10
7.979179457381661
 20
0.0
 10
7.98958972869083
 20
0.0
 10
8.0
 20
0.0
  0
LWPOLYLINE
  5
34
330
17
100
AcDbEntity
  8
0
100
AcDbPolyline
 90
51
 70
0
 10
-28.71875
 20
0.0
 10
-28.109374999999986
 20
0.0
 10
-27.49999999999997
 20
0.0
 10
-26.890624999999957
 20
0.0
 10
-26.281249999999943
 20
0.0
 10
-25.67187499999993
 20
0.0
 10
-25.062499999999915
 20
0.0
 10
-24.4531249999999
 20
0.0
 10
-23.843749999999886
 20
0.0
 10
-23.234374999999872
 20
0.0
 10
-22.624999999999858
 20
0.0
 10
-22.015624999999844
 20
0.0
 10
-21.40624999999983
 20
0.0
 10
-20.796874999999815
 20
0.0
 10
-20.1874999999998
 20
0.0
 10
-19.578124999999787
 20
0.0
 10
-18.968749999999773
 20
0.0
 10
-18.35937499999976
 20
0.0
 10
-17.749999999999744
 20
0.0
 10
-17.14062499999973
 20
0.0
 10
-16.531249999999716
 20
0.0
 10
-15.9218749999997
 20
0.0
 10
-15.312499999999686
 20
0.0
 10
-14.703124999999673
 20
0.0
 10
-14.093749999999657
 20
0.0
 10
-13.484374999999643
 20
0.0
 10
-12.874999999999629
 20
0.0
 10
-12.265624999999613
 20
0.0
 10
-11.656249999999599
 20
0.0
 10
-11.046874999999588
 20
0.0
 10
-10.437499999999574
 20
0.0
 10
-9.828124999999556
 20
0.0
 10
-9.218749999999542
 20
0.0
 10
-8.609374999999531
 20
0.0
 10
-7.999999999999513
 20
0.0
 10
-7.390624999999499
 20
0.0
 10
-6.781249999999485
 20
0.0
 10
-6.171874999999474
 20
0.0
 10
-5.56249999999946
 20
0.0
 10
-4.953124999999446
 20
0.0
 10
-4.343749999999428
 20
0.0
 10
-3.734374999999414
 20
0.0
 10
-3.1249999999993996
 20
0.0
 10
-2.5156249999993854
 20
0.0
 10
-1.9062499999993712
 20
0.0
 10
-1.2968749999993605
 20
0.0
 10
-0.6874999999993463
 20
0.0
 10
-0.07812499999932854
 20
0.0
 10
0.5312500000006857
 20
0.0
 10
1.1406250000006999
 20
0.0
 10
1.750000000000714
 20
0.0
  0
LWPOLYLINE
  5
35
330
17
100
AcDbEntity
  8
0
100
AcDbPolyline
 90
51
 70
0
 10
-47.0
 20
0.0
 10
-46.96566621937232
 20
0.0
 10
-46.93133243874463
 20
0.0
 10
-46.89699865811695
 20
0.0
 10
-46.833476495827206
 20
0.0
 10
-46.73103649132138
 20
0.0
 10
-46.62859648681557
 20
0.0
 10
-46.526156482309744
 20
0.0
 10
-46.36677528698683
 20
0.0
 10
-46.19790389319439
 20
0.0
 10
-46.029032499401964
 20
0.0
 10
-45.84196955130842
 20
0.0
 10
-45.609427717462125
 20
0.0
 10
-45.37688588361583
 20
0.0
 10
-45.14434404976952
 20
0.0
 10
-44.869038990139856
 20
0.0
 10
-44.57662864019685
 20
0.0
 10
-44.28421829025385
 20
0.0
 10
-43.98393825793023
 20
0.0
 10
-43.636440131323
 20
0.0
 10
-43.28894200471577
 20
0.0
 10
-42.94144387810854
 20
0.0
 10
-42.56571353203262
 20
0.0
 10
-42.16880902135519
 20
0.0
 10
-41.77190451067775
 20
0.0
 10
-41.37500000000031
 20
0.0
 10
-40.93517826353828
 20
0.0
 10
-40.49535652707625
 20
0.0
 10
-40.0555347906142
 20
0.0
 10
-39.6004017416761
 20
0.0
 10
-39.12485360943659
 20
0.0
 10
-38.649305477197075
 20
0.0
 10
-38.17375734495756
 20
0.0
 10
-37.674250818480296
 20
0.0
 10
-37.170751226296744
 20
0.0
 10
-36.667251634113185
 20
0.0
 10
-36.1581178893666
 20
0.0
 10
-35.63489876321242
 20
0.0
 10
-35.11167963705823
 20
0.0
 10
-34.58846051090404
 20
0.0
 10
-34.057266238273414
 20
0.0
 10
-33.52288190705221
 20
0.0
 10
-32.988497575831
 20
0.0
 10
-32.45376634010356
 20
0.0
 10
-31.916953677338686
 20
0.0
 10
-31.3801410145738
 20
0.0
 10
-30.843328351808925
 20
0.0
 10
-30.31014325692427
 20
0.0
 10
-29.779678837949778
 20
0.0
 10
-29.249214418975285
 20
0.0
 10
-28.7187500000008
 20
0.0
  0
LWPOLYLINE
  5
36
330
17
100
AcDbEntity
  8
0
100
AcDbPolyline
 90
51
 70
0
 10
-4.104685623498048
 20
7.0
 10
-4.311221835671893
 20
7.0
 10
-4.5177580478457395
 20
7.0
 10
-4.724294260019585
 20
7.0
 10
-4.930830472193431
 20
7.0
 10
-5.137366684367278
 20
7.0
 10
-5.343902896541123
 20
7.0
 10
-5.5504391087149685
 20
7.0
 10
-5.756975320888815
 20
7.0
 10
-5.963511533062661
 20
7.0
 10
-6.1700477452365075
 20
7.0
 10
-6.376583957410352
 20
7.0
 10
-6.583120169584198
 20
7.0
 10
-6.789656381758045
 20
7.0
 10
-6.99619259393189
 20
7.0
 10
-7.202728806105736
 20
7.0
 10
-7.409265018279582
 20
7.0
 10
-7.615801230453428
 20
7.0
 10
-7.8223374426272745
 20
7.0
 10
-8.02887365480112
 20
7.0
 10
-8.235409866974965
 20
7.0
 10
-8.441946079148812
 20
7.0
 10
-8.648482291322658
 20
7.0
 10
-8.855018503496503
 20
7.0
 10
-9.061554715670349
 20
7.0
 10
-9.268090927844195
 20
7.0
 10
-9.474627140018042
 20
7.0
 10
-9.681163352191888
 20
7.0
 10
-9.887699564365732
 20
7.0
 10
-10.094235776539579
 20
7.0
 10
-10.300771988713425
 20
7.0
 10
-10.50730820088727
 20
7.0
 10
-10.713844413061118
 20
7.0
 10
-10.920380625234962
 20
7.0
 10
-11.126916837408807
 20
7.0
 10
-11.333453049582655
 20
7.0
 10
-11.5399892617565
 20
7.0
 10
-11.746525473930346
 20
7.0
 10
-11.953061686104192
 20
7.0
 10
-12.159597898278038
 20
7.0
 10
-12.366134110451885
 20
7.0
 10
-12.57267032262573
 20
7.0
 10
-12.779206534799576
 20
7.0
 10
-12.985742746973422
 20
7.0
 10
-13.192278959147266
 20
7.0
 10
-13.398815171321113
 20
7.0
 10
-13.605351383494959
 20
7.0
 10
-13.811887595668805
 20
7.0
 10
-14.01842380784265
 20
7.0
 10
-14.224960020016496
 20
7.0
 10
-14.431496232190343
 20
7.0
  0
LWPOLYLINE
  5
37
330
17
100
AcDbEntity
  8
0
100
AcDbPolyline
 90
51
 70
0
 10
-28.71875
 20
10.0
 10
-28.433004924643793
 20
10.0
 10
-28.147259849287583
 20
10.0
 10
-27.861514773931376
 20
10.0
 10
-27.575769698575165
 20
10.0
 10
-27.290024623218958
 20
10.0
 10
-27.00427954786275
 20
10.0
 10
-26.71853447250654
 20
10.0
 10
-26.432789397150334
 20
10.0
 10
-26.147044321794127
 20
10.0
 10
-25.861299246437916
 20
10.0
 10
-25.57555417108171
 20
10.0
 10
-25.2898090957255
 20
10.0
 10
-25.00406402036929
 20
10.0
 10
-24.718318945013085
 20
10.0
 10
-24.432573869656874
 20
10.0
 10
-24.146828794300667
 20
10.0
 10
-23.861083718944457
 20
10.0
 10
-23.57533864358825
 20
10.0
 10
-23.289593568232043
 20
10.0
 10
-23.003848492875832
 20
10.0
 10
-22.718103417519625
 20
10.0
 10
-22.43235834216342
 20
10.0
 10
-22.146613266807208
 20
10.0
 10
-21.860868191451
 20
10.0
 10
-21.575123116094794
 20
10.0
 10
-21.289378040738583
 20
10.0
 10
-21.003632965382376
 20
10.0
 10
-20.71788789002617
 20
10.0
 10
-20.43214281466996
 20
10.0
 10
-20.14639773931375
 20
10.0
 10
-19.86065266395754
 20
10.0
 10
-19.574907588601334
 20
10.0
 10
-19.289162513245124
 20
10.0
 10
-19.003417437888917
 20
10.0
 10
-18.71767236253271
 20
10.0
 10
-18.4319272871765
 20
10.0
 10
-18.146182211820292
 20
10.0
 10
-17.860437136464085
 20
10.0
 10
-17.574692061107875
 20
10.0
 10
-17.288946985751668
 20
10.0
 10
-17.00320191039546
 20
10.0
 10
-16.71745683503925
 20
10.0
 10
-16.43171175968304
 20
10.0
 10
-16.145966684326833
 20
10.0
 10
-15.860221608970626
 20
10.0
 10
-15.574476533614417
 20
10.0
 10
-15.28873145825821
 20
10.0
 10
-15.002986382902
 20
10.0
 10
-14.717241307545791
 20
10.0
 10
-14.431496232189584
 20
10.0
  0
LWPOLYLINE
  5
38
330
17
100
AcDbEntity
  8
0
100
AcDbPolyline
 90
51
 70
0
 10
-4.104685623498
 20
10.0
 10
-3.98759191102804
 20
10.0
 10
-3.8704981985580793
 20
10.0
 10
-3.7534044860881193
 20
10.0
 10
-3.636310773618159
 20
10.0
 10
-3.5192170611481988
 20
10.0
 10
-3.4021233486782387
 20
10.0
 10
-3.2850296362082783
 20
10.0
 10
-3.1679359237383182
 20
10.0
 10
-3.050842211268358
 20
10.0
 10
-2.9337484987983977
 20
10.0
 10
-2.8166547863284377
 20
10.0
 10
-2.6995610738584777
 20
10.0
 10
-2.5824673613885176
 20
10.0
 10
-2.4653736489185567
 20
10.0
 10
-2.348279936448597
 20
10.0
 10
-2.2311862239786366
 20
10.0
 10
-2.1140925115086766
 20
10.0
 10
-1.9969987990387166
 20
10.0
 10
-1.879905086568756
 20
10.0
 10
-1.762811374098796
 20
10.0
 10
-1.645717661628836
 20
10.0
 10
-1.5286239491588756
 20
10.0
 10
-1.4115302366889155
 20
10.0
 10
-1.2944365242189555
 20
10.0
 10
-1.1773428117489946
 20
10.0
 10
-1.060249099279035
 20
10.0
 10
-0.943155386809075
 20
10.0
 10
-0.826061674339114
 20
10.0
 10
-0.7089679618691545
 20
10.0
 10
-0.5918742493991944
 20
10.0
 10
-0.4747805369292335
 20
10.0
 10
-0.35768682445927347
 20
10.0
 10
-0.24059311198931388
 20
10.0
 10
-0.12349939951935296
 20
10.0
 10
-0.0064056870493933715
 20
10.0
 10
0.11068802542056666
 20
10.0
 10
0.22778173789052758
 20
10.0
 10
0.3448754503604876
 20
10.0
 10
0.46196916283044764
 20
10.0
 10
0.5790628753004077
 20
10.0
 10
0.6961565877703677
 20
10.0
 10
0.8132503002403277
 20
10.0
 10
0.9303440127102887
 20
10.0
 10
1.0474377251802487
 20
10.0
 10
1.1645314376502087
 20
10.0
 10
1.2816251501201688
 20
10.0
 10
1.3987188625901297
 20
10.0
 10
1.5158125750600888
 20
10.0
 10
1.6329062875300497
 20
10.0
 10
1.7500000000000107
 20
10.0
  0
LWPOLYLINE
  5
39
330
17
100
AcDbEntity
  8
0
100
AcDbPolyline
 90
51
 70
0
 10
-4.104685623498
 20
7.0
 10
-4.104685623498
 20
7.06
 10
-4.104685623498
 20
7.12
 10
-4.104685623498
 20
7.18
 10
-4.104685623498
 20
7.24
 10
-4.104685623498
 20
7.3
 10
-4.104685623498
 20
7.36
 10
-4.104685623498
 20
7.42
 10
-4.104685623498
 20
7.48
 10
-4.104685623498
 20
7.54
 10
-4.104685623498
 20
7.6
 10
-4.104685623498
 20
7.66
 10
-4.104685623498
 20
7.72
 10
-4.104685623498
 20
7.78
 10
-4.104685623498
 20
7.84
 10
-4.104685623498
 20
7.9
 10
-4.104685623498
 20
7.96
 10
-4.104685623498
 20
8.02
 10
-4.104685623498
 20
8.08
 10
-4.104685623498
 20
8.14
 10
-4.104685623498
 20
8.2
 10
-4.104685623498
 20
8.26
 10
-4.104685623498
 20
8.32
 10
-4.104685623498
 20
8.379999999999999
 10
-4.104685623498
 20
8.44
 10
-4.104685623498
 20
8.5
 10
-4.104685623498
 20
8.56
 10
-4.104685623498
 20
8.620000000000001
 10
-4.104685623498
 20
8.68
 10
-4.104685623498
 20
8.74
 10
-4.104685623498
 20
8.8
 10
-4.104685623498
 20
8.86
 10
-4.104685623498
 20
8.92
 10
-4.104685623498
 20
8.98
 10
-4.104685623498
 20
9.04
 10
-4.104685623498
 20
9.1
 10
-4.104685623498
 20
9.16
 10
-4.104685623498
 20
9.22
 10
-4.104685623498
 20
9.28
 10
-4.104685623498
 20
9.34
 10
-4.104685623498
 20
9.4
 10
-4.104685623498
 20
9.46
 10
-4.104685623498
 20
9.52
 10
-4.104685623498
 20
9.58
 10
-4.104685623498
 20
9.64
 10
-4.104685623498
 20
9.7
 10
-4.104685623498
 20
9.76
 10
-4.104685623498
 20
9.82
 10
-4.104685623498
 20
9.879999999999999
 10
-4.104685623498
 20
9.94
 10
-4.104685623498
 20
10.0
  0
LWPOLYLINE
  5
3A
330
17
100
AcDbEntity
  8
0
100
AcDbPolyline
 90
51
 70
0
 10
-14.43149623218999
 20
10.0
 10
-14.405470503434678
 20
10.0
 10
-14.379444774679365
 20
10.0
 10
-14.353419045924054
 20
10.0
 10
-14.32774098197042
 20
10.0
 10
-14.302526471085686
 20
10.0
 10
-14.277311960200954
 20
10.0
 10
-14.252097449316222
 20
10.0
 10
-14.227779153161812
 20
10.0
 10
-14.20361022612912
 20
10.0
 10
-14.179441299096428
 20
10.0
 10
-14.15563529527852
 20
10.0
 10
-14.13273659949757
 20
10.0
 10
-14.109837903716617
 20
10.0
 10
-14.086939207935666
 20
10.0
 10
-14.065099849296075
 20
10.0
 10
-14.043684225513031
 20
10.0
 10
-14.022268601729985
 20
10.0
 10
-14.001093281912691
 20
10.0
 10
-13.981359785889904
 20
10.0
 10
-13.961626289867118
 20
10.0
 10
-13.94189279384433
 20
10.0
 10
-13.923225325443466
 20
10.0
 10
-13.905357377759042
 20
10.0
 10
-13.88748943007462
 20
10.0
 10
-13.869621482390196
 20
10.0
 10
-13.85378516356479
 20
10.0
 10
-13.837948844739385
 20
10.0
 10
-13.822112525913978
 20
10.0
 10
-13.807209989498373
 20
10.0
 10
-13.793552496295833
 20
10.0
 10
-13.779895003093293
 20
10.0
 10
-13.766237509890754
 20
10.0
 10
-13.754556391362131
 20
10.0
 10
-13.743204668612494
 20
10.0
 10
-13.731852945862856
 20
10.0
 10
-13.721190161230798
 20
10.0
 10
-13.71224972189268
 20
10.0
 10
-13.703309282554565
 20
10.0
 10
-13.694368843216449
 20
10.0
 10
-13.687210106569681
 20
10.0
 10
-13.680764050999453
 20
10.0
 10
-13.674317995429226
 20
10.0
 10
-13.66823683973239
 20
10.0
 10
-13.664345083275908
 20
10.0
 10
-13.660453326819425
 20
10.0
 10
-13.656561570362943
 20
10.0
 10
-13.654150083930938
 20
10.0
 10
-13.652848800017292
 20
10.0
 10
-13.651547516103646
 20
10.0
 10
-13.65024623219
 20
10.0
  0
LWPOLYLINE
  5
3B
330
17
100
AcDbEntity
  8
0
100
AcDbPolyline
 90
51
 70
0
 10
-10.0
 20
10.0
 10
-9.990594483156684
 20
10.0
 10
-9.981188966313368
 20
10.0
 10
-9.971783449470053
 20
10.0
 10
-9.954343141785655
 20
10.0
 10
-9.926189779646485
 20
10.0
 10
-9.898036417507315
 20
10.0
 10
-9.869883055368145
 20
10.0
 10
-9.825822232111177
 20
10.0
 10
-9.779110165334579
 20
10.0
 10
-9.73239809855798
 20
10.0
 10
-9.680473208238206
 20
10.0
 10
-9.615516259060504
 20
10.0
 10
-9.5505593098828
 20
10.0
 10
-9.485602360705096
 20
10.0
 10
-9.40792506373047
 20
10.0
 10
-9.32515962763708
 20
10.0
 10
-9.242394191543687
 20
10.0
 10
-9.157164119738177
 20
10.0
 10
-9.057146233659967
 20
10.0
 10
-8.957128347581756
 20
10.0
 10
-8.857110461503547
 20
10.0
 10
-8.747617999887947
 20
10.0
 10
-8.631019606619306
 20
10.0
 10
-8.514421213350666
 20
10.0
 10
-8.397822820082025
 20
10.0
 10
-8.265427254017089
 20
10.0
 10
-8.133031687952156
 20
10.0
 10
-8.000636121887222
 20
10.0
 10
-7.8618515374993665
 20
10.0
 10
-7.714548262014286
 20
10.0
 10
-7.567244986529205
 20
10.0
 10
-7.419941711044122
 20
10.0
 10
-7.260708641834821
 20
10.0
 10
-7.099487273671486
 20
10.0
 10
-6.938265905508151
 20
10.0
 10
-6.773377402761999
 20
10.0
 10
-6.59932106355881
 20
10.0
 10
-6.425264724355622
 20
10.0
 10
-6.251208385152432
 20
10.0
 10
-6.068819459405501
 20
10.0
 10
-5.883097499041077
 20
10.0
 10
-5.69737553867665
 20
10.0
 10
-5.510165307026575
 20
10.0
 10
-5.314025447662612
 20
10.0
 10
-5.11788558829865
 20
10.0
 10
-4.921745728934691
 20
10.0
 10
-4.720405762693806
 20
10.0
 10
-4.515165716295235
 20
10.0
 10
-4.30992566989666
 20
10.0
 10
-4.104685623498084
 20
10.0
  0
LWPOLYLINE
  5
3C
330
17
100
AcDbEntity
  8
0
100
AcDbPolyline
 90
51
 70
0
 10
-47.0
 20
10.0
 10
-46.96566621937232
 20
10.0
 10
-46.93133243874463
 20
10.0
 10
-46.89699865811695
 20
10.0
 10
-46.833476495827206
 20
10.0
 10
-46.73103649132138
 20
10.0
 10
-46.62859648681557
 20
10.0
 10
-46.526156482309744
 20
10.0
 10
-46.36677528698683
 20
10.0
 10
-46.19790389319439
 20
10.0
 10
-46.029032499401964
 20
10.0
 10
-45.84196955130842
 20
10.0
 10
-45.609427717462125
 20
10.0
 10
-45.37688588361583
 20
10.0
 10
-45.14434404976952
 20
10.0
 10
-44.86903899013986
 20
10.0
 10
-44.57662864019686
 20
10.0
 10
-44.28421829025385
 20
10.0
 10
-43.98393825793024
 20
10.0
 10
-43.636440131323006
 20
10.0
 10
-43.28894200471577
 20
10.0
 10
-42.94144387810854
 20
10.0
 10
-42.56571353203262
 20
10.0
 10
-42.16880902135519
 20
10.0
 10
-41.77190451067776
 20
10.0
 10
-41.37500000000033
 20
10.0
 10
-40.93517826353829
 20
10.0
 10
-40.49535652707625
 20
10.0
 10
-40.05553479061421
 20
10.0
 10
-39.60040174167611
 20
10.0
 10
-39.12485360943659
 20
10.0
 10
-38.64930547719708
 20
10.0
 10
-38.173757344957565
 20
10.0
 10
-37.674250818480296
 20
10.0
 10
-37.170751226296744
 20
10.0
 10
-36.66725163411319
 20
10.0
 10
-36.15811788936659
 20
10.0
 10
-35.63489876321241
 20
10.0
 10
-35.11167963705823
 20
10.0
 10
-34.58846051090405
 20
10.0
 10
-34.057266238273414
 20
10.0
 10
-33.522881907052216
 20
10.0
 10
-32.988497575831005
 20
10.0
 10
-32.45376634010356
 20
10.0
 10
-31.916953677338686
 20
10.0
 10
-31.380141014573812
 20
10.0
 10
-30.843328351808925
 20
10.0
 10
-30.310143256924274
 20
10.0
 10
-29.779678837949785
 20
10.0
 10
-29.249214418975292
 20
10.0
 10
-28.7187500000008
 20
10.0
  0
LWPOLYLINE
  5
3D
330
17
100
AcDbEntity
  8
0
100
AcDbPolyline
 90
51
 70
0
 10
-8.0
 20
14.0
 10
-7.943838523287285
 20
14.0
 10
-7.88767704657457
 20
14.0
 10
-7.831515569861855
 20
14.0
 10
-7.728422614946361
 20
14.0
 10
-7.562754355760495
 20
14.0
 10
-7.397086096574628
 20
14.0
 10
-7.231417837388762
 20
14.0
 10
-6.979007163185327
 20
14.0
 10
-6.712139419812294
 20
14.0
 10
-6.445271676439262
 20
14.0
 10
-6.153313184154289
 20
14.0
 10
-5.798627819589465
 20
14.0
 10
-5.443942455024644
 20
14.0
 10
-5.089257090459817
 20
14.0
 10
-4.684548714483989
 20
14.0
 10
-4.2598311339437585
 20
14.0
 10
-3.835113553403522
 20
14.0
 10
-3.4034338152888695
 20
14.0
 10
-2.9299811317276796
 20
14.0
 10
-2.4565284481664964
 20
14.0
 10
-1.983075764605313
 20
14.0
 10
-1.4953406761864327
 20
14.0
 10
-0.9968937841242913
 20
14.0
 10
-0.49844689206214277
 20
14.0
 10
-1.4695761589768238e-15
 20
14.0
 10
0.49844689206214005
 20
14.0
 10
0.9968937841242886
 20
14.0
 10
1.4953406761864299
 20
14.0
 10
1.9830757646053105
 20
14.0
 10
2.4565284481664937
 20
14.0
 10
2.929981131727677
 20
14.0
 10
3.403433815288867
 20
14.0
 10
3.8351135534035254
 20
14.0
 10
4.259831133943756
 20
14.0
 10
4.684548714483986
 20
14.0
 10
5.089257090459815
 20
14.0
 10
5.443942455024642
 20
14.0
 10
5.798627819589463
 20
14.0
 10
6.15331318415429
 20
14.0
 10
6.44527167643926
 20
14.0
 10
6.712139419812291
 20
14.0
 10
6.979007163185326
 20
14.0
 10
7.231417837388761
 20
14.0
 10
7.397086096574629
 20
14.0
 10
7.562754355760494
 20
14.0
 10
7.728422614946359
 20
14.0
 10
7.831515569861854
 20
14.0
 10
7.887677046574569
 20
14.0
 10
7.943838523287285
 20
14.0
 10
8.0
 20
14.0
  0
LWPOLYLINE
  5
3E
330
17
100
AcDbEntity
  8
0
100
AcDbPolyline
 90
51
 70
0
 10
8.0
 20
14.0
 10
8.0
 20
13.719999999999999
 10
8.0
 20
13.44
 10
8.0
 20
13.16
 10
8.0
 20
12.879999999999999
 10
8.0
 20
12.6
 10
8.0
 20
12.32
 10
8.0
 20
12.04
 10
8.0
 20
11.76
 10
8.0
 20
11.48
 10
8.0
 20
11.2
 10
8.0
 20
10.92
 10
8.0
 20
10.64
 10
8.0
 20
10.36
 10
8.0
 20
10.08
 10
8.0
 20
9.8
 10
8.0
 20
9.52
 10
8.0
 20
9.24
 10
8.0
 20
8.96
 10
8.0
 20
8.68
 10
8.0
 20
8.4
 10
8.0
 20
8.120000000000001
 10
8.0
 20
7.84
 10
8.0
 20
7.56
 10
8.0
 20
7.28
 10
8.0
 20
7.0
 10
8.0
 20
6.72
 10
8.0
 20
6.44
 10
8.0
 20
6.16
 10
8.0
 20
5.880000000000001
 10
8.0
 20
5.6
 10
8.0
 20
5.32
 10
8.0
 20
5.039999999999999
 10
8.0
 20
4.76
 10
8.0
 20
4.48
 10
8.0
 20
4.199999999999999
 10
8.0
 20
3.92
 10
8.0
 20
3.6400000000000006
 10
8.0
 20
3.3599999999999994
 10
8.0
 20
3.08
 10
8.0
 20
2.8000000000000007
 10
8.0
 20
2.5199999999999996
 10
8.0
 20
2.24
 10
8.0
 20
1.9600000000000009
 10
8.0
 20
1.6799999999999997
 10
8.0
 20
1.4000000000000004
 10
8.0
 20
1.1199999999999992
 10
8.0
 20
0.8399999999999999
 10
8.0
 20
0.5600000000000005
 10
8.0
 20
0.27999999999999936
 10
8.0
 20
0.0
  0
ENDSEC
  0
SECTION
  2
OBJECTS
  0
DICTIONARY
  5
A
330
0
100
AcDbDictionary
280
0
281
1
  3
ACAD_COLOR
350
B
  3
ACAD_GROUP
350
C
  3
ACAD_LAYOUT
350
D
  3
ACAD_MATERIAL
350
E
  3
ACAD_MLEADERSTYLE
350
F
  3
ACAD_MLINESTYLE
350
10
  3
ACAD_PLOTSETTINGS
350
11
  3
ACAD_PLOTSTYLENAME
350
12
  3
ACAD_SCALELIST
350
14
  3
ACAD_TABLESTYLE
350
15
  3
ACAD_VISUALSTYLE
350
16
  3
EZDXF_META
350
2D
  0
DICTIONARY
  5
B
330
A
100
AcDbDictionary
280
0
281
1
  0
DICTIONARY
  5
C
330
A
100
AcDbDictionary
280
0
281
1
  0
DICTIONARY
  5
D
330
A
100
AcDbDictionary
280
0
281
1
  3
Model
350
1A
  3
Layout1
350
1E
  0
DICTIONARY
  5
E
330
A
100
AcDbDictionary
280
0
281
1
  3
ByBlock
350
1F
  3
ByLayer
350
20
  3
Global
350
21
  0
DICTIONARY
  5
F
330
A
100
AcDbDictionary
280
0
281
1
  3
Standard
350
2C
  0
DICTIONARY
  5
10
330
A
100
AcDbDictionary
280
0
281
1
  3
Standard
350
22
  0
DICTIONARY
  5
11
330
A
100
AcDbDictionary
280
0
281
1
  0
ACDBDICTIONARYWDFLT
  5
12
330
A
100
AcDbDictionary
280
0
281
1
  3
Normal
350
13
100
AcDbDictionaryWithDefault
340
13
  0
ACDBPLACEHOLDER
  5
13
330
12
  0
DICTIONARY
  5
14
330
A
100
AcDbDictionary
280
0
281
1
  0
DICTIONARY
  5
15
330
A
100
AcDbDictionary
280
0
281
1
  0
DICTIONARY
  5
16
330
A
100
AcDbDictionary
280
0
281
1
  0
LAYOUT
  5
1A
330
D
100
AcDbPlotSettings
  1

  2
Adobe PDF
  4
A3
  6

 40
7.5
 41
20.0
 42
7.5
 43
20.0
 44
420.0
 45
297.0
 46
0.0
 47
0.0
 48
0.0
 49
0.0
140
0.0
141
0.0
142
1.0
143
1.0
 70
1024
 72
1
 73
0
 74
5
  7

 75
16
 76
0
 77
2
 78
300
147
1.0
148
0.0
149
0.0
100
AcDbLayout
  1
Model
 70
1
 71
0
 10
0.0
 20
0.0
 11
420.0
 21
297.0
 12
0.0
 22
0.0
 32
0.0
 14
1e+20
 24
1e+20
 34
1e+20
 15
-1e+20
 25
-1e+20
 35
-1e+20
146
0.0
 13
0.0
 23
0.0
 33
0.0
 16
1.0
 26
0.0
 36
0.0
 17
0.0
 27
1.0
 37
0.0
 76
1
330
17
  0
LAYOUT
  5
1E
330
D
100
AcDbPlotSettings
  1

  2
Adobe PDF
  4
A3
  6

 40
7.5
 41
20.0
 42
7.5
 43
20.0
 44
420.0
 45
297.0
 46
0.0
 47
0.0
 48
0.0
 49
0.0
140
0.0
141
0.0
142
1.0
143
1.0
 70
0
 72
1
 73
0
 74
5
  7

 75
16
 76
0
 77
2
 78
300
147
1.0
148
0.0
149
0.0
100
AcDbLayout
  1
Layout1
 70
1
 71
1
 10
0.0
 20
0.0
 11
420.0
 21
297.0
 12
0.0
 22
0.0
 32
0.0
 14
1e+20
 24
1e+20
 34
1e+20
 15
-1e+20
 25
-1e+20
 35
-1e+20
146
0.0
 13
0.0
 23
0.0
 33
0.0
 16
1.0
 26
0.0
 36
0.0
 17
0.0
 27
1.0
 37
0.0
 76
1
330
1B
  0
MATERIAL
  5
1F
102
{ACAD_REACTORS
330
E
102
}
330
E
100
AcDbMaterial
  1
ByBlock
  2

 70
0
 40
1.0
 71
1
 41
1.0
 91
-1023410177
 42
1.0
 72
1
  3

 73
1
 74
1
 75
1
 44
0.5
 73
0
 45
1.0
 46
1.0
 77
1
  4

 78
1
 79
1
170
1
 48
1.0
171
1
  6

172
1
173
1
174
1
140
1.0
141
1.0
175
1
  7

176
1
177
1
178
1
143
1.0
179
1
  8

270
1
271
1
272
1
145
1.0
146
1.0
273
1
  9

274
1
275
1
276
1
 42
1.0
 72
1
  3

 73
1
 74
1
 75
1
 94
63
  0
MATERIAL
  5
20
102
{ACAD_REACTORS
330
E
102
}
330
E
100
AcDbMaterial
  1
ByLayer
  2

 70
0
 40
1.0
 71
1
 41
1.0
 91
-1023410177
 42
1.0
 72
1
  3

 73
1
 74
1
 75
1
 44
0.5
 73
0
 45
1.0
 46
1.0
 77
1
  4

 78
1
 79
1
170
1
 48
1.0
171
1
  6

172
1
173
1
174
1
140
1.0
141
1.0
175
1
  7

176
1
177
1
178
1
143
1.0
179
1
  8

270
1
271
1
272
1
145
1.0
146
1.0
273
1
  9

274
1
275
1
276
1
 42
1.0
 72
1
  3

 73
1
 74
1
 75
1
 94
63
  0
MATERIAL
  5
21
102
{ACAD_REACTORS
330
E
102
}
330
E
100
AcDbMaterial
  1
Global
  2

 70
0
 40
1.0
 71
1
 41
1.0
 91
-1023410177
 42
1.0
 72
1
  3

 73
1
 74
1
 75
1
 44
0.5
 73
0
 45
1.0
 46
1.0
 77
1
  4

 78
1
 79
1
170
1
 48
1.0
171
1
  6

172
1
173
1
174
1
140
1.0
141
1.0
175
1
  7

176
1
177
1
178
1
143
1.0
179
1
  8

270
1
271
1
272
1
145
1.0
146
1.0
273
1
  9

274
1
275
1
276
1
 42
1.0
 72
1
  3

 73
1
 74
1
 75
1
 94
63
  0
MLINESTYLE
  5
22
102
{ACAD_REACTORS
330
10
102
}
330
10
100
AcDbMlineStyle
  2
Standard
 70
0
  3

 62
256
 51
90.0
 52
90.0
 71
2
 49
0.5
 62
256
  6
BYLAYER
 49
-0.5
 62
256
  6
BYLAYER
  0
MLEADERSTYLE
  5
2C
102
{ACAD_REACTORS
330
F
102
}
330
F
100
AcDbMLeaderStyle
179
2
170
2
171
1
172
0
 90
2
 40
0.0
 41
0.0
173
1
 91
-1056964608
 92
-2
290
1
 42
2.0
291
1
 43
8.0
  3
Standard
 44
4.0
300

342
29
174
1
175
1
176
0
178
1
 93
-1056964608
 45
4.0
292
0
297
0
 46
4.0
 94
-1056964608
 47
1.0
 49
1.0
140
1.0
294
1
141
0.0
177
0
142
1.0
295
0
296
0
143
3.75
271
0
272
9
273
9
  0
DICTIONARY
  5
2D
330
A
100
AcDbDictionary
281
1
  3
CREATED_BY_EZDXF
350
2E
  3
WRITTEN_BY_EZDXF
350
41
  0
DICTIONARYVAR
  5
2E
330
2D
100
DictionaryVariables
280
0
  1
1.0.3 @ 2025-05-29T09:41:26.106388+00:00
  0
DICTIONARYVAR
  5
41
330
2D
100
DictionaryVariables
280
0
  1
1.0.3 @ 2025-05-29T09:41:26.110381+00:00
  0
ENDSEC
  0
EOF
