  0
SECTION
  2
HEADER
  9
$ACADVER
  1
AC1027
  9
$ACADMAINTVER
 70
105
  9
$DWGCODEPAGE
  3
ANSI_1252
  9
$LASTSAVEDBY
  1
ezdxf
  9
$REQUIREDVERSIONS
160
0
  9
$INSBASE
 10
0.0
 20
0.0
 30
0.0
  9
$EXTMIN
 10
1e+20
 20
1e+20
 30
1e+20
  9
$EXTMAX
 10
-1e+20
 20
-1e+20
 30
-1e+20
  9
$LIMMIN
 10
0.0
 20
0.0
  9
$LIMMAX
 10
420.0
 20
297.0
  9
$ORTHOMODE
 70
0
  9
$REGENMODE
 70
1
  9
$FILLMODE
 70
1
  9
$QTEXTMODE
 70
0
  9
$MIRRTEXT
 70
1
  9
$LTSCALE
 40
1.0
  9
$ATTMODE
 70
1
  9
$TEXTSIZE
 40
2.5
  9
$TRACEWID
 40
1.0
  9
$TEXTSTYLE
  7
Standard
  9
$CLAYER
  8
0
  9
$CELTYPE
  6
ByLayer
  9
$CECOLOR
 62
256
  9
$CELTSCALE
 40
1.0
  9
$DISPSILH
 70
0
  9
$DIMSCALE
 40
1.0
  9
$DIMASZ
 40
2.5
  9
$DIMEXO
 40
0.625
  9
$DIMDLI
 40
3.75
  9
$DIMRND
 40
0.0
  9
$DIMDLE
 40
0.0
  9
$DIMEXE
 40
1.25
  9
$DIMTP
 40
0.0
  9
$DIMTM
 40
0.0
  9
$DIMTXT
 40
2.5
  9
$DIMCEN
 40
2.5
  9
$DIMTSZ
 40
0.0
  9
$DIMTOL
 70
0
  9
$DIMLIM
 70
0
  9
$DIMTIH
 70
0
  9
$DIMTOH
 70
0
  9
$DIMSE1
 70
0
  9
$DIMSE2
 70
0
  9
$DIMTAD
 70
1
  9
$DIMZIN
 70
8
  9
$DIMBLK
  1

  9
$DIMASO
 70
1
  9
$DIMSHO
 70
1
  9
$DIMPOST
  1

  9
$DIMAPOST
  1

  9
$DIMALT
 70
0
  9
$DIMALTD
 70
3
  9
$DIMALTF
 40
0.03937007874
  9
$DIMLFAC
 40
1.0
  9
$DIMTOFL
 70
1
  9
$DIMTVP
 40
0.0
  9
$DIMTIX
 70
0
  9
$DIMSOXD
 70
0
  9
$DIMSAH
 70
0
  9
$DIMBLK1
  1

  9
$DIMBLK2
  1

  9
$DIMSTYLE
  2
ISO-25
  9
$DIMCLRD
 70
0
  9
$DIMCLRE
 70
0
  9
$DIMCLRT
 70
0
  9
$DIMTFAC
 40
1.0
  9
$DIMGAP
 40
0.625
  9
$DIMJUST
 70
0
  9
$DIMSD1
 70
0
  9
$DIMSD2
 70
0
  9
$DIMTOLJ
 70
0
  9
$DIMTZIN
 70
8
  9
$DIMALTZ
 70
0
  9
$DIMALTTZ
 70
0
  9
$DIMUPT
 70
0
  9
$DIMDEC
 70
2
  9
$DIMTDEC
 70
2
  9
$DIMALTU
 70
2
  9
$DIMALTTD
 70
3
  9
$DIMTXSTY
  7
Standard
  9
$DIMAUNIT
 70
0
  9
$DIMADEC
 70
0
  9
$DIMALTRND
 40
0.0
  9
$DIMAZIN
 70
0
  9
$DIMDSEP
 70
44
  9
$DIMATFIT
 70
3
  9
$DIMFRAC
 70
0
  9
$DIMLDRBLK
  1

  9
$DIMLUNIT
 70
2
  9
$DIMLWD
 70
-2
  9
$DIMLWE
 70
-2
  9
$DIMTMOVE
 70
0
  9
$DIMFXL
 40
1.0
  9
$DIMFXLON
 70
0
  9
$DIMJOGANG
 40
0.785398163397
  9
$DIMTFILL
 70
0
  9
$DIMTFILLCLR
 70
0
  9
$DIMARCSYM
 70
0
  9
$DIMLTYPE
  6

  9
$DIMLTEX1
  6

  9
$DIMLTEX2
  6

  9
$DIMTXTDIRECTION
 70
0
  9
$LUNITS
 70
2
  9
$LUPREC
 70
4
  9
$SKETCHINC
 40
1.0
  9
$FILLETRAD
 40
10.0
  9
$AUNITS
 70
0
  9
$AUPREC
 70
2
  9
$MENU
  1
.
  9
$ELEVATION
 40
0.0
  9
$PELEVATION
 40
0.0
  9
$THICKNESS
 40
0.0
  9
$LIMCHECK
 70
0
  9
$CHAMFERA
 40
0.0
  9
$CHAMFERB
 40
0.0
  9
$CHAMFERC
 40
0.0
  9
$CHAMFERD
 40
0.0
  9
$SKPOLY
 70
0
  9
$TDCREATE
 40
2460825.778773148
  9
$TDUCREATE
 40
2458532.153996898
  9
$TDUPDATE
 40
2460825.778773148
  9
$TDUUPDATE
 40
2458532.1544311
  9
$TDINDWG
 40
0.0
  9
$TDUSRTIMER
 40
0.0
  9
$USRTIMER
 70
1
  9
$ANGBASE
 50
0.0
  9
$ANGDIR
 70
0
  9
$PDMODE
 70
0
  9
$PDSIZE
 40
0.0
  9
$PLINEWID
 40
0.0
  9
$SPLFRAME
 70
0
  9
$SPLINETYPE
 70
6
  9
$SPLINESEGS
 70
8
  9
$HANDSEED
  5
4E
  9
$SURFTAB1
 70
6
  9
$SURFTAB2
 70
6
  9
$SURFTYPE
 70
6
  9
$SURFU
 70
6
  9
$SURFV
 70
6
  9
$UCSBASE
  2

  9
$UCSNAME
  2

  9
$UCSORG
 10
0.0
 20
0.0
 30
0.0
  9
$UCSXDIR
 10
1.0
 20
0.0
 30
0.0
  9
$UCSYDIR
 10
0.0
 20
1.0
 30
0.0
  9
$UCSORTHOREF
  2

  9
$UCSORTHOVIEW
 70
0
  9
$UCSORGTOP
 10
0.0
 20
0.0
 30
0.0
  9
$UCSORGBOTTOM
 10
0.0
 20
0.0
 30
0.0
  9
$UCSORGLEFT
 10
0.0
 20
0.0
 30
0.0
  9
$UCSORGRIGHT
 10
0.0
 20
0.0
 30
0.0
  9
$UCSORGFRONT
 10
0.0
 20
0.0
 30
0.0
  9
$UCSORGBACK
 10
0.0
 20
0.0
 30
0.0
  9
$PUCSBASE
  2

  9
$PUCSNAME
  2

  9
$PUCSORG
 10
0.0
 20
0.0
 30
0.0
  9
$PUCSXDIR
 10
1.0
 20
0.0
 30
0.0
  9
$PUCSYDIR
 10
0.0
 20
1.0
 30
0.0
  9
$PUCSORTHOREF
  2

  9
$PUCSORTHOVIEW
 70
0
  9
$PUCSORGTOP
 10
0.0
 20
0.0
 30
0.0
  9
$PUCSORGBOTTOM
 10
0.0
 20
0.0
 30
0.0
  9
$PUCSORGLEFT
 10
0.0
 20
0.0
 30
0.0
  9
$PUCSORGRIGHT
 10
0.0
 20
0.0
 30
0.0
  9
$PUCSORGFRONT
 10
0.0
 20
0.0
 30
0.0
  9
$PUCSORGBACK
 10
0.0
 20
0.0
 30
0.0
  9
$USERI1
 70
0
  9
$USERI2
 70
0
  9
$USERI3
 70
0
  9
$USERI4
 70
0
  9
$USERI5
 70
0
  9
$USERR1
 40
0.0
  9
$USERR2
 40
0.0
  9
$USERR3
 40
0.0
  9
$USERR4
 40
0.0
  9
$USERR5
 40
0.0
  9
$WORLDVIEW
 70
1
  9
$SHADEDGE
 70
3
  9
$SHADEDIF
 70
70
  9
$TILEMODE
 70
1
  9
$MAXACTVP
 70
64
  9
$PINSBASE
 10
0.0
 20
0.0
 30
0.0
  9
$PLIMCHECK
 70
0
  9
$PEXTMIN
 10
1e+20
 20
1e+20
 30
1e+20
  9
$PEXTMAX
 10
-1e+20
 20
-1e+20
 30
-1e+20
  9
$PLIMMIN
 10
0.0
 20
0.0
  9
$PLIMMAX
 10
420.0
 20
297.0
  9
$UNITMODE
 70
0
  9
$VISRETAIN
 70
1
  9
$PLINEGEN
 70
0
  9
$PSLTSCALE
 70
1
  9
$TREEDEPTH
 70
3020
  9
$CMLSTYLE
  2
Standard
  9
$CMLJUST
 70
0
  9
$CMLSCALE
 40
20.0
  9
$PROXYGRAPHICS
 70
1
  9
$MEASUREMENT
 70
1
  9
$CELWEIGHT
370
-1
  9
$ENDCAPS
280
0
  9
$JOINSTYLE
280
0
  9
$LWDISPLAY
290
0
  9
$INSUNITS
 70
6
  9
$HYPERLINKBASE
  1

  9
$STYLESHEET
  1

  9
$XEDIT
290
1
  9
$CEPSNTYPE
380
0
  9
$PSTYLEMODE
290
1
  9
$FINGERPRINTGUID
  2
{3BEA1A60-4ECD-432A-A6B9-22BC1013DD5B}
  9
$VERSIONGUID
  2
{60E1E1DD-F3FD-4585-845F-C8B02BFB421A}
  9
$EXTNAMES
290
1
  9
$PSVPSCALE
 40
0.0
  9
$OLESTARTUP
290
0
  9
$SORTENTS
280
127
  9
$INDEXCTL
280
0
  9
$HIDETEXT
280
1
  9
$XCLIPFRAME
280
0
  9
$HALOGAP
280
0
  9
$OBSCOLOR
 70
257
  9
$OBSLTYPE
280
0
  9
$INTERSECTIONDISPLAY
280
0
  9
$INTERSECTIONCOLOR
 70
257
  9
$DIMASSOC
280
2
  9
$PROJECTNAME
  1

  9
$CAMERADISPLAY
290
0
  9
$LENSLENGTH
 40
50.0
  9
$CAMERAHEIGHT
 40
0.0
  9
$STEPSPERSEC
 40
24.0
  9
$STEPSIZE
 40
100.0
  9
$3DDWFPREC
 40
2.0
  9
$PSOLWIDTH
 40
0.005
  9
$PSOLHEIGHT
 40
0.08
  9
$LOFTANG1
 40
1.570796326795
  9
$LOFTANG2
 40
1.570796326795
  9
$LOFTMAG1
 40
0.0
  9
$LOFTMAG2
 40
0.0
  9
$LOFTPARAM
 70
7
  9
$LOFTNORMALS
280
1
  9
$LATITUDE
 40
37.795
  9
$LONGITUDE
 40
-122.394
  9
$NORTHDIRECTION
 40
0.0
  9
$TIMEZONE
 70
-8000
  9
$LIGHTGLYPHDISPLAY
280
1
  9
$TILEMODELIGHTSYNCH
280
1
  9
$CMATERIAL
347
20
  9
$SOLIDHIST
280
0
  9
$SHOWHIST
280
1
  9
$DWFFRAME
280
2
  9
$DGNFRAME
280
2
  9
$REALWORLDSCALE
290
1
  9
$INTERFERECOLOR
 62
256
  9
$CSHADOW
280
0
  9
$SHADOWPLANELOCATION
 40
0.0
  0
ENDSEC
  0
SECTION
  2
CLASSES
  0
CLASS
  1
ACDBDICTIONARYWDFLT
  2
AcDbDictionaryWithDefault
  3
ObjectDBX Classes
 90
0
 91
0
280
0
281
0
  0
CLASS
  1
SUN
  2
AcDbSun
  3
SCENEOE
 90
1153
 91
0
280
0
281
0
  0
CLASS
  1
VISUALSTYLE
  2
AcDbVisualStyle
  3
ObjectDBX Classes
 90
4095
 91
0
280
0
281
0
  0
CLASS
  1
MATERIAL
  2
AcDbMaterial
  3
ObjectDBX Classes
 90
1153
 91
0
280
0
281
0
  0
CLASS
  1
SCALE
  2
AcDbScale
  3
ObjectDBX Classes
 90
1153
 91
0
280
0
281
0
  0
CLASS
  1
TABLESTYLE
  2
AcDbTableStyle
  3
ObjectDBX Classes
 90
4095
 91
0
280
0
281
0
  0
CLASS
  1
MLEADERSTYLE
  2
AcDbMLeaderStyle
  3
ACDB_MLEADERSTYLE_CLASS
 90
4095
 91
0
280
0
281
0
  0
CLASS
  1
DICTIONARYVAR
  2
AcDbDictionaryVar
  3
ObjectDBX Classes
 90
0
 91
0
280
0
281
0
  0
CLASS
  1
CELLSTYLEMAP
  2
AcDbCellStyleMap
  3
ObjectDBX Classes
 90
1152
 91
0
280
0
281
0
  0
CLASS
  1
MENTALRAYRENDERSETTINGS
  2
AcDbMentalRayRenderSettings
  3
SCENEOE
 90
1024
 91
0
280
0
281
0
  0
CLASS
  1
ACDBDETAILVIEWSTYLE
  2
AcDbDetailViewStyle
  3
ObjectDBX Classes
 90
1025
 91
0
280
0
281
0
  0
CLASS
  1
ACDBSECTIONVIEWSTYLE
  2
AcDbSectionViewStyle
  3
ObjectDBX Classes
 90
1025
 91
0
280
0
281
0
  0
CLASS
  1
RASTERVARIABLES
  2
AcDbRasterVariables
  3
ISM
 90
0
 91
0
280
0
281
0
  0
CLASS
  1
LAYOUT
  2
AcDbLayout
  3
ObjectDBX Classes
 90
0
 91
0
280
0
281
0
  0
CLASS
  1
ACDBPLACEHOLDER
  2
AcDbPlaceHolder
  3
ObjectDBX Classes
 90
0
 91
0
280
0
281
0
  0
ENDSEC
  0
SECTION
  2
TABLES
  0
TABLE
  2
VPORT
  5
8
330
0
100
AcDbSymbolTable
 70
1
  0
VPORT
  5
23
330
8
100
AcDbSymbolTableRecord
100
AcDbViewportTableRecord
  2
*Active
 70
0
 10
0.0
 20
0.0
 11
1.0
 21
1.0
 12
0.0
 22
0.0
 13
0.0
 23
0.0
 14
0.5
 24
0.5
 15
0.5
 25
0.5
 16
0.0
 26
0.0
 36
1.0
 17
0.0
 27
0.0
 37
0.0
 40
1000.0
 41
1.34
 42
50.0
 43
0.0
 44
0.0
 50
0.0
 51
0.0
 71
0
 72
1000
 73
1
 74
3
 75
0
 76
0
 77
0
 78
0
281
0
 65
0
146
0.0
  0
ENDTAB
  0
TABLE
  2
LTYPE
  5
2
330
0
100
AcDbSymbolTable
 70
3
  0
LTYPE
  5
24
330
2
100
AcDbSymbolTableRecord
100
AcDbLinetypeTableRecord
  2
ByBlock
 70
0
  3

 72
65
 73
0
 40
0.0
  0
LTYPE
  5
25
330
2
100
AcDbSymbolTableRecord
100
AcDbLinetypeTableRecord
  2
ByLayer
 70
0
  3

 72
65
 73
0
 40
0.0
  0
LTYPE
  5
26
330
2
100
AcDbSymbolTableRecord
100
AcDbLinetypeTableRecord
  2
Continuous
 70
0
  3

 72
65
 73
0
 40
0.0
  0
ENDTAB
  0
TABLE
  2
LAYER
  5
1
330
0
100
AcDbSymbolTable
 70
2
  0
LAYER
  5
27
330
1
100
AcDbSymbolTableRecord
100
AcDbLayerTableRecord
  2
0
 70
0
 62
7
  6
Continuous
370
-3
390
13
347
21
  0
LAYER
  5
28
330
1
100
AcDbSymbolTableRecord
100
AcDbLayerTableRecord
  2
Defpoints
 70
0
 62
7
  6
Continuous
290
0
370
-3
390
13
347
21
  0
ENDTAB
  0
TABLE
  2
STYLE
  5
5
330
0
100
AcDbSymbolTable
 70
1
  0
STYLE
  5
29
330
5
100
AcDbSymbolTableRecord
100
AcDbTextStyleTableRecord
  2
Standard
 70
0
 40
0.0
 41
1.0
 50
0.0
 71
0
 42
2.5
  3
txt
  4

  0
ENDTAB
  0
TABLE
  2
VIEW
  5
7
330
0
100
AcDbSymbolTable
 70
0
  0
ENDTAB
  0
TABLE
  2
UCS
  5
6
330
0
100
AcDbSymbolTable
 70
0
  0
ENDTAB
  0
TABLE
  2
APPID
  5
3
330
0
100
AcDbSymbolTable
 70
3
  0
APPID
  5
2A
330
3
100
AcDbSymbolTableRecord
100
AcDbRegAppTableRecord
  2
ACAD
 70
0
  0
APPID
  5
4B
330
3
100
AcDbSymbolTableRecord
100
AcDbRegAppTableRecord
  2
HATCHBACKGROUNDCOLOR
 70
0
  0
APPID
  5
4C
330
3
100
AcDbSymbolTableRecord
100
AcDbRegAppTableRecord
  2
EZDXF
 70
0
  0
ENDTAB
  0
TABLE
  2
DIMSTYLE
  5
4
330
0
100
AcDbSymbolTable
 70
1
100
AcDbDimStyleTable
  0
DIMSTYLE
105
2B
330
4
100
AcDbSymbolTableRecord
100
AcDbDimStyleTableRecord
  2
Standard
 70
0
 40
1.0
 41
2.5
 42
0.625
 43
3.75
 44
1.25
 45
0.0
 46
0.0
 47
0.0
 48
0.0
 49
2.5
140
2.5
141
2.5
142
0.0
143
0.03937007874
144
1.0
145
0.0
146
1.0
147
0.625
148
0.0
 69
0
 70
0
 71
0
 72
0
 73
0
 74
0
 75
0
 76
0
 77
1
 78
8
 79
3
170
0
171
3
172
1
173
0
174
0
175
0
176
0
177
0
178
0
179
2
271
2
272
2
273
2
274
3
275
0
276
0
277
2
278
44
279
0
280
0
281
0
282
0
283
0
284
8
285
0
286
0
288
0
289
3
290
0
371
-2
372
-2
  0
ENDTAB
  0
TABLE
  2
BLOCK_RECORD
  5
9
330
0
100
AcDbSymbolTable
 70
2
  0
BLOCK_RECORD
  5
17
330
9
100
AcDbSymbolTableRecord
100
AcDbBlockTableRecord
  2
*Model_Space
340
1A
 70
0
280
1
281
0
  0
BLOCK_RECORD
  5
1B
330
9
100
AcDbSymbolTableRecord
100
AcDbBlockTableRecord
  2
*Paper_Space
340
1E
 70
0
280
1
281
0
  0
ENDTAB
  0
ENDSEC
  0
SECTION
  2
BLOCKS
  0
BLOCK
  5
18
330
17
100
AcDbEntity
  8
0
100
AcDbBlockBegin
  2
*Model_Space
 70
0
 10
0.0
 20
0.0
 30
0.0
  3
*Model_Space
  1

  0
ENDBLK
  5
19
330
17
100
AcDbEntity
  8
0
100
AcDbBlockEnd
  0
BLOCK
  5
1C
330
1B
100
AcDbEntity
  8
0
100
AcDbBlockBegin
  2
*Paper_Space
 70
0
 10
0.0
 20
0.0
 30
0.0
  3
*Paper_Space
  1

  0
ENDBLK
  5
1D
330
1B
100
AcDbEntity
  8
0
100
AcDbBlockEnd
  0
ENDSEC
  0
SECTION
  2
ENTITIES
  0
LWPOLYLINE
  5
2F
330
17
100
AcDbEntity
  8
0
100
AcDbPolyline
 90
51
 70
0
 10
-8.0
 20
-10.0
 10
-8.0
 20
-10.08
 10
-8.0
 20
-10.16
 10
-8.0
 20
-10.24
 10
-8.0
 20
-10.32
 10
-8.0
 20
-10.4
 10
-8.0
 20
-10.48
 10
-8.0
 20
-10.56
 10
-8.0
 20
-10.64
 10
-8.0
 20
-10.72
 10
-8.0
 20
-10.8
 10
-8.0
 20
-10.88
 10
-8.0
 20
-10.96
 10
-8.0
 20
-11.04
 10
-8.0
 20
-11.120000000000001
 10
-8.0
 20
-11.2
 10
-8.0
 20
-11.28
 10
-8.0
 20
-11.36
 10
-8.0
 20
-11.44
 10
-8.0
 20
-11.52
 10
-8.0
 20
-11.6
 10
-8.0
 20
-11.68
 10
-8.0
 20
-11.76
 10
-8.0
 20
-11.84
 10
-8.0
 20
-11.92
 10
-8.0
 20
-12.0
 10
-8.0
 20
-12.08
 10
-8.0
 20
-12.16
 10
-8.0
 20
-12.24
 10
-8.0
 20
-12.32
 10
-8.0
 20
-12.4
 10
-8.0
 20
-12.48
 10
-8.0
 20
-12.56
 10
-8.0
 20
-12.64
 10
-8.0
 20
-12.72
 10
-8.0
 20
-12.8
 10
-8.0
 20
-12.879999999999999
 10
-8.0
 20
-12.96
 10
-8.0
 20
-13.04
 10
-8.0
 20
-13.120000000000001
 10
-8.0
 20
-13.2
 10
-8.0
 20
-13.28
 10
-8.0
 20
-13.36
 10
-8.0
 20
-13.44
 10
-8.0
 20
-13.52
 10
-8.0
 20
-13.6
 10
-8.0
 20
-13.68
 10
-8.0
 20
-13.76
 10
-8.0
 20
-13.84
 10
-8.0
 20
-13.92
 10
-8.0
 20
-14.0
  0
LWPOLYLINE
  5
30
330
17
100
AcDbEntity
  8
0
100
AcDbPolyline
 90
51
 70
0
 10
8.0
 20
-10.0
 10
8.0
 20
-10.08
 10
8.0
 20
-10.16
 10
8.0
 20
-10.24
 10
8.0
 20
-10.32
 10
8.0
 20
-10.4
 10
8.0
 20
-10.48
 10
8.0
 20
-10.56
 10
8.0
 20
-10.64
 10
8.0
 20
-10.72
 10
8.0
 20
-10.8
 10
8.0
 20
-10.88
 10
8.0
 20
-10.96
 10
8.0
 20
-11.04
 10
8.0
 20
-11.120000000000001
 10
8.0
 20
-11.2
 10
8.0
 20
-11.28
 10
8.0
 20
-11.36
 10
8.0
 20
-11.44
 10
8.0
 20
-11.52
 10
8.0
 20
-11.6
 10
8.0
 20
-11.68
 10
8.0
 20
-11.76
 10
8.0
 20
-11.84
 10
8.0
 20
-11.92
 10
8.0
 20
-12.0
 10
8.0
 20
-12.08
 10
8.0
 20
-12.16
 10
8.0
 20
-12.24
 10
8.0
 20
-12.32
 10
8.0
 20
-12.4
 10
8.0
 20
-12.48
 10
8.0
 20
-12.56
 10
8.0
 20
-12.64
 10
8.0
 20
-12.72
 10
8.0
 20
-12.8
 10
8.0
 20
-12.879999999999999
 10
8.0
 20
-12.96
 10
8.0
 20
-13.04
 10
8.0
 20
-13.120000000000001
 10
8.0
 20
-13.2
 10
8.0
 20
-13.28
 10
8.0
 20
-13.36
 10
8.0
 20
-13.44
 10
8.0
 20
-13.52
 10
8.0
 20
-13.6
 10
8.0
 20
-13.68
 10
8.0
 20
-13.76
 10
8.0
 20
-13.84
 10
8.0
 20
-13.92
 10
8.0
 20
-14.0
  0
LWPOLYLINE
  5
31
330
17
100
AcDbEntity
  8
0
100
AcDbPolyline
 90
51
 70
0
 10
-15.0
 20
0.0
 10
-15.0
 20
-0.2
 10
-15.0
 20
-0.4
 10
-15.0
 20
-0.6
 10
-15.0
 20
-0.8
 10
-15.0
 20
-1.0
 10
-15.0
 20
-1.2
 10
-15.0
 20
-1.4
 10
-15.0
 20
-1.6
 10
-15.0
 20
-1.8
 10
-15.0
 20
-2.0
 10
-15.0
 20
-2.2
 10
-15.0
 20
-2.4
 10
-15.0
 20
-2.6
 10
-15.0
 20
-2.8
 10
-15.0
 20
-3.0
 10
-15.0
 20
-3.2
 10
-15.0
 20
-3.4
 10
-15.0
 20
-3.6
 10
-15.0
 20
-3.8
 10
-15.0
 20
-4.0
 10
-15.0
 20
-4.2
 10
-15.0
 20
-4.4
 10
-15.0
 20
-4.6
 10
-15.0
 20
-4.8
 10
-15.0
 20
-5.0
 10
-15.0
 20
-5.2
 10
-15.0
 20
-5.4
 10
-15.0
 20
-5.6
 10
-15.0
 20
-5.8
 10
-15.0
 20
-6.0
 10
-15.0
 20
-6.2
 10
-15.0
 20
-6.4
 10
-15.0
 20
-6.6
 10
-15.0
 20
-6.8
 10
-15.0
 20
-7.0
 10
-15.0
 20
-7.2
 10
-15.0
 20
-7.4
 10
-15.0
 20
-7.6
 10
-15.0
 20
-7.8
 10
-15.0
 20
-8.0
 10
-15.0
 20
-8.2
 10
-15.0
 20
-8.4
 10
-15.0
 20
-8.6
 10
-15.0
 20
-8.8
 10
-15.0
 20
-9.0
 10
-15.0
 20
-9.2
 10
-15.0
 20
-9.4
 10
-15.0
 20
-9.6
 10
-15.0
 20
-9.8
 10
-15.0
 20
-10.0
  0
LWPOLYLINE
  5
32
330
17
100
AcDbEntity
  8
0
100
AcDbPolyline
 90
51
 70
0
 10
15.0
 20
0.0
 10
15.0
 20
-0.2
 10
15.0
 20
-0.4
 10
15.0
 20
-0.6
 10
15.0
 20
-0.8
 10
15.0
 20
-1.0
 10
15.0
 20
-1.2
 10
15.0
 20
-1.4
 10
15.0
 20
-1.6
 10
15.0
 20
-1.8
 10
15.0
 20
-2.0
 10
15.0
 20
-2.2
 10
15.0
 20
-2.4
 10
15.0
 20
-2.6
 10
15.0
 20
-2.8
 10
15.0
 20
-3.0
 10
15.0
 20
-3.2
 10
15.0
 20
-3.4
 10
15.0
 20
-3.6
 10
15.0
 20
-3.8
 10
15.0
 20
-4.0
 10
15.0
 20
-4.2
 10
15.0
 20
-4.4
 10
15.0
 20
-4.6
 10
15.0
 20
-4.8
 10
15.0
 20
-5.0
 10
15.0
 20
-5.2
 10
15.0
 20
-5.4
 10
15.0
 20
-5.6
 10
15.0
 20
-5.8
 10
15.0
 20
-6.0
 10
15.0
 20
-6.2
 10
15.0
 20
-6.4
 10
15.0
 20
-6.6
 10
15.0
 20
-6.8
 10
15.0
 20
-7.0
 10
15.0
 20
-7.2
 10
15.0
 20
-7.4
 10
15.0
 20
-7.6
 10
15.0
 20
-7.8
 10
15.0
 20
-8.0
 10
15.0
 20
-8.2
 10
15.0
 20
-8.4
 10
15.0
 20
-8.6
 10
15.0
 20
-8.8
 10
15.0
 20
-9.0
 10
15.0
 20
-9.2
 10
15.0
 20
-9.4
 10
15.0
 20
-9.6
 10
15.0
 20
-9.8
 10
15.0
 20
-10.0
  0
LWPOLYLINE
  5
33
330
17
100
AcDbEntity
  8
0
100
AcDbPolyline
 90
51
 70
0
 10
-7.806247497998
 20
0.0
 10
-7.9428568292129755
 20
0.0
 10
-8.079466160427952
 20
0.0
 10
-8.216075491642925
 20
0.0
 10
-8.352684822857903
 20
0.0
 10
-8.489294154072878
 20
0.0
 10
-8.625903485287854
 20
0.0
 10
-8.762512816502827
 20
0.0
 10
-8.899122147717804
 20
0.0
 10
-9.035731478932778
 20
0.0
 10
-9.172340810147755
 20
0.0
 10
-9.308950141362729
 20
0.0
 10
-9.445559472577706
 20
0.0
 10
-9.58216880379268
 20
0.0
 10
-9.718778135007655
 20
0.0
 10
-9.85538746622263
 20
0.0
 10
-9.991996797437608
 20
0.0
 10
-10.128606128652581
 20
0.0
 10
-10.265215459867559
 20
0.0
 10
-10.401824791082532
 20
0.0
 10
-10.53843412229751
 20
0.0
 10
-10.675043453512483
 20
0.0
 10
-10.81165278472746
 20
0.0
 10
-10.948262115942434
 20
0.0
 10
-11.084871447157411
 20
0.0
 10
-11.221480778372385
 20
0.0
 10
-11.358090109587362
 20
0.0
 10
-11.494699440802336
 20
0.0
 10
-11.631308772017311
 20
0.0
 10
-11.767918103232287
 20
0.0
 10
-11.904527434447264
 20
0.0
 10
-12.041136765662237
 20
0.0
 10
-12.177746096877215
 20
0.0
 10
-12.314355428092188
 20
0.0
 10
-12.450964759307166
 20
0.0
 10
-12.58757409052214
 20
0.0
 10
-12.724183421737116
 20
0.0
 10
-12.86079275295209
 20
0.0
 10
-12.997402084167067
 20
0.0
 10
-13.13401141538204
 20
0.0
 10
-13.270620746597018
 20
0.0
 10
-13.407230077811992
 20
0.0
 10
-13.543839409026969
 20
0.0
 10
-13.680448740241944
 20
0.0
 10
-13.81705807145692
 20
0.0
 10
-13.953667402671893
 20
0.0
 10
-14.09027673388687
 20
0.0
 10
-14.226886065101844
 20
0.0
 10
-14.363495396316821
 20
0.0
 10
-14.500104727531795
 20
0.0
 10
-14.636714058746772
 20
0.0
  0
LWPOLYLINE
  5
34
330
17
100
AcDbEntity
  8
0
100
AcDbPolyline
 90
51
 70
0
 10
-2.220446049250313e-16
 20
0.0
 10
-0.2157073056629113
 20
0.0
 10
-0.4314146113258242
 20
0.0
 10
-0.6471219169887353
 20
0.0
 10
-0.8619699478141527
 20
0.0
 10
-1.0756722788562434
 20
0.0
 10
-1.289374609898332
 20
0.0
 10
-1.5030769409404208
 20
0.0
 10
-1.7133581463542935
 20
0.0
 10
-1.9230691641634614
 20
0.0
 10
-2.132780181972631
 20
0.0
 10
-2.34079389891119
 20
0.0
 10
-2.5445643636732282
 20
0.0
 10
-2.7483348284352647
 20
0.0
 10
-2.9521052931973033
 20
0.0
 10
-3.1502796321712303
 20
0.0
 10
-3.346215520829915
 20
0.0
 10
-3.5421514094885986
 20
0.0
 10
-3.7367079013365827
 20
0.0
 10
-3.9229880123203587
 20
0.0
 10
-4.109268123304137
 20
0.0
 10
-4.295548234287913
 20
0.0
 10
-4.475321356756005
 20
0.0
 10
-4.6502142378373374
 20
0.0
 10
-4.825107118918669
 20
0.0
 10
-5.000000000000002
 20
0.0
 10
-5.161880041944868
 20
0.0
 10
-5.323760083889737
 20
0.0
 10
-5.485640125834605
 20
0.0
 10
-5.641298383982651
 20
0.0
 10
-5.788660930401605
 20
0.0
 10
-5.936023476820559
 20
0.0
 10
-6.0833860232395125
 20
0.0
 10
-6.217130958119135
 20
0.0
 10
-6.348606291075539
 20
0.0
 10
-6.480081624031943
 20
0.0
 10
-6.606668596538194
 20
0.0
 10
-6.7210346679190645
 20
0.0
 10
-6.835400739299936
 20
0.0
 10
-6.949766810680807
 20
0.0
 10
-7.051152681298775
 20
0.0
 10
-7.14734647161158
 20
0.0
 10
-7.243540261924384
 20
0.0
 10
-7.33701028205203
 20
0.0
 10
-7.41413768106872
 20
0.0
 10
-7.491265080085411
 20
0.0
 10
-7.5683924791021004
 20
0.0
 10
-7.634215145771454
 20
0.0
 10
-7.691559263180301
 20
0.0
 10
-7.748903380589152
 20
0.0
 10
-7.806247497997999
 20
0.0
  0
LWPOLYLINE
  5
35
330
17
100
AcDbEntity
  8
0
100
AcDbPolyline
 90
51
 70
0
 10
7.806247497997979
 20
0.0
 10
7.7489033805891285
 20
0.0
 10
7.691559263180278
 20
0.0
 10
7.634215145771428
 20
0.0
 10
7.568392479102074
 20
0.0
 10
7.491265080085382
 20
0.0
 10
7.4141376810686905
 20
0.0
 10
7.337010282051999
 20
0.0
 10
7.243540261924353
 20
0.0
 10
7.147346471611547
 20
0.0
 10
7.051152681298742
 20
0.0
 10
6.949766810680774
 20
0.0
 10
6.835400739299902
 20
0.0
 10
6.72103466791903
 20
0.0
 10
6.606668596538158
 20
0.0
 10
6.480081624031906
 20
0.0
 10
6.348606291075503
 20
0.0
 10
6.2171309581191
 20
0.0
 10
6.083386023239474
 20
0.0
 10
5.936023476820521
 20
0.0
 10
5.788660930401568
 20
0.0
 10
5.6412983839826145
 20
0.0
 10
5.485640125834568
 20
0.0
 10
5.323760083889701
 20
0.0
 10
5.1618800419448325
 20
0.0
 10
4.999999999999965
 20
0.0
 10
4.825107118918635
 20
0.0
 10
4.650214237837305
 20
0.0
 10
4.475321356755975
 20
0.0
 10
4.295548234287883
 20
0.0
 10
4.109268123304106
 20
0.0
 10
3.9229880123203293
 20
0.0
 10
3.736707901336553
 20
0.0
 10
3.542151409488571
 20
0.0
 10
3.3462155208298876
 20
0.0
 10
3.1502796321712045
 20
0.0
 10
2.952105293197278
 20
0.0
 10
2.7483348284352433
 20
0.0
 10
2.5445643636732074
 20
0.0
 10
2.340793898911171
 20
0.0
 10
2.1327801819726133
 20
0.0
 10
1.9230691641634456
 20
0.0
 10
1.7133581463542797
 20
0.0
 10
1.5030769409404088
 20
0.0
 10
1.2893746098983216
 20
0.0
 10
1.0756722788562345
 20
0.0
 10
0.8619699478141455
 20
0.0
 10
0.6471219169887314
 20
0.0
 10
0.43141461132582026
 20
0.0
 10
0.21570730566291085
 20
0.0
 10
-2.220446049250313e-16
 20
0.0
  0
LWPOLYLINE
  5
36
330
17
100
AcDbEntity
  8
0
100
AcDbPolyline
 90
51
 70
0
 10
14.63671405875
 20
0.0
 10
14.500104727535025
 20
0.0
 10
14.36349539632005
 20
0.0
 10
14.226886065105074
 20
0.0
 10
14.090276733890098
 20
0.0
 10
13.953667402675123
 20
0.0
 10
13.817058071460147
 20
0.0
 10
13.680448740245172
 20
0.0
 10
13.543839409030197
 20
0.0
 10
13.407230077815221
 20
0.0
 10
13.270620746600246
 20
0.0
 10
13.13401141538527
 20
0.0
 10
12.997402084170295
 20
0.0
 10
12.86079275295532
 20
0.0
 10
12.724183421740344
 20
0.0
 10
12.587574090525369
 20
0.0
 10
12.450964759310393
 20
0.0
 10
12.314355428095418
 20
0.0
 10
12.177746096880442
 20
0.0
 10
12.041136765665467
 20
0.0
 10
11.904527434450491
 20
0.0
 10
11.767918103235516
 20
0.0
 10
11.63130877202054
 20
0.0
 10
11.494699440805565
 20
0.0
 10
11.35809010959059
 20
0.0
 10
11.221480778375614
 20
0.0
 10
11.084871447160639
 20
0.0
 10
10.948262115945663
 20
0.0
 10
10.811652784730688
 20
0.0
 10
10.675043453515713
 20
0.0
 10
10.538434122300737
 20
0.0
 10
10.401824791085762
 20
0.0
 10
10.265215459870786
 20
0.0
 10
10.128606128655811
 20
0.0
 10
9.991996797440835
 20
0.0
 10
9.85538746622586
 20
0.0
 10
9.718778135010885
 20
0.0
 10
9.58216880379591
 20
0.0
 10
9.445559472580934
 20
0.0
 10
9.308950141365958
 20
0.0
 10
9.172340810150981
 20
0.0
 10
9.035731478936007
 20
0.0
 10
8.899122147721032
 20
0.0
 10
8.762512816506057
 20
0.0
 10
8.625903485291081
 20
0.0
 10
8.489294154076106
 20
0.0
 10
8.35268482286113
 20
0.0
 10
8.216075491646155
 20
0.0
 10
8.07946616043118
 20
0.0
 10
7.942856829216204
 20
0.0
 10
7.806247498001229
 20
0.0
  0
LWPOLYLINE
  5
37
330
17
100
AcDbEntity
  8
0
100
AcDbPolyline
 90
51
 70
0
 10
-14.636714058746211
 20
0.0
 10
-14.650677497841322
 20
0.0
 10
-14.664640936936431
 20
0.0
 10
-14.678604376031542
 20
0.0
 10
-14.692130509393502
 20
0.0
 10
-14.705073568444597
 20
0.0
 10
-14.71801662749569
 20
0.0
 10
-14.730959686546784
 20
0.0
 10
-14.743025381340264
 20
0.0
 10
-14.754944848757475
 20
0.0
 10
-14.766864316174686
 20
0.0
 10
-14.778490483809698
 20
0.0
 10
-14.78938340198921
 20
0.0
 10
-14.800276320168722
 20
0.0
 10
-14.811169238348235
 20
0.0
 10
-14.821326976440906
 20
0.0
 10
-14.831190642498841
 20
0.0
 10
-14.841054308556775
 20
0.0
 10
-14.850770588955445
 20
0.0
 10
-14.859602555398526
 20
0.0
 10
-14.868434521841609
 20
0.0
 10
-14.877266488284691
 20
0.0
 10
-14.885507659807647
 20
0.0
 10
-14.893305735140508
 20
0.0
 10
-14.90110381047337
 20
0.0
 10
-14.90890188580623
 20
0.0
 10
-14.915664135075192
 20
0.0
 10
-14.922426384344153
 20
0.0
 10
-14.929188633613116
 20
0.0
 10
-14.935506238312461
 20
0.0
 10
-14.941230983585656
 20
0.0
 10
-14.94695572885885
 20
0.0
 10
-14.952680474132043
 20
0.0
 10
-14.957514712699975
 20
0.0
 10
-14.962200533483696
 20
0.0
 10
-14.966886354267416
 20
0.0
 10
-14.971275007281838
 20
0.0
 10
-14.974920740873008
 20
0.0
 10
-14.978566474464179
 20
0.0
 10
-14.98221220805535
 20
0.0
 10
-14.985114376063315
 20
0.0
 10
-14.987719117837997
 20
0.0
 10
-14.99032385961268
 20
0.0
 10
-14.992779795939246
 20
0.0
 10
-14.994342899577102
 20
0.0
 10
-14.99590600321496
 20
0.0
 10
-14.997469106852817
 20
0.0
 10
-14.998436767065995
 20
0.0
 10
-14.998957844710665
 20
0.0
 10
-14.999478922355333
 20
0.0
 10
-15.000000000000002
 20
0.0
  0
LWPOLYLINE
  5
38
330
17
100
AcDbEntity
  8
0
100
AcDbPolyline
 90
51
 70
0
 10
15.000000000000002
 20
0.0
 10
14.999478922355333
 20
0.0
 10
14.998957844710665
 20
0.0
 10
14.998436767065996
 20
0.0
 10
14.997469106852819
 20
0.0
 10
14.995906003214962
 20
0.0
 10
14.994342899577106
 20
0.0
 10
14.992779795939251
 20
0.0
 10
14.990323859612687
 20
0.0
 10
14.987719117838006
 20
0.0
 10
14.985114376063324
 20
0.0
 10
14.982212208055362
 20
0.0
 10
14.978566474464191
 20
0.0
 10
14.974920740873022
 20
0.0
 10
14.971275007281852
 20
0.0
 10
14.966886354267434
 20
0.0
 10
14.962200533483717
 20
0.0
 10
14.9575147127
 20
0.0
 10
14.952680474132073
 20
0.0
 10
14.946955728858883
 20
0.0
 10
14.941230983585692
 20
0.0
 10
14.9355062383125
 20
0.0
 10
14.929188633613158
 20
0.0
 10
14.9224263843442
 20
0.0
 10
14.915664135075243
 20
0.0
 10
14.908901885806287
 20
0.0
 10
14.901103810473428
 20
0.0
 10
14.89330573514057
 20
0.0
 10
14.885507659807715
 20
0.0
 10
14.877266488284763
 20
0.0
 10
14.868434521841687
 20
0.0
 10
14.85960255539861
 20
0.0
 10
14.850770588955534
 20
0.0
 10
14.84105430855687
 20
0.0
 10
14.83119064249894
 20
0.0
 10
14.821326976441012
 20
0.0
 10
14.811169238348345
 20
0.0
 10
14.80027632016884
 20
0.0
 10
14.789383401989333
 20
0.0
 10
14.77849048380983
 20
0.0
 10
14.766864316174825
 20
0.0
 10
14.754944848757622
 20
0.0
 10
14.74302538134042
 20
0.0
 10
14.730959686546948
 20
0.0
 10
14.71801662749586
 20
0.0
 10
14.705073568444774
 20
0.0
 10
14.692130509393687
 20
0.0
 10
14.678604376031734
 20
0.0
 10
14.664640936936632
 20
0.0
 10
14.65067749784153
 20
0.0
 10
14.636714058746428
 20
0.0
  0
LWPOLYLINE
  5
39
330
17
100
AcDbEntity
  8
0
100
AcDbPolyline
 90
51
 70
0
 10
-11.43380586245
 20
-7.0
 10
-11.387504695160986
 20
-7.0
 10
-11.341203527871974
 20
-7.0
 10
-11.29490236058296
 20
-7.0
 10
-11.248601193293947
 20
-7.0
 10
-11.202300026004933
 20
-7.0
 10
-11.155998858715918
 20
-7.0
 10
-11.109697691426906
 20
-7.0
 10
-11.063396524137891
 20
-7.0
 10
-11.017095356848879
 20
-7.0
 10
-10.970794189559864
 20
-7.0
 10
-10.92449302227085
 20
-7.0
 10
-10.878191854981837
 20
-7.0
 10
-10.831890687692823
 20
-7.0
 10
-10.78558952040381
 20
-7.0
 10
-10.739288353114796
 20
-7.0
 10
-10.692987185825782
 20
-7.0
 10
-10.64668601853677
 20
-7.0
 10
-10.600384851247755
 20
-7.0
 10
-10.55408368395874
 20
-7.0
 10
-10.507782516669728
 20
-7.0
 10
-10.461481349380714
 20
-7.0
 10
-10.415180182091701
 20
-7.0
 10
-10.368879014802687
 20
-7.0
 10
-10.322577847513674
 20
-7.0
 10
-10.27627668022466
 20
-7.0
 10
-10.229975512935646
 20
-7.0
 10
-10.183674345646633
 20
-7.0
 10
-10.137373178357619
 20
-7.0
 10
-10.091072011068604
 20
-7.0
 10
-10.044770843779592
 20
-7.0
 10
-9.998469676490577
 20
-7.0
 10
-9.952168509201565
 20
-7.0
 10
-9.90586734191255
 20
-7.0
 10
-9.859566174623536
 20
-7.0
 10
-9.813265007334524
 20
-7.0
 10
-9.76696384004551
 20
-7.0
 10
-9.720662672756497
 20
-7.0
 10
-9.674361505467482
 20
-7.0
 10
-9.628060338178468
 20
-7.0
 10
-9.581759170889455
 20
-7.0
 10
-9.535458003600441
 20
-7.0
 10
-9.489156836311427
 20
-7.0
 10
-9.442855669022414
 20
-7.0
 10
-9.396554501733402
 20
-7.0
 10
-9.350253334444387
 20
-7.0
 10
-9.303952167155373
 20
-7.0
 10
-9.25765099986636
 20
-7.0
 10
-9.211349832577346
 20
-7.0
 10
-9.165048665288332
 20
-7.0
 10
-9.118747497999319
 20
-7.0
  0
LWPOLYLINE
  5
3A
330
17
100
AcDbEntity
  8
0
100
AcDbPolyline
 90
51
 70
0
 10
-9.118747497998
 20
-7.0
 10
-9.118747497998
 20
-7.06
 10
-9.118747497998
 20
-7.12
 10
-9.118747497998
 20
-7.18
 10
-9.118747497998
 20
-7.24
 10
-9.118747497998
 20
-7.3
 10
-9.118747497998
 20
-7.36
 10
-9.118747497998
 20
-7.42
 10
-9.118747497998
 20
-7.48
 10
-9.118747497998
 20
-7.54
 10
-9.118747497998
 20
-7.6
 10
-9.118747497998
 20
-7.66
 10
-9.118747497998
 20
-7.72
 10
-9.118747497998
 20
-7.78
 10
-9.118747497998
 20
-7.84
 10
-9.118747497998
 20
-7.9
 10
-9.118747497998
 20
-7.96
 10
-9.118747497998
 20
-8.02
 10
-9.118747497998
 20
-8.08
 10
-9.118747497998
 20
-8.14
 10
-9.118747497998
 20
-8.2
 10
-9.118747497998
 20
-8.26
 10
-9.118747497998
 20
-8.32
 10
-9.118747497998
 20
-8.379999999999999
 10
-9.118747497998
 20
-8.44
 10
-9.118747497998
 20
-8.5
 10
-9.118747497998
 20
-8.56
 10
-9.118747497998
 20
-8.620000000000001
 10
-9.118747497998
 20
-8.68
 10
-9.118747497998
 20
-8.74
 10
-9.118747497998
 20
-8.8
 10
-9.118747497998
 20
-8.86
 10
-9.118747497998
 20
-8.92
 10
-9.118747497998
 20
-8.98
 10
-9.118747497998
 20
-9.04
 10
-9.118747497998
 20
-9.1
 10
-9.118747497998
 20
-9.16
 10
-9.118747497998
 20
-9.22
 10
-9.118747497998
 20
-9.28
 10
-9.118747497998
 20
-9.34
 10
-9.118747497998
 20
-9.4
 10
-9.118747497998
 20
-9.46
 10
-9.118747497998
 20
-9.52
 10
-9.118747497998
 20
-9.58
 10
-9.118747497998
 20
-9.64
 10
-9.118747497998
 20
-9.7
 10
-9.118747497998
 20
-9.76
 10
-9.118747497998
 20
-9.82
 10
-9.118747497998
 20
-9.879999999999999
 10
-9.118747497998
 20
-9.94
 10
-9.118747497998
 20
-10.0
  0
LWPOLYLINE
  5
3B
330
17
100
AcDbEntity
  8
0
100
AcDbPolyline
 90
51
 70
0
 10
-7.806247498733449
 20
-10.0
 10
-7.8324974987187455
 20
-10.0
 10
-7.858747498704042
 20
-10.0
 10
-7.884997498689338
 20
-10.0
 10
-7.911247498674634
 20
-10.0
 10
-7.937497498659931
 20
-10.0
 10
-7.963747498645227
 20
-10.0
 10
-7.989997498630523
 20
-10.0
 10
-8.01624749861582
 20
-10.0
 10
-8.042497498601117
 20
-10.0
 10
-8.068747498586413
 20
-10.0
 10
-8.09499749857171
 20
-10.0
 10
-8.121247498557006
 20
-10.0
 10
-8.147497498542302
 20
-10.0
 10
-8.173747498527598
 20
-10.0
 10
-8.199997498512895
 20
-10.0
 10
-8.226247498498191
 20
-10.0
 10
-8.252497498483487
 20
-10.0
 10
-8.278747498468784
 20
-10.0
 10
-8.30499749845408
 20
-10.0
 10
-8.331247498439376
 20
-10.0
 10
-8.357497498424673
 20
-10.0
 10
-8.383747498409969
 20
-10.0
 10
-8.409997498395265
 20
-10.0
 10
-8.436247498380562
 20
-10.0
 10
-8.462497498365858
 20
-10.0
 10
-8.488747498351154
 20
-10.0
 10
-8.51499749833645
 20
-10.0
 10
-8.541247498321747
 20
-10.0
 10
-8.567497498307045
 20
-10.0
 10
-8.593747498292341
 20
-10.0
 10
-8.619997498277638
 20
-10.0
 10
-8.646247498262934
 20
-10.0
 10
-8.67249749824823
 20
-10.0
 10
-8.698747498233526
 20
-10.0
 10
-8.724997498218823
 20
-10.0
 10
-8.751247498204119
 20
-10.0
 10
-8.777497498189415
 20
-10.0
 10
-8.803747498174712
 20
-10.0
 10
-8.829997498160008
 20
-10.0
 10
-8.856247498145304
 20
-10.0
 10
-8.8824974981306
 20
-10.0
 10
-8.908747498115897
 20
-10.0
 10
-8.934997498101193
 20
-10.0
 10
-8.96124749808649
 20
-10.0
 10
-8.987497498071786
 20
-10.0
 10
-9.013747498057082
 20
-10.0
 10
-9.039997498042379
 20
-10.0
 10
-9.066247498027675
 20
-10.0
 10
-9.092497498012971
 20
-10.0
 10
-9.118747497998267
 20
-10.0
  0
LWPOLYLINE
  5
3C
330
17
100
AcDbEntity
  8
0
100
AcDbPolyline
 90
51
 70
0
 10
-11.43380586245
 20
-10.0
 10
-11.497864026375963
 20
-10.0
 10
-11.561922190301926
 20
-10.0
 10
-11.625980354227888
 20
-10.0
 10
-11.690038518153852
 20
-10.0
 10
-11.754096682079814
 20
-10.0
 10
-11.818154846005775
 20
-10.0
 10
-11.88221300993174
 20
-10.0
 10
-11.946271173857701
 20
-10.0
 10
-12.010329337783665
 20
-10.0
 10
-12.074387501709626
 20
-10.0
 10
-12.13844566563559
 20
-10.0
 10
-12.202503829561552
 20
-10.0
 10
-12.266561993487514
 20
-10.0
 10
-12.330620157413478
 20
-10.0
 10
-12.39467832133944
 20
-10.0
 10
-12.458736485265401
 20
-10.0
 10
-12.522794649191365
 20
-10.0
 10
-12.586852813117327
 20
-10.0
 10
-12.65091097704329
 20
-10.0
 10
-12.714969140969252
 20
-10.0
 10
-12.779027304895216
 20
-10.0
 10
-12.843085468821178
 20
-10.0
 10
-12.90714363274714
 20
-10.0
 10
-12.971201796673103
 20
-10.0
 10
-13.035259960599065
 20
-10.0
 10
-13.099318124525029
 20
-10.0
 10
-13.16337628845099
 20
-10.0
 10
-13.227434452376954
 20
-10.0
 10
-13.291492616302916
 20
-10.0
 10
-13.355550780228878
 20
-10.0
 10
-13.419608944154842
 20
-10.0
 10
-13.483667108080803
 20
-10.0
 10
-13.547725272006765
 20
-10.0
 10
-13.611783435932729
 20
-10.0
 10
-13.67584159985869
 20
-10.0
 10
-13.739899763784654
 20
-10.0
 10
-13.803957927710616
 20
-10.0
 10
-13.86801609163658
 20
-10.0
 10
-13.932074255562542
 20
-10.0
 10
-13.996132419488504
 20
-10.0
 10
-14.060190583414467
 20
-10.0
 10
-14.12424874734043
 20
-10.0
 10
-14.188306911266393
 20
-10.0
 10
-14.252365075192355
 20
-10.0
 10
-14.316423239118318
 20
-10.0
 10
-14.38048140304428
 20
-10.0
 10
-14.444539566970242
 20
-10.0
 10
-14.508597730896206
 20
-10.0
 10
-14.572655894822168
 20
-10.0
 10
-14.63671405874813
 20
-10.0
  0
LWPOLYLINE
  5
3D
330
17
100
AcDbEntity
  8
0
100
AcDbPolyline
 90
51
 70
0
 10
-9.877023540466695
 20
-10.0
 10
-9.91059743374924
 20
-10.0
 10
-9.944171327031786
 20
-10.0
 10
-9.97774522031433
 20
-10.0
 10
-10.012413141719556
 20
-10.0
 10
-10.04853976728835
 20
-10.0
 10
-10.084666392857146
 20
-10.0
 10
-10.12079301842594
 20
-10.0
 10
-10.158495437556947
 20
-10.0
 10
-10.19646048894832
 20
-10.0
 10
-10.234425540339693
 20
-10.0
 10
-10.27270138300329
 20
-10.0
 10
-10.311754203847439
 20
-10.0
 10
-10.35080702469159
 20
-10.0
 10
-10.38985984553574
 20
-10.0
 10
-10.429138098793807
 20
-10.0
 10
-10.468506525017437
 20
-10.0
 10
-10.507874951241067
 20
-10.0
 10
-10.54717726333071
 20
-10.0
 10
-10.586082890616412
 20
-10.0
 10
-10.624988517902114
 20
-10.0
 10
-10.663894145187815
 20
-10.0
 10
-10.702095742384321
 20
-10.0
 10
-10.73976931701393
 20
-10.0
 10
-10.77744289164354
 20
-10.0
 10
-10.81511646627315
 20
-10.0
 10
-10.850813095042723
 20
-10.0
 10
-10.886509723812296
 20
-10.0
 10
-10.922206352581869
 20
-10.0
 10
-10.956753231223653
 20
-10.0
 10
-10.989767109695048
 20
-10.0
 10
-11.022780988166446
 20
-10.0
 10
-11.055794866637841
 20
-10.0
 10
-11.085949736028912
 20
-10.0
 10
-11.115628103906595
 20
-10.0
 10
-11.145306471784277
 20
-10.0
 10
-11.173864176754952
 20
-10.0
 10
-11.199620224458105
 20
-10.0
 10
-11.225376272161258
 20
-10.0
 10
-11.25113231986441
 20
-10.0
 10
-11.273722955806281
 20
-10.0
 10
-11.29504742704364
 20
-10.0
 10
-11.316371898280998
 20
-10.0
 10
-11.337003053761277
 20
-10.0
 10
-11.353474314699083
 20
-10.0
 10
-11.36994557563689
 20
-10.0
 10
-11.386416836574696
 20
-10.0
 10
-11.399928734652319
 20
-10.0
 10
-11.4112211105848
 20
-10.0
 10
-11.422513486517282
 20
-10.0
 10
-11.433805862449763
 20
-10.0
  0
LWPOLYLINE
  5
3E
330
17
100
AcDbEntity
  8
0
100
AcDbPolyline
 90
51
 70
0
 10
-9.877023540466181
 20
-7.0
 10
-9.862116236918848
 20
-7.0
 10
-9.847208933371514
 20
-7.0
 10
-9.83230162982418
 20
-7.0
 10
-9.817376919811245
 20
-7.0
 10
-9.802429001177506
 20
-7.0
 10
-9.787481082543769
 20
-7.0
 10
-9.772533163910031
 20
-7.0
 10
-9.75755062152914
 20
-7.0
 10
-9.742562308523722
 20
-7.0
 10
-9.727573995518304
 20
-7.0
 10
-9.7125742044956
 20
-7.0
 10
-9.697545718429673
 20
-7.0
 10
-9.682517232363749
 20
-7.0
 10
-9.667488746297822
 20
-7.0
 10
-9.652431723691784
 20
-7.0
 10
-9.6373632864697
 20
-7.0
 10
-9.622294849247615
 20
-7.0
 10
-9.6072207365024
 20
-7.0
 10
-9.59211257061841
 20
-7.0
 10
-9.577004404734417
 20
-7.0
 10
-9.561896238850426
 20
-7.0
 10
-9.546765498348698
 20
-7.0
 10
-9.531617826883666
 20
-7.0
 10
-9.516470155418636
 20
-7.0
 10
-9.501322483953606
 20
-7.0
 10
-9.486135530571728
 20
-7.0
 10
-9.47094857718985
 20
-7.0
 10
-9.455761623807971
 20
-7.0
 10
-9.440557931423534
 20
-7.0
 10
-9.42533192036902
 20
-7.0
 10
-9.410105909314506
 20
-7.0
 10
-9.394879898259992
 20
-7.0
 10
-9.379620601904008
 20
-7.0
 10
-9.36435575799778
 20
-7.0
 10
-9.349090914091551
 20
-7.0
 10
-9.333815039483207
 20
-7.0
 10
-9.318511588119575
 20
-7.0
 10
-9.303208136755943
 20
-7.0
 10
-9.287904685392311
 20
-7.0
 10
-9.272573818676513
 20
-7.0
 10
-9.25723198581985
 20
-7.0
 10
-9.241890152963187
 20
-7.0
 10
-9.226542869397674
 20
-7.0
 10
-9.211162881579076
 20
-7.0
 10
-9.195782893760478
 20
-7.0
 10
-9.18040290594188
 20
-7.0
 10
-9.165001245056164
 20
-7.0
 10
-9.14958332937011
 20
-7.0
 10
-9.134165413684054
 20
-7.0
 10
-9.118747497998
 20
-7.0
  0
LWPOLYLINE
  5
3F
330
17
100
AcDbEntity
  8
0
100
AcDbPolyline
 90
51
 70
0
 10
9.118747497997997
 20
-7.0
 10
9.134165413684038
 20
-7.0
 10
9.149583329370072
 20
-7.0
 10
9.165001245056112
 20
-7.0
 10
9.180402905941813
 20
-7.0
 10
9.195782893760393
 20
-7.0
 10
9.211162881578975
 20
-7.0
 10
9.226542869397557
 20
-7.0
 10
9.24189015296305
 20
-7.0
 10
9.257231985819697
 20
-7.0
 10
9.272573818676344
 20
-7.0
 10
9.287904685392123
 20
-7.0
 10
9.30320813675574
 20
-7.0
 10
9.318511588119359
 20
-7.0
 10
9.333815039482973
 20
-7.0
 10
9.3490909140913
 20
-7.0
 10
9.364355757997513
 20
-7.0
 10
9.379620601903722
 20
-7.0
 10
9.39487989825969
 20
-7.0
 10
9.410105909314188
 20
-7.0
 10
9.425331920368684
 20
-7.0
 10
9.440557931423182
 20
-7.0
 10
9.455761623807604
 20
-7.0
 10
9.470948577189462
 20
-7.0
 10
9.486135530571325
 20
-7.0
 10
9.501322483953185
 20
-7.0
 10
9.5164701554182
 20
-7.0
 10
9.531617826883215
 20
-7.0
 10
9.546765498348226
 20
-7.0
 10
9.56189623884994
 20
-7.0
 10
9.577004404733916
 20
-7.0
 10
9.592112570617891
 20
-7.0
 10
9.607220736501867
 20
-7.0
 10
9.622294849247066
 20
-7.0
 10
9.637363286469133
 20
-7.0
 10
9.652431723691201
 20
-7.0
 10
9.667488746297225
 20
-7.0
 10
9.682517232363132
 20
-7.0
 10
9.69754571842904
 20
-7.0
 10
9.71257420449495
 20
-7.0
 10
9.727573995517638
 20
-7.0
 10
9.742562308523041
 20
-7.0
 10
9.757550621528443
 20
-7.0
 10
9.772533163909317
 20
-7.0
 10
9.78748108254304
 20
-7.0
 10
9.802429001176762
 20
-7.0
 10
9.817376919810481
 20
-7.0
 10
9.832301629823403
 20
-7.0
 10
9.847208933370723
 20
-7.0
 10
9.86211623691804
 20
-7.0
 10
9.877023540465359
 20
-7.0
  0
LWPOLYLINE
  5
40
330
17
100
AcDbEntity
  8
0
100
AcDbPolyline
 90
51
 70
0
 10
9.877023540466181
 20
-10.0
 10
9.862116236918848
 20
-10.0
 10
9.847208933371514
 20
-10.0
 10
9.83230162982418
 20
-10.0
 10
9.817376919811245
 20
-10.0
 10
9.802429001177506
 20
-10.0
 10
9.787481082543769
 20
-10.0
 10
9.772533163910031
 20
-10.0
 10
9.75755062152914
 20
-10.0
 10
9.742562308523722
 20
-10.0
 10
9.727573995518304
 20
-10.0
 10
9.7125742044956
 20
-10.0
 10
9.697545718429673
 20
-10.0
 10
9.682517232363749
 20
-10.0
 10
9.667488746297822
 20
-10.0
 10
9.652431723691784
 20
-10.0
 10
9.6373632864697
 20
-10.0
 10
9.622294849247615
 20
-10.0
 10
9.6072207365024
 20
-10.0
 10
9.59211257061841
 20
-10.0
 10
9.577004404734417
 20
-10.0
 10
9.561896238850426
 20
-10.0
 10
9.546765498348698
 20
-10.0
 10
9.531617826883666
 20
-10.0
 10
9.516470155418636
 20
-10.0
 10
9.501322483953606
 20
-10.0
 10
9.486135530571728
 20
-10.0
 10
9.47094857718985
 20
-10.0
 10
9.455761623807971
 20
-10.0
 10
9.440557931423534
 20
-10.0
 10
9.42533192036902
 20
-10.0
 10
9.410105909314506
 20
-10.0
 10
9.394879898259992
 20
-10.0
 10
9.379620601904008
 20
-10.0
 10
9.36435575799778
 20
-10.0
 10
9.349090914091551
 20
-10.0
 10
9.333815039483207
 20
-10.0
 10
9.318511588119575
 20
-10.0
 10
9.303208136755943
 20
-10.0
 10
9.287904685392311
 20
-10.0
 10
9.272573818676513
 20
-10.0
 10
9.25723198581985
 20
-10.0
 10
9.241890152963187
 20
-10.0
 10
9.226542869397674
 20
-10.0
 10
9.211162881579076
 20
-10.0
 10
9.195782893760478
 20
-10.0
 10
9.18040290594188
 20
-10.0
 10
9.165001245056164
 20
-10.0
 10
9.14958332937011
 20
-10.0
 10
9.134165413684054
 20
-10.0
 10
9.118747497998
 20
-10.0
  0
LWPOLYLINE
  5
41
330
17
100
AcDbEntity
  8
0
100
AcDbPolyline
 90
51
 70
0
 10
-9.118747497997997
 20
-10.0
 10
-9.134165413684038
 20
-10.0
 10
-9.149583329370072
 20
-10.0
 10
-9.165001245056112
 20
-10.0
 10
-9.180402905941813
 20
-10.0
 10
-9.195782893760393
 20
-10.0
 10
-9.211162881578975
 20
-10.0
 10
-9.226542869397557
 20
-10.0
 10
-9.24189015296305
 20
-10.0
 10
-9.257231985819697
 20
-10.0
 10
-9.272573818676344
 20
-10.0
 10
-9.287904685392123
 20
-10.0
 10
-9.30320813675574
 20
-10.0
 10
-9.318511588119359
 20
-10.0
 10
-9.333815039482973
 20
-10.0
 10
-9.3490909140913
 20
-10.0
 10
-9.364355757997513
 20
-10.0
 10
-9.379620601903722
 20
-10.0
 10
-9.39487989825969
 20
-10.0
 10
-9.410105909314188
 20
-10.0
 10
-9.425331920368684
 20
-10.0
 10
-9.440557931423182
 20
-10.0
 10
-9.455761623807604
 20
-10.0
 10
-9.470948577189462
 20
-10.0
 10
-9.486135530571325
 20
-10.0
 10
-9.501322483953185
 20
-10.0
 10
-9.5164701554182
 20
-10.0
 10
-9.531617826883215
 20
-10.0
 10
-9.546765498348226
 20
-10.0
 10
-9.56189623884994
 20
-10.0
 10
-9.577004404733916
 20
-10.0
 10
-9.592112570617891
 20
-10.0
 10
-9.607220736501867
 20
-10.0
 10
-9.622294849247066
 20
-10.0
 10
-9.637363286469133
 20
-10.0
 10
-9.652431723691201
 20
-10.0
 10
-9.667488746297225
 20
-10.0
 10
-9.682517232363132
 20
-10.0
 10
-9.69754571842904
 20
-10.0
 10
-9.71257420449495
 20
-10.0
 10
-9.727573995517638
 20
-10.0
 10
-9.742562308523041
 20
-10.0
 10
-9.757550621528443
 20
-10.0
 10
-9.772533163909317
 20
-10.0
 10
-9.78748108254304
 20
-10.0
 10
-9.802429001176762
 20
-10.0
 10
-9.817376919810481
 20
-10.0
 10
-9.832301629823403
 20
-10.0
 10
-9.847208933370723
 20
-10.0
 10
-9.86211623691804
 20
-10.0
 10
-9.877023540465359
 20
-10.0
  0
LWPOLYLINE
  5
42
330
17
100
AcDbEntity
  8
0
100
AcDbPolyline
 90
51
 70
0
 10
9.118747497997786
 20
-7.0
 10
9.165048665286799
 20
-7.0
 10
9.211349832575813
 20
-7.0
 10
9.257650999864827
 20
-7.0
 10
9.30395216715384
 20
-7.0
 10
9.350253334442854
 20
-7.0
 10
9.396554501731867
 20
-7.0
 10
9.442855669020881
 20
-7.0
 10
9.489156836309895
 20
-7.0
 10
9.535458003598908
 20
-7.0
 10
9.581759170887922
 20
-7.0
 10
9.628060338176937
 20
-7.0
 10
9.67436150546595
 20
-7.0
 10
9.720662672754964
 20
-7.0
 10
9.766963840043976
 20
-7.0
 10
9.81326500733299
 20
-7.0
 10
9.859566174622005
 20
-7.0
 10
9.905867341911017
 20
-7.0
 10
9.952168509200032
 20
-7.0
 10
9.998469676489044
 20
-7.0
 10
10.044770843778059
 20
-7.0
 10
10.091072011067073
 20
-7.0
 10
10.137373178356086
 20
-7.0
 10
10.1836743456451
 20
-7.0
 10
10.229975512934114
 20
-7.0
 10
10.276276680223127
 20
-7.0
 10
10.322577847512141
 20
-7.0
 10
10.368879014801154
 20
-7.0
 10
10.415180182090168
 20
-7.0
 10
10.46148134937918
 20
-7.0
 10
10.507782516668195
 20
-7.0
 10
10.55408368395721
 20
-7.0
 10
10.600384851246222
 20
-7.0
 10
10.646686018535236
 20
-7.0
 10
10.69298718582425
 20
-7.0
 10
10.739288353113263
 20
-7.0
 10
10.785589520402278
 20
-7.0
 10
10.831890687691292
 20
-7.0
 10
10.878191854980304
 20
-7.0
 10
10.924493022269319
 20
-7.0
 10
10.970794189558331
 20
-7.0
 10
11.017095356847346
 20
-7.0
 10
11.063396524136358
 20
-7.0
 10
11.109697691425373
 20
-7.0
 10
11.155998858714387
 20
-7.0
 10
11.2023000260034
 20
-7.0
 10
11.248601193292414
 20
-7.0
 10
11.294902360581428
 20
-7.0
 10
11.34120352787044
 20
-7.0
 10
11.387504695159453
 20
-7.0
 10
11.433805862448468
 20
-7.0
  0
LWPOLYLINE
  5
43
330
17
100
AcDbEntity
  8
0
100
AcDbPolyline
 90
51
 70
0
 10
14.63671405875
 20
-10.0
 10
14.572655894824038
 20
-10.0
 10
14.508597730898074
 20
-10.0
 10
14.444539566972113
 20
-10.0
 10
14.380481403046149
 20
-10.0
 10
14.316423239120187
 20
-10.0
 10
14.252365075194225
 20
-10.0
 10
14.188306911268262
 20
-10.0
 10
14.1242487473423
 20
-10.0
 10
14.060190583416336
 20
-10.0
 10
13.996132419490374
 20
-10.0
 10
13.932074255564412
 20
-10.0
 10
13.868016091638449
 20
-10.0
 10
13.803957927712487
 20
-10.0
 10
13.739899763786523
 20
-10.0
 10
13.675841599860561
 20
-10.0
 10
13.611783435934598
 20
-10.0
 10
13.547725272008636
 20
-10.0
 10
13.483667108082674
 20
-10.0
 10
13.41960894415671
 20
-10.0
 10
13.355550780230748
 20
-10.0
 10
13.291492616304785
 20
-10.0
 10
13.227434452378823
 20
-10.0
 10
13.163376288452861
 20
-10.0
 10
13.099318124526897
 20
-10.0
 10
13.035259960600936
 20
-10.0
 10
12.971201796674972
 20
-10.0
 10
12.90714363274901
 20
-10.0
 10
12.843085468823048
 20
-10.0
 10
12.779027304897085
 20
-10.0
 10
12.714969140971123
 20
-10.0
 10
12.650910977045159
 20
-10.0
 10
12.586852813119197
 20
-10.0
 10
12.522794649193234
 20
-10.0
 10
12.458736485267272
 20
-10.0
 10
12.39467832134131
 20
-10.0
 10
12.330620157415346
 20
-10.0
 10
12.266561993489384
 20
-10.0
 10
12.202503829563422
 20
-10.0
 10
12.138445665637459
 20
-10.0
 10
12.074387501711497
 20
-10.0
 10
12.010329337785533
 20
-10.0
 10
11.946271173859571
 20
-10.0
 10
11.882213009933608
 20
-10.0
 10
11.818154846007646
 20
-10.0
 10
11.754096682081684
 20
-10.0
 10
11.69003851815572
 20
-10.0
 10
11.625980354229759
 20
-10.0
 10
11.561922190303795
 20
-10.0
 10
11.497864026377833
 20
-10.0
 10
11.43380586245187
 20
-10.0
  0
LWPOLYLINE
  5
44
330
17
100
AcDbEntity
  8
0
100
AcDbPolyline
 90
51
 70
0
 10
9.118747497998
 20
-10.0
 10
9.092497497998
 20
-10.0
 10
9.066247497998
 20
-10.0
 10
9.039997497998002
 20
-10.0
 10
9.013747497998002
 20
-10.0
 10
8.987497497998003
 20
-10.0
 10
8.961247497998004
 20
-10.0
 10
8.934997497998005
 20
-10.0
 10
8.908747497998005
 20
-10.0
 10
8.882497497998006
 20
-10.0
 10
8.856247497998007
 20
-10.0
 10
8.829997497998008
 20
-10.0
 10
8.803747497998009
 20
-10.0
 10
8.77749749799801
 20
-10.0
 10
8.75124749799801
 20
-10.0
 10
8.724997497998011
 20
-10.0
 10
8.698747497998012
 20
-10.0
 10
8.672497497998013
 20
-10.0
 10
8.646247497998013
 20
-10.0
 10
8.619997497998014
 20
-10.0
 10
8.593747497998015
 20
-10.0
 10
8.567497497998016
 20
-10.0
 10
8.541247497998016
 20
-10.0
 10
8.514997497998017
 20
-10.0
 10
8.488747497998018
 20
-10.0
 10
8.462497497998019
 20
-10.0
 10
8.43624749799802
 20
-10.0
 10
8.40999749799802
 20
-10.0
 10
8.383747497998021
 20
-10.0
 10
8.357497497998022
 20
-10.0
 10
8.331247497998023
 20
-10.0
 10
8.304997497998023
 20
-10.0
 10
8.278747497998024
 20
-10.0
 10
8.252497497998025
 20
-10.0
 10
8.226247497998026
 20
-10.0
 10
8.199997497998027
 20
-10.0
 10
8.173747497998027
 20
-10.0
 10
8.147497497998028
 20
-10.0
 10
8.121247497998029
 20
-10.0
 10
8.09499749799803
 20
-10.0
 10
8.06874749799803
 20
-10.0
 10
8.042497497998031
 20
-10.0
 10
8.016247497998032
 20
-10.0
 10
7.989997497998034
 20
-10.0
 10
7.9637474979980345
 20
-10.0
 10
7.937497497998035
 20
-10.0
 10
7.911247497998036
 20
-10.0
 10
7.884997497998037
 20
-10.0
 10
7.858747497998038
 20
-10.0
 10
7.832497497998038
 20
-10.0
 10
7.806247497998039
 20
-10.0
  0
LWPOLYLINE
  5
45
330
17
100
AcDbEntity
  8
0
100
AcDbPolyline
 90
51
 70
0
 10
9.118747497998
 20
-7.0
 10
9.118747497998
 20
-7.06
 10
9.118747497998
 20
-7.12
 10
9.118747497998
 20
-7.18
 10
9.118747497998
 20
-7.24
 10
9.118747497998
 20
-7.3
 10
9.118747497998
 20
-7.36
 10
9.118747497998
 20
-7.42
 10
9.118747497998
 20
-7.48
 10
9.118747497998
 20
-7.54
 10
9.118747497998
 20
-7.6
 10
9.118747497998
 20
-7.66
 10
9.118747497998
 20
-7.72
 10
9.118747497998
 20
-7.78
 10
9.118747497998
 20
-7.84
 10
9.118747497998
 20
-7.9
 10
9.118747497998
 20
-7.96
 10
9.118747497998
 20
-8.02
 10
9.118747497998
 20
-8.08
 10
9.118747497998
 20
-8.14
 10
9.118747497998
 20
-8.2
 10
9.118747497998
 20
-8.26
 10
9.118747497998
 20
-8.32
 10
9.118747497998
 20
-8.379999999999999
 10
9.118747497998
 20
-8.44
 10
9.118747497998
 20
-8.5
 10
9.118747497998
 20
-8.56
 10
9.118747497998
 20
-8.620000000000001
 10
9.118747497998
 20
-8.68
 10
9.118747497998
 20
-8.74
 10
9.118747497998
 20
-8.8
 10
9.118747497998
 20
-8.86
 10
9.118747497998
 20
-8.92
 10
9.118747497998
 20
-8.98
 10
9.118747497998
 20
-9.04
 10
9.118747497998
 20
-9.1
 10
9.118747497998
 20
-9.16
 10
9.118747497998
 20
-9.22
 10
9.118747497998
 20
-9.28
 10
9.118747497998
 20
-9.34
 10
9.118747497998
 20
-9.4
 10
9.118747497998
 20
-9.46
 10
9.118747497998
 20
-9.52
 10
9.118747497998
 20
-9.58
 10
9.118747497998
 20
-9.64
 10
9.118747497998
 20
-9.7
 10
9.118747497998
 20
-9.76
 10
9.118747497998
 20
-9.82
 10
9.118747497998
 20
-9.879999999999999
 10
9.118747497998
 20
-9.94
 10
9.118747497998
 20
-10.0
  0
LWPOLYLINE
  5
46
330
17
100
AcDbEntity
  8
0
100
AcDbPolyline
 90
51
 70
0
 10
11.433805862449747
 20
-10.0
 10
11.422513486517238
 20
-10.0
 10
11.41122111058473
 20
-10.0
 10
11.399928734652221
 20
-10.0
 10
11.386416836574567
 20
-10.0
 10
11.369945575636713
 20
-10.0
 10
11.353474314698861
 20
-10.0
 10
11.337003053761007
 20
-10.0
 10
11.31637189828067
 20
-10.0
 10
11.29504742704325
 20
-10.0
 10
11.27372295580583
 20
-10.0
 10
11.251132319863896
 20
-10.0
 10
11.225376272160668
 20
-10.0
 10
11.199620224457442
 20
-10.0
 10
11.173864176754215
 20
-10.0
 10
11.14530647178346
 20
-10.0
 10
11.115628103905694
 20
-10.0
 10
11.085949736027928
 20
-10.0
 10
11.055794866636772
 20
-10.0
 10
11.022780988165286
 20
-10.0
 10
10.989767109693798
 20
-10.0
 10
10.956753231222311
 20
-10.0
 10
10.922206352580437
 20
-10.0
 10
10.886509723810772
 20
-10.0
 10
10.850813095041108
 20
-10.0
 10
10.815116466271443
 20
-10.0
 10
10.777442891641744
 20
-10.0
 10
10.739769317012044
 20
-10.0
 10
10.702095742382344
 20
-10.0
 10
10.663894145185752
 20
-10.0
 10
10.624988517899967
 20
-10.0
 10
10.586082890614183
 20
-10.0
 10
10.547177263328397
 20
-10.0
 10
10.507874951238684
 20
-10.0
 10
10.46850652501498
 20
-10.0
 10
10.429138098791277
 20
-10.0
 10
10.389859845533145
 20
-10.0
 10
10.350807024688939
 20
-10.0
 10
10.311754203844732
 20
-10.0
 10
10.272701383000525
 20
-10.0
 10
10.234425540336886
 20
-10.0
 10
10.196460488945476
 20
-10.0
 10
10.158495437554066
 20
-10.0
 10
10.120793018423027
 20
-10.0
 10
10.084666392854217
 20
-10.0
 10
10.048539767285408
 20
-10.0
 10
10.012413141716598
 20
-10.0
 10
9.977745220311373
 20
-10.0
 10
9.94417132702884
 20
-10.0
 10
9.910597433746307
 20
-10.0
 10
9.877023540463773
 20
-10.0
  0
LWPOLYLINE
  5
47
330
17
100
AcDbEntity
  8
0
100
AcDbPolyline
 90
51
 70
0
 10
-14.636714058746211
 20
-10.0
 10
-14.650677497841322
 20
-10.0
 10
-14.664640936936431
 20
-10.0
 10
-14.678604376031542
 20
-10.0
 10
-14.692130509393502
 20
-10.0
 10
-14.705073568444597
 20
-10.0
 10
-14.71801662749569
 20
-10.0
 10
-14.730959686546784
 20
-10.0
 10
-14.743025381340264
 20
-10.0
 10
-14.754944848757475
 20
-10.0
 10
-14.766864316174685
 20
-10.0
 10
-14.778490483809696
 20
-10.0
 10
-14.789383401989209
 20
-10.0
 10
-14.800276320168722
 20
-10.0
 10
-14.811169238348235
 20
-10.0
 10
-14.821326976440906
 20
-10.0
 10
-14.831190642498841
 20
-10.0
 10
-14.841054308556775
 20
-10.0
 10
-14.850770588955445
 20
-10.0
 10
-14.859602555398526
 20
-10.0
 10
-14.868434521841607
 20
-10.0
 10
-14.87726648828469
 20
-10.0
 10
-14.885507659807645
 20
-10.0
 10
-14.893305735140506
 20
-10.0
 10
-14.90110381047337
 20
-10.0
 10
-14.90890188580623
 20
-10.0
 10
-14.915664135075192
 20
-10.0
 10
-14.922426384344153
 20
-10.0
 10
-14.929188633613116
 20
-10.0
 10
-14.935506238312461
 20
-10.0
 10
-14.941230983585656
 20
-10.0
 10
-14.94695572885885
 20
-10.0
 10
-14.952680474132043
 20
-10.0
 10
-14.957514712699975
 20
-10.0
 10
-14.962200533483696
 20
-10.0
 10
-14.966886354267416
 20
-10.0
 10
-14.971275007281836
 20
-10.0
 10
-14.974920740873007
 20
-10.0
 10
-14.978566474464179
 20
-10.0
 10
-14.98221220805535
 20
-10.0
 10
-14.985114376063313
 20
-10.0
 10
-14.987719117837997
 20
-10.0
 10
-14.99032385961268
 20
-10.0
 10
-14.992779795939246
 20
-10.0
 10
-14.994342899577102
 20
-10.0
 10
-14.995906003214959
 20
-10.0
 10
-14.997469106852815
 20
-10.0
 10
-14.998436767065993
 20
-10.0
 10
-14.998957844710663
 20
-10.0
 10
-14.999478922355332
 20
-10.0
 10
-15.0
 20
-10.0
  0
LWPOLYLINE
  5
48
330
17
100
AcDbEntity
  8
0
100
AcDbPolyline
 90
51
 70
0
 10
15.000000000000002
 20
-10.0
 10
14.999478922355333
 20
-10.0
 10
14.998957844710665
 20
-10.0
 10
14.998436767065995
 20
-10.0
 10
14.997469106852817
 20
-10.0
 10
14.995906003214962
 20
-10.0
 10
14.994342899577106
 20
-10.0
 10
14.99277979593925
 20
-10.0
 10
14.990323859612687
 20
-10.0
 10
14.987719117838006
 20
-10.0
 10
14.985114376063324
 20
-10.0
 10
14.982212208055362
 20
-10.0
 10
14.978566474464191
 20
-10.0
 10
14.974920740873022
 20
-10.0
 10
14.971275007281854
 20
-10.0
 10
14.966886354267436
 20
-10.0
 10
14.962200533483719
 20
-10.0
 10
14.9575147127
 20
-10.0
 10
14.952680474132073
 20
-10.0
 10
14.946955728858883
 20
-10.0
 10
14.941230983585694
 20
-10.0
 10
14.935506238312504
 20
-10.0
 10
14.92918863361316
 20
-10.0
 10
14.922426384344202
 20
-10.0
 10
14.915664135075245
 20
-10.0
 10
14.908901885806287
 20
-10.0
 10
14.90110381047343
 20
-10.0
 10
14.893305735140572
 20
-10.0
 10
14.885507659807715
 20
-10.0
 10
14.877266488284764
 20
-10.0
 10
14.868434521841687
 20
-10.0
 10
14.859602555398611
 20
-10.0
 10
14.850770588955536
 20
-10.0
 10
14.84105430855687
 20
-10.0
 10
14.831190642498942
 20
-10.0
 10
14.821326976441012
 20
-10.0
 10
14.811169238348349
 20
-10.0
 10
14.800276320168841
 20
-10.0
 10
14.789383401989335
 20
-10.0
 10
14.778490483809827
 20
-10.0
 10
14.766864316174825
 20
-10.0
 10
14.754944848757622
 20
-10.0
 10
14.74302538134042
 20
-10.0
 10
14.730959686546948
 20
-10.0
 10
14.718016627495858
 20
-10.0
 10
14.705073568444773
 20
-10.0
 10
14.692130509393685
 20
-10.0
 10
14.678604376031732
 20
-10.0
 10
14.66464093693663
 20
-10.0
 10
14.650677497841528
 20
-10.0
 10
14.636714058746428
 20
-10.0
  0
LWPOLYLINE
  5
49
330
17
100
AcDbEntity
  8
0
100
AcDbPolyline
 90
51
 70
0
 10
0.0
 20
-14.0
 10
-0.25080042647140965
 20
-14.0
 10
-0.5016008529428193
 20
-14.0
 10
-0.7524012794142289
 20
-14.0
 10
-1.0018500083653492
 20
-14.0
 10
-1.2494964739560839
 20
-14.0
 10
-1.4971429395468183
 20
-14.0
 10
-1.7447894051375532
 20
-14.0
 10
-1.9870630774083125
 20
-14.0
 10
-2.2284412841257426
 20
-14.0
 10
-2.4698194908431725
 20
-14.0
 10
-2.708539489025267
 20
-14.0
 10
-2.940613965869023
 20
-14.0
 10
-3.1726884427127793
 20
-14.0
 10
-3.4047629195565348
 20
-14.0
 10
-3.62810725277691
 20
-14.0
 10
-3.8479595285479347
 20
-14.0
 10
-4.067811804318959
 20
-14.0
 10
-4.2855230842325795
 20
-14.0
 10
-4.490388389001788
 20
-14.0
 10
-4.695253693770998
 20
-14.0
 10
-4.900118998540207
 20
-14.0
 10
-5.09494814840947
 20
-14.0
 10
-5.282250182103773
 20
-14.0
 10
-5.4695522157980765
 20
-14.0
 10
-5.656854249492381
 20
-14.0
 10
-5.824237580362901
 20
-14.0
 10
-5.991620911233421
 20
-14.0
 10
-6.159004242103942
 20
-14.0
 10
-6.316948867834083
 20
-14.0
 10
-6.462308553377052
 20
-14.0
 10
-6.607668238920022
 20
-14.0
 10
-6.753027924462992
 20
-14.0
 10
-6.877943357680612
 20
-14.0
 10
-6.999451415510675
 20
-14.0
 10
-7.120959473340737
 20
-14.0
 10
-7.235216199159161
 20
-14.0
 10
-7.331344594948485
 20
-14.0
 10
-7.427472990737809
 20
-14.0
 10
-7.523601386527133
 20
-14.0
 10
-7.60073797346447
 20
-14.0
 10
-7.670277836861011
 20
-14.0
 10
-7.739817700257554
 20
-14.0
 10
-7.805434272722243
 20
-14.0
 10
-7.847511099595821
 20
-14.0
 10
-7.8895879264694
 20
-14.0
 10
-7.931664753342979
 20
-14.0
 10
-7.957746050482591
 20
-14.0
 10
-7.971830700321727
 20
-14.0
 10
-7.985915350160863
 20
-14.0
 10
-8.0
 20
-14.0
  0
LWPOLYLINE
  5
4A
330
17
100
AcDbEntity
  8
0
100
AcDbPolyline
 90
51
 70
0
 10
8.0
 20
-14.0
 10
7.985915350160863
 20
-14.0
 10
7.971830700321727
 20
-14.0
 10
7.95774605048259
 20
-14.0
 10
7.931664753342979
 20
-14.0
 10
7.8895879264694
 20
-14.0
 10
7.847511099595822
 20
-14.0
 10
7.805434272722244
 20
-14.0
 10
7.739817700257553
 20
-14.0
 10
7.670277836861011
 20
-14.0
 10
7.60073797346447
 20
-14.0
 10
7.523601386527134
 20
-14.0
 10
7.427472990737811
 20
-14.0
 10
7.331344594948484
 20
-14.0
 10
7.235216199159161
 20
-14.0
 10
7.120959473340738
 20
-14.0
 10
6.999451415510676
 20
-14.0
 10
6.877943357680611
 20
-14.0
 10
6.753027924462991
 20
-14.0
 10
6.607668238920022
 20
-14.0
 10
6.462308553377053
 20
-14.0
 10
6.316948867834084
 20
-14.0
 10
6.1590042421039435
 20
-14.0
 10
5.991620911233425
 20
-14.0
 10
5.824237580362901
 20
-14.0
 10
5.6568542494923815
 20
-14.0
 10
5.469552215798079
 20
-14.0
 10
5.282250182103777
 20
-14.0
 10
5.094948148409469
 20
-14.0
 10
4.900118998540208
 20
-14.0
 10
4.695253693771
 20
-14.0
 10
4.490388389001792
 20
-14.0
 10
4.285523084232583
 20
-14.0
 10
4.067811804318957
 20
-14.0
 10
3.8479595285479347
 20
-14.0
 10
3.6281072527769123
 20
-14.0
 10
3.404762919556538
 20
-14.0
 10
3.1726884427127766
 20
-14.0
 10
2.940613965869022
 20
-14.0
 10
2.7085394890252674
 20
-14.0
 10
2.4698194908431743
 20
-14.0
 10
2.2284412841257457
 20
-14.0
 10
1.9870630774083171
 20
-14.0
 10
1.7447894051375592
 20
-14.0
 10
1.497142939546819
 20
-14.0
 10
1.2494964739560857
 20
-14.0
 10
1.0018500083653523
 20
-14.0
 10
0.7524012794142264
 20
-14.0
 10
0.5016008529428182
 20
-14.0
 10
0.25080042647141
 20
-14.0
 10
1.959434878635765e-15
 20
-14.0
  0
ENDSEC
  0
SECTION
  2
OBJECTS
  0
DICTIONARY
  5
A
330
0
100
AcDbDictionary
280
0
281
1
  3
ACAD_COLOR
350
B
  3
ACAD_GROUP
350
C
  3
ACAD_LAYOUT
350
D
  3
ACAD_MATERIAL
350
E
  3
ACAD_MLEADERSTYLE
350
F
  3
ACAD_MLINESTYLE
350
10
  3
ACAD_PLOTSETTINGS
350
11
  3
ACAD_PLOTSTYLENAME
350
12
  3
ACAD_SCALELIST
350
14
  3
ACAD_TABLESTYLE
350
15
  3
ACAD_VISUALSTYLE
350
16
  3
EZDXF_META
350
2D
  0
DICTIONARY
  5
B
330
A
100
AcDbDictionary
280
0
281
1
  0
DICTIONARY
  5
C
330
A
100
AcDbDictionary
280
0
281
1
  0
DICTIONARY
  5
D
330
A
100
AcDbDictionary
280
0
281
1
  3
Model
350
1A
  3
Layout1
350
1E
  0
DICTIONARY
  5
E
330
A
100
AcDbDictionary
280
0
281
1
  3
ByBlock
350
1F
  3
ByLayer
350
20
  3
Global
350
21
  0
DICTIONARY
  5
F
330
A
100
AcDbDictionary
280
0
281
1
  3
Standard
350
2C
  0
DICTIONARY
  5
10
330
A
100
AcDbDictionary
280
0
281
1
  3
Standard
350
22
  0
DICTIONARY
  5
11
330
A
100
AcDbDictionary
280
0
281
1
  0
ACDBDICTIONARYWDFLT
  5
12
330
A
100
AcDbDictionary
280
0
281
1
  3
Normal
350
13
100
AcDbDictionaryWithDefault
340
13
  0
ACDBPLACEHOLDER
  5
13
330
12
  0
DICTIONARY
  5
14
330
A
100
AcDbDictionary
280
0
281
1
  0
DICTIONARY
  5
15
330
A
100
AcDbDictionary
280
0
281
1
  0
DICTIONARY
  5
16
330
A
100
AcDbDictionary
280
0
281
1
  0
LAYOUT
  5
1A
330
D
100
AcDbPlotSettings
  1

  2
Adobe PDF
  4
A3
  6

 40
7.5
 41
20.0
 42
7.5
 43
20.0
 44
420.0
 45
297.0
 46
0.0
 47
0.0
 48
0.0
 49
0.0
140
0.0
141
0.0
142
1.0
143
1.0
 70
1024
 72
1
 73
0
 74
5
  7

 75
16
 76
0
 77
2
 78
300
147
1.0
148
0.0
149
0.0
100
AcDbLayout
  1
Model
 70
1
 71
0
 10
0.0
 20
0.0
 11
420.0
 21
297.0
 12
0.0
 22
0.0
 32
0.0
 14
1e+20
 24
1e+20
 34
1e+20
 15
-1e+20
 25
-1e+20
 35
-1e+20
146
0.0
 13
0.0
 23
0.0
 33
0.0
 16
1.0
 26
0.0
 36
0.0
 17
0.0
 27
1.0
 37
0.0
 76
1
330
17
  0
LAYOUT
  5
1E
330
D
100
AcDbPlotSettings
  1

  2
Adobe PDF
  4
A3
  6

 40
7.5
 41
20.0
 42
7.5
 43
20.0
 44
420.0
 45
297.0
 46
0.0
 47
0.0
 48
0.0
 49
0.0
140
0.0
141
0.0
142
1.0
143
1.0
 70
0
 72
1
 73
0
 74
5
  7

 75
16
 76
0
 77
2
 78
300
147
1.0
148
0.0
149
0.0
100
AcDbLayout
  1
Layout1
 70
1
 71
1
 10
0.0
 20
0.0
 11
420.0
 21
297.0
 12
0.0
 22
0.0
 32
0.0
 14
1e+20
 24
1e+20
 34
1e+20
 15
-1e+20
 25
-1e+20
 35
-1e+20
146
0.0
 13
0.0
 23
0.0
 33
0.0
 16
1.0
 26
0.0
 36
0.0
 17
0.0
 27
1.0
 37
0.0
 76
1
330
1B
  0
MATERIAL
  5
1F
102
{ACAD_REACTORS
330
E
102
}
330
E
100
AcDbMaterial
  1
ByBlock
  2

 70
0
 40
1.0
 71
1
 41
1.0
 91
-1023410177
 42
1.0
 72
1
  3

 73
1
 74
1
 75
1
 44
0.5
 73
0
 45
1.0
 46
1.0
 77
1
  4

 78
1
 79
1
170
1
 48
1.0
171
1
  6

172
1
173
1
174
1
140
1.0
141
1.0
175
1
  7

176
1
177
1
178
1
143
1.0
179
1
  8

270
1
271
1
272
1
145
1.0
146
1.0
273
1
  9

274
1
275
1
276
1
 42
1.0
 72
1
  3

 73
1
 74
1
 75
1
 94
63
  0
MATERIAL
  5
20
102
{ACAD_REACTORS
330
E
102
}
330
E
100
AcDbMaterial
  1
ByLayer
  2

 70
0
 40
1.0
 71
1
 41
1.0
 91
-1023410177
 42
1.0
 72
1
  3

 73
1
 74
1
 75
1
 44
0.5
 73
0
 45
1.0
 46
1.0
 77
1
  4

 78
1
 79
1
170
1
 48
1.0
171
1
  6

172
1
173
1
174
1
140
1.0
141
1.0
175
1
  7

176
1
177
1
178
1
143
1.0
179
1
  8

270
1
271
1
272
1
145
1.0
146
1.0
273
1
  9

274
1
275
1
276
1
 42
1.0
 72
1
  3

 73
1
 74
1
 75
1
 94
63
  0
MATERIAL
  5
21
102
{ACAD_REACTORS
330
E
102
}
330
E
100
AcDbMaterial
  1
Global
  2

 70
0
 40
1.0
 71
1
 41
1.0
 91
-1023410177
 42
1.0
 72
1
  3

 73
1
 74
1
 75
1
 44
0.5
 73
0
 45
1.0
 46
1.0
 77
1
  4

 78
1
 79
1
170
1
 48
1.0
171
1
  6

172
1
173
1
174
1
140
1.0
141
1.0
175
1
  7

176
1
177
1
178
1
143
1.0
179
1
  8

270
1
271
1
272
1
145
1.0
146
1.0
273
1
  9

274
1
275
1
276
1
 42
1.0
 72
1
  3

 73
1
 74
1
 75
1
 94
63
  0
MLINESTYLE
  5
22
102
{ACAD_REACTORS
330
10
102
}
330
10
100
AcDbMlineStyle
  2
Standard
 70
0
  3

 62
256
 51
90.0
 52
90.0
 71
2
 49
0.5
 62
256
  6
BYLAYER
 49
-0.5
 62
256
  6
BYLAYER
  0
MLEADERSTYLE
  5
2C
102
{ACAD_REACTORS
330
F
102
}
330
F
100
AcDbMLeaderStyle
179
2
170
2
171
1
172
0
 90
2
 40
0.0
 41
0.0
173
1
 91
-1056964608
 92
-2
290
1
 42
2.0
291
1
 43
8.0
  3
Standard
 44
4.0
300

342
29
174
1
175
1
176
0
178
1
 93
-1056964608
 45
4.0
292
0
297
0
 46
4.0
 94
-1056964608
 47
1.0
 49
1.0
140
1.0
294
1
141
0.0
177
0
142
1.0
295
0
296
0
143
3.75
271
0
272
9
273
9
  0
DICTIONARY
  5
2D
330
A
100
AcDbDictionary
281
1
  3
CREATED_BY_EZDXF
350
2E
  3
WRITTEN_BY_EZDXF
350
4D
  0
DICTIONARYVAR
  5
2E
330
2D
100
DictionaryVariables
280
0
  1
1.0.3 @ 2025-05-29T09:41:26.045403+00:00
  0
DICTIONARYVAR
  5
4D
330
2D
100
DictionaryVariables
280
0
  1
1.0.3 @ 2025-05-29T09:41:26.051838+00:00
  0
ENDSEC
  0
EOF
