  0
SECTION
  2
HEADER
  9
$ACADVER
  1
AC1027
  9
$ACADMAINTVER
 70
105
  9
$DWGCODEPAGE
  3
ANSI_1252
  9
$LASTSAVEDBY
  1
ezdxf
  9
$REQUIREDVERSIONS
160
0
  9
$INSBASE
 10
0.0
 20
0.0
 30
0.0
  9
$EXTMIN
 10
1e+20
 20
1e+20
 30
1e+20
  9
$EXTMAX
 10
-1e+20
 20
-1e+20
 30
-1e+20
  9
$LIMMIN
 10
0.0
 20
0.0
  9
$LIMMAX
 10
420.0
 20
297.0
  9
$ORTHOMODE
 70
0
  9
$REGENMODE
 70
1
  9
$FILLMODE
 70
1
  9
$QTEXTMODE
 70
0
  9
$MIRRTEXT
 70
1
  9
$LTSCALE
 40
1.0
  9
$ATTMODE
 70
1
  9
$TEXTSIZE
 40
2.5
  9
$TRACEWID
 40
1.0
  9
$TEXTSTYLE
  7
Standard
  9
$CLAYER
  8
0
  9
$CELTYPE
  6
ByLayer
  9
$CECOLOR
 62
256
  9
$CELTSCALE
 40
1.0
  9
$DISPSILH
 70
0
  9
$DIMSCALE
 40
1.0
  9
$DIMASZ
 40
2.5
  9
$DIMEXO
 40
0.625
  9
$DIMDLI
 40
3.75
  9
$DIMRND
 40
0.0
  9
$DIMDLE
 40
0.0
  9
$DIMEXE
 40
1.25
  9
$DIMTP
 40
0.0
  9
$DIMTM
 40
0.0
  9
$DIMTXT
 40
2.5
  9
$DIMCEN
 40
2.5
  9
$DIMTSZ
 40
0.0
  9
$DIMTOL
 70
0
  9
$DIMLIM
 70
0
  9
$DIMTIH
 70
0
  9
$DIMTOH
 70
0
  9
$DIMSE1
 70
0
  9
$DIMSE2
 70
0
  9
$DIMTAD
 70
1
  9
$DIMZIN
 70
8
  9
$DIMBLK
  1

  9
$DIMASO
 70
1
  9
$DIMSHO
 70
1
  9
$DIMPOST
  1

  9
$DIMAPOST
  1

  9
$DIMALT
 70
0
  9
$DIMALTD
 70
3
  9
$DIMALTF
 40
0.03937007874
  9
$DIMLFAC
 40
1.0
  9
$DIMTOFL
 70
1
  9
$DIMTVP
 40
0.0
  9
$DIMTIX
 70
0
  9
$DIMSOXD
 70
0
  9
$DIMSAH
 70
0
  9
$DIMBLK1
  1

  9
$DIMBLK2
  1

  9
$DIMSTYLE
  2
ISO-25
  9
$DIMCLRD
 70
0
  9
$DIMCLRE
 70
0
  9
$DIMCLRT
 70
0
  9
$DIMTFAC
 40
1.0
  9
$DIMGAP
 40
0.625
  9
$DIMJUST
 70
0
  9
$DIMSD1
 70
0
  9
$DIMSD2
 70
0
  9
$DIMTOLJ
 70
0
  9
$DIMTZIN
 70
8
  9
$DIMALTZ
 70
0
  9
$DIMALTTZ
 70
0
  9
$DIMUPT
 70
0
  9
$DIMDEC
 70
2
  9
$DIMTDEC
 70
2
  9
$DIMALTU
 70
2
  9
$DIMALTTD
 70
3
  9
$DIMTXSTY
  7
Standard
  9
$DIMAUNIT
 70
0
  9
$DIMADEC
 70
0
  9
$DIMALTRND
 40
0.0
  9
$DIMAZIN
 70
0
  9
$DIMDSEP
 70
44
  9
$DIMATFIT
 70
3
  9
$DIMFRAC
 70
0
  9
$DIMLDRBLK
  1

  9
$DIMLUNIT
 70
2
  9
$DIMLWD
 70
-2
  9
$DIMLWE
 70
-2
  9
$DIMTMOVE
 70
0
  9
$DIMFXL
 40
1.0
  9
$DIMFXLON
 70
0
  9
$DIMJOGANG
 40
0.785398163397
  9
$DIMTFILL
 70
0
  9
$DIMTFILLCLR
 70
0
  9
$DIMARCSYM
 70
0
  9
$DIMLTYPE
  6

  9
$DIMLTEX1
  6

  9
$DIMLTEX2
  6

  9
$DIMTXTDIRECTION
 70
0
  9
$LUNITS
 70
2
  9
$LUPREC
 70
4
  9
$SKETCHINC
 40
1.0
  9
$FILLETRAD
 40
10.0
  9
$AUNITS
 70
0
  9
$AUPREC
 70
2
  9
$MENU
  1
.
  9
$ELEVATION
 40
0.0
  9
$PELEVATION
 40
0.0
  9
$THICKNESS
 40
0.0
  9
$LIMCHECK
 70
0
  9
$CHAMFERA
 40
0.0
  9
$CHAMFERB
 40
0.0
  9
$CHAMFERC
 40
0.0
  9
$CHAMFERD
 40
0.0
  9
$SKPOLY
 70
0
  9
$TDCREATE
 40
2460825.778773148
  9
$TDUCREATE
 40
2458532.153996898
  9
$TDUPDATE
 40
2460825.778773148
  9
$TDUUPDATE
 40
2458532.1544311
  9
$TDINDWG
 40
0.0
  9
$TDUSRTIMER
 40
0.0
  9
$USRTIMER
 70
1
  9
$ANGBASE
 50
0.0
  9
$ANGDIR
 70
0
  9
$PDMODE
 70
0
  9
$PDSIZE
 40
0.0
  9
$PLINEWID
 40
0.0
  9
$SPLFRAME
 70
0
  9
$SPLINETYPE
 70
6
  9
$SPLINESEGS
 70
8
  9
$HANDSEED
  5
42
  9
$SURFTAB1
 70
6
  9
$SURFTAB2
 70
6
  9
$SURFTYPE
 70
6
  9
$SURFU
 70
6
  9
$SURFV
 70
6
  9
$UCSBASE
  2

  9
$UCSNAME
  2

  9
$UCSORG
 10
0.0
 20
0.0
 30
0.0
  9
$UCSXDIR
 10
1.0
 20
0.0
 30
0.0
  9
$UCSYDIR
 10
0.0
 20
1.0
 30
0.0
  9
$UCSORTHOREF
  2

  9
$UCSORTHOVIEW
 70
0
  9
$UCSORGTOP
 10
0.0
 20
0.0
 30
0.0
  9
$UCSORGBOTTOM
 10
0.0
 20
0.0
 30
0.0
  9
$UCSORGLEFT
 10
0.0
 20
0.0
 30
0.0
  9
$UCSORGRIGHT
 10
0.0
 20
0.0
 30
0.0
  9
$UCSORGFRONT
 10
0.0
 20
0.0
 30
0.0
  9
$UCSORGBACK
 10
0.0
 20
0.0
 30
0.0
  9
$PUCSBASE
  2

  9
$PUCSNAME
  2

  9
$PUCSORG
 10
0.0
 20
0.0
 30
0.0
  9
$PUCSXDIR
 10
1.0
 20
0.0
 30
0.0
  9
$PUCSYDIR
 10
0.0
 20
1.0
 30
0.0
  9
$PUCSORTHOREF
  2

  9
$PUCSORTHOVIEW
 70
0
  9
$PUCSORGTOP
 10
0.0
 20
0.0
 30
0.0
  9
$PUCSORGBOTTOM
 10
0.0
 20
0.0
 30
0.0
  9
$PUCSORGLEFT
 10
0.0
 20
0.0
 30
0.0
  9
$PUCSORGRIGHT
 10
0.0
 20
0.0
 30
0.0
  9
$PUCSORGFRONT
 10
0.0
 20
0.0
 30
0.0
  9
$PUCSORGBACK
 10
0.0
 20
0.0
 30
0.0
  9
$USERI1
 70
0
  9
$USERI2
 70
0
  9
$USERI3
 70
0
  9
$USERI4
 70
0
  9
$USERI5
 70
0
  9
$USERR1
 40
0.0
  9
$USERR2
 40
0.0
  9
$USERR3
 40
0.0
  9
$USERR4
 40
0.0
  9
$USERR5
 40
0.0
  9
$WORLDVIEW
 70
1
  9
$SHADEDGE
 70
3
  9
$SHADEDIF
 70
70
  9
$TILEMODE
 70
1
  9
$MAXACTVP
 70
64
  9
$PINSBASE
 10
0.0
 20
0.0
 30
0.0
  9
$PLIMCHECK
 70
0
  9
$PEXTMIN
 10
1e+20
 20
1e+20
 30
1e+20
  9
$PEXTMAX
 10
-1e+20
 20
-1e+20
 30
-1e+20
  9
$PLIMMIN
 10
0.0
 20
0.0
  9
$PLIMMAX
 10
420.0
 20
297.0
  9
$UNITMODE
 70
0
  9
$VISRETAIN
 70
1
  9
$PLINEGEN
 70
0
  9
$PSLTSCALE
 70
1
  9
$TREEDEPTH
 70
3020
  9
$CMLSTYLE
  2
Standard
  9
$CMLJUST
 70
0
  9
$CMLSCALE
 40
20.0
  9
$PROXYGRAPHICS
 70
1
  9
$MEASUREMENT
 70
1
  9
$CELWEIGHT
370
-1
  9
$ENDCAPS
280
0
  9
$JOINSTYLE
280
0
  9
$LWDISPLAY
290
0
  9
$INSUNITS
 70
6
  9
$HYPERLINKBASE
  1

  9
$STYLESHEET
  1

  9
$XEDIT
290
1
  9
$CEPSNTYPE
380
0
  9
$PSTYLEMODE
290
1
  9
$FINGERPRINTGUID
  2
{7758F6FA-8EA9-4E83-9189-D770D957BAEC}
  9
$VERSIONGUID
  2
{D5AA9095-8B68-4BAB-B763-4B641B260EB0}
  9
$EXTNAMES
290
1
  9
$PSVPSCALE
 40
0.0
  9
$OLESTARTUP
290
0
  9
$SORTENTS
280
127
  9
$INDEXCTL
280
0
  9
$HIDETEXT
280
1
  9
$XCLIPFRAME
280
0
  9
$HALOGAP
280
0
  9
$OBSCOLOR
 70
257
  9
$OBSLTYPE
280
0
  9
$INTERSECTIONDISPLAY
280
0
  9
$INTERSECTIONCOLOR
 70
257
  9
$DIMASSOC
280
2
  9
$PROJECTNAME
  1

  9
$CAMERADISPLAY
290
0
  9
$LENSLENGTH
 40
50.0
  9
$CAMERAHEIGHT
 40
0.0
  9
$STEPSPERSEC
 40
24.0
  9
$STEPSIZE
 40
100.0
  9
$3DDWFPREC
 40
2.0
  9
$PSOLWIDTH
 40
0.005
  9
$PSOLHEIGHT
 40
0.08
  9
$LOFTANG1
 40
1.570796326795
  9
$LOFTANG2
 40
1.570796326795
  9
$LOFTMAG1
 40
0.0
  9
$LOFTMAG2
 40
0.0
  9
$LOFTPARAM
 70
7
  9
$LOFTNORMALS
280
1
  9
$LATITUDE
 40
37.795
  9
$LONGITUDE
 40
-122.394
  9
$NORTHDIRECTION
 40
0.0
  9
$TIMEZONE
 70
-8000
  9
$LIGHTGLYPHDISPLAY
280
1
  9
$TILEMODELIGHTSYNCH
280
1
  9
$CMATERIAL
347
20
  9
$SOLIDHIST
280
0
  9
$SHOWHIST
280
1
  9
$DWFFRAME
280
2
  9
$DGNFRAME
280
2
  9
$REALWORLDSCALE
290
1
  9
$INTERFERECOLOR
 62
256
  9
$CSHADOW
280
0
  9
$SHADOWPLANELOCATION
 40
0.0
  0
ENDSEC
  0
SECTION
  2
CLASSES
  0
CLASS
  1
ACDBDICTIONARYWDFLT
  2
AcDbDictionaryWithDefault
  3
ObjectDBX Classes
 90
0
 91
0
280
0
281
0
  0
CLASS
  1
SUN
  2
AcDbSun
  3
SCENEOE
 90
1153
 91
0
280
0
281
0
  0
CLASS
  1
VISUALSTYLE
  2
AcDbVisualStyle
  3
ObjectDBX Classes
 90
4095
 91
0
280
0
281
0
  0
CLASS
  1
MATERIAL
  2
AcDbMaterial
  3
ObjectDBX Classes
 90
1153
 91
0
280
0
281
0
  0
CLASS
  1
SCALE
  2
AcDbScale
  3
ObjectDBX Classes
 90
1153
 91
0
280
0
281
0
  0
CLASS
  1
TABLESTYLE
  2
AcDbTableStyle
  3
ObjectDBX Classes
 90
4095
 91
0
280
0
281
0
  0
CLASS
  1
MLEADERSTYLE
  2
AcDbMLeaderStyle
  3
ACDB_MLEADERSTYLE_CLASS
 90
4095
 91
0
280
0
281
0
  0
CLASS
  1
DICTIONARYVAR
  2
AcDbDictionaryVar
  3
ObjectDBX Classes
 90
0
 91
0
280
0
281
0
  0
CLASS
  1
CELLSTYLEMAP
  2
AcDbCellStyleMap
  3
ObjectDBX Classes
 90
1152
 91
0
280
0
281
0
  0
CLASS
  1
MENTALRAYRENDERSETTINGS
  2
AcDbMentalRayRenderSettings
  3
SCENEOE
 90
1024
 91
0
280
0
281
0
  0
CLASS
  1
ACDBDETAILVIEWSTYLE
  2
AcDbDetailViewStyle
  3
ObjectDBX Classes
 90
1025
 91
0
280
0
281
0
  0
CLASS
  1
ACDBSECTIONVIEWSTYLE
  2
AcDbSectionViewStyle
  3
ObjectDBX Classes
 90
1025
 91
0
280
0
281
0
  0
CLASS
  1
RASTERVARIABLES
  2
AcDbRasterVariables
  3
ISM
 90
0
 91
0
280
0
281
0
  0
CLASS
  1
LAYOUT
  2
AcDbLayout
  3
ObjectDBX Classes
 90
0
 91
0
280
0
281
0
  0
CLASS
  1
ACDBPLACEHOLDER
  2
AcDbPlaceHolder
  3
ObjectDBX Classes
 90
0
 91
0
280
0
281
0
  0
ENDSEC
  0
SECTION
  2
TABLES
  0
TABLE
  2
VPORT
  5
8
330
0
100
AcDbSymbolTable
 70
1
  0
VPORT
  5
23
330
8
100
AcDbSymbolTableRecord
100
AcDbViewportTableRecord
  2
*Active
 70
0
 10
0.0
 20
0.0
 11
1.0
 21
1.0
 12
0.0
 22
0.0
 13
0.0
 23
0.0
 14
0.5
 24
0.5
 15
0.5
 25
0.5
 16
0.0
 26
0.0
 36
1.0
 17
0.0
 27
0.0
 37
0.0
 40
1000.0
 41
1.34
 42
50.0
 43
0.0
 44
0.0
 50
0.0
 51
0.0
 71
0
 72
1000
 73
1
 74
3
 75
0
 76
0
 77
0
 78
0
281
0
 65
0
146
0.0
  0
ENDTAB
  0
TABLE
  2
LTYPE
  5
2
330
0
100
AcDbSymbolTable
 70
3
  0
LTYPE
  5
24
330
2
100
AcDbSymbolTableRecord
100
AcDbLinetypeTableRecord
  2
ByBlock
 70
0
  3

 72
65
 73
0
 40
0.0
  0
LTYPE
  5
25
330
2
100
AcDbSymbolTableRecord
100
AcDbLinetypeTableRecord
  2
ByLayer
 70
0
  3

 72
65
 73
0
 40
0.0
  0
LTYPE
  5
26
330
2
100
AcDbSymbolTableRecord
100
AcDbLinetypeTableRecord
  2
Continuous
 70
0
  3

 72
65
 73
0
 40
0.0
  0
ENDTAB
  0
TABLE
  2
LAYER
  5
1
330
0
100
AcDbSymbolTable
 70
2
  0
LAYER
  5
27
330
1
100
AcDbSymbolTableRecord
100
AcDbLayerTableRecord
  2
0
 70
0
 62
7
  6
Continuous
370
-3
390
13
347
21
  0
LAYER
  5
28
330
1
100
AcDbSymbolTableRecord
100
AcDbLayerTableRecord
  2
Defpoints
 70
0
 62
7
  6
Continuous
290
0
370
-3
390
13
347
21
  0
ENDTAB
  0
TABLE
  2
STYLE
  5
5
330
0
100
AcDbSymbolTable
 70
1
  0
STYLE
  5
29
330
5
100
AcDbSymbolTableRecord
100
AcDbTextStyleTableRecord
  2
Standard
 70
0
 40
0.0
 41
1.0
 50
0.0
 71
0
 42
2.5
  3
txt
  4

  0
ENDTAB
  0
TABLE
  2
VIEW
  5
7
330
0
100
AcDbSymbolTable
 70
0
  0
ENDTAB
  0
TABLE
  2
UCS
  5
6
330
0
100
AcDbSymbolTable
 70
0
  0
ENDTAB
  0
TABLE
  2
APPID
  5
3
330
0
100
AcDbSymbolTable
 70
3
  0
APPID
  5
2A
330
3
100
AcDbSymbolTableRecord
100
AcDbRegAppTableRecord
  2
ACAD
 70
0
  0
APPID
  5
3F
330
3
100
AcDbSymbolTableRecord
100
AcDbRegAppTableRecord
  2
HATCHBACKGROUNDCOLOR
 70
0
  0
APPID
  5
40
330
3
100
AcDbSymbolTableRecord
100
AcDbRegAppTableRecord
  2
EZDXF
 70
0
  0
ENDTAB
  0
TABLE
  2
DIMSTYLE
  5
4
330
0
100
AcDbSymbolTable
 70
1
100
AcDbDimStyleTable
  0
DIMSTYLE
105
2B
330
4
100
AcDbSymbolTableRecord
100
AcDbDimStyleTableRecord
  2
Standard
 70
0
 40
1.0
 41
2.5
 42
0.625
 43
3.75
 44
1.25
 45
0.0
 46
0.0
 47
0.0
 48
0.0
 49
2.5
140
2.5
141
2.5
142
0.0
143
0.03937007874
144
1.0
145
0.0
146
1.0
147
0.625
148
0.0
 69
0
 70
0
 71
0
 72
0
 73
0
 74
0
 75
0
 76
0
 77
1
 78
8
 79
3
170
0
171
3
172
1
173
0
174
0
175
0
176
0
177
0
178
0
179
2
271
2
272
2
273
2
274
3
275
0
276
0
277
2
278
44
279
0
280
0
281
0
282
0
283
0
284
8
285
0
286
0
288
0
289
3
290
0
371
-2
372
-2
  0
ENDTAB
  0
TABLE
  2
BLOCK_RECORD
  5
9
330
0
100
AcDbSymbolTable
 70
2
  0
BLOCK_RECORD
  5
17
330
9
100
AcDbSymbolTableRecord
100
AcDbBlockTableRecord
  2
*Model_Space
340
1A
 70
0
280
1
281
0
  0
BLOCK_RECORD
  5
1B
330
9
100
AcDbSymbolTableRecord
100
AcDbBlockTableRecord
  2
*Paper_Space
340
1E
 70
0
280
1
281
0
  0
ENDTAB
  0
ENDSEC
  0
SECTION
  2
BLOCKS
  0
BLOCK
  5
18
330
17
100
AcDbEntity
  8
0
100
AcDbBlockBegin
  2
*Model_Space
 70
0
 10
0.0
 20
0.0
 30
0.0
  3
*Model_Space
  1

  0
ENDBLK
  5
19
330
17
100
AcDbEntity
  8
0
100
AcDbBlockEnd
  0
BLOCK
  5
1C
330
1B
100
AcDbEntity
  8
0
100
AcDbBlockBegin
  2
*Paper_Space
 70
0
 10
0.0
 20
0.0
 30
0.0
  3
*Paper_Space
  1

  0
ENDBLK
  5
1D
330
1B
100
AcDbEntity
  8
0
100
AcDbBlockEnd
  0
ENDSEC
  0
SECTION
  2
ENTITIES
  0
LWPOLYLINE
  5
2F
330
17
100
AcDbEntity
  8
0
100
AcDbPolyline
 90
51
 70
0
 10
11.43380586245
 20
14.43149623219
 10
11.387504695160986
 20
14.224960020016153
 10
11.341203527871974
 20
14.018423807842309
 10
11.29490236058296
 20
13.811887595668463
 10
11.248601193293947
 20
13.605351383494616
 10
11.202300026004933
 20
13.39881517132077
 10
11.155998858715918
 20
13.192278959146925
 10
11.109697691426906
 20
12.985742746973079
 10
11.063396524137891
 20
12.779206534799233
 10
11.017095356848879
 20
12.572670322625386
 10
10.970794189559864
 20
12.36613411045154
 10
10.92449302227085
 20
12.159597898277696
 10
10.878191854981837
 20
11.95306168610385
 10
10.831890687692823
 20
11.746525473930003
 10
10.78558952040381
 20
11.539989261756158
 10
10.739288353114796
 20
11.333453049582312
 10
10.692987185825782
 20
11.126916837408466
 10
10.64668601853677
 20
10.920380625234621
 10
10.600384851247755
 20
10.713844413060773
 10
10.55408368395874
 20
10.507308200886929
 10
10.507782516669728
 20
10.300771988713082
 10
10.461481349380714
 20
10.094235776539236
 10
10.415180182091701
 20
9.887699564365391
 10
10.368879014802687
 20
9.681163352191545
 10
10.322577847513674
 20
9.474627140017699
 10
10.27627668022466
 20
9.268090927843854
 10
10.229975512935646
 20
9.061554715670006
 10
10.183674345646633
 20
8.855018503496161
 10
10.137373178357619
 20
8.648482291322315
 10
10.091072011068604
 20
8.441946079148469
 10
10.044770843779592
 20
8.235409866974624
 10
9.998469676490577
 20
8.028873654800776
 10
9.952168509201565
 20
7.8223374426269325
 10
9.90586734191255
 20
7.615801230453086
 10
9.859566174623538
 20
7.409265018279241
 10
9.813265007334524
 20
7.2027288061053945
 10
9.76696384004551
 20
6.996192593931548
 10
9.720662672756497
 20
6.789656381757703
 10
9.674361505467482
 20
6.583120169583856
 10
9.628060338178468
 20
6.376583957410011
 10
9.581759170889455
 20
6.170047745236165
 10
9.535458003600441
 20
5.963511533062318
 10
9.489156836311427
 20
5.756975320888474
 10
9.442855669022414
 20
5.550439108714627
 10
9.3965545017334
 20
5.343902896540781
 10
9.350253334444387
 20
5.137366684366935
 10
9.303952167155373
 20
4.93083047219309
 10
9.25765099986636
 20
4.724294260019244
 10
9.211349832577346
 20
4.517758047845398
 10
9.165048665288332
 20
4.311221835671553
 10
9.118747497999319
 20
4.104685623497707
  0
LWPOLYLINE
  5
30
330
17
100
AcDbEntity
  8
0
100
AcDbPolyline
 90
51
 70
0
 10
7.806247498733449
 20
-1.7499999967208169
 10
7.8324974987187455
 20
-1.6329062843164417
 10
7.858747498704042
 20
-1.5158125719120665
 10
7.884997498689338
 20
-1.3987188595076914
 10
7.911247498674634
 20
-1.2816251471033164
 10
7.937497498659931
 20
-1.1645314346989415
 10
7.963747498645227
 20
-1.0474377222945663
 10
7.989997498630523
 20
-0.9303440098901912
 10
8.01624749861582
 20
-0.813250297485816
 10
8.042497498601117
 20
-0.6961565850814411
 10
8.068747498586413
 20
-0.5790628726770661
 10
8.09499749857171
 20
-0.46196916027269097
 10
8.121247498557006
 20
-0.3448754478683156
 10
8.147497498542302
 20
-0.22778173546394065
 10
8.173747498527598
 20
-0.11068802305956571
 10
8.199997498512895
 20
0.006405689344809451
 10
8.226247498498191
 20
0.12349940174918461
 10
8.252497498483487
 20
0.24059311415355933
 10
8.278747498468784
 20
0.3576868265579347
 10
8.30499749845408
 20
0.47478053896230943
 10
8.331247498439376
 20
0.591874251366685
 10
8.357497498424673
 20
0.7089679637710602
 10
8.383747498409969
 20
0.8260616761754349
 10
8.409997498395265
 20
0.9431553885798101
 10
8.436247498380562
 20
1.0602491009841857
 10
8.462497498365858
 20
1.17734281338856
 10
8.488747498351154
 20
1.2944365257929356
 10
8.51499749833645
 20
1.4115302381973107
 10
8.541247498321747
 20
1.5286239506016854
 10
8.567497498307043
 20
1.6457176630060606
 10
8.59374749829234
 20
1.7628113754104358
 10
8.619997498277636
 20
1.8799050878148105
 10
8.646247498262934
 20
1.996998800219186
 10
8.67249749824823
 20
2.1140925126235612
 10
8.698747498233526
 20
2.231186225027936
 10
8.724997498218823
 20
2.3482799374323116
 10
8.751247498204119
 20
2.4653736498366867
 10
8.777497498189415
 20
2.582467362241061
 10
8.803747498174712
 20
2.699561074645436
 10
8.829997498160008
 20
2.816654787049812
 10
8.856247498145304
 20
2.9337484994541874
 10
8.8824974981306
 20
3.0508422118585625
 10
8.908747498115897
 20
3.1679359242629377
 10
8.934997498101193
 20
3.285029636667313
 10
8.96124749808649
 20
3.402123349071687
 10
8.987497498071786
 20
3.519217061476063
 10
9.013747498057082
 20
3.6363107738804374
 10
9.039997498042379
 20
3.7534044862848126
 10
9.066247498027675
 20
3.8704981986891887
 10
9.092497498012971
 20
3.987591911093563
 10
9.118747497998267
 20
4.104685623497938
  0
LWPOLYLINE
  5
31
330
17
100
AcDbEntity
  8
0
100
AcDbPolyline
 90
51
 70
0
 10
11.43380586245
 20
14.43149623219
 10
11.497864026375963
 20
14.717241307546209
 10
11.561922190301926
 20
15.002986382902417
 10
11.625980354227888
 20
15.288731458258624
 10
11.690038518153852
 20
15.574476533614833
 10
11.754096682079814
 20
15.860221608971042
 10
11.818154846005775
 20
16.14596668432725
 10
11.88221300993174
 20
16.43171175968346
 10
11.946271173857701
 20
16.717456835039666
 10
12.010329337783665
 20
17.003201910395873
 10
12.074387501709626
 20
17.288946985752084
 10
12.13844566563559
 20
17.57469206110829
 10
12.202503829561552
 20
17.860437136464498
 10
12.266561993487514
 20
18.146182211820708
 10
12.330620157413478
 20
18.431927287176915
 10
12.39467832133944
 20
18.717672362533126
 10
12.458736485265403
 20
19.003417437889333
 10
12.522794649191365
 20
19.28916251324554
 10
12.586852813117327
 20
19.57490758860175
 10
12.65091097704329
 20
19.860652663957957
 10
12.714969140969252
 20
20.146397739314168
 10
12.779027304895216
 20
20.432142814670375
 10
12.843085468821178
 20
20.71788789002658
 10
12.90714363274714
 20
21.003632965382792
 10
12.971201796673103
 20
21.289378040739
 10
13.035259960599065
 20
21.575123116095206
 10
13.099318124525029
 20
21.860868191451416
 10
13.16337628845099
 20
22.146613266807623
 10
13.227434452376954
 20
22.43235834216383
 10
13.291492616302916
 20
22.71810341752004
 10
13.355550780228878
 20
23.00384849287625
 10
13.419608944154842
 20
23.289593568232455
 10
13.483667108080803
 20
23.575338643588665
 10
13.547725272006765
 20
23.861083718944872
 10
13.611783435932729
 20
24.14682879430108
 10
13.67584159985869
 20
24.43257386965729
 10
13.739899763784654
 20
24.7183189450135
 10
13.803957927710616
 20
25.004064020369707
 10
13.86801609163658
 20
25.289809095725914
 10
13.932074255562542
 20
25.575554171082125
 10
13.996132419488506
 20
25.861299246438335
 10
14.060190583414467
 20
26.14704432179454
 10
14.124248747340431
 20
26.43278939715075
 10
14.188306911266393
 20
26.718534472506956
 10
14.252365075192355
 20
27.004279547863163
 10
14.316423239118318
 20
27.290024623219374
 10
14.38048140304428
 20
27.57576969857558
 10
14.444539566970242
 20
27.861514773931788
 10
14.508597730896206
 20
28.147259849287998
 10
14.572655894822168
 20
28.43300492464421
 10
14.63671405874813
 20
28.718750000000412
  0
LWPOLYLINE
  5
32
330
17
100
AcDbEntity
  8
0
100
AcDbPolyline
 90
51
 70
0
 10
9.877023540466695
 20
13.836343663734793
 10
9.909537614136214
 20
13.814087353984418
 10
9.94290321891425
 20
13.79312918784118
 10
9.977068554422106
 20
13.773501703032185
 10
10.011980578692482
 20
13.755235371390713
 10
10.04758509051757
 20
13.738358551548432
 10
10.083826813596877
 20
13.722897444908398
 10
10.120649482354143
 20
13.70887605496716
 10
10.157995929290115
 20
13.69631615004912
 10
10.195808173735566
 20
13.68523722951104
 10
10.234027511866763
 20
13.675656493469127
 10
10.272594607843645
 20
13.667588816095702
 10
10.311449585929202
 20
13.661046722526933
 10
10.35053212344706
 20
13.656040369417454
 10
10.389781544432937
 20
13.652577529172069
 10
10.429136913834576
 20
13.650663577879037
 10
10.468537132113928
 20
13.650301486963645
 10
10.507921030104688
 20
13.651491818575051
 10
10.547227463977931
 20
13.654232724713534
 10
10.586395410168423
 20
13.658519950099537
 10
10.625364060114205
 20
13.66434683878002
 10
10.664072914662395
 20
13.671704344461883
 10
10.702461877994626
 20
13.680581044556414
 10
10.7404713509263
 20
13.690963157912945
 10
10.778042323434825
 20
13.702834566214214
 10
10.81511646627315
 20
13.716176839000177
 10
10.851636221526425
 20
13.730969262281457
 10
10.887544891971128
 20
13.747188870697979
 10
10.922786729097982
 20
13.764810483172887
 10
10.957307019661979
 20
13.783806742006375
 10
10.991052170625144
 20
13.804148155348738
 10
11.023969792360175
 20
13.825803142986716
 10
11.056008779985772
 20
13.848738085372048
 10
11.087119392707395
 20
13.87291737581608
 10
11.117253331040253
 20
13.898303475769461
 10
11.146363811794664
 20
13.924856973101049
 10
11.174405640707342
 20
13.952536643285569
 10
11.20133528260586
 20
13.981299513405034
 10
11.22711092899738
 20
14.011100928864554
 10
11.251692562976675
 20
14.04189462271897
 10
11.275042021352714
 20
14.073632787502671
 10
11.297123053897325
 20
14.106266149451073
 10
11.317901379623983
 20
14.139744044998562
 10
11.337344740009323
 20
14.174014499434087
 10
11.355422949074768
 20
14.20902430759234
 10
11.372107940250507
 20
14.244719116455213
 10
11.387373809949086
 20
14.281043509535314
 10
11.40119685778093
 20
14.31794109291052
 10
11.413555623349408
 20
14.355354582776007
 10
11.424430919568271
 20
14.393225894377846
 10
11.433805862449763
 20
14.431496232190053
  0
LWPOLYLINE
  5
33
330
17
100
AcDbEntity
  8
0
100
AcDbPolyline
 90
51
 70
0
 10
-9.877023540466181
 20
13.836343663738514
 10
-9.53090353156948
 20
14.07699818398498
 10
-9.178922720814434
 20
14.308996389870133
 10
-8.821297550407488
 20
14.532195619629363
 10
-8.458247933419463
 20
14.746458622218602
 10
-8.089997118555253
 20
14.951653641713607
 10
-7.716771552872364
 20
15.147654498330093
 10
-7.338800742532689
 20
15.334340666015008
 10
-6.956317111673181
 20
15.51159734656115
 10
-6.569555859482149
 20
15.67931554019957
 10
-6.178754815569146
 20
15.837392112626404
 10
-5.784154293717309
 20
15.985729858422841
 10
-5.385996944108143
 20
16.124237560829283
 10
-4.984527604109548
 20
16.252830047836895
 10
-4.579993147718962
 20
16.371428244562154
 10
-4.172642333754045
 20
16.47995922187199
 10
-3.7627256528843933
 20
16.578356241229883
 10
-3.350495173598272
 20
16.666558795735092
 10
-2.93620438719911
 20
16.744512647329948
 10
-2.520108051927065
 20
16.812169860152274
 10
-2.1024620363015236
 20
16.86948883001233
 10
-1.6835231617808457
 20
16.91643430997642
 10
-1.2635490448361493
 20
16.952977432041067
 10
-0.8427979385361892
 20
16.97909572488474
 10
-0.42152857374079655
 20
16.994773127686056
 10
-5.044853423896711e-13
 20
17.0
 10
0.42152857373978314
 20
16.99477312768608
 10
0.8427979385351776
 20
16.979095724884786
 10
1.263549044835142
 20
16.95297743204114
 10
1.6835231617798438
 20
16.91643430997652
 10
2.1024620363005226
 20
16.869488830012457
 10
2.5201080519260675
 20
16.812169860152416
 10
2.9362043871981154
 20
16.744512647330126
 10
3.350495173597281
 20
16.66655879573529
 10
3.7627256528834057
 20
16.578356241230104
 10
4.172642333753062
 20
16.479959221872235
 10
4.579993147717988
 20
16.371428244562424
 10
4.984527604108583
 20
16.252830047837193
 10
5.385996944107183
 20
16.1242375608296
 10
5.7841542937163615
 20
15.985729858423188
 10
6.178754815568207
 20
15.837392112626773
 10
6.569555859481218
 20
15.679315540199962
 10
6.956317111672263
 20
15.511597346561562
 10
7.338800742531781
 20
15.334340666015446
 10
7.716771552871462
 20
15.147654498330553
 10
8.089997118554361
 20
14.951653641714087
 10
8.458247933418585
 20
14.746458622219107
 10
8.821297550406625
 20
14.532195619629888
 10
9.178922720813585
 20
14.30899638987068
 10
9.530903531568644
 20
14.076998183985546
 10
9.877023540465359
 20
13.8363436637391
  0
LWPOLYLINE
  5
34
330
17
100
AcDbEntity
  8
0
100
AcDbPolyline
 90
51
 70
0
 10
-9.118747497997786
 20
4.104685623498048
 10
-9.165048665286799
 20
4.311221835671893
 10
-9.211349832575813
 20
4.5177580478457395
 10
-9.257650999864827
 20
4.724294260019585
 10
-9.30395216715384
 20
4.930830472193431
 10
-9.350253334442854
 20
5.137366684367277
 10
-9.396554501731867
 20
5.343902896541123
 10
-9.442855669020881
 20
5.5504391087149685
 10
-9.489156836309895
 20
5.756975320888815
 10
-9.535458003598908
 20
5.963511533062661
 10
-9.581759170887922
 20
6.170047745236507
 10
-9.628060338176937
 20
6.376583957410352
 10
-9.67436150546595
 20
6.583120169584198
 10
-9.720662672754964
 20
6.789656381758045
 10
-9.766963840043976
 20
6.99619259393189
 10
-9.81326500733299
 20
7.2027288061057355
 10
-9.859566174622003
 20
7.409265018279582
 10
-9.905867341911017
 20
7.615801230453427
 10
-9.952168509200032
 20
7.822337442627274
 10
-9.998469676489044
 20
8.028873654801119
 10
-10.044770843778059
 20
8.235409866974965
 10
-10.091072011067073
 20
8.44194607914881
 10
-10.137373178356086
 20
8.648482291322656
 10
-10.1836743456451
 20
8.855018503496503
 10
-10.229975512934113
 20
9.061554715670347
 10
-10.276276680223127
 20
9.268090927844195
 10
-10.32257784751214
 20
9.47462714001804
 10
-10.368879014801154
 20
9.681163352191888
 10
-10.415180182090168
 20
9.887699564365732
 10
-10.46148134937918
 20
10.094235776539579
 10
-10.507782516668195
 20
10.300771988713423
 10
-10.55408368395721
 20
10.50730820088727
 10
-10.600384851246222
 20
10.713844413061114
 10
-10.646686018535236
 20
10.92038062523496
 10
-10.692987185824249
 20
11.126916837408807
 10
-10.739288353113263
 20
11.333453049582651
 10
-10.785589520402278
 20
11.5399892617565
 10
-10.83189068769129
 20
11.746525473930344
 10
-10.878191854980304
 20
11.953061686104192
 10
-10.924493022269317
 20
12.159597898278038
 10
-10.970794189558331
 20
12.366134110451883
 10
-11.017095356847346
 20
12.57267032262573
 10
-11.063396524136358
 20
12.779206534799576
 10
-11.109697691425373
 20
12.98574274697342
 10
-11.155998858714387
 20
13.192278959147266
 10
-11.2023000260034
 20
13.398815171321113
 10
-11.248601193292414
 20
13.605351383494959
 10
-11.294902360581426
 20
13.811887595668804
 10
-11.34120352787044
 20
14.01842380784265
 10
-11.387504695159453
 20
14.224960020016496
 10
-11.433805862448468
 20
14.431496232190343
  0
LWPOLYLINE
  5
35
330
17
100
AcDbEntity
  8
0
100
AcDbPolyline
 90
51
 70
0
 10
-14.63671405875
 20
28.71875
 10
-14.572655894824038
 20
28.433004924643793
 10
-14.508597730898074
 20
28.147259849287583
 10
-14.444539566972113
 20
27.861514773931376
 10
-14.380481403046149
 20
27.575769698575165
 10
-14.316423239120187
 20
27.290024623218958
 10
-14.252365075194225
 20
27.00427954786275
 10
-14.188306911268262
 20
26.71853447250654
 10
-14.1242487473423
 20
26.432789397150334
 10
-14.060190583416336
 20
26.147044321794127
 10
-13.996132419490374
 20
25.861299246437916
 10
-13.93207425556441
 20
25.57555417108171
 10
-13.868016091638449
 20
25.289809095725502
 10
-13.803957927712487
 20
25.00406402036929
 10
-13.739899763786523
 20
24.718318945013085
 10
-13.675841599860561
 20
24.432573869656874
 10
-13.611783435934598
 20
24.146828794300667
 10
-13.547725272008636
 20
23.86108371894446
 10
-13.483667108082674
 20
23.57533864358825
 10
-13.41960894415671
 20
23.289593568232043
 10
-13.355550780230748
 20
23.003848492875832
 10
-13.291492616304785
 20
22.718103417519625
 10
-13.227434452378823
 20
22.43235834216342
 10
-13.16337628845286
 20
22.146613266807208
 10
-13.099318124526897
 20
21.860868191451
 10
-13.035259960600936
 20
21.575123116094794
 10
-12.971201796674972
 20
21.289378040738583
 10
-12.90714363274901
 20
21.003632965382376
 10
-12.843085468823048
 20
20.71788789002617
 10
-12.779027304897085
 20
20.43214281466996
 10
-12.714969140971121
 20
20.14639773931375
 10
-12.650910977045159
 20
19.860652663957545
 10
-12.586852813119197
 20
19.574907588601334
 10
-12.522794649193234
 20
19.289162513245127
 10
-12.458736485267272
 20
19.00341743788892
 10
-12.39467832134131
 20
18.71767236253271
 10
-12.330620157415346
 20
18.4319272871765
 10
-12.266561993489384
 20
18.146182211820292
 10
-12.20250382956342
 20
17.860437136464085
 10
-12.138445665637459
 20
17.574692061107875
 10
-12.074387501711495
 20
17.288946985751664
 10
-12.010329337785533
 20
17.00320191039546
 10
-11.946271173859571
 20
16.71745683503925
 10
-11.882213009933608
 20
16.431711759683044
 10
-11.818154846007646
 20
16.145966684326837
 10
-11.754096682081684
 20
15.860221608970628
 10
-11.69003851815572
 20
15.574476533614419
 10
-11.625980354229759
 20
15.288731458258212
 10
-11.561922190303795
 20
15.002986382902003
 10
-11.497864026377833
 20
14.717241307545793
 10
-11.43380586245187
 20
14.431496232189586
  0
LWPOLYLINE
  5
36
330
17
100
AcDbEntity
  8
0
100
AcDbPolyline
 90
51
 70
0
 10
-9.118747497998
 20
4.104685623498
 10
-9.092497497998
 20
3.98759191102804
 10
-9.066247497998
 20
3.8704981985580793
 10
-9.039997497998002
 20
3.7534044860881193
 10
-9.013747497998002
 20
3.636310773618159
 10
-8.987497497998003
 20
3.5192170611481988
 10
-8.961247497998004
 20
3.4021233486782387
 10
-8.934997497998005
 20
3.2850296362082787
 10
-8.908747497998005
 20
3.1679359237383182
 10
-8.882497497998006
 20
3.0508422112683578
 10
-8.856247497998007
 20
2.9337484987983977
 10
-8.829997497998008
 20
2.8166547863284377
 10
-8.803747497998009
 20
2.6995610738584777
 10
-8.77749749799801
 20
2.582467361388517
 10
-8.75124749799801
 20
2.465373648918557
 10
-8.724997497998011
 20
2.3482799364485967
 10
-8.698747497998012
 20
2.2311862239786366
 10
-8.672497497998013
 20
2.1140925115086766
 10
-8.646247497998013
 20
1.9969987990387161
 10
-8.619997497998014
 20
1.879905086568756
 10
-8.593747497998015
 20
1.762811374098796
 10
-8.567497497998016
 20
1.6457176616288356
 10
-8.541247497998016
 20
1.5286239491588756
 10
-8.514997497998017
 20
1.411530236688915
 10
-8.488747497998018
 20
1.294436524218955
 10
-8.462497497998019
 20
1.177342811748995
 10
-8.43624749799802
 20
1.0602490992790345
 10
-8.40999749799802
 20
0.9431553868090745
 10
-8.383747497998021
 20
0.8260616743391145
 10
-8.357497497998022
 20
0.708967961869154
 10
-8.331247497998023
 20
0.591874249399194
 10
-8.304997497998023
 20
0.4747805369292335
 10
-8.278747497998024
 20
0.35768682445927347
 10
-8.252497497998025
 20
0.24059311198931344
 10
-8.226247497998026
 20
0.12349939951935296
 10
-8.199997497998027
 20
0.006405687049392483
 10
-8.173747497998027
 20
-0.11068802542056755
 10
-8.147497497998028
 20
-0.22778173789052758
 10
-8.121247497998029
 20
-0.3448754503604876
 10
-8.09499749799803
 20
-0.46196916283044764
 10
-8.06874749799803
 20
-0.5790628753004077
 10
-8.042497497998031
 20
-0.6961565877703677
 10
-8.016247497998032
 20
-0.8132503002403286
 10
-7.989997497998034
 20
-0.9303440127102887
 10
-7.9637474979980345
 20
-1.0474377251802487
 10
-7.937497497998035
 20
-1.1645314376502087
 10
-7.911247497998036
 20
-1.2816251501201696
 10
-7.884997497998037
 20
-1.3987188625901297
 10
-7.858747497998038
 20
-1.5158125750600897
 10
-7.832497497998038
 20
-1.6329062875300497
 10
-7.806247497998039
 20
-1.7500000000000098
  0
LWPOLYLINE
  5
37
330
17
100
AcDbEntity
  8
0
100
AcDbPolyline
 90
51
 70
0
 10
-11.433805862449747
 20
14.43149623218999
 10
-11.424430919568236
 20
14.393225894377714
 10
-11.413555623349348
 20
14.35535458277581
 10
-11.401196857780837
 20
14.317941092910257
 10
-11.387373809948956
 20
14.28104350953499
 10
-11.372107940250338
 20
14.244719116454831
 10
-11.355422949074551
 20
14.209024307591902
 10
-11.337344740009057
 20
14.174014499433595
 10
-11.31790137962366
 20
14.13974404499802
 10
-11.297123053896943
 20
14.106266149450486
 10
-11.27504202135227
 20
14.07363278750204
 10
-11.251692562976164
 20
14.041894622718303
 10
-11.227110928996797
 20
14.011100928863852
 10
-11.201335282605204
 20
13.981299513404304
 10
-11.174405640706606
 20
13.952536643284814
 10
-11.14636381179385
 20
13.924856973100276
 10
-11.117253331039356
 20
13.898303475768675
 10
-11.087119392706413
 20
13.872917375815284
 10
-11.056008779984703
 20
13.848738085371249
 10
-11.023969792359017
 20
13.825803142985922
 10
-10.991052170623895
 20
13.804148155347951
 10
-10.95730701966064
 20
13.783806742005602
 10
-10.92278672909655
 20
13.764810483172136
 10
-10.887544891969604
 20
13.747188870697254
 10
-10.851636221524808
 20
13.730969262280766
 10
-10.815116466271443
 20
13.716176838999525
 10
-10.778042323433025
 20
13.702834566213607
 10
-10.740471350924413
 20
13.690963157912389
 10
-10.702461877992649
 20
13.680581044555915
 10
-10.66407291466033
 20
13.67170434446145
 10
-10.625364060112055
 20
13.664346838779656
 10
-10.58639541016619
 20
13.658519950099247
 10
-10.547227463975618
 20
13.654232724713326
 10
-10.507921030102299
 20
13.651491818574932
 10
-10.468537132111466
 20
13.65030148696362
 10
-10.429136913832044
 20
13.65066357787911
 10
-10.389781544430338
 20
13.652577529172246
 10
-10.3505321234444
 20
13.656040369417742
 10
-10.311449585926487
 20
13.661046722527336
 10
-10.272594607840878
 20
13.667588816096224
 10
-10.234027511863951
 20
13.675656493469774
 10
-10.195808173732713
 20
13.685237229511817
 10
-10.157995929287228
 20
13.696316150050027
 10
-10.120649482351228
 20
13.708876054968204
 10
-10.083826813593939
 20
13.722897444909584
 10
-10.047585090514618
 20
13.73835855154976
 10
-10.01198057868952
 20
13.755235371392189
 10
-9.977068554419143
 20
13.77350170303381
 10
-9.942903218911294
 20
13.793129187842956
 10
-9.909537614133272
 20
13.814087353986348
 10
-9.877023540463773
 20
13.836343663736878
  0
LWPOLYLINE
  5
38
330
17
100
AcDbEntity
  8
0
100
AcDbPolyline
 90
51
 70
0
 10
9.118747497998186
 20
4.104685623498082
 10
8.92074515510751
 20
4.518883255587151
 10
8.703941038818922
 20
4.9235566811771125
 10
8.46879209547439
 20
5.3178529919160535
 10
8.215793935818374
 20
5.700941150737308
 10
7.945479790425818
 20
6.072013743391471
 10
7.658419385840811
 20
6.430288680189847
 10
7.355217743794681
 20
6.775010844372714
 10
7.036513906034339
 20
7.105453683628188
 10
6.70297958744844
 20
7.420920741407333
 10
6.355317760330157
 20
7.720747124808069
 10
5.994261172760387
 20
8.004300905934087
 10
5.620570804234148
 20
8.270984453775181
 10
5.235034261785138
 20
8.520235693801888
 10
4.838464119988878
 20
8.751529292619676
 10
4.431696208343105
 20
8.96437776518579
 10
4.015587849635024
 20
9.158332502255178
 10
3.591016053008304
 20
9.332984715890017
 10
3.158875665538224
 20
9.48796630103999
 10
2.720077486210744
 20
9.622950611377439
 10
2.2755463462806165
 20
9.737653147752232
 10
1.8262191600544342
 20
9.831832157815251
 10
1.3730429502068762
 20
9.905289145546798
 10
0.9169728517921074
 20
9.957869289615939
 10
0.4589700991571286
 20
9.98946176968908
 10
1.3322676295501878e-15
 20
10.0
 10
-0.45897009915712683
 20
9.989461769689083
 10
-0.9169728517921043
 20
9.95786928961594
 10
-1.3730429502068748
 20
9.905289145546798
 10
-1.826219160054431
 20
9.831832157815251
 10
-2.2755463462806143
 20
9.73765314775223
 10
-2.7200774862107426
 20
9.62295061137744
 10
-3.158875665538223
 20
9.487966301039988
 10
-3.591016053008304
 20
9.332984715890017
 10
-4.015587849635022
 20
9.158332502255178
 10
-4.431696208343104
 20
8.964377765185791
 10
-4.838464119988875
 20
8.751529292619677
 10
-5.235034261785135
 20
8.520235693801888
 10
-5.620570804234146
 20
8.270984453775181
 10
-5.994261172760386
 20
8.004300905934091
 10
-6.355317760330156
 20
7.720747124808071
 10
-6.7029795874484375
 20
7.420920741407335
 10
-7.036513906034336
 20
7.105453683628189
 10
-7.355217743794679
 20
6.7750108443727175
 10
-7.6584193858408085
 20
6.4302886801898484
 10
-7.945479790425816
 20
6.072013743391475
 10
-8.215793935818374
 20
5.700941150737309
 10
-8.468792095474388
 20
5.3178529919160535
 10
-8.70394103881892
 20
4.923556681177117
 10
-8.920745155107507
 20
4.518883255587152
 10
-9.118747497998182
 20
4.104685623498084
  0
LWPOLYLINE
  5
39
330
17
100
AcDbEntity
  8
0
100
AcDbPolyline
 90
51
 70
0
 10
14.636714058746211
 20
28.718749999999833
 10
14.834067254544921
 20
29.77503962110823
 10
14.955292277774905
 20
30.84274769979649
 10
14.999767003746445
 20
31.9163947769606
 10
14.967263188947111
 20
32.990470914660705
 10
14.857947642383479
 20
34.05946397302581
 10
14.672381369520231
 20
35.117887898458775
 10
14.411516693209963
 20
36.16031087796701
 10
14.07669236638904
 20
37.18138321513132
 10
13.669626701621034
 20
38.17586478465399
 10
13.19240875274685
 20
39.13865192458971
 10
12.647487593897093
 20
40.06480362824906
 10
12.037659750886657
 20
40.94956690135804
 10
11.36605484949338
 20
41.788401154341194
 10
10.636119554273506
 20
42.57700150454753
 10
9.851599880339748
 20
43.31132086883269
 10
9.016521968877525
 20
43.987590733118516
 10
8.135171425059125
 20
44.602340492341156
 10
7.212071324393236
 20
45.15241526153523
 10
6.251959000380909
 20
45.63499206664808
 10
5.259761732603226
 20
46.04759433199303
 10
4.240571460009057
 20
46.388104589992274
 10
3.1996186491738245
 20
46.6547753479833
 10
2.1422454516369087
 20
46.846238056320566
 10
1.0738782880737934
 20
46.96151013174819
 10
4.947153797729698e-13
 20
47.0
 10
-1.0738782880728075
 20
46.96151013174826
 10
-2.1422454516359286
 20
46.84623805632071
 10
-3.1996186491728538
 20
46.65477534798352
 10
-4.24057146000811
 20
46.38810458999255
 10
-5.2597617326023
 20
46.04759433199338
 10
-6.251959000380008
 20
45.63499206664849
 10
-7.212071324392369
 20
45.15241526153571
 10
-8.135171425058289
 20
44.602340492341696
 10
-9.01652196887673
 20
43.98759073311912
 10
-9.851599880339002
 20
43.311320868833334
 10
-10.636119554272806
 20
42.577001504548235
 10
-11.366054849492734
 20
41.78840115434195
 10
-12.03765975088607
 20
40.949566901358835
 10
-12.64748759389656
 20
40.06480362824989
 10
-13.19240875274638
 20
39.138651924590576
 10
-13.66962670162063
 20
38.17586478465489
 10
-14.076692366388697
 20
37.18138321513225
 10
-14.41151669320969
 20
36.16031087796796
 10
-14.672381369520025
 20
35.11788789845974
 10
-14.857947642383342
 20
34.05946397302679
 10
-14.967263188947046
 20
32.99047091466169
 10
-14.99976700374645
 20
31.916394776961585
 10
-14.955292277774982
 20
30.842747699797474
 10
-14.834067254545065
 20
29.775039621109208
 10
-14.636714058746428
 20
28.7187500000008
  0
LWPOLYLINE
  5
3A
330
17
100
AcDbEntity
  8
0
100
AcDbPolyline
 90
51
 70
0
 10
12.5
 20
32.0
 10
12.401433766430973
 20
30.4333345804462
 10
12.10728951410789
 20
28.891376410439317
 10
11.622206073603143
 20
27.398443091441525
 10
10.953833500548296
 20
25.978079073728562
 10
10.112712429686843
 20
24.65268434634409
 10
9.112107842767642
 20
23.44316117589139
 10
7.967799871858623
 20
22.368584465302636
 10
6.697834937237459
 20
21.445900931224813
 10
5.322241144563411
 20
20.689661844174758
 10
3.862712429686844
 20
20.11179354631058
 10
2.342266432321557
 20
19.72140936589139
 10
0.7848814941164197
 20
19.524665894646606
 10
-0.7848814941164168
 20
19.524665894646606
 10
-2.342266432321554
 20
19.72140936589139
 10
-3.862712429686841
 20
20.11179354631058
 10
-5.322241144563408
 20
20.689661844174758
 10
-6.6978349372374595
 20
21.445900931224813
 10
-7.96779987185862
 20
22.368584465302632
 10
-9.112107842767642
 20
23.44316117589139
 10
-10.112712429686841
 20
24.652684346344085
 10
-10.953833500548296
 20
25.97807907372856
 10
-11.622206073603143
 20
27.39844309144153
 10
-12.107289514107887
 20
28.89137641043931
 10
-12.401433766430973
 20
30.433334580446193
 10
-12.5
 20
31.999999999999996
 10
-12.401433766430973
 20
33.5666654195538
 10
-12.107289514107888
 20
35.108623589560686
 10
-11.622206073603145
 20
36.601556908558464
 10
-10.953833500548292
 20
38.02192092627145
 10
-10.112712429686844
 20
39.34731565365591
 10
-9.112107842767651
 20
40.556838824108596
 10
-7.96779987185862
 20
41.63141553469737
 10
-6.697834937237454
 20
42.55409906877519
 10
-5.322241144563403
 20
43.31033815582525
 10
-3.862712429686846
 20
43.88820645368942
 10
-2.3422664323215585
 20
44.27859063410861
 10
-0.7848814941164158
 20
44.4753341053534
 10
0.7848814941164097
 20
44.4753341053534
 10
2.3422664323215527
 20
44.27859063410861
 10
3.8627124296868396
 20
43.88820645368942
 10
5.322241144563397
 20
43.31033815582525
 10
6.697834937237459
 20
42.55409906877519
 10
7.967799871858615
 20
41.63141553469737
 10
9.11210784276764
 20
40.55683882410861
 10
10.112712429686841
 20
39.34731565365592
 10
10.953833500548289
 20
38.02192092627145
 10
11.622206073603143
 20
36.60155690855847
 10
12.107289514107887
 20
35.10862358956069
 10
12.401433766430973
 20
33.56666541955381
 10
12.5
 20
32.00000000000001
  0
LWPOLYLINE
  5
3B
330
17
100
AcDbEntity
  8
0
100
AcDbPolyline
 90
51
 70
0
 10
0.0
 20
-8.0
 10
1.002665868514434
 20
-7.936917610515823
 10
1.9895190973188384
 20
-7.748665289029049
 10
2.9449964214774234
 20
-7.438211887106012
 10
3.8540293928137226
 20
-7.010453440350909
 10
4.702282018339785
 20
-6.47213595499958
 10
5.476376847429509
 20
-5.831749019371292
 10
6.164105942206314
 20
-5.099391917989518
 10
6.754623404016121
 20
-4.286614359831972
 10
7.238616419728157
 20
-3.4062343325205813
 10
7.608452130361228
 20
-2.4721359549995796
 10
7.858298005829509
 20
-1.499050516685798
 10
7.9842138274261725
 20
-0.5023241562345082
 10
7.9842138274261725
 20
0.5023241562345072
 10
7.85829800582951
 20
1.4990505166857968
 10
7.608452130361229
 20
2.472135954999577
 10
7.238616419728156
 20
3.4062343325205817
 10
6.75462340401612
 20
4.286614359831975
 10
6.164105942206314
 20
5.099391917989518
 10
5.476376847429511
 20
5.831749019371291
 10
4.702282018339786
 20
6.472135954999579
 10
3.8540293928137217
 20
7.010453440350909
 10
2.944996421477425
 20
7.438211887106011
 10
1.989519097318842
 20
7.748665289029048
 10
1.0026658685144363
 20
7.936917610515822
 10
9.797174393178826e-16
 20
8.0
 10
-1.0026658685144343
 20
7.936917610515823
 10
-1.9895190973188366
 20
7.7486652890290495
 10
-2.9449964214774234
 20
7.438211887106012
 10
-3.854029392813723
 20
7.010453440350909
 10
-4.7022820183397815
 20
6.472135954999582
 10
-5.476376847429507
 20
5.831749019371295
 10
-6.164105942206315
 20
5.099391917989516
 10
-6.754623404016122
 20
4.286614359831971
 10
-7.238616419728158
 20
3.4062343325205773
 10
-7.608452130361228
 20
2.4721359549995805
 10
-7.85829800582951
 20
1.499050516685797
 10
-7.9842138274261725
 20
0.5023241562345057
 10
-7.9842138274261725
 20
-0.5023241562345027
 10
-7.85829800582951
 20
-1.4990505166857941
 10
-7.608452130361229
 20
-2.472135954999578
 10
-7.238616419728159
 20
-3.4062343325205746
 10
-6.75462340401612
 20
-4.286614359831974
 10
-6.164105942206317
 20
-5.099391917989514
 10
-5.476376847429512
 20
-5.83174901937129
 10
-4.702282018339787
 20
-6.472135954999579
 10
-3.854029392813729
 20
-7.010453440350905
 10
-2.944996421477423
 20
-7.438211887106012
 10
-1.9895190973188428
 20
-7.748665289029048
 10
-1.0026658685144372
 20
-7.936917610515822
 10
-1.959434878635765e-15
 20
-8.0
  0
LWPOLYLINE
  5
3C
330
17
100
AcDbEntity
  8
0
100
AcDbPolyline
 90
51
 70
0
 10
4.898587196589413e-16
 20
-4.0
 10
-0.5013329342572171
 20
-3.9684588052579115
 10
-0.9947595486594183
 20
-3.8743326445145247
 10
-1.4724982107387117
 20
-3.719105943553006
 10
-1.92701469640686
 20
-3.505226720175455
 10
-2.351141009169892
 20
-3.23606797749979
 10
-2.738188423714755
 20
-2.915874509685646
 10
-3.0820529711031575
 20
-2.549695958994758
 10
-3.377311702008059
 20
-2.1433071799159884
 10
-3.6193082098640774
 20
-1.7031171662602917
 10
-3.804226065180614
 20
-1.2360679774997902
 10
-3.929149002914755
 20
-0.7495252583428985
 10
-3.9921069137130862
 20
-0.25116207811725283
 10
-3.9921069137130862
 20
0.25116207811725133
 10
-3.929149002914755
 20
0.7495252583428971
 10
-3.8042260651806146
 20
1.236067977499789
 10
-3.6193082098640783
 20
1.7031171662602904
 10
-3.37731170200806
 20
2.143307179915987
 10
-3.0820529711031583
 20
2.549695958994757
 10
-2.738188423714756
 20
2.915874509685645
 10
-2.3511410091698934
 20
3.2360679774997894
 10
-1.9270146964068613
 20
3.5052267201754543
 10
-1.4724982107387115
 20
3.719105943553006
 10
-0.9947595486594214
 20
3.874332644514524
 10
-0.5013329342572186
 20
3.968458805257911
 10
-9.797174393178826e-16
 20
4.0
 10
0.5013329342572167
 20
3.9684588052579115
 10
0.9947595486594195
 20
3.8743326445145243
 10
1.4724982107387095
 20
3.7191059435530067
 10
1.9270146964068626
 20
3.5052267201754534
 10
2.3511410091698917
 20
3.2360679774997902
 10
2.738188423714752
 20
2.915874509685649
 10
3.082052971103157
 20
2.5496959589947585
 10
3.3773117020080607
 20
2.1433071799159857
 10
3.6193082098640788
 20
1.703117166260289
 10
3.804226065180614
 20
1.236067977499791
 10
3.9291490029147544
 20
0.749525258342899
 10
3.9921069137130862
 20
0.2511620781172533
 10
3.9921069137130862
 20
-0.25116207811725083
 10
3.9291490029147544
 20
-0.7495252583429001
 10
3.8042260651806146
 20
-1.2360679774997885
 10
3.61930820986408
 20
-1.7031171662602869
 10
3.3773117020080603
 20
-2.1433071799159866
 10
3.082052971103159
 20
-2.5496959589947568
 10
2.7381884237147536
 20
-2.915874509685647
 10
2.3511410091698934
 20
-3.236067977499789
 10
1.9270146964068648
 20
-3.5052267201754526
 10
1.472498210738712
 20
-3.719105943553006
 10
0.994759548659422
 20
-3.874332644514524
 10
0.5013329342572156
 20
-3.9684588052579115
 10
1.4695761589768238e-15
 20
-4.0
  0
LWPOLYLINE
  5
3D
330
17
100
AcDbEntity
  8
0
100
AcDbPolyline
 90
51
 70
0
 10
9.5
 20
32.0
 10
9.495312323474451
 20
31.70159778875778
 10
9.48125392006858
 20
31.403490064471523
 10
9.45783866372926
 20
31.105971023474115
 10
9.42508966248754
 20
30.80933428113911
 10
9.38303923565381
 20
30.513872582117806
 10
9.331728881922542
 20
30.219877511435616
 10
9.2712092384181
 20
29.927639206732845
 10
9.201540030721997
 20
29.63744607193388
 10
9.12279001393096
 20
29.349584492627322
 10
9.03503690480396
 20
29.064338553438
 10
8.938367305065142
 20
28.78198975766973
 10
8.832876615938389
 20
28.502816749495558
 10
8.718668943997821
 20
28.227095038969587
 10
8.595856998427186
 20
27.95509673013181
 10
8.464561979789496
 20
27.687090252474306
 10
8.324913460416704
 20
27.423340096033705
 10
8.177049256537465
 20
27.16410655037147
 10
8.021115292269144
 20
26.909645447699532
 10
7.857265455608337
 20
26.660207910404758
 10
7.685661446562001
 20
26.416040103221505
 10
7.50647261756906
 20
26.177382990296724
 10
7.319875806369998
 20
25.944472097387447
 10
7.126055161489366
 20
25.717537279425308
 10
6.925201960503409
 20
25.496802493677457
 10
6.7175144212722016
 20
25.2824855787278
 10
6.503197506322544
 20
25.074798039496592
 10
6.282462720574692
 20
24.873944838510635
 10
6.055527902612553
 20
24.680124193630004
 10
5.822617009703276
 20
24.49352738243094
 10
5.583959896778496
 20
24.314338553438
 10
5.339792089595242
 20
24.142734544391665
 10
5.090354552300468
 20
23.978884707730856
 10
4.835893449628525
 20
23.822950743462535
 10
4.576659903966295
 20
23.675086539583297
 10
4.312909747525695
 20
23.535438020210506
 10
4.044903269868192
 20
23.404143001572816
 10
3.7729049610304157
 20
23.28133105600218
 10
3.4971832505044422
 20
23.16712338406161
 10
3.2180102423302674
 20
23.061632694934858
 10
2.9356614465620012
 20
22.96496309519604
 10
2.650415507372681
 20
22.87720998606904
 10
2.362553928066121
 20
22.798459969278007
 10
2.072360793267156
 20
22.728790761581898
 10
1.7801224885643834
 20
22.668271118077456
 10
1.4861274178821944
 20
22.616960764346192
 10
1.1906657188608931
 20
22.574910337512463
 10
0.8940289765258863
 20
22.542161336270738
 10
0.5965099355284791
 20
22.518746079931418
 10
0.2984022112422182
 20
22.50468767652555
 10
1.1634144591899855e-15
 20
22.5
  0
LWPOLYLINE
  5
3E
330
17
100
AcDbEntity
  8
0
100
AcDbPolyline
 90
51
 70
0
 10
1.1634144591899855e-15
 20
22.5
 10
-0.894028976525884
 20
22.542161336270738
 10
-1.7801224885643812
 20
22.668271118077456
 10
-2.6504155073726783
 20
22.87720998606904
 10
-3.49718325050444
 20
23.16712338406161
 10
-4.312909747525693
 20
23.535438020210506
 10
-5.090354552300466
 20
23.978884707730856
 10
-5.822617009703275
 20
24.49352738243094
 10
-6.503197506322543
 20
25.074798039496592
 10
-7.126055161489365
 20
25.717537279425308
 10
-7.6856614465619995
 20
26.416040103221505
 10
-8.177049256537465
 20
27.164106550371475
 10
-8.595856998427184
 20
27.955096730131807
 10
-8.938367305065142
 20
28.78198975766973
 10
-9.201540030721993
 20
29.637446071933873
 10
-9.383039235653808
 20
30.513872582117806
 10
-9.48125392006858
 20
31.403490064471523
 10
-9.495312323474451
 20
32.29840221124221
 10
-9.42508966248754
 20
33.19066571886089
 10
-9.271209238418102
 20
34.07236079326715
 10
-9.03503690480396
 20
34.935661446562
 10
-8.71866894399782
 20
35.77290496103042
 10
-8.324913460416703
 20
36.5766599039663
 10
-7.857265455608338
 20
37.33979208959524
 10
-7.319875806370001
 20
38.055527902612546
 10
-6.717514421272203
 20
38.7175144212722
 10
-6.0555279026125515
 20
39.31987580637
 10
-5.339792089595243
 20
39.857265455608335
 10
-4.576659903966296
 20
40.3249134604167
 10
-3.772904961030421
 20
40.71866894399782
 10
-2.935661446562003
 20
41.03503690480396
 10
-2.0723607932671615
 20
41.271209238418095
 10
-1.1906657188608942
 20
41.42508966248754
 10
-0.29840221124221944
 20
41.49531232347445
 10
0.5965099355284714
 20
41.48125392006858
 10
1.4861274178821908
 20
41.38303923565381
 10
2.3625539280661214
 20
41.20154003072199
 10
3.2180102423302643
 20
40.93836730506514
 10
4.044903269868182
 20
40.59585699842719
 10
4.8358934496285295
 20
40.177049256537465
 10
5.5839598967784925
 20
39.685661446562
 10
6.282462720574687
 20
39.12605516148937
 10
6.925201960503413
 20
38.503197506322536
 10
7.506472617569058
 20
37.82261700970328
 10
8.021115292269144
 20
37.09035455230047
 10
8.464561979789494
 20
36.312909747525694
 10
8.832876615938389
 20
35.49718325050444
 10
9.122790013930958
 20
34.650415507372685
 10
9.331728881922542
 20
33.78012248856439
 10
9.45783866372926
 20
32.89402897652588
 10
9.5
 20
32.0
  0
ENDSEC
  0
SECTION
  2
OBJECTS
  0
DICTIONARY
  5
A
330
0
100
AcDbDictionary
280
0
281
1
  3
ACAD_COLOR
350
B
  3
ACAD_GROUP
350
C
  3
ACAD_LAYOUT
350
D
  3
ACAD_MATERIAL
350
E
  3
ACAD_MLEADERSTYLE
350
F
  3
ACAD_MLINESTYLE
350
10
  3
ACAD_PLOTSETTINGS
350
11
  3
ACAD_PLOTSTYLENAME
350
12
  3
ACAD_SCALELIST
350
14
  3
ACAD_TABLESTYLE
350
15
  3
ACAD_VISUALSTYLE
350
16
  3
EZDXF_META
350
2D
  0
DICTIONARY
  5
B
330
A
100
AcDbDictionary
280
0
281
1
  0
DICTIONARY
  5
C
330
A
100
AcDbDictionary
280
0
281
1
  0
DICTIONARY
  5
D
330
A
100
AcDbDictionary
280
0
281
1
  3
Model
350
1A
  3
Layout1
350
1E
  0
DICTIONARY
  5
E
330
A
100
AcDbDictionary
280
0
281
1
  3
ByBlock
350
1F
  3
ByLayer
350
20
  3
Global
350
21
  0
DICTIONARY
  5
F
330
A
100
AcDbDictionary
280
0
281
1
  3
Standard
350
2C
  0
DICTIONARY
  5
10
330
A
100
AcDbDictionary
280
0
281
1
  3
Standard
350
22
  0
DICTIONARY
  5
11
330
A
100
AcDbDictionary
280
0
281
1
  0
ACDBDICTIONARYWDFLT
  5
12
330
A
100
AcDbDictionary
280
0
281
1
  3
Normal
350
13
100
AcDbDictionaryWithDefault
340
13
  0
ACDBPLACEHOLDER
  5
13
330
12
  0
DICTIONARY
  5
14
330
A
100
AcDbDictionary
280
0
281
1
  0
DICTIONARY
  5
15
330
A
100
AcDbDictionary
280
0
281
1
  0
DICTIONARY
  5
16
330
A
100
AcDbDictionary
280
0
281
1
  0
LAYOUT
  5
1A
330
D
100
AcDbPlotSettings
  1

  2
Adobe PDF
  4
A3
  6

 40
7.5
 41
20.0
 42
7.5
 43
20.0
 44
420.0
 45
297.0
 46
0.0
 47
0.0
 48
0.0
 49
0.0
140
0.0
141
0.0
142
1.0
143
1.0
 70
1024
 72
1
 73
0
 74
5
  7

 75
16
 76
0
 77
2
 78
300
147
1.0
148
0.0
149
0.0
100
AcDbLayout
  1
Model
 70
1
 71
0
 10
0.0
 20
0.0
 11
420.0
 21
297.0
 12
0.0
 22
0.0
 32
0.0
 14
1e+20
 24
1e+20
 34
1e+20
 15
-1e+20
 25
-1e+20
 35
-1e+20
146
0.0
 13
0.0
 23
0.0
 33
0.0
 16
1.0
 26
0.0
 36
0.0
 17
0.0
 27
1.0
 37
0.0
 76
1
330
17
  0
LAYOUT
  5
1E
330
D
100
AcDbPlotSettings
  1

  2
Adobe PDF
  4
A3
  6

 40
7.5
 41
20.0
 42
7.5
 43
20.0
 44
420.0
 45
297.0
 46
0.0
 47
0.0
 48
0.0
 49
0.0
140
0.0
141
0.0
142
1.0
143
1.0
 70
0
 72
1
 73
0
 74
5
  7

 75
16
 76
0
 77
2
 78
300
147
1.0
148
0.0
149
0.0
100
AcDbLayout
  1
Layout1
 70
1
 71
1
 10
0.0
 20
0.0
 11
420.0
 21
297.0
 12
0.0
 22
0.0
 32
0.0
 14
1e+20
 24
1e+20
 34
1e+20
 15
-1e+20
 25
-1e+20
 35
-1e+20
146
0.0
 13
0.0
 23
0.0
 33
0.0
 16
1.0
 26
0.0
 36
0.0
 17
0.0
 27
1.0
 37
0.0
 76
1
330
1B
  0
MATERIAL
  5
1F
102
{ACAD_REACTORS
330
E
102
}
330
E
100
AcDbMaterial
  1
ByBlock
  2

 70
0
 40
1.0
 71
1
 41
1.0
 91
-1023410177
 42
1.0
 72
1
  3

 73
1
 74
1
 75
1
 44
0.5
 73
0
 45
1.0
 46
1.0
 77
1
  4

 78
1
 79
1
170
1
 48
1.0
171
1
  6

172
1
173
1
174
1
140
1.0
141
1.0
175
1
  7

176
1
177
1
178
1
143
1.0
179
1
  8

270
1
271
1
272
1
145
1.0
146
1.0
273
1
  9

274
1
275
1
276
1
 42
1.0
 72
1
  3

 73
1
 74
1
 75
1
 94
63
  0
MATERIAL
  5
20
102
{ACAD_REACTORS
330
E
102
}
330
E
100
AcDbMaterial
  1
ByLayer
  2

 70
0
 40
1.0
 71
1
 41
1.0
 91
-1023410177
 42
1.0
 72
1
  3

 73
1
 74
1
 75
1
 44
0.5
 73
0
 45
1.0
 46
1.0
 77
1
  4

 78
1
 79
1
170
1
 48
1.0
171
1
  6

172
1
173
1
174
1
140
1.0
141
1.0
175
1
  7

176
1
177
1
178
1
143
1.0
179
1
  8

270
1
271
1
272
1
145
1.0
146
1.0
273
1
  9

274
1
275
1
276
1
 42
1.0
 72
1
  3

 73
1
 74
1
 75
1
 94
63
  0
MATERIAL
  5
21
102
{ACAD_REACTORS
330
E
102
}
330
E
100
AcDbMaterial
  1
Global
  2

 70
0
 40
1.0
 71
1
 41
1.0
 91
-1023410177
 42
1.0
 72
1
  3

 73
1
 74
1
 75
1
 44
0.5
 73
0
 45
1.0
 46
1.0
 77
1
  4

 78
1
 79
1
170
1
 48
1.0
171
1
  6

172
1
173
1
174
1
140
1.0
141
1.0
175
1
  7

176
1
177
1
178
1
143
1.0
179
1
  8

270
1
271
1
272
1
145
1.0
146
1.0
273
1
  9

274
1
275
1
276
1
 42
1.0
 72
1
  3

 73
1
 74
1
 75
1
 94
63
  0
MLINESTYLE
  5
22
102
{ACAD_REACTORS
330
10
102
}
330
10
100
AcDbMlineStyle
  2
Standard
 70
0
  3

 62
256
 51
90.0
 52
90.0
 71
2
 49
0.5
 62
256
  6
BYLAYER
 49
-0.5
 62
256
  6
BYLAYER
  0
MLEADERSTYLE
  5
2C
102
{ACAD_REACTORS
330
F
102
}
330
F
100
AcDbMLeaderStyle
179
2
170
2
171
1
172
0
 90
2
 40
0.0
 41
0.0
173
1
 91
-1056964608
 92
-2
290
1
 42
2.0
291
1
 43
8.0
  3
Standard
 44
4.0
300

342
29
174
1
175
1
176
0
178
1
 93
-1056964608
 45
4.0
292
0
297
0
 46
4.0
 94
-1056964608
 47
1.0
 49
1.0
140
1.0
294
1
141
0.0
177
0
142
1.0
295
0
296
0
143
3.75
271
0
272
9
273
9
  0
DICTIONARY
  5
2D
330
A
100
AcDbDictionary
281
1
  3
CREATED_BY_EZDXF
350
2E
  3
WRITTEN_BY_EZDXF
350
41
  0
DICTIONARYVAR
  5
2E
330
2D
100
DictionaryVariables
280
0
  1
1.0.3 @ 2025-05-29T09:41:26.010475+00:00
  0
DICTIONARYVAR
  5
41
330
2D
100
DictionaryVariables
280
0
  1
1.0.3 @ 2025-05-29T09:41:26.014983+00:00
  0
ENDSEC
  0
EOF
