  0
SECTION
  2
HEADER
  9
$ACADVER
  1
AC1027
  9
$ACADMAINTVER
 70
105
  9
$DWGCODEPAGE
  3
ANSI_1252
  9
$LASTSAVEDBY
  1
ezdxf
  9
$REQUIREDVERSIONS
160
0
  9
$INSBASE
 10
0.0
 20
0.0
 30
0.0
  9
$EXTMIN
 10
1e+20
 20
1e+20
 30
1e+20
  9
$EXTMAX
 10
-1e+20
 20
-1e+20
 30
-1e+20
  9
$LIMMIN
 10
0.0
 20
0.0
  9
$LIMMAX
 10
420.0
 20
297.0
  9
$ORTHOMODE
 70
0
  9
$REGENMODE
 70
1
  9
$FILLMODE
 70
1
  9
$QTEXTMODE
 70
0
  9
$MIRRTEXT
 70
1
  9
$LTSCALE
 40
1.0
  9
$ATTMODE
 70
1
  9
$TEXTSIZE
 40
2.5
  9
$TRACEWID
 40
1.0
  9
$TEXTSTYLE
  7
Standard
  9
$CLAYER
  8
0
  9
$CELTYPE
  6
ByLayer
  9
$CECOLOR
 62
256
  9
$CELTSCALE
 40
1.0
  9
$DISPSILH
 70
0
  9
$DIMSCALE
 40
1.0
  9
$DIMASZ
 40
2.5
  9
$DIMEXO
 40
0.625
  9
$DIMDLI
 40
3.75
  9
$DIMRND
 40
0.0
  9
$DIMDLE
 40
0.0
  9
$DIMEXE
 40
1.25
  9
$DIMTP
 40
0.0
  9
$DIMTM
 40
0.0
  9
$DIMTXT
 40
2.5
  9
$DIMCEN
 40
2.5
  9
$DIMTSZ
 40
0.0
  9
$DIMTOL
 70
0
  9
$DIMLIM
 70
0
  9
$DIMTIH
 70
0
  9
$DIMTOH
 70
0
  9
$DIMSE1
 70
0
  9
$DIMSE2
 70
0
  9
$DIMTAD
 70
1
  9
$DIMZIN
 70
8
  9
$DIMBLK
  1

  9
$DIMASO
 70
1
  9
$DIMSHO
 70
1
  9
$DIMPOST
  1

  9
$DIMAPOST
  1

  9
$DIMALT
 70
0
  9
$DIMALTD
 70
3
  9
$DIMALTF
 40
0.03937007874
  9
$DIMLFAC
 40
1.0
  9
$DIMTOFL
 70
1
  9
$DIMTVP
 40
0.0
  9
$DIMTIX
 70
0
  9
$DIMSOXD
 70
0
  9
$DIMSAH
 70
0
  9
$DIMBLK1
  1

  9
$DIMBLK2
  1

  9
$DIMSTYLE
  2
ISO-25
  9
$DIMCLRD
 70
0
  9
$DIMCLRE
 70
0
  9
$DIMCLRT
 70
0
  9
$DIMTFAC
 40
1.0
  9
$DIMGAP
 40
0.625
  9
$DIMJUST
 70
0
  9
$DIMSD1
 70
0
  9
$DIMSD2
 70
0
  9
$DIMTOLJ
 70
0
  9
$DIMTZIN
 70
8
  9
$DIMALTZ
 70
0
  9
$DIMALTTZ
 70
0
  9
$DIMUPT
 70
0
  9
$DIMDEC
 70
2
  9
$DIMTDEC
 70
2
  9
$DIMALTU
 70
2
  9
$DIMALTTD
 70
3
  9
$DIMTXSTY
  7
Standard
  9
$DIMAUNIT
 70
0
  9
$DIMADEC
 70
0
  9
$DIMALTRND
 40
0.0
  9
$DIMAZIN
 70
0
  9
$DIMDSEP
 70
44
  9
$DIMATFIT
 70
3
  9
$DIMFRAC
 70
0
  9
$DIMLDRBLK
  1

  9
$DIMLUNIT
 70
2
  9
$DIMLWD
 70
-2
  9
$DIMLWE
 70
-2
  9
$DIMTMOVE
 70
0
  9
$DIMFXL
 40
1.0
  9
$DIMFXLON
 70
0
  9
$DIMJOGANG
 40
0.785398163397
  9
$DIMTFILL
 70
0
  9
$DIMTFILLCLR
 70
0
  9
$DIMARCSYM
 70
0
  9
$DIMLTYPE
  6

  9
$DIMLTEX1
  6

  9
$DIMLTEX2
  6

  9
$DIMTXTDIRECTION
 70
0
  9
$LUNITS
 70
2
  9
$LUPREC
 70
4
  9
$SKETCHINC
 40
1.0
  9
$FILLETRAD
 40
10.0
  9
$AUNITS
 70
0
  9
$AUPREC
 70
2
  9
$MENU
  1
.
  9
$ELEVATION
 40
0.0
  9
$PELEVATION
 40
0.0
  9
$THICKNESS
 40
0.0
  9
$LIMCHECK
 70
0
  9
$CHAMFERA
 40
0.0
  9
$CHAMFERB
 40
0.0
  9
$CHAMFERC
 40
0.0
  9
$CHAMFERD
 40
0.0
  9
$SKPOLY
 70
0
  9
$TDCREATE
 40
2460825.778773148
  9
$TDUCREATE
 40
2458532.153996898
  9
$TDUPDATE
 40
2460825.778773148
  9
$TDUUPDATE
 40
2458532.1544311
  9
$TDINDWG
 40
0.0
  9
$TDUSRTIMER
 40
0.0
  9
$USRTIMER
 70
1
  9
$ANGBASE
 50
0.0
  9
$ANGDIR
 70
0
  9
$PDMODE
 70
0
  9
$PDSIZE
 40
0.0
  9
$PLINEWID
 40
0.0
  9
$SPLFRAME
 70
0
  9
$SPLINETYPE
 70
6
  9
$SPLINESEGS
 70
8
  9
$HANDSEED
  5
46
  9
$SURFTAB1
 70
6
  9
$SURFTAB2
 70
6
  9
$SURFTYPE
 70
6
  9
$SURFU
 70
6
  9
$SURFV
 70
6
  9
$UCSBASE
  2

  9
$UCSNAME
  2

  9
$UCSORG
 10
0.0
 20
0.0
 30
0.0
  9
$UCSXDIR
 10
1.0
 20
0.0
 30
0.0
  9
$UCSYDIR
 10
0.0
 20
1.0
 30
0.0
  9
$UCSORTHOREF
  2

  9
$UCSORTHOVIEW
 70
0
  9
$UCSORGTOP
 10
0.0
 20
0.0
 30
0.0
  9
$UCSORGBOTTOM
 10
0.0
 20
0.0
 30
0.0
  9
$UCSORGLEFT
 10
0.0
 20
0.0
 30
0.0
  9
$UCSORGRIGHT
 10
0.0
 20
0.0
 30
0.0
  9
$UCSORGFRONT
 10
0.0
 20
0.0
 30
0.0
  9
$UCSORGBACK
 10
0.0
 20
0.0
 30
0.0
  9
$PUCSBASE
  2

  9
$PUCSNAME
  2

  9
$PUCSORG
 10
0.0
 20
0.0
 30
0.0
  9
$PUCSXDIR
 10
1.0
 20
0.0
 30
0.0
  9
$PUCSYDIR
 10
0.0
 20
1.0
 30
0.0
  9
$PUCSORTHOREF
  2

  9
$PUCSORTHOVIEW
 70
0
  9
$PUCSORGTOP
 10
0.0
 20
0.0
 30
0.0
  9
$PUCSORGBOTTOM
 10
0.0
 20
0.0
 30
0.0
  9
$PUCSORGLEFT
 10
0.0
 20
0.0
 30
0.0
  9
$PUCSORGRIGHT
 10
0.0
 20
0.0
 30
0.0
  9
$PUCSORGFRONT
 10
0.0
 20
0.0
 30
0.0
  9
$PUCSORGBACK
 10
0.0
 20
0.0
 30
0.0
  9
$USERI1
 70
0
  9
$USERI2
 70
0
  9
$USERI3
 70
0
  9
$USERI4
 70
0
  9
$USERI5
 70
0
  9
$USERR1
 40
0.0
  9
$USERR2
 40
0.0
  9
$USERR3
 40
0.0
  9
$USERR4
 40
0.0
  9
$USERR5
 40
0.0
  9
$WORLDVIEW
 70
1
  9
$SHADEDGE
 70
3
  9
$SHADEDIF
 70
70
  9
$TILEMODE
 70
1
  9
$MAXACTVP
 70
64
  9
$PINSBASE
 10
0.0
 20
0.0
 30
0.0
  9
$PLIMCHECK
 70
0
  9
$PEXTMIN
 10
1e+20
 20
1e+20
 30
1e+20
  9
$PEXTMAX
 10
-1e+20
 20
-1e+20
 30
-1e+20
  9
$PLIMMIN
 10
0.0
 20
0.0
  9
$PLIMMAX
 10
420.0
 20
297.0
  9
$UNITMODE
 70
0
  9
$VISRETAIN
 70
1
  9
$PLINEGEN
 70
0
  9
$PSLTSCALE
 70
1
  9
$TREEDEPTH
 70
3020
  9
$CMLSTYLE
  2
Standard
  9
$CMLJUST
 70
0
  9
$CMLSCALE
 40
20.0
  9
$PROXYGRAPHICS
 70
1
  9
$MEASUREMENT
 70
1
  9
$CELWEIGHT
370
-1
  9
$ENDCAPS
280
0
  9
$JOINSTYLE
280
0
  9
$LWDISPLAY
290
0
  9
$INSUNITS
 70
6
  9
$HYPERLINKBASE
  1

  9
$STYLESHEET
  1

  9
$XEDIT
290
1
  9
$CEPSNTYPE
380
0
  9
$PSTYLEMODE
290
1
  9
$FINGERPRINTGUID
  2
{A8963B40-3ADD-477C-9FAC-BB7DA2D64C45}
  9
$VERSIONGUID
  2
{615306AC-42E9-4017-8B44-54CBFBC42352}
  9
$EXTNAMES
290
1
  9
$PSVPSCALE
 40
0.0
  9
$OLESTARTUP
290
0
  9
$SORTENTS
280
127
  9
$INDEXCTL
280
0
  9
$HIDETEXT
280
1
  9
$XCLIPFRAME
280
0
  9
$HALOGAP
280
0
  9
$OBSCOLOR
 70
257
  9
$OBSLTYPE
280
0
  9
$INTERSECTIONDISPLAY
280
0
  9
$INTERSECTIONCOLOR
 70
257
  9
$DIMASSOC
280
2
  9
$PROJECTNAME
  1

  9
$CAMERADISPLAY
290
0
  9
$LENSLENGTH
 40
50.0
  9
$CAMERAHEIGHT
 40
0.0
  9
$STEPSPERSEC
 40
24.0
  9
$STEPSIZE
 40
100.0
  9
$3DDWFPREC
 40
2.0
  9
$PSOLWIDTH
 40
0.005
  9
$PSOLHEIGHT
 40
0.08
  9
$LOFTANG1
 40
1.570796326795
  9
$LOFTANG2
 40
1.570796326795
  9
$LOFTMAG1
 40
0.0
  9
$LOFTMAG2
 40
0.0
  9
$LOFTPARAM
 70
7
  9
$LOFTNORMALS
280
1
  9
$LATITUDE
 40
37.795
  9
$LONGITUDE
 40
-122.394
  9
$NORTHDIRECTION
 40
0.0
  9
$TIMEZONE
 70
-8000
  9
$LIGHTGLYPHDISPLAY
280
1
  9
$TILEMODELIGHTSYNCH
280
1
  9
$CMATERIAL
347
20
  9
$SOLIDHIST
280
0
  9
$SHOWHIST
280
1
  9
$DWFFRAME
280
2
  9
$DGNFRAME
280
2
  9
$REALWORLDSCALE
290
1
  9
$INTERFERECOLOR
 62
256
  9
$CSHADOW
280
0
  9
$SHADOWPLANELOCATION
 40
0.0
  0
ENDSEC
  0
SECTION
  2
CLASSES
  0
CLASS
  1
ACDBDICTIONARYWDFLT
  2
AcDbDictionaryWithDefault
  3
ObjectDBX Classes
 90
0
 91
0
280
0
281
0
  0
CLASS
  1
SUN
  2
AcDbSun
  3
SCENEOE
 90
1153
 91
0
280
0
281
0
  0
CLASS
  1
VISUALSTYLE
  2
AcDbVisualStyle
  3
ObjectDBX Classes
 90
4095
 91
0
280
0
281
0
  0
CLASS
  1
MATERIAL
  2
AcDbMaterial
  3
ObjectDBX Classes
 90
1153
 91
0
280
0
281
0
  0
CLASS
  1
SCALE
  2
AcDbScale
  3
ObjectDBX Classes
 90
1153
 91
0
280
0
281
0
  0
CLASS
  1
TABLESTYLE
  2
AcDbTableStyle
  3
ObjectDBX Classes
 90
4095
 91
0
280
0
281
0
  0
CLASS
  1
MLEADERSTYLE
  2
AcDbMLeaderStyle
  3
ACDB_MLEADERSTYLE_CLASS
 90
4095
 91
0
280
0
281
0
  0
CLASS
  1
DICTIONARYVAR
  2
AcDbDictionaryVar
  3
ObjectDBX Classes
 90
0
 91
0
280
0
281
0
  0
CLASS
  1
CELLSTYLEMAP
  2
AcDbCellStyleMap
  3
ObjectDBX Classes
 90
1152
 91
0
280
0
281
0
  0
CLASS
  1
MENTALRAYRENDERSETTINGS
  2
AcDbMentalRayRenderSettings
  3
SCENEOE
 90
1024
 91
0
280
0
281
0
  0
CLASS
  1
ACDBDETAILVIEWSTYLE
  2
AcDbDetailViewStyle
  3
ObjectDBX Classes
 90
1025
 91
0
280
0
281
0
  0
CLASS
  1
ACDBSECTIONVIEWSTYLE
  2
AcDbSectionViewStyle
  3
ObjectDBX Classes
 90
1025
 91
0
280
0
281
0
  0
CLASS
  1
RASTERVARIABLES
  2
AcDbRasterVariables
  3
ISM
 90
0
 91
0
280
0
281
0
  0
CLASS
  1
LAYOUT
  2
AcDbLayout
  3
ObjectDBX Classes
 90
0
 91
0
280
0
281
0
  0
CLASS
  1
ACDBPLACEHOLDER
  2
AcDbPlaceHolder
  3
ObjectDBX Classes
 90
0
 91
0
280
0
281
0
  0
ENDSEC
  0
SECTION
  2
TABLES
  0
TABLE
  2
VPORT
  5
8
330
0
100
AcDbSymbolTable
 70
1
  0
VPORT
  5
23
330
8
100
AcDbSymbolTableRecord
100
AcDbViewportTableRecord
  2
*Active
 70
0
 10
0.0
 20
0.0
 11
1.0
 21
1.0
 12
0.0
 22
0.0
 13
0.0
 23
0.0
 14
0.5
 24
0.5
 15
0.5
 25
0.5
 16
0.0
 26
0.0
 36
1.0
 17
0.0
 27
0.0
 37
0.0
 40
1000.0
 41
1.34
 42
50.0
 43
0.0
 44
0.0
 50
0.0
 51
0.0
 71
0
 72
1000
 73
1
 74
3
 75
0
 76
0
 77
0
 78
0
281
0
 65
0
146
0.0
  0
ENDTAB
  0
TABLE
  2
LTYPE
  5
2
330
0
100
AcDbSymbolTable
 70
3
  0
LTYPE
  5
24
330
2
100
AcDbSymbolTableRecord
100
AcDbLinetypeTableRecord
  2
ByBlock
 70
0
  3

 72
65
 73
0
 40
0.0
  0
LTYPE
  5
25
330
2
100
AcDbSymbolTableRecord
100
AcDbLinetypeTableRecord
  2
ByLayer
 70
0
  3

 72
65
 73
0
 40
0.0
  0
LTYPE
  5
26
330
2
100
AcDbSymbolTableRecord
100
AcDbLinetypeTableRecord
  2
Continuous
 70
0
  3

 72
65
 73
0
 40
0.0
  0
ENDTAB
  0
TABLE
  2
LAYER
  5
1
330
0
100
AcDbSymbolTable
 70
2
  0
LAYER
  5
27
330
1
100
AcDbSymbolTableRecord
100
AcDbLayerTableRecord
  2
0
 70
0
 62
7
  6
Continuous
370
-3
390
13
347
21
  0
LAYER
  5
28
330
1
100
AcDbSymbolTableRecord
100
AcDbLayerTableRecord
  2
Defpoints
 70
0
 62
7
  6
Continuous
290
0
370
-3
390
13
347
21
  0
ENDTAB
  0
TABLE
  2
STYLE
  5
5
330
0
100
AcDbSymbolTable
 70
1
  0
STYLE
  5
29
330
5
100
AcDbSymbolTableRecord
100
AcDbTextStyleTableRecord
  2
Standard
 70
0
 40
0.0
 41
1.0
 50
0.0
 71
0
 42
2.5
  3
txt
  4

  0
ENDTAB
  0
TABLE
  2
VIEW
  5
7
330
0
100
AcDbSymbolTable
 70
0
  0
ENDTAB
  0
TABLE
  2
UCS
  5
6
330
0
100
AcDbSymbolTable
 70
0
  0
ENDTAB
  0
TABLE
  2
APPID
  5
3
330
0
100
AcDbSymbolTable
 70
3
  0
APPID
  5
2A
330
3
100
AcDbSymbolTableRecord
100
AcDbRegAppTableRecord
  2
ACAD
 70
0
  0
APPID
  5
43
330
3
100
AcDbSymbolTableRecord
100
AcDbRegAppTableRecord
  2
HATCHBACKGROUNDCOLOR
 70
0
  0
APPID
  5
44
330
3
100
AcDbSymbolTableRecord
100
AcDbRegAppTableRecord
  2
EZDXF
 70
0
  0
ENDTAB
  0
TABLE
  2
DIMSTYLE
  5
4
330
0
100
AcDbSymbolTable
 70
1
100
AcDbDimStyleTable
  0
DIMSTYLE
105
2B
330
4
100
AcDbSymbolTableRecord
100
AcDbDimStyleTableRecord
  2
Standard
 70
0
 40
1.0
 41
2.5
 42
0.625
 43
3.75
 44
1.25
 45
0.0
 46
0.0
 47
0.0
 48
0.0
 49
2.5
140
2.5
141
2.5
142
0.0
143
0.03937007874
144
1.0
145
0.0
146
1.0
147
0.625
148
0.0
 69
0
 70
0
 71
0
 72
0
 73
0
 74
0
 75
0
 76
0
 77
1
 78
8
 79
3
170
0
171
3
172
1
173
0
174
0
175
0
176
0
177
0
178
0
179
2
271
2
272
2
273
2
274
3
275
0
276
0
277
2
278
44
279
0
280
0
281
0
282
0
283
0
284
8
285
0
286
0
288
0
289
3
290
0
371
-2
372
-2
  0
ENDTAB
  0
TABLE
  2
BLOCK_RECORD
  5
9
330
0
100
AcDbSymbolTable
 70
2
  0
BLOCK_RECORD
  5
17
330
9
100
AcDbSymbolTableRecord
100
AcDbBlockTableRecord
  2
*Model_Space
340
1A
 70
0
280
1
281
0
  0
BLOCK_RECORD
  5
1B
330
9
100
AcDbSymbolTableRecord
100
AcDbBlockTableRecord
  2
*Paper_Space
340
1E
 70
0
280
1
281
0
  0
ENDTAB
  0
ENDSEC
  0
SECTION
  2
BLOCKS
  0
BLOCK
  5
18
330
17
100
AcDbEntity
  8
0
100
AcDbBlockBegin
  2
*Model_Space
 70
0
 10
0.0
 20
0.0
 30
0.0
  3
*Model_Space
  1

  0
ENDBLK
  5
19
330
17
100
AcDbEntity
  8
0
100
AcDbBlockEnd
  0
BLOCK
  5
1C
330
1B
100
AcDbEntity
  8
0
100
AcDbBlockBegin
  2
*Paper_Space
 70
0
 10
0.0
 20
0.0
 30
0.0
  3
*Paper_Space
  1

  0
ENDBLK
  5
1D
330
1B
100
AcDbEntity
  8
0
100
AcDbBlockEnd
  0
ENDSEC
  0
SECTION
  2
ENTITIES
  0
LWPOLYLINE
  5
2F
330
17
100
AcDbEntity
  8
0
100
AcDbPolyline
 90
51
 70
0
 10
-3.5
 20
12.0
 10
-3.5
 20
11.76
 10
-3.5
 20
11.52
 10
-3.5
 20
11.28
 10
-3.5
 20
11.04
 10
-3.5
 20
10.8
 10
-3.5
 20
10.56
 10
-3.5
 20
10.32
 10
-3.5
 20
10.08
 10
-3.5
 20
9.84
 10
-3.5
 20
9.6
 10
-3.5
 20
9.36
 10
-3.5
 20
9.120000000000001
 10
-3.5
 20
8.879999999999999
 10
-3.5
 20
8.64
 10
-3.5
 20
8.4
 10
-3.5
 20
8.16
 10
-3.5
 20
7.92
 10
-3.5
 20
7.68
 10
-3.5
 20
7.44
 10
-3.5
 20
7.2
 10
-3.5
 20
6.96
 10
-3.5
 20
6.72
 10
-3.5
 20
6.48
 10
-3.5
 20
6.24
 10
-3.5
 20
6.0
 10
-3.5
 20
5.76
 10
-3.5
 20
5.52
 10
-3.5
 20
5.28
 10
-3.5
 20
5.04
 10
-3.5
 20
4.8
 10
-3.5
 20
4.56
 10
-3.5
 20
4.32
 10
-3.5
 20
4.08
 10
-3.5
 20
3.84
 10
-3.5
 20
3.5999999999999996
 10
-3.5
 20
3.3599999999999994
 10
-3.5
 20
3.119999999999999
 10
-3.5
 20
2.880000000000001
 10
-3.5
 20
2.6400000000000006
 10
-3.5
 20
2.4000000000000004
 10
-3.5
 20
2.16
 10
-3.5
 20
1.92
 10
-3.5
 20
1.6799999999999997
 10
-3.5
 20
1.4399999999999995
 10
-3.5
 20
1.1999999999999993
 10
-3.5
 20
0.9600000000000009
 10
-3.5
 20
0.7200000000000006
 10
-3.5
 20
0.4800000000000004
 10
-3.5
 20
0.2400000000000002
 10
-3.5
 20
0.0
  0
LWPOLYLINE
  5
30
330
17
100
AcDbEntity
  8
0
100
AcDbPolyline
 90
51
 70
0
 10
3.5
 20
12.0
 10
3.5
 20
11.76
 10
3.5
 20
11.52
 10
3.5
 20
11.28
 10
3.5
 20
11.04
 10
3.5
 20
10.8
 10
3.5
 20
10.56
 10
3.5
 20
10.32
 10
3.5
 20
10.08
 10
3.5
 20
9.84
 10
3.5
 20
9.6
 10
3.5
 20
9.36
 10
3.5
 20
9.120000000000001
 10
3.5
 20
8.879999999999999
 10
3.5
 20
8.64
 10
3.5
 20
8.4
 10
3.5
 20
8.16
 10
3.5
 20
7.92
 10
3.5
 20
7.68
 10
3.5
 20
7.44
 10
3.5
 20
7.2
 10
3.5
 20
6.96
 10
3.5
 20
6.72
 10
3.5
 20
6.48
 10
3.5
 20
6.24
 10
3.5
 20
6.0
 10
3.5
 20
5.76
 10
3.5
 20
5.52
 10
3.5
 20
5.28
 10
3.5
 20
5.04
 10
3.5
 20
4.8
 10
3.5
 20
4.56
 10
3.5
 20
4.32
 10
3.5
 20
4.08
 10
3.5
 20
3.84
 10
3.5
 20
3.5999999999999996
 10
3.5
 20
3.3599999999999994
 10
3.5
 20
3.119999999999999
 10
3.5
 20
2.880000000000001
 10
3.5
 20
2.6400000000000006
 10
3.5
 20
2.4000000000000004
 10
3.5
 20
2.16
 10
3.5
 20
1.92
 10
3.5
 20
1.6799999999999997
 10
3.5
 20
1.4399999999999995
 10
3.5
 20
1.1999999999999993
 10
3.5
 20
0.9600000000000009
 10
3.5
 20
0.7200000000000006
 10
3.5
 20
0.4800000000000004
 10
3.5
 20
0.2400000000000002
 10
3.5
 20
0.0
  0
LWPOLYLINE
  5
31
330
17
100
AcDbEntity
  8
0
100
AcDbPolyline
 90
51
 70
0
 10
5.0
 20
12.0
 10
5.0
 20
12.06
 10
5.0
 20
12.12
 10
5.0
 20
12.18
 10
5.0
 20
12.24
 10
5.0
 20
12.3
 10
5.0
 20
12.36
 10
5.0
 20
12.42
 10
5.0
 20
12.48
 10
5.0
 20
12.54
 10
5.0
 20
12.6
 10
5.0
 20
12.66
 10
5.0
 20
12.72
 10
5.0
 20
12.78
 10
5.0
 20
12.84
 10
5.0
 20
12.9
 10
5.0
 20
12.96
 10
5.0
 20
13.02
 10
5.0
 20
13.08
 10
5.0
 20
13.14
 10
5.0
 20
13.2
 10
5.0
 20
13.26
 10
5.0
 20
13.32
 10
5.0
 20
13.379999999999999
 10
5.0
 20
13.44
 10
5.0
 20
13.5
 10
5.0
 20
13.56
 10
5.0
 20
13.620000000000001
 10
5.0
 20
13.68
 10
5.0
 20
13.74
 10
5.0
 20
13.8
 10
5.0
 20
13.86
 10
5.0
 20
13.92
 10
5.0
 20
13.98
 10
5.0
 20
14.04
 10
5.0
 20
14.1
 10
5.0
 20
14.16
 10
5.0
 20
14.22
 10
5.0
 20
14.28
 10
5.0
 20
14.34
 10
5.0
 20
14.4
 10
5.0
 20
14.46
 10
5.0
 20
14.52
 10
5.0
 20
14.58
 10
5.0
 20
14.64
 10
5.0
 20
14.7
 10
5.0
 20
14.76
 10
5.0
 20
14.82
 10
5.0
 20
14.879999999999999
 10
5.0
 20
14.94
 10
5.0
 20
15.0
  0
LWPOLYLINE
  5
32
330
17
100
AcDbEntity
  8
0
100
AcDbPolyline
 90
51
 70
0
 10
-5.0
 20
12.0
 10
-5.0
 20
12.06
 10
-5.0
 20
12.12
 10
-5.0
 20
12.18
 10
-5.0
 20
12.24
 10
-5.0
 20
12.3
 10
-5.0
 20
12.36
 10
-5.0
 20
12.42
 10
-5.0
 20
12.48
 10
-5.0
 20
12.54
 10
-5.0
 20
12.6
 10
-5.0
 20
12.66
 10
-5.0
 20
12.72
 10
-5.0
 20
12.78
 10
-5.0
 20
12.84
 10
-5.0
 20
12.9
 10
-5.0
 20
12.96
 10
-5.0
 20
13.02
 10
-5.0
 20
13.08
 10
-5.0
 20
13.14
 10
-5.0
 20
13.2
 10
-5.0
 20
13.26
 10
-5.0
 20
13.32
 10
-5.0
 20
13.379999999999999
 10
-5.0
 20
13.44
 10
-5.0
 20
13.5
 10
-5.0
 20
13.56
 10
-5.0
 20
13.620000000000001
 10
-5.0
 20
13.68
 10
-5.0
 20
13.74
 10
-5.0
 20
13.8
 10
-5.0
 20
13.86
 10
-5.0
 20
13.92
 10
-5.0
 20
13.98
 10
-5.0
 20
14.04
 10
-5.0
 20
14.1
 10
-5.0
 20
14.16
 10
-5.0
 20
14.22
 10
-5.0
 20
14.28
 10
-5.0
 20
14.34
 10
-5.0
 20
14.4
 10
-5.0
 20
14.46
 10
-5.0
 20
14.52
 10
-5.0
 20
14.58
 10
-5.0
 20
14.64
 10
-5.0
 20
14.7
 10
-5.0
 20
14.76
 10
-5.0
 20
14.82
 10
-5.0
 20
14.879999999999999
 10
-5.0
 20
14.94
 10
-5.0
 20
15.0
  0
LWPOLYLINE
  5
33
330
17
100
AcDbEntity
  8
0
100
AcDbPolyline
 90
51
 70
0
 10
-5.0
 20
0.0
 10
-5.0
 20
-0.19
 10
-5.0
 20
-0.38
 10
-5.0
 20
-0.57
 10
-5.0
 20
-0.76
 10
-5.0
 20
-0.95
 10
-5.0
 20
-1.14
 10
-5.0
 20
-1.33
 10
-5.0
 20
-1.52
 10
-5.0
 20
-1.71
 10
-5.0
 20
-1.9
 10
-5.0
 20
-2.09
 10
-5.0
 20
-2.28
 10
-5.0
 20
-2.47
 10
-5.0
 20
-2.66
 10
-5.0
 20
-2.85
 10
-5.0
 20
-3.04
 10
-5.0
 20
-3.23
 10
-5.0
 20
-3.42
 10
-5.0
 20
-3.61
 10
-5.0
 20
-3.8
 10
-5.0
 20
-3.99
 10
-5.0
 20
-4.18
 10
-5.0
 20
-4.37
 10
-5.0
 20
-4.56
 10
-5.0
 20
-4.75
 10
-5.0
 20
-4.94
 10
-5.0
 20
-5.13
 10
-5.0
 20
-5.32
 10
-5.0
 20
-5.51
 10
-5.0
 20
-5.7
 10
-5.0
 20
-5.89
 10
-5.0
 20
-6.08
 10
-5.0
 20
-6.27
 10
-5.0
 20
-6.46
 10
-5.0
 20
-6.65
 10
-5.0
 20
-6.84
 10
-5.0
 20
-7.03
 10
-5.0
 20
-7.22
 10
-5.0
 20
-7.41
 10
-5.0
 20
-7.6
 10
-5.0
 20
-7.79
 10
-5.0
 20
-7.98
 10
-5.0
 20
-8.17
 10
-5.0
 20
-8.36
 10
-5.0
 20
-8.55
 10
-5.0
 20
-8.74
 10
-5.0
 20
-8.93
 10
-5.0
 20
-9.12
 10
-5.0
 20
-9.31
 10
-5.0
 20
-9.5
  0
LWPOLYLINE
  5
34
330
17
100
AcDbEntity
  8
0
100
AcDbPolyline
 90
51
 70
0
 10
5.0
 20
0.0
 10
5.0
 20
-0.19
 10
5.0
 20
-0.38
 10
5.0
 20
-0.57
 10
5.0
 20
-0.76
 10
5.0
 20
-0.95
 10
5.0
 20
-1.14
 10
5.0
 20
-1.33
 10
5.0
 20
-1.52
 10
5.0
 20
-1.71
 10
5.0
 20
-1.9
 10
5.0
 20
-2.09
 10
5.0
 20
-2.28
 10
5.0
 20
-2.47
 10
5.0
 20
-2.66
 10
5.0
 20
-2.85
 10
5.0
 20
-3.04
 10
5.0
 20
-3.23
 10
5.0
 20
-3.42
 10
5.0
 20
-3.61
 10
5.0
 20
-3.8
 10
5.0
 20
-3.99
 10
5.0
 20
-4.18
 10
5.0
 20
-4.37
 10
5.0
 20
-4.56
 10
5.0
 20
-4.75
 10
5.0
 20
-4.94
 10
5.0
 20
-5.13
 10
5.0
 20
-5.32
 10
5.0
 20
-5.51
 10
5.0
 20
-5.7
 10
5.0
 20
-5.89
 10
5.0
 20
-6.08
 10
5.0
 20
-6.27
 10
5.0
 20
-6.46
 10
5.0
 20
-6.65
 10
5.0
 20
-6.84
 10
5.0
 20
-7.03
 10
5.0
 20
-7.22
 10
5.0
 20
-7.41
 10
5.0
 20
-7.6
 10
5.0
 20
-7.79
 10
5.0
 20
-7.98
 10
5.0
 20
-8.17
 10
5.0
 20
-8.36
 10
5.0
 20
-8.55
 10
5.0
 20
-8.74
 10
5.0
 20
-8.93
 10
5.0
 20
-9.12
 10
5.0
 20
-9.31
 10
5.0
 20
-9.5
  0
LWPOLYLINE
  5
35
330
17
100
AcDbEntity
  8
0
100
AcDbPolyline
 90
51
 70
0
 10
-5.000000000000001
 20
-9.5
 10
-4.999013268788534
 20
-9.562816824820592
 10
-4.996054042158923
 20
-9.62557172320819
 10
-4.99112524813414
 20
-9.688202681101934
 10
-4.984231749413088
 20
-9.750647905740522
 10
-4.975380343370593
 20
-9.812845825662194
 10
-4.9645797620574035
 20
-9.874735090704744
 10
-4.951840672200196
 20
-9.936254572005518
 10
-4.93717564046451
 20
-9.997343527410813
 10
-4.920599110899586
 20
-10.057941818892521
 10
-4.90212747399673
 20
-10.11798954930139
 10
-4.881778959372041
 20
-10.177427456145997
 10
-4.859573631505133
 20
-10.236196929396831
 10
-4.8355333897391395
 20
-10.294240011486282
 10
-4.809681968280713
 20
-10.351499397308645
 10
-4.782044906619434
 20
-10.407918498026252
 10
-4.752649406887663
 20
-10.463441786811865
 10
-4.721524518599945
 20
-10.518014411152834
 10
-4.688700966722602
 20
-10.571582499397126
 10
-4.654211120480352
 20
-10.624093223363406
 10
-4.618088993356303
 20
-10.675494798341024
 10
-4.580370243091961
 20
-10.725736483090023
 10
-4.54109213876496
 20
-10.774768624930024
 10
-4.500293379290112
 20
-10.8225429416343
 10
-4.458014288595858
 20
-10.869012307809223
 10
-4.414296657684715
 20
-10.91413095383253
 10
-4.369183712333724
 20
-10.957854507766706
 10
-4.322720113094443
 20
-11.000139995358982
 10
-4.274950900818584
 20
-11.040946150890486
 10
-4.225918058278274
 20
-11.08023414290674
 10
-4.175671213087049
 20
-11.117964362474895
 10
-4.124261847347701
 20
-11.154098640086971
 10
-4.07174211627432
 20
-11.188600630500536
 10
-4.018164848192291
 20
-11.221435812738726
 10
-3.963583544538293
 20
-11.252571490090228
 10
-3.9080523798603033
 20
-11.281976790109292
 10
-3.8516262018175924
 20
-11.309622664615722
 10
-3.794360531180729
 20
-11.335481889694886
 10
-3.736311561831575
 20
-11.359529065697705
 10
-3.6775361607632906
 20
-11.381740617240663
 10
-3.61809186808033
 20
-11.402094793205798
 10
-3.5580368969984435
 20
-11.42057166674071
 10
-3.497430133844677
 20
-11.437153135258553
 10
-3.436331138057373
 20
-11.451822920438048
 10
-3.3748001421861686
 20
-11.464566568223463
 10
-3.312898051891997
 20
-11.475371448824632
 10
-3.250686445947087
 20
-11.484226756716946
 10
-3.1882275762349646
 20
-11.491123510641353
 10
-3.1255843677504487
 20
-11.496054553604361
 10
-3.0628204185996557
 20
-11.499014552878036
 10
-2.9999999999999987
 20
-11.5
  0
LWPOLYLINE
  5
36
330
17
100
AcDbEntity
  8
0
100
AcDbPolyline
 90
51
 70
0
 10
5.000000000000001
 20
-9.5
 10
4.999013268788533
 20
-9.562816824820588
 10
4.996054042158923
 20
-9.62557172320818
 10
4.991125248134142
 20
-9.688202681101922
 10
4.984231749413092
 20
-9.750647905740504
 10
4.975380343370595
 20
-9.812845825662173
 10
4.964579762057405
 20
-9.874735090704718
 10
4.9518406722001975
 20
-9.936254572005486
 10
4.937175640464515
 20
-9.997343527410779
 10
4.9205991108995955
 20
-10.057941818892484
 10
4.902127473996744
 20
-10.117989549301349
 10
4.881778959372058
 20
-10.177427456145953
 10
4.859573631505152
 20
-10.236196929396783
 10
4.835533389739162
 20
-10.29424001148623
 10
4.809681968280739
 20
-10.35149939730859
 10
4.782044906619465
 20
-10.407918498026193
 10
4.752649406887695
 20
-10.463441786811808
 10
4.721524518599977
 20
-10.518014411152778
 10
4.688700966722635
 20
-10.571582499397072
 10
4.654211120480387
 20
-10.624093223363353
 10
4.618088993356341
 20
-10.675494798340974
 10
4.580370243092003
 20
-10.725736483089975
 10
4.541092138765001
 20
-10.77476862492998
 10
4.500293379290151
 20
-10.822542941634257
 10
4.458014288595895
 20
-10.869012307809182
 10
4.414296657684751
 20
-10.914130953832492
 10
4.36918371233376
 20
-10.957854507766672
 10
4.322720113094478
 20
-11.000139995358953
 10
4.2749509008186175
 20
-11.040946150890461
 10
4.225918058278307
 20
-11.080234142906715
 10
4.175671213087081
 20
-11.117964362474874
 10
4.124261847347732
 20
-11.15409864008695
 10
4.07174211627435
 20
-11.188600630500519
 10
4.01816484819232
 20
-11.22143581273871
 10
3.96358354453832
 20
-11.252571490090213
 10
3.9080523798603286
 20
-11.281976790109278
 10
3.8516262018176164
 20
-11.309622664615711
 10
3.7943605311807516
 20
-11.335481889694876
 10
3.7363115618315965
 20
-11.359529065697696
 10
3.6775361607633106
 20
-11.381740617240656
 10
3.618091868080348
 20
-11.40209479320579
 10
3.5580368969984604
 20
-11.420571666740704
 10
3.4974301338446927
 20
-11.437153135258551
 10
3.436331138057387
 20
-11.451822920438046
 10
3.3748001421861806
 20
-11.46456656822346
 10
3.3128980518920073
 20
-11.475371448824632
 10
3.2506864459470957
 20
-11.484226756716946
 10
3.188227576234971
 20
-11.491123510641355
 10
3.125584367750453
 20
-11.496054553604363
 10
3.062820418599658
 20
-11.499014552878036
 10
2.9999999999999987
 20
-11.5
  0
LWPOLYLINE
  5
37
330
17
100
AcDbEntity
  8
0
100
AcDbPolyline
 90
51
 70
0
 10
5.0
 20
0.0
 10
4.996930135350428
 20
0.0
 10
4.993860270700854
 20
0.0
 10
4.990790406051282
 20
0.0
 10
4.985094998683075
 20
0.0
 10
4.975898867690023
 20
0.0
 10
4.966702736696971
 20
0.0
 10
4.957506605703919
 20
0.0
 10
4.943093957694964
 20
0.0
 10
4.927811890183359
 20
0.0
 10
4.912529822671754
 20
0.0
 10
4.895528064676818
 20
0.0
 10
4.874227080473555
 20
0.0
 10
4.852926096270292
 20
0.0
 10
4.831625112067029
 20
0.0
 10
4.806091627306874
 20
0.0
 10
4.778865142323963
 20
0.0
 10
4.751638657341051
 20
0.0
 10
4.723582729721002
 20
0.0
 10
4.69055014627813
 20
0.0
 10
4.657517562835257
 20
0.0
 10
4.624484979392385
 20
0.0
 10
4.588217405450101
 20
0.0
 10
4.549523588633261
 20
0.0
 10
4.510829771816421
 20
0.0
 10
4.47213595499958
 20
0.0
 10
4.427950597352204
 20
0.0
 10
4.383765239704829
 20
0.0
 10
4.3395798820574525
 20
0.0
 10
4.293124053687279
 20
0.0
 10
4.243640931020041
 20
0.0
 10
4.194157808352802
 20
0.0
 10
4.1446746856855645
 20
0.0
 10
4.090836629518477
 20
0.0
 10
4.0362727511014125
 20
0.0
 10
3.981708872684349
 20
0.0
 10
3.9257617186332534
 20
0.0
 10
3.866356375497073
 20
0.0
 10
3.806951032360894
 20
0.0
 10
3.747545689224715
 20
0.0
 10
3.684868245128851
 20
0.0
 10
3.620881960649111
 20
0.0
 10
3.5568956761693724
 20
0.0
 10
3.492295059096224
 20
0.0
 10
3.4240084464626137
 20
0.0
 10
3.3557218338290036
 20
0.0
 10
3.2874352211953934
 20
0.0
 10
3.216862405256031
 20
0.0
 10
3.144574936837354
 20
0.0
 10
3.0722874684186765
 20
0.0
 10
2.9999999999999996
 20
0.0
  0
LWPOLYLINE
  5
38
330
17
100
AcDbEntity
  8
0
100
AcDbPolyline
 90
51
 70
0
 10
-3.0
 20
0.0
 10
-3.072287468418677
 20
0.0
 10
-3.144574936837354
 20
0.0
 10
-3.216862405256031
 20
0.0
 10
-3.2874352211953934
 20
0.0
 10
-3.3557218338290036
 20
0.0
 10
-3.4240084464626137
 20
0.0
 10
-3.492295059096224
 20
0.0
 10
-3.5568956761693724
 20
0.0
 10
-3.6208819606491116
 20
0.0
 10
-3.6848682451288504
 20
0.0
 10
-3.747545689224715
 20
0.0
 10
-3.806951032360894
 20
0.0
 10
-3.8663563754970736
 20
0.0
 10
-3.925761718633253
 20
0.0
 10
-3.9817088726843495
 20
0.0
 10
-4.0362727511014125
 20
0.0
 10
-4.090836629518476
 20
0.0
 10
-4.1446746856855645
 20
0.0
 10
-4.194157808352803
 20
0.0
 10
-4.243640931020041
 20
0.0
 10
-4.293124053687279
 20
0.0
 10
-4.339579882057453
 20
0.0
 10
-4.383765239704829
 20
0.0
 10
-4.427950597352204
 20
0.0
 10
-4.47213595499958
 20
0.0
 10
-4.51082977181642
 20
0.0
 10
-4.549523588633261
 20
0.0
 10
-4.588217405450101
 20
0.0
 10
-4.624484979392384
 20
0.0
 10
-4.657517562835257
 20
0.0
 10
-4.69055014627813
 20
0.0
 10
-4.723582729721003
 20
0.0
 10
-4.751638657341052
 20
0.0
 10
-4.778865142323963
 20
0.0
 10
-4.806091627306874
 20
0.0
 10
-4.831625112067029
 20
0.0
 10
-4.852926096270292
 20
0.0
 10
-4.874227080473554
 20
0.0
 10
-4.895528064676817
 20
0.0
 10
-4.912529822671753
 20
0.0
 10
-4.927811890183358
 20
0.0
 10
-4.9430939576949635
 20
0.0
 10
-4.9575066057039185
 20
0.0
 10
-4.966702736696971
 20
0.0
 10
-4.975898867690023
 20
0.0
 10
-4.985094998683074
 20
0.0
 10
-4.990790406051281
 20
0.0
 10
-4.993860270700854
 20
0.0
 10
-4.996930135350427
 20
0.0
 10
-5.0
 20
0.0
  0
LWPOLYLINE
  5
39
330
17
100
AcDbEntity
  8
0
100
AcDbPolyline
 90
51
 70
0
 10
3.000000000000001
 20
12.0
 10
3.072287468418678
 20
12.0
 10
3.144574936837355
 20
12.0
 10
3.2168624052560317
 20
12.0
 10
3.2874352211953943
 20
12.0
 10
3.355721833829004
 20
12.0
 10
3.4240084464626137
 20
12.0
 10
3.492295059096224
 20
12.0
 10
3.556895676169373
 20
12.0
 10
3.6208819606491116
 20
12.0
 10
3.684868245128851
 20
12.0
 10
3.7475456892247156
 20
12.0
 10
3.806951032360896
 20
12.0
 10
3.866356375497074
 20
12.0
 10
3.9257617186332543
 20
12.0
 10
3.981708872684349
 20
12.0
 10
4.036272751101413
 20
12.0
 10
4.090836629518475
 20
12.0
 10
4.1446746856855645
 20
12.0
 10
4.194157808352802
 20
12.0
 10
4.243640931020042
 20
12.0
 10
4.293124053687279
 20
12.0
 10
4.339579882057453
 20
12.0
 10
4.383765239704828
 20
12.0
 10
4.427950597352205
 20
12.0
 10
4.472135954999579
 20
12.0
 10
4.510829771816421
 20
12.0
 10
4.54952358863326
 20
12.0
 10
4.588217405450102
 20
12.0
 10
4.624484979392384
 20
12.0
 10
4.657517562835257
 20
12.0
 10
4.690550146278129
 20
12.0
 10
4.723582729721003
 20
12.0
 10
4.751638657341051
 20
12.0
 10
4.778865142323963
 20
12.0
 10
4.806091627306874
 20
12.0
 10
4.831625112067029
 20
12.0
 10
4.852926096270292
 20
12.0
 10
4.874227080473555
 20
12.0
 10
4.895528064676818
 20
12.0
 10
4.912529822671754
 20
12.0
 10
4.927811890183359
 20
12.0
 10
4.943093957694964
 20
12.0
 10
4.957506605703918
 20
12.0
 10
4.96670273669697
 20
12.0
 10
4.975898867690022
 20
12.0
 10
4.985094998683075
 20
12.0
 10
4.990790406051281
 20
12.0
 10
4.993860270700854
 20
12.0
 10
4.996930135350427
 20
12.0
 10
5.0
 20
12.0
  0
LWPOLYLINE
  5
3A
330
17
100
AcDbEntity
  8
0
100
AcDbPolyline
 90
51
 70
0
 10
-5.0
 20
12.0
 10
-4.996930135350427
 20
12.0
 10
-4.993860270700854
 20
12.0
 10
-4.990790406051281
 20
12.0
 10
-4.985094998683074
 20
12.0
 10
-4.975898867690022
 20
12.0
 10
-4.966702736696971
 20
12.0
 10
-4.9575066057039185
 20
12.0
 10
-4.943093957694964
 20
12.0
 10
-4.92781189018336
 20
12.0
 10
-4.912529822671754
 20
12.0
 10
-4.895528064676818
 20
12.0
 10
-4.874227080473556
 20
12.0
 10
-4.852926096270294
 20
12.0
 10
-4.831625112067029
 20
12.0
 10
-4.806091627306874
 20
12.0
 10
-4.778865142323964
 20
12.0
 10
-4.751638657341053
 20
12.0
 10
-4.723582729721002
 20
12.0
 10
-4.69055014627813
 20
12.0
 10
-4.657517562835258
 20
12.0
 10
-4.624484979392386
 20
12.0
 10
-4.5882174054500995
 20
12.0
 10
-4.549523588633261
 20
12.0
 10
-4.510829771816422
 20
12.0
 10
-4.472135954999581
 20
12.0
 10
-4.427950597352203
 20
12.0
 10
-4.383765239704829
 20
12.0
 10
-4.339579882057455
 20
12.0
 10
-4.293124053687282
 20
12.0
 10
-4.243640931020041
 20
12.0
 10
-4.194157808352803
 20
12.0
 10
-4.144674685685566
 20
12.0
 10
-4.090836629518474
 20
12.0
 10
-4.0362727511014125
 20
12.0
 10
-3.981708872684351
 20
12.0
 10
-3.9257617186332556
 20
12.0
 10
-3.8663563754970722
 20
12.0
 10
-3.806951032360895
 20
12.0
 10
-3.7475456892247174
 20
12.0
 10
-3.6848682451288535
 20
12.0
 10
-3.6208819606491107
 20
12.0
 10
-3.5568956761693737
 20
12.0
 10
-3.492295059096225
 20
12.0
 10
-3.4240084464626173
 20
12.0
 10
-3.3557218338290027
 20
12.0
 10
-3.2874352211953948
 20
12.0
 10
-3.216862405256033
 20
12.0
 10
-3.1445749368373512
 20
12.0
 10
-3.072287468418676
 20
12.0
 10
-3.000000000000001
 20
12.0
  0
LWPOLYLINE
  5
3B
330
17
100
AcDbEntity
  8
0
100
AcDbPolyline
 90
51
 70
0
 10
-6.123233995736766e-16
 20
15.0
 10
0.1567502665446295
 20
15.0
 10
0.31350053308926185
 20
15.0
 10
0.470250799633892
 20
15.0
 10
0.6261562552283435
 20
15.0
 10
0.7809352962225519
 20
15.0
 10
0.9357143372167602
 20
15.0
 10
1.0904933782109707
 20
15.0
 10
1.2419144233801942
 20
15.0
 10
1.3927758025785892
 20
15.0
 10
1.543637181776982
 20
15.0
 10
1.6928371806407903
 20
15.0
 10
1.8378837286681389
 20
15.0
 10
1.9829302766954857
 20
15.0
 10
2.1279768247228343
 20
15.0
 10
2.267567032985568
 20
15.0
 10
2.4049747053424575
 20
15.0
 10
2.5423823776993486
 20
15.0
 10
2.6784519276453613
 20
15.0
 10
2.806492743126118
 20
15.0
 10
2.934533558606873
 20
15.0
 10
3.062574374087628
 20
15.0
 10
3.1843425927559186
 20
15.0
 10
3.3014063638148574
 20
15.0
 10
3.4184701348737985
 20
15.0
 10
3.5355339059327373
 20
15.0
 10
3.6401484877268118
 20
15.0
 10
3.7447630695208876
 20
15.0
 10
3.849377651314964
 20
15.0
 10
3.948093042396301
 20
15.0
 10
4.038942845860657
 20
15.0
 10
4.1297926493250126
 20
15.0
 10
4.2206424527893684
 20
15.0
 10
4.298714598550383
 20
15.0
 10
4.374657134694171
 20
15.0
 10
4.45059967083796
 20
15.0
 10
4.522010124474474
 20
15.0
 10
4.582090371842804
 20
15.0
 10
4.6421706192111305
 20
15.0
 10
4.702250866579458
 20
15.0
 10
4.750461233415294
 20
15.0
 10
4.793923648038132
 20
15.0
 10
4.83738606266097
 20
15.0
 10
4.878396420451402
 20
15.0
 10
4.904694437247389
 20
15.0
 10
4.930992454043375
 20
15.0
 10
4.957290470839361
 20
15.0
 10
4.973591281551619
 20
15.0
 10
4.982394187701079
 20
15.0
 10
4.9911970938505394
 20
15.0
 10
5.0
 20
15.0
  0
LWPOLYLINE
  5
3C
330
17
100
AcDbEntity
  8
0
100
AcDbPolyline
 90
51
 70
0
 10
-5.0
 20
15.0
 10
-4.9911970938505394
 20
15.0
 10
-4.982394187701079
 20
15.0
 10
-4.973591281551618
 20
15.0
 10
-4.957290470839361
 20
15.0
 10
-4.930992454043376
 20
15.0
 10
-4.904694437247388
 20
15.0
 10
-4.878396420451402
 20
15.0
 10
-4.837386062660971
 20
15.0
 10
-4.793923648038133
 20
15.0
 10
-4.750461233415295
 20
15.0
 10
-4.702250866579459
 20
15.0
 10
-4.642170619211132
 20
15.0
 10
-4.5820903718428045
 20
15.0
 10
-4.522010124474478
 20
15.0
 10
-4.450599670837963
 20
15.0
 10
-4.374657134694171
 20
15.0
 10
-4.298714598550383
 20
15.0
 10
-4.220642452789369
 20
15.0
 10
-4.129792649325014
 20
15.0
 10
-4.038942845860659
 20
15.0
 10
-3.948093042396304
 20
15.0
 10
-3.849377651314965
 20
15.0
 10
-3.744763069520891
 20
15.0
 10
-3.640148487726817
 20
15.0
 10
-3.5355339059327413
 20
15.0
 10
-3.4184701348737963
 20
15.0
 10
-3.301406363814858
 20
15.0
 10
-3.1843425927559195
 20
15.0
 10
-3.062574374087629
 20
15.0
 10
-2.9345335586068746
 20
15.0
 10
-2.80649274312612
 20
15.0
 10
-2.678451927645366
 20
15.0
 10
-2.542382377699352
 20
15.0
 10
-2.4049747053424637
 20
15.0
 10
-2.2675670329855673
 20
15.0
 10
-2.1279768247228317
 20
15.0
 10
-1.9829302766954857
 20
15.0
 10
-1.8378837286681398
 20
15.0
 10
-1.6928371806407936
 20
15.0
 10
-1.543637181776984
 20
15.0
 10
-1.3927758025785915
 20
15.0
 10
-1.2419144233801989
 20
15.0
 10
-1.0904933782109747
 20
15.0
 10
-0.9357143372167667
 20
15.0
 10
-0.7809352962225586
 20
15.0
 10
-0.626156255228342
 20
15.0
 10
-0.470250799633892
 20
15.0
 10
-0.31350053308926196
 20
15.0
 10
-0.15675026654463192
 20
15.0
 10
-1.8369701987210296e-15
 20
15.0
  0
LWPOLYLINE
  5
3D
330
17
100
AcDbEntity
  8
0
100
AcDbPolyline
 90
51
 70
0
 10
3.0
 20
-4.0
 10
3.0
 20
-3.68
 10
3.0
 20
-3.36
 10
3.0
 20
-3.04
 10
3.0
 20
-2.7199999999999998
 10
3.0
 20
-2.4
 10
3.0
 20
-2.08
 10
3.0
 20
-1.7599999999999998
 10
3.0
 20
-1.44
 10
3.0
 20
-1.12
 10
3.0
 20
-0.7999999999999998
 10
3.0
 20
-0.48
 10
3.0
 20
-0.16000000000000014
 10
3.0
 20
0.16000000000000014
 10
3.0
 20
0.4800000000000004
 10
3.0
 20
0.7999999999999998
 10
3.0
 20
1.12
 10
3.0
 20
1.4400000000000004
 10
3.0
 20
1.7599999999999998
 10
3.0
 20
2.08
 10
3.0
 20
2.4000000000000004
 10
3.0
 20
2.7199999999999998
 10
3.0
 20
3.04
 10
3.0
 20
3.3600000000000003
 10
3.0
 20
3.6799999999999997
 10
3.0
 20
4.0
 10
3.0
 20
4.32
 10
3.0
 20
4.640000000000001
 10
3.0
 20
4.960000000000001
 10
3.0
 20
5.279999999999999
 10
3.0
 20
5.6
 10
3.0
 20
5.92
 10
3.0
 20
6.24
 10
3.0
 20
6.5600000000000005
 10
3.0
 20
6.880000000000001
 10
3.0
 20
7.199999999999999
 10
3.0
 20
7.52
 10
3.0
 20
7.84
 10
3.0
 20
8.16
 10
3.0
 20
8.48
 10
3.0
 20
8.8
 10
3.0
 20
9.12
 10
3.0
 20
9.44
 10
3.0
 20
9.76
 10
3.0
 20
10.08
 10
3.0
 20
10.4
 10
3.0
 20
10.72
 10
3.0
 20
11.04
 10
3.0
 20
11.36
 10
3.0
 20
11.68
 10
3.0
 20
12.0
  0
LWPOLYLINE
  5
3E
330
17
100
AcDbEntity
  8
0
100
AcDbPolyline
 90
51
 70
0
 10
-3.0
 20
12.0
 10
-3.0
 20
11.68
 10
-3.0
 20
11.36
 10
-3.0
 20
11.04
 10
-3.0
 20
10.72
 10
-3.0
 20
10.4
 10
-3.0
 20
10.08
 10
-3.0
 20
9.76
 10
-3.0
 20
9.44
 10
-3.0
 20
9.120000000000001
 10
-3.0
 20
8.8
 10
-3.0
 20
8.48
 10
-3.0
 20
8.16
 10
-3.0
 20
7.84
 10
-3.0
 20
7.52
 10
-3.0
 20
7.2
 10
-3.0
 20
6.88
 10
-3.0
 20
6.56
 10
-3.0
 20
6.24
 10
-3.0
 20
5.92
 10
-3.0
 20
5.6
 10
-3.0
 20
5.28
 10
-3.0
 20
4.96
 10
-3.0
 20
4.64
 10
-3.0
 20
4.32
 10
-3.0
 20
4.0
 10
-3.0
 20
3.6799999999999997
 10
-3.0
 20
3.3599999999999994
 10
-3.0
 20
3.039999999999999
 10
-3.0
 20
2.7200000000000006
 10
-3.0
 20
2.4000000000000004
 10
-3.0
 20
2.08
 10
-3.0
 20
1.7599999999999998
 10
-3.0
 20
1.4399999999999995
 10
-3.0
 20
1.1199999999999992
 10
-3.0
 20
0.8000000000000007
 10
-3.0
 20
0.4800000000000004
 10
-3.0
 20
0.16000000000000014
 10
-3.0
 20
-0.16000000000000014
 10
-3.0
 20
-0.4800000000000004
 10
-3.0
 20
-0.8000000000000007
 10
-3.0
 20
-1.1199999999999992
 10
-3.0
 20
-1.4399999999999995
 10
-3.0
 20
-1.7599999999999998
 10
-3.0
 20
-2.08
 10
-3.0
 20
-2.4000000000000004
 10
-3.0
 20
-2.7200000000000006
 10
-3.0
 20
-3.039999999999999
 10
-3.0
 20
-3.3599999999999994
 10
-3.0
 20
-3.6799999999999997
 10
-3.0
 20
-4.0
  0
LWPOLYLINE
  5
3F
330
17
100
AcDbEntity
  8
0
100
AcDbPolyline
 90
51
 70
0
 10
3.000000000000383
 20
-4.0
 10
2.8810671131593177
 20
-4.0
 10
2.7621342263182522
 20
-4.0
 10
2.643201339477187
 20
-4.0
 10
2.524057639603535
 20
-4.0
 10
2.4046328556864336
 20
-4.0
 10
2.2852080717693326
 20
-4.0
 10
2.1657832878522316
 20
-4.0
 10
2.0460067085428695
 20
-4.0
 10
1.9261714966681303
 20
-4.0
 10
1.8063362847933913
 20
-4.0
 10
1.6864071646747174
 20
-4.0
 10
1.5662432739462062
 20
-4.0
 10
1.4460793832176948
 20
-4.0
 10
1.3259154924891834
 20
-4.0
 10
1.205575383523537
 20
-4.0
 10
1.0851647872630366
 20
-4.0
 10
0.9647541910025362
 20
-4.0
 10
0.8443200856116366
 20
-4.0
 10
0.7237449254383435
 20
-4.0
 10
0.6031697652650502
 20
-4.0
 10
0.48259460509175744
 20
-4.0
 10
0.36197241061475116
 20
-4.0
 10
0.2413149404099608
 20
-4.0
 10
0.12065747020517137
 20
-4.0
 10
3.81084053202585e-13
 20
-4.0
 10
-0.12065747020440928
 20
-4.0
 10
-0.24131494040919965
 20
-4.0
 10
-0.36197241061399
 20
-4.0
 10
-0.4825946050909959
 20
-4.0
 10
-0.6031697652642892
 20
-4.0
 10
-0.7237449254375825
 20
-4.0
 10
-0.8443200856108758
 20
-4.0
 10
-0.9647541910017756
 20
-4.0
 10
-1.0851647872622765
 20
-4.0
 10
-1.2055753835227778
 20
-4.0
 10
-1.3259154924884247
 20
-4.0
 10
-1.446079383216937
 20
-4.0
 10
-1.566243273945449
 20
-4.0
 10
-1.6864071646739611
 20
-4.0
 10
-1.8063362847926356
 20
-4.0
 10
-1.9261714966673742
 20
-4.0
 10
-2.0460067085421136
 20
-4.0
 10
-2.1657832878514762
 20
-4.0
 10
-2.2852080717685794
 20
-4.0
 10
-2.4046328556856804
 20
-4.0
 10
-2.5240576396027836
 20
-4.0
 10
-2.6432013394764358
 20
-4.0
 10
-2.762134226317501
 20
-4.0
 10
-2.881067113158568
 20
-4.0
 10
-2.9999999999996336
 20
-4.0
  0
LWPOLYLINE
  5
40
330
17
100
AcDbEntity
  8
0
100
AcDbPolyline
 90
51
 70
0
 10
0.040132753458658625
 20
-11.5
 10
-0.05477837233112728
 20
-11.5
 10
-0.1496894981209118
 20
-11.5
 10
-0.2446006239106977
 20
-11.5
 10
-0.3390530801327809
 20
-11.5
 10
-0.4328939769312635
 20
-11.5
 10
-0.5267348737297448
 20
-11.5
 10
-0.6205757705282273
 20
-11.5
 10
-0.7124705262502691
 20
-11.5
 10
-0.804040925126236
 20
-11.5
 10
-0.8956113240022043
 20
-11.5
 10
-0.9861983725570092
 20
-11.5
 10
-1.0743270453089098
 20
-11.5
 10
-1.1624557180608104
 20
-11.5
 10
-1.2505843908127097
 20
-11.5
 10
-1.335449539964729
 20
-11.5
 10
-1.4190092796767944
 20
-11.5
 10
-1.502569019388861
 20
-11.5
 10
-1.5853233732199983
 20
-11.5
 10
-1.6632454117655586
 20
-11.5
 10
-1.7411674503111199
 20
-11.5
 10
-1.81908948885668
 20
-11.5
 10
-1.8932204642821269
 20
-11.5
 10
-1.964508142367488
 20
-11.5
 10
-2.0357958204528477
 20
-11.5
 10
-2.107083498538208
 20
-11.5
 10
-2.1708250134408544
 20
-11.5
 10
-2.234566528343501
 20
-11.5
 10
-2.298308043246147
 20
-11.5
 10
-2.358466080884056
 20
-11.5
 10
-2.413846148835651
 20
-11.5
 10
-2.4692262167872463
 20
-11.5
 10
-2.5246062847388413
 20
-11.5
 10
-2.57221225220065
 20
-11.5
 10
-2.618522536247493
 20
-11.5
 10
-2.664832820294338
 20
-11.5
 10
-2.7083825003174398
 20
-11.5
 10
-2.7450306702811855
 20
-11.5
 10
-2.7816788402449313
 20
-11.5
 10
-2.8183270102086757
 20
-11.5
 10
-2.8477388506679504
 20
-11.5
 10
-2.8742561593254363
 20
-11.5
 10
-2.9007734679829227
 20
-11.5
 10
-2.9257950580578145
 20
-11.5
 10
-2.9418423366371425
 20
-11.5
 10
-2.9578896152164713
 20
-11.5
 10
-2.9739368937957997
 20
-11.5
 10
-2.98388401107703
 20
-11.5
 10
-2.9892560073846863
 20
-11.5
 10
-2.9946280036923434
 20
-11.5
 10
-3.0
 20
-11.5
  0
LWPOLYLINE
  5
41
330
17
100
AcDbEntity
  8
0
100
AcDbPolyline
 90
51
 70
0
 10
3.0
 20
-11.5
 10
2.9948077467350136
 20
-11.5
 10
2.989615493470027
 20
-11.5
 10
2.9844232402050412
 20
-11.5
 10
2.9748079938292173
 20
-11.5
 10
2.9592954233056097
 20
-11.5
 10
2.9437828527820034
 20
-11.5
 10
2.9282702822583966
 20
-11.5
 10
2.904076103461991
 20
-11.5
 10
2.878434989953452
 20
-11.5
 10
2.8527938764449137
 20
-11.5
 10
2.82434946164499
 20
-11.5
 10
2.788896793616597
 20
-11.5
 10
2.7534441255882047
 20
-11.5
 10
2.717991457559812
 20
-11.5
 10
2.675843596220168
 20
-11.5
 10
2.6310176575560265
 20
-11.5
 10
2.586191718891882
 20
-11.5
 10
2.540105907424802
 20
-11.5
 10
2.4864608591401085
 20
-11.5
 10
2.4328158108554145
 20
-11.5
 10
2.379170762570721
 20
-11.5
 10
2.3208651872608277
 20
-11.5
 10
2.2590642166820287
 20
-11.5
 10
2.1972632461032298
 20
-11.5
 10
2.135462275524431
 20
-11.5
 10
2.066269397630734
 20
-11.5
 10
1.997076519737041
 20
-11.5
 10
1.9278836418433443
 20
-11.5
 10
1.8558894025964845
 20
-11.5
 10
1.7801600148787406
 20
-11.5
 10
1.7044306271609966
 20
-11.5
 10
1.628701239443257
 20
-11.5
 10
1.5481715905714992
 20
-11.5
 10
1.466841898174072
 20
-11.5
 10
1.385512205776645
 20
-11.5
 10
1.3028696946005947
 20
-11.5
 10
1.2169451364779915
 20
-11.5
 10
1.1310205783553835
 20
-11.5
 10
1.0450960202327755
 20
-11.5
 10
0.9566481601762875
 20
-11.5
 10
0.8671909793462474
 20
-11.5
 10
0.7777337985162074
 20
-11.5
 10
0.6879299451698867
 20
-11.5
 10
0.5960460567258462
 20
-11.5
 10
0.5041621682818057
 20
-11.5
 10
0.41227827983776516
 20
-11.5
 10
0.3196567957772579
 20
-11.5
 10
0.22648211500439128
 20
-11.5
 10
0.13330743423152466
 20
-11.5
 10
0.04013275345865803
 20
-11.5
  0
LWPOLYLINE
  5
42
330
17
100
AcDbEntity
  8
0
100
AcDbPolyline
 90
51
 70
0
 10
-3.000000000000383
 20
12.0
 10
-2.8810671131593177
 20
12.0
 10
-2.7621342263182522
 20
12.0
 10
-2.643201339477187
 20
12.0
 10
-2.524057639603535
 20
12.0
 10
-2.4046328556864336
 20
12.0
 10
-2.2852080717693326
 20
12.0
 10
-2.1657832878522316
 20
12.0
 10
-2.0460067085428695
 20
12.0
 10
-1.9261714966681303
 20
12.0
 10
-1.8063362847933913
 20
12.0
 10
-1.6864071646747174
 20
12.0
 10
-1.5662432739462062
 20
12.0
 10
-1.4460793832176948
 20
12.0
 10
-1.3259154924891834
 20
12.0
 10
-1.205575383523537
 20
12.0
 10
-1.0851647872630366
 20
12.0
 10
-0.9647541910025362
 20
12.0
 10
-0.8443200856116366
 20
12.0
 10
-0.7237449254383435
 20
12.0
 10
-0.6031697652650502
 20
12.0
 10
-0.48259460509175744
 20
12.0
 10
-0.36197241061475116
 20
12.0
 10
-0.2413149404099608
 20
12.0
 10
-0.12065747020517137
 20
12.0
 10
-3.81084053202585e-13
 20
12.0
 10
0.12065747020440928
 20
12.0
 10
0.24131494040919965
 20
12.0
 10
0.36197241061399
 20
12.0
 10
0.4825946050909959
 20
12.0
 10
0.6031697652642892
 20
12.0
 10
0.7237449254375825
 20
12.0
 10
0.8443200856108758
 20
12.0
 10
0.9647541910017756
 20
12.0
 10
1.0851647872622765
 20
12.0
 10
1.2055753835227778
 20
12.0
 10
1.3259154924884247
 20
12.0
 10
1.446079383216937
 20
12.0
 10
1.566243273945449
 20
12.0
 10
1.6864071646739611
 20
12.0
 10
1.8063362847926356
 20
12.0
 10
1.9261714966673742
 20
12.0
 10
2.0460067085421136
 20
12.0
 10
2.1657832878514762
 20
12.0
 10
2.2852080717685794
 20
12.0
 10
2.4046328556856804
 20
12.0
 10
2.5240576396027836
 20
12.0
 10
2.6432013394764358
 20
12.0
 10
2.762134226317501
 20
12.0
 10
2.881067113158568
 20
12.0
 10
2.9999999999996336
 20
12.0
  0
ENDSEC
  0
SECTION
  2
OBJECTS
  0
DICTIONARY
  5
A
330
0
100
AcDbDictionary
280
0
281
1
  3
ACAD_COLOR
350
B
  3
ACAD_GROUP
350
C
  3
ACAD_LAYOUT
350
D
  3
ACAD_MATERIAL
350
E
  3
ACAD_MLEADERSTYLE
350
F
  3
ACAD_MLINESTYLE
350
10
  3
ACAD_PLOTSETTINGS
350
11
  3
ACAD_PLOTSTYLENAME
350
12
  3
ACAD_SCALELIST
350
14
  3
ACAD_TABLESTYLE
350
15
  3
ACAD_VISUALSTYLE
350
16
  3
EZDXF_META
350
2D
  0
DICTIONARY
  5
B
330
A
100
AcDbDictionary
280
0
281
1
  0
DICTIONARY
  5
C
330
A
100
AcDbDictionary
280
0
281
1
  0
DICTIONARY
  5
D
330
A
100
AcDbDictionary
280
0
281
1
  3
Model
350
1A
  3
Layout1
350
1E
  0
DICTIONARY
  5
E
330
A
100
AcDbDictionary
280
0
281
1
  3
ByBlock
350
1F
  3
ByLayer
350
20
  3
Global
350
21
  0
DICTIONARY
  5
F
330
A
100
AcDbDictionary
280
0
281
1
  3
Standard
350
2C
  0
DICTIONARY
  5
10
330
A
100
AcDbDictionary
280
0
281
1
  3
Standard
350
22
  0
DICTIONARY
  5
11
330
A
100
AcDbDictionary
280
0
281
1
  0
ACDBDICTIONARYWDFLT
  5
12
330
A
100
AcDbDictionary
280
0
281
1
  3
Normal
350
13
100
AcDbDictionaryWithDefault
340
13
  0
ACDBPLACEHOLDER
  5
13
330
12
  0
DICTIONARY
  5
14
330
A
100
AcDbDictionary
280
0
281
1
  0
DICTIONARY
  5
15
330
A
100
AcDbDictionary
280
0
281
1
  0
DICTIONARY
  5
16
330
A
100
AcDbDictionary
280
0
281
1
  0
LAYOUT
  5
1A
330
D
100
AcDbPlotSettings
  1

  2
Adobe PDF
  4
A3
  6

 40
7.5
 41
20.0
 42
7.5
 43
20.0
 44
420.0
 45
297.0
 46
0.0
 47
0.0
 48
0.0
 49
0.0
140
0.0
141
0.0
142
1.0
143
1.0
 70
1024
 72
1
 73
0
 74
5
  7

 75
16
 76
0
 77
2
 78
300
147
1.0
148
0.0
149
0.0
100
AcDbLayout
  1
Model
 70
1
 71
0
 10
0.0
 20
0.0
 11
420.0
 21
297.0
 12
0.0
 22
0.0
 32
0.0
 14
1e+20
 24
1e+20
 34
1e+20
 15
-1e+20
 25
-1e+20
 35
-1e+20
146
0.0
 13
0.0
 23
0.0
 33
0.0
 16
1.0
 26
0.0
 36
0.0
 17
0.0
 27
1.0
 37
0.0
 76
1
330
17
  0
LAYOUT
  5
1E
330
D
100
AcDbPlotSettings
  1

  2
Adobe PDF
  4
A3
  6

 40
7.5
 41
20.0
 42
7.5
 43
20.0
 44
420.0
 45
297.0
 46
0.0
 47
0.0
 48
0.0
 49
0.0
140
0.0
141
0.0
142
1.0
143
1.0
 70
0
 72
1
 73
0
 74
5
  7

 75
16
 76
0
 77
2
 78
300
147
1.0
148
0.0
149
0.0
100
AcDbLayout
  1
Layout1
 70
1
 71
1
 10
0.0
 20
0.0
 11
420.0
 21
297.0
 12
0.0
 22
0.0
 32
0.0
 14
1e+20
 24
1e+20
 34
1e+20
 15
-1e+20
 25
-1e+20
 35
-1e+20
146
0.0
 13
0.0
 23
0.0
 33
0.0
 16
1.0
 26
0.0
 36
0.0
 17
0.0
 27
1.0
 37
0.0
 76
1
330
1B
  0
MATERIAL
  5
1F
102
{ACAD_REACTORS
330
E
102
}
330
E
100
AcDbMaterial
  1
ByBlock
  2

 70
0
 40
1.0
 71
1
 41
1.0
 91
-1023410177
 42
1.0
 72
1
  3

 73
1
 74
1
 75
1
 44
0.5
 73
0
 45
1.0
 46
1.0
 77
1
  4

 78
1
 79
1
170
1
 48
1.0
171
1
  6

172
1
173
1
174
1
140
1.0
141
1.0
175
1
  7

176
1
177
1
178
1
143
1.0
179
1
  8

270
1
271
1
272
1
145
1.0
146
1.0
273
1
  9

274
1
275
1
276
1
 42
1.0
 72
1
  3

 73
1
 74
1
 75
1
 94
63
  0
MATERIAL
  5
20
102
{ACAD_REACTORS
330
E
102
}
330
E
100
AcDbMaterial
  1
ByLayer
  2

 70
0
 40
1.0
 71
1
 41
1.0
 91
-1023410177
 42
1.0
 72
1
  3

 73
1
 74
1
 75
1
 44
0.5
 73
0
 45
1.0
 46
1.0
 77
1
  4

 78
1
 79
1
170
1
 48
1.0
171
1
  6

172
1
173
1
174
1
140
1.0
141
1.0
175
1
  7

176
1
177
1
178
1
143
1.0
179
1
  8

270
1
271
1
272
1
145
1.0
146
1.0
273
1
  9

274
1
275
1
276
1
 42
1.0
 72
1
  3

 73
1
 74
1
 75
1
 94
63
  0
MATERIAL
  5
21
102
{ACAD_REACTORS
330
E
102
}
330
E
100
AcDbMaterial
  1
Global
  2

 70
0
 40
1.0
 71
1
 41
1.0
 91
-1023410177
 42
1.0
 72
1
  3

 73
1
 74
1
 75
1
 44
0.5
 73
0
 45
1.0
 46
1.0
 77
1
  4

 78
1
 79
1
170
1
 48
1.0
171
1
  6

172
1
173
1
174
1
140
1.0
141
1.0
175
1
  7

176
1
177
1
178
1
143
1.0
179
1
  8

270
1
271
1
272
1
145
1.0
146
1.0
273
1
  9

274
1
275
1
276
1
 42
1.0
 72
1
  3

 73
1
 74
1
 75
1
 94
63
  0
MLINESTYLE
  5
22
102
{ACAD_REACTORS
330
10
102
}
330
10
100
AcDbMlineStyle
  2
Standard
 70
0
  3

 62
256
 51
90.0
 52
90.0
 71
2
 49
0.5
 62
256
  6
BYLAYER
 49
-0.5
 62
256
  6
BYLAYER
  0
MLEADERSTYLE
  5
2C
102
{ACAD_REACTORS
330
F
102
}
330
F
100
AcDbMLeaderStyle
179
2
170
2
171
1
172
0
 90
2
 40
0.0
 41
0.0
173
1
 91
-1056964608
 92
-2
290
1
 42
2.0
291
1
 43
8.0
  3
Standard
 44
4.0
300

342
29
174
1
175
1
176
0
178
1
 93
-1056964608
 45
4.0
292
0
297
0
 46
4.0
 94
-1056964608
 47
1.0
 49
1.0
140
1.0
294
1
141
0.0
177
0
142
1.0
295
0
296
0
143
3.75
271
0
272
9
273
9
  0
DICTIONARY
  5
2D
330
A
100
AcDbDictionary
281
1
  3
CREATED_BY_EZDXF
350
2E
  3
WRITTEN_BY_EZDXF
350
45
  0
DICTIONARYVAR
  5
2E
330
2D
100
DictionaryVariables
280
0
  1
1.0.3 @ 2025-05-29T09:41:26.165529+00:00
  0
DICTIONARYVAR
  5
45
330
2D
100
DictionaryVariables
280
0
  1
1.0.3 @ 2025-05-29T09:41:26.170769+00:00
  0
ENDSEC
  0
EOF
