  0
SECTION
  2
HEADER
  9
$ACADVER
  1
AC1027
  9
$ACADMAINTVER
 70
105
  9
$DWGCODEPAGE
  3
ANSI_1252
  9
$LASTSAVEDBY
  1
ezdxf
  9
$REQUIREDVERSIONS
160
0
  9
$INSBASE
 10
0.0
 20
0.0
 30
0.0
  9
$EXTMIN
 10
1e+20
 20
1e+20
 30
1e+20
  9
$EXTMAX
 10
-1e+20
 20
-1e+20
 30
-1e+20
  9
$LIMMIN
 10
0.0
 20
0.0
  9
$LIMMAX
 10
420.0
 20
297.0
  9
$ORTHOMODE
 70
0
  9
$REGENMODE
 70
1
  9
$FILLMODE
 70
1
  9
$QTEXTMODE
 70
0
  9
$MIRRTEXT
 70
1
  9
$LTSCALE
 40
1.0
  9
$ATTMODE
 70
1
  9
$TEXTSIZE
 40
2.5
  9
$TRACEWID
 40
1.0
  9
$TEXTSTYLE
  7
Standard
  9
$CLAYER
  8
0
  9
$CELTYPE
  6
ByLayer
  9
$CECOLOR
 62
256
  9
$CELTSCALE
 40
1.0
  9
$DISPSILH
 70
0
  9
$DIMSCALE
 40
1.0
  9
$DIMASZ
 40
2.5
  9
$DIMEXO
 40
0.625
  9
$DIMDLI
 40
3.75
  9
$DIMRND
 40
0.0
  9
$DIMDLE
 40
0.0
  9
$DIMEXE
 40
1.25
  9
$DIMTP
 40
0.0
  9
$DIMTM
 40
0.0
  9
$DIMTXT
 40
2.5
  9
$DIMCEN
 40
2.5
  9
$DIMTSZ
 40
0.0
  9
$DIMTOL
 70
0
  9
$DIMLIM
 70
0
  9
$DIMTIH
 70
0
  9
$DIMTOH
 70
0
  9
$DIMSE1
 70
0
  9
$DIMSE2
 70
0
  9
$DIMTAD
 70
1
  9
$DIMZIN
 70
8
  9
$DIMBLK
  1

  9
$DIMASO
 70
1
  9
$DIMSHO
 70
1
  9
$DIMPOST
  1

  9
$DIMAPOST
  1

  9
$DIMALT
 70
0
  9
$DIMALTD
 70
3
  9
$DIMALTF
 40
0.03937007874
  9
$DIMLFAC
 40
1.0
  9
$DIMTOFL
 70
1
  9
$DIMTVP
 40
0.0
  9
$DIMTIX
 70
0
  9
$DIMSOXD
 70
0
  9
$DIMSAH
 70
0
  9
$DIMBLK1
  1

  9
$DIMBLK2
  1

  9
$DIMSTYLE
  2
ISO-25
  9
$DIMCLRD
 70
0
  9
$DIMCLRE
 70
0
  9
$DIMCLRT
 70
0
  9
$DIMTFAC
 40
1.0
  9
$DIMGAP
 40
0.625
  9
$DIMJUST
 70
0
  9
$DIMSD1
 70
0
  9
$DIMSD2
 70
0
  9
$DIMTOLJ
 70
0
  9
$DIMTZIN
 70
8
  9
$DIMALTZ
 70
0
  9
$DIMALTTZ
 70
0
  9
$DIMUPT
 70
0
  9
$DIMDEC
 70
2
  9
$DIMTDEC
 70
2
  9
$DIMALTU
 70
2
  9
$DIMALTTD
 70
3
  9
$DIMTXSTY
  7
Standard
  9
$DIMAUNIT
 70
0
  9
$DIMADEC
 70
0
  9
$DIMALTRND
 40
0.0
  9
$DIMAZIN
 70
0
  9
$DIMDSEP
 70
44
  9
$DIMATFIT
 70
3
  9
$DIMFRAC
 70
0
  9
$DIMLDRBLK
  1

  9
$DIMLUNIT
 70
2
  9
$DIMLWD
 70
-2
  9
$DIMLWE
 70
-2
  9
$DIMTMOVE
 70
0
  9
$DIMFXL
 40
1.0
  9
$DIMFXLON
 70
0
  9
$DIMJOGANG
 40
0.785398163397
  9
$DIMTFILL
 70
0
  9
$DIMTFILLCLR
 70
0
  9
$DIMARCSYM
 70
0
  9
$DIMLTYPE
  6

  9
$DIMLTEX1
  6

  9
$DIMLTEX2
  6

  9
$DIMTXTDIRECTION
 70
0
  9
$LUNITS
 70
2
  9
$LUPREC
 70
4
  9
$SKETCHINC
 40
1.0
  9
$FILLETRAD
 40
10.0
  9
$AUNITS
 70
0
  9
$AUPREC
 70
2
  9
$MENU
  1
.
  9
$ELEVATION
 40
0.0
  9
$PELEVATION
 40
0.0
  9
$THICKNESS
 40
0.0
  9
$LIMCHECK
 70
0
  9
$CHAMFERA
 40
0.0
  9
$CHAMFERB
 40
0.0
  9
$CHAMFERC
 40
0.0
  9
$CHAMFERD
 40
0.0
  9
$SKPOLY
 70
0
  9
$TDCREATE
 40
2460825.778773148
  9
$TDUCREATE
 40
2458532.153996898
  9
$TDUPDATE
 40
2460825.778773148
  9
$TDUUPDATE
 40
2458532.1544311
  9
$TDINDWG
 40
0.0
  9
$TDUSRTIMER
 40
0.0
  9
$USRTIMER
 70
1
  9
$ANGBASE
 50
0.0
  9
$ANGDIR
 70
0
  9
$PDMODE
 70
0
  9
$PDSIZE
 40
0.0
  9
$PLINEWID
 40
0.0
  9
$SPLFRAME
 70
0
  9
$SPLINETYPE
 70
6
  9
$SPLINESEGS
 70
8
  9
$HANDSEED
  5
3F
  9
$SURFTAB1
 70
6
  9
$SURFTAB2
 70
6
  9
$SURFTYPE
 70
6
  9
$SURFU
 70
6
  9
$SURFV
 70
6
  9
$UCSBASE
  2

  9
$UCSNAME
  2

  9
$UCSORG
 10
0.0
 20
0.0
 30
0.0
  9
$UCSXDIR
 10
1.0
 20
0.0
 30
0.0
  9
$UCSYDIR
 10
0.0
 20
1.0
 30
0.0
  9
$UCSORTHOREF
  2

  9
$UCSORTHOVIEW
 70
0
  9
$UCSORGTOP
 10
0.0
 20
0.0
 30
0.0
  9
$UCSORGBOTTOM
 10
0.0
 20
0.0
 30
0.0
  9
$UCSORGLEFT
 10
0.0
 20
0.0
 30
0.0
  9
$UCSORGRIGHT
 10
0.0
 20
0.0
 30
0.0
  9
$UCSORGFRONT
 10
0.0
 20
0.0
 30
0.0
  9
$UCSORGBACK
 10
0.0
 20
0.0
 30
0.0
  9
$PUCSBASE
  2

  9
$PUCSNAME
  2

  9
$PUCSORG
 10
0.0
 20
0.0
 30
0.0
  9
$PUCSXDIR
 10
1.0
 20
0.0
 30
0.0
  9
$PUCSYDIR
 10
0.0
 20
1.0
 30
0.0
  9
$PUCSORTHOREF
  2

  9
$PUCSORTHOVIEW
 70
0
  9
$PUCSORGTOP
 10
0.0
 20
0.0
 30
0.0
  9
$PUCSORGBOTTOM
 10
0.0
 20
0.0
 30
0.0
  9
$PUCSORGLEFT
 10
0.0
 20
0.0
 30
0.0
  9
$PUCSORGRIGHT
 10
0.0
 20
0.0
 30
0.0
  9
$PUCSORGFRONT
 10
0.0
 20
0.0
 30
0.0
  9
$PUCSORGBACK
 10
0.0
 20
0.0
 30
0.0
  9
$USERI1
 70
0
  9
$USERI2
 70
0
  9
$USERI3
 70
0
  9
$USERI4
 70
0
  9
$USERI5
 70
0
  9
$USERR1
 40
0.0
  9
$USERR2
 40
0.0
  9
$USERR3
 40
0.0
  9
$USERR4
 40
0.0
  9
$USERR5
 40
0.0
  9
$WORLDVIEW
 70
1
  9
$SHADEDGE
 70
3
  9
$SHADEDIF
 70
70
  9
$TILEMODE
 70
1
  9
$MAXACTVP
 70
64
  9
$PINSBASE
 10
0.0
 20
0.0
 30
0.0
  9
$PLIMCHECK
 70
0
  9
$PEXTMIN
 10
1e+20
 20
1e+20
 30
1e+20
  9
$PEXTMAX
 10
-1e+20
 20
-1e+20
 30
-1e+20
  9
$PLIMMIN
 10
0.0
 20
0.0
  9
$PLIMMAX
 10
420.0
 20
297.0
  9
$UNITMODE
 70
0
  9
$VISRETAIN
 70
1
  9
$PLINEGEN
 70
0
  9
$PSLTSCALE
 70
1
  9
$TREEDEPTH
 70
3020
  9
$CMLSTYLE
  2
Standard
  9
$CMLJUST
 70
0
  9
$CMLSCALE
 40
20.0
  9
$PROXYGRAPHICS
 70
1
  9
$MEASUREMENT
 70
1
  9
$CELWEIGHT
370
-1
  9
$ENDCAPS
280
0
  9
$JOINSTYLE
280
0
  9
$LWDISPLAY
290
0
  9
$INSUNITS
 70
6
  9
$HYPERLINKBASE
  1

  9
$STYLESHEET
  1

  9
$XEDIT
290
1
  9
$CEPSNTYPE
380
0
  9
$PSTYLEMODE
290
1
  9
$FINGERPRINTGUID
  2
{3188A73D-D687-4DA5-8228-8DD1A91B1B24}
  9
$VERSIONGUID
  2
{2E307701-A121-4720-8A3A-081A095AE1D6}
  9
$EXTNAMES
290
1
  9
$PSVPSCALE
 40
0.0
  9
$OLESTARTUP
290
0
  9
$SORTENTS
280
127
  9
$INDEXCTL
280
0
  9
$HIDETEXT
280
1
  9
$XCLIPFRAME
280
0
  9
$HALOGAP
280
0
  9
$OBSCOLOR
 70
257
  9
$OBSLTYPE
280
0
  9
$INTERSECTIONDISPLAY
280
0
  9
$INTERSECTIONCOLOR
 70
257
  9
$DIMASSOC
280
2
  9
$PROJECTNAME
  1

  9
$CAMERADISPLAY
290
0
  9
$LENSLENGTH
 40
50.0
  9
$CAMERAHEIGHT
 40
0.0
  9
$STEPSPERSEC
 40
24.0
  9
$STEPSIZE
 40
100.0
  9
$3DDWFPREC
 40
2.0
  9
$PSOLWIDTH
 40
0.005
  9
$PSOLHEIGHT
 40
0.08
  9
$LOFTANG1
 40
1.570796326795
  9
$LOFTANG2
 40
1.570796326795
  9
$LOFTMAG1
 40
0.0
  9
$LOFTMAG2
 40
0.0
  9
$LOFTPARAM
 70
7
  9
$LOFTNORMALS
280
1
  9
$LATITUDE
 40
37.795
  9
$LONGITUDE
 40
-122.394
  9
$NORTHDIRECTION
 40
0.0
  9
$TIMEZONE
 70
-8000
  9
$LIGHTGLYPHDISPLAY
280
1
  9
$TILEMODELIGHTSYNCH
280
1
  9
$CMATERIAL
347
20
  9
$SOLIDHIST
280
0
  9
$SHOWHIST
280
1
  9
$DWFFRAME
280
2
  9
$DGNFRAME
280
2
  9
$REALWORLDSCALE
290
1
  9
$INTERFERECOLOR
 62
256
  9
$CSHADOW
280
0
  9
$SHADOWPLANELOCATION
 40
0.0
  0
ENDSEC
  0
SECTION
  2
CLASSES
  0
CLASS
  1
ACDBDICTIONARYWDFLT
  2
AcDbDictionaryWithDefault
  3
ObjectDBX Classes
 90
0
 91
0
280
0
281
0
  0
CLASS
  1
SUN
  2
AcDbSun
  3
SCENEOE
 90
1153
 91
0
280
0
281
0
  0
CLASS
  1
VISUALSTYLE
  2
AcDbVisualStyle
  3
ObjectDBX Classes
 90
4095
 91
0
280
0
281
0
  0
CLASS
  1
MATERIAL
  2
AcDbMaterial
  3
ObjectDBX Classes
 90
1153
 91
0
280
0
281
0
  0
CLASS
  1
SCALE
  2
AcDbScale
  3
ObjectDBX Classes
 90
1153
 91
0
280
0
281
0
  0
CLASS
  1
TABLESTYLE
  2
AcDbTableStyle
  3
ObjectDBX Classes
 90
4095
 91
0
280
0
281
0
  0
CLASS
  1
MLEADERSTYLE
  2
AcDbMLeaderStyle
  3
ACDB_MLEADERSTYLE_CLASS
 90
4095
 91
0
280
0
281
0
  0
CLASS
  1
DICTIONARYVAR
  2
AcDbDictionaryVar
  3
ObjectDBX Classes
 90
0
 91
0
280
0
281
0
  0
CLASS
  1
CELLSTYLEMAP
  2
AcDbCellStyleMap
  3
ObjectDBX Classes
 90
1152
 91
0
280
0
281
0
  0
CLASS
  1
MENTALRAYRENDERSETTINGS
  2
AcDbMentalRayRenderSettings
  3
SCENEOE
 90
1024
 91
0
280
0
281
0
  0
CLASS
  1
ACDBDETAILVIEWSTYLE
  2
AcDbDetailViewStyle
  3
ObjectDBX Classes
 90
1025
 91
0
280
0
281
0
  0
CLASS
  1
ACDBSECTIONVIEWSTYLE
  2
AcDbSectionViewStyle
  3
ObjectDBX Classes
 90
1025
 91
0
280
0
281
0
  0
CLASS
  1
RASTERVARIABLES
  2
AcDbRasterVariables
  3
ISM
 90
0
 91
0
280
0
281
0
  0
CLASS
  1
LAYOUT
  2
AcDbLayout
  3
ObjectDBX Classes
 90
0
 91
0
280
0
281
0
  0
CLASS
  1
ACDBPLACEHOLDER
  2
AcDbPlaceHolder
  3
ObjectDBX Classes
 90
0
 91
0
280
0
281
0
  0
ENDSEC
  0
SECTION
  2
TABLES
  0
TABLE
  2
VPORT
  5
8
330
0
100
AcDbSymbolTable
 70
1
  0
VPORT
  5
23
330
8
100
AcDbSymbolTableRecord
100
AcDbViewportTableRecord
  2
*Active
 70
0
 10
0.0
 20
0.0
 11
1.0
 21
1.0
 12
0.0
 22
0.0
 13
0.0
 23
0.0
 14
0.5
 24
0.5
 15
0.5
 25
0.5
 16
0.0
 26
0.0
 36
1.0
 17
0.0
 27
0.0
 37
0.0
 40
1000.0
 41
1.34
 42
50.0
 43
0.0
 44
0.0
 50
0.0
 51
0.0
 71
0
 72
1000
 73
1
 74
3
 75
0
 76
0
 77
0
 78
0
281
0
 65
0
146
0.0
  0
ENDTAB
  0
TABLE
  2
LTYPE
  5
2
330
0
100
AcDbSymbolTable
 70
3
  0
LTYPE
  5
24
330
2
100
AcDbSymbolTableRecord
100
AcDbLinetypeTableRecord
  2
ByBlock
 70
0
  3

 72
65
 73
0
 40
0.0
  0
LTYPE
  5
25
330
2
100
AcDbSymbolTableRecord
100
AcDbLinetypeTableRecord
  2
ByLayer
 70
0
  3

 72
65
 73
0
 40
0.0
  0
LTYPE
  5
26
330
2
100
AcDbSymbolTableRecord
100
AcDbLinetypeTableRecord
  2
Continuous
 70
0
  3

 72
65
 73
0
 40
0.0
  0
ENDTAB
  0
TABLE
  2
LAYER
  5
1
330
0
100
AcDbSymbolTable
 70
2
  0
LAYER
  5
27
330
1
100
AcDbSymbolTableRecord
100
AcDbLayerTableRecord
  2
0
 70
0
 62
7
  6
Continuous
370
-3
390
13
347
21
  0
LAYER
  5
28
330
1
100
AcDbSymbolTableRecord
100
AcDbLayerTableRecord
  2
Defpoints
 70
0
 62
7
  6
Continuous
290
0
370
-3
390
13
347
21
  0
ENDTAB
  0
TABLE
  2
STYLE
  5
5
330
0
100
AcDbSymbolTable
 70
1
  0
STYLE
  5
29
330
5
100
AcDbSymbolTableRecord
100
AcDbTextStyleTableRecord
  2
Standard
 70
0
 40
0.0
 41
1.0
 50
0.0
 71
0
 42
2.5
  3
txt
  4

  0
ENDTAB
  0
TABLE
  2
VIEW
  5
7
330
0
100
AcDbSymbolTable
 70
0
  0
ENDTAB
  0
TABLE
  2
UCS
  5
6
330
0
100
AcDbSymbolTable
 70
0
  0
ENDTAB
  0
TABLE
  2
APPID
  5
3
330
0
100
AcDbSymbolTable
 70
3
  0
APPID
  5
2A
330
3
100
AcDbSymbolTableRecord
100
AcDbRegAppTableRecord
  2
ACAD
 70
0
  0
APPID
  5
3C
330
3
100
AcDbSymbolTableRecord
100
AcDbRegAppTableRecord
  2
HATCHBACKGROUNDCOLOR
 70
0
  0
APPID
  5
3D
330
3
100
AcDbSymbolTableRecord
100
AcDbRegAppTableRecord
  2
EZDXF
 70
0
  0
ENDTAB
  0
TABLE
  2
DIMSTYLE
  5
4
330
0
100
AcDbSymbolTable
 70
1
100
AcDbDimStyleTable
  0
DIMSTYLE
105
2B
330
4
100
AcDbSymbolTableRecord
100
AcDbDimStyleTableRecord
  2
Standard
 70
0
 40
1.0
 41
2.5
 42
0.625
 43
3.75
 44
1.25
 45
0.0
 46
0.0
 47
0.0
 48
0.0
 49
2.5
140
2.5
141
2.5
142
0.0
143
0.03937007874
144
1.0
145
0.0
146
1.0
147
0.625
148
0.0
 69
0
 70
0
 71
0
 72
0
 73
0
 74
0
 75
0
 76
0
 77
1
 78
8
 79
3
170
0
171
3
172
1
173
0
174
0
175
0
176
0
177
0
178
0
179
2
271
2
272
2
273
2
274
3
275
0
276
0
277
2
278
44
279
0
280
0
281
0
282
0
283
0
284
8
285
0
286
0
288
0
289
3
290
0
371
-2
372
-2
  0
ENDTAB
  0
TABLE
  2
BLOCK_RECORD
  5
9
330
0
100
AcDbSymbolTable
 70
2
  0
BLOCK_RECORD
  5
17
330
9
100
AcDbSymbolTableRecord
100
AcDbBlockTableRecord
  2
*Model_Space
340
1A
 70
0
280
1
281
0
  0
BLOCK_RECORD
  5
1B
330
9
100
AcDbSymbolTableRecord
100
AcDbBlockTableRecord
  2
*Paper_Space
340
1E
 70
0
280
1
281
0
  0
ENDTAB
  0
ENDSEC
  0
SECTION
  2
BLOCKS
  0
BLOCK
  5
18
330
17
100
AcDbEntity
  8
0
100
AcDbBlockBegin
  2
*Model_Space
 70
0
 10
0.0
 20
0.0
 30
0.0
  3
*Model_Space
  1

  0
ENDBLK
  5
19
330
17
100
AcDbEntity
  8
0
100
AcDbBlockEnd
  0
BLOCK
  5
1C
330
1B
100
AcDbEntity
  8
0
100
AcDbBlockBegin
  2
*Paper_Space
 70
0
 10
0.0
 20
0.0
 30
0.0
  3
*Paper_Space
  1

  0
ENDBLK
  5
1D
330
1B
100
AcDbEntity
  8
0
100
AcDbBlockEnd
  0
ENDSEC
  0
SECTION
  2
ENTITIES
  0
LWPOLYLINE
  5
2F
330
17
100
AcDbEntity
  8
0
100
AcDbPolyline
 90
51
 70
0
 10
3.0
 20
-4.0
 10
3.0
 20
-4.121246117975
 10
3.0
 20
-4.24249223595
 10
3.0
 20
-4.363738353925
 10
3.0
 20
-4.4849844719
 10
3.0
 20
-4.606230589875
 10
3.0
 20
-4.72747670785
 10
3.0
 20
-4.848722825825
 10
3.0
 20
-4.9699689438
 10
3.0
 20
-5.091215061774999
 10
3.0
 20
-5.21246117975
 10
3.0
 20
-5.333707297725
 10
3.0
 20
-5.4549534157
 10
3.0
 20
-5.576199533675
 10
3.0
 20
-5.69744565165
 10
3.0
 20
-5.818691769625
 10
3.0
 20
-5.939937887599999
 10
3.0
 20
-6.061184005574999
 10
3.0
 20
-6.18243012355
 10
3.0
 20
-6.303676241524999
 10
3.0
 20
-6.4249223595
 10
3.0
 20
-6.546168477475
 10
3.0
 20
-6.6674145954499995
 10
3.0
 20
-6.788660713424999
 10
3.0
 20
-6.9099068314
 10
3.0
 20
-7.0311529493750005
 10
3.0
 20
-7.15239906735
 10
3.0
 20
-7.273645185325
 10
3.0
 20
-7.3948913033
 10
3.0
 20
-7.516137421274999
 10
3.0
 20
-7.637383539249999
 10
3.0
 20
-7.758629657224999
 10
3.0
 20
-7.8798757751999995
 10
3.0
 20
-8.001121893175
 10
3.0
 20
-8.122368011149998
 10
3.0
 20
-8.243614129125
 10
3.0
 20
-8.3648602471
 10
3.0
 20
-8.486106365074999
 10
3.0
 20
-8.607352483049999
 10
3.0
 20
-8.728598601024999
 10
3.0
 20
-8.849844719
 10
3.0
 20
-8.971090836975
 10
3.0
 20
-9.09233695495
 10
3.0
 20
-9.213583072925
 10
3.0
 20
-9.334829190899999
 10
3.0
 20
-9.456075308875
 10
3.0
 20
-9.577321426849998
 10
3.0
 20
-9.698567544825
 10
3.0
 20
-9.8198136628
 10
3.0
 20
-9.941059780775
 10
3.0
 20
-10.062305898750001
  0
LWPOLYLINE
  5
30
330
17
100
AcDbEntity
  8
0
100
AcDbPolyline
 90
51
 70
0
 10
3.0
 20
10.06230589875
 10
3.0
 20
9.941059780775
 10
3.0
 20
9.8198136628
 10
3.0
 20
9.698567544825
 10
3.0
 20
9.577321426849998
 10
3.0
 20
9.456075308874999
 10
3.0
 20
9.334829190899999
 10
3.0
 20
9.213583072925
 10
3.0
 20
9.09233695495
 10
3.0
 20
8.971090836975
 10
3.0
 20
8.849844719
 10
3.0
 20
8.728598601024999
 10
3.0
 20
8.607352483049999
 10
3.0
 20
8.486106365074999
 10
3.0
 20
8.3648602471
 10
3.0
 20
8.243614129125
 10
3.0
 20
8.12236801115
 10
3.0
 20
8.001121893175
 10
3.0
 20
7.8798757751999995
 10
3.0
 20
7.758629657225
 10
3.0
 20
7.637383539249999
 10
3.0
 20
7.516137421274999
 10
3.0
 20
7.3948913033
 10
3.0
 20
7.273645185325
 10
3.0
 20
7.152399067349999
 10
3.0
 20
7.031152949374999
 10
3.0
 20
6.909906831399999
 10
3.0
 20
6.788660713424999
 10
3.0
 20
6.6674145954499995
 10
3.0
 20
6.546168477475
 10
3.0
 20
6.4249223595
 10
3.0
 20
6.303676241525
 10
3.0
 20
6.18243012355
 10
3.0
 20
6.061184005575
 10
3.0
 20
5.9399378876
 10
3.0
 20
5.818691769625
 10
3.0
 20
5.69744565165
 10
3.0
 20
5.576199533675
 10
3.0
 20
5.4549534157
 10
3.0
 20
5.333707297725
 10
3.0
 20
5.21246117975
 10
3.0
 20
5.091215061774999
 10
3.0
 20
4.9699689438
 10
3.0
 20
4.848722825825
 10
3.0
 20
4.72747670785
 10
3.0
 20
4.606230589875
 10
3.0
 20
4.484984471900001
 10
3.0
 20
4.363738353925
 10
3.0
 20
4.2424922359499995
 10
3.0
 20
4.121246117975
 10
3.0
 20
3.999999999999999
  0
LWPOLYLINE
  5
31
330
17
100
AcDbEntity
  8
0
100
AcDbPolyline
 90
51
 70
0
 10
-3.0
 20
4.0
 10
-3.0
 20
4.121246117975
 10
-3.0
 20
4.24249223595
 10
-3.0
 20
4.363738353925
 10
-3.0
 20
4.4849844719
 10
-3.0
 20
4.606230589875
 10
-3.0
 20
4.72747670785
 10
-3.0
 20
4.848722825825
 10
-3.0
 20
4.9699689438
 10
-3.0
 20
5.091215061774999
 10
-3.0
 20
5.21246117975
 10
-3.0
 20
5.333707297725
 10
-3.0
 20
5.4549534157
 10
-3.0
 20
5.576199533675
 10
-3.0
 20
5.69744565165
 10
-3.0
 20
5.818691769625
 10
-3.0
 20
5.939937887599999
 10
-3.0
 20
6.061184005574999
 10
-3.0
 20
6.18243012355
 10
-3.0
 20
6.303676241524999
 10
-3.0
 20
6.4249223595
 10
-3.0
 20
6.546168477475
 10
-3.0
 20
6.6674145954499995
 10
-3.0
 20
6.788660713424999
 10
-3.0
 20
6.9099068314
 10
-3.0
 20
7.0311529493750005
 10
-3.0
 20
7.15239906735
 10
-3.0
 20
7.273645185325
 10
-3.0
 20
7.3948913033
 10
-3.0
 20
7.516137421274999
 10
-3.0
 20
7.637383539249999
 10
-3.0
 20
7.758629657224999
 10
-3.0
 20
7.8798757751999995
 10
-3.0
 20
8.001121893175
 10
-3.0
 20
8.122368011149998
 10
-3.0
 20
8.243614129125
 10
-3.0
 20
8.3648602471
 10
-3.0
 20
8.486106365074999
 10
-3.0
 20
8.607352483049999
 10
-3.0
 20
8.728598601024999
 10
-3.0
 20
8.849844719
 10
-3.0
 20
8.971090836975
 10
-3.0
 20
9.09233695495
 10
-3.0
 20
9.213583072925
 10
-3.0
 20
9.334829190899999
 10
-3.0
 20
9.456075308875
 10
-3.0
 20
9.577321426849998
 10
-3.0
 20
9.698567544825
 10
-3.0
 20
9.8198136628
 10
-3.0
 20
9.941059780775
 10
-3.0
 20
10.062305898750001
  0
LWPOLYLINE
  5
32
330
17
100
AcDbEntity
  8
0
100
AcDbPolyline
 90
51
 70
0
 10
-3.0
 20
-10.06230589875
 10
-3.0
 20
-9.941059780775
 10
-3.0
 20
-9.8198136628
 10
-3.0
 20
-9.698567544825
 10
-3.0
 20
-9.577321426849998
 10
-3.0
 20
-9.456075308874999
 10
-3.0
 20
-9.334829190899999
 10
-3.0
 20
-9.213583072925
 10
-3.0
 20
-9.09233695495
 10
-3.0
 20
-8.971090836975
 10
-3.0
 20
-8.849844719
 10
-3.0
 20
-8.728598601024999
 10
-3.0
 20
-8.607352483049999
 10
-3.0
 20
-8.486106365074999
 10
-3.0
 20
-8.3648602471
 10
-3.0
 20
-8.243614129125
 10
-3.0
 20
-8.12236801115
 10
-3.0
 20
-8.001121893175
 10
-3.0
 20
-7.8798757751999995
 10
-3.0
 20
-7.758629657225
 10
-3.0
 20
-7.637383539249999
 10
-3.0
 20
-7.516137421274999
 10
-3.0
 20
-7.3948913033
 10
-3.0
 20
-7.273645185325
 10
-3.0
 20
-7.152399067349999
 10
-3.0
 20
-7.031152949374999
 10
-3.0
 20
-6.909906831399999
 10
-3.0
 20
-6.788660713424999
 10
-3.0
 20
-6.6674145954499995
 10
-3.0
 20
-6.546168477475
 10
-3.0
 20
-6.4249223595
 10
-3.0
 20
-6.303676241525
 10
-3.0
 20
-6.18243012355
 10
-3.0
 20
-6.061184005575
 10
-3.0
 20
-5.9399378876
 10
-3.0
 20
-5.818691769625
 10
-3.0
 20
-5.69744565165
 10
-3.0
 20
-5.576199533675
 10
-3.0
 20
-5.4549534157
 10
-3.0
 20
-5.333707297725
 10
-3.0
 20
-5.21246117975
 10
-3.0
 20
-5.091215061774999
 10
-3.0
 20
-4.9699689438
 10
-3.0
 20
-4.848722825825
 10
-3.0
 20
-4.72747670785
 10
-3.0
 20
-4.606230589875
 10
-3.0
 20
-4.484984471900001
 10
-3.0
 20
-4.363738353925
 10
-3.0
 20
-4.2424922359499995
 10
-3.0
 20
-4.121246117975
 10
-3.0
 20
-3.999999999999999
  0
LWPOLYLINE
  5
33
330
17
100
AcDbEntity
  8
0
100
AcDbPolyline
 90
51
 70
0
 10
-6.123233995736766e-16
 20
-5.0
 10
0.6266661678215214
 20
-4.9605735065723895
 10
1.243449435824273
 20
-4.842915805643156
 10
1.8406227634233896
 20
-4.648882429441257
 10
2.408768370508575
 20
-4.381533400219318
 10
2.938926261462365
 20
-4.045084971874737
 10
3.4227355296434436
 20
-3.644843137107058
 10
3.852566213878947
 20
-3.1871199487434474
 10
4.221639627510074
 20
-2.6791339748949854
 10
4.5241352623300966
 20
-2.128896457825365
 10
4.755282581475767
 20
-1.5450849718747377
 10
4.911436253643443
 20
-0.9369065729286231
 10
4.990133642141358
 20
-0.313952597646566
 10
4.990133642141358
 20
0.31395259764656414
 10
4.911436253643443
 20
0.9369065729286213
 10
4.755282581475768
 20
1.5450849718747361
 10
4.524135262330098
 20
2.128896457825363
 10
4.221639627510075
 20
2.6791339748949836
 10
3.852566213878948
 20
3.1871199487434465
 10
3.422735529643445
 20
3.644843137107056
 10
2.938926261462367
 20
4.045084971874736
 10
2.4087683705085765
 20
4.381533400219318
 10
1.8406227634233894
 20
4.648882429441257
 10
1.2434494358242767
 20
4.8429158056431545
 10
0.6266661678215233
 20
4.960573506572389
 10
1.2246467991473533e-15
 20
5.0
 10
-0.6266661678215208
 20
4.9605735065723895
 10
-1.2434494358242745
 20
4.842915805643155
 10
-1.840622763423387
 20
4.648882429441258
 10
-2.4087683705085783
 20
4.3815334002193165
 10
-2.9389262614623646
 20
4.045084971874738
 10
-3.4227355296434396
 20
3.644843137107061
 10
-3.852566213878946
 20
3.1871199487434483
 10
-4.221639627510076
 20
2.6791339748949823
 10
-4.524135262330098
 20
2.1288964578253613
 10
-4.755282581475767
 20
1.5450849718747386
 10
-4.911436253643443
 20
0.9369065729286237
 10
-4.990133642141358
 20
0.3139525976465666
 10
-4.990133642141358
 20
-0.3139525976465635
 10
-4.911436253643443
 20
-0.9369065729286251
 10
-4.755282581475768
 20
-1.5450849718747355
 10
-4.5241352623301
 20
-2.1288964578253586
 10
-4.221639627510076
 20
-2.679133974894983
 10
-3.8525662138789487
 20
-3.187119948743446
 10
-3.422735529643442
 20
-3.644843137107059
 10
-2.938926261462367
 20
-4.045084971874736
 10
-2.408768370508581
 20
-4.381533400219316
 10
-1.8406227634233898
 20
-4.648882429441257
 10
-1.2434494358242774
 20
-4.8429158056431545
 10
-0.6266661678215195
 20
-4.9605735065723895
 10
-1.8369701987210296e-15
 20
-5.0
  0
LWPOLYLINE
  5
34
330
17
100
AcDbEntity
  8
0
100
AcDbPolyline
 90
51
 70
0
 10
3.0000000000001714
 20
-10.062305898749003
 10
2.8831783085246014
 20
-10.096399498893316
 10
2.765969324971884
 20
-10.129136868130207
 10
2.6483887938107413
 20
-10.16051360890864
 10
2.5304525094192076
 20
-10.190525506448331
 10
2.412176313963
 20
-10.21916852930589
 10
2.293576095267466
 20
-10.246438829916354
 10
2.174667784683406
 20
-10.27233274511005
 10
2.055467354947038
 20
-10.29684679660463
 10
1.9359908180344163
 20
-10.319977691472324
 10
1.8162542230105632
 20
-10.341722322582266
 10
1.6962736538736352
 20
-10.362077769017862
 10
1.5760652273943856
 20
-10.381041296469169
 10
1.4556450909512282
 20
-10.398610357600173
 10
1.3350294203611897
 20
-10.414782592390974
 10
1.2142344177070408
 20
-10.429555828454808
 10
1.0932763091609017
 20
-10.44292808132985
 10
0.9721713428046095
 20
-10.45489755474579
 10
0.8509357864471423
 20
-10.465462640865123
 10
0.7295859254393937
 20
-10.474621920499125
 10
0.6081380604865956
 20
-10.482374163298486
 10
0.48660850545866463
 20
-10.488718327918587
 10
0.36501358519880434
 20
-10.493653562159382
 10
0.2433696333306017
 20
-10.49717920307987
 10
0.12169299006397738
 20
-10.49929477708714
 10
2.2426505097428162e-13
 20
-10.5
 10
-0.12169299006352885
 20
-10.499294777087147
 10
-0.2433696333301536
 20
-10.49717920307988
 10
-0.3650135851983545
 20
-10.4936535621594
 10
-0.486608505458217
 20
-10.488718327918608
 10
-0.6081380604861466
 20
-10.482374163298513
 10
-0.729585925438947
 20
-10.474621920499155
 10
-0.8509357864466951
 20
-10.465462640865159
 10
-0.9721713428041623
 20
-10.45489755474583
 10
-1.0932763091604563
 20
-10.442928081329896
 10
-1.214234417706595
 20
-10.429555828454859
 10
-1.335029420360745
 20
-10.414782592391033
 10
-1.4556450909507839
 20
-10.398610357600235
 10
-1.5760652273939417
 20
-10.381041296469236
 10
-1.6962736538731926
 20
-10.362077769017935
 10
-1.8162542230101208
 20
-10.341722322582342
 10
-1.935990818033975
 20
-10.319977691472408
 10
-2.055467354946599
 20
-10.296846796604719
 10
-2.174667784682967
 20
-10.272332745110143
 10
-2.2935760952670283
 20
-10.246438829916455
 10
-2.4121763139625636
 20
-10.219168529305993
 10
-2.530452509418772
 20
-10.190525506448441
 10
-2.648388793810307
 20
-10.160513608908754
 10
-2.765969324971451
 20
-10.129136868130322
 10
-2.88317830852417
 20
-10.09639949889344
 10
-2.9999999999997407
 20
-10.062305898749132
  0
LWPOLYLINE
  5
35
330
17
100
AcDbEntity
  8
0
100
AcDbPolyline
 90
51
 70
0
 10
3.0
 20
10.06230589875
 10
3.0
 20
10.185559395566798
 10
3.0
 20
10.3088128923836
 10
3.0
 20
10.432066389200399
 10
3.0
 20
10.5553198860172
 10
3.0
 20
10.678573382834
 10
3.0
 20
10.801826879650799
 10
3.0
 20
10.9250803764676
 10
3.0
 20
11.048333873284399
 10
3.0
 20
11.171587370101198
 10
3.0
 20
11.294840866918
 10
3.0
 20
11.418094363734799
 10
3.0
 20
11.5413478605516
 10
3.0
 20
11.664601357368399
 10
3.0
 20
11.787854854185198
 10
3.0
 20
11.911108351002
 10
3.0
 20
12.034361847818799
 10
3.0
 20
12.157615344635598
 10
3.0
 20
12.2808688414524
 10
3.0
 20
12.404122338269199
 10
3.0
 20
12.527375835085998
 10
3.0
 20
12.650629331902799
 10
3.0
 20
12.773882828719598
 10
3.0
 20
12.897136325536398
 10
3.0
 20
13.020389822353199
 10
3.0
 20
13.14364331917
 10
3.0
 20
13.266896815986799
 10
3.0
 20
13.390150312803598
 10
3.0
 20
13.5134038096204
 10
3.0
 20
13.636657306437199
 10
3.0
 20
13.759910803253998
 10
3.0
 20
13.8831643000708
 10
3.0
 20
14.006417796887598
 10
3.0
 20
14.129671293704398
 10
3.0
 20
14.252924790521199
 10
3.0
 20
14.376178287337998
 10
3.0
 20
14.499431784154797
 10
3.0
 20
14.622685280971599
 10
3.0
 20
14.7459387777884
 10
3.0
 20
14.869192274605197
 10
3.0
 20
14.992445771421998
 10
3.0
 20
15.1156992682388
 10
3.0
 20
15.238952765055599
 10
3.0
 20
15.362206261872398
 10
3.0
 20
15.485459758689199
 10
3.0
 20
15.608713255505998
 10
3.0
 20
15.731966752322798
 10
3.0
 20
15.855220249139599
 10
3.0
 20
15.9784737459564
 10
3.0
 20
16.1017272427732
 10
3.0
 20
16.22498073959
  0
LWPOLYLINE
  5
36
330
17
100
AcDbEntity
  8
0
100
AcDbPolyline
 90
51
 70
0
 10
3.0
 20
-16.22498073959
 10
3.0
 20
-16.101727242773197
 10
3.0
 20
-15.978473745956398
 10
3.0
 20
-15.855220249139599
 10
3.0
 20
-15.731966752322798
 10
3.0
 20
-15.608713255505998
 10
3.0
 20
-15.485459758689199
 10
3.0
 20
-15.362206261872398
 10
3.0
 20
-15.238952765055599
 10
3.0
 20
-15.1156992682388
 10
3.0
 20
-14.992445771421998
 10
3.0
 20
-14.869192274605199
 10
3.0
 20
-14.745938777788398
 10
3.0
 20
-14.622685280971599
 10
3.0
 20
-14.4994317841548
 10
3.0
 20
-14.376178287337998
 10
3.0
 20
-14.252924790521199
 10
3.0
 20
-14.129671293704398
 10
3.0
 20
-14.006417796887598
 10
3.0
 20
-13.8831643000708
 10
3.0
 20
-13.759910803253998
 10
3.0
 20
-13.636657306437199
 10
3.0
 20
-13.5134038096204
 10
3.0
 20
-13.390150312803598
 10
3.0
 20
-13.266896815986799
 10
3.0
 20
-13.143643319169998
 10
3.0
 20
-13.020389822353199
 10
3.0
 20
-12.8971363255364
 10
3.0
 20
-12.773882828719598
 10
3.0
 20
-12.650629331902799
 10
3.0
 20
-12.527375835085998
 10
3.0
 20
-12.404122338269199
 10
3.0
 20
-12.2808688414524
 10
3.0
 20
-12.157615344635598
 10
3.0
 20
-12.034361847818799
 10
3.0
 20
-11.911108351002
 10
3.0
 20
-11.787854854185198
 10
3.0
 20
-11.664601357368399
 10
3.0
 20
-11.5413478605516
 10
3.0
 20
-11.418094363734799
 10
3.0
 20
-11.294840866918
 10
3.0
 20
-11.1715873701012
 10
3.0
 20
-11.048333873284399
 10
3.0
 20
-10.9250803764676
 10
3.0
 20
-10.8018268796508
 10
3.0
 20
-10.678573382834
 10
3.0
 20
-10.5553198860172
 10
3.0
 20
-10.4320663892004
 10
3.0
 20
-10.3088128923836
 10
3.0
 20
-10.185559395566798
 10
3.0
 20
-10.062305898749997
  0
LWPOLYLINE
  5
37
330
17
100
AcDbEntity
  8
0
100
AcDbPolyline
 90
51
 70
0
 10
-3.0000000000001714
 20
10.062305898749003
 10
-2.8831783085246014
 20
10.096399498893316
 10
-2.765969324971884
 20
10.129136868130207
 10
-2.6483887938107413
 20
10.16051360890864
 10
-2.5304525094192076
 20
10.190525506448331
 10
-2.412176313963
 20
10.21916852930589
 10
-2.293576095267466
 20
10.246438829916354
 10
-2.174667784683406
 20
10.27233274511005
 10
-2.055467354947038
 20
10.29684679660463
 10
-1.9359908180344163
 20
10.319977691472324
 10
-1.8162542230105632
 20
10.341722322582266
 10
-1.6962736538736352
 20
10.362077769017862
 10
-1.5760652273943856
 20
10.381041296469169
 10
-1.4556450909512282
 20
10.398610357600173
 10
-1.3350294203611897
 20
10.414782592390974
 10
-1.2142344177070408
 20
10.429555828454808
 10
-1.0932763091609017
 20
10.44292808132985
 10
-0.9721713428046095
 20
10.45489755474579
 10
-0.8509357864471423
 20
10.465462640865123
 10
-0.7295859254393937
 20
10.474621920499125
 10
-0.6081380604865956
 20
10.482374163298486
 10
-0.48660850545866463
 20
10.488718327918587
 10
-0.36501358519880434
 20
10.493653562159382
 10
-0.2433696333306017
 20
10.49717920307987
 10
-0.12169299006397738
 20
10.49929477708714
 10
-2.2426505097428162e-13
 20
10.5
 10
0.12169299006352885
 20
10.499294777087147
 10
0.2433696333301536
 20
10.49717920307988
 10
0.3650135851983545
 20
10.4936535621594
 10
0.486608505458217
 20
10.488718327918608
 10
0.6081380604861466
 20
10.482374163298513
 10
0.729585925438947
 20
10.474621920499155
 10
0.8509357864466951
 20
10.465462640865159
 10
0.9721713428041623
 20
10.45489755474583
 10
1.0932763091604563
 20
10.442928081329896
 10
1.214234417706595
 20
10.429555828454859
 10
1.335029420360745
 20
10.414782592391033
 10
1.4556450909507839
 20
10.398610357600235
 10
1.5760652273939417
 20
10.381041296469236
 10
1.6962736538731926
 20
10.362077769017935
 10
1.8162542230101208
 20
10.341722322582342
 10
1.935990818033975
 20
10.319977691472408
 10
2.055467354946599
 20
10.296846796604719
 10
2.174667784682967
 20
10.272332745110143
 10
2.2935760952670283
 20
10.246438829916455
 10
2.4121763139625636
 20
10.219168529305993
 10
2.530452509418772
 20
10.190525506448441
 10
2.648388793810307
 20
10.160513608908754
 10
2.765969324971451
 20
10.129136868130322
 10
2.88317830852417
 20
10.09639949889344
 10
2.9999999999997407
 20
10.062305898749132
  0
LWPOLYLINE
  5
38
330
17
100
AcDbEntity
  8
0
100
AcDbPolyline
 90
51
 70
0
 10
-3.0
 20
16.22498073959
 10
-3.0
 20
16.101727242773197
 10
-3.0
 20
15.978473745956398
 10
-3.0
 20
15.855220249139599
 10
-3.0
 20
15.731966752322798
 10
-3.0
 20
15.608713255505998
 10
-3.0
 20
15.485459758689199
 10
-3.0
 20
15.362206261872398
 10
-3.0
 20
15.238952765055599
 10
-3.0
 20
15.1156992682388
 10
-3.0
 20
14.992445771421998
 10
-3.0
 20
14.869192274605199
 10
-3.0
 20
14.745938777788398
 10
-3.0
 20
14.622685280971599
 10
-3.0
 20
14.4994317841548
 10
-3.0
 20
14.376178287337998
 10
-3.0
 20
14.252924790521199
 10
-3.0
 20
14.129671293704398
 10
-3.0
 20
14.006417796887598
 10
-3.0
 20
13.8831643000708
 10
-3.0
 20
13.759910803253998
 10
-3.0
 20
13.636657306437199
 10
-3.0
 20
13.5134038096204
 10
-3.0
 20
13.390150312803598
 10
-3.0
 20
13.266896815986799
 10
-3.0
 20
13.143643319169998
 10
-3.0
 20
13.020389822353199
 10
-3.0
 20
12.8971363255364
 10
-3.0
 20
12.773882828719598
 10
-3.0
 20
12.650629331902799
 10
-3.0
 20
12.527375835085998
 10
-3.0
 20
12.404122338269199
 10
-3.0
 20
12.2808688414524
 10
-3.0
 20
12.157615344635598
 10
-3.0
 20
12.034361847818799
 10
-3.0
 20
11.911108351002
 10
-3.0
 20
11.787854854185198
 10
-3.0
 20
11.664601357368399
 10
-3.0
 20
11.5413478605516
 10
-3.0
 20
11.418094363734799
 10
-3.0
 20
11.294840866918
 10
-3.0
 20
11.1715873701012
 10
-3.0
 20
11.048333873284399
 10
-3.0
 20
10.9250803764676
 10
-3.0
 20
10.8018268796508
 10
-3.0
 20
10.678573382834
 10
-3.0
 20
10.5553198860172
 10
-3.0
 20
10.4320663892004
 10
-3.0
 20
10.3088128923836
 10
-3.0
 20
10.185559395566798
 10
-3.0
 20
10.062305898749997
  0
LWPOLYLINE
  5
39
330
17
100
AcDbEntity
  8
0
100
AcDbPolyline
 90
51
 70
0
 10
-3.0
 20
-10.06230589875
 10
-3.0
 20
-10.185559395566798
 10
-3.0
 20
-10.3088128923836
 10
-3.0
 20
-10.432066389200399
 10
-3.0
 20
-10.5553198860172
 10
-3.0
 20
-10.678573382834
 10
-3.0
 20
-10.801826879650799
 10
-3.0
 20
-10.9250803764676
 10
-3.0
 20
-11.048333873284399
 10
-3.0
 20
-11.171587370101198
 10
-3.0
 20
-11.294840866918
 10
-3.0
 20
-11.418094363734799
 10
-3.0
 20
-11.5413478605516
 10
-3.0
 20
-11.664601357368399
 10
-3.0
 20
-11.787854854185198
 10
-3.0
 20
-11.911108351002
 10
-3.0
 20
-12.034361847818799
 10
-3.0
 20
-12.157615344635598
 10
-3.0
 20
-12.2808688414524
 10
-3.0
 20
-12.404122338269199
 10
-3.0
 20
-12.527375835085998
 10
-3.0
 20
-12.650629331902799
 10
-3.0
 20
-12.773882828719598
 10
-3.0
 20
-12.897136325536398
 10
-3.0
 20
-13.020389822353199
 10
-3.0
 20
-13.14364331917
 10
-3.0
 20
-13.266896815986799
 10
-3.0
 20
-13.390150312803598
 10
-3.0
 20
-13.5134038096204
 10
-3.0
 20
-13.636657306437199
 10
-3.0
 20
-13.759910803253998
 10
-3.0
 20
-13.8831643000708
 10
-3.0
 20
-14.006417796887598
 10
-3.0
 20
-14.129671293704398
 10
-3.0
 20
-14.252924790521199
 10
-3.0
 20
-14.376178287337998
 10
-3.0
 20
-14.499431784154797
 10
-3.0
 20
-14.622685280971599
 10
-3.0
 20
-14.7459387777884
 10
-3.0
 20
-14.869192274605197
 10
-3.0
 20
-14.992445771421998
 10
-3.0
 20
-15.1156992682388
 10
-3.0
 20
-15.238952765055599
 10
-3.0
 20
-15.362206261872398
 10
-3.0
 20
-15.485459758689199
 10
-3.0
 20
-15.608713255505998
 10
-3.0
 20
-15.731966752322798
 10
-3.0
 20
-15.855220249139599
 10
-3.0
 20
-15.9784737459564
 10
-3.0
 20
-16.1017272427732
 10
-3.0
 20
-16.22498073959
  0
LWPOLYLINE
  5
3A
330
17
100
AcDbEntity
  8
0
100
AcDbPolyline
 90
51
 70
0
 10
3.000000000000383
 20
16.22498073958788
 10
2.8812609662279742
 20
16.24648685853317
 10
2.7623678263073637
 20
16.26712402338477
 10
2.643326939316764
 20
16.28689113035027
 10
2.524144672236741
 20
16.30578712217288
 10
2.4048273996096654
 20
16.32381098818798
 10
2.2853815031987716
 20
16.34096176437718
 10
2.165813371646818
 20
16.357238533419867
 10
2.046129400134397
 20
16.372640424742297
 10
1.9263359900378707
 20
16.38716661456412
 10
1.806439548587
 20
16.40081632594246
 10
1.6864464885222459
 20
16.41358882881349
 10
1.5663632277517794
 20
16.425483440031442
 10
1.446196189008215
 20
16.43649952340516
 10
1.3259517995050891
 20
16.446636489732157
 10
1.2056364905930925
 20
16.455893796830072
 10
1.0852566974160907
 20
16.464270949565716
 10
0.9648188585669302
 20
16.471767499881537
 10
0.8443294157430681
 20
16.47838304681958
 10
0.7237948134020367
 20
16.48411723654295
 10
0.6032214984167541
 20
16.48896976235471
 10
0.4826159197307076
 20
16.492940364714308
 10
0.36198452801303294
 20
16.496028831251454
 10
0.2413337753134912
 20
16.498234996777473
 10
0.1206701147173801
 20
16.49955874329414
 10
3.810285420513537e-13
 20
16.5
 10
-0.1206701147166176
 20
16.49955874329415
 10
-0.24133377531273004
 20
16.498234996777484
 10
-0.36198452801227177
 20
16.496028831251472
 10
-0.48261591972994644
 20
16.49294036471433
 10
-0.6032214984159925
 20
16.48896976235474
 10
-0.7237948134012764
 20
16.484117236542982
 10
-0.8443294157423078
 20
16.47838304681962
 10
-0.9648188585661699
 20
16.47176749988158
 10
-1.085256697415331
 20
16.464270949565766
 10
-1.2056364905923345
 20
16.45589379683013
 10
-1.3259517995043302
 20
16.446636489732217
 10
-1.4461961890074573
 20
16.43649952340523
 10
-1.566363227751022
 20
16.425483440031513
 10
-1.6864464885214892
 20
16.41358882881357
 10
-1.8064395485862437
 20
16.400816325942547
 10
-1.9263359900371135
 20
16.387166614564208
 10
-2.046129400133641
 20
16.372640424742396
 10
-2.165813371646065
 20
16.35723853341997
 10
-2.2853815031980176
 20
16.340961764377287
 10
-2.4048273996089127
 20
16.323810988188093
 10
-2.5241446722359897
 20
16.305787122172994
 10
-2.6433269393160126
 20
16.28689113035039
 10
-2.762367826306612
 20
16.2671240233849
 10
-2.8812609662272246
 20
16.246486858533306
 10
-2.9999999999996336
 20
16.22498073958802
  0
LWPOLYLINE
  5
3B
330
17
100
AcDbEntity
  8
0
100
AcDbPolyline
 90
51
 70
0
 10
-3.000000000000383
 20
-16.22498073958788
 10
-2.8812609662279742
 20
-16.24648685853317
 10
-2.7623678263073637
 20
-16.26712402338477
 10
-2.643326939316764
 20
-16.28689113035027
 10
-2.524144672236741
 20
-16.30578712217288
 10
-2.4048273996096654
 20
-16.32381098818798
 10
-2.2853815031987716
 20
-16.34096176437718
 10
-2.165813371646818
 20
-16.357238533419867
 10
-2.046129400134397
 20
-16.372640424742297
 10
-1.9263359900378707
 20
-16.38716661456412
 10
-1.806439548587
 20
-16.40081632594246
 10
-1.6864464885222459
 20
-16.41358882881349
 10
-1.5663632277517794
 20
-16.425483440031442
 10
-1.446196189008215
 20
-16.43649952340516
 10
-1.3259517995050891
 20
-16.446636489732157
 10
-1.2056364905930925
 20
-16.455893796830072
 10
-1.0852566974160907
 20
-16.464270949565716
 10
-0.9648188585669302
 20
-16.471767499881537
 10
-0.8443294157430681
 20
-16.47838304681958
 10
-0.7237948134020367
 20
-16.48411723654295
 10
-0.6032214984167541
 20
-16.48896976235471
 10
-0.4826159197307076
 20
-16.492940364714308
 10
-0.36198452801303294
 20
-16.496028831251454
 10
-0.2413337753134912
 20
-16.498234996777473
 10
-0.1206701147173801
 20
-16.49955874329414
 10
-3.810285420513537e-13
 20
-16.5
 10
0.1206701147166176
 20
-16.49955874329415
 10
0.24133377531273004
 20
-16.498234996777484
 10
0.36198452801227177
 20
-16.496028831251472
 10
0.48261591972994644
 20
-16.49294036471433
 10
0.6032214984159925
 20
-16.48896976235474
 10
0.7237948134012764
 20
-16.484117236542982
 10
0.8443294157423078
 20
-16.47838304681962
 10
0.9648188585661699
 20
-16.47176749988158
 10
1.085256697415331
 20
-16.464270949565766
 10
1.2056364905923345
 20
-16.45589379683013
 10
1.3259517995043302
 20
-16.446636489732217
 10
1.4461961890074573
 20
-16.43649952340523
 10
1.566363227751022
 20
-16.425483440031513
 10
1.6864464885214892
 20
-16.41358882881357
 10
1.8064395485862437
 20
-16.400816325942547
 10
1.9263359900371135
 20
-16.387166614564208
 10
2.046129400133641
 20
-16.372640424742396
 10
2.165813371646065
 20
-16.35723853341997
 10
2.2853815031980176
 20
-16.340961764377287
 10
2.4048273996089127
 20
-16.323810988188093
 10
2.5241446722359897
 20
-16.305787122172994
 10
2.6433269393160126
 20
-16.28689113035039
 10
2.762367826306612
 20
-16.2671240233849
 10
2.8812609662272246
 20
-16.246486858533306
 10
2.9999999999996336
 20
-16.22498073958802
  0
ENDSEC
  0
SECTION
  2
OBJECTS
  0
DICTIONARY
  5
A
330
0
100
AcDbDictionary
280
0
281
1
  3
ACAD_COLOR
350
B
  3
ACAD_GROUP
350
C
  3
ACAD_LAYOUT
350
D
  3
ACAD_MATERIAL
350
E
  3
ACAD_MLEADERSTYLE
350
F
  3
ACAD_MLINESTYLE
350
10
  3
ACAD_PLOTSETTINGS
350
11
  3
ACAD_PLOTSTYLENAME
350
12
  3
ACAD_SCALELIST
350
14
  3
ACAD_TABLESTYLE
350
15
  3
ACAD_VISUALSTYLE
350
16
  3
EZDXF_META
350
2D
  0
DICTIONARY
  5
B
330
A
100
AcDbDictionary
280
0
281
1
  0
DICTIONARY
  5
C
330
A
100
AcDbDictionary
280
0
281
1
  0
DICTIONARY
  5
D
330
A
100
AcDbDictionary
280
0
281
1
  3
Model
350
1A
  3
Layout1
350
1E
  0
DICTIONARY
  5
E
330
A
100
AcDbDictionary
280
0
281
1
  3
ByBlock
350
1F
  3
ByLayer
350
20
  3
Global
350
21
  0
DICTIONARY
  5
F
330
A
100
AcDbDictionary
280
0
281
1
  3
Standard
350
2C
  0
DICTIONARY
  5
10
330
A
100
AcDbDictionary
280
0
281
1
  3
Standard
350
22
  0
DICTIONARY
  5
11
330
A
100
AcDbDictionary
280
0
281
1
  0
ACDBDICTIONARYWDFLT
  5
12
330
A
100
AcDbDictionary
280
0
281
1
  3
Normal
350
13
100
AcDbDictionaryWithDefault
340
13
  0
ACDBPLACEHOLDER
  5
13
330
12
  0
DICTIONARY
  5
14
330
A
100
AcDbDictionary
280
0
281
1
  0
DICTIONARY
  5
15
330
A
100
AcDbDictionary
280
0
281
1
  0
DICTIONARY
  5
16
330
A
100
AcDbDictionary
280
0
281
1
  0
LAYOUT
  5
1A
330
D
100
AcDbPlotSettings
  1

  2
Adobe PDF
  4
A3
  6

 40
7.5
 41
20.0
 42
7.5
 43
20.0
 44
420.0
 45
297.0
 46
0.0
 47
0.0
 48
0.0
 49
0.0
140
0.0
141
0.0
142
1.0
143
1.0
 70
1024
 72
1
 73
0
 74
5
  7

 75
16
 76
0
 77
2
 78
300
147
1.0
148
0.0
149
0.0
100
AcDbLayout
  1
Model
 70
1
 71
0
 10
0.0
 20
0.0
 11
420.0
 21
297.0
 12
0.0
 22
0.0
 32
0.0
 14
1e+20
 24
1e+20
 34
1e+20
 15
-1e+20
 25
-1e+20
 35
-1e+20
146
0.0
 13
0.0
 23
0.0
 33
0.0
 16
1.0
 26
0.0
 36
0.0
 17
0.0
 27
1.0
 37
0.0
 76
1
330
17
  0
LAYOUT
  5
1E
330
D
100
AcDbPlotSettings
  1

  2
Adobe PDF
  4
A3
  6

 40
7.5
 41
20.0
 42
7.5
 43
20.0
 44
420.0
 45
297.0
 46
0.0
 47
0.0
 48
0.0
 49
0.0
140
0.0
141
0.0
142
1.0
143
1.0
 70
0
 72
1
 73
0
 74
5
  7

 75
16
 76
0
 77
2
 78
300
147
1.0
148
0.0
149
0.0
100
AcDbLayout
  1
Layout1
 70
1
 71
1
 10
0.0
 20
0.0
 11
420.0
 21
297.0
 12
0.0
 22
0.0
 32
0.0
 14
1e+20
 24
1e+20
 34
1e+20
 15
-1e+20
 25
-1e+20
 35
-1e+20
146
0.0
 13
0.0
 23
0.0
 33
0.0
 16
1.0
 26
0.0
 36
0.0
 17
0.0
 27
1.0
 37
0.0
 76
1
330
1B
  0
MATERIAL
  5
1F
102
{ACAD_REACTORS
330
E
102
}
330
E
100
AcDbMaterial
  1
ByBlock
  2

 70
0
 40
1.0
 71
1
 41
1.0
 91
-1023410177
 42
1.0
 72
1
  3

 73
1
 74
1
 75
1
 44
0.5
 73
0
 45
1.0
 46
1.0
 77
1
  4

 78
1
 79
1
170
1
 48
1.0
171
1
  6

172
1
173
1
174
1
140
1.0
141
1.0
175
1
  7

176
1
177
1
178
1
143
1.0
179
1
  8

270
1
271
1
272
1
145
1.0
146
1.0
273
1
  9

274
1
275
1
276
1
 42
1.0
 72
1
  3

 73
1
 74
1
 75
1
 94
63
  0
MATERIAL
  5
20
102
{ACAD_REACTORS
330
E
102
}
330
E
100
AcDbMaterial
  1
ByLayer
  2

 70
0
 40
1.0
 71
1
 41
1.0
 91
-1023410177
 42
1.0
 72
1
  3

 73
1
 74
1
 75
1
 44
0.5
 73
0
 45
1.0
 46
1.0
 77
1
  4

 78
1
 79
1
170
1
 48
1.0
171
1
  6

172
1
173
1
174
1
140
1.0
141
1.0
175
1
  7

176
1
177
1
178
1
143
1.0
179
1
  8

270
1
271
1
272
1
145
1.0
146
1.0
273
1
  9

274
1
275
1
276
1
 42
1.0
 72
1
  3

 73
1
 74
1
 75
1
 94
63
  0
MATERIAL
  5
21
102
{ACAD_REACTORS
330
E
102
}
330
E
100
AcDbMaterial
  1
Global
  2

 70
0
 40
1.0
 71
1
 41
1.0
 91
-1023410177
 42
1.0
 72
1
  3

 73
1
 74
1
 75
1
 44
0.5
 73
0
 45
1.0
 46
1.0
 77
1
  4

 78
1
 79
1
170
1
 48
1.0
171
1
  6

172
1
173
1
174
1
140
1.0
141
1.0
175
1
  7

176
1
177
1
178
1
143
1.0
179
1
  8

270
1
271
1
272
1
145
1.0
146
1.0
273
1
  9

274
1
275
1
276
1
 42
1.0
 72
1
  3

 73
1
 74
1
 75
1
 94
63
  0
MLINESTYLE
  5
22
102
{ACAD_REACTORS
330
10
102
}
330
10
100
AcDbMlineStyle
  2
Standard
 70
0
  3

 62
256
 51
90.0
 52
90.0
 71
2
 49
0.5
 62
256
  6
BYLAYER
 49
-0.5
 62
256
  6
BYLAYER
  0
MLEADERSTYLE
  5
2C
102
{ACAD_REACTORS
330
F
102
}
330
F
100
AcDbMLeaderStyle
179
2
170
2
171
1
172
0
 90
2
 40
0.0
 41
0.0
173
1
 91
-1056964608
 92
-2
290
1
 42
2.0
291
1
 43
8.0
  3
Standard
 44
4.0
300

342
29
174
1
175
1
176
0
178
1
 93
-1056964608
 45
4.0
292
0
297
0
 46
4.0
 94
-1056964608
 47
1.0
 49
1.0
140
1.0
294
1
141
0.0
177
0
142
1.0
295
0
296
0
143
3.75
271
0
272
9
273
9
  0
DICTIONARY
  5
2D
330
A
100
AcDbDictionary
281
1
  3
CREATED_BY_EZDXF
350
2E
  3
WRITTEN_BY_EZDXF
350
3E
  0
DICTIONARYVAR
  5
2E
330
2D
100
DictionaryVariables
280
0
  1
1.0.3 @ 2025-05-29T09:41:26.148609+00:00
  0
DICTIONARYVAR
  5
3E
330
2D
100
DictionaryVariables
280
0
  1
1.0.3 @ 2025-05-29T09:41:26.151115+00:00
  0
ENDSEC
  0
EOF
