  0
SECTION
  2
HEADER
  9
$ACADVER
  1
AC1027
  9
$ACADMAINTVER
 70
105
  9
$DWGCODEPAGE
  3
ANSI_1252
  9
$LASTSAVEDBY
  1
ezdxf
  9
$REQUIREDVERSIONS
160
0
  9
$INSBASE
 10
0.0
 20
0.0
 30
0.0
  9
$EXTMIN
 10
1e+20
 20
1e+20
 30
1e+20
  9
$EXTMAX
 10
-1e+20
 20
-1e+20
 30
-1e+20
  9
$LIMMIN
 10
0.0
 20
0.0
  9
$LIMMAX
 10
420.0
 20
297.0
  9
$ORTHOMODE
 70
0
  9
$REGENMODE
 70
1
  9
$FILLMODE
 70
1
  9
$QTEXTMODE
 70
0
  9
$MIRRTEXT
 70
1
  9
$LTSCALE
 40
1.0
  9
$ATTMODE
 70
1
  9
$TEXTSIZE
 40
2.5
  9
$TRACEWID
 40
1.0
  9
$TEXTSTYLE
  7
Standard
  9
$CLAYER
  8
0
  9
$CELTYPE
  6
ByLayer
  9
$CECOLOR
 62
256
  9
$CELTSCALE
 40
1.0
  9
$DISPSILH
 70
0
  9
$DIMSCALE
 40
1.0
  9
$DIMASZ
 40
2.5
  9
$DIMEXO
 40
0.625
  9
$DIMDLI
 40
3.75
  9
$DIMRND
 40
0.0
  9
$DIMDLE
 40
0.0
  9
$DIMEXE
 40
1.25
  9
$DIMTP
 40
0.0
  9
$DIMTM
 40
0.0
  9
$DIMTXT
 40
2.5
  9
$DIMCEN
 40
2.5
  9
$DIMTSZ
 40
0.0
  9
$DIMTOL
 70
0
  9
$DIMLIM
 70
0
  9
$DIMTIH
 70
0
  9
$DIMTOH
 70
0
  9
$DIMSE1
 70
0
  9
$DIMSE2
 70
0
  9
$DIMTAD
 70
1
  9
$DIMZIN
 70
8
  9
$DIMBLK
  1

  9
$DIMASO
 70
1
  9
$DIMSHO
 70
1
  9
$DIMPOST
  1

  9
$DIMAPOST
  1

  9
$DIMALT
 70
0
  9
$DIMALTD
 70
3
  9
$DIMALTF
 40
0.03937007874
  9
$DIMLFAC
 40
1.0
  9
$DIMTOFL
 70
1
  9
$DIMTVP
 40
0.0
  9
$DIMTIX
 70
0
  9
$DIMSOXD
 70
0
  9
$DIMSAH
 70
0
  9
$DIMBLK1
  1

  9
$DIMBLK2
  1

  9
$DIMSTYLE
  2
ISO-25
  9
$DIMCLRD
 70
0
  9
$DIMCLRE
 70
0
  9
$DIMCLRT
 70
0
  9
$DIMTFAC
 40
1.0
  9
$DIMGAP
 40
0.625
  9
$DIMJUST
 70
0
  9
$DIMSD1
 70
0
  9
$DIMSD2
 70
0
  9
$DIMTOLJ
 70
0
  9
$DIMTZIN
 70
8
  9
$DIMALTZ
 70
0
  9
$DIMALTTZ
 70
0
  9
$DIMUPT
 70
0
  9
$DIMDEC
 70
2
  9
$DIMTDEC
 70
2
  9
$DIMALTU
 70
2
  9
$DIMALTTD
 70
3
  9
$DIMTXSTY
  7
Standard
  9
$DIMAUNIT
 70
0
  9
$DIMADEC
 70
0
  9
$DIMALTRND
 40
0.0
  9
$DIMAZIN
 70
0
  9
$DIMDSEP
 70
44
  9
$DIMATFIT
 70
3
  9
$DIMFRAC
 70
0
  9
$DIMLDRBLK
  1

  9
$DIMLUNIT
 70
2
  9
$DIMLWD
 70
-2
  9
$DIMLWE
 70
-2
  9
$DIMTMOVE
 70
0
  9
$DIMFXL
 40
1.0
  9
$DIMFXLON
 70
0
  9
$DIMJOGANG
 40
0.785398163397
  9
$DIMTFILL
 70
0
  9
$DIMTFILLCLR
 70
0
  9
$DIMARCSYM
 70
0
  9
$DIMLTYPE
  6

  9
$DIMLTEX1
  6

  9
$DIMLTEX2
  6

  9
$DIMTXTDIRECTION
 70
0
  9
$LUNITS
 70
2
  9
$LUPREC
 70
4
  9
$SKETCHINC
 40
1.0
  9
$FILLETRAD
 40
10.0
  9
$AUNITS
 70
0
  9
$AUPREC
 70
2
  9
$MENU
  1
.
  9
$ELEVATION
 40
0.0
  9
$PELEVATION
 40
0.0
  9
$THICKNESS
 40
0.0
  9
$LIMCHECK
 70
0
  9
$CHAMFERA
 40
0.0
  9
$CHAMFERB
 40
0.0
  9
$CHAMFERC
 40
0.0
  9
$CHAMFERD
 40
0.0
  9
$SKPOLY
 70
0
  9
$TDCREATE
 40
2460825.778773148
  9
$TDUCREATE
 40
2458532.153996898
  9
$TDUPDATE
 40
2460825.778773148
  9
$TDUUPDATE
 40
2458532.1544311
  9
$TDINDWG
 40
0.0
  9
$TDUSRTIMER
 40
0.0
  9
$USRTIMER
 70
1
  9
$ANGBASE
 50
0.0
  9
$ANGDIR
 70
0
  9
$PDMODE
 70
0
  9
$PDSIZE
 40
0.0
  9
$PLINEWID
 40
0.0
  9
$SPLFRAME
 70
0
  9
$SPLINETYPE
 70
6
  9
$SPLINESEGS
 70
8
  9
$HANDSEED
  5
42
  9
$SURFTAB1
 70
6
  9
$SURFTAB2
 70
6
  9
$SURFTYPE
 70
6
  9
$SURFU
 70
6
  9
$SURFV
 70
6
  9
$UCSBASE
  2

  9
$UCSNAME
  2

  9
$UCSORG
 10
0.0
 20
0.0
 30
0.0
  9
$UCSXDIR
 10
1.0
 20
0.0
 30
0.0
  9
$UCSYDIR
 10
0.0
 20
1.0
 30
0.0
  9
$UCSORTHOREF
  2

  9
$UCSORTHOVIEW
 70
0
  9
$UCSORGTOP
 10
0.0
 20
0.0
 30
0.0
  9
$UCSORGBOTTOM
 10
0.0
 20
0.0
 30
0.0
  9
$UCSORGLEFT
 10
0.0
 20
0.0
 30
0.0
  9
$UCSORGRIGHT
 10
0.0
 20
0.0
 30
0.0
  9
$UCSORGFRONT
 10
0.0
 20
0.0
 30
0.0
  9
$UCSORGBACK
 10
0.0
 20
0.0
 30
0.0
  9
$PUCSBASE
  2

  9
$PUCSNAME
  2

  9
$PUCSORG
 10
0.0
 20
0.0
 30
0.0
  9
$PUCSXDIR
 10
1.0
 20
0.0
 30
0.0
  9
$PUCSYDIR
 10
0.0
 20
1.0
 30
0.0
  9
$PUCSORTHOREF
  2

  9
$PUCSORTHOVIEW
 70
0
  9
$PUCSORGTOP
 10
0.0
 20
0.0
 30
0.0
  9
$PUCSORGBOTTOM
 10
0.0
 20
0.0
 30
0.0
  9
$PUCSORGLEFT
 10
0.0
 20
0.0
 30
0.0
  9
$PUCSORGRIGHT
 10
0.0
 20
0.0
 30
0.0
  9
$PUCSORGFRONT
 10
0.0
 20
0.0
 30
0.0
  9
$PUCSORGBACK
 10
0.0
 20
0.0
 30
0.0
  9
$USERI1
 70
0
  9
$USERI2
 70
0
  9
$USERI3
 70
0
  9
$USERI4
 70
0
  9
$USERI5
 70
0
  9
$USERR1
 40
0.0
  9
$USERR2
 40
0.0
  9
$USERR3
 40
0.0
  9
$USERR4
 40
0.0
  9
$USERR5
 40
0.0
  9
$WORLDVIEW
 70
1
  9
$SHADEDGE
 70
3
  9
$SHADEDIF
 70
70
  9
$TILEMODE
 70
1
  9
$MAXACTVP
 70
64
  9
$PINSBASE
 10
0.0
 20
0.0
 30
0.0
  9
$PLIMCHECK
 70
0
  9
$PEXTMIN
 10
1e+20
 20
1e+20
 30
1e+20
  9
$PEXTMAX
 10
-1e+20
 20
-1e+20
 30
-1e+20
  9
$PLIMMIN
 10
0.0
 20
0.0
  9
$PLIMMAX
 10
420.0
 20
297.0
  9
$UNITMODE
 70
0
  9
$VISRETAIN
 70
1
  9
$PLINEGEN
 70
0
  9
$PSLTSCALE
 70
1
  9
$TREEDEPTH
 70
3020
  9
$CMLSTYLE
  2
Standard
  9
$CMLJUST
 70
0
  9
$CMLSCALE
 40
20.0
  9
$PROXYGRAPHICS
 70
1
  9
$MEASUREMENT
 70
1
  9
$CELWEIGHT
370
-1
  9
$ENDCAPS
280
0
  9
$JOINSTYLE
280
0
  9
$LWDISPLAY
290
0
  9
$INSUNITS
 70
6
  9
$HYPERLINKBASE
  1

  9
$STYLESHEET
  1

  9
$XEDIT
290
1
  9
$CEPSNTYPE
380
0
  9
$PSTYLEMODE
290
1
  9
$FINGERPRINTGUID
  2
{BF654DEB-5C15-49C3-8E8C-CCA0B272D18A}
  9
$VERSIONGUID
  2
{07BF1C52-AABF-4C44-BCC2-4420189D292B}
  9
$EXTNAMES
290
1
  9
$PSVPSCALE
 40
0.0
  9
$OLESTARTUP
290
0
  9
$SORTENTS
280
127
  9
$INDEXCTL
280
0
  9
$HIDETEXT
280
1
  9
$XCLIPFRAME
280
0
  9
$HALOGAP
280
0
  9
$OBSCOLOR
 70
257
  9
$OBSLTYPE
280
0
  9
$INTERSECTIONDISPLAY
280
0
  9
$INTERSECTIONCOLOR
 70
257
  9
$DIMASSOC
280
2
  9
$PROJECTNAME
  1

  9
$CAMERADISPLAY
290
0
  9
$LENSLENGTH
 40
50.0
  9
$CAMERAHEIGHT
 40
0.0
  9
$STEPSPERSEC
 40
24.0
  9
$STEPSIZE
 40
100.0
  9
$3DDWFPREC
 40
2.0
  9
$PSOLWIDTH
 40
0.005
  9
$PSOLHEIGHT
 40
0.08
  9
$LOFTANG1
 40
1.570796326795
  9
$LOFTANG2
 40
1.570796326795
  9
$LOFTMAG1
 40
0.0
  9
$LOFTMAG2
 40
0.0
  9
$LOFTPARAM
 70
7
  9
$LOFTNORMALS
280
1
  9
$LATITUDE
 40
37.795
  9
$LONGITUDE
 40
-122.394
  9
$NORTHDIRECTION
 40
0.0
  9
$TIMEZONE
 70
-8000
  9
$LIGHTGLYPHDISPLAY
280
1
  9
$TILEMODELIGHTSYNCH
280
1
  9
$CMATERIAL
347
20
  9
$SOLIDHIST
280
0
  9
$SHOWHIST
280
1
  9
$DWFFRAME
280
2
  9
$DGNFRAME
280
2
  9
$REALWORLDSCALE
290
1
  9
$INTERFERECOLOR
 62
256
  9
$CSHADOW
280
0
  9
$SHADOWPLANELOCATION
 40
0.0
  0
ENDSEC
  0
SECTION
  2
CLASSES
  0
CLASS
  1
ACDBDICTIONARYWDFLT
  2
AcDbDictionaryWithDefault
  3
ObjectDBX Classes
 90
0
 91
0
280
0
281
0
  0
CLASS
  1
SUN
  2
AcDbSun
  3
SCENEOE
 90
1153
 91
0
280
0
281
0
  0
CLASS
  1
VISUALSTYLE
  2
AcDbVisualStyle
  3
ObjectDBX Classes
 90
4095
 91
0
280
0
281
0
  0
CLASS
  1
MATERIAL
  2
AcDbMaterial
  3
ObjectDBX Classes
 90
1153
 91
0
280
0
281
0
  0
CLASS
  1
SCALE
  2
AcDbScale
  3
ObjectDBX Classes
 90
1153
 91
0
280
0
281
0
  0
CLASS
  1
TABLESTYLE
  2
AcDbTableStyle
  3
ObjectDBX Classes
 90
4095
 91
0
280
0
281
0
  0
CLASS
  1
MLEADERSTYLE
  2
AcDbMLeaderStyle
  3
ACDB_MLEADERSTYLE_CLASS
 90
4095
 91
0
280
0
281
0
  0
CLASS
  1
DICTIONARYVAR
  2
AcDbDictionaryVar
  3
ObjectDBX Classes
 90
0
 91
0
280
0
281
0
  0
CLASS
  1
CELLSTYLEMAP
  2
AcDbCellStyleMap
  3
ObjectDBX Classes
 90
1152
 91
0
280
0
281
0
  0
CLASS
  1
MENTALRAYRENDERSETTINGS
  2
AcDbMentalRayRenderSettings
  3
SCENEOE
 90
1024
 91
0
280
0
281
0
  0
CLASS
  1
ACDBDETAILVIEWSTYLE
  2
AcDbDetailViewStyle
  3
ObjectDBX Classes
 90
1025
 91
0
280
0
281
0
  0
CLASS
  1
ACDBSECTIONVIEWSTYLE
  2
AcDbSectionViewStyle
  3
ObjectDBX Classes
 90
1025
 91
0
280
0
281
0
  0
CLASS
  1
RASTERVARIABLES
  2
AcDbRasterVariables
  3
ISM
 90
0
 91
0
280
0
281
0
  0
CLASS
  1
LAYOUT
  2
AcDbLayout
  3
ObjectDBX Classes
 90
0
 91
0
280
0
281
0
  0
CLASS
  1
ACDBPLACEHOLDER
  2
AcDbPlaceHolder
  3
ObjectDBX Classes
 90
0
 91
0
280
0
281
0
  0
ENDSEC
  0
SECTION
  2
TABLES
  0
TABLE
  2
VPORT
  5
8
330
0
100
AcDbSymbolTable
 70
1
  0
VPORT
  5
23
330
8
100
AcDbSymbolTableRecord
100
AcDbViewportTableRecord
  2
*Active
 70
0
 10
0.0
 20
0.0
 11
1.0
 21
1.0
 12
0.0
 22
0.0
 13
0.0
 23
0.0
 14
0.5
 24
0.5
 15
0.5
 25
0.5
 16
0.0
 26
0.0
 36
1.0
 17
0.0
 27
0.0
 37
0.0
 40
1000.0
 41
1.34
 42
50.0
 43
0.0
 44
0.0
 50
0.0
 51
0.0
 71
0
 72
1000
 73
1
 74
3
 75
0
 76
0
 77
0
 78
0
281
0
 65
0
146
0.0
  0
ENDTAB
  0
TABLE
  2
LTYPE
  5
2
330
0
100
AcDbSymbolTable
 70
3
  0
LTYPE
  5
24
330
2
100
AcDbSymbolTableRecord
100
AcDbLinetypeTableRecord
  2
ByBlock
 70
0
  3

 72
65
 73
0
 40
0.0
  0
LTYPE
  5
25
330
2
100
AcDbSymbolTableRecord
100
AcDbLinetypeTableRecord
  2
ByLayer
 70
0
  3

 72
65
 73
0
 40
0.0
  0
LTYPE
  5
26
330
2
100
AcDbSymbolTableRecord
100
AcDbLinetypeTableRecord
  2
Continuous
 70
0
  3

 72
65
 73
0
 40
0.0
  0
ENDTAB
  0
TABLE
  2
LAYER
  5
1
330
0
100
AcDbSymbolTable
 70
2
  0
LAYER
  5
27
330
1
100
AcDbSymbolTableRecord
100
AcDbLayerTableRecord
  2
0
 70
0
 62
7
  6
Continuous
370
-3
390
13
347
21
  0
LAYER
  5
28
330
1
100
AcDbSymbolTableRecord
100
AcDbLayerTableRecord
  2
Defpoints
 70
0
 62
7
  6
Continuous
290
0
370
-3
390
13
347
21
  0
ENDTAB
  0
TABLE
  2
STYLE
  5
5
330
0
100
AcDbSymbolTable
 70
1
  0
STYLE
  5
29
330
5
100
AcDbSymbolTableRecord
100
AcDbTextStyleTableRecord
  2
Standard
 70
0
 40
0.0
 41
1.0
 50
0.0
 71
0
 42
2.5
  3
txt
  4

  0
ENDTAB
  0
TABLE
  2
VIEW
  5
7
330
0
100
AcDbSymbolTable
 70
0
  0
ENDTAB
  0
TABLE
  2
UCS
  5
6
330
0
100
AcDbSymbolTable
 70
0
  0
ENDTAB
  0
TABLE
  2
APPID
  5
3
330
0
100
AcDbSymbolTable
 70
3
  0
APPID
  5
2A
330
3
100
AcDbSymbolTableRecord
100
AcDbRegAppTableRecord
  2
ACAD
 70
0
  0
APPID
  5
3F
330
3
100
AcDbSymbolTableRecord
100
AcDbRegAppTableRecord
  2
HATCHBACKGROUNDCOLOR
 70
0
  0
APPID
  5
40
330
3
100
AcDbSymbolTableRecord
100
AcDbRegAppTableRecord
  2
EZDXF
 70
0
  0
ENDTAB
  0
TABLE
  2
DIMSTYLE
  5
4
330
0
100
AcDbSymbolTable
 70
1
100
AcDbDimStyleTable
  0
DIMSTYLE
105
2B
330
4
100
AcDbSymbolTableRecord
100
AcDbDimStyleTableRecord
  2
Standard
 70
0
 40
1.0
 41
2.5
 42
0.625
 43
3.75
 44
1.25
 45
0.0
 46
0.0
 47
0.0
 48
0.0
 49
2.5
140
2.5
141
2.5
142
0.0
143
0.03937007874
144
1.0
145
0.0
146
1.0
147
0.625
148
0.0
 69
0
 70
0
 71
0
 72
0
 73
0
 74
0
 75
0
 76
0
 77
1
 78
8
 79
3
170
0
171
3
172
1
173
0
174
0
175
0
176
0
177
0
178
0
179
2
271
2
272
2
273
2
274
3
275
0
276
0
277
2
278
44
279
0
280
0
281
0
282
0
283
0
284
8
285
0
286
0
288
0
289
3
290
0
371
-2
372
-2
  0
ENDTAB
  0
TABLE
  2
BLOCK_RECORD
  5
9
330
0
100
AcDbSymbolTable
 70
2
  0
BLOCK_RECORD
  5
17
330
9
100
AcDbSymbolTableRecord
100
AcDbBlockTableRecord
  2
*Model_Space
340
1A
 70
0
280
1
281
0
  0
BLOCK_RECORD
  5
1B
330
9
100
AcDbSymbolTableRecord
100
AcDbBlockTableRecord
  2
*Paper_Space
340
1E
 70
0
280
1
281
0
  0
ENDTAB
  0
ENDSEC
  0
SECTION
  2
BLOCKS
  0
BLOCK
  5
18
330
17
100
AcDbEntity
  8
0
100
AcDbBlockBegin
  2
*Model_Space
 70
0
 10
0.0
 20
0.0
 30
0.0
  3
*Model_Space
  1

  0
ENDBLK
  5
19
330
17
100
AcDbEntity
  8
0
100
AcDbBlockEnd
  0
BLOCK
  5
1C
330
1B
100
AcDbEntity
  8
0
100
AcDbBlockBegin
  2
*Paper_Space
 70
0
 10
0.0
 20
0.0
 30
0.0
  3
*Paper_Space
  1

  0
ENDBLK
  5
1D
330
1B
100
AcDbEntity
  8
0
100
AcDbBlockEnd
  0
ENDSEC
  0
SECTION
  2
ENTITIES
  0
LWPOLYLINE
  5
2F
330
17
100
AcDbEntity
  8
0
100
AcDbPolyline
 90
51
 70
0
 10
-16.0
 20
20.0
 10
-16.0
 20
19.985915350160862
 10
-16.0
 20
19.97183070032173
 10
-16.0
 20
19.95774605048259
 10
-16.0
 20
19.93166475334298
 10
-16.0
 20
19.8895879264694
 10
-16.0
 20
19.84751109959582
 10
-16.0
 20
19.80543427272224
 10
-16.0
 20
19.739817700257554
 10
-16.0
 20
19.67027783686101
 10
-16.0
 20
19.600737973464472
 10
-16.0
 20
19.523601386527137
 10
-16.0
 20
19.42747299073781
 10
-16.0
 20
19.331344594948483
 10
-16.0
 20
19.235216199159158
 10
-16.0
 20
19.120959473340736
 10
-16.0
 20
18.999451415510674
 10
-16.0
 20
18.87794335768061
 10
-16.0
 20
18.75302792446299
 10
-16.0
 20
18.607668238920024
 10
-16.0
 20
18.462308553377053
 10
-16.0
 20
18.316948867834082
 10
-16.0
 20
18.159004242103943
 10
-16.0
 20
17.991620911233422
 10
-16.0
 20
17.8242375803629
 10
-16.0
 20
17.65685424949238
 10
-16.0
 20
17.469552215798075
 10
-16.0
 20
17.282250182103773
 10
-16.0
 20
17.09494814840947
 10
-16.0
 20
16.900118998540204
 10
-16.0
 20
16.695253693770997
 10
-16.0
 20
16.490388389001787
 10
-16.0
 20
16.285523084232576
 10
-16.0
 20
16.067811804318957
 10
-16.0
 20
15.847959528547932
 10
-16.0
 20
15.62810725277691
 10
-16.0
 20
15.404762919556534
 10
-16.0
 20
15.172688442712778
 10
-16.0
 20
14.940613965869025
 10
-16.0
 20
14.708539489025268
 10
-16.0
 20
14.469819490843173
 10
-16.0
 20
14.228441284125743
 10
-16.0
 20
13.987063077408312
 10
-16.0
 20
13.744789405137553
 10
-16.0
 20
13.49714293954682
 10
-16.0
 20
13.249496473956084
 10
-16.0
 20
13.00185000836535
 10
-16.0
 20
12.752401279414228
 10
-16.0
 20
12.50160085294282
 10
-16.0
 20
12.25080042647141
 10
-16.0
 20
12.0
  0
LWPOLYLINE
  5
30
330
17
100
AcDbEntity
  8
0
100
AcDbPolyline
 90
51
 70
0
 10
-16.0
 20
7.0
 10
-16.0
 20
7.1
 10
-16.0
 20
7.2
 10
-16.0
 20
7.3
 10
-16.0
 20
7.4
 10
-16.0
 20
7.5
 10
-16.0
 20
7.6
 10
-16.0
 20
7.7
 10
-16.0
 20
7.8
 10
-16.0
 20
7.9
 10
-16.0
 20
8.0
 10
-16.0
 20
8.1
 10
-16.0
 20
8.2
 10
-16.0
 20
8.3
 10
-16.0
 20
8.4
 10
-16.0
 20
8.5
 10
-16.0
 20
8.6
 10
-16.0
 20
8.7
 10
-16.0
 20
8.8
 10
-16.0
 20
8.9
 10
-16.0
 20
9.0
 10
-16.0
 20
9.1
 10
-16.0
 20
9.2
 10
-16.0
 20
9.3
 10
-16.0
 20
9.4
 10
-16.0
 20
9.5
 10
-16.0
 20
9.6
 10
-16.0
 20
9.7
 10
-16.0
 20
9.8
 10
-16.0
 20
9.9
 10
-16.0
 20
10.0
 10
-16.0
 20
10.1
 10
-16.0
 20
10.2
 10
-16.0
 20
10.3
 10
-16.0
 20
10.4
 10
-16.0
 20
10.5
 10
-16.0
 20
10.6
 10
-16.0
 20
10.7
 10
-16.0
 20
10.8
 10
-16.0
 20
10.9
 10
-16.0
 20
11.0
 10
-16.0
 20
11.1
 10
-16.0
 20
11.2
 10
-16.0
 20
11.3
 10
-16.0
 20
11.4
 10
-16.0
 20
11.5
 10
-16.0
 20
11.6
 10
-16.0
 20
11.7
 10
-16.0
 20
11.8
 10
-16.0
 20
11.9
 10
-16.0
 20
12.0
  0
LWPOLYLINE
  5
31
330
17
100
AcDbEntity
  8
0
100
AcDbPolyline
 90
51
 70
0
 10
-20.0
 20
12.0
 10
-20.0
 20
12.25080042647141
 10
-20.0
 20
12.501600852942818
 10
-20.0
 20
12.75240127941423
 10
-20.0
 20
13.001850008365349
 10
-20.0
 20
13.249496473956084
 10
-20.0
 20
13.497142939546817
 10
-20.0
 20
13.744789405137553
 10
-20.0
 20
13.987063077408312
 10
-20.0
 20
14.228441284125743
 10
-20.0
 20
14.469819490843173
 10
-20.0
 20
14.708539489025268
 10
-20.0
 20
14.940613965869023
 10
-20.0
 20
15.17268844271278
 10
-20.0
 20
15.404762919556534
 10
-20.0
 20
15.628107252776909
 10
-20.0
 20
15.847959528547934
 10
-20.0
 20
16.067811804318957
 10
-20.0
 20
16.28552308423258
 10
-20.0
 20
16.490388389001787
 10
-20.0
 20
16.695253693770997
 10
-20.0
 20
16.900118998540208
 10
-20.0
 20
17.09494814840947
 10
-20.0
 20
17.282250182103773
 10
-20.0
 20
17.469552215798075
 10
-20.0
 20
17.65685424949238
 10
-20.0
 20
17.8242375803629
 10
-20.0
 20
17.991620911233422
 10
-20.0
 20
18.159004242103943
 10
-20.0
 20
18.316948867834082
 10
-20.0
 20
18.462308553377053
 10
-20.0
 20
18.607668238920024
 10
-20.0
 20
18.75302792446299
 10
-20.0
 20
18.877943357680614
 10
-20.0
 20
18.999451415510674
 10
-20.0
 20
19.120959473340736
 10
-20.0
 20
19.235216199159158
 10
-20.0
 20
19.331344594948487
 10
-20.0
 20
19.427472990737808
 10
-20.0
 20
19.523601386527137
 10
-20.0
 20
19.600737973464472
 10
-20.0
 20
19.67027783686101
 10
-20.0
 20
19.739817700257554
 10
-20.0
 20
19.80543427272224
 10
-20.0
 20
19.84751109959582
 10
-20.0
 20
19.8895879264694
 10
-20.0
 20
19.93166475334298
 10
-20.0
 20
19.95774605048259
 10
-20.0
 20
19.97183070032173
 10
-20.0
 20
19.985915350160862
 10
-20.0
 20
20.0
  0
LWPOLYLINE
  5
32
330
17
100
AcDbEntity
  8
0
100
AcDbPolyline
 90
51
 70
0
 10
-16.0
 20
20.0
 10
-16.08
 20
20.0
 10
-16.16
 20
20.0
 10
-16.24
 20
20.0
 10
-16.32
 20
20.0
 10
-16.4
 20
20.0
 10
-16.48
 20
20.0
 10
-16.56
 20
20.0
 10
-16.64
 20
20.0
 10
-16.72
 20
20.0
 10
-16.8
 20
20.0
 10
-16.88
 20
20.0
 10
-16.96
 20
20.0
 10
-17.04
 20
20.0
 10
-17.12
 20
20.0
 10
-17.2
 20
20.0
 10
-17.28
 20
20.0
 10
-17.36
 20
20.0
 10
-17.44
 20
20.0
 10
-17.52
 20
20.0
 10
-17.6
 20
20.0
 10
-17.68
 20
20.0
 10
-17.76
 20
20.0
 10
-17.84
 20
20.0
 10
-17.92
 20
20.0
 10
-18.0
 20
20.0
 10
-18.08
 20
20.0
 10
-18.16
 20
20.0
 10
-18.240000000000002
 20
20.0
 10
-18.32
 20
20.0
 10
-18.4
 20
20.0
 10
-18.48
 20
20.0
 10
-18.56
 20
20.0
 10
-18.64
 20
20.0
 10
-18.72
 20
20.0
 10
-18.8
 20
20.0
 10
-18.88
 20
20.0
 10
-18.96
 20
20.0
 10
-19.04
 20
20.0
 10
-19.12
 20
20.0
 10
-19.2
 20
20.0
 10
-19.28
 20
20.0
 10
-19.36
 20
20.0
 10
-19.44
 20
20.0
 10
-19.52
 20
20.0
 10
-19.6
 20
20.0
 10
-19.68
 20
20.0
 10
-19.759999999999998
 20
20.0
 10
-19.84
 20
20.0
 10
-19.92
 20
20.0
 10
-20.0
 20
20.0
  0
LWPOLYLINE
  5
33
330
17
100
AcDbEntity
  8
0
100
AcDbPolyline
 90
51
 70
0
 10
-20.0
 20
12.0
 10
-20.0
 20
11.86
 10
-20.0
 20
11.72
 10
-20.0
 20
11.58
 10
-20.0
 20
11.44
 10
-20.0
 20
11.3
 10
-20.0
 20
11.16
 10
-20.0
 20
11.02
 10
-20.0
 20
10.879999999999999
 10
-20.0
 20
10.74
 10
-20.0
 20
10.6
 10
-20.0
 20
10.46
 10
-20.0
 20
10.32
 10
-20.0
 20
10.18
 10
-20.0
 20
10.04
 10
-20.0
 20
9.9
 10
-20.0
 20
9.76
 10
-20.0
 20
9.620000000000001
 10
-20.0
 20
9.48
 10
-20.0
 20
9.34
 10
-20.0
 20
9.2
 10
-20.0
 20
9.06
 10
-20.0
 20
8.92
 10
-20.0
 20
8.78
 10
-20.0
 20
8.64
 10
-20.0
 20
8.5
 10
-20.0
 20
8.36
 10
-20.0
 20
8.22
 10
-20.0
 20
8.08
 10
-20.0
 20
7.94
 10
-20.0
 20
7.8
 10
-20.0
 20
7.66
 10
-20.0
 20
7.52
 10
-20.0
 20
7.38
 10
-20.0
 20
7.24
 10
-20.0
 20
7.1
 10
-20.0
 20
6.96
 10
-20.0
 20
6.82
 10
-20.0
 20
6.68
 10
-20.0
 20
6.54
 10
-20.0
 20
6.4
 10
-20.0
 20
6.26
 10
-20.0
 20
6.12
 10
-20.0
 20
5.98
 10
-20.0
 20
5.84
 10
-20.0
 20
5.7
 10
-20.0
 20
5.56
 10
-20.0
 20
5.42
 10
-20.0
 20
5.28
 10
-20.0
 20
5.14
 10
-20.0
 20
5.0
  0
LWPOLYLINE
  5
34
330
17
100
AcDbEntity
  8
0
100
AcDbPolyline
 90
51
 70
0
 10
-20.0
 20
5.0
 10
-19.997532801828658
 20
4.842946204609358
 10
-19.99013364214136
 20
4.6860474023534335
 10
-19.9778098230154
 20
4.529458433407428
 10
-19.960573506572388
 20
4.373333832178479
 10
-19.938441702975688
 20
4.217827674798846
 10
-19.911436253643444
 20
4.063093427071377
 10
-19.879583809693738
 20
3.9092837930172872
 10
-19.842915805643155
 20
3.756550564175726
 10
-19.801468428384716
 20
3.6050444698038535
 10
-19.755282581475768
 20
3.4549150281252627
 10
-19.70440384477113
 20
3.306310398773543
 10
-19.648882429441258
 20
3.1593772365766104
 10
-19.588773128419906
 20
3.014260546826097
 10
-19.5241352623301
 20
2.8711035421746365
 10
-19.45503262094184
 20
2.7300475013022663
 10
-19.38153340021932
 20
2.5912316294914235
 10
-19.30371013501972
 20
2.4547929212481434
 10
-19.221639627510076
 20
2.320866025105017
 10
-19.13540287137281
 20
2.1895831107393473
 10
-19.045084971874736
 20
2.061073738537634
 10
-18.950775061878453
 20
1.9354647317351175
 10
-18.852566213878944
 20
1.8128800512565517
 10
-18.750555348152297
 20
1.6934406733817409
 10
-18.64484313710706
 20
1.5772644703565568
 10
-18.535533905932738
 20
1.4644660940672622
 10
-18.422735529643443
 20
1.355156862892942
 10
-18.30655932661826
 20
1.2494446518477025
 10
-18.187119948743447
 20
1.147433786121054
 10
-18.064535268264883
 20
1.0492249381215482
 10
-17.938926261462367
 20
0.9549150281252636
 10
-17.810416889260654
 20
0.8645971286271905
 10
-17.67913397489498
 20
0.7783603724899244
 10
-17.545207078751858
 20
0.6962898649802813
 10
-17.408768370508575
 20
0.6184665997806817
 10
-17.269952498697734
 20
0.5449673790581606
 10
-17.128896457825363
 20
0.47586473766990167
 10
-16.985739453173903
 20
0.4112268715800944
 10
-16.84062276342339
 20
0.3511175705587437
 10
-16.693689601226456
 20
0.29559615522887306
 10
-16.545084971874736
 20
0.24471741852423268
 10
-16.394955530196146
 20
0.1985315716152849
 10
-16.243449435824274
 20
0.15708419435684462
 10
-16.090716206982712
 20
0.12041619030626372
 10
-15.936906572928624
 20
0.08856374635655673
 10
-15.782172325201154
 20
0.061558297024310704
 10
-15.626666167821522
 20
0.0394264934276114
 10
-15.470541566592571
 20
0.022190176984599574
 10
-15.313952597646567
 20
0.009866357858641983
 10
-15.157053795390642
 20
0.002467198171341778
 10
-15.0
 20
0.0
  0
LWPOLYLINE
  5
35
330
17
100
AcDbEntity
  8
0
100
AcDbPolyline
 90
51
 70
0
 10
-15.0
 20
0.0
 10
-14.4
 20
0.0
 10
-13.8
 20
0.0
 10
-13.2
 20
0.0
 10
-12.6
 20
0.0
 10
-12.0
 20
0.0
 10
-11.4
 20
0.0
 10
-10.8
 20
0.0
 10
-10.2
 20
0.0
 10
-9.6
 20
0.0
 10
-9.0
 20
0.0
 10
-8.4
 20
0.0
 10
-7.8
 20
0.0
 10
-7.2
 20
0.0
 10
-6.6
 20
0.0
 10
-6.0
 20
0.0
 10
-5.4
 20
0.0
 10
-4.800000000000001
 20
0.0
 10
-4.199999999999999
 20
0.0
 10
-3.5999999999999996
 20
0.0
 10
-3.0
 20
0.0
 10
-2.4000000000000004
 20
0.0
 10
-1.8000000000000007
 20
0.0
 10
-1.1999999999999993
 20
0.0
 10
-0.5999999999999996
 20
0.0
 10
0.0
 20
0.0
 10
0.5999999999999996
 20
0.0
 10
1.1999999999999993
 20
0.0
 10
1.8000000000000007
 20
0.0
 10
2.3999999999999986
 20
0.0
 10
3.0
 20
0.0
 10
3.6000000000000014
 20
0.0
 10
4.199999999999999
 20
0.0
 10
4.800000000000001
 20
0.0
 10
5.399999999999999
 20
0.0
 10
6.0
 20
0.0
 10
6.600000000000001
 20
0.0
 10
7.199999999999999
 20
0.0
 10
7.800000000000001
 20
0.0
 10
8.399999999999999
 20
0.0
 10
9.0
 20
0.0
 10
9.600000000000001
 20
0.0
 10
10.2
 20
0.0
 10
10.8
 20
0.0
 10
11.399999999999999
 20
0.0
 10
12.0
 20
0.0
 10
12.600000000000001
 20
0.0
 10
13.2
 20
0.0
 10
13.8
 20
0.0
 10
14.399999999999999
 20
0.0
 10
15.0
 20
0.0
  0
LWPOLYLINE
  5
36
330
17
100
AcDbEntity
  8
0
100
AcDbPolyline
 90
51
 70
0
 10
15.0
 20
0.0
 10
15.157053795390642
 20
0.002467198171341778
 10
15.313952597646567
 20
0.009866357858641983
 10
15.470541566592571
 20
0.022190176984599574
 10
15.626666167821522
 20
0.03942649342761051
 10
15.782172325201154
 20
0.061558297024310704
 10
15.936906572928622
 20
0.08856374635655673
 10
16.090716206982712
 20
0.12041619030626283
 10
16.243449435824274
 20
0.15708419435684462
 10
16.394955530196146
 20
0.1985315716152849
 10
16.545084971874736
 20
0.24471741852423268
 10
16.693689601226456
 20
0.29559615522887306
 10
16.84062276342339
 20
0.3511175705587428
 10
16.985739453173903
 20
0.4112268715800944
 10
17.128896457825363
 20
0.47586473766990167
 10
17.269952498697734
 20
0.5449673790581606
 10
17.408768370508575
 20
0.6184665997806817
 10
17.545207078751858
 20
0.6962898649802813
 10
17.679133974894985
 20
0.7783603724899244
 10
17.81041688926065
 20
0.8645971286271905
 10
17.938926261462367
 20
0.9549150281252627
 10
18.064535268264883
 20
1.0492249381215482
 10
18.187119948743447
 20
1.147433786121054
 10
18.30655932661826
 20
1.249444651847702
 10
18.422735529643443
 20
1.355156862892942
 10
18.535533905932738
 20
1.4644660940672622
 10
18.64484313710706
 20
1.5772644703565568
 10
18.750555348152297
 20
1.6934406733817404
 10
18.852566213878944
 20
1.8128800512565513
 10
18.950775061878453
 20
1.9354647317351175
 10
19.045084971874736
 20
2.0610737385376336
 10
19.13540287137281
 20
2.1895831107393464
 10
19.221639627510076
 20
2.3208660251050173
 10
19.30371013501972
 20
2.454792921248144
 10
19.38153340021932
 20
2.5912316294914244
 10
19.45503262094184
 20
2.730047501302266
 10
19.5241352623301
 20
2.8711035421746365
 10
19.588773128419906
 20
3.0142605468260975
 10
19.648882429441258
 20
3.1593772365766095
 10
19.70440384477113
 20
3.3063103987735425
 10
19.755282581475768
 20
3.4549150281252627
 10
19.801468428384716
 20
3.6050444698038526
 10
19.842915805643155
 20
3.7565505641757264
 10
19.879583809693735
 20
3.909283793017287
 10
19.911436253643444
 20
4.063093427071376
 10
19.938441702975688
 20
4.217827674798845
 10
19.960573506572388
 20
4.373333832178478
 10
19.9778098230154
 20
4.529458433407429
 10
19.99013364214136
 20
4.686047402353433
 10
19.997532801828658
 20
4.842946204609358
 10
20.0
 20
5.0
  0
LWPOLYLINE
  5
37
330
17
100
AcDbEntity
  8
0
100
AcDbPolyline
 90
51
 70
0
 10
20.0
 20
5.0
 10
20.0
 20
5.14
 10
20.0
 20
5.28
 10
20.0
 20
5.42
 10
20.0
 20
5.5600000000000005
 10
20.0
 20
5.7
 10
20.0
 20
5.84
 10
20.0
 20
5.98
 10
20.0
 20
6.12
 10
20.0
 20
6.26
 10
20.0
 20
6.4
 10
20.0
 20
6.54
 10
20.0
 20
6.68
 10
20.0
 20
6.82
 10
20.0
 20
6.96
 10
20.0
 20
7.1
 10
20.0
 20
7.24
 10
20.0
 20
7.38
 10
20.0
 20
7.52
 10
20.0
 20
7.66
 10
20.0
 20
7.8
 10
20.0
 20
7.9399999999999995
 10
20.0
 20
8.08
 10
20.0
 20
8.22
 10
20.0
 20
8.36
 10
20.0
 20
8.5
 10
20.0
 20
8.64
 10
20.0
 20
8.78
 10
20.0
 20
8.92
 10
20.0
 20
9.059999999999999
 10
20.0
 20
9.2
 10
20.0
 20
9.34
 10
20.0
 20
9.48
 10
20.0
 20
9.620000000000001
 10
20.0
 20
9.76
 10
20.0
 20
9.9
 10
20.0
 20
10.04
 10
20.0
 20
10.18
 10
20.0
 20
10.32
 10
20.0
 20
10.46
 10
20.0
 20
10.6
 10
20.0
 20
10.74
 10
20.0
 20
10.879999999999999
 10
20.0
 20
11.02
 10
20.0
 20
11.16
 10
20.0
 20
11.3
 10
20.0
 20
11.440000000000001
 10
20.0
 20
11.58
 10
20.0
 20
11.719999999999999
 10
20.0
 20
11.86
 10
20.0
 20
12.0
  0
LWPOLYLINE
  5
38
330
17
100
AcDbEntity
  8
0
100
AcDbPolyline
 90
51
 70
0
 10
16.0
 20
12.0
 10
16.0
 20
11.9
 10
16.0
 20
11.8
 10
16.0
 20
11.7
 10
16.0
 20
11.6
 10
16.0
 20
11.5
 10
16.0
 20
11.4
 10
16.0
 20
11.3
 10
16.0
 20
11.2
 10
16.0
 20
11.1
 10
16.0
 20
11.0
 10
16.0
 20
10.9
 10
16.0
 20
10.8
 10
16.0
 20
10.7
 10
16.0
 20
10.6
 10
16.0
 20
10.5
 10
16.0
 20
10.4
 10
16.0
 20
10.3
 10
16.0
 20
10.2
 10
16.0
 20
10.1
 10
16.0
 20
10.0
 10
16.0
 20
9.9
 10
16.0
 20
9.8
 10
16.0
 20
9.7
 10
16.0
 20
9.6
 10
16.0
 20
9.5
 10
16.0
 20
9.4
 10
16.0
 20
9.3
 10
16.0
 20
9.2
 10
16.0
 20
9.1
 10
16.0
 20
9.0
 10
16.0
 20
8.9
 10
16.0
 20
8.8
 10
16.0
 20
8.7
 10
16.0
 20
8.6
 10
16.0
 20
8.5
 10
16.0
 20
8.4
 10
16.0
 20
8.3
 10
16.0
 20
8.2
 10
16.0
 20
8.1
 10
16.0
 20
8.0
 10
16.0
 20
7.9
 10
16.0
 20
7.8
 10
16.0
 20
7.7
 10
16.0
 20
7.6
 10
16.0
 20
7.5
 10
16.0
 20
7.4
 10
16.0
 20
7.3
 10
16.0
 20
7.2
 10
16.0
 20
7.1
 10
16.0
 20
7.0
  0
LWPOLYLINE
  5
39
330
17
100
AcDbEntity
  8
0
100
AcDbPolyline
 90
51
 70
0
 10
16.0
 20
7.0
 10
15.94
 20
6.94
 10
15.88
 20
6.88
 10
15.82
 20
6.82
 10
15.76
 20
6.76
 10
15.7
 20
6.7
 10
15.64
 20
6.64
 10
15.58
 20
6.58
 10
15.52
 20
6.5200000000000005
 10
15.46
 20
6.46
 10
15.4
 20
6.4
 10
15.34
 20
6.34
 10
15.28
 20
6.28
 10
15.22
 20
6.220000000000001
 10
15.16
 20
6.16
 10
15.1
 20
6.1
 10
15.040000000000001
 20
6.04
 10
14.98
 20
5.98
 10
14.92
 20
5.92
 10
14.86
 20
5.86
 10
14.8
 20
5.800000000000001
 10
14.74
 20
5.74
 10
14.68
 20
5.680000000000001
 10
14.620000000000001
 20
5.62
 10
14.56
 20
5.5600000000000005
 10
14.5
 20
5.5
 10
14.440000000000001
 20
5.44
 10
14.38
 20
5.380000000000001
 10
14.32
 20
5.32
 10
14.26
 20
5.26
 10
14.2
 20
5.2
 10
14.14
 20
5.140000000000001
 10
14.08
 20
5.08
 10
14.02
 20
5.0200000000000005
 10
13.96
 20
4.96
 10
13.9
 20
4.9
 10
13.84
 20
4.840000000000001
 10
13.780000000000001
 20
4.78
 10
13.72
 20
4.720000000000001
 10
13.66
 20
4.66
 10
13.600000000000001
 20
4.6000000000000005
 10
13.540000000000001
 20
4.540000000000001
 10
13.48
 20
4.48
 10
13.420000000000002
 20
4.420000000000001
 10
13.360000000000001
 20
4.360000000000001
 10
13.3
 20
4.300000000000001
 10
13.24
 20
4.24
 10
13.180000000000001
 20
4.1800000000000015
 10
13.120000000000001
 20
4.120000000000001
 10
13.06
 20
4.0600000000000005
 10
13.0
 20
4.000000000000001
  0
LWPOLYLINE
  5
3A
330
17
100
AcDbEntity
  8
0
100
AcDbPolyline
 90
51
 70
0
 10
13.0
 20
4.0
 10
12.48
 20
4.0
 10
11.96
 20
4.0
 10
11.44
 20
4.0
 10
10.92
 20
4.0
 10
10.4
 20
4.0
 10
9.879999999999999
 20
4.0
 10
9.36
 20
4.0
 10
8.84
 20
4.0
 10
8.32
 20
4.0
 10
7.8
 20
4.0
 10
7.28
 20
4.0
 10
6.76
 20
4.0
 10
6.24
 20
4.0
 10
5.72
 20
4.0
 10
5.2
 20
4.0
 10
4.68
 20
4.0
 10
4.16
 20
4.0
 10
3.6400000000000006
 20
4.0
 10
3.119999999999999
 20
4.0
 10
2.5999999999999996
 20
4.0
 10
2.08
 20
4.0
 10
1.5600000000000005
 20
4.0
 10
1.0399999999999991
 20
4.0
 10
0.5199999999999996
 20
4.0
 10
0.0
 20
4.0
 10
-0.5199999999999996
 20
4.0
 10
-1.0399999999999991
 20
4.0
 10
-1.5600000000000005
 20
4.0
 10
-2.08
 20
4.0
 10
-2.5999999999999996
 20
4.0
 10
-3.120000000000001
 20
4.0
 10
-3.6400000000000006
 20
4.0
 10
-4.16
 20
4.0
 10
-4.68
 20
4.0
 10
-5.199999999999999
 20
4.0
 10
-5.719999999999999
 20
4.0
 10
-6.239999999999998
 20
4.0
 10
-6.760000000000002
 20
4.0
 10
-7.280000000000001
 20
4.0
 10
-7.800000000000001
 20
4.0
 10
-8.32
 20
4.0
 10
-8.84
 20
4.0
 10
-9.36
 20
4.0
 10
-9.879999999999999
 20
4.0
 10
-10.399999999999999
 20
4.0
 10
-10.920000000000002
 20
4.0
 10
-11.440000000000001
 20
4.0
 10
-11.96
 20
4.0
 10
-12.48
 20
4.0
 10
-13.0
 20
4.0
  0
LWPOLYLINE
  5
3B
330
17
100
AcDbEntity
  8
0
100
AcDbPolyline
 90
51
 70
0
 10
-13.0
 20
4.0
 10
-13.06
 20
4.06
 10
-13.12
 20
4.12
 10
-13.18
 20
4.18
 10
-13.24
 20
4.24
 10
-13.3
 20
4.3
 10
-13.36
 20
4.36
 10
-13.42
 20
4.42
 10
-13.48
 20
4.4799999999999995
 10
-13.54
 20
4.54
 10
-13.6
 20
4.6
 10
-13.66
 20
4.66
 10
-13.72
 20
4.72
 10
-13.78
 20
4.779999999999999
 10
-13.84
 20
4.84
 10
-13.9
 20
4.9
 10
-13.959999999999999
 20
4.96
 10
-14.02
 20
5.02
 10
-14.08
 20
5.08
 10
-14.14
 20
5.14
 10
-14.2
 20
5.199999999999999
 10
-14.26
 20
5.26
 10
-14.32
 20
5.319999999999999
 10
-14.379999999999999
 20
5.38
 10
-14.44
 20
5.4399999999999995
 10
-14.5
 20
5.5
 10
-14.559999999999999
 20
5.56
 10
-14.62
 20
5.619999999999999
 10
-14.68
 20
5.68
 10
-14.74
 20
5.74
 10
-14.8
 20
5.8
 10
-14.86
 20
5.859999999999999
 10
-14.92
 20
5.92
 10
-14.98
 20
5.9799999999999995
 10
-15.04
 20
6.04
 10
-15.1
 20
6.1
 10
-15.16
 20
6.159999999999999
 10
-15.219999999999999
 20
6.22
 10
-15.28
 20
6.279999999999999
 10
-15.34
 20
6.34
 10
-15.399999999999999
 20
6.3999999999999995
 10
-15.459999999999999
 20
6.459999999999999
 10
-15.52
 20
6.52
 10
-15.579999999999998
 20
6.579999999999999
 10
-15.639999999999999
 20
6.639999999999999
 10
-15.7
 20
6.699999999999999
 10
-15.76
 20
6.76
 10
-15.819999999999999
 20
6.8199999999999985
 10
-15.879999999999999
 20
6.879999999999999
 10
-15.94
 20
6.9399999999999995
 10
-16.0
 20
6.999999999999999
  0
LWPOLYLINE
  5
3C
330
17
100
AcDbEntity
  8
0
100
AcDbPolyline
 90
51
 70
0
 10
16.0
 20
12.0
 10
16.0
 20
12.25080042647141
 10
16.0
 20
12.501600852942818
 10
16.0
 20
12.75240127941423
 10
16.0
 20
13.001850008365349
 10
16.0
 20
13.249496473956084
 10
16.0
 20
13.497142939546817
 10
16.0
 20
13.744789405137553
 10
16.0
 20
13.987063077408312
 10
16.0
 20
14.228441284125743
 10
16.0
 20
14.469819490843173
 10
16.0
 20
14.708539489025268
 10
16.0
 20
14.940613965869023
 10
16.0
 20
15.17268844271278
 10
16.0
 20
15.404762919556534
 10
16.0
 20
15.628107252776909
 10
16.0
 20
15.847959528547934
 10
16.0
 20
16.067811804318957
 10
16.0
 20
16.28552308423258
 10
16.0
 20
16.490388389001787
 10
16.0
 20
16.695253693770997
 10
16.0
 20
16.900118998540208
 10
16.0
 20
17.09494814840947
 10
16.0
 20
17.282250182103773
 10
16.0
 20
17.469552215798075
 10
16.0
 20
17.65685424949238
 10
16.0
 20
17.8242375803629
 10
16.0
 20
17.991620911233422
 10
16.0
 20
18.159004242103943
 10
16.0
 20
18.316948867834082
 10
16.0
 20
18.462308553377053
 10
16.0
 20
18.607668238920024
 10
16.0
 20
18.75302792446299
 10
16.0
 20
18.877943357680614
 10
16.0
 20
18.999451415510674
 10
16.0
 20
19.120959473340736
 10
16.0
 20
19.235216199159158
 10
16.0
 20
19.331344594948487
 10
16.0
 20
19.427472990737808
 10
16.0
 20
19.523601386527137
 10
16.0
 20
19.600737973464472
 10
16.0
 20
19.67027783686101
 10
16.0
 20
19.739817700257554
 10
16.0
 20
19.80543427272224
 10
16.0
 20
19.84751109959582
 10
16.0
 20
19.8895879264694
 10
16.0
 20
19.93166475334298
 10
16.0
 20
19.95774605048259
 10
16.0
 20
19.97183070032173
 10
16.0
 20
19.985915350160862
 10
16.0
 20
20.0
  0
LWPOLYLINE
  5
3D
330
17
100
AcDbEntity
  8
0
100
AcDbPolyline
 90
51
 70
0
 10
20.0
 20
20.0
 10
20.0
 20
19.985915350160862
 10
20.0
 20
19.97183070032173
 10
20.0
 20
19.95774605048259
 10
20.0
 20
19.93166475334298
 10
20.0
 20
19.8895879264694
 10
20.0
 20
19.84751109959582
 10
20.0
 20
19.80543427272224
 10
20.0
 20
19.739817700257554
 10
20.0
 20
19.67027783686101
 10
20.0
 20
19.600737973464472
 10
20.0
 20
19.523601386527137
 10
20.0
 20
19.42747299073781
 10
20.0
 20
19.331344594948483
 10
20.0
 20
19.235216199159158
 10
20.0
 20
19.120959473340736
 10
20.0
 20
18.999451415510674
 10
20.0
 20
18.87794335768061
 10
20.0
 20
18.75302792446299
 10
20.0
 20
18.607668238920024
 10
20.0
 20
18.462308553377053
 10
20.0
 20
18.316948867834082
 10
20.0
 20
18.159004242103943
 10
20.0
 20
17.991620911233422
 10
20.0
 20
17.8242375803629
 10
20.0
 20
17.65685424949238
 10
20.0
 20
17.469552215798075
 10
20.0
 20
17.282250182103773
 10
20.0
 20
17.09494814840947
 10
20.0
 20
16.900118998540204
 10
20.0
 20
16.695253693770997
 10
20.0
 20
16.490388389001787
 10
20.0
 20
16.285523084232576
 10
20.0
 20
16.067811804318957
 10
20.0
 20
15.847959528547932
 10
20.0
 20
15.62810725277691
 10
20.0
 20
15.404762919556534
 10
20.0
 20
15.172688442712778
 10
20.0
 20
14.940613965869025
 10
20.0
 20
14.708539489025268
 10
20.0
 20
14.469819490843173
 10
20.0
 20
14.228441284125743
 10
20.0
 20
13.987063077408312
 10
20.0
 20
13.744789405137553
 10
20.0
 20
13.49714293954682
 10
20.0
 20
13.249496473956084
 10
20.0
 20
13.00185000836535
 10
20.0
 20
12.752401279414228
 10
20.0
 20
12.50160085294282
 10
20.0
 20
12.25080042647141
 10
20.0
 20
12.0
  0
LWPOLYLINE
  5
3E
330
17
100
AcDbEntity
  8
0
100
AcDbPolyline
 90
51
 70
0
 10
20.0
 20
20.0
 10
19.92
 20
20.0
 10
19.84
 20
20.0
 10
19.76
 20
20.0
 10
19.68
 20
20.0
 10
19.6
 20
20.0
 10
19.52
 20
20.0
 10
19.44
 20
20.0
 10
19.36
 20
20.0
 10
19.28
 20
20.0
 10
19.2
 20
20.0
 10
19.12
 20
20.0
 10
19.04
 20
20.0
 10
18.96
 20
20.0
 10
18.88
 20
20.0
 10
18.8
 20
20.0
 10
18.72
 20
20.0
 10
18.64
 20
20.0
 10
18.56
 20
20.0
 10
18.48
 20
20.0
 10
18.4
 20
20.0
 10
18.32
 20
20.0
 10
18.24
 20
20.0
 10
18.16
 20
20.0
 10
18.08
 20
20.0
 10
18.0
 20
20.0
 10
17.92
 20
20.0
 10
17.84
 20
20.0
 10
17.759999999999998
 20
20.0
 10
17.68
 20
20.0
 10
17.6
 20
20.0
 10
17.52
 20
20.0
 10
17.44
 20
20.0
 10
17.36
 20
20.0
 10
17.28
 20
20.0
 10
17.2
 20
20.0
 10
17.12
 20
20.0
 10
17.04
 20
20.0
 10
16.96
 20
20.0
 10
16.88
 20
20.0
 10
16.8
 20
20.0
 10
16.72
 20
20.0
 10
16.64
 20
20.0
 10
16.56
 20
20.0
 10
16.48
 20
20.0
 10
16.4
 20
20.0
 10
16.32
 20
20.0
 10
16.240000000000002
 20
20.0
 10
16.16
 20
20.0
 10
16.08
 20
20.0
 10
16.0
 20
20.0
  0
ENDSEC
  0
SECTION
  2
OBJECTS
  0
DICTIONARY
  5
A
330
0
100
AcDbDictionary
280
0
281
1
  3
ACAD_COLOR
350
B
  3
ACAD_GROUP
350
C
  3
ACAD_LAYOUT
350
D
  3
ACAD_MATERIAL
350
E
  3
ACAD_MLEADERSTYLE
350
F
  3
ACAD_MLINESTYLE
350
10
  3
ACAD_PLOTSETTINGS
350
11
  3
ACAD_PLOTSTYLENAME
350
12
  3
ACAD_SCALELIST
350
14
  3
ACAD_TABLESTYLE
350
15
  3
ACAD_VISUALSTYLE
350
16
  3
EZDXF_META
350
2D
  0
DICTIONARY
  5
B
330
A
100
AcDbDictionary
280
0
281
1
  0
DICTIONARY
  5
C
330
A
100
AcDbDictionary
280
0
281
1
  0
DICTIONARY
  5
D
330
A
100
AcDbDictionary
280
0
281
1
  3
Model
350
1A
  3
Layout1
350
1E
  0
DICTIONARY
  5
E
330
A
100
AcDbDictionary
280
0
281
1
  3
ByBlock
350
1F
  3
ByLayer
350
20
  3
Global
350
21
  0
DICTIONARY
  5
F
330
A
100
AcDbDictionary
280
0
281
1
  3
Standard
350
2C
  0
DICTIONARY
  5
10
330
A
100
AcDbDictionary
280
0
281
1
  3
Standard
350
22
  0
DICTIONARY
  5
11
330
A
100
AcDbDictionary
280
0
281
1
  0
ACDBDICTIONARYWDFLT
  5
12
330
A
100
AcDbDictionary
280
0
281
1
  3
Normal
350
13
100
AcDbDictionaryWithDefault
340
13
  0
ACDBPLACEHOLDER
  5
13
330
12
  0
DICTIONARY
  5
14
330
A
100
AcDbDictionary
280
0
281
1
  0
DICTIONARY
  5
15
330
A
100
AcDbDictionary
280
0
281
1
  0
DICTIONARY
  5
16
330
A
100
AcDbDictionary
280
0
281
1
  0
LAYOUT
  5
1A
330
D
100
AcDbPlotSettings
  1

  2
Adobe PDF
  4
A3
  6

 40
7.5
 41
20.0
 42
7.5
 43
20.0
 44
420.0
 45
297.0
 46
0.0
 47
0.0
 48
0.0
 49
0.0
140
0.0
141
0.0
142
1.0
143
1.0
 70
1024
 72
1
 73
0
 74
5
  7

 75
16
 76
0
 77
2
 78
300
147
1.0
148
0.0
149
0.0
100
AcDbLayout
  1
Model
 70
1
 71
0
 10
0.0
 20
0.0
 11
420.0
 21
297.0
 12
0.0
 22
0.0
 32
0.0
 14
1e+20
 24
1e+20
 34
1e+20
 15
-1e+20
 25
-1e+20
 35
-1e+20
146
0.0
 13
0.0
 23
0.0
 33
0.0
 16
1.0
 26
0.0
 36
0.0
 17
0.0
 27
1.0
 37
0.0
 76
1
330
17
  0
LAYOUT
  5
1E
330
D
100
AcDbPlotSettings
  1

  2
Adobe PDF
  4
A3
  6

 40
7.5
 41
20.0
 42
7.5
 43
20.0
 44
420.0
 45
297.0
 46
0.0
 47
0.0
 48
0.0
 49
0.0
140
0.0
141
0.0
142
1.0
143
1.0
 70
0
 72
1
 73
0
 74
5
  7

 75
16
 76
0
 77
2
 78
300
147
1.0
148
0.0
149
0.0
100
AcDbLayout
  1
Layout1
 70
1
 71
1
 10
0.0
 20
0.0
 11
420.0
 21
297.0
 12
0.0
 22
0.0
 32
0.0
 14
1e+20
 24
1e+20
 34
1e+20
 15
-1e+20
 25
-1e+20
 35
-1e+20
146
0.0
 13
0.0
 23
0.0
 33
0.0
 16
1.0
 26
0.0
 36
0.0
 17
0.0
 27
1.0
 37
0.0
 76
1
330
1B
  0
MATERIAL
  5
1F
102
{ACAD_REACTORS
330
E
102
}
330
E
100
AcDbMaterial
  1
ByBlock
  2

 70
0
 40
1.0
 71
1
 41
1.0
 91
-1023410177
 42
1.0
 72
1
  3

 73
1
 74
1
 75
1
 44
0.5
 73
0
 45
1.0
 46
1.0
 77
1
  4

 78
1
 79
1
170
1
 48
1.0
171
1
  6

172
1
173
1
174
1
140
1.0
141
1.0
175
1
  7

176
1
177
1
178
1
143
1.0
179
1
  8

270
1
271
1
272
1
145
1.0
146
1.0
273
1
  9

274
1
275
1
276
1
 42
1.0
 72
1
  3

 73
1
 74
1
 75
1
 94
63
  0
MATERIAL
  5
20
102
{ACAD_REACTORS
330
E
102
}
330
E
100
AcDbMaterial
  1
ByLayer
  2

 70
0
 40
1.0
 71
1
 41
1.0
 91
-1023410177
 42
1.0
 72
1
  3

 73
1
 74
1
 75
1
 44
0.5
 73
0
 45
1.0
 46
1.0
 77
1
  4

 78
1
 79
1
170
1
 48
1.0
171
1
  6

172
1
173
1
174
1
140
1.0
141
1.0
175
1
  7

176
1
177
1
178
1
143
1.0
179
1
  8

270
1
271
1
272
1
145
1.0
146
1.0
273
1
  9

274
1
275
1
276
1
 42
1.0
 72
1
  3

 73
1
 74
1
 75
1
 94
63
  0
MATERIAL
  5
21
102
{ACAD_REACTORS
330
E
102
}
330
E
100
AcDbMaterial
  1
Global
  2

 70
0
 40
1.0
 71
1
 41
1.0
 91
-1023410177
 42
1.0
 72
1
  3

 73
1
 74
1
 75
1
 44
0.5
 73
0
 45
1.0
 46
1.0
 77
1
  4

 78
1
 79
1
170
1
 48
1.0
171
1
  6

172
1
173
1
174
1
140
1.0
141
1.0
175
1
  7

176
1
177
1
178
1
143
1.0
179
1
  8

270
1
271
1
272
1
145
1.0
146
1.0
273
1
  9

274
1
275
1
276
1
 42
1.0
 72
1
  3

 73
1
 74
1
 75
1
 94
63
  0
MLINESTYLE
  5
22
102
{ACAD_REACTORS
330
10
102
}
330
10
100
AcDbMlineStyle
  2
Standard
 70
0
  3

 62
256
 51
90.0
 52
90.0
 71
2
 49
0.5
 62
256
  6
BYLAYER
 49
-0.5
 62
256
  6
BYLAYER
  0
MLEADERSTYLE
  5
2C
102
{ACAD_REACTORS
330
F
102
}
330
F
100
AcDbMLeaderStyle
179
2
170
2
171
1
172
0
 90
2
 40
0.0
 41
0.0
173
1
 91
-1056964608
 92
-2
290
1
 42
2.0
291
1
 43
8.0
  3
Standard
 44
4.0
300

342
29
174
1
175
1
176
0
178
1
 93
-1056964608
 45
4.0
292
0
297
0
 46
4.0
 94
-1056964608
 47
1.0
 49
1.0
140
1.0
294
1
141
0.0
177
0
142
1.0
295
0
296
0
143
3.75
271
0
272
9
273
9
  0
DICTIONARY
  5
2D
330
A
100
AcDbDictionary
281
1
  3
CREATED_BY_EZDXF
350
2E
  3
WRITTEN_BY_EZDXF
350
41
  0
DICTIONARYVAR
  5
2E
330
2D
100
DictionaryVariables
280
0
  1
1.0.3 @ 2025-05-29T09:41:26.387406+00:00
  0
DICTIONARYVAR
  5
41
330
2D
100
DictionaryVariables
280
0
  1
1.0.3 @ 2025-05-29T09:41:26.391483+00:00
  0
ENDSEC
  0
EOF
