  0
SECTION
  2
HEADER
  9
$ACADVER
  1
AC1027
  9
$ACADMAINTVER
 70
105
  9
$DWGCODEPAGE
  3
ANSI_1252
  9
$LASTSAVEDBY
  1
ezdxf
  9
$REQUIREDVERSIONS
160
0
  9
$INSBASE
 10
0.0
 20
0.0
 30
0.0
  9
$EXTMIN
 10
1e+20
 20
1e+20
 30
1e+20
  9
$EXTMAX
 10
-1e+20
 20
-1e+20
 30
-1e+20
  9
$LIMMIN
 10
0.0
 20
0.0
  9
$LIMMAX
 10
420.0
 20
297.0
  9
$ORTHOMODE
 70
0
  9
$REGENMODE
 70
1
  9
$FILLMODE
 70
1
  9
$QTEXTMODE
 70
0
  9
$MIRRTEXT
 70
1
  9
$LTSCALE
 40
1.0
  9
$ATTMODE
 70
1
  9
$TEXTSIZE
 40
2.5
  9
$TRACEWID
 40
1.0
  9
$TEXTSTYLE
  7
Standard
  9
$CLAYER
  8
0
  9
$CELTYPE
  6
ByLayer
  9
$CECOLOR
 62
256
  9
$CELTSCALE
 40
1.0
  9
$DISPSILH
 70
0
  9
$DIMSCALE
 40
1.0
  9
$DIMASZ
 40
2.5
  9
$DIMEXO
 40
0.625
  9
$DIMDLI
 40
3.75
  9
$DIMRND
 40
0.0
  9
$DIMDLE
 40
0.0
  9
$DIMEXE
 40
1.25
  9
$DIMTP
 40
0.0
  9
$DIMTM
 40
0.0
  9
$DIMTXT
 40
2.5
  9
$DIMCEN
 40
2.5
  9
$DIMTSZ
 40
0.0
  9
$DIMTOL
 70
0
  9
$DIMLIM
 70
0
  9
$DIMTIH
 70
0
  9
$DIMTOH
 70
0
  9
$DIMSE1
 70
0
  9
$DIMSE2
 70
0
  9
$DIMTAD
 70
1
  9
$DIMZIN
 70
8
  9
$DIMBLK
  1

  9
$DIMASO
 70
1
  9
$DIMSHO
 70
1
  9
$DIMPOST
  1

  9
$DIMAPOST
  1

  9
$DIMALT
 70
0
  9
$DIMALTD
 70
3
  9
$DIMALTF
 40
0.03937007874
  9
$DIMLFAC
 40
1.0
  9
$DIMTOFL
 70
1
  9
$DIMTVP
 40
0.0
  9
$DIMTIX
 70
0
  9
$DIMSOXD
 70
0
  9
$DIMSAH
 70
0
  9
$DIMBLK1
  1

  9
$DIMBLK2
  1

  9
$DIMSTYLE
  2
ISO-25
  9
$DIMCLRD
 70
0
  9
$DIMCLRE
 70
0
  9
$DIMCLRT
 70
0
  9
$DIMTFAC
 40
1.0
  9
$DIMGAP
 40
0.625
  9
$DIMJUST
 70
0
  9
$DIMSD1
 70
0
  9
$DIMSD2
 70
0
  9
$DIMTOLJ
 70
0
  9
$DIMTZIN
 70
8
  9
$DIMALTZ
 70
0
  9
$DIMALTTZ
 70
0
  9
$DIMUPT
 70
0
  9
$DIMDEC
 70
2
  9
$DIMTDEC
 70
2
  9
$DIMALTU
 70
2
  9
$DIMALTTD
 70
3
  9
$DIMTXSTY
  7
Standard
  9
$DIMAUNIT
 70
0
  9
$DIMADEC
 70
0
  9
$DIMALTRND
 40
0.0
  9
$DIMAZIN
 70
0
  9
$DIMDSEP
 70
44
  9
$DIMATFIT
 70
3
  9
$DIMFRAC
 70
0
  9
$DIMLDRBLK
  1

  9
$DIMLUNIT
 70
2
  9
$DIMLWD
 70
-2
  9
$DIMLWE
 70
-2
  9
$DIMTMOVE
 70
0
  9
$DIMFXL
 40
1.0
  9
$DIMFXLON
 70
0
  9
$DIMJOGANG
 40
0.785398163397
  9
$DIMTFILL
 70
0
  9
$DIMTFILLCLR
 70
0
  9
$DIMARCSYM
 70
0
  9
$DIMLTYPE
  6

  9
$DIMLTEX1
  6

  9
$DIMLTEX2
  6

  9
$DIMTXTDIRECTION
 70
0
  9
$LUNITS
 70
2
  9
$LUPREC
 70
4
  9
$SKETCHINC
 40
1.0
  9
$FILLETRAD
 40
10.0
  9
$AUNITS
 70
0
  9
$AUPREC
 70
2
  9
$MENU
  1
.
  9
$ELEVATION
 40
0.0
  9
$PELEVATION
 40
0.0
  9
$THICKNESS
 40
0.0
  9
$LIMCHECK
 70
0
  9
$CHAMFERA
 40
0.0
  9
$CHAMFERB
 40
0.0
  9
$CHAMFERC
 40
0.0
  9
$CHAMFERD
 40
0.0
  9
$SKPOLY
 70
0
  9
$TDCREATE
 40
2460825.778773148
  9
$TDUCREATE
 40
2458532.153996898
  9
$TDUPDATE
 40
2460825.778773148
  9
$TDUUPDATE
 40
2458532.1544311
  9
$TDINDWG
 40
0.0
  9
$TDUSRTIMER
 40
0.0
  9
$USRTIMER
 70
1
  9
$ANGBASE
 50
0.0
  9
$ANGDIR
 70
0
  9
$PDMODE
 70
0
  9
$PDSIZE
 40
0.0
  9
$PLINEWID
 40
0.0
  9
$SPLFRAME
 70
0
  9
$SPLINETYPE
 70
6
  9
$SPLINESEGS
 70
8
  9
$HANDSEED
  5
4E
  9
$SURFTAB1
 70
6
  9
$SURFTAB2
 70
6
  9
$SURFTYPE
 70
6
  9
$SURFU
 70
6
  9
$SURFV
 70
6
  9
$UCSBASE
  2

  9
$UCSNAME
  2

  9
$UCSORG
 10
0.0
 20
0.0
 30
0.0
  9
$UCSXDIR
 10
1.0
 20
0.0
 30
0.0
  9
$UCSYDIR
 10
0.0
 20
1.0
 30
0.0
  9
$UCSORTHOREF
  2

  9
$UCSORTHOVIEW
 70
0
  9
$UCSORGTOP
 10
0.0
 20
0.0
 30
0.0
  9
$UCSORGBOTTOM
 10
0.0
 20
0.0
 30
0.0
  9
$UCSORGLEFT
 10
0.0
 20
0.0
 30
0.0
  9
$UCSORGRIGHT
 10
0.0
 20
0.0
 30
0.0
  9
$UCSORGFRONT
 10
0.0
 20
0.0
 30
0.0
  9
$UCSORGBACK
 10
0.0
 20
0.0
 30
0.0
  9
$PUCSBASE
  2

  9
$PUCSNAME
  2

  9
$PUCSORG
 10
0.0
 20
0.0
 30
0.0
  9
$PUCSXDIR
 10
1.0
 20
0.0
 30
0.0
  9
$PUCSYDIR
 10
0.0
 20
1.0
 30
0.0
  9
$PUCSORTHOREF
  2

  9
$PUCSORTHOVIEW
 70
0
  9
$PUCSORGTOP
 10
0.0
 20
0.0
 30
0.0
  9
$PUCSORGBOTTOM
 10
0.0
 20
0.0
 30
0.0
  9
$PUCSORGLEFT
 10
0.0
 20
0.0
 30
0.0
  9
$PUCSORGRIGHT
 10
0.0
 20
0.0
 30
0.0
  9
$PUCSORGFRONT
 10
0.0
 20
0.0
 30
0.0
  9
$PUCSORGBACK
 10
0.0
 20
0.0
 30
0.0
  9
$USERI1
 70
0
  9
$USERI2
 70
0
  9
$USERI3
 70
0
  9
$USERI4
 70
0
  9
$USERI5
 70
0
  9
$USERR1
 40
0.0
  9
$USERR2
 40
0.0
  9
$USERR3
 40
0.0
  9
$USERR4
 40
0.0
  9
$USERR5
 40
0.0
  9
$WORLDVIEW
 70
1
  9
$SHADEDGE
 70
3
  9
$SHADEDIF
 70
70
  9
$TILEMODE
 70
1
  9
$MAXACTVP
 70
64
  9
$PINSBASE
 10
0.0
 20
0.0
 30
0.0
  9
$PLIMCHECK
 70
0
  9
$PEXTMIN
 10
1e+20
 20
1e+20
 30
1e+20
  9
$PEXTMAX
 10
-1e+20
 20
-1e+20
 30
-1e+20
  9
$PLIMMIN
 10
0.0
 20
0.0
  9
$PLIMMAX
 10
420.0
 20
297.0
  9
$UNITMODE
 70
0
  9
$VISRETAIN
 70
1
  9
$PLINEGEN
 70
0
  9
$PSLTSCALE
 70
1
  9
$TREEDEPTH
 70
3020
  9
$CMLSTYLE
  2
Standard
  9
$CMLJUST
 70
0
  9
$CMLSCALE
 40
20.0
  9
$PROXYGRAPHICS
 70
1
  9
$MEASUREMENT
 70
1
  9
$CELWEIGHT
370
-1
  9
$ENDCAPS
280
0
  9
$JOINSTYLE
280
0
  9
$LWDISPLAY
290
0
  9
$INSUNITS
 70
6
  9
$HYPERLINKBASE
  1

  9
$STYLESHEET
  1

  9
$XEDIT
290
1
  9
$CEPSNTYPE
380
0
  9
$PSTYLEMODE
290
1
  9
$FINGERPRINTGUID
  2
{2C2A6D28-C81F-42EB-84EC-8D7E73684DEF}
  9
$VERSIONGUID
  2
{5A425C02-09E2-40FC-847D-E1EA71A100E3}
  9
$EXTNAMES
290
1
  9
$PSVPSCALE
 40
0.0
  9
$OLESTARTUP
290
0
  9
$SORTENTS
280
127
  9
$INDEXCTL
280
0
  9
$HIDETEXT
280
1
  9
$XCLIPFRAME
280
0
  9
$HALOGAP
280
0
  9
$OBSCOLOR
 70
257
  9
$OBSLTYPE
280
0
  9
$INTERSECTIONDISPLAY
280
0
  9
$INTERSECTIONCOLOR
 70
257
  9
$DIMASSOC
280
2
  9
$PROJECTNAME
  1

  9
$CAMERADISPLAY
290
0
  9
$LENSLENGTH
 40
50.0
  9
$CAMERAHEIGHT
 40
0.0
  9
$STEPSPERSEC
 40
24.0
  9
$STEPSIZE
 40
100.0
  9
$3DDWFPREC
 40
2.0
  9
$PSOLWIDTH
 40
0.005
  9
$PSOLHEIGHT
 40
0.08
  9
$LOFTANG1
 40
1.570796326795
  9
$LOFTANG2
 40
1.570796326795
  9
$LOFTMAG1
 40
0.0
  9
$LOFTMAG2
 40
0.0
  9
$LOFTPARAM
 70
7
  9
$LOFTNORMALS
280
1
  9
$LATITUDE
 40
37.795
  9
$LONGITUDE
 40
-122.394
  9
$NORTHDIRECTION
 40
0.0
  9
$TIMEZONE
 70
-8000
  9
$LIGHTGLYPHDISPLAY
280
1
  9
$TILEMODELIGHTSYNCH
280
1
  9
$CMATERIAL
347
20
  9
$SOLIDHIST
280
0
  9
$SHOWHIST
280
1
  9
$DWFFRAME
280
2
  9
$DGNFRAME
280
2
  9
$REALWORLDSCALE
290
1
  9
$INTERFERECOLOR
 62
256
  9
$CSHADOW
280
0
  9
$SHADOWPLANELOCATION
 40
0.0
  0
ENDSEC
  0
SECTION
  2
CLASSES
  0
CLASS
  1
ACDBDICTIONARYWDFLT
  2
AcDbDictionaryWithDefault
  3
ObjectDBX Classes
 90
0
 91
0
280
0
281
0
  0
CLASS
  1
SUN
  2
AcDbSun
  3
SCENEOE
 90
1153
 91
0
280
0
281
0
  0
CLASS
  1
VISUALSTYLE
  2
AcDbVisualStyle
  3
ObjectDBX Classes
 90
4095
 91
0
280
0
281
0
  0
CLASS
  1
MATERIAL
  2
AcDbMaterial
  3
ObjectDBX Classes
 90
1153
 91
0
280
0
281
0
  0
CLASS
  1
SCALE
  2
AcDbScale
  3
ObjectDBX Classes
 90
1153
 91
0
280
0
281
0
  0
CLASS
  1
TABLESTYLE
  2
AcDbTableStyle
  3
ObjectDBX Classes
 90
4095
 91
0
280
0
281
0
  0
CLASS
  1
MLEADERSTYLE
  2
AcDbMLeaderStyle
  3
ACDB_MLEADERSTYLE_CLASS
 90
4095
 91
0
280
0
281
0
  0
CLASS
  1
DICTIONARYVAR
  2
AcDbDictionaryVar
  3
ObjectDBX Classes
 90
0
 91
0
280
0
281
0
  0
CLASS
  1
CELLSTYLEMAP
  2
AcDbCellStyleMap
  3
ObjectDBX Classes
 90
1152
 91
0
280
0
281
0
  0
CLASS
  1
MENTALRAYRENDERSETTINGS
  2
AcDbMentalRayRenderSettings
  3
SCENEOE
 90
1024
 91
0
280
0
281
0
  0
CLASS
  1
ACDBDETAILVIEWSTYLE
  2
AcDbDetailViewStyle
  3
ObjectDBX Classes
 90
1025
 91
0
280
0
281
0
  0
CLASS
  1
ACDBSECTIONVIEWSTYLE
  2
AcDbSectionViewStyle
  3
ObjectDBX Classes
 90
1025
 91
0
280
0
281
0
  0
CLASS
  1
RASTERVARIABLES
  2
AcDbRasterVariables
  3
ISM
 90
0
 91
0
280
0
281
0
  0
CLASS
  1
LAYOUT
  2
AcDbLayout
  3
ObjectDBX Classes
 90
0
 91
0
280
0
281
0
  0
CLASS
  1
ACDBPLACEHOLDER
  2
AcDbPlaceHolder
  3
ObjectDBX Classes
 90
0
 91
0
280
0
281
0
  0
ENDSEC
  0
SECTION
  2
TABLES
  0
TABLE
  2
VPORT
  5
8
330
0
100
AcDbSymbolTable
 70
1
  0
VPORT
  5
23
330
8
100
AcDbSymbolTableRecord
100
AcDbViewportTableRecord
  2
*Active
 70
0
 10
0.0
 20
0.0
 11
1.0
 21
1.0
 12
0.0
 22
0.0
 13
0.0
 23
0.0
 14
0.5
 24
0.5
 15
0.5
 25
0.5
 16
0.0
 26
0.0
 36
1.0
 17
0.0
 27
0.0
 37
0.0
 40
1000.0
 41
1.34
 42
50.0
 43
0.0
 44
0.0
 50
0.0
 51
0.0
 71
0
 72
1000
 73
1
 74
3
 75
0
 76
0
 77
0
 78
0
281
0
 65
0
146
0.0
  0
ENDTAB
  0
TABLE
  2
LTYPE
  5
2
330
0
100
AcDbSymbolTable
 70
3
  0
LTYPE
  5
24
330
2
100
AcDbSymbolTableRecord
100
AcDbLinetypeTableRecord
  2
ByBlock
 70
0
  3

 72
65
 73
0
 40
0.0
  0
LTYPE
  5
25
330
2
100
AcDbSymbolTableRecord
100
AcDbLinetypeTableRecord
  2
ByLayer
 70
0
  3

 72
65
 73
0
 40
0.0
  0
LTYPE
  5
26
330
2
100
AcDbSymbolTableRecord
100
AcDbLinetypeTableRecord
  2
Continuous
 70
0
  3

 72
65
 73
0
 40
0.0
  0
ENDTAB
  0
TABLE
  2
LAYER
  5
1
330
0
100
AcDbSymbolTable
 70
2
  0
LAYER
  5
27
330
1
100
AcDbSymbolTableRecord
100
AcDbLayerTableRecord
  2
0
 70
0
 62
7
  6
Continuous
370
-3
390
13
347
21
  0
LAYER
  5
28
330
1
100
AcDbSymbolTableRecord
100
AcDbLayerTableRecord
  2
Defpoints
 70
0
 62
7
  6
Continuous
290
0
370
-3
390
13
347
21
  0
ENDTAB
  0
TABLE
  2
STYLE
  5
5
330
0
100
AcDbSymbolTable
 70
1
  0
STYLE
  5
29
330
5
100
AcDbSymbolTableRecord
100
AcDbTextStyleTableRecord
  2
Standard
 70
0
 40
0.0
 41
1.0
 50
0.0
 71
0
 42
2.5
  3
txt
  4

  0
ENDTAB
  0
TABLE
  2
VIEW
  5
7
330
0
100
AcDbSymbolTable
 70
0
  0
ENDTAB
  0
TABLE
  2
UCS
  5
6
330
0
100
AcDbSymbolTable
 70
0
  0
ENDTAB
  0
TABLE
  2
APPID
  5
3
330
0
100
AcDbSymbolTable
 70
3
  0
APPID
  5
2A
330
3
100
AcDbSymbolTableRecord
100
AcDbRegAppTableRecord
  2
ACAD
 70
0
  0
APPID
  5
4B
330
3
100
AcDbSymbolTableRecord
100
AcDbRegAppTableRecord
  2
HATCHBACKGROUNDCOLOR
 70
0
  0
APPID
  5
4C
330
3
100
AcDbSymbolTableRecord
100
AcDbRegAppTableRecord
  2
EZDXF
 70
0
  0
ENDTAB
  0
TABLE
  2
DIMSTYLE
  5
4
330
0
100
AcDbSymbolTable
 70
1
100
AcDbDimStyleTable
  0
DIMSTYLE
105
2B
330
4
100
AcDbSymbolTableRecord
100
AcDbDimStyleTableRecord
  2
Standard
 70
0
 40
1.0
 41
2.5
 42
0.625
 43
3.75
 44
1.25
 45
0.0
 46
0.0
 47
0.0
 48
0.0
 49
2.5
140
2.5
141
2.5
142
0.0
143
0.03937007874
144
1.0
145
0.0
146
1.0
147
0.625
148
0.0
 69
0
 70
0
 71
0
 72
0
 73
0
 74
0
 75
0
 76
0
 77
1
 78
8
 79
3
170
0
171
3
172
1
173
0
174
0
175
0
176
0
177
0
178
0
179
2
271
2
272
2
273
2
274
3
275
0
276
0
277
2
278
44
279
0
280
0
281
0
282
0
283
0
284
8
285
0
286
0
288
0
289
3
290
0
371
-2
372
-2
  0
ENDTAB
  0
TABLE
  2
BLOCK_RECORD
  5
9
330
0
100
AcDbSymbolTable
 70
2
  0
BLOCK_RECORD
  5
17
330
9
100
AcDbSymbolTableRecord
100
AcDbBlockTableRecord
  2
*Model_Space
340
1A
 70
0
280
1
281
0
  0
BLOCK_RECORD
  5
1B
330
9
100
AcDbSymbolTableRecord
100
AcDbBlockTableRecord
  2
*Paper_Space
340
1E
 70
0
280
1
281
0
  0
ENDTAB
  0
ENDSEC
  0
SECTION
  2
BLOCKS
  0
BLOCK
  5
18
330
17
100
AcDbEntity
  8
0
100
AcDbBlockBegin
  2
*Model_Space
 70
0
 10
0.0
 20
0.0
 30
0.0
  3
*Model_Space
  1

  0
ENDBLK
  5
19
330
17
100
AcDbEntity
  8
0
100
AcDbBlockEnd
  0
BLOCK
  5
1C
330
1B
100
AcDbEntity
  8
0
100
AcDbBlockBegin
  2
*Paper_Space
 70
0
 10
0.0
 20
0.0
 30
0.0
  3
*Paper_Space
  1

  0
ENDBLK
  5
1D
330
1B
100
AcDbEntity
  8
0
100
AcDbBlockEnd
  0
ENDSEC
  0
SECTION
  2
ENTITIES
  0
LWPOLYLINE
  5
2F
330
17
100
AcDbEntity
  8
0
100
AcDbPolyline
 90
51
 70
0
 10
2.5
 20
26.5
 10
2.5
 20
26.549999999999997
 10
2.5
 20
26.6
 10
2.5
 20
26.65
 10
2.5
 20
26.700000000000003
 10
2.5
 20
26.75
 10
2.5
 20
26.799999999999997
 10
2.5
 20
26.85
 10
2.5
 20
26.9
 10
2.5
 20
26.950000000000003
 10
2.5
 20
27.0
 10
2.5
 20
27.049999999999997
 10
2.5
 20
27.1
 10
2.5
 20
27.15
 10
2.5
 20
27.200000000000003
 10
2.5
 20
27.25
 10
2.5
 20
27.299999999999997
 10
2.5
 20
27.35
 10
2.5
 20
27.4
 10
2.5
 20
27.450000000000003
 10
2.5
 20
27.5
 10
2.5
 20
27.549999999999997
 10
2.5
 20
27.6
 10
2.5
 20
27.65
 10
2.5
 20
27.700000000000003
 10
2.5
 20
27.75
 10
2.5
 20
27.799999999999997
 10
2.5
 20
27.85
 10
2.5
 20
27.9
 10
2.5
 20
27.950000000000003
 10
2.5
 20
28.0
 10
2.5
 20
28.049999999999997
 10
2.5
 20
28.1
 10
2.5
 20
28.15
 10
2.5
 20
28.200000000000003
 10
2.5
 20
28.25
 10
2.5
 20
28.299999999999997
 10
2.5
 20
28.35
 10
2.5
 20
28.4
 10
2.5
 20
28.450000000000003
 10
2.5
 20
28.5
 10
2.5
 20
28.549999999999997
 10
2.5
 20
28.6
 10
2.5
 20
28.65
 10
2.5
 20
28.700000000000003
 10
2.5
 20
28.75
 10
2.5
 20
28.799999999999997
 10
2.5
 20
28.85
 10
2.5
 20
28.9
 10
2.5
 20
28.950000000000003
 10
2.5
 20
29.0
  0
LWPOLYLINE
  5
30
330
17
100
AcDbEntity
  8
0
100
AcDbPolyline
 90
51
 70
0
 10
-2.5
 20
26.5
 10
-2.5
 20
26.549999999999997
 10
-2.5
 20
26.6
 10
-2.5
 20
26.65
 10
-2.5
 20
26.700000000000003
 10
-2.5
 20
26.75
 10
-2.5
 20
26.799999999999997
 10
-2.5
 20
26.85
 10
-2.5
 20
26.9
 10
-2.5
 20
26.950000000000003
 10
-2.5
 20
27.0
 10
-2.5
 20
27.049999999999997
 10
-2.5
 20
27.1
 10
-2.5
 20
27.15
 10
-2.5
 20
27.200000000000003
 10
-2.5
 20
27.25
 10
-2.5
 20
27.299999999999997
 10
-2.5
 20
27.35
 10
-2.5
 20
27.4
 10
-2.5
 20
27.450000000000003
 10
-2.5
 20
27.5
 10
-2.5
 20
27.549999999999997
 10
-2.5
 20
27.6
 10
-2.5
 20
27.65
 10
-2.5
 20
27.700000000000003
 10
-2.5
 20
27.75
 10
-2.5
 20
27.799999999999997
 10
-2.5
 20
27.85
 10
-2.5
 20
27.9
 10
-2.5
 20
27.950000000000003
 10
-2.5
 20
28.0
 10
-2.5
 20
28.049999999999997
 10
-2.5
 20
28.1
 10
-2.5
 20
28.15
 10
-2.5
 20
28.200000000000003
 10
-2.5
 20
28.25
 10
-2.5
 20
28.299999999999997
 10
-2.5
 20
28.35
 10
-2.5
 20
28.4
 10
-2.5
 20
28.450000000000003
 10
-2.5
 20
28.5
 10
-2.5
 20
28.549999999999997
 10
-2.5
 20
28.6
 10
-2.5
 20
28.65
 10
-2.5
 20
28.700000000000003
 10
-2.5
 20
28.75
 10
-2.5
 20
28.799999999999997
 10
-2.5
 20
28.85
 10
-2.5
 20
28.9
 10
-2.5
 20
28.950000000000003
 10
-2.5
 20
29.0
  0
LWPOLYLINE
  5
31
330
17
100
AcDbEntity
  8
0
100
AcDbPolyline
 90
51
 70
0
 10
2.5
 20
-29.0
 10
2.5
 20
-28.95
 10
2.5
 20
-28.9
 10
2.5
 20
-28.85
 10
2.5
 20
-28.8
 10
2.5
 20
-28.75
 10
2.5
 20
-28.7
 10
2.5
 20
-28.65
 10
2.5
 20
-28.6
 10
2.5
 20
-28.55
 10
2.5
 20
-28.5
 10
2.5
 20
-28.45
 10
2.5
 20
-28.4
 10
2.5
 20
-28.35
 10
2.5
 20
-28.3
 10
2.5
 20
-28.25
 10
2.5
 20
-28.2
 10
2.5
 20
-28.15
 10
2.5
 20
-28.1
 10
2.5
 20
-28.05
 10
2.5
 20
-28.0
 10
2.5
 20
-27.95
 10
2.5
 20
-27.9
 10
2.5
 20
-27.85
 10
2.5
 20
-27.8
 10
2.5
 20
-27.75
 10
2.5
 20
-27.7
 10
2.5
 20
-27.65
 10
2.5
 20
-27.6
 10
2.5
 20
-27.55
 10
2.5
 20
-27.5
 10
2.5
 20
-27.45
 10
2.5
 20
-27.4
 10
2.5
 20
-27.35
 10
2.5
 20
-27.3
 10
2.5
 20
-27.25
 10
2.5
 20
-27.2
 10
2.5
 20
-27.15
 10
2.5
 20
-27.1
 10
2.5
 20
-27.05
 10
2.5
 20
-27.0
 10
2.5
 20
-26.95
 10
2.5
 20
-26.9
 10
2.5
 20
-26.85
 10
2.5
 20
-26.8
 10
2.5
 20
-26.75
 10
2.5
 20
-26.7
 10
2.5
 20
-26.65
 10
2.5
 20
-26.6
 10
2.5
 20
-26.55
 10
2.5
 20
-26.5
  0
LWPOLYLINE
  5
32
330
17
100
AcDbEntity
  8
0
100
AcDbPolyline
 90
51
 70
0
 10
-2.5
 20
-29.0
 10
-2.5
 20
-28.95
 10
-2.5
 20
-28.9
 10
-2.5
 20
-28.85
 10
-2.5
 20
-28.8
 10
-2.5
 20
-28.75
 10
-2.5
 20
-28.7
 10
-2.5
 20
-28.65
 10
-2.5
 20
-28.6
 10
-2.5
 20
-28.55
 10
-2.5
 20
-28.5
 10
-2.5
 20
-28.45
 10
-2.5
 20
-28.4
 10
-2.5
 20
-28.35
 10
-2.5
 20
-28.3
 10
-2.5
 20
-28.25
 10
-2.5
 20
-28.2
 10
-2.5
 20
-28.15
 10
-2.5
 20
-28.1
 10
-2.5
 20
-28.05
 10
-2.5
 20
-28.0
 10
-2.5
 20
-27.95
 10
-2.5
 20
-27.9
 10
-2.5
 20
-27.85
 10
-2.5
 20
-27.8
 10
-2.5
 20
-27.75
 10
-2.5
 20
-27.7
 10
-2.5
 20
-27.65
 10
-2.5
 20
-27.6
 10
-2.5
 20
-27.55
 10
-2.5
 20
-27.5
 10
-2.5
 20
-27.45
 10
-2.5
 20
-27.4
 10
-2.5
 20
-27.35
 10
-2.5
 20
-27.3
 10
-2.5
 20
-27.25
 10
-2.5
 20
-27.2
 10
-2.5
 20
-27.15
 10
-2.5
 20
-27.1
 10
-2.5
 20
-27.05
 10
-2.5
 20
-27.0
 10
-2.5
 20
-26.95
 10
-2.5
 20
-26.9
 10
-2.5
 20
-26.85
 10
-2.5
 20
-26.8
 10
-2.5
 20
-26.75
 10
-2.5
 20
-26.7
 10
-2.5
 20
-26.65
 10
-2.5
 20
-26.6
 10
-2.5
 20
-26.55
 10
-2.5
 20
-26.5
  0
LWPOLYLINE
  5
33
330
17
100
AcDbEntity
  8
0
100
AcDbPolyline
 90
51
 70
0
 10
2.5
 20
-20.5
 10
2.5
 20
-19.68
 10
2.5
 20
-18.86
 10
2.5
 20
-18.04
 10
2.5
 20
-17.22
 10
2.5
 20
-16.4
 10
2.5
 20
-15.58
 10
2.5
 20
-14.76
 10
2.5
 20
-13.940000000000001
 10
2.5
 20
-13.120000000000001
 10
2.5
 20
-12.3
 10
2.5
 20
-11.48
 10
2.5
 20
-10.66
 10
2.5
 20
-9.84
 10
2.5
 20
-9.02
 10
2.5
 20
-8.2
 10
2.5
 20
-7.380000000000003
 10
2.5
 20
-6.560000000000002
 10
2.5
 20
-5.740000000000002
 10
2.5
 20
-4.920000000000002
 10
2.5
 20
-4.100000000000001
 10
2.5
 20
-3.280000000000001
 10
2.5
 20
-2.460000000000001
 10
2.5
 20
-1.6400000000000006
 10
2.5
 20
-0.8200000000000003
 10
2.5
 20
0.0
 10
2.5
 20
0.8200000000000003
 10
2.5
 20
1.6400000000000006
 10
2.5
 20
2.460000000000001
 10
2.5
 20
3.280000000000001
 10
2.5
 20
4.100000000000001
 10
2.5
 20
4.920000000000002
 10
2.5
 20
5.739999999999995
 10
2.5
 20
6.560000000000002
 10
2.5
 20
7.3799999999999955
 10
2.5
 20
8.200000000000003
 10
2.5
 20
9.019999999999996
 10
2.5
 20
9.840000000000003
 10
2.5
 20
10.659999999999997
 10
2.5
 20
11.480000000000004
 10
2.5
 20
12.299999999999997
 10
2.5
 20
13.119999999999997
 10
2.5
 20
13.939999999999998
 10
2.5
 20
14.759999999999998
 10
2.5
 20
15.579999999999998
 10
2.5
 20
16.4
 10
2.5
 20
17.22
 10
2.5
 20
18.04
 10
2.5
 20
18.86
 10
2.5
 20
19.68
 10
2.5
 20
20.5
  0
LWPOLYLINE
  5
34
330
17
100
AcDbEntity
  8
0
100
AcDbPolyline
 90
51
 70
0
 10
-2.5
 20
-20.5
 10
-2.5
 20
-19.68
 10
-2.5
 20
-18.86
 10
-2.5
 20
-18.04
 10
-2.5
 20
-17.22
 10
-2.5
 20
-16.4
 10
-2.5
 20
-15.58
 10
-2.5
 20
-14.76
 10
-2.5
 20
-13.940000000000001
 10
-2.5
 20
-13.120000000000001
 10
-2.5
 20
-12.3
 10
-2.5
 20
-11.48
 10
-2.5
 20
-10.66
 10
-2.5
 20
-9.84
 10
-2.5
 20
-9.02
 10
-2.5
 20
-8.2
 10
-2.5
 20
-7.380000000000003
 10
-2.5
 20
-6.560000000000002
 10
-2.5
 20
-5.740000000000002
 10
-2.5
 20
-4.920000000000002
 10
-2.5
 20
-4.100000000000001
 10
-2.5
 20
-3.280000000000001
 10
-2.5
 20
-2.460000000000001
 10
-2.5
 20
-1.6400000000000006
 10
-2.5
 20
-0.8200000000000003
 10
-2.5
 20
0.0
 10
-2.5
 20
0.8200000000000003
 10
-2.5
 20
1.6400000000000006
 10
-2.5
 20
2.460000000000001
 10
-2.5
 20
3.280000000000001
 10
-2.5
 20
4.100000000000001
 10
-2.5
 20
4.920000000000002
 10
-2.5
 20
5.739999999999995
 10
-2.5
 20
6.560000000000002
 10
-2.5
 20
7.3799999999999955
 10
-2.5
 20
8.200000000000003
 10
-2.5
 20
9.019999999999996
 10
-2.5
 20
9.840000000000003
 10
-2.5
 20
10.659999999999997
 10
-2.5
 20
11.480000000000004
 10
-2.5
 20
12.299999999999997
 10
-2.5
 20
13.119999999999997
 10
-2.5
 20
13.939999999999998
 10
-2.5
 20
14.759999999999998
 10
-2.5
 20
15.579999999999998
 10
-2.5
 20
16.4
 10
-2.5
 20
17.22
 10
-2.5
 20
18.04
 10
-2.5
 20
18.86
 10
-2.5
 20
19.68
 10
-2.5
 20
20.5
  0
LWPOLYLINE
  5
35
330
17
100
AcDbEntity
  8
0
100
AcDbPolyline
 90
51
 70
0
 10
4.499999999999503
 20
-26.4999999999995
 10
4.519999999999502
 20
-26.4799999999995
 10
4.539999999999503
 20
-26.4599999999995
 10
4.559999999999503
 20
-26.4399999999995
 10
4.579999999999503
 20
-26.4199999999995
 10
4.599999999999502
 20
-26.3999999999995
 10
4.619999999999502
 20
-26.379999999999498
 10
4.639999999999502
 20
-26.3599999999995
 10
4.659999999999503
 20
-26.3399999999995
 10
4.679999999999502
 20
-26.3199999999995
 10
4.699999999999503
 20
-26.2999999999995
 10
4.7199999999995015
 20
-26.2799999999995
 10
4.739999999999502
 20
-26.2599999999995
 10
4.759999999999502
 20
-26.239999999999498
 10
4.779999999999502
 20
-26.219999999999498
 10
4.799999999999502
 20
-26.1999999999995
 10
4.819999999999503
 20
-26.1799999999995
 10
4.8399999999995025
 20
-26.1599999999995
 10
4.859999999999502
 20
-26.1399999999995
 10
4.879999999999502
 20
-26.1199999999995
 10
4.899999999999502
 20
-26.0999999999995
 10
4.9199999999995025
 20
-26.0799999999995
 10
4.939999999999502
 20
-26.059999999999498
 10
4.959999999999502
 20
-26.039999999999498
 10
4.979999999999503
 20
-26.0199999999995
 10
4.999999999999502
 20
-25.9999999999995
 10
5.019999999999502
 20
-25.9799999999995
 10
5.039999999999502
 20
-25.9599999999995
 10
5.059999999999502
 20
-25.9399999999995
 10
5.079999999999502
 20
-25.919999999999497
 10
5.099999999999502
 20
-25.8999999999995
 10
5.119999999999503
 20
-25.879999999999498
 10
5.139999999999501
 20
-25.8599999999995
 10
5.159999999999502
 20
-25.8399999999995
 10
5.179999999999502
 20
-25.8199999999995
 10
5.199999999999502
 20
-25.7999999999995
 10
5.219999999999502
 20
-25.7799999999995
 10
5.239999999999502
 20
-25.7599999999995
 10
5.259999999999502
 20
-25.739999999999498
 10
5.279999999999502
 20
-25.7199999999995
 10
5.299999999999502
 20
-25.6999999999995
 10
5.319999999999502
 20
-25.6799999999995
 10
5.339999999999502
 20
-25.6599999999995
 10
5.359999999999502
 20
-25.6399999999995
 10
5.3799999999995025
 20
-25.6199999999995
 10
5.399999999999502
 20
-25.599999999999497
 10
5.4199999999995025
 20
-25.5799999999995
 10
5.439999999999502
 20
-25.559999999999498
 10
5.459999999999502
 20
-25.539999999999498
 10
5.479999999999502
 20
-25.5199999999995
 10
5.499999999999502
 20
-25.4999999999995
  0
LWPOLYLINE
  5
36
330
17
100
AcDbEntity
  8
0
100
AcDbPolyline
 90
51
 70
0
 10
5.5
 20
-25.5
 10
5.5
 20
-25.42
 10
5.5
 20
-25.34
 10
5.5
 20
-25.26
 10
5.5
 20
-25.18
 10
5.5
 20
-25.1
 10
5.5
 20
-25.02
 10
5.5
 20
-24.94
 10
5.5
 20
-24.86
 10
5.5
 20
-24.78
 10
5.5
 20
-24.7
 10
5.5
 20
-24.62
 10
5.5
 20
-24.54
 10
5.5
 20
-24.46
 10
5.5
 20
-24.38
 10
5.5
 20
-24.3
 10
5.5
 20
-24.22
 10
5.5
 20
-24.14
 10
5.5
 20
-24.06
 10
5.5
 20
-23.98
 10
5.5
 20
-23.9
 10
5.5
 20
-23.82
 10
5.5
 20
-23.740000000000002
 10
5.5
 20
-23.66
 10
5.5
 20
-23.58
 10
5.5
 20
-23.5
 10
5.5
 20
-23.42
 10
5.5
 20
-23.34
 10
5.5
 20
-23.259999999999998
 10
5.5
 20
-23.18
 10
5.5
 20
-23.1
 10
5.5
 20
-23.02
 10
5.5
 20
-22.94
 10
5.5
 20
-22.86
 10
5.5
 20
-22.78
 10
5.5
 20
-22.7
 10
5.5
 20
-22.62
 10
5.5
 20
-22.54
 10
5.5
 20
-22.46
 10
5.5
 20
-22.38
 10
5.5
 20
-22.3
 10
5.5
 20
-22.22
 10
5.5
 20
-22.14
 10
5.5
 20
-22.060000000000002
 10
5.5
 20
-21.98
 10
5.5
 20
-21.9
 10
5.5
 20
-21.82
 10
5.5
 20
-21.740000000000002
 10
5.5
 20
-21.66
 10
5.5
 20
-21.58
 10
5.5
 20
-21.5
  0
LWPOLYLINE
  5
37
330
17
100
AcDbEntity
  8
0
100
AcDbPolyline
 90
51
 70
0
 10
-5.5
 20
-25.5
 10
-5.5
 20
-25.42
 10
-5.5
 20
-25.34
 10
-5.5
 20
-25.26
 10
-5.5
 20
-25.18
 10
-5.5
 20
-25.1
 10
-5.5
 20
-25.02
 10
-5.5
 20
-24.94
 10
-5.5
 20
-24.86
 10
-5.5
 20
-24.78
 10
-5.5
 20
-24.7
 10
-5.5
 20
-24.62
 10
-5.5
 20
-24.54
 10
-5.5
 20
-24.46
 10
-5.5
 20
-24.38
 10
-5.5
 20
-24.3
 10
-5.5
 20
-24.22
 10
-5.5
 20
-24.14
 10
-5.5
 20
-24.06
 10
-5.5
 20
-23.98
 10
-5.5
 20
-23.9
 10
-5.5
 20
-23.82
 10
-5.5
 20
-23.740000000000002
 10
-5.5
 20
-23.66
 10
-5.5
 20
-23.58
 10
-5.5
 20
-23.5
 10
-5.5
 20
-23.42
 10
-5.5
 20
-23.34
 10
-5.5
 20
-23.259999999999998
 10
-5.5
 20
-23.18
 10
-5.5
 20
-23.1
 10
-5.5
 20
-23.02
 10
-5.5
 20
-22.94
 10
-5.5
 20
-22.86
 10
-5.5
 20
-22.78
 10
-5.5
 20
-22.7
 10
-5.5
 20
-22.62
 10
-5.5
 20
-22.54
 10
-5.5
 20
-22.46
 10
-5.5
 20
-22.38
 10
-5.5
 20
-22.3
 10
-5.5
 20
-22.22
 10
-5.5
 20
-22.14
 10
-5.5
 20
-22.060000000000002
 10
-5.5
 20
-21.98
 10
-5.5
 20
-21.9
 10
-5.5
 20
-21.82
 10
-5.5
 20
-21.740000000000002
 10
-5.5
 20
-21.66
 10
-5.5
 20
-21.58
 10
-5.5
 20
-21.5
  0
LWPOLYLINE
  5
38
330
17
100
AcDbEntity
  8
0
100
AcDbPolyline
 90
51
 70
0
 10
4.499999999999503
 20
-20.5000000000005
 10
4.519999999999502
 20
-20.5200000000005
 10
4.539999999999503
 20
-20.5400000000005
 10
4.559999999999503
 20
-20.5600000000005
 10
4.579999999999503
 20
-20.5800000000005
 10
4.599999999999502
 20
-20.6000000000005
 10
4.619999999999502
 20
-20.620000000000502
 10
4.639999999999502
 20
-20.6400000000005
 10
4.659999999999503
 20
-20.6600000000005
 10
4.679999999999502
 20
-20.6800000000005
 10
4.699999999999503
 20
-20.7000000000005
 10
4.7199999999995015
 20
-20.7200000000005
 10
4.739999999999502
 20
-20.7400000000005
 10
4.759999999999502
 20
-20.760000000000502
 10
4.779999999999502
 20
-20.780000000000502
 10
4.799999999999502
 20
-20.8000000000005
 10
4.819999999999503
 20
-20.8200000000005
 10
4.8399999999995025
 20
-20.8400000000005
 10
4.859999999999502
 20
-20.8600000000005
 10
4.879999999999502
 20
-20.8800000000005
 10
4.899999999999502
 20
-20.9000000000005
 10
4.9199999999995025
 20
-20.9200000000005
 10
4.939999999999502
 20
-20.940000000000502
 10
4.959999999999502
 20
-20.960000000000502
 10
4.979999999999503
 20
-20.9800000000005
 10
4.999999999999502
 20
-21.0000000000005
 10
5.019999999999502
 20
-21.0200000000005
 10
5.039999999999502
 20
-21.0400000000005
 10
5.059999999999502
 20
-21.0600000000005
 10
5.079999999999502
 20
-21.080000000000503
 10
5.099999999999502
 20
-21.1000000000005
 10
5.119999999999503
 20
-21.120000000000502
 10
5.139999999999501
 20
-21.1400000000005
 10
5.159999999999502
 20
-21.1600000000005
 10
5.179999999999502
 20
-21.1800000000005
 10
5.199999999999502
 20
-21.2000000000005
 10
5.219999999999502
 20
-21.2200000000005
 10
5.239999999999502
 20
-21.2400000000005
 10
5.259999999999502
 20
-21.260000000000502
 10
5.279999999999502
 20
-21.2800000000005
 10
5.299999999999502
 20
-21.3000000000005
 10
5.319999999999502
 20
-21.3200000000005
 10
5.339999999999502
 20
-21.3400000000005
 10
5.359999999999502
 20
-21.3600000000005
 10
5.3799999999995025
 20
-21.3800000000005
 10
5.399999999999502
 20
-21.400000000000503
 10
5.4199999999995025
 20
-21.4200000000005
 10
5.439999999999502
 20
-21.440000000000502
 10
5.459999999999502
 20
-21.460000000000502
 10
5.479999999999502
 20
-21.4800000000005
 10
5.499999999999502
 20
-21.5000000000005
  0
LWPOLYLINE
  5
39
330
17
100
AcDbEntity
  8
0
100
AcDbPolyline
 90
51
 70
0
 10
4.499999999999503
 20
20.5000000000005
 10
4.519999999999502
 20
20.5200000000005
 10
4.539999999999503
 20
20.5400000000005
 10
4.559999999999503
 20
20.5600000000005
 10
4.579999999999503
 20
20.5800000000005
 10
4.599999999999502
 20
20.6000000000005
 10
4.619999999999502
 20
20.620000000000502
 10
4.639999999999502
 20
20.6400000000005
 10
4.659999999999503
 20
20.6600000000005
 10
4.679999999999502
 20
20.6800000000005
 10
4.699999999999503
 20
20.7000000000005
 10
4.7199999999995015
 20
20.7200000000005
 10
4.739999999999502
 20
20.7400000000005
 10
4.759999999999502
 20
20.760000000000502
 10
4.779999999999502
 20
20.780000000000502
 10
4.799999999999502
 20
20.8000000000005
 10
4.819999999999503
 20
20.8200000000005
 10
4.8399999999995025
 20
20.8400000000005
 10
4.859999999999502
 20
20.8600000000005
 10
4.879999999999502
 20
20.8800000000005
 10
4.899999999999502
 20
20.9000000000005
 10
4.9199999999995025
 20
20.9200000000005
 10
4.939999999999502
 20
20.940000000000502
 10
4.959999999999502
 20
20.960000000000502
 10
4.979999999999503
 20
20.9800000000005
 10
4.999999999999502
 20
21.0000000000005
 10
5.019999999999502
 20
21.0200000000005
 10
5.039999999999502
 20
21.0400000000005
 10
5.059999999999502
 20
21.0600000000005
 10
5.079999999999502
 20
21.080000000000503
 10
5.099999999999502
 20
21.1000000000005
 10
5.119999999999503
 20
21.120000000000502
 10
5.139999999999501
 20
21.1400000000005
 10
5.159999999999502
 20
21.1600000000005
 10
5.179999999999502
 20
21.1800000000005
 10
5.199999999999502
 20
21.2000000000005
 10
5.219999999999502
 20
21.2200000000005
 10
5.239999999999502
 20
21.2400000000005
 10
5.259999999999502
 20
21.260000000000502
 10
5.279999999999502
 20
21.2800000000005
 10
5.299999999999502
 20
21.3000000000005
 10
5.319999999999502
 20
21.3200000000005
 10
5.339999999999502
 20
21.3400000000005
 10
5.359999999999502
 20
21.3600000000005
 10
5.3799999999995025
 20
21.3800000000005
 10
5.399999999999502
 20
21.400000000000503
 10
5.4199999999995025
 20
21.4200000000005
 10
5.439999999999502
 20
21.440000000000502
 10
5.459999999999502
 20
21.460000000000502
 10
5.479999999999502
 20
21.4800000000005
 10
5.499999999999502
 20
21.5000000000005
  0
LWPOLYLINE
  5
3A
330
17
100
AcDbEntity
  8
0
100
AcDbPolyline
 90
51
 70
0
 10
5.5
 20
21.5
 10
5.5
 20
21.58
 10
5.5
 20
21.66
 10
5.5
 20
21.740000000000002
 10
5.5
 20
21.82
 10
5.5
 20
21.9
 10
5.5
 20
21.98
 10
5.5
 20
22.060000000000002
 10
5.5
 20
22.14
 10
5.5
 20
22.22
 10
5.5
 20
22.3
 10
5.5
 20
22.38
 10
5.5
 20
22.46
 10
5.5
 20
22.54
 10
5.5
 20
22.62
 10
5.5
 20
22.7
 10
5.5
 20
22.78
 10
5.5
 20
22.86
 10
5.5
 20
22.94
 10
5.5
 20
23.02
 10
5.5
 20
23.1
 10
5.5
 20
23.18
 10
5.5
 20
23.259999999999998
 10
5.5
 20
23.34
 10
5.5
 20
23.42
 10
5.5
 20
23.5
 10
5.5
 20
23.58
 10
5.5
 20
23.66
 10
5.5
 20
23.740000000000002
 10
5.5
 20
23.82
 10
5.5
 20
23.9
 10
5.5
 20
23.98
 10
5.5
 20
24.06
 10
5.5
 20
24.14
 10
5.5
 20
24.22
 10
5.5
 20
24.3
 10
5.5
 20
24.38
 10
5.5
 20
24.46
 10
5.5
 20
24.54
 10
5.5
 20
24.62
 10
5.5
 20
24.7
 10
5.5
 20
24.78
 10
5.5
 20
24.86
 10
5.5
 20
24.94
 10
5.5
 20
25.02
 10
5.5
 20
25.1
 10
5.5
 20
25.18
 10
5.5
 20
25.259999999999998
 10
5.5
 20
25.34
 10
5.5
 20
25.42
 10
5.5
 20
25.5
  0
LWPOLYLINE
  5
3B
330
17
100
AcDbEntity
  8
0
100
AcDbPolyline
 90
51
 70
0
 10
-5.5
 20
21.5
 10
-5.5
 20
21.58
 10
-5.5
 20
21.66
 10
-5.5
 20
21.740000000000002
 10
-5.5
 20
21.82
 10
-5.5
 20
21.9
 10
-5.5
 20
21.98
 10
-5.5
 20
22.060000000000002
 10
-5.5
 20
22.14
 10
-5.5
 20
22.22
 10
-5.5
 20
22.3
 10
-5.5
 20
22.38
 10
-5.5
 20
22.46
 10
-5.5
 20
22.54
 10
-5.5
 20
22.62
 10
-5.5
 20
22.7
 10
-5.5
 20
22.78
 10
-5.5
 20
22.86
 10
-5.5
 20
22.94
 10
-5.5
 20
23.02
 10
-5.5
 20
23.1
 10
-5.5
 20
23.18
 10
-5.5
 20
23.259999999999998
 10
-5.5
 20
23.34
 10
-5.5
 20
23.42
 10
-5.5
 20
23.5
 10
-5.5
 20
23.58
 10
-5.5
 20
23.66
 10
-5.5
 20
23.740000000000002
 10
-5.5
 20
23.82
 10
-5.5
 20
23.9
 10
-5.5
 20
23.98
 10
-5.5
 20
24.06
 10
-5.5
 20
24.14
 10
-5.5
 20
24.22
 10
-5.5
 20
24.3
 10
-5.5
 20
24.38
 10
-5.5
 20
24.46
 10
-5.5
 20
24.54
 10
-5.5
 20
24.62
 10
-5.5
 20
24.7
 10
-5.5
 20
24.78
 10
-5.5
 20
24.86
 10
-5.5
 20
24.94
 10
-5.5
 20
25.02
 10
-5.5
 20
25.1
 10
-5.5
 20
25.18
 10
-5.5
 20
25.259999999999998
 10
-5.5
 20
25.34
 10
-5.5
 20
25.42
 10
-5.5
 20
25.5
  0
LWPOLYLINE
  5
3C
330
17
100
AcDbEntity
  8
0
100
AcDbPolyline
 90
51
 70
0
 10
4.499999999999503
 20
26.4999999999995
 10
4.519999999999502
 20
26.4799999999995
 10
4.539999999999503
 20
26.4599999999995
 10
4.559999999999503
 20
26.4399999999995
 10
4.579999999999503
 20
26.4199999999995
 10
4.599999999999502
 20
26.3999999999995
 10
4.619999999999502
 20
26.379999999999498
 10
4.639999999999502
 20
26.3599999999995
 10
4.659999999999503
 20
26.3399999999995
 10
4.679999999999502
 20
26.3199999999995
 10
4.699999999999503
 20
26.2999999999995
 10
4.7199999999995015
 20
26.2799999999995
 10
4.739999999999502
 20
26.2599999999995
 10
4.759999999999502
 20
26.239999999999498
 10
4.779999999999502
 20
26.219999999999498
 10
4.799999999999502
 20
26.1999999999995
 10
4.819999999999503
 20
26.1799999999995
 10
4.8399999999995025
 20
26.1599999999995
 10
4.859999999999502
 20
26.1399999999995
 10
4.879999999999502
 20
26.1199999999995
 10
4.899999999999502
 20
26.0999999999995
 10
4.9199999999995025
 20
26.0799999999995
 10
4.939999999999502
 20
26.059999999999498
 10
4.959999999999502
 20
26.039999999999498
 10
4.979999999999503
 20
26.0199999999995
 10
4.999999999999502
 20
25.9999999999995
 10
5.019999999999502
 20
25.9799999999995
 10
5.039999999999502
 20
25.9599999999995
 10
5.059999999999502
 20
25.9399999999995
 10
5.079999999999502
 20
25.919999999999497
 10
5.099999999999502
 20
25.8999999999995
 10
5.119999999999503
 20
25.879999999999498
 10
5.139999999999501
 20
25.8599999999995
 10
5.159999999999502
 20
25.8399999999995
 10
5.179999999999502
 20
25.8199999999995
 10
5.199999999999502
 20
25.7999999999995
 10
5.219999999999502
 20
25.7799999999995
 10
5.239999999999502
 20
25.7599999999995
 10
5.259999999999502
 20
25.739999999999498
 10
5.279999999999502
 20
25.7199999999995
 10
5.299999999999502
 20
25.6999999999995
 10
5.319999999999502
 20
25.6799999999995
 10
5.339999999999502
 20
25.6599999999995
 10
5.359999999999502
 20
25.6399999999995
 10
5.3799999999995025
 20
25.6199999999995
 10
5.399999999999502
 20
25.599999999999497
 10
5.4199999999995025
 20
25.5799999999995
 10
5.439999999999502
 20
25.559999999999498
 10
5.459999999999502
 20
25.539999999999498
 10
5.479999999999502
 20
25.5199999999995
 10
5.499999999999502
 20
25.4999999999995
  0
LWPOLYLINE
  5
3D
330
17
100
AcDbEntity
  8
0
100
AcDbPolyline
 90
51
 70
0
 10
-2.5
 20
-29.0
 10
-2.4824495385272765
 20
-29.0
 10
-2.464899077054553
 20
-29.0
 10
-2.44734861558183
 20
-29.0
 10
-2.4151320671707377
 20
-29.0
 10
-2.3633607361751547
 20
-29.0
 10
-2.311589405179572
 20
-29.0
 10
-2.2598180741839884
 20
-29.0
 10
-2.1809397384954146
 20
-29.0
 10
-2.0975435686913415
 20
-29.0
 10
-2.0141473988872693
 20
-29.0
 10
-1.9229103700482162
 20
-29.0
 10
-1.812071193621708
 20
-29.0
 10
-1.7012320171952011
 20
-29.0
 10
-1.590392840768693
 20
-29.0
 10
-1.4639214732762467
 20
-29.0
 10
-1.3311972293574246
 20
-29.0
 10
-1.1984729854386007
 20
-29.0
 10
-1.063573067277772
 20
-29.0
 10
-0.9156191036649
 20
-29.0
 10
-0.7676651400520302
 20
-29.0
 10
-0.6197111764391605
 20
-29.0
 10
-0.4672939613082604
 20
-29.0
 10
-0.31152930753884117
 20
-29.0
 10
-0.15576465376941973
 20
-29.0
 10
-6.123233995736766e-16
 20
-29.0
 10
0.15576465376941864
 20
-29.0
 10
0.3115293075388401
 20
-29.0
 10
0.46729396130825934
 20
-29.0
 10
0.6197111764391594
 20
-29.0
 10
0.7676651400520291
 20
-29.0
 10
0.915619103664899
 20
-29.0
 10
1.0635730672777708
 20
-29.0
 10
1.1984729854386016
 20
-29.0
 10
1.3311972293574237
 20
-29.0
 10
1.4639214732762458
 20
-29.0
 10
1.590392840768692
 20
-29.0
 10
1.7012320171952005
 20
-29.0
 10
1.812071193621707
 20
-29.0
 10
1.9229103700482153
 20
-29.0
 10
2.0141473988872685
 20
-29.0
 10
2.0975435686913406
 20
-29.0
 10
2.180939738495414
 20
-29.0
 10
2.259818074183988
 20
-29.0
 10
2.3115894051795713
 20
-29.0
 10
2.3633607361751543
 20
-29.0
 10
2.4151320671707373
 20
-29.0
 10
2.4473486155818294
 20
-29.0
 10
2.464899077054553
 20
-29.0
 10
2.4824495385272765
 20
-29.0
 10
2.5
 20
-29.0
  0
LWPOLYLINE
  5
3E
330
17
100
AcDbEntity
  8
0
100
AcDbPolyline
 90
51
 70
0
 10
-2.5
 20
29.0
 10
-2.4824495385272765
 20
29.0
 10
-2.464899077054553
 20
29.0
 10
-2.44734861558183
 20
29.0
 10
-2.4151320671707377
 20
29.0
 10
-2.3633607361751547
 20
29.0
 10
-2.311589405179572
 20
29.0
 10
-2.2598180741839884
 20
29.0
 10
-2.1809397384954146
 20
29.0
 10
-2.0975435686913415
 20
29.0
 10
-2.0141473988872693
 20
29.0
 10
-1.9229103700482162
 20
29.0
 10
-1.812071193621708
 20
29.0
 10
-1.7012320171952011
 20
29.0
 10
-1.590392840768693
 20
29.0
 10
-1.4639214732762467
 20
29.0
 10
-1.3311972293574246
 20
29.0
 10
-1.1984729854386007
 20
29.0
 10
-1.063573067277772
 20
29.0
 10
-0.9156191036649
 20
29.0
 10
-0.7676651400520302
 20
29.0
 10
-0.6197111764391605
 20
29.0
 10
-0.4672939613082604
 20
29.0
 10
-0.31152930753884117
 20
29.0
 10
-0.15576465376941973
 20
29.0
 10
-6.123233995736766e-16
 20
29.0
 10
0.15576465376941864
 20
29.0
 10
0.3115293075388401
 20
29.0
 10
0.46729396130825934
 20
29.0
 10
0.6197111764391594
 20
29.0
 10
0.7676651400520291
 20
29.0
 10
0.915619103664899
 20
29.0
 10
1.0635730672777708
 20
29.0
 10
1.1984729854386016
 20
29.0
 10
1.3311972293574237
 20
29.0
 10
1.4639214732762458
 20
29.0
 10
1.590392840768692
 20
29.0
 10
1.7012320171952005
 20
29.0
 10
1.812071193621707
 20
29.0
 10
1.9229103700482153
 20
29.0
 10
2.0141473988872685
 20
29.0
 10
2.0975435686913406
 20
29.0
 10
2.180939738495414
 20
29.0
 10
2.259818074183988
 20
29.0
 10
2.3115894051795713
 20
29.0
 10
2.3633607361751543
 20
29.0
 10
2.4151320671707373
 20
29.0
 10
2.4473486155818294
 20
29.0
 10
2.464899077054553
 20
29.0
 10
2.4824495385272765
 20
29.0
 10
2.5
 20
29.0
  0
LWPOLYLINE
  5
3F
330
17
100
AcDbEntity
  8
0
100
AcDbPolyline
 90
51
 70
0
 10
-4.5
 20
26.5
 10
-4.468409169349098
 20
26.5
 10
-4.436818338698195
 20
26.5
 10
-4.405227508047293
 20
26.5
 10
-4.347237720907328
 20
26.5
 10
-4.254049325115278
 20
26.5
 10
-4.160860929323229
 20
26.5
 10
-4.067672533531179
 20
26.5
 10
-3.9256915292917465
 20
26.5
 10
-3.775578423644416
 20
26.5
 10
-3.625465317997085
 20
26.5
 10
-3.4612386660867878
 20
26.5
 10
-3.261728148519074
 20
26.5
 10
-3.062217630951362
 20
26.5
 10
-2.8627071133836477
 20
26.5
 10
-2.635058651897243
 20
26.5
 10
-2.396155012843362
 20
26.5
 10
-2.1572513737894807
 20
26.5
 10
-1.914431521099989
 20
26.5
 10
-1.6481143865968213
 20
26.5
 10
-1.381797252093654
 20
26.5
 10
-1.1154801175904863
 20
26.5
 10
-0.841129130354868
 20
26.5
 10
-0.5607527535699135
 20
26.5
 10
-0.28037637678495697
 20
26.5
 10
-5.51091059616309e-16
 20
26.5
 10
0.28037637678495597
 20
26.5
 10
0.5607527535699125
 20
26.5
 10
0.841129130354867
 20
26.5
 10
1.1154801175904874
 20
26.5
 10
1.381797252093653
 20
26.5
 10
1.6481143865968186
 20
26.5
 10
1.914431521099988
 20
26.5
 10
2.1572513737894816
 20
26.5
 10
2.3961550128433626
 20
26.5
 10
2.6350586518972423
 20
26.5
 10
2.8627071133836473
 20
26.5
 10
3.062217630951361
 20
26.5
 10
3.261728148519073
 20
26.5
 10
3.461238666086788
 20
26.5
 10
3.625465317997084
 20
26.5
 10
3.7755784236444137
 20
26.5
 10
3.9256915292917456
 20
26.5
 10
4.067672533531178
 20
26.5
 10
4.160860929323229
 20
26.5
 10
4.254049325115278
 20
26.5
 10
4.347237720907327
 20
26.5
 10
4.405227508047293
 20
26.5
 10
4.436818338698195
 20
26.5
 10
4.468409169349098
 20
26.5
 10
4.5
 20
26.5
  0
LWPOLYLINE
  5
40
330
17
100
AcDbEntity
  8
0
100
AcDbPolyline
 90
51
 70
0
 10
4.5
 20
-26.5
 10
4.468409169349098
 20
-26.5
 10
4.436818338698195
 20
-26.5
 10
4.405227508047293
 20
-26.5
 10
4.347237720907327
 20
-26.5
 10
4.254049325115278
 20
-26.5
 10
4.1608609293232295
 20
-26.5
 10
4.067672533531179
 20
-26.5
 10
3.9256915292917465
 20
-26.5
 10
3.775578423644415
 20
-26.5
 10
3.625465317997085
 20
-26.5
 10
3.461238666086789
 20
-26.5
 10
3.261728148519074
 20
-26.5
 10
3.0622176309513622
 20
-26.5
 10
2.862707113383647
 20
-26.5
 10
2.6350586518972436
 20
-26.5
 10
2.396155012843364
 20
-26.5
 10
2.157251373789481
 20
-26.5
 10
1.9144315210999896
 20
-26.5
 10
1.6481143865968202
 20
-26.5
 10
1.3817972520936546
 20
-26.5
 10
1.1154801175904887
 20
-26.5
 10
0.8411291303548687
 20
-26.5
 10
0.5607527535699142
 20
-26.5
 10
0.28037637678495564
 20
-26.5
 10
1.102182119232618e-15
 20
-26.5
 10
-0.2803763767849534
 20
-26.5
 10
-0.5607527535699119
 20
-26.5
 10
-0.8411291303548665
 20
-26.5
 10
-1.1154801175904867
 20
-26.5
 10
-1.3817972520936526
 20
-26.5
 10
-1.6481143865968182
 20
-26.5
 10
-1.9144315210999876
 20
-26.5
 10
-2.157251373789483
 20
-26.5
 10
-2.3961550128433626
 20
-26.5
 10
-2.6350586518972423
 20
-26.5
 10
-2.8627071133836455
 20
-26.5
 10
-3.0622176309513605
 20
-26.5
 10
-3.261728148519073
 20
-26.5
 10
-3.4612386660867878
 20
-26.5
 10
-3.6254653179970835
 20
-26.5
 10
-3.7755784236444137
 20
-26.5
 10
-3.9256915292917456
 20
-26.5
 10
-4.067672533531178
 20
-26.5
 10
-4.160860929323229
 20
-26.5
 10
-4.254049325115277
 20
-26.5
 10
-4.3472377209073265
 20
-26.5
 10
-4.405227508047292
 20
-26.5
 10
-4.4368183386981945
 20
-26.5
 10
-4.468409169349098
 20
-26.5
 10
-4.5
 20
-26.5
  0
LWPOLYLINE
  5
41
330
17
100
AcDbEntity
  8
0
100
AcDbPolyline
 90
51
 70
0
 10
5.5
 20
-25.5
 10
5.461388984760008
 20
-25.5
 10
5.422777969520016
 20
-25.5
 10
5.384166954280025
 20
-25.5
 10
5.3132905477756225
 20
-25.5
 10
5.19939361958534
 20
-25.5
 10
5.085496691395058
 20
-25.5
 10
4.971599763204774
 20
-25.5
 10
4.798067424689912
 20
-25.5
 10
4.614595851120951
 20
-25.5
 10
4.431124277551993
 20
-25.5
 10
4.230402814106076
 20
-25.5
 10
3.986556625967757
 20
-25.5
 10
3.7427104378294427
 20
-25.5
 10
3.4988642496911244
 20
-25.5
 10
3.220627241207742
 20
-25.5
 10
2.928633904586334
 20
-25.5
 10
2.636640567964921
 20
-25.5
 10
2.3398607480110982
 20
-25.5
 10
2.01436202806278
 20
-25.5
 10
1.6888633081144668
 20
-25.5
 10
1.3633645881661531
 20
-25.5
 10
1.028046714878173
 20
-25.5
 10
0.6853644765854507
 20
-25.5
 10
0.3426822382927235
 20
-25.5
 10
1.3471114790620886e-15
 20
-25.5
 10
-0.34268223829272093
 20
-25.5
 10
-0.6853644765854481
 20
-25.5
 10
-1.0280467148781702
 20
-25.5
 10
-1.3633645881661505
 20
-25.5
 10
-1.6888633081144642
 20
-25.5
 10
-2.0143620280627776
 20
-25.5
 10
-2.339860748011096
 20
-25.5
 10
-2.6366405679649234
 20
-25.5
 10
-2.928633904586332
 20
-25.5
 10
-3.220627241207741
 20
-25.5
 10
-3.4988642496911226
 20
-25.5
 10
-3.742710437829441
 20
-25.5
 10
-3.986556625967755
 20
-25.5
 10
-4.230402814106074
 20
-25.5
 10
-4.431124277551991
 20
-25.5
 10
-4.614595851120949
 20
-25.5
 10
-4.798067424689911
 20
-25.5
 10
-4.9715997632047735
 20
-25.5
 10
-5.085496691395058
 20
-25.5
 10
-5.19939361958534
 20
-25.5
 10
-5.3132905477756225
 20
-25.5
 10
-5.384166954280025
 20
-25.5
 10
-5.422777969520016
 20
-25.5
 10
-5.461388984760009
 20
-25.5
 10
-5.5
 20
-25.5
  0
LWPOLYLINE
  5
42
330
17
100
AcDbEntity
  8
0
100
AcDbPolyline
 90
51
 70
0
 10
-5.499999999999501
 20
-25.4999999999995
 10
-5.479999999999501
 20
-25.5199999999995
 10
-5.459999999999501
 20
-25.5399999999995
 10
-5.4399999999995
 20
-25.5599999999995
 10
-5.419999999999501
 20
-25.5799999999995
 10
-5.399999999999501
 20
-25.5999999999995
 10
-5.379999999999501
 20
-25.6199999999995
 10
-5.359999999999501
 20
-25.6399999999995
 10
-5.339999999999501
 20
-25.6599999999995
 10
-5.319999999999501
 20
-25.6799999999995
 10
-5.299999999999501
 20
-25.6999999999995
 10
-5.279999999999501
 20
-25.7199999999995
 10
-5.259999999999501
 20
-25.7399999999995
 10
-5.239999999999501
 20
-25.7599999999995
 10
-5.219999999999501
 20
-25.7799999999995
 10
-5.199999999999501
 20
-25.7999999999995
 10
-5.179999999999501
 20
-25.8199999999995
 10
-5.159999999999501
 20
-25.8399999999995
 10
-5.1399999999995005
 20
-25.8599999999995
 10
-5.119999999999501
 20
-25.8799999999995
 10
-5.0999999999995005
 20
-25.8999999999995
 10
-5.079999999999501
 20
-25.9199999999995
 10
-5.059999999999501
 20
-25.9399999999995
 10
-5.039999999999501
 20
-25.9599999999995
 10
-5.019999999999501
 20
-25.9799999999995
 10
-4.999999999999501
 20
-25.9999999999995
 10
-4.979999999999501
 20
-26.0199999999995
 10
-4.959999999999501
 20
-26.039999999999498
 10
-4.939999999999501
 20
-26.0599999999995
 10
-4.919999999999501
 20
-26.0799999999995
 10
-4.899999999999501
 20
-26.0999999999995
 10
-4.879999999999501
 20
-26.1199999999995
 10
-4.859999999999501
 20
-26.1399999999995
 10
-4.839999999999501
 20
-26.1599999999995
 10
-4.819999999999501
 20
-26.1799999999995
 10
-4.799999999999501
 20
-26.1999999999995
 10
-4.779999999999501
 20
-26.2199999999995
 10
-4.759999999999501
 20
-26.2399999999995
 10
-4.739999999999501
 20
-26.2599999999995
 10
-4.7199999999995015
 20
-26.2799999999995
 10
-4.699999999999501
 20
-26.2999999999995
 10
-4.679999999999501
 20
-26.3199999999995
 10
-4.659999999999501
 20
-26.3399999999995
 10
-4.639999999999501
 20
-26.3599999999995
 10
-4.619999999999501
 20
-26.379999999999498
 10
-4.599999999999501
 20
-26.3999999999995
 10
-4.579999999999501
 20
-26.4199999999995
 10
-4.559999999999501
 20
-26.4399999999995
 10
-4.539999999999501
 20
-26.4599999999995
 10
-4.519999999999501
 20
-26.4799999999995
 10
-4.499999999999501
 20
-26.4999999999995
  0
LWPOLYLINE
  5
43
330
17
100
AcDbEntity
  8
0
100
AcDbPolyline
 90
51
 70
0
 10
-5.5
 20
-21.5
 10
-5.461388984760008
 20
-21.5
 10
-5.422777969520016
 20
-21.5
 10
-5.384166954280025
 20
-21.5
 10
-5.3132905477756225
 20
-21.5
 10
-5.19939361958534
 20
-21.5
 10
-5.085496691395058
 20
-21.5
 10
-4.971599763204774
 20
-21.5
 10
-4.798067424689912
 20
-21.5
 10
-4.614595851120951
 20
-21.5
 10
-4.431124277551993
 20
-21.5
 10
-4.230402814106076
 20
-21.5
 10
-3.986556625967757
 20
-21.5
 10
-3.7427104378294427
 20
-21.5
 10
-3.4988642496911244
 20
-21.5
 10
-3.220627241207742
 20
-21.5
 10
-2.928633904586334
 20
-21.5
 10
-2.636640567964921
 20
-21.5
 10
-2.3398607480110982
 20
-21.5
 10
-2.01436202806278
 20
-21.5
 10
-1.6888633081144668
 20
-21.5
 10
-1.3633645881661531
 20
-21.5
 10
-1.028046714878173
 20
-21.5
 10
-0.6853644765854507
 20
-21.5
 10
-0.3426822382927235
 20
-21.5
 10
-1.3471114790620886e-15
 20
-21.5
 10
0.34268223829272093
 20
-21.5
 10
0.6853644765854481
 20
-21.5
 10
1.0280467148781702
 20
-21.5
 10
1.3633645881661505
 20
-21.5
 10
1.6888633081144642
 20
-21.5
 10
2.0143620280627776
 20
-21.5
 10
2.339860748011096
 20
-21.5
 10
2.6366405679649234
 20
-21.5
 10
2.928633904586332
 20
-21.5
 10
3.220627241207741
 20
-21.5
 10
3.4988642496911226
 20
-21.5
 10
3.742710437829441
 20
-21.5
 10
3.986556625967755
 20
-21.5
 10
4.230402814106074
 20
-21.5
 10
4.431124277551991
 20
-21.5
 10
4.614595851120949
 20
-21.5
 10
4.798067424689911
 20
-21.5
 10
4.9715997632047735
 20
-21.5
 10
5.085496691395058
 20
-21.5
 10
5.19939361958534
 20
-21.5
 10
5.3132905477756225
 20
-21.5
 10
5.384166954280025
 20
-21.5
 10
5.422777969520016
 20
-21.5
 10
5.461388984760009
 20
-21.5
 10
5.5
 20
-21.5
  0
LWPOLYLINE
  5
44
330
17
100
AcDbEntity
  8
0
100
AcDbPolyline
 90
51
 70
0
 10
-5.499999999999501
 20
-21.5000000000005
 10
-5.479999999999501
 20
-21.4800000000005
 10
-5.459999999999501
 20
-21.4600000000005
 10
-5.4399999999995
 20
-21.4400000000005
 10
-5.419999999999501
 20
-21.4200000000005
 10
-5.399999999999501
 20
-21.4000000000005
 10
-5.379999999999501
 20
-21.3800000000005
 10
-5.359999999999501
 20
-21.3600000000005
 10
-5.339999999999501
 20
-21.3400000000005
 10
-5.319999999999501
 20
-21.3200000000005
 10
-5.299999999999501
 20
-21.3000000000005
 10
-5.279999999999501
 20
-21.2800000000005
 10
-5.259999999999501
 20
-21.2600000000005
 10
-5.239999999999501
 20
-21.2400000000005
 10
-5.219999999999501
 20
-21.2200000000005
 10
-5.199999999999501
 20
-21.2000000000005
 10
-5.179999999999501
 20
-21.1800000000005
 10
-5.159999999999501
 20
-21.1600000000005
 10
-5.1399999999995005
 20
-21.1400000000005
 10
-5.119999999999501
 20
-21.1200000000005
 10
-5.0999999999995005
 20
-21.1000000000005
 10
-5.079999999999501
 20
-21.0800000000005
 10
-5.059999999999501
 20
-21.0600000000005
 10
-5.039999999999501
 20
-21.0400000000005
 10
-5.019999999999501
 20
-21.0200000000005
 10
-4.999999999999501
 20
-21.0000000000005
 10
-4.979999999999501
 20
-20.9800000000005
 10
-4.959999999999501
 20
-20.960000000000502
 10
-4.939999999999501
 20
-20.9400000000005
 10
-4.919999999999501
 20
-20.9200000000005
 10
-4.899999999999501
 20
-20.9000000000005
 10
-4.879999999999501
 20
-20.8800000000005
 10
-4.859999999999501
 20
-20.8600000000005
 10
-4.839999999999501
 20
-20.8400000000005
 10
-4.819999999999501
 20
-20.8200000000005
 10
-4.799999999999501
 20
-20.8000000000005
 10
-4.779999999999501
 20
-20.7800000000005
 10
-4.759999999999501
 20
-20.7600000000005
 10
-4.739999999999501
 20
-20.7400000000005
 10
-4.7199999999995015
 20
-20.7200000000005
 10
-4.699999999999501
 20
-20.7000000000005
 10
-4.679999999999501
 20
-20.6800000000005
 10
-4.659999999999501
 20
-20.6600000000005
 10
-4.639999999999501
 20
-20.6400000000005
 10
-4.619999999999501
 20
-20.620000000000502
 10
-4.599999999999501
 20
-20.6000000000005
 10
-4.579999999999501
 20
-20.5800000000005
 10
-4.559999999999501
 20
-20.5600000000005
 10
-4.539999999999501
 20
-20.5400000000005
 10
-4.519999999999501
 20
-20.5200000000005
 10
-4.499999999999501
 20
-20.5000000000005
  0
LWPOLYLINE
  5
45
330
17
100
AcDbEntity
  8
0
100
AcDbPolyline
 90
51
 70
0
 10
-4.5
 20
-20.5
 10
-4.468409169349098
 20
-20.5
 10
-4.436818338698195
 20
-20.5
 10
-4.405227508047293
 20
-20.5
 10
-4.347237720907328
 20
-20.5
 10
-4.254049325115278
 20
-20.5
 10
-4.160860929323229
 20
-20.5
 10
-4.067672533531179
 20
-20.5
 10
-3.9256915292917465
 20
-20.5
 10
-3.775578423644416
 20
-20.5
 10
-3.625465317997085
 20
-20.5
 10
-3.4612386660867878
 20
-20.5
 10
-3.261728148519074
 20
-20.5
 10
-3.062217630951362
 20
-20.5
 10
-2.8627071133836477
 20
-20.5
 10
-2.635058651897243
 20
-20.5
 10
-2.396155012843362
 20
-20.5
 10
-2.1572513737894807
 20
-20.5
 10
-1.914431521099989
 20
-20.5
 10
-1.6481143865968213
 20
-20.5
 10
-1.381797252093654
 20
-20.5
 10
-1.1154801175904863
 20
-20.5
 10
-0.841129130354868
 20
-20.5
 10
-0.5607527535699135
 20
-20.5
 10
-0.28037637678495697
 20
-20.5
 10
-5.51091059616309e-16
 20
-20.5
 10
0.28037637678495597
 20
-20.5
 10
0.5607527535699125
 20
-20.5
 10
0.841129130354867
 20
-20.5
 10
1.1154801175904874
 20
-20.5
 10
1.381797252093653
 20
-20.5
 10
1.6481143865968186
 20
-20.5
 10
1.914431521099988
 20
-20.5
 10
2.1572513737894816
 20
-20.5
 10
2.3961550128433626
 20
-20.5
 10
2.6350586518972423
 20
-20.5
 10
2.8627071133836473
 20
-20.5
 10
3.062217630951361
 20
-20.5
 10
3.261728148519073
 20
-20.5
 10
3.461238666086788
 20
-20.5
 10
3.625465317997084
 20
-20.5
 10
3.7755784236444137
 20
-20.5
 10
3.9256915292917456
 20
-20.5
 10
4.067672533531178
 20
-20.5
 10
4.160860929323229
 20
-20.5
 10
4.254049325115278
 20
-20.5
 10
4.347237720907327
 20
-20.5
 10
4.405227508047293
 20
-20.5
 10
4.436818338698195
 20
-20.5
 10
4.468409169349098
 20
-20.5
 10
4.5
 20
-20.5
  0
LWPOLYLINE
  5
46
330
17
100
AcDbEntity
  8
0
100
AcDbPolyline
 90
51
 70
0
 10
4.5
 20
20.5
 10
4.468409169349098
 20
20.5
 10
4.436818338698195
 20
20.5
 10
4.405227508047293
 20
20.5
 10
4.347237720907327
 20
20.5
 10
4.254049325115278
 20
20.5
 10
4.1608609293232295
 20
20.5
 10
4.067672533531179
 20
20.5
 10
3.9256915292917465
 20
20.5
 10
3.775578423644415
 20
20.5
 10
3.625465317997085
 20
20.5
 10
3.461238666086789
 20
20.5
 10
3.261728148519074
 20
20.5
 10
3.0622176309513622
 20
20.5
 10
2.862707113383647
 20
20.5
 10
2.6350586518972436
 20
20.5
 10
2.396155012843364
 20
20.5
 10
2.157251373789481
 20
20.5
 10
1.9144315210999896
 20
20.5
 10
1.6481143865968202
 20
20.5
 10
1.3817972520936546
 20
20.5
 10
1.1154801175904887
 20
20.5
 10
0.8411291303548687
 20
20.5
 10
0.5607527535699142
 20
20.5
 10
0.28037637678495564
 20
20.5
 10
1.102182119232618e-15
 20
20.5
 10
-0.2803763767849534
 20
20.5
 10
-0.5607527535699119
 20
20.5
 10
-0.8411291303548665
 20
20.5
 10
-1.1154801175904867
 20
20.5
 10
-1.3817972520936526
 20
20.5
 10
-1.6481143865968182
 20
20.5
 10
-1.9144315210999876
 20
20.5
 10
-2.157251373789483
 20
20.5
 10
-2.3961550128433626
 20
20.5
 10
-2.6350586518972423
 20
20.5
 10
-2.8627071133836455
 20
20.5
 10
-3.0622176309513605
 20
20.5
 10
-3.261728148519073
 20
20.5
 10
-3.4612386660867878
 20
20.5
 10
-3.6254653179970835
 20
20.5
 10
-3.7755784236444137
 20
20.5
 10
-3.9256915292917456
 20
20.5
 10
-4.067672533531178
 20
20.5
 10
-4.160860929323229
 20
20.5
 10
-4.254049325115277
 20
20.5
 10
-4.3472377209073265
 20
20.5
 10
-4.405227508047292
 20
20.5
 10
-4.4368183386981945
 20
20.5
 10
-4.468409169349098
 20
20.5
 10
-4.5
 20
20.5
  0
LWPOLYLINE
  5
47
330
17
100
AcDbEntity
  8
0
100
AcDbPolyline
 90
51
 70
0
 10
5.5
 20
21.5
 10
5.461388984760008
 20
21.5
 10
5.422777969520016
 20
21.5
 10
5.384166954280025
 20
21.5
 10
5.3132905477756225
 20
21.5
 10
5.19939361958534
 20
21.5
 10
5.085496691395058
 20
21.5
 10
4.971599763204774
 20
21.5
 10
4.798067424689912
 20
21.5
 10
4.614595851120951
 20
21.5
 10
4.431124277551993
 20
21.5
 10
4.230402814106076
 20
21.5
 10
3.986556625967757
 20
21.5
 10
3.7427104378294427
 20
21.5
 10
3.4988642496911244
 20
21.5
 10
3.220627241207742
 20
21.5
 10
2.928633904586334
 20
21.5
 10
2.636640567964921
 20
21.5
 10
2.3398607480110982
 20
21.5
 10
2.01436202806278
 20
21.5
 10
1.6888633081144668
 20
21.5
 10
1.3633645881661531
 20
21.5
 10
1.028046714878173
 20
21.5
 10
0.6853644765854507
 20
21.5
 10
0.3426822382927235
 20
21.5
 10
1.3471114790620886e-15
 20
21.5
 10
-0.34268223829272093
 20
21.5
 10
-0.6853644765854481
 20
21.5
 10
-1.0280467148781702
 20
21.5
 10
-1.3633645881661505
 20
21.5
 10
-1.6888633081144642
 20
21.5
 10
-2.0143620280627776
 20
21.5
 10
-2.339860748011096
 20
21.5
 10
-2.6366405679649234
 20
21.5
 10
-2.928633904586332
 20
21.5
 10
-3.220627241207741
 20
21.5
 10
-3.4988642496911226
 20
21.5
 10
-3.742710437829441
 20
21.5
 10
-3.986556625967755
 20
21.5
 10
-4.230402814106074
 20
21.5
 10
-4.431124277551991
 20
21.5
 10
-4.614595851120949
 20
21.5
 10
-4.798067424689911
 20
21.5
 10
-4.9715997632047735
 20
21.5
 10
-5.085496691395058
 20
21.5
 10
-5.19939361958534
 20
21.5
 10
-5.3132905477756225
 20
21.5
 10
-5.384166954280025
 20
21.5
 10
-5.422777969520016
 20
21.5
 10
-5.461388984760009
 20
21.5
 10
-5.5
 20
21.5
  0
LWPOLYLINE
  5
48
330
17
100
AcDbEntity
  8
0
100
AcDbPolyline
 90
51
 70
0
 10
-5.499999999999501
 20
21.5000000000005
 10
-5.479999999999501
 20
21.4800000000005
 10
-5.459999999999501
 20
21.4600000000005
 10
-5.4399999999995
 20
21.4400000000005
 10
-5.419999999999501
 20
21.4200000000005
 10
-5.399999999999501
 20
21.4000000000005
 10
-5.379999999999501
 20
21.3800000000005
 10
-5.359999999999501
 20
21.3600000000005
 10
-5.339999999999501
 20
21.3400000000005
 10
-5.319999999999501
 20
21.3200000000005
 10
-5.299999999999501
 20
21.3000000000005
 10
-5.279999999999501
 20
21.2800000000005
 10
-5.259999999999501
 20
21.2600000000005
 10
-5.239999999999501
 20
21.2400000000005
 10
-5.219999999999501
 20
21.2200000000005
 10
-5.199999999999501
 20
21.2000000000005
 10
-5.179999999999501
 20
21.1800000000005
 10
-5.159999999999501
 20
21.1600000000005
 10
-5.1399999999995005
 20
21.1400000000005
 10
-5.119999999999501
 20
21.1200000000005
 10
-5.0999999999995005
 20
21.1000000000005
 10
-5.079999999999501
 20
21.0800000000005
 10
-5.059999999999501
 20
21.0600000000005
 10
-5.039999999999501
 20
21.0400000000005
 10
-5.019999999999501
 20
21.0200000000005
 10
-4.999999999999501
 20
21.0000000000005
 10
-4.979999999999501
 20
20.9800000000005
 10
-4.959999999999501
 20
20.960000000000502
 10
-4.939999999999501
 20
20.9400000000005
 10
-4.919999999999501
 20
20.9200000000005
 10
-4.899999999999501
 20
20.9000000000005
 10
-4.879999999999501
 20
20.8800000000005
 10
-4.859999999999501
 20
20.8600000000005
 10
-4.839999999999501
 20
20.8400000000005
 10
-4.819999999999501
 20
20.8200000000005
 10
-4.799999999999501
 20
20.8000000000005
 10
-4.779999999999501
 20
20.7800000000005
 10
-4.759999999999501
 20
20.7600000000005
 10
-4.739999999999501
 20
20.7400000000005
 10
-4.7199999999995015
 20
20.7200000000005
 10
-4.699999999999501
 20
20.7000000000005
 10
-4.679999999999501
 20
20.6800000000005
 10
-4.659999999999501
 20
20.6600000000005
 10
-4.639999999999501
 20
20.6400000000005
 10
-4.619999999999501
 20
20.620000000000502
 10
-4.599999999999501
 20
20.6000000000005
 10
-4.579999999999501
 20
20.5800000000005
 10
-4.559999999999501
 20
20.5600000000005
 10
-4.539999999999501
 20
20.5400000000005
 10
-4.519999999999501
 20
20.5200000000005
 10
-4.499999999999501
 20
20.5000000000005
  0
LWPOLYLINE
  5
49
330
17
100
AcDbEntity
  8
0
100
AcDbPolyline
 90
51
 70
0
 10
-5.5
 20
25.5
 10
-5.461388984760008
 20
25.5
 10
-5.422777969520016
 20
25.5
 10
-5.384166954280025
 20
25.5
 10
-5.3132905477756225
 20
25.5
 10
-5.19939361958534
 20
25.5
 10
-5.085496691395058
 20
25.5
 10
-4.971599763204774
 20
25.5
 10
-4.798067424689912
 20
25.5
 10
-4.614595851120951
 20
25.5
 10
-4.431124277551993
 20
25.5
 10
-4.230402814106076
 20
25.5
 10
-3.986556625967757
 20
25.5
 10
-3.7427104378294427
 20
25.5
 10
-3.4988642496911244
 20
25.5
 10
-3.220627241207742
 20
25.5
 10
-2.928633904586334
 20
25.5
 10
-2.636640567964921
 20
25.5
 10
-2.3398607480110982
 20
25.5
 10
-2.01436202806278
 20
25.5
 10
-1.6888633081144668
 20
25.5
 10
-1.3633645881661531
 20
25.5
 10
-1.028046714878173
 20
25.5
 10
-0.6853644765854507
 20
25.5
 10
-0.3426822382927235
 20
25.5
 10
-1.3471114790620886e-15
 20
25.5
 10
0.34268223829272093
 20
25.5
 10
0.6853644765854481
 20
25.5
 10
1.0280467148781702
 20
25.5
 10
1.3633645881661505
 20
25.5
 10
1.6888633081144642
 20
25.5
 10
2.0143620280627776
 20
25.5
 10
2.339860748011096
 20
25.5
 10
2.6366405679649234
 20
25.5
 10
2.928633904586332
 20
25.5
 10
3.220627241207741
 20
25.5
 10
3.4988642496911226
 20
25.5
 10
3.742710437829441
 20
25.5
 10
3.986556625967755
 20
25.5
 10
4.230402814106074
 20
25.5
 10
4.431124277551991
 20
25.5
 10
4.614595851120949
 20
25.5
 10
4.798067424689911
 20
25.5
 10
4.9715997632047735
 20
25.5
 10
5.085496691395058
 20
25.5
 10
5.19939361958534
 20
25.5
 10
5.3132905477756225
 20
25.5
 10
5.384166954280025
 20
25.5
 10
5.422777969520016
 20
25.5
 10
5.461388984760009
 20
25.5
 10
5.5
 20
25.5
  0
LWPOLYLINE
  5
4A
330
17
100
AcDbEntity
  8
0
100
AcDbPolyline
 90
51
 70
0
 10
-5.499999999999501
 20
25.4999999999995
 10
-5.479999999999501
 20
25.5199999999995
 10
-5.459999999999501
 20
25.5399999999995
 10
-5.4399999999995
 20
25.5599999999995
 10
-5.419999999999501
 20
25.5799999999995
 10
-5.399999999999501
 20
25.5999999999995
 10
-5.379999999999501
 20
25.6199999999995
 10
-5.359999999999501
 20
25.6399999999995
 10
-5.339999999999501
 20
25.6599999999995
 10
-5.319999999999501
 20
25.6799999999995
 10
-5.299999999999501
 20
25.6999999999995
 10
-5.279999999999501
 20
25.7199999999995
 10
-5.259999999999501
 20
25.7399999999995
 10
-5.239999999999501
 20
25.7599999999995
 10
-5.219999999999501
 20
25.7799999999995
 10
-5.199999999999501
 20
25.7999999999995
 10
-5.179999999999501
 20
25.8199999999995
 10
-5.159999999999501
 20
25.8399999999995
 10
-5.1399999999995005
 20
25.8599999999995
 10
-5.119999999999501
 20
25.8799999999995
 10
-5.0999999999995005
 20
25.8999999999995
 10
-5.079999999999501
 20
25.9199999999995
 10
-5.059999999999501
 20
25.9399999999995
 10
-5.039999999999501
 20
25.9599999999995
 10
-5.019999999999501
 20
25.9799999999995
 10
-4.999999999999501
 20
25.9999999999995
 10
-4.979999999999501
 20
26.0199999999995
 10
-4.959999999999501
 20
26.039999999999498
 10
-4.939999999999501
 20
26.0599999999995
 10
-4.919999999999501
 20
26.0799999999995
 10
-4.899999999999501
 20
26.0999999999995
 10
-4.879999999999501
 20
26.1199999999995
 10
-4.859999999999501
 20
26.1399999999995
 10
-4.839999999999501
 20
26.1599999999995
 10
-4.819999999999501
 20
26.1799999999995
 10
-4.799999999999501
 20
26.1999999999995
 10
-4.779999999999501
 20
26.2199999999995
 10
-4.759999999999501
 20
26.2399999999995
 10
-4.739999999999501
 20
26.2599999999995
 10
-4.7199999999995015
 20
26.2799999999995
 10
-4.699999999999501
 20
26.2999999999995
 10
-4.679999999999501
 20
26.3199999999995
 10
-4.659999999999501
 20
26.3399999999995
 10
-4.639999999999501
 20
26.3599999999995
 10
-4.619999999999501
 20
26.379999999999498
 10
-4.599999999999501
 20
26.3999999999995
 10
-4.579999999999501
 20
26.4199999999995
 10
-4.559999999999501
 20
26.4399999999995
 10
-4.539999999999501
 20
26.4599999999995
 10
-4.519999999999501
 20
26.4799999999995
 10
-4.499999999999501
 20
26.4999999999995
  0
ENDSEC
  0
SECTION
  2
OBJECTS
  0
DICTIONARY
  5
A
330
0
100
AcDbDictionary
280
0
281
1
  3
ACAD_COLOR
350
B
  3
ACAD_GROUP
350
C
  3
ACAD_LAYOUT
350
D
  3
ACAD_MATERIAL
350
E
  3
ACAD_MLEADERSTYLE
350
F
  3
ACAD_MLINESTYLE
350
10
  3
ACAD_PLOTSETTINGS
350
11
  3
ACAD_PLOTSTYLENAME
350
12
  3
ACAD_SCALELIST
350
14
  3
ACAD_TABLESTYLE
350
15
  3
ACAD_VISUALSTYLE
350
16
  3
EZDXF_META
350
2D
  0
DICTIONARY
  5
B
330
A
100
AcDbDictionary
280
0
281
1
  0
DICTIONARY
  5
C
330
A
100
AcDbDictionary
280
0
281
1
  0
DICTIONARY
  5
D
330
A
100
AcDbDictionary
280
0
281
1
  3
Model
350
1A
  3
Layout1
350
1E
  0
DICTIONARY
  5
E
330
A
100
AcDbDictionary
280
0
281
1
  3
ByBlock
350
1F
  3
ByLayer
350
20
  3
Global
350
21
  0
DICTIONARY
  5
F
330
A
100
AcDbDictionary
280
0
281
1
  3
Standard
350
2C
  0
DICTIONARY
  5
10
330
A
100
AcDbDictionary
280
0
281
1
  3
Standard
350
22
  0
DICTIONARY
  5
11
330
A
100
AcDbDictionary
280
0
281
1
  0
ACDBDICTIONARYWDFLT
  5
12
330
A
100
AcDbDictionary
280
0
281
1
  3
Normal
350
13
100
AcDbDictionaryWithDefault
340
13
  0
ACDBPLACEHOLDER
  5
13
330
12
  0
DICTIONARY
  5
14
330
A
100
AcDbDictionary
280
0
281
1
  0
DICTIONARY
  5
15
330
A
100
AcDbDictionary
280
0
281
1
  0
DICTIONARY
  5
16
330
A
100
AcDbDictionary
280
0
281
1
  0
LAYOUT
  5
1A
330
D
100
AcDbPlotSettings
  1

  2
Adobe PDF
  4
A3
  6

 40
7.5
 41
20.0
 42
7.5
 43
20.0
 44
420.0
 45
297.0
 46
0.0
 47
0.0
 48
0.0
 49
0.0
140
0.0
141
0.0
142
1.0
143
1.0
 70
1024
 72
1
 73
0
 74
5
  7

 75
16
 76
0
 77
2
 78
300
147
1.0
148
0.0
149
0.0
100
AcDbLayout
  1
Model
 70
1
 71
0
 10
0.0
 20
0.0
 11
420.0
 21
297.0
 12
0.0
 22
0.0
 32
0.0
 14
1e+20
 24
1e+20
 34
1e+20
 15
-1e+20
 25
-1e+20
 35
-1e+20
146
0.0
 13
0.0
 23
0.0
 33
0.0
 16
1.0
 26
0.0
 36
0.0
 17
0.0
 27
1.0
 37
0.0
 76
1
330
17
  0
LAYOUT
  5
1E
330
D
100
AcDbPlotSettings
  1

  2
Adobe PDF
  4
A3
  6

 40
7.5
 41
20.0
 42
7.5
 43
20.0
 44
420.0
 45
297.0
 46
0.0
 47
0.0
 48
0.0
 49
0.0
140
0.0
141
0.0
142
1.0
143
1.0
 70
0
 72
1
 73
0
 74
5
  7

 75
16
 76
0
 77
2
 78
300
147
1.0
148
0.0
149
0.0
100
AcDbLayout
  1
Layout1
 70
1
 71
1
 10
0.0
 20
0.0
 11
420.0
 21
297.0
 12
0.0
 22
0.0
 32
0.0
 14
1e+20
 24
1e+20
 34
1e+20
 15
-1e+20
 25
-1e+20
 35
-1e+20
146
0.0
 13
0.0
 23
0.0
 33
0.0
 16
1.0
 26
0.0
 36
0.0
 17
0.0
 27
1.0
 37
0.0
 76
1
330
1B
  0
MATERIAL
  5
1F
102
{ACAD_REACTORS
330
E
102
}
330
E
100
AcDbMaterial
  1
ByBlock
  2

 70
0
 40
1.0
 71
1
 41
1.0
 91
-1023410177
 42
1.0
 72
1
  3

 73
1
 74
1
 75
1
 44
0.5
 73
0
 45
1.0
 46
1.0
 77
1
  4

 78
1
 79
1
170
1
 48
1.0
171
1
  6

172
1
173
1
174
1
140
1.0
141
1.0
175
1
  7

176
1
177
1
178
1
143
1.0
179
1
  8

270
1
271
1
272
1
145
1.0
146
1.0
273
1
  9

274
1
275
1
276
1
 42
1.0
 72
1
  3

 73
1
 74
1
 75
1
 94
63
  0
MATERIAL
  5
20
102
{ACAD_REACTORS
330
E
102
}
330
E
100
AcDbMaterial
  1
ByLayer
  2

 70
0
 40
1.0
 71
1
 41
1.0
 91
-1023410177
 42
1.0
 72
1
  3

 73
1
 74
1
 75
1
 44
0.5
 73
0
 45
1.0
 46
1.0
 77
1
  4

 78
1
 79
1
170
1
 48
1.0
171
1
  6

172
1
173
1
174
1
140
1.0
141
1.0
175
1
  7

176
1
177
1
178
1
143
1.0
179
1
  8

270
1
271
1
272
1
145
1.0
146
1.0
273
1
  9

274
1
275
1
276
1
 42
1.0
 72
1
  3

 73
1
 74
1
 75
1
 94
63
  0
MATERIAL
  5
21
102
{ACAD_REACTORS
330
E
102
}
330
E
100
AcDbMaterial
  1
Global
  2

 70
0
 40
1.0
 71
1
 41
1.0
 91
-1023410177
 42
1.0
 72
1
  3

 73
1
 74
1
 75
1
 44
0.5
 73
0
 45
1.0
 46
1.0
 77
1
  4

 78
1
 79
1
170
1
 48
1.0
171
1
  6

172
1
173
1
174
1
140
1.0
141
1.0
175
1
  7

176
1
177
1
178
1
143
1.0
179
1
  8

270
1
271
1
272
1
145
1.0
146
1.0
273
1
  9

274
1
275
1
276
1
 42
1.0
 72
1
  3

 73
1
 74
1
 75
1
 94
63
  0
MLINESTYLE
  5
22
102
{ACAD_REACTORS
330
10
102
}
330
10
100
AcDbMlineStyle
  2
Standard
 70
0
  3

 62
256
 51
90.0
 52
90.0
 71
2
 49
0.5
 62
256
  6
BYLAYER
 49
-0.5
 62
256
  6
BYLAYER
  0
MLEADERSTYLE
  5
2C
102
{ACAD_REACTORS
330
F
102
}
330
F
100
AcDbMLeaderStyle
179
2
170
2
171
1
172
0
 90
2
 40
0.0
 41
0.0
173
1
 91
-1056964608
 92
-2
290
1
 42
2.0
291
1
 43
8.0
  3
Standard
 44
4.0
300

342
29
174
1
175
1
176
0
178
1
 93
-1056964608
 45
4.0
292
0
297
0
 46
4.0
 94
-1056964608
 47
1.0
 49
1.0
140
1.0
294
1
141
0.0
177
0
142
1.0
295
0
296
0
143
3.75
271
0
272
9
273
9
  0
DICTIONARY
  5
2D
330
A
100
AcDbDictionary
281
1
  3
CREATED_BY_EZDXF
350
2E
  3
WRITTEN_BY_EZDXF
350
4D
  0
DICTIONARYVAR
  5
2E
330
2D
100
DictionaryVariables
280
0
  1
1.0.3 @ 2025-05-29T09:41:26.465693+00:00
  0
DICTIONARYVAR
  5
4D
330
2D
100
DictionaryVariables
280
0
  1
1.0.3 @ 2025-05-29T09:41:26.473365+00:00
  0
ENDSEC
  0
EOF
