  0
SECTION
  2
HEADER
  9
$ACADVER
  1
AC1027
  9
$ACADMAINTVER
 70
105
  9
$DWGCODEPAGE
  3
ANSI_1252
  9
$LASTSAVEDBY
  1
ezdxf
  9
$REQUIREDVERSIONS
160
0
  9
$INSBASE
 10
0.0
 20
0.0
 30
0.0
  9
$EXTMIN
 10
1e+20
 20
1e+20
 30
1e+20
  9
$EXTMAX
 10
-1e+20
 20
-1e+20
 30
-1e+20
  9
$LIMMIN
 10
0.0
 20
0.0
  9
$LIMMAX
 10
420.0
 20
297.0
  9
$ORTHOMODE
 70
0
  9
$REGENMODE
 70
1
  9
$FILLMODE
 70
1
  9
$QTEXTMODE
 70
0
  9
$MIRRTEXT
 70
1
  9
$LTSCALE
 40
1.0
  9
$ATTMODE
 70
1
  9
$TEXTSIZE
 40
2.5
  9
$TRACEWID
 40
1.0
  9
$TEXTSTYLE
  7
Standard
  9
$CLAYER
  8
0
  9
$CELTYPE
  6
ByLayer
  9
$CECOLOR
 62
256
  9
$CELTSCALE
 40
1.0
  9
$DISPSILH
 70
0
  9
$DIMSCALE
 40
1.0
  9
$DIMASZ
 40
2.5
  9
$DIMEXO
 40
0.625
  9
$DIMDLI
 40
3.75
  9
$DIMRND
 40
0.0
  9
$DIMDLE
 40
0.0
  9
$DIMEXE
 40
1.25
  9
$DIMTP
 40
0.0
  9
$DIMTM
 40
0.0
  9
$DIMTXT
 40
2.5
  9
$DIMCEN
 40
2.5
  9
$DIMTSZ
 40
0.0
  9
$DIMTOL
 70
0
  9
$DIMLIM
 70
0
  9
$DIMTIH
 70
0
  9
$DIMTOH
 70
0
  9
$DIMSE1
 70
0
  9
$DIMSE2
 70
0
  9
$DIMTAD
 70
1
  9
$DIMZIN
 70
8
  9
$DIMBLK
  1

  9
$DIMASO
 70
1
  9
$DIMSHO
 70
1
  9
$DIMPOST
  1

  9
$DIMAPOST
  1

  9
$DIMALT
 70
0
  9
$DIMALTD
 70
3
  9
$DIMALTF
 40
0.03937007874
  9
$DIMLFAC
 40
1.0
  9
$DIMTOFL
 70
1
  9
$DIMTVP
 40
0.0
  9
$DIMTIX
 70
0
  9
$DIMSOXD
 70
0
  9
$DIMSAH
 70
0
  9
$DIMBLK1
  1

  9
$DIMBLK2
  1

  9
$DIMSTYLE
  2
ISO-25
  9
$DIMCLRD
 70
0
  9
$DIMCLRE
 70
0
  9
$DIMCLRT
 70
0
  9
$DIMTFAC
 40
1.0
  9
$DIMGAP
 40
0.625
  9
$DIMJUST
 70
0
  9
$DIMSD1
 70
0
  9
$DIMSD2
 70
0
  9
$DIMTOLJ
 70
0
  9
$DIMTZIN
 70
8
  9
$DIMALTZ
 70
0
  9
$DIMALTTZ
 70
0
  9
$DIMUPT
 70
0
  9
$DIMDEC
 70
2
  9
$DIMTDEC
 70
2
  9
$DIMALTU
 70
2
  9
$DIMALTTD
 70
3
  9
$DIMTXSTY
  7
Standard
  9
$DIMAUNIT
 70
0
  9
$DIMADEC
 70
0
  9
$DIMALTRND
 40
0.0
  9
$DIMAZIN
 70
0
  9
$DIMDSEP
 70
44
  9
$DIMATFIT
 70
3
  9
$DIMFRAC
 70
0
  9
$DIMLDRBLK
  1

  9
$DIMLUNIT
 70
2
  9
$DIMLWD
 70
-2
  9
$DIMLWE
 70
-2
  9
$DIMTMOVE
 70
0
  9
$DIMFXL
 40
1.0
  9
$DIMFXLON
 70
0
  9
$DIMJOGANG
 40
0.785398163397
  9
$DIMTFILL
 70
0
  9
$DIMTFILLCLR
 70
0
  9
$DIMARCSYM
 70
0
  9
$DIMLTYPE
  6

  9
$DIMLTEX1
  6

  9
$DIMLTEX2
  6

  9
$DIMTXTDIRECTION
 70
0
  9
$LUNITS
 70
2
  9
$LUPREC
 70
4
  9
$SKETCHINC
 40
1.0
  9
$FILLETRAD
 40
10.0
  9
$AUNITS
 70
0
  9
$AUPREC
 70
2
  9
$MENU
  1
.
  9
$ELEVATION
 40
0.0
  9
$PELEVATION
 40
0.0
  9
$THICKNESS
 40
0.0
  9
$LIMCHECK
 70
0
  9
$CHAMFERA
 40
0.0
  9
$CHAMFERB
 40
0.0
  9
$CHAMFERC
 40
0.0
  9
$CHAMFERD
 40
0.0
  9
$SKPOLY
 70
0
  9
$TDCREATE
 40
2460825.777048611
  9
$TDUCREATE
 40
2458532.153996898
  9
$TDUPDATE
 40
2460825.777048611
  9
$TDUUPDATE
 40
2458532.1544311
  9
$TDINDWG
 40
0.0
  9
$TDUSRTIMER
 40
0.0
  9
$USRTIMER
 70
1
  9
$ANGBASE
 50
0.0
  9
$ANGDIR
 70
0
  9
$PDMODE
 70
0
  9
$PDSIZE
 40
0.0
  9
$PLINEWID
 40
0.0
  9
$SPLFRAME
 70
0
  9
$SPLINETYPE
 70
6
  9
$SPLINESEGS
 70
8
  9
$HANDSEED
  5
3C
  9
$SURFTAB1
 70
6
  9
$SURFTAB2
 70
6
  9
$SURFTYPE
 70
6
  9
$SURFU
 70
6
  9
$SURFV
 70
6
  9
$UCSBASE
  2

  9
$UCSNAME
  2

  9
$UCSORG
 10
0.0
 20
0.0
 30
0.0
  9
$UCSXDIR
 10
1.0
 20
0.0
 30
0.0
  9
$UCSYDIR
 10
0.0
 20
1.0
 30
0.0
  9
$UCSORTHOREF
  2

  9
$UCSORTHOVIEW
 70
0
  9
$UCSORGTOP
 10
0.0
 20
0.0
 30
0.0
  9
$UCSORGBOTTOM
 10
0.0
 20
0.0
 30
0.0
  9
$UCSORGLEFT
 10
0.0
 20
0.0
 30
0.0
  9
$UCSORGRIGHT
 10
0.0
 20
0.0
 30
0.0
  9
$UCSORGFRONT
 10
0.0
 20
0.0
 30
0.0
  9
$UCSORGBACK
 10
0.0
 20
0.0
 30
0.0
  9
$PUCSBASE
  2

  9
$PUCSNAME
  2

  9
$PUCSORG
 10
0.0
 20
0.0
 30
0.0
  9
$PUCSXDIR
 10
1.0
 20
0.0
 30
0.0
  9
$PUCSYDIR
 10
0.0
 20
1.0
 30
0.0
  9
$PUCSORTHOREF
  2

  9
$PUCSORTHOVIEW
 70
0
  9
$PUCSORGTOP
 10
0.0
 20
0.0
 30
0.0
  9
$PUCSORGBOTTOM
 10
0.0
 20
0.0
 30
0.0
  9
$PUCSORGLEFT
 10
0.0
 20
0.0
 30
0.0
  9
$PUCSORGRIGHT
 10
0.0
 20
0.0
 30
0.0
  9
$PUCSORGFRONT
 10
0.0
 20
0.0
 30
0.0
  9
$PUCSORGBACK
 10
0.0
 20
0.0
 30
0.0
  9
$USERI1
 70
0
  9
$USERI2
 70
0
  9
$USERI3
 70
0
  9
$USERI4
 70
0
  9
$USERI5
 70
0
  9
$USERR1
 40
0.0
  9
$USERR2
 40
0.0
  9
$USERR3
 40
0.0
  9
$USERR4
 40
0.0
  9
$USERR5
 40
0.0
  9
$WORLDVIEW
 70
1
  9
$SHADEDGE
 70
3
  9
$SHADEDIF
 70
70
  9
$TILEMODE
 70
1
  9
$MAXACTVP
 70
64
  9
$PINSBASE
 10
0.0
 20
0.0
 30
0.0
  9
$PLIMCHECK
 70
0
  9
$PEXTMIN
 10
1e+20
 20
1e+20
 30
1e+20
  9
$PEXTMAX
 10
-1e+20
 20
-1e+20
 30
-1e+20
  9
$PLIMMIN
 10
0.0
 20
0.0
  9
$PLIMMAX
 10
420.0
 20
297.0
  9
$UNITMODE
 70
0
  9
$VISRETAIN
 70
1
  9
$PLINEGEN
 70
0
  9
$PSLTSCALE
 70
1
  9
$TREEDEPTH
 70
3020
  9
$CMLSTYLE
  2
Standard
  9
$CMLJUST
 70
0
  9
$CMLSCALE
 40
20.0
  9
$PROXYGRAPHICS
 70
1
  9
$MEASUREMENT
 70
1
  9
$CELWEIGHT
370
-1
  9
$ENDCAPS
280
0
  9
$JOINSTYLE
280
0
  9
$LWDISPLAY
290
0
  9
$INSUNITS
 70
6
  9
$HYPERLINKBASE
  1

  9
$STYLESHEET
  1

  9
$XEDIT
290
1
  9
$CEPSNTYPE
380
0
  9
$PSTYLEMODE
290
1
  9
$FINGERPRINTGUID
  2
{4FB9D896-94C7-4529-A0EB-4D0733B7F65B}
  9
$VERSIONGUID
  2
{A0CFE6B4-9578-45E6-8220-270AC8D8F162}
  9
$EXTNAMES
290
1
  9
$PSVPSCALE
 40
0.0
  9
$OLESTARTUP
290
0
  9
$SORTENTS
280
127
  9
$INDEXCTL
280
0
  9
$HIDETEXT
280
1
  9
$XCLIPFRAME
280
0
  9
$HALOGAP
280
0
  9
$OBSCOLOR
 70
257
  9
$OBSLTYPE
280
0
  9
$INTERSECTIONDISPLAY
280
0
  9
$INTERSECTIONCOLOR
 70
257
  9
$DIMASSOC
280
2
  9
$PROJECTNAME
  1

  9
$CAMERADISPLAY
290
0
  9
$LENSLENGTH
 40
50.0
  9
$CAMERAHEIGHT
 40
0.0
  9
$STEPSPERSEC
 40
24.0
  9
$STEPSIZE
 40
100.0
  9
$3DDWFPREC
 40
2.0
  9
$PSOLWIDTH
 40
0.005
  9
$PSOLHEIGHT
 40
0.08
  9
$LOFTANG1
 40
1.570796326795
  9
$LOFTANG2
 40
1.570796326795
  9
$LOFTMAG1
 40
0.0
  9
$LOFTMAG2
 40
0.0
  9
$LOFTPARAM
 70
7
  9
$LOFTNORMALS
280
1
  9
$LATITUDE
 40
37.795
  9
$LONGITUDE
 40
-122.394
  9
$NORTHDIRECTION
 40
0.0
  9
$TIMEZONE
 70
-8000
  9
$LIGHTGLYPHDISPLAY
280
1
  9
$TILEMODELIGHTSYNCH
280
1
  9
$CMATERIAL
347
20
  9
$SOLIDHIST
280
0
  9
$SHOWHIST
280
1
  9
$DWFFRAME
280
2
  9
$DGNFRAME
280
2
  9
$REALWORLDSCALE
290
1
  9
$INTERFERECOLOR
 62
256
  9
$CSHADOW
280
0
  9
$SHADOWPLANELOCATION
 40
0.0
  0
ENDSEC
  0
SECTION
  2
CLASSES
  0
CLASS
  1
ACDBDICTIONARYWDFLT
  2
AcDbDictionaryWithDefault
  3
ObjectDBX Classes
 90
0
 91
0
280
0
281
0
  0
CLASS
  1
SUN
  2
AcDbSun
  3
SCENEOE
 90
1153
 91
0
280
0
281
0
  0
CLASS
  1
VISUALSTYLE
  2
AcDbVisualStyle
  3
ObjectDBX Classes
 90
4095
 91
0
280
0
281
0
  0
CLASS
  1
MATERIAL
  2
AcDbMaterial
  3
ObjectDBX Classes
 90
1153
 91
0
280
0
281
0
  0
CLASS
  1
SCALE
  2
AcDbScale
  3
ObjectDBX Classes
 90
1153
 91
0
280
0
281
0
  0
CLASS
  1
TABLESTYLE
  2
AcDbTableStyle
  3
ObjectDBX Classes
 90
4095
 91
0
280
0
281
0
  0
CLASS
  1
MLEADERSTYLE
  2
AcDbMLeaderStyle
  3
ACDB_MLEADERSTYLE_CLASS
 90
4095
 91
0
280
0
281
0
  0
CLASS
  1
DICTIONARYVAR
  2
AcDbDictionaryVar
  3
ObjectDBX Classes
 90
0
 91
0
280
0
281
0
  0
CLASS
  1
CELLSTYLEMAP
  2
AcDbCellStyleMap
  3
ObjectDBX Classes
 90
1152
 91
0
280
0
281
0
  0
CLASS
  1
MENTALRAYRENDERSETTINGS
  2
AcDbMentalRayRenderSettings
  3
SCENEOE
 90
1024
 91
0
280
0
281
0
  0
CLASS
  1
ACDBDETAILVIEWSTYLE
  2
AcDbDetailViewStyle
  3
ObjectDBX Classes
 90
1025
 91
0
280
0
281
0
  0
CLASS
  1
ACDBSECTIONVIEWSTYLE
  2
AcDbSectionViewStyle
  3
ObjectDBX Classes
 90
1025
 91
0
280
0
281
0
  0
CLASS
  1
RASTERVARIABLES
  2
AcDbRasterVariables
  3
ISM
 90
0
 91
0
280
0
281
0
  0
CLASS
  1
LAYOUT
  2
AcDbLayout
  3
ObjectDBX Classes
 90
0
 91
0
280
0
281
0
  0
CLASS
  1
ACDBPLACEHOLDER
  2
AcDbPlaceHolder
  3
ObjectDBX Classes
 90
0
 91
0
280
0
281
0
  0
ENDSEC
  0
SECTION
  2
TABLES
  0
TABLE
  2
VPORT
  5
8
330
0
100
AcDbSymbolTable
 70
1
  0
VPORT
  5
23
330
8
100
AcDbSymbolTableRecord
100
AcDbViewportTableRecord
  2
*Active
 70
0
 10
0.0
 20
0.0
 11
1.0
 21
1.0
 12
0.0
 22
0.0
 13
0.0
 23
0.0
 14
0.5
 24
0.5
 15
0.5
 25
0.5
 16
0.0
 26
0.0
 36
1.0
 17
0.0
 27
0.0
 37
0.0
 40
1000.0
 41
1.34
 42
50.0
 43
0.0
 44
0.0
 50
0.0
 51
0.0
 71
0
 72
1000
 73
1
 74
3
 75
0
 76
0
 77
0
 78
0
281
0
 65
0
146
0.0
  0
ENDTAB
  0
TABLE
  2
LTYPE
  5
2
330
0
100
AcDbSymbolTable
 70
3
  0
LTYPE
  5
24
330
2
100
AcDbSymbolTableRecord
100
AcDbLinetypeTableRecord
  2
ByBlock
 70
0
  3

 72
65
 73
0
 40
0.0
  0
LTYPE
  5
25
330
2
100
AcDbSymbolTableRecord
100
AcDbLinetypeTableRecord
  2
ByLayer
 70
0
  3

 72
65
 73
0
 40
0.0
  0
LTYPE
  5
26
330
2
100
AcDbSymbolTableRecord
100
AcDbLinetypeTableRecord
  2
Continuous
 70
0
  3

 72
65
 73
0
 40
0.0
  0
ENDTAB
  0
TABLE
  2
LAYER
  5
1
330
0
100
AcDbSymbolTable
 70
2
  0
LAYER
  5
27
330
1
100
AcDbSymbolTableRecord
100
AcDbLayerTableRecord
  2
0
 70
0
 62
7
  6
Continuous
370
-3
390
13
347
21
  0
LAYER
  5
28
330
1
100
AcDbSymbolTableRecord
100
AcDbLayerTableRecord
  2
Defpoints
 70
0
 62
7
  6
Continuous
290
0
370
-3
390
13
347
21
  0
ENDTAB
  0
TABLE
  2
STYLE
  5
5
330
0
100
AcDbSymbolTable
 70
1
  0
STYLE
  5
29
330
5
100
AcDbSymbolTableRecord
100
AcDbTextStyleTableRecord
  2
Standard
 70
0
 40
0.0
 41
1.0
 50
0.0
 71
0
 42
2.5
  3
txt
  4

  0
ENDTAB
  0
TABLE
  2
VIEW
  5
7
330
0
100
AcDbSymbolTable
 70
0
  0
ENDTAB
  0
TABLE
  2
UCS
  5
6
330
0
100
AcDbSymbolTable
 70
0
  0
ENDTAB
  0
TABLE
  2
APPID
  5
3
330
0
100
AcDbSymbolTable
 70
3
  0
APPID
  5
2A
330
3
100
AcDbSymbolTableRecord
100
AcDbRegAppTableRecord
  2
ACAD
 70
0
  0
APPID
  5
39
330
3
100
AcDbSymbolTableRecord
100
AcDbRegAppTableRecord
  2
HATCHBACKGROUNDCOLOR
 70
0
  0
APPID
  5
3A
330
3
100
AcDbSymbolTableRecord
100
AcDbRegAppTableRecord
  2
EZDXF
 70
0
  0
ENDTAB
  0
TABLE
  2
DIMSTYLE
  5
4
330
0
100
AcDbSymbolTable
 70
1
100
AcDbDimStyleTable
  0
DIMSTYLE
105
2B
330
4
100
AcDbSymbolTableRecord
100
AcDbDimStyleTableRecord
  2
Standard
 70
0
 40
1.0
 41
2.5
 42
0.625
 43
3.75
 44
1.25
 45
0.0
 46
0.0
 47
0.0
 48
0.0
 49
2.5
140
2.5
141
2.5
142
0.0
143
0.03937007874
144
1.0
145
0.0
146
1.0
147
0.625
148
0.0
 69
0
 70
0
 71
0
 72
0
 73
0
 74
0
 75
0
 76
0
 77
1
 78
8
 79
3
170
0
171
3
172
1
173
0
174
0
175
0
176
0
177
0
178
0
179
2
271
2
272
2
273
2
274
3
275
0
276
0
277
2
278
44
279
0
280
0
281
0
282
0
283
0
284
8
285
0
286
0
288
0
289
3
290
0
371
-2
372
-2
  0
ENDTAB
  0
TABLE
  2
BLOCK_RECORD
  5
9
330
0
100
AcDbSymbolTable
 70
2
  0
BLOCK_RECORD
  5
17
330
9
100
AcDbSymbolTableRecord
100
AcDbBlockTableRecord
  2
*Model_Space
340
1A
 70
0
280
1
281
0
  0
BLOCK_RECORD
  5
1B
330
9
100
AcDbSymbolTableRecord
100
AcDbBlockTableRecord
  2
*Paper_Space
340
1E
 70
0
280
1
281
0
  0
ENDTAB
  0
ENDSEC
  0
SECTION
  2
BLOCKS
  0
BLOCK
  5
18
330
17
100
AcDbEntity
  8
0
100
AcDbBlockBegin
  2
*Model_Space
 70
0
 10
0.0
 20
0.0
 30
0.0
  3
*Model_Space
  1

  0
ENDBLK
  5
19
330
17
100
AcDbEntity
  8
0
100
AcDbBlockEnd
  0
BLOCK
  5
1C
330
1B
100
AcDbEntity
  8
0
100
AcDbBlockBegin
  2
*Paper_Space
 70
0
 10
0.0
 20
0.0
 30
0.0
  3
*Paper_Space
  1

  0
ENDBLK
  5
1D
330
1B
100
AcDbEntity
  8
0
100
AcDbBlockEnd
  0
ENDSEC
  0
SECTION
  2
ENTITIES
  0
LWPOLYLINE
  5
2F
330
17
100
AcDbEntity
  8
0
100
AcDbPolyline
 90
51
 70
0
 10
21.1
 20
12.0
 10
21.1
 20
11.76
 10
21.1
 20
11.52
 10
21.1
 20
11.28
 10
21.1
 20
11.04
 10
21.1
 20
10.8
 10
21.1
 20
10.56
 10
21.1
 20
10.32
 10
21.1
 20
10.08
 10
21.1
 20
9.84
 10
21.1
 20
9.6
 10
21.1
 20
9.36
 10
21.1
 20
9.120000000000001
 10
21.1
 20
8.879999999999999
 10
21.1
 20
8.64
 10
21.1
 20
8.4
 10
21.1
 20
8.16
 10
21.1
 20
7.92
 10
21.1
 20
7.68
 10
21.1
 20
7.44
 10
21.1
 20
7.2
 10
21.1
 20
6.96
 10
21.1
 20
6.72
 10
21.1
 20
6.48
 10
21.1
 20
6.24
 10
21.1
 20
6.0
 10
21.1
 20
5.76
 10
21.1
 20
5.52
 10
21.1
 20
5.28
 10
21.1
 20
5.04
 10
21.1
 20
4.8
 10
21.1
 20
4.56
 10
21.1
 20
4.32
 10
21.1
 20
4.08
 10
21.1
 20
3.84
 10
21.1
 20
3.5999999999999996
 10
21.1
 20
3.3599999999999994
 10
21.1
 20
3.119999999999999
 10
21.1
 20
2.880000000000001
 10
21.1
 20
2.6400000000000006
 10
21.1
 20
2.4000000000000004
 10
21.1
 20
2.16
 10
21.1
 20
1.92
 10
21.1
 20
1.6799999999999997
 10
21.1
 20
1.4399999999999995
 10
21.1
 20
1.1999999999999993
 10
21.1
 20
0.9600000000000009
 10
21.1
 20
0.7200000000000006
 10
21.1
 20
0.4800000000000004
 10
21.1
 20
0.2400000000000002
 10
21.1
 20
0.0
  0
LWPOLYLINE
  5
30
330
17
100
AcDbEntity
  8
0
100
AcDbPolyline
 90
51
 70
0
 10
7.1
 20
5.0
 10
7.1
 20
5.14
 10
7.1
 20
5.28
 10
7.1
 20
5.42
 10
7.1
 20
5.5600000000000005
 10
7.1
 20
5.7
 10
7.1
 20
5.84
 10
7.1
 20
5.98
 10
7.1
 20
6.12
 10
7.1
 20
6.26
 10
7.1
 20
6.4
 10
7.1
 20
6.54
 10
7.1
 20
6.68
 10
7.099999999999999
 20
6.82
 10
7.099999999999999
 20
6.96
 10
7.099999999999999
 20
7.1
 10
7.099999999999999
 20
7.24
 10
7.099999999999999
 20
7.38
 10
7.099999999999999
 20
7.52
 10
7.099999999999999
 20
7.66
 10
7.099999999999999
 20
7.8
 10
7.099999999999999
 20
7.9399999999999995
 10
7.099999999999999
 20
8.08
 10
7.099999999999999
 20
8.22
 10
7.099999999999999
 20
8.36
 10
7.099999999999999
 20
8.5
 10
7.099999999999999
 20
8.64
 10
7.099999999999999
 20
8.78
 10
7.099999999999999
 20
8.92
 10
7.099999999999999
 20
9.059999999999999
 10
7.099999999999999
 20
9.2
 10
7.099999999999999
 20
9.34
 10
7.099999999999999
 20
9.48
 10
7.099999999999999
 20
9.620000000000001
 10
7.099999999999999
 20
9.76
 10
7.099999999999999
 20
9.9
 10
7.099999999999999
 20
10.04
 10
7.099999999999999
 20
10.18
 10
7.099999999999999
 20
10.32
 10
7.099999999999998
 20
10.46
 10
7.099999999999998
 20
10.6
 10
7.099999999999998
 20
10.74
 10
7.099999999999998
 20
10.879999999999999
 10
7.099999999999998
 20
11.02
 10
7.099999999999998
 20
11.16
 10
7.099999999999998
 20
11.3
 10
7.099999999999998
 20
11.440000000000001
 10
7.099999999999998
 20
11.58
 10
7.099999999999998
 20
11.719999999999999
 10
7.099999999999998
 20
11.86
 10
7.099999999999998
 20
12.0
  0
LWPOLYLINE
  5
31
330
17
100
AcDbEntity
  8
0
100
AcDbPolyline
 90
51
 70
0
 10
7.1
 20
11.999999999999998
 10
7.113812901002099
 20
12.439533636705189
 10
7.155197090798654
 20
12.877332634950129
 10
7.223989244899179
 20
13.31166920210007
 10
7.319917872099582
 20
13.740829210153985
 10
7.442604385933924
 20
14.16311896062463
 10
7.591564598782239
 20
14.576871868792741
 10
7.766210632737863
 20
14.980455040955508
 10
7.965853239692953
 20
15.372275718712004
 10
8.189704521485895
 20
15.750787564852978
 10
8.436881039375367
 20
16.11449676604731
 10
8.706407300569474
 20
16.461967928240824
 10
8.99721960805012
 20
16.79182974150082
 10
9.308170258499178
 20
17.102780391949878
 10
9.638032071759172
 20
17.393592699430528
 10
9.985503233952686
 20
17.66311896062463
 10
10.34921243514702
 20
17.910295478514104
 10
10.727724281287992
 20
18.134146760307047
 10
11.11954495904449
 20
18.333789367262135
 10
11.523128131207255
 20
18.50843540121776
 10
11.936881039375365
 20
18.657395614066075
 10
12.359170789846011
 20
18.780082127900418
 10
12.788330797899928
 20
18.876010755100822
 10
13.222667365049867
 20
18.944802909201343
 10
13.660466363294807
 20
18.986187098997902
 10
14.099999999999998
 20
19.0
 10
14.539533636705189
 20
18.986187098997902
 10
14.977332634950129
 20
18.944802909201346
 10
15.41166920210007
 20
18.876010755100822
 10
15.840829210153984
 20
18.780082127900418
 10
16.26311896062463
 20
18.657395614066075
 10
16.67687186879274
 20
18.50843540121776
 10
17.080455040955506
 20
18.333789367262135
 10
17.47227571871201
 20
18.134146760307043
 10
17.850787564852975
 20
17.910295478514104
 10
18.21449676604731
 20
17.663118960624633
 10
18.561967928240826
 20
17.393592699430528
 10
18.89182974150082
 20
17.10278039194988
 10
19.20278039194988
 20
16.791829741500823
 10
19.493592699430526
 20
16.461967928240828
 10
19.76311896062463
 20
16.114496766047314
 10
20.010295478514102
 20
15.75078756485298
 10
20.234146760307045
 20
15.372275718712007
 10
20.433789367262136
 20
14.980455040955512
 10
20.60843540121776
 20
14.576871868792745
 10
20.757395614066073
 20
14.163118960624633
 10
20.880082127900415
 20
13.740829210153988
 10
20.97601075510082
 20
13.311669202100074
 10
21.044802909201344
 20
12.877332634950132
 10
21.0861870989979
 20
12.439533636705193
 10
21.1
 20
12.000000000000002
  0
LWPOLYLINE
  5
32
330
17
100
AcDbEntity
  8
0
100
AcDbPolyline
 90
51
 70
0
 10
21.1
 20
1.499245172453811e-15
 10
19.756
 20
1.4037482287676534e-15
 10
18.412000000000003
 20
1.3082512850814963e-15
 10
17.068
 20
1.2127543413953388e-15
 10
15.724
 20
1.1172573977091813e-15
 10
14.380000000000003
 20
1.021760454023024e-15
 10
13.036000000000001
 20
9.262635103368664e-16
 10
11.692
 20
8.307665666507089e-16
 10
10.348
 20
7.352696229645515e-16
 10
9.004
 20
6.39772679278394e-16
 10
7.660000000000002
 20
5.442757355922367e-16
 10
6.316000000000001
 20
4.487787919060791e-16
 10
4.972000000000001
 20
3.532818482199218e-16
 10
3.628
 20
2.5778490453376425e-16
 10
2.283999999999999
 20
1.6228796084760675e-16
 10
0.9400000000000013
 20
6.679101716144948e-17
 10
-0.4039999999999999
 20
-2.870592652470803e-17
 10
-1.748000000000001
 20
-1.2420287021086555e-16
 10
-3.0920000000000023
 20
-2.1969981389702307e-16
 10
-4.435999999999996
 20
-3.1519675758318007e-16
 10
-5.779999999999998
 20
-4.106937012693376e-16
 10
-7.123999999999999
 20
-5.061906449554952e-16
 10
-8.468
 20
-6.016875886416527e-16
 10
-9.812000000000001
 20
-6.971845323278102e-16
 10
-11.155999999999999
 20
-7.926814760139674e-16
 10
-12.5
 20
-8.881784197001249e-16
 10
-13.844000000000001
 20
-9.836753633862826e-16
 10
-15.188000000000002
 20
-1.07917230707244e-15
 10
-16.532000000000004
 20
-1.1746692507585976e-15
 10
-17.876000000000005
 20
-1.2701661944447551e-15
 10
-19.22
 20
-1.365663138130912e-15
 10
-20.564000000000007
 20
-1.4611600818170701e-15
 10
-21.908
 20
-1.556657025503227e-15
 10
-23.251999999999995
 20
-1.652153969189384e-15
 10
-24.596000000000004
 20
-1.7476509128755421e-15
 10
-25.939999999999998
 20
-1.8431478565616992e-15
 10
-27.284000000000006
 20
-1.938644800247857e-15
 10
-28.628
 20
-2.0341417439340143e-15
 10
-29.971999999999994
 20
-2.129638687620171e-15
 10
-31.316000000000003
 20
-2.2251356313063293e-15
 10
-32.66
 20
-2.320632574992486e-15
 10
-34.004000000000005
 20
-2.4161295186786443e-15
 10
-35.348
 20
-2.511626462364801e-15
 10
-36.692
 20
-2.6071234060509586e-15
 10
-38.036
 20
-2.702620349737116e-15
 10
-39.379999999999995
 20
-2.7981172934232732e-15
 10
-40.724000000000004
 20
-2.893614237109431e-15
 10
-42.068
 20
-2.9891111807955883e-15
 10
-43.412
 20
-3.0846081244817458e-15
 10
-44.75600000000001
 20
-3.1801050681679037e-15
 10
-46.1
 20
-3.275602011854061e-15
  0
LWPOLYLINE
  5
33
330
17
100
AcDbEntity
  8
0
100
AcDbPolyline
 90
51
 70
0
 10
18.1
 20
12.0
 10
18.08224785841232
 20
11.623566746725944
 10
18.029149002914753
 20
11.2504747416571
 10
17.941174742707773
 20
10.884035575843082
 10
17.819105943553005
 20
10.527501789261288
 10
17.66402609675347
 20
10.184038001041813
 10
17.47731170200806
 20
9.856692820084014
 10
17.260620049502762
 20
9.548371785388095
 10
17.015874509685645
 20
9.261811576285245
 10
16.745247461294607
 20
8.999555721478162
 10
16.45114100916989
 20
8.76393202250021
 10
16.136165663001485
 20
8.557031891984225
 10
15.803117166260291
 20
8.380691790135923
 10
15.454951680981164
 20
8.236476924183098
 10
15.094759548659418
 20
8.125667355485476
 10
14.725737860160924
 20
8.049246637619449
 10
14.351162078117254
 20
8.007893086286913
 10
13.974356963687487
 20
8.001973758537073
 10
13.598667065742783
 20
8.031541194742088
 10
13.227427034413832
 20
8.09633295224501
 10
12.86393202250021
 20
8.195773934819385
 10
12.511408437460876
 20
8.328981497264076
 10
12.172985303593139
 20
8.494773279824546
 10
11.851666488591476
 20
8.691677702901753
 10
11.55030404100524
 20
8.917947028896844
 10
11.27157287525381
 20
9.171572875253808
 10
11.017947028896842
 20
9.450304041005243
 10
10.791677702901753
 20
9.751666488591477
 10
10.594773279824546
 20
10.07298530359314
 10
10.428981497264076
 20
10.411408437460876
 10
10.295773934819385
 20
10.76393202250021
 10
10.196332952245012
 20
11.127427034413827
 10
10.131541194742088
 20
11.498667065742781
 10
10.101973758537074
 20
11.874356963687486
 10
10.107893086286914
 20
12.251162078117252
 10
10.149246637619449
 20
12.625737860160923
 10
10.225667355485475
 20
12.99475954865942
 10
10.336476924183097
 20
13.354951680981165
 10
10.48069179013592
 20
13.703117166260288
 10
10.657031891984225
 20
14.036165663001487
 10
10.86393202250021
 20
14.351141009169892
 10
11.09955572147816
 20
14.645247461294606
 10
11.361811576285247
 20
14.915874509685647
 10
11.648371785388093
 20
15.16062004950276
 10
11.956692820084015
 20
15.377311702008061
 10
12.28403800104181
 20
15.564026096753471
 10
12.627501789261288
 20
15.719105943553005
 10
12.98403557584308
 20
15.841174742707771
 10
13.3504747416571
 20
15.929149002914755
 10
13.723566746725943
 20
15.98224785841232
 10
14.099999999999998
 20
16.0
  0
LWPOLYLINE
  5
34
330
17
100
AcDbEntity
  8
0
100
AcDbPolyline
 90
51
 70
0
 10
14.1
 20
16.0
 10
14.225643036312512
 20
15.998026241462927
 10
14.351162078117254
 20
15.992106913713087
 10
14.476433253274056
 20
15.98224785841232
 10
14.601332934257217
 20
15.968458805257912
 10
14.725737860160923
 20
15.950753362380551
 10
14.849525258342897
 20
15.929149002914755
 10
14.97257296558617
 20
15.90366704775499
 10
15.094759548659418
 20
15.874332644514524
 10
15.215964424156917
 20
15.841174742707771
 10
15.33606797749979
 20
15.804226065180615
 10
15.454951680981164
 20
15.763523075816902
 10
15.572498210738711
 20
15.719105943553005
 10
15.688591562539122
 20
15.671018502735924
 10
15.80311716626029
 20
15.619308209864078
 10
15.915961998958187
 20
15.564026096753471
 10
16.027014696406862
 20
15.505226720175454
 10
16.136165663001485
 20
15.442968108015775
 10
16.243307179915988
 20
15.377311702008061
 10
16.348333511408523
 20
15.308322297098247
 10
16.45114100916989
 20
15.23606797749979
 10
16.551628214611906
 20
15.16062004950276
 10
16.64969595899476
 20
15.082052971103156
 10
16.745247461294607
 20
15.000444278521838
 10
16.838188423714755
 20
14.915874509685647
 10
16.92842712474619
 20
14.82842712474619
 10
17.015874509685645
 20
14.738188423714755
 10
17.100444278521838
 20
14.645247461294607
 10
17.182052971103158
 20
14.549695958994759
 10
17.260620049502762
 20
14.451628214611906
 10
17.336067977499788
 20
14.351141009169893
 10
17.40832229709825
 20
14.248333511408523
 10
17.47731170200806
 20
14.143307179915986
 10
17.542968108015774
 20
14.036165663001485
 10
17.605226720175455
 20
13.92701469640686
 10
17.66402609675347
 20
13.815961998958187
 10
17.719308209864078
 20
13.703117166260292
 10
17.771018502735924
 20
13.588591562539122
 10
17.819105943553005
 20
13.472498210738712
 10
17.8635230758169
 20
13.354951680981166
 10
17.904226065180612
 20
13.23606797749979
 10
17.941174742707773
 20
13.115964424156918
 10
17.974332644514526
 20
12.994759548659419
 10
18.003667047754988
 20
12.872572965586171
 10
18.029149002914753
 20
12.7495252583429
 10
18.05075336238055
 20
12.625737860160923
 10
18.06845880525791
 20
12.501332934257217
 10
18.08224785841232
 20
12.376433253274056
 10
18.092106913713085
 20
12.251162078117254
 10
18.098026241462925
 20
12.125643036312514
 10
18.1
 20
12.0
  0
LWPOLYLINE
  5
35
330
17
100
AcDbEntity
  8
0
100
AcDbPolyline
 90
51
 70
0
 10
-46.1
 20
-3.27560201185406e-15
 10
-46.1
 20
0.0999999999999968
 10
-46.1
 20
0.19999999999999687
 10
-46.1
 20
0.29999999999999694
 10
-46.1
 20
0.399999999999997
 10
-46.1
 20
0.49999999999999706
 10
-46.1
 20
0.5999999999999971
 10
-46.1
 20
0.6999999999999973
 10
-46.1
 20
0.7999999999999973
 10
-46.1
 20
0.8999999999999972
 10
-46.1
 20
0.9999999999999973
 10
-46.1
 20
1.0999999999999974
 10
-46.1
 20
1.1999999999999975
 10
-46.1
 20
1.2999999999999976
 10
-46.1
 20
1.399999999999998
 10
-46.1
 20
1.4999999999999978
 10
-46.1
 20
1.5999999999999979
 10
-46.1
 20
1.6999999999999977
 10
-46.1
 20
1.7999999999999978
 10
-46.1
 20
1.8999999999999981
 10
-46.1
 20
1.999999999999998
 10
-46.1
 20
2.0999999999999983
 10
-46.1
 20
2.1999999999999984
 10
-46.1
 20
2.2999999999999985
 10
-46.1
 20
2.3999999999999986
 10
-46.1
 20
2.4999999999999987
 10
-46.1
 20
2.5999999999999988
 10
-46.1
 20
2.6999999999999984
 10
-46.1
 20
2.7999999999999994
 10
-46.1
 20
2.899999999999999
 10
-46.1
 20
2.999999999999999
 10
-46.1
 20
3.099999999999999
 10
-46.1
 20
3.1999999999999993
 10
-46.1
 20
3.2999999999999994
 10
-46.1
 20
3.399999999999999
 10
-46.1
 20
3.499999999999999
 10
-46.1
 20
3.599999999999999
 10
-46.1
 20
3.6999999999999997
 10
-46.1
 20
3.8
 10
-46.1
 20
3.9
 10
-46.1
 20
3.999999999999999
 10
-46.1
 20
4.1
 10
-46.1
 20
4.199999999999999
 10
-46.1
 20
4.299999999999999
 10
-46.1
 20
4.3999999999999995
 10
-46.1
 20
4.5
 10
-46.1
 20
4.6
 10
-46.1
 20
4.7
 10
-46.1
 20
4.8
 10
-46.1
 20
4.8999999999999995
 10
-46.1
 20
5.0
  0
LWPOLYLINE
  5
36
330
17
100
AcDbEntity
  8
0
100
AcDbPolyline
 90
51
 70
0
 10
-20.0
 20
5.0
 10
-19.458
 20
5.0
 10
-18.916
 20
5.0
 10
-18.374
 20
5.0
 10
-17.832
 20
5.0
 10
-17.29
 20
5.0
 10
-16.747999999999998
 20
5.0
 10
-16.206
 20
5.0
 10
-15.664
 20
5.0
 10
-15.122
 20
5.0
 10
-14.58
 20
5.0
 10
-14.038
 20
5.0
 10
-13.495999999999999
 20
5.0
 10
-12.954
 20
5.0
 10
-12.411999999999999
 20
5.0
 10
-11.87
 20
5.0
 10
-11.328
 20
5.0
 10
-10.786
 20
5.0
 10
-10.244
 20
5.0
 10
-9.702
 20
5.0
 10
-9.16
 20
5.0
 10
-8.618000000000002
 20
5.0
 10
-8.076
 20
5.0
 10
-7.533999999999999
 20
5.0
 10
-6.991999999999997
 20
5.0
 10
-6.449999999999999
 20
5.0
 10
-5.908000000000001
 20
5.0
 10
-5.366
 20
5.0
 10
-4.823999999999998
 20
5.0
 10
-4.2819999999999965
 20
5.0
 10
-3.7399999999999984
 20
5.0
 10
-3.1980000000000004
 20
5.0
 10
-2.655999999999999
 20
5.0
 10
-2.113999999999997
 20
5.0
 10
-1.5719999999999992
 20
5.0
 10
-1.0300000000000011
 20
5.0
 10
-0.48799999999999955
 20
5.0
 10
0.054000000000002046
 20
5.0
 10
0.5960000000000001
 20
5.0
 10
1.1380000000000017
 20
5.0
 10
1.6799999999999997
 20
5.0
 10
2.2220000000000013
 20
5.0
 10
2.7639999999999993
 20
5.0
 10
3.3059999999999974
 20
5.0
 10
3.8480000000000025
 20
5.0
 10
4.390000000000001
 20
5.0
 10
4.932000000000002
 20
5.0
 10
5.474
 20
5.0
 10
6.016000000000005
 20
5.0
 10
6.558000000000003
 20
5.0
 10
7.100000000000001
 20
5.0
  0
LWPOLYLINE
  5
37
330
17
100
AcDbEntity
  8
0
100
AcDbPolyline
 90
51
 70
0
 10
-46.1
 20
5.0
 10
-45.036
 20
5.0
 10
-43.972
 20
5.0
 10
-42.908
 20
5.0
 10
-41.844
 20
5.0
 10
-40.78
 20
5.0
 10
-39.716
 20
5.0
 10
-38.652
 20
5.0
 10
-37.588
 20
5.0
 10
-36.524
 20
5.0
 10
-35.46
 20
5.0
 10
-34.396
 20
5.0
 10
-33.332
 20
5.0
 10
-32.268
 20
5.0
 10
-31.204
 20
5.0
 10
-30.14
 20
5.0
 10
-29.076
 20
5.0
 10
-28.012
 20
5.0
 10
-26.948
 20
5.0
 10
-25.884
 20
5.0
 10
-24.82
 20
5.0
 10
-23.756
 20
5.0
 10
-22.692
 20
5.0
 10
-21.628
 20
5.0
 10
-20.563999999999997
 20
5.0
 10
-19.5
 20
5.0
 10
-18.436
 20
5.0
 10
-17.372
 20
5.0
 10
-16.308
 20
5.0
 10
-15.243999999999996
 20
5.0
 10
-14.18
 20
5.0
 10
-13.116
 20
5.0
 10
-12.052
 20
5.0
 10
-10.988
 20
5.0
 10
-9.924
 20
5.0
 10
-8.86
 20
5.0
 10
-7.795999999999999
 20
5.0
 10
-6.731999999999999
 20
5.0
 10
-5.667999999999999
 20
5.0
 10
-4.603999999999999
 20
5.0
 10
-3.539999999999999
 20
5.0
 10
-2.475999999999999
 20
5.0
 10
-1.411999999999999
 20
5.0
 10
-0.3480000000000061
 20
5.0
 10
0.7160000000000011
 20
5.0
 10
1.7800000000000011
 20
5.0
 10
2.844000000000001
 20
5.0
 10
3.9080000000000013
 20
5.0
 10
4.972000000000008
 20
5.0
 10
6.036000000000001
 20
5.0
 10
7.100000000000001
 20
5.0
  0
LWPOLYLINE
  5
38
330
17
100
AcDbEntity
  8
0
100
AcDbPolyline
 90
51
 70
0
 10
7.1
 20
5.0
 10
7.1
 20
5.14
 10
7.1
 20
5.28
 10
7.1
 20
5.42
 10
7.1
 20
5.5600000000000005
 10
7.1
 20
5.7
 10
7.1
 20
5.84
 10
7.1
 20
5.98
 10
7.1
 20
6.12
 10
7.1
 20
6.26
 10
7.1
 20
6.4
 10
7.1
 20
6.54
 10
7.1
 20
6.68
 10
7.099999999999999
 20
6.82
 10
7.099999999999999
 20
6.96
 10
7.099999999999999
 20
7.1
 10
7.099999999999999
 20
7.24
 10
7.099999999999999
 20
7.38
 10
7.099999999999999
 20
7.52
 10
7.099999999999999
 20
7.66
 10
7.099999999999999
 20
7.8
 10
7.099999999999999
 20
7.9399999999999995
 10
7.099999999999999
 20
8.08
 10
7.099999999999999
 20
8.22
 10
7.099999999999999
 20
8.36
 10
7.099999999999999
 20
8.5
 10
7.099999999999999
 20
8.64
 10
7.099999999999999
 20
8.78
 10
7.099999999999999
 20
8.92
 10
7.099999999999999
 20
9.059999999999999
 10
7.099999999999999
 20
9.2
 10
7.099999999999999
 20
9.34
 10
7.099999999999999
 20
9.48
 10
7.099999999999999
 20
9.620000000000001
 10
7.099999999999999
 20
9.76
 10
7.099999999999999
 20
9.9
 10
7.099999999999999
 20
10.04
 10
7.099999999999999
 20
10.18
 10
7.099999999999999
 20
10.32
 10
7.099999999999998
 20
10.46
 10
7.099999999999998
 20
10.6
 10
7.099999999999998
 20
10.74
 10
7.099999999999998
 20
10.879999999999999
 10
7.099999999999998
 20
11.02
 10
7.099999999999998
 20
11.16
 10
7.099999999999998
 20
11.3
 10
7.099999999999998
 20
11.440000000000001
 10
7.099999999999998
 20
11.58
 10
7.099999999999998
 20
11.719999999999999
 10
7.099999999999998
 20
11.86
 10
7.099999999999998
 20
12.0
  0
ENDSEC
  0
SECTION
  2
OBJECTS
  0
DICTIONARY
  5
A
330
0
100
AcDbDictionary
280
0
281
1
  3
ACAD_COLOR
350
B
  3
ACAD_GROUP
350
C
  3
ACAD_LAYOUT
350
D
  3
ACAD_MATERIAL
350
E
  3
ACAD_MLEADERSTYLE
350
F
  3
ACAD_MLINESTYLE
350
10
  3
ACAD_PLOTSETTINGS
350
11
  3
ACAD_PLOTSTYLENAME
350
12
  3
ACAD_SCALELIST
350
14
  3
ACAD_TABLESTYLE
350
15
  3
ACAD_VISUALSTYLE
350
16
  3
EZDXF_META
350
2D
  0
DICTIONARY
  5
B
330
A
100
AcDbDictionary
280
0
281
1
  0
DICTIONARY
  5
C
330
A
100
AcDbDictionary
280
0
281
1
  0
DICTIONARY
  5
D
330
A
100
AcDbDictionary
280
0
281
1
  3
Model
350
1A
  3
Layout1
350
1E
  0
DICTIONARY
  5
E
330
A
100
AcDbDictionary
280
0
281
1
  3
ByBlock
350
1F
  3
ByLayer
350
20
  3
Global
350
21
  0
DICTIONARY
  5
F
330
A
100
AcDbDictionary
280
0
281
1
  3
Standard
350
2C
  0
DICTIONARY
  5
10
330
A
100
AcDbDictionary
280
0
281
1
  3
Standard
350
22
  0
DICTIONARY
  5
11
330
A
100
AcDbDictionary
280
0
281
1
  0
ACDBDICTIONARYWDFLT
  5
12
330
A
100
AcDbDictionary
280
0
281
1
  3
Normal
350
13
100
AcDbDictionaryWithDefault
340
13
  0
ACDBPLACEHOLDER
  5
13
330
12
  0
DICTIONARY
  5
14
330
A
100
AcDbDictionary
280
0
281
1
  0
DICTIONARY
  5
15
330
A
100
AcDbDictionary
280
0
281
1
  0
DICTIONARY
  5
16
330
A
100
AcDbDictionary
280
0
281
1
  0
LAYOUT
  5
1A
330
D
100
AcDbPlotSettings
  1

  2
Adobe PDF
  4
A3
  6

 40
7.5
 41
20.0
 42
7.5
 43
20.0
 44
420.0
 45
297.0
 46
0.0
 47
0.0
 48
0.0
 49
0.0
140
0.0
141
0.0
142
1.0
143
1.0
 70
1024
 72
1
 73
0
 74
5
  7

 75
16
 76
0
 77
2
 78
300
147
1.0
148
0.0
149
0.0
100
AcDbLayout
  1
Model
 70
1
 71
0
 10
0.0
 20
0.0
 11
420.0
 21
297.0
 12
0.0
 22
0.0
 32
0.0
 14
1e+20
 24
1e+20
 34
1e+20
 15
-1e+20
 25
-1e+20
 35
-1e+20
146
0.0
 13
0.0
 23
0.0
 33
0.0
 16
1.0
 26
0.0
 36
0.0
 17
0.0
 27
1.0
 37
0.0
 76
1
330
17
  0
LAYOUT
  5
1E
330
D
100
AcDbPlotSettings
  1

  2
Adobe PDF
  4
A3
  6

 40
7.5
 41
20.0
 42
7.5
 43
20.0
 44
420.0
 45
297.0
 46
0.0
 47
0.0
 48
0.0
 49
0.0
140
0.0
141
0.0
142
1.0
143
1.0
 70
0
 72
1
 73
0
 74
5
  7

 75
16
 76
0
 77
2
 78
300
147
1.0
148
0.0
149
0.0
100
AcDbLayout
  1
Layout1
 70
1
 71
1
 10
0.0
 20
0.0
 11
420.0
 21
297.0
 12
0.0
 22
0.0
 32
0.0
 14
1e+20
 24
1e+20
 34
1e+20
 15
-1e+20
 25
-1e+20
 35
-1e+20
146
0.0
 13
0.0
 23
0.0
 33
0.0
 16
1.0
 26
0.0
 36
0.0
 17
0.0
 27
1.0
 37
0.0
 76
1
330
1B
  0
MATERIAL
  5
1F
102
{ACAD_REACTORS
330
E
102
}
330
E
100
AcDbMaterial
  1
ByBlock
  2

 70
0
 40
1.0
 71
1
 41
1.0
 91
-1023410177
 42
1.0
 72
1
  3

 73
1
 74
1
 75
1
 44
0.5
 73
0
 45
1.0
 46
1.0
 77
1
  4

 78
1
 79
1
170
1
 48
1.0
171
1
  6

172
1
173
1
174
1
140
1.0
141
1.0
175
1
  7

176
1
177
1
178
1
143
1.0
179
1
  8

270
1
271
1
272
1
145
1.0
146
1.0
273
1
  9

274
1
275
1
276
1
 42
1.0
 72
1
  3

 73
1
 74
1
 75
1
 94
63
  0
MATERIAL
  5
20
102
{ACAD_REACTORS
330
E
102
}
330
E
100
AcDbMaterial
  1
ByLayer
  2

 70
0
 40
1.0
 71
1
 41
1.0
 91
-1023410177
 42
1.0
 72
1
  3

 73
1
 74
1
 75
1
 44
0.5
 73
0
 45
1.0
 46
1.0
 77
1
  4

 78
1
 79
1
170
1
 48
1.0
171
1
  6

172
1
173
1
174
1
140
1.0
141
1.0
175
1
  7

176
1
177
1
178
1
143
1.0
179
1
  8

270
1
271
1
272
1
145
1.0
146
1.0
273
1
  9

274
1
275
1
276
1
 42
1.0
 72
1
  3

 73
1
 74
1
 75
1
 94
63
  0
MATERIAL
  5
21
102
{ACAD_REACTORS
330
E
102
}
330
E
100
AcDbMaterial
  1
Global
  2

 70
0
 40
1.0
 71
1
 41
1.0
 91
-1023410177
 42
1.0
 72
1
  3

 73
1
 74
1
 75
1
 44
0.5
 73
0
 45
1.0
 46
1.0
 77
1
  4

 78
1
 79
1
170
1
 48
1.0
171
1
  6

172
1
173
1
174
1
140
1.0
141
1.0
175
1
  7

176
1
177
1
178
1
143
1.0
179
1
  8

270
1
271
1
272
1
145
1.0
146
1.0
273
1
  9

274
1
275
1
276
1
 42
1.0
 72
1
  3

 73
1
 74
1
 75
1
 94
63
  0
MLINESTYLE
  5
22
102
{ACAD_REACTORS
330
10
102
}
330
10
100
AcDbMlineStyle
  2
Standard
 70
0
  3

 62
256
 51
90.0
 52
90.0
 71
2
 49
0.5
 62
256
  6
BYLAYER
 49
-0.5
 62
256
  6
BYLAYER
  0
MLEADERSTYLE
  5
2C
102
{ACAD_REACTORS
330
F
102
}
330
F
100
AcDbMLeaderStyle
179
2
170
2
171
1
172
0
 90
2
 40
0.0
 41
0.0
173
1
 91
-1056964608
 92
-2
290
1
 42
2.0
291
1
 43
8.0
  3
Standard
 44
4.0
300

342
29
174
1
175
1
176
0
178
1
 93
-1056964608
 45
4.0
292
0
297
0
 46
4.0
 94
-1056964608
 47
1.0
 49
1.0
140
1.0
294
1
141
0.0
177
0
142
1.0
295
0
296
0
143
3.75
271
0
272
9
273
9
  0
DICTIONARY
  5
2D
330
A
100
AcDbDictionary
281
1
  3
CREATED_BY_EZDXF
350
2E
  3
WRITTEN_BY_EZDXF
350
3B
  0
DICTIONARYVAR
  5
2E
330
2D
100
DictionaryVariables
280
0
  1
1.0.3 @ 2025-05-29T09:38:57.663170+00:00
  0
DICTIONARYVAR
  5
3B
330
2D
100
DictionaryVariables
280
0
  1
1.0.3 @ 2025-05-29T09:38:57.665702+00:00
  0
ENDSEC
  0
EOF
