  0
SECTION
  2
HEADER
  9
$ACADVER
  1
AC1027
  9
$ACADMAINTVER
 70
105
  9
$DWGCODEPAGE
  3
ANSI_1252
  9
$LASTSAVEDBY
  1
ezdxf
  9
$REQUIREDVERSIONS
160
0
  9
$INSBASE
 10
0.0
 20
0.0
 30
0.0
  9
$EXTMIN
 10
1e+20
 20
1e+20
 30
1e+20
  9
$EXTMAX
 10
-1e+20
 20
-1e+20
 30
-1e+20
  9
$LIMMIN
 10
0.0
 20
0.0
  9
$LIMMAX
 10
420.0
 20
297.0
  9
$ORTHOMODE
 70
0
  9
$REGENMODE
 70
1
  9
$FILLMODE
 70
1
  9
$QTEXTMODE
 70
0
  9
$MIRRTEXT
 70
1
  9
$LTSCALE
 40
1.0
  9
$ATTMODE
 70
1
  9
$TEXTSIZE
 40
2.5
  9
$TRACEWID
 40
1.0
  9
$TEXTSTYLE
  7
Standard
  9
$CLAYER
  8
0
  9
$CELTYPE
  6
ByLayer
  9
$CECOLOR
 62
256
  9
$CELTSCALE
 40
1.0
  9
$DISPSILH
 70
0
  9
$DIMSCALE
 40
1.0
  9
$DIMASZ
 40
2.5
  9
$DIMEXO
 40
0.625
  9
$DIMDLI
 40
3.75
  9
$DIMRND
 40
0.0
  9
$DIMDLE
 40
0.0
  9
$DIMEXE
 40
1.25
  9
$DIMTP
 40
0.0
  9
$DIMTM
 40
0.0
  9
$DIMTXT
 40
2.5
  9
$DIMCEN
 40
2.5
  9
$DIMTSZ
 40
0.0
  9
$DIMTOL
 70
0
  9
$DIMLIM
 70
0
  9
$DIMTIH
 70
0
  9
$DIMTOH
 70
0
  9
$DIMSE1
 70
0
  9
$DIMSE2
 70
0
  9
$DIMTAD
 70
1
  9
$DIMZIN
 70
8
  9
$DIMBLK
  1

  9
$DIMASO
 70
1
  9
$DIMSHO
 70
1
  9
$DIMPOST
  1

  9
$DIMAPOST
  1

  9
$DIMALT
 70
0
  9
$DIMALTD
 70
3
  9
$DIMALTF
 40
0.03937007874
  9
$DIMLFAC
 40
1.0
  9
$DIMTOFL
 70
1
  9
$DIMTVP
 40
0.0
  9
$DIMTIX
 70
0
  9
$DIMSOXD
 70
0
  9
$DIMSAH
 70
0
  9
$DIMBLK1
  1

  9
$DIMBLK2
  1

  9
$DIMSTYLE
  2
ISO-25
  9
$DIMCLRD
 70
0
  9
$DIMCLRE
 70
0
  9
$DIMCLRT
 70
0
  9
$DIMTFAC
 40
1.0
  9
$DIMGAP
 40
0.625
  9
$DIMJUST
 70
0
  9
$DIMSD1
 70
0
  9
$DIMSD2
 70
0
  9
$DIMTOLJ
 70
0
  9
$DIMTZIN
 70
8
  9
$DIMALTZ
 70
0
  9
$DIMALTTZ
 70
0
  9
$DIMUPT
 70
0
  9
$DIMDEC
 70
2
  9
$DIMTDEC
 70
2
  9
$DIMALTU
 70
2
  9
$DIMALTTD
 70
3
  9
$DIMTXSTY
  7
Standard
  9
$DIMAUNIT
 70
0
  9
$DIMADEC
 70
0
  9
$DIMALTRND
 40
0.0
  9
$DIMAZIN
 70
0
  9
$DIMDSEP
 70
44
  9
$DIMATFIT
 70
3
  9
$DIMFRAC
 70
0
  9
$DIMLDRBLK
  1

  9
$DIMLUNIT
 70
2
  9
$DIMLWD
 70
-2
  9
$DIMLWE
 70
-2
  9
$DIMTMOVE
 70
0
  9
$DIMFXL
 40
1.0
  9
$DIMFXLON
 70
0
  9
$DIMJOGANG
 40
0.785398163397
  9
$DIMTFILL
 70
0
  9
$DIMTFILLCLR
 70
0
  9
$DIMARCSYM
 70
0
  9
$DIMLTYPE
  6

  9
$DIMLTEX1
  6

  9
$DIMLTEX2
  6

  9
$DIMTXTDIRECTION
 70
0
  9
$LUNITS
 70
2
  9
$LUPREC
 70
4
  9
$SKETCHINC
 40
1.0
  9
$FILLETRAD
 40
10.0
  9
$AUNITS
 70
0
  9
$AUPREC
 70
2
  9
$MENU
  1
.
  9
$ELEVATION
 40
0.0
  9
$PELEVATION
 40
0.0
  9
$THICKNESS
 40
0.0
  9
$LIMCHECK
 70
0
  9
$CHAMFERA
 40
0.0
  9
$CHAMFERB
 40
0.0
  9
$CHAMFERC
 40
0.0
  9
$CHAMFERD
 40
0.0
  9
$SKPOLY
 70
0
  9
$TDCREATE
 40
2460825.777083333
  9
$TDUCREATE
 40
2458532.153996898
  9
$TDUPDATE
 40
2460825.777083333
  9
$TDUUPDATE
 40
2458532.1544311
  9
$TDINDWG
 40
0.0
  9
$TDUSRTIMER
 40
0.0
  9
$USRTIMER
 70
1
  9
$ANGBASE
 50
0.0
  9
$ANGDIR
 70
0
  9
$PDMODE
 70
0
  9
$PDSIZE
 40
0.0
  9
$PLINEWID
 40
0.0
  9
$SPLFRAME
 70
0
  9
$SPLINETYPE
 70
6
  9
$SPLINESEGS
 70
8
  9
$HANDSEED
  5
40
  9
$SURFTAB1
 70
6
  9
$SURFTAB2
 70
6
  9
$SURFTYPE
 70
6
  9
$SURFU
 70
6
  9
$SURFV
 70
6
  9
$UCSBASE
  2

  9
$UCSNAME
  2

  9
$UCSORG
 10
0.0
 20
0.0
 30
0.0
  9
$UCSXDIR
 10
1.0
 20
0.0
 30
0.0
  9
$UCSYDIR
 10
0.0
 20
1.0
 30
0.0
  9
$UCSORTHOREF
  2

  9
$UCSORTHOVIEW
 70
0
  9
$UCSORGTOP
 10
0.0
 20
0.0
 30
0.0
  9
$UCSORGBOTTOM
 10
0.0
 20
0.0
 30
0.0
  9
$UCSORGLEFT
 10
0.0
 20
0.0
 30
0.0
  9
$UCSORGRIGHT
 10
0.0
 20
0.0
 30
0.0
  9
$UCSORGFRONT
 10
0.0
 20
0.0
 30
0.0
  9
$UCSORGBACK
 10
0.0
 20
0.0
 30
0.0
  9
$PUCSBASE
  2

  9
$PUCSNAME
  2

  9
$PUCSORG
 10
0.0
 20
0.0
 30
0.0
  9
$PUCSXDIR
 10
1.0
 20
0.0
 30
0.0
  9
$PUCSYDIR
 10
0.0
 20
1.0
 30
0.0
  9
$PUCSORTHOREF
  2

  9
$PUCSORTHOVIEW
 70
0
  9
$PUCSORGTOP
 10
0.0
 20
0.0
 30
0.0
  9
$PUCSORGBOTTOM
 10
0.0
 20
0.0
 30
0.0
  9
$PUCSORGLEFT
 10
0.0
 20
0.0
 30
0.0
  9
$PUCSORGRIGHT
 10
0.0
 20
0.0
 30
0.0
  9
$PUCSORGFRONT
 10
0.0
 20
0.0
 30
0.0
  9
$PUCSORGBACK
 10
0.0
 20
0.0
 30
0.0
  9
$USERI1
 70
0
  9
$USERI2
 70
0
  9
$USERI3
 70
0
  9
$USERI4
 70
0
  9
$USERI5
 70
0
  9
$USERR1
 40
0.0
  9
$USERR2
 40
0.0
  9
$USERR3
 40
0.0
  9
$USERR4
 40
0.0
  9
$USERR5
 40
0.0
  9
$WORLDVIEW
 70
1
  9
$SHADEDGE
 70
3
  9
$SHADEDIF
 70
70
  9
$TILEMODE
 70
1
  9
$MAXACTVP
 70
64
  9
$PINSBASE
 10
0.0
 20
0.0
 30
0.0
  9
$PLIMCHECK
 70
0
  9
$PEXTMIN
 10
1e+20
 20
1e+20
 30
1e+20
  9
$PEXTMAX
 10
-1e+20
 20
-1e+20
 30
-1e+20
  9
$PLIMMIN
 10
0.0
 20
0.0
  9
$PLIMMAX
 10
420.0
 20
297.0
  9
$UNITMODE
 70
0
  9
$VISRETAIN
 70
1
  9
$PLINEGEN
 70
0
  9
$PSLTSCALE
 70
1
  9
$TREEDEPTH
 70
3020
  9
$CMLSTYLE
  2
Standard
  9
$CMLJUST
 70
0
  9
$CMLSCALE
 40
20.0
  9
$PROXYGRAPHICS
 70
1
  9
$MEASUREMENT
 70
1
  9
$CELWEIGHT
370
-1
  9
$ENDCAPS
280
0
  9
$JOINSTYLE
280
0
  9
$LWDISPLAY
290
0
  9
$INSUNITS
 70
6
  9
$HYPERLINKBASE
  1

  9
$STYLESHEET
  1

  9
$XEDIT
290
1
  9
$CEPSNTYPE
380
0
  9
$PSTYLEMODE
290
1
  9
$FINGERPRINTGUID
  2
{69333C5B-ABF8-4002-8FE3-53D64363B9C9}
  9
$VERSIONGUID
  2
{31CBA397-08D3-4941-85C1-00360CD28AFE}
  9
$EXTNAMES
290
1
  9
$PSVPSCALE
 40
0.0
  9
$OLESTARTUP
290
0
  9
$SORTENTS
280
127
  9
$INDEXCTL
280
0
  9
$HIDETEXT
280
1
  9
$XCLIPFRAME
280
0
  9
$HALOGAP
280
0
  9
$OBSCOLOR
 70
257
  9
$OBSLTYPE
280
0
  9
$INTERSECTIONDISPLAY
280
0
  9
$INTERSECTIONCOLOR
 70
257
  9
$DIMASSOC
280
2
  9
$PROJECTNAME
  1

  9
$CAMERADISPLAY
290
0
  9
$LENSLENGTH
 40
50.0
  9
$CAMERAHEIGHT
 40
0.0
  9
$STEPSPERSEC
 40
24.0
  9
$STEPSIZE
 40
100.0
  9
$3DDWFPREC
 40
2.0
  9
$PSOLWIDTH
 40
0.005
  9
$PSOLHEIGHT
 40
0.08
  9
$LOFTANG1
 40
1.570796326795
  9
$LOFTANG2
 40
1.570796326795
  9
$LOFTMAG1
 40
0.0
  9
$LOFTMAG2
 40
0.0
  9
$LOFTPARAM
 70
7
  9
$LOFTNORMALS
280
1
  9
$LATITUDE
 40
37.795
  9
$LONGITUDE
 40
-122.394
  9
$NORTHDIRECTION
 40
0.0
  9
$TIMEZONE
 70
-8000
  9
$LIGHTGLYPHDISPLAY
280
1
  9
$TILEMODELIGHTSYNCH
280
1
  9
$CMATERIAL
347
20
  9
$SOLIDHIST
280
0
  9
$SHOWHIST
280
1
  9
$DWFFRAME
280
2
  9
$DGNFRAME
280
2
  9
$REALWORLDSCALE
290
1
  9
$INTERFERECOLOR
 62
256
  9
$CSHADOW
280
0
  9
$SHADOWPLANELOCATION
 40
0.0
  0
ENDSEC
  0
SECTION
  2
CLASSES
  0
CLASS
  1
ACDBDICTIONARYWDFLT
  2
AcDbDictionaryWithDefault
  3
ObjectDBX Classes
 90
0
 91
0
280
0
281
0
  0
CLASS
  1
SUN
  2
AcDbSun
  3
SCENEOE
 90
1153
 91
0
280
0
281
0
  0
CLASS
  1
VISUALSTYLE
  2
AcDbVisualStyle
  3
ObjectDBX Classes
 90
4095
 91
0
280
0
281
0
  0
CLASS
  1
MATERIAL
  2
AcDbMaterial
  3
ObjectDBX Classes
 90
1153
 91
0
280
0
281
0
  0
CLASS
  1
SCALE
  2
AcDbScale
  3
ObjectDBX Classes
 90
1153
 91
0
280
0
281
0
  0
CLASS
  1
TABLESTYLE
  2
AcDbTableStyle
  3
ObjectDBX Classes
 90
4095
 91
0
280
0
281
0
  0
CLASS
  1
MLEADERSTYLE
  2
AcDbMLeaderStyle
  3
ACDB_MLEADERSTYLE_CLASS
 90
4095
 91
0
280
0
281
0
  0
CLASS
  1
DICTIONARYVAR
  2
AcDbDictionaryVar
  3
ObjectDBX Classes
 90
0
 91
0
280
0
281
0
  0
CLASS
  1
CELLSTYLEMAP
  2
AcDbCellStyleMap
  3
ObjectDBX Classes
 90
1152
 91
0
280
0
281
0
  0
CLASS
  1
MENTALRAYRENDERSETTINGS
  2
AcDbMentalRayRenderSettings
  3
SCENEOE
 90
1024
 91
0
280
0
281
0
  0
CLASS
  1
ACDBDETAILVIEWSTYLE
  2
AcDbDetailViewStyle
  3
ObjectDBX Classes
 90
1025
 91
0
280
0
281
0
  0
CLASS
  1
ACDBSECTIONVIEWSTYLE
  2
AcDbSectionViewStyle
  3
ObjectDBX Classes
 90
1025
 91
0
280
0
281
0
  0
CLASS
  1
RASTERVARIABLES
  2
AcDbRasterVariables
  3
ISM
 90
0
 91
0
280
0
281
0
  0
CLASS
  1
LAYOUT
  2
AcDbLayout
  3
ObjectDBX Classes
 90
0
 91
0
280
0
281
0
  0
CLASS
  1
ACDBPLACEHOLDER
  2
AcDbPlaceHolder
  3
ObjectDBX Classes
 90
0
 91
0
280
0
281
0
  0
ENDSEC
  0
SECTION
  2
TABLES
  0
TABLE
  2
VPORT
  5
8
330
0
100
AcDbSymbolTable
 70
1
  0
VPORT
  5
23
330
8
100
AcDbSymbolTableRecord
100
AcDbViewportTableRecord
  2
*Active
 70
0
 10
0.0
 20
0.0
 11
1.0
 21
1.0
 12
0.0
 22
0.0
 13
0.0
 23
0.0
 14
0.5
 24
0.5
 15
0.5
 25
0.5
 16
0.0
 26
0.0
 36
1.0
 17
0.0
 27
0.0
 37
0.0
 40
1000.0
 41
1.34
 42
50.0
 43
0.0
 44
0.0
 50
0.0
 51
0.0
 71
0
 72
1000
 73
1
 74
3
 75
0
 76
0
 77
0
 78
0
281
0
 65
0
146
0.0
  0
ENDTAB
  0
TABLE
  2
LTYPE
  5
2
330
0
100
AcDbSymbolTable
 70
3
  0
LTYPE
  5
24
330
2
100
AcDbSymbolTableRecord
100
AcDbLinetypeTableRecord
  2
ByBlock
 70
0
  3

 72
65
 73
0
 40
0.0
  0
LTYPE
  5
25
330
2
100
AcDbSymbolTableRecord
100
AcDbLinetypeTableRecord
  2
ByLayer
 70
0
  3

 72
65
 73
0
 40
0.0
  0
LTYPE
  5
26
330
2
100
AcDbSymbolTableRecord
100
AcDbLinetypeTableRecord
  2
Continuous
 70
0
  3

 72
65
 73
0
 40
0.0
  0
ENDTAB
  0
TABLE
  2
LAYER
  5
1
330
0
100
AcDbSymbolTable
 70
2
  0
LAYER
  5
27
330
1
100
AcDbSymbolTableRecord
100
AcDbLayerTableRecord
  2
0
 70
0
 62
7
  6
Continuous
370
-3
390
13
347
21
  0
LAYER
  5
28
330
1
100
AcDbSymbolTableRecord
100
AcDbLayerTableRecord
  2
Defpoints
 70
0
 62
7
  6
Continuous
290
0
370
-3
390
13
347
21
  0
ENDTAB
  0
TABLE
  2
STYLE
  5
5
330
0
100
AcDbSymbolTable
 70
1
  0
STYLE
  5
29
330
5
100
AcDbSymbolTableRecord
100
AcDbTextStyleTableRecord
  2
Standard
 70
0
 40
0.0
 41
1.0
 50
0.0
 71
0
 42
2.5
  3
txt
  4

  0
ENDTAB
  0
TABLE
  2
VIEW
  5
7
330
0
100
AcDbSymbolTable
 70
0
  0
ENDTAB
  0
TABLE
  2
UCS
  5
6
330
0
100
AcDbSymbolTable
 70
0
  0
ENDTAB
  0
TABLE
  2
APPID
  5
3
330
0
100
AcDbSymbolTable
 70
3
  0
APPID
  5
2A
330
3
100
AcDbSymbolTableRecord
100
AcDbRegAppTableRecord
  2
ACAD
 70
0
  0
APPID
  5
3D
330
3
100
AcDbSymbolTableRecord
100
AcDbRegAppTableRecord
  2
HATCHBACKGROUNDCOLOR
 70
0
  0
APPID
  5
3E
330
3
100
AcDbSymbolTableRecord
100
AcDbRegAppTableRecord
  2
EZDXF
 70
0
  0
ENDTAB
  0
TABLE
  2
DIMSTYLE
  5
4
330
0
100
AcDbSymbolTable
 70
1
100
AcDbDimStyleTable
  0
DIMSTYLE
105
2B
330
4
100
AcDbSymbolTableRecord
100
AcDbDimStyleTableRecord
  2
Standard
 70
0
 40
1.0
 41
2.5
 42
0.625
 43
3.75
 44
1.25
 45
0.0
 46
0.0
 47
0.0
 48
0.0
 49
2.5
140
2.5
141
2.5
142
0.0
143
0.03937007874
144
1.0
145
0.0
146
1.0
147
0.625
148
0.0
 69
0
 70
0
 71
0
 72
0
 73
0
 74
0
 75
0
 76
0
 77
1
 78
8
 79
3
170
0
171
3
172
1
173
0
174
0
175
0
176
0
177
0
178
0
179
2
271
2
272
2
273
2
274
3
275
0
276
0
277
2
278
44
279
0
280
0
281
0
282
0
283
0
284
8
285
0
286
0
288
0
289
3
290
0
371
-2
372
-2
  0
ENDTAB
  0
TABLE
  2
BLOCK_RECORD
  5
9
330
0
100
AcDbSymbolTable
 70
2
  0
BLOCK_RECORD
  5
17
330
9
100
AcDbSymbolTableRecord
100
AcDbBlockTableRecord
  2
*Model_Space
340
1A
 70
0
280
1
281
0
  0
BLOCK_RECORD
  5
1B
330
9
100
AcDbSymbolTableRecord
100
AcDbBlockTableRecord
  2
*Paper_Space
340
1E
 70
0
280
1
281
0
  0
ENDTAB
  0
ENDSEC
  0
SECTION
  2
BLOCKS
  0
BLOCK
  5
18
330
17
100
AcDbEntity
  8
0
100
AcDbBlockBegin
  2
*Model_Space
 70
0
 10
0.0
 20
0.0
 30
0.0
  3
*Model_Space
  1

  0
ENDBLK
  5
19
330
17
100
AcDbEntity
  8
0
100
AcDbBlockEnd
  0
BLOCK
  5
1C
330
1B
100
AcDbEntity
  8
0
100
AcDbBlockBegin
  2
*Paper_Space
 70
0
 10
0.0
 20
0.0
 30
0.0
  3
*Paper_Space
  1

  0
ENDBLK
  5
1D
330
1B
100
AcDbEntity
  8
0
100
AcDbBlockEnd
  0
ENDSEC
  0
SECTION
  2
ENTITIES
  0
LWPOLYLINE
  5
2F
330
17
100
AcDbEntity
  8
0
100
AcDbPolyline
 90
51
 70
0
 10
-23.6
 20
-5.000000000000011
 10
-23.6
 20
-4.900000000000009
 10
-23.6
 20
-4.800000000000011
 10
-23.6
 20
-4.70000000000001
 10
-23.6
 20
-4.6000000000000085
 10
-23.6
 20
-4.500000000000011
 10
-23.6
 20
-4.400000000000009
 10
-23.6
 20
-4.300000000000008
 10
-23.6
 20
-4.20000000000001
 10
-23.6
 20
-4.1000000000000085
 10
-23.6
 20
-4.000000000000007
 10
-23.6
 20
-3.9000000000000092
 10
-23.6
 20
-3.800000000000008
 10
-23.6
 20
-3.7000000000000064
 10
-23.6
 20
-3.6000000000000085
 10
-23.6
 20
-3.500000000000007
 10
-23.6
 20
-3.4000000000000057
 10
-23.6
 20
-3.300000000000008
 10
-23.6
 20
-3.2000000000000064
 10
-23.6
 20
-3.1000000000000085
 10
-23.6
 20
-3.000000000000007
 10
-23.6
 20
-2.9000000000000057
 10
-23.6
 20
-2.8000000000000043
 10
-23.6
 20
-2.7000000000000064
 10
-23.6
 20
-2.600000000000005
 10
-23.6
 20
-2.500000000000007
 10
-23.6
 20
-2.4000000000000057
 10
-23.6
 20
-2.3000000000000043
 10
-23.6
 20
-2.2000000000000064
 10
-23.6
 20
-2.100000000000005
 10
-23.6
 20
-2.0000000000000036
 10
-23.6
 20
-1.9000000000000057
 10
-23.6
 20
-1.8000000000000043
 10
-23.6
 20
-1.7000000000000028
 10
-23.6
 20
-1.6000000000000014
 10
-23.6
 20
-1.5000000000000036
 10
-23.6
 20
-1.4000000000000021
 10
-23.6
 20
-1.3000000000000043
 10
-23.6
 20
-1.2000000000000028
 10
-23.6
 20
-1.1000000000000014
 10
-23.6
 20
-1.0
 10
-23.6
 20
-0.9000000000000021
 10
-23.6
 20
-0.8000000000000007
 10
-23.6
 20
-0.7000000000000028
 10
-23.6
 20
-0.6000000000000014
 10
-23.6
 20
-0.5
 10
-23.6
 20
-0.40000000000000213
 10
-23.6
 20
-0.3000000000000007
 10
-23.6
 20
-0.1999999999999993
 10
-23.6
 20
-0.10000000000000142
 10
-23.6
 20
0.0
  0
LWPOLYLINE
  5
30
330
17
100
AcDbEntity
  8
0
100
AcDbPolyline
 90
51
 70
0
 10
-9.6
 20
-5.0
 10
-9.6
 20
-4.899999999999999
 10
-9.6
 20
-4.800000000000001
 10
-9.6
 20
-4.699999999999999
 10
-9.6
 20
-4.600000000000001
 10
-9.6
 20
-4.5
 10
-9.6
 20
-4.399999999999999
 10
-9.6
 20
-4.300000000000001
 10
-9.6
 20
-4.199999999999999
 10
-9.6
 20
-4.100000000000001
 10
-9.6
 20
-4.0
 10
-9.6
 20
-3.8999999999999986
 10
-9.6
 20
-3.8000000000000007
 10
-9.6
 20
-3.6999999999999993
 10
-9.6
 20
-3.6000000000000014
 10
-9.6
 20
-3.5
 10
-9.6
 20
-3.3999999999999986
 10
-9.6
 20
-3.3000000000000007
 10
-9.6
 20
-3.1999999999999993
 10
-9.6
 20
-3.1000000000000014
 10
-9.6
 20
-3.0
 10
-9.6
 20
-2.8999999999999986
 10
-9.6
 20
-2.8000000000000007
 10
-9.6
 20
-2.6999999999999993
 10
-9.6
 20
-2.6000000000000014
 10
-9.6
 20
-2.5
 10
-9.6
 20
-2.3999999999999986
 10
-9.6
 20
-2.3000000000000007
 10
-9.6
 20
-2.1999999999999993
 10
-9.6
 20
-2.1000000000000014
 10
-9.6
 20
-2.0
 10
-9.6
 20
-1.8999999999999986
 10
-9.6
 20
-1.8000000000000007
 10
-9.6
 20
-1.6999999999999993
 10
-9.6
 20
-1.6000000000000014
 10
-9.6
 20
-1.5
 10
-9.6
 20
-1.3999999999999986
 10
-9.6
 20
-1.3000000000000007
 10
-9.6
 20
-1.1999999999999993
 10
-9.6
 20
-1.1000000000000014
 10
-9.6
 20
-1.0
 10
-9.6
 20
-0.8999999999999986
 10
-9.6
 20
-0.8000000000000007
 10
-9.6
 20
-0.6999999999999993
 10
-9.6
 20
-0.6000000000000014
 10
-9.6
 20
-0.5
 10
-9.6
 20
-0.3999999999999986
 10
-9.6
 20
-0.3000000000000007
 10
-9.6
 20
-0.1999999999999993
 10
-9.6
 20
-0.10000000000000142
 10
-9.6
 20
0.0
  0
LWPOLYLINE
  5
31
330
17
100
AcDbEntity
  8
0
100
AcDbPolyline
 90
51
 70
0
 10
-23.6
 20
-5.000000000000003
 10
-23.550858707876376
 20
-5.000000000000003
 10
-23.50171741575275
 20
-5.000000000000003
 10
-23.452576123629125
 20
-5.000000000000003
 10
-23.362369788078066
 20
-5.000000000000003
 10
-23.217410061290433
 20
-5.000000000000003
 10
-23.0724503345028
 20
-5.000000000000002
 10
-22.92749060771517
 20
-5.000000000000002
 10
-22.706631267787163
 20
-5.000000000000002
 10
-22.47312199233576
 20
-5.000000000000002
 10
-22.239612716884356
 20
-5.000000000000002
 10
-21.984149036135005
 20
-5.000000000000002
 10
-21.673799342140782
 20
-5.000000000000002
 10
-21.363449648146563
 20
-5.000000000000002
 10
-21.053099954152344
 20
-5.000000000000002
 10
-20.69898012517349
 20
-5.000000000000002
 10
-20.327352242200785
 20
-5.000000000000002
 10
-19.955724359228082
 20
-5.000000000000001
 10
-19.57800458837776
 20
-5.000000000000001
 10
-19.163733490261723
 20
-5.000000000000001
 10
-18.749462392145684
 20
-5.000000000000001
 10
-18.335191294029645
 20
-5.000000000000001
 10
-17.90842309166313
 20
-5.000000000000001
 10
-17.472282061108753
 20
-5.000000000000001
 10
-17.03614103055438
 20
-5.0
 10
-16.6
 20
-5.0
 10
-16.163858969445624
 20
-5.0
 10
-15.72771793889125
 20
-4.999999999999999
 10
-15.291576908336873
 20
-4.999999999999999
 10
-14.864808705970356
 20
-4.999999999999999
 10
-14.45053760785432
 20
-4.999999999999999
 10
-14.036266509738281
 20
-4.999999999999999
 10
-13.621995411622242
 20
-4.999999999999999
 10
-13.244275640771919
 20
-4.999999999999999
 10
-12.872647757799214
 20
-4.999999999999998
 10
-12.501019874826511
 20
-4.999999999999998
 10
-12.14690004584766
 20
-4.999999999999998
 10
-11.83655035185344
 20
-4.999999999999998
 10
-11.52620065785922
 20
-4.999999999999998
 10
-11.215850963865
 20
-4.999999999999998
 10
-10.960387283115649
 20
-4.999999999999998
 10
-10.726878007664247
 20
-4.999999999999998
 10
-10.493368732212842
 20
-4.999999999999998
 10
-10.272509392284835
 20
-4.999999999999998
 10
-10.127549665497202
 20
-4.999999999999998
 10
-9.98258993870957
 20
-4.999999999999997
 10
-9.837630211921937
 20
-4.999999999999997
 10
-9.747423876370878
 20
-4.999999999999997
 10
-9.698282584247252
 20
-4.999999999999997
 10
-9.649141292123627
 20
-4.999999999999997
 10
-9.600000000000001
 20
-4.999999999999997
  0
LWPOLYLINE
  5
32
330
17
100
AcDbEntity
  8
0
100
AcDbPolyline
 90
51
 70
0
 10
-9.600000000000001
 20
0.0
 10
-9.649141292123627
 20
0.0
 10
-9.698282584247252
 20
0.0
 10
-9.747423876370878
 20
0.0
 10
-9.837630211921937
 20
0.0
 10
-9.982589938709568
 20
0.0
 10
-10.1275496654972
 20
0.0
 10
-10.272509392284833
 20
0.0
 10
-10.49336873221284
 20
0.0
 10
-10.726878007664245
 20
0.0
 10
-10.960387283115647
 20
0.0
 10
-11.215850963864996
 20
0.0
 10
-11.52620065785922
 20
0.0
 10
-11.83655035185344
 20
0.0
 10
-12.146900045847662
 20
0.0
 10
-12.501019874826511
 20
0.0
 10
-12.872647757799212
 20
0.0
 10
-13.24427564077192
 20
0.0
 10
-13.62199541162224
 20
0.0
 10
-14.036266509738281
 20
0.0
 10
-14.450537607854317
 20
0.0
 10
-14.864808705970352
 20
0.0
 10
-15.291576908336873
 20
0.0
 10
-15.727717938891248
 20
0.0
 10
-16.163858969445627
 20
0.0
 10
-16.6
 20
0.0
 10
-17.036141030554376
 20
0.0
 10
-17.472282061108753
 20
0.0
 10
-17.908423091663128
 20
0.0
 10
-18.33519129402965
 20
0.0
 10
-18.749462392145684
 20
0.0
 10
-19.16373349026172
 20
0.0
 10
-19.578004588377762
 20
0.0
 10
-19.955724359228086
 20
0.0
 10
-20.32735224220079
 20
0.0
 10
-20.69898012517349
 20
0.0
 10
-21.05309995415234
 20
0.0
 10
-21.363449648146563
 20
0.0
 10
-21.673799342140782
 20
0.0
 10
-21.984149036135005
 20
0.0
 10
-22.239612716884352
 20
0.0
 10
-22.473121992335756
 20
0.0
 10
-22.70663126778716
 20
0.0
 10
-22.927490607715164
 20
0.0
 10
-23.0724503345028
 20
0.0
 10
-23.217410061290433
 20
0.0
 10
-23.362369788078066
 20
0.0
 10
-23.452576123629125
 20
0.0
 10
-23.50171741575275
 20
0.0
 10
-23.550858707876376
 20
0.0
 10
-23.6
 20
0.0
  0
LWPOLYLINE
  5
33
330
17
100
AcDbEntity
  8
0
100
AcDbPolyline
 90
51
 70
0
 10
48.6
 20
-22.0
 10
48.6
 20
-21.56
 10
48.6
 20
-21.12
 10
48.6
 20
-20.68
 10
48.6
 20
-20.24
 10
48.6
 20
-19.8
 10
48.6
 20
-19.36
 10
48.6
 20
-18.92
 10
48.6
 20
-18.48
 10
48.6
 20
-18.04
 10
48.6
 20
-17.6
 10
48.6
 20
-17.16
 10
48.6
 20
-16.72
 10
48.6
 20
-16.28
 10
48.6
 20
-15.84
 10
48.6
 20
-15.4
 10
48.6
 20
-14.96
 10
48.6
 20
-14.52
 10
48.6
 20
-14.08
 10
48.6
 20
-13.64
 10
48.6
 20
-13.2
 10
48.6
 20
-12.76
 10
48.6
 20
-12.32
 10
48.6
 20
-11.88
 10
48.6
 20
-11.44
 10
48.6
 20
-11.0
 10
48.6
 20
-10.56
 10
48.6
 20
-10.12
 10
48.6
 20
-9.68
 10
48.6
 20
-9.24
 10
48.6
 20
-8.8
 10
48.6
 20
-8.36
 10
48.6
 20
-7.92
 10
48.6
 20
-7.48
 10
48.6
 20
-7.039999999999999
 10
48.6
 20
-6.6
 10
48.6
 20
-6.16
 10
48.6
 20
-5.719999999999999
 10
48.6
 20
-5.280000000000001
 10
48.6
 20
-4.84
 10
48.6
 20
-4.399999999999999
 10
48.6
 20
-3.960000000000001
 10
48.6
 20
-3.5199999999999996
 10
48.6
 20
-3.0799999999999983
 10
48.6
 20
-2.6400000000000006
 10
48.6
 20
-2.1999999999999993
 10
48.6
 20
-1.7600000000000016
 10
48.6
 20
-1.3200000000000003
 10
48.6
 20
-0.879999999999999
 10
48.6
 20
-0.4400000000000013
 10
48.6
 20
0.0
  0
LWPOLYLINE
  5
34
330
17
100
AcDbEntity
  8
0
100
AcDbPolyline
 90
51
 70
0
 10
-9.600000000000001
 20
-5.000000000000012
 10
-9.008000000000003
 20
-5.0000000000000115
 10
-8.416000000000004
 20
-5.0000000000000115
 10
-7.823999999999998
 20
-5.0000000000000115
 10
-7.231999999999999
 20
-5.0000000000000115
 10
-6.640000000000001
 20
-5.000000000000011
 10
-6.048000000000002
 20
-5.000000000000011
 10
-5.456000000000003
 20
-5.000000000000011
 10
-4.864000000000001
 20
-5.000000000000011
 10
-4.272000000000002
 20
-5.00000000000001
 10
-3.6799999999999997
 20
-5.00000000000001
 10
-3.088000000000001
 20
-5.00000000000001
 10
-2.496000000000002
 20
-5.00000000000001
 10
-1.904
 20
-5.00000000000001
 10
-1.3120000000000012
 20
-5.000000000000009
 10
-0.7199999999999989
 20
-5.000000000000009
 10
-0.1280000000000001
 20
-5.000000000000009
 10
0.46399999999999864
 20
-5.000000000000009
 10
1.0559999999999974
 20
-5.000000000000008
 10
1.6479999999999961
 20
-5.000000000000008
 10
2.2399999999999984
 20
-5.000000000000008
 10
2.8320000000000007
 20
-5.000000000000008
 10
3.4239999999999995
 20
-5.000000000000007
 10
4.015999999999998
 20
-5.000000000000007
 10
4.6080000000000005
 20
-5.000000000000007
 10
5.199999999999999
 20
-5.000000000000007
 10
5.792000000000002
 20
-5.000000000000007
 10
6.384
 20
-5.000000000000006
 10
6.975999999999999
 20
-5.000000000000006
 10
7.568000000000001
 20
-5.000000000000006
 10
8.16
 20
-5.000000000000006
 10
8.751999999999999
 20
-5.000000000000005
 10
9.344000000000001
 20
-5.000000000000005
 10
9.936
 20
-5.000000000000005
 10
10.527999999999999
 20
-5.000000000000005
 10
11.119999999999997
 20
-5.000000000000004
 10
11.712
 20
-5.000000000000004
 10
12.303999999999998
 20
-5.000000000000004
 10
12.895999999999997
 20
-5.000000000000004
 10
13.488
 20
-5.0000000000000036
 10
14.079999999999998
 20
-5.0000000000000036
 10
14.672
 20
-5.0000000000000036
 10
15.264
 20
-5.0000000000000036
 10
15.855999999999998
 20
-5.0000000000000036
 10
16.448
 20
-5.000000000000003
 10
17.04
 20
-5.000000000000003
 10
17.632
 20
-5.000000000000003
 10
18.224
 20
-5.000000000000003
 10
18.816000000000003
 20
-5.000000000000002
 10
19.408
 20
-5.000000000000002
 10
20.0
 20
-5.000000000000002
  0
LWPOLYLINE
  5
35
330
17
100
AcDbEntity
  8
0
100
AcDbPolyline
 90
51
 70
0
 10
20.0
 20
-5.0
 10
20.0
 20
-5.239999999999998
 10
20.0
 20
-5.48
 10
20.0
 20
-5.719999999999999
 10
20.0
 20
-5.960000000000001
 10
20.0
 20
-6.199999999999999
 10
20.0
 20
-6.4399999999999995
 10
20.0
 20
-6.68
 10
20.0
 20
-6.92
 10
20.0
 20
-7.16
 10
20.0
 20
-7.4
 10
20.0
 20
-7.640000000000001
 10
20.0
 20
-7.879999999999999
 10
20.0
 20
-8.120000000000001
 10
20.0
 20
-8.36
 10
20.0
 20
-8.6
 10
20.0
 20
-8.84
 10
20.0
 20
-9.08
 10
20.0
 20
-9.32
 10
20.0
 20
-9.559999999999999
 10
20.0
 20
-9.8
 10
20.0
 20
-10.04
 10
20.0
 20
-10.280000000000001
 10
20.0
 20
-10.52
 10
20.0
 20
-10.76
 10
20.0
 20
-11.0
 10
20.0
 20
-11.24
 10
20.0
 20
-11.48
 10
20.0
 20
-11.719999999999999
 10
20.0
 20
-11.96
 10
20.0
 20
-12.2
 10
20.0
 20
-12.440000000000001
 10
20.0
 20
-12.68
 10
20.0
 20
-12.92
 10
20.0
 20
-13.16
 10
20.0
 20
-13.4
 10
20.0
 20
-13.64
 10
20.0
 20
-13.88
 10
20.0
 20
-14.12
 10
20.0
 20
-14.36
 10
20.0
 20
-14.6
 10
20.0
 20
-14.84
 10
20.0
 20
-15.08
 10
20.0
 20
-15.32
 10
20.0
 20
-15.56
 10
20.0
 20
-15.8
 10
20.0
 20
-16.04
 10
20.0
 20
-16.28
 10
20.0
 20
-16.52
 10
20.0
 20
-16.759999999999998
 10
20.0
 20
-17.0
  0
LWPOLYLINE
  5
36
330
17
100
AcDbEntity
  8
0
100
AcDbPolyline
 90
51
 70
0
 10
20.0
 20
-16.999999999999996
 10
19.408
 20
-16.999999999999996
 10
18.816
 20
-16.999999999999996
 10
18.224
 20
-16.999999999999996
 10
17.631999999999998
 20
-16.999999999999996
 10
17.04
 20
-16.999999999999996
 10
16.448
 20
-16.999999999999996
 10
15.856
 20
-16.999999999999996
 10
15.264
 20
-16.999999999999996
 10
14.672
 20
-16.999999999999993
 10
14.08
 20
-16.999999999999993
 10
13.488
 20
-16.999999999999993
 10
12.895999999999999
 20
-16.999999999999993
 10
12.303999999999998
 20
-16.999999999999993
 10
11.712
 20
-16.999999999999993
 10
11.12
 20
-16.999999999999993
 10
10.527999999999999
 20
-16.999999999999993
 10
9.936
 20
-16.999999999999993
 10
9.344
 20
-16.999999999999993
 10
8.752000000000002
 20
-16.999999999999993
 10
8.16
 20
-16.999999999999993
 10
7.567999999999998
 20
-16.99999999999999
 10
6.975999999999999
 20
-16.99999999999999
 10
6.384
 20
-16.99999999999999
 10
5.791999999999998
 20
-16.99999999999999
 10
5.199999999999999
 20
-16.99999999999999
 10
4.607999999999997
 20
-16.99999999999999
 10
4.015999999999998
 20
-16.99999999999999
 10
3.4239999999999995
 20
-16.99999999999999
 10
2.831999999999997
 20
-16.99999999999999
 10
2.2399999999999984
 20
-16.99999999999999
 10
1.6479999999999997
 20
-16.99999999999999
 10
1.0559999999999974
 20
-16.999999999999986
 10
0.46399999999999864
 20
-16.999999999999986
 10
-0.1280000000000001
 20
-16.999999999999986
 10
-0.7199999999999989
 20
-16.999999999999986
 10
-1.3120000000000012
 20
-16.999999999999986
 10
-1.904
 20
-16.999999999999986
 10
-2.4959999999999987
 20
-16.999999999999986
 10
-3.088000000000001
 20
-16.999999999999986
 10
-3.6799999999999997
 20
-16.999999999999986
 10
-4.272000000000002
 20
-16.999999999999986
 10
-4.864000000000001
 20
-16.999999999999986
 10
-5.4559999999999995
 20
-16.999999999999986
 10
-6.048000000000002
 20
-16.999999999999982
 10
-6.640000000000001
 20
-16.999999999999982
 10
-7.231999999999999
 20
-16.999999999999982
 10
-7.823999999999998
 20
-16.999999999999982
 10
-8.416000000000004
 20
-16.999999999999982
 10
-9.008000000000003
 20
-16.999999999999982
 10
-9.600000000000001
 20
-16.999999999999982
  0
LWPOLYLINE
  5
37
330
17
100
AcDbEntity
  8
0
100
AcDbPolyline
 90
51
 70
0
 10
48.6
 20
-22.0
 10
47.436
 20
-22.0
 10
46.272000000000006
 20
-22.0
 10
45.108000000000004
 20
-22.0
 10
43.944
 20
-22.0
 10
42.78
 20
-22.0
 10
41.616
 20
-22.0
 10
40.452
 20
-22.0
 10
39.288
 20
-22.0
 10
38.124
 20
-22.0
 10
36.96
 20
-22.0
 10
35.796
 20
-22.0
 10
34.632
 20
-22.0
 10
33.468
 20
-22.0
 10
32.304
 20
-22.0
 10
31.14
 20
-22.0
 10
29.976
 20
-22.0
 10
28.812
 20
-22.0
 10
27.648
 20
-22.0
 10
26.484
 20
-22.0
 10
25.32
 20
-22.0
 10
24.156
 20
-22.0
 10
22.992
 20
-22.0
 10
21.828
 20
-22.0
 10
20.663999999999998
 20
-22.0
 10
19.5
 20
-22.0
 10
18.336000000000002
 20
-22.0
 10
17.172
 20
-22.0
 10
16.007999999999996
 20
-22.0
 10
14.844000000000001
 20
-22.0
 10
13.68
 20
-22.0
 10
12.515999999999998
 20
-22.0
 10
11.351999999999997
 20
-22.0
 10
10.187999999999995
 20
-22.0
 10
9.024000000000001
 20
-22.0
 10
7.859999999999999
 20
-22.0
 10
6.695999999999998
 20
-22.0
 10
5.5319999999999965
 20
-22.0
 10
4.368000000000002
 20
-22.0
 10
3.2040000000000006
 20
-22.0
 10
2.039999999999999
 20
-22.0
 10
0.8759999999999977
 20
-22.0
 10
-0.2880000000000038
 20
-22.0
 10
-1.4519999999999982
 20
-22.0
 10
-2.6159999999999997
 20
-22.0
 10
-3.780000000000001
 20
-22.0
 10
-4.944000000000003
 20
-22.0
 10
-6.107999999999997
 20
-22.0
 10
-7.272000000000006
 20
-22.0
 10
-8.436
 20
-22.0
 10
-9.600000000000001
 20
-22.0
  0
LWPOLYLINE
  5
38
330
17
100
AcDbEntity
  8
0
100
AcDbPolyline
 90
51
 70
0
 10
48.6
 20
0.0
 10
47.436
 20
0.0
 10
46.272000000000006
 20
0.0
 10
45.108000000000004
 20
0.0
 10
43.944
 20
0.0
 10
42.78
 20
0.0
 10
41.616
 20
0.0
 10
40.452
 20
0.0
 10
39.288
 20
0.0
 10
38.124
 20
0.0
 10
36.96
 20
0.0
 10
35.796
 20
0.0
 10
34.632
 20
0.0
 10
33.468
 20
0.0
 10
32.304
 20
0.0
 10
31.14
 20
0.0
 10
29.976
 20
0.0
 10
28.812
 20
0.0
 10
27.648
 20
0.0
 10
26.484
 20
0.0
 10
25.32
 20
0.0
 10
24.156
 20
0.0
 10
22.992
 20
0.0
 10
21.828
 20
0.0
 10
20.663999999999998
 20
0.0
 10
19.5
 20
0.0
 10
18.336000000000002
 20
0.0
 10
17.172
 20
0.0
 10
16.007999999999996
 20
0.0
 10
14.844000000000001
 20
0.0
 10
13.68
 20
0.0
 10
12.515999999999998
 20
0.0
 10
11.351999999999997
 20
0.0
 10
10.187999999999995
 20
0.0
 10
9.024000000000001
 20
0.0
 10
7.859999999999999
 20
0.0
 10
6.695999999999998
 20
0.0
 10
5.5319999999999965
 20
0.0
 10
4.368000000000002
 20
0.0
 10
3.2040000000000006
 20
0.0
 10
2.039999999999999
 20
0.0
 10
0.8759999999999977
 20
0.0
 10
-0.2880000000000038
 20
0.0
 10
-1.4519999999999982
 20
0.0
 10
-2.6159999999999997
 20
0.0
 10
-3.780000000000001
 20
0.0
 10
-4.944000000000003
 20
0.0
 10
-6.107999999999997
 20
0.0
 10
-7.272000000000006
 20
0.0
 10
-8.436
 20
0.0
 10
-9.600000000000001
 20
0.0
  0
LWPOLYLINE
  5
39
330
17
100
AcDbEntity
  8
0
100
AcDbPolyline
 90
51
 70
0
 10
-9.6
 20
-22.0
 10
-9.6
 20
-21.9
 10
-9.6
 20
-21.8
 10
-9.6
 20
-21.7
 10
-9.6
 20
-21.6
 10
-9.6
 20
-21.5
 10
-9.6
 20
-21.4
 10
-9.6
 20
-21.3
 10
-9.6
 20
-21.2
 10
-9.6
 20
-21.1
 10
-9.6
 20
-21.0
 10
-9.6
 20
-20.9
 10
-9.6
 20
-20.8
 10
-9.6
 20
-20.7
 10
-9.6
 20
-20.6
 10
-9.6
 20
-20.5
 10
-9.6
 20
-20.4
 10
-9.6
 20
-20.3
 10
-9.6
 20
-20.2
 10
-9.6
 20
-20.1
 10
-9.6
 20
-20.0
 10
-9.6
 20
-19.9
 10
-9.6
 20
-19.8
 10
-9.6
 20
-19.7
 10
-9.6
 20
-19.6
 10
-9.6
 20
-19.5
 10
-9.6
 20
-19.4
 10
-9.6
 20
-19.3
 10
-9.6
 20
-19.2
 10
-9.6
 20
-19.1
 10
-9.6
 20
-19.0
 10
-9.6
 20
-18.9
 10
-9.6
 20
-18.8
 10
-9.6
 20
-18.7
 10
-9.6
 20
-18.6
 10
-9.6
 20
-18.5
 10
-9.6
 20
-18.4
 10
-9.6
 20
-18.3
 10
-9.6
 20
-18.2
 10
-9.6
 20
-18.1
 10
-9.6
 20
-18.0
 10
-9.6
 20
-17.9
 10
-9.6
 20
-17.8
 10
-9.6
 20
-17.7
 10
-9.6
 20
-17.6
 10
-9.6
 20
-17.5
 10
-9.6
 20
-17.4
 10
-9.6
 20
-17.3
 10
-9.6
 20
-17.2
 10
-9.6
 20
-17.1
 10
-9.6
 20
-17.0
  0
LWPOLYLINE
  5
3A
330
17
100
AcDbEntity
  8
0
100
AcDbPolyline
 90
51
 70
0
 10
-9.600000000000001
 20
-17.000000000000004
 10
-9.649141292123627
 20
-17.000000000000004
 10
-9.698282584247252
 20
-17.000000000000004
 10
-9.747423876370878
 20
-17.000000000000004
 10
-9.837630211921935
 20
-17.000000000000004
 10
-9.982589938709568
 20
-17.000000000000004
 10
-10.1275496654972
 20
-17.000000000000004
 10
-10.272509392284833
 20
-17.000000000000004
 10
-10.49336873221284
 20
-17.000000000000004
 10
-10.726878007664244
 20
-17.000000000000004
 10
-10.960387283115647
 20
-17.000000000000004
 10
-11.215850963864998
 20
-17.000000000000004
 10
-11.526200657859219
 20
-17.000000000000004
 10
-11.83655035185344
 20
-17.000000000000004
 10
-12.14690004584766
 20
-17.000000000000004
 10
-12.501019874826511
 20
-17.000000000000004
 10
-12.872647757799216
 20
-17.000000000000004
 10
-13.24427564077192
 20
-17.0
 10
-13.621995411622244
 20
-17.0
 10
-14.036266509738281
 20
-17.0
 10
-14.450537607854319
 20
-17.0
 10
-14.864808705970358
 20
-17.0
 10
-15.291576908336873
 20
-17.0
 10
-15.727717938891248
 20
-17.0
 10
-16.163858969445624
 20
-17.0
 10
-16.6
 20
-17.0
 10
-17.03614103055438
 20
-17.0
 10
-17.472282061108753
 20
-17.0
 10
-17.90842309166313
 20
-17.0
 10
-18.33519129402965
 20
-17.0
 10
-18.749462392145684
 20
-17.0
 10
-19.16373349026172
 20
-17.0
 10
-19.578004588377762
 20
-17.0
 10
-19.955724359228086
 20
-17.0
 10
-20.32735224220079
 20
-16.999999999999996
 10
-20.69898012517349
 20
-16.999999999999996
 10
-21.053099954152344
 20
-16.999999999999996
 10
-21.363449648146563
 20
-16.999999999999996
 10
-21.673799342140782
 20
-16.999999999999996
 10
-21.984149036135
 20
-16.999999999999996
 10
-22.239612716884352
 20
-16.999999999999996
 10
-22.473121992335756
 20
-16.999999999999996
 10
-22.70663126778716
 20
-16.999999999999996
 10
-22.927490607715164
 20
-16.999999999999996
 10
-23.0724503345028
 20
-16.999999999999996
 10
-23.217410061290433
 20
-16.999999999999996
 10
-23.362369788078066
 20
-16.999999999999996
 10
-23.452576123629125
 20
-16.999999999999996
 10
-23.50171741575275
 20
-16.999999999999996
 10
-23.550858707876376
 20
-16.999999999999996
 10
-23.6
 20
-16.999999999999996
  0
LWPOLYLINE
  5
3B
330
17
100
AcDbEntity
  8
0
100
AcDbPolyline
 90
51
 70
0
 10
-23.6
 20
-22.0
 10
-23.6
 20
-21.9
 10
-23.6
 20
-21.8
 10
-23.6
 20
-21.7
 10
-23.6
 20
-21.6
 10
-23.6
 20
-21.5
 10
-23.6
 20
-21.4
 10
-23.6
 20
-21.3
 10
-23.6
 20
-21.2
 10
-23.6
 20
-21.1
 10
-23.6
 20
-21.0
 10
-23.6
 20
-20.9
 10
-23.6
 20
-20.8
 10
-23.6
 20
-20.7
 10
-23.6
 20
-20.6
 10
-23.6
 20
-20.5
 10
-23.6
 20
-20.4
 10
-23.6
 20
-20.3
 10
-23.6
 20
-20.2
 10
-23.6
 20
-20.1
 10
-23.6
 20
-20.0
 10
-23.6
 20
-19.9
 10
-23.6
 20
-19.8
 10
-23.6
 20
-19.7
 10
-23.6
 20
-19.6
 10
-23.6
 20
-19.5
 10
-23.6
 20
-19.4
 10
-23.6
 20
-19.3
 10
-23.6
 20
-19.2
 10
-23.6
 20
-19.1
 10
-23.6
 20
-19.0
 10
-23.6
 20
-18.9
 10
-23.6
 20
-18.8
 10
-23.6
 20
-18.7
 10
-23.6
 20
-18.6
 10
-23.6
 20
-18.5
 10
-23.6
 20
-18.4
 10
-23.6
 20
-18.3
 10
-23.6
 20
-18.2
 10
-23.6
 20
-18.1
 10
-23.6
 20
-18.0
 10
-23.6
 20
-17.9
 10
-23.6
 20
-17.8
 10
-23.6
 20
-17.7
 10
-23.6
 20
-17.6
 10
-23.6
 20
-17.5
 10
-23.6
 20
-17.4
 10
-23.6
 20
-17.3
 10
-23.6
 20
-17.2
 10
-23.6
 20
-17.1
 10
-23.6
 20
-17.0
  0
LWPOLYLINE
  5
3C
330
17
100
AcDbEntity
  8
0
100
AcDbPolyline
 90
51
 70
0
 10
-9.600000000000001
 20
-22.0
 10
-9.649141292123627
 20
-22.0
 10
-9.698282584247252
 20
-22.0
 10
-9.747423876370878
 20
-22.0
 10
-9.837630211921937
 20
-22.0
 10
-9.982589938709568
 20
-22.0
 10
-10.1275496654972
 20
-22.0
 10
-10.272509392284833
 20
-22.0
 10
-10.49336873221284
 20
-22.0
 10
-10.726878007664245
 20
-22.0
 10
-10.960387283115647
 20
-22.0
 10
-11.215850963864996
 20
-22.0
 10
-11.52620065785922
 20
-22.0
 10
-11.83655035185344
 20
-22.0
 10
-12.146900045847662
 20
-22.0
 10
-12.501019874826511
 20
-22.0
 10
-12.872647757799212
 20
-22.0
 10
-13.24427564077192
 20
-22.0
 10
-13.62199541162224
 20
-22.0
 10
-14.036266509738281
 20
-22.0
 10
-14.450537607854317
 20
-22.0
 10
-14.864808705970352
 20
-22.0
 10
-15.291576908336873
 20
-22.0
 10
-15.727717938891248
 20
-22.0
 10
-16.163858969445627
 20
-22.0
 10
-16.6
 20
-22.0
 10
-17.036141030554376
 20
-22.0
 10
-17.472282061108753
 20
-22.0
 10
-17.908423091663128
 20
-22.0
 10
-18.33519129402965
 20
-22.0
 10
-18.749462392145684
 20
-22.0
 10
-19.16373349026172
 20
-22.0
 10
-19.578004588377762
 20
-22.0
 10
-19.955724359228086
 20
-22.0
 10
-20.32735224220079
 20
-22.0
 10
-20.69898012517349
 20
-22.0
 10
-21.05309995415234
 20
-22.0
 10
-21.363449648146563
 20
-22.0
 10
-21.673799342140782
 20
-22.0
 10
-21.984149036135005
 20
-22.0
 10
-22.239612716884352
 20
-22.0
 10
-22.473121992335756
 20
-22.0
 10
-22.70663126778716
 20
-22.0
 10
-22.927490607715164
 20
-22.0
 10
-23.0724503345028
 20
-22.0
 10
-23.217410061290433
 20
-22.0
 10
-23.362369788078066
 20
-22.0
 10
-23.452576123629125
 20
-22.0
 10
-23.50171741575275
 20
-22.0
 10
-23.550858707876376
 20
-22.0
 10
-23.6
 20
-22.0
  0
ENDSEC
  0
SECTION
  2
OBJECTS
  0
DICTIONARY
  5
A
330
0
100
AcDbDictionary
280
0
281
1
  3
ACAD_COLOR
350
B
  3
ACAD_GROUP
350
C
  3
ACAD_LAYOUT
350
D
  3
ACAD_MATERIAL
350
E
  3
ACAD_MLEADERSTYLE
350
F
  3
ACAD_MLINESTYLE
350
10
  3
ACAD_PLOTSETTINGS
350
11
  3
ACAD_PLOTSTYLENAME
350
12
  3
ACAD_SCALELIST
350
14
  3
ACAD_TABLESTYLE
350
15
  3
ACAD_VISUALSTYLE
350
16
  3
EZDXF_META
350
2D
  0
DICTIONARY
  5
B
330
A
100
AcDbDictionary
280
0
281
1
  0
DICTIONARY
  5
C
330
A
100
AcDbDictionary
280
0
281
1
  0
DICTIONARY
  5
D
330
A
100
AcDbDictionary
280
0
281
1
  3
Model
350
1A
  3
Layout1
350
1E
  0
DICTIONARY
  5
E
330
A
100
AcDbDictionary
280
0
281
1
  3
ByBlock
350
1F
  3
ByLayer
350
20
  3
Global
350
21
  0
DICTIONARY
  5
F
330
A
100
AcDbDictionary
280
0
281
1
  3
Standard
350
2C
  0
DICTIONARY
  5
10
330
A
100
AcDbDictionary
280
0
281
1
  3
Standard
350
22
  0
DICTIONARY
  5
11
330
A
100
AcDbDictionary
280
0
281
1
  0
ACDBDICTIONARYWDFLT
  5
12
330
A
100
AcDbDictionary
280
0
281
1
  3
Normal
350
13
100
AcDbDictionaryWithDefault
340
13
  0
ACDBPLACEHOLDER
  5
13
330
12
  0
DICTIONARY
  5
14
330
A
100
AcDbDictionary
280
0
281
1
  0
DICTIONARY
  5
15
330
A
100
AcDbDictionary
280
0
281
1
  0
DICTIONARY
  5
16
330
A
100
AcDbDictionary
280
0
281
1
  0
LAYOUT
  5
1A
330
D
100
AcDbPlotSettings
  1

  2
Adobe PDF
  4
A3
  6

 40
7.5
 41
20.0
 42
7.5
 43
20.0
 44
420.0
 45
297.0
 46
0.0
 47
0.0
 48
0.0
 49
0.0
140
0.0
141
0.0
142
1.0
143
1.0
 70
1024
 72
1
 73
0
 74
5
  7

 75
16
 76
0
 77
2
 78
300
147
1.0
148
0.0
149
0.0
100
AcDbLayout
  1
Model
 70
1
 71
0
 10
0.0
 20
0.0
 11
420.0
 21
297.0
 12
0.0
 22
0.0
 32
0.0
 14
1e+20
 24
1e+20
 34
1e+20
 15
-1e+20
 25
-1e+20
 35
-1e+20
146
0.0
 13
0.0
 23
0.0
 33
0.0
 16
1.0
 26
0.0
 36
0.0
 17
0.0
 27
1.0
 37
0.0
 76
1
330
17
  0
LAYOUT
  5
1E
330
D
100
AcDbPlotSettings
  1

  2
Adobe PDF
  4
A3
  6

 40
7.5
 41
20.0
 42
7.5
 43
20.0
 44
420.0
 45
297.0
 46
0.0
 47
0.0
 48
0.0
 49
0.0
140
0.0
141
0.0
142
1.0
143
1.0
 70
0
 72
1
 73
0
 74
5
  7

 75
16
 76
0
 77
2
 78
300
147
1.0
148
0.0
149
0.0
100
AcDbLayout
  1
Layout1
 70
1
 71
1
 10
0.0
 20
0.0
 11
420.0
 21
297.0
 12
0.0
 22
0.0
 32
0.0
 14
1e+20
 24
1e+20
 34
1e+20
 15
-1e+20
 25
-1e+20
 35
-1e+20
146
0.0
 13
0.0
 23
0.0
 33
0.0
 16
1.0
 26
0.0
 36
0.0
 17
0.0
 27
1.0
 37
0.0
 76
1
330
1B
  0
MATERIAL
  5
1F
102
{ACAD_REACTORS
330
E
102
}
330
E
100
AcDbMaterial
  1
ByBlock
  2

 70
0
 40
1.0
 71
1
 41
1.0
 91
-1023410177
 42
1.0
 72
1
  3

 73
1
 74
1
 75
1
 44
0.5
 73
0
 45
1.0
 46
1.0
 77
1
  4

 78
1
 79
1
170
1
 48
1.0
171
1
  6

172
1
173
1
174
1
140
1.0
141
1.0
175
1
  7

176
1
177
1
178
1
143
1.0
179
1
  8

270
1
271
1
272
1
145
1.0
146
1.0
273
1
  9

274
1
275
1
276
1
 42
1.0
 72
1
  3

 73
1
 74
1
 75
1
 94
63
  0
MATERIAL
  5
20
102
{ACAD_REACTORS
330
E
102
}
330
E
100
AcDbMaterial
  1
ByLayer
  2

 70
0
 40
1.0
 71
1
 41
1.0
 91
-1023410177
 42
1.0
 72
1
  3

 73
1
 74
1
 75
1
 44
0.5
 73
0
 45
1.0
 46
1.0
 77
1
  4

 78
1
 79
1
170
1
 48
1.0
171
1
  6

172
1
173
1
174
1
140
1.0
141
1.0
175
1
  7

176
1
177
1
178
1
143
1.0
179
1
  8

270
1
271
1
272
1
145
1.0
146
1.0
273
1
  9

274
1
275
1
276
1
 42
1.0
 72
1
  3

 73
1
 74
1
 75
1
 94
63
  0
MATERIAL
  5
21
102
{ACAD_REACTORS
330
E
102
}
330
E
100
AcDbMaterial
  1
Global
  2

 70
0
 40
1.0
 71
1
 41
1.0
 91
-1023410177
 42
1.0
 72
1
  3

 73
1
 74
1
 75
1
 44
0.5
 73
0
 45
1.0
 46
1.0
 77
1
  4

 78
1
 79
1
170
1
 48
1.0
171
1
  6

172
1
173
1
174
1
140
1.0
141
1.0
175
1
  7

176
1
177
1
178
1
143
1.0
179
1
  8

270
1
271
1
272
1
145
1.0
146
1.0
273
1
  9

274
1
275
1
276
1
 42
1.0
 72
1
  3

 73
1
 74
1
 75
1
 94
63
  0
MLINESTYLE
  5
22
102
{ACAD_REACTORS
330
10
102
}
330
10
100
AcDbMlineStyle
  2
Standard
 70
0
  3

 62
256
 51
90.0
 52
90.0
 71
2
 49
0.5
 62
256
  6
BYLAYER
 49
-0.5
 62
256
  6
BYLAYER
  0
MLEADERSTYLE
  5
2C
102
{ACAD_REACTORS
330
F
102
}
330
F
100
AcDbMLeaderStyle
179
2
170
2
171
1
172
0
 90
2
 40
0.0
 41
0.0
173
1
 91
-1056964608
 92
-2
290
1
 42
2.0
291
1
 43
8.0
  3
Standard
 44
4.0
300

342
29
174
1
175
1
176
0
178
1
 93
-1056964608
 45
4.0
292
0
297
0
 46
4.0
 94
-1056964608
 47
1.0
 49
1.0
140
1.0
294
1
141
0.0
177
0
142
1.0
295
0
296
0
143
3.75
271
0
272
9
273
9
  0
DICTIONARY
  5
2D
330
A
100
AcDbDictionary
281
1
  3
CREATED_BY_EZDXF
350
2E
  3
WRITTEN_BY_EZDXF
350
3F
  0
DICTIONARYVAR
  5
2E
330
2D
100
DictionaryVariables
280
0
  1
1.0.3 @ 2025-05-29T09:39:00.285932+00:00
  0
DICTIONARYVAR
  5
3F
330
2D
100
DictionaryVariables
280
0
  1
1.0.3 @ 2025-05-29T09:39:00.289148+00:00
  0
ENDSEC
  0
EOF
