  0
SECTION
  2
HEADER
  9
$ACADVER
  1
AC1027
  9
$ACADMAINTVER
 70
105
  9
$DWGCODEPAGE
  3
ANSI_1252
  9
$LASTSAVEDBY
  1
ezdxf
  9
$REQUIREDVERSIONS
160
0
  9
$INSBASE
 10
0.0
 20
0.0
 30
0.0
  9
$EXTMIN
 10
1e+20
 20
1e+20
 30
1e+20
  9
$EXTMAX
 10
-1e+20
 20
-1e+20
 30
-1e+20
  9
$LIMMIN
 10
0.0
 20
0.0
  9
$LIMMAX
 10
420.0
 20
297.0
  9
$ORTHOMODE
 70
0
  9
$REGENMODE
 70
1
  9
$FILLMODE
 70
1
  9
$QTEXTMODE
 70
0
  9
$MIRRTEXT
 70
1
  9
$LTSCALE
 40
1.0
  9
$ATTMODE
 70
1
  9
$TEXTSIZE
 40
2.5
  9
$TRACEWID
 40
1.0
  9
$TEXTSTYLE
  7
Standard
  9
$CLAYER
  8
0
  9
$CELTYPE
  6
ByLayer
  9
$CECOLOR
 62
256
  9
$CELTSCALE
 40
1.0
  9
$DISPSILH
 70
0
  9
$DIMSCALE
 40
1.0
  9
$DIMASZ
 40
2.5
  9
$DIMEXO
 40
0.625
  9
$DIMDLI
 40
3.75
  9
$DIMRND
 40
0.0
  9
$DIMDLE
 40
0.0
  9
$DIMEXE
 40
1.25
  9
$DIMTP
 40
0.0
  9
$DIMTM
 40
0.0
  9
$DIMTXT
 40
2.5
  9
$DIMCEN
 40
2.5
  9
$DIMTSZ
 40
0.0
  9
$DIMTOL
 70
0
  9
$DIMLIM
 70
0
  9
$DIMTIH
 70
0
  9
$DIMTOH
 70
0
  9
$DIMSE1
 70
0
  9
$DIMSE2
 70
0
  9
$DIMTAD
 70
1
  9
$DIMZIN
 70
8
  9
$DIMBLK
  1

  9
$DIMASO
 70
1
  9
$DIMSHO
 70
1
  9
$DIMPOST
  1

  9
$DIMAPOST
  1

  9
$DIMALT
 70
0
  9
$DIMALTD
 70
3
  9
$DIMALTF
 40
0.03937007874
  9
$DIMLFAC
 40
1.0
  9
$DIMTOFL
 70
1
  9
$DIMTVP
 40
0.0
  9
$DIMTIX
 70
0
  9
$DIMSOXD
 70
0
  9
$DIMSAH
 70
0
  9
$DIMBLK1
  1

  9
$DIMBLK2
  1

  9
$DIMSTYLE
  2
ISO-25
  9
$DIMCLRD
 70
0
  9
$DIMCLRE
 70
0
  9
$DIMCLRT
 70
0
  9
$DIMTFAC
 40
1.0
  9
$DIMGAP
 40
0.625
  9
$DIMJUST
 70
0
  9
$DIMSD1
 70
0
  9
$DIMSD2
 70
0
  9
$DIMTOLJ
 70
0
  9
$DIMTZIN
 70
8
  9
$DIMALTZ
 70
0
  9
$DIMALTTZ
 70
0
  9
$DIMUPT
 70
0
  9
$DIMDEC
 70
2
  9
$DIMTDEC
 70
2
  9
$DIMALTU
 70
2
  9
$DIMALTTD
 70
3
  9
$DIMTXSTY
  7
Standard
  9
$DIMAUNIT
 70
0
  9
$DIMADEC
 70
0
  9
$DIMALTRND
 40
0.0
  9
$DIMAZIN
 70
0
  9
$DIMDSEP
 70
44
  9
$DIMATFIT
 70
3
  9
$DIMFRAC
 70
0
  9
$DIMLDRBLK
  1

  9
$DIMLUNIT
 70
2
  9
$DIMLWD
 70
-2
  9
$DIMLWE
 70
-2
  9
$DIMTMOVE
 70
0
  9
$DIMFXL
 40
1.0
  9
$DIMFXLON
 70
0
  9
$DIMJOGANG
 40
0.785398163397
  9
$DIMTFILL
 70
0
  9
$DIMTFILLCLR
 70
0
  9
$DIMARCSYM
 70
0
  9
$DIMLTYPE
  6

  9
$DIMLTEX1
  6

  9
$DIMLTEX2
  6

  9
$DIMTXTDIRECTION
 70
0
  9
$LUNITS
 70
2
  9
$LUPREC
 70
4
  9
$SKETCHINC
 40
1.0
  9
$FILLETRAD
 40
10.0
  9
$AUNITS
 70
0
  9
$AUPREC
 70
2
  9
$MENU
  1
.
  9
$ELEVATION
 40
0.0
  9
$PELEVATION
 40
0.0
  9
$THICKNESS
 40
0.0
  9
$LIMCHECK
 70
0
  9
$CHAMFERA
 40
0.0
  9
$CHAMFERB
 40
0.0
  9
$CHAMFERC
 40
0.0
  9
$CHAMFERD
 40
0.0
  9
$SKPOLY
 70
0
  9
$TDCREATE
 40
2460835.0619444447
  9
$TDUCREATE
 40
2458532.153996898
  9
$TDUPDATE
 40
2460835.0619444447
  9
$TDUUPDATE
 40
2458532.1544311
  9
$TDINDWG
 40
0.0
  9
$TDUSRTIMER
 40
0.0
  9
$USRTIMER
 70
1
  9
$ANGBASE
 50
0.0
  9
$ANGDIR
 70
0
  9
$PDMODE
 70
0
  9
$PDSIZE
 40
0.0
  9
$PLINEWID
 40
0.0
  9
$SPLFRAME
 70
0
  9
$SPLINETYPE
 70
6
  9
$SPLINESEGS
 70
8
  9
$HANDSEED
  5
3C
  9
$SURFTAB1
 70
6
  9
$SURFTAB2
 70
6
  9
$SURFTYPE
 70
6
  9
$SURFU
 70
6
  9
$SURFV
 70
6
  9
$UCSBASE
  2

  9
$UCSNAME
  2

  9
$UCSORG
 10
0.0
 20
0.0
 30
0.0
  9
$UCSXDIR
 10
1.0
 20
0.0
 30
0.0
  9
$UCSYDIR
 10
0.0
 20
1.0
 30
0.0
  9
$UCSORTHOREF
  2

  9
$UCSORTHOVIEW
 70
0
  9
$UCSORGTOP
 10
0.0
 20
0.0
 30
0.0
  9
$UCSORGBOTTOM
 10
0.0
 20
0.0
 30
0.0
  9
$UCSORGLEFT
 10
0.0
 20
0.0
 30
0.0
  9
$UCSORGRIGHT
 10
0.0
 20
0.0
 30
0.0
  9
$UCSORGFRONT
 10
0.0
 20
0.0
 30
0.0
  9
$UCSORGBACK
 10
0.0
 20
0.0
 30
0.0
  9
$PUCSBASE
  2

  9
$PUCSNAME
  2

  9
$PUCSORG
 10
0.0
 20
0.0
 30
0.0
  9
$PUCSXDIR
 10
1.0
 20
0.0
 30
0.0
  9
$PUCSYDIR
 10
0.0
 20
1.0
 30
0.0
  9
$PUCSORTHOREF
  2

  9
$PUCSORTHOVIEW
 70
0
  9
$PUCSORGTOP
 10
0.0
 20
0.0
 30
0.0
  9
$PUCSORGBOTTOM
 10
0.0
 20
0.0
 30
0.0
  9
$PUCSORGLEFT
 10
0.0
 20
0.0
 30
0.0
  9
$PUCSORGRIGHT
 10
0.0
 20
0.0
 30
0.0
  9
$PUCSORGFRONT
 10
0.0
 20
0.0
 30
0.0
  9
$PUCSORGBACK
 10
0.0
 20
0.0
 30
0.0
  9
$USERI1
 70
0
  9
$USERI2
 70
0
  9
$USERI3
 70
0
  9
$USERI4
 70
0
  9
$USERI5
 70
0
  9
$USERR1
 40
0.0
  9
$USERR2
 40
0.0
  9
$USERR3
 40
0.0
  9
$USERR4
 40
0.0
  9
$USERR5
 40
0.0
  9
$WORLDVIEW
 70
1
  9
$SHADEDGE
 70
3
  9
$SHADEDIF
 70
70
  9
$TILEMODE
 70
1
  9
$MAXACTVP
 70
64
  9
$PINSBASE
 10
0.0
 20
0.0
 30
0.0
  9
$PLIMCHECK
 70
0
  9
$PEXTMIN
 10
1e+20
 20
1e+20
 30
1e+20
  9
$PEXTMAX
 10
-1e+20
 20
-1e+20
 30
-1e+20
  9
$PLIMMIN
 10
0.0
 20
0.0
  9
$PLIMMAX
 10
420.0
 20
297.0
  9
$UNITMODE
 70
0
  9
$VISRETAIN
 70
1
  9
$PLINEGEN
 70
0
  9
$PSLTSCALE
 70
1
  9
$TREEDEPTH
 70
3020
  9
$CMLSTYLE
  2
Standard
  9
$CMLJUST
 70
0
  9
$CMLSCALE
 40
20.0
  9
$PROXYGRAPHICS
 70
1
  9
$MEASUREMENT
 70
1
  9
$CELWEIGHT
370
-1
  9
$ENDCAPS
280
0
  9
$JOINSTYLE
280
0
  9
$LWDISPLAY
290
0
  9
$INSUNITS
 70
6
  9
$HYPERLINKBASE
  1

  9
$STYLESHEET
  1

  9
$XEDIT
290
1
  9
$CEPSNTYPE
380
0
  9
$PSTYLEMODE
290
1
  9
$FINGERPRINTGUID
  2
{21F63C03-DE33-46B5-B6DD-B230A462219C}
  9
$VERSIONGUID
  2
{1DFED19A-0160-4759-9397-6CB83A146BBA}
  9
$EXTNAMES
290
1
  9
$PSVPSCALE
 40
0.0
  9
$OLESTARTUP
290
0
  9
$SORTENTS
280
127
  9
$INDEXCTL
280
0
  9
$HIDETEXT
280
1
  9
$XCLIPFRAME
280
0
  9
$HALOGAP
280
0
  9
$OBSCOLOR
 70
257
  9
$OBSLTYPE
280
0
  9
$INTERSECTIONDISPLAY
280
0
  9
$INTERSECTIONCOLOR
 70
257
  9
$DIMASSOC
280
2
  9
$PROJECTNAME
  1

  9
$CAMERADISPLAY
290
0
  9
$LENSLENGTH
 40
50.0
  9
$CAMERAHEIGHT
 40
0.0
  9
$STEPSPERSEC
 40
24.0
  9
$STEPSIZE
 40
100.0
  9
$3DDWFPREC
 40
2.0
  9
$PSOLWIDTH
 40
0.005
  9
$PSOLHEIGHT
 40
0.08
  9
$LOFTANG1
 40
1.570796326795
  9
$LOFTANG2
 40
1.570796326795
  9
$LOFTMAG1
 40
0.0
  9
$LOFTMAG2
 40
0.0
  9
$LOFTPARAM
 70
7
  9
$LOFTNORMALS
280
1
  9
$LATITUDE
 40
37.795
  9
$LONGITUDE
 40
-122.394
  9
$NORTHDIRECTION
 40
0.0
  9
$TIMEZONE
 70
-8000
  9
$LIGHTGLYPHDISPLAY
280
1
  9
$TILEMODELIGHTSYNCH
280
1
  9
$CMATERIAL
347
20
  9
$SOLIDHIST
280
0
  9
$SHOWHIST
280
1
  9
$DWFFRAME
280
2
  9
$DGNFRAME
280
2
  9
$REALWORLDSCALE
290
1
  9
$INTERFERECOLOR
 62
256
  9
$CSHADOW
280
0
  9
$SHADOWPLANELOCATION
 40
0.0
  0
ENDSEC
  0
SECTION
  2
CLASSES
  0
CLASS
  1
ACDBDICTIONARYWDFLT
  2
AcDbDictionaryWithDefault
  3
ObjectDBX Classes
 90
0
 91
0
280
0
281
0
  0
CLASS
  1
SUN
  2
AcDbSun
  3
SCENEOE
 90
1153
 91
0
280
0
281
0
  0
CLASS
  1
VISUALSTYLE
  2
AcDbVisualStyle
  3
ObjectDBX Classes
 90
4095
 91
0
280
0
281
0
  0
CLASS
  1
MATERIAL
  2
AcDbMaterial
  3
ObjectDBX Classes
 90
1153
 91
0
280
0
281
0
  0
CLASS
  1
SCALE
  2
AcDbScale
  3
ObjectDBX Classes
 90
1153
 91
0
280
0
281
0
  0
CLASS
  1
TABLESTYLE
  2
AcDbTableStyle
  3
ObjectDBX Classes
 90
4095
 91
0
280
0
281
0
  0
CLASS
  1
MLEADERSTYLE
  2
AcDbMLeaderStyle
  3
ACDB_MLEADERSTYLE_CLASS
 90
4095
 91
0
280
0
281
0
  0
CLASS
  1
DICTIONARYVAR
  2
AcDbDictionaryVar
  3
ObjectDBX Classes
 90
0
 91
0
280
0
281
0
  0
CLASS
  1
CELLSTYLEMAP
  2
AcDbCellStyleMap
  3
ObjectDBX Classes
 90
1152
 91
0
280
0
281
0
  0
CLASS
  1
MENTALRAYRENDERSETTINGS
  2
AcDbMentalRayRenderSettings
  3
SCENEOE
 90
1024
 91
0
280
0
281
0
  0
CLASS
  1
ACDBDETAILVIEWSTYLE
  2
AcDbDetailViewStyle
  3
ObjectDBX Classes
 90
1025
 91
0
280
0
281
0
  0
CLASS
  1
ACDBSECTIONVIEWSTYLE
  2
AcDbSectionViewStyle
  3
ObjectDBX Classes
 90
1025
 91
0
280
0
281
0
  0
CLASS
  1
RASTERVARIABLES
  2
AcDbRasterVariables
  3
ISM
 90
0
 91
0
280
0
281
0
  0
CLASS
  1
ACDBPLACEHOLDER
  2
AcDbPlaceHolder
  3
ObjectDBX Classes
 90
0
 91
0
280
0
281
0
  0
CLASS
  1
LAYOUT
  2
AcDbLayout
  3
ObjectDBX Classes
 90
0
 91
0
280
0
281
0
  0
ENDSEC
  0
SECTION
  2
TABLES
  0
TABLE
  2
VPORT
  5
8
330
0
100
AcDbSymbolTable
 70
1
  0
VPORT
  5
23
330
8
100
AcDbSymbolTableRecord
100
AcDbViewportTableRecord
  2
*Active
 70
0
 10
0.0
 20
0.0
 11
1.0
 21
1.0
 12
0.0
 22
0.0
 13
0.0
 23
0.0
 14
0.5
 24
0.5
 15
0.5
 25
0.5
 16
0.0
 26
0.0
 36
1.0
 17
0.0
 27
0.0
 37
0.0
 40
1000.0
 41
1.34
 42
50.0
 43
0.0
 44
0.0
 50
0.0
 51
0.0
 71
0
 72
1000
 73
1
 74
3
 75
0
 76
0
 77
0
 78
0
281
0
 65
0
146
0.0
  0
ENDTAB
  0
TABLE
  2
LTYPE
  5
2
330
0
100
AcDbSymbolTable
 70
3
  0
LTYPE
  5
24
330
2
100
AcDbSymbolTableRecord
100
AcDbLinetypeTableRecord
  2
ByBlock
 70
0
  3

 72
65
 73
0
 40
0.0
  0
LTYPE
  5
25
330
2
100
AcDbSymbolTableRecord
100
AcDbLinetypeTableRecord
  2
ByLayer
 70
0
  3

 72
65
 73
0
 40
0.0
  0
LTYPE
  5
26
330
2
100
AcDbSymbolTableRecord
100
AcDbLinetypeTableRecord
  2
Continuous
 70
0
  3

 72
65
 73
0
 40
0.0
  0
ENDTAB
  0
TABLE
  2
LAYER
  5
1
330
0
100
AcDbSymbolTable
 70
2
  0
LAYER
  5
27
330
1
100
AcDbSymbolTableRecord
100
AcDbLayerTableRecord
  2
0
 70
0
 62
7
  6
Continuous
370
-3
390
13
347
21
  0
LAYER
  5
28
330
1
100
AcDbSymbolTableRecord
100
AcDbLayerTableRecord
  2
Defpoints
 70
0
 62
7
  6
Continuous
290
0
370
-3
390
13
347
21
  0
ENDTAB
  0
TABLE
  2
STYLE
  5
5
330
0
100
AcDbSymbolTable
 70
1
  0
STYLE
  5
29
330
5
100
AcDbSymbolTableRecord
100
AcDbTextStyleTableRecord
  2
Standard
 70
0
 40
0.0
 41
1.0
 50
0.0
 71
0
 42
2.5
  3
txt
  4

  0
ENDTAB
  0
TABLE
  2
VIEW
  5
7
330
0
100
AcDbSymbolTable
 70
0
  0
ENDTAB
  0
TABLE
  2
UCS
  5
6
330
0
100
AcDbSymbolTable
 70
0
  0
ENDTAB
  0
TABLE
  2
APPID
  5
3
330
0
100
AcDbSymbolTable
 70
3
  0
APPID
  5
2A
330
3
100
AcDbSymbolTableRecord
100
AcDbRegAppTableRecord
  2
ACAD
 70
0
  0
APPID
  5
39
330
3
100
AcDbSymbolTableRecord
100
AcDbRegAppTableRecord
  2
HATCHBACKGROUNDCOLOR
 70
0
  0
APPID
  5
3A
330
3
100
AcDbSymbolTableRecord
100
AcDbRegAppTableRecord
  2
EZDXF
 70
0
  0
ENDTAB
  0
TABLE
  2
DIMSTYLE
  5
4
330
0
100
AcDbSymbolTable
 70
1
100
AcDbDimStyleTable
  0
DIMSTYLE
105
2B
330
4
100
AcDbSymbolTableRecord
100
AcDbDimStyleTableRecord
  2
Standard
 70
0
 40
1.0
 41
2.5
 42
0.625
 43
3.75
 44
1.25
 45
0.0
 46
0.0
 47
0.0
 48
0.0
 49
2.5
140
2.5
141
2.5
142
0.0
143
0.03937007874
144
1.0
145
0.0
146
1.0
147
0.625
148
0.0
 69
0
 70
0
 71
0
 72
0
 73
0
 74
0
 75
0
 76
0
 77
1
 78
8
 79
3
170
0
171
3
172
1
173
0
174
0
175
0
176
0
177
0
178
0
179
2
271
2
272
2
273
2
274
3
275
0
276
0
277
2
278
44
279
0
280
0
281
0
282
0
283
0
284
8
285
0
286
0
288
0
289
3
290
0
371
-2
372
-2
  0
ENDTAB
  0
TABLE
  2
BLOCK_RECORD
  5
9
330
0
100
AcDbSymbolTable
 70
2
  0
BLOCK_RECORD
  5
17
330
9
100
AcDbSymbolTableRecord
100
AcDbBlockTableRecord
  2
*Model_Space
340
1A
 70
0
280
1
281
0
  0
BLOCK_RECORD
  5
1B
330
9
100
AcDbSymbolTableRecord
100
AcDbBlockTableRecord
  2
*Paper_Space
340
1E
 70
0
280
1
281
0
  0
ENDTAB
  0
ENDSEC
  0
SECTION
  2
BLOCKS
  0
BLOCK
  5
18
330
17
100
AcDbEntity
  8
0
100
AcDbBlockBegin
  2
*Model_Space
 70
0
 10
0.0
 20
0.0
 30
0.0
  3
*Model_Space
  1

  0
ENDBLK
  5
19
330
17
100
AcDbEntity
  8
0
100
AcDbBlockEnd
  0
BLOCK
  5
1C
330
1B
100
AcDbEntity
  8
0
100
AcDbBlockBegin
  2
*Paper_Space
 70
0
 10
0.0
 20
0.0
 30
0.0
  3
*Paper_Space
  1

  0
ENDBLK
  5
1D
330
1B
100
AcDbEntity
  8
0
100
AcDbBlockEnd
  0
ENDSEC
  0
SECTION
  2
ENTITIES
  0
LWPOLYLINE
  5
2F
330
17
100
AcDbEntity
  8
0
100
AcDbPolyline
 90
51
 70
0
 10
1.3
 20
12.0
 10
1.3
 20
11.76
 10
1.3
 20
11.52
 10
1.3
 20
11.28
 10
1.3
 20
11.04
 10
1.3
 20
10.8
 10
1.3
 20
10.56
 10
1.3000000000000003
 20
10.32
 10
1.3000000000000003
 20
10.08
 10
1.3000000000000003
 20
9.84
 10
1.3000000000000003
 20
9.6
 10
1.3000000000000003
 20
9.36
 10
1.3000000000000003
 20
9.120000000000001
 10
1.3000000000000003
 20
8.879999999999999
 10
1.3000000000000003
 20
8.64
 10
1.3000000000000003
 20
8.4
 10
1.3000000000000003
 20
8.16
 10
1.3000000000000003
 20
7.92
 10
1.3000000000000003
 20
7.68
 10
1.3000000000000005
 20
7.44
 10
1.3000000000000005
 20
7.2
 10
1.3000000000000005
 20
6.96
 10
1.3000000000000005
 20
6.72
 10
1.3000000000000005
 20
6.48
 10
1.3000000000000005
 20
6.24
 10
1.3000000000000005
 20
6.0
 10
1.3000000000000005
 20
5.76
 10
1.3000000000000005
 20
5.52
 10
1.3000000000000005
 20
5.28
 10
1.3000000000000005
 20
5.04
 10
1.3000000000000005
 20
4.8
 10
1.3000000000000005
 20
4.56
 10
1.3000000000000007
 20
4.32
 10
1.3000000000000007
 20
4.08
 10
1.3000000000000007
 20
3.84
 10
1.3000000000000007
 20
3.5999999999999996
 10
1.3000000000000007
 20
3.3599999999999994
 10
1.3000000000000007
 20
3.119999999999999
 10
1.3000000000000007
 20
2.880000000000001
 10
1.3000000000000007
 20
2.6400000000000006
 10
1.3000000000000007
 20
2.4000000000000004
 10
1.3000000000000007
 20
2.16
 10
1.3000000000000007
 20
1.92
 10
1.3000000000000007
 20
1.6799999999999997
 10
1.300000000000001
 20
1.4399999999999995
 10
1.300000000000001
 20
1.1999999999999993
 10
1.300000000000001
 20
0.9600000000000009
 10
1.300000000000001
 20
0.7200000000000006
 10
1.300000000000001
 20
0.4800000000000004
 10
1.300000000000001
 20
0.2400000000000002
 10
1.300000000000001
 20
0.0
  0
LWPOLYLINE
  5
30
330
17
100
AcDbEntity
  8
0
100
AcDbPolyline
 90
51
 70
0
 10
-12.7
 20
5.0
 10
-12.7
 20
5.14
 10
-12.7
 20
5.28
 10
-12.7
 20
5.42
 10
-12.7
 20
5.5600000000000005
 10
-12.7
 20
5.7
 10
-12.7
 20
5.84
 10
-12.7
 20
5.98
 10
-12.7
 20
6.12
 10
-12.7
 20
6.26
 10
-12.7
 20
6.4
 10
-12.7
 20
6.54
 10
-12.7
 20
6.68
 10
-12.7
 20
6.82
 10
-12.7
 20
6.96
 10
-12.7
 20
7.1
 10
-12.7
 20
7.24
 10
-12.7
 20
7.38
 10
-12.7
 20
7.52
 10
-12.7
 20
7.66
 10
-12.7
 20
7.8
 10
-12.7
 20
7.9399999999999995
 10
-12.7
 20
8.08
 10
-12.7
 20
8.22
 10
-12.7
 20
8.36
 10
-12.7
 20
8.5
 10
-12.700000000000001
 20
8.64
 10
-12.700000000000001
 20
8.78
 10
-12.700000000000001
 20
8.92
 10
-12.700000000000001
 20
9.059999999999999
 10
-12.700000000000001
 20
9.2
 10
-12.700000000000001
 20
9.34
 10
-12.700000000000001
 20
9.48
 10
-12.700000000000001
 20
9.620000000000001
 10
-12.700000000000001
 20
9.76
 10
-12.700000000000001
 20
9.9
 10
-12.700000000000001
 20
10.04
 10
-12.700000000000001
 20
10.18
 10
-12.700000000000001
 20
10.32
 10
-12.700000000000001
 20
10.46
 10
-12.700000000000001
 20
10.6
 10
-12.700000000000001
 20
10.74
 10
-12.700000000000001
 20
10.879999999999999
 10
-12.700000000000001
 20
11.02
 10
-12.700000000000001
 20
11.16
 10
-12.700000000000001
 20
11.3
 10
-12.700000000000001
 20
11.440000000000001
 10
-12.700000000000001
 20
11.58
 10
-12.700000000000001
 20
11.719999999999999
 10
-12.700000000000001
 20
11.86
 10
-12.700000000000001
 20
12.0
  0
LWPOLYLINE
  5
31
330
17
100
AcDbEntity
  8
0
100
AcDbPolyline
 90
51
 70
0
 10
-12.7
 20
11.999999999999998
 10
-12.686187098997902
 20
12.439533636705189
 10
-12.644802909201346
 20
12.877332634950129
 10
-12.576010755100821
 20
13.31166920210007
 10
-12.480082127900417
 20
13.740829210153985
 10
-12.357395614066075
 20
14.16311896062463
 10
-12.208435401217761
 20
14.576871868792741
 10
-12.033789367262138
 20
14.980455040955508
 10
-11.834146760307046
 20
15.372275718712004
 10
-11.610295478514104
 20
15.750787564852978
 10
-11.363118960624632
 20
16.11449676604731
 10
-11.093592699430527
 20
16.461967928240824
 10
-10.80278039194988
 20
16.79182974150082
 10
-10.491829741500823
 20
17.102780391949878
 10
-10.161967928240827
 20
17.393592699430528
 10
-9.814496766047313
 20
17.66311896062463
 10
-9.45078756485298
 20
17.910295478514104
 10
-9.072275718712007
 20
18.134146760307047
 10
-8.680455040955511
 20
18.333789367262135
 10
-8.276871868792746
 20
18.50843540121776
 10
-7.863118960624634
 20
18.657395614066075
 10
-7.4408292101539875
 20
18.780082127900418
 10
-7.011669202100073
 20
18.876010755100822
 10
-6.577332634950133
 20
18.944802909201343
 10
-6.139533636705193
 20
18.986187098997902
 10
-5.700000000000002
 20
19.0
 10
-5.26046636329481
 20
18.986187098997902
 10
-4.822667365049871
 20
18.944802909201346
 10
-4.388330797899931
 20
18.876010755100822
 10
-3.959170789846016
 20
18.780082127900418
 10
-3.53688103937537
 20
18.657395614066075
 10
-3.1231281312072587
 20
18.50843540121776
 10
-2.7195449590444922
 20
18.333789367262135
 10
-2.3277242812879906
 20
18.134146760307043
 10
-1.9492124351470235
 20
17.910295478514104
 10
-1.5855032339526902
 20
17.663118960624633
 10
-1.238032071759176
 20
17.393592699430528
 10
-0.9081702584991795
 20
17.10278039194988
 10
-0.5972196080501213
 20
16.791829741500823
 10
-0.3064073005694752
 20
16.461967928240828
 10
-0.036881039375369795
 20
16.114496766047314
 10
0.21029547851410335
 20
15.75078756485298
 10
0.434146760307045
 20
15.372275718712007
 10
0.6337893672621355
 20
14.980455040955512
 10
0.8084354012177597
 20
14.576871868792745
 10
0.9573956140660744
 20
14.163118960624633
 10
1.0800821279004165
 20
13.740829210153988
 10
1.1760107551008199
 20
13.311669202100074
 10
1.2448029092013444
 20
12.877332634950132
 10
1.2861870989979005
 20
12.439533636705193
 10
1.2999999999999998
 20
12.000000000000002
  0
LWPOLYLINE
  5
32
330
17
100
AcDbEntity
  8
0
100
AcDbPolyline
 90
51
 70
0
 10
1.3
 20
9.2370555648813e-17
 10
0.748
 20
5.314859663485548e-17
 10
0.19599999999999995
 20
1.3926637620897957e-17
 10
-0.3560000000000001
 20
-2.5295321393059565e-17
 10
-0.9080000000000001
 20
-6.451728040701708e-17
 10
-1.4599999999999997
 20
-1.0373923942097458e-16
 10
-2.0120000000000005
 20
-1.4296119843493215e-16
 10
-2.564
 20
-1.8218315744888964e-16
 10
-3.1160000000000005
 20
-2.214051164628472e-16
 10
-3.668
 20
-2.606270754768047e-16
 10
-4.22
 20
-2.9984903449076214e-16
 10
-4.772
 20
-3.390709935047197e-16
 10
-5.324000000000001
 20
-3.7829295251867726e-16
 10
-5.876
 20
-4.1751491153263477e-16
 10
-6.428000000000001
 20
-4.567368705465923e-16
 10
-6.9799999999999995
 20
-4.959588295605497e-16
 10
-7.532000000000001
 20
-5.351807885745073e-16
 10
-8.084
 20
-5.744027475884648e-16
 10
-8.636
 20
-6.136247066024223e-16
 10
-9.187999999999999
 20
-6.528466656163798e-16
 10
-9.739999999999998
 20
-6.920686246303373e-16
 10
-10.292
 20
-7.312905836442949e-16
 10
-10.844
 20
-7.705125426582523e-16
 10
-11.396
 20
-8.097345016722099e-16
 10
-11.948
 20
-8.489564606861674e-16
 10
-12.5
 20
-8.881784197001249e-16
 10
-13.052
 20
-9.274003787140823e-16
 10
-13.604000000000001
 20
-9.6662233772804e-16
 10
-14.156
 20
-1.0058442967419976e-15
 10
-14.708000000000002
 20
-1.045066255755955e-15
 10
-15.259999999999998
 20
-1.0842882147699124e-15
 10
-15.812000000000001
 20
-1.12351017378387e-15
 10
-16.364
 20
-1.1627321327978276e-15
 10
-16.916
 20
-1.2019540918117851e-15
 10
-17.468
 20
-1.2411760508257426e-15
 10
-18.02
 20
-1.2803980098397001e-15
 10
-18.572
 20
-1.3196199688536576e-15
 10
-19.124
 20
-1.3588419278676152e-15
 10
-19.676
 20
-1.3980638868815725e-15
 10
-20.228
 20
-1.4372858458955304e-15
 10
-20.779999999999998
 20
-1.4765078049094875e-15
 10
-21.332
 20
-1.5157297639234452e-15
 10
-21.884
 20
-1.5549517229374027e-15
 10
-22.436
 20
-1.5941736819513602e-15
 10
-22.988
 20
-1.6333956409653177e-15
 10
-23.54
 20
-1.6726175999792752e-15
 10
-24.092000000000002
 20
-1.711839558993233e-15
 10
-24.644000000000002
 20
-1.7510615180071904e-15
 10
-25.196
 20
-1.7902834770211478e-15
 10
-25.748
 20
-1.8295054360351055e-15
 10
-26.3
 20
-1.8687273950490628e-15
  0
LWPOLYLINE
  5
33
330
17
100
AcDbEntity
  8
0
100
AcDbPolyline
 90
51
 70
0
 10
-1.7000000000000002
 20
12.0
 10
-1.7177521415876802
 20
11.623566746725944
 10
-1.7708509970852453
 20
11.2504747416571
 10
-1.858825257292228
 20
10.884035575843082
 10
-1.9808940564469943
 20
10.527501789261288
 10
-2.1359739032465286
 20
10.184038001041813
 10
-2.3226882979919394
 20
9.856692820084014
 10
-2.539379950497238
 20
9.548371785388095
 10
-2.7841254903143544
 20
9.261811576285245
 10
-3.054752538705393
 20
8.999555721478162
 10
-3.348858990830107
 20
8.76393202250021
 10
-3.663834336998516
 20
8.557031891984225
 10
-3.9968828337397087
 20
8.380691790135923
 10
-4.345048319018835
 20
8.236476924183098
 10
-4.705240451340581
 20
8.125667355485476
 10
-5.074262139839076
 20
8.049246637619449
 10
-5.448837921882745
 20
8.007893086286913
 10
-5.8256430363125125
 20
8.001973758537073
 10
-6.201332934257217
 20
8.031541194742088
 10
-6.572572965586168
 20
8.09633295224501
 10
-6.936067977499789
 20
8.195773934819385
 10
-7.288591562539123
 20
8.328981497264076
 10
-7.627014696406862
 20
8.494773279824546
 10
-7.9483335114085225
 20
8.691677702901753
 10
-8.249695958994758
 20
8.917947028896844
 10
-8.528427124746191
 20
9.171572875253808
 10
-8.782052971103157
 20
9.450304041005243
 10
-9.008322297098246
 20
9.751666488591477
 10
-9.205226720175455
 20
10.07298530359314
 10
-9.371018502735923
 20
10.411408437460876
 10
-9.504226065180614
 20
10.76393202250021
 10
-9.603667047754989
 20
11.127427034413827
 10
-9.668458805257911
 20
11.498667065742781
 10
-9.698026241462927
 20
11.874356963687486
 10
-9.692106913713086
 20
12.251162078117252
 10
-9.650753362380552
 20
12.625737860160923
 10
-9.574332644514524
 20
12.99475954865942
 10
-9.463523075816902
 20
13.354951680981165
 10
-9.31930820986408
 20
13.703117166260288
 10
-9.142968108015774
 20
14.036165663001487
 10
-8.93606797749979
 20
14.351141009169892
 10
-8.70044427852184
 20
14.645247461294606
 10
-8.438188423714752
 20
14.915874509685647
 10
-8.151628214611906
 20
15.16062004950276
 10
-7.8433071799159855
 20
15.377311702008061
 10
-7.515961998958188
 20
15.564026096753471
 10
-7.172498210738712
 20
15.719105943553005
 10
-6.815964424156919
 20
15.841174742707771
 10
-6.449525258342899
 20
15.929149002914755
 10
-6.076433253274057
 20
15.98224785841232
 10
-5.700000000000001
 20
16.0
  0
LWPOLYLINE
  5
34
330
17
100
AcDbEntity
  8
0
100
AcDbPolyline
 90
51
 70
0
 10
-5.7
 20
16.0
 10
-5.574356963687487
 20
15.998026241462927
 10
-5.448837921882746
 20
15.992106913713087
 10
-5.323566746725943
 20
15.98224785841232
 10
-5.198667065742783
 20
15.968458805257912
 10
-5.074262139839076
 20
15.950753362380551
 10
-4.950474741657102
 20
15.929149002914755
 10
-4.82742703441383
 20
15.90366704775499
 10
-4.705240451340581
 20
15.874332644514524
 10
-4.5840355758430835
 20
15.841174742707771
 10
-4.46393202250021
 20
15.804226065180615
 10
-4.345048319018835
 20
15.763523075816902
 10
-4.2275017892612885
 20
15.719105943553005
 10
-4.111408437460877
 20
15.671018502735924
 10
-3.9968828337397095
 20
15.619308209864078
 10
-3.884038001041813
 20
15.564026096753471
 10
-3.772985303593139
 20
15.505226720175454
 10
-3.663834336998515
 20
15.442968108015775
 10
-3.5566928200840136
 20
15.377311702008061
 10
-3.451666488591478
 20
15.308322297098247
 10
-3.3488589908301076
 20
15.23606797749979
 10
-3.2483717853880942
 20
15.16062004950276
 10
-3.1503040410052416
 20
15.082052971103156
 10
-3.054752538705393
 20
15.000444278521838
 10
-2.9618115762852457
 20
14.915874509685647
 10
-2.87157287525381
 20
14.82842712474619
 10
-2.784125490314354
 20
14.738188423714755
 10
-2.6995557214781623
 20
14.645247461294607
 10
-2.617947028896843
 20
14.549695958994759
 10
-2.5393799504972385
 20
14.451628214611906
 10
-2.463932022500211
 20
14.351141009169893
 10
-2.391677702901753
 20
14.248333511408523
 10
-2.32268829799194
 20
14.143307179915986
 10
-2.2570318919842256
 20
14.036165663001485
 10
-2.1947732798245454
 20
13.92701469640686
 10
-2.135973903246529
 20
13.815961998958187
 10
-2.080691790135922
 20
13.703117166260292
 10
-2.0289814972640756
 20
13.588591562539122
 10
-1.9808940564469948
 20
13.472498210738712
 10
-1.9364769241830984
 20
13.354951680981166
 10
-1.895773934819386
 20
13.23606797749979
 10
-1.8588252572922284
 20
13.115964424156918
 10
-1.8256673554854759
 20
12.994759548659419
 10
-1.7963329522450109
 20
12.872572965586171
 10
-1.7708509970852457
 20
12.7495252583429
 10
-1.749246637619449
 20
12.625737860160923
 10
-1.7315411947420891
 20
12.501332934257217
 10
-1.7177521415876802
 20
12.376433253274056
 10
-1.707893086286914
 20
12.251162078117254
 10
-1.7019737585370738
 20
12.125643036312514
 10
-1.7000000000000002
 20
12.0
  0
LWPOLYLINE
  5
35
330
17
100
AcDbEntity
  8
0
100
AcDbPolyline
 90
51
 70
0
 10
-26.3
 20
-1.86872739504906e-15
 10
-26.3
 20
0.09999999999999816
 10
-26.3
 20
0.1999999999999982
 10
-26.3
 20
0.2999999999999982
 10
-26.3
 20
0.39999999999999825
 10
-26.3
 20
0.4999999999999982
 10
-26.3
 20
0.5999999999999983
 10
-26.3
 20
0.6999999999999984
 10
-26.3
 20
0.7999999999999984
 10
-26.3
 20
0.8999999999999984
 10
-26.3
 20
0.9999999999999984
 10
-26.3
 20
1.0999999999999988
 10
-26.3
 20
1.1999999999999986
 10
-26.3
 20
1.2999999999999987
 10
-26.3
 20
1.3999999999999988
 10
-26.3
 20
1.499999999999999
 10
-26.3
 20
1.5999999999999988
 10
-26.3
 20
1.6999999999999988
 10
-26.3
 20
1.7999999999999987
 10
-26.3
 20
1.8999999999999988
 10
-26.3
 20
1.9999999999999987
 10
-26.3
 20
2.099999999999999
 10
-26.3
 20
2.1999999999999993
 10
-26.3
 20
2.299999999999999
 10
-26.3
 20
2.399999999999999
 10
-26.3
 20
2.499999999999999
 10
-26.3
 20
2.599999999999999
 10
-26.3
 20
2.6999999999999993
 10
-26.3
 20
2.7999999999999994
 10
-26.3
 20
2.8999999999999995
 10
-26.3
 20
2.9999999999999996
 10
-26.3
 20
3.099999999999999
 10
-26.3
 20
3.1999999999999993
 10
-26.3
 20
3.2999999999999994
 10
-26.3
 20
3.3999999999999995
 10
-26.3
 20
3.4999999999999996
 10
-26.3
 20
3.599999999999999
 10
-26.3
 20
3.6999999999999993
 10
-26.3
 20
3.7999999999999994
 10
-26.3
 20
3.8999999999999995
 10
-26.3
 20
3.999999999999999
 10
-26.3
 20
4.1
 10
-26.3
 20
4.2
 10
-26.3
 20
4.3
 10
-26.3
 20
4.4
 10
-26.3
 20
4.5
 10
-26.3
 20
4.6
 10
-26.3
 20
4.7
 10
-26.3
 20
4.8
 10
-26.3
 20
4.9
 10
-26.3
 20
5.0
  0
LWPOLYLINE
  5
36
330
17
100
AcDbEntity
  8
0
100
AcDbPolyline
 90
51
 70
0
 10
-20.0
 20
5.0
 10
-19.854
 20
5.0
 10
-19.708
 20
5.0
 10
-19.562
 20
5.0
 10
-19.416
 20
5.0
 10
-19.27
 20
5.0
 10
-19.124
 20
5.0
 10
-18.978
 20
5.0
 10
-18.832
 20
5.0
 10
-18.686
 20
5.0
 10
-18.54
 20
5.0
 10
-18.394
 20
5.0
 10
-18.247999999999998
 20
5.0
 10
-18.102
 20
5.0
 10
-17.956
 20
5.0
 10
-17.81
 20
5.0
 10
-17.664
 20
5.0
 10
-17.518
 20
5.0
 10
-17.372
 20
5.0
 10
-17.226
 20
5.0
 10
-17.08
 20
5.0
 10
-16.933999999999997
 20
5.0
 10
-16.788
 20
5.0
 10
-16.642
 20
5.0
 10
-16.496
 20
5.0
 10
-16.35
 20
5.0
 10
-16.204
 20
5.0
 10
-16.058
 20
5.0
 10
-15.911999999999999
 20
5.0
 10
-15.766
 20
5.0
 10
-15.62
 20
5.0
 10
-15.474
 20
5.0
 10
-15.328
 20
5.0
 10
-15.181999999999999
 20
5.0
 10
-15.036
 20
5.0
 10
-14.89
 20
5.0
 10
-14.744
 20
5.0
 10
-14.597999999999999
 20
5.0
 10
-14.451999999999998
 20
5.0
 10
-14.306
 20
5.0
 10
-14.16
 20
5.0
 10
-14.014
 20
5.0
 10
-13.867999999999999
 20
5.0
 10
-13.722
 20
5.0
 10
-13.575999999999999
 20
5.0
 10
-13.43
 20
5.0
 10
-13.283999999999999
 20
5.0
 10
-13.138
 20
5.0
 10
-12.991999999999999
 20
5.0
 10
-12.846
 20
5.0
 10
-12.7
 20
5.0
  0
LWPOLYLINE
  5
37
330
17
100
AcDbEntity
  8
0
100
AcDbPolyline
 90
51
 70
0
 10
-26.3
 20
5.0
 10
-26.028000000000002
 20
5.0
 10
-25.756
 20
5.0
 10
-25.484
 20
5.0
 10
-25.212
 20
5.0
 10
-24.94
 20
5.0
 10
-24.668
 20
5.0
 10
-24.396
 20
5.0
 10
-24.124000000000002
 20
5.0
 10
-23.852
 20
5.0
 10
-23.580000000000002
 20
5.0
 10
-23.308
 20
5.0
 10
-23.036
 20
5.0
 10
-22.764
 20
5.0
 10
-22.492
 20
5.0
 10
-22.22
 20
5.0
 10
-21.948
 20
5.0
 10
-21.676000000000002
 20
5.0
 10
-21.404
 20
5.0
 10
-21.131999999999998
 20
5.0
 10
-20.86
 20
5.0
 10
-20.588
 20
5.0
 10
-20.316
 20
5.0
 10
-20.044
 20
5.0
 10
-19.772
 20
5.0
 10
-19.5
 20
5.0
 10
-19.228
 20
5.0
 10
-18.956
 20
5.0
 10
-18.683999999999997
 20
5.0
 10
-18.412
 20
5.0
 10
-18.14
 20
5.0
 10
-17.868000000000002
 20
5.0
 10
-17.596
 20
5.0
 10
-17.323999999999998
 20
5.0
 10
-17.052
 20
5.0
 10
-16.78
 20
5.0
 10
-16.508000000000003
 20
5.0
 10
-16.236
 20
5.0
 10
-15.963999999999999
 20
5.0
 10
-15.691999999999998
 20
5.0
 10
-15.42
 20
5.0
 10
-15.148
 20
5.0
 10
-14.876
 20
5.0
 10
-14.604
 20
5.0
 10
-14.331999999999999
 20
5.0
 10
-14.059999999999999
 20
5.0
 10
-13.788
 20
5.0
 10
-13.516
 20
5.0
 10
-13.244
 20
5.0
 10
-12.972
 20
5.0
 10
-12.7
 20
5.0
  0
LWPOLYLINE
  5
38
330
17
100
AcDbEntity
  8
0
100
AcDbPolyline
 90
51
 70
0
 10
-12.7
 20
5.0
 10
-12.7
 20
5.14
 10
-12.7
 20
5.28
 10
-12.7
 20
5.42
 10
-12.7
 20
5.5600000000000005
 10
-12.7
 20
5.7
 10
-12.7
 20
5.84
 10
-12.7
 20
5.98
 10
-12.7
 20
6.12
 10
-12.7
 20
6.26
 10
-12.7
 20
6.4
 10
-12.7
 20
6.54
 10
-12.7
 20
6.68
 10
-12.7
 20
6.82
 10
-12.7
 20
6.96
 10
-12.7
 20
7.1
 10
-12.7
 20
7.24
 10
-12.7
 20
7.38
 10
-12.7
 20
7.52
 10
-12.7
 20
7.66
 10
-12.7
 20
7.8
 10
-12.7
 20
7.9399999999999995
 10
-12.7
 20
8.08
 10
-12.7
 20
8.22
 10
-12.7
 20
8.36
 10
-12.7
 20
8.5
 10
-12.700000000000001
 20
8.64
 10
-12.700000000000001
 20
8.78
 10
-12.700000000000001
 20
8.92
 10
-12.700000000000001
 20
9.059999999999999
 10
-12.700000000000001
 20
9.2
 10
-12.700000000000001
 20
9.34
 10
-12.700000000000001
 20
9.48
 10
-12.700000000000001
 20
9.620000000000001
 10
-12.700000000000001
 20
9.76
 10
-12.700000000000001
 20
9.9
 10
-12.700000000000001
 20
10.04
 10
-12.700000000000001
 20
10.18
 10
-12.700000000000001
 20
10.32
 10
-12.700000000000001
 20
10.46
 10
-12.700000000000001
 20
10.6
 10
-12.700000000000001
 20
10.74
 10
-12.700000000000001
 20
10.879999999999999
 10
-12.700000000000001
 20
11.02
 10
-12.700000000000001
 20
11.16
 10
-12.700000000000001
 20
11.3
 10
-12.700000000000001
 20
11.440000000000001
 10
-12.700000000000001
 20
11.58
 10
-12.700000000000001
 20
11.719999999999999
 10
-12.700000000000001
 20
11.86
 10
-12.700000000000001
 20
12.0
  0
ENDSEC
  0
SECTION
  2
OBJECTS
  0
DICTIONARY
  5
A
330
0
100
AcDbDictionary
280
0
281
1
  3
ACAD_COLOR
350
B
  3
ACAD_GROUP
350
C
  3
ACAD_LAYOUT
350
D
  3
ACAD_MATERIAL
350
E
  3
ACAD_MLEADERSTYLE
350
F
  3
ACAD_MLINESTYLE
350
10
  3
ACAD_PLOTSETTINGS
350
11
  3
ACAD_PLOTSTYLENAME
350
12
  3
ACAD_SCALELIST
350
14
  3
ACAD_TABLESTYLE
350
15
  3
ACAD_VISUALSTYLE
350
16
  3
EZDXF_META
350
2D
  0
DICTIONARY
  5
B
330
A
100
AcDbDictionary
280
0
281
1
  0
DICTIONARY
  5
C
330
A
100
AcDbDictionary
280
0
281
1
  0
DICTIONARY
  5
D
330
A
100
AcDbDictionary
280
0
281
1
  3
Model
350
1A
  3
Layout1
350
1E
  0
DICTIONARY
  5
E
330
A
100
AcDbDictionary
280
0
281
1
  3
ByBlock
350
1F
  3
ByLayer
350
20
  3
Global
350
21
  0
DICTIONARY
  5
F
330
A
100
AcDbDictionary
280
0
281
1
  3
Standard
350
2C
  0
DICTIONARY
  5
10
330
A
100
AcDbDictionary
280
0
281
1
  3
Standard
350
22
  0
DICTIONARY
  5
11
330
A
100
AcDbDictionary
280
0
281
1
  0
ACDBDICTIONARYWDFLT
  5
12
330
A
100
AcDbDictionary
280
0
281
1
  3
Normal
350
13
100
AcDbDictionaryWithDefault
340
13
  0
ACDBPLACEHOLDER
  5
13
330
12
  0
DICTIONARY
  5
14
330
A
100
AcDbDictionary
280
0
281
1
  0
DICTIONARY
  5
15
330
A
100
AcDbDictionary
280
0
281
1
  0
DICTIONARY
  5
16
330
A
100
AcDbDictionary
280
0
281
1
  0
LAYOUT
  5
1A
330
D
100
AcDbPlotSettings
  1

  2
Adobe PDF
  4
A3
  6

 40
7.5
 41
20.0
 42
7.5
 43
20.0
 44
420.0
 45
297.0
 46
0.0
 47
0.0
 48
0.0
 49
0.0
140
0.0
141
0.0
142
1.0
143
1.0
 70
1024
 72
1
 73
0
 74
5
  7

 75
16
 76
0
 77
2
 78
300
147
1.0
148
0.0
149
0.0
100
AcDbLayout
  1
Model
 70
1
 71
0
 10
0.0
 20
0.0
 11
420.0
 21
297.0
 12
0.0
 22
0.0
 32
0.0
 14
1e+20
 24
1e+20
 34
1e+20
 15
-1e+20
 25
-1e+20
 35
-1e+20
146
0.0
 13
0.0
 23
0.0
 33
0.0
 16
1.0
 26
0.0
 36
0.0
 17
0.0
 27
1.0
 37
0.0
 76
1
330
17
  0
LAYOUT
  5
1E
330
D
100
AcDbPlotSettings
  1

  2
Adobe PDF
  4
A3
  6

 40
7.5
 41
20.0
 42
7.5
 43
20.0
 44
420.0
 45
297.0
 46
0.0
 47
0.0
 48
0.0
 49
0.0
140
0.0
141
0.0
142
1.0
143
1.0
 70
0
 72
1
 73
0
 74
5
  7

 75
16
 76
0
 77
2
 78
300
147
1.0
148
0.0
149
0.0
100
AcDbLayout
  1
Layout1
 70
1
 71
1
 10
0.0
 20
0.0
 11
420.0
 21
297.0
 12
0.0
 22
0.0
 32
0.0
 14
1e+20
 24
1e+20
 34
1e+20
 15
-1e+20
 25
-1e+20
 35
-1e+20
146
0.0
 13
0.0
 23
0.0
 33
0.0
 16
1.0
 26
0.0
 36
0.0
 17
0.0
 27
1.0
 37
0.0
 76
1
330
1B
  0
MATERIAL
  5
1F
102
{ACAD_REACTORS
330
E
102
}
330
E
100
AcDbMaterial
  1
ByBlock
  2

 70
0
 40
1.0
 71
1
 41
1.0
 91
-1023410177
 42
1.0
 72
1
  3

 73
1
 74
1
 75
1
 44
0.5
 73
0
 45
1.0
 46
1.0
 77
1
  4

 78
1
 79
1
170
1
 48
1.0
171
1
  6

172
1
173
1
174
1
140
1.0
141
1.0
175
1
  7

176
1
177
1
178
1
143
1.0
179
1
  8

270
1
271
1
272
1
145
1.0
146
1.0
273
1
  9

274
1
275
1
276
1
 42
1.0
 72
1
  3

 73
1
 74
1
 75
1
 94
63
  0
MATERIAL
  5
20
102
{ACAD_REACTORS
330
E
102
}
330
E
100
AcDbMaterial
  1
ByLayer
  2

 70
0
 40
1.0
 71
1
 41
1.0
 91
-1023410177
 42
1.0
 72
1
  3

 73
1
 74
1
 75
1
 44
0.5
 73
0
 45
1.0
 46
1.0
 77
1
  4

 78
1
 79
1
170
1
 48
1.0
171
1
  6

172
1
173
1
174
1
140
1.0
141
1.0
175
1
  7

176
1
177
1
178
1
143
1.0
179
1
  8

270
1
271
1
272
1
145
1.0
146
1.0
273
1
  9

274
1
275
1
276
1
 42
1.0
 72
1
  3

 73
1
 74
1
 75
1
 94
63
  0
MATERIAL
  5
21
102
{ACAD_REACTORS
330
E
102
}
330
E
100
AcDbMaterial
  1
Global
  2

 70
0
 40
1.0
 71
1
 41
1.0
 91
-1023410177
 42
1.0
 72
1
  3

 73
1
 74
1
 75
1
 44
0.5
 73
0
 45
1.0
 46
1.0
 77
1
  4

 78
1
 79
1
170
1
 48
1.0
171
1
  6

172
1
173
1
174
1
140
1.0
141
1.0
175
1
  7

176
1
177
1
178
1
143
1.0
179
1
  8

270
1
271
1
272
1
145
1.0
146
1.0
273
1
  9

274
1
275
1
276
1
 42
1.0
 72
1
  3

 73
1
 74
1
 75
1
 94
63
  0
MLINESTYLE
  5
22
102
{ACAD_REACTORS
330
10
102
}
330
10
100
AcDbMlineStyle
  2
Standard
 70
0
  3

 62
256
 51
90.0
 52
90.0
 71
2
 49
0.5
 62
256
  6
BYLAYER
 49
-0.5
 62
256
  6
BYLAYER
  0
MLEADERSTYLE
  5
2C
102
{ACAD_REACTORS
330
F
102
}
330
F
100
AcDbMLeaderStyle
179
2
170
2
171
1
172
0
 90
2
 40
0.0
 41
0.0
173
1
 91
-1056964608
 92
-2
290
1
 42
2.0
291
1
 43
8.0
  3
Standard
 44
4.0
300

342
29
174
1
175
1
176
0
178
1
 93
-1056964608
 45
4.0
292
0
297
0
 46
4.0
 94
-1056964608
 47
1.0
 49
1.0
140
1.0
294
1
141
0.0
177
0
142
1.0
295
0
296
0
143
3.75
271
0
272
9
273
9
  0
DICTIONARY
  5
2D
330
A
100
AcDbDictionary
281
1
  3
CREATED_BY_EZDXF
350
2E
  3
WRITTEN_BY_EZDXF
350
3B
  0
DICTIONARYVAR
  5
2E
330
2D
100
DictionaryVariables
280
0
  1
1.0.3 @ 2025-06-07T16:29:12.386895+00:00
  0
DICTIONARYVAR
  5
3B
330
2D
100
DictionaryVariables
280
0
  1
1.0.3 @ 2025-06-07T16:29:12.389920+00:00
  0
ENDSEC
  0
EOF
