  0
SECTION
  2
HEADER
  9
$ACADVER
  1
AC1027
  9
$ACADMAINTVER
 70
105
  9
$DWGCODEPAGE
  3
ANSI_1252
  9
$LASTSAVEDBY
  1
ezdxf
  9
$REQUIREDVERSIONS
160
0
  9
$INSBASE
 10
0.0
 20
0.0
 30
0.0
  9
$EXTMIN
 10
1e+20
 20
1e+20
 30
1e+20
  9
$EXTMAX
 10
-1e+20
 20
-1e+20
 30
-1e+20
  9
$LIMMIN
 10
0.0
 20
0.0
  9
$LIMMAX
 10
420.0
 20
297.0
  9
$ORTHOMODE
 70
0
  9
$REGENMODE
 70
1
  9
$FILLMODE
 70
1
  9
$QTEXTMODE
 70
0
  9
$MIRRTEXT
 70
1
  9
$LTSCALE
 40
1.0
  9
$ATTMODE
 70
1
  9
$TEXTSIZE
 40
2.5
  9
$TRACEWID
 40
1.0
  9
$TEXTSTYLE
  7
Standard
  9
$CLAYER
  8
0
  9
$CELTYPE
  6
ByLayer
  9
$CECOLOR
 62
256
  9
$CELTSCALE
 40
1.0
  9
$DISPSILH
 70
0
  9
$DIMSCALE
 40
1.0
  9
$DIMASZ
 40
2.5
  9
$DIMEXO
 40
0.625
  9
$DIMDLI
 40
3.75
  9
$DIMRND
 40
0.0
  9
$DIMDLE
 40
0.0
  9
$DIMEXE
 40
1.25
  9
$DIMTP
 40
0.0
  9
$DIMTM
 40
0.0
  9
$DIMTXT
 40
2.5
  9
$DIMCEN
 40
2.5
  9
$DIMTSZ
 40
0.0
  9
$DIMTOL
 70
0
  9
$DIMLIM
 70
0
  9
$DIMTIH
 70
0
  9
$DIMTOH
 70
0
  9
$DIMSE1
 70
0
  9
$DIMSE2
 70
0
  9
$DIMTAD
 70
1
  9
$DIMZIN
 70
8
  9
$DIMBLK
  1

  9
$DIMASO
 70
1
  9
$DIMSHO
 70
1
  9
$DIMPOST
  1

  9
$DIMAPOST
  1

  9
$DIMALT
 70
0
  9
$DIMALTD
 70
3
  9
$DIMALTF
 40
0.03937007874
  9
$DIMLFAC
 40
1.0
  9
$DIMTOFL
 70
1
  9
$DIMTVP
 40
0.0
  9
$DIMTIX
 70
0
  9
$DIMSOXD
 70
0
  9
$DIMSAH
 70
0
  9
$DIMBLK1
  1

  9
$DIMBLK2
  1

  9
$DIMSTYLE
  2
ISO-25
  9
$DIMCLRD
 70
0
  9
$DIMCLRE
 70
0
  9
$DIMCLRT
 70
0
  9
$DIMTFAC
 40
1.0
  9
$DIMGAP
 40
0.625
  9
$DIMJUST
 70
0
  9
$DIMSD1
 70
0
  9
$DIMSD2
 70
0
  9
$DIMTOLJ
 70
0
  9
$DIMTZIN
 70
8
  9
$DIMALTZ
 70
0
  9
$DIMALTTZ
 70
0
  9
$DIMUPT
 70
0
  9
$DIMDEC
 70
2
  9
$DIMTDEC
 70
2
  9
$DIMALTU
 70
2
  9
$DIMALTTD
 70
3
  9
$DIMTXSTY
  7
Standard
  9
$DIMAUNIT
 70
0
  9
$DIMADEC
 70
0
  9
$DIMALTRND
 40
0.0
  9
$DIMAZIN
 70
0
  9
$DIMDSEP
 70
44
  9
$DIMATFIT
 70
3
  9
$DIMFRAC
 70
0
  9
$DIMLDRBLK
  1

  9
$DIMLUNIT
 70
2
  9
$DIMLWD
 70
-2
  9
$DIMLWE
 70
-2
  9
$DIMTMOVE
 70
0
  9
$DIMFXL
 40
1.0
  9
$DIMFXLON
 70
0
  9
$DIMJOGANG
 40
0.785398163397
  9
$DIMTFILL
 70
0
  9
$DIMTFILLCLR
 70
0
  9
$DIMARCSYM
 70
0
  9
$DIMLTYPE
  6

  9
$DIMLTEX1
  6

  9
$DIMLTEX2
  6

  9
$DIMTXTDIRECTION
 70
0
  9
$LUNITS
 70
2
  9
$LUPREC
 70
4
  9
$SKETCHINC
 40
1.0
  9
$FILLETRAD
 40
10.0
  9
$AUNITS
 70
0
  9
$AUPREC
 70
2
  9
$MENU
  1
.
  9
$ELEVATION
 40
0.0
  9
$PELEVATION
 40
0.0
  9
$THICKNESS
 40
0.0
  9
$LIMCHECK
 70
0
  9
$CHAMFERA
 40
0.0
  9
$CHAMFERB
 40
0.0
  9
$CHAMFERC
 40
0.0
  9
$CHAMFERD
 40
0.0
  9
$SKPOLY
 70
0
  9
$TDCREATE
 40
2460825.7769328705
  9
$TDUCREATE
 40
2458532.153996898
  9
$TDUPDATE
 40
2460825.7769328705
  9
$TDUUPDATE
 40
2458532.1544311
  9
$TDINDWG
 40
0.0
  9
$TDUSRTIMER
 40
0.0
  9
$USRTIMER
 70
1
  9
$ANGBASE
 50
0.0
  9
$ANGDIR
 70
0
  9
$PDMODE
 70
0
  9
$PDSIZE
 40
0.0
  9
$PLINEWID
 40
0.0
  9
$SPLFRAME
 70
0
  9
$SPLINETYPE
 70
6
  9
$SPLINESEGS
 70
8
  9
$HANDSEED
  5
3B
  9
$SURFTAB1
 70
6
  9
$SURFTAB2
 70
6
  9
$SURFTYPE
 70
6
  9
$SURFU
 70
6
  9
$SURFV
 70
6
  9
$UCSBASE
  2

  9
$UCSNAME
  2

  9
$UCSORG
 10
0.0
 20
0.0
 30
0.0
  9
$UCSXDIR
 10
1.0
 20
0.0
 30
0.0
  9
$UCSYDIR
 10
0.0
 20
1.0
 30
0.0
  9
$UCSORTHOREF
  2

  9
$UCSORTHOVIEW
 70
0
  9
$UCSORGTOP
 10
0.0
 20
0.0
 30
0.0
  9
$UCSORGBOTTOM
 10
0.0
 20
0.0
 30
0.0
  9
$UCSORGLEFT
 10
0.0
 20
0.0
 30
0.0
  9
$UCSORGRIGHT
 10
0.0
 20
0.0
 30
0.0
  9
$UCSORGFRONT
 10
0.0
 20
0.0
 30
0.0
  9
$UCSORGBACK
 10
0.0
 20
0.0
 30
0.0
  9
$PUCSBASE
  2

  9
$PUCSNAME
  2

  9
$PUCSORG
 10
0.0
 20
0.0
 30
0.0
  9
$PUCSXDIR
 10
1.0
 20
0.0
 30
0.0
  9
$PUCSYDIR
 10
0.0
 20
1.0
 30
0.0
  9
$PUCSORTHOREF
  2

  9
$PUCSORTHOVIEW
 70
0
  9
$PUCSORGTOP
 10
0.0
 20
0.0
 30
0.0
  9
$PUCSORGBOTTOM
 10
0.0
 20
0.0
 30
0.0
  9
$PUCSORGLEFT
 10
0.0
 20
0.0
 30
0.0
  9
$PUCSORGRIGHT
 10
0.0
 20
0.0
 30
0.0
  9
$PUCSORGFRONT
 10
0.0
 20
0.0
 30
0.0
  9
$PUCSORGBACK
 10
0.0
 20
0.0
 30
0.0
  9
$USERI1
 70
0
  9
$USERI2
 70
0
  9
$USERI3
 70
0
  9
$USERI4
 70
0
  9
$USERI5
 70
0
  9
$USERR1
 40
0.0
  9
$USERR2
 40
0.0
  9
$USERR3
 40
0.0
  9
$USERR4
 40
0.0
  9
$USERR5
 40
0.0
  9
$WORLDVIEW
 70
1
  9
$SHADEDGE
 70
3
  9
$SHADEDIF
 70
70
  9
$TILEMODE
 70
1
  9
$MAXACTVP
 70
64
  9
$PINSBASE
 10
0.0
 20
0.0
 30
0.0
  9
$PLIMCHECK
 70
0
  9
$PEXTMIN
 10
1e+20
 20
1e+20
 30
1e+20
  9
$PEXTMAX
 10
-1e+20
 20
-1e+20
 30
-1e+20
  9
$PLIMMIN
 10
0.0
 20
0.0
  9
$PLIMMAX
 10
420.0
 20
297.0
  9
$UNITMODE
 70
0
  9
$VISRETAIN
 70
1
  9
$PLINEGEN
 70
0
  9
$PSLTSCALE
 70
1
  9
$TREEDEPTH
 70
3020
  9
$CMLSTYLE
  2
Standard
  9
$CMLJUST
 70
0
  9
$CMLSCALE
 40
20.0
  9
$PROXYGRAPHICS
 70
1
  9
$MEASUREMENT
 70
1
  9
$CELWEIGHT
370
-1
  9
$ENDCAPS
280
0
  9
$JOINSTYLE
280
0
  9
$LWDISPLAY
290
0
  9
$INSUNITS
 70
6
  9
$HYPERLINKBASE
  1

  9
$STYLESHEET
  1

  9
$XEDIT
290
1
  9
$CEPSNTYPE
380
0
  9
$PSTYLEMODE
290
1
  9
$FINGERPRINTGUID
  2
{5E2B0BCC-FFEB-4305-84A5-6E8497F2FE73}
  9
$VERSIONGUID
  2
{9CBFD9C5-97F8-4040-A9D0-95C6AE6DD6DF}
  9
$EXTNAMES
290
1
  9
$PSVPSCALE
 40
0.0
  9
$OLESTARTUP
290
0
  9
$SORTENTS
280
127
  9
$INDEXCTL
280
0
  9
$HIDETEXT
280
1
  9
$XCLIPFRAME
280
0
  9
$HALOGAP
280
0
  9
$OBSCOLOR
 70
257
  9
$OBSLTYPE
280
0
  9
$INTERSECTIONDISPLAY
280
0
  9
$INTERSECTIONCOLOR
 70
257
  9
$DIMASSOC
280
2
  9
$PROJECTNAME
  1

  9
$CAMERADISPLAY
290
0
  9
$LENSLENGTH
 40
50.0
  9
$CAMERAHEIGHT
 40
0.0
  9
$STEPSPERSEC
 40
24.0
  9
$STEPSIZE
 40
100.0
  9
$3DDWFPREC
 40
2.0
  9
$PSOLWIDTH
 40
0.005
  9
$PSOLHEIGHT
 40
0.08
  9
$LOFTANG1
 40
1.570796326795
  9
$LOFTANG2
 40
1.570796326795
  9
$LOFTMAG1
 40
0.0
  9
$LOFTMAG2
 40
0.0
  9
$LOFTPARAM
 70
7
  9
$LOFTNORMALS
280
1
  9
$LATITUDE
 40
37.795
  9
$LONGITUDE
 40
-122.394
  9
$NORTHDIRECTION
 40
0.0
  9
$TIMEZONE
 70
-8000
  9
$LIGHTGLYPHDISPLAY
280
1
  9
$TILEMODELIGHTSYNCH
280
1
  9
$CMATERIAL
347
20
  9
$SOLIDHIST
280
0
  9
$SHOWHIST
280
1
  9
$DWFFRAME
280
2
  9
$DGNFRAME
280
2
  9
$REALWORLDSCALE
290
1
  9
$INTERFERECOLOR
 62
256
  9
$CSHADOW
280
0
  9
$SHADOWPLANELOCATION
 40
0.0
  0
ENDSEC
  0
SECTION
  2
CLASSES
  0
CLASS
  1
ACDBDICTIONARYWDFLT
  2
AcDbDictionaryWithDefault
  3
ObjectDBX Classes
 90
0
 91
0
280
0
281
0
  0
CLASS
  1
SUN
  2
AcDbSun
  3
SCENEOE
 90
1153
 91
0
280
0
281
0
  0
CLASS
  1
VISUALSTYLE
  2
AcDbVisualStyle
  3
ObjectDBX Classes
 90
4095
 91
0
280
0
281
0
  0
CLASS
  1
MATERIAL
  2
AcDbMaterial
  3
ObjectDBX Classes
 90
1153
 91
0
280
0
281
0
  0
CLASS
  1
SCALE
  2
AcDbScale
  3
ObjectDBX Classes
 90
1153
 91
0
280
0
281
0
  0
CLASS
  1
TABLESTYLE
  2
AcDbTableStyle
  3
ObjectDBX Classes
 90
4095
 91
0
280
0
281
0
  0
CLASS
  1
MLEADERSTYLE
  2
AcDbMLeaderStyle
  3
ACDB_MLEADERSTYLE_CLASS
 90
4095
 91
0
280
0
281
0
  0
CLASS
  1
DICTIONARYVAR
  2
AcDbDictionaryVar
  3
ObjectDBX Classes
 90
0
 91
0
280
0
281
0
  0
CLASS
  1
CELLSTYLEMAP
  2
AcDbCellStyleMap
  3
ObjectDBX Classes
 90
1152
 91
0
280
0
281
0
  0
CLASS
  1
MENTALRAYRENDERSETTINGS
  2
AcDbMentalRayRenderSettings
  3
SCENEOE
 90
1024
 91
0
280
0
281
0
  0
CLASS
  1
ACDBDETAILVIEWSTYLE
  2
AcDbDetailViewStyle
  3
ObjectDBX Classes
 90
1025
 91
0
280
0
281
0
  0
CLASS
  1
ACDBSECTIONVIEWSTYLE
  2
AcDbSectionViewStyle
  3
ObjectDBX Classes
 90
1025
 91
0
280
0
281
0
  0
CLASS
  1
RASTERVARIABLES
  2
AcDbRasterVariables
  3
ISM
 90
0
 91
0
280
0
281
0
  0
CLASS
  1
LAYOUT
  2
AcDbLayout
  3
ObjectDBX Classes
 90
0
 91
0
280
0
281
0
  0
CLASS
  1
ACDBPLACEHOLDER
  2
AcDbPlaceHolder
  3
ObjectDBX Classes
 90
0
 91
0
280
0
281
0
  0
ENDSEC
  0
SECTION
  2
TABLES
  0
TABLE
  2
VPORT
  5
8
330
0
100
AcDbSymbolTable
 70
1
  0
VPORT
  5
23
330
8
100
AcDbSymbolTableRecord
100
AcDbViewportTableRecord
  2
*Active
 70
0
 10
0.0
 20
0.0
 11
1.0
 21
1.0
 12
0.0
 22
0.0
 13
0.0
 23
0.0
 14
0.5
 24
0.5
 15
0.5
 25
0.5
 16
0.0
 26
0.0
 36
1.0
 17
0.0
 27
0.0
 37
0.0
 40
1000.0
 41
1.34
 42
50.0
 43
0.0
 44
0.0
 50
0.0
 51
0.0
 71
0
 72
1000
 73
1
 74
3
 75
0
 76
0
 77
0
 78
0
281
0
 65
0
146
0.0
  0
ENDTAB
  0
TABLE
  2
LTYPE
  5
2
330
0
100
AcDbSymbolTable
 70
3
  0
LTYPE
  5
24
330
2
100
AcDbSymbolTableRecord
100
AcDbLinetypeTableRecord
  2
ByBlock
 70
0
  3

 72
65
 73
0
 40
0.0
  0
LTYPE
  5
25
330
2
100
AcDbSymbolTableRecord
100
AcDbLinetypeTableRecord
  2
ByLayer
 70
0
  3

 72
65
 73
0
 40
0.0
  0
LTYPE
  5
26
330
2
100
AcDbSymbolTableRecord
100
AcDbLinetypeTableRecord
  2
Continuous
 70
0
  3

 72
65
 73
0
 40
0.0
  0
ENDTAB
  0
TABLE
  2
LAYER
  5
1
330
0
100
AcDbSymbolTable
 70
2
  0
LAYER
  5
27
330
1
100
AcDbSymbolTableRecord
100
AcDbLayerTableRecord
  2
0
 70
0
 62
7
  6
Continuous
370
-3
390
13
347
21
  0
LAYER
  5
28
330
1
100
AcDbSymbolTableRecord
100
AcDbLayerTableRecord
  2
Defpoints
 70
0
 62
7
  6
Continuous
290
0
370
-3
390
13
347
21
  0
ENDTAB
  0
TABLE
  2
STYLE
  5
5
330
0
100
AcDbSymbolTable
 70
1
  0
STYLE
  5
29
330
5
100
AcDbSymbolTableRecord
100
AcDbTextStyleTableRecord
  2
Standard
 70
0
 40
0.0
 41
1.0
 50
0.0
 71
0
 42
2.5
  3
txt
  4

  0
ENDTAB
  0
TABLE
  2
VIEW
  5
7
330
0
100
AcDbSymbolTable
 70
0
  0
ENDTAB
  0
TABLE
  2
UCS
  5
6
330
0
100
AcDbSymbolTable
 70
0
  0
ENDTAB
  0
TABLE
  2
APPID
  5
3
330
0
100
AcDbSymbolTable
 70
3
  0
APPID
  5
2A
330
3
100
AcDbSymbolTableRecord
100
AcDbRegAppTableRecord
  2
ACAD
 70
0
  0
APPID
  5
38
330
3
100
AcDbSymbolTableRecord
100
AcDbRegAppTableRecord
  2
HATCHBACKGROUNDCOLOR
 70
0
  0
APPID
  5
39
330
3
100
AcDbSymbolTableRecord
100
AcDbRegAppTableRecord
  2
EZDXF
 70
0
  0
ENDTAB
  0
TABLE
  2
DIMSTYLE
  5
4
330
0
100
AcDbSymbolTable
 70
1
100
AcDbDimStyleTable
  0
DIMSTYLE
105
2B
330
4
100
AcDbSymbolTableRecord
100
AcDbDimStyleTableRecord
  2
Standard
 70
0
 40
1.0
 41
2.5
 42
0.625
 43
3.75
 44
1.25
 45
0.0
 46
0.0
 47
0.0
 48
0.0
 49
2.5
140
2.5
141
2.5
142
0.0
143
0.03937007874
144
1.0
145
0.0
146
1.0
147
0.625
148
0.0
 69
0
 70
0
 71
0
 72
0
 73
0
 74
0
 75
0
 76
0
 77
1
 78
8
 79
3
170
0
171
3
172
1
173
0
174
0
175
0
176
0
177
0
178
0
179
2
271
2
272
2
273
2
274
3
275
0
276
0
277
2
278
44
279
0
280
0
281
0
282
0
283
0
284
8
285
0
286
0
288
0
289
3
290
0
371
-2
372
-2
  0
ENDTAB
  0
TABLE
  2
BLOCK_RECORD
  5
9
330
0
100
AcDbSymbolTable
 70
2
  0
BLOCK_RECORD
  5
17
330
9
100
AcDbSymbolTableRecord
100
AcDbBlockTableRecord
  2
*Model_Space
340
1A
 70
0
280
1
281
0
  0
BLOCK_RECORD
  5
1B
330
9
100
AcDbSymbolTableRecord
100
AcDbBlockTableRecord
  2
*Paper_Space
340
1E
 70
0
280
1
281
0
  0
ENDTAB
  0
ENDSEC
  0
SECTION
  2
BLOCKS
  0
BLOCK
  5
18
330
17
100
AcDbEntity
  8
0
100
AcDbBlockBegin
  2
*Model_Space
 70
0
 10
0.0
 20
0.0
 30
0.0
  3
*Model_Space
  1

  0
ENDBLK
  5
19
330
17
100
AcDbEntity
  8
0
100
AcDbBlockEnd
  0
BLOCK
  5
1C
330
1B
100
AcDbEntity
  8
0
100
AcDbBlockBegin
  2
*Paper_Space
 70
0
 10
0.0
 20
0.0
 30
0.0
  3
*Paper_Space
  1

  0
ENDBLK
  5
1D
330
1B
100
AcDbEntity
  8
0
100
AcDbBlockEnd
  0
ENDSEC
  0
SECTION
  2
ENTITIES
  0
LWPOLYLINE
  5
2F
330
17
100
AcDbEntity
  8
0
100
AcDbPolyline
 90
51
 70
0
 10
1.8000000000000018
 20
12.0
 10
1.8000000000000018
 20
11.86
 10
1.8000000000000016
 20
11.719999999999999
 10
1.8000000000000016
 20
11.58
 10
1.8000000000000016
 20
11.44
 10
1.8000000000000016
 20
11.3
 10
1.8000000000000016
 20
11.16
 10
1.8000000000000016
 20
11.02
 10
1.8000000000000016
 20
10.879999999999999
 10
1.8000000000000014
 20
10.74
 10
1.8000000000000014
 20
10.6
 10
1.8000000000000014
 20
10.46
 10
1.8000000000000014
 20
10.32
 10
1.8000000000000014
 20
10.18
 10
1.8000000000000014
 20
10.04
 10
1.8000000000000012
 20
9.9
 10
1.8000000000000012
 20
9.76
 10
1.8000000000000012
 20
9.620000000000001
 10
1.8000000000000012
 20
9.48
 10
1.8000000000000012
 20
9.34
 10
1.8000000000000012
 20
9.2
 10
1.8000000000000012
 20
9.06
 10
1.800000000000001
 20
8.92
 10
1.800000000000001
 20
8.78
 10
1.800000000000001
 20
8.64
 10
1.800000000000001
 20
8.5
 10
1.800000000000001
 20
8.36
 10
1.800000000000001
 20
8.22
 10
1.8000000000000007
 20
8.08
 10
1.8000000000000007
 20
7.94
 10
1.8000000000000007
 20
7.8
 10
1.8000000000000007
 20
7.66
 10
1.8000000000000007
 20
7.52
 10
1.8000000000000007
 20
7.38
 10
1.8000000000000005
 20
7.24
 10
1.8000000000000005
 20
7.1
 10
1.8000000000000005
 20
6.96
 10
1.8000000000000005
 20
6.82
 10
1.8000000000000005
 20
6.68
 10
1.8000000000000005
 20
6.54
 10
1.8000000000000005
 20
6.4
 10
1.8000000000000003
 20
6.26
 10
1.8000000000000003
 20
6.12
 10
1.8000000000000003
 20
5.98
 10
1.8000000000000003
 20
5.84
 10
1.8000000000000003
 20
5.7
 10
1.8000000000000003
 20
5.56
 10
1.8
 20
5.42
 10
1.8
 20
5.28
 10
1.8
 20
5.14
 10
1.8
 20
5.0
  0
LWPOLYLINE
  5
30
330
17
100
AcDbEntity
  8
0
100
AcDbPolyline
 90
51
 70
0
 10
-12.2
 20
8.668621376273219e-16
 10
-11.212
 20
7.96660515334224e-16
 10
-10.223999999999998
 20
7.264588930411261e-16
 10
-9.235999999999999
 20
6.562572707480282e-16
 10
-8.248
 20
5.860556484549304e-16
 10
-7.259999999999999
 20
5.158540261618325e-16
 10
-6.2719999999999985
 20
4.456524038687346e-16
 10
-5.283999999999998
 20
3.754507815756367e-16
 10
-4.2959999999999985
 20
3.0524915928253883e-16
 10
-3.307999999999998
 20
2.3504753698944093e-16
 10
-2.3199999999999985
 20
1.6484591469634308e-16
 10
-1.3319999999999972
 20
9.464429240324511e-17
 10
-0.34399999999999764
 20
2.444267011014727e-17
 10
0.6440000000000019
 20
-4.575895218295057e-17
 10
1.6320000000000032
 20
-1.1596057447604853e-16
 10
2.6200000000000028
 20
-1.8616219676914638e-16
 10
3.6080000000000023
 20
-2.5636381906224425e-16
 10
4.596000000000004
 20
-3.265654413553422e-16
 10
5.584000000000003
 20
-3.9676706364844005e-16
 10
6.572000000000003
 20
-4.669686859415378e-16
 10
7.560000000000002
 20
-5.371703082346357e-16
 10
8.548000000000002
 20
-6.073719305277335e-16
 10
9.536000000000005
 20
-6.775735528208316e-16
 10
10.524000000000001
 20
-7.477751751139292e-16
 10
11.512000000000004
 20
-8.179767974070273e-16
 10
12.500000000000004
 20
-8.881784197001252e-16
 10
13.488000000000003
 20
-9.583800419932231e-16
 10
14.476000000000003
 20
-1.0285816642863208e-15
 10
15.464000000000006
 20
-1.098783286579419e-15
 10
16.452
 20
-1.1689849088725166e-15
 10
17.440000000000005
 20
-1.2391865311656147e-15
 10
18.428
 20
-1.3093881534587122e-15
 10
19.416000000000004
 20
-1.3795897757518103e-15
 10
20.404000000000007
 20
-1.4497913980449084e-15
 10
21.392000000000007
 20
-1.5199930203380063e-15
 10
22.380000000000006
 20
-1.5901946426311042e-15
 10
23.368000000000006
 20
-1.660396264924202e-15
 10
24.356000000000005
 20
-1.7305978872172998e-15
 10
25.344000000000005
 20
-1.8007995095103975e-15
 10
26.332000000000004
 20
-1.8710011318034954e-15
 10
27.320000000000004
 20
-1.9412027540965933e-15
 10
28.30800000000001
 20
-2.0114043763896916e-15
 10
29.296000000000003
 20
-2.081605998682789e-15
 10
30.28400000000001
 20
-2.1518076209758874e-15
 10
31.27200000000001
 20
-2.2220092432689853e-15
 10
32.260000000000005
 20
-2.2922108655620828e-15
 10
33.248000000000005
 20
-2.3624124878551807e-15
 10
34.236000000000004
 20
-2.4326141101482786e-15
 10
35.224000000000004
 20
-2.5028157324413765e-15
 10
36.212
 20
-2.5730173547344744e-15
 10
37.2
 20
-2.643218977027572e-15
  0
LWPOLYLINE
  5
31
330
17
100
AcDbEntity
  8
0
100
AcDbPolyline
 90
51
 70
0
 10
37.2
 20
-2.64321897702757e-15
 10
37.2
 20
0.09999999999999741
 10
37.2
 20
0.19999999999999746
 10
37.2
 20
0.2999999999999975
 10
37.2
 20
0.3999999999999975
 10
37.2
 20
0.49999999999999767
 10
37.2
 20
0.5999999999999976
 10
37.2
 20
0.6999999999999977
 10
37.2
 20
0.7999999999999977
 10
37.2
 20
0.8999999999999978
 10
37.2
 20
0.999999999999998
 10
37.2
 20
1.0999999999999979
 10
37.2
 20
1.199999999999998
 10
37.2
 20
1.2999999999999978
 10
37.2
 20
1.3999999999999981
 10
37.2
 20
1.4999999999999982
 10
37.2
 20
1.599999999999998
 10
37.2
 20
1.6999999999999982
 10
37.2
 20
1.7999999999999983
 10
37.2
 20
1.8999999999999986
 10
37.2
 20
1.9999999999999987
 10
37.2
 20
2.0999999999999983
 10
37.2
 20
2.1999999999999984
 10
37.2
 20
2.2999999999999985
 10
37.2
 20
2.3999999999999986
 10
37.2
 20
2.4999999999999987
 10
37.2
 20
2.5999999999999983
 10
37.2
 20
2.699999999999999
 10
37.2
 20
2.799999999999999
 10
37.2
 20
2.899999999999999
 10
37.2
 20
2.999999999999999
 10
37.2
 20
3.099999999999999
 10
37.2
 20
3.199999999999999
 10
37.2
 20
3.299999999999999
 10
37.2
 20
3.399999999999999
 10
37.2
 20
3.499999999999999
 10
37.2
 20
3.599999999999999
 10
37.2
 20
3.699999999999999
 10
37.2
 20
3.8
 10
37.2
 20
3.8999999999999995
 10
37.2
 20
4.0
 10
37.2
 20
4.1
 10
37.2
 20
4.199999999999999
 10
37.2
 20
4.3
 10
37.2
 20
4.3999999999999995
 10
37.2
 20
4.5
 10
37.2
 20
4.6
 10
37.2
 20
4.699999999999999
 10
37.2
 20
4.8
 10
37.2
 20
4.9
 10
37.2
 20
5.0
  0
LWPOLYLINE
  5
32
330
17
100
AcDbEntity
  8
0
100
AcDbPolyline
 90
51
 70
0
 10
1.8000000000000007
 20
5.0
 10
2.1640000000000015
 20
5.0
 10
2.5280000000000022
 20
5.0
 10
2.8919999999999995
 20
5.0
 10
3.2560000000000002
 20
5.0
 10
3.620000000000001
 20
5.0
 10
3.9840000000000018
 20
5.0
 10
4.347999999999999
 20
5.0
 10
4.712
 20
5.0
 10
5.0760000000000005
 20
5.0
 10
5.440000000000001
 20
5.0
 10
5.804000000000002
 20
5.0
 10
6.167999999999999
 20
5.0
 10
6.532
 20
5.0
 10
6.896000000000001
 20
5.0
 10
7.260000000000002
 20
5.0
 10
7.624000000000002
 20
5.0
 10
7.9879999999999995
 20
5.0
 10
8.352
 20
5.0
 10
8.716000000000001
 20
5.0
 10
9.080000000000002
 20
5.0
 10
9.444
 20
5.0
 10
9.808
 20
5.0
 10
10.172
 20
5.0
 10
10.536
 20
5.0
 10
10.9
 20
5.0
 10
11.264000000000001
 20
5.0
 10
11.628
 20
5.0
 10
11.992
 20
5.0
 10
12.356
 20
5.0
 10
12.72
 20
5.0
 10
13.084
 20
5.0
 10
13.448
 20
5.0
 10
13.812000000000001
 20
5.0
 10
14.176
 20
5.0
 10
14.540000000000001
 20
5.0
 10
14.904
 20
5.0
 10
15.268
 20
5.0
 10
15.632000000000001
 20
5.0
 10
15.996
 20
5.0
 10
16.36
 20
5.0
 10
16.724
 20
5.0
 10
17.088
 20
5.0
 10
17.452
 20
5.0
 10
17.816
 20
5.0
 10
18.18
 20
5.0
 10
18.544
 20
5.0
 10
18.908
 20
5.0
 10
19.272
 20
5.0
 10
19.636
 20
5.0
 10
20.0
 20
5.0
  0
LWPOLYLINE
  5
33
330
17
100
AcDbEntity
  8
0
100
AcDbPolyline
 90
51
 70
0
 10
37.2
 20
5.0
 10
36.492000000000004
 20
5.0
 10
35.784000000000006
 20
5.0
 10
35.076
 20
5.0
 10
34.368
 20
5.0
 10
33.660000000000004
 20
5.0
 10
32.952
 20
5.0
 10
32.244
 20
5.0
 10
31.536
 20
5.0
 10
30.828000000000003
 20
5.0
 10
30.12
 20
5.0
 10
29.412
 20
5.0
 10
28.704
 20
5.0
 10
27.996000000000002
 20
5.0
 10
27.288000000000004
 20
5.0
 10
26.58
 20
5.0
 10
25.872
 20
5.0
 10
25.164
 20
5.0
 10
24.456000000000003
 20
5.0
 10
23.747999999999998
 20
5.0
 10
23.04
 20
5.0
 10
22.332
 20
5.0
 10
21.624
 20
5.0
 10
20.916
 20
5.0
 10
20.208
 20
5.0
 10
19.5
 20
5.0
 10
18.792
 20
5.0
 10
18.084
 20
5.0
 10
17.376
 20
5.0
 10
16.668
 20
5.0
 10
15.959999999999997
 20
5.0
 10
15.252000000000002
 20
5.0
 10
14.544
 20
5.0
 10
13.835999999999999
 20
5.0
 10
13.128
 20
5.0
 10
12.419999999999998
 20
5.0
 10
11.712
 20
5.0
 10
11.003999999999998
 20
5.0
 10
10.295999999999996
 20
5.0
 10
9.588000000000001
 20
5.0
 10
8.879999999999999
 20
5.0
 10
8.171999999999997
 20
5.0
 10
7.463999999999999
 20
5.0
 10
6.755999999999997
 20
5.0
 10
6.047999999999995
 20
5.0
 10
5.34
 20
5.0
 10
4.631999999999998
 20
5.0
 10
3.9239999999999995
 20
5.0
 10
3.215999999999994
 20
5.0
 10
2.5079999999999956
 20
5.0
 10
1.7999999999999972
 20
5.0
  0
LWPOLYLINE
  5
34
330
17
100
AcDbEntity
  8
0
100
AcDbPolyline
 90
51
 70
0
 10
1.8
 20
5.0
 10
1.8
 20
5.14
 10
1.8
 20
5.28
 10
1.8
 20
5.42
 10
1.8000000000000003
 20
5.5600000000000005
 10
1.8000000000000003
 20
5.7
 10
1.8000000000000003
 20
5.84
 10
1.8000000000000003
 20
5.98
 10
1.8000000000000003
 20
6.12
 10
1.8000000000000003
 20
6.26
 10
1.8000000000000005
 20
6.4
 10
1.8000000000000005
 20
6.54
 10
1.8000000000000005
 20
6.68
 10
1.8000000000000005
 20
6.82
 10
1.8000000000000005
 20
6.96
 10
1.8000000000000005
 20
7.1
 10
1.8000000000000005
 20
7.24
 10
1.8000000000000007
 20
7.38
 10
1.8000000000000007
 20
7.52
 10
1.8000000000000007
 20
7.66
 10
1.8000000000000007
 20
7.8
 10
1.8000000000000007
 20
7.9399999999999995
 10
1.8000000000000007
 20
8.08
 10
1.800000000000001
 20
8.22
 10
1.800000000000001
 20
8.36
 10
1.800000000000001
 20
8.5
 10
1.800000000000001
 20
8.64
 10
1.800000000000001
 20
8.78
 10
1.800000000000001
 20
8.92
 10
1.8000000000000012
 20
9.059999999999999
 10
1.8000000000000012
 20
9.2
 10
1.8000000000000012
 20
9.34
 10
1.8000000000000012
 20
9.48
 10
1.8000000000000012
 20
9.620000000000001
 10
1.8000000000000012
 20
9.76
 10
1.8000000000000012
 20
9.9
 10
1.8000000000000014
 20
10.04
 10
1.8000000000000014
 20
10.18
 10
1.8000000000000014
 20
10.32
 10
1.8000000000000014
 20
10.46
 10
1.8000000000000014
 20
10.6
 10
1.8000000000000014
 20
10.74
 10
1.8000000000000016
 20
10.879999999999999
 10
1.8000000000000016
 20
11.02
 10
1.8000000000000016
 20
11.16
 10
1.8000000000000016
 20
11.3
 10
1.8000000000000016
 20
11.440000000000001
 10
1.8000000000000016
 20
11.58
 10
1.8000000000000016
 20
11.719999999999999
 10
1.8000000000000018
 20
11.86
 10
1.8000000000000018
 20
12.0
  0
LWPOLYLINE
  5
35
330
17
100
AcDbEntity
  8
0
100
AcDbPolyline
 90
51
 70
0
 10
1.7999999999999998
 20
11.999999999999998
 10
1.7861870989979005
 20
12.439533636705189
 10
1.7448029092013453
 20
12.877332634950129
 10
1.6760107551008208
 20
13.31166920210007
 10
1.5800821279004174
 20
13.740829210153985
 10
1.4573956140660753
 20
14.16311896062463
 10
1.3084354012177606
 20
14.576871868792741
 10
1.1337893672621364
 20
14.980455040955508
 10
0.9341467603070468
 20
15.372275718712004
 10
0.7102954785141042
 20
15.750787564852978
 10
0.46311896062463287
 20
16.11449676604731
 10
0.1935926994305266
 20
16.461967928240824
 10
-0.09721960805011953
 20
16.79182974150082
 10
-0.40817025849917776
 20
17.102780391949878
 10
-0.7380320717591724
 20
17.393592699430528
 10
-1.0855032339526867
 20
17.66311896062463
 10
-1.4492124351470204
 20
17.910295478514104
 10
-1.8277242812879928
 20
18.134146760307047
 10
-2.219544959044489
 20
18.333789367262135
 10
-2.623128131207255
 20
18.50843540121776
 10
-3.0368810393753662
 20
18.657395614066075
 10
-3.459170789846013
 20
18.780082127900418
 10
-3.8883307978999273
 20
18.876010755100822
 10
-4.322667365049868
 20
18.944802909201343
 10
-4.760466363294808
 20
18.986187098997902
 10
-5.199999999999998
 20
19.0
 10
-5.63953363670519
 20
18.986187098997902
 10
-6.077332634950129
 20
18.944802909201346
 10
-6.5116692021000695
 20
18.876010755100822
 10
-6.940829210153984
 20
18.780082127900418
 10
-7.363118960624631
 20
18.657395614066075
 10
-7.776871868792742
 20
18.50843540121776
 10
-8.180455040955508
 20
18.333789367262135
 10
-8.57227571871201
 20
18.134146760307043
 10
-8.950787564852977
 20
17.910295478514104
 10
-9.31449676604731
 20
17.663118960624633
 10
-9.661967928240824
 20
17.393592699430528
 10
-9.99182974150082
 20
17.10278039194988
 10
-10.302780391949879
 20
16.791829741500823
 10
-10.593592699430525
 20
16.461967928240828
 10
-10.86311896062463
 20
16.114496766047314
 10
-11.110295478514104
 20
15.75078756485298
 10
-11.334146760307046
 20
15.372275718712007
 10
-11.533789367262136
 20
14.980455040955512
 10
-11.70843540121776
 20
14.576871868792745
 10
-11.857395614066075
 20
14.163118960624633
 10
-11.980082127900417
 20
13.740829210153988
 10
-12.076010755100821
 20
13.311669202100074
 10
-12.144802909201346
 20
12.877332634950132
 10
-12.186187098997902
 20
12.439533636705193
 10
-12.2
 20
12.000000000000002
  0
LWPOLYLINE
  5
36
330
17
100
AcDbEntity
  8
0
100
AcDbPolyline
 90
51
 70
0
 10
-12.2
 20
12.0
 10
-12.2
 20
11.76
 10
-12.2
 20
11.52
 10
-12.2
 20
11.28
 10
-12.2
 20
11.04
 10
-12.2
 20
10.8
 10
-12.2
 20
10.56
 10
-12.2
 20
10.32
 10
-12.2
 20
10.08
 10
-12.2
 20
9.84
 10
-12.2
 20
9.6
 10
-12.2
 20
9.36
 10
-12.2
 20
9.120000000000001
 10
-12.2
 20
8.879999999999999
 10
-12.2
 20
8.64
 10
-12.2
 20
8.4
 10
-12.2
 20
8.16
 10
-12.2
 20
7.92
 10
-12.2
 20
7.68
 10
-12.2
 20
7.44
 10
-12.2
 20
7.2
 10
-12.2
 20
6.96
 10
-12.2
 20
6.72
 10
-12.2
 20
6.48
 10
-12.2
 20
6.24
 10
-12.2
 20
6.0
 10
-12.2
 20
5.76
 10
-12.2
 20
5.52
 10
-12.2
 20
5.28
 10
-12.2
 20
5.04
 10
-12.2
 20
4.8
 10
-12.2
 20
4.56
 10
-12.2
 20
4.32
 10
-12.2
 20
4.08
 10
-12.2
 20
3.84
 10
-12.2
 20
3.5999999999999996
 10
-12.2
 20
3.3599999999999994
 10
-12.2
 20
3.119999999999999
 10
-12.2
 20
2.880000000000001
 10
-12.2
 20
2.6400000000000006
 10
-12.2
 20
2.4000000000000004
 10
-12.2
 20
2.16
 10
-12.2
 20
1.92
 10
-12.2
 20
1.6799999999999997
 10
-12.2
 20
1.4399999999999995
 10
-12.2
 20
1.1999999999999993
 10
-12.2
 20
0.9600000000000009
 10
-12.2
 20
0.7200000000000006
 10
-12.2
 20
0.4800000000000004
 10
-12.2
 20
0.2400000000000002
 10
-12.200000000000001
 20
0.0
  0
LWPOLYLINE
  5
37
330
17
100
AcDbEntity
  8
0
100
AcDbPolyline
 90
51
 70
0
 10
-5.2
 20
16.0
 10
-5.701332934257217
 20
15.968458805257912
 10
-6.19475954865942
 20
15.874332644514524
 10
-6.672498210738712
 20
15.719105943553005
 10
-7.127014696406862
 20
15.505226720175454
 10
-7.551141009169893
 20
15.23606797749979
 10
-7.938188423714754
 20
14.915874509685647
 10
-8.282052971103157
 20
14.549695958994759
 10
-8.57731170200806
 20
14.143307179915986
 10
-8.81930820986408
 20
13.703117166260292
 10
-9.004226065180614
 20
13.23606797749979
 10
-9.129149002914755
 20
12.7495252583429
 10
-9.192106913713086
 20
12.251162078117254
 10
-9.192106913713086
 20
11.748837921882746
 10
-9.129149002914755
 20
11.2504747416571
 10
-9.004226065180614
 20
10.763932022500212
 10
-8.819308209864078
 20
10.296882833739708
 10
-8.57731170200806
 20
9.856692820084012
 10
-8.282052971103157
 20
9.450304041005241
 10
-7.938188423714756
 20
9.084125490314355
 10
-7.551141009169893
 20
8.76393202250021
 10
-7.127014696406861
 20
8.494773279824546
 10
-6.672498210738713
 20
8.280894056446995
 10
-6.194759548659421
 20
8.125667355485476
 10
-5.701332934257218
 20
8.03154119474209
 10
-5.200000000000001
 20
8.0
 10
-4.698667065742783
 20
8.031541194742088
 10
-4.205240451340582
 20
8.125667355485476
 10
-3.7275017892612885
 20
8.280894056446995
 10
-3.2729853035931384
 20
8.494773279824546
 10
-2.8488589908301094
 20
8.763932022500208
 10
-2.4618115762852466
 20
9.084125490314353
 10
-2.1179470288968427
 20
9.450304041005243
 10
-1.822688297991939
 20
9.856692820084014
 10
-1.580691790135921
 20
10.296882833739712
 10
-1.395773934819386
 20
10.76393202250021
 10
-1.2708509970852453
 20
11.2504747416571
 10
-1.207893086286914
 20
11.748837921882748
 10
-1.207893086286914
 20
12.251162078117252
 10
-1.2708509970852453
 20
12.749525258342898
 10
-1.3957739348193856
 20
13.23606797749979
 10
-1.5806917901359205
 20
13.703117166260288
 10
-1.8226882979919403
 20
14.143307179915986
 10
-2.117947028896842
 20
14.549695958994757
 10
-2.4618115762852444
 20
14.915874509685645
 10
-2.8488589908301067
 20
15.23606797749979
 10
-3.2729853035931358
 20
15.505226720175452
 10
-3.7275017892612885
 20
15.719105943553005
 10
-4.205240451340579
 20
15.874332644514524
 10
-4.698667065742781
 20
15.96845880525791
 10
-5.199999999999999
 20
16.0
  0
ENDSEC
  0
SECTION
  2
OBJECTS
  0
DICTIONARY
  5
A
330
0
100
AcDbDictionary
280
0
281
1
  3
ACAD_COLOR
350
B
  3
ACAD_GROUP
350
C
  3
ACAD_LAYOUT
350
D
  3
ACAD_MATERIAL
350
E
  3
ACAD_MLEADERSTYLE
350
F
  3
ACAD_MLINESTYLE
350
10
  3
ACAD_PLOTSETTINGS
350
11
  3
ACAD_PLOTSTYLENAME
350
12
  3
ACAD_SCALELIST
350
14
  3
ACAD_TABLESTYLE
350
15
  3
ACAD_VISUALSTYLE
350
16
  3
EZDXF_META
350
2D
  0
DICTIONARY
  5
B
330
A
100
AcDbDictionary
280
0
281
1
  0
DICTIONARY
  5
C
330
A
100
AcDbDictionary
280
0
281
1
  0
DICTIONARY
  5
D
330
A
100
AcDbDictionary
280
0
281
1
  3
Model
350
1A
  3
Layout1
350
1E
  0
DICTIONARY
  5
E
330
A
100
AcDbDictionary
280
0
281
1
  3
ByBlock
350
1F
  3
ByLayer
350
20
  3
Global
350
21
  0
DICTIONARY
  5
F
330
A
100
AcDbDictionary
280
0
281
1
  3
Standard
350
2C
  0
DICTIONARY
  5
10
330
A
100
AcDbDictionary
280
0
281
1
  3
Standard
350
22
  0
DICTIONARY
  5
11
330
A
100
AcDbDictionary
280
0
281
1
  0
ACDBDICTIONARYWDFLT
  5
12
330
A
100
AcDbDictionary
280
0
281
1
  3
Normal
350
13
100
AcDbDictionaryWithDefault
340
13
  0
ACDBPLACEHOLDER
  5
13
330
12
  0
DICTIONARY
  5
14
330
A
100
AcDbDictionary
280
0
281
1
  0
DICTIONARY
  5
15
330
A
100
AcDbDictionary
280
0
281
1
  0
DICTIONARY
  5
16
330
A
100
AcDbDictionary
280
0
281
1
  0
LAYOUT
  5
1A
330
D
100
AcDbPlotSettings
  1

  2
Adobe PDF
  4
A3
  6

 40
7.5
 41
20.0
 42
7.5
 43
20.0
 44
420.0
 45
297.0
 46
0.0
 47
0.0
 48
0.0
 49
0.0
140
0.0
141
0.0
142
1.0
143
1.0
 70
1024
 72
1
 73
0
 74
5
  7

 75
16
 76
0
 77
2
 78
300
147
1.0
148
0.0
149
0.0
100
AcDbLayout
  1
Model
 70
1
 71
0
 10
0.0
 20
0.0
 11
420.0
 21
297.0
 12
0.0
 22
0.0
 32
0.0
 14
1e+20
 24
1e+20
 34
1e+20
 15
-1e+20
 25
-1e+20
 35
-1e+20
146
0.0
 13
0.0
 23
0.0
 33
0.0
 16
1.0
 26
0.0
 36
0.0
 17
0.0
 27
1.0
 37
0.0
 76
1
330
17
  0
LAYOUT
  5
1E
330
D
100
AcDbPlotSettings
  1

  2
Adobe PDF
  4
A3
  6

 40
7.5
 41
20.0
 42
7.5
 43
20.0
 44
420.0
 45
297.0
 46
0.0
 47
0.0
 48
0.0
 49
0.0
140
0.0
141
0.0
142
1.0
143
1.0
 70
0
 72
1
 73
0
 74
5
  7

 75
16
 76
0
 77
2
 78
300
147
1.0
148
0.0
149
0.0
100
AcDbLayout
  1
Layout1
 70
1
 71
1
 10
0.0
 20
0.0
 11
420.0
 21
297.0
 12
0.0
 22
0.0
 32
0.0
 14
1e+20
 24
1e+20
 34
1e+20
 15
-1e+20
 25
-1e+20
 35
-1e+20
146
0.0
 13
0.0
 23
0.0
 33
0.0
 16
1.0
 26
0.0
 36
0.0
 17
0.0
 27
1.0
 37
0.0
 76
1
330
1B
  0
MATERIAL
  5
1F
102
{ACAD_REACTORS
330
E
102
}
330
E
100
AcDbMaterial
  1
ByBlock
  2

 70
0
 40
1.0
 71
1
 41
1.0
 91
-1023410177
 42
1.0
 72
1
  3

 73
1
 74
1
 75
1
 44
0.5
 73
0
 45
1.0
 46
1.0
 77
1
  4

 78
1
 79
1
170
1
 48
1.0
171
1
  6

172
1
173
1
174
1
140
1.0
141
1.0
175
1
  7

176
1
177
1
178
1
143
1.0
179
1
  8

270
1
271
1
272
1
145
1.0
146
1.0
273
1
  9

274
1
275
1
276
1
 42
1.0
 72
1
  3

 73
1
 74
1
 75
1
 94
63
  0
MATERIAL
  5
20
102
{ACAD_REACTORS
330
E
102
}
330
E
100
AcDbMaterial
  1
ByLayer
  2

 70
0
 40
1.0
 71
1
 41
1.0
 91
-1023410177
 42
1.0
 72
1
  3

 73
1
 74
1
 75
1
 44
0.5
 73
0
 45
1.0
 46
1.0
 77
1
  4

 78
1
 79
1
170
1
 48
1.0
171
1
  6

172
1
173
1
174
1
140
1.0
141
1.0
175
1
  7

176
1
177
1
178
1
143
1.0
179
1
  8

270
1
271
1
272
1
145
1.0
146
1.0
273
1
  9

274
1
275
1
276
1
 42
1.0
 72
1
  3

 73
1
 74
1
 75
1
 94
63
  0
MATERIAL
  5
21
102
{ACAD_REACTORS
330
E
102
}
330
E
100
AcDbMaterial
  1
Global
  2

 70
0
 40
1.0
 71
1
 41
1.0
 91
-1023410177
 42
1.0
 72
1
  3

 73
1
 74
1
 75
1
 44
0.5
 73
0
 45
1.0
 46
1.0
 77
1
  4

 78
1
 79
1
170
1
 48
1.0
171
1
  6

172
1
173
1
174
1
140
1.0
141
1.0
175
1
  7

176
1
177
1
178
1
143
1.0
179
1
  8

270
1
271
1
272
1
145
1.0
146
1.0
273
1
  9

274
1
275
1
276
1
 42
1.0
 72
1
  3

 73
1
 74
1
 75
1
 94
63
  0
MLINESTYLE
  5
22
102
{ACAD_REACTORS
330
10
102
}
330
10
100
AcDbMlineStyle
  2
Standard
 70
0
  3

 62
256
 51
90.0
 52
90.0
 71
2
 49
0.5
 62
256
  6
BYLAYER
 49
-0.5
 62
256
  6
BYLAYER
  0
MLEADERSTYLE
  5
2C
102
{ACAD_REACTORS
330
F
102
}
330
F
100
AcDbMLeaderStyle
179
2
170
2
171
1
172
0
 90
2
 40
0.0
 41
0.0
173
1
 91
-1056964608
 92
-2
290
1
 42
2.0
291
1
 43
8.0
  3
Standard
 44
4.0
300

342
29
174
1
175
1
176
0
178
1
 93
-1056964608
 45
4.0
292
0
297
0
 46
4.0
 94
-1056964608
 47
1.0
 49
1.0
140
1.0
294
1
141
0.0
177
0
142
1.0
295
0
296
0
143
3.75
271
0
272
9
273
9
  0
DICTIONARY
  5
2D
330
A
100
AcDbDictionary
281
1
  3
CREATED_BY_EZDXF
350
2E
  3
WRITTEN_BY_EZDXF
350
3A
  0
DICTIONARYVAR
  5
2E
330
2D
100
DictionaryVariables
280
0
  1
1.0.3 @ 2025-05-29T09:38:47.736371+00:00
  0
DICTIONARYVAR
  5
3A
330
2D
100
DictionaryVariables
280
0
  1
1.0.3 @ 2025-05-29T09:38:47.740433+00:00
  0
ENDSEC
  0
EOF
