  0
SECTION
  2
HEADER
  9
$ACADVER
  1
AC1027
  9
$ACADMAINTVER
 70
105
  9
$DWGCODEPAGE
  3
ANSI_1252
  9
$LASTSAVEDBY
  1
ezdxf
  9
$REQUIREDVERSIONS
160
0
  9
$INSBASE
 10
0.0
 20
0.0
 30
0.0
  9
$EXTMIN
 10
1e+20
 20
1e+20
 30
1e+20
  9
$EXTMAX
 10
-1e+20
 20
-1e+20
 30
-1e+20
  9
$LIMMIN
 10
0.0
 20
0.0
  9
$LIMMAX
 10
420.0
 20
297.0
  9
$ORTHOMODE
 70
0
  9
$REGENMODE
 70
1
  9
$FILLMODE
 70
1
  9
$QTEXTMODE
 70
0
  9
$MIRRTEXT
 70
1
  9
$LTSCALE
 40
1.0
  9
$ATTMODE
 70
1
  9
$TEXTSIZE
 40
2.5
  9
$TRACEWID
 40
1.0
  9
$TEXTSTYLE
  7
Standard
  9
$CLAYER
  8
0
  9
$CELTYPE
  6
ByLayer
  9
$CECOLOR
 62
256
  9
$CELTSCALE
 40
1.0
  9
$DISPSILH
 70
0
  9
$DIMSCALE
 40
1.0
  9
$DIMASZ
 40
2.5
  9
$DIMEXO
 40
0.625
  9
$DIMDLI
 40
3.75
  9
$DIMRND
 40
0.0
  9
$DIMDLE
 40
0.0
  9
$DIMEXE
 40
1.25
  9
$DIMTP
 40
0.0
  9
$DIMTM
 40
0.0
  9
$DIMTXT
 40
2.5
  9
$DIMCEN
 40
2.5
  9
$DIMTSZ
 40
0.0
  9
$DIMTOL
 70
0
  9
$DIMLIM
 70
0
  9
$DIMTIH
 70
0
  9
$DIMTOH
 70
0
  9
$DIMSE1
 70
0
  9
$DIMSE2
 70
0
  9
$DIMTAD
 70
1
  9
$DIMZIN
 70
8
  9
$DIMBLK
  1

  9
$DIMASO
 70
1
  9
$DIMSHO
 70
1
  9
$DIMPOST
  1

  9
$DIMAPOST
  1

  9
$DIMALT
 70
0
  9
$DIMALTD
 70
3
  9
$DIMALTF
 40
0.03937007874
  9
$DIMLFAC
 40
1.0
  9
$DIMTOFL
 70
1
  9
$DIMTVP
 40
0.0
  9
$DIMTIX
 70
0
  9
$DIMSOXD
 70
0
  9
$DIMSAH
 70
0
  9
$DIMBLK1
  1

  9
$DIMBLK2
  1

  9
$DIMSTYLE
  2
ISO-25
  9
$DIMCLRD
 70
0
  9
$DIMCLRE
 70
0
  9
$DIMCLRT
 70
0
  9
$DIMTFAC
 40
1.0
  9
$DIMGAP
 40
0.625
  9
$DIMJUST
 70
0
  9
$DIMSD1
 70
0
  9
$DIMSD2
 70
0
  9
$DIMTOLJ
 70
0
  9
$DIMTZIN
 70
8
  9
$DIMALTZ
 70
0
  9
$DIMALTTZ
 70
0
  9
$DIMUPT
 70
0
  9
$DIMDEC
 70
2
  9
$DIMTDEC
 70
2
  9
$DIMALTU
 70
2
  9
$DIMALTTD
 70
3
  9
$DIMTXSTY
  7
Standard
  9
$DIMAUNIT
 70
0
  9
$DIMADEC
 70
0
  9
$DIMALTRND
 40
0.0
  9
$DIMAZIN
 70
0
  9
$DIMDSEP
 70
44
  9
$DIMATFIT
 70
3
  9
$DIMFRAC
 70
0
  9
$DIMLDRBLK
  1

  9
$DIMLUNIT
 70
2
  9
$DIMLWD
 70
-2
  9
$DIMLWE
 70
-2
  9
$DIMTMOVE
 70
0
  9
$DIMFXL
 40
1.0
  9
$DIMFXLON
 70
0
  9
$DIMJOGANG
 40
0.785398163397
  9
$DIMTFILL
 70
0
  9
$DIMTFILLCLR
 70
0
  9
$DIMARCSYM
 70
0
  9
$DIMLTYPE
  6

  9
$DIMLTEX1
  6

  9
$DIMLTEX2
  6

  9
$DIMTXTDIRECTION
 70
0
  9
$LUNITS
 70
2
  9
$LUPREC
 70
4
  9
$SKETCHINC
 40
1.0
  9
$FILLETRAD
 40
10.0
  9
$AUNITS
 70
0
  9
$AUPREC
 70
2
  9
$MENU
  1
.
  9
$ELEVATION
 40
0.0
  9
$PELEVATION
 40
0.0
  9
$THICKNESS
 40
0.0
  9
$LIMCHECK
 70
0
  9
$CHAMFERA
 40
0.0
  9
$CHAMFERB
 40
0.0
  9
$CHAMFERC
 40
0.0
  9
$CHAMFERD
 40
0.0
  9
$SKPOLY
 70
0
  9
$TDCREATE
 40
2460825.776886574
  9
$TDUCREATE
 40
2458532.153996898
  9
$TDUPDATE
 40
2460825.776886574
  9
$TDUUPDATE
 40
2458532.1544311
  9
$TDINDWG
 40
0.0
  9
$TDUSRTIMER
 40
0.0
  9
$USRTIMER
 70
1
  9
$ANGBASE
 50
0.0
  9
$ANGDIR
 70
0
  9
$PDMODE
 70
0
  9
$PDSIZE
 40
0.0
  9
$PLINEWID
 40
0.0
  9
$SPLFRAME
 70
0
  9
$SPLINETYPE
 70
6
  9
$SPLINESEGS
 70
8
  9
$HANDSEED
  5
3C
  9
$SURFTAB1
 70
6
  9
$SURFTAB2
 70
6
  9
$SURFTYPE
 70
6
  9
$SURFU
 70
6
  9
$SURFV
 70
6
  9
$UCSBASE
  2

  9
$UCSNAME
  2

  9
$UCSORG
 10
0.0
 20
0.0
 30
0.0
  9
$UCSXDIR
 10
1.0
 20
0.0
 30
0.0
  9
$UCSYDIR
 10
0.0
 20
1.0
 30
0.0
  9
$UCSORTHOREF
  2

  9
$UCSORTHOVIEW
 70
0
  9
$UCSORGTOP
 10
0.0
 20
0.0
 30
0.0
  9
$UCSORGBOTTOM
 10
0.0
 20
0.0
 30
0.0
  9
$UCSORGLEFT
 10
0.0
 20
0.0
 30
0.0
  9
$UCSORGRIGHT
 10
0.0
 20
0.0
 30
0.0
  9
$UCSORGFRONT
 10
0.0
 20
0.0
 30
0.0
  9
$UCSORGBACK
 10
0.0
 20
0.0
 30
0.0
  9
$PUCSBASE
  2

  9
$PUCSNAME
  2

  9
$PUCSORG
 10
0.0
 20
0.0
 30
0.0
  9
$PUCSXDIR
 10
1.0
 20
0.0
 30
0.0
  9
$PUCSYDIR
 10
0.0
 20
1.0
 30
0.0
  9
$PUCSORTHOREF
  2

  9
$PUCSORTHOVIEW
 70
0
  9
$PUCSORGTOP
 10
0.0
 20
0.0
 30
0.0
  9
$PUCSORGBOTTOM
 10
0.0
 20
0.0
 30
0.0
  9
$PUCSORGLEFT
 10
0.0
 20
0.0
 30
0.0
  9
$PUCSORGRIGHT
 10
0.0
 20
0.0
 30
0.0
  9
$PUCSORGFRONT
 10
0.0
 20
0.0
 30
0.0
  9
$PUCSORGBACK
 10
0.0
 20
0.0
 30
0.0
  9
$USERI1
 70
0
  9
$USERI2
 70
0
  9
$USERI3
 70
0
  9
$USERI4
 70
0
  9
$USERI5
 70
0
  9
$USERR1
 40
0.0
  9
$USERR2
 40
0.0
  9
$USERR3
 40
0.0
  9
$USERR4
 40
0.0
  9
$USERR5
 40
0.0
  9
$WORLDVIEW
 70
1
  9
$SHADEDGE
 70
3
  9
$SHADEDIF
 70
70
  9
$TILEMODE
 70
1
  9
$MAXACTVP
 70
64
  9
$PINSBASE
 10
0.0
 20
0.0
 30
0.0
  9
$PLIMCHECK
 70
0
  9
$PEXTMIN
 10
1e+20
 20
1e+20
 30
1e+20
  9
$PEXTMAX
 10
-1e+20
 20
-1e+20
 30
-1e+20
  9
$PLIMMIN
 10
0.0
 20
0.0
  9
$PLIMMAX
 10
420.0
 20
297.0
  9
$UNITMODE
 70
0
  9
$VISRETAIN
 70
1
  9
$PLINEGEN
 70
0
  9
$PSLTSCALE
 70
1
  9
$TREEDEPTH
 70
3020
  9
$CMLSTYLE
  2
Standard
  9
$CMLJUST
 70
0
  9
$CMLSCALE
 40
20.0
  9
$PROXYGRAPHICS
 70
1
  9
$MEASUREMENT
 70
1
  9
$CELWEIGHT
370
-1
  9
$ENDCAPS
280
0
  9
$JOINSTYLE
280
0
  9
$LWDISPLAY
290
0
  9
$INSUNITS
 70
6
  9
$HYPERLINKBASE
  1

  9
$STYLESHEET
  1

  9
$XEDIT
290
1
  9
$CEPSNTYPE
380
0
  9
$PSTYLEMODE
290
1
  9
$FINGERPRINTGUID
  2
{F8DA1586-8116-42FE-A1A4-6C1917261E43}
  9
$VERSIONGUID
  2
{5E852F0A-34E2-4973-AFC4-4CAEB2861C25}
  9
$EXTNAMES
290
1
  9
$PSVPSCALE
 40
0.0
  9
$OLESTARTUP
290
0
  9
$SORTENTS
280
127
  9
$INDEXCTL
280
0
  9
$HIDETEXT
280
1
  9
$XCLIPFRAME
280
0
  9
$HALOGAP
280
0
  9
$OBSCOLOR
 70
257
  9
$OBSLTYPE
280
0
  9
$INTERSECTIONDISPLAY
280
0
  9
$INTERSECTIONCOLOR
 70
257
  9
$DIMASSOC
280
2
  9
$PROJECTNAME
  1

  9
$CAMERADISPLAY
290
0
  9
$LENSLENGTH
 40
50.0
  9
$CAMERAHEIGHT
 40
0.0
  9
$STEPSPERSEC
 40
24.0
  9
$STEPSIZE
 40
100.0
  9
$3DDWFPREC
 40
2.0
  9
$PSOLWIDTH
 40
0.005
  9
$PSOLHEIGHT
 40
0.08
  9
$LOFTANG1
 40
1.570796326795
  9
$LOFTANG2
 40
1.570796326795
  9
$LOFTMAG1
 40
0.0
  9
$LOFTMAG2
 40
0.0
  9
$LOFTPARAM
 70
7
  9
$LOFTNORMALS
280
1
  9
$LATITUDE
 40
37.795
  9
$LONGITUDE
 40
-122.394
  9
$NORTHDIRECTION
 40
0.0
  9
$TIMEZONE
 70
-8000
  9
$LIGHTGLYPHDISPLAY
280
1
  9
$TILEMODELIGHTSYNCH
280
1
  9
$CMATERIAL
347
20
  9
$SOLIDHIST
280
0
  9
$SHOWHIST
280
1
  9
$DWFFRAME
280
2
  9
$DGNFRAME
280
2
  9
$REALWORLDSCALE
290
1
  9
$INTERFERECOLOR
 62
256
  9
$CSHADOW
280
0
  9
$SHADOWPLANELOCATION
 40
0.0
  0
ENDSEC
  0
SECTION
  2
CLASSES
  0
CLASS
  1
ACDBDICTIONARYWDFLT
  2
AcDbDictionaryWithDefault
  3
ObjectDBX Classes
 90
0
 91
0
280
0
281
0
  0
CLASS
  1
SUN
  2
AcDbSun
  3
SCENEOE
 90
1153
 91
0
280
0
281
0
  0
CLASS
  1
VISUALSTYLE
  2
AcDbVisualStyle
  3
ObjectDBX Classes
 90
4095
 91
0
280
0
281
0
  0
CLASS
  1
MATERIAL
  2
AcDbMaterial
  3
ObjectDBX Classes
 90
1153
 91
0
280
0
281
0
  0
CLASS
  1
SCALE
  2
AcDbScale
  3
ObjectDBX Classes
 90
1153
 91
0
280
0
281
0
  0
CLASS
  1
TABLESTYLE
  2
AcDbTableStyle
  3
ObjectDBX Classes
 90
4095
 91
0
280
0
281
0
  0
CLASS
  1
MLEADERSTYLE
  2
AcDbMLeaderStyle
  3
ACDB_MLEADERSTYLE_CLASS
 90
4095
 91
0
280
0
281
0
  0
CLASS
  1
DICTIONARYVAR
  2
AcDbDictionaryVar
  3
ObjectDBX Classes
 90
0
 91
0
280
0
281
0
  0
CLASS
  1
CELLSTYLEMAP
  2
AcDbCellStyleMap
  3
ObjectDBX Classes
 90
1152
 91
0
280
0
281
0
  0
CLASS
  1
MENTALRAYRENDERSETTINGS
  2
AcDbMentalRayRenderSettings
  3
SCENEOE
 90
1024
 91
0
280
0
281
0
  0
CLASS
  1
ACDBDETAILVIEWSTYLE
  2
AcDbDetailViewStyle
  3
ObjectDBX Classes
 90
1025
 91
0
280
0
281
0
  0
CLASS
  1
ACDBSECTIONVIEWSTYLE
  2
AcDbSectionViewStyle
  3
ObjectDBX Classes
 90
1025
 91
0
280
0
281
0
  0
CLASS
  1
RASTERVARIABLES
  2
AcDbRasterVariables
  3
ISM
 90
0
 91
0
280
0
281
0
  0
CLASS
  1
LAYOUT
  2
AcDbLayout
  3
ObjectDBX Classes
 90
0
 91
0
280
0
281
0
  0
CLASS
  1
ACDBPLACEHOLDER
  2
AcDbPlaceHolder
  3
ObjectDBX Classes
 90
0
 91
0
280
0
281
0
  0
ENDSEC
  0
SECTION
  2
TABLES
  0
TABLE
  2
VPORT
  5
8
330
0
100
AcDbSymbolTable
 70
1
  0
VPORT
  5
23
330
8
100
AcDbSymbolTableRecord
100
AcDbViewportTableRecord
  2
*Active
 70
0
 10
0.0
 20
0.0
 11
1.0
 21
1.0
 12
0.0
 22
0.0
 13
0.0
 23
0.0
 14
0.5
 24
0.5
 15
0.5
 25
0.5
 16
0.0
 26
0.0
 36
1.0
 17
0.0
 27
0.0
 37
0.0
 40
1000.0
 41
1.34
 42
50.0
 43
0.0
 44
0.0
 50
0.0
 51
0.0
 71
0
 72
1000
 73
1
 74
3
 75
0
 76
0
 77
0
 78
0
281
0
 65
0
146
0.0
  0
ENDTAB
  0
TABLE
  2
LTYPE
  5
2
330
0
100
AcDbSymbolTable
 70
3
  0
LTYPE
  5
24
330
2
100
AcDbSymbolTableRecord
100
AcDbLinetypeTableRecord
  2
ByBlock
 70
0
  3

 72
65
 73
0
 40
0.0
  0
LTYPE
  5
25
330
2
100
AcDbSymbolTableRecord
100
AcDbLinetypeTableRecord
  2
ByLayer
 70
0
  3

 72
65
 73
0
 40
0.0
  0
LTYPE
  5
26
330
2
100
AcDbSymbolTableRecord
100
AcDbLinetypeTableRecord
  2
Continuous
 70
0
  3

 72
65
 73
0
 40
0.0
  0
ENDTAB
  0
TABLE
  2
LAYER
  5
1
330
0
100
AcDbSymbolTable
 70
2
  0
LAYER
  5
27
330
1
100
AcDbSymbolTableRecord
100
AcDbLayerTableRecord
  2
0
 70
0
 62
7
  6
Continuous
370
-3
390
13
347
21
  0
LAYER
  5
28
330
1
100
AcDbSymbolTableRecord
100
AcDbLayerTableRecord
  2
Defpoints
 70
0
 62
7
  6
Continuous
290
0
370
-3
390
13
347
21
  0
ENDTAB
  0
TABLE
  2
STYLE
  5
5
330
0
100
AcDbSymbolTable
 70
1
  0
STYLE
  5
29
330
5
100
AcDbSymbolTableRecord
100
AcDbTextStyleTableRecord
  2
Standard
 70
0
 40
0.0
 41
1.0
 50
0.0
 71
0
 42
2.5
  3
txt
  4

  0
ENDTAB
  0
TABLE
  2
VIEW
  5
7
330
0
100
AcDbSymbolTable
 70
0
  0
ENDTAB
  0
TABLE
  2
UCS
  5
6
330
0
100
AcDbSymbolTable
 70
0
  0
ENDTAB
  0
TABLE
  2
APPID
  5
3
330
0
100
AcDbSymbolTable
 70
3
  0
APPID
  5
2A
330
3
100
AcDbSymbolTableRecord
100
AcDbRegAppTableRecord
  2
ACAD
 70
0
  0
APPID
  5
39
330
3
100
AcDbSymbolTableRecord
100
AcDbRegAppTableRecord
  2
HATCHBACKGROUNDCOLOR
 70
0
  0
APPID
  5
3A
330
3
100
AcDbSymbolTableRecord
100
AcDbRegAppTableRecord
  2
EZDXF
 70
0
  0
ENDTAB
  0
TABLE
  2
DIMSTYLE
  5
4
330
0
100
AcDbSymbolTable
 70
1
100
AcDbDimStyleTable
  0
DIMSTYLE
105
2B
330
4
100
AcDbSymbolTableRecord
100
AcDbDimStyleTableRecord
  2
Standard
 70
0
 40
1.0
 41
2.5
 42
0.625
 43
3.75
 44
1.25
 45
0.0
 46
0.0
 47
0.0
 48
0.0
 49
2.5
140
2.5
141
2.5
142
0.0
143
0.03937007874
144
1.0
145
0.0
146
1.0
147
0.625
148
0.0
 69
0
 70
0
 71
0
 72
0
 73
0
 74
0
 75
0
 76
0
 77
1
 78
8
 79
3
170
0
171
3
172
1
173
0
174
0
175
0
176
0
177
0
178
0
179
2
271
2
272
2
273
2
274
3
275
0
276
0
277
2
278
44
279
0
280
0
281
0
282
0
283
0
284
8
285
0
286
0
288
0
289
3
290
0
371
-2
372
-2
  0
ENDTAB
  0
TABLE
  2
BLOCK_RECORD
  5
9
330
0
100
AcDbSymbolTable
 70
2
  0
BLOCK_RECORD
  5
17
330
9
100
AcDbSymbolTableRecord
100
AcDbBlockTableRecord
  2
*Model_Space
340
1A
 70
0
280
1
281
0
  0
BLOCK_RECORD
  5
1B
330
9
100
AcDbSymbolTableRecord
100
AcDbBlockTableRecord
  2
*Paper_Space
340
1E
 70
0
280
1
281
0
  0
ENDTAB
  0
ENDSEC
  0
SECTION
  2
BLOCKS
  0
BLOCK
  5
18
330
17
100
AcDbEntity
  8
0
100
AcDbBlockBegin
  2
*Model_Space
 70
0
 10
0.0
 20
0.0
 30
0.0
  3
*Model_Space
  1

  0
ENDBLK
  5
19
330
17
100
AcDbEntity
  8
0
100
AcDbBlockEnd
  0
BLOCK
  5
1C
330
1B
100
AcDbEntity
  8
0
100
AcDbBlockBegin
  2
*Paper_Space
 70
0
 10
0.0
 20
0.0
 30
0.0
  3
*Paper_Space
  1

  0
ENDBLK
  5
1D
330
1B
100
AcDbEntity
  8
0
100
AcDbBlockEnd
  0
ENDSEC
  0
SECTION
  2
ENTITIES
  0
LWPOLYLINE
  5
2F
330
17
100
AcDbEntity
  8
0
100
AcDbPolyline
 90
51
 70
0
 10
8.1
 20
12.0
 10
8.1
 20
11.76
 10
8.1
 20
11.52
 10
8.1
 20
11.28
 10
8.1
 20
11.04
 10
8.1
 20
10.8
 10
8.1
 20
10.56
 10
8.1
 20
10.32
 10
8.1
 20
10.08
 10
8.1
 20
9.84
 10
8.1
 20
9.6
 10
8.1
 20
9.36
 10
8.1
 20
9.120000000000001
 10
8.1
 20
8.879999999999999
 10
8.1
 20
8.64
 10
8.1
 20
8.4
 10
8.1
 20
8.16
 10
8.1
 20
7.92
 10
8.1
 20
7.68
 10
8.1
 20
7.44
 10
8.1
 20
7.2
 10
8.1
 20
6.96
 10
8.1
 20
6.72
 10
8.1
 20
6.48
 10
8.1
 20
6.24
 10
8.1
 20
6.0
 10
8.1
 20
5.76
 10
8.1
 20
5.52
 10
8.1
 20
5.28
 10
8.1
 20
5.04
 10
8.1
 20
4.8
 10
8.1
 20
4.56
 10
8.1
 20
4.32
 10
8.1
 20
4.08
 10
8.1
 20
3.84
 10
8.1
 20
3.5999999999999996
 10
8.1
 20
3.3599999999999994
 10
8.1
 20
3.119999999999999
 10
8.1
 20
2.880000000000001
 10
8.1
 20
2.6400000000000006
 10
8.1
 20
2.4000000000000004
 10
8.1
 20
2.16
 10
8.1
 20
1.92
 10
8.1
 20
1.6799999999999997
 10
8.1
 20
1.4399999999999995
 10
8.1
 20
1.1999999999999993
 10
8.1
 20
0.9600000000000009
 10
8.1
 20
0.7200000000000006
 10
8.1
 20
0.4800000000000004
 10
8.1
 20
0.2400000000000002
 10
8.100000000000001
 20
0.0
  0
LWPOLYLINE
  5
30
330
17
100
AcDbEntity
  8
0
100
AcDbPolyline
 90
51
 70
0
 10
-5.9
 20
5.0
 10
-5.9
 20
5.14
 10
-5.9
 20
5.28
 10
-5.9
 20
5.42
 10
-5.9
 20
5.5600000000000005
 10
-5.9
 20
5.7
 10
-5.9
 20
5.84
 10
-5.9
 20
5.98
 10
-5.9
 20
6.12
 10
-5.9
 20
6.26
 10
-5.9
 20
6.4
 10
-5.9
 20
6.54
 10
-5.9
 20
6.68
 10
-5.900000000000001
 20
6.82
 10
-5.900000000000001
 20
6.96
 10
-5.900000000000001
 20
7.1
 10
-5.900000000000001
 20
7.24
 10
-5.900000000000001
 20
7.38
 10
-5.900000000000001
 20
7.52
 10
-5.900000000000001
 20
7.66
 10
-5.900000000000001
 20
7.8
 10
-5.900000000000001
 20
7.9399999999999995
 10
-5.900000000000001
 20
8.08
 10
-5.900000000000001
 20
8.22
 10
-5.900000000000001
 20
8.36
 10
-5.900000000000001
 20
8.5
 10
-5.900000000000001
 20
8.64
 10
-5.900000000000001
 20
8.78
 10
-5.900000000000001
 20
8.92
 10
-5.900000000000001
 20
9.059999999999999
 10
-5.900000000000001
 20
9.2
 10
-5.900000000000001
 20
9.34
 10
-5.900000000000001
 20
9.48
 10
-5.900000000000001
 20
9.620000000000001
 10
-5.900000000000001
 20
9.76
 10
-5.900000000000001
 20
9.9
 10
-5.900000000000001
 20
10.04
 10
-5.900000000000001
 20
10.18
 10
-5.900000000000001
 20
10.32
 10
-5.900000000000002
 20
10.46
 10
-5.900000000000002
 20
10.6
 10
-5.900000000000002
 20
10.74
 10
-5.900000000000002
 20
10.879999999999999
 10
-5.900000000000002
 20
11.02
 10
-5.900000000000002
 20
11.16
 10
-5.900000000000002
 20
11.3
 10
-5.900000000000002
 20
11.440000000000001
 10
-5.900000000000002
 20
11.58
 10
-5.900000000000002
 20
11.719999999999999
 10
-5.900000000000002
 20
11.86
 10
-5.900000000000002
 20
12.0
  0
LWPOLYLINE
  5
31
330
17
100
AcDbEntity
  8
0
100
AcDbPolyline
 90
51
 70
0
 10
-5.9
 20
11.999999999999998
 10
-5.886187098997901
 20
12.439533636705189
 10
-5.844802909201345
 20
12.877332634950129
 10
-5.77601075510082
 20
13.31166920210007
 10
-5.680082127900418
 20
13.740829210153985
 10
-5.557395614066076
 20
14.16311896062463
 10
-5.40843540121776
 20
14.576871868792741
 10
-5.233789367262137
 20
14.980455040955508
 10
-5.034146760307047
 20
15.372275718712004
 10
-4.810295478514105
 20
15.750787564852978
 10
-4.563118960624633
 20
16.11449676604731
 10
-4.293592699430526
 20
16.461967928240824
 10
-4.00278039194988
 20
16.79182974150082
 10
-3.6918297415008223
 20
17.102780391949878
 10
-3.3619679282408277
 20
17.393592699430528
 10
-3.0144967660473134
 20
17.66311896062463
 10
-2.65078756485298
 20
17.910295478514104
 10
-2.2722757187120077
 20
18.134146760307047
 10
-1.8804550409555114
 20
18.333789367262135
 10
-1.4768718687927453
 20
18.50843540121776
 10
-1.0631189606246343
 20
18.657395614066075
 10
-0.6408292101539879
 20
18.780082127900418
 10
-0.21166920210007323
 20
18.876010755100822
 10
0.22266736504986717
 20
18.944802909201343
 10
0.6604663632948068
 20
18.986187098997902
 10
1.0999999999999979
 20
19.0
 10
1.539533636705189
 20
18.986187098997902
 10
1.977332634950129
 20
18.944802909201346
 10
2.411669202100069
 20
18.876010755100822
 10
2.840829210153984
 20
18.780082127900418
 10
3.26311896062463
 20
18.657395614066075
 10
3.676871868792741
 20
18.50843540121776
 10
4.080455040955508
 20
18.333789367262135
 10
4.472275718712009
 20
18.134146760307043
 10
4.850787564852976
 20
17.910295478514104
 10
5.21449676604731
 20
17.663118960624633
 10
5.561967928240824
 20
17.393592699430528
 10
5.891829741500821
 20
17.10278039194988
 10
6.202780391949879
 20
16.791829741500823
 10
6.4935926994305255
 20
16.461967928240828
 10
6.763118960624631
 20
16.114496766047314
 10
7.010295478514104
 20
15.750787564852981
 10
7.234146760307045
 20
15.372275718712007
 10
7.433789367262136
 20
14.980455040955512
 10
7.6084354012177595
 20
14.576871868792747
 10
7.757395614066075
 20
14.163118960624635
 10
7.880082127900417
 20
13.740829210153988
 10
7.97601075510082
 20
13.311669202100074
 10
8.044802909201344
 20
12.877332634950134
 10
8.0861870989979
 20
12.439533636705194
 10
8.1
 20
12.000000000000002
  0
LWPOLYLINE
  5
32
330
17
100
AcDbEntity
  8
0
100
AcDbPolyline
 90
51
 70
0
 10
8.1
 20
5.75539615965681e-16
 10
7.276
 20
5.169908945390487e-16
 10
6.452
 20
4.584421731124165e-16
 10
5.628
 20
3.9989345168578426e-16
 10
4.803999999999999
 20
3.41344730259152e-16
 10
3.9799999999999995
 20
2.8279600883251974e-16
 10
3.1559999999999997
 20
2.242472874058875e-16
 10
2.331999999999999
 20
1.6569856597925524e-16
 10
1.5079999999999991
 20
1.0714984455262301e-16
 10
0.6839999999999993
 20
4.860112312599078e-17
 10
-0.14000000000000057
 20
-9.94759830064144e-18
 10
-0.9640000000000004
 20
-6.849631972727367e-17
 10
-1.7880000000000003
 20
-1.270450411539059e-16
 10
-2.612
 20
-1.8559376258053813e-16
 10
-3.4360000000000017
 20
-2.441424840071705e-16
 10
-4.26
 20
-3.0269120543380257e-16
 10
-5.084000000000001
 20
-3.612399268604349e-16
 10
-5.908000000000003
 20
-4.197886482870673e-16
 10
-6.732000000000001
 20
-4.783373697136994e-16
 10
-7.556000000000001
 20
-5.368860911403316e-16
 10
-8.38
 20
-5.954348125669639e-16
 10
-9.204000000000002
 20
-6.539835339935962e-16
 10
-10.028
 20
-7.125322554202282e-16
 10
-10.852000000000002
 20
-7.710809768468607e-16
 10
-11.676
 20
-8.296296982734927e-16
 10
-12.500000000000002
 20
-8.88178419700125e-16
 10
-13.324
 20
-9.46727141126757e-16
 10
-14.148000000000001
 20
-1.0052758625533895e-15
 10
-14.972000000000003
 20
-1.063824583980022e-15
 10
-15.796000000000005
 20
-1.1223733054066542e-15
 10
-16.619999999999997
 20
-1.180922026833286e-15
 10
-17.444000000000003
 20
-1.2394707482599185e-15
 10
-18.268
 20
-1.2980194696865507e-15
 10
-19.092000000000006
 20
-1.3565681911131833e-15
 10
-19.916000000000004
 20
-1.4151169125398154e-15
 10
-20.740000000000002
 20
-1.4736656339664474e-15
 10
-21.564
 20
-1.5322143553930796e-15
 10
-22.388000000000005
 20
-1.590763076819712e-15
 10
-23.212000000000003
 20
-1.6493117982463443e-15
 10
-24.036
 20
-1.7078605196729763e-15
 10
-24.86
 20
-1.7664092410996084e-15
 10
-25.683999999999997
 20
-1.8249579625262406e-15
 10
-26.508000000000003
 20
-1.883506683952873e-15
 10
-27.332
 20
-1.942055405379505e-15
 10
-28.156
 20
-2.0006041268061375e-15
 10
-28.980000000000004
 20
-2.05915284823277e-15
 10
-29.804000000000002
 20
-2.117701569659402e-15
 10
-30.628
 20
-2.176250291086034e-15
 10
-31.451999999999998
 20
-2.234799012512666e-15
 10
-32.276
 20
-2.293347733939299e-15
 10
-33.1
 20
-2.351896455365931e-15
  0
LWPOLYLINE
  5
33
330
17
100
AcDbEntity
  8
0
100
AcDbPolyline
 90
51
 70
0
 10
5.1
 20
12.0
 10
5.08224785841232
 20
11.623566746725944
 10
5.029149002914755
 20
11.250474741657102
 10
4.941174742707773
 20
10.884035575843084
 10
4.819105943553006
 20
10.527501789261288
 10
4.664026096753472
 20
10.184038001041813
 10
4.477311702008061
 20
9.856692820084014
 10
4.260620049502762
 20
9.548371785388095
 10
4.015874509685646
 20
9.261811576285245
 10
3.7452474612946074
 20
8.999555721478162
 10
3.451141009169893
 20
8.76393202250021
 10
3.1361656630014845
 20
8.557031891984225
 10
2.803117166260292
 20
8.380691790135923
 10
2.4549516809811656
 20
8.236476924183098
 10
2.0947595486594195
 20
8.125667355485476
 10
1.7257378601609243
 20
8.049246637619449
 10
1.3511620781172546
 20
8.007893086286913
 10
0.9743569636874884
 20
8.001973758537073
 10
0.5986670657427832
 20
8.031541194742088
 10
0.22742703441383205
 20
8.09633295224501
 10
-0.13606797749978883
 20
8.195773934819385
 10
-0.48859156253912284
 20
8.328981497264076
 10
-0.8270146964068612
 20
8.494773279824546
 10
-1.1483335114085222
 20
8.691677702901753
 10
-1.4496959589947584
 20
8.917947028896844
 10
-1.7284271247461898
 20
9.171572875253808
 10
-1.9820529711031574
 20
9.450304041005243
 10
-2.2083222970982463
 20
9.751666488591477
 10
-2.4052267201754542
 20
10.07298530359314
 10
-2.5710185027359236
 20
10.411408437460874
 10
-2.704226065180614
 20
10.76393202250021
 10
-2.8036670477549888
 20
11.127427034413827
 10
-2.868458805257911
 20
11.498667065742781
 10
-2.8980262414629263
 20
11.874356963687486
 10
-2.892106913713086
 20
12.25116207811725
 10
-2.850753362380551
 20
12.625737860160923
 10
-2.774332644514524
 20
12.99475954865942
 10
-2.663523075816902
 20
13.354951680981165
 10
-2.5193082098640796
 20
13.703117166260288
 10
-2.3429681080157736
 20
14.036165663001487
 10
-2.13606797749979
 20
14.351141009169892
 10
-1.90044427852184
 20
14.645247461294606
 10
-1.638188423714753
 20
14.915874509685647
 10
-1.3516282146119059
 20
15.16062004950276
 10
-1.0433071799159852
 20
15.377311702008061
 10
-0.715961998958188
 20
15.564026096753471
 10
-0.3724982107387116
 20
15.719105943553005
 10
-0.01596442415691879
 20
15.841174742707771
 10
0.35047474165710113
 20
15.929149002914755
 10
0.7235667467259437
 20
15.98224785841232
 10
1.099999999999999
 20
16.0
  0
LWPOLYLINE
  5
34
330
17
100
AcDbEntity
  8
0
100
AcDbPolyline
 90
51
 70
0
 10
1.0999999999999999
 20
16.0
 10
1.225643036312513
 20
15.998026241462927
 10
1.3511620781172533
 20
15.992106913713087
 10
1.4764332532740572
 20
15.98224785841232
 10
1.601332934257217
 20
15.968458805257912
 10
1.7257378601609235
 20
15.950753362380551
 10
1.8495252583428983
 20
15.929149002914755
 10
1.9725729655861701
 20
15.90366704775499
 10
2.094759548659419
 20
15.874332644514524
 10
2.215964424156917
 20
15.841174742707771
 10
2.3360679774997894
 20
15.804226065180615
 10
2.454951680981165
 20
15.763523075816902
 10
2.5724982107387113
 20
15.719105943553005
 10
2.6885915625391226
 20
15.671018502735924
 10
2.8031171662602903
 20
15.619308209864078
 10
2.9159619989581866
 20
15.564026096753471
 10
3.0270146964068614
 20
15.505226720175454
 10
3.1361656630014854
 20
15.442968108015775
 10
3.2433071799159867
 20
15.377311702008061
 10
3.3483335114085224
 20
15.308322297098247
 10
3.4511410091698926
 20
15.23606797749979
 10
3.551628214611906
 20
15.16062004950276
 10
3.6496959589947586
 20
15.082052971103156
 10
3.7452474612946074
 20
15.000444278521838
 10
3.8381884237147545
 20
14.915874509685647
 10
3.9284271247461904
 20
14.82842712474619
 10
4.015874509685647
 20
14.738188423714755
 10
4.100444278521838
 20
14.645247461294607
 10
4.1820529711031575
 20
14.549695958994759
 10
4.260620049502762
 20
14.451628214611906
 10
4.3360679774997894
 20
14.351141009169893
 10
4.408322297098247
 20
14.248333511408523
 10
4.477311702008061
 20
14.143307179915986
 10
4.542968108015774
 20
14.036165663001485
 10
4.605226720175455
 20
13.92701469640686
 10
4.664026096753471
 20
13.815961998958187
 10
4.719308209864078
 20
13.703117166260292
 10
4.771018502735925
 20
13.588591562539122
 10
4.819105943553005
 20
13.472498210738713
 10
4.863523075816902
 20
13.354951680981166
 10
4.904226065180614
 20
13.23606797749979
 10
4.941174742707772
 20
13.115964424156918
 10
4.974332644514524
 20
12.994759548659419
 10
5.003667047754989
 20
12.872572965586171
 10
5.029149002914755
 20
12.7495252583429
 10
5.050753362380551
 20
12.625737860160925
 10
5.068458805257912
 20
12.501332934257219
 10
5.08224785841232
 20
12.376433253274058
 10
5.092106913713087
 20
12.251162078117254
 10
5.098026241462927
 20
12.125643036312514
 10
5.1
 20
12.0
  0
LWPOLYLINE
  5
35
330
17
100
AcDbEntity
  8
0
100
AcDbPolyline
 90
51
 70
0
 10
-33.1
 20
-2.35189645536593e-15
 10
-33.1
 20
0.0999999999999977
 10
-33.1
 20
0.19999999999999774
 10
-33.1
 20
0.2999999999999978
 10
-33.1
 20
0.39999999999999786
 10
-33.1
 20
0.499999999999998
 10
-33.1
 20
0.599999999999998
 10
-33.1
 20
0.6999999999999981
 10
-33.1
 20
0.799999999999998
 10
-33.1
 20
0.8999999999999981
 10
-33.1
 20
0.9999999999999982
 10
-33.1
 20
1.099999999999998
 10
-33.1
 20
1.1999999999999982
 10
-33.1
 20
1.299999999999998
 10
-33.1
 20
1.3999999999999984
 10
-33.1
 20
1.4999999999999984
 10
-33.1
 20
1.5999999999999983
 10
-33.1
 20
1.6999999999999984
 10
-33.1
 20
1.7999999999999985
 10
-33.1
 20
1.8999999999999988
 10
-33.1
 20
1.9999999999999991
 10
-33.1
 20
2.0999999999999988
 10
-33.1
 20
2.199999999999999
 10
-33.1
 20
2.299999999999999
 10
-33.1
 20
2.399999999999999
 10
-33.1
 20
2.499999999999999
 10
-33.1
 20
2.5999999999999988
 10
-33.1
 20
2.6999999999999993
 10
-33.1
 20
2.7999999999999994
 10
-33.1
 20
2.8999999999999995
 10
-33.1
 20
2.9999999999999996
 10
-33.1
 20
3.0999999999999996
 10
-33.1
 20
3.1999999999999993
 10
-33.1
 20
3.2999999999999994
 10
-33.1
 20
3.3999999999999995
 10
-33.1
 20
3.4999999999999996
 10
-33.1
 20
3.5999999999999996
 10
-33.1
 20
3.6999999999999993
 10
-33.1
 20
3.8000000000000003
 10
-33.1
 20
3.9
 10
-33.1
 20
4.0
 10
-33.1
 20
4.1
 10
-33.1
 20
4.199999999999999
 10
-33.1
 20
4.3
 10
-33.1
 20
4.3999999999999995
 10
-33.1
 20
4.5
 10
-33.1
 20
4.6
 10
-33.1
 20
4.699999999999999
 10
-33.1
 20
4.8
 10
-33.1
 20
4.9
 10
-33.1
 20
5.0
  0
LWPOLYLINE
  5
36
330
17
100
AcDbEntity
  8
0
100
AcDbPolyline
 90
51
 70
0
 10
-20.0
 20
5.0
 10
-19.718
 20
5.0
 10
-19.436
 20
5.0
 10
-19.154
 20
5.0
 10
-18.872
 20
5.0
 10
-18.59
 20
5.0
 10
-18.308
 20
5.0
 10
-18.026
 20
5.0
 10
-17.744
 20
5.0
 10
-17.462
 20
5.0
 10
-17.18
 20
5.0
 10
-16.898
 20
5.0
 10
-16.616
 20
5.0
 10
-16.334
 20
5.0
 10
-16.052
 20
5.0
 10
-15.77
 20
5.0
 10
-15.488
 20
5.0
 10
-15.206
 20
5.0
 10
-14.924
 20
5.0
 10
-14.642
 20
5.0
 10
-14.36
 20
5.0
 10
-14.078
 20
5.0
 10
-13.796
 20
5.0
 10
-13.514
 20
5.0
 10
-13.232
 20
5.0
 10
-12.95
 20
5.0
 10
-12.668
 20
5.0
 10
-12.386
 20
5.0
 10
-12.104
 20
5.0
 10
-11.822
 20
5.0
 10
-11.54
 20
5.0
 10
-11.258
 20
5.0
 10
-10.975999999999999
 20
5.0
 10
-10.693999999999999
 20
5.0
 10
-10.411999999999999
 20
5.0
 10
-10.129999999999999
 20
5.0
 10
-9.847999999999999
 20
5.0
 10
-9.565999999999999
 20
5.0
 10
-9.283999999999999
 20
5.0
 10
-9.001999999999999
 20
5.0
 10
-8.719999999999999
 20
5.0
 10
-8.437999999999999
 20
5.0
 10
-8.155999999999999
 20
5.0
 10
-7.873999999999999
 20
5.0
 10
-7.591999999999999
 20
5.0
 10
-7.309999999999995
 20
5.0
 10
-7.027999999999999
 20
5.0
 10
-6.745999999999999
 20
5.0
 10
-6.463999999999999
 20
5.0
 10
-6.181999999999999
 20
5.0
 10
-5.899999999999999
 20
5.0
  0
LWPOLYLINE
  5
37
330
17
100
AcDbEntity
  8
0
100
AcDbPolyline
 90
51
 70
0
 10
-33.1
 20
5.0
 10
-32.556
 20
5.0
 10
-32.012
 20
5.0
 10
-31.468000000000004
 20
5.0
 10
-30.924
 20
5.0
 10
-30.380000000000003
 20
5.0
 10
-29.836000000000002
 20
5.0
 10
-29.292
 20
5.0
 10
-28.748
 20
5.0
 10
-28.204
 20
5.0
 10
-27.66
 20
5.0
 10
-27.116
 20
5.0
 10
-26.572000000000003
 20
5.0
 10
-26.028000000000002
 20
5.0
 10
-25.484
 20
5.0
 10
-24.939999999999998
 20
5.0
 10
-24.396
 20
5.0
 10
-23.852
 20
5.0
 10
-23.308
 20
5.0
 10
-22.764
 20
5.0
 10
-22.22
 20
5.0
 10
-21.676000000000002
 20
5.0
 10
-21.131999999999998
 20
5.0
 10
-20.588
 20
5.0
 10
-20.044
 20
5.0
 10
-19.5
 20
5.0
 10
-18.956000000000003
 20
5.0
 10
-18.412
 20
5.0
 10
-17.868
 20
5.0
 10
-17.323999999999998
 20
5.0
 10
-16.779999999999998
 20
5.0
 10
-16.236
 20
5.0
 10
-15.692
 20
5.0
 10
-15.148
 20
5.0
 10
-14.604
 20
5.0
 10
-14.059999999999999
 20
5.0
 10
-13.516000000000002
 20
5.0
 10
-12.972000000000001
 20
5.0
 10
-12.427999999999997
 20
5.0
 10
-11.883999999999997
 20
5.0
 10
-11.34
 20
5.0
 10
-10.796
 20
5.0
 10
-10.251999999999999
 20
5.0
 10
-9.707999999999998
 20
5.0
 10
-9.163999999999998
 20
5.0
 10
-8.619999999999997
 20
5.0
 10
-8.076
 20
5.0
 10
-7.532
 20
5.0
 10
-6.9879999999999995
 20
5.0
 10
-6.443999999999999
 20
5.0
 10
-5.899999999999999
 20
5.0
  0
LWPOLYLINE
  5
38
330
17
100
AcDbEntity
  8
0
100
AcDbPolyline
 90
51
 70
0
 10
-5.9
 20
5.0
 10
-5.9
 20
5.14
 10
-5.9
 20
5.28
 10
-5.9
 20
5.42
 10
-5.9
 20
5.5600000000000005
 10
-5.9
 20
5.7
 10
-5.9
 20
5.84
 10
-5.9
 20
5.98
 10
-5.9
 20
6.12
 10
-5.9
 20
6.26
 10
-5.9
 20
6.4
 10
-5.9
 20
6.54
 10
-5.9
 20
6.68
 10
-5.900000000000001
 20
6.82
 10
-5.900000000000001
 20
6.96
 10
-5.900000000000001
 20
7.1
 10
-5.900000000000001
 20
7.24
 10
-5.900000000000001
 20
7.38
 10
-5.900000000000001
 20
7.52
 10
-5.900000000000001
 20
7.66
 10
-5.900000000000001
 20
7.8
 10
-5.900000000000001
 20
7.9399999999999995
 10
-5.900000000000001
 20
8.08
 10
-5.900000000000001
 20
8.22
 10
-5.900000000000001
 20
8.36
 10
-5.900000000000001
 20
8.5
 10
-5.900000000000001
 20
8.64
 10
-5.900000000000001
 20
8.78
 10
-5.900000000000001
 20
8.92
 10
-5.900000000000001
 20
9.059999999999999
 10
-5.900000000000001
 20
9.2
 10
-5.900000000000001
 20
9.34
 10
-5.900000000000001
 20
9.48
 10
-5.900000000000001
 20
9.620000000000001
 10
-5.900000000000001
 20
9.76
 10
-5.900000000000001
 20
9.9
 10
-5.900000000000001
 20
10.04
 10
-5.900000000000001
 20
10.18
 10
-5.900000000000001
 20
10.32
 10
-5.900000000000002
 20
10.46
 10
-5.900000000000002
 20
10.6
 10
-5.900000000000002
 20
10.74
 10
-5.900000000000002
 20
10.879999999999999
 10
-5.900000000000002
 20
11.02
 10
-5.900000000000002
 20
11.16
 10
-5.900000000000002
 20
11.3
 10
-5.900000000000002
 20
11.440000000000001
 10
-5.900000000000002
 20
11.58
 10
-5.900000000000002
 20
11.719999999999999
 10
-5.900000000000002
 20
11.86
 10
-5.900000000000002
 20
12.0
  0
ENDSEC
  0
SECTION
  2
OBJECTS
  0
DICTIONARY
  5
A
330
0
100
AcDbDictionary
280
0
281
1
  3
ACAD_COLOR
350
B
  3
ACAD_GROUP
350
C
  3
ACAD_LAYOUT
350
D
  3
ACAD_MATERIAL
350
E
  3
ACAD_MLEADERSTYLE
350
F
  3
ACAD_MLINESTYLE
350
10
  3
ACAD_PLOTSETTINGS
350
11
  3
ACAD_PLOTSTYLENAME
350
12
  3
ACAD_SCALELIST
350
14
  3
ACAD_TABLESTYLE
350
15
  3
ACAD_VISUALSTYLE
350
16
  3
EZDXF_META
350
2D
  0
DICTIONARY
  5
B
330
A
100
AcDbDictionary
280
0
281
1
  0
DICTIONARY
  5
C
330
A
100
AcDbDictionary
280
0
281
1
  0
DICTIONARY
  5
D
330
A
100
AcDbDictionary
280
0
281
1
  3
Model
350
1A
  3
Layout1
350
1E
  0
DICTIONARY
  5
E
330
A
100
AcDbDictionary
280
0
281
1
  3
ByBlock
350
1F
  3
ByLayer
350
20
  3
Global
350
21
  0
DICTIONARY
  5
F
330
A
100
AcDbDictionary
280
0
281
1
  3
Standard
350
2C
  0
DICTIONARY
  5
10
330
A
100
AcDbDictionary
280
0
281
1
  3
Standard
350
22
  0
DICTIONARY
  5
11
330
A
100
AcDbDictionary
280
0
281
1
  0
ACDBDICTIONARYWDFLT
  5
12
330
A
100
AcDbDictionary
280
0
281
1
  3
Normal
350
13
100
AcDbDictionaryWithDefault
340
13
  0
ACDBPLACEHOLDER
  5
13
330
12
  0
DICTIONARY
  5
14
330
A
100
AcDbDictionary
280
0
281
1
  0
DICTIONARY
  5
15
330
A
100
AcDbDictionary
280
0
281
1
  0
DICTIONARY
  5
16
330
A
100
AcDbDictionary
280
0
281
1
  0
LAYOUT
  5
1A
330
D
100
AcDbPlotSettings
  1

  2
Adobe PDF
  4
A3
  6

 40
7.5
 41
20.0
 42
7.5
 43
20.0
 44
420.0
 45
297.0
 46
0.0
 47
0.0
 48
0.0
 49
0.0
140
0.0
141
0.0
142
1.0
143
1.0
 70
1024
 72
1
 73
0
 74
5
  7

 75
16
 76
0
 77
2
 78
300
147
1.0
148
0.0
149
0.0
100
AcDbLayout
  1
Model
 70
1
 71
0
 10
0.0
 20
0.0
 11
420.0
 21
297.0
 12
0.0
 22
0.0
 32
0.0
 14
1e+20
 24
1e+20
 34
1e+20
 15
-1e+20
 25
-1e+20
 35
-1e+20
146
0.0
 13
0.0
 23
0.0
 33
0.0
 16
1.0
 26
0.0
 36
0.0
 17
0.0
 27
1.0
 37
0.0
 76
1
330
17
  0
LAYOUT
  5
1E
330
D
100
AcDbPlotSettings
  1

  2
Adobe PDF
  4
A3
  6

 40
7.5
 41
20.0
 42
7.5
 43
20.0
 44
420.0
 45
297.0
 46
0.0
 47
0.0
 48
0.0
 49
0.0
140
0.0
141
0.0
142
1.0
143
1.0
 70
0
 72
1
 73
0
 74
5
  7

 75
16
 76
0
 77
2
 78
300
147
1.0
148
0.0
149
0.0
100
AcDbLayout
  1
Layout1
 70
1
 71
1
 10
0.0
 20
0.0
 11
420.0
 21
297.0
 12
0.0
 22
0.0
 32
0.0
 14
1e+20
 24
1e+20
 34
1e+20
 15
-1e+20
 25
-1e+20
 35
-1e+20
146
0.0
 13
0.0
 23
0.0
 33
0.0
 16
1.0
 26
0.0
 36
0.0
 17
0.0
 27
1.0
 37
0.0
 76
1
330
1B
  0
MATERIAL
  5
1F
102
{ACAD_REACTORS
330
E
102
}
330
E
100
AcDbMaterial
  1
ByBlock
  2

 70
0
 40
1.0
 71
1
 41
1.0
 91
-1023410177
 42
1.0
 72
1
  3

 73
1
 74
1
 75
1
 44
0.5
 73
0
 45
1.0
 46
1.0
 77
1
  4

 78
1
 79
1
170
1
 48
1.0
171
1
  6

172
1
173
1
174
1
140
1.0
141
1.0
175
1
  7

176
1
177
1
178
1
143
1.0
179
1
  8

270
1
271
1
272
1
145
1.0
146
1.0
273
1
  9

274
1
275
1
276
1
 42
1.0
 72
1
  3

 73
1
 74
1
 75
1
 94
63
  0
MATERIAL
  5
20
102
{ACAD_REACTORS
330
E
102
}
330
E
100
AcDbMaterial
  1
ByLayer
  2

 70
0
 40
1.0
 71
1
 41
1.0
 91
-1023410177
 42
1.0
 72
1
  3

 73
1
 74
1
 75
1
 44
0.5
 73
0
 45
1.0
 46
1.0
 77
1
  4

 78
1
 79
1
170
1
 48
1.0
171
1
  6

172
1
173
1
174
1
140
1.0
141
1.0
175
1
  7

176
1
177
1
178
1
143
1.0
179
1
  8

270
1
271
1
272
1
145
1.0
146
1.0
273
1
  9

274
1
275
1
276
1
 42
1.0
 72
1
  3

 73
1
 74
1
 75
1
 94
63
  0
MATERIAL
  5
21
102
{ACAD_REACTORS
330
E
102
}
330
E
100
AcDbMaterial
  1
Global
  2

 70
0
 40
1.0
 71
1
 41
1.0
 91
-1023410177
 42
1.0
 72
1
  3

 73
1
 74
1
 75
1
 44
0.5
 73
0
 45
1.0
 46
1.0
 77
1
  4

 78
1
 79
1
170
1
 48
1.0
171
1
  6

172
1
173
1
174
1
140
1.0
141
1.0
175
1
  7

176
1
177
1
178
1
143
1.0
179
1
  8

270
1
271
1
272
1
145
1.0
146
1.0
273
1
  9

274
1
275
1
276
1
 42
1.0
 72
1
  3

 73
1
 74
1
 75
1
 94
63
  0
MLINESTYLE
  5
22
102
{ACAD_REACTORS
330
10
102
}
330
10
100
AcDbMlineStyle
  2
Standard
 70
0
  3

 62
256
 51
90.0
 52
90.0
 71
2
 49
0.5
 62
256
  6
BYLAYER
 49
-0.5
 62
256
  6
BYLAYER
  0
MLEADERSTYLE
  5
2C
102
{ACAD_REACTORS
330
F
102
}
330
F
100
AcDbMLeaderStyle
179
2
170
2
171
1
172
0
 90
2
 40
0.0
 41
0.0
173
1
 91
-1056964608
 92
-2
290
1
 42
2.0
291
1
 43
8.0
  3
Standard
 44
4.0
300

342
29
174
1
175
1
176
0
178
1
 93
-1056964608
 45
4.0
292
0
297
0
 46
4.0
 94
-1056964608
 47
1.0
 49
1.0
140
1.0
294
1
141
0.0
177
0
142
1.0
295
0
296
0
143
3.75
271
0
272
9
273
9
  0
DICTIONARY
  5
2D
330
A
100
AcDbDictionary
281
1
  3
CREATED_BY_EZDXF
350
2E
  3
WRITTEN_BY_EZDXF
350
3B
  0
DICTIONARYVAR
  5
2E
330
2D
100
DictionaryVariables
280
0
  1
1.0.3 @ 2025-05-29T09:38:43.679624+00:00
  0
DICTIONARYVAR
  5
3B
330
2D
100
DictionaryVariables
280
0
  1
1.0.3 @ 2025-05-29T09:38:43.682688+00:00
  0
ENDSEC
  0
EOF
