  0
SECTION
  2
HEADER
  9
$ACADVER
  1
AC1027
  9
$ACADMAINTVER
 70
105
  9
$DWGCODEPAGE
  3
ANSI_1252
  9
$LASTSAVEDBY
  1
ezdxf
  9
$REQUIREDVERSIONS
160
0
  9
$INSBASE
 10
0.0
 20
0.0
 30
0.0
  9
$EXTMIN
 10
1e+20
 20
1e+20
 30
1e+20
  9
$EXTMAX
 10
-1e+20
 20
-1e+20
 30
-1e+20
  9
$LIMMIN
 10
0.0
 20
0.0
  9
$LIMMAX
 10
420.0
 20
297.0
  9
$ORTHOMODE
 70
0
  9
$REGENMODE
 70
1
  9
$FILLMODE
 70
1
  9
$QTEXTMODE
 70
0
  9
$MIRRTEXT
 70
1
  9
$LTSCALE
 40
1.0
  9
$ATTMODE
 70
1
  9
$TEXTSIZE
 40
2.5
  9
$TRACEWID
 40
1.0
  9
$TEXTSTYLE
  7
Standard
  9
$CLAYER
  8
0
  9
$CELTYPE
  6
ByLayer
  9
$CECOLOR
 62
256
  9
$CELTSCALE
 40
1.0
  9
$DISPSILH
 70
0
  9
$DIMSCALE
 40
1.0
  9
$DIMASZ
 40
2.5
  9
$DIMEXO
 40
0.625
  9
$DIMDLI
 40
3.75
  9
$DIMRND
 40
0.0
  9
$DIMDLE
 40
0.0
  9
$DIMEXE
 40
1.25
  9
$DIMTP
 40
0.0
  9
$DIMTM
 40
0.0
  9
$DIMTXT
 40
2.5
  9
$DIMCEN
 40
2.5
  9
$DIMTSZ
 40
0.0
  9
$DIMTOL
 70
0
  9
$DIMLIM
 70
0
  9
$DIMTIH
 70
0
  9
$DIMTOH
 70
0
  9
$DIMSE1
 70
0
  9
$DIMSE2
 70
0
  9
$DIMTAD
 70
1
  9
$DIMZIN
 70
8
  9
$DIMBLK
  1

  9
$DIMASO
 70
1
  9
$DIMSHO
 70
1
  9
$DIMPOST
  1

  9
$DIMAPOST
  1

  9
$DIMALT
 70
0
  9
$DIMALTD
 70
3
  9
$DIMALTF
 40
0.03937007874
  9
$DIMLFAC
 40
1.0
  9
$DIMTOFL
 70
1
  9
$DIMTVP
 40
0.0
  9
$DIMTIX
 70
0
  9
$DIMSOXD
 70
0
  9
$DIMSAH
 70
0
  9
$DIMBLK1
  1

  9
$DIMBLK2
  1

  9
$DIMSTYLE
  2
ISO-25
  9
$DIMCLRD
 70
0
  9
$DIMCLRE
 70
0
  9
$DIMCLRT
 70
0
  9
$DIMTFAC
 40
1.0
  9
$DIMGAP
 40
0.625
  9
$DIMJUST
 70
0
  9
$DIMSD1
 70
0
  9
$DIMSD2
 70
0
  9
$DIMTOLJ
 70
0
  9
$DIMTZIN
 70
8
  9
$DIMALTZ
 70
0
  9
$DIMALTTZ
 70
0
  9
$DIMUPT
 70
0
  9
$DIMDEC
 70
2
  9
$DIMTDEC
 70
2
  9
$DIMALTU
 70
2
  9
$DIMALTTD
 70
3
  9
$DIMTXSTY
  7
Standard
  9
$DIMAUNIT
 70
0
  9
$DIMADEC
 70
0
  9
$DIMALTRND
 40
0.0
  9
$DIMAZIN
 70
0
  9
$DIMDSEP
 70
44
  9
$DIMATFIT
 70
3
  9
$DIMFRAC
 70
0
  9
$DIMLDRBLK
  1

  9
$DIMLUNIT
 70
2
  9
$DIMLWD
 70
-2
  9
$DIMLWE
 70
-2
  9
$DIMTMOVE
 70
0
  9
$DIMFXL
 40
1.0
  9
$DIMFXLON
 70
0
  9
$DIMJOGANG
 40
0.785398163397
  9
$DIMTFILL
 70
0
  9
$DIMTFILLCLR
 70
0
  9
$DIMARCSYM
 70
0
  9
$DIMLTYPE
  6

  9
$DIMLTEX1
  6

  9
$DIMLTEX2
  6

  9
$DIMTXTDIRECTION
 70
0
  9
$LUNITS
 70
2
  9
$LUPREC
 70
4
  9
$SKETCHINC
 40
1.0
  9
$FILLETRAD
 40
10.0
  9
$AUNITS
 70
0
  9
$AUPREC
 70
2
  9
$MENU
  1
.
  9
$ELEVATION
 40
0.0
  9
$PELEVATION
 40
0.0
  9
$THICKNESS
 40
0.0
  9
$LIMCHECK
 70
0
  9
$CHAMFERA
 40
0.0
  9
$CHAMFERB
 40
0.0
  9
$CHAMFERC
 40
0.0
  9
$CHAMFERD
 40
0.0
  9
$SKPOLY
 70
0
  9
$TDCREATE
 40
2460825.7773032407
  9
$TDUCREATE
 40
2458532.153996898
  9
$TDUPDATE
 40
2460825.7773032407
  9
$TDUUPDATE
 40
2458532.1544311
  9
$TDINDWG
 40
0.0
  9
$TDUSRTIMER
 40
0.0
  9
$USRTIMER
 70
1
  9
$ANGBASE
 50
0.0
  9
$ANGDIR
 70
0
  9
$PDMODE
 70
0
  9
$PDSIZE
 40
0.0
  9
$PLINEWID
 40
0.0
  9
$SPLFRAME
 70
0
  9
$SPLINETYPE
 70
6
  9
$SPLINESEGS
 70
8
  9
$HANDSEED
  5
42
  9
$SURFTAB1
 70
6
  9
$SURFTAB2
 70
6
  9
$SURFTYPE
 70
6
  9
$SURFU
 70
6
  9
$SURFV
 70
6
  9
$UCSBASE
  2

  9
$UCSNAME
  2

  9
$UCSORG
 10
0.0
 20
0.0
 30
0.0
  9
$UCSXDIR
 10
1.0
 20
0.0
 30
0.0
  9
$UCSYDIR
 10
0.0
 20
1.0
 30
0.0
  9
$UCSORTHOREF
  2

  9
$UCSORTHOVIEW
 70
0
  9
$UCSORGTOP
 10
0.0
 20
0.0
 30
0.0
  9
$UCSORGBOTTOM
 10
0.0
 20
0.0
 30
0.0
  9
$UCSORGLEFT
 10
0.0
 20
0.0
 30
0.0
  9
$UCSORGRIGHT
 10
0.0
 20
0.0
 30
0.0
  9
$UCSORGFRONT
 10
0.0
 20
0.0
 30
0.0
  9
$UCSORGBACK
 10
0.0
 20
0.0
 30
0.0
  9
$PUCSBASE
  2

  9
$PUCSNAME
  2

  9
$PUCSORG
 10
0.0
 20
0.0
 30
0.0
  9
$PUCSXDIR
 10
1.0
 20
0.0
 30
0.0
  9
$PUCSYDIR
 10
0.0
 20
1.0
 30
0.0
  9
$PUCSORTHOREF
  2

  9
$PUCSORTHOVIEW
 70
0
  9
$PUCSORGTOP
 10
0.0
 20
0.0
 30
0.0
  9
$PUCSORGBOTTOM
 10
0.0
 20
0.0
 30
0.0
  9
$PUCSORGLEFT
 10
0.0
 20
0.0
 30
0.0
  9
$PUCSORGRIGHT
 10
0.0
 20
0.0
 30
0.0
  9
$PUCSORGFRONT
 10
0.0
 20
0.0
 30
0.0
  9
$PUCSORGBACK
 10
0.0
 20
0.0
 30
0.0
  9
$USERI1
 70
0
  9
$USERI2
 70
0
  9
$USERI3
 70
0
  9
$USERI4
 70
0
  9
$USERI5
 70
0
  9
$USERR1
 40
0.0
  9
$USERR2
 40
0.0
  9
$USERR3
 40
0.0
  9
$USERR4
 40
0.0
  9
$USERR5
 40
0.0
  9
$WORLDVIEW
 70
1
  9
$SHADEDGE
 70
3
  9
$SHADEDIF
 70
70
  9
$TILEMODE
 70
1
  9
$MAXACTVP
 70
64
  9
$PINSBASE
 10
0.0
 20
0.0
 30
0.0
  9
$PLIMCHECK
 70
0
  9
$PEXTMIN
 10
1e+20
 20
1e+20
 30
1e+20
  9
$PEXTMAX
 10
-1e+20
 20
-1e+20
 30
-1e+20
  9
$PLIMMIN
 10
0.0
 20
0.0
  9
$PLIMMAX
 10
420.0
 20
297.0
  9
$UNITMODE
 70
0
  9
$VISRETAIN
 70
1
  9
$PLINEGEN
 70
0
  9
$PSLTSCALE
 70
1
  9
$TREEDEPTH
 70
3020
  9
$CMLSTYLE
  2
Standard
  9
$CMLJUST
 70
0
  9
$CMLSCALE
 40
20.0
  9
$PROXYGRAPHICS
 70
1
  9
$MEASUREMENT
 70
1
  9
$CELWEIGHT
370
-1
  9
$ENDCAPS
280
0
  9
$JOINSTYLE
280
0
  9
$LWDISPLAY
290
0
  9
$INSUNITS
 70
6
  9
$HYPERLINKBASE
  1

  9
$STYLESHEET
  1

  9
$XEDIT
290
1
  9
$CEPSNTYPE
380
0
  9
$PSTYLEMODE
290
1
  9
$FINGERPRINTGUID
  2
{F4F42430-E4AB-414B-8E24-AE7F0E1BCD0E}
  9
$VERSIONGUID
  2
{57606DD4-8CF8-4747-9198-C7D254ABD8D3}
  9
$EXTNAMES
290
1
  9
$PSVPSCALE
 40
0.0
  9
$OLESTARTUP
290
0
  9
$SORTENTS
280
127
  9
$INDEXCTL
280
0
  9
$HIDETEXT
280
1
  9
$XCLIPFRAME
280
0
  9
$HALOGAP
280
0
  9
$OBSCOLOR
 70
257
  9
$OBSLTYPE
280
0
  9
$INTERSECTIONDISPLAY
280
0
  9
$INTERSECTIONCOLOR
 70
257
  9
$DIMASSOC
280
2
  9
$PROJECTNAME
  1

  9
$CAMERADISPLAY
290
0
  9
$LENSLENGTH
 40
50.0
  9
$CAMERAHEIGHT
 40
0.0
  9
$STEPSPERSEC
 40
24.0
  9
$STEPSIZE
 40
100.0
  9
$3DDWFPREC
 40
2.0
  9
$PSOLWIDTH
 40
0.005
  9
$PSOLHEIGHT
 40
0.08
  9
$LOFTANG1
 40
1.570796326795
  9
$LOFTANG2
 40
1.570796326795
  9
$LOFTMAG1
 40
0.0
  9
$LOFTMAG2
 40
0.0
  9
$LOFTPARAM
 70
7
  9
$LOFTNORMALS
280
1
  9
$LATITUDE
 40
37.795
  9
$LONGITUDE
 40
-122.394
  9
$NORTHDIRECTION
 40
0.0
  9
$TIMEZONE
 70
-8000
  9
$LIGHTGLYPHDISPLAY
280
1
  9
$TILEMODELIGHTSYNCH
280
1
  9
$CMATERIAL
347
20
  9
$SOLIDHIST
280
0
  9
$SHOWHIST
280
1
  9
$DWFFRAME
280
2
  9
$DGNFRAME
280
2
  9
$REALWORLDSCALE
290
1
  9
$INTERFERECOLOR
 62
256
  9
$CSHADOW
280
0
  9
$SHADOWPLANELOCATION
 40
0.0
  0
ENDSEC
  0
SECTION
  2
CLASSES
  0
CLASS
  1
ACDBDICTIONARYWDFLT
  2
AcDbDictionaryWithDefault
  3
ObjectDBX Classes
 90
0
 91
0
280
0
281
0
  0
CLASS
  1
SUN
  2
AcDbSun
  3
SCENEOE
 90
1153
 91
0
280
0
281
0
  0
CLASS
  1
VISUALSTYLE
  2
AcDbVisualStyle
  3
ObjectDBX Classes
 90
4095
 91
0
280
0
281
0
  0
CLASS
  1
MATERIAL
  2
AcDbMaterial
  3
ObjectDBX Classes
 90
1153
 91
0
280
0
281
0
  0
CLASS
  1
SCALE
  2
AcDbScale
  3
ObjectDBX Classes
 90
1153
 91
0
280
0
281
0
  0
CLASS
  1
TABLESTYLE
  2
AcDbTableStyle
  3
ObjectDBX Classes
 90
4095
 91
0
280
0
281
0
  0
CLASS
  1
MLEADERSTYLE
  2
AcDbMLeaderStyle
  3
ACDB_MLEADERSTYLE_CLASS
 90
4095
 91
0
280
0
281
0
  0
CLASS
  1
DICTIONARYVAR
  2
AcDbDictionaryVar
  3
ObjectDBX Classes
 90
0
 91
0
280
0
281
0
  0
CLASS
  1
CELLSTYLEMAP
  2
AcDbCellStyleMap
  3
ObjectDBX Classes
 90
1152
 91
0
280
0
281
0
  0
CLASS
  1
MENTALRAYRENDERSETTINGS
  2
AcDbMentalRayRenderSettings
  3
SCENEOE
 90
1024
 91
0
280
0
281
0
  0
CLASS
  1
ACDBDETAILVIEWSTYLE
  2
AcDbDetailViewStyle
  3
ObjectDBX Classes
 90
1025
 91
0
280
0
281
0
  0
CLASS
  1
ACDBSECTIONVIEWSTYLE
  2
AcDbSectionViewStyle
  3
ObjectDBX Classes
 90
1025
 91
0
280
0
281
0
  0
CLASS
  1
RASTERVARIABLES
  2
AcDbRasterVariables
  3
ISM
 90
0
 91
0
280
0
281
0
  0
CLASS
  1
LAYOUT
  2
AcDbLayout
  3
ObjectDBX Classes
 90
0
 91
0
280
0
281
0
  0
CLASS
  1
ACDBPLACEHOLDER
  2
AcDbPlaceHolder
  3
ObjectDBX Classes
 90
0
 91
0
280
0
281
0
  0
ENDSEC
  0
SECTION
  2
TABLES
  0
TABLE
  2
VPORT
  5
8
330
0
100
AcDbSymbolTable
 70
1
  0
VPORT
  5
23
330
8
100
AcDbSymbolTableRecord
100
AcDbViewportTableRecord
  2
*Active
 70
0
 10
0.0
 20
0.0
 11
1.0
 21
1.0
 12
0.0
 22
0.0
 13
0.0
 23
0.0
 14
0.5
 24
0.5
 15
0.5
 25
0.5
 16
0.0
 26
0.0
 36
1.0
 17
0.0
 27
0.0
 37
0.0
 40
1000.0
 41
1.34
 42
50.0
 43
0.0
 44
0.0
 50
0.0
 51
0.0
 71
0
 72
1000
 73
1
 74
3
 75
0
 76
0
 77
0
 78
0
281
0
 65
0
146
0.0
  0
ENDTAB
  0
TABLE
  2
LTYPE
  5
2
330
0
100
AcDbSymbolTable
 70
3
  0
LTYPE
  5
24
330
2
100
AcDbSymbolTableRecord
100
AcDbLinetypeTableRecord
  2
ByBlock
 70
0
  3

 72
65
 73
0
 40
0.0
  0
LTYPE
  5
25
330
2
100
AcDbSymbolTableRecord
100
AcDbLinetypeTableRecord
  2
ByLayer
 70
0
  3

 72
65
 73
0
 40
0.0
  0
LTYPE
  5
26
330
2
100
AcDbSymbolTableRecord
100
AcDbLinetypeTableRecord
  2
Continuous
 70
0
  3

 72
65
 73
0
 40
0.0
  0
ENDTAB
  0
TABLE
  2
LAYER
  5
1
330
0
100
AcDbSymbolTable
 70
2
  0
LAYER
  5
27
330
1
100
AcDbSymbolTableRecord
100
AcDbLayerTableRecord
  2
0
 70
0
 62
7
  6
Continuous
370
-3
390
13
347
21
  0
LAYER
  5
28
330
1
100
AcDbSymbolTableRecord
100
AcDbLayerTableRecord
  2
Defpoints
 70
0
 62
7
  6
Continuous
290
0
370
-3
390
13
347
21
  0
ENDTAB
  0
TABLE
  2
STYLE
  5
5
330
0
100
AcDbSymbolTable
 70
1
  0
STYLE
  5
29
330
5
100
AcDbSymbolTableRecord
100
AcDbTextStyleTableRecord
  2
Standard
 70
0
 40
0.0
 41
1.0
 50
0.0
 71
0
 42
2.5
  3
txt
  4

  0
ENDTAB
  0
TABLE
  2
VIEW
  5
7
330
0
100
AcDbSymbolTable
 70
0
  0
ENDTAB
  0
TABLE
  2
UCS
  5
6
330
0
100
AcDbSymbolTable
 70
0
  0
ENDTAB
  0
TABLE
  2
APPID
  5
3
330
0
100
AcDbSymbolTable
 70
3
  0
APPID
  5
2A
330
3
100
AcDbSymbolTableRecord
100
AcDbRegAppTableRecord
  2
ACAD
 70
0
  0
APPID
  5
3F
330
3
100
AcDbSymbolTableRecord
100
AcDbRegAppTableRecord
  2
HATCHBACKGROUNDCOLOR
 70
0
  0
APPID
  5
40
330
3
100
AcDbSymbolTableRecord
100
AcDbRegAppTableRecord
  2
EZDXF
 70
0
  0
ENDTAB
  0
TABLE
  2
DIMSTYLE
  5
4
330
0
100
AcDbSymbolTable
 70
1
100
AcDbDimStyleTable
  0
DIMSTYLE
105
2B
330
4
100
AcDbSymbolTableRecord
100
AcDbDimStyleTableRecord
  2
Standard
 70
0
 40
1.0
 41
2.5
 42
0.625
 43
3.75
 44
1.25
 45
0.0
 46
0.0
 47
0.0
 48
0.0
 49
2.5
140
2.5
141
2.5
142
0.0
143
0.03937007874
144
1.0
145
0.0
146
1.0
147
0.625
148
0.0
 69
0
 70
0
 71
0
 72
0
 73
0
 74
0
 75
0
 76
0
 77
1
 78
8
 79
3
170
0
171
3
172
1
173
0
174
0
175
0
176
0
177
0
178
0
179
2
271
2
272
2
273
2
274
3
275
0
276
0
277
2
278
44
279
0
280
0
281
0
282
0
283
0
284
8
285
0
286
0
288
0
289
3
290
0
371
-2
372
-2
  0
ENDTAB
  0
TABLE
  2
BLOCK_RECORD
  5
9
330
0
100
AcDbSymbolTable
 70
2
  0
BLOCK_RECORD
  5
17
330
9
100
AcDbSymbolTableRecord
100
AcDbBlockTableRecord
  2
*Model_Space
340
1A
 70
0
280
1
281
0
  0
BLOCK_RECORD
  5
1B
330
9
100
AcDbSymbolTableRecord
100
AcDbBlockTableRecord
  2
*Paper_Space
340
1E
 70
0
280
1
281
0
  0
ENDTAB
  0
ENDSEC
  0
SECTION
  2
BLOCKS
  0
BLOCK
  5
18
330
17
100
AcDbEntity
  8
0
100
AcDbBlockBegin
  2
*Model_Space
 70
0
 10
0.0
 20
0.0
 30
0.0
  3
*Model_Space
  1

  0
ENDBLK
  5
19
330
17
100
AcDbEntity
  8
0
100
AcDbBlockEnd
  0
BLOCK
  5
1C
330
1B
100
AcDbEntity
  8
0
100
AcDbBlockBegin
  2
*Paper_Space
 70
0
 10
0.0
 20
0.0
 30
0.0
  3
*Paper_Space
  1

  0
ENDBLK
  5
1D
330
1B
100
AcDbEntity
  8
0
100
AcDbBlockEnd
  0
ENDSEC
  0
SECTION
  2
ENTITIES
  0
LWPOLYLINE
  5
2F
330
17
100
AcDbEntity
  8
0
100
AcDbPolyline
 90
51
 70
0
 10
0.0
 20
-4.0
 10
0.0
 20
-3.92
 10
0.0
 20
-3.84
 10
0.0
 20
-3.76
 10
0.0
 20
-3.6799999999999997
 10
0.0
 20
-3.5999999999999996
 10
0.0
 20
-3.5199999999999996
 10
0.0
 20
-3.4399999999999995
 10
0.0
 20
-3.3599999999999994
 10
0.0
 20
-3.2799999999999994
 10
0.0
 20
-3.1999999999999993
 10
0.0
 20
-3.119999999999999
 10
0.0
 20
-3.039999999999999
 10
0.0
 20
-2.960000000000001
 10
0.0
 20
-2.879999999999999
 10
0.0
 20
-2.8000000000000007
 10
0.0
 20
-2.7200000000000006
 10
0.0
 20
-2.6400000000000006
 10
0.0
 20
-2.5600000000000005
 10
0.0
 20
-2.4800000000000004
 10
0.0
 20
-2.4000000000000004
 10
0.0
 20
-2.3200000000000003
 10
0.0
 20
-2.24
 10
0.0
 20
-2.16
 10
0.0
 20
-2.08
 10
0.0
 20
-2.0
 10
0.0
 20
-1.92
 10
0.0
 20
-1.8399999999999999
 10
0.0
 20
-1.7599999999999998
 10
0.0
 20
-1.6799999999999997
 10
0.0
 20
-1.5999999999999996
 10
0.0
 20
-1.5199999999999996
 10
0.0
 20
-1.4399999999999995
 10
0.0
 20
-1.3599999999999994
 10
0.0
 20
-1.2799999999999994
 10
0.0
 20
-1.1999999999999993
 10
0.0
 20
-1.120000000000001
 10
0.0
 20
-1.0399999999999991
 10
0.0
 20
-0.9600000000000009
 10
0.0
 20
-0.879999999999999
 10
0.0
 20
-0.8000000000000007
 10
0.0
 20
-0.7200000000000006
 10
0.0
 20
-0.6400000000000006
 10
0.0
 20
-0.5600000000000005
 10
0.0
 20
-0.4800000000000004
 10
0.0
 20
-0.40000000000000036
 10
0.0
 20
-0.3200000000000003
 10
0.0
 20
-0.2400000000000002
 10
0.0
 20
-0.16000000000000014
 10
0.0
 20
-0.08000000000000007
 10
0.0
 20
0.0
  0
LWPOLYLINE
  5
30
330
17
100
AcDbEntity
  8
0
100
AcDbPolyline
 90
51
 70
0
 10
28.0
 20
-23.0
 10
28.0
 20
-22.54
 10
28.0
 20
-22.08
 10
28.0
 20
-21.62
 10
28.0
 20
-21.16
 10
28.0
 20
-20.7
 10
28.0
 20
-20.240000000000002
 10
28.0
 20
-19.78
 10
28.0
 20
-19.32
 10
28.0
 20
-18.86
 10
28.0
 20
-18.4
 10
28.0
 20
-17.94
 10
28.0
 20
-17.48
 10
28.0
 20
-17.02
 10
28.0
 20
-16.56
 10
28.0
 20
-16.1
 10
28.0
 20
-15.64
 10
28.0
 20
-15.18
 10
28.0
 20
-14.72
 10
28.0
 20
-14.26
 10
28.0
 20
-13.8
 10
28.0
 20
-13.34
 10
28.0
 20
-12.88
 10
28.0
 20
-12.42
 10
28.0
 20
-11.96
 10
28.0
 20
-11.5
 10
28.0
 20
-11.04
 10
28.0
 20
-10.58
 10
28.0
 20
-10.12
 10
28.0
 20
-9.66
 10
28.0
 20
-9.2
 10
28.0
 20
-8.74
 10
28.0
 20
-8.28
 10
28.0
 20
-7.82
 10
28.0
 20
-7.359999999999999
 10
28.0
 20
-6.899999999999999
 10
28.0
 20
-6.440000000000001
 10
28.0
 20
-5.98
 10
28.0
 20
-5.52
 10
28.0
 20
-5.059999999999999
 10
28.0
 20
-4.600000000000001
 10
28.0
 20
-4.140000000000001
 10
28.0
 20
-3.6799999999999997
 10
28.0
 20
-3.219999999999999
 10
28.0
 20
-2.7600000000000016
 10
28.0
 20
-2.3000000000000007
 10
28.0
 20
-1.8399999999999999
 10
28.0
 20
-1.379999999999999
 10
28.0
 20
-0.9200000000000017
 10
28.0
 20
-0.46000000000000085
 10
28.0
 20
0.0
  0
LWPOLYLINE
  5
31
330
17
100
AcDbEntity
  8
0
100
AcDbPolyline
 90
51
 70
0
 10
0.0
 20
-23.0
 10
0.0
 20
-22.92
 10
0.0
 20
-22.84
 10
0.0
 20
-22.76
 10
0.0
 20
-22.68
 10
0.0
 20
-22.6
 10
0.0
 20
-22.52
 10
0.0
 20
-22.44
 10
0.0
 20
-22.36
 10
0.0
 20
-22.28
 10
0.0
 20
-22.2
 10
0.0
 20
-22.12
 10
0.0
 20
-22.04
 10
0.0
 20
-21.96
 10
0.0
 20
-21.88
 10
0.0
 20
-21.8
 10
0.0
 20
-21.72
 10
0.0
 20
-21.64
 10
0.0
 20
-21.56
 10
0.0
 20
-21.48
 10
0.0
 20
-21.4
 10
0.0
 20
-21.32
 10
0.0
 20
-21.24
 10
0.0
 20
-21.16
 10
0.0
 20
-21.08
 10
0.0
 20
-21.0
 10
0.0
 20
-20.92
 10
0.0
 20
-20.84
 10
0.0
 20
-20.759999999999998
 10
0.0
 20
-20.68
 10
0.0
 20
-20.6
 10
0.0
 20
-20.52
 10
0.0
 20
-20.44
 10
0.0
 20
-20.36
 10
0.0
 20
-20.28
 10
0.0
 20
-20.2
 10
0.0
 20
-20.12
 10
0.0
 20
-20.04
 10
0.0
 20
-19.96
 10
0.0
 20
-19.88
 10
0.0
 20
-19.8
 10
0.0
 20
-19.72
 10
0.0
 20
-19.64
 10
0.0
 20
-19.56
 10
0.0
 20
-19.48
 10
0.0
 20
-19.4
 10
0.0
 20
-19.32
 10
0.0
 20
-19.240000000000002
 10
0.0
 20
-19.16
 10
0.0
 20
-19.08
 10
0.0
 20
-19.0
  0
LWPOLYLINE
  5
32
330
17
100
AcDbEntity
  8
0
100
AcDbPolyline
 90
51
 70
0
 10
16.8038475772934
 20
-23.0
 10
16.56777062574753
 20
-23.0
 10
16.331693674201663
 20
-23.0
 10
16.095616722655794
 20
-23.0
 10
15.859539771109928
 20
-23.0
 10
15.623462819564061
 20
-23.0
 10
15.387385868018193
 20
-23.0
 10
15.151308916472324
 20
-23.0
 10
14.915231964926456
 20
-23.0
 10
14.679155013380587
 20
-23.0
 10
14.44307806183472
 20
-23.0
 10
14.207001110288852
 20
-23.0
 10
13.970924158742983
 20
-23.0
 10
13.734847207197117
 20
-23.0
 10
13.498770255651248
 20
-23.0
 10
13.26269330410538
 20
-23.0
 10
13.026616352559511
 20
-23.0
 10
12.790539401013644
 20
-23.0
 10
12.554462449467776
 20
-23.0
 10
12.31838549792191
 20
-23.0
 10
12.08230854637604
 20
-23.0
 10
11.846231594830172
 20
-23.0
 10
11.610154643284304
 20
-23.0
 10
11.374077691738435
 20
-23.0
 10
11.138000740192567
 20
-23.0
 10
10.9019237886467
 20
-23.0
 10
10.665846837100831
 20
-23.0
 10
10.429769885554965
 20
-23.0
 10
10.193692934009096
 20
-23.0
 10
9.957615982463228
 20
-23.0
 10
9.72153903091736
 20
-23.0
 10
9.485462079371493
 20
-23.0
 10
9.249385127825624
 20
-23.0
 10
9.013308176279756
 20
-23.0
 10
8.777231224733889
 20
-23.0
 10
8.54115427318802
 20
-23.0
 10
8.305077321642152
 20
-23.0
 10
8.069000370096283
 20
-23.0
 10
7.832923418550417
 20
-23.0
 10
7.596846467004548
 20
-23.0
 10
7.360769515458681
 20
-23.0
 10
7.124692563912813
 20
-23.0
 10
6.888615612366944
 20
-23.0
 10
6.652538660821076
 20
-23.0
 10
6.416461709275209
 20
-23.0
 10
6.180384757729339
 20
-23.0
 10
5.944307806183472
 20
-23.0
 10
5.708230854637604
 20
-23.0
 10
5.472153903091735
 20
-23.0
 10
5.236076951545867
 20
-23.0
 10
5.0
 20
-23.0
  0
LWPOLYLINE
  5
33
330
17
100
AcDbEntity
  8
0
100
AcDbPolyline
 90
51
 70
0
 10
16.8038475772934
 20
0.0
 10
16.56777062574753
 20
0.0
 10
16.331693674201663
 20
0.0
 10
16.095616722655794
 20
0.0
 10
15.859539771109928
 20
0.0
 10
15.623462819564061
 20
0.0
 10
15.387385868018193
 20
0.0
 10
15.151308916472324
 20
0.0
 10
14.915231964926456
 20
0.0
 10
14.679155013380587
 20
0.0
 10
14.44307806183472
 20
0.0
 10
14.207001110288852
 20
0.0
 10
13.970924158742983
 20
0.0
 10
13.734847207197117
 20
0.0
 10
13.498770255651248
 20
0.0
 10
13.26269330410538
 20
0.0
 10
13.026616352559511
 20
0.0
 10
12.790539401013644
 20
0.0
 10
12.554462449467776
 20
0.0
 10
12.31838549792191
 20
0.0
 10
12.08230854637604
 20
0.0
 10
11.846231594830172
 20
0.0
 10
11.610154643284304
 20
0.0
 10
11.374077691738435
 20
0.0
 10
11.138000740192567
 20
0.0
 10
10.9019237886467
 20
0.0
 10
10.665846837100831
 20
0.0
 10
10.429769885554965
 20
0.0
 10
10.193692934009096
 20
0.0
 10
9.957615982463228
 20
0.0
 10
9.72153903091736
 20
0.0
 10
9.485462079371493
 20
0.0
 10
9.249385127825624
 20
0.0
 10
9.013308176279756
 20
0.0
 10
8.777231224733889
 20
0.0
 10
8.54115427318802
 20
0.0
 10
8.305077321642152
 20
0.0
 10
8.069000370096283
 20
0.0
 10
7.832923418550417
 20
0.0
 10
7.596846467004548
 20
0.0
 10
7.360769515458681
 20
0.0
 10
7.124692563912813
 20
0.0
 10
6.888615612366944
 20
0.0
 10
6.652538660821076
 20
0.0
 10
6.416461709275209
 20
0.0
 10
6.180384757729339
 20
0.0
 10
5.944307806183472
 20
0.0
 10
5.708230854637604
 20
0.0
 10
5.472153903091735
 20
0.0
 10
5.236076951545867
 20
0.0
 10
5.0
 20
0.0
  0
LWPOLYLINE
  5
34
330
17
100
AcDbEntity
  8
0
100
AcDbPolyline
 90
51
 70
0
 10
14.0
 20
-4.0
 10
13.82
 20
-4.0
 10
13.64
 20
-4.0
 10
13.46
 20
-4.0
 10
13.28
 20
-4.0
 10
13.1
 20
-4.0
 10
12.92
 20
-4.0
 10
12.74
 20
-4.0
 10
12.56
 20
-4.0
 10
12.379999999999999
 20
-4.0
 10
12.2
 20
-4.0
 10
12.02
 20
-4.0
 10
11.84
 20
-4.0
 10
11.66
 20
-4.0
 10
11.48
 20
-4.0
 10
11.3
 20
-4.0
 10
11.120000000000001
 20
-4.0
 10
10.94
 20
-4.0
 10
10.76
 20
-4.0
 10
10.58
 20
-4.0
 10
10.4
 20
-4.0
 10
10.22
 20
-4.0
 10
10.04
 20
-4.0
 10
9.86
 20
-4.0
 10
9.68
 20
-4.0
 10
9.5
 20
-4.0
 10
9.32
 20
-4.0
 10
9.14
 20
-4.0
 10
8.96
 20
-4.0
 10
8.780000000000001
 20
-4.0
 10
8.6
 20
-4.0
 10
8.42
 20
-4.0
 10
8.24
 20
-4.0
 10
8.059999999999999
 20
-4.0
 10
7.88
 20
-4.0
 10
7.7
 20
-4.0
 10
7.52
 20
-4.0
 10
7.34
 20
-4.0
 10
7.16
 20
-4.0
 10
6.98
 20
-4.0
 10
6.8
 20
-4.0
 10
6.62
 20
-4.0
 10
6.44
 20
-4.0
 10
6.26
 20
-4.0
 10
6.08
 20
-4.0
 10
5.9
 20
-4.0
 10
5.720000000000001
 20
-4.0
 10
5.539999999999999
 20
-4.0
 10
5.359999999999999
 20
-4.0
 10
5.18
 20
-4.0
 10
5.0
 20
-4.0
  0
LWPOLYLINE
  5
35
330
17
100
AcDbEntity
  8
0
100
AcDbPolyline
 90
51
 70
0
 10
14.0
 20
-19.0
 10
14.0
 20
-18.7
 10
14.0
 20
-18.4
 10
14.0
 20
-18.1
 10
14.0
 20
-17.8
 10
14.0
 20
-17.5
 10
14.0
 20
-17.2
 10
14.0
 20
-16.9
 10
14.0
 20
-16.6
 10
14.0
 20
-16.3
 10
14.0
 20
-16.0
 10
14.0
 20
-15.7
 10
14.0
 20
-15.4
 10
14.0
 20
-15.1
 10
14.0
 20
-14.8
 10
14.0
 20
-14.5
 10
14.0
 20
-14.2
 10
14.0
 20
-13.9
 10
14.0
 20
-13.6
 10
14.0
 20
-13.3
 10
14.0
 20
-13.0
 10
14.0
 20
-12.7
 10
14.0
 20
-12.4
 10
14.0
 20
-12.1
 10
14.0
 20
-11.8
 10
14.0
 20
-11.5
 10
14.0
 20
-11.2
 10
14.0
 20
-10.9
 10
14.0
 20
-10.6
 10
14.0
 20
-10.3
 10
14.0
 20
-10.0
 10
14.0
 20
-9.7
 10
14.0
 20
-9.4
 10
14.0
 20
-9.1
 10
14.0
 20
-8.8
 10
14.0
 20
-8.5
 10
14.0
 20
-8.2
 10
14.0
 20
-7.9
 10
14.0
 20
-7.6
 10
14.0
 20
-7.300000000000001
 10
14.0
 20
-7.0
 10
14.0
 20
-6.699999999999999
 10
14.0
 20
-6.4
 10
14.0
 20
-6.1
 10
14.0
 20
-5.800000000000001
 10
14.0
 20
-5.5
 10
14.0
 20
-5.199999999999999
 10
14.0
 20
-4.9
 10
14.0
 20
-4.6
 10
14.0
 20
-4.300000000000001
 10
14.0
 20
-4.0
  0
LWPOLYLINE
  5
36
330
17
100
AcDbEntity
  8
0
100
AcDbPolyline
 90
51
 70
0
 10
14.0
 20
-19.0
 10
13.82
 20
-19.0
 10
13.64
 20
-19.0
 10
13.46
 20
-19.0
 10
13.28
 20
-19.0
 10
13.1
 20
-19.0
 10
12.92
 20
-19.0
 10
12.74
 20
-19.0
 10
12.56
 20
-19.0
 10
12.379999999999999
 20
-19.0
 10
12.2
 20
-19.0
 10
12.02
 20
-19.0
 10
11.84
 20
-19.0
 10
11.66
 20
-19.0
 10
11.48
 20
-19.0
 10
11.3
 20
-19.0
 10
11.120000000000001
 20
-19.0
 10
10.94
 20
-19.0
 10
10.76
 20
-19.0
 10
10.58
 20
-19.0
 10
10.4
 20
-19.0
 10
10.22
 20
-19.0
 10
10.04
 20
-19.0
 10
9.86
 20
-19.0
 10
9.68
 20
-19.0
 10
9.5
 20
-19.0
 10
9.32
 20
-19.0
 10
9.14
 20
-19.0
 10
8.96
 20
-19.0
 10
8.780000000000001
 20
-19.0
 10
8.6
 20
-19.0
 10
8.42
 20
-19.0
 10
8.24
 20
-19.0
 10
8.059999999999999
 20
-19.0
 10
7.88
 20
-19.0
 10
7.7
 20
-19.0
 10
7.52
 20
-19.0
 10
7.34
 20
-19.0
 10
7.16
 20
-19.0
 10
6.98
 20
-19.0
 10
6.8
 20
-19.0
 10
6.62
 20
-19.0
 10
6.44
 20
-19.0
 10
6.26
 20
-19.0
 10
6.08
 20
-19.0
 10
5.9
 20
-19.0
 10
5.720000000000001
 20
-19.0
 10
5.539999999999999
 20
-19.0
 10
5.359999999999999
 20
-19.0
 10
5.18
 20
-19.0
 10
5.0
 20
-19.0
  0
LWPOLYLINE
  5
37
330
17
100
AcDbEntity
  8
0
100
AcDbPolyline
 90
51
 70
0
 10
5.0
 20
-4.0
 10
4.843249733455369
 20
-4.0
 10
4.686499466910738
 20
-4.0
 10
4.5297492003661075
 20
-4.0
 10
4.373843744771658
 20
-4.0
 10
4.219064703777448
 20
-4.0
 10
4.064285662783239
 20
-4.0
 10
3.909506621789029
 20
-4.0
 10
3.7580855766198056
 20
-4.0
 10
3.6072241974214116
 20
-4.0
 10
3.4563628182230177
 20
-4.0
 10
3.3071628193592084
 20
-4.0
 10
3.1621162713318607
 20
-4.0
 10
3.017069723304514
 20
-4.0
 10
2.872023175277165
 20
-4.0
 10
2.7324329670144314
 20
-4.0
 10
2.5950252946575425
 20
-4.0
 10
2.4576176223006514
 20
-4.0
 10
2.3215480723546387
 20
-4.0
 10
2.193507256873882
 20
-4.0
 10
2.0654664413931267
 20
-4.0
 10
1.9374256259123717
 20
-4.0
 10
1.8156574072440812
 20
-4.0
 10
1.6985936361851421
 20
-4.0
 10
1.5815298651262015
 20
-4.0
 10
1.4644660940672627
 20
-4.0
 10
1.3598515122731882
 20
-4.0
 10
1.2552369304791122
 20
-4.0
 10
1.1506223486850378
 20
-4.0
 10
1.0519069576036986
 20
-4.0
 10
0.961057154139343
 20
-4.0
 10
0.8702073506749873
 20
-4.0
 10
0.7793575472106304
 20
-4.0
 10
0.7012854014496169
 20
-4.0
 10
0.6253428653058284
 20
-4.0
 10
0.5494003291620397
 20
-4.0
 10
0.47798987552552574
 20
-4.0
 10
0.4179096281571972
 20
-4.0
 10
0.3578293807888695
 20
-4.0
 10
0.297749133420541
 20
-4.0
 10
0.24953876658470583
 20
-4.0
 10
0.20607635196186758
 20
-4.0
 10
0.1626139373390287
 20
-4.0
 10
0.12160357954859788
 20
-4.0
 10
0.09530556275261126
 20
-4.0
 10
0.069007545956625
 20
-4.0
 10
0.04270952916063876
 20
-4.0
 10
0.026408718448381316
 20
-4.0
 10
0.017605812298920914
 20
-4.0
 10
0.008802906149460391
 20
-4.0
 10
0.0
 20
-4.0
  0
LWPOLYLINE
  5
38
330
17
100
AcDbEntity
  8
0
100
AcDbPolyline
 90
51
 70
0
 10
5.0
 20
0.0
 10
4.843249733455369
 20
0.0
 10
4.686499466910738
 20
0.0
 10
4.529749200366107
 20
0.0
 10
4.373843744771657
 20
0.0
 10
4.219064703777447
 20
0.0
 10
4.064285662783239
 20
0.0
 10
3.9095066217890295
 20
0.0
 10
3.7580855766198047
 20
0.0
 10
3.6072241974214108
 20
0.0
 10
3.456362818223017
 20
0.0
 10
3.307162819359208
 20
0.0
 10
3.1621162713318607
 20
0.0
 10
3.017069723304513
 20
0.0
 10
2.8720231752771657
 20
0.0
 10
2.732432967014431
 20
0.0
 10
2.5950252946575407
 20
0.0
 10
2.457617622300651
 20
0.0
 10
2.321548072354638
 20
0.0
 10
2.1935072568738825
 20
0.0
 10
2.0654664413931263
 20
0.0
 10
1.9374256259123706
 20
0.0
 10
1.8156574072440814
 20
0.0
 10
1.698593636185142
 20
0.0
 10
1.581529865126202
 20
0.0
 10
1.4644660940672622
 20
0.0
 10
1.359851512273187
 20
0.0
 10
1.255236930479112
 20
0.0
 10
1.1506223486850367
 20
0.0
 10
1.0519069576036981
 20
0.0
 10
0.9610571541393428
 20
0.0
 10
0.8702073506749868
 20
0.0
 10
0.7793575472106304
 20
0.0
 10
0.7012854014496173
 20
0.0
 10
0.6253428653058279
 20
0.0
 10
0.5494003291620391
 20
0.0
 10
0.47798987552552447
 20
0.0
 10
0.4179096281571966
 20
0.0
 10
0.35782938078886917
 20
0.0
 10
0.2977491334205413
 20
0.0
 10
0.24953876658470583
 20
0.0
 10
0.20607635196186758
 20
0.0
 10
0.1626139373390287
 20
0.0
 10
0.12160357954859788
 20
0.0
 10
0.09530556275261144
 20
0.0
 10
0.069007545956625
 20
0.0
 10
0.04270952916063876
 20
0.0
 10
0.026408718448381316
 20
0.0
 10
0.017605812298920914
 20
0.0
 10
0.008802906149460454
 20
0.0
 10
0.0
 20
0.0
  0
LWPOLYLINE
  5
39
330
17
100
AcDbEntity
  8
0
100
AcDbPolyline
 90
51
 70
0
 10
28.0
 20
0.0
 10
27.983712444109322
 20
0.0
 10
27.967424888218645
 20
0.0
 10
27.951137332327967
 20
0.0
 10
27.92102436346818
 20
0.0
 10
27.872477510649592
 20
0.0
 10
27.823930657831
 20
0.0
 10
27.775383805012407
 20
0.0
 10
27.69999297276438
 20
0.0
 10
27.620128143944775
 20
0.0
 10
27.540263315125173
 20
0.0
 10
27.451892943115862
 20
0.0
 10
27.342258713132274
 20
0.0
 10
27.232624483148687
 20
0.0
 10
27.122990253165096
 20
0.0
 10
26.99361059518035
 20
0.0
 10
26.856332765995145
 20
0.0
 10
26.719054936809936
 20
0.0
 10
26.57820828058154
 20
0.0
 10
26.415948662094006
 20
0.0
 10
26.253689043606467
 20
0.0
 10
26.091429425118935
 20
0.0
 10
25.916692330162665
 20
0.0
 10
25.732597127854845
 20
0.0
 10
25.548501925547026
 20
0.0
 10
25.364406723239206
 20
0.0
 10
25.162045533416812
 20
0.0
 10
24.95968434359441
 20
0.0
 10
24.75732315377201
 20
0.0
 10
24.548815300519557
 20
0.0
 10
24.332111896027033
 20
0.0
 10
24.115408491534506
 20
0.0
 10
23.898705087041982
 20
0.0
 10
23.673309956518292
 20
0.0
 10
23.446466204989413
 20
0.0
 10
23.21962245346053
 20
0.0
 10
22.991138170901362
 20
0.0
 10
22.758552560766457
 20
0.0
 10
22.52596695063156
 20
0.0
 10
22.29338134049666
 20
0.0
 10
22.059915704762588
 20
0.0
 10
21.82609805878886
 20
0.0
 10
21.59228041281512
 20
0.0
 10
21.3589344348469
 20
0.0
 10
21.128418464911746
 20
0.0
 10
20.897902494976588
 20
0.0
 10
20.66738652504143
 20
0.0
 10
20.44131133715826
 20
0.0
 10
20.21856673581408
 20
0.0
 10
19.995822134469897
 20
0.0
 10
19.773077533125715
 20
0.0
  0
LWPOLYLINE
  5
3A
330
17
100
AcDbEntity
  8
0
100
AcDbPolyline
 90
51
 70
0
 10
28.0
 20
-23.0
 10
27.983712444109322
 20
-23.0
 10
27.967424888218645
 20
-23.0
 10
27.951137332327967
 20
-23.0
 10
27.92102436346818
 20
-23.0
 10
27.872477510649592
 20
-23.0
 10
27.823930657831
 20
-23.0
 10
27.775383805012407
 20
-23.0
 10
27.69999297276438
 20
-23.0
 10
27.620128143944775
 20
-23.0
 10
27.540263315125173
 20
-23.0
 10
27.451892943115862
 20
-23.0
 10
27.342258713132274
 20
-23.0
 10
27.232624483148687
 20
-23.0
 10
27.122990253165096
 20
-23.0
 10
26.99361059518035
 20
-23.0
 10
26.856332765995145
 20
-23.0
 10
26.719054936809936
 20
-23.0
 10
26.57820828058154
 20
-23.0
 10
26.415948662094006
 20
-23.0
 10
26.253689043606467
 20
-23.0
 10
26.091429425118935
 20
-23.0
 10
25.916692330162665
 20
-23.0
 10
25.732597127854845
 20
-23.0
 10
25.548501925547026
 20
-23.0
 10
25.364406723239206
 20
-23.0
 10
25.162045533416812
 20
-23.0
 10
24.95968434359441
 20
-23.0
 10
24.75732315377201
 20
-23.0
 10
24.548815300519557
 20
-23.0
 10
24.332111896027033
 20
-23.0
 10
24.115408491534506
 20
-23.0
 10
23.898705087041982
 20
-23.0
 10
23.673309956518292
 20
-23.0
 10
23.446466204989413
 20
-23.0
 10
23.21962245346053
 20
-23.0
 10
22.991138170901362
 20
-23.0
 10
22.758552560766457
 20
-23.0
 10
22.52596695063156
 20
-23.0
 10
22.29338134049666
 20
-23.0
 10
22.059915704762588
 20
-23.0
 10
21.82609805878886
 20
-23.0
 10
21.59228041281512
 20
-23.0
 10
21.3589344348469
 20
-23.0
 10
21.128418464911746
 20
-23.0
 10
20.897902494976588
 20
-23.0
 10
20.66738652504143
 20
-23.0
 10
20.44131133715826
 20
-23.0
 10
20.21856673581408
 20
-23.0
 10
19.995822134469897
 20
-23.0
 10
19.773077533125715
 20
-23.0
  0
LWPOLYLINE
  5
3B
330
17
100
AcDbEntity
  8
0
100
AcDbPolyline
 90
51
 70
0
 10
5.0
 20
-19.0
 10
4.843249733455369
 20
-19.0
 10
4.686499466910738
 20
-19.0
 10
4.5297492003661075
 20
-19.0
 10
4.373843744771658
 20
-19.0
 10
4.219064703777448
 20
-19.0
 10
4.064285662783239
 20
-19.0
 10
3.909506621789029
 20
-19.0
 10
3.7580855766198056
 20
-19.0
 10
3.6072241974214116
 20
-19.0
 10
3.4563628182230177
 20
-19.0
 10
3.3071628193592084
 20
-19.0
 10
3.1621162713318607
 20
-19.0
 10
3.017069723304514
 20
-19.0
 10
2.872023175277165
 20
-19.0
 10
2.7324329670144314
 20
-19.0
 10
2.5950252946575425
 20
-19.0
 10
2.4576176223006514
 20
-19.0
 10
2.3215480723546387
 20
-19.0
 10
2.193507256873882
 20
-19.0
 10
2.0654664413931267
 20
-19.0
 10
1.9374256259123717
 20
-19.0
 10
1.8156574072440812
 20
-19.0
 10
1.6985936361851421
 20
-19.0
 10
1.5815298651262015
 20
-19.0
 10
1.4644660940672627
 20
-19.0
 10
1.3598515122731882
 20
-19.0
 10
1.2552369304791122
 20
-19.0
 10
1.1506223486850378
 20
-19.0
 10
1.0519069576036986
 20
-19.0
 10
0.961057154139343
 20
-19.0
 10
0.8702073506749873
 20
-19.0
 10
0.7793575472106304
 20
-19.0
 10
0.7012854014496169
 20
-19.0
 10
0.6253428653058284
 20
-19.0
 10
0.5494003291620397
 20
-19.0
 10
0.47798987552552574
 20
-19.0
 10
0.4179096281571972
 20
-19.0
 10
0.3578293807888695
 20
-19.0
 10
0.297749133420541
 20
-19.0
 10
0.24953876658470583
 20
-19.0
 10
0.20607635196186758
 20
-19.0
 10
0.1626139373390287
 20
-19.0
 10
0.12160357954859788
 20
-19.0
 10
0.09530556275261126
 20
-19.0
 10
0.069007545956625
 20
-19.0
 10
0.04270952916063876
 20
-19.0
 10
0.026408718448381316
 20
-19.0
 10
0.017605812298920914
 20
-19.0
 10
0.008802906149460391
 20
-19.0
 10
0.0
 20
-19.0
  0
LWPOLYLINE
  5
3C
330
17
100
AcDbEntity
  8
0
100
AcDbPolyline
 90
51
 70
0
 10
5.0
 20
-23.0
 10
4.843249733455369
 20
-23.0
 10
4.686499466910738
 20
-23.0
 10
4.529749200366107
 20
-23.0
 10
4.373843744771657
 20
-23.0
 10
4.219064703777447
 20
-23.0
 10
4.064285662783239
 20
-23.0
 10
3.9095066217890295
 20
-23.0
 10
3.7580855766198047
 20
-23.0
 10
3.6072241974214108
 20
-23.0
 10
3.456362818223017
 20
-23.0
 10
3.307162819359208
 20
-23.0
 10
3.1621162713318607
 20
-23.0
 10
3.017069723304513
 20
-23.0
 10
2.8720231752771657
 20
-23.0
 10
2.732432967014431
 20
-23.0
 10
2.5950252946575407
 20
-23.0
 10
2.457617622300651
 20
-23.0
 10
2.321548072354638
 20
-23.0
 10
2.1935072568738825
 20
-23.0
 10
2.0654664413931263
 20
-23.0
 10
1.9374256259123706
 20
-23.0
 10
1.8156574072440814
 20
-23.0
 10
1.698593636185142
 20
-23.0
 10
1.581529865126202
 20
-23.0
 10
1.4644660940672622
 20
-23.0
 10
1.359851512273187
 20
-23.0
 10
1.255236930479112
 20
-23.0
 10
1.1506223486850367
 20
-23.0
 10
1.0519069576036981
 20
-23.0
 10
0.9610571541393428
 20
-23.0
 10
0.8702073506749868
 20
-23.0
 10
0.7793575472106304
 20
-23.0
 10
0.7012854014496173
 20
-23.0
 10
0.6253428653058279
 20
-23.0
 10
0.5494003291620391
 20
-23.0
 10
0.47798987552552447
 20
-23.0
 10
0.4179096281571966
 20
-23.0
 10
0.35782938078886917
 20
-23.0
 10
0.2977491334205413
 20
-23.0
 10
0.24953876658470583
 20
-23.0
 10
0.20607635196186758
 20
-23.0
 10
0.1626139373390287
 20
-23.0
 10
0.12160357954859788
 20
-23.0
 10
0.09530556275261144
 20
-23.0
 10
0.069007545956625
 20
-23.0
 10
0.04270952916063876
 20
-23.0
 10
0.026408718448381316
 20
-23.0
 10
0.017605812298920914
 20
-23.0
 10
0.008802906149460454
 20
-23.0
 10
0.0
 20
-23.0
  0
LWPOLYLINE
  5
3D
330
17
100
AcDbEntity
  8
0
100
AcDbPolyline
 90
51
 70
0
 10
19.77307753312572
 20
-23.0
 10
19.716283372899863
 20
-23.0
 10
19.65948921267401
 20
-23.0
 10
19.602695052448155
 20
-23.0
 10
19.54565601202874
 20
-23.0
 10
19.488290464684578
 20
-23.0
 10
19.430924917340416
 20
-23.0
 10
19.373559369996254
 20
-23.0
 10
19.315740333536777
 20
-23.0
 10
19.25784571555808
 20
-23.0
 10
19.19995109757938
 20
-23.0
 10
19.14191751849367
 20
-23.0
 10
19.083536536640423
 20
-23.0
 10
19.02515555478718
 20
-23.0
 10
18.966774572933936
 20
-23.0
 10
18.90807694940814
 20
-23.0
 10
18.84925266921333
 20
-23.0
 10
18.79042838901852
 20
-23.0
 10
18.731546979423214
 20
-23.0
 10
18.67232279342493
 20
-23.0
 10
18.61309860742664
 20
-23.0
 10
18.553874421428354
 20
-23.0
 10
18.49444668213328
 20
-23.0
 10
18.434866277865616
 20
-23.0
 10
18.375285873597953
 20
-23.0
 10
18.315705469330286
 20
-23.0
 10
18.25581279709664
 20
-23.0
 10
18.195920124862994
 20
-23.0
 10
18.136027452629346
 20
-23.0
 10
18.076019885832626
 20
-23.0
 10
18.015859126285147
 20
-23.0
 10
17.955698366737668
 20
-23.0
 10
17.89553760719019
 20
-23.0
 10
17.83518509715409
 20
-23.0
 10
17.774800628703215
 20
-23.0
 10
17.71441616025234
 20
-23.0
 10
17.65398050166689
 20
-23.0
 10
17.593416867745006
 20
-23.0
 10
17.53285323382312
 20
-23.0
 10
17.47228959990123
 20
-23.0
 10
17.411629901783087
 20
-23.0
 10
17.350931777986442
 20
-23.0
 10
17.290233654189795
 20
-23.0
 10
17.229522713954548
 20
-23.0
 10
17.168734875087697
 20
-23.0
 10
17.10794703622085
 20
-23.0
 10
17.047159197354
 20
-23.0
 10
16.986345716152236
 20
-23.0
 10
16.925513003199292
 20
-23.0
 10
16.864680290246344
 20
-23.0
 10
16.8038475772934
 20
-23.0
  0
LWPOLYLINE
  5
3E
330
17
100
AcDbEntity
  8
0
100
AcDbPolyline
 90
51
 70
0
 10
16.8038475772934
 20
0.0
 10
16.864680290246344
 20
0.0
 10
16.925513003199285
 20
0.0
 10
16.986345716152236
 20
0.0
 10
17.047159197353995
 20
0.0
 10
17.107947036220846
 20
0.0
 10
17.168734875087694
 20
0.0
 10
17.229522713954548
 20
0.0
 10
17.290233654189795
 20
0.0
 10
17.35093177798644
 20
0.0
 10
17.41162990178308
 20
0.0
 10
17.47228959990123
 20
0.0
 10
17.532853233823115
 20
0.0
 10
17.593416867745
 20
0.0
 10
17.653980501666883
 20
0.0
 10
17.714416160252338
 20
0.0
 10
17.77480062870321
 20
0.0
 10
17.835185097154085
 20
0.0
 10
17.895537607190185
 20
0.0
 10
17.95569836673767
 20
0.0
 10
18.015859126285147
 20
0.0
 10
18.076019885832626
 20
0.0
 10
18.136027452629342
 20
0.0
 10
18.195920124862994
 20
0.0
 10
18.255812797096638
 20
0.0
 10
18.315705469330283
 20
0.0
 10
18.375285873597946
 20
0.0
 10
18.43486627786561
 20
0.0
 10
18.494446682133276
 20
0.0
 10
18.55387442142835
 20
0.0
 10
18.613098607426632
 20
0.0
 10
18.672322793424918
 20
0.0
 10
18.73154697942321
 20
0.0
 10
18.790428389018516
 20
0.0
 10
18.849252669213325
 20
0.0
 10
18.908076949408134
 20
0.0
 10
18.966774572933932
 20
0.0
 10
19.025155554787176
 20
0.0
 10
19.08353653664042
 20
0.0
 10
19.14191751849366
 20
0.0
 10
19.19995109757938
 20
0.0
 10
19.257845715558076
 20
0.0
 10
19.315740333536773
 20
0.0
 10
19.37355936999625
 20
0.0
 10
19.430924917340416
 20
0.0
 10
19.488290464684574
 20
0.0
 10
19.545656012028733
 20
0.0
 10
19.602695052448148
 20
0.0
 10
19.659489212674007
 20
0.0
 10
19.71628337289986
 20
0.0
 10
19.77307753312571
 20
0.0
  0
ENDSEC
  0
SECTION
  2
OBJECTS
  0
DICTIONARY
  5
A
330
0
100
AcDbDictionary
280
0
281
1
  3
ACAD_COLOR
350
B
  3
ACAD_GROUP
350
C
  3
ACAD_LAYOUT
350
D
  3
ACAD_MATERIAL
350
E
  3
ACAD_MLEADERSTYLE
350
F
  3
ACAD_MLINESTYLE
350
10
  3
ACAD_PLOTSETTINGS
350
11
  3
ACAD_PLOTSTYLENAME
350
12
  3
ACAD_SCALELIST
350
14
  3
ACAD_TABLESTYLE
350
15
  3
ACAD_VISUALSTYLE
350
16
  3
EZDXF_META
350
2D
  0
DICTIONARY
  5
B
330
A
100
AcDbDictionary
280
0
281
1
  0
DICTIONARY
  5
C
330
A
100
AcDbDictionary
280
0
281
1
  0
DICTIONARY
  5
D
330
A
100
AcDbDictionary
280
0
281
1
  3
Model
350
1A
  3
Layout1
350
1E
  0
DICTIONARY
  5
E
330
A
100
AcDbDictionary
280
0
281
1
  3
ByBlock
350
1F
  3
ByLayer
350
20
  3
Global
350
21
  0
DICTIONARY
  5
F
330
A
100
AcDbDictionary
280
0
281
1
  3
Standard
350
2C
  0
DICTIONARY
  5
10
330
A
100
AcDbDictionary
280
0
281
1
  3
Standard
350
22
  0
DICTIONARY
  5
11
330
A
100
AcDbDictionary
280
0
281
1
  0
ACDBDICTIONARYWDFLT
  5
12
330
A
100
AcDbDictionary
280
0
281
1
  3
Normal
350
13
100
AcDbDictionaryWithDefault
340
13
  0
ACDBPLACEHOLDER
  5
13
330
12
  0
DICTIONARY
  5
14
330
A
100
AcDbDictionary
280
0
281
1
  0
DICTIONARY
  5
15
330
A
100
AcDbDictionary
280
0
281
1
  0
DICTIONARY
  5
16
330
A
100
AcDbDictionary
280
0
281
1
  0
LAYOUT
  5
1A
330
D
100
AcDbPlotSettings
  1

  2
Adobe PDF
  4
A3
  6

 40
7.5
 41
20.0
 42
7.5
 43
20.0
 44
420.0
 45
297.0
 46
0.0
 47
0.0
 48
0.0
 49
0.0
140
0.0
141
0.0
142
1.0
143
1.0
 70
1024
 72
1
 73
0
 74
5
  7

 75
16
 76
0
 77
2
 78
300
147
1.0
148
0.0
149
0.0
100
AcDbLayout
  1
Model
 70
1
 71
0
 10
0.0
 20
0.0
 11
420.0
 21
297.0
 12
0.0
 22
0.0
 32
0.0
 14
1e+20
 24
1e+20
 34
1e+20
 15
-1e+20
 25
-1e+20
 35
-1e+20
146
0.0
 13
0.0
 23
0.0
 33
0.0
 16
1.0
 26
0.0
 36
0.0
 17
0.0
 27
1.0
 37
0.0
 76
1
330
17
  0
LAYOUT
  5
1E
330
D
100
AcDbPlotSettings
  1

  2
Adobe PDF
  4
A3
  6

 40
7.5
 41
20.0
 42
7.5
 43
20.0
 44
420.0
 45
297.0
 46
0.0
 47
0.0
 48
0.0
 49
0.0
140
0.0
141
0.0
142
1.0
143
1.0
 70
0
 72
1
 73
0
 74
5
  7

 75
16
 76
0
 77
2
 78
300
147
1.0
148
0.0
149
0.0
100
AcDbLayout
  1
Layout1
 70
1
 71
1
 10
0.0
 20
0.0
 11
420.0
 21
297.0
 12
0.0
 22
0.0
 32
0.0
 14
1e+20
 24
1e+20
 34
1e+20
 15
-1e+20
 25
-1e+20
 35
-1e+20
146
0.0
 13
0.0
 23
0.0
 33
0.0
 16
1.0
 26
0.0
 36
0.0
 17
0.0
 27
1.0
 37
0.0
 76
1
330
1B
  0
MATERIAL
  5
1F
102
{ACAD_REACTORS
330
E
102
}
330
E
100
AcDbMaterial
  1
ByBlock
  2

 70
0
 40
1.0
 71
1
 41
1.0
 91
-1023410177
 42
1.0
 72
1
  3

 73
1
 74
1
 75
1
 44
0.5
 73
0
 45
1.0
 46
1.0
 77
1
  4

 78
1
 79
1
170
1
 48
1.0
171
1
  6

172
1
173
1
174
1
140
1.0
141
1.0
175
1
  7

176
1
177
1
178
1
143
1.0
179
1
  8

270
1
271
1
272
1
145
1.0
146
1.0
273
1
  9

274
1
275
1
276
1
 42
1.0
 72
1
  3

 73
1
 74
1
 75
1
 94
63
  0
MATERIAL
  5
20
102
{ACAD_REACTORS
330
E
102
}
330
E
100
AcDbMaterial
  1
ByLayer
  2

 70
0
 40
1.0
 71
1
 41
1.0
 91
-1023410177
 42
1.0
 72
1
  3

 73
1
 74
1
 75
1
 44
0.5
 73
0
 45
1.0
 46
1.0
 77
1
  4

 78
1
 79
1
170
1
 48
1.0
171
1
  6

172
1
173
1
174
1
140
1.0
141
1.0
175
1
  7

176
1
177
1
178
1
143
1.0
179
1
  8

270
1
271
1
272
1
145
1.0
146
1.0
273
1
  9

274
1
275
1
276
1
 42
1.0
 72
1
  3

 73
1
 74
1
 75
1
 94
63
  0
MATERIAL
  5
21
102
{ACAD_REACTORS
330
E
102
}
330
E
100
AcDbMaterial
  1
Global
  2

 70
0
 40
1.0
 71
1
 41
1.0
 91
-1023410177
 42
1.0
 72
1
  3

 73
1
 74
1
 75
1
 44
0.5
 73
0
 45
1.0
 46
1.0
 77
1
  4

 78
1
 79
1
170
1
 48
1.0
171
1
  6

172
1
173
1
174
1
140
1.0
141
1.0
175
1
  7

176
1
177
1
178
1
143
1.0
179
1
  8

270
1
271
1
272
1
145
1.0
146
1.0
273
1
  9

274
1
275
1
276
1
 42
1.0
 72
1
  3

 73
1
 74
1
 75
1
 94
63
  0
MLINESTYLE
  5
22
102
{ACAD_REACTORS
330
10
102
}
330
10
100
AcDbMlineStyle
  2
Standard
 70
0
  3

 62
256
 51
90.0
 52
90.0
 71
2
 49
0.5
 62
256
  6
BYLAYER
 49
-0.5
 62
256
  6
BYLAYER
  0
MLEADERSTYLE
  5
2C
102
{ACAD_REACTORS
330
F
102
}
330
F
100
AcDbMLeaderStyle
179
2
170
2
171
1
172
0
 90
2
 40
0.0
 41
0.0
173
1
 91
-1056964608
 92
-2
290
1
 42
2.0
291
1
 43
8.0
  3
Standard
 44
4.0
300

342
29
174
1
175
1
176
0
178
1
 93
-1056964608
 45
4.0
292
0
297
0
 46
4.0
 94
-1056964608
 47
1.0
 49
1.0
140
1.0
294
1
141
0.0
177
0
142
1.0
295
0
296
0
143
3.75
271
0
272
9
273
9
  0
DICTIONARY
  5
2D
330
A
100
AcDbDictionary
281
1
  3
CREATED_BY_EZDXF
350
2E
  3
WRITTEN_BY_EZDXF
350
41
  0
DICTIONARYVAR
  5
2E
330
2D
100
DictionaryVariables
280
0
  1
1.0.3 @ 2025-05-29T09:39:19.868595+00:00
  0
DICTIONARYVAR
  5
41
330
2D
100
DictionaryVariables
280
0
  1
1.0.3 @ 2025-05-29T09:39:19.871110+00:00
  0
ENDSEC
  0
EOF
