  0
SECTION
  2
HEADER
  9
$ACADVER
  1
AC1027
  9
$ACADMAINTVER
 70
105
  9
$DWGCODEPAGE
  3
ANSI_1252
  9
$LASTSAVEDBY
  1
ezdxf
  9
$REQUIREDVERSIONS
160
0
  9
$INSBASE
 10
0.0
 20
0.0
 30
0.0
  9
$EXTMIN
 10
1e+20
 20
1e+20
 30
1e+20
  9
$EXTMAX
 10
-1e+20
 20
-1e+20
 30
-1e+20
  9
$LIMMIN
 10
0.0
 20
0.0
  9
$LIMMAX
 10
420.0
 20
297.0
  9
$ORTHOMODE
 70
0
  9
$REGENMODE
 70
1
  9
$FILLMODE
 70
1
  9
$QTEXTMODE
 70
0
  9
$MIRRTEXT
 70
1
  9
$LTSCALE
 40
1.0
  9
$ATTMODE
 70
1
  9
$TEXTSIZE
 40
2.5
  9
$TRACEWID
 40
1.0
  9
$TEXTSTYLE
  7
Standard
  9
$CLAYER
  8
0
  9
$CELTYPE
  6
ByLayer
  9
$CECOLOR
 62
256
  9
$CELTSCALE
 40
1.0
  9
$DISPSILH
 70
0
  9
$DIMSCALE
 40
1.0
  9
$DIMASZ
 40
2.5
  9
$DIMEXO
 40
0.625
  9
$DIMDLI
 40
3.75
  9
$DIMRND
 40
0.0
  9
$DIMDLE
 40
0.0
  9
$DIMEXE
 40
1.25
  9
$DIMTP
 40
0.0
  9
$DIMTM
 40
0.0
  9
$DIMTXT
 40
2.5
  9
$DIMCEN
 40
2.5
  9
$DIMTSZ
 40
0.0
  9
$DIMTOL
 70
0
  9
$DIMLIM
 70
0
  9
$DIMTIH
 70
0
  9
$DIMTOH
 70
0
  9
$DIMSE1
 70
0
  9
$DIMSE2
 70
0
  9
$DIMTAD
 70
1
  9
$DIMZIN
 70
8
  9
$DIMBLK
  1

  9
$DIMASO
 70
1
  9
$DIMSHO
 70
1
  9
$DIMPOST
  1

  9
$DIMAPOST
  1

  9
$DIMALT
 70
0
  9
$DIMALTD
 70
3
  9
$DIMALTF
 40
0.03937007874
  9
$DIMLFAC
 40
1.0
  9
$DIMTOFL
 70
1
  9
$DIMTVP
 40
0.0
  9
$DIMTIX
 70
0
  9
$DIMSOXD
 70
0
  9
$DIMSAH
 70
0
  9
$DIMBLK1
  1

  9
$DIMBLK2
  1

  9
$DIMSTYLE
  2
ISO-25
  9
$DIMCLRD
 70
0
  9
$DIMCLRE
 70
0
  9
$DIMCLRT
 70
0
  9
$DIMTFAC
 40
1.0
  9
$DIMGAP
 40
0.625
  9
$DIMJUST
 70
0
  9
$DIMSD1
 70
0
  9
$DIMSD2
 70
0
  9
$DIMTOLJ
 70
0
  9
$DIMTZIN
 70
8
  9
$DIMALTZ
 70
0
  9
$DIMALTTZ
 70
0
  9
$DIMUPT
 70
0
  9
$DIMDEC
 70
2
  9
$DIMTDEC
 70
2
  9
$DIMALTU
 70
2
  9
$DIMALTTD
 70
3
  9
$DIMTXSTY
  7
Standard
  9
$DIMAUNIT
 70
0
  9
$DIMADEC
 70
0
  9
$DIMALTRND
 40
0.0
  9
$DIMAZIN
 70
0
  9
$DIMDSEP
 70
44
  9
$DIMATFIT
 70
3
  9
$DIMFRAC
 70
0
  9
$DIMLDRBLK
  1

  9
$DIMLUNIT
 70
2
  9
$DIMLWD
 70
-2
  9
$DIMLWE
 70
-2
  9
$DIMTMOVE
 70
0
  9
$DIMFXL
 40
1.0
  9
$DIMFXLON
 70
0
  9
$DIMJOGANG
 40
0.785398163397
  9
$DIMTFILL
 70
0
  9
$DIMTFILLCLR
 70
0
  9
$DIMARCSYM
 70
0
  9
$DIMLTYPE
  6

  9
$DIMLTEX1
  6

  9
$DIMLTEX2
  6

  9
$DIMTXTDIRECTION
 70
0
  9
$LUNITS
 70
2
  9
$LUPREC
 70
4
  9
$SKETCHINC
 40
1.0
  9
$FILLETRAD
 40
10.0
  9
$AUNITS
 70
0
  9
$AUPREC
 70
2
  9
$MENU
  1
.
  9
$ELEVATION
 40
0.0
  9
$PELEVATION
 40
0.0
  9
$THICKNESS
 40
0.0
  9
$LIMCHECK
 70
0
  9
$CHAMFERA
 40
0.0
  9
$CHAMFERB
 40
0.0
  9
$CHAMFERC
 40
0.0
  9
$CHAMFERD
 40
0.0
  9
$SKPOLY
 70
0
  9
$TDCREATE
 40
2460825.777025463
  9
$TDUCREATE
 40
2458532.153996898
  9
$TDUPDATE
 40
2460825.777025463
  9
$TDUUPDATE
 40
2458532.1544311
  9
$TDINDWG
 40
0.0
  9
$TDUSRTIMER
 40
0.0
  9
$USRTIMER
 70
1
  9
$ANGBASE
 50
0.0
  9
$ANGDIR
 70
0
  9
$PDMODE
 70
0
  9
$PDSIZE
 40
0.0
  9
$PLINEWID
 40
0.0
  9
$SPLFRAME
 70
0
  9
$SPLINETYPE
 70
6
  9
$SPLINESEGS
 70
8
  9
$HANDSEED
  5
40
  9
$SURFTAB1
 70
6
  9
$SURFTAB2
 70
6
  9
$SURFTYPE
 70
6
  9
$SURFU
 70
6
  9
$SURFV
 70
6
  9
$UCSBASE
  2

  9
$UCSNAME
  2

  9
$UCSORG
 10
0.0
 20
0.0
 30
0.0
  9
$UCSXDIR
 10
1.0
 20
0.0
 30
0.0
  9
$UCSYDIR
 10
0.0
 20
1.0
 30
0.0
  9
$UCSORTHOREF
  2

  9
$UCSORTHOVIEW
 70
0
  9
$UCSORGTOP
 10
0.0
 20
0.0
 30
0.0
  9
$UCSORGBOTTOM
 10
0.0
 20
0.0
 30
0.0
  9
$UCSORGLEFT
 10
0.0
 20
0.0
 30
0.0
  9
$UCSORGRIGHT
 10
0.0
 20
0.0
 30
0.0
  9
$UCSORGFRONT
 10
0.0
 20
0.0
 30
0.0
  9
$UCSORGBACK
 10
0.0
 20
0.0
 30
0.0
  9
$PUCSBASE
  2

  9
$PUCSNAME
  2

  9
$PUCSORG
 10
0.0
 20
0.0
 30
0.0
  9
$PUCSXDIR
 10
1.0
 20
0.0
 30
0.0
  9
$PUCSYDIR
 10
0.0
 20
1.0
 30
0.0
  9
$PUCSORTHOREF
  2

  9
$PUCSORTHOVIEW
 70
0
  9
$PUCSORGTOP
 10
0.0
 20
0.0
 30
0.0
  9
$PUCSORGBOTTOM
 10
0.0
 20
0.0
 30
0.0
  9
$PUCSORGLEFT
 10
0.0
 20
0.0
 30
0.0
  9
$PUCSORGRIGHT
 10
0.0
 20
0.0
 30
0.0
  9
$PUCSORGFRONT
 10
0.0
 20
0.0
 30
0.0
  9
$PUCSORGBACK
 10
0.0
 20
0.0
 30
0.0
  9
$USERI1
 70
0
  9
$USERI2
 70
0
  9
$USERI3
 70
0
  9
$USERI4
 70
0
  9
$USERI5
 70
0
  9
$USERR1
 40
0.0
  9
$USERR2
 40
0.0
  9
$USERR3
 40
0.0
  9
$USERR4
 40
0.0
  9
$USERR5
 40
0.0
  9
$WORLDVIEW
 70
1
  9
$SHADEDGE
 70
3
  9
$SHADEDIF
 70
70
  9
$TILEMODE
 70
1
  9
$MAXACTVP
 70
64
  9
$PINSBASE
 10
0.0
 20
0.0
 30
0.0
  9
$PLIMCHECK
 70
0
  9
$PEXTMIN
 10
1e+20
 20
1e+20
 30
1e+20
  9
$PEXTMAX
 10
-1e+20
 20
-1e+20
 30
-1e+20
  9
$PLIMMIN
 10
0.0
 20
0.0
  9
$PLIMMAX
 10
420.0
 20
297.0
  9
$UNITMODE
 70
0
  9
$VISRETAIN
 70
1
  9
$PLINEGEN
 70
0
  9
$PSLTSCALE
 70
1
  9
$TREEDEPTH
 70
3020
  9
$CMLSTYLE
  2
Standard
  9
$CMLJUST
 70
0
  9
$CMLSCALE
 40
20.0
  9
$PROXYGRAPHICS
 70
1
  9
$MEASUREMENT
 70
1
  9
$CELWEIGHT
370
-1
  9
$ENDCAPS
280
0
  9
$JOINSTYLE
280
0
  9
$LWDISPLAY
290
0
  9
$INSUNITS
 70
6
  9
$HYPERLINKBASE
  1

  9
$STYLESHEET
  1

  9
$XEDIT
290
1
  9
$CEPSNTYPE
380
0
  9
$PSTYLEMODE
290
1
  9
$FINGERPRINTGUID
  2
{E2EB3411-2828-4CDD-8408-CC084C38CC44}
  9
$VERSIONGUID
  2
{0ED3D061-BD3F-4905-B198-15FADCF8D6F2}
  9
$EXTNAMES
290
1
  9
$PSVPSCALE
 40
0.0
  9
$OLESTARTUP
290
0
  9
$SORTENTS
280
127
  9
$INDEXCTL
280
0
  9
$HIDETEXT
280
1
  9
$XCLIPFRAME
280
0
  9
$HALOGAP
280
0
  9
$OBSCOLOR
 70
257
  9
$OBSLTYPE
280
0
  9
$INTERSECTIONDISPLAY
280
0
  9
$INTERSECTIONCOLOR
 70
257
  9
$DIMASSOC
280
2
  9
$PROJECTNAME
  1

  9
$CAMERADISPLAY
290
0
  9
$LENSLENGTH
 40
50.0
  9
$CAMERAHEIGHT
 40
0.0
  9
$STEPSPERSEC
 40
24.0
  9
$STEPSIZE
 40
100.0
  9
$3DDWFPREC
 40
2.0
  9
$PSOLWIDTH
 40
0.005
  9
$PSOLHEIGHT
 40
0.08
  9
$LOFTANG1
 40
1.570796326795
  9
$LOFTANG2
 40
1.570796326795
  9
$LOFTMAG1
 40
0.0
  9
$LOFTMAG2
 40
0.0
  9
$LOFTPARAM
 70
7
  9
$LOFTNORMALS
280
1
  9
$LATITUDE
 40
37.795
  9
$LONGITUDE
 40
-122.394
  9
$NORTHDIRECTION
 40
0.0
  9
$TIMEZONE
 70
-8000
  9
$LIGHTGLYPHDISPLAY
280
1
  9
$TILEMODELIGHTSYNCH
280
1
  9
$CMATERIAL
347
20
  9
$SOLIDHIST
280
0
  9
$SHOWHIST
280
1
  9
$DWFFRAME
280
2
  9
$DGNFRAME
280
2
  9
$REALWORLDSCALE
290
1
  9
$INTERFERECOLOR
 62
256
  9
$CSHADOW
280
0
  9
$SHADOWPLANELOCATION
 40
0.0
  0
ENDSEC
  0
SECTION
  2
CLASSES
  0
CLASS
  1
ACDBDICTIONARYWDFLT
  2
AcDbDictionaryWithDefault
  3
ObjectDBX Classes
 90
0
 91
0
280
0
281
0
  0
CLASS
  1
SUN
  2
AcDbSun
  3
SCENEOE
 90
1153
 91
0
280
0
281
0
  0
CLASS
  1
VISUALSTYLE
  2
AcDbVisualStyle
  3
ObjectDBX Classes
 90
4095
 91
0
280
0
281
0
  0
CLASS
  1
MATERIAL
  2
AcDbMaterial
  3
ObjectDBX Classes
 90
1153
 91
0
280
0
281
0
  0
CLASS
  1
SCALE
  2
AcDbScale
  3
ObjectDBX Classes
 90
1153
 91
0
280
0
281
0
  0
CLASS
  1
TABLESTYLE
  2
AcDbTableStyle
  3
ObjectDBX Classes
 90
4095
 91
0
280
0
281
0
  0
CLASS
  1
MLEADERSTYLE
  2
AcDbMLeaderStyle
  3
ACDB_MLEADERSTYLE_CLASS
 90
4095
 91
0
280
0
281
0
  0
CLASS
  1
DICTIONARYVAR
  2
AcDbDictionaryVar
  3
ObjectDBX Classes
 90
0
 91
0
280
0
281
0
  0
CLASS
  1
CELLSTYLEMAP
  2
AcDbCellStyleMap
  3
ObjectDBX Classes
 90
1152
 91
0
280
0
281
0
  0
CLASS
  1
MENTALRAYRENDERSETTINGS
  2
AcDbMentalRayRenderSettings
  3
SCENEOE
 90
1024
 91
0
280
0
281
0
  0
CLASS
  1
ACDBDETAILVIEWSTYLE
  2
AcDbDetailViewStyle
  3
ObjectDBX Classes
 90
1025
 91
0
280
0
281
0
  0
CLASS
  1
ACDBSECTIONVIEWSTYLE
  2
AcDbSectionViewStyle
  3
ObjectDBX Classes
 90
1025
 91
0
280
0
281
0
  0
CLASS
  1
RASTERVARIABLES
  2
AcDbRasterVariables
  3
ISM
 90
0
 91
0
280
0
281
0
  0
CLASS
  1
LAYOUT
  2
AcDbLayout
  3
ObjectDBX Classes
 90
0
 91
0
280
0
281
0
  0
CLASS
  1
ACDBPLACEHOLDER
  2
AcDbPlaceHolder
  3
ObjectDBX Classes
 90
0
 91
0
280
0
281
0
  0
ENDSEC
  0
SECTION
  2
TABLES
  0
TABLE
  2
VPORT
  5
8
330
0
100
AcDbSymbolTable
 70
1
  0
VPORT
  5
23
330
8
100
AcDbSymbolTableRecord
100
AcDbViewportTableRecord
  2
*Active
 70
0
 10
0.0
 20
0.0
 11
1.0
 21
1.0
 12
0.0
 22
0.0
 13
0.0
 23
0.0
 14
0.5
 24
0.5
 15
0.5
 25
0.5
 16
0.0
 26
0.0
 36
1.0
 17
0.0
 27
0.0
 37
0.0
 40
1000.0
 41
1.34
 42
50.0
 43
0.0
 44
0.0
 50
0.0
 51
0.0
 71
0
 72
1000
 73
1
 74
3
 75
0
 76
0
 77
0
 78
0
281
0
 65
0
146
0.0
  0
ENDTAB
  0
TABLE
  2
LTYPE
  5
2
330
0
100
AcDbSymbolTable
 70
3
  0
LTYPE
  5
24
330
2
100
AcDbSymbolTableRecord
100
AcDbLinetypeTableRecord
  2
ByBlock
 70
0
  3

 72
65
 73
0
 40
0.0
  0
LTYPE
  5
25
330
2
100
AcDbSymbolTableRecord
100
AcDbLinetypeTableRecord
  2
ByLayer
 70
0
  3

 72
65
 73
0
 40
0.0
  0
LTYPE
  5
26
330
2
100
AcDbSymbolTableRecord
100
AcDbLinetypeTableRecord
  2
Continuous
 70
0
  3

 72
65
 73
0
 40
0.0
  0
ENDTAB
  0
TABLE
  2
LAYER
  5
1
330
0
100
AcDbSymbolTable
 70
2
  0
LAYER
  5
27
330
1
100
AcDbSymbolTableRecord
100
AcDbLayerTableRecord
  2
0
 70
0
 62
7
  6
Continuous
370
-3
390
13
347
21
  0
LAYER
  5
28
330
1
100
AcDbSymbolTableRecord
100
AcDbLayerTableRecord
  2
Defpoints
 70
0
 62
7
  6
Continuous
290
0
370
-3
390
13
347
21
  0
ENDTAB
  0
TABLE
  2
STYLE
  5
5
330
0
100
AcDbSymbolTable
 70
1
  0
STYLE
  5
29
330
5
100
AcDbSymbolTableRecord
100
AcDbTextStyleTableRecord
  2
Standard
 70
0
 40
0.0
 41
1.0
 50
0.0
 71
0
 42
2.5
  3
txt
  4

  0
ENDTAB
  0
TABLE
  2
VIEW
  5
7
330
0
100
AcDbSymbolTable
 70
0
  0
ENDTAB
  0
TABLE
  2
UCS
  5
6
330
0
100
AcDbSymbolTable
 70
0
  0
ENDTAB
  0
TABLE
  2
APPID
  5
3
330
0
100
AcDbSymbolTable
 70
3
  0
APPID
  5
2A
330
3
100
AcDbSymbolTableRecord
100
AcDbRegAppTableRecord
  2
ACAD
 70
0
  0
APPID
  5
3D
330
3
100
AcDbSymbolTableRecord
100
AcDbRegAppTableRecord
  2
HATCHBACKGROUNDCOLOR
 70
0
  0
APPID
  5
3E
330
3
100
AcDbSymbolTableRecord
100
AcDbRegAppTableRecord
  2
EZDXF
 70
0
  0
ENDTAB
  0
TABLE
  2
DIMSTYLE
  5
4
330
0
100
AcDbSymbolTable
 70
1
100
AcDbDimStyleTable
  0
DIMSTYLE
105
2B
330
4
100
AcDbSymbolTableRecord
100
AcDbDimStyleTableRecord
  2
Standard
 70
0
 40
1.0
 41
2.5
 42
0.625
 43
3.75
 44
1.25
 45
0.0
 46
0.0
 47
0.0
 48
0.0
 49
2.5
140
2.5
141
2.5
142
0.0
143
0.03937007874
144
1.0
145
0.0
146
1.0
147
0.625
148
0.0
 69
0
 70
0
 71
0
 72
0
 73
0
 74
0
 75
0
 76
0
 77
1
 78
8
 79
3
170
0
171
3
172
1
173
0
174
0
175
0
176
0
177
0
178
0
179
2
271
2
272
2
273
2
274
3
275
0
276
0
277
2
278
44
279
0
280
0
281
0
282
0
283
0
284
8
285
0
286
0
288
0
289
3
290
0
371
-2
372
-2
  0
ENDTAB
  0
TABLE
  2
BLOCK_RECORD
  5
9
330
0
100
AcDbSymbolTable
 70
2
  0
BLOCK_RECORD
  5
17
330
9
100
AcDbSymbolTableRecord
100
AcDbBlockTableRecord
  2
*Model_Space
340
1A
 70
0
280
1
281
0
  0
BLOCK_RECORD
  5
1B
330
9
100
AcDbSymbolTableRecord
100
AcDbBlockTableRecord
  2
*Paper_Space
340
1E
 70
0
280
1
281
0
  0
ENDTAB
  0
ENDSEC
  0
SECTION
  2
BLOCKS
  0
BLOCK
  5
18
330
17
100
AcDbEntity
  8
0
100
AcDbBlockBegin
  2
*Model_Space
 70
0
 10
0.0
 20
0.0
 30
0.0
  3
*Model_Space
  1

  0
ENDBLK
  5
19
330
17
100
AcDbEntity
  8
0
100
AcDbBlockEnd
  0
BLOCK
  5
1C
330
1B
100
AcDbEntity
  8
0
100
AcDbBlockBegin
  2
*Paper_Space
 70
0
 10
0.0
 20
0.0
 30
0.0
  3
*Paper_Space
  1

  0
ENDBLK
  5
1D
330
1B
100
AcDbEntity
  8
0
100
AcDbBlockEnd
  0
ENDSEC
  0
SECTION
  2
ENTITIES
  0
LWPOLYLINE
  5
2F
330
17
100
AcDbEntity
  8
0
100
AcDbPolyline
 90
51
 70
0
 10
-18.8
 20
-5.000000000000011
 10
-18.8
 20
-4.900000000000009
 10
-18.8
 20
-4.800000000000011
 10
-18.8
 20
-4.70000000000001
 10
-18.8
 20
-4.6000000000000085
 10
-18.8
 20
-4.500000000000011
 10
-18.8
 20
-4.400000000000009
 10
-18.8
 20
-4.300000000000008
 10
-18.8
 20
-4.20000000000001
 10
-18.8
 20
-4.1000000000000085
 10
-18.8
 20
-4.000000000000007
 10
-18.8
 20
-3.9000000000000092
 10
-18.8
 20
-3.800000000000008
 10
-18.8
 20
-3.7000000000000064
 10
-18.8
 20
-3.6000000000000085
 10
-18.8
 20
-3.500000000000007
 10
-18.8
 20
-3.4000000000000057
 10
-18.8
 20
-3.300000000000008
 10
-18.8
 20
-3.2000000000000064
 10
-18.8
 20
-3.1000000000000085
 10
-18.8
 20
-3.000000000000007
 10
-18.8
 20
-2.9000000000000057
 10
-18.8
 20
-2.8000000000000043
 10
-18.8
 20
-2.7000000000000064
 10
-18.8
 20
-2.600000000000005
 10
-18.8
 20
-2.500000000000007
 10
-18.8
 20
-2.4000000000000057
 10
-18.8
 20
-2.3000000000000043
 10
-18.8
 20
-2.2000000000000064
 10
-18.8
 20
-2.100000000000005
 10
-18.8
 20
-2.0000000000000036
 10
-18.8
 20
-1.9000000000000057
 10
-18.8
 20
-1.8000000000000043
 10
-18.8
 20
-1.7000000000000028
 10
-18.8
 20
-1.6000000000000014
 10
-18.8
 20
-1.5000000000000036
 10
-18.8
 20
-1.4000000000000021
 10
-18.8
 20
-1.3000000000000043
 10
-18.8
 20
-1.2000000000000028
 10
-18.8
 20
-1.1000000000000014
 10
-18.8
 20
-1.0
 10
-18.8
 20
-0.9000000000000021
 10
-18.8
 20
-0.8000000000000007
 10
-18.8
 20
-0.7000000000000028
 10
-18.8
 20
-0.6000000000000014
 10
-18.8
 20
-0.5
 10
-18.8
 20
-0.40000000000000213
 10
-18.8
 20
-0.3000000000000007
 10
-18.8
 20
-0.1999999999999993
 10
-18.8
 20
-0.10000000000000142
 10
-18.8
 20
0.0
  0
LWPOLYLINE
  5
30
330
17
100
AcDbEntity
  8
0
100
AcDbPolyline
 90
51
 70
0
 10
-4.8
 20
-5.0
 10
-4.8
 20
-4.899999999999999
 10
-4.8
 20
-4.800000000000001
 10
-4.8
 20
-4.699999999999999
 10
-4.8
 20
-4.600000000000001
 10
-4.8
 20
-4.5
 10
-4.8
 20
-4.399999999999999
 10
-4.8
 20
-4.300000000000001
 10
-4.8
 20
-4.199999999999999
 10
-4.8
 20
-4.100000000000001
 10
-4.8
 20
-4.0
 10
-4.8
 20
-3.8999999999999986
 10
-4.8
 20
-3.8000000000000007
 10
-4.8
 20
-3.6999999999999993
 10
-4.8
 20
-3.6000000000000014
 10
-4.8
 20
-3.5
 10
-4.8
 20
-3.3999999999999986
 10
-4.8
 20
-3.3000000000000007
 10
-4.8
 20
-3.1999999999999993
 10
-4.8
 20
-3.1000000000000014
 10
-4.8
 20
-3.0
 10
-4.8
 20
-2.8999999999999986
 10
-4.8
 20
-2.8000000000000007
 10
-4.8
 20
-2.6999999999999993
 10
-4.8
 20
-2.6000000000000014
 10
-4.8
 20
-2.5
 10
-4.8
 20
-2.3999999999999986
 10
-4.8
 20
-2.3000000000000007
 10
-4.8
 20
-2.1999999999999993
 10
-4.8
 20
-2.1000000000000014
 10
-4.8
 20
-2.0
 10
-4.8
 20
-1.8999999999999986
 10
-4.8
 20
-1.8000000000000007
 10
-4.8
 20
-1.6999999999999993
 10
-4.8
 20
-1.6000000000000014
 10
-4.8
 20
-1.5
 10
-4.8
 20
-1.3999999999999986
 10
-4.8
 20
-1.3000000000000007
 10
-4.8
 20
-1.1999999999999993
 10
-4.8
 20
-1.1000000000000014
 10
-4.8
 20
-1.0
 10
-4.8
 20
-0.8999999999999986
 10
-4.8
 20
-0.8000000000000007
 10
-4.8
 20
-0.6999999999999993
 10
-4.8
 20
-0.6000000000000014
 10
-4.8
 20
-0.5
 10
-4.8
 20
-0.3999999999999986
 10
-4.8
 20
-0.3000000000000007
 10
-4.8
 20
-0.1999999999999993
 10
-4.8
 20
-0.10000000000000142
 10
-4.8
 20
0.0
  0
LWPOLYLINE
  5
31
330
17
100
AcDbEntity
  8
0
100
AcDbPolyline
 90
51
 70
0
 10
-18.8
 20
-5.000000000000003
 10
-18.750858707876375
 20
-5.000000000000003
 10
-18.70171741575275
 20
-5.000000000000003
 10
-18.652576123629125
 20
-5.000000000000003
 10
-18.562369788078065
 20
-5.000000000000003
 10
-18.417410061290433
 20
-5.000000000000003
 10
-18.2724503345028
 20
-5.000000000000002
 10
-18.12749060771517
 20
-5.000000000000002
 10
-17.906631267787162
 20
-5.000000000000002
 10
-17.67312199233576
 20
-5.000000000000002
 10
-17.439612716884355
 20
-5.000000000000002
 10
-17.184149036135004
 20
-5.000000000000002
 10
-16.873799342140785
 20
-5.000000000000002
 10
-16.563449648146563
 20
-5.000000000000002
 10
-16.253099954152344
 20
-5.000000000000002
 10
-15.898980125173491
 20
-5.000000000000002
 10
-15.527352242200786
 20
-5.000000000000002
 10
-15.155724359228081
 20
-5.000000000000001
 10
-14.778004588377758
 20
-5.000000000000001
 10
-14.36373349026172
 20
-5.000000000000001
 10
-13.949462392145684
 20
-5.000000000000001
 10
-13.535191294029644
 20
-5.000000000000001
 10
-13.108423091663129
 20
-5.000000000000001
 10
-12.672282061108755
 20
-5.000000000000001
 10
-12.236141030554377
 20
-5.0
 10
-11.8
 20
-5.0
 10
-11.363858969445625
 20
-5.0
 10
-10.927717938891249
 20
-4.999999999999999
 10
-10.491576908336873
 20
-4.999999999999999
 10
-10.064808705970355
 20
-4.999999999999999
 10
-9.65053760785432
 20
-4.999999999999999
 10
-9.23626650973828
 20
-4.999999999999999
 10
-8.821995411622241
 20
-4.999999999999999
 10
-8.444275640771918
 20
-4.999999999999999
 10
-8.072647757799214
 20
-4.999999999999998
 10
-7.701019874826512
 20
-4.999999999999998
 10
-7.34690004584766
 20
-4.999999999999998
 10
-7.036550351853439
 20
-4.999999999999998
 10
-6.72620065785922
 20
-4.999999999999998
 10
-6.415850963864999
 20
-4.999999999999998
 10
-6.160387283115647
 20
-4.999999999999998
 10
-5.9268780076642456
 20
-4.999999999999998
 10
-5.693368732212841
 20
-4.999999999999998
 10
-5.4725093922848345
 20
-4.999999999999998
 10
-5.327549665497202
 20
-4.999999999999998
 10
-5.182589938709568
 20
-4.999999999999997
 10
-5.037630211921936
 20
-4.999999999999997
 10
-4.947423876370878
 20
-4.999999999999997
 10
-4.898282584247252
 20
-4.999999999999997
 10
-4.849141292123626
 20
-4.999999999999997
 10
-4.800000000000001
 20
-4.999999999999997
  0
LWPOLYLINE
  5
32
330
17
100
AcDbEntity
  8
0
100
AcDbPolyline
 90
51
 70
0
 10
-4.800000000000001
 20
0.0
 10
-4.849141292123626
 20
0.0
 10
-4.898282584247252
 20
0.0
 10
-4.947423876370878
 20
0.0
 10
-5.037630211921936
 20
0.0
 10
-5.182589938709567
 20
0.0
 10
-5.327549665497199
 20
0.0
 10
-5.472509392284833
 20
0.0
 10
-5.693368732212839
 20
0.0
 10
-5.926878007664245
 20
0.0
 10
-6.1603872831156465
 20
0.0
 10
-6.415850963864996
 20
0.0
 10
-6.726200657859219
 20
0.0
 10
-7.036550351853437
 20
0.0
 10
-7.3469000458476605
 20
0.0
 10
-7.70101987482651
 20
0.0
 10
-8.072647757799212
 20
0.0
 10
-8.444275640771918
 20
0.0
 10
-8.82199541162224
 20
0.0
 10
-9.23626650973828
 20
0.0
 10
-9.650537607854316
 20
0.0
 10
-10.064808705970352
 20
0.0
 10
-10.491576908336873
 20
0.0
 10
-10.927717938891245
 20
0.0
 10
-11.363858969445626
 20
0.0
 10
-11.799999999999999
 20
0.0
 10
-12.236141030554373
 20
0.0
 10
-12.672282061108753
 20
0.0
 10
-13.108423091663127
 20
0.0
 10
-13.535191294029646
 20
0.0
 10
-13.949462392145682
 20
0.0
 10
-14.363733490261717
 20
0.0
 10
-14.778004588377758
 20
0.0
 10
-15.155724359228085
 20
0.0
 10
-15.527352242200786
 20
0.0
 10
-15.898980125173487
 20
0.0
 10
-16.253099954152336
 20
0.0
 10
-16.56344964814656
 20
0.0
 10
-16.87379934214078
 20
0.0
 10
-17.184149036135004
 20
0.0
 10
-17.439612716884355
 20
0.0
 10
-17.673121992335755
 20
0.0
 10
-17.906631267787162
 20
0.0
 10
-18.127490607715167
 20
0.0
 10
-18.272450334502803
 20
0.0
 10
-18.417410061290433
 20
0.0
 10
-18.562369788078065
 20
0.0
 10
-18.652576123629125
 20
0.0
 10
-18.70171741575275
 20
0.0
 10
-18.750858707876375
 20
0.0
 10
-18.8
 20
0.0
  0
LWPOLYLINE
  5
33
330
17
100
AcDbEntity
  8
0
100
AcDbPolyline
 90
51
 70
0
 10
43.8
 20
-22.0
 10
43.8
 20
-21.56
 10
43.8
 20
-21.12
 10
43.8
 20
-20.68
 10
43.8
 20
-20.24
 10
43.8
 20
-19.8
 10
43.8
 20
-19.36
 10
43.8
 20
-18.92
 10
43.8
 20
-18.48
 10
43.8
 20
-18.04
 10
43.8
 20
-17.6
 10
43.8
 20
-17.16
 10
43.8
 20
-16.72
 10
43.8
 20
-16.28
 10
43.8
 20
-15.84
 10
43.8
 20
-15.4
 10
43.8
 20
-14.96
 10
43.8
 20
-14.52
 10
43.8
 20
-14.08
 10
43.8
 20
-13.64
 10
43.8
 20
-13.2
 10
43.8
 20
-12.76
 10
43.8
 20
-12.32
 10
43.8
 20
-11.88
 10
43.8
 20
-11.44
 10
43.8
 20
-11.0
 10
43.8
 20
-10.56
 10
43.8
 20
-10.12
 10
43.8
 20
-9.68
 10
43.8
 20
-9.24
 10
43.8
 20
-8.8
 10
43.8
 20
-8.36
 10
43.8
 20
-7.92
 10
43.8
 20
-7.48
 10
43.8
 20
-7.039999999999999
 10
43.8
 20
-6.6
 10
43.8
 20
-6.16
 10
43.8
 20
-5.719999999999999
 10
43.8
 20
-5.280000000000001
 10
43.8
 20
-4.84
 10
43.8
 20
-4.399999999999999
 10
43.8
 20
-3.960000000000001
 10
43.8
 20
-3.5199999999999996
 10
43.8
 20
-3.0799999999999983
 10
43.8
 20
-2.6400000000000006
 10
43.8
 20
-2.1999999999999993
 10
43.8
 20
-1.7600000000000016
 10
43.8
 20
-1.3200000000000003
 10
43.8
 20
-0.879999999999999
 10
43.8
 20
-0.4400000000000013
 10
43.8
 20
0.0
  0
LWPOLYLINE
  5
34
330
17
100
AcDbEntity
  8
0
100
AcDbPolyline
 90
51
 70
0
 10
-4.800000000000001
 20
-5.000000000000011
 10
-4.304000000000002
 20
-5.00000000000001
 10
-3.808
 20
-5.00000000000001
 10
-3.312000000000001
 20
-5.00000000000001
 10
-2.8160000000000025
 20
-5.00000000000001
 10
-2.3200000000000003
 20
-5.00000000000001
 10
-1.8240000000000016
 20
-5.000000000000009
 10
-1.3279999999999994
 20
-5.000000000000009
 10
-0.8320000000000007
 20
-5.000000000000009
 10
-0.3359999999999985
 20
-5.000000000000009
 10
0.16000000000000014
 20
-5.000000000000009
 10
0.6559999999999988
 20
-5.000000000000009
 10
1.152000000000001
 20
-5.000000000000008
 10
1.6479999999999997
 20
-5.000000000000008
 10
2.1439999999999984
 20
-5.000000000000008
 10
2.6400000000000006
 20
-5.000000000000008
 10
3.1359999999999992
 20
-5.000000000000008
 10
3.631999999999998
 20
-5.000000000000007
 10
4.128
 20
-5.000000000000007
 10
4.623999999999999
 20
-5.000000000000007
 10
5.119999999999997
 20
-5.000000000000007
 10
5.616
 20
-5.000000000000007
 10
6.112000000000002
 20
-5.000000000000006
 10
6.607999999999997
 20
-5.000000000000006
 10
7.103999999999999
 20
-5.000000000000006
 10
7.600000000000001
 20
-5.000000000000006
 10
8.096
 20
-5.000000000000006
 10
8.591999999999999
 20
-5.000000000000005
 10
9.088
 20
-5.000000000000005
 10
9.584
 20
-5.000000000000005
 10
10.08
 20
-5.000000000000005
 10
10.576
 20
-5.000000000000005
 10
11.072
 20
-5.000000000000004
 10
11.567999999999998
 20
-5.000000000000004
 10
12.064
 20
-5.000000000000004
 10
12.559999999999999
 20
-5.000000000000004
 10
13.056000000000001
 20
-5.000000000000004
 10
13.552
 20
-5.0000000000000036
 10
14.047999999999998
 20
-5.0000000000000036
 10
14.544
 20
-5.0000000000000036
 10
15.04
 20
-5.0000000000000036
 10
15.536000000000001
 20
-5.0000000000000036
 10
16.032000000000004
 20
-5.0000000000000036
 10
16.528000000000002
 20
-5.000000000000003
 10
17.024
 20
-5.000000000000003
 10
17.52
 20
-5.000000000000003
 10
18.016
 20
-5.000000000000003
 10
18.512
 20
-5.000000000000003
 10
19.008000000000003
 20
-5.000000000000002
 10
19.504
 20
-5.000000000000002
 10
20.0
 20
-5.000000000000002
  0
LWPOLYLINE
  5
35
330
17
100
AcDbEntity
  8
0
100
AcDbPolyline
 90
51
 70
0
 10
20.0
 20
-5.0
 10
20.0
 20
-5.239999999999998
 10
20.0
 20
-5.48
 10
20.0
 20
-5.719999999999999
 10
20.0
 20
-5.960000000000001
 10
20.0
 20
-6.199999999999999
 10
20.0
 20
-6.4399999999999995
 10
20.0
 20
-6.68
 10
20.0
 20
-6.92
 10
20.0
 20
-7.16
 10
20.0
 20
-7.4
 10
20.0
 20
-7.640000000000001
 10
20.0
 20
-7.879999999999999
 10
20.0
 20
-8.120000000000001
 10
20.0
 20
-8.36
 10
20.0
 20
-8.6
 10
20.0
 20
-8.84
 10
20.0
 20
-9.08
 10
20.0
 20
-9.32
 10
20.0
 20
-9.559999999999999
 10
20.0
 20
-9.8
 10
20.0
 20
-10.04
 10
20.0
 20
-10.280000000000001
 10
20.0
 20
-10.52
 10
20.0
 20
-10.76
 10
20.0
 20
-11.0
 10
20.0
 20
-11.24
 10
20.0
 20
-11.48
 10
20.0
 20
-11.719999999999999
 10
20.0
 20
-11.96
 10
20.0
 20
-12.2
 10
20.0
 20
-12.440000000000001
 10
20.0
 20
-12.68
 10
20.0
 20
-12.92
 10
20.0
 20
-13.16
 10
20.0
 20
-13.4
 10
20.0
 20
-13.64
 10
20.0
 20
-13.88
 10
20.0
 20
-14.12
 10
20.0
 20
-14.36
 10
20.0
 20
-14.6
 10
20.0
 20
-14.84
 10
20.0
 20
-15.08
 10
20.0
 20
-15.32
 10
20.0
 20
-15.56
 10
20.0
 20
-15.8
 10
20.0
 20
-16.04
 10
20.0
 20
-16.28
 10
20.0
 20
-16.52
 10
20.0
 20
-16.759999999999998
 10
20.0
 20
-17.0
  0
LWPOLYLINE
  5
36
330
17
100
AcDbEntity
  8
0
100
AcDbPolyline
 90
51
 70
0
 10
20.0
 20
-16.999999999999996
 10
19.503999999999998
 20
-16.999999999999996
 10
19.008
 20
-16.999999999999996
 10
18.512
 20
-16.999999999999996
 10
18.016
 20
-16.999999999999996
 10
17.52
 20
-16.999999999999996
 10
17.024
 20
-16.999999999999996
 10
16.528
 20
-16.999999999999996
 10
16.032
 20
-16.999999999999996
 10
15.536
 20
-16.999999999999996
 10
15.04
 20
-16.999999999999996
 10
14.544
 20
-16.999999999999993
 10
14.047999999999998
 20
-16.999999999999993
 10
13.552
 20
-16.999999999999993
 10
13.056000000000001
 20
-16.999999999999993
 10
12.559999999999999
 20
-16.999999999999993
 10
12.064
 20
-16.999999999999993
 10
11.568
 20
-16.999999999999993
 10
11.072
 20
-16.999999999999993
 10
10.576
 20
-16.999999999999993
 10
10.08
 20
-16.999999999999993
 10
9.583999999999998
 20
-16.999999999999993
 10
9.088
 20
-16.999999999999993
 10
8.591999999999999
 20
-16.999999999999993
 10
8.095999999999997
 20
-16.999999999999993
 10
7.600000000000001
 20
-16.99999999999999
 10
7.103999999999999
 20
-16.99999999999999
 10
6.607999999999997
 20
-16.99999999999999
 10
6.112000000000002
 20
-16.99999999999999
 10
5.616
 20
-16.99999999999999
 10
5.119999999999997
 20
-16.99999999999999
 10
4.623999999999999
 20
-16.99999999999999
 10
4.128
 20
-16.99999999999999
 10
3.6320000000000014
 20
-16.99999999999999
 10
3.1359999999999992
 20
-16.99999999999999
 10
2.6400000000000006
 20
-16.99999999999999
 10
2.1439999999999984
 20
-16.99999999999999
 10
1.6479999999999997
 20
-16.99999999999999
 10
1.152000000000001
 20
-16.99999999999999
 10
0.6559999999999988
 20
-16.999999999999986
 10
0.16000000000000014
 20
-16.999999999999986
 10
-0.3360000000000021
 20
-16.999999999999986
 10
-0.8320000000000043
 20
-16.999999999999986
 10
-1.328000000000003
 20
-16.999999999999986
 10
-1.8240000000000016
 20
-16.999999999999986
 10
-2.3200000000000003
 20
-16.999999999999986
 10
-2.815999999999999
 20
-16.999999999999986
 10
-3.312000000000001
 20
-16.999999999999986
 10
-3.8080000000000034
 20
-16.999999999999986
 10
-4.304000000000002
 20
-16.999999999999986
 10
-4.800000000000001
 20
-16.999999999999986
  0
LWPOLYLINE
  5
37
330
17
100
AcDbEntity
  8
0
100
AcDbPolyline
 90
51
 70
0
 10
43.8
 20
-22.0
 10
42.827999999999996
 20
-22.0
 10
41.855999999999995
 20
-22.0
 10
40.884
 20
-22.0
 10
39.912
 20
-22.0
 10
38.94
 20
-22.0
 10
37.967999999999996
 20
-22.0
 10
36.995999999999995
 20
-22.0
 10
36.024
 20
-22.0
 10
35.052
 20
-22.0
 10
34.08
 20
-22.0
 10
33.108
 20
-22.0
 10
32.135999999999996
 20
-22.0
 10
31.163999999999998
 20
-22.0
 10
30.192
 20
-22.0
 10
29.22
 20
-22.0
 10
28.247999999999998
 20
-22.0
 10
27.276
 20
-22.0
 10
26.304
 20
-22.0
 10
25.332
 20
-22.0
 10
24.36
 20
-22.0
 10
23.387999999999998
 20
-22.0
 10
22.416
 20
-22.0
 10
21.444
 20
-22.0
 10
20.472
 20
-22.0
 10
19.5
 20
-22.0
 10
18.528
 20
-22.0
 10
17.556
 20
-22.0
 10
16.584000000000003
 20
-22.0
 10
15.611999999999998
 20
-22.0
 10
14.64
 20
-22.0
 10
13.668
 20
-22.0
 10
12.696000000000002
 20
-22.0
 10
11.724000000000004
 20
-22.0
 10
10.752000000000002
 20
-22.0
 10
9.780000000000001
 20
-22.0
 10
8.808
 20
-22.0
 10
7.8359999999999985
 20
-22.0
 10
6.864000000000004
 20
-22.0
 10
5.892000000000003
 20
-22.0
 10
4.920000000000002
 20
-22.0
 10
3.9480000000000004
 20
-22.0
 10
2.975999999999999
 20
-22.0
 10
2.004000000000005
 20
-22.0
 10
1.0320000000000036
 20
-22.0
 10
0.06000000000000938
 20
-22.0
 10
-0.911999999999999
 20
-22.0
 10
-1.8840000000000003
 20
-22.0
 10
-2.8559999999999945
 20
-22.0
 10
-3.827999999999996
 20
-22.0
 10
-4.799999999999997
 20
-22.0
  0
LWPOLYLINE
  5
38
330
17
100
AcDbEntity
  8
0
100
AcDbPolyline
 90
51
 70
0
 10
43.8
 20
0.0
 10
42.827999999999996
 20
0.0
 10
41.855999999999995
 20
0.0
 10
40.884
 20
0.0
 10
39.912
 20
0.0
 10
38.94
 20
0.0
 10
37.967999999999996
 20
0.0
 10
36.995999999999995
 20
0.0
 10
36.024
 20
0.0
 10
35.052
 20
0.0
 10
34.08
 20
0.0
 10
33.108
 20
0.0
 10
32.135999999999996
 20
0.0
 10
31.163999999999998
 20
0.0
 10
30.192
 20
0.0
 10
29.22
 20
0.0
 10
28.247999999999998
 20
0.0
 10
27.276
 20
0.0
 10
26.304
 20
0.0
 10
25.332
 20
0.0
 10
24.36
 20
0.0
 10
23.387999999999998
 20
0.0
 10
22.416
 20
0.0
 10
21.444
 20
0.0
 10
20.472
 20
0.0
 10
19.5
 20
0.0
 10
18.528
 20
0.0
 10
17.556
 20
0.0
 10
16.584000000000003
 20
0.0
 10
15.611999999999998
 20
0.0
 10
14.64
 20
0.0
 10
13.668
 20
0.0
 10
12.696000000000002
 20
0.0
 10
11.724000000000004
 20
0.0
 10
10.752000000000002
 20
0.0
 10
9.780000000000001
 20
0.0
 10
8.808
 20
0.0
 10
7.8359999999999985
 20
0.0
 10
6.864000000000004
 20
0.0
 10
5.892000000000003
 20
0.0
 10
4.920000000000002
 20
0.0
 10
3.9480000000000004
 20
0.0
 10
2.975999999999999
 20
0.0
 10
2.004000000000005
 20
0.0
 10
1.0320000000000036
 20
0.0
 10
0.06000000000000938
 20
0.0
 10
-0.911999999999999
 20
0.0
 10
-1.8840000000000003
 20
0.0
 10
-2.8559999999999945
 20
0.0
 10
-3.827999999999996
 20
0.0
 10
-4.799999999999997
 20
0.0
  0
LWPOLYLINE
  5
39
330
17
100
AcDbEntity
  8
0
100
AcDbPolyline
 90
51
 70
0
 10
-4.8
 20
-22.0
 10
-4.8
 20
-21.9
 10
-4.8
 20
-21.8
 10
-4.8
 20
-21.7
 10
-4.8
 20
-21.6
 10
-4.8
 20
-21.5
 10
-4.8
 20
-21.4
 10
-4.8
 20
-21.3
 10
-4.8
 20
-21.2
 10
-4.8
 20
-21.1
 10
-4.8
 20
-21.0
 10
-4.8
 20
-20.9
 10
-4.8
 20
-20.8
 10
-4.8
 20
-20.7
 10
-4.8
 20
-20.6
 10
-4.8
 20
-20.5
 10
-4.8
 20
-20.4
 10
-4.8
 20
-20.3
 10
-4.8
 20
-20.2
 10
-4.8
 20
-20.1
 10
-4.8
 20
-20.0
 10
-4.8
 20
-19.9
 10
-4.8
 20
-19.8
 10
-4.8
 20
-19.7
 10
-4.8
 20
-19.6
 10
-4.8
 20
-19.5
 10
-4.8
 20
-19.4
 10
-4.8
 20
-19.3
 10
-4.8
 20
-19.2
 10
-4.8
 20
-19.1
 10
-4.8
 20
-19.0
 10
-4.8
 20
-18.9
 10
-4.8
 20
-18.8
 10
-4.8
 20
-18.7
 10
-4.8
 20
-18.6
 10
-4.8
 20
-18.5
 10
-4.8
 20
-18.4
 10
-4.8
 20
-18.3
 10
-4.8
 20
-18.2
 10
-4.8
 20
-18.1
 10
-4.8
 20
-18.0
 10
-4.8
 20
-17.9
 10
-4.8
 20
-17.8
 10
-4.8
 20
-17.7
 10
-4.8
 20
-17.6
 10
-4.8
 20
-17.5
 10
-4.8
 20
-17.4
 10
-4.8
 20
-17.3
 10
-4.8
 20
-17.2
 10
-4.8
 20
-17.1
 10
-4.8
 20
-17.0
  0
LWPOLYLINE
  5
3A
330
17
100
AcDbEntity
  8
0
100
AcDbPolyline
 90
51
 70
0
 10
-4.800000000000001
 20
-17.000000000000004
 10
-4.849141292123626
 20
-17.000000000000004
 10
-4.898282584247252
 20
-17.000000000000004
 10
-4.947423876370878
 20
-17.000000000000004
 10
-5.037630211921935
 20
-17.000000000000004
 10
-5.182589938709568
 20
-17.000000000000004
 10
-5.327549665497201
 20
-17.000000000000004
 10
-5.472509392284834
 20
-17.000000000000004
 10
-5.693368732212841
 20
-17.000000000000004
 10
-5.926878007664244
 20
-17.000000000000004
 10
-6.1603872831156465
 20
-17.000000000000004
 10
-6.415850963864997
 20
-17.000000000000004
 10
-6.726200657859218
 20
-17.000000000000004
 10
-7.036550351853439
 20
-17.000000000000004
 10
-7.34690004584766
 20
-17.000000000000004
 10
-7.70101987482651
 20
-17.000000000000004
 10
-8.072647757799215
 20
-17.000000000000004
 10
-8.44427564077192
 20
-17.0
 10
-8.821995411622243
 20
-17.0
 10
-9.23626650973828
 20
-17.0
 10
-9.650537607854318
 20
-17.0
 10
-10.064808705970357
 20
-17.0
 10
-10.491576908336873
 20
-17.0
 10
-10.927717938891247
 20
-17.0
 10
-11.363858969445625
 20
-17.0
 10
-11.8
 20
-17.0
 10
-12.236141030554377
 20
-17.0
 10
-12.672282061108753
 20
-17.0
 10
-13.108423091663129
 20
-17.0
 10
-13.535191294029646
 20
-17.0
 10
-13.949462392145682
 20
-17.0
 10
-14.36373349026172
 20
-17.0
 10
-14.77800458837776
 20
-17.0
 10
-15.155724359228083
 20
-17.0
 10
-15.527352242200788
 20
-16.999999999999996
 10
-15.898980125173491
 20
-16.999999999999996
 10
-16.253099954152344
 20
-16.999999999999996
 10
-16.563449648146563
 20
-16.999999999999996
 10
-16.87379934214078
 20
-16.999999999999996
 10
-17.184149036135
 20
-16.999999999999996
 10
-17.439612716884355
 20
-16.999999999999996
 10
-17.673121992335755
 20
-16.999999999999996
 10
-17.906631267787162
 20
-16.999999999999996
 10
-18.127490607715167
 20
-16.999999999999996
 10
-18.2724503345028
 20
-16.999999999999996
 10
-18.417410061290433
 20
-16.999999999999996
 10
-18.562369788078065
 20
-16.999999999999996
 10
-18.652576123629125
 20
-16.999999999999996
 10
-18.70171741575275
 20
-16.999999999999996
 10
-18.750858707876375
 20
-16.999999999999996
 10
-18.8
 20
-16.999999999999996
  0
LWPOLYLINE
  5
3B
330
17
100
AcDbEntity
  8
0
100
AcDbPolyline
 90
51
 70
0
 10
-18.8
 20
-22.0
 10
-18.8
 20
-21.9
 10
-18.8
 20
-21.8
 10
-18.8
 20
-21.7
 10
-18.8
 20
-21.6
 10
-18.8
 20
-21.5
 10
-18.8
 20
-21.4
 10
-18.8
 20
-21.3
 10
-18.8
 20
-21.2
 10
-18.8
 20
-21.1
 10
-18.8
 20
-21.0
 10
-18.8
 20
-20.9
 10
-18.8
 20
-20.8
 10
-18.8
 20
-20.7
 10
-18.8
 20
-20.6
 10
-18.8
 20
-20.5
 10
-18.8
 20
-20.4
 10
-18.8
 20
-20.3
 10
-18.8
 20
-20.2
 10
-18.8
 20
-20.1
 10
-18.8
 20
-20.0
 10
-18.8
 20
-19.9
 10
-18.8
 20
-19.8
 10
-18.8
 20
-19.7
 10
-18.8
 20
-19.6
 10
-18.8
 20
-19.5
 10
-18.8
 20
-19.4
 10
-18.8
 20
-19.3
 10
-18.8
 20
-19.2
 10
-18.8
 20
-19.1
 10
-18.8
 20
-19.0
 10
-18.8
 20
-18.9
 10
-18.8
 20
-18.8
 10
-18.8
 20
-18.7
 10
-18.8
 20
-18.6
 10
-18.8
 20
-18.5
 10
-18.8
 20
-18.4
 10
-18.8
 20
-18.3
 10
-18.8
 20
-18.2
 10
-18.8
 20
-18.1
 10
-18.8
 20
-18.0
 10
-18.8
 20
-17.9
 10
-18.8
 20
-17.8
 10
-18.8
 20
-17.7
 10
-18.8
 20
-17.6
 10
-18.8
 20
-17.5
 10
-18.8
 20
-17.4
 10
-18.8
 20
-17.3
 10
-18.8
 20
-17.2
 10
-18.8
 20
-17.1
 10
-18.8
 20
-17.0
  0
LWPOLYLINE
  5
3C
330
17
100
AcDbEntity
  8
0
100
AcDbPolyline
 90
51
 70
0
 10
-4.800000000000001
 20
-22.0
 10
-4.849141292123626
 20
-22.0
 10
-4.898282584247252
 20
-22.0
 10
-4.947423876370878
 20
-22.0
 10
-5.037630211921936
 20
-22.0
 10
-5.182589938709567
 20
-22.0
 10
-5.327549665497199
 20
-22.0
 10
-5.472509392284833
 20
-22.0
 10
-5.693368732212839
 20
-22.0
 10
-5.926878007664245
 20
-22.0
 10
-6.1603872831156465
 20
-22.0
 10
-6.415850963864996
 20
-22.0
 10
-6.726200657859219
 20
-22.0
 10
-7.036550351853437
 20
-22.0
 10
-7.3469000458476605
 20
-22.0
 10
-7.70101987482651
 20
-22.0
 10
-8.072647757799212
 20
-22.0
 10
-8.444275640771918
 20
-22.0
 10
-8.82199541162224
 20
-22.0
 10
-9.23626650973828
 20
-22.0
 10
-9.650537607854316
 20
-22.0
 10
-10.064808705970352
 20
-22.0
 10
-10.491576908336873
 20
-22.0
 10
-10.927717938891245
 20
-22.0
 10
-11.363858969445626
 20
-22.0
 10
-11.799999999999999
 20
-22.0
 10
-12.236141030554373
 20
-22.0
 10
-12.672282061108753
 20
-22.0
 10
-13.108423091663127
 20
-22.0
 10
-13.535191294029646
 20
-22.0
 10
-13.949462392145682
 20
-22.0
 10
-14.363733490261717
 20
-22.0
 10
-14.778004588377758
 20
-22.0
 10
-15.155724359228085
 20
-22.0
 10
-15.527352242200786
 20
-22.0
 10
-15.898980125173487
 20
-22.0
 10
-16.253099954152336
 20
-22.0
 10
-16.56344964814656
 20
-22.0
 10
-16.87379934214078
 20
-22.0
 10
-17.184149036135004
 20
-22.0
 10
-17.439612716884355
 20
-22.0
 10
-17.673121992335755
 20
-22.0
 10
-17.906631267787162
 20
-22.0
 10
-18.127490607715167
 20
-22.0
 10
-18.272450334502803
 20
-22.0
 10
-18.417410061290433
 20
-22.0
 10
-18.562369788078065
 20
-22.0
 10
-18.652576123629125
 20
-22.0
 10
-18.70171741575275
 20
-22.0
 10
-18.750858707876375
 20
-22.0
 10
-18.8
 20
-22.0
  0
ENDSEC
  0
SECTION
  2
OBJECTS
  0
DICTIONARY
  5
A
330
0
100
AcDbDictionary
280
0
281
1
  3
ACAD_COLOR
350
B
  3
ACAD_GROUP
350
C
  3
ACAD_LAYOUT
350
D
  3
ACAD_MATERIAL
350
E
  3
ACAD_MLEADERSTYLE
350
F
  3
ACAD_MLINESTYLE
350
10
  3
ACAD_PLOTSETTINGS
350
11
  3
ACAD_PLOTSTYLENAME
350
12
  3
ACAD_SCALELIST
350
14
  3
ACAD_TABLESTYLE
350
15
  3
ACAD_VISUALSTYLE
350
16
  3
EZDXF_META
350
2D
  0
DICTIONARY
  5
B
330
A
100
AcDbDictionary
280
0
281
1
  0
DICTIONARY
  5
C
330
A
100
AcDbDictionary
280
0
281
1
  0
DICTIONARY
  5
D
330
A
100
AcDbDictionary
280
0
281
1
  3
Model
350
1A
  3
Layout1
350
1E
  0
DICTIONARY
  5
E
330
A
100
AcDbDictionary
280
0
281
1
  3
ByBlock
350
1F
  3
ByLayer
350
20
  3
Global
350
21
  0
DICTIONARY
  5
F
330
A
100
AcDbDictionary
280
0
281
1
  3
Standard
350
2C
  0
DICTIONARY
  5
10
330
A
100
AcDbDictionary
280
0
281
1
  3
Standard
350
22
  0
DICTIONARY
  5
11
330
A
100
AcDbDictionary
280
0
281
1
  0
ACDBDICTIONARYWDFLT
  5
12
330
A
100
AcDbDictionary
280
0
281
1
  3
Normal
350
13
100
AcDbDictionaryWithDefault
340
13
  0
ACDBPLACEHOLDER
  5
13
330
12
  0
DICTIONARY
  5
14
330
A
100
AcDbDictionary
280
0
281
1
  0
DICTIONARY
  5
15
330
A
100
AcDbDictionary
280
0
281
1
  0
DICTIONARY
  5
16
330
A
100
AcDbDictionary
280
0
281
1
  0
LAYOUT
  5
1A
330
D
100
AcDbPlotSettings
  1

  2
Adobe PDF
  4
A3
  6

 40
7.5
 41
20.0
 42
7.5
 43
20.0
 44
420.0
 45
297.0
 46
0.0
 47
0.0
 48
0.0
 49
0.0
140
0.0
141
0.0
142
1.0
143
1.0
 70
1024
 72
1
 73
0
 74
5
  7

 75
16
 76
0
 77
2
 78
300
147
1.0
148
0.0
149
0.0
100
AcDbLayout
  1
Model
 70
1
 71
0
 10
0.0
 20
0.0
 11
420.0
 21
297.0
 12
0.0
 22
0.0
 32
0.0
 14
1e+20
 24
1e+20
 34
1e+20
 15
-1e+20
 25
-1e+20
 35
-1e+20
146
0.0
 13
0.0
 23
0.0
 33
0.0
 16
1.0
 26
0.0
 36
0.0
 17
0.0
 27
1.0
 37
0.0
 76
1
330
17
  0
LAYOUT
  5
1E
330
D
100
AcDbPlotSettings
  1

  2
Adobe PDF
  4
A3
  6

 40
7.5
 41
20.0
 42
7.5
 43
20.0
 44
420.0
 45
297.0
 46
0.0
 47
0.0
 48
0.0
 49
0.0
140
0.0
141
0.0
142
1.0
143
1.0
 70
0
 72
1
 73
0
 74
5
  7

 75
16
 76
0
 77
2
 78
300
147
1.0
148
0.0
149
0.0
100
AcDbLayout
  1
Layout1
 70
1
 71
1
 10
0.0
 20
0.0
 11
420.0
 21
297.0
 12
0.0
 22
0.0
 32
0.0
 14
1e+20
 24
1e+20
 34
1e+20
 15
-1e+20
 25
-1e+20
 35
-1e+20
146
0.0
 13
0.0
 23
0.0
 33
0.0
 16
1.0
 26
0.0
 36
0.0
 17
0.0
 27
1.0
 37
0.0
 76
1
330
1B
  0
MATERIAL
  5
1F
102
{ACAD_REACTORS
330
E
102
}
330
E
100
AcDbMaterial
  1
ByBlock
  2

 70
0
 40
1.0
 71
1
 41
1.0
 91
-1023410177
 42
1.0
 72
1
  3

 73
1
 74
1
 75
1
 44
0.5
 73
0
 45
1.0
 46
1.0
 77
1
  4

 78
1
 79
1
170
1
 48
1.0
171
1
  6

172
1
173
1
174
1
140
1.0
141
1.0
175
1
  7

176
1
177
1
178
1
143
1.0
179
1
  8

270
1
271
1
272
1
145
1.0
146
1.0
273
1
  9

274
1
275
1
276
1
 42
1.0
 72
1
  3

 73
1
 74
1
 75
1
 94
63
  0
MATERIAL
  5
20
102
{ACAD_REACTORS
330
E
102
}
330
E
100
AcDbMaterial
  1
ByLayer
  2

 70
0
 40
1.0
 71
1
 41
1.0
 91
-1023410177
 42
1.0
 72
1
  3

 73
1
 74
1
 75
1
 44
0.5
 73
0
 45
1.0
 46
1.0
 77
1
  4

 78
1
 79
1
170
1
 48
1.0
171
1
  6

172
1
173
1
174
1
140
1.0
141
1.0
175
1
  7

176
1
177
1
178
1
143
1.0
179
1
  8

270
1
271
1
272
1
145
1.0
146
1.0
273
1
  9

274
1
275
1
276
1
 42
1.0
 72
1
  3

 73
1
 74
1
 75
1
 94
63
  0
MATERIAL
  5
21
102
{ACAD_REACTORS
330
E
102
}
330
E
100
AcDbMaterial
  1
Global
  2

 70
0
 40
1.0
 71
1
 41
1.0
 91
-1023410177
 42
1.0
 72
1
  3

 73
1
 74
1
 75
1
 44
0.5
 73
0
 45
1.0
 46
1.0
 77
1
  4

 78
1
 79
1
170
1
 48
1.0
171
1
  6

172
1
173
1
174
1
140
1.0
141
1.0
175
1
  7

176
1
177
1
178
1
143
1.0
179
1
  8

270
1
271
1
272
1
145
1.0
146
1.0
273
1
  9

274
1
275
1
276
1
 42
1.0
 72
1
  3

 73
1
 74
1
 75
1
 94
63
  0
MLINESTYLE
  5
22
102
{ACAD_REACTORS
330
10
102
}
330
10
100
AcDbMlineStyle
  2
Standard
 70
0
  3

 62
256
 51
90.0
 52
90.0
 71
2
 49
0.5
 62
256
  6
BYLAYER
 49
-0.5
 62
256
  6
BYLAYER
  0
MLEADERSTYLE
  5
2C
102
{ACAD_REACTORS
330
F
102
}
330
F
100
AcDbMLeaderStyle
179
2
170
2
171
1
172
0
 90
2
 40
0.0
 41
0.0
173
1
 91
-1056964608
 92
-2
290
1
 42
2.0
291
1
 43
8.0
  3
Standard
 44
4.0
300

342
29
174
1
175
1
176
0
178
1
 93
-1056964608
 45
4.0
292
0
297
0
 46
4.0
 94
-1056964608
 47
1.0
 49
1.0
140
1.0
294
1
141
0.0
177
0
142
1.0
295
0
296
0
143
3.75
271
0
272
9
273
9
  0
DICTIONARY
  5
2D
330
A
100
AcDbDictionary
281
1
  3
CREATED_BY_EZDXF
350
2E
  3
WRITTEN_BY_EZDXF
350
3F
  0
DICTIONARYVAR
  5
2E
330
2D
100
DictionaryVariables
280
0
  1
1.0.3 @ 2025-05-29T09:38:55.226145+00:00
  0
DICTIONARYVAR
  5
3F
330
2D
100
DictionaryVariables
280
0
  1
1.0.3 @ 2025-05-29T09:38:55.229658+00:00
  0
ENDSEC
  0
EOF
