  0
SECTION
  2
HEADER
  9
$ACADVER
  1
AC1027
  9
$ACADMAINTVER
 70
105
  9
$DWGCODEPAGE
  3
ANSI_1252
  9
$LASTSAVEDBY
  1
ezdxf
  9
$REQUIREDVERSIONS
160
0
  9
$INSBASE
 10
0.0
 20
0.0
 30
0.0
  9
$EXTMIN
 10
1e+20
 20
1e+20
 30
1e+20
  9
$EXTMAX
 10
-1e+20
 20
-1e+20
 30
-1e+20
  9
$LIMMIN
 10
0.0
 20
0.0
  9
$LIMMAX
 10
420.0
 20
297.0
  9
$ORTHOMODE
 70
0
  9
$REGENMODE
 70
1
  9
$FILLMODE
 70
1
  9
$QTEXTMODE
 70
0
  9
$MIRRTEXT
 70
1
  9
$LTSCALE
 40
1.0
  9
$ATTMODE
 70
1
  9
$TEXTSIZE
 40
2.5
  9
$TRACEWID
 40
1.0
  9
$TEXTSTYLE
  7
Standard
  9
$CLAYER
  8
0
  9
$CELTYPE
  6
ByLayer
  9
$CECOLOR
 62
256
  9
$CELTSCALE
 40
1.0
  9
$DISPSILH
 70
0
  9
$DIMSCALE
 40
1.0
  9
$DIMASZ
 40
2.5
  9
$DIMEXO
 40
0.625
  9
$DIMDLI
 40
3.75
  9
$DIMRND
 40
0.0
  9
$DIMDLE
 40
0.0
  9
$DIMEXE
 40
1.25
  9
$DIMTP
 40
0.0
  9
$DIMTM
 40
0.0
  9
$DIMTXT
 40
2.5
  9
$DIMCEN
 40
2.5
  9
$DIMTSZ
 40
0.0
  9
$DIMTOL
 70
0
  9
$DIMLIM
 70
0
  9
$DIMTIH
 70
0
  9
$DIMTOH
 70
0
  9
$DIMSE1
 70
0
  9
$DIMSE2
 70
0
  9
$DIMTAD
 70
1
  9
$DIMZIN
 70
8
  9
$DIMBLK
  1

  9
$DIMASO
 70
1
  9
$DIMSHO
 70
1
  9
$DIMPOST
  1

  9
$DIMAPOST
  1

  9
$DIMALT
 70
0
  9
$DIMALTD
 70
3
  9
$DIMALTF
 40
0.03937007874
  9
$DIMLFAC
 40
1.0
  9
$DIMTOFL
 70
1
  9
$DIMTVP
 40
0.0
  9
$DIMTIX
 70
0
  9
$DIMSOXD
 70
0
  9
$DIMSAH
 70
0
  9
$DIMBLK1
  1

  9
$DIMBLK2
  1

  9
$DIMSTYLE
  2
ISO-25
  9
$DIMCLRD
 70
0
  9
$DIMCLRE
 70
0
  9
$DIMCLRT
 70
0
  9
$DIMTFAC
 40
1.0
  9
$DIMGAP
 40
0.625
  9
$DIMJUST
 70
0
  9
$DIMSD1
 70
0
  9
$DIMSD2
 70
0
  9
$DIMTOLJ
 70
0
  9
$DIMTZIN
 70
8
  9
$DIMALTZ
 70
0
  9
$DIMALTTZ
 70
0
  9
$DIMUPT
 70
0
  9
$DIMDEC
 70
2
  9
$DIMTDEC
 70
2
  9
$DIMALTU
 70
2
  9
$DIMALTTD
 70
3
  9
$DIMTXSTY
  7
Standard
  9
$DIMAUNIT
 70
0
  9
$DIMADEC
 70
0
  9
$DIMALTRND
 40
0.0
  9
$DIMAZIN
 70
0
  9
$DIMDSEP
 70
44
  9
$DIMATFIT
 70
3
  9
$DIMFRAC
 70
0
  9
$DIMLDRBLK
  1

  9
$DIMLUNIT
 70
2
  9
$DIMLWD
 70
-2
  9
$DIMLWE
 70
-2
  9
$DIMTMOVE
 70
0
  9
$DIMFXL
 40
1.0
  9
$DIMFXLON
 70
0
  9
$DIMJOGANG
 40
0.785398163397
  9
$DIMTFILL
 70
0
  9
$DIMTFILLCLR
 70
0
  9
$DIMARCSYM
 70
0
  9
$DIMLTYPE
  6

  9
$DIMLTEX1
  6

  9
$DIMLTEX2
  6

  9
$DIMTXTDIRECTION
 70
0
  9
$LUNITS
 70
2
  9
$LUPREC
 70
4
  9
$SKETCHINC
 40
1.0
  9
$FILLETRAD
 40
10.0
  9
$AUNITS
 70
0
  9
$AUPREC
 70
2
  9
$MENU
  1
.
  9
$ELEVATION
 40
0.0
  9
$PELEVATION
 40
0.0
  9
$THICKNESS
 40
0.0
  9
$LIMCHECK
 70
0
  9
$CHAMFERA
 40
0.0
  9
$CHAMFERB
 40
0.0
  9
$CHAMFERC
 40
0.0
  9
$CHAMFERD
 40
0.0
  9
$SKPOLY
 70
0
  9
$TDCREATE
 40
2460825.7769675925
  9
$TDUCREATE
 40
2458532.153996898
  9
$TDUPDATE
 40
2460825.7769675925
  9
$TDUUPDATE
 40
2458532.1544311
  9
$TDINDWG
 40
0.0
  9
$TDUSRTIMER
 40
0.0
  9
$USRTIMER
 70
1
  9
$ANGBASE
 50
0.0
  9
$ANGDIR
 70
0
  9
$PDMODE
 70
0
  9
$PDSIZE
 40
0.0
  9
$PLINEWID
 40
0.0
  9
$SPLFRAME
 70
0
  9
$SPLINETYPE
 70
6
  9
$SPLINESEGS
 70
8
  9
$HANDSEED
  5
3B
  9
$SURFTAB1
 70
6
  9
$SURFTAB2
 70
6
  9
$SURFTYPE
 70
6
  9
$SURFU
 70
6
  9
$SURFV
 70
6
  9
$UCSBASE
  2

  9
$UCSNAME
  2

  9
$UCSORG
 10
0.0
 20
0.0
 30
0.0
  9
$UCSXDIR
 10
1.0
 20
0.0
 30
0.0
  9
$UCSYDIR
 10
0.0
 20
1.0
 30
0.0
  9
$UCSORTHOREF
  2

  9
$UCSORTHOVIEW
 70
0
  9
$UCSORGTOP
 10
0.0
 20
0.0
 30
0.0
  9
$UCSORGBOTTOM
 10
0.0
 20
0.0
 30
0.0
  9
$UCSORGLEFT
 10
0.0
 20
0.0
 30
0.0
  9
$UCSORGRIGHT
 10
0.0
 20
0.0
 30
0.0
  9
$UCSORGFRONT
 10
0.0
 20
0.0
 30
0.0
  9
$UCSORGBACK
 10
0.0
 20
0.0
 30
0.0
  9
$PUCSBASE
  2

  9
$PUCSNAME
  2

  9
$PUCSORG
 10
0.0
 20
0.0
 30
0.0
  9
$PUCSXDIR
 10
1.0
 20
0.0
 30
0.0
  9
$PUCSYDIR
 10
0.0
 20
1.0
 30
0.0
  9
$PUCSORTHOREF
  2

  9
$PUCSORTHOVIEW
 70
0
  9
$PUCSORGTOP
 10
0.0
 20
0.0
 30
0.0
  9
$PUCSORGBOTTOM
 10
0.0
 20
0.0
 30
0.0
  9
$PUCSORGLEFT
 10
0.0
 20
0.0
 30
0.0
  9
$PUCSORGRIGHT
 10
0.0
 20
0.0
 30
0.0
  9
$PUCSORGFRONT
 10
0.0
 20
0.0
 30
0.0
  9
$PUCSORGBACK
 10
0.0
 20
0.0
 30
0.0
  9
$USERI1
 70
0
  9
$USERI2
 70
0
  9
$USERI3
 70
0
  9
$USERI4
 70
0
  9
$USERI5
 70
0
  9
$USERR1
 40
0.0
  9
$USERR2
 40
0.0
  9
$USERR3
 40
0.0
  9
$USERR4
 40
0.0
  9
$USERR5
 40
0.0
  9
$WORLDVIEW
 70
1
  9
$SHADEDGE
 70
3
  9
$SHADEDIF
 70
70
  9
$TILEMODE
 70
1
  9
$MAXACTVP
 70
64
  9
$PINSBASE
 10
0.0
 20
0.0
 30
0.0
  9
$PLIMCHECK
 70
0
  9
$PEXTMIN
 10
1e+20
 20
1e+20
 30
1e+20
  9
$PEXTMAX
 10
-1e+20
 20
-1e+20
 30
-1e+20
  9
$PLIMMIN
 10
0.0
 20
0.0
  9
$PLIMMAX
 10
420.0
 20
297.0
  9
$UNITMODE
 70
0
  9
$VISRETAIN
 70
1
  9
$PLINEGEN
 70
0
  9
$PSLTSCALE
 70
1
  9
$TREEDEPTH
 70
3020
  9
$CMLSTYLE
  2
Standard
  9
$CMLJUST
 70
0
  9
$CMLSCALE
 40
20.0
  9
$PROXYGRAPHICS
 70
1
  9
$MEASUREMENT
 70
1
  9
$CELWEIGHT
370
-1
  9
$ENDCAPS
280
0
  9
$JOINSTYLE
280
0
  9
$LWDISPLAY
290
0
  9
$INSUNITS
 70
6
  9
$HYPERLINKBASE
  1

  9
$STYLESHEET
  1

  9
$XEDIT
290
1
  9
$CEPSNTYPE
380
0
  9
$PSTYLEMODE
290
1
  9
$FINGERPRINTGUID
  2
{55B10B5E-0AD0-4586-84C3-6A332BA1BEA0}
  9
$VERSIONGUID
  2
{C6C64303-34AE-4B22-95AD-801C3E5EB2C6}
  9
$EXTNAMES
290
1
  9
$PSVPSCALE
 40
0.0
  9
$OLESTARTUP
290
0
  9
$SORTENTS
280
127
  9
$INDEXCTL
280
0
  9
$HIDETEXT
280
1
  9
$XCLIPFRAME
280
0
  9
$HALOGAP
280
0
  9
$OBSCOLOR
 70
257
  9
$OBSLTYPE
280
0
  9
$INTERSECTIONDISPLAY
280
0
  9
$INTERSECTIONCOLOR
 70
257
  9
$DIMASSOC
280
2
  9
$PROJECTNAME
  1

  9
$CAMERADISPLAY
290
0
  9
$LENSLENGTH
 40
50.0
  9
$CAMERAHEIGHT
 40
0.0
  9
$STEPSPERSEC
 40
24.0
  9
$STEPSIZE
 40
100.0
  9
$3DDWFPREC
 40
2.0
  9
$PSOLWIDTH
 40
0.005
  9
$PSOLHEIGHT
 40
0.08
  9
$LOFTANG1
 40
1.570796326795
  9
$LOFTANG2
 40
1.570796326795
  9
$LOFTMAG1
 40
0.0
  9
$LOFTMAG2
 40
0.0
  9
$LOFTPARAM
 70
7
  9
$LOFTNORMALS
280
1
  9
$LATITUDE
 40
37.795
  9
$LONGITUDE
 40
-122.394
  9
$NORTHDIRECTION
 40
0.0
  9
$TIMEZONE
 70
-8000
  9
$LIGHTGLYPHDISPLAY
280
1
  9
$TILEMODELIGHTSYNCH
280
1
  9
$CMATERIAL
347
20
  9
$SOLIDHIST
280
0
  9
$SHOWHIST
280
1
  9
$DWFFRAME
280
2
  9
$DGNFRAME
280
2
  9
$REALWORLDSCALE
290
1
  9
$INTERFERECOLOR
 62
256
  9
$CSHADOW
280
0
  9
$SHADOWPLANELOCATION
 40
0.0
  0
ENDSEC
  0
SECTION
  2
CLASSES
  0
CLASS
  1
ACDBDICTIONARYWDFLT
  2
AcDbDictionaryWithDefault
  3
ObjectDBX Classes
 90
0
 91
0
280
0
281
0
  0
CLASS
  1
SUN
  2
AcDbSun
  3
SCENEOE
 90
1153
 91
0
280
0
281
0
  0
CLASS
  1
VISUALSTYLE
  2
AcDbVisualStyle
  3
ObjectDBX Classes
 90
4095
 91
0
280
0
281
0
  0
CLASS
  1
MATERIAL
  2
AcDbMaterial
  3
ObjectDBX Classes
 90
1153
 91
0
280
0
281
0
  0
CLASS
  1
SCALE
  2
AcDbScale
  3
ObjectDBX Classes
 90
1153
 91
0
280
0
281
0
  0
CLASS
  1
TABLESTYLE
  2
AcDbTableStyle
  3
ObjectDBX Classes
 90
4095
 91
0
280
0
281
0
  0
CLASS
  1
MLEADERSTYLE
  2
AcDbMLeaderStyle
  3
ACDB_MLEADERSTYLE_CLASS
 90
4095
 91
0
280
0
281
0
  0
CLASS
  1
DICTIONARYVAR
  2
AcDbDictionaryVar
  3
ObjectDBX Classes
 90
0
 91
0
280
0
281
0
  0
CLASS
  1
CELLSTYLEMAP
  2
AcDbCellStyleMap
  3
ObjectDBX Classes
 90
1152
 91
0
280
0
281
0
  0
CLASS
  1
MENTALRAYRENDERSETTINGS
  2
AcDbMentalRayRenderSettings
  3
SCENEOE
 90
1024
 91
0
280
0
281
0
  0
CLASS
  1
ACDBDETAILVIEWSTYLE
  2
AcDbDetailViewStyle
  3
ObjectDBX Classes
 90
1025
 91
0
280
0
281
0
  0
CLASS
  1
ACDBSECTIONVIEWSTYLE
  2
AcDbSectionViewStyle
  3
ObjectDBX Classes
 90
1025
 91
0
280
0
281
0
  0
CLASS
  1
RASTERVARIABLES
  2
AcDbRasterVariables
  3
ISM
 90
0
 91
0
280
0
281
0
  0
CLASS
  1
LAYOUT
  2
AcDbLayout
  3
ObjectDBX Classes
 90
0
 91
0
280
0
281
0
  0
CLASS
  1
ACDBPLACEHOLDER
  2
AcDbPlaceHolder
  3
ObjectDBX Classes
 90
0
 91
0
280
0
281
0
  0
ENDSEC
  0
SECTION
  2
TABLES
  0
TABLE
  2
VPORT
  5
8
330
0
100
AcDbSymbolTable
 70
1
  0
VPORT
  5
23
330
8
100
AcDbSymbolTableRecord
100
AcDbViewportTableRecord
  2
*Active
 70
0
 10
0.0
 20
0.0
 11
1.0
 21
1.0
 12
0.0
 22
0.0
 13
0.0
 23
0.0
 14
0.5
 24
0.5
 15
0.5
 25
0.5
 16
0.0
 26
0.0
 36
1.0
 17
0.0
 27
0.0
 37
0.0
 40
1000.0
 41
1.34
 42
50.0
 43
0.0
 44
0.0
 50
0.0
 51
0.0
 71
0
 72
1000
 73
1
 74
3
 75
0
 76
0
 77
0
 78
0
281
0
 65
0
146
0.0
  0
ENDTAB
  0
TABLE
  2
LTYPE
  5
2
330
0
100
AcDbSymbolTable
 70
3
  0
LTYPE
  5
24
330
2
100
AcDbSymbolTableRecord
100
AcDbLinetypeTableRecord
  2
ByBlock
 70
0
  3

 72
65
 73
0
 40
0.0
  0
LTYPE
  5
25
330
2
100
AcDbSymbolTableRecord
100
AcDbLinetypeTableRecord
  2
ByLayer
 70
0
  3

 72
65
 73
0
 40
0.0
  0
LTYPE
  5
26
330
2
100
AcDbSymbolTableRecord
100
AcDbLinetypeTableRecord
  2
Continuous
 70
0
  3

 72
65
 73
0
 40
0.0
  0
ENDTAB
  0
TABLE
  2
LAYER
  5
1
330
0
100
AcDbSymbolTable
 70
2
  0
LAYER
  5
27
330
1
100
AcDbSymbolTableRecord
100
AcDbLayerTableRecord
  2
0
 70
0
 62
7
  6
Continuous
370
-3
390
13
347
21
  0
LAYER
  5
28
330
1
100
AcDbSymbolTableRecord
100
AcDbLayerTableRecord
  2
Defpoints
 70
0
 62
7
  6
Continuous
290
0
370
-3
390
13
347
21
  0
ENDTAB
  0
TABLE
  2
STYLE
  5
5
330
0
100
AcDbSymbolTable
 70
1
  0
STYLE
  5
29
330
5
100
AcDbSymbolTableRecord
100
AcDbTextStyleTableRecord
  2
Standard
 70
0
 40
0.0
 41
1.0
 50
0.0
 71
0
 42
2.5
  3
txt
  4

  0
ENDTAB
  0
TABLE
  2
VIEW
  5
7
330
0
100
AcDbSymbolTable
 70
0
  0
ENDTAB
  0
TABLE
  2
UCS
  5
6
330
0
100
AcDbSymbolTable
 70
0
  0
ENDTAB
  0
TABLE
  2
APPID
  5
3
330
0
100
AcDbSymbolTable
 70
3
  0
APPID
  5
2A
330
3
100
AcDbSymbolTableRecord
100
AcDbRegAppTableRecord
  2
ACAD
 70
0
  0
APPID
  5
38
330
3
100
AcDbSymbolTableRecord
100
AcDbRegAppTableRecord
  2
HATCHBACKGROUNDCOLOR
 70
0
  0
APPID
  5
39
330
3
100
AcDbSymbolTableRecord
100
AcDbRegAppTableRecord
  2
EZDXF
 70
0
  0
ENDTAB
  0
TABLE
  2
DIMSTYLE
  5
4
330
0
100
AcDbSymbolTable
 70
1
100
AcDbDimStyleTable
  0
DIMSTYLE
105
2B
330
4
100
AcDbSymbolTableRecord
100
AcDbDimStyleTableRecord
  2
Standard
 70
0
 40
1.0
 41
2.5
 42
0.625
 43
3.75
 44
1.25
 45
0.0
 46
0.0
 47
0.0
 48
0.0
 49
2.5
140
2.5
141
2.5
142
0.0
143
0.03937007874
144
1.0
145
0.0
146
1.0
147
0.625
148
0.0
 69
0
 70
0
 71
0
 72
0
 73
0
 74
0
 75
0
 76
0
 77
1
 78
8
 79
3
170
0
171
3
172
1
173
0
174
0
175
0
176
0
177
0
178
0
179
2
271
2
272
2
273
2
274
3
275
0
276
0
277
2
278
44
279
0
280
0
281
0
282
0
283
0
284
8
285
0
286
0
288
0
289
3
290
0
371
-2
372
-2
  0
ENDTAB
  0
TABLE
  2
BLOCK_RECORD
  5
9
330
0
100
AcDbSymbolTable
 70
2
  0
BLOCK_RECORD
  5
17
330
9
100
AcDbSymbolTableRecord
100
AcDbBlockTableRecord
  2
*Model_Space
340
1A
 70
0
280
1
281
0
  0
BLOCK_RECORD
  5
1B
330
9
100
AcDbSymbolTableRecord
100
AcDbBlockTableRecord
  2
*Paper_Space
340
1E
 70
0
280
1
281
0
  0
ENDTAB
  0
ENDSEC
  0
SECTION
  2
BLOCKS
  0
BLOCK
  5
18
330
17
100
AcDbEntity
  8
0
100
AcDbBlockBegin
  2
*Model_Space
 70
0
 10
0.0
 20
0.0
 30
0.0
  3
*Model_Space
  1

  0
ENDBLK
  5
19
330
17
100
AcDbEntity
  8
0
100
AcDbBlockEnd
  0
BLOCK
  5
1C
330
1B
100
AcDbEntity
  8
0
100
AcDbBlockBegin
  2
*Paper_Space
 70
0
 10
0.0
 20
0.0
 30
0.0
  3
*Paper_Space
  1

  0
ENDBLK
  5
1D
330
1B
100
AcDbEntity
  8
0
100
AcDbBlockEnd
  0
ENDSEC
  0
SECTION
  2
ENTITIES
  0
LWPOLYLINE
  5
2F
330
17
100
AcDbEntity
  8
0
100
AcDbPolyline
 90
51
 70
0
 10
-0.4000000000000013
 20
12.0
 10
-0.4000000000000013
 20
11.86
 10
-0.40000000000000135
 20
11.719999999999999
 10
-0.4000000000000014
 20
11.58
 10
-0.4000000000000014
 20
11.44
 10
-0.40000000000000147
 20
11.3
 10
-0.4000000000000015
 20
11.16
 10
-0.4000000000000015
 20
11.02
 10
-0.4000000000000016
 20
10.879999999999999
 10
-0.4000000000000016
 20
10.74
 10
-0.40000000000000163
 20
10.6
 10
-0.4000000000000017
 20
10.46
 10
-0.4000000000000017
 20
10.32
 10
-0.40000000000000174
 20
10.18
 10
-0.4000000000000018
 20
10.04
 10
-0.4000000000000018
 20
9.9
 10
-0.40000000000000185
 20
9.76
 10
-0.40000000000000185
 20
9.620000000000001
 10
-0.4000000000000019
 20
9.48
 10
-0.40000000000000197
 20
9.34
 10
-0.40000000000000197
 20
9.2
 10
-0.400000000000002
 20
9.06
 10
-0.4000000000000021
 20
8.92
 10
-0.4000000000000021
 20
8.78
 10
-0.40000000000000213
 20
8.64
 10
-0.40000000000000213
 20
8.5
 10
-0.4000000000000022
 20
8.36
 10
-0.40000000000000224
 20
8.22
 10
-0.40000000000000224
 20
8.08
 10
-0.4000000000000023
 20
7.94
 10
-0.40000000000000235
 20
7.8
 10
-0.40000000000000235
 20
7.66
 10
-0.4000000000000024
 20
7.52
 10
-0.4000000000000024
 20
7.38
 10
-0.40000000000000246
 20
7.24
 10
-0.4000000000000025
 20
7.1
 10
-0.4000000000000025
 20
6.96
 10
-0.4000000000000026
 20
6.82
 10
-0.40000000000000263
 20
6.68
 10
-0.40000000000000263
 20
6.54
 10
-0.4000000000000027
 20
6.4
 10
-0.4000000000000027
 20
6.26
 10
-0.40000000000000274
 20
6.12
 10
-0.4000000000000028
 20
5.98
 10
-0.4000000000000028
 20
5.84
 10
-0.40000000000000285
 20
5.7
 10
-0.4000000000000029
 20
5.56
 10
-0.4000000000000029
 20
5.42
 10
-0.40000000000000296
 20
5.28
 10
-0.40000000000000296
 20
5.14
 10
-0.400000000000003
 20
5.0
  0
LWPOLYLINE
  5
30
330
17
100
AcDbEntity
  8
0
100
AcDbPolyline
 90
51
 70
0
 10
-14.4
 20
1.023181539494544e-15
 10
-13.324
 20
9.46727141126757e-16
 10
-12.248000000000001
 20
8.7027274275897055e-16
 10
-11.172
 20
7.938183443911837e-16
 10
-10.096
 20
7.173639460233969e-16
 10
-9.02
 20
6.409095476556101e-16
 10
-7.944000000000001
 20
5.644551492878235e-16
 10
-6.868000000000001
 20
4.880007509200367e-16
 10
-5.792000000000002
 20
4.1154635255225e-16
 10
-4.716000000000001
 20
3.350919541844632e-16
 10
-3.6400000000000006
 20
2.5863755581667643e-16
 10
-2.564000000000002
 20
1.8218315744888976e-16
 10
-1.4880000000000013
 20
1.0572875908110296e-16
 10
-0.4120000000000008
 20
2.9274360713316174e-17
 10
0.6639999999999979
 20
-4.718003765447049e-17
 10
1.7400000000000002
 20
-1.236344360222574e-16
 10
2.815999999999997
 20
-2.0008883439004395e-16
 10
3.8919999999999977
 20
-2.765432327578307e-16
 10
4.967999999999998
 20
-3.5299763112561754e-16
 10
6.043999999999999
 20
-4.294520294934043e-16
 10
7.119999999999999
 20
-5.059064278611911e-16
 10
8.196
 20
-5.82360826228978e-16
 10
9.271999999999997
 20
-6.588152245967645e-16
 10
10.347999999999997
 20
-7.352696229645512e-16
 10
11.423999999999998
 20
-8.11724021332338e-16
 10
12.499999999999998
 20
-8.881784197001248e-16
 10
13.575999999999999
 20
-9.646328180679116e-16
 10
14.652
 20
-1.0410872164356985e-15
 10
15.727999999999996
 20
-1.117541614803485e-15
 10
16.803999999999995
 20
-1.1939960131712715e-15
 10
17.880000000000003
 20
-1.2704504115390588e-15
 10
18.956000000000003
 20
-1.3469048099068458e-15
 10
20.031999999999996
 20
-1.4233592082746319e-15
 10
21.107999999999997
 20
-1.4998136066424188e-15
 10
22.183999999999997
 20
-1.5762680050102055e-15
 10
23.259999999999998
 20
-1.6527224033779924e-15
 10
24.336
 20
-1.7291768017457792e-15
 10
25.412
 20
-1.805631200113566e-15
 10
26.488
 20
-1.8820855984813526e-15
 10
27.564
 20
-1.9585399968491393e-15
 10
28.64
 20
-2.0349943952169265e-15
 10
29.715999999999994
 20
-2.1114487935847128e-15
 10
30.792
 20
-2.1879031919525e-15
 10
31.868000000000002
 20
-2.2643575903202866e-15
 10
32.943999999999996
 20
-2.340811988688073e-15
 10
34.02
 20
-2.4172663870558605e-15
 10
35.096
 20
-2.4937207854236464e-15
 10
36.172
 20
-2.5701751837914335e-15
 10
37.248
 20
-2.6466295821592202e-15
 10
38.324
 20
-2.723083980527007e-15
 10
39.4
 20
-2.7995383788947937e-15
  0
LWPOLYLINE
  5
31
330
17
100
AcDbEntity
  8
0
100
AcDbPolyline
 90
51
 70
0
 10
39.4
 20
-2.79953837889479e-15
 10
39.4
 20
0.09999999999999724
 10
39.4
 20
0.1999999999999973
 10
39.4
 20
0.2999999999999974
 10
39.4
 20
0.3999999999999974
 10
39.4
 20
0.49999999999999756
 10
39.4
 20
0.5999999999999975
 10
39.4
 20
0.6999999999999976
 10
39.4
 20
0.7999999999999976
 10
39.4
 20
0.8999999999999977
 10
39.4
 20
0.9999999999999979
 10
39.4
 20
1.0999999999999976
 10
39.4
 20
1.1999999999999977
 10
39.4
 20
1.2999999999999976
 10
39.4
 20
1.399999999999998
 10
39.4
 20
1.499999999999998
 10
39.4
 20
1.5999999999999979
 10
39.4
 20
1.699999999999998
 10
39.4
 20
1.799999999999998
 10
39.4
 20
1.8999999999999984
 10
39.4
 20
1.9999999999999987
 10
39.4
 20
2.0999999999999983
 10
39.4
 20
2.1999999999999984
 10
39.4
 20
2.2999999999999985
 10
39.4
 20
2.3999999999999986
 10
39.4
 20
2.4999999999999987
 10
39.4
 20
2.5999999999999983
 10
39.4
 20
2.699999999999999
 10
39.4
 20
2.799999999999999
 10
39.4
 20
2.899999999999999
 10
39.4
 20
2.999999999999999
 10
39.4
 20
3.099999999999999
 10
39.4
 20
3.199999999999999
 10
39.4
 20
3.299999999999999
 10
39.4
 20
3.399999999999999
 10
39.4
 20
3.499999999999999
 10
39.4
 20
3.599999999999999
 10
39.4
 20
3.699999999999999
 10
39.4
 20
3.8
 10
39.4
 20
3.8999999999999995
 10
39.4
 20
4.0
 10
39.4
 20
4.1
 10
39.4
 20
4.199999999999999
 10
39.4
 20
4.3
 10
39.4
 20
4.3999999999999995
 10
39.4
 20
4.5
 10
39.4
 20
4.6
 10
39.4
 20
4.699999999999999
 10
39.4
 20
4.8
 10
39.4
 20
4.9
 10
39.4
 20
5.0
  0
LWPOLYLINE
  5
32
330
17
100
AcDbEntity
  8
0
100
AcDbPolyline
 90
51
 70
0
 10
-0.4000000000000057
 20
5.0
 10
0.007999999999995566
 20
5.0
 10
0.41599999999999326
 20
5.0
 10
0.8239999999999945
 20
5.0
 10
1.2319999999999958
 20
5.0
 10
1.6399999999999935
 20
5.0
 10
2.0479999999999947
 20
5.0
 10
2.455999999999996
 20
5.0
 10
2.863999999999997
 20
5.0
 10
3.271999999999995
 20
5.0
 10
3.679999999999996
 20
5.0
 10
4.087999999999994
 20
5.0
 10
4.495999999999995
 20
5.0
 10
4.903999999999996
 20
5.0
 10
5.311999999999998
 20
5.0
 10
5.719999999999995
 20
5.0
 10
6.127999999999997
 20
5.0
 10
6.535999999999994
 20
5.0
 10
6.9439999999999955
 20
5.0
 10
7.351999999999997
 20
5.0
 10
7.759999999999998
 20
5.0
 10
8.167999999999996
 20
5.0
 10
8.575999999999997
 20
5.0
 10
8.983999999999998
 20
5.0
 10
9.391999999999998
 20
5.0
 10
9.799999999999997
 20
5.0
 10
10.207999999999997
 20
5.0
 10
10.615999999999998
 20
5.0
 10
11.023999999999997
 20
5.0
 10
11.431999999999997
 20
5.0
 10
11.839999999999998
 20
5.0
 10
12.247999999999998
 20
5.0
 10
12.655999999999999
 20
5.0
 10
13.063999999999998
 20
5.0
 10
13.471999999999998
 20
5.0
 10
13.879999999999999
 20
5.0
 10
14.287999999999998
 20
5.0
 10
14.695999999999998
 20
5.0
 10
15.104
 20
5.0
 10
15.511999999999999
 20
5.0
 10
15.919999999999998
 20
5.0
 10
16.328
 20
5.0
 10
16.735999999999997
 20
5.0
 10
17.144
 20
5.0
 10
17.552
 20
5.0
 10
17.959999999999997
 20
5.0
 10
18.368000000000002
 20
5.0
 10
18.776
 20
5.0
 10
19.184
 20
5.0
 10
19.592
 20
5.0
 10
20.0
 20
5.0
  0
LWPOLYLINE
  5
33
330
17
100
AcDbEntity
  8
0
100
AcDbPolyline
 90
51
 70
0
 10
39.4
 20
5.0
 10
38.604
 20
5.0
 10
37.808
 20
5.0
 10
37.012
 20
5.0
 10
36.215999999999994
 20
5.0
 10
35.42
 20
5.0
 10
34.623999999999995
 20
5.0
 10
33.828
 20
5.0
 10
33.032
 20
5.0
 10
32.236
 20
5.0
 10
31.439999999999998
 20
5.0
 10
30.644
 20
5.0
 10
29.848
 20
5.0
 10
29.051999999999996
 20
5.0
 10
28.256
 20
5.0
 10
27.459999999999994
 20
5.0
 10
26.663999999999998
 20
5.0
 10
25.868
 20
5.0
 10
25.071999999999996
 20
5.0
 10
24.275999999999996
 20
5.0
 10
23.479999999999997
 20
5.0
 10
22.683999999999997
 20
5.0
 10
21.887999999999995
 20
5.0
 10
21.091999999999995
 20
5.0
 10
20.296
 20
5.0
 10
19.499999999999996
 20
5.0
 10
18.703999999999994
 20
5.0
 10
17.907999999999994
 20
5.0
 10
17.112
 20
5.0
 10
16.316
 20
5.0
 10
15.519999999999992
 20
5.0
 10
14.723999999999997
 20
5.0
 10
13.927999999999997
 20
5.0
 10
13.131999999999998
 20
5.0
 10
12.335999999999999
 20
5.0
 10
11.539999999999996
 20
5.0
 10
10.743999999999996
 20
5.0
 10
9.947999999999997
 20
5.0
 10
9.151999999999997
 20
5.0
 10
8.355999999999995
 20
5.0
 10
7.559999999999995
 20
5.0
 10
6.763999999999996
 20
5.0
 10
5.967999999999996
 20
5.0
 10
5.171999999999997
 20
5.0
 10
4.375999999999991
 20
5.0
 10
3.579999999999991
 20
5.0
 10
2.783999999999992
 20
5.0
 10
1.9879999999999924
 20
5.0
 10
1.1920000000000002
 20
5.0
 10
0.3959999999999937
 20
5.0
 10
-0.4000000000000057
 20
5.0
  0
LWPOLYLINE
  5
34
330
17
100
AcDbEntity
  8
0
100
AcDbPolyline
 90
51
 70
0
 10
-0.400000000000003
 20
5.0
 10
-0.40000000000000296
 20
5.14
 10
-0.40000000000000296
 20
5.28
 10
-0.4000000000000029
 20
5.42
 10
-0.4000000000000029
 20
5.5600000000000005
 10
-0.40000000000000285
 20
5.7
 10
-0.4000000000000028
 20
5.84
 10
-0.4000000000000028
 20
5.98
 10
-0.40000000000000274
 20
6.12
 10
-0.4000000000000027
 20
6.26
 10
-0.4000000000000027
 20
6.4
 10
-0.40000000000000263
 20
6.54
 10
-0.40000000000000263
 20
6.68
 10
-0.4000000000000026
 20
6.82
 10
-0.4000000000000025
 20
6.96
 10
-0.4000000000000025
 20
7.1
 10
-0.40000000000000246
 20
7.24
 10
-0.4000000000000024
 20
7.38
 10
-0.4000000000000024
 20
7.52
 10
-0.40000000000000235
 20
7.66
 10
-0.40000000000000235
 20
7.8
 10
-0.4000000000000023
 20
7.9399999999999995
 10
-0.40000000000000224
 20
8.08
 10
-0.40000000000000224
 20
8.22
 10
-0.4000000000000022
 20
8.36
 10
-0.40000000000000213
 20
8.5
 10
-0.40000000000000213
 20
8.64
 10
-0.4000000000000021
 20
8.78
 10
-0.4000000000000021
 20
8.92
 10
-0.400000000000002
 20
9.059999999999999
 10
-0.40000000000000197
 20
9.2
 10
-0.40000000000000197
 20
9.34
 10
-0.4000000000000019
 20
9.48
 10
-0.40000000000000185
 20
9.620000000000001
 10
-0.40000000000000185
 20
9.76
 10
-0.4000000000000018
 20
9.9
 10
-0.4000000000000018
 20
10.04
 10
-0.40000000000000174
 20
10.18
 10
-0.4000000000000017
 20
10.32
 10
-0.4000000000000017
 20
10.46
 10
-0.40000000000000163
 20
10.6
 10
-0.4000000000000016
 20
10.74
 10
-0.4000000000000016
 20
10.879999999999999
 10
-0.4000000000000015
 20
11.02
 10
-0.4000000000000015
 20
11.16
 10
-0.40000000000000147
 20
11.3
 10
-0.4000000000000014
 20
11.440000000000001
 10
-0.4000000000000014
 20
11.58
 10
-0.40000000000000135
 20
11.719999999999999
 10
-0.4000000000000013
 20
11.86
 10
-0.4000000000000013
 20
12.0
  0
LWPOLYLINE
  5
35
330
17
100
AcDbEntity
  8
0
100
AcDbPolyline
 90
51
 70
0
 10
-0.40000000000000036
 20
11.999999999999998
 10
-0.41381290100209966
 20
12.439533636705189
 10
-0.4551970907986549
 20
12.877332634950129
 10
-0.5239892448991794
 20
13.31166920210007
 10
-0.6199178720995828
 20
13.740829210153985
 10
-0.7426043859339249
 20
14.16311896062463
 10
-0.8915645987822396
 20
14.576871868792741
 10
-1.0662106327378638
 20
14.980455040955508
 10
-1.2658532396929534
 20
15.372275718712004
 10
-1.489704521485896
 20
15.750787564852978
 10
-1.7368810393753673
 20
16.11449676604731
 10
-2.0064073005694736
 20
16.461967928240824
 10
-2.2972196080501197
 20
16.79182974150082
 10
-2.608170258499178
 20
17.102780391949878
 10
-2.9380320717591726
 20
17.393592699430528
 10
-3.285503233952687
 20
17.66311896062463
 10
-3.6492124351470205
 20
17.910295478514104
 10
-4.027724281287993
 20
18.134146760307047
 10
-4.419544959044489
 20
18.333789367262135
 10
-4.823128131207255
 20
18.50843540121776
 10
-5.236881039375366
 20
18.657395614066075
 10
-5.659170789846013
 20
18.780082127900418
 10
-6.0883307978999275
 20
18.876010755100822
 10
-6.522667365049868
 20
18.944802909201343
 10
-6.960466363294808
 20
18.986187098997902
 10
-7.399999999999999
 20
19.0
 10
-7.839533636705189
 20
18.986187098997902
 10
-8.27733263495013
 20
18.944802909201346
 10
-8.71166920210007
 20
18.876010755100822
 10
-9.140829210153985
 20
18.780082127900418
 10
-9.563118960624632
 20
18.657395614066075
 10
-9.976871868792742
 20
18.50843540121776
 10
-10.380455040955509
 20
18.333789367262135
 10
-10.77227571871201
 20
18.134146760307043
 10
-11.150787564852976
 20
17.910295478514104
 10
-11.51449676604731
 20
17.663118960624633
 10
-11.861967928240825
 20
17.393592699430528
 10
-12.191829741500822
 20
17.10278039194988
 10
-12.50278039194988
 20
16.791829741500823
 10
-12.793592699430526
 20
16.461967928240828
 10
-13.063118960624632
 20
16.114496766047314
 10
-13.310295478514103
 20
15.75078756485298
 10
-13.534146760307046
 20
15.372275718712007
 10
-13.733789367262137
 20
14.980455040955512
 10
-13.90843540121776
 20
14.576871868792745
 10
-14.057395614066074
 20
14.163118960624633
 10
-14.180082127900416
 20
13.740829210153988
 10
-14.27601075510082
 20
13.311669202100074
 10
-14.344802909201345
 20
12.877332634950132
 10
-14.386187098997901
 20
12.439533636705193
 10
-14.4
 20
12.000000000000002
  0
LWPOLYLINE
  5
36
330
17
100
AcDbEntity
  8
0
100
AcDbPolyline
 90
51
 70
0
 10
-14.4
 20
12.0
 10
-14.4
 20
11.76
 10
-14.4
 20
11.52
 10
-14.4
 20
11.28
 10
-14.4
 20
11.04
 10
-14.4
 20
10.8
 10
-14.4
 20
10.56
 10
-14.4
 20
10.32
 10
-14.4
 20
10.08
 10
-14.4
 20
9.84
 10
-14.4
 20
9.6
 10
-14.4
 20
9.36
 10
-14.4
 20
9.120000000000001
 10
-14.4
 20
8.879999999999999
 10
-14.4
 20
8.64
 10
-14.4
 20
8.4
 10
-14.4
 20
8.16
 10
-14.4
 20
7.92
 10
-14.4
 20
7.68
 10
-14.4
 20
7.44
 10
-14.4
 20
7.2
 10
-14.4
 20
6.96
 10
-14.4
 20
6.72
 10
-14.4
 20
6.48
 10
-14.4
 20
6.24
 10
-14.4
 20
6.0
 10
-14.4
 20
5.76
 10
-14.4
 20
5.52
 10
-14.4
 20
5.28
 10
-14.4
 20
5.04
 10
-14.4
 20
4.8
 10
-14.4
 20
4.56
 10
-14.4
 20
4.32
 10
-14.4
 20
4.08
 10
-14.4
 20
3.84
 10
-14.4
 20
3.5999999999999996
 10
-14.4
 20
3.3599999999999994
 10
-14.4
 20
3.119999999999999
 10
-14.4
 20
2.880000000000001
 10
-14.4
 20
2.6400000000000006
 10
-14.4
 20
2.4000000000000004
 10
-14.4
 20
2.16
 10
-14.4
 20
1.92
 10
-14.4
 20
1.6799999999999997
 10
-14.4
 20
1.4399999999999995
 10
-14.4
 20
1.1999999999999993
 10
-14.4
 20
0.9600000000000009
 10
-14.4
 20
0.7200000000000006
 10
-14.4
 20
0.4800000000000004
 10
-14.4
 20
0.2400000000000002
 10
-14.400000000000002
 20
0.0
  0
LWPOLYLINE
  5
37
330
17
100
AcDbEntity
  8
0
100
AcDbPolyline
 90
51
 70
0
 10
-7.4
 20
16.0
 10
-7.901332934257217
 20
15.968458805257912
 10
-8.394759548659419
 20
15.874332644514524
 10
-8.872498210738712
 20
15.719105943553005
 10
-9.327014696406861
 20
15.505226720175454
 10
-9.751141009169892
 20
15.23606797749979
 10
-10.138188423714755
 20
14.915874509685647
 10
-10.482052971103158
 20
14.549695958994759
 10
-10.77731170200806
 20
14.143307179915986
 10
-11.019308209864079
 20
13.703117166260292
 10
-11.204226065180615
 20
13.23606797749979
 10
-11.329149002914754
 20
12.7495252583429
 10
-11.392106913713086
 20
12.251162078117254
 10
-11.392106913713086
 20
11.748837921882746
 10
-11.329149002914756
 20
11.2504747416571
 10
-11.204226065180615
 20
10.763932022500212
 10
-11.019308209864079
 20
10.296882833739708
 10
-10.77731170200806
 20
9.856692820084012
 10
-10.482052971103158
 20
9.450304041005241
 10
-10.138188423714755
 20
9.084125490314355
 10
-9.751141009169894
 20
8.76393202250021
 10
-9.327014696406861
 20
8.494773279824546
 10
-8.872498210738712
 20
8.280894056446995
 10
-8.39475954865942
 20
8.125667355485476
 10
-7.901332934257218
 20
8.03154119474209
 10
-7.400000000000001
 20
8.0
 10
-6.898667065742783
 20
8.031541194742088
 10
-6.405240451340582
 20
8.125667355485476
 10
-5.927501789261289
 20
8.280894056446995
 10
-5.472985303593139
 20
8.494773279824546
 10
-5.04885899083011
 20
8.763932022500208
 10
-4.661811576285247
 20
9.084125490314353
 10
-4.3179470288968425
 20
9.450304041005243
 10
-4.022688297991939
 20
9.856692820084014
 10
-3.780691790135921
 20
10.296882833739712
 10
-3.5957739348193862
 20
10.76393202250021
 10
-3.4708509970852455
 20
11.2504747416571
 10
-3.407893086286914
 20
11.748837921882748
 10
-3.407893086286914
 20
12.251162078117252
 10
-3.4708509970852455
 20
12.749525258342898
 10
-3.595773934819386
 20
13.23606797749979
 10
-3.7806917901359207
 20
13.703117166260288
 10
-4.022688297991941
 20
14.143307179915986
 10
-4.3179470288968425
 20
14.549695958994757
 10
-4.661811576285245
 20
14.915874509685645
 10
-5.048858990830107
 20
15.23606797749979
 10
-5.472985303593136
 20
15.505226720175452
 10
-5.927501789261289
 20
15.719105943553005
 10
-6.405240451340579
 20
15.874332644514524
 10
-6.8986670657427815
 20
15.96845880525791
 10
-7.3999999999999995
 20
16.0
  0
ENDSEC
  0
SECTION
  2
OBJECTS
  0
DICTIONARY
  5
A
330
0
100
AcDbDictionary
280
0
281
1
  3
ACAD_COLOR
350
B
  3
ACAD_GROUP
350
C
  3
ACAD_LAYOUT
350
D
  3
ACAD_MATERIAL
350
E
  3
ACAD_MLEADERSTYLE
350
F
  3
ACAD_MLINESTYLE
350
10
  3
ACAD_PLOTSETTINGS
350
11
  3
ACAD_PLOTSTYLENAME
350
12
  3
ACAD_SCALELIST
350
14
  3
ACAD_TABLESTYLE
350
15
  3
ACAD_VISUALSTYLE
350
16
  3
EZDXF_META
350
2D
  0
DICTIONARY
  5
B
330
A
100
AcDbDictionary
280
0
281
1
  0
DICTIONARY
  5
C
330
A
100
AcDbDictionary
280
0
281
1
  0
DICTIONARY
  5
D
330
A
100
AcDbDictionary
280
0
281
1
  3
Model
350
1A
  3
Layout1
350
1E
  0
DICTIONARY
  5
E
330
A
100
AcDbDictionary
280
0
281
1
  3
ByBlock
350
1F
  3
ByLayer
350
20
  3
Global
350
21
  0
DICTIONARY
  5
F
330
A
100
AcDbDictionary
280
0
281
1
  3
Standard
350
2C
  0
DICTIONARY
  5
10
330
A
100
AcDbDictionary
280
0
281
1
  3
Standard
350
22
  0
DICTIONARY
  5
11
330
A
100
AcDbDictionary
280
0
281
1
  0
ACDBDICTIONARYWDFLT
  5
12
330
A
100
AcDbDictionary
280
0
281
1
  3
Normal
350
13
100
AcDbDictionaryWithDefault
340
13
  0
ACDBPLACEHOLDER
  5
13
330
12
  0
DICTIONARY
  5
14
330
A
100
AcDbDictionary
280
0
281
1
  0
DICTIONARY
  5
15
330
A
100
AcDbDictionary
280
0
281
1
  0
DICTIONARY
  5
16
330
A
100
AcDbDictionary
280
0
281
1
  0
LAYOUT
  5
1A
330
D
100
AcDbPlotSettings
  1

  2
Adobe PDF
  4
A3
  6

 40
7.5
 41
20.0
 42
7.5
 43
20.0
 44
420.0
 45
297.0
 46
0.0
 47
0.0
 48
0.0
 49
0.0
140
0.0
141
0.0
142
1.0
143
1.0
 70
1024
 72
1
 73
0
 74
5
  7

 75
16
 76
0
 77
2
 78
300
147
1.0
148
0.0
149
0.0
100
AcDbLayout
  1
Model
 70
1
 71
0
 10
0.0
 20
0.0
 11
420.0
 21
297.0
 12
0.0
 22
0.0
 32
0.0
 14
1e+20
 24
1e+20
 34
1e+20
 15
-1e+20
 25
-1e+20
 35
-1e+20
146
0.0
 13
0.0
 23
0.0
 33
0.0
 16
1.0
 26
0.0
 36
0.0
 17
0.0
 27
1.0
 37
0.0
 76
1
330
17
  0
LAYOUT
  5
1E
330
D
100
AcDbPlotSettings
  1

  2
Adobe PDF
  4
A3
  6

 40
7.5
 41
20.0
 42
7.5
 43
20.0
 44
420.0
 45
297.0
 46
0.0
 47
0.0
 48
0.0
 49
0.0
140
0.0
141
0.0
142
1.0
143
1.0
 70
0
 72
1
 73
0
 74
5
  7

 75
16
 76
0
 77
2
 78
300
147
1.0
148
0.0
149
0.0
100
AcDbLayout
  1
Layout1
 70
1
 71
1
 10
0.0
 20
0.0
 11
420.0
 21
297.0
 12
0.0
 22
0.0
 32
0.0
 14
1e+20
 24
1e+20
 34
1e+20
 15
-1e+20
 25
-1e+20
 35
-1e+20
146
0.0
 13
0.0
 23
0.0
 33
0.0
 16
1.0
 26
0.0
 36
0.0
 17
0.0
 27
1.0
 37
0.0
 76
1
330
1B
  0
MATERIAL
  5
1F
102
{ACAD_REACTORS
330
E
102
}
330
E
100
AcDbMaterial
  1
ByBlock
  2

 70
0
 40
1.0
 71
1
 41
1.0
 91
-1023410177
 42
1.0
 72
1
  3

 73
1
 74
1
 75
1
 44
0.5
 73
0
 45
1.0
 46
1.0
 77
1
  4

 78
1
 79
1
170
1
 48
1.0
171
1
  6

172
1
173
1
174
1
140
1.0
141
1.0
175
1
  7

176
1
177
1
178
1
143
1.0
179
1
  8

270
1
271
1
272
1
145
1.0
146
1.0
273
1
  9

274
1
275
1
276
1
 42
1.0
 72
1
  3

 73
1
 74
1
 75
1
 94
63
  0
MATERIAL
  5
20
102
{ACAD_REACTORS
330
E
102
}
330
E
100
AcDbMaterial
  1
ByLayer
  2

 70
0
 40
1.0
 71
1
 41
1.0
 91
-1023410177
 42
1.0
 72
1
  3

 73
1
 74
1
 75
1
 44
0.5
 73
0
 45
1.0
 46
1.0
 77
1
  4

 78
1
 79
1
170
1
 48
1.0
171
1
  6

172
1
173
1
174
1
140
1.0
141
1.0
175
1
  7

176
1
177
1
178
1
143
1.0
179
1
  8

270
1
271
1
272
1
145
1.0
146
1.0
273
1
  9

274
1
275
1
276
1
 42
1.0
 72
1
  3

 73
1
 74
1
 75
1
 94
63
  0
MATERIAL
  5
21
102
{ACAD_REACTORS
330
E
102
}
330
E
100
AcDbMaterial
  1
Global
  2

 70
0
 40
1.0
 71
1
 41
1.0
 91
-1023410177
 42
1.0
 72
1
  3

 73
1
 74
1
 75
1
 44
0.5
 73
0
 45
1.0
 46
1.0
 77
1
  4

 78
1
 79
1
170
1
 48
1.0
171
1
  6

172
1
173
1
174
1
140
1.0
141
1.0
175
1
  7

176
1
177
1
178
1
143
1.0
179
1
  8

270
1
271
1
272
1
145
1.0
146
1.0
273
1
  9

274
1
275
1
276
1
 42
1.0
 72
1
  3

 73
1
 74
1
 75
1
 94
63
  0
MLINESTYLE
  5
22
102
{ACAD_REACTORS
330
10
102
}
330
10
100
AcDbMlineStyle
  2
Standard
 70
0
  3

 62
256
 51
90.0
 52
90.0
 71
2
 49
0.5
 62
256
  6
BYLAYER
 49
-0.5
 62
256
  6
BYLAYER
  0
MLEADERSTYLE
  5
2C
102
{ACAD_REACTORS
330
F
102
}
330
F
100
AcDbMLeaderStyle
179
2
170
2
171
1
172
0
 90
2
 40
0.0
 41
0.0
173
1
 91
-1056964608
 92
-2
290
1
 42
2.0
291
1
 43
8.0
  3
Standard
 44
4.0
300

342
29
174
1
175
1
176
0
178
1
 93
-1056964608
 45
4.0
292
0
297
0
 46
4.0
 94
-1056964608
 47
1.0
 49
1.0
140
1.0
294
1
141
0.0
177
0
142
1.0
295
0
296
0
143
3.75
271
0
272
9
273
9
  0
DICTIONARY
  5
2D
330
A
100
AcDbDictionary
281
1
  3
CREATED_BY_EZDXF
350
2E
  3
WRITTEN_BY_EZDXF
350
3A
  0
DICTIONARYVAR
  5
2E
330
2D
100
DictionaryVariables
280
0
  1
1.0.3 @ 2025-05-29T09:38:50.160934+00:00
  0
DICTIONARYVAR
  5
3A
330
2D
100
DictionaryVariables
280
0
  1
1.0.3 @ 2025-05-29T09:38:50.162935+00:00
  0
ENDSEC
  0
EOF
