  0
SECTION
  2
HEADER
  9
$ACADVER
  1
AC1027
  9
$ACADMAINTVER
 70
105
  9
$DWGCODEPAGE
  3
ANSI_1252
  9
$LASTSAVEDBY
  1
ezdxf
  9
$REQUIREDVERSIONS
160
0
  9
$INSBASE
 10
0.0
 20
0.0
 30
0.0
  9
$EXTMIN
 10
1e+20
 20
1e+20
 30
1e+20
  9
$EXTMAX
 10
-1e+20
 20
-1e+20
 30
-1e+20
  9
$LIMMIN
 10
0.0
 20
0.0
  9
$LIMMAX
 10
420.0
 20
297.0
  9
$ORTHOMODE
 70
0
  9
$REGENMODE
 70
1
  9
$FILLMODE
 70
1
  9
$QTEXTMODE
 70
0
  9
$MIRRTEXT
 70
1
  9
$LTSCALE
 40
1.0
  9
$ATTMODE
 70
1
  9
$TEXTSIZE
 40
2.5
  9
$TRACEWID
 40
1.0
  9
$TEXTSTYLE
  7
Standard
  9
$CLAYER
  8
0
  9
$CELTYPE
  6
ByLayer
  9
$CECOLOR
 62
256
  9
$CELTSCALE
 40
1.0
  9
$DISPSILH
 70
0
  9
$DIMSCALE
 40
1.0
  9
$DIMASZ
 40
2.5
  9
$DIMEXO
 40
0.625
  9
$DIMDLI
 40
3.75
  9
$DIMRND
 40
0.0
  9
$DIMDLE
 40
0.0
  9
$DIMEXE
 40
1.25
  9
$DIMTP
 40
0.0
  9
$DIMTM
 40
0.0
  9
$DIMTXT
 40
2.5
  9
$DIMCEN
 40
2.5
  9
$DIMTSZ
 40
0.0
  9
$DIMTOL
 70
0
  9
$DIMLIM
 70
0
  9
$DIMTIH
 70
0
  9
$DIMTOH
 70
0
  9
$DIMSE1
 70
0
  9
$DIMSE2
 70
0
  9
$DIMTAD
 70
1
  9
$DIMZIN
 70
8
  9
$DIMBLK
  1

  9
$DIMASO
 70
1
  9
$DIMSHO
 70
1
  9
$DIMPOST
  1

  9
$DIMAPOST
  1

  9
$DIMALT
 70
0
  9
$DIMALTD
 70
3
  9
$DIMALTF
 40
0.03937007874
  9
$DIMLFAC
 40
1.0
  9
$DIMTOFL
 70
1
  9
$DIMTVP
 40
0.0
  9
$DIMTIX
 70
0
  9
$DIMSOXD
 70
0
  9
$DIMSAH
 70
0
  9
$DIMBLK1
  1

  9
$DIMBLK2
  1

  9
$DIMSTYLE
  2
ISO-25
  9
$DIMCLRD
 70
0
  9
$DIMCLRE
 70
0
  9
$DIMCLRT
 70
0
  9
$DIMTFAC
 40
1.0
  9
$DIMGAP
 40
0.625
  9
$DIMJUST
 70
0
  9
$DIMSD1
 70
0
  9
$DIMSD2
 70
0
  9
$DIMTOLJ
 70
0
  9
$DIMTZIN
 70
8
  9
$DIMALTZ
 70
0
  9
$DIMALTTZ
 70
0
  9
$DIMUPT
 70
0
  9
$DIMDEC
 70
2
  9
$DIMTDEC
 70
2
  9
$DIMALTU
 70
2
  9
$DIMALTTD
 70
3
  9
$DIMTXSTY
  7
Standard
  9
$DIMAUNIT
 70
0
  9
$DIMADEC
 70
0
  9
$DIMALTRND
 40
0.0
  9
$DIMAZIN
 70
0
  9
$DIMDSEP
 70
44
  9
$DIMATFIT
 70
3
  9
$DIMFRAC
 70
0
  9
$DIMLDRBLK
  1

  9
$DIMLUNIT
 70
2
  9
$DIMLWD
 70
-2
  9
$DIMLWE
 70
-2
  9
$DIMTMOVE
 70
0
  9
$DIMFXL
 40
1.0
  9
$DIMFXLON
 70
0
  9
$DIMJOGANG
 40
0.785398163397
  9
$DIMTFILL
 70
0
  9
$DIMTFILLCLR
 70
0
  9
$DIMARCSYM
 70
0
  9
$DIMLTYPE
  6

  9
$DIMLTEX1
  6

  9
$DIMLTEX2
  6

  9
$DIMTXTDIRECTION
 70
0
  9
$LUNITS
 70
2
  9
$LUPREC
 70
4
  9
$SKETCHINC
 40
1.0
  9
$FILLETRAD
 40
10.0
  9
$AUNITS
 70
0
  9
$AUPREC
 70
2
  9
$MENU
  1
.
  9
$ELEVATION
 40
0.0
  9
$PELEVATION
 40
0.0
  9
$THICKNESS
 40
0.0
  9
$LIMCHECK
 70
0
  9
$CHAMFERA
 40
0.0
  9
$CHAMFERB
 40
0.0
  9
$CHAMFERC
 40
0.0
  9
$CHAMFERD
 40
0.0
  9
$SKPOLY
 70
0
  9
$TDCREATE
 40
2460825.777002315
  9
$TDUCREATE
 40
2458532.153996898
  9
$TDUPDATE
 40
2460825.777002315
  9
$TDUUPDATE
 40
2458532.1544311
  9
$TDINDWG
 40
0.0
  9
$TDUSRTIMER
 40
0.0
  9
$USRTIMER
 70
1
  9
$ANGBASE
 50
0.0
  9
$ANGDIR
 70
0
  9
$PDMODE
 70
0
  9
$PDSIZE
 40
0.0
  9
$PLINEWID
 40
0.0
  9
$SPLFRAME
 70
0
  9
$SPLINETYPE
 70
6
  9
$SPLINESEGS
 70
8
  9
$HANDSEED
  5
3B
  9
$SURFTAB1
 70
6
  9
$SURFTAB2
 70
6
  9
$SURFTYPE
 70
6
  9
$SURFU
 70
6
  9
$SURFV
 70
6
  9
$UCSBASE
  2

  9
$UCSNAME
  2

  9
$UCSORG
 10
0.0
 20
0.0
 30
0.0
  9
$UCSXDIR
 10
1.0
 20
0.0
 30
0.0
  9
$UCSYDIR
 10
0.0
 20
1.0
 30
0.0
  9
$UCSORTHOREF
  2

  9
$UCSORTHOVIEW
 70
0
  9
$UCSORGTOP
 10
0.0
 20
0.0
 30
0.0
  9
$UCSORGBOTTOM
 10
0.0
 20
0.0
 30
0.0
  9
$UCSORGLEFT
 10
0.0
 20
0.0
 30
0.0
  9
$UCSORGRIGHT
 10
0.0
 20
0.0
 30
0.0
  9
$UCSORGFRONT
 10
0.0
 20
0.0
 30
0.0
  9
$UCSORGBACK
 10
0.0
 20
0.0
 30
0.0
  9
$PUCSBASE
  2

  9
$PUCSNAME
  2

  9
$PUCSORG
 10
0.0
 20
0.0
 30
0.0
  9
$PUCSXDIR
 10
1.0
 20
0.0
 30
0.0
  9
$PUCSYDIR
 10
0.0
 20
1.0
 30
0.0
  9
$PUCSORTHOREF
  2

  9
$PUCSORTHOVIEW
 70
0
  9
$PUCSORGTOP
 10
0.0
 20
0.0
 30
0.0
  9
$PUCSORGBOTTOM
 10
0.0
 20
0.0
 30
0.0
  9
$PUCSORGLEFT
 10
0.0
 20
0.0
 30
0.0
  9
$PUCSORGRIGHT
 10
0.0
 20
0.0
 30
0.0
  9
$PUCSORGFRONT
 10
0.0
 20
0.0
 30
0.0
  9
$PUCSORGBACK
 10
0.0
 20
0.0
 30
0.0
  9
$USERI1
 70
0
  9
$USERI2
 70
0
  9
$USERI3
 70
0
  9
$USERI4
 70
0
  9
$USERI5
 70
0
  9
$USERR1
 40
0.0
  9
$USERR2
 40
0.0
  9
$USERR3
 40
0.0
  9
$USERR4
 40
0.0
  9
$USERR5
 40
0.0
  9
$WORLDVIEW
 70
1
  9
$SHADEDGE
 70
3
  9
$SHADEDIF
 70
70
  9
$TILEMODE
 70
1
  9
$MAXACTVP
 70
64
  9
$PINSBASE
 10
0.0
 20
0.0
 30
0.0
  9
$PLIMCHECK
 70
0
  9
$PEXTMIN
 10
1e+20
 20
1e+20
 30
1e+20
  9
$PEXTMAX
 10
-1e+20
 20
-1e+20
 30
-1e+20
  9
$PLIMMIN
 10
0.0
 20
0.0
  9
$PLIMMAX
 10
420.0
 20
297.0
  9
$UNITMODE
 70
0
  9
$VISRETAIN
 70
1
  9
$PLINEGEN
 70
0
  9
$PSLTSCALE
 70
1
  9
$TREEDEPTH
 70
3020
  9
$CMLSTYLE
  2
Standard
  9
$CMLJUST
 70
0
  9
$CMLSCALE
 40
20.0
  9
$PROXYGRAPHICS
 70
1
  9
$MEASUREMENT
 70
1
  9
$CELWEIGHT
370
-1
  9
$ENDCAPS
280
0
  9
$JOINSTYLE
280
0
  9
$LWDISPLAY
290
0
  9
$INSUNITS
 70
6
  9
$HYPERLINKBASE
  1

  9
$STYLESHEET
  1

  9
$XEDIT
290
1
  9
$CEPSNTYPE
380
0
  9
$PSTYLEMODE
290
1
  9
$FINGERPRINTGUID
  2
{3A40FFA4-029B-4C78-B428-65C79BDAC121}
  9
$VERSIONGUID
  2
{15D8D21C-D5C8-4CC1-96D9-A5687FBDCD56}
  9
$EXTNAMES
290
1
  9
$PSVPSCALE
 40
0.0
  9
$OLESTARTUP
290
0
  9
$SORTENTS
280
127
  9
$INDEXCTL
280
0
  9
$HIDETEXT
280
1
  9
$XCLIPFRAME
280
0
  9
$HALOGAP
280
0
  9
$OBSCOLOR
 70
257
  9
$OBSLTYPE
280
0
  9
$INTERSECTIONDISPLAY
280
0
  9
$INTERSECTIONCOLOR
 70
257
  9
$DIMASSOC
280
2
  9
$PROJECTNAME
  1

  9
$CAMERADISPLAY
290
0
  9
$LENSLENGTH
 40
50.0
  9
$CAMERAHEIGHT
 40
0.0
  9
$STEPSPERSEC
 40
24.0
  9
$STEPSIZE
 40
100.0
  9
$3DDWFPREC
 40
2.0
  9
$PSOLWIDTH
 40
0.005
  9
$PSOLHEIGHT
 40
0.08
  9
$LOFTANG1
 40
1.570796326795
  9
$LOFTANG2
 40
1.570796326795
  9
$LOFTMAG1
 40
0.0
  9
$LOFTMAG2
 40
0.0
  9
$LOFTPARAM
 70
7
  9
$LOFTNORMALS
280
1
  9
$LATITUDE
 40
37.795
  9
$LONGITUDE
 40
-122.394
  9
$NORTHDIRECTION
 40
0.0
  9
$TIMEZONE
 70
-8000
  9
$LIGHTGLYPHDISPLAY
280
1
  9
$TILEMODELIGHTSYNCH
280
1
  9
$CMATERIAL
347
20
  9
$SOLIDHIST
280
0
  9
$SHOWHIST
280
1
  9
$DWFFRAME
280
2
  9
$DGNFRAME
280
2
  9
$REALWORLDSCALE
290
1
  9
$INTERFERECOLOR
 62
256
  9
$CSHADOW
280
0
  9
$SHADOWPLANELOCATION
 40
0.0
  0
ENDSEC
  0
SECTION
  2
CLASSES
  0
CLASS
  1
ACDBDICTIONARYWDFLT
  2
AcDbDictionaryWithDefault
  3
ObjectDBX Classes
 90
0
 91
0
280
0
281
0
  0
CLASS
  1
SUN
  2
AcDbSun
  3
SCENEOE
 90
1153
 91
0
280
0
281
0
  0
CLASS
  1
VISUALSTYLE
  2
AcDbVisualStyle
  3
ObjectDBX Classes
 90
4095
 91
0
280
0
281
0
  0
CLASS
  1
MATERIAL
  2
AcDbMaterial
  3
ObjectDBX Classes
 90
1153
 91
0
280
0
281
0
  0
CLASS
  1
SCALE
  2
AcDbScale
  3
ObjectDBX Classes
 90
1153
 91
0
280
0
281
0
  0
CLASS
  1
TABLESTYLE
  2
AcDbTableStyle
  3
ObjectDBX Classes
 90
4095
 91
0
280
0
281
0
  0
CLASS
  1
MLEADERSTYLE
  2
AcDbMLeaderStyle
  3
ACDB_MLEADERSTYLE_CLASS
 90
4095
 91
0
280
0
281
0
  0
CLASS
  1
DICTIONARYVAR
  2
AcDbDictionaryVar
  3
ObjectDBX Classes
 90
0
 91
0
280
0
281
0
  0
CLASS
  1
CELLSTYLEMAP
  2
AcDbCellStyleMap
  3
ObjectDBX Classes
 90
1152
 91
0
280
0
281
0
  0
CLASS
  1
MENTALRAYRENDERSETTINGS
  2
AcDbMentalRayRenderSettings
  3
SCENEOE
 90
1024
 91
0
280
0
281
0
  0
CLASS
  1
ACDBDETAILVIEWSTYLE
  2
AcDbDetailViewStyle
  3
ObjectDBX Classes
 90
1025
 91
0
280
0
281
0
  0
CLASS
  1
ACDBSECTIONVIEWSTYLE
  2
AcDbSectionViewStyle
  3
ObjectDBX Classes
 90
1025
 91
0
280
0
281
0
  0
CLASS
  1
RASTERVARIABLES
  2
AcDbRasterVariables
  3
ISM
 90
0
 91
0
280
0
281
0
  0
CLASS
  1
LAYOUT
  2
AcDbLayout
  3
ObjectDBX Classes
 90
0
 91
0
280
0
281
0
  0
CLASS
  1
ACDBPLACEHOLDER
  2
AcDbPlaceHolder
  3
ObjectDBX Classes
 90
0
 91
0
280
0
281
0
  0
ENDSEC
  0
SECTION
  2
TABLES
  0
TABLE
  2
VPORT
  5
8
330
0
100
AcDbSymbolTable
 70
1
  0
VPORT
  5
23
330
8
100
AcDbSymbolTableRecord
100
AcDbViewportTableRecord
  2
*Active
 70
0
 10
0.0
 20
0.0
 11
1.0
 21
1.0
 12
0.0
 22
0.0
 13
0.0
 23
0.0
 14
0.5
 24
0.5
 15
0.5
 25
0.5
 16
0.0
 26
0.0
 36
1.0
 17
0.0
 27
0.0
 37
0.0
 40
1000.0
 41
1.34
 42
50.0
 43
0.0
 44
0.0
 50
0.0
 51
0.0
 71
0
 72
1000
 73
1
 74
3
 75
0
 76
0
 77
0
 78
0
281
0
 65
0
146
0.0
  0
ENDTAB
  0
TABLE
  2
LTYPE
  5
2
330
0
100
AcDbSymbolTable
 70
3
  0
LTYPE
  5
24
330
2
100
AcDbSymbolTableRecord
100
AcDbLinetypeTableRecord
  2
ByBlock
 70
0
  3

 72
65
 73
0
 40
0.0
  0
LTYPE
  5
25
330
2
100
AcDbSymbolTableRecord
100
AcDbLinetypeTableRecord
  2
ByLayer
 70
0
  3

 72
65
 73
0
 40
0.0
  0
LTYPE
  5
26
330
2
100
AcDbSymbolTableRecord
100
AcDbLinetypeTableRecord
  2
Continuous
 70
0
  3

 72
65
 73
0
 40
0.0
  0
ENDTAB
  0
TABLE
  2
LAYER
  5
1
330
0
100
AcDbSymbolTable
 70
2
  0
LAYER
  5
27
330
1
100
AcDbSymbolTableRecord
100
AcDbLayerTableRecord
  2
0
 70
0
 62
7
  6
Continuous
370
-3
390
13
347
21
  0
LAYER
  5
28
330
1
100
AcDbSymbolTableRecord
100
AcDbLayerTableRecord
  2
Defpoints
 70
0
 62
7
  6
Continuous
290
0
370
-3
390
13
347
21
  0
ENDTAB
  0
TABLE
  2
STYLE
  5
5
330
0
100
AcDbSymbolTable
 70
1
  0
STYLE
  5
29
330
5
100
AcDbSymbolTableRecord
100
AcDbTextStyleTableRecord
  2
Standard
 70
0
 40
0.0
 41
1.0
 50
0.0
 71
0
 42
2.5
  3
txt
  4

  0
ENDTAB
  0
TABLE
  2
VIEW
  5
7
330
0
100
AcDbSymbolTable
 70
0
  0
ENDTAB
  0
TABLE
  2
UCS
  5
6
330
0
100
AcDbSymbolTable
 70
0
  0
ENDTAB
  0
TABLE
  2
APPID
  5
3
330
0
100
AcDbSymbolTable
 70
3
  0
APPID
  5
2A
330
3
100
AcDbSymbolTableRecord
100
AcDbRegAppTableRecord
  2
ACAD
 70
0
  0
APPID
  5
38
330
3
100
AcDbSymbolTableRecord
100
AcDbRegAppTableRecord
  2
HATCHBACKGROUNDCOLOR
 70
0
  0
APPID
  5
39
330
3
100
AcDbSymbolTableRecord
100
AcDbRegAppTableRecord
  2
EZDXF
 70
0
  0
ENDTAB
  0
TABLE
  2
DIMSTYLE
  5
4
330
0
100
AcDbSymbolTable
 70
1
100
AcDbDimStyleTable
  0
DIMSTYLE
105
2B
330
4
100
AcDbSymbolTableRecord
100
AcDbDimStyleTableRecord
  2
Standard
 70
0
 40
1.0
 41
2.5
 42
0.625
 43
3.75
 44
1.25
 45
0.0
 46
0.0
 47
0.0
 48
0.0
 49
2.5
140
2.5
141
2.5
142
0.0
143
0.03937007874
144
1.0
145
0.0
146
1.0
147
0.625
148
0.0
 69
0
 70
0
 71
0
 72
0
 73
0
 74
0
 75
0
 76
0
 77
1
 78
8
 79
3
170
0
171
3
172
1
173
0
174
0
175
0
176
0
177
0
178
0
179
2
271
2
272
2
273
2
274
3
275
0
276
0
277
2
278
44
279
0
280
0
281
0
282
0
283
0
284
8
285
0
286
0
288
0
289
3
290
0
371
-2
372
-2
  0
ENDTAB
  0
TABLE
  2
BLOCK_RECORD
  5
9
330
0
100
AcDbSymbolTable
 70
2
  0
BLOCK_RECORD
  5
17
330
9
100
AcDbSymbolTableRecord
100
AcDbBlockTableRecord
  2
*Model_Space
340
1A
 70
0
280
1
281
0
  0
BLOCK_RECORD
  5
1B
330
9
100
AcDbSymbolTableRecord
100
AcDbBlockTableRecord
  2
*Paper_Space
340
1E
 70
0
280
1
281
0
  0
ENDTAB
  0
ENDSEC
  0
SECTION
  2
BLOCKS
  0
BLOCK
  5
18
330
17
100
AcDbEntity
  8
0
100
AcDbBlockBegin
  2
*Model_Space
 70
0
 10
0.0
 20
0.0
 30
0.0
  3
*Model_Space
  1

  0
ENDBLK
  5
19
330
17
100
AcDbEntity
  8
0
100
AcDbBlockEnd
  0
BLOCK
  5
1C
330
1B
100
AcDbEntity
  8
0
100
AcDbBlockBegin
  2
*Paper_Space
 70
0
 10
0.0
 20
0.0
 30
0.0
  3
*Paper_Space
  1

  0
ENDBLK
  5
1D
330
1B
100
AcDbEntity
  8
0
100
AcDbBlockEnd
  0
ENDSEC
  0
SECTION
  2
ENTITIES
  0
LWPOLYLINE
  5
2F
330
17
100
AcDbEntity
  8
0
100
AcDbPolyline
 90
51
 70
0
 10
-3.1999999999999984
 20
12.0
 10
-3.1999999999999984
 20
11.86
 10
-3.1999999999999984
 20
11.719999999999999
 10
-3.1999999999999984
 20
11.58
 10
-3.1999999999999984
 20
11.44
 10
-3.1999999999999984
 20
11.3
 10
-3.199999999999999
 20
11.16
 10
-3.199999999999999
 20
11.02
 10
-3.199999999999999
 20
10.879999999999999
 10
-3.199999999999999
 20
10.74
 10
-3.199999999999999
 20
10.6
 10
-3.199999999999999
 20
10.46
 10
-3.199999999999999
 20
10.32
 10
-3.199999999999999
 20
10.18
 10
-3.199999999999999
 20
10.04
 10
-3.199999999999999
 20
9.9
 10
-3.199999999999999
 20
9.76
 10
-3.199999999999999
 20
9.620000000000001
 10
-3.1999999999999993
 20
9.48
 10
-3.1999999999999993
 20
9.34
 10
-3.1999999999999993
 20
9.2
 10
-3.1999999999999993
 20
9.06
 10
-3.1999999999999993
 20
8.92
 10
-3.1999999999999993
 20
8.78
 10
-3.1999999999999993
 20
8.64
 10
-3.1999999999999993
 20
8.5
 10
-3.1999999999999993
 20
8.36
 10
-3.1999999999999993
 20
8.22
 10
-3.1999999999999993
 20
8.08
 10
-3.1999999999999993
 20
7.94
 10
-3.1999999999999993
 20
7.8
 10
-3.1999999999999997
 20
7.66
 10
-3.1999999999999997
 20
7.52
 10
-3.1999999999999997
 20
7.38
 10
-3.1999999999999997
 20
7.24
 10
-3.1999999999999997
 20
7.1
 10
-3.1999999999999997
 20
6.96
 10
-3.1999999999999997
 20
6.82
 10
-3.1999999999999997
 20
6.68
 10
-3.1999999999999997
 20
6.54
 10
-3.1999999999999997
 20
6.4
 10
-3.1999999999999997
 20
6.26
 10
-3.1999999999999997
 20
6.12
 10
-3.1999999999999997
 20
5.98
 10
-3.2
 20
5.84
 10
-3.2
 20
5.7
 10
-3.2
 20
5.56
 10
-3.2
 20
5.42
 10
-3.2
 20
5.28
 10
-3.2
 20
5.14
 10
-3.2
 20
5.0
  0
LWPOLYLINE
  5
30
330
17
100
AcDbEntity
  8
0
100
AcDbPolyline
 90
51
 70
0
 10
-17.2
 20
1.2221335055073718e-15
 10
-16.012
 20
1.1377210284990721e-15
 10
-14.823999999999998
 20
1.053308551490772e-15
 10
-13.636
 20
9.688960744824723e-16
 10
-12.447999999999999
 20
8.844835974741724e-16
 10
-11.259999999999998
 20
8.000711204658725e-16
 10
-10.072
 20
7.156586434575726e-16
 10
-8.883999999999999
 20
6.312461664492727e-16
 10
-7.695999999999998
 20
5.468336894409728e-16
 10
-6.507999999999999
 20
4.62421212432673e-16
 10
-5.3199999999999985
 20
3.780087354243731e-16
 10
-4.131999999999998
 20
2.9359625841607317e-16
 10
-2.9439999999999973
 20
2.0918378140777323e-16
 10
-1.7559999999999985
 20
1.2477130439947344e-16
 10
-0.5679999999999978
 20
4.0358827391173525e-17
 10
0.6200000000000045
 20
-4.405364961712652e-17
 10
1.8080000000000034
 20
-1.284661266254263e-16
 10
2.996000000000002
 20
-2.128786036337261e-16
 10
4.184000000000001
 20
-2.972910806420259e-16
 10
5.372000000000003
 20
-3.8170355765032595e-16
 10
6.560000000000002
 20
-4.661160346586258e-16
 10
7.748000000000001
 20
-5.505285116669255e-16
 10
8.936000000000003
 20
-6.349409886752256e-16
 10
10.124000000000002
 20
-7.193534656835254e-16
 10
11.312000000000005
 20
-8.037659426918254e-16
 10
12.500000000000004
 20
-8.881784197001252e-16
 10
13.688000000000002
 20
-9.72590896708425e-16
 10
14.876000000000001
 20
-1.0570033737167249e-15
 10
16.064000000000004
 20
-1.1414158507250248e-15
 10
17.252000000000006
 20
-1.2258283277333249e-15
 10
18.44000000000001
 20
-1.310240804741625e-15
 10
19.628000000000004
 20
-1.3946532817499245e-15
 10
20.816000000000006
 20
-1.4790657587582244e-15
 10
22.00400000000001
 20
-1.5634782357665245e-15
 10
23.192000000000004
 20
-1.647890712774824e-15
 10
24.38
 20
-1.7323031897831236e-15
 10
25.568
 20
-1.8167156667914235e-15
 10
26.756000000000004
 20
-1.901128143799724e-15
 10
27.944000000000006
 20
-1.9855406208080237e-15
 10
29.13200000000001
 20
-2.0699530978163236e-15
 10
30.320000000000004
 20
-2.154365574824623e-15
 10
31.508
 20
-2.238778051832923e-15
 10
32.696
 20
-2.3231905288412226e-15
 10
33.884
 20
-2.407603005849523e-15
 10
35.072
 20
-2.492015482857823e-15
 10
36.260000000000005
 20
-2.5764279598661227e-15
 10
37.44800000000001
 20
-2.660840436874423e-15
 10
38.63600000000001
 20
-2.745252913882723e-15
 10
39.82400000000001
 20
-2.829665390891023e-15
 10
41.012000000000015
 20
-2.914077867899323e-15
 10
42.2
 20
-2.998490344907622e-15
  0
LWPOLYLINE
  5
31
330
17
100
AcDbEntity
  8
0
100
AcDbPolyline
 90
51
 70
0
 10
42.2
 20
-2.99849034490762e-15
 10
42.2
 20
0.09999999999999705
 10
42.2
 20
0.1999999999999971
 10
42.2
 20
0.29999999999999716
 10
42.2
 20
0.3999999999999972
 10
42.2
 20
0.49999999999999734
 10
42.2
 20
0.5999999999999973
 10
42.2
 20
0.6999999999999974
 10
42.2
 20
0.7999999999999974
 10
42.2
 20
0.8999999999999975
 10
42.2
 20
0.9999999999999977
 10
42.2
 20
1.0999999999999974
 10
42.2
 20
1.1999999999999975
 10
42.2
 20
1.2999999999999974
 10
42.2
 20
1.3999999999999977
 10
42.2
 20
1.4999999999999978
 10
42.2
 20
1.5999999999999976
 10
42.2
 20
1.6999999999999977
 10
42.2
 20
1.7999999999999978
 10
42.2
 20
1.8999999999999981
 10
42.2
 20
1.9999999999999982
 10
42.2
 20
2.099999999999998
 10
42.2
 20
2.199999999999998
 10
42.2
 20
2.299999999999998
 10
42.2
 20
2.399999999999998
 10
42.2
 20
2.4999999999999982
 10
42.2
 20
2.599999999999998
 10
42.2
 20
2.6999999999999984
 10
42.2
 20
2.7999999999999985
 10
42.2
 20
2.8999999999999986
 10
42.2
 20
2.9999999999999987
 10
42.2
 20
3.0999999999999988
 10
42.2
 20
3.1999999999999984
 10
42.2
 20
3.2999999999999985
 10
42.2
 20
3.3999999999999986
 10
42.2
 20
3.4999999999999987
 10
42.2
 20
3.5999999999999988
 10
42.2
 20
3.6999999999999984
 10
42.2
 20
3.7999999999999994
 10
42.2
 20
3.899999999999999
 10
42.2
 20
4.0
 10
42.2
 20
4.1
 10
42.2
 20
4.199999999999999
 10
42.2
 20
4.3
 10
42.2
 20
4.3999999999999995
 10
42.2
 20
4.5
 10
42.2
 20
4.6
 10
42.2
 20
4.699999999999999
 10
42.2
 20
4.8
 10
42.2
 20
4.9
 10
42.2
 20
5.0
  0
LWPOLYLINE
  5
32
330
17
100
AcDbEntity
  8
0
100
AcDbPolyline
 90
51
 70
0
 10
-3.1999999999999993
 20
5.0
 10
-2.7360000000000007
 20
5.0
 10
-2.2719999999999985
 20
5.0
 10
-1.8079999999999998
 20
5.0
 10
-1.3440000000000012
 20
5.0
 10
-0.879999999999999
 20
5.0
 10
-0.41600000000000037
 20
5.0
 10
0.04800000000000182
 20
5.0
 10
0.5120000000000005
 20
5.0
 10
0.9759999999999991
 20
5.0
 10
1.4400000000000013
 20
5.0
 10
1.904
 20
5.0
 10
2.368000000000002
 20
5.0
 10
2.8320000000000007
 20
5.0
 10
3.2959999999999994
 20
5.0
 10
3.7600000000000016
 20
5.0
 10
4.224
 20
5.0
 10
4.688000000000002
 20
5.0
 10
5.152000000000001
 20
5.0
 10
5.616
 20
5.0
 10
6.079999999999998
 20
5.0
 10
6.5440000000000005
 20
5.0
 10
7.008000000000003
 20
5.0
 10
7.472000000000001
 20
5.0
 10
7.936
 20
5.0
 10
8.399999999999999
 20
5.0
 10
8.863999999999997
 20
5.0
 10
9.328
 20
5.0
 10
9.792000000000002
 20
5.0
 10
10.256
 20
5.0
 10
10.72
 20
5.0
 10
11.184
 20
5.0
 10
11.648
 20
5.0
 10
12.112000000000002
 20
5.0
 10
12.576
 20
5.0
 10
13.04
 20
5.0
 10
13.503999999999998
 20
5.0
 10
13.968
 20
5.0
 10
14.432000000000002
 20
5.0
 10
14.896
 20
5.0
 10
15.36
 20
5.0
 10
15.823999999999998
 20
5.0
 10
16.288
 20
5.0
 10
16.752000000000002
 20
5.0
 10
17.216
 20
5.0
 10
17.68
 20
5.0
 10
18.144000000000002
 20
5.0
 10
18.607999999999997
 20
5.0
 10
19.072
 20
5.0
 10
19.536
 20
5.0
 10
20.0
 20
5.0
  0
LWPOLYLINE
  5
33
330
17
100
AcDbEntity
  8
0
100
AcDbPolyline
 90
51
 70
0
 10
42.2
 20
5.0
 10
41.292
 20
5.0
 10
40.384
 20
5.0
 10
39.476
 20
5.0
 10
38.568
 20
5.0
 10
37.660000000000004
 20
5.0
 10
36.752
 20
5.0
 10
35.844
 20
5.0
 10
34.936
 20
5.0
 10
34.028000000000006
 20
5.0
 10
33.120000000000005
 20
5.0
 10
32.212
 20
5.0
 10
31.304000000000002
 20
5.0
 10
30.396
 20
5.0
 10
29.488
 20
5.0
 10
28.58
 20
5.0
 10
27.672
 20
5.0
 10
26.764000000000003
 20
5.0
 10
25.856
 20
5.0
 10
24.948
 20
5.0
 10
24.04
 20
5.0
 10
23.132
 20
5.0
 10
22.224
 20
5.0
 10
21.316000000000003
 20
5.0
 10
20.408
 20
5.0
 10
19.5
 20
5.0
 10
18.592000000000002
 20
5.0
 10
17.683999999999997
 20
5.0
 10
16.775999999999996
 20
5.0
 10
15.867999999999999
 20
5.0
 10
14.959999999999997
 20
5.0
 10
14.052
 20
5.0
 10
13.143999999999998
 20
5.0
 10
12.235999999999997
 20
5.0
 10
11.328
 20
5.0
 10
10.419999999999998
 20
5.0
 10
9.512
 20
5.0
 10
8.604
 20
5.0
 10
7.695999999999998
 20
5.0
 10
6.787999999999997
 20
5.0
 10
5.8799999999999955
 20
5.0
 10
4.971999999999994
 20
5.0
 10
4.064
 20
5.0
 10
3.155999999999999
 20
5.0
 10
2.2479999999999976
 20
5.0
 10
1.3399999999999963
 20
5.0
 10
0.43200000000000216
 20
5.0
 10
-0.4759999999999991
 20
5.0
 10
-1.3840000000000003
 20
5.0
 10
-2.2920000000000016
 20
5.0
 10
-3.200000000000003
 20
5.0
  0
LWPOLYLINE
  5
34
330
17
100
AcDbEntity
  8
0
100
AcDbPolyline
 90
51
 70
0
 10
-3.2
 20
5.0
 10
-3.2
 20
5.14
 10
-3.2
 20
5.28
 10
-3.2
 20
5.42
 10
-3.2
 20
5.5600000000000005
 10
-3.2
 20
5.7
 10
-3.2
 20
5.84
 10
-3.1999999999999997
 20
5.98
 10
-3.1999999999999997
 20
6.12
 10
-3.1999999999999997
 20
6.26
 10
-3.1999999999999997
 20
6.4
 10
-3.1999999999999997
 20
6.54
 10
-3.1999999999999997
 20
6.68
 10
-3.1999999999999997
 20
6.82
 10
-3.1999999999999997
 20
6.96
 10
-3.1999999999999997
 20
7.1
 10
-3.1999999999999997
 20
7.24
 10
-3.1999999999999997
 20
7.38
 10
-3.1999999999999997
 20
7.52
 10
-3.1999999999999997
 20
7.66
 10
-3.1999999999999993
 20
7.8
 10
-3.1999999999999993
 20
7.9399999999999995
 10
-3.1999999999999993
 20
8.08
 10
-3.1999999999999993
 20
8.22
 10
-3.1999999999999993
 20
8.36
 10
-3.1999999999999993
 20
8.5
 10
-3.1999999999999993
 20
8.64
 10
-3.1999999999999993
 20
8.78
 10
-3.1999999999999993
 20
8.92
 10
-3.1999999999999993
 20
9.059999999999999
 10
-3.1999999999999993
 20
9.2
 10
-3.1999999999999993
 20
9.34
 10
-3.1999999999999993
 20
9.48
 10
-3.199999999999999
 20
9.620000000000001
 10
-3.199999999999999
 20
9.76
 10
-3.199999999999999
 20
9.9
 10
-3.199999999999999
 20
10.04
 10
-3.199999999999999
 20
10.18
 10
-3.199999999999999
 20
10.32
 10
-3.199999999999999
 20
10.46
 10
-3.199999999999999
 20
10.6
 10
-3.199999999999999
 20
10.74
 10
-3.199999999999999
 20
10.879999999999999
 10
-3.199999999999999
 20
11.02
 10
-3.199999999999999
 20
11.16
 10
-3.1999999999999984
 20
11.3
 10
-3.1999999999999984
 20
11.440000000000001
 10
-3.1999999999999984
 20
11.58
 10
-3.1999999999999984
 20
11.719999999999999
 10
-3.1999999999999984
 20
11.86
 10
-3.1999999999999984
 20
12.0
  0
LWPOLYLINE
  5
35
330
17
100
AcDbEntity
  8
0
100
AcDbPolyline
 90
51
 70
0
 10
-3.1999999999999993
 20
11.999999999999998
 10
-3.2138129010020986
 20
12.439533636705189
 10
-3.255197090798654
 20
12.877332634950129
 10
-3.3239892448991784
 20
13.31166920210007
 10
-3.4199178720995818
 20
13.740829210153985
 10
-3.542604385933924
 20
14.16311896062463
 10
-3.6915645987822385
 20
14.576871868792741
 10
-3.8662106327378627
 20
14.980455040955508
 10
-4.065853239692952
 20
15.372275718712004
 10
-4.289704521485895
 20
15.750787564852978
 10
-4.536881039375366
 20
16.11449676604731
 10
-4.8064073005694725
 20
16.461967928240824
 10
-5.097219608050119
 20
16.79182974150082
 10
-5.408170258499177
 20
17.102780391949878
 10
-5.7380320717591715
 20
17.393592699430528
 10
-6.085503233952686
 20
17.66311896062463
 10
-6.44921243514702
 20
17.910295478514104
 10
-6.827724281287992
 20
18.134146760307047
 10
-7.219544959044488
 20
18.333789367262135
 10
-7.623128131207254
 20
18.50843540121776
 10
-8.036881039375366
 20
18.657395614066075
 10
-8.459170789846011
 20
18.780082127900418
 10
-8.888330797899926
 20
18.876010755100822
 10
-9.322667365049867
 20
18.944802909201343
 10
-9.760466363294807
 20
18.986187098997902
 10
-10.199999999999998
 20
19.0
 10
-10.639533636705188
 20
18.986187098997902
 10
-11.077332634950128
 20
18.944802909201346
 10
-11.51166920210007
 20
18.876010755100822
 10
-11.940829210153984
 20
18.780082127900418
 10
-12.363118960624629
 20
18.657395614066075
 10
-12.77687186879274
 20
18.50843540121776
 10
-13.180455040955508
 20
18.333789367262135
 10
-13.572275718712008
 20
18.134146760307043
 10
-13.950787564852977
 20
17.910295478514104
 10
-14.31449676604731
 20
17.663118960624633
 10
-14.661967928240824
 20
17.393592699430528
 10
-14.991829741500819
 20
17.10278039194988
 10
-15.302780391949877
 20
16.791829741500823
 10
-15.593592699430523
 20
16.461967928240828
 10
-15.863118960624629
 20
16.114496766047314
 10
-16.110295478514104
 20
15.75078756485298
 10
-16.334146760307043
 20
15.372275718712007
 10
-16.533789367262134
 20
14.980455040955512
 10
-16.70843540121776
 20
14.576871868792745
 10
-16.857395614066075
 20
14.163118960624633
 10
-16.980082127900417
 20
13.740829210153988
 10
-17.076010755100818
 20
13.311669202100074
 10
-17.144802909201346
 20
12.877332634950132
 10
-17.186187098997898
 20
12.439533636705193
 10
-17.2
 20
12.000000000000002
  0
LWPOLYLINE
  5
36
330
17
100
AcDbEntity
  8
0
100
AcDbPolyline
 90
51
 70
0
 10
-17.2
 20
12.0
 10
-17.2
 20
11.76
 10
-17.2
 20
11.52
 10
-17.2
 20
11.28
 10
-17.2
 20
11.04
 10
-17.2
 20
10.8
 10
-17.2
 20
10.56
 10
-17.2
 20
10.32
 10
-17.2
 20
10.08
 10
-17.2
 20
9.84
 10
-17.2
 20
9.6
 10
-17.2
 20
9.36
 10
-17.2
 20
9.120000000000001
 10
-17.2
 20
8.879999999999999
 10
-17.2
 20
8.64
 10
-17.2
 20
8.4
 10
-17.2
 20
8.16
 10
-17.2
 20
7.92
 10
-17.2
 20
7.68
 10
-17.2
 20
7.44
 10
-17.2
 20
7.2
 10
-17.2
 20
6.96
 10
-17.2
 20
6.72
 10
-17.2
 20
6.48
 10
-17.2
 20
6.24
 10
-17.2
 20
6.0
 10
-17.2
 20
5.76
 10
-17.2
 20
5.52
 10
-17.2
 20
5.28
 10
-17.2
 20
5.04
 10
-17.2
 20
4.8
 10
-17.2
 20
4.56
 10
-17.2
 20
4.32
 10
-17.2
 20
4.08
 10
-17.2
 20
3.84
 10
-17.2
 20
3.5999999999999996
 10
-17.2
 20
3.3599999999999994
 10
-17.2
 20
3.119999999999999
 10
-17.2
 20
2.880000000000001
 10
-17.2
 20
2.6400000000000006
 10
-17.2
 20
2.4000000000000004
 10
-17.2
 20
2.16
 10
-17.2
 20
1.92
 10
-17.2
 20
1.6799999999999997
 10
-17.2
 20
1.4399999999999995
 10
-17.2
 20
1.1999999999999993
 10
-17.2
 20
0.9600000000000009
 10
-17.2
 20
0.7200000000000006
 10
-17.2
 20
0.4800000000000004
 10
-17.2
 20
0.2400000000000002
 10
-17.2
 20
0.0
  0
LWPOLYLINE
  5
37
330
17
100
AcDbEntity
  8
0
100
AcDbPolyline
 90
51
 70
0
 10
-10.2
 20
16.0
 10
-10.701332934257216
 20
15.968458805257912
 10
-11.194759548659418
 20
15.874332644514524
 10
-11.672498210738711
 20
15.719105943553005
 10
-12.12701469640686
 20
15.505226720175454
 10
-12.551141009169893
 20
15.23606797749979
 10
-12.938188423714754
 20
14.915874509685647
 10
-13.282052971103155
 20
14.549695958994759
 10
-13.57731170200806
 20
14.143307179915986
 10
-13.819308209864078
 20
13.703117166260292
 10
-14.004226065180614
 20
13.23606797749979
 10
-14.129149002914755
 20
12.7495252583429
 10
-14.192106913713086
 20
12.251162078117254
 10
-14.192106913713086
 20
11.748837921882746
 10
-14.129149002914755
 20
11.2504747416571
 10
-14.004226065180614
 20
10.763932022500212
 10
-13.819308209864078
 20
10.296882833739708
 10
-13.577311702008059
 20
9.856692820084012
 10
-13.282052971103155
 20
9.450304041005241
 10
-12.938188423714754
 20
9.084125490314355
 10
-12.551141009169893
 20
8.76393202250021
 10
-12.12701469640686
 20
8.494773279824546
 10
-11.672498210738713
 20
8.280894056446995
 10
-11.19475954865942
 20
8.125667355485476
 10
-10.701332934257218
 20
8.03154119474209
 10
-10.2
 20
8.0
 10
-9.698667065742782
 20
8.031541194742088
 10
-9.20524045134058
 20
8.125667355485476
 10
-8.727501789261288
 20
8.280894056446995
 10
-8.272985303593138
 20
8.494773279824546
 10
-7.8488589908301085
 20
8.763932022500208
 10
-7.461811576285246
 20
9.084125490314353
 10
-7.117947028896841
 20
9.450304041005243
 10
-6.822688297991938
 20
9.856692820084014
 10
-6.58069179013592
 20
10.296882833739712
 10
-6.395773934819385
 20
10.76393202250021
 10
-6.270850997085244
 20
11.2504747416571
 10
-6.207893086286913
 20
11.748837921882748
 10
-6.207893086286913
 20
12.251162078117252
 10
-6.270850997085244
 20
12.749525258342898
 10
-6.395773934819385
 20
13.23606797749979
 10
-6.580691790135919
 20
13.703117166260288
 10
-6.82268829799194
 20
14.143307179915986
 10
-7.117947028896841
 20
14.549695958994757
 10
-7.4618115762852435
 20
14.915874509685645
 10
-7.848858990830106
 20
15.23606797749979
 10
-8.272985303593135
 20
15.505226720175452
 10
-8.727501789261288
 20
15.719105943553005
 10
-9.205240451340577
 20
15.874332644514524
 10
-9.69866706574278
 20
15.96845880525791
 10
-10.199999999999998
 20
16.0
  0
ENDSEC
  0
SECTION
  2
OBJECTS
  0
DICTIONARY
  5
A
330
0
100
AcDbDictionary
280
0
281
1
  3
ACAD_COLOR
350
B
  3
ACAD_GROUP
350
C
  3
ACAD_LAYOUT
350
D
  3
ACAD_MATERIAL
350
E
  3
ACAD_MLEADERSTYLE
350
F
  3
ACAD_MLINESTYLE
350
10
  3
ACAD_PLOTSETTINGS
350
11
  3
ACAD_PLOTSTYLENAME
350
12
  3
ACAD_SCALELIST
350
14
  3
ACAD_TABLESTYLE
350
15
  3
ACAD_VISUALSTYLE
350
16
  3
EZDXF_META
350
2D
  0
DICTIONARY
  5
B
330
A
100
AcDbDictionary
280
0
281
1
  0
DICTIONARY
  5
C
330
A
100
AcDbDictionary
280
0
281
1
  0
DICTIONARY
  5
D
330
A
100
AcDbDictionary
280
0
281
1
  3
Model
350
1A
  3
Layout1
350
1E
  0
DICTIONARY
  5
E
330
A
100
AcDbDictionary
280
0
281
1
  3
ByBlock
350
1F
  3
ByLayer
350
20
  3
Global
350
21
  0
DICTIONARY
  5
F
330
A
100
AcDbDictionary
280
0
281
1
  3
Standard
350
2C
  0
DICTIONARY
  5
10
330
A
100
AcDbDictionary
280
0
281
1
  3
Standard
350
22
  0
DICTIONARY
  5
11
330
A
100
AcDbDictionary
280
0
281
1
  0
ACDBDICTIONARYWDFLT
  5
12
330
A
100
AcDbDictionary
280
0
281
1
  3
Normal
350
13
100
AcDbDictionaryWithDefault
340
13
  0
ACDBPLACEHOLDER
  5
13
330
12
  0
DICTIONARY
  5
14
330
A
100
AcDbDictionary
280
0
281
1
  0
DICTIONARY
  5
15
330
A
100
AcDbDictionary
280
0
281
1
  0
DICTIONARY
  5
16
330
A
100
AcDbDictionary
280
0
281
1
  0
LAYOUT
  5
1A
330
D
100
AcDbPlotSettings
  1

  2
Adobe PDF
  4
A3
  6

 40
7.5
 41
20.0
 42
7.5
 43
20.0
 44
420.0
 45
297.0
 46
0.0
 47
0.0
 48
0.0
 49
0.0
140
0.0
141
0.0
142
1.0
143
1.0
 70
1024
 72
1
 73
0
 74
5
  7

 75
16
 76
0
 77
2
 78
300
147
1.0
148
0.0
149
0.0
100
AcDbLayout
  1
Model
 70
1
 71
0
 10
0.0
 20
0.0
 11
420.0
 21
297.0
 12
0.0
 22
0.0
 32
0.0
 14
1e+20
 24
1e+20
 34
1e+20
 15
-1e+20
 25
-1e+20
 35
-1e+20
146
0.0
 13
0.0
 23
0.0
 33
0.0
 16
1.0
 26
0.0
 36
0.0
 17
0.0
 27
1.0
 37
0.0
 76
1
330
17
  0
LAYOUT
  5
1E
330
D
100
AcDbPlotSettings
  1

  2
Adobe PDF
  4
A3
  6

 40
7.5
 41
20.0
 42
7.5
 43
20.0
 44
420.0
 45
297.0
 46
0.0
 47
0.0
 48
0.0
 49
0.0
140
0.0
141
0.0
142
1.0
143
1.0
 70
0
 72
1
 73
0
 74
5
  7

 75
16
 76
0
 77
2
 78
300
147
1.0
148
0.0
149
0.0
100
AcDbLayout
  1
Layout1
 70
1
 71
1
 10
0.0
 20
0.0
 11
420.0
 21
297.0
 12
0.0
 22
0.0
 32
0.0
 14
1e+20
 24
1e+20
 34
1e+20
 15
-1e+20
 25
-1e+20
 35
-1e+20
146
0.0
 13
0.0
 23
0.0
 33
0.0
 16
1.0
 26
0.0
 36
0.0
 17
0.0
 27
1.0
 37
0.0
 76
1
330
1B
  0
MATERIAL
  5
1F
102
{ACAD_REACTORS
330
E
102
}
330
E
100
AcDbMaterial
  1
ByBlock
  2

 70
0
 40
1.0
 71
1
 41
1.0
 91
-1023410177
 42
1.0
 72
1
  3

 73
1
 74
1
 75
1
 44
0.5
 73
0
 45
1.0
 46
1.0
 77
1
  4

 78
1
 79
1
170
1
 48
1.0
171
1
  6

172
1
173
1
174
1
140
1.0
141
1.0
175
1
  7

176
1
177
1
178
1
143
1.0
179
1
  8

270
1
271
1
272
1
145
1.0
146
1.0
273
1
  9

274
1
275
1
276
1
 42
1.0
 72
1
  3

 73
1
 74
1
 75
1
 94
63
  0
MATERIAL
  5
20
102
{ACAD_REACTORS
330
E
102
}
330
E
100
AcDbMaterial
  1
ByLayer
  2

 70
0
 40
1.0
 71
1
 41
1.0
 91
-1023410177
 42
1.0
 72
1
  3

 73
1
 74
1
 75
1
 44
0.5
 73
0
 45
1.0
 46
1.0
 77
1
  4

 78
1
 79
1
170
1
 48
1.0
171
1
  6

172
1
173
1
174
1
140
1.0
141
1.0
175
1
  7

176
1
177
1
178
1
143
1.0
179
1
  8

270
1
271
1
272
1
145
1.0
146
1.0
273
1
  9

274
1
275
1
276
1
 42
1.0
 72
1
  3

 73
1
 74
1
 75
1
 94
63
  0
MATERIAL
  5
21
102
{ACAD_REACTORS
330
E
102
}
330
E
100
AcDbMaterial
  1
Global
  2

 70
0
 40
1.0
 71
1
 41
1.0
 91
-1023410177
 42
1.0
 72
1
  3

 73
1
 74
1
 75
1
 44
0.5
 73
0
 45
1.0
 46
1.0
 77
1
  4

 78
1
 79
1
170
1
 48
1.0
171
1
  6

172
1
173
1
174
1
140
1.0
141
1.0
175
1
  7

176
1
177
1
178
1
143
1.0
179
1
  8

270
1
271
1
272
1
145
1.0
146
1.0
273
1
  9

274
1
275
1
276
1
 42
1.0
 72
1
  3

 73
1
 74
1
 75
1
 94
63
  0
MLINESTYLE
  5
22
102
{ACAD_REACTORS
330
10
102
}
330
10
100
AcDbMlineStyle
  2
Standard
 70
0
  3

 62
256
 51
90.0
 52
90.0
 71
2
 49
0.5
 62
256
  6
BYLAYER
 49
-0.5
 62
256
  6
BYLAYER
  0
MLEADERSTYLE
  5
2C
102
{ACAD_REACTORS
330
F
102
}
330
F
100
AcDbMLeaderStyle
179
2
170
2
171
1
172
0
 90
2
 40
0.0
 41
0.0
173
1
 91
-1056964608
 92
-2
290
1
 42
2.0
291
1
 43
8.0
  3
Standard
 44
4.0
300

342
29
174
1
175
1
176
0
178
1
 93
-1056964608
 45
4.0
292
0
297
0
 46
4.0
 94
-1056964608
 47
1.0
 49
1.0
140
1.0
294
1
141
0.0
177
0
142
1.0
295
0
296
0
143
3.75
271
0
272
9
273
9
  0
DICTIONARY
  5
2D
330
A
100
AcDbDictionary
281
1
  3
CREATED_BY_EZDXF
350
2E
  3
WRITTEN_BY_EZDXF
350
3A
  0
DICTIONARYVAR
  5
2E
330
2D
100
DictionaryVariables
280
0
  1
1.0.3 @ 2025-05-29T09:38:53.342751+00:00
  0
DICTIONARYVAR
  5
3A
330
2D
100
DictionaryVariables
280
0
  1
1.0.3 @ 2025-05-29T09:38:53.346751+00:00
  0
ENDSEC
  0
EOF
