  0
SECTION
  2
HEADER
  9
$ACADVER
  1
AC1027
  9
$ACADMAINTVER
 70
105
  9
$DWGCODEPAGE
  3
ANSI_1252
  9
$LASTSAVEDBY
  1
ezdxf
  9
$REQUIREDVERSIONS
160
0
  9
$INSBASE
 10
0.0
 20
0.0
 30
0.0
  9
$EXTMIN
 10
1e+20
 20
1e+20
 30
1e+20
  9
$EXTMAX
 10
-1e+20
 20
-1e+20
 30
-1e+20
  9
$LIMMIN
 10
0.0
 20
0.0
  9
$LIMMAX
 10
420.0
 20
297.0
  9
$ORTHOMODE
 70
0
  9
$REGENMODE
 70
1
  9
$FILLMODE
 70
1
  9
$QTEXTMODE
 70
0
  9
$MIRRTEXT
 70
1
  9
$LTSCALE
 40
1.0
  9
$ATTMODE
 70
1
  9
$TEXTSIZE
 40
2.5
  9
$TRACEWID
 40
1.0
  9
$TEXTSTYLE
  7
Standard
  9
$CLAYER
  8
0
  9
$CELTYPE
  6
ByLayer
  9
$CECOLOR
 62
256
  9
$CELTSCALE
 40
1.0
  9
$DISPSILH
 70
0
  9
$DIMSCALE
 40
1.0
  9
$DIMASZ
 40
2.5
  9
$DIMEXO
 40
0.625
  9
$DIMDLI
 40
3.75
  9
$DIMRND
 40
0.0
  9
$DIMDLE
 40
0.0
  9
$DIMEXE
 40
1.25
  9
$DIMTP
 40
0.0
  9
$DIMTM
 40
0.0
  9
$DIMTXT
 40
2.5
  9
$DIMCEN
 40
2.5
  9
$DIMTSZ
 40
0.0
  9
$DIMTOL
 70
0
  9
$DIMLIM
 70
0
  9
$DIMTIH
 70
0
  9
$DIMTOH
 70
0
  9
$DIMSE1
 70
0
  9
$DIMSE2
 70
0
  9
$DIMTAD
 70
1
  9
$DIMZIN
 70
8
  9
$DIMBLK
  1

  9
$DIMASO
 70
1
  9
$DIMSHO
 70
1
  9
$DIMPOST
  1

  9
$DIMAPOST
  1

  9
$DIMALT
 70
0
  9
$DIMALTD
 70
3
  9
$DIMALTF
 40
0.03937007874
  9
$DIMLFAC
 40
1.0
  9
$DIMTOFL
 70
1
  9
$DIMTVP
 40
0.0
  9
$DIMTIX
 70
0
  9
$DIMSOXD
 70
0
  9
$DIMSAH
 70
0
  9
$DIMBLK1
  1

  9
$DIMBLK2
  1

  9
$DIMSTYLE
  2
ISO-25
  9
$DIMCLRD
 70
0
  9
$DIMCLRE
 70
0
  9
$DIMCLRT
 70
0
  9
$DIMTFAC
 40
1.0
  9
$DIMGAP
 40
0.625
  9
$DIMJUST
 70
0
  9
$DIMSD1
 70
0
  9
$DIMSD2
 70
0
  9
$DIMTOLJ
 70
0
  9
$DIMTZIN
 70
8
  9
$DIMALTZ
 70
0
  9
$DIMALTTZ
 70
0
  9
$DIMUPT
 70
0
  9
$DIMDEC
 70
2
  9
$DIMTDEC
 70
2
  9
$DIMALTU
 70
2
  9
$DIMALTTD
 70
3
  9
$DIMTXSTY
  7
Standard
  9
$DIMAUNIT
 70
0
  9
$DIMADEC
 70
0
  9
$DIMALTRND
 40
0.0
  9
$DIMAZIN
 70
0
  9
$DIMDSEP
 70
44
  9
$DIMATFIT
 70
3
  9
$DIMFRAC
 70
0
  9
$DIMLDRBLK
  1

  9
$DIMLUNIT
 70
2
  9
$DIMLWD
 70
-2
  9
$DIMLWE
 70
-2
  9
$DIMTMOVE
 70
0
  9
$DIMFXL
 40
1.0
  9
$DIMFXLON
 70
0
  9
$DIMJOGANG
 40
0.785398163397
  9
$DIMTFILL
 70
0
  9
$DIMTFILLCLR
 70
0
  9
$DIMARCSYM
 70
0
  9
$DIMLTYPE
  6

  9
$DIMLTEX1
  6

  9
$DIMLTEX2
  6

  9
$DIMTXTDIRECTION
 70
0
  9
$LUNITS
 70
2
  9
$LUPREC
 70
4
  9
$SKETCHINC
 40
1.0
  9
$FILLETRAD
 40
10.0
  9
$AUNITS
 70
0
  9
$AUPREC
 70
2
  9
$MENU
  1
.
  9
$ELEVATION
 40
0.0
  9
$PELEVATION
 40
0.0
  9
$THICKNESS
 40
0.0
  9
$LIMCHECK
 70
0
  9
$CHAMFERA
 40
0.0
  9
$CHAMFERB
 40
0.0
  9
$CHAMFERC
 40
0.0
  9
$CHAMFERD
 40
0.0
  9
$SKPOLY
 70
0
  9
$TDCREATE
 40
2460825.7773842593
  9
$TDUCREATE
 40
2458532.153996898
  9
$TDUPDATE
 40
2460825.7773842593
  9
$TDUUPDATE
 40
2458532.1544311
  9
$TDINDWG
 40
0.0
  9
$TDUSRTIMER
 40
0.0
  9
$USRTIMER
 70
1
  9
$ANGBASE
 50
0.0
  9
$ANGDIR
 70
0
  9
$PDMODE
 70
0
  9
$PDSIZE
 40
0.0
  9
$PLINEWID
 40
0.0
  9
$SPLFRAME
 70
0
  9
$SPLINETYPE
 70
6
  9
$SPLINESEGS
 70
8
  9
$HANDSEED
  5
4D
  9
$SURFTAB1
 70
6
  9
$SURFTAB2
 70
6
  9
$SURFTYPE
 70
6
  9
$SURFU
 70
6
  9
$SURFV
 70
6
  9
$UCSBASE
  2

  9
$UCSNAME
  2

  9
$UCSORG
 10
0.0
 20
0.0
 30
0.0
  9
$UCSXDIR
 10
1.0
 20
0.0
 30
0.0
  9
$UCSYDIR
 10
0.0
 20
1.0
 30
0.0
  9
$UCSORTHOREF
  2

  9
$UCSORTHOVIEW
 70
0
  9
$UCSORGTOP
 10
0.0
 20
0.0
 30
0.0
  9
$UCSORGBOTTOM
 10
0.0
 20
0.0
 30
0.0
  9
$UCSORGLEFT
 10
0.0
 20
0.0
 30
0.0
  9
$UCSORGRIGHT
 10
0.0
 20
0.0
 30
0.0
  9
$UCSORGFRONT
 10
0.0
 20
0.0
 30
0.0
  9
$UCSORGBACK
 10
0.0
 20
0.0
 30
0.0
  9
$PUCSBASE
  2

  9
$PUCSNAME
  2

  9
$PUCSORG
 10
0.0
 20
0.0
 30
0.0
  9
$PUCSXDIR
 10
1.0
 20
0.0
 30
0.0
  9
$PUCSYDIR
 10
0.0
 20
1.0
 30
0.0
  9
$PUCSORTHOREF
  2

  9
$PUCSORTHOVIEW
 70
0
  9
$PUCSORGTOP
 10
0.0
 20
0.0
 30
0.0
  9
$PUCSORGBOTTOM
 10
0.0
 20
0.0
 30
0.0
  9
$PUCSORGLEFT
 10
0.0
 20
0.0
 30
0.0
  9
$PUCSORGRIGHT
 10
0.0
 20
0.0
 30
0.0
  9
$PUCSORGFRONT
 10
0.0
 20
0.0
 30
0.0
  9
$PUCSORGBACK
 10
0.0
 20
0.0
 30
0.0
  9
$USERI1
 70
0
  9
$USERI2
 70
0
  9
$USERI3
 70
0
  9
$USERI4
 70
0
  9
$USERI5
 70
0
  9
$USERR1
 40
0.0
  9
$USERR2
 40
0.0
  9
$USERR3
 40
0.0
  9
$USERR4
 40
0.0
  9
$USERR5
 40
0.0
  9
$WORLDVIEW
 70
1
  9
$SHADEDGE
 70
3
  9
$SHADEDIF
 70
70
  9
$TILEMODE
 70
1
  9
$MAXACTVP
 70
64
  9
$PINSBASE
 10
0.0
 20
0.0
 30
0.0
  9
$PLIMCHECK
 70
0
  9
$PEXTMIN
 10
1e+20
 20
1e+20
 30
1e+20
  9
$PEXTMAX
 10
-1e+20
 20
-1e+20
 30
-1e+20
  9
$PLIMMIN
 10
0.0
 20
0.0
  9
$PLIMMAX
 10
420.0
 20
297.0
  9
$UNITMODE
 70
0
  9
$VISRETAIN
 70
1
  9
$PLINEGEN
 70
0
  9
$PSLTSCALE
 70
1
  9
$TREEDEPTH
 70
3020
  9
$CMLSTYLE
  2
Standard
  9
$CMLJUST
 70
0
  9
$CMLSCALE
 40
20.0
  9
$PROXYGRAPHICS
 70
1
  9
$MEASUREMENT
 70
1
  9
$CELWEIGHT
370
-1
  9
$ENDCAPS
280
0
  9
$JOINSTYLE
280
0
  9
$LWDISPLAY
290
0
  9
$INSUNITS
 70
6
  9
$HYPERLINKBASE
  1

  9
$STYLESHEET
  1

  9
$XEDIT
290
1
  9
$CEPSNTYPE
380
0
  9
$PSTYLEMODE
290
1
  9
$FINGERPRINTGUID
  2
{857EB592-EE15-4C38-9135-273010E8C2A7}
  9
$VERSIONGUID
  2
{705DB7E4-D006-4F67-AF00-AFFE1EAD349C}
  9
$EXTNAMES
290
1
  9
$PSVPSCALE
 40
0.0
  9
$OLESTARTUP
290
0
  9
$SORTENTS
280
127
  9
$INDEXCTL
280
0
  9
$HIDETEXT
280
1
  9
$XCLIPFRAME
280
0
  9
$HALOGAP
280
0
  9
$OBSCOLOR
 70
257
  9
$OBSLTYPE
280
0
  9
$INTERSECTIONDISPLAY
280
0
  9
$INTERSECTIONCOLOR
 70
257
  9
$DIMASSOC
280
2
  9
$PROJECTNAME
  1

  9
$CAMERADISPLAY
290
0
  9
$LENSLENGTH
 40
50.0
  9
$CAMERAHEIGHT
 40
0.0
  9
$STEPSPERSEC
 40
24.0
  9
$STEPSIZE
 40
100.0
  9
$3DDWFPREC
 40
2.0
  9
$PSOLWIDTH
 40
0.005
  9
$PSOLHEIGHT
 40
0.08
  9
$LOFTANG1
 40
1.570796326795
  9
$LOFTANG2
 40
1.570796326795
  9
$LOFTMAG1
 40
0.0
  9
$LOFTMAG2
 40
0.0
  9
$LOFTPARAM
 70
7
  9
$LOFTNORMALS
280
1
  9
$LATITUDE
 40
37.795
  9
$LONGITUDE
 40
-122.394
  9
$NORTHDIRECTION
 40
0.0
  9
$TIMEZONE
 70
-8000
  9
$LIGHTGLYPHDISPLAY
280
1
  9
$TILEMODELIGHTSYNCH
280
1
  9
$CMATERIAL
347
20
  9
$SOLIDHIST
280
0
  9
$SHOWHIST
280
1
  9
$DWFFRAME
280
2
  9
$DGNFRAME
280
2
  9
$REALWORLDSCALE
290
1
  9
$INTERFERECOLOR
 62
256
  9
$CSHADOW
280
0
  9
$SHADOWPLANELOCATION
 40
0.0
  0
ENDSEC
  0
SECTION
  2
CLASSES
  0
CLASS
  1
ACDBDICTIONARYWDFLT
  2
AcDbDictionaryWithDefault
  3
ObjectDBX Classes
 90
0
 91
0
280
0
281
0
  0
CLASS
  1
SUN
  2
AcDbSun
  3
SCENEOE
 90
1153
 91
0
280
0
281
0
  0
CLASS
  1
VISUALSTYLE
  2
AcDbVisualStyle
  3
ObjectDBX Classes
 90
4095
 91
0
280
0
281
0
  0
CLASS
  1
MATERIAL
  2
AcDbMaterial
  3
ObjectDBX Classes
 90
1153
 91
0
280
0
281
0
  0
CLASS
  1
SCALE
  2
AcDbScale
  3
ObjectDBX Classes
 90
1153
 91
0
280
0
281
0
  0
CLASS
  1
TABLESTYLE
  2
AcDbTableStyle
  3
ObjectDBX Classes
 90
4095
 91
0
280
0
281
0
  0
CLASS
  1
MLEADERSTYLE
  2
AcDbMLeaderStyle
  3
ACDB_MLEADERSTYLE_CLASS
 90
4095
 91
0
280
0
281
0
  0
CLASS
  1
DICTIONARYVAR
  2
AcDbDictionaryVar
  3
ObjectDBX Classes
 90
0
 91
0
280
0
281
0
  0
CLASS
  1
CELLSTYLEMAP
  2
AcDbCellStyleMap
  3
ObjectDBX Classes
 90
1152
 91
0
280
0
281
0
  0
CLASS
  1
MENTALRAYRENDERSETTINGS
  2
AcDbMentalRayRenderSettings
  3
SCENEOE
 90
1024
 91
0
280
0
281
0
  0
CLASS
  1
ACDBDETAILVIEWSTYLE
  2
AcDbDetailViewStyle
  3
ObjectDBX Classes
 90
1025
 91
0
280
0
281
0
  0
CLASS
  1
ACDBSECTIONVIEWSTYLE
  2
AcDbSectionViewStyle
  3
ObjectDBX Classes
 90
1025
 91
0
280
0
281
0
  0
CLASS
  1
RASTERVARIABLES
  2
AcDbRasterVariables
  3
ISM
 90
0
 91
0
280
0
281
0
  0
CLASS
  1
LAYOUT
  2
AcDbLayout
  3
ObjectDBX Classes
 90
0
 91
0
280
0
281
0
  0
CLASS
  1
ACDBPLACEHOLDER
  2
AcDbPlaceHolder
  3
ObjectDBX Classes
 90
0
 91
0
280
0
281
0
  0
ENDSEC
  0
SECTION
  2
TABLES
  0
TABLE
  2
VPORT
  5
8
330
0
100
AcDbSymbolTable
 70
1
  0
VPORT
  5
23
330
8
100
AcDbSymbolTableRecord
100
AcDbViewportTableRecord
  2
*Active
 70
0
 10
0.0
 20
0.0
 11
1.0
 21
1.0
 12
0.0
 22
0.0
 13
0.0
 23
0.0
 14
0.5
 24
0.5
 15
0.5
 25
0.5
 16
0.0
 26
0.0
 36
1.0
 17
0.0
 27
0.0
 37
0.0
 40
1000.0
 41
1.34
 42
50.0
 43
0.0
 44
0.0
 50
0.0
 51
0.0
 71
0
 72
1000
 73
1
 74
3
 75
0
 76
0
 77
0
 78
0
281
0
 65
0
146
0.0
  0
ENDTAB
  0
TABLE
  2
LTYPE
  5
2
330
0
100
AcDbSymbolTable
 70
3
  0
LTYPE
  5
24
330
2
100
AcDbSymbolTableRecord
100
AcDbLinetypeTableRecord
  2
ByBlock
 70
0
  3

 72
65
 73
0
 40
0.0
  0
LTYPE
  5
25
330
2
100
AcDbSymbolTableRecord
100
AcDbLinetypeTableRecord
  2
ByLayer
 70
0
  3

 72
65
 73
0
 40
0.0
  0
LTYPE
  5
26
330
2
100
AcDbSymbolTableRecord
100
AcDbLinetypeTableRecord
  2
Continuous
 70
0
  3

 72
65
 73
0
 40
0.0
  0
ENDTAB
  0
TABLE
  2
LAYER
  5
1
330
0
100
AcDbSymbolTable
 70
2
  0
LAYER
  5
27
330
1
100
AcDbSymbolTableRecord
100
AcDbLayerTableRecord
  2
0
 70
0
 62
7
  6
Continuous
370
-3
390
13
347
21
  0
LAYER
  5
28
330
1
100
AcDbSymbolTableRecord
100
AcDbLayerTableRecord
  2
Defpoints
 70
0
 62
7
  6
Continuous
290
0
370
-3
390
13
347
21
  0
ENDTAB
  0
TABLE
  2
STYLE
  5
5
330
0
100
AcDbSymbolTable
 70
1
  0
STYLE
  5
29
330
5
100
AcDbSymbolTableRecord
100
AcDbTextStyleTableRecord
  2
Standard
 70
0
 40
0.0
 41
1.0
 50
0.0
 71
0
 42
2.5
  3
txt
  4

  0
ENDTAB
  0
TABLE
  2
VIEW
  5
7
330
0
100
AcDbSymbolTable
 70
0
  0
ENDTAB
  0
TABLE
  2
UCS
  5
6
330
0
100
AcDbSymbolTable
 70
0
  0
ENDTAB
  0
TABLE
  2
APPID
  5
3
330
0
100
AcDbSymbolTable
 70
3
  0
APPID
  5
2A
330
3
100
AcDbSymbolTableRecord
100
AcDbRegAppTableRecord
  2
ACAD
 70
0
  0
APPID
  5
4A
330
3
100
AcDbSymbolTableRecord
100
AcDbRegAppTableRecord
  2
HATCHBACKGROUNDCOLOR
 70
0
  0
APPID
  5
4B
330
3
100
AcDbSymbolTableRecord
100
AcDbRegAppTableRecord
  2
EZDXF
 70
0
  0
ENDTAB
  0
TABLE
  2
DIMSTYLE
  5
4
330
0
100
AcDbSymbolTable
 70
1
100
AcDbDimStyleTable
  0
DIMSTYLE
105
2B
330
4
100
AcDbSymbolTableRecord
100
AcDbDimStyleTableRecord
  2
Standard
 70
0
 40
1.0
 41
2.5
 42
0.625
 43
3.75
 44
1.25
 45
0.0
 46
0.0
 47
0.0
 48
0.0
 49
2.5
140
2.5
141
2.5
142
0.0
143
0.03937007874
144
1.0
145
0.0
146
1.0
147
0.625
148
0.0
 69
0
 70
0
 71
0
 72
0
 73
0
 74
0
 75
0
 76
0
 77
1
 78
8
 79
3
170
0
171
3
172
1
173
0
174
0
175
0
176
0
177
0
178
0
179
2
271
2
272
2
273
2
274
3
275
0
276
0
277
2
278
44
279
0
280
0
281
0
282
0
283
0
284
8
285
0
286
0
288
0
289
3
290
0
371
-2
372
-2
  0
ENDTAB
  0
TABLE
  2
BLOCK_RECORD
  5
9
330
0
100
AcDbSymbolTable
 70
2
  0
BLOCK_RECORD
  5
17
330
9
100
AcDbSymbolTableRecord
100
AcDbBlockTableRecord
  2
*Model_Space
340
1A
 70
0
280
1
281
0
  0
BLOCK_RECORD
  5
1B
330
9
100
AcDbSymbolTableRecord
100
AcDbBlockTableRecord
  2
*Paper_Space
340
1E
 70
0
280
1
281
0
  0
ENDTAB
  0
ENDSEC
  0
SECTION
  2
BLOCKS
  0
BLOCK
  5
18
330
17
100
AcDbEntity
  8
0
100
AcDbBlockBegin
  2
*Model_Space
 70
0
 10
0.0
 20
0.0
 30
0.0
  3
*Model_Space
  1

  0
ENDBLK
  5
19
330
17
100
AcDbEntity
  8
0
100
AcDbBlockEnd
  0
BLOCK
  5
1C
330
1B
100
AcDbEntity
  8
0
100
AcDbBlockBegin
  2
*Paper_Space
 70
0
 10
0.0
 20
0.0
 30
0.0
  3
*Paper_Space
  1

  0
ENDBLK
  5
1D
330
1B
100
AcDbEntity
  8
0
100
AcDbBlockEnd
  0
ENDSEC
  0
SECTION
  2
ENTITIES
  0
LWPOLYLINE
  5
2F
330
17
100
AcDbEntity
  8
0
100
AcDbPolyline
 90
51
 70
0
 10
-46.0
 20
27.5
 10
-46.0
 20
26.95
 10
-46.0
 20
26.4
 10
-46.0
 20
25.85
 10
-46.0
 20
25.3
 10
-46.0
 20
24.75
 10
-46.0
 20
24.2
 10
-46.0
 20
23.65
 10
-46.0
 20
23.1
 10
-46.0
 20
22.55
 10
-46.0
 20
22.0
 10
-46.0
 20
21.45
 10
-46.0
 20
20.9
 10
-46.0
 20
20.35
 10
-46.0
 20
19.8
 10
-46.0
 20
19.25
 10
-46.0
 20
18.7
 10
-46.0
 20
18.15
 10
-46.0
 20
17.6
 10
-46.0
 20
17.05
 10
-46.0
 20
16.5
 10
-46.0
 20
15.95
 10
-46.0
 20
15.4
 10
-46.0
 20
14.85
 10
-46.0
 20
14.3
 10
-46.0
 20
13.75
 10
-46.0
 20
13.2
 10
-46.0
 20
12.65
 10
-46.0
 20
12.1
 10
-46.0
 20
11.55
 10
-46.0
 20
11.0
 10
-46.0
 20
10.45
 10
-46.0
 20
9.899999999999999
 10
-46.0
 20
9.350000000000001
 10
-46.0
 20
8.8
 10
-46.0
 20
8.25
 10
-46.0
 20
7.699999999999999
 10
-46.0
 20
7.149999999999999
 10
-46.0
 20
6.600000000000001
 10
-46.0
 20
6.050000000000001
 10
-46.0
 20
5.5
 10
-46.0
 20
4.949999999999999
 10
-46.0
 20
4.399999999999999
 10
-46.0
 20
3.8500000000000014
 10
-46.0
 20
3.3000000000000007
 10
-46.0
 20
2.75
 10
-46.0
 20
2.1999999999999993
 10
-46.0
 20
1.6499999999999986
 10
-46.0
 20
1.1000000000000014
 10
-46.0
 20
0.5500000000000007
 10
-46.0
 20
0.0
  0
LWPOLYLINE
  5
30
330
17
100
AcDbEntity
  8
0
100
AcDbPolyline
 90
51
 70
0
 10
-35.0
 20
4.0
 10
-35.0
 20
3.92
 10
-35.0
 20
3.84
 10
-35.0
 20
3.76
 10
-35.0
 20
3.6799999999999997
 10
-35.0
 20
3.5999999999999996
 10
-35.0
 20
3.5199999999999996
 10
-35.0
 20
3.4399999999999995
 10
-35.0
 20
3.3599999999999994
 10
-35.0
 20
3.2799999999999994
 10
-35.0
 20
3.1999999999999993
 10
-35.0
 20
3.119999999999999
 10
-35.0
 20
3.039999999999999
 10
-35.0
 20
2.960000000000001
 10
-35.0
 20
2.879999999999999
 10
-35.0
 20
2.8000000000000007
 10
-35.0
 20
2.7200000000000006
 10
-35.0
 20
2.6400000000000006
 10
-35.0
 20
2.5600000000000005
 10
-35.0
 20
2.4800000000000004
 10
-35.0
 20
2.4000000000000004
 10
-35.0
 20
2.3200000000000003
 10
-35.0
 20
2.24
 10
-35.0
 20
2.16
 10
-35.0
 20
2.08
 10
-35.0
 20
2.0
 10
-35.0
 20
1.92
 10
-35.0
 20
1.8399999999999999
 10
-35.0
 20
1.7599999999999998
 10
-35.0
 20
1.6799999999999997
 10
-35.0
 20
1.5999999999999996
 10
-35.0
 20
1.5199999999999996
 10
-35.0
 20
1.4399999999999995
 10
-35.0
 20
1.3599999999999994
 10
-35.0
 20
1.2799999999999994
 10
-35.0
 20
1.1999999999999993
 10
-35.0
 20
1.120000000000001
 10
-35.0
 20
1.0399999999999991
 10
-35.0
 20
0.9600000000000009
 10
-35.0
 20
0.879999999999999
 10
-35.0
 20
0.8000000000000007
 10
-35.0
 20
0.7200000000000006
 10
-35.0
 20
0.6400000000000006
 10
-35.0
 20
0.5600000000000005
 10
-35.0
 20
0.4800000000000004
 10
-35.0
 20
0.40000000000000036
 10
-35.0
 20
0.3200000000000003
 10
-35.0
 20
0.2400000000000002
 10
-35.0
 20
0.16000000000000014
 10
-35.0
 20
0.08000000000000007
 10
-35.0
 20
0.0
  0
LWPOLYLINE
  5
31
330
17
100
AcDbEntity
  8
0
100
AcDbPolyline
 90
51
 70
0
 10
-45.0
 20
4.0
 10
-45.0
 20
3.92
 10
-45.0
 20
3.84
 10
-45.0
 20
3.76
 10
-45.0
 20
3.6799999999999997
 10
-45.0
 20
3.5999999999999996
 10
-45.0
 20
3.5199999999999996
 10
-45.0
 20
3.4399999999999995
 10
-45.0
 20
3.3599999999999994
 10
-45.0
 20
3.2799999999999994
 10
-45.0
 20
3.1999999999999993
 10
-45.0
 20
3.119999999999999
 10
-45.0
 20
3.039999999999999
 10
-45.0
 20
2.960000000000001
 10
-45.0
 20
2.879999999999999
 10
-45.0
 20
2.8000000000000007
 10
-45.0
 20
2.7200000000000006
 10
-45.0
 20
2.6400000000000006
 10
-45.0
 20
2.5600000000000005
 10
-45.0
 20
2.4800000000000004
 10
-45.0
 20
2.4000000000000004
 10
-45.0
 20
2.3200000000000003
 10
-45.0
 20
2.24
 10
-45.0
 20
2.16
 10
-45.0
 20
2.08
 10
-45.0
 20
2.0
 10
-45.0
 20
1.92
 10
-45.0
 20
1.8399999999999999
 10
-45.0
 20
1.7599999999999998
 10
-45.0
 20
1.6799999999999997
 10
-45.0
 20
1.5999999999999996
 10
-45.0
 20
1.5199999999999996
 10
-45.0
 20
1.4399999999999995
 10
-45.0
 20
1.3599999999999994
 10
-45.0
 20
1.2799999999999994
 10
-45.0
 20
1.1999999999999993
 10
-45.0
 20
1.120000000000001
 10
-45.0
 20
1.0399999999999991
 10
-45.0
 20
0.9600000000000009
 10
-45.0
 20
0.879999999999999
 10
-45.0
 20
0.8000000000000007
 10
-45.0
 20
0.7200000000000006
 10
-45.0
 20
0.6400000000000006
 10
-45.0
 20
0.5600000000000005
 10
-45.0
 20
0.4800000000000004
 10
-45.0
 20
0.40000000000000036
 10
-45.0
 20
0.3200000000000003
 10
-45.0
 20
0.2400000000000002
 10
-45.0
 20
0.16000000000000014
 10
-45.0
 20
0.08000000000000007
 10
-45.0
 20
0.0
  0
LWPOLYLINE
  5
32
330
17
100
AcDbEntity
  8
0
100
AcDbPolyline
 90
51
 70
0
 10
-45.0
 20
23.5
 10
-45.0
 20
23.11
 10
-45.0
 20
22.72
 10
-45.0
 20
22.33
 10
-45.0
 20
21.939999999999998
 10
-45.0
 20
21.55
 10
-45.0
 20
21.16
 10
-45.0
 20
20.77
 10
-45.0
 20
20.38
 10
-45.0
 20
19.990000000000002
 10
-45.0
 20
19.6
 10
-45.0
 20
19.21
 10
-45.0
 20
18.82
 10
-45.0
 20
18.43
 10
-45.0
 20
18.04
 10
-45.0
 20
17.65
 10
-45.0
 20
17.259999999999998
 10
-45.0
 20
16.87
 10
-45.0
 20
16.48
 10
-45.0
 20
16.09
 10
-45.0
 20
15.7
 10
-45.0
 20
15.31
 10
-45.0
 20
14.92
 10
-45.0
 20
14.53
 10
-45.0
 20
14.14
 10
-45.0
 20
13.75
 10
-45.0
 20
13.36
 10
-45.0
 20
12.97
 10
-45.0
 20
12.58
 10
-45.0
 20
12.19
 10
-45.0
 20
11.8
 10
-45.0
 20
11.41
 10
-45.0
 20
11.02
 10
-45.0
 20
10.63
 10
-45.0
 20
10.24
 10
-45.0
 20
9.85
 10
-45.0
 20
9.46
 10
-45.0
 20
9.07
 10
-45.0
 20
8.68
 10
-45.0
 20
8.29
 10
-45.0
 20
7.9
 10
-45.0
 20
7.51
 10
-45.0
 20
7.120000000000001
 10
-45.0
 20
6.73
 10
-45.0
 20
6.34
 10
-45.0
 20
5.949999999999999
 10
-45.0
 20
5.559999999999999
 10
-45.0
 20
5.170000000000002
 10
-45.0
 20
4.780000000000001
 10
-45.0
 20
4.390000000000001
 10
-45.0
 20
4.0
  0
LWPOLYLINE
  5
33
330
17
100
AcDbEntity
  8
0
100
AcDbPolyline
 90
51
 70
0
 10
-45.0
 20
27.5
 10
-45.0
 20
27.42
 10
-45.0
 20
27.34
 10
-45.0
 20
27.26
 10
-45.0
 20
27.18
 10
-45.0
 20
27.1
 10
-45.0
 20
27.02
 10
-45.0
 20
26.94
 10
-45.0
 20
26.86
 10
-45.0
 20
26.78
 10
-45.0
 20
26.7
 10
-45.0
 20
26.62
 10
-45.0
 20
26.54
 10
-45.0
 20
26.46
 10
-45.0
 20
26.38
 10
-45.0
 20
26.3
 10
-45.0
 20
26.22
 10
-45.0
 20
26.14
 10
-45.0
 20
26.06
 10
-45.0
 20
25.98
 10
-45.0
 20
25.9
 10
-45.0
 20
25.82
 10
-45.0
 20
25.74
 10
-45.0
 20
25.66
 10
-45.0
 20
25.58
 10
-45.0
 20
25.5
 10
-45.0
 20
25.42
 10
-45.0
 20
25.34
 10
-45.0
 20
25.259999999999998
 10
-45.0
 20
25.18
 10
-45.0
 20
25.1
 10
-45.0
 20
25.02
 10
-45.0
 20
24.94
 10
-45.0
 20
24.86
 10
-45.0
 20
24.78
 10
-45.0
 20
24.7
 10
-45.0
 20
24.62
 10
-45.0
 20
24.54
 10
-45.0
 20
24.46
 10
-45.0
 20
24.38
 10
-45.0
 20
24.3
 10
-45.0
 20
24.22
 10
-45.0
 20
24.14
 10
-45.0
 20
24.06
 10
-45.0
 20
23.98
 10
-45.0
 20
23.9
 10
-45.0
 20
23.82
 10
-45.0
 20
23.740000000000002
 10
-45.0
 20
23.66
 10
-45.0
 20
23.58
 10
-45.0
 20
23.5
  0
LWPOLYLINE
  5
34
330
17
100
AcDbEntity
  8
0
100
AcDbPolyline
 90
51
 70
0
 10
-45.0
 20
4.0
 10
-44.964899077054554
 20
4.0
 10
-44.92979815410911
 20
4.0
 10
-44.89469723116366
 20
4.0
 10
-44.830264134341476
 20
4.0
 10
-44.726721472350306
 20
4.0
 10
-44.62317881035914
 20
4.0
 10
-44.51963614836798
 20
4.0
 10
-44.36187947699083
 20
4.0
 10
-44.195087137382686
 20
4.0
 10
-44.02829479777454
 20
4.0
 10
-43.84582074009643
 20
4.0
 10
-43.62414238724342
 20
4.0
 10
-43.4024640343904
 20
4.0
 10
-43.18078568153739
 20
4.0
 10
-42.92784294655249
 20
4.0
 10
-42.66239445871485
 20
4.0
 10
-42.396945970877205
 20
4.0
 10
-42.127146134555545
 20
4.0
 10
-41.831238207329804
 20
4.0
 10
-41.53533028010406
 20
4.0
 10
-41.23942235287832
 20
4.0
 10
-40.93458792261652
 20
4.0
 10
-40.62305861507768
 20
4.0
 10
-40.31152930753884
 20
4.0
 10
-40.0
 20
4.0
 10
-39.68847069246116
 20
4.0
 10
-39.37694138492232
 20
4.0
 10
-39.065412077383485
 20
4.0
 10
-38.760577647121686
 20
4.0
 10
-38.464669719895944
 20
4.0
 10
-38.1687617926702
 20
4.0
 10
-37.87285386544446
 20
4.0
 10
-37.6030540291228
 20
4.0
 10
-37.33760554128516
 20
4.0
 10
-37.07215705344751
 20
4.0
 10
-36.81921431846261
 20
4.0
 10
-36.5975359656096
 20
4.0
 10
-36.37585761275658
 20
4.0
 10
-36.154179259903565
 20
4.0
 10
-35.97170520222546
 20
4.0
 10
-35.804912862617314
 20
4.0
 10
-35.63812052300917
 20
4.0
 10
-35.48036385163202
 20
4.0
 10
-35.37682118964086
 20
4.0
 10
-35.273278527649694
 20
4.0
 10
-35.169735865658524
 20
4.0
 10
-35.10530276883634
 20
4.0
 10
-35.07020184589089
 20
4.0
 10
-35.035100922945446
 20
4.0
 10
-35.0
 20
4.0
  0
LWPOLYLINE
  5
35
330
17
100
AcDbEntity
  8
0
100
AcDbPolyline
 90
51
 70
0
 10
-45.0
 20
0.0
 10
-44.964899077054554
 20
0.0
 10
-44.92979815410911
 20
0.0
 10
-44.89469723116366
 20
0.0
 10
-44.830264134341476
 20
0.0
 10
-44.726721472350306
 20
0.0
 10
-44.62317881035914
 20
0.0
 10
-44.51963614836798
 20
0.0
 10
-44.36187947699083
 20
0.0
 10
-44.195087137382686
 20
0.0
 10
-44.02829479777454
 20
0.0
 10
-43.84582074009643
 20
0.0
 10
-43.62414238724342
 20
0.0
 10
-43.4024640343904
 20
0.0
 10
-43.18078568153739
 20
0.0
 10
-42.92784294655249
 20
0.0
 10
-42.66239445871485
 20
0.0
 10
-42.396945970877205
 20
0.0
 10
-42.127146134555545
 20
0.0
 10
-41.831238207329804
 20
0.0
 10
-41.53533028010406
 20
0.0
 10
-41.23942235287832
 20
0.0
 10
-40.93458792261652
 20
0.0
 10
-40.62305861507768
 20
0.0
 10
-40.31152930753884
 20
0.0
 10
-40.0
 20
0.0
 10
-39.68847069246116
 20
0.0
 10
-39.37694138492232
 20
0.0
 10
-39.06541207738348
 20
0.0
 10
-38.76057764712168
 20
0.0
 10
-38.46466971989594
 20
0.0
 10
-38.168761792670196
 20
0.0
 10
-37.872853865444455
 20
0.0
 10
-37.603054029122795
 20
0.0
 10
-37.33760554128515
 20
0.0
 10
-37.07215705344751
 20
0.0
 10
-36.81921431846261
 20
0.0
 10
-36.5975359656096
 20
0.0
 10
-36.37585761275658
 20
0.0
 10
-36.15417925990357
 20
0.0
 10
-35.97170520222546
 20
0.0
 10
-35.804912862617314
 20
0.0
 10
-35.63812052300917
 20
0.0
 10
-35.48036385163202
 20
0.0
 10
-35.37682118964086
 20
0.0
 10
-35.273278527649694
 20
0.0
 10
-35.169735865658524
 20
0.0
 10
-35.10530276883634
 20
0.0
 10
-35.07020184589089
 20
0.0
 10
-35.035100922945446
 20
0.0
 10
-35.0
 20
0.0
  0
LWPOLYLINE
  5
36
330
17
100
AcDbEntity
  8
0
100
AcDbPolyline
 90
51
 70
0
 10
-35.0
 20
27.5
 10
-35.0
 20
27.42
 10
-35.0
 20
27.34
 10
-35.0
 20
27.26
 10
-35.0
 20
27.18
 10
-35.0
 20
27.1
 10
-35.0
 20
27.02
 10
-35.0
 20
26.94
 10
-35.0
 20
26.86
 10
-35.0
 20
26.78
 10
-35.0
 20
26.7
 10
-35.0
 20
26.62
 10
-35.0
 20
26.54
 10
-35.0
 20
26.46
 10
-35.0
 20
26.38
 10
-35.0
 20
26.3
 10
-35.0
 20
26.22
 10
-35.0
 20
26.14
 10
-35.0
 20
26.06
 10
-35.0
 20
25.98
 10
-35.0
 20
25.9
 10
-35.0
 20
25.82
 10
-35.0
 20
25.74
 10
-35.0
 20
25.66
 10
-35.0
 20
25.58
 10
-35.0
 20
25.5
 10
-35.0
 20
25.42
 10
-35.0
 20
25.34
 10
-35.0
 20
25.259999999999998
 10
-35.0
 20
25.18
 10
-35.0
 20
25.1
 10
-35.0
 20
25.02
 10
-35.0
 20
24.94
 10
-35.0
 20
24.86
 10
-35.0
 20
24.78
 10
-35.0
 20
24.7
 10
-35.0
 20
24.62
 10
-35.0
 20
24.54
 10
-35.0
 20
24.46
 10
-35.0
 20
24.38
 10
-35.0
 20
24.3
 10
-35.0
 20
24.22
 10
-35.0
 20
24.14
 10
-35.0
 20
24.06
 10
-35.0
 20
23.98
 10
-35.0
 20
23.9
 10
-35.0
 20
23.82
 10
-35.0
 20
23.740000000000002
 10
-35.0
 20
23.66
 10
-35.0
 20
23.58
 10
-35.0
 20
23.5
  0
LWPOLYLINE
  5
37
330
17
100
AcDbEntity
  8
0
100
AcDbPolyline
 90
51
 70
0
 10
-46.0
 20
0.0
 10
-45.9993803624647
 20
0.0
 10
-45.9987607249294
 20
0.0
 10
-45.998141087394096
 20
0.0
 10
-45.9969905278646
 20
0.0
 10
-45.995132072342834
 20
0.0
 10
-45.99327361682107
 20
0.0
 10
-45.991415161299315
 20
0.0
 10
-45.98849603685935
 20
0.0
 10
-45.985400134266364
 20
0.0
 10
-45.98230423167337
 20
0.0
 10
-45.97885542527005
 20
0.0
 10
-45.97452435934089
 20
0.0
 10
-45.97019329341174
 20
0.0
 10
-45.96586222748258
 20
0.0
 10
-45.96065118407778
 20
0.0
 10
-45.95508814968272
 20
0.0
 10
-45.94952511528766
 20
0.0
 10
-45.943786671633006
 20
0.0
 10
-45.93699577242075
 20
0.0
 10
-45.9302048732085
 20
0.0
 10
-45.923413973996254
 20
0.0
 10
-45.91592430025993
 20
0.0
 10
-45.90791054563056
 20
0.0
 10
-45.899896791001176
 20
0.0
 10
-45.891883036371794
 20
0.0
 10
-45.88265233778144
 20
0.0
 10
-45.87342163919108
 20
0.0
 10
-45.86419094060072
 20
0.0
 10
-45.85444161280633
 20
0.0
 10
-45.84400077940657
 20
0.0
 10
-45.833559946006815
 20
0.0
 10
-45.82311911260705
 20
0.0
 10
-45.811647622362784
 20
0.0
 10
-45.800004355977755
 20
0.0
 10
-45.788361089592726
 20
0.0
 10
-45.77637672487344
 20
0.0
 10
-45.76353961431848
 20
0.0
 10
-45.75070250376353
 20
0.0
 10
-45.73786539320858
 20
0.0
 10
-45.72418230072574
 20
0.0
 10
-45.710160815471745
 20
0.0
 10
-45.696139330217754
 20
0.0
 10
-45.681950126169774
 20
0.0
 10
-45.66675460935789
 20
0.0
 10
-45.651559092546
 20
0.0
 10
-45.63636357573412
 20
0.0
 10
-45.62050358899295
 20
0.0
 10
-45.60414524980483
 20
0.0
 10
-45.5877869106167
 20
0.0
 10
-45.57142857142857
 20
0.0
  0
LWPOLYLINE
  5
38
330
17
100
AcDbEntity
  8
0
100
AcDbPolyline
 90
51
 70
0
 10
-46.0
 20
27.5
 10
-45.9993803624647
 20
27.5
 10
-45.9987607249294
 20
27.5
 10
-45.998141087394096
 20
27.5
 10
-45.9969905278646
 20
27.5
 10
-45.995132072342834
 20
27.5
 10
-45.99327361682107
 20
27.5
 10
-45.991415161299315
 20
27.5
 10
-45.98849603685935
 20
27.5
 10
-45.985400134266364
 20
27.5
 10
-45.98230423167337
 20
27.5
 10
-45.97885542527005
 20
27.5
 10
-45.97452435934089
 20
27.5
 10
-45.97019329341174
 20
27.5
 10
-45.96586222748258
 20
27.5
 10
-45.96065118407778
 20
27.5
 10
-45.95508814968272
 20
27.5
 10
-45.94952511528766
 20
27.5
 10
-45.943786671633006
 20
27.5
 10
-45.93699577242075
 20
27.5
 10
-45.9302048732085
 20
27.5
 10
-45.923413973996254
 20
27.5
 10
-45.91592430025993
 20
27.5
 10
-45.90791054563056
 20
27.5
 10
-45.899896791001176
 20
27.5
 10
-45.891883036371794
 20
27.5
 10
-45.88265233778144
 20
27.5
 10
-45.87342163919108
 20
27.5
 10
-45.86419094060072
 20
27.5
 10
-45.85444161280633
 20
27.5
 10
-45.84400077940657
 20
27.5
 10
-45.833559946006815
 20
27.5
 10
-45.82311911260705
 20
27.5
 10
-45.811647622362784
 20
27.5
 10
-45.800004355977755
 20
27.5
 10
-45.788361089592726
 20
27.5
 10
-45.77637672487344
 20
27.5
 10
-45.76353961431848
 20
27.5
 10
-45.75070250376353
 20
27.5
 10
-45.73786539320858
 20
27.5
 10
-45.72418230072574
 20
27.5
 10
-45.710160815471745
 20
27.5
 10
-45.696139330217754
 20
27.5
 10
-45.681950126169774
 20
27.5
 10
-45.66675460935789
 20
27.5
 10
-45.651559092546
 20
27.5
 10
-45.63636357573412
 20
27.5
 10
-45.62050358899295
 20
27.5
 10
-45.60414524980483
 20
27.5
 10
-45.5877869106167
 20
27.5
 10
-45.57142857142857
 20
27.5
  0
LWPOLYLINE
  5
39
330
17
100
AcDbEntity
  8
0
100
AcDbPolyline
 90
51
 70
0
 10
-45.0
 20
23.5
 10
-44.964899077054554
 20
23.5
 10
-44.92979815410911
 20
23.5
 10
-44.89469723116366
 20
23.5
 10
-44.830264134341476
 20
23.5
 10
-44.726721472350306
 20
23.5
 10
-44.62317881035914
 20
23.5
 10
-44.51963614836798
 20
23.5
 10
-44.36187947699083
 20
23.5
 10
-44.195087137382686
 20
23.5
 10
-44.02829479777454
 20
23.5
 10
-43.84582074009643
 20
23.5
 10
-43.62414238724342
 20
23.5
 10
-43.4024640343904
 20
23.5
 10
-43.18078568153739
 20
23.5
 10
-42.92784294655249
 20
23.5
 10
-42.66239445871485
 20
23.5
 10
-42.396945970877205
 20
23.5
 10
-42.127146134555545
 20
23.5
 10
-41.831238207329804
 20
23.5
 10
-41.53533028010406
 20
23.5
 10
-41.23942235287832
 20
23.5
 10
-40.93458792261652
 20
23.5
 10
-40.62305861507768
 20
23.5
 10
-40.31152930753884
 20
23.5
 10
-40.0
 20
23.5
 10
-39.68847069246116
 20
23.5
 10
-39.37694138492232
 20
23.5
 10
-39.065412077383485
 20
23.5
 10
-38.760577647121686
 20
23.5
 10
-38.464669719895944
 20
23.5
 10
-38.1687617926702
 20
23.5
 10
-37.87285386544446
 20
23.5
 10
-37.6030540291228
 20
23.5
 10
-37.33760554128516
 20
23.5
 10
-37.07215705344751
 20
23.5
 10
-36.81921431846261
 20
23.5
 10
-36.5975359656096
 20
23.5
 10
-36.37585761275658
 20
23.5
 10
-36.154179259903565
 20
23.5
 10
-35.97170520222546
 20
23.5
 10
-35.804912862617314
 20
23.5
 10
-35.63812052300917
 20
23.5
 10
-35.48036385163202
 20
23.5
 10
-35.37682118964086
 20
23.5
 10
-35.273278527649694
 20
23.5
 10
-35.169735865658524
 20
23.5
 10
-35.10530276883634
 20
23.5
 10
-35.07020184589089
 20
23.5
 10
-35.035100922945446
 20
23.5
 10
-35.0
 20
23.5
  0
LWPOLYLINE
  5
3A
330
17
100
AcDbEntity
  8
0
100
AcDbPolyline
 90
51
 70
0
 10
-45.0
 20
27.5
 10
-44.964899077054554
 20
27.5
 10
-44.92979815410911
 20
27.5
 10
-44.89469723116366
 20
27.5
 10
-44.830264134341476
 20
27.5
 10
-44.726721472350306
 20
27.5
 10
-44.62317881035914
 20
27.5
 10
-44.51963614836798
 20
27.5
 10
-44.36187947699083
 20
27.5
 10
-44.195087137382686
 20
27.5
 10
-44.02829479777454
 20
27.5
 10
-43.84582074009643
 20
27.5
 10
-43.62414238724342
 20
27.5
 10
-43.4024640343904
 20
27.5
 10
-43.18078568153739
 20
27.5
 10
-42.92784294655249
 20
27.5
 10
-42.66239445871485
 20
27.5
 10
-42.396945970877205
 20
27.5
 10
-42.127146134555545
 20
27.5
 10
-41.831238207329804
 20
27.5
 10
-41.53533028010406
 20
27.5
 10
-41.23942235287832
 20
27.5
 10
-40.93458792261652
 20
27.5
 10
-40.62305861507768
 20
27.5
 10
-40.31152930753884
 20
27.5
 10
-40.0
 20
27.5
 10
-39.68847069246116
 20
27.5
 10
-39.37694138492232
 20
27.5
 10
-39.06541207738348
 20
27.5
 10
-38.76057764712168
 20
27.5
 10
-38.46466971989594
 20
27.5
 10
-38.168761792670196
 20
27.5
 10
-37.872853865444455
 20
27.5
 10
-37.603054029122795
 20
27.5
 10
-37.33760554128515
 20
27.5
 10
-37.07215705344751
 20
27.5
 10
-36.81921431846261
 20
27.5
 10
-36.5975359656096
 20
27.5
 10
-36.37585761275658
 20
27.5
 10
-36.15417925990357
 20
27.5
 10
-35.97170520222546
 20
27.5
 10
-35.804912862617314
 20
27.5
 10
-35.63812052300917
 20
27.5
 10
-35.48036385163202
 20
27.5
 10
-35.37682118964086
 20
27.5
 10
-35.273278527649694
 20
27.5
 10
-35.169735865658524
 20
27.5
 10
-35.10530276883634
 20
27.5
 10
-35.07020184589089
 20
27.5
 10
-35.035100922945446
 20
27.5
 10
-35.0
 20
27.5
  0
LWPOLYLINE
  5
3B
330
17
100
AcDbEntity
  8
0
100
AcDbPolyline
 90
51
 70
0
 10
-13.5
 20
20.35
 10
-13.493093549498951
 20
20.569766818352598
 10
-13.472401454600673
 20
20.788666317475066
 10
-13.438005377550411
 20
21.005834601050037
 10
-13.390041063950209
 20
21.220414605076993
 10
-13.328697807033038
 20
21.431559480312316
 10
-13.25421770060888
 20
21.638435934396373
 10
-13.166894683631067
 20
21.840227520477754
 10
-13.067073380153523
 20
22.036137859356003
 10
-12.955147739257052
 20
22.22539378242649
 10
-12.831559480312317
 20
22.407248383023656
 10
-12.696796349715262
 20
22.580983964120414
 10
-12.55139019597494
 20
22.74591487075041
 10
-12.39591487075041
 20
22.90139019597494
 10
-12.230983964120414
 20
23.046796349715265
 10
-12.057248383023657
 20
23.181559480312316
 10
-11.875393782426489
 20
23.305147739257055
 10
-11.686137859356004
 20
23.417073380153525
 10
-11.490227520477754
 20
23.51689468363107
 10
-11.288435934396373
 20
23.60421770060888
 10
-11.081559480312317
 20
23.67869780703304
 10
-10.870414605076991
 20
23.74004106395021
 10
-10.655834601050037
 20
23.788005377550412
 10
-10.438666317475066
 20
23.822401454600673
 10
-10.219766818352598
 20
23.843093549498953
 10
-10.0
 20
23.85
 10
-9.780233181647404
 20
23.843093549498953
 10
-9.561333682524936
 20
23.822401454600673
 10
-9.344165398949963
 20
23.788005377550412
 10
-9.129585394923009
 20
23.74004106395021
 10
-8.918440519687685
 20
23.67869780703304
 10
-8.711564065603628
 20
23.60421770060888
 10
-8.509772479522246
 20
23.51689468363107
 10
-8.313862140643996
 20
23.417073380153525
 10
-8.124606217573511
 20
23.305147739257052
 10
-7.942751616976345
 20
23.181559480312316
 10
-7.769016035879586
 20
23.046796349715265
 10
-7.604085129249589
 20
22.90139019597494
 10
-7.44860980402506
 20
22.74591487075041
 10
-7.303203650284738
 20
22.580983964120417
 10
-7.168440519687684
 20
22.407248383023656
 10
-7.044852260742948
 20
22.22539378242649
 10
-6.932926619846477
 20
22.036137859356003
 10
-6.833105316368933
 20
21.840227520477757
 10
-6.74578229939112
 20
21.638435934396377
 10
-6.671302192966962
 20
21.431559480312316
 10
-6.609958936049791
 20
21.220414605076996
 10
-6.561994622449589
 20
21.005834601050037
 10
-6.527598545399328
 20
20.788666317475066
 10
-6.50690645050105
 20
20.569766818352598
 10
-6.5
 20
20.35
  0
LWPOLYLINE
  5
3C
330
17
100
AcDbEntity
  8
0
100
AcDbPolyline
 90
51
 70
0
 10
-6.5
 20
20.35
 10
-6.50690645050105
 20
20.130233181647405
 10
-6.527598545399327
 20
19.911333682524937
 10
-6.561994622449589
 20
19.694165398949966
 10
-6.609958936049791
 20
19.47958539492301
 10
-6.671302192966962
 20
19.268440519687687
 10
-6.74578229939112
 20
19.06156406560363
 10
-6.833105316368932
 20
18.85977247952225
 10
-6.9329266198464765
 20
18.663862140644
 10
-7.044852260742947
 20
18.474606217573513
 10
-7.1684405196876835
 20
18.292751616976346
 10
-7.303203650284738
 20
18.11901603587959
 10
-7.448609804025059
 20
17.95408512924959
 10
-7.604085129249588
 20
17.798609804025062
 10
-7.769016035879586
 20
17.653203650284738
 10
-7.942751616976343
 20
17.518440519687687
 10
-8.12460621757351
 20
17.39485226074295
 10
-8.313862140643996
 20
17.282926619846478
 10
-8.509772479522244
 20
17.183105316368934
 10
-8.711564065603628
 20
17.09578229939112
 10
-8.918440519687683
 20
17.021302192966964
 10
-9.129585394923007
 20
16.959958936049794
 10
-9.344165398949963
 20
16.91199462244959
 10
-9.561333682524934
 20
16.87759854539933
 10
-9.780233181647404
 20
16.85690645050105
 10
-10.0
 20
16.85
 10
-10.219766818352594
 20
16.85690645050105
 10
-10.438666317475064
 20
16.87759854539933
 10
-10.655834601050035
 20
16.91199462244959
 10
-10.870414605076991
 20
16.959958936049794
 10
-11.081559480312315
 20
17.021302192966964
 10
-11.288435934396372
 20
17.09578229939112
 10
-11.490227520477754
 20
17.183105316368934
 10
-11.686137859356005
 20
17.282926619846478
 10
-11.875393782426489
 20
17.39485226074295
 10
-12.057248383023655
 20
17.518440519687687
 10
-12.230983964120412
 20
17.653203650284738
 10
-12.39591487075041
 20
17.798609804025062
 10
-12.551390195974939
 20
17.95408512924959
 10
-12.696796349715264
 20
18.11901603587959
 10
-12.831559480312315
 20
18.292751616976346
 10
-12.955147739257052
 20
18.474606217573513
 10
-13.067073380153523
 20
18.663862140644
 10
-13.166894683631067
 20
18.859772479522245
 10
-13.25421770060888
 20
19.06156406560363
 10
-13.328697807033038
 20
19.268440519687683
 10
-13.390041063950209
 20
19.479585394923006
 10
-13.438005377550411
 20
19.694165398949966
 10
-13.472401454600671
 20
19.911333682524933
 10
-13.493093549498951
 20
20.130233181647405
 10
-13.5
 20
20.35
  0
LWPOLYLINE
  5
3D
330
17
100
AcDbEntity
  8
0
100
AcDbPolyline
 90
51
 70
0
 10
-27.0
 20
0.0
 10
-26.48
 20
0.0
 10
-25.96
 20
0.0
 10
-25.439999999999998
 20
0.0
 10
-24.92
 20
0.0
 10
-24.4
 20
0.0
 10
-23.88
 20
0.0
 10
-23.36
 20
0.0
 10
-22.84
 20
0.0
 10
-22.32
 20
0.0
 10
-21.8
 20
0.0
 10
-21.28
 20
0.0
 10
-20.759999999999998
 20
0.0
 10
-20.240000000000002
 20
0.0
 10
-19.72
 20
0.0
 10
-19.2
 20
0.0
 10
-18.68
 20
0.0
 10
-18.16
 20
0.0
 10
-17.64
 20
0.0
 10
-17.119999999999997
 20
0.0
 10
-16.6
 20
0.0
 10
-16.08
 20
0.0
 10
-15.560000000000002
 20
0.0
 10
-15.04
 20
0.0
 10
-14.52
 20
0.0
 10
-14.0
 20
0.0
 10
-13.48
 20
0.0
 10
-12.96
 20
0.0
 10
-12.439999999999998
 20
0.0
 10
-11.920000000000002
 20
0.0
 10
-11.399999999999999
 20
0.0
 10
-10.879999999999999
 20
0.0
 10
-10.36
 20
0.0
 10
-9.84
 20
0.0
 10
-9.32
 20
0.0
 10
-8.8
 20
0.0
 10
-8.280000000000001
 20
0.0
 10
-7.760000000000002
 20
0.0
 10
-7.239999999999998
 20
0.0
 10
-6.719999999999999
 20
0.0
 10
-6.199999999999999
 20
0.0
 10
-5.68
 20
0.0
 10
-5.16
 20
0.0
 10
-4.640000000000001
 20
0.0
 10
-4.120000000000001
 20
0.0
 10
-3.6000000000000014
 20
0.0
 10
-3.0799999999999983
 20
0.0
 10
-2.5600000000000023
 20
0.0
 10
-2.039999999999999
 20
0.0
 10
-1.519999999999996
 20
0.0
 10
-1.0
 20
0.0
  0
LWPOLYLINE
  5
3E
330
17
100
AcDbEntity
  8
0
100
AcDbPolyline
 90
51
 70
0
 10
-1.0
 20
0.0
 10
-1.0
 20
0.5500000000000007
 10
-1.0
 20
1.0999999999999996
 10
-1.0
 20
1.6500000000000004
 10
-1.0
 20
2.1999999999999993
 10
-1.0
 20
2.75
 10
-1.0
 20
3.3000000000000007
 10
-1.0
 20
3.8499999999999996
 10
-1.0
 20
4.4
 10
-1.0
 20
4.949999999999999
 10
-1.0
 20
5.5
 10
-1.0
 20
6.05
 10
-1.0
 20
6.6
 10
-1.0
 20
7.15
 10
-1.0
 20
7.7
 10
-1.0
 20
8.25
 10
-1.0
 20
8.8
 10
-1.0
 20
9.35
 10
-1.0
 20
9.9
 10
-1.0
 20
10.45
 10
-1.0
 20
11.0
 10
-1.0
 20
11.55
 10
-1.0
 20
12.1
 10
-1.0
 20
12.65
 10
-1.0
 20
13.2
 10
-1.0
 20
13.75
 10
-1.0
 20
14.3
 10
-1.0
 20
14.85
 10
-1.0
 20
15.4
 10
-1.0
 20
15.95
 10
-1.0
 20
16.5
 10
-1.0
 20
17.05
 10
-1.0
 20
17.6
 10
-1.0
 20
18.15
 10
-1.0
 20
18.7
 10
-1.0
 20
19.25
 10
-1.0
 20
19.8
 10
-1.0
 20
20.35
 10
-1.0
 20
20.9
 10
-1.0
 20
21.45
 10
-1.0
 20
22.0
 10
-1.0
 20
22.55
 10
-1.0
 20
23.1
 10
-1.0
 20
23.65
 10
-1.0
 20
24.2
 10
-1.0
 20
24.75
 10
-1.0
 20
25.3
 10
-1.0
 20
25.85
 10
-1.0
 20
26.4
 10
-1.0
 20
26.95
 10
-1.0
 20
27.5
  0
LWPOLYLINE
  5
3F
330
17
100
AcDbEntity
  8
0
100
AcDbPolyline
 90
51
 70
0
 10
-27.0
 20
27.5
 10
-26.48
 20
27.5
 10
-25.96
 20
27.5
 10
-25.439999999999998
 20
27.5
 10
-24.92
 20
27.5
 10
-24.4
 20
27.5
 10
-23.88
 20
27.5
 10
-23.36
 20
27.5
 10
-22.84
 20
27.5
 10
-22.32
 20
27.5
 10
-21.8
 20
27.5
 10
-21.28
 20
27.5
 10
-20.759999999999998
 20
27.5
 10
-20.240000000000002
 20
27.5
 10
-19.72
 20
27.5
 10
-19.2
 20
27.5
 10
-18.68
 20
27.5
 10
-18.16
 20
27.5
 10
-17.64
 20
27.5
 10
-17.119999999999997
 20
27.5
 10
-16.6
 20
27.5
 10
-16.08
 20
27.5
 10
-15.560000000000002
 20
27.5
 10
-15.04
 20
27.5
 10
-14.52
 20
27.5
 10
-14.0
 20
27.5
 10
-13.48
 20
27.5
 10
-12.96
 20
27.5
 10
-12.439999999999998
 20
27.5
 10
-11.920000000000002
 20
27.5
 10
-11.399999999999999
 20
27.5
 10
-10.879999999999999
 20
27.5
 10
-10.36
 20
27.5
 10
-9.84
 20
27.5
 10
-9.32
 20
27.5
 10
-8.8
 20
27.5
 10
-8.280000000000001
 20
27.5
 10
-7.760000000000002
 20
27.5
 10
-7.239999999999998
 20
27.5
 10
-6.719999999999999
 20
27.5
 10
-6.199999999999999
 20
27.5
 10
-5.68
 20
27.5
 10
-5.16
 20
27.5
 10
-4.640000000000001
 20
27.5
 10
-4.120000000000001
 20
27.5
 10
-3.6000000000000014
 20
27.5
 10
-3.0799999999999983
 20
27.5
 10
-2.5600000000000023
 20
27.5
 10
-2.039999999999999
 20
27.5
 10
-1.519999999999996
 20
27.5
 10
-1.0
 20
27.5
  0
LWPOLYLINE
  5
40
330
17
100
AcDbEntity
  8
0
100
AcDbPolyline
 90
51
 70
0
 10
0.0
 20
27.5
 10
0.0
 20
26.95
 10
0.0
 20
26.4
 10
0.0
 20
25.85
 10
0.0
 20
25.3
 10
0.0
 20
24.75
 10
0.0
 20
24.2
 10
0.0
 20
23.65
 10
0.0
 20
23.1
 10
0.0
 20
22.55
 10
0.0
 20
22.0
 10
0.0
 20
21.45
 10
0.0
 20
20.9
 10
0.0
 20
20.35
 10
0.0
 20
19.8
 10
0.0
 20
19.25
 10
0.0
 20
18.7
 10
0.0
 20
18.15
 10
0.0
 20
17.6
 10
0.0
 20
17.05
 10
0.0
 20
16.5
 10
0.0
 20
15.95
 10
0.0
 20
15.4
 10
0.0
 20
14.85
 10
0.0
 20
14.3
 10
0.0
 20
13.75
 10
0.0
 20
13.2
 10
0.0
 20
12.65
 10
0.0
 20
12.1
 10
0.0
 20
11.55
 10
0.0
 20
11.0
 10
0.0
 20
10.45
 10
0.0
 20
9.899999999999999
 10
0.0
 20
9.350000000000001
 10
0.0
 20
8.8
 10
0.0
 20
8.25
 10
0.0
 20
7.699999999999999
 10
0.0
 20
7.149999999999999
 10
0.0
 20
6.600000000000001
 10
0.0
 20
6.050000000000001
 10
0.0
 20
5.5
 10
0.0
 20
4.949999999999999
 10
0.0
 20
4.399999999999999
 10
0.0
 20
3.8500000000000014
 10
0.0
 20
3.3000000000000007
 10
0.0
 20
2.75
 10
0.0
 20
2.1999999999999993
 10
0.0
 20
1.6499999999999986
 10
0.0
 20
1.1000000000000014
 10
0.0
 20
0.5500000000000007
 10
0.0
 20
0.0
  0
LWPOLYLINE
  5
41
330
17
100
AcDbEntity
  8
0
100
AcDbPolyline
 90
51
 70
0
 10
-45.571428571428555
 20
27.5
 10
-45.54961745251105
 20
27.5
 10
-45.527806333593546
 20
27.5
 10
-45.50599521467605
 20
27.5
 10
-45.48484856568783
 20
27.5
 10
-45.46458787660531
 20
27.5
 10
-45.444327187522795
 20
27.5
 10
-45.42406649844028
 20
27.5
 10
-45.40514755970965
 20
27.5
 10
-45.386452246037656
 20
27.5
 10
-45.367756932365666
 20
27.5
 10
-45.34951280905521
 20
27.5
 10
-45.332396661648616
 20
27.5
 10
-45.31528051424201
 20
27.5
 10
-45.29816436683541
 20
27.5
 10
-45.28218521387635
 20
27.5
 10
-45.26666085869632
 20
27.5
 10
-45.25113650351628
 20
27.5
 10
-45.23584118319058
 20
27.5
 10
-45.2219200719909
 20
27.5
 10
-45.20799896079123
 20
27.5
 10
-45.19407784959155
 20
27.5
 10
-45.1810787458657
 20
27.5
 10
-45.168771147745225
 20
27.5
 10
-45.156463549624746
 20
27.5
 10
-45.14415595150427
 20
27.5
 10
-45.133470945331766
 20
27.5
 10
-45.12278593915926
 20
27.5
 10
-45.11210093298675
 20
27.5
 10
-45.10211470133832
 20
27.5
 10
-45.09306016905533
 20
27.5
 10
-45.084005636772325
 20
27.5
 10
-45.07495110448933
 20
27.5
 10
-45.06729984628312
 20
27.5
 10
-45.0598824670897
 20
27.5
 10
-45.05246508789629
 20
27.5
 10
-45.04551703002322
 20
27.5
 10
-45.03974227545101
 20
27.5
 10
-45.03396752087881
 20
27.5
 10
-45.0281927663066
 20
27.5
 10
-45.02359435776884
 20
27.5
 10
-45.019466487644856
 20
27.5
 10
-45.01533861752087
 20
27.5
 10
-45.011446451600925
 20
27.5
 10
-45.00896851090524
 20
27.5
 10
-45.00649057020955
 20
27.5
 10
-45.004012629513866
 20
27.5
 10
-45.002478550141205
 20
27.5
 10
-45.0016523667608
 20
27.5
 10
-45.000826183380404
 20
27.5
 10
-45.0
 20
27.5
  0
LWPOLYLINE
  5
42
330
17
100
AcDbEntity
  8
0
100
AcDbPolyline
 90
51
 70
0
 10
-35.0
 20
27.5
 10
-34.985915350160866
 20
27.5
 10
-34.971830700321725
 20
27.5
 10
-34.95774605048259
 20
27.5
 10
-34.93166475334298
 20
27.5
 10
-34.8895879264694
 20
27.5
 10
-34.84751109959582
 20
27.5
 10
-34.805434272722245
 20
27.5
 10
-34.739817700257554
 20
27.5
 10
-34.67027783686101
 20
27.5
 10
-34.60073797346447
 20
27.5
 10
-34.52360138652713
 20
27.5
 10
-34.42747299073781
 20
27.5
 10
-34.33134459494848
 20
27.5
 10
-34.23521619915916
 20
27.5
 10
-34.12095947334074
 20
27.5
 10
-33.99945141551068
 20
27.5
 10
-33.877943357680614
 20
27.5
 10
-33.75302792446299
 20
27.5
 10
-33.60766823892003
 20
27.5
 10
-33.462308553377056
 20
27.5
 10
-33.316948867834085
 20
27.5
 10
-33.15900424210395
 20
27.5
 10
-32.991620911233426
 20
27.5
 10
-32.824237580362905
 20
27.5
 10
-32.65685424949238
 20
27.5
 10
-32.46955221579808
 20
27.5
 10
-32.28225018210378
 20
27.5
 10
-32.09494814840947
 20
27.5
 10
-31.900118998540208
 20
27.5
 10
-31.695253693771
 20
27.5
 10
-31.49038838900179
 20
27.5
 10
-31.285523084232583
 20
27.5
 10
-31.067811804318957
 20
27.5
 10
-30.847959528547936
 20
27.5
 10
-30.628107252776914
 20
27.5
 10
-30.40476291955654
 20
27.5
 10
-30.172688442712776
 20
27.5
 10
-29.940613965869023
 20
27.5
 10
-29.708539489025267
 20
27.5
 10
-29.469819490843175
 20
27.5
 10
-29.228441284125747
 20
27.5
 10
-28.98706307740832
 20
27.5
 10
-28.74478940513756
 20
27.5
 10
-28.49714293954682
 20
27.5
 10
-28.249496473956086
 20
27.5
 10
-28.001850008365352
 20
27.5
 10
-27.75240127941423
 20
27.5
 10
-27.50160085294282
 20
27.5
 10
-27.25080042647141
 20
27.5
 10
-27.000000000000004
 20
27.5
  0
LWPOLYLINE
  5
43
330
17
100
AcDbEntity
  8
0
100
AcDbPolyline
 90
51
 70
0
 10
-0.9999999999999964
 20
27.5
 10
-0.9799999999999969
 20
27.5
 10
-0.9599999999999973
 20
27.5
 10
-0.9399999999999977
 20
27.5
 10
-0.9199999999999982
 20
27.5
 10
-0.8999999999999986
 20
27.5
 10
-0.8799999999999955
 20
27.5
 10
-0.8599999999999959
 20
27.5
 10
-0.8399999999999963
 20
27.5
 10
-0.8199999999999967
 20
27.5
 10
-0.7999999999999972
 20
27.5
 10
-0.7799999999999976
 20
27.5
 10
-0.759999999999998
 20
27.5
 10
-0.7399999999999984
 20
27.5
 10
-0.7199999999999989
 20
27.5
 10
-0.6999999999999957
 20
27.5
 10
-0.6799999999999962
 20
27.5
 10
-0.6599999999999966
 20
27.5
 10
-0.639999999999997
 20
27.5
 10
-0.6199999999999974
 20
27.5
 10
-0.5999999999999979
 20
27.5
 10
-0.5799999999999983
 20
27.5
 10
-0.5599999999999987
 20
27.5
 10
-0.5399999999999991
 20
27.5
 10
-0.5199999999999996
 20
27.5
 10
-0.5
 20
27.5
 10
-0.4799999999999969
 20
27.5
 10
-0.4599999999999973
 20
27.5
 10
-0.4399999999999977
 20
27.5
 10
-0.41999999999999815
 20
27.5
 10
-0.3999999999999986
 20
27.5
 10
-0.379999999999999
 20
27.5
 10
-0.35999999999999943
 20
27.5
 10
-0.33999999999999986
 20
27.5
 10
-0.3200000000000003
 20
27.5
 10
-0.3000000000000007
 20
27.5
 10
-0.2799999999999976
 20
27.5
 10
-0.259999999999998
 20
27.5
 10
-0.23999999999999844
 20
27.5
 10
-0.21999999999999886
 20
27.5
 10
-0.1999999999999993
 20
27.5
 10
-0.17999999999999972
 20
27.5
 10
-0.16000000000000014
 20
27.5
 10
-0.14000000000000057
 20
27.5
 10
-0.120000000000001
 20
27.5
 10
-0.09999999999999787
 20
27.5
 10
-0.0799999999999983
 20
27.5
 10
-0.05999999999999872
 20
27.5
 10
-0.03999999999999915
 20
27.5
 10
-0.019999999999999574
 20
27.5
 10
0.0
 20
27.5
  0
LWPOLYLINE
  5
44
330
17
100
AcDbEntity
  8
0
100
AcDbPolyline
 90
51
 70
0
 10
0.0
 20
0.0
 10
-0.020000000000000004
 20
0.0
 10
-0.04000000000000001
 20
0.0
 10
-0.06000000000000002
 20
0.0
 10
-0.08000000000000002
 20
0.0
 10
-0.10000000000000002
 20
0.0
 10
-0.12000000000000004
 20
0.0
 10
-0.14000000000000004
 20
0.0
 10
-0.16000000000000003
 20
0.0
 10
-0.18000000000000005
 20
0.0
 10
-0.20000000000000004
 20
0.0
 10
-0.22000000000000003
 20
0.0
 10
-0.24000000000000007
 20
0.0
 10
-0.26000000000000006
 20
0.0
 10
-0.2800000000000001
 20
0.0
 10
-0.30000000000000004
 20
0.0
 10
-0.32000000000000006
 20
0.0
 10
-0.3400000000000001
 20
0.0
 10
-0.3600000000000001
 20
0.0
 10
-0.38000000000000006
 20
0.0
 10
-0.4000000000000001
 20
0.0
 10
-0.4200000000000001
 20
0.0
 10
-0.44000000000000006
 20
0.0
 10
-0.4600000000000001
 20
0.0
 10
-0.48000000000000015
 20
0.0
 10
-0.5000000000000001
 20
0.0
 10
-0.5200000000000001
 20
0.0
 10
-0.5400000000000001
 20
0.0
 10
-0.5600000000000002
 20
0.0
 10
-0.5800000000000002
 20
0.0
 10
-0.6000000000000001
 20
0.0
 10
-0.6200000000000001
 20
0.0
 10
-0.6400000000000001
 20
0.0
 10
-0.6600000000000001
 20
0.0
 10
-0.6800000000000002
 20
0.0
 10
-0.7000000000000002
 20
0.0
 10
-0.7200000000000002
 20
0.0
 10
-0.7400000000000001
 20
0.0
 10
-0.7600000000000001
 20
0.0
 10
-0.7800000000000001
 20
0.0
 10
-0.8000000000000002
 20
0.0
 10
-0.8200000000000002
 20
0.0
 10
-0.8400000000000002
 20
0.0
 10
-0.8600000000000001
 20
0.0
 10
-0.8800000000000001
 20
0.0
 10
-0.9000000000000001
 20
0.0
 10
-0.9200000000000002
 20
0.0
 10
-0.9400000000000002
 20
0.0
 10
-0.9600000000000003
 20
0.0
 10
-0.9800000000000003
 20
0.0
 10
-1.0000000000000002
 20
0.0
  0
LWPOLYLINE
  5
45
330
17
100
AcDbEntity
  8
0
100
AcDbPolyline
 90
51
 70
0
 10
-27.0
 20
0.0
 10
-27.25080042647141
 20
0.0
 10
-27.50160085294282
 20
0.0
 10
-27.75240127941423
 20
0.0
 10
-28.00185000836535
 20
0.0
 10
-28.249496473956082
 20
0.0
 10
-28.49714293954682
 20
0.0
 10
-28.744789405137553
 20
0.0
 10
-28.987063077408312
 20
0.0
 10
-29.228441284125743
 20
0.0
 10
-29.46981949084317
 20
0.0
 10
-29.708539489025267
 20
0.0
 10
-29.940613965869023
 20
0.0
 10
-30.17268844271278
 20
0.0
 10
-30.404762919556536
 20
0.0
 10
-30.62810725277691
 20
0.0
 10
-30.847959528547932
 20
0.0
 10
-31.067811804318957
 20
0.0
 10
-31.28552308423258
 20
0.0
 10
-31.490388389001787
 20
0.0
 10
-31.695253693770997
 20
0.0
 10
-31.900118998540208
 20
0.0
 10
-32.09494814840947
 20
0.0
 10
-32.28225018210377
 20
0.0
 10
-32.46955221579808
 20
0.0
 10
-32.65685424949238
 20
0.0
 10
-32.824237580362905
 20
0.0
 10
-32.99162091123342
 20
0.0
 10
-33.15900424210394
 20
0.0
 10
-33.31694886783408
 20
0.0
 10
-33.46230855337705
 20
0.0
 10
-33.60766823892002
 20
0.0
 10
-33.75302792446299
 20
0.0
 10
-33.87794335768061
 20
0.0
 10
-33.99945141551067
 20
0.0
 10
-34.12095947334073
 20
0.0
 10
-34.23521619915916
 20
0.0
 10
-34.33134459494848
 20
0.0
 10
-34.42747299073781
 20
0.0
 10
-34.52360138652713
 20
0.0
 10
-34.60073797346447
 20
0.0
 10
-34.67027783686101
 20
0.0
 10
-34.739817700257554
 20
0.0
 10
-34.805434272722245
 20
0.0
 10
-34.84751109959582
 20
0.0
 10
-34.8895879264694
 20
0.0
 10
-34.93166475334298
 20
0.0
 10
-34.95774605048259
 20
0.0
 10
-34.971830700321725
 20
0.0
 10
-34.985915350160866
 20
0.0
 10
-35.0
 20
0.0
  0
LWPOLYLINE
  5
46
330
17
100
AcDbEntity
  8
0
100
AcDbPolyline
 90
51
 70
0
 10
-45.0
 20
0.0
 10
-45.000826183380404
 20
0.0
 10
-45.0016523667608
 20
0.0
 10
-45.002478550141205
 20
0.0
 10
-45.004012629513866
 20
0.0
 10
-45.00649057020955
 20
0.0
 10
-45.008968510905234
 20
0.0
 10
-45.011446451600925
 20
0.0
 10
-45.01533861752087
 20
0.0
 10
-45.019466487644856
 20
0.0
 10
-45.02359435776884
 20
0.0
 10
-45.0281927663066
 20
0.0
 10
-45.03396752087881
 20
0.0
 10
-45.03974227545101
 20
0.0
 10
-45.04551703002322
 20
0.0
 10
-45.05246508789629
 20
0.0
 10
-45.0598824670897
 20
0.0
 10
-45.06729984628311
 20
0.0
 10
-45.07495110448933
 20
0.0
 10
-45.084005636772325
 20
0.0
 10
-45.09306016905532
 20
0.0
 10
-45.10211470133832
 20
0.0
 10
-45.11210093298675
 20
0.0
 10
-45.12278593915926
 20
0.0
 10
-45.133470945331766
 20
0.0
 10
-45.144155951504274
 20
0.0
 10
-45.156463549624746
 20
0.0
 10
-45.168771147745225
 20
0.0
 10
-45.1810787458657
 20
0.0
 10
-45.194077849591544
 20
0.0
 10
-45.20799896079122
 20
0.0
 10
-45.22192007199091
 20
0.0
 10
-45.23584118319059
 20
0.0
 10
-45.251136503516285
 20
0.0
 10
-45.26666085869632
 20
0.0
 10
-45.28218521387635
 20
0.0
 10
-45.29816436683541
 20
0.0
 10
-45.31528051424201
 20
0.0
 10
-45.332396661648616
 20
0.0
 10
-45.34951280905522
 20
0.0
 10
-45.367756932365666
 20
0.0
 10
-45.386452246037656
 20
0.0
 10
-45.40514755970965
 20
0.0
 10
-45.424066498440276
 20
0.0
 10
-45.444327187522795
 20
0.0
 10
-45.46458787660531
 20
0.0
 10
-45.48484856568782
 20
0.0
 10
-45.50599521467604
 20
0.0
 10
-45.527806333593546
 20
0.0
 10
-45.54961745251105
 20
0.0
 10
-45.571428571428555
 20
0.0
  0
LWPOLYLINE
  5
47
330
17
100
AcDbEntity
  8
0
100
AcDbPolyline
 90
51
 70
0
 10
-34.41619848709567
 20
23.5
 10
-34.43847671350872
 20
23.5
 10
-34.46075493992177
 20
23.5
 10
-34.48303316633481
 20
23.5
 10
-34.504633324761414
 20
23.5
 10
-34.52532939253941
 20
23.5
 10
-34.546025460317416
 20
23.5
 10
-34.566721528095414
 20
23.5
 10
-34.586048087260224
 20
23.5
 10
-34.605146394989504
 20
23.5
 10
-34.62424470271879
 20
23.5
 10
-34.642882394157944
 20
23.5
 10
-34.66036854487178
 20
23.5
 10
-34.67785469558561
 20
23.5
 10
-34.695340846299445
 20
23.5
 10
-34.711666040811636
 20
23.5
 10
-34.72752685284316
 20
23.5
 10
-34.74338766487469
 20
23.5
 10
-34.75901457760444
 20
23.5
 10
-34.77323809452347
 20
23.5
 10
-34.78746161144251
 20
23.5
 10
-34.80168512836154
 20
23.5
 10
-34.81496692111324
 20
23.5
 10
-34.82754242073943
 20
23.5
 10
-34.84011792036562
 20
23.5
 10
-34.85269341999181
 20
23.5
 10
-34.8636114224774
 20
23.5
 10
-34.87452942496299
 20
23.5
 10
-34.885447427448575
 20
23.5
 10
-34.89565154671579
 20
23.5
 10
-34.90490382169185
 20
23.5
 10
-34.91415609666791
 20
23.5
 10
-34.923408371643966
 20
23.5
 10
-34.931226901881196
 20
23.5
 10
-34.93880647466196
 20
23.5
 10
-34.94638604744272
 20
23.5
 10
-34.95348607281203
 20
23.5
 10
-34.95938722965266
 20
23.5
 10
-34.96528838649329
 20
23.5
 10
-34.97118954333393
 20
23.5
 10
-34.97588865414827
 20
23.5
 10
-34.980106946552084
 20
23.5
 10
-34.984325238955904
 20
23.5
 10
-34.98830266788373
 20
23.5
 10
-34.990834915955624
 20
23.5
 10
-34.99336716402751
 20
23.5
 10
-34.9958994120994
 20
23.5
 10
-34.99746711546938
 20
23.5
 10
-34.998311410312915
 20
23.5
 10
-34.99915570515646
 20
23.5
 10
-35.0
 20
23.5
  0
LWPOLYLINE
  5
48
330
17
100
AcDbEntity
  8
0
100
AcDbPolyline
 90
51
 70
0
 10
-35.0
 20
4.0
 10
-34.99915570515646
 20
4.0
 10
-34.998311410312915
 20
4.0
 10
-34.99746711546938
 20
4.0
 10
-34.9958994120994
 20
4.0
 10
-34.99336716402751
 20
4.0
 10
-34.990834915955624
 20
4.0
 10
-34.98830266788373
 20
4.0
 10
-34.984325238955904
 20
4.0
 10
-34.980106946552084
 20
4.0
 10
-34.975888654148264
 20
4.0
 10
-34.97118954333393
 20
4.0
 10
-34.96528838649329
 20
4.0
 10
-34.959387229652656
 20
4.0
 10
-34.95348607281202
 20
4.0
 10
-34.94638604744272
 20
4.0
 10
-34.93880647466196
 20
4.0
 10
-34.931226901881196
 20
4.0
 10
-34.923408371643966
 20
4.0
 10
-34.91415609666791
 20
4.0
 10
-34.90490382169185
 20
4.0
 10
-34.8956515467158
 20
4.0
 10
-34.885447427448575
 20
4.0
 10
-34.87452942496299
 20
4.0
 10
-34.8636114224774
 20
4.0
 10
-34.85269341999181
 20
4.0
 10
-34.84011792036562
 20
4.0
 10
-34.827542420739434
 20
4.0
 10
-34.81496692111324
 20
4.0
 10
-34.80168512836154
 20
4.0
 10
-34.78746161144251
 20
4.0
 10
-34.77323809452347
 20
4.0
 10
-34.75901457760443
 20
4.0
 10
-34.74338766487469
 20
4.0
 10
-34.72752685284316
 20
4.0
 10
-34.711666040811636
 20
4.0
 10
-34.695340846299445
 20
4.0
 10
-34.67785469558561
 20
4.0
 10
-34.66036854487178
 20
4.0
 10
-34.642882394157944
 20
4.0
 10
-34.62424470271879
 20
4.0
 10
-34.60514639498951
 20
4.0
 10
-34.586048087260224
 20
4.0
 10
-34.566721528095414
 20
4.0
 10
-34.546025460317416
 20
4.0
 10
-34.52532939253942
 20
4.0
 10
-34.50463332476142
 20
4.0
 10
-34.48303316633482
 20
4.0
 10
-34.46075493992177
 20
4.0
 10
-34.43847671350872
 20
4.0
 10
-34.41619848709567
 20
4.0
  0
LWPOLYLINE
  5
49
330
17
100
AcDbEntity
  8
0
100
AcDbPolyline
 90
51
 70
0
 10
-34.4161984870957
 20
4.0
 10
-34.4161984870957
 20
4.390000000000001
 10
-34.4161984870957
 20
4.779999999999999
 10
-34.4161984870957
 20
5.17
 10
-34.4161984870957
 20
5.5600000000000005
 10
-34.4161984870957
 20
5.949999999999999
 10
-34.4161984870957
 20
6.34
 10
-34.4161984870957
 20
6.73
 10
-34.4161984870957
 20
7.120000000000001
 10
-34.4161984870957
 20
7.51
 10
-34.4161984870957
 20
7.9
 10
-34.4161984870957
 20
8.29
 10
-34.4161984870957
 20
8.68
 10
-34.4161984870957
 20
9.07
 10
-34.4161984870957
 20
9.46
 10
-34.4161984870957
 20
9.85
 10
-34.4161984870957
 20
10.24
 10
-34.4161984870957
 20
10.629999999999999
 10
-34.4161984870957
 20
11.02
 10
-34.4161984870957
 20
11.41
 10
-34.4161984870957
 20
11.8
 10
-34.4161984870957
 20
12.19
 10
-34.4161984870957
 20
12.58
 10
-34.4161984870957
 20
12.97
 10
-34.4161984870957
 20
13.36
 10
-34.4161984870957
 20
13.75
 10
-34.4161984870957
 20
14.14
 10
-34.4161984870957
 20
14.53
 10
-34.4161984870957
 20
14.92
 10
-34.4161984870957
 20
15.31
 10
-34.4161984870957
 20
15.7
 10
-34.4161984870957
 20
16.09
 10
-34.4161984870957
 20
16.48
 10
-34.4161984870957
 20
16.869999999999997
 10
-34.4161984870957
 20
17.259999999999998
 10
-34.4161984870957
 20
17.65
 10
-34.4161984870957
 20
18.04
 10
-34.4161984870957
 20
18.43
 10
-34.4161984870957
 20
18.82
 10
-34.4161984870957
 20
19.21
 10
-34.4161984870957
 20
19.6
 10
-34.4161984870957
 20
19.990000000000002
 10
-34.4161984870957
 20
20.38
 10
-34.4161984870957
 20
20.77
 10
-34.4161984870957
 20
21.16
 10
-34.4161984870957
 20
21.55
 10
-34.4161984870957
 20
21.94
 10
-34.4161984870957
 20
22.33
 10
-34.4161984870957
 20
22.72
 10
-34.4161984870957
 20
23.11
 10
-34.4161984870957
 20
23.5
  0
ENDSEC
  0
SECTION
  2
OBJECTS
  0
DICTIONARY
  5
A
330
0
100
AcDbDictionary
280
0
281
1
  3
ACAD_COLOR
350
B
  3
ACAD_GROUP
350
C
  3
ACAD_LAYOUT
350
D
  3
ACAD_MATERIAL
350
E
  3
ACAD_MLEADERSTYLE
350
F
  3
ACAD_MLINESTYLE
350
10
  3
ACAD_PLOTSETTINGS
350
11
  3
ACAD_PLOTSTYLENAME
350
12
  3
ACAD_SCALELIST
350
14
  3
ACAD_TABLESTYLE
350
15
  3
ACAD_VISUALSTYLE
350
16
  3
EZDXF_META
350
2D
  0
DICTIONARY
  5
B
330
A
100
AcDbDictionary
280
0
281
1
  0
DICTIONARY
  5
C
330
A
100
AcDbDictionary
280
0
281
1
  0
DICTIONARY
  5
D
330
A
100
AcDbDictionary
280
0
281
1
  3
Model
350
1A
  3
Layout1
350
1E
  0
DICTIONARY
  5
E
330
A
100
AcDbDictionary
280
0
281
1
  3
ByBlock
350
1F
  3
ByLayer
350
20
  3
Global
350
21
  0
DICTIONARY
  5
F
330
A
100
AcDbDictionary
280
0
281
1
  3
Standard
350
2C
  0
DICTIONARY
  5
10
330
A
100
AcDbDictionary
280
0
281
1
  3
Standard
350
22
  0
DICTIONARY
  5
11
330
A
100
AcDbDictionary
280
0
281
1
  0
ACDBDICTIONARYWDFLT
  5
12
330
A
100
AcDbDictionary
280
0
281
1
  3
Normal
350
13
100
AcDbDictionaryWithDefault
340
13
  0
ACDBPLACEHOLDER
  5
13
330
12
  0
DICTIONARY
  5
14
330
A
100
AcDbDictionary
280
0
281
1
  0
DICTIONARY
  5
15
330
A
100
AcDbDictionary
280
0
281
1
  0
DICTIONARY
  5
16
330
A
100
AcDbDictionary
280
0
281
1
  0
LAYOUT
  5
1A
330
D
100
AcDbPlotSettings
  1

  2
Adobe PDF
  4
A3
  6

 40
7.5
 41
20.0
 42
7.5
 43
20.0
 44
420.0
 45
297.0
 46
0.0
 47
0.0
 48
0.0
 49
0.0
140
0.0
141
0.0
142
1.0
143
1.0
 70
1024
 72
1
 73
0
 74
5
  7

 75
16
 76
0
 77
2
 78
300
147
1.0
148
0.0
149
0.0
100
AcDbLayout
  1
Model
 70
1
 71
0
 10
0.0
 20
0.0
 11
420.0
 21
297.0
 12
0.0
 22
0.0
 32
0.0
 14
1e+20
 24
1e+20
 34
1e+20
 15
-1e+20
 25
-1e+20
 35
-1e+20
146
0.0
 13
0.0
 23
0.0
 33
0.0
 16
1.0
 26
0.0
 36
0.0
 17
0.0
 27
1.0
 37
0.0
 76
1
330
17
  0
LAYOUT
  5
1E
330
D
100
AcDbPlotSettings
  1

  2
Adobe PDF
  4
A3
  6

 40
7.5
 41
20.0
 42
7.5
 43
20.0
 44
420.0
 45
297.0
 46
0.0
 47
0.0
 48
0.0
 49
0.0
140
0.0
141
0.0
142
1.0
143
1.0
 70
0
 72
1
 73
0
 74
5
  7

 75
16
 76
0
 77
2
 78
300
147
1.0
148
0.0
149
0.0
100
AcDbLayout
  1
Layout1
 70
1
 71
1
 10
0.0
 20
0.0
 11
420.0
 21
297.0
 12
0.0
 22
0.0
 32
0.0
 14
1e+20
 24
1e+20
 34
1e+20
 15
-1e+20
 25
-1e+20
 35
-1e+20
146
0.0
 13
0.0
 23
0.0
 33
0.0
 16
1.0
 26
0.0
 36
0.0
 17
0.0
 27
1.0
 37
0.0
 76
1
330
1B
  0
MATERIAL
  5
1F
102
{ACAD_REACTORS
330
E
102
}
330
E
100
AcDbMaterial
  1
ByBlock
  2

 70
0
 40
1.0
 71
1
 41
1.0
 91
-1023410177
 42
1.0
 72
1
  3

 73
1
 74
1
 75
1
 44
0.5
 73
0
 45
1.0
 46
1.0
 77
1
  4

 78
1
 79
1
170
1
 48
1.0
171
1
  6

172
1
173
1
174
1
140
1.0
141
1.0
175
1
  7

176
1
177
1
178
1
143
1.0
179
1
  8

270
1
271
1
272
1
145
1.0
146
1.0
273
1
  9

274
1
275
1
276
1
 42
1.0
 72
1
  3

 73
1
 74
1
 75
1
 94
63
  0
MATERIAL
  5
20
102
{ACAD_REACTORS
330
E
102
}
330
E
100
AcDbMaterial
  1
ByLayer
  2

 70
0
 40
1.0
 71
1
 41
1.0
 91
-1023410177
 42
1.0
 72
1
  3

 73
1
 74
1
 75
1
 44
0.5
 73
0
 45
1.0
 46
1.0
 77
1
  4

 78
1
 79
1
170
1
 48
1.0
171
1
  6

172
1
173
1
174
1
140
1.0
141
1.0
175
1
  7

176
1
177
1
178
1
143
1.0
179
1
  8

270
1
271
1
272
1
145
1.0
146
1.0
273
1
  9

274
1
275
1
276
1
 42
1.0
 72
1
  3

 73
1
 74
1
 75
1
 94
63
  0
MATERIAL
  5
21
102
{ACAD_REACTORS
330
E
102
}
330
E
100
AcDbMaterial
  1
Global
  2

 70
0
 40
1.0
 71
1
 41
1.0
 91
-1023410177
 42
1.0
 72
1
  3

 73
1
 74
1
 75
1
 44
0.5
 73
0
 45
1.0
 46
1.0
 77
1
  4

 78
1
 79
1
170
1
 48
1.0
171
1
  6

172
1
173
1
174
1
140
1.0
141
1.0
175
1
  7

176
1
177
1
178
1
143
1.0
179
1
  8

270
1
271
1
272
1
145
1.0
146
1.0
273
1
  9

274
1
275
1
276
1
 42
1.0
 72
1
  3

 73
1
 74
1
 75
1
 94
63
  0
MLINESTYLE
  5
22
102
{ACAD_REACTORS
330
10
102
}
330
10
100
AcDbMlineStyle
  2
Standard
 70
0
  3

 62
256
 51
90.0
 52
90.0
 71
2
 49
0.5
 62
256
  6
BYLAYER
 49
-0.5
 62
256
  6
BYLAYER
  0
MLEADERSTYLE
  5
2C
102
{ACAD_REACTORS
330
F
102
}
330
F
100
AcDbMLeaderStyle
179
2
170
2
171
1
172
0
 90
2
 40
0.0
 41
0.0
173
1
 91
-1056964608
 92
-2
290
1
 42
2.0
291
1
 43
8.0
  3
Standard
 44
4.0
300

342
29
174
1
175
1
176
0
178
1
 93
-1056964608
 45
4.0
292
0
297
0
 46
4.0
 94
-1056964608
 47
1.0
 49
1.0
140
1.0
294
1
141
0.0
177
0
142
1.0
295
0
296
0
143
3.75
271
0
272
9
273
9
  0
DICTIONARY
  5
2D
330
A
100
AcDbDictionary
281
1
  3
CREATED_BY_EZDXF
350
2E
  3
WRITTEN_BY_EZDXF
350
4C
  0
DICTIONARYVAR
  5
2E
330
2D
100
DictionaryVariables
280
0
  1
1.0.3 @ 2025-05-29T09:39:26.504126+00:00
  0
DICTIONARYVAR
  5
4C
330
2D
100
DictionaryVariables
280
0
  1
1.0.3 @ 2025-05-29T09:39:26.509116+00:00
  0
ENDSEC
  0
EOF
