  0
SECTION
  2
HEADER
  9
$ACADVER
  1
AC1027
  9
$ACADMAINTVER
 70
105
  9
$DWGCODEPAGE
  3
ANSI_1252
  9
$LASTSAVEDBY
  1
ezdxf
  9
$REQUIREDVERSIONS
160
0
  9
$INSBASE
 10
0.0
 20
0.0
 30
0.0
  9
$EXTMIN
 10
1e+20
 20
1e+20
 30
1e+20
  9
$EXTMAX
 10
-1e+20
 20
-1e+20
 30
-1e+20
  9
$LIMMIN
 10
0.0
 20
0.0
  9
$LIMMAX
 10
420.0
 20
297.0
  9
$ORTHOMODE
 70
0
  9
$REGENMODE
 70
1
  9
$FILLMODE
 70
1
  9
$QTEXTMODE
 70
0
  9
$MIRRTEXT
 70
1
  9
$LTSCALE
 40
1.0
  9
$ATTMODE
 70
1
  9
$TEXTSIZE
 40
2.5
  9
$TRACEWID
 40
1.0
  9
$TEXTSTYLE
  7
Standard
  9
$CLAYER
  8
0
  9
$CELTYPE
  6
ByLayer
  9
$CECOLOR
 62
256
  9
$CELTSCALE
 40
1.0
  9
$DISPSILH
 70
0
  9
$DIMSCALE
 40
1.0
  9
$DIMASZ
 40
2.5
  9
$DIMEXO
 40
0.625
  9
$DIMDLI
 40
3.75
  9
$DIMRND
 40
0.0
  9
$DIMDLE
 40
0.0
  9
$DIMEXE
 40
1.25
  9
$DIMTP
 40
0.0
  9
$DIMTM
 40
0.0
  9
$DIMTXT
 40
2.5
  9
$DIMCEN
 40
2.5
  9
$DIMTSZ
 40
0.0
  9
$DIMTOL
 70
0
  9
$DIMLIM
 70
0
  9
$DIMTIH
 70
0
  9
$DIMTOH
 70
0
  9
$DIMSE1
 70
0
  9
$DIMSE2
 70
0
  9
$DIMTAD
 70
1
  9
$DIMZIN
 70
8
  9
$DIMBLK
  1

  9
$DIMASO
 70
1
  9
$DIMSHO
 70
1
  9
$DIMPOST
  1

  9
$DIMAPOST
  1

  9
$DIMALT
 70
0
  9
$DIMALTD
 70
3
  9
$DIMALTF
 40
0.03937007874
  9
$DIMLFAC
 40
1.0
  9
$DIMTOFL
 70
1
  9
$DIMTVP
 40
0.0
  9
$DIMTIX
 70
0
  9
$DIMSOXD
 70
0
  9
$DIMSAH
 70
0
  9
$DIMBLK1
  1

  9
$DIMBLK2
  1

  9
$DIMSTYLE
  2
ISO-25
  9
$DIMCLRD
 70
0
  9
$DIMCLRE
 70
0
  9
$DIMCLRT
 70
0
  9
$DIMTFAC
 40
1.0
  9
$DIMGAP
 40
0.625
  9
$DIMJUST
 70
0
  9
$DIMSD1
 70
0
  9
$DIMSD2
 70
0
  9
$DIMTOLJ
 70
0
  9
$DIMTZIN
 70
8
  9
$DIMALTZ
 70
0
  9
$DIMALTTZ
 70
0
  9
$DIMUPT
 70
0
  9
$DIMDEC
 70
2
  9
$DIMTDEC
 70
2
  9
$DIMALTU
 70
2
  9
$DIMALTTD
 70
3
  9
$DIMTXSTY
  7
Standard
  9
$DIMAUNIT
 70
0
  9
$DIMADEC
 70
0
  9
$DIMALTRND
 40
0.0
  9
$DIMAZIN
 70
0
  9
$DIMDSEP
 70
44
  9
$DIMATFIT
 70
3
  9
$DIMFRAC
 70
0
  9
$DIMLDRBLK
  1

  9
$DIMLUNIT
 70
2
  9
$DIMLWD
 70
-2
  9
$DIMLWE
 70
-2
  9
$DIMTMOVE
 70
0
  9
$DIMFXL
 40
1.0
  9
$DIMFXLON
 70
0
  9
$DIMJOGANG
 40
0.785398163397
  9
$DIMTFILL
 70
0
  9
$DIMTFILLCLR
 70
0
  9
$DIMARCSYM
 70
0
  9
$DIMLTYPE
  6

  9
$DIMLTEX1
  6

  9
$DIMLTEX2
  6

  9
$DIMTXTDIRECTION
 70
0
  9
$LUNITS
 70
2
  9
$LUPREC
 70
4
  9
$SKETCHINC
 40
1.0
  9
$FILLETRAD
 40
10.0
  9
$AUNITS
 70
0
  9
$AUPREC
 70
2
  9
$MENU
  1
.
  9
$ELEVATION
 40
0.0
  9
$PELEVATION
 40
0.0
  9
$THICKNESS
 40
0.0
  9
$LIMCHECK
 70
0
  9
$CHAMFERA
 40
0.0
  9
$CHAMFERB
 40
0.0
  9
$CHAMFERC
 40
0.0
  9
$CHAMFERD
 40
0.0
  9
$SKPOLY
 70
0
  9
$TDCREATE
 40
2460825.7769560185
  9
$TDUCREATE
 40
2458532.153996898
  9
$TDUPDATE
 40
2460825.7769560185
  9
$TDUUPDATE
 40
2458532.1544311
  9
$TDINDWG
 40
0.0
  9
$TDUSRTIMER
 40
0.0
  9
$USRTIMER
 70
1
  9
$ANGBASE
 50
0.0
  9
$ANGDIR
 70
0
  9
$PDMODE
 70
0
  9
$PDSIZE
 40
0.0
  9
$PLINEWID
 40
0.0
  9
$SPLFRAME
 70
0
  9
$SPLINETYPE
 70
6
  9
$SPLINESEGS
 70
8
  9
$HANDSEED
  5
3C
  9
$SURFTAB1
 70
6
  9
$SURFTAB2
 70
6
  9
$SURFTYPE
 70
6
  9
$SURFU
 70
6
  9
$SURFV
 70
6
  9
$UCSBASE
  2

  9
$UCSNAME
  2

  9
$UCSORG
 10
0.0
 20
0.0
 30
0.0
  9
$UCSXDIR
 10
1.0
 20
0.0
 30
0.0
  9
$UCSYDIR
 10
0.0
 20
1.0
 30
0.0
  9
$UCSORTHOREF
  2

  9
$UCSORTHOVIEW
 70
0
  9
$UCSORGTOP
 10
0.0
 20
0.0
 30
0.0
  9
$UCSORGBOTTOM
 10
0.0
 20
0.0
 30
0.0
  9
$UCSORGLEFT
 10
0.0
 20
0.0
 30
0.0
  9
$UCSORGRIGHT
 10
0.0
 20
0.0
 30
0.0
  9
$UCSORGFRONT
 10
0.0
 20
0.0
 30
0.0
  9
$UCSORGBACK
 10
0.0
 20
0.0
 30
0.0
  9
$PUCSBASE
  2

  9
$PUCSNAME
  2

  9
$PUCSORG
 10
0.0
 20
0.0
 30
0.0
  9
$PUCSXDIR
 10
1.0
 20
0.0
 30
0.0
  9
$PUCSYDIR
 10
0.0
 20
1.0
 30
0.0
  9
$PUCSORTHOREF
  2

  9
$PUCSORTHOVIEW
 70
0
  9
$PUCSORGTOP
 10
0.0
 20
0.0
 30
0.0
  9
$PUCSORGBOTTOM
 10
0.0
 20
0.0
 30
0.0
  9
$PUCSORGLEFT
 10
0.0
 20
0.0
 30
0.0
  9
$PUCSORGRIGHT
 10
0.0
 20
0.0
 30
0.0
  9
$PUCSORGFRONT
 10
0.0
 20
0.0
 30
0.0
  9
$PUCSORGBACK
 10
0.0
 20
0.0
 30
0.0
  9
$USERI1
 70
0
  9
$USERI2
 70
0
  9
$USERI3
 70
0
  9
$USERI4
 70
0
  9
$USERI5
 70
0
  9
$USERR1
 40
0.0
  9
$USERR2
 40
0.0
  9
$USERR3
 40
0.0
  9
$USERR4
 40
0.0
  9
$USERR5
 40
0.0
  9
$WORLDVIEW
 70
1
  9
$SHADEDGE
 70
3
  9
$SHADEDIF
 70
70
  9
$TILEMODE
 70
1
  9
$MAXACTVP
 70
64
  9
$PINSBASE
 10
0.0
 20
0.0
 30
0.0
  9
$PLIMCHECK
 70
0
  9
$PEXTMIN
 10
1e+20
 20
1e+20
 30
1e+20
  9
$PEXTMAX
 10
-1e+20
 20
-1e+20
 30
-1e+20
  9
$PLIMMIN
 10
0.0
 20
0.0
  9
$PLIMMAX
 10
420.0
 20
297.0
  9
$UNITMODE
 70
0
  9
$VISRETAIN
 70
1
  9
$PLINEGEN
 70
0
  9
$PSLTSCALE
 70
1
  9
$TREEDEPTH
 70
3020
  9
$CMLSTYLE
  2
Standard
  9
$CMLJUST
 70
0
  9
$CMLSCALE
 40
20.0
  9
$PROXYGRAPHICS
 70
1
  9
$MEASUREMENT
 70
1
  9
$CELWEIGHT
370
-1
  9
$ENDCAPS
280
0
  9
$JOINSTYLE
280
0
  9
$LWDISPLAY
290
0
  9
$INSUNITS
 70
6
  9
$HYPERLINKBASE
  1

  9
$STYLESHEET
  1

  9
$XEDIT
290
1
  9
$CEPSNTYPE
380
0
  9
$PSTYLEMODE
290
1
  9
$FINGERPRINTGUID
  2
{6E51616F-3B08-4B9B-8AD5-4F83D30B28D5}
  9
$VERSIONGUID
  2
{BB0CB1FF-192D-4E48-83A2-B5133EFA9278}
  9
$EXTNAMES
290
1
  9
$PSVPSCALE
 40
0.0
  9
$OLESTARTUP
290
0
  9
$SORTENTS
280
127
  9
$INDEXCTL
280
0
  9
$HIDETEXT
280
1
  9
$XCLIPFRAME
280
0
  9
$HALOGAP
280
0
  9
$OBSCOLOR
 70
257
  9
$OBSLTYPE
280
0
  9
$INTERSECTIONDISPLAY
280
0
  9
$INTERSECTIONCOLOR
 70
257
  9
$DIMASSOC
280
2
  9
$PROJECTNAME
  1

  9
$CAMERADISPLAY
290
0
  9
$LENSLENGTH
 40
50.0
  9
$CAMERAHEIGHT
 40
0.0
  9
$STEPSPERSEC
 40
24.0
  9
$STEPSIZE
 40
100.0
  9
$3DDWFPREC
 40
2.0
  9
$PSOLWIDTH
 40
0.005
  9
$PSOLHEIGHT
 40
0.08
  9
$LOFTANG1
 40
1.570796326795
  9
$LOFTANG2
 40
1.570796326795
  9
$LOFTMAG1
 40
0.0
  9
$LOFTMAG2
 40
0.0
  9
$LOFTPARAM
 70
7
  9
$LOFTNORMALS
280
1
  9
$LATITUDE
 40
37.795
  9
$LONGITUDE
 40
-122.394
  9
$NORTHDIRECTION
 40
0.0
  9
$TIMEZONE
 70
-8000
  9
$LIGHTGLYPHDISPLAY
280
1
  9
$TILEMODELIGHTSYNCH
280
1
  9
$CMATERIAL
347
20
  9
$SOLIDHIST
280
0
  9
$SHOWHIST
280
1
  9
$DWFFRAME
280
2
  9
$DGNFRAME
280
2
  9
$REALWORLDSCALE
290
1
  9
$INTERFERECOLOR
 62
256
  9
$CSHADOW
280
0
  9
$SHADOWPLANELOCATION
 40
0.0
  0
ENDSEC
  0
SECTION
  2
CLASSES
  0
CLASS
  1
ACDBDICTIONARYWDFLT
  2
AcDbDictionaryWithDefault
  3
ObjectDBX Classes
 90
0
 91
0
280
0
281
0
  0
CLASS
  1
SUN
  2
AcDbSun
  3
SCENEOE
 90
1153
 91
0
280
0
281
0
  0
CLASS
  1
VISUALSTYLE
  2
AcDbVisualStyle
  3
ObjectDBX Classes
 90
4095
 91
0
280
0
281
0
  0
CLASS
  1
MATERIAL
  2
AcDbMaterial
  3
ObjectDBX Classes
 90
1153
 91
0
280
0
281
0
  0
CLASS
  1
SCALE
  2
AcDbScale
  3
ObjectDBX Classes
 90
1153
 91
0
280
0
281
0
  0
CLASS
  1
TABLESTYLE
  2
AcDbTableStyle
  3
ObjectDBX Classes
 90
4095
 91
0
280
0
281
0
  0
CLASS
  1
MLEADERSTYLE
  2
AcDbMLeaderStyle
  3
ACDB_MLEADERSTYLE_CLASS
 90
4095
 91
0
280
0
281
0
  0
CLASS
  1
DICTIONARYVAR
  2
AcDbDictionaryVar
  3
ObjectDBX Classes
 90
0
 91
0
280
0
281
0
  0
CLASS
  1
CELLSTYLEMAP
  2
AcDbCellStyleMap
  3
ObjectDBX Classes
 90
1152
 91
0
280
0
281
0
  0
CLASS
  1
MENTALRAYRENDERSETTINGS
  2
AcDbMentalRayRenderSettings
  3
SCENEOE
 90
1024
 91
0
280
0
281
0
  0
CLASS
  1
ACDBDETAILVIEWSTYLE
  2
AcDbDetailViewStyle
  3
ObjectDBX Classes
 90
1025
 91
0
280
0
281
0
  0
CLASS
  1
ACDBSECTIONVIEWSTYLE
  2
AcDbSectionViewStyle
  3
ObjectDBX Classes
 90
1025
 91
0
280
0
281
0
  0
CLASS
  1
RASTERVARIABLES
  2
AcDbRasterVariables
  3
ISM
 90
0
 91
0
280
0
281
0
  0
CLASS
  1
LAYOUT
  2
AcDbLayout
  3
ObjectDBX Classes
 90
0
 91
0
280
0
281
0
  0
CLASS
  1
ACDBPLACEHOLDER
  2
AcDbPlaceHolder
  3
ObjectDBX Classes
 90
0
 91
0
280
0
281
0
  0
ENDSEC
  0
SECTION
  2
TABLES
  0
TABLE
  2
VPORT
  5
8
330
0
100
AcDbSymbolTable
 70
1
  0
VPORT
  5
23
330
8
100
AcDbSymbolTableRecord
100
AcDbViewportTableRecord
  2
*Active
 70
0
 10
0.0
 20
0.0
 11
1.0
 21
1.0
 12
0.0
 22
0.0
 13
0.0
 23
0.0
 14
0.5
 24
0.5
 15
0.5
 25
0.5
 16
0.0
 26
0.0
 36
1.0
 17
0.0
 27
0.0
 37
0.0
 40
1000.0
 41
1.34
 42
50.0
 43
0.0
 44
0.0
 50
0.0
 51
0.0
 71
0
 72
1000
 73
1
 74
3
 75
0
 76
0
 77
0
 78
0
281
0
 65
0
146
0.0
  0
ENDTAB
  0
TABLE
  2
LTYPE
  5
2
330
0
100
AcDbSymbolTable
 70
3
  0
LTYPE
  5
24
330
2
100
AcDbSymbolTableRecord
100
AcDbLinetypeTableRecord
  2
ByBlock
 70
0
  3

 72
65
 73
0
 40
0.0
  0
LTYPE
  5
25
330
2
100
AcDbSymbolTableRecord
100
AcDbLinetypeTableRecord
  2
ByLayer
 70
0
  3

 72
65
 73
0
 40
0.0
  0
LTYPE
  5
26
330
2
100
AcDbSymbolTableRecord
100
AcDbLinetypeTableRecord
  2
Continuous
 70
0
  3

 72
65
 73
0
 40
0.0
  0
ENDTAB
  0
TABLE
  2
LAYER
  5
1
330
0
100
AcDbSymbolTable
 70
2
  0
LAYER
  5
27
330
1
100
AcDbSymbolTableRecord
100
AcDbLayerTableRecord
  2
0
 70
0
 62
7
  6
Continuous
370
-3
390
13
347
21
  0
LAYER
  5
28
330
1
100
AcDbSymbolTableRecord
100
AcDbLayerTableRecord
  2
Defpoints
 70
0
 62
7
  6
Continuous
290
0
370
-3
390
13
347
21
  0
ENDTAB
  0
TABLE
  2
STYLE
  5
5
330
0
100
AcDbSymbolTable
 70
1
  0
STYLE
  5
29
330
5
100
AcDbSymbolTableRecord
100
AcDbTextStyleTableRecord
  2
Standard
 70
0
 40
0.0
 41
1.0
 50
0.0
 71
0
 42
2.5
  3
txt
  4

  0
ENDTAB
  0
TABLE
  2
VIEW
  5
7
330
0
100
AcDbSymbolTable
 70
0
  0
ENDTAB
  0
TABLE
  2
UCS
  5
6
330
0
100
AcDbSymbolTable
 70
0
  0
ENDTAB
  0
TABLE
  2
APPID
  5
3
330
0
100
AcDbSymbolTable
 70
3
  0
APPID
  5
2A
330
3
100
AcDbSymbolTableRecord
100
AcDbRegAppTableRecord
  2
ACAD
 70
0
  0
APPID
  5
39
330
3
100
AcDbSymbolTableRecord
100
AcDbRegAppTableRecord
  2
HATCHBACKGROUNDCOLOR
 70
0
  0
APPID
  5
3A
330
3
100
AcDbSymbolTableRecord
100
AcDbRegAppTableRecord
  2
EZDXF
 70
0
  0
ENDTAB
  0
TABLE
  2
DIMSTYLE
  5
4
330
0
100
AcDbSymbolTable
 70
1
100
AcDbDimStyleTable
  0
DIMSTYLE
105
2B
330
4
100
AcDbSymbolTableRecord
100
AcDbDimStyleTableRecord
  2
Standard
 70
0
 40
1.0
 41
2.5
 42
0.625
 43
3.75
 44
1.25
 45
0.0
 46
0.0
 47
0.0
 48
0.0
 49
2.5
140
2.5
141
2.5
142
0.0
143
0.03937007874
144
1.0
145
0.0
146
1.0
147
0.625
148
0.0
 69
0
 70
0
 71
0
 72
0
 73
0
 74
0
 75
0
 76
0
 77
1
 78
8
 79
3
170
0
171
3
172
1
173
0
174
0
175
0
176
0
177
0
178
0
179
2
271
2
272
2
273
2
274
3
275
0
276
0
277
2
278
44
279
0
280
0
281
0
282
0
283
0
284
8
285
0
286
0
288
0
289
3
290
0
371
-2
372
-2
  0
ENDTAB
  0
TABLE
  2
BLOCK_RECORD
  5
9
330
0
100
AcDbSymbolTable
 70
2
  0
BLOCK_RECORD
  5
17
330
9
100
AcDbSymbolTableRecord
100
AcDbBlockTableRecord
  2
*Model_Space
340
1A
 70
0
280
1
281
0
  0
BLOCK_RECORD
  5
1B
330
9
100
AcDbSymbolTableRecord
100
AcDbBlockTableRecord
  2
*Paper_Space
340
1E
 70
0
280
1
281
0
  0
ENDTAB
  0
ENDSEC
  0
SECTION
  2
BLOCKS
  0
BLOCK
  5
18
330
17
100
AcDbEntity
  8
0
100
AcDbBlockBegin
  2
*Model_Space
 70
0
 10
0.0
 20
0.0
 30
0.0
  3
*Model_Space
  1

  0
ENDBLK
  5
19
330
17
100
AcDbEntity
  8
0
100
AcDbBlockEnd
  0
BLOCK
  5
1C
330
1B
100
AcDbEntity
  8
0
100
AcDbBlockBegin
  2
*Paper_Space
 70
0
 10
0.0
 20
0.0
 30
0.0
  3
*Paper_Space
  1

  0
ENDBLK
  5
1D
330
1B
100
AcDbEntity
  8
0
100
AcDbBlockEnd
  0
ENDSEC
  0
SECTION
  2
ENTITIES
  0
LWPOLYLINE
  5
2F
330
17
100
AcDbEntity
  8
0
100
AcDbPolyline
 90
51
 70
0
 10
13.9
 20
12.0
 10
13.9
 20
11.76
 10
13.9
 20
11.52
 10
13.9
 20
11.28
 10
13.9
 20
11.04
 10
13.9
 20
10.8
 10
13.9
 20
10.56
 10
13.9
 20
10.32
 10
13.9
 20
10.08
 10
13.9
 20
9.84
 10
13.9
 20
9.6
 10
13.9
 20
9.36
 10
13.9
 20
9.120000000000001
 10
13.9
 20
8.879999999999999
 10
13.9
 20
8.64
 10
13.9
 20
8.4
 10
13.9
 20
8.16
 10
13.9
 20
7.92
 10
13.9
 20
7.68
 10
13.9
 20
7.44
 10
13.9
 20
7.2
 10
13.9
 20
6.96
 10
13.9
 20
6.72
 10
13.9
 20
6.48
 10
13.9
 20
6.24
 10
13.9
 20
6.0
 10
13.9
 20
5.76
 10
13.9
 20
5.52
 10
13.9
 20
5.28
 10
13.9
 20
5.04
 10
13.9
 20
4.8
 10
13.9
 20
4.56
 10
13.9
 20
4.32
 10
13.9
 20
4.08
 10
13.9
 20
3.84
 10
13.9
 20
3.5999999999999996
 10
13.9
 20
3.3599999999999994
 10
13.9
 20
3.119999999999999
 10
13.9
 20
2.880000000000001
 10
13.9
 20
2.6400000000000006
 10
13.9
 20
2.4000000000000004
 10
13.9
 20
2.16
 10
13.9
 20
1.92
 10
13.9
 20
1.6799999999999997
 10
13.9
 20
1.4399999999999995
 10
13.9
 20
1.1999999999999993
 10
13.9
 20
0.9600000000000009
 10
13.9
 20
0.7200000000000006
 10
13.9
 20
0.4800000000000004
 10
13.9
 20
0.2400000000000002
 10
13.900000000000002
 20
0.0
  0
LWPOLYLINE
  5
30
330
17
100
AcDbEntity
  8
0
100
AcDbPolyline
 90
51
 70
0
 10
-0.0999999999999977
 20
5.0
 10
-0.09999999999999773
 20
5.14
 10
-0.09999999999999777
 20
5.28
 10
-0.0999999999999978
 20
5.42
 10
-0.09999999999999784
 20
5.5600000000000005
 10
-0.09999999999999787
 20
5.7
 10
-0.09999999999999791
 20
5.84
 10
-0.09999999999999794
 20
5.98
 10
-0.09999999999999798
 20
6.12
 10
-0.09999999999999801
 20
6.26
 10
-0.09999999999999805
 20
6.4
 10
-0.09999999999999808
 20
6.54
 10
-0.09999999999999812
 20
6.68
 10
-0.09999999999999815
 20
6.82
 10
-0.09999999999999819
 20
6.96
 10
-0.09999999999999822
 20
7.1
 10
-0.09999999999999826
 20
7.24
 10
-0.09999999999999828
 20
7.38
 10
-0.09999999999999833
 20
7.52
 10
-0.09999999999999835
 20
7.66
 10
-0.0999999999999984
 20
7.8
 10
-0.09999999999999842
 20
7.9399999999999995
 10
-0.09999999999999847
 20
8.08
 10
-0.09999999999999849
 20
8.22
 10
-0.09999999999999853
 20
8.36
 10
-0.09999999999999856
 20
8.5
 10
-0.0999999999999986
 20
8.64
 10
-0.09999999999999863
 20
8.78
 10
-0.09999999999999867
 20
8.92
 10
-0.0999999999999987
 20
9.059999999999999
 10
-0.09999999999999874
 20
9.2
 10
-0.09999999999999877
 20
9.34
 10
-0.09999999999999881
 20
9.48
 10
-0.09999999999999884
 20
9.620000000000001
 10
-0.09999999999999888
 20
9.76
 10
-0.09999999999999891
 20
9.9
 10
-0.09999999999999895
 20
10.04
 10
-0.09999999999999898
 20
10.18
 10
-0.09999999999999902
 20
10.32
 10
-0.09999999999999905
 20
10.46
 10
-0.09999999999999909
 20
10.6
 10
-0.09999999999999912
 20
10.74
 10
-0.09999999999999916
 20
10.879999999999999
 10
-0.09999999999999919
 20
11.02
 10
-0.09999999999999923
 20
11.16
 10
-0.09999999999999926
 20
11.3
 10
-0.0999999999999993
 20
11.440000000000001
 10
-0.09999999999999933
 20
11.58
 10
-0.09999999999999937
 20
11.719999999999999
 10
-0.0999999999999994
 20
11.86
 10
-0.09999999999999944
 20
12.0
  0
LWPOLYLINE
  5
31
330
17
100
AcDbEntity
  8
0
100
AcDbPolyline
 90
51
 70
0
 10
-0.09999999999999964
 20
11.999999999999998
 10
-0.08618709899790034
 20
12.439533636705189
 10
-0.04480290920134511
 20
12.877332634950129
 10
0.02398924489917942
 20
13.31166920210007
 10
0.11991787209958282
 20
13.740829210153985
 10
0.24260438593392486
 20
14.16311896062463
 10
0.3915645987822396
 20
14.576871868792741
 10
0.5662106327378638
 20
14.980455040955508
 10
0.7658532396929534
 20
15.372275718712004
 10
0.9897045214858959
 20
15.750787564852978
 10
1.2368810393753673
 20
16.11449676604731
 10
1.5064073005694736
 20
16.461967928240824
 10
1.7972196080501197
 20
16.79182974150082
 10
2.108170258499178
 20
17.102780391949878
 10
2.4380320717591726
 20
17.393592699430528
 10
2.785503233952687
 20
17.66311896062463
 10
3.1492124351470205
 20
17.910295478514104
 10
3.527724281287993
 20
18.134146760307047
 10
3.9195449590444893
 20
18.333789367262135
 10
4.323128131207255
 20
18.50843540121776
 10
4.736881039375366
 20
18.657395614066075
 10
5.159170789846013
 20
18.780082127900418
 10
5.5883307978999275
 20
18.876010755100822
 10
6.022667365049868
 20
18.944802909201343
 10
6.460466363294808
 20
18.986187098997902
 10
6.899999999999999
 20
19.0
 10
7.339533636705189
 20
18.986187098997902
 10
7.777332634950129
 20
18.944802909201346
 10
8.21166920210007
 20
18.876010755100822
 10
8.640829210153985
 20
18.780082127900418
 10
9.063118960624632
 20
18.657395614066075
 10
9.476871868792742
 20
18.50843540121776
 10
9.880455040955509
 20
18.333789367262135
 10
10.27227571871201
 20
18.134146760307043
 10
10.650787564852976
 20
17.910295478514104
 10
11.01449676604731
 20
17.663118960624633
 10
11.361967928240825
 20
17.393592699430528
 10
11.691829741500822
 20
17.10278039194988
 10
12.00278039194988
 20
16.791829741500823
 10
12.293592699430526
 20
16.461967928240828
 10
12.563118960624632
 20
16.114496766047314
 10
12.810295478514103
 20
15.75078756485298
 10
13.034146760307046
 20
15.372275718712007
 10
13.233789367262137
 20
14.980455040955512
 10
13.40843540121776
 20
14.576871868792745
 10
13.557395614066074
 20
14.163118960624633
 10
13.680082127900416
 20
13.740829210153988
 10
13.77601075510082
 20
13.311669202100074
 10
13.844802909201345
 20
12.877332634950132
 10
13.886187098997901
 20
12.439533636705193
 10
13.9
 20
12.000000000000002
  0
LWPOLYLINE
  5
32
330
17
100
AcDbEntity
  8
0
100
AcDbPolyline
 90
51
 70
0
 10
13.9
 20
9.87654402706539e-16
 10
12.844000000000001
 20
9.126210898102725e-16
 10
11.788
 20
8.375877769140059e-16
 10
10.732000000000001
 20
7.625544640177393e-16
 10
9.676
 20
6.875211511214727e-16
 10
8.620000000000001
 20
6.124878382252063e-16
 10
7.564000000000001
 20
5.374545253289397e-16
 10
6.508000000000001
 20
4.624212124326731e-16
 10
5.452
 20
3.873878995364065e-16
 10
4.396000000000001
 20
3.1235458664014e-16
 10
3.34
 20
2.3732127374387336e-16
 10
2.2840000000000007
 20
1.6228796084760688e-16
 10
1.2280000000000015
 20
8.725464795134038e-17
 10
0.1720000000000006
 20
1.2221335055073761e-17
 10
-0.8839999999999986
 20
-6.281197784119274e-17
 10
-1.9399999999999995
 20
-1.3784529073745937e-16
 10
-2.9960000000000004
 20
-2.1287860363372597e-16
 10
-4.051999999999998
 20
-2.8791191652999235e-16
 10
-5.107999999999999
 20
-3.62945229426259e-16
 10
-6.164
 20
-4.379785423225256e-16
 10
-7.220000000000001
 20
-5.130118552187922e-16
 10
-8.275999999999998
 20
-5.880451681150586e-16
 10
-9.331999999999999
 20
-6.630784810113252e-16
 10
-10.387999999999996
 20
-7.381117939075916e-16
 10
-11.443999999999997
 20
-8.131451068038582e-16
 10
-12.499999999999998
 20
-8.881784197001248e-16
 10
-13.556
 20
-9.632117325963915e-16
 10
-14.611999999999997
 20
-1.0382450454926578e-15
 10
-15.667999999999997
 20
-1.1132783583889245e-15
 10
-16.723999999999997
 20
-1.188311671285191e-15
 10
-17.78
 20
-1.2633449841814578e-15
 10
-18.836
 20
-1.3383782970777241e-15
 10
-19.892000000000003
 20
-1.413411609973991e-15
 10
-20.948
 20
-1.4884449228702575e-15
 10
-22.003999999999998
 20
-1.5634782357665238e-15
 10
-23.060000000000002
 20
-1.6385115486627906e-15
 10
-24.116
 20
-1.7135448615590571e-15
 10
-25.171999999999997
 20
-1.7885781744553234e-15
 10
-26.228
 20
-1.86361148735159e-15
 10
-27.284
 20
-1.9386448002478567e-15
 10
-28.340000000000003
 20
-2.0136781131441234e-15
 10
-29.395999999999994
 20
-2.0887114260403893e-15
 10
-30.451999999999998
 20
-2.1637447389366564e-15
 10
-31.508000000000003
 20
-2.238778051832923e-15
 10
-32.564
 20
-2.3138113647291894e-15
 10
-33.620000000000005
 20
-2.3888446776254564e-15
 10
-34.675999999999995
 20
-2.4638779905217223e-15
 10
-35.732
 20
-2.538911303417989e-15
 10
-36.788
 20
-2.6139446163142557e-15
 10
-37.844
 20
-2.6889779292105223e-15
 10
-38.9
 20
-2.7640112421067886e-15
  0
LWPOLYLINE
  5
33
330
17
100
AcDbEntity
  8
0
100
AcDbPolyline
 90
51
 70
0
 10
10.9
 20
12.0
 10
10.88224785841232
 20
11.623566746725944
 10
10.829149002914756
 20
11.2504747416571
 10
10.741174742707774
 20
10.884035575843082
 10
10.619105943553006
 20
10.527501789261288
 10
10.464026096753472
 20
10.184038001041813
 10
10.277311702008062
 20
9.856692820084014
 10
10.060620049502763
 20
9.548371785388095
 10
9.815874509685646
 20
9.261811576285245
 10
9.545247461294608
 20
8.999555721478162
 10
9.251141009169894
 20
8.76393202250021
 10
8.936165663001486
 20
8.557031891984225
 10
8.603117166260292
 20
8.380691790135923
 10
8.254951680981165
 20
8.236476924183098
 10
7.89475954865942
 20
8.125667355485476
 10
7.525737860160924
 20
8.049246637619449
 10
7.151162078117254
 20
8.007893086286913
 10
6.774356963687488
 20
8.001973758537073
 10
6.398667065742783
 20
8.031541194742088
 10
6.027427034413832
 20
8.09633295224501
 10
5.663932022500211
 20
8.195773934819385
 10
5.311408437460877
 20
8.328981497264076
 10
4.972985303593139
 20
8.494773279824546
 10
4.651666488591478
 20
8.691677702901753
 10
4.350304041005241
 20
8.917947028896844
 10
4.0715728752538105
 20
9.171572875253808
 10
3.817947028896843
 20
9.450304041005243
 10
3.591677702901754
 20
9.751666488591477
 10
3.394773279824546
 20
10.07298530359314
 10
3.2289814972640767
 20
10.411408437460876
 10
3.0957739348193862
 20
10.76393202250021
 10
2.9963329522450115
 20
11.127427034413827
 10
2.9315411947420893
 20
11.498667065742781
 10
2.901973758537074
 20
11.874356963687486
 10
2.907893086286914
 20
12.251162078117252
 10
2.9492466376194493
 20
12.625737860160923
 10
3.025667355485476
 20
12.99475954865942
 10
3.136476924183098
 20
13.354951680981165
 10
3.2806917901359207
 20
13.703117166260288
 10
3.4570318919842267
 20
14.036165663001487
 10
3.66393202250021
 20
14.351141009169892
 10
3.89955572147816
 20
14.645247461294606
 10
4.161811576285247
 20
14.915874509685647
 10
4.448371785388094
 20
15.16062004950276
 10
4.756692820084015
 20
15.377311702008061
 10
5.0840380010418125
 20
15.564026096753471
 10
5.427501789261289
 20
15.719105943553005
 10
5.784035575843082
 20
15.841174742707771
 10
6.150474741657102
 20
15.929149002914755
 10
6.523566746725944
 20
15.98224785841232
 10
6.8999999999999995
 20
16.0
  0
LWPOLYLINE
  5
34
330
17
100
AcDbEntity
  8
0
100
AcDbPolyline
 90
51
 70
0
 10
6.9
 20
16.0
 10
7.0256430363125135
 20
15.998026241462927
 10
7.151162078117254
 20
15.992106913713087
 10
7.276433253274058
 20
15.98224785841232
 10
7.401332934257217
 20
15.968458805257912
 10
7.525737860160924
 20
15.950753362380551
 10
7.649525258342899
 20
15.929149002914755
 10
7.77257296558617
 20
15.90366704775499
 10
7.89475954865942
 20
15.874332644514524
 10
8.015964424156918
 20
15.841174742707771
 10
8.13606797749979
 20
15.804226065180615
 10
8.254951680981165
 20
15.763523075816902
 10
8.372498210738712
 20
15.719105943553005
 10
8.488591562539122
 20
15.671018502735924
 10
8.60311716626029
 20
15.619308209864078
 10
8.715961998958187
 20
15.564026096753471
 10
8.827014696406861
 20
15.505226720175454
 10
8.936165663001486
 20
15.442968108015775
 10
9.043307179915987
 20
15.377311702008061
 10
9.148333511408524
 20
15.308322297098247
 10
9.251141009169892
 20
15.23606797749979
 10
9.351628214611907
 20
15.16062004950276
 10
9.44969595899476
 20
15.082052971103156
 10
9.545247461294608
 20
15.000444278521838
 10
9.638188423714755
 20
14.915874509685647
 10
9.72842712474619
 20
14.82842712474619
 10
9.815874509685646
 20
14.738188423714755
 10
9.900444278521839
 20
14.645247461294607
 10
9.982052971103158
 20
14.549695958994759
 10
10.060620049502763
 20
14.451628214611906
 10
10.13606797749979
 20
14.351141009169893
 10
10.208322297098247
 20
14.248333511408523
 10
10.27731170200806
 20
14.143307179915986
 10
10.342968108015775
 20
14.036165663001485
 10
10.405226720175456
 20
13.92701469640686
 10
10.464026096753472
 20
13.815961998958187
 10
10.519308209864079
 20
13.703117166260292
 10
10.571018502735924
 20
13.588591562539122
 10
10.619105943553006
 20
13.472498210738712
 10
10.663523075816903
 20
13.354951680981166
 10
10.704226065180615
 20
13.23606797749979
 10
10.741174742707772
 20
13.115964424156918
 10
10.774332644514525
 20
12.994759548659419
 10
10.80366704775499
 20
12.872572965586171
 10
10.829149002914754
 20
12.7495252583429
 10
10.850753362380551
 20
12.625737860160923
 10
10.868458805257912
 20
12.501332934257217
 10
10.88224785841232
 20
12.376433253274056
 10
10.892106913713086
 20
12.251162078117254
 10
10.898026241462926
 20
12.125643036312514
 10
10.9
 20
12.0
  0
LWPOLYLINE
  5
35
330
17
100
AcDbEntity
  8
0
100
AcDbPolyline
 90
51
 70
0
 10
-38.9
 20
-2.76401124210679e-15
 10
-38.9
 20
0.09999999999999729
 10
-38.9
 20
0.19999999999999732
 10
-38.9
 20
0.2999999999999974
 10
-38.9
 20
0.3999999999999974
 10
-38.9
 20
0.49999999999999756
 10
-38.9
 20
0.5999999999999975
 10
-38.9
 20
0.6999999999999976
 10
-38.9
 20
0.7999999999999976
 10
-38.9
 20
0.8999999999999977
 10
-38.9
 20
0.9999999999999979
 10
-38.9
 20
1.0999999999999979
 10
-38.9
 20
1.199999999999998
 10
-38.9
 20
1.2999999999999978
 10
-38.9
 20
1.3999999999999981
 10
-38.9
 20
1.4999999999999982
 10
-38.9
 20
1.599999999999998
 10
-38.9
 20
1.6999999999999982
 10
-38.9
 20
1.7999999999999983
 10
-38.9
 20
1.8999999999999986
 10
-38.9
 20
1.9999999999999987
 10
-38.9
 20
2.0999999999999983
 10
-38.9
 20
2.1999999999999984
 10
-38.9
 20
2.2999999999999985
 10
-38.9
 20
2.3999999999999986
 10
-38.9
 20
2.4999999999999987
 10
-38.9
 20
2.5999999999999983
 10
-38.9
 20
2.699999999999999
 10
-38.9
 20
2.799999999999999
 10
-38.9
 20
2.899999999999999
 10
-38.9
 20
2.999999999999999
 10
-38.9
 20
3.099999999999999
 10
-38.9
 20
3.199999999999999
 10
-38.9
 20
3.299999999999999
 10
-38.9
 20
3.399999999999999
 10
-38.9
 20
3.499999999999999
 10
-38.9
 20
3.599999999999999
 10
-38.9
 20
3.699999999999999
 10
-38.9
 20
3.8
 10
-38.9
 20
3.8999999999999995
 10
-38.9
 20
4.0
 10
-38.9
 20
4.1
 10
-38.9
 20
4.199999999999999
 10
-38.9
 20
4.3
 10
-38.9
 20
4.3999999999999995
 10
-38.9
 20
4.5
 10
-38.9
 20
4.6
 10
-38.9
 20
4.699999999999999
 10
-38.9
 20
4.8
 10
-38.9
 20
4.9
 10
-38.9
 20
5.0
  0
LWPOLYLINE
  5
36
330
17
100
AcDbEntity
  8
0
100
AcDbPolyline
 90
51
 70
0
 10
-20.0
 20
5.0
 10
-19.602
 20
5.0
 10
-19.204
 20
5.0
 10
-18.806
 20
5.0
 10
-18.408
 20
5.0
 10
-18.009999999999998
 20
5.0
 10
-17.612000000000002
 20
5.0
 10
-17.214
 20
5.0
 10
-16.816
 20
5.0
 10
-16.418
 20
5.0
 10
-16.02
 20
5.0
 10
-15.622
 20
5.0
 10
-15.224
 20
5.0
 10
-14.825999999999999
 20
5.0
 10
-14.428
 20
5.0
 10
-14.029999999999998
 20
5.0
 10
-13.632
 20
5.0
 10
-13.234
 20
5.0
 10
-12.835999999999999
 20
5.0
 10
-12.437999999999999
 20
5.0
 10
-12.04
 20
5.0
 10
-11.642
 20
5.0
 10
-11.243999999999998
 20
5.0
 10
-10.845999999999998
 20
5.0
 10
-10.448
 20
5.0
 10
-10.049999999999999
 20
5.0
 10
-9.651999999999997
 20
5.0
 10
-9.253999999999998
 20
5.0
 10
-8.856000000000002
 20
5.0
 10
-8.457999999999998
 20
5.0
 10
-8.059999999999995
 20
5.0
 10
-7.661999999999999
 20
5.0
 10
-7.263999999999999
 20
5.0
 10
-6.866
 20
5.0
 10
-6.468
 20
5.0
 10
-6.07
 20
5.0
 10
-5.671999999999997
 20
5.0
 10
-5.274000000000001
 20
5.0
 10
-4.875999999999998
 20
5.0
 10
-4.477999999999998
 20
5.0
 10
-4.079999999999998
 20
5.0
 10
-3.6819999999999986
 20
5.0
 10
-3.283999999999999
 20
5.0
 10
-2.8859999999999992
 20
5.0
 10
-2.487999999999996
 20
5.0
 10
-2.0899999999999963
 20
5.0
 10
-1.6919999999999966
 20
5.0
 10
-1.293999999999997
 20
5.0
 10
-0.8960000000000008
 20
5.0
 10
-0.49799999999999756
 20
5.0
 10
-0.09999999999999787
 20
5.0
  0
LWPOLYLINE
  5
37
330
17
100
AcDbEntity
  8
0
100
AcDbPolyline
 90
51
 70
0
 10
-38.9
 20
5.0
 10
-38.123999999999995
 20
5.0
 10
-37.348
 20
5.0
 10
-36.572
 20
5.0
 10
-35.796
 20
5.0
 10
-35.019999999999996
 20
5.0
 10
-34.244
 20
5.0
 10
-33.468
 20
5.0
 10
-32.692
 20
5.0
 10
-31.915999999999997
 20
5.0
 10
-31.14
 20
5.0
 10
-30.363999999999997
 20
5.0
 10
-29.588
 20
5.0
 10
-28.811999999999998
 20
5.0
 10
-28.036
 20
5.0
 10
-27.259999999999998
 20
5.0
 10
-26.484
 20
5.0
 10
-25.708
 20
5.0
 10
-24.932
 20
5.0
 10
-24.156
 20
5.0
 10
-23.38
 20
5.0
 10
-22.604
 20
5.0
 10
-21.828
 20
5.0
 10
-21.052
 20
5.0
 10
-20.276
 20
5.0
 10
-19.5
 20
5.0
 10
-18.724
 20
5.0
 10
-17.948
 20
5.0
 10
-17.172
 20
5.0
 10
-16.396
 20
5.0
 10
-15.619999999999997
 20
5.0
 10
-14.844000000000001
 20
5.0
 10
-14.068000000000001
 20
5.0
 10
-13.292000000000002
 20
5.0
 10
-12.516000000000002
 20
5.0
 10
-11.739999999999998
 20
5.0
 10
-10.963999999999999
 20
5.0
 10
-10.187999999999999
 20
5.0
 10
-9.412000000000003
 20
5.0
 10
-8.636000000000003
 20
5.0
 10
-7.859999999999999
 20
5.0
 10
-7.084
 20
5.0
 10
-6.308
 20
5.0
 10
-5.532000000000004
 20
5.0
 10
-4.756
 20
5.0
 10
-3.980000000000004
 20
5.0
 10
-3.2040000000000006
 20
5.0
 10
-2.4279999999999973
 20
5.0
 10
-1.652000000000001
 20
5.0
 10
-0.8760000000000048
 20
5.0
 10
-0.10000000000000142
 20
5.0
  0
LWPOLYLINE
  5
38
330
17
100
AcDbEntity
  8
0
100
AcDbPolyline
 90
51
 70
0
 10
-0.0999999999999977
 20
5.0
 10
-0.09999999999999773
 20
5.14
 10
-0.09999999999999777
 20
5.28
 10
-0.0999999999999978
 20
5.42
 10
-0.09999999999999784
 20
5.5600000000000005
 10
-0.09999999999999787
 20
5.7
 10
-0.09999999999999791
 20
5.84
 10
-0.09999999999999794
 20
5.98
 10
-0.09999999999999798
 20
6.12
 10
-0.09999999999999801
 20
6.26
 10
-0.09999999999999805
 20
6.4
 10
-0.09999999999999808
 20
6.54
 10
-0.09999999999999812
 20
6.68
 10
-0.09999999999999815
 20
6.82
 10
-0.09999999999999819
 20
6.96
 10
-0.09999999999999822
 20
7.1
 10
-0.09999999999999826
 20
7.24
 10
-0.09999999999999828
 20
7.38
 10
-0.09999999999999833
 20
7.52
 10
-0.09999999999999835
 20
7.66
 10
-0.0999999999999984
 20
7.8
 10
-0.09999999999999842
 20
7.9399999999999995
 10
-0.09999999999999847
 20
8.08
 10
-0.09999999999999849
 20
8.22
 10
-0.09999999999999853
 20
8.36
 10
-0.09999999999999856
 20
8.5
 10
-0.0999999999999986
 20
8.64
 10
-0.09999999999999863
 20
8.78
 10
-0.09999999999999867
 20
8.92
 10
-0.0999999999999987
 20
9.059999999999999
 10
-0.09999999999999874
 20
9.2
 10
-0.09999999999999877
 20
9.34
 10
-0.09999999999999881
 20
9.48
 10
-0.09999999999999884
 20
9.620000000000001
 10
-0.09999999999999888
 20
9.76
 10
-0.09999999999999891
 20
9.9
 10
-0.09999999999999895
 20
10.04
 10
-0.09999999999999898
 20
10.18
 10
-0.09999999999999902
 20
10.32
 10
-0.09999999999999905
 20
10.46
 10
-0.09999999999999909
 20
10.6
 10
-0.09999999999999912
 20
10.74
 10
-0.09999999999999916
 20
10.879999999999999
 10
-0.09999999999999919
 20
11.02
 10
-0.09999999999999923
 20
11.16
 10
-0.09999999999999926
 20
11.3
 10
-0.0999999999999993
 20
11.440000000000001
 10
-0.09999999999999933
 20
11.58
 10
-0.09999999999999937
 20
11.719999999999999
 10
-0.0999999999999994
 20
11.86
 10
-0.09999999999999944
 20
12.0
  0
ENDSEC
  0
SECTION
  2
OBJECTS
  0
DICTIONARY
  5
A
330
0
100
AcDbDictionary
280
0
281
1
  3
ACAD_COLOR
350
B
  3
ACAD_GROUP
350
C
  3
ACAD_LAYOUT
350
D
  3
ACAD_MATERIAL
350
E
  3
ACAD_MLEADERSTYLE
350
F
  3
ACAD_MLINESTYLE
350
10
  3
ACAD_PLOTSETTINGS
350
11
  3
ACAD_PLOTSTYLENAME
350
12
  3
ACAD_SCALELIST
350
14
  3
ACAD_TABLESTYLE
350
15
  3
ACAD_VISUALSTYLE
350
16
  3
EZDXF_META
350
2D
  0
DICTIONARY
  5
B
330
A
100
AcDbDictionary
280
0
281
1
  0
DICTIONARY
  5
C
330
A
100
AcDbDictionary
280
0
281
1
  0
DICTIONARY
  5
D
330
A
100
AcDbDictionary
280
0
281
1
  3
Model
350
1A
  3
Layout1
350
1E
  0
DICTIONARY
  5
E
330
A
100
AcDbDictionary
280
0
281
1
  3
ByBlock
350
1F
  3
ByLayer
350
20
  3
Global
350
21
  0
DICTIONARY
  5
F
330
A
100
AcDbDictionary
280
0
281
1
  3
Standard
350
2C
  0
DICTIONARY
  5
10
330
A
100
AcDbDictionary
280
0
281
1
  3
Standard
350
22
  0
DICTIONARY
  5
11
330
A
100
AcDbDictionary
280
0
281
1
  0
ACDBDICTIONARYWDFLT
  5
12
330
A
100
AcDbDictionary
280
0
281
1
  3
Normal
350
13
100
AcDbDictionaryWithDefault
340
13
  0
ACDBPLACEHOLDER
  5
13
330
12
  0
DICTIONARY
  5
14
330
A
100
AcDbDictionary
280
0
281
1
  0
DICTIONARY
  5
15
330
A
100
AcDbDictionary
280
0
281
1
  0
DICTIONARY
  5
16
330
A
100
AcDbDictionary
280
0
281
1
  0
LAYOUT
  5
1A
330
D
100
AcDbPlotSettings
  1

  2
Adobe PDF
  4
A3
  6

 40
7.5
 41
20.0
 42
7.5
 43
20.0
 44
420.0
 45
297.0
 46
0.0
 47
0.0
 48
0.0
 49
0.0
140
0.0
141
0.0
142
1.0
143
1.0
 70
1024
 72
1
 73
0
 74
5
  7

 75
16
 76
0
 77
2
 78
300
147
1.0
148
0.0
149
0.0
100
AcDbLayout
  1
Model
 70
1
 71
0
 10
0.0
 20
0.0
 11
420.0
 21
297.0
 12
0.0
 22
0.0
 32
0.0
 14
1e+20
 24
1e+20
 34
1e+20
 15
-1e+20
 25
-1e+20
 35
-1e+20
146
0.0
 13
0.0
 23
0.0
 33
0.0
 16
1.0
 26
0.0
 36
0.0
 17
0.0
 27
1.0
 37
0.0
 76
1
330
17
  0
LAYOUT
  5
1E
330
D
100
AcDbPlotSettings
  1

  2
Adobe PDF
  4
A3
  6

 40
7.5
 41
20.0
 42
7.5
 43
20.0
 44
420.0
 45
297.0
 46
0.0
 47
0.0
 48
0.0
 49
0.0
140
0.0
141
0.0
142
1.0
143
1.0
 70
0
 72
1
 73
0
 74
5
  7

 75
16
 76
0
 77
2
 78
300
147
1.0
148
0.0
149
0.0
100
AcDbLayout
  1
Layout1
 70
1
 71
1
 10
0.0
 20
0.0
 11
420.0
 21
297.0
 12
0.0
 22
0.0
 32
0.0
 14
1e+20
 24
1e+20
 34
1e+20
 15
-1e+20
 25
-1e+20
 35
-1e+20
146
0.0
 13
0.0
 23
0.0
 33
0.0
 16
1.0
 26
0.0
 36
0.0
 17
0.0
 27
1.0
 37
0.0
 76
1
330
1B
  0
MATERIAL
  5
1F
102
{ACAD_REACTORS
330
E
102
}
330
E
100
AcDbMaterial
  1
ByBlock
  2

 70
0
 40
1.0
 71
1
 41
1.0
 91
-1023410177
 42
1.0
 72
1
  3

 73
1
 74
1
 75
1
 44
0.5
 73
0
 45
1.0
 46
1.0
 77
1
  4

 78
1
 79
1
170
1
 48
1.0
171
1
  6

172
1
173
1
174
1
140
1.0
141
1.0
175
1
  7

176
1
177
1
178
1
143
1.0
179
1
  8

270
1
271
1
272
1
145
1.0
146
1.0
273
1
  9

274
1
275
1
276
1
 42
1.0
 72
1
  3

 73
1
 74
1
 75
1
 94
63
  0
MATERIAL
  5
20
102
{ACAD_REACTORS
330
E
102
}
330
E
100
AcDbMaterial
  1
ByLayer
  2

 70
0
 40
1.0
 71
1
 41
1.0
 91
-1023410177
 42
1.0
 72
1
  3

 73
1
 74
1
 75
1
 44
0.5
 73
0
 45
1.0
 46
1.0
 77
1
  4

 78
1
 79
1
170
1
 48
1.0
171
1
  6

172
1
173
1
174
1
140
1.0
141
1.0
175
1
  7

176
1
177
1
178
1
143
1.0
179
1
  8

270
1
271
1
272
1
145
1.0
146
1.0
273
1
  9

274
1
275
1
276
1
 42
1.0
 72
1
  3

 73
1
 74
1
 75
1
 94
63
  0
MATERIAL
  5
21
102
{ACAD_REACTORS
330
E
102
}
330
E
100
AcDbMaterial
  1
Global
  2

 70
0
 40
1.0
 71
1
 41
1.0
 91
-1023410177
 42
1.0
 72
1
  3

 73
1
 74
1
 75
1
 44
0.5
 73
0
 45
1.0
 46
1.0
 77
1
  4

 78
1
 79
1
170
1
 48
1.0
171
1
  6

172
1
173
1
174
1
140
1.0
141
1.0
175
1
  7

176
1
177
1
178
1
143
1.0
179
1
  8

270
1
271
1
272
1
145
1.0
146
1.0
273
1
  9

274
1
275
1
276
1
 42
1.0
 72
1
  3

 73
1
 74
1
 75
1
 94
63
  0
MLINESTYLE
  5
22
102
{ACAD_REACTORS
330
10
102
}
330
10
100
AcDbMlineStyle
  2
Standard
 70
0
  3

 62
256
 51
90.0
 52
90.0
 71
2
 49
0.5
 62
256
  6
BYLAYER
 49
-0.5
 62
256
  6
BYLAYER
  0
MLEADERSTYLE
  5
2C
102
{ACAD_REACTORS
330
F
102
}
330
F
100
AcDbMLeaderStyle
179
2
170
2
171
1
172
0
 90
2
 40
0.0
 41
0.0
173
1
 91
-1056964608
 92
-2
290
1
 42
2.0
291
1
 43
8.0
  3
Standard
 44
4.0
300

342
29
174
1
175
1
176
0
178
1
 93
-1056964608
 45
4.0
292
0
297
0
 46
4.0
 94
-1056964608
 47
1.0
 49
1.0
140
1.0
294
1
141
0.0
177
0
142
1.0
295
0
296
0
143
3.75
271
0
272
9
273
9
  0
DICTIONARY
  5
2D
330
A
100
AcDbDictionary
281
1
  3
CREATED_BY_EZDXF
350
2E
  3
WRITTEN_BY_EZDXF
350
3B
  0
DICTIONARYVAR
  5
2E
330
2D
100
DictionaryVariables
280
0
  1
1.0.3 @ 2025-05-29T09:38:49.604804+00:00
  0
DICTIONARYVAR
  5
3B
330
2D
100
DictionaryVariables
280
0
  1
1.0.3 @ 2025-05-29T09:38:49.607804+00:00
  0
ENDSEC
  0
EOF
