  0
SECTION
  2
HEADER
  9
$ACADVER
  1
AC1027
  9
$ACADMAINTVER
 70
105
  9
$DWGCODEPAGE
  3
ANSI_1252
  9
$LASTSAVEDBY
  1
ezdxf
  9
$REQUIREDVERSIONS
160
0
  9
$INSBASE
 10
0.0
 20
0.0
 30
0.0
  9
$EXTMIN
 10
1e+20
 20
1e+20
 30
1e+20
  9
$EXTMAX
 10
-1e+20
 20
-1e+20
 30
-1e+20
  9
$LIMMIN
 10
0.0
 20
0.0
  9
$LIMMAX
 10
420.0
 20
297.0
  9
$ORTHOMODE
 70
0
  9
$REGENMODE
 70
1
  9
$FILLMODE
 70
1
  9
$QTEXTMODE
 70
0
  9
$MIRRTEXT
 70
1
  9
$LTSCALE
 40
1.0
  9
$ATTMODE
 70
1
  9
$TEXTSIZE
 40
2.5
  9
$TRACEWID
 40
1.0
  9
$TEXTSTYLE
  7
Standard
  9
$CLAYER
  8
0
  9
$CELTYPE
  6
ByLayer
  9
$CECOLOR
 62
256
  9
$CELTSCALE
 40
1.0
  9
$DISPSILH
 70
0
  9
$DIMSCALE
 40
1.0
  9
$DIMASZ
 40
2.5
  9
$DIMEXO
 40
0.625
  9
$DIMDLI
 40
3.75
  9
$DIMRND
 40
0.0
  9
$DIMDLE
 40
0.0
  9
$DIMEXE
 40
1.25
  9
$DIMTP
 40
0.0
  9
$DIMTM
 40
0.0
  9
$DIMTXT
 40
2.5
  9
$DIMCEN
 40
2.5
  9
$DIMTSZ
 40
0.0
  9
$DIMTOL
 70
0
  9
$DIMLIM
 70
0
  9
$DIMTIH
 70
0
  9
$DIMTOH
 70
0
  9
$DIMSE1
 70
0
  9
$DIMSE2
 70
0
  9
$DIMTAD
 70
1
  9
$DIMZIN
 70
8
  9
$DIMBLK
  1

  9
$DIMASO
 70
1
  9
$DIMSHO
 70
1
  9
$DIMPOST
  1

  9
$DIMAPOST
  1

  9
$DIMALT
 70
0
  9
$DIMALTD
 70
3
  9
$DIMALTF
 40
0.03937007874
  9
$DIMLFAC
 40
1.0
  9
$DIMTOFL
 70
1
  9
$DIMTVP
 40
0.0
  9
$DIMTIX
 70
0
  9
$DIMSOXD
 70
0
  9
$DIMSAH
 70
0
  9
$DIMBLK1
  1

  9
$DIMBLK2
  1

  9
$DIMSTYLE
  2
ISO-25
  9
$DIMCLRD
 70
0
  9
$DIMCLRE
 70
0
  9
$DIMCLRT
 70
0
  9
$DIMTFAC
 40
1.0
  9
$DIMGAP
 40
0.625
  9
$DIMJUST
 70
0
  9
$DIMSD1
 70
0
  9
$DIMSD2
 70
0
  9
$DIMTOLJ
 70
0
  9
$DIMTZIN
 70
8
  9
$DIMALTZ
 70
0
  9
$DIMALTTZ
 70
0
  9
$DIMUPT
 70
0
  9
$DIMDEC
 70
2
  9
$DIMTDEC
 70
2
  9
$DIMALTU
 70
2
  9
$DIMALTTD
 70
3
  9
$DIMTXSTY
  7
Standard
  9
$DIMAUNIT
 70
0
  9
$DIMADEC
 70
0
  9
$DIMALTRND
 40
0.0
  9
$DIMAZIN
 70
0
  9
$DIMDSEP
 70
44
  9
$DIMATFIT
 70
3
  9
$DIMFRAC
 70
0
  9
$DIMLDRBLK
  1

  9
$DIMLUNIT
 70
2
  9
$DIMLWD
 70
-2
  9
$DIMLWE
 70
-2
  9
$DIMTMOVE
 70
0
  9
$DIMFXL
 40
1.0
  9
$DIMFXLON
 70
0
  9
$DIMJOGANG
 40
0.785398163397
  9
$DIMTFILL
 70
0
  9
$DIMTFILLCLR
 70
0
  9
$DIMARCSYM
 70
0
  9
$DIMLTYPE
  6

  9
$DIMLTEX1
  6

  9
$DIMLTEX2
  6

  9
$DIMTXTDIRECTION
 70
0
  9
$LUNITS
 70
2
  9
$LUPREC
 70
4
  9
$SKETCHINC
 40
1.0
  9
$FILLETRAD
 40
10.0
  9
$AUNITS
 70
0
  9
$AUPREC
 70
2
  9
$MENU
  1
.
  9
$ELEVATION
 40
0.0
  9
$PELEVATION
 40
0.0
  9
$THICKNESS
 40
0.0
  9
$LIMCHECK
 70
0
  9
$CHAMFERA
 40
0.0
  9
$CHAMFERB
 40
0.0
  9
$CHAMFERC
 40
0.0
  9
$CHAMFERD
 40
0.0
  9
$SKPOLY
 70
0
  9
$TDCREATE
 40
2460825.776898148
  9
$TDUCREATE
 40
2458532.153996898
  9
$TDUPDATE
 40
2460825.776898148
  9
$TDUUPDATE
 40
2458532.1544311
  9
$TDINDWG
 40
0.0
  9
$TDUSRTIMER
 40
0.0
  9
$USRTIMER
 70
1
  9
$ANGBASE
 50
0.0
  9
$ANGDIR
 70
0
  9
$PDMODE
 70
0
  9
$PDSIZE
 40
0.0
  9
$PLINEWID
 40
0.0
  9
$SPLFRAME
 70
0
  9
$SPLINETYPE
 70
6
  9
$SPLINESEGS
 70
8
  9
$HANDSEED
  5
3C
  9
$SURFTAB1
 70
6
  9
$SURFTAB2
 70
6
  9
$SURFTYPE
 70
6
  9
$SURFU
 70
6
  9
$SURFV
 70
6
  9
$UCSBASE
  2

  9
$UCSNAME
  2

  9
$UCSORG
 10
0.0
 20
0.0
 30
0.0
  9
$UCSXDIR
 10
1.0
 20
0.0
 30
0.0
  9
$UCSYDIR
 10
0.0
 20
1.0
 30
0.0
  9
$UCSORTHOREF
  2

  9
$UCSORTHOVIEW
 70
0
  9
$UCSORGTOP
 10
0.0
 20
0.0
 30
0.0
  9
$UCSORGBOTTOM
 10
0.0
 20
0.0
 30
0.0
  9
$UCSORGLEFT
 10
0.0
 20
0.0
 30
0.0
  9
$UCSORGRIGHT
 10
0.0
 20
0.0
 30
0.0
  9
$UCSORGFRONT
 10
0.0
 20
0.0
 30
0.0
  9
$UCSORGBACK
 10
0.0
 20
0.0
 30
0.0
  9
$PUCSBASE
  2

  9
$PUCSNAME
  2

  9
$PUCSORG
 10
0.0
 20
0.0
 30
0.0
  9
$PUCSXDIR
 10
1.0
 20
0.0
 30
0.0
  9
$PUCSYDIR
 10
0.0
 20
1.0
 30
0.0
  9
$PUCSORTHOREF
  2

  9
$PUCSORTHOVIEW
 70
0
  9
$PUCSORGTOP
 10
0.0
 20
0.0
 30
0.0
  9
$PUCSORGBOTTOM
 10
0.0
 20
0.0
 30
0.0
  9
$PUCSORGLEFT
 10
0.0
 20
0.0
 30
0.0
  9
$PUCSORGRIGHT
 10
0.0
 20
0.0
 30
0.0
  9
$PUCSORGFRONT
 10
0.0
 20
0.0
 30
0.0
  9
$PUCSORGBACK
 10
0.0
 20
0.0
 30
0.0
  9
$USERI1
 70
0
  9
$USERI2
 70
0
  9
$USERI3
 70
0
  9
$USERI4
 70
0
  9
$USERI5
 70
0
  9
$USERR1
 40
0.0
  9
$USERR2
 40
0.0
  9
$USERR3
 40
0.0
  9
$USERR4
 40
0.0
  9
$USERR5
 40
0.0
  9
$WORLDVIEW
 70
1
  9
$SHADEDGE
 70
3
  9
$SHADEDIF
 70
70
  9
$TILEMODE
 70
1
  9
$MAXACTVP
 70
64
  9
$PINSBASE
 10
0.0
 20
0.0
 30
0.0
  9
$PLIMCHECK
 70
0
  9
$PEXTMIN
 10
1e+20
 20
1e+20
 30
1e+20
  9
$PEXTMAX
 10
-1e+20
 20
-1e+20
 30
-1e+20
  9
$PLIMMIN
 10
0.0
 20
0.0
  9
$PLIMMAX
 10
420.0
 20
297.0
  9
$UNITMODE
 70
0
  9
$VISRETAIN
 70
1
  9
$PLINEGEN
 70
0
  9
$PSLTSCALE
 70
1
  9
$TREEDEPTH
 70
3020
  9
$CMLSTYLE
  2
Standard
  9
$CMLJUST
 70
0
  9
$CMLSCALE
 40
20.0
  9
$PROXYGRAPHICS
 70
1
  9
$MEASUREMENT
 70
1
  9
$CELWEIGHT
370
-1
  9
$ENDCAPS
280
0
  9
$JOINSTYLE
280
0
  9
$LWDISPLAY
290
0
  9
$INSUNITS
 70
6
  9
$HYPERLINKBASE
  1

  9
$STYLESHEET
  1

  9
$XEDIT
290
1
  9
$CEPSNTYPE
380
0
  9
$PSTYLEMODE
290
1
  9
$FINGERPRINTGUID
  2
{508246C6-01BF-4399-8564-D0B27FDB8B32}
  9
$VERSIONGUID
  2
{4E8E8C6C-9A47-4645-B520-55FDD9B1B05E}
  9
$EXTNAMES
290
1
  9
$PSVPSCALE
 40
0.0
  9
$OLESTARTUP
290
0
  9
$SORTENTS
280
127
  9
$INDEXCTL
280
0
  9
$HIDETEXT
280
1
  9
$XCLIPFRAME
280
0
  9
$HALOGAP
280
0
  9
$OBSCOLOR
 70
257
  9
$OBSLTYPE
280
0
  9
$INTERSECTIONDISPLAY
280
0
  9
$INTERSECTIONCOLOR
 70
257
  9
$DIMASSOC
280
2
  9
$PROJECTNAME
  1

  9
$CAMERADISPLAY
290
0
  9
$LENSLENGTH
 40
50.0
  9
$CAMERAHEIGHT
 40
0.0
  9
$STEPSPERSEC
 40
24.0
  9
$STEPSIZE
 40
100.0
  9
$3DDWFPREC
 40
2.0
  9
$PSOLWIDTH
 40
0.005
  9
$PSOLHEIGHT
 40
0.08
  9
$LOFTANG1
 40
1.570796326795
  9
$LOFTANG2
 40
1.570796326795
  9
$LOFTMAG1
 40
0.0
  9
$LOFTMAG2
 40
0.0
  9
$LOFTPARAM
 70
7
  9
$LOFTNORMALS
280
1
  9
$LATITUDE
 40
37.795
  9
$LONGITUDE
 40
-122.394
  9
$NORTHDIRECTION
 40
0.0
  9
$TIMEZONE
 70
-8000
  9
$LIGHTGLYPHDISPLAY
280
1
  9
$TILEMODELIGHTSYNCH
280
1
  9
$CMATERIAL
347
20
  9
$SOLIDHIST
280
0
  9
$SHOWHIST
280
1
  9
$DWFFRAME
280
2
  9
$DGNFRAME
280
2
  9
$REALWORLDSCALE
290
1
  9
$INTERFERECOLOR
 62
256
  9
$CSHADOW
280
0
  9
$SHADOWPLANELOCATION
 40
0.0
  0
ENDSEC
  0
SECTION
  2
CLASSES
  0
CLASS
  1
ACDBDICTIONARYWDFLT
  2
AcDbDictionaryWithDefault
  3
ObjectDBX Classes
 90
0
 91
0
280
0
281
0
  0
CLASS
  1
SUN
  2
AcDbSun
  3
SCENEOE
 90
1153
 91
0
280
0
281
0
  0
CLASS
  1
VISUALSTYLE
  2
AcDbVisualStyle
  3
ObjectDBX Classes
 90
4095
 91
0
280
0
281
0
  0
CLASS
  1
MATERIAL
  2
AcDbMaterial
  3
ObjectDBX Classes
 90
1153
 91
0
280
0
281
0
  0
CLASS
  1
SCALE
  2
AcDbScale
  3
ObjectDBX Classes
 90
1153
 91
0
280
0
281
0
  0
CLASS
  1
TABLESTYLE
  2
AcDbTableStyle
  3
ObjectDBX Classes
 90
4095
 91
0
280
0
281
0
  0
CLASS
  1
MLEADERSTYLE
  2
AcDbMLeaderStyle
  3
ACDB_MLEADERSTYLE_CLASS
 90
4095
 91
0
280
0
281
0
  0
CLASS
  1
DICTIONARYVAR
  2
AcDbDictionaryVar
  3
ObjectDBX Classes
 90
0
 91
0
280
0
281
0
  0
CLASS
  1
CELLSTYLEMAP
  2
AcDbCellStyleMap
  3
ObjectDBX Classes
 90
1152
 91
0
280
0
281
0
  0
CLASS
  1
MENTALRAYRENDERSETTINGS
  2
AcDbMentalRayRenderSettings
  3
SCENEOE
 90
1024
 91
0
280
0
281
0
  0
CLASS
  1
ACDBDETAILVIEWSTYLE
  2
AcDbDetailViewStyle
  3
ObjectDBX Classes
 90
1025
 91
0
280
0
281
0
  0
CLASS
  1
ACDBSECTIONVIEWSTYLE
  2
AcDbSectionViewStyle
  3
ObjectDBX Classes
 90
1025
 91
0
280
0
281
0
  0
CLASS
  1
RASTERVARIABLES
  2
AcDbRasterVariables
  3
ISM
 90
0
 91
0
280
0
281
0
  0
CLASS
  1
LAYOUT
  2
AcDbLayout
  3
ObjectDBX Classes
 90
0
 91
0
280
0
281
0
  0
CLASS
  1
ACDBPLACEHOLDER
  2
AcDbPlaceHolder
  3
ObjectDBX Classes
 90
0
 91
0
280
0
281
0
  0
ENDSEC
  0
SECTION
  2
TABLES
  0
TABLE
  2
VPORT
  5
8
330
0
100
AcDbSymbolTable
 70
1
  0
VPORT
  5
23
330
8
100
AcDbSymbolTableRecord
100
AcDbViewportTableRecord
  2
*Active
 70
0
 10
0.0
 20
0.0
 11
1.0
 21
1.0
 12
0.0
 22
0.0
 13
0.0
 23
0.0
 14
0.5
 24
0.5
 15
0.5
 25
0.5
 16
0.0
 26
0.0
 36
1.0
 17
0.0
 27
0.0
 37
0.0
 40
1000.0
 41
1.34
 42
50.0
 43
0.0
 44
0.0
 50
0.0
 51
0.0
 71
0
 72
1000
 73
1
 74
3
 75
0
 76
0
 77
0
 78
0
281
0
 65
0
146
0.0
  0
ENDTAB
  0
TABLE
  2
LTYPE
  5
2
330
0
100
AcDbSymbolTable
 70
3
  0
LTYPE
  5
24
330
2
100
AcDbSymbolTableRecord
100
AcDbLinetypeTableRecord
  2
ByBlock
 70
0
  3

 72
65
 73
0
 40
0.0
  0
LTYPE
  5
25
330
2
100
AcDbSymbolTableRecord
100
AcDbLinetypeTableRecord
  2
ByLayer
 70
0
  3

 72
65
 73
0
 40
0.0
  0
LTYPE
  5
26
330
2
100
AcDbSymbolTableRecord
100
AcDbLinetypeTableRecord
  2
Continuous
 70
0
  3

 72
65
 73
0
 40
0.0
  0
ENDTAB
  0
TABLE
  2
LAYER
  5
1
330
0
100
AcDbSymbolTable
 70
2
  0
LAYER
  5
27
330
1
100
AcDbSymbolTableRecord
100
AcDbLayerTableRecord
  2
0
 70
0
 62
7
  6
Continuous
370
-3
390
13
347
21
  0
LAYER
  5
28
330
1
100
AcDbSymbolTableRecord
100
AcDbLayerTableRecord
  2
Defpoints
 70
0
 62
7
  6
Continuous
290
0
370
-3
390
13
347
21
  0
ENDTAB
  0
TABLE
  2
STYLE
  5
5
330
0
100
AcDbSymbolTable
 70
1
  0
STYLE
  5
29
330
5
100
AcDbSymbolTableRecord
100
AcDbTextStyleTableRecord
  2
Standard
 70
0
 40
0.0
 41
1.0
 50
0.0
 71
0
 42
2.5
  3
txt
  4

  0
ENDTAB
  0
TABLE
  2
VIEW
  5
7
330
0
100
AcDbSymbolTable
 70
0
  0
ENDTAB
  0
TABLE
  2
UCS
  5
6
330
0
100
AcDbSymbolTable
 70
0
  0
ENDTAB
  0
TABLE
  2
APPID
  5
3
330
0
100
AcDbSymbolTable
 70
3
  0
APPID
  5
2A
330
3
100
AcDbSymbolTableRecord
100
AcDbRegAppTableRecord
  2
ACAD
 70
0
  0
APPID
  5
39
330
3
100
AcDbSymbolTableRecord
100
AcDbRegAppTableRecord
  2
HATCHBACKGROUNDCOLOR
 70
0
  0
APPID
  5
3A
330
3
100
AcDbSymbolTableRecord
100
AcDbRegAppTableRecord
  2
EZDXF
 70
0
  0
ENDTAB
  0
TABLE
  2
DIMSTYLE
  5
4
330
0
100
AcDbSymbolTable
 70
1
100
AcDbDimStyleTable
  0
DIMSTYLE
105
2B
330
4
100
AcDbSymbolTableRecord
100
AcDbDimStyleTableRecord
  2
Standard
 70
0
 40
1.0
 41
2.5
 42
0.625
 43
3.75
 44
1.25
 45
0.0
 46
0.0
 47
0.0
 48
0.0
 49
2.5
140
2.5
141
2.5
142
0.0
143
0.03937007874
144
1.0
145
0.0
146
1.0
147
0.625
148
0.0
 69
0
 70
0
 71
0
 72
0
 73
0
 74
0
 75
0
 76
0
 77
1
 78
8
 79
3
170
0
171
3
172
1
173
0
174
0
175
0
176
0
177
0
178
0
179
2
271
2
272
2
273
2
274
3
275
0
276
0
277
2
278
44
279
0
280
0
281
0
282
0
283
0
284
8
285
0
286
0
288
0
289
3
290
0
371
-2
372
-2
  0
ENDTAB
  0
TABLE
  2
BLOCK_RECORD
  5
9
330
0
100
AcDbSymbolTable
 70
2
  0
BLOCK_RECORD
  5
17
330
9
100
AcDbSymbolTableRecord
100
AcDbBlockTableRecord
  2
*Model_Space
340
1A
 70
0
280
1
281
0
  0
BLOCK_RECORD
  5
1B
330
9
100
AcDbSymbolTableRecord
100
AcDbBlockTableRecord
  2
*Paper_Space
340
1E
 70
0
280
1
281
0
  0
ENDTAB
  0
ENDSEC
  0
SECTION
  2
BLOCKS
  0
BLOCK
  5
18
330
17
100
AcDbEntity
  8
0
100
AcDbBlockBegin
  2
*Model_Space
 70
0
 10
0.0
 20
0.0
 30
0.0
  3
*Model_Space
  1

  0
ENDBLK
  5
19
330
17
100
AcDbEntity
  8
0
100
AcDbBlockEnd
  0
BLOCK
  5
1C
330
1B
100
AcDbEntity
  8
0
100
AcDbBlockBegin
  2
*Paper_Space
 70
0
 10
0.0
 20
0.0
 30
0.0
  3
*Paper_Space
  1

  0
ENDBLK
  5
1D
330
1B
100
AcDbEntity
  8
0
100
AcDbBlockEnd
  0
ENDSEC
  0
SECTION
  2
ENTITIES
  0
LWPOLYLINE
  5
2F
330
17
100
AcDbEntity
  8
0
100
AcDbPolyline
 90
51
 70
0
 10
9.2
 20
12.0
 10
9.2
 20
11.76
 10
9.2
 20
11.52
 10
9.2
 20
11.28
 10
9.2
 20
11.04
 10
9.2
 20
10.8
 10
9.2
 20
10.56
 10
9.2
 20
10.32
 10
9.2
 20
10.08
 10
9.2
 20
9.84
 10
9.2
 20
9.6
 10
9.2
 20
9.36
 10
9.2
 20
9.120000000000001
 10
9.2
 20
8.879999999999999
 10
9.2
 20
8.64
 10
9.2
 20
8.4
 10
9.2
 20
8.16
 10
9.2
 20
7.92
 10
9.2
 20
7.68
 10
9.2
 20
7.44
 10
9.2
 20
7.2
 10
9.2
 20
6.96
 10
9.2
 20
6.72
 10
9.2
 20
6.48
 10
9.2
 20
6.24
 10
9.2
 20
6.0
 10
9.2
 20
5.76
 10
9.2
 20
5.52
 10
9.2
 20
5.28
 10
9.2
 20
5.04
 10
9.2
 20
4.8
 10
9.2
 20
4.56
 10
9.2
 20
4.32
 10
9.2
 20
4.08
 10
9.2
 20
3.84
 10
9.2
 20
3.5999999999999996
 10
9.2
 20
3.3599999999999994
 10
9.2
 20
3.119999999999999
 10
9.2
 20
2.880000000000001
 10
9.2
 20
2.6400000000000006
 10
9.2
 20
2.4000000000000004
 10
9.2
 20
2.16
 10
9.2
 20
1.92
 10
9.2
 20
1.6799999999999997
 10
9.2
 20
1.4399999999999995
 10
9.2
 20
1.1999999999999993
 10
9.2
 20
0.9600000000000009
 10
9.2
 20
0.7200000000000006
 10
9.2
 20
0.4800000000000004
 10
9.2
 20
0.2400000000000002
 10
9.200000000000001
 20
0.0
  0
LWPOLYLINE
  5
30
330
17
100
AcDbEntity
  8
0
100
AcDbPolyline
 90
51
 70
0
 10
-4.8
 20
5.0
 10
-4.8
 20
5.14
 10
-4.8
 20
5.28
 10
-4.8
 20
5.42
 10
-4.8
 20
5.5600000000000005
 10
-4.8
 20
5.7
 10
-4.8
 20
5.84
 10
-4.8
 20
5.98
 10
-4.8
 20
6.12
 10
-4.8
 20
6.26
 10
-4.8
 20
6.4
 10
-4.8
 20
6.54
 10
-4.8
 20
6.68
 10
-4.800000000000001
 20
6.82
 10
-4.800000000000001
 20
6.96
 10
-4.800000000000001
 20
7.1
 10
-4.800000000000001
 20
7.24
 10
-4.800000000000001
 20
7.38
 10
-4.800000000000001
 20
7.52
 10
-4.800000000000001
 20
7.66
 10
-4.800000000000001
 20
7.8
 10
-4.800000000000001
 20
7.9399999999999995
 10
-4.800000000000001
 20
8.08
 10
-4.800000000000001
 20
8.22
 10
-4.800000000000001
 20
8.36
 10
-4.800000000000001
 20
8.5
 10
-4.800000000000001
 20
8.64
 10
-4.800000000000001
 20
8.78
 10
-4.800000000000001
 20
8.92
 10
-4.800000000000001
 20
9.059999999999999
 10
-4.800000000000001
 20
9.2
 10
-4.800000000000001
 20
9.34
 10
-4.800000000000001
 20
9.48
 10
-4.800000000000001
 20
9.620000000000001
 10
-4.800000000000001
 20
9.76
 10
-4.800000000000001
 20
9.9
 10
-4.800000000000001
 20
10.04
 10
-4.800000000000001
 20
10.18
 10
-4.800000000000001
 20
10.32
 10
-4.800000000000002
 20
10.46
 10
-4.800000000000002
 20
10.6
 10
-4.800000000000002
 20
10.74
 10
-4.800000000000002
 20
10.879999999999999
 10
-4.800000000000002
 20
11.02
 10
-4.800000000000002
 20
11.16
 10
-4.800000000000002
 20
11.3
 10
-4.800000000000002
 20
11.440000000000001
 10
-4.800000000000002
 20
11.58
 10
-4.800000000000002
 20
11.719999999999999
 10
-4.800000000000002
 20
11.86
 10
-4.800000000000002
 20
12.0
  0
LWPOLYLINE
  5
31
330
17
100
AcDbEntity
  8
0
100
AcDbPolyline
 90
51
 70
0
 10
-4.8
 20
11.999999999999998
 10
-4.7861870989979005
 20
12.439533636705189
 10
-4.744802909201345
 20
12.877332634950129
 10
-4.676010755100821
 20
13.31166920210007
 10
-4.580082127900417
 20
13.740829210153985
 10
-4.457395614066075
 20
14.16311896062463
 10
-4.308435401217761
 20
14.576871868792741
 10
-4.133789367262136
 20
14.980455040955508
 10
-3.934146760307047
 20
15.372275718712004
 10
-3.7102954785141042
 20
15.750787564852978
 10
-3.463118960624633
 20
16.11449676604731
 10
-3.1935926994305266
 20
16.461967928240824
 10
-2.9027803919498805
 20
16.79182974150082
 10
-2.5918297415008222
 20
17.102780391949878
 10
-2.2619679282408276
 20
17.393592699430528
 10
-1.9144967660473133
 20
17.66311896062463
 10
-1.55078756485298
 20
17.910295478514104
 10
-1.1722757187120076
 20
18.134146760307047
 10
-0.7804550409555113
 20
18.333789367262135
 10
-0.37687186879274526
 20
18.50843540121776
 10
0.0368810393753658
 20
18.657395614066075
 10
0.45917078984601223
 20
18.780082127900418
 10
0.8883307978999269
 20
18.876010755100822
 10
1.3226673650498673
 20
18.944802909201343
 10
1.7604663632948068
 20
18.986187098997902
 10
2.199999999999998
 20
19.0
 10
2.639533636705189
 20
18.986187098997902
 10
3.077332634950129
 20
18.944802909201346
 10
3.5116692021000695
 20
18.876010755100822
 10
3.940829210153984
 20
18.780082127900418
 10
4.363118960624631
 20
18.657395614066075
 10
4.776871868792741
 20
18.50843540121776
 10
5.180455040955508
 20
18.333789367262135
 10
5.572275718712009
 20
18.134146760307043
 10
5.950787564852977
 20
17.910295478514104
 10
6.31449676604731
 20
17.663118960624633
 10
6.661967928240824
 20
17.393592699430528
 10
6.991829741500821
 20
17.10278039194988
 10
7.302780391949879
 20
16.791829741500823
 10
7.593592699430525
 20
16.461967928240828
 10
7.863118960624631
 20
16.114496766047314
 10
8.110295478514104
 20
15.750787564852981
 10
8.334146760307046
 20
15.372275718712007
 10
8.533789367262136
 20
14.980455040955512
 10
8.70843540121776
 20
14.576871868792747
 10
8.857395614066075
 20
14.163118960624635
 10
8.980082127900417
 20
13.740829210153988
 10
9.076010755100821
 20
13.311669202100074
 10
9.144802909201346
 20
12.877332634950134
 10
9.186187098997902
 20
12.439533636705194
 10
9.2
 20
12.000000000000002
  0
LWPOLYLINE
  5
32
330
17
100
AcDbEntity
  8
0
100
AcDbPolyline
 90
51
 70
0
 10
9.2
 20
6.536993168992919e-16
 10
8.331999999999999
 20
5.920242074353152e-16
 10
7.463999999999999
 20
5.303490979713385e-16
 10
6.595999999999998
 20
4.686739885073618e-16
 10
5.727999999999999
 20
4.0699887904338517e-16
 10
4.8599999999999985
 20
3.4532376957940847e-16
 10
3.991999999999998
 20
2.836486601154318e-16
 10
3.123999999999998
 20
2.2197355065145508e-16
 10
2.2559999999999985
 20
1.6029844118747843e-16
 10
1.387999999999999
 20
9.862333172350181e-17
 10
0.5199999999999978
 20
3.694822225952504e-17
 10
-0.34800000000000253
 20
-2.472688720445166e-17
 10
-1.2160000000000029
 20
-8.640199666842836e-17
 10
-2.0840000000000014
 20
-1.4807710613240493e-16
 10
-2.9520000000000035
 20
-2.0975221559638176e-16
 10
-3.820000000000004
 20
-2.7142732506035845e-16
 10
-4.688000000000002
 20
-3.3310243452433505e-16
 10
-5.556000000000003
 20
-3.9477754398831175e-16
 10
-6.424000000000001
 20
-4.564526534522883e-16
 10
-7.292000000000005
 20
-5.181277629162652e-16
 10
-8.160000000000004
 20
-5.798028723802418e-16
 10
-9.028000000000002
 20
-6.414779818442184e-16
 10
-9.896000000000004
 20
-7.031530913081952e-16
 10
-10.764000000000003
 20
-7.648282007721718e-16
 10
-11.632000000000005
 20
-8.265033102361486e-16
 10
-12.500000000000004
 20
-8.881784197001252e-16
 10
-13.368000000000002
 20
-9.498535291641017e-16
 10
-14.236000000000004
 20
-1.0115286386280785e-15
 10
-15.104000000000006
 20
-1.0732037480920554e-15
 10
-15.972000000000005
 20
-1.134878857556032e-15
 10
-16.840000000000007
 20
-1.1965539670200089e-15
 10
-17.708000000000002
 20
-1.2582290764839851e-15
 10
-18.576000000000004
 20
-1.319904185947962e-15
 10
-19.444000000000006
 20
-1.3815792954119388e-15
 10
-20.312000000000005
 20
-1.4432544048759153e-15
 10
-21.180000000000007
 20
-1.5049295143398921e-15
 10
-22.048000000000002
 20
-1.5666046238038686e-15
 10
-22.916000000000007
 20
-1.6282797332678456e-15
 10
-23.78400000000001
 20
-1.6899548427318224e-15
 10
-24.652000000000005
 20
-1.7516299521957987e-15
 10
-25.520000000000007
 20
-1.8133050616597755e-15
 10
-26.38800000000001
 20
-1.8749801711237524e-15
 10
-27.256000000000004
 20
-1.936655280587729e-15
 10
-28.124000000000006
 20
-1.9983303900517057e-15
 10
-28.992000000000008
 20
-2.0600054995156825e-15
 10
-29.860000000000003
 20
-2.1216806089796586e-15
 10
-30.728000000000005
 20
-2.1833557184436354e-15
 10
-31.596000000000007
 20
-2.2450308279076123e-15
 10
-32.46400000000001
 20
-2.3067059373715895e-15
 10
-33.33200000000001
 20
-2.3683810468355656e-15
 10
-34.2
 20
-2.430056156299542e-15
  0
LWPOLYLINE
  5
33
330
17
100
AcDbEntity
  8
0
100
AcDbPolyline
 90
51
 70
0
 10
6.2
 20
12.0
 10
6.18224785841232
 20
11.623566746725944
 10
6.129149002914755
 20
11.250474741657102
 10
6.041174742707772
 20
10.884035575843084
 10
5.9191059435530065
 20
10.527501789261288
 10
5.764026096753472
 20
10.184038001041813
 10
5.577311702008061
 20
9.856692820084014
 10
5.360620049502763
 20
9.548371785388095
 10
5.115874509685646
 20
9.261811576285245
 10
4.845247461294608
 20
8.999555721478163
 10
4.551141009169894
 20
8.76393202250021
 10
4.236165663001485
 20
8.557031891984225
 10
3.903117166260292
 20
8.380691790135923
 10
3.5549516809811657
 20
8.236476924183098
 10
3.19475954865942
 20
8.125667355485476
 10
2.8257378601609244
 20
8.049246637619449
 10
2.451162078117255
 20
8.007893086286913
 10
2.074356963687489
 20
8.001973758537073
 10
1.6986670657427836
 20
8.031541194742088
 10
1.3274270344138324
 20
8.09633295224501
 10
0.9639320225002115
 20
8.195773934819385
 10
0.6114084374608775
 20
8.328981497264076
 10
0.2729853035931391
 20
8.494773279824546
 10
-0.04833351140852171
 20
8.691677702901753
 10
-0.3496959589947579
 20
8.917947028896842
 10
-0.6284271247461892
 20
9.171572875253808
 10
-0.8820529711031568
 20
9.450304041005241
 10
-1.1083222970982458
 20
9.751666488591475
 10
-1.3052267201754542
 20
10.07298530359314
 10
-1.4710185027359235
 20
10.411408437460874
 10
-1.604226065180614
 20
10.76393202250021
 10
-1.7036670477549887
 20
11.127427034413827
 10
-1.7684588052579109
 20
11.498667065742781
 10
-1.7980262414629262
 20
11.874356963687486
 10
-1.792106913713086
 20
12.25116207811725
 10
-1.750753362380551
 20
12.625737860160923
 10
-1.6743326445145241
 20
12.994759548659419
 10
-1.563523075816902
 20
13.354951680981163
 10
-1.4193082098640795
 20
13.703117166260286
 10
-1.2429681080157735
 20
14.036165663001485
 10
-1.0360679774997905
 20
14.351141009169892
 10
-0.8004442785218404
 20
14.645247461294606
 10
-0.5381884237147534
 20
14.915874509685647
 10
-0.2516282146119062
 20
15.16062004950276
 10
0.05669282008401444
 20
15.377311702008061
 10
0.38403800104181185
 20
15.564026096753471
 10
0.7275017892612883
 20
15.719105943553005
 10
1.084035575843081
 20
15.841174742707771
 10
1.4504747416571009
 20
15.929149002914755
 10
1.8235667467259435
 20
15.98224785841232
 10
2.199999999999999
 20
16.0
  0
LWPOLYLINE
  5
34
330
17
100
AcDbEntity
  8
0
100
AcDbPolyline
 90
51
 70
0
 10
2.1999999999999997
 20
16.0
 10
2.325643036312513
 20
15.998026241462927
 10
2.451162078117253
 20
15.992106913713087
 10
2.576433253274057
 20
15.98224785841232
 10
2.7013329342572168
 20
15.968458805257912
 10
2.825737860160923
 20
15.950753362380551
 10
2.949525258342898
 20
15.929149002914755
 10
3.0725729655861698
 20
15.90366704775499
 10
3.1947595486594187
 20
15.874332644514524
 10
3.315964424156917
 20
15.841174742707771
 10
3.436067977499789
 20
15.804226065180615
 10
3.554951680981165
 20
15.763523075816902
 10
3.6724982107387114
 20
15.719105943553005
 10
3.788591562539122
 20
15.671018502735924
 10
3.9031171662602904
 20
15.619308209864078
 10
4.015961998958186
 20
15.564026096753471
 10
4.127014696406861
 20
15.505226720175454
 10
4.236165663001485
 20
15.442968108015775
 10
4.343307179915986
 20
15.377311702008061
 10
4.4483335114085225
 20
15.308322297098247
 10
4.551141009169893
 20
15.23606797749979
 10
4.651628214611906
 20
15.160620049502763
 10
4.749695958994758
 20
15.082052971103158
 10
4.845247461294607
 20
15.000444278521838
 10
4.938188423714754
 20
14.915874509685647
 10
5.02842712474619
 20
14.828427124746192
 10
5.115874509685646
 20
14.738188423714755
 10
5.200444278521838
 20
14.645247461294609
 10
5.282052971103157
 20
14.549695958994759
 10
5.360620049502762
 20
14.451628214611906
 10
5.436067977499789
 20
14.351141009169893
 10
5.508322297098247
 20
14.248333511408523
 10
5.5773117020080605
 20
14.143307179915986
 10
5.642968108015775
 20
14.036165663001485
 10
5.705226720175455
 20
13.92701469640686
 10
5.764026096753471
 20
13.815961998958187
 10
5.8193082098640785
 20
13.703117166260292
 10
5.871018502735925
 20
13.588591562539122
 10
5.919105943553006
 20
13.472498210738713
 10
5.9635230758169016
 20
13.354951680981166
 10
6.004226065180614
 20
13.23606797749979
 10
6.041174742707772
 20
13.115964424156918
 10
6.0743326445145245
 20
12.99475954865942
 10
6.103667047754989
 20
12.872572965586171
 10
6.129149002914755
 20
12.7495252583429
 10
6.150753362380551
 20
12.625737860160925
 10
6.168458805257911
 20
12.501332934257219
 10
6.18224785841232
 20
12.376433253274058
 10
6.192106913713086
 20
12.251162078117254
 10
6.198026241462927
 20
12.125643036312514
 10
6.2
 20
12.0
  0
LWPOLYLINE
  5
35
330
17
100
AcDbEntity
  8
0
100
AcDbPolyline
 90
51
 70
0
 10
-34.2
 20
-2.43005615629954e-15
 10
-34.2
 20
0.09999999999999762
 10
-34.2
 20
0.19999999999999765
 10
-34.2
 20
0.2999999999999977
 10
-34.2
 20
0.39999999999999775
 10
-34.2
 20
0.4999999999999979
 10
-34.2
 20
0.5999999999999979
 10
-34.2
 20
0.699999999999998
 10
-34.2
 20
0.7999999999999979
 10
-34.2
 20
0.899999999999998
 10
-34.2
 20
0.9999999999999982
 10
-34.2
 20
1.099999999999998
 10
-34.2
 20
1.1999999999999982
 10
-34.2
 20
1.299999999999998
 10
-34.2
 20
1.3999999999999984
 10
-34.2
 20
1.4999999999999984
 10
-34.2
 20
1.5999999999999983
 10
-34.2
 20
1.6999999999999984
 10
-34.2
 20
1.7999999999999985
 10
-34.2
 20
1.8999999999999988
 10
-34.2
 20
1.9999999999999991
 10
-34.2
 20
2.0999999999999988
 10
-34.2
 20
2.199999999999999
 10
-34.2
 20
2.299999999999999
 10
-34.2
 20
2.399999999999999
 10
-34.2
 20
2.499999999999999
 10
-34.2
 20
2.5999999999999988
 10
-34.2
 20
2.6999999999999993
 10
-34.2
 20
2.7999999999999994
 10
-34.2
 20
2.8999999999999995
 10
-34.2
 20
2.9999999999999996
 10
-34.2
 20
3.0999999999999996
 10
-34.2
 20
3.1999999999999993
 10
-34.2
 20
3.2999999999999994
 10
-34.2
 20
3.3999999999999995
 10
-34.2
 20
3.4999999999999996
 10
-34.2
 20
3.5999999999999996
 10
-34.2
 20
3.6999999999999993
 10
-34.2
 20
3.8000000000000003
 10
-34.2
 20
3.9
 10
-34.2
 20
4.0
 10
-34.2
 20
4.1
 10
-34.2
 20
4.199999999999999
 10
-34.2
 20
4.3
 10
-34.2
 20
4.3999999999999995
 10
-34.2
 20
4.5
 10
-34.2
 20
4.6
 10
-34.2
 20
4.699999999999999
 10
-34.2
 20
4.8
 10
-34.2
 20
4.9
 10
-34.2
 20
5.0
  0
LWPOLYLINE
  5
36
330
17
100
AcDbEntity
  8
0
100
AcDbPolyline
 90
51
 70
0
 10
-20.0
 20
5.0
 10
-19.695999999999998
 20
5.0
 10
-19.392
 20
5.0
 10
-19.088
 20
5.0
 10
-18.784
 20
5.0
 10
-18.48
 20
5.0
 10
-18.176000000000002
 20
5.0
 10
-17.872
 20
5.0
 10
-17.567999999999998
 20
5.0
 10
-17.264
 20
5.0
 10
-16.96
 20
5.0
 10
-16.656
 20
5.0
 10
-16.352
 20
5.0
 10
-16.048000000000002
 20
5.0
 10
-15.744
 20
5.0
 10
-15.440000000000001
 20
5.0
 10
-15.136
 20
5.0
 10
-14.832
 20
5.0
 10
-14.528
 20
5.0
 10
-14.224
 20
5.0
 10
-13.92
 20
5.0
 10
-13.616
 20
5.0
 10
-13.312000000000001
 20
5.0
 10
-13.008000000000001
 20
5.0
 10
-12.704
 20
5.0
 10
-12.4
 20
5.0
 10
-12.096
 20
5.0
 10
-11.792
 20
5.0
 10
-11.488000000000001
 20
5.0
 10
-11.184000000000001
 20
5.0
 10
-10.88
 20
5.0
 10
-10.576
 20
5.0
 10
-10.272
 20
5.0
 10
-9.968
 20
5.0
 10
-9.664000000000001
 20
5.0
 10
-9.36
 20
5.0
 10
-9.056000000000001
 20
5.0
 10
-8.752000000000002
 20
5.0
 10
-8.448
 20
5.0
 10
-8.143999999999998
 20
5.0
 10
-7.84
 20
5.0
 10
-7.536000000000001
 20
5.0
 10
-7.231999999999999
 20
5.0
 10
-6.927999999999997
 20
5.0
 10
-6.624000000000002
 20
5.0
 10
-6.32
 20
5.0
 10
-6.016000000000002
 20
5.0
 10
-5.712
 20
5.0
 10
-5.408000000000001
 20
5.0
 10
-5.103999999999999
 20
5.0
 10
-4.800000000000001
 20
5.0
  0
LWPOLYLINE
  5
37
330
17
100
AcDbEntity
  8
0
100
AcDbPolyline
 90
51
 70
0
 10
-34.2
 20
5.0
 10
-33.612
 20
5.0
 10
-33.024
 20
5.0
 10
-32.436
 20
5.0
 10
-31.848000000000003
 20
5.0
 10
-31.260000000000005
 20
5.0
 10
-30.672000000000004
 20
5.0
 10
-30.084000000000003
 20
5.0
 10
-29.496000000000002
 20
5.0
 10
-28.908
 20
5.0
 10
-28.320000000000004
 20
5.0
 10
-27.732000000000003
 20
5.0
 10
-27.144000000000002
 20
5.0
 10
-26.556
 20
5.0
 10
-25.968000000000004
 20
5.0
 10
-25.380000000000003
 20
5.0
 10
-24.792
 20
5.0
 10
-24.204
 20
5.0
 10
-23.616
 20
5.0
 10
-23.028000000000002
 20
5.0
 10
-22.440000000000005
 20
5.0
 10
-21.852
 20
5.0
 10
-21.264000000000003
 20
5.0
 10
-20.676000000000002
 20
5.0
 10
-20.088
 20
5.0
 10
-19.500000000000004
 20
5.0
 10
-18.912
 20
5.0
 10
-18.324
 20
5.0
 10
-17.736
 20
5.0
 10
-17.148000000000003
 20
5.0
 10
-16.560000000000002
 20
5.0
 10
-15.972000000000001
 20
5.0
 10
-15.384
 20
5.0
 10
-14.796000000000003
 20
5.0
 10
-14.208000000000002
 20
5.0
 10
-13.620000000000005
 20
5.0
 10
-13.032
 20
5.0
 10
-12.443999999999999
 20
5.0
 10
-11.856000000000002
 20
5.0
 10
-11.268
 20
5.0
 10
-10.680000000000003
 20
5.0
 10
-10.092000000000002
 20
5.0
 10
-9.503999999999998
 20
5.0
 10
-8.916
 20
5.0
 10
-8.328
 20
5.0
 10
-7.740000000000002
 20
5.0
 10
-7.152000000000001
 20
5.0
 10
-6.564
 20
5.0
 10
-5.976000000000003
 20
5.0
 10
-5.388000000000002
 20
5.0
 10
-4.800000000000004
 20
5.0
  0
LWPOLYLINE
  5
38
330
17
100
AcDbEntity
  8
0
100
AcDbPolyline
 90
51
 70
0
 10
-4.8
 20
5.0
 10
-4.8
 20
5.14
 10
-4.8
 20
5.28
 10
-4.8
 20
5.42
 10
-4.8
 20
5.5600000000000005
 10
-4.8
 20
5.7
 10
-4.8
 20
5.84
 10
-4.8
 20
5.98
 10
-4.8
 20
6.12
 10
-4.8
 20
6.26
 10
-4.8
 20
6.4
 10
-4.8
 20
6.54
 10
-4.8
 20
6.68
 10
-4.800000000000001
 20
6.82
 10
-4.800000000000001
 20
6.96
 10
-4.800000000000001
 20
7.1
 10
-4.800000000000001
 20
7.24
 10
-4.800000000000001
 20
7.38
 10
-4.800000000000001
 20
7.52
 10
-4.800000000000001
 20
7.66
 10
-4.800000000000001
 20
7.8
 10
-4.800000000000001
 20
7.9399999999999995
 10
-4.800000000000001
 20
8.08
 10
-4.800000000000001
 20
8.22
 10
-4.800000000000001
 20
8.36
 10
-4.800000000000001
 20
8.5
 10
-4.800000000000001
 20
8.64
 10
-4.800000000000001
 20
8.78
 10
-4.800000000000001
 20
8.92
 10
-4.800000000000001
 20
9.059999999999999
 10
-4.800000000000001
 20
9.2
 10
-4.800000000000001
 20
9.34
 10
-4.800000000000001
 20
9.48
 10
-4.800000000000001
 20
9.620000000000001
 10
-4.800000000000001
 20
9.76
 10
-4.800000000000001
 20
9.9
 10
-4.800000000000001
 20
10.04
 10
-4.800000000000001
 20
10.18
 10
-4.800000000000001
 20
10.32
 10
-4.800000000000002
 20
10.46
 10
-4.800000000000002
 20
10.6
 10
-4.800000000000002
 20
10.74
 10
-4.800000000000002
 20
10.879999999999999
 10
-4.800000000000002
 20
11.02
 10
-4.800000000000002
 20
11.16
 10
-4.800000000000002
 20
11.3
 10
-4.800000000000002
 20
11.440000000000001
 10
-4.800000000000002
 20
11.58
 10
-4.800000000000002
 20
11.719999999999999
 10
-4.800000000000002
 20
11.86
 10
-4.800000000000002
 20
12.0
  0
ENDSEC
  0
SECTION
  2
OBJECTS
  0
DICTIONARY
  5
A
330
0
100
AcDbDictionary
280
0
281
1
  3
ACAD_COLOR
350
B
  3
ACAD_GROUP
350
C
  3
ACAD_LAYOUT
350
D
  3
ACAD_MATERIAL
350
E
  3
ACAD_MLEADERSTYLE
350
F
  3
ACAD_MLINESTYLE
350
10
  3
ACAD_PLOTSETTINGS
350
11
  3
ACAD_PLOTSTYLENAME
350
12
  3
ACAD_SCALELIST
350
14
  3
ACAD_TABLESTYLE
350
15
  3
ACAD_VISUALSTYLE
350
16
  3
EZDXF_META
350
2D
  0
DICTIONARY
  5
B
330
A
100
AcDbDictionary
280
0
281
1
  0
DICTIONARY
  5
C
330
A
100
AcDbDictionary
280
0
281
1
  0
DICTIONARY
  5
D
330
A
100
AcDbDictionary
280
0
281
1
  3
Model
350
1A
  3
Layout1
350
1E
  0
DICTIONARY
  5
E
330
A
100
AcDbDictionary
280
0
281
1
  3
ByBlock
350
1F
  3
ByLayer
350
20
  3
Global
350
21
  0
DICTIONARY
  5
F
330
A
100
AcDbDictionary
280
0
281
1
  3
Standard
350
2C
  0
DICTIONARY
  5
10
330
A
100
AcDbDictionary
280
0
281
1
  3
Standard
350
22
  0
DICTIONARY
  5
11
330
A
100
AcDbDictionary
280
0
281
1
  0
ACDBDICTIONARYWDFLT
  5
12
330
A
100
AcDbDictionary
280
0
281
1
  3
Normal
350
13
100
AcDbDictionaryWithDefault
340
13
  0
ACDBPLACEHOLDER
  5
13
330
12
  0
DICTIONARY
  5
14
330
A
100
AcDbDictionary
280
0
281
1
  0
DICTIONARY
  5
15
330
A
100
AcDbDictionary
280
0
281
1
  0
DICTIONARY
  5
16
330
A
100
AcDbDictionary
280
0
281
1
  0
LAYOUT
  5
1A
330
D
100
AcDbPlotSettings
  1

  2
Adobe PDF
  4
A3
  6

 40
7.5
 41
20.0
 42
7.5
 43
20.0
 44
420.0
 45
297.0
 46
0.0
 47
0.0
 48
0.0
 49
0.0
140
0.0
141
0.0
142
1.0
143
1.0
 70
1024
 72
1
 73
0
 74
5
  7

 75
16
 76
0
 77
2
 78
300
147
1.0
148
0.0
149
0.0
100
AcDbLayout
  1
Model
 70
1
 71
0
 10
0.0
 20
0.0
 11
420.0
 21
297.0
 12
0.0
 22
0.0
 32
0.0
 14
1e+20
 24
1e+20
 34
1e+20
 15
-1e+20
 25
-1e+20
 35
-1e+20
146
0.0
 13
0.0
 23
0.0
 33
0.0
 16
1.0
 26
0.0
 36
0.0
 17
0.0
 27
1.0
 37
0.0
 76
1
330
17
  0
LAYOUT
  5
1E
330
D
100
AcDbPlotSettings
  1

  2
Adobe PDF
  4
A3
  6

 40
7.5
 41
20.0
 42
7.5
 43
20.0
 44
420.0
 45
297.0
 46
0.0
 47
0.0
 48
0.0
 49
0.0
140
0.0
141
0.0
142
1.0
143
1.0
 70
0
 72
1
 73
0
 74
5
  7

 75
16
 76
0
 77
2
 78
300
147
1.0
148
0.0
149
0.0
100
AcDbLayout
  1
Layout1
 70
1
 71
1
 10
0.0
 20
0.0
 11
420.0
 21
297.0
 12
0.0
 22
0.0
 32
0.0
 14
1e+20
 24
1e+20
 34
1e+20
 15
-1e+20
 25
-1e+20
 35
-1e+20
146
0.0
 13
0.0
 23
0.0
 33
0.0
 16
1.0
 26
0.0
 36
0.0
 17
0.0
 27
1.0
 37
0.0
 76
1
330
1B
  0
MATERIAL
  5
1F
102
{ACAD_REACTORS
330
E
102
}
330
E
100
AcDbMaterial
  1
ByBlock
  2

 70
0
 40
1.0
 71
1
 41
1.0
 91
-1023410177
 42
1.0
 72
1
  3

 73
1
 74
1
 75
1
 44
0.5
 73
0
 45
1.0
 46
1.0
 77
1
  4

 78
1
 79
1
170
1
 48
1.0
171
1
  6

172
1
173
1
174
1
140
1.0
141
1.0
175
1
  7

176
1
177
1
178
1
143
1.0
179
1
  8

270
1
271
1
272
1
145
1.0
146
1.0
273
1
  9

274
1
275
1
276
1
 42
1.0
 72
1
  3

 73
1
 74
1
 75
1
 94
63
  0
MATERIAL
  5
20
102
{ACAD_REACTORS
330
E
102
}
330
E
100
AcDbMaterial
  1
ByLayer
  2

 70
0
 40
1.0
 71
1
 41
1.0
 91
-1023410177
 42
1.0
 72
1
  3

 73
1
 74
1
 75
1
 44
0.5
 73
0
 45
1.0
 46
1.0
 77
1
  4

 78
1
 79
1
170
1
 48
1.0
171
1
  6

172
1
173
1
174
1
140
1.0
141
1.0
175
1
  7

176
1
177
1
178
1
143
1.0
179
1
  8

270
1
271
1
272
1
145
1.0
146
1.0
273
1
  9

274
1
275
1
276
1
 42
1.0
 72
1
  3

 73
1
 74
1
 75
1
 94
63
  0
MATERIAL
  5
21
102
{ACAD_REACTORS
330
E
102
}
330
E
100
AcDbMaterial
  1
Global
  2

 70
0
 40
1.0
 71
1
 41
1.0
 91
-1023410177
 42
1.0
 72
1
  3

 73
1
 74
1
 75
1
 44
0.5
 73
0
 45
1.0
 46
1.0
 77
1
  4

 78
1
 79
1
170
1
 48
1.0
171
1
  6

172
1
173
1
174
1
140
1.0
141
1.0
175
1
  7

176
1
177
1
178
1
143
1.0
179
1
  8

270
1
271
1
272
1
145
1.0
146
1.0
273
1
  9

274
1
275
1
276
1
 42
1.0
 72
1
  3

 73
1
 74
1
 75
1
 94
63
  0
MLINESTYLE
  5
22
102
{ACAD_REACTORS
330
10
102
}
330
10
100
AcDbMlineStyle
  2
Standard
 70
0
  3

 62
256
 51
90.0
 52
90.0
 71
2
 49
0.5
 62
256
  6
BYLAYER
 49
-0.5
 62
256
  6
BYLAYER
  0
MLEADERSTYLE
  5
2C
102
{ACAD_REACTORS
330
F
102
}
330
F
100
AcDbMLeaderStyle
179
2
170
2
171
1
172
0
 90
2
 40
0.0
 41
0.0
173
1
 91
-1056964608
 92
-2
290
1
 42
2.0
291
1
 43
8.0
  3
Standard
 44
4.0
300

342
29
174
1
175
1
176
0
178
1
 93
-1056964608
 45
4.0
292
0
297
0
 46
4.0
 94
-1056964608
 47
1.0
 49
1.0
140
1.0
294
1
141
0.0
177
0
142
1.0
295
0
296
0
143
3.75
271
0
272
9
273
9
  0
DICTIONARY
  5
2D
330
A
100
AcDbDictionary
281
1
  3
CREATED_BY_EZDXF
350
2E
  3
WRITTEN_BY_EZDXF
350
3B
  0
DICTIONARYVAR
  5
2E
330
2D
100
DictionaryVariables
280
0
  1
1.0.3 @ 2025-05-29T09:38:44.754827+00:00
  0
DICTIONARYVAR
  5
3B
330
2D
100
DictionaryVariables
280
0
  1
1.0.3 @ 2025-05-29T09:38:44.757574+00:00
  0
ENDSEC
  0
EOF
