  0
SECTION
  2
HEADER
  9
$ACADVER
  1
AC1027
  9
$ACADMAINTVER
 70
105
  9
$DWGCODEPAGE
  3
ANSI_1252
  9
$LASTSAVEDBY
  1
ezdxf
  9
$REQUIREDVERSIONS
160
0
  9
$INSBASE
 10
0.0
 20
0.0
 30
0.0
  9
$EXTMIN
 10
1e+20
 20
1e+20
 30
1e+20
  9
$EXTMAX
 10
-1e+20
 20
-1e+20
 30
-1e+20
  9
$LIMMIN
 10
0.0
 20
0.0
  9
$LIMMAX
 10
420.0
 20
297.0
  9
$ORTHOMODE
 70
0
  9
$REGENMODE
 70
1
  9
$FILLMODE
 70
1
  9
$QTEXTMODE
 70
0
  9
$MIRRTEXT
 70
1
  9
$LTSCALE
 40
1.0
  9
$ATTMODE
 70
1
  9
$TEXTSIZE
 40
2.5
  9
$TRACEWID
 40
1.0
  9
$TEXTSTYLE
  7
Standard
  9
$CLAYER
  8
0
  9
$CELTYPE
  6
ByLayer
  9
$CECOLOR
 62
256
  9
$CELTSCALE
 40
1.0
  9
$DISPSILH
 70
0
  9
$DIMSCALE
 40
1.0
  9
$DIMASZ
 40
2.5
  9
$DIMEXO
 40
0.625
  9
$DIMDLI
 40
3.75
  9
$DIMRND
 40
0.0
  9
$DIMDLE
 40
0.0
  9
$DIMEXE
 40
1.25
  9
$DIMTP
 40
0.0
  9
$DIMTM
 40
0.0
  9
$DIMTXT
 40
2.5
  9
$DIMCEN
 40
2.5
  9
$DIMTSZ
 40
0.0
  9
$DIMTOL
 70
0
  9
$DIMLIM
 70
0
  9
$DIMTIH
 70
0
  9
$DIMTOH
 70
0
  9
$DIMSE1
 70
0
  9
$DIMSE2
 70
0
  9
$DIMTAD
 70
1
  9
$DIMZIN
 70
8
  9
$DIMBLK
  1

  9
$DIMASO
 70
1
  9
$DIMSHO
 70
1
  9
$DIMPOST
  1

  9
$DIMAPOST
  1

  9
$DIMALT
 70
0
  9
$DIMALTD
 70
3
  9
$DIMALTF
 40
0.03937007874
  9
$DIMLFAC
 40
1.0
  9
$DIMTOFL
 70
1
  9
$DIMTVP
 40
0.0
  9
$DIMTIX
 70
0
  9
$DIMSOXD
 70
0
  9
$DIMSAH
 70
0
  9
$DIMBLK1
  1

  9
$DIMBLK2
  1

  9
$DIMSTYLE
  2
ISO-25
  9
$DIMCLRD
 70
0
  9
$DIMCLRE
 70
0
  9
$DIMCLRT
 70
0
  9
$DIMTFAC
 40
1.0
  9
$DIMGAP
 40
0.625
  9
$DIMJUST
 70
0
  9
$DIMSD1
 70
0
  9
$DIMSD2
 70
0
  9
$DIMTOLJ
 70
0
  9
$DIMTZIN
 70
8
  9
$DIMALTZ
 70
0
  9
$DIMALTTZ
 70
0
  9
$DIMUPT
 70
0
  9
$DIMDEC
 70
2
  9
$DIMTDEC
 70
2
  9
$DIMALTU
 70
2
  9
$DIMALTTD
 70
3
  9
$DIMTXSTY
  7
Standard
  9
$DIMAUNIT
 70
0
  9
$DIMADEC
 70
0
  9
$DIMALTRND
 40
0.0
  9
$DIMAZIN
 70
0
  9
$DIMDSEP
 70
44
  9
$DIMATFIT
 70
3
  9
$DIMFRAC
 70
0
  9
$DIMLDRBLK
  1

  9
$DIMLUNIT
 70
2
  9
$DIMLWD
 70
-2
  9
$DIMLWE
 70
-2
  9
$DIMTMOVE
 70
0
  9
$DIMFXL
 40
1.0
  9
$DIMFXLON
 70
0
  9
$DIMJOGANG
 40
0.785398163397
  9
$DIMTFILL
 70
0
  9
$DIMTFILLCLR
 70
0
  9
$DIMARCSYM
 70
0
  9
$DIMLTYPE
  6

  9
$DIMLTEX1
  6

  9
$DIMLTEX2
  6

  9
$DIMTXTDIRECTION
 70
0
  9
$LUNITS
 70
2
  9
$LUPREC
 70
4
  9
$SKETCHINC
 40
1.0
  9
$FILLETRAD
 40
10.0
  9
$AUNITS
 70
0
  9
$AUPREC
 70
2
  9
$MENU
  1
.
  9
$ELEVATION
 40
0.0
  9
$PELEVATION
 40
0.0
  9
$THICKNESS
 40
0.0
  9
$LIMCHECK
 70
0
  9
$CHAMFERA
 40
0.0
  9
$CHAMFERB
 40
0.0
  9
$CHAMFERC
 40
0.0
  9
$CHAMFERD
 40
0.0
  9
$SKPOLY
 70
0
  9
$TDCREATE
 40
2460825.7771180556
  9
$TDUCREATE
 40
2458532.153996898
  9
$TDUPDATE
 40
2460825.7771180556
  9
$TDUUPDATE
 40
2458532.1544311
  9
$TDINDWG
 40
0.0
  9
$TDUSRTIMER
 40
0.0
  9
$USRTIMER
 70
1
  9
$ANGBASE
 50
0.0
  9
$ANGDIR
 70
0
  9
$PDMODE
 70
0
  9
$PDSIZE
 40
0.0
  9
$PLINEWID
 40
0.0
  9
$SPLFRAME
 70
0
  9
$SPLINETYPE
 70
6
  9
$SPLINESEGS
 70
8
  9
$HANDSEED
  5
3B
  9
$SURFTAB1
 70
6
  9
$SURFTAB2
 70
6
  9
$SURFTYPE
 70
6
  9
$SURFU
 70
6
  9
$SURFV
 70
6
  9
$UCSBASE
  2

  9
$UCSNAME
  2

  9
$UCSORG
 10
0.0
 20
0.0
 30
0.0
  9
$UCSXDIR
 10
1.0
 20
0.0
 30
0.0
  9
$UCSYDIR
 10
0.0
 20
1.0
 30
0.0
  9
$UCSORTHOREF
  2

  9
$UCSORTHOVIEW
 70
0
  9
$UCSORGTOP
 10
0.0
 20
0.0
 30
0.0
  9
$UCSORGBOTTOM
 10
0.0
 20
0.0
 30
0.0
  9
$UCSORGLEFT
 10
0.0
 20
0.0
 30
0.0
  9
$UCSORGRIGHT
 10
0.0
 20
0.0
 30
0.0
  9
$UCSORGFRONT
 10
0.0
 20
0.0
 30
0.0
  9
$UCSORGBACK
 10
0.0
 20
0.0
 30
0.0
  9
$PUCSBASE
  2

  9
$PUCSNAME
  2

  9
$PUCSORG
 10
0.0
 20
0.0
 30
0.0
  9
$PUCSXDIR
 10
1.0
 20
0.0
 30
0.0
  9
$PUCSYDIR
 10
0.0
 20
1.0
 30
0.0
  9
$PUCSORTHOREF
  2

  9
$PUCSORTHOVIEW
 70
0
  9
$PUCSORGTOP
 10
0.0
 20
0.0
 30
0.0
  9
$PUCSORGBOTTOM
 10
0.0
 20
0.0
 30
0.0
  9
$PUCSORGLEFT
 10
0.0
 20
0.0
 30
0.0
  9
$PUCSORGRIGHT
 10
0.0
 20
0.0
 30
0.0
  9
$PUCSORGFRONT
 10
0.0
 20
0.0
 30
0.0
  9
$PUCSORGBACK
 10
0.0
 20
0.0
 30
0.0
  9
$USERI1
 70
0
  9
$USERI2
 70
0
  9
$USERI3
 70
0
  9
$USERI4
 70
0
  9
$USERI5
 70
0
  9
$USERR1
 40
0.0
  9
$USERR2
 40
0.0
  9
$USERR3
 40
0.0
  9
$USERR4
 40
0.0
  9
$USERR5
 40
0.0
  9
$WORLDVIEW
 70
1
  9
$SHADEDGE
 70
3
  9
$SHADEDIF
 70
70
  9
$TILEMODE
 70
1
  9
$MAXACTVP
 70
64
  9
$PINSBASE
 10
0.0
 20
0.0
 30
0.0
  9
$PLIMCHECK
 70
0
  9
$PEXTMIN
 10
1e+20
 20
1e+20
 30
1e+20
  9
$PEXTMAX
 10
-1e+20
 20
-1e+20
 30
-1e+20
  9
$PLIMMIN
 10
0.0
 20
0.0
  9
$PLIMMAX
 10
420.0
 20
297.0
  9
$UNITMODE
 70
0
  9
$VISRETAIN
 70
1
  9
$PLINEGEN
 70
0
  9
$PSLTSCALE
 70
1
  9
$TREEDEPTH
 70
3020
  9
$CMLSTYLE
  2
Standard
  9
$CMLJUST
 70
0
  9
$CMLSCALE
 40
20.0
  9
$PROXYGRAPHICS
 70
1
  9
$MEASUREMENT
 70
1
  9
$CELWEIGHT
370
-1
  9
$ENDCAPS
280
0
  9
$JOINSTYLE
280
0
  9
$LWDISPLAY
290
0
  9
$INSUNITS
 70
6
  9
$HYPERLINKBASE
  1

  9
$STYLESHEET
  1

  9
$XEDIT
290
1
  9
$CEPSNTYPE
380
0
  9
$PSTYLEMODE
290
1
  9
$FINGERPRINTGUID
  2
{C8E857C3-6314-42B7-A02F-4CB918468681}
  9
$VERSIONGUID
  2
{F3A2292A-3B43-4ECD-B8A6-7A7E0EDC469F}
  9
$EXTNAMES
290
1
  9
$PSVPSCALE
 40
0.0
  9
$OLESTARTUP
290
0
  9
$SORTENTS
280
127
  9
$INDEXCTL
280
0
  9
$HIDETEXT
280
1
  9
$XCLIPFRAME
280
0
  9
$HALOGAP
280
0
  9
$OBSCOLOR
 70
257
  9
$OBSLTYPE
280
0
  9
$INTERSECTIONDISPLAY
280
0
  9
$INTERSECTIONCOLOR
 70
257
  9
$DIMASSOC
280
2
  9
$PROJECTNAME
  1

  9
$CAMERADISPLAY
290
0
  9
$LENSLENGTH
 40
50.0
  9
$CAMERAHEIGHT
 40
0.0
  9
$STEPSPERSEC
 40
24.0
  9
$STEPSIZE
 40
100.0
  9
$3DDWFPREC
 40
2.0
  9
$PSOLWIDTH
 40
0.005
  9
$PSOLHEIGHT
 40
0.08
  9
$LOFTANG1
 40
1.570796326795
  9
$LOFTANG2
 40
1.570796326795
  9
$LOFTMAG1
 40
0.0
  9
$LOFTMAG2
 40
0.0
  9
$LOFTPARAM
 70
7
  9
$LOFTNORMALS
280
1
  9
$LATITUDE
 40
37.795
  9
$LONGITUDE
 40
-122.394
  9
$NORTHDIRECTION
 40
0.0
  9
$TIMEZONE
 70
-8000
  9
$LIGHTGLYPHDISPLAY
280
1
  9
$TILEMODELIGHTSYNCH
280
1
  9
$CMATERIAL
347
20
  9
$SOLIDHIST
280
0
  9
$SHOWHIST
280
1
  9
$DWFFRAME
280
2
  9
$DGNFRAME
280
2
  9
$REALWORLDSCALE
290
1
  9
$INTERFERECOLOR
 62
256
  9
$CSHADOW
280
0
  9
$SHADOWPLANELOCATION
 40
0.0
  0
ENDSEC
  0
SECTION
  2
CLASSES
  0
CLASS
  1
ACDBDICTIONARYWDFLT
  2
AcDbDictionaryWithDefault
  3
ObjectDBX Classes
 90
0
 91
0
280
0
281
0
  0
CLASS
  1
SUN
  2
AcDbSun
  3
SCENEOE
 90
1153
 91
0
280
0
281
0
  0
CLASS
  1
VISUALSTYLE
  2
AcDbVisualStyle
  3
ObjectDBX Classes
 90
4095
 91
0
280
0
281
0
  0
CLASS
  1
MATERIAL
  2
AcDbMaterial
  3
ObjectDBX Classes
 90
1153
 91
0
280
0
281
0
  0
CLASS
  1
SCALE
  2
AcDbScale
  3
ObjectDBX Classes
 90
1153
 91
0
280
0
281
0
  0
CLASS
  1
TABLESTYLE
  2
AcDbTableStyle
  3
ObjectDBX Classes
 90
4095
 91
0
280
0
281
0
  0
CLASS
  1
MLEADERSTYLE
  2
AcDbMLeaderStyle
  3
ACDB_MLEADERSTYLE_CLASS
 90
4095
 91
0
280
0
281
0
  0
CLASS
  1
DICTIONARYVAR
  2
AcDbDictionaryVar
  3
ObjectDBX Classes
 90
0
 91
0
280
0
281
0
  0
CLASS
  1
CELLSTYLEMAP
  2
AcDbCellStyleMap
  3
ObjectDBX Classes
 90
1152
 91
0
280
0
281
0
  0
CLASS
  1
MENTALRAYRENDERSETTINGS
  2
AcDbMentalRayRenderSettings
  3
SCENEOE
 90
1024
 91
0
280
0
281
0
  0
CLASS
  1
ACDBDETAILVIEWSTYLE
  2
AcDbDetailViewStyle
  3
ObjectDBX Classes
 90
1025
 91
0
280
0
281
0
  0
CLASS
  1
ACDBSECTIONVIEWSTYLE
  2
AcDbSectionViewStyle
  3
ObjectDBX Classes
 90
1025
 91
0
280
0
281
0
  0
CLASS
  1
RASTERVARIABLES
  2
AcDbRasterVariables
  3
ISM
 90
0
 91
0
280
0
281
0
  0
CLASS
  1
LAYOUT
  2
AcDbLayout
  3
ObjectDBX Classes
 90
0
 91
0
280
0
281
0
  0
CLASS
  1
ACDBPLACEHOLDER
  2
AcDbPlaceHolder
  3
ObjectDBX Classes
 90
0
 91
0
280
0
281
0
  0
ENDSEC
  0
SECTION
  2
TABLES
  0
TABLE
  2
VPORT
  5
8
330
0
100
AcDbSymbolTable
 70
1
  0
VPORT
  5
23
330
8
100
AcDbSymbolTableRecord
100
AcDbViewportTableRecord
  2
*Active
 70
0
 10
0.0
 20
0.0
 11
1.0
 21
1.0
 12
0.0
 22
0.0
 13
0.0
 23
0.0
 14
0.5
 24
0.5
 15
0.5
 25
0.5
 16
0.0
 26
0.0
 36
1.0
 17
0.0
 27
0.0
 37
0.0
 40
1000.0
 41
1.34
 42
50.0
 43
0.0
 44
0.0
 50
0.0
 51
0.0
 71
0
 72
1000
 73
1
 74
3
 75
0
 76
0
 77
0
 78
0
281
0
 65
0
146
0.0
  0
ENDTAB
  0
TABLE
  2
LTYPE
  5
2
330
0
100
AcDbSymbolTable
 70
3
  0
LTYPE
  5
24
330
2
100
AcDbSymbolTableRecord
100
AcDbLinetypeTableRecord
  2
ByBlock
 70
0
  3

 72
65
 73
0
 40
0.0
  0
LTYPE
  5
25
330
2
100
AcDbSymbolTableRecord
100
AcDbLinetypeTableRecord
  2
ByLayer
 70
0
  3

 72
65
 73
0
 40
0.0
  0
LTYPE
  5
26
330
2
100
AcDbSymbolTableRecord
100
AcDbLinetypeTableRecord
  2
Continuous
 70
0
  3

 72
65
 73
0
 40
0.0
  0
ENDTAB
  0
TABLE
  2
LAYER
  5
1
330
0
100
AcDbSymbolTable
 70
2
  0
LAYER
  5
27
330
1
100
AcDbSymbolTableRecord
100
AcDbLayerTableRecord
  2
0
 70
0
 62
7
  6
Continuous
370
-3
390
13
347
21
  0
LAYER
  5
28
330
1
100
AcDbSymbolTableRecord
100
AcDbLayerTableRecord
  2
Defpoints
 70
0
 62
7
  6
Continuous
290
0
370
-3
390
13
347
21
  0
ENDTAB
  0
TABLE
  2
STYLE
  5
5
330
0
100
AcDbSymbolTable
 70
1
  0
STYLE
  5
29
330
5
100
AcDbSymbolTableRecord
100
AcDbTextStyleTableRecord
  2
Standard
 70
0
 40
0.0
 41
1.0
 50
0.0
 71
0
 42
2.5
  3
txt
  4

  0
ENDTAB
  0
TABLE
  2
VIEW
  5
7
330
0
100
AcDbSymbolTable
 70
0
  0
ENDTAB
  0
TABLE
  2
UCS
  5
6
330
0
100
AcDbSymbolTable
 70
0
  0
ENDTAB
  0
TABLE
  2
APPID
  5
3
330
0
100
AcDbSymbolTable
 70
3
  0
APPID
  5
2A
330
3
100
AcDbSymbolTableRecord
100
AcDbRegAppTableRecord
  2
ACAD
 70
0
  0
APPID
  5
38
330
3
100
AcDbSymbolTableRecord
100
AcDbRegAppTableRecord
  2
HATCHBACKGROUNDCOLOR
 70
0
  0
APPID
  5
39
330
3
100
AcDbSymbolTableRecord
100
AcDbRegAppTableRecord
  2
EZDXF
 70
0
  0
ENDTAB
  0
TABLE
  2
DIMSTYLE
  5
4
330
0
100
AcDbSymbolTable
 70
1
100
AcDbDimStyleTable
  0
DIMSTYLE
105
2B
330
4
100
AcDbSymbolTableRecord
100
AcDbDimStyleTableRecord
  2
Standard
 70
0
 40
1.0
 41
2.5
 42
0.625
 43
3.75
 44
1.25
 45
0.0
 46
0.0
 47
0.0
 48
0.0
 49
2.5
140
2.5
141
2.5
142
0.0
143
0.03937007874
144
1.0
145
0.0
146
1.0
147
0.625
148
0.0
 69
0
 70
0
 71
0
 72
0
 73
0
 74
0
 75
0
 76
0
 77
1
 78
8
 79
3
170
0
171
3
172
1
173
0
174
0
175
0
176
0
177
0
178
0
179
2
271
2
272
2
273
2
274
3
275
0
276
0
277
2
278
44
279
0
280
0
281
0
282
0
283
0
284
8
285
0
286
0
288
0
289
3
290
0
371
-2
372
-2
  0
ENDTAB
  0
TABLE
  2
BLOCK_RECORD
  5
9
330
0
100
AcDbSymbolTable
 70
2
  0
BLOCK_RECORD
  5
17
330
9
100
AcDbSymbolTableRecord
100
AcDbBlockTableRecord
  2
*Model_Space
340
1A
 70
0
280
1
281
0
  0
BLOCK_RECORD
  5
1B
330
9
100
AcDbSymbolTableRecord
100
AcDbBlockTableRecord
  2
*Paper_Space
340
1E
 70
0
280
1
281
0
  0
ENDTAB
  0
ENDSEC
  0
SECTION
  2
BLOCKS
  0
BLOCK
  5
18
330
17
100
AcDbEntity
  8
0
100
AcDbBlockBegin
  2
*Model_Space
 70
0
 10
0.0
 20
0.0
 30
0.0
  3
*Model_Space
  1

  0
ENDBLK
  5
19
330
17
100
AcDbEntity
  8
0
100
AcDbBlockEnd
  0
BLOCK
  5
1C
330
1B
100
AcDbEntity
  8
0
100
AcDbBlockBegin
  2
*Paper_Space
 70
0
 10
0.0
 20
0.0
 30
0.0
  3
*Paper_Space
  1

  0
ENDBLK
  5
1D
330
1B
100
AcDbEntity
  8
0
100
AcDbBlockEnd
  0
ENDSEC
  0
SECTION
  2
ENTITIES
  0
LWPOLYLINE
  5
2F
330
17
100
AcDbEntity
  8
0
100
AcDbPolyline
 90
51
 70
0
 10
-13.199999999999998
 20
12.0
 10
-13.199999999999998
 20
11.86
 10
-13.199999999999998
 20
11.719999999999999
 10
-13.199999999999998
 20
11.58
 10
-13.199999999999998
 20
11.44
 10
-13.199999999999998
 20
11.3
 10
-13.199999999999998
 20
11.16
 10
-13.199999999999998
 20
11.02
 10
-13.199999999999998
 20
10.879999999999999
 10
-13.199999999999998
 20
10.74
 10
-13.199999999999998
 20
10.6
 10
-13.199999999999998
 20
10.46
 10
-13.199999999999998
 20
10.32
 10
-13.199999999999998
 20
10.18
 10
-13.199999999999998
 20
10.04
 10
-13.199999999999998
 20
9.9
 10
-13.199999999999998
 20
9.76
 10
-13.199999999999998
 20
9.620000000000001
 10
-13.199999999999998
 20
9.48
 10
-13.199999999999998
 20
9.34
 10
-13.199999999999998
 20
9.2
 10
-13.199999999999998
 20
9.06
 10
-13.199999999999998
 20
8.92
 10
-13.199999999999998
 20
8.78
 10
-13.199999999999998
 20
8.64
 10
-13.2
 20
8.5
 10
-13.2
 20
8.36
 10
-13.2
 20
8.22
 10
-13.2
 20
8.08
 10
-13.2
 20
7.94
 10
-13.2
 20
7.8
 10
-13.2
 20
7.66
 10
-13.2
 20
7.52
 10
-13.2
 20
7.38
 10
-13.2
 20
7.24
 10
-13.2
 20
7.1
 10
-13.2
 20
6.96
 10
-13.2
 20
6.82
 10
-13.2
 20
6.68
 10
-13.2
 20
6.54
 10
-13.2
 20
6.4
 10
-13.2
 20
6.26
 10
-13.2
 20
6.12
 10
-13.2
 20
5.98
 10
-13.2
 20
5.84
 10
-13.2
 20
5.7
 10
-13.2
 20
5.56
 10
-13.2
 20
5.42
 10
-13.2
 20
5.28
 10
-13.2
 20
5.14
 10
-13.2
 20
5.0
  0
LWPOLYLINE
  5
30
330
17
100
AcDbEntity
  8
0
100
AcDbPolyline
 90
51
 70
0
 10
-27.2
 20
1.932676241267472e-15
 10
-25.612
 20
1.819842054828768e-15
 10
-24.024
 20
1.7070078683900642e-15
 10
-22.436
 20
1.5941736819513602e-15
 10
-20.848
 20
1.4813394955126563e-15
 10
-19.259999999999998
 20
1.3685053090739523e-15
 10
-17.671999999999997
 20
1.2556711226352484e-15
 10
-16.083999999999996
 20
1.1428369361965444e-15
 10
-14.495999999999999
 20
1.0300027497578409e-15
 10
-12.908
 20
9.17168563319137e-16
 10
-11.319999999999999
 20
8.043343768804331e-16
 10
-9.731999999999996
 20
6.915001904417289e-16
 10
-8.143999999999998
 20
5.786660040030253e-16
 10
-6.555999999999997
 20
4.658318175643213e-16
 10
-4.967999999999996
 20
3.529976311256174e-16
 10
-3.379999999999999
 20
2.401634446869137e-16
 10
-1.791999999999998
 20
1.2732925824820977e-16
 10
-0.20399999999999707
 20
1.4495071809505832e-17
 10
1.3840000000000003
 20
-9.833911462919785e-17
 10
2.972000000000005
 20
-2.1117330106790205e-16
 10
4.560000000000002
 20
-3.2400748750660575e-16
 10
6.148
 20
-4.3684167394530945e-16
 10
7.736000000000008
 20
-5.496758603840139e-16
 10
9.324000000000002
 20
-6.625100468227173e-16
 10
10.912000000000003
 20
-7.753442332614213e-16
 10
12.500000000000004
 20
-8.881784197001252e-16
 10
14.088000000000005
 20
-1.0010126061388292e-15
 10
15.676000000000005
 20
-1.1138467925775331e-15
 10
17.264000000000006
 20
-1.226680979016237e-15
 10
18.852000000000007
 20
-1.339515165454941e-15
 10
20.44
 20
-1.4523493518936444e-15
 10
22.028000000000002
 20
-1.5651835383323483e-15
 10
23.616000000000003
 20
-1.6780177247710523e-15
 10
25.204000000000004
 20
-1.7908519112097564e-15
 10
26.792000000000005
 20
-1.9036860976484604e-15
 10
28.38
 20
-2.0165202840871635e-15
 10
29.968
 20
-2.1293544705258675e-15
 10
31.556
 20
-2.2421886569645714e-15
 10
33.144000000000005
 20
-2.3550228434032757e-15
 10
34.73200000000001
 20
-2.46785702984198e-15
 10
36.32000000000001
 20
-2.5806912162806836e-15
 10
37.908
 20
-2.6935254027193868e-15
 10
39.495999999999995
 20
-2.8063595891580904e-15
 10
41.084
 20
-2.9191937755967947e-15
 10
42.67200000000001
 20
-3.0320279620354994e-15
 10
44.260000000000005
 20
-3.1448621484742026e-15
 10
45.848
 20
-3.257696334912906e-15
 10
47.43600000000001
 20
-3.3705305213516105e-15
 10
49.024
 20
-3.483364707790314e-15
 10
50.61200000000001
 20
-3.596198894229018e-15
 10
52.2
 20
-3.709033080667722e-15
  0
LWPOLYLINE
  5
31
330
17
100
AcDbEntity
  8
0
100
AcDbPolyline
 90
51
 70
0
 10
52.2
 20
-3.70903308066772e-15
 10
52.2
 20
0.09999999999999637
 10
52.2
 20
0.19999999999999643
 10
52.2
 20
0.2999999999999965
 10
52.2
 20
0.3999999999999966
 10
52.2
 20
0.4999999999999966
 10
52.2
 20
0.5999999999999968
 10
52.2
 20
0.699999999999997
 10
52.2
 20
0.7999999999999969
 10
52.2
 20
0.8999999999999969
 10
52.2
 20
0.999999999999997
 10
52.2
 20
1.099999999999997
 10
52.2
 20
1.199999999999997
 10
52.2
 20
1.2999999999999972
 10
52.2
 20
1.3999999999999975
 10
52.2
 20
1.4999999999999973
 10
52.2
 20
1.5999999999999974
 10
52.2
 20
1.6999999999999973
 10
52.2
 20
1.7999999999999974
 10
52.2
 20
1.8999999999999977
 10
52.2
 20
1.9999999999999976
 10
52.2
 20
2.099999999999998
 10
52.2
 20
2.199999999999998
 10
52.2
 20
2.299999999999998
 10
52.2
 20
2.399999999999998
 10
52.2
 20
2.4999999999999982
 10
52.2
 20
2.5999999999999983
 10
52.2
 20
2.699999999999998
 10
52.2
 20
2.799999999999999
 10
52.2
 20
2.8999999999999986
 10
52.2
 20
2.9999999999999987
 10
52.2
 20
3.0999999999999988
 10
52.2
 20
3.199999999999999
 10
52.2
 20
3.299999999999999
 10
52.2
 20
3.3999999999999986
 10
52.2
 20
3.4999999999999987
 10
52.2
 20
3.5999999999999988
 10
52.2
 20
3.6999999999999993
 10
52.2
 20
3.7999999999999994
 10
52.2
 20
3.8999999999999995
 10
52.2
 20
3.999999999999999
 10
52.2
 20
4.1
 10
52.2
 20
4.199999999999999
 10
52.2
 20
4.299999999999999
 10
52.2
 20
4.3999999999999995
 10
52.2
 20
4.5
 10
52.2
 20
4.6
 10
52.2
 20
4.7
 10
52.2
 20
4.8
 10
52.2
 20
4.8999999999999995
 10
52.2
 20
5.0
  0
LWPOLYLINE
  5
32
330
17
100
AcDbEntity
  8
0
100
AcDbPolyline
 90
51
 70
0
 10
-13.200000000000003
 20
5.0
 10
-12.536000000000001
 20
5.0
 10
-11.872
 20
5.0
 10
-11.208000000000006
 20
5.0
 10
-10.544000000000004
 20
5.0
 10
-9.880000000000003
 20
5.0
 10
-9.216000000000001
 20
5.0
 10
-8.552
 20
5.0
 10
-7.888000000000005
 20
5.0
 10
-7.224000000000004
 20
5.0
 10
-6.560000000000002
 20
5.0
 10
-5.896000000000001
 20
5.0
 10
-5.232000000000003
 20
5.0
 10
-4.568000000000005
 20
5.0
 10
-3.9040000000000035
 20
5.0
 10
-3.240000000000002
 20
5.0
 10
-2.5760000000000005
 20
5.0
 10
-1.911999999999999
 20
5.0
 10
-1.2480000000000047
 20
5.0
 10
-0.5840000000000032
 20
5.0
 10
0.0799999999999983
 20
5.0
 10
0.7439999999999998
 20
5.0
 10
1.4080000000000013
 20
5.0
 10
2.0719999999999956
 20
5.0
 10
2.735999999999997
 20
5.0
 10
3.3999999999999986
 20
5.0
 10
4.0639999999999965
 20
5.0
 10
4.727999999999998
 20
5.0
 10
5.3919999999999995
 20
5.0
 10
6.055999999999997
 20
5.0
 10
6.719999999999999
 20
5.0
 10
7.383999999999997
 20
5.0
 10
8.047999999999998
 20
5.0
 10
8.712
 20
5.0
 10
9.376000000000001
 20
5.0
 10
10.039999999999996
 20
5.0
 10
10.703999999999997
 20
5.0
 10
11.367999999999999
 20
5.0
 10
12.032
 20
5.0
 10
12.696000000000002
 20
5.0
 10
13.359999999999996
 20
5.0
 10
14.023999999999997
 20
5.0
 10
14.687999999999999
 20
5.0
 10
15.352
 20
5.0
 10
16.016000000000002
 20
5.0
 10
16.680000000000003
 20
5.0
 10
17.343999999999998
 20
5.0
 10
18.008
 20
5.0
 10
18.672
 20
5.0
 10
19.336
 20
5.0
 10
20.0
 20
5.0
  0
LWPOLYLINE
  5
33
330
17
100
AcDbEntity
  8
0
100
AcDbPolyline
 90
51
 70
0
 10
52.2
 20
5.0
 10
50.892
 20
5.0
 10
49.584
 20
5.0
 10
48.276
 20
5.0
 10
46.968
 20
5.0
 10
45.660000000000004
 20
5.0
 10
44.352000000000004
 20
5.0
 10
43.044000000000004
 20
5.0
 10
41.736000000000004
 20
5.0
 10
40.428000000000004
 20
5.0
 10
39.120000000000005
 20
5.0
 10
37.812
 20
5.0
 10
36.504000000000005
 20
5.0
 10
35.196
 20
5.0
 10
33.888000000000005
 20
5.0
 10
32.58
 20
5.0
 10
31.272000000000002
 20
5.0
 10
29.964
 20
5.0
 10
28.656000000000002
 20
5.0
 10
27.348
 20
5.0
 10
26.040000000000003
 20
5.0
 10
24.732
 20
5.0
 10
23.424
 20
5.0
 10
22.116000000000003
 20
5.0
 10
20.808
 20
5.0
 10
19.5
 20
5.0
 10
18.192
 20
5.0
 10
16.884
 20
5.0
 10
15.576
 20
5.0
 10
14.268
 20
5.0
 10
12.96
 20
5.0
 10
11.652000000000001
 20
5.0
 10
10.344000000000001
 20
5.0
 10
9.035999999999994
 20
5.0
 10
7.727999999999994
 20
5.0
 10
6.420000000000002
 20
5.0
 10
5.112000000000002
 20
5.0
 10
3.804000000000002
 20
5.0
 10
2.495999999999995
 20
5.0
 10
1.1879999999999953
 20
5.0
 10
-0.11999999999999744
 20
5.0
 10
-1.4279999999999973
 20
5.0
 10
-2.736000000000004
 20
5.0
 10
-4.044000000000004
 20
5.0
 10
-5.352000000000004
 20
5.0
 10
-6.660000000000004
 20
5.0
 10
-7.967999999999996
 20
5.0
 10
-9.276000000000003
 20
5.0
 10
-10.584000000000003
 20
5.0
 10
-11.89200000000001
 20
5.0
 10
-13.200000000000003
 20
5.0
  0
LWPOLYLINE
  5
34
330
17
100
AcDbEntity
  8
0
100
AcDbPolyline
 90
51
 70
0
 10
-13.2
 20
5.0
 10
-13.2
 20
5.14
 10
-13.2
 20
5.28
 10
-13.2
 20
5.42
 10
-13.2
 20
5.5600000000000005
 10
-13.2
 20
5.7
 10
-13.2
 20
5.84
 10
-13.2
 20
5.98
 10
-13.2
 20
6.12
 10
-13.2
 20
6.26
 10
-13.2
 20
6.4
 10
-13.2
 20
6.54
 10
-13.2
 20
6.68
 10
-13.2
 20
6.82
 10
-13.2
 20
6.96
 10
-13.2
 20
7.1
 10
-13.2
 20
7.24
 10
-13.2
 20
7.38
 10
-13.2
 20
7.52
 10
-13.2
 20
7.66
 10
-13.2
 20
7.8
 10
-13.2
 20
7.9399999999999995
 10
-13.2
 20
8.08
 10
-13.2
 20
8.22
 10
-13.2
 20
8.36
 10
-13.2
 20
8.5
 10
-13.199999999999998
 20
8.64
 10
-13.199999999999998
 20
8.78
 10
-13.199999999999998
 20
8.92
 10
-13.199999999999998
 20
9.059999999999999
 10
-13.199999999999998
 20
9.2
 10
-13.199999999999998
 20
9.34
 10
-13.199999999999998
 20
9.48
 10
-13.199999999999998
 20
9.620000000000001
 10
-13.199999999999998
 20
9.76
 10
-13.199999999999998
 20
9.9
 10
-13.199999999999998
 20
10.04
 10
-13.199999999999998
 20
10.18
 10
-13.199999999999998
 20
10.32
 10
-13.199999999999998
 20
10.46
 10
-13.199999999999998
 20
10.6
 10
-13.199999999999998
 20
10.74
 10
-13.199999999999998
 20
10.879999999999999
 10
-13.199999999999998
 20
11.02
 10
-13.199999999999998
 20
11.16
 10
-13.199999999999998
 20
11.3
 10
-13.199999999999998
 20
11.440000000000001
 10
-13.199999999999998
 20
11.58
 10
-13.199999999999998
 20
11.719999999999999
 10
-13.199999999999998
 20
11.86
 10
-13.199999999999998
 20
12.0
  0
LWPOLYLINE
  5
35
330
17
100
AcDbEntity
  8
0
100
AcDbPolyline
 90
51
 70
0
 10
-13.2
 20
11.999999999999998
 10
-13.213812901002099
 20
12.439533636705189
 10
-13.255197090798653
 20
12.877332634950129
 10
-13.323989244899177
 20
13.31166920210007
 10
-13.419917872099582
 20
13.740829210153985
 10
-13.542604385933924
 20
14.16311896062463
 10
-13.69156459878224
 20
14.576871868792741
 10
-13.866210632737863
 20
14.980455040955508
 10
-14.065853239692952
 20
15.372275718712004
 10
-14.289704521485895
 20
15.750787564852978
 10
-14.536881039375366
 20
16.11449676604731
 10
-14.806407300569472
 20
16.461967928240824
 10
-15.097219608050118
 20
16.79182974150082
 10
-15.408170258499176
 20
17.102780391949878
 10
-15.738032071759172
 20
17.393592699430528
 10
-16.085503233952686
 20
17.66311896062463
 10
-16.449212435147018
 20
17.910295478514104
 10
-16.827724281287992
 20
18.134146760307047
 10
-17.219544959044487
 20
18.333789367262135
 10
-17.623128131207253
 20
18.50843540121776
 10
-18.036881039375366
 20
18.657395614066075
 10
-18.459170789846013
 20
18.780082127900418
 10
-18.888330797899926
 20
18.876010755100822
 10
-19.322667365049867
 20
18.944802909201343
 10
-19.760466363294807
 20
18.986187098997902
 10
-20.2
 20
19.0
 10
-20.63953363670519
 20
18.986187098997902
 10
-21.077332634950128
 20
18.944802909201346
 10
-21.51166920210007
 20
18.876010755100822
 10
-21.940829210153982
 20
18.780082127900418
 10
-22.36311896062463
 20
18.657395614066075
 10
-22.77687186879274
 20
18.50843540121776
 10
-23.180455040955508
 20
18.333789367262135
 10
-23.57227571871201
 20
18.134146760307043
 10
-23.950787564852977
 20
17.910295478514104
 10
-24.31449676604731
 20
17.663118960624633
 10
-24.661967928240824
 20
17.393592699430528
 10
-24.99182974150082
 20
17.10278039194988
 10
-25.302780391949877
 20
16.791829741500823
 10
-25.593592699430523
 20
16.461967928240828
 10
-25.86311896062463
 20
16.114496766047314
 10
-26.110295478514104
 20
15.75078756485298
 10
-26.334146760307043
 20
15.372275718712007
 10
-26.533789367262134
 20
14.980455040955512
 10
-26.70843540121776
 20
14.576871868792745
 10
-26.857395614066075
 20
14.163118960624633
 10
-26.980082127900417
 20
13.740829210153988
 10
-27.076010755100818
 20
13.311669202100074
 10
-27.144802909201346
 20
12.877332634950132
 10
-27.186187098997898
 20
12.439533636705193
 10
-27.2
 20
12.000000000000002
  0
LWPOLYLINE
  5
36
330
17
100
AcDbEntity
  8
0
100
AcDbPolyline
 90
51
 70
0
 10
-27.2
 20
12.0
 10
-27.2
 20
11.76
 10
-27.2
 20
11.52
 10
-27.2
 20
11.28
 10
-27.2
 20
11.04
 10
-27.2
 20
10.8
 10
-27.2
 20
10.56
 10
-27.2
 20
10.32
 10
-27.2
 20
10.08
 10
-27.2
 20
9.84
 10
-27.2
 20
9.6
 10
-27.2
 20
9.36
 10
-27.2
 20
9.120000000000001
 10
-27.2
 20
8.879999999999999
 10
-27.2
 20
8.64
 10
-27.2
 20
8.4
 10
-27.2
 20
8.16
 10
-27.2
 20
7.92
 10
-27.2
 20
7.68
 10
-27.2
 20
7.44
 10
-27.2
 20
7.2
 10
-27.2
 20
6.96
 10
-27.2
 20
6.72
 10
-27.2
 20
6.48
 10
-27.2
 20
6.24
 10
-27.2
 20
6.0
 10
-27.2
 20
5.76
 10
-27.2
 20
5.52
 10
-27.2
 20
5.28
 10
-27.2
 20
5.04
 10
-27.2
 20
4.8
 10
-27.2
 20
4.56
 10
-27.2
 20
4.32
 10
-27.2
 20
4.08
 10
-27.2
 20
3.84
 10
-27.2
 20
3.5999999999999996
 10
-27.2
 20
3.3599999999999994
 10
-27.2
 20
3.119999999999999
 10
-27.2
 20
2.880000000000001
 10
-27.2
 20
2.6400000000000006
 10
-27.2
 20
2.4000000000000004
 10
-27.2
 20
2.16
 10
-27.2
 20
1.92
 10
-27.2
 20
1.6799999999999997
 10
-27.2
 20
1.4399999999999995
 10
-27.2
 20
1.1999999999999993
 10
-27.2
 20
0.9600000000000009
 10
-27.2
 20
0.7200000000000006
 10
-27.2
 20
0.4800000000000004
 10
-27.2
 20
0.2400000000000002
 10
-27.2
 20
0.0
  0
LWPOLYLINE
  5
37
330
17
100
AcDbEntity
  8
0
100
AcDbPolyline
 90
51
 70
0
 10
-20.2
 20
16.0
 10
-20.701332934257216
 20
15.968458805257912
 10
-21.19475954865942
 20
15.874332644514524
 10
-21.67249821073871
 20
15.719105943553005
 10
-22.12701469640686
 20
15.505226720175454
 10
-22.551141009169893
 20
15.23606797749979
 10
-22.938188423714752
 20
14.915874509685647
 10
-23.282052971103155
 20
14.549695958994759
 10
-23.57731170200806
 20
14.143307179915986
 10
-23.819308209864076
 20
13.703117166260292
 10
-24.004226065180614
 20
13.23606797749979
 10
-24.129149002914755
 20
12.7495252583429
 10
-24.192106913713086
 20
12.251162078117254
 10
-24.192106913713086
 20
11.748837921882746
 10
-24.129149002914755
 20
11.2504747416571
 10
-24.004226065180614
 20
10.763932022500212
 10
-23.819308209864076
 20
10.296882833739708
 10
-23.57731170200806
 20
9.856692820084012
 10
-23.282052971103155
 20
9.450304041005241
 10
-22.938188423714756
 20
9.084125490314355
 10
-22.551141009169893
 20
8.76393202250021
 10
-22.12701469640686
 20
8.494773279824546
 10
-21.672498210738713
 20
8.280894056446995
 10
-21.19475954865942
 20
8.125667355485476
 10
-20.701332934257216
 20
8.03154119474209
 10
-20.2
 20
8.0
 10
-19.698667065742782
 20
8.031541194742088
 10
-19.205240451340583
 20
8.125667355485476
 10
-18.72750178926129
 20
8.280894056446995
 10
-18.27298530359314
 20
8.494773279824546
 10
-17.84885899083011
 20
8.763932022500208
 10
-17.461811576285246
 20
9.084125490314353
 10
-17.117947028896843
 20
9.450304041005243
 10
-16.822688297991938
 20
9.856692820084014
 10
-16.58069179013592
 20
10.296882833739712
 10
-16.395773934819385
 20
10.76393202250021
 10
-16.270850997085244
 20
11.2504747416571
 10
-16.207893086286912
 20
11.748837921882748
 10
-16.207893086286912
 20
12.251162078117252
 10
-16.270850997085244
 20
12.749525258342898
 10
-16.395773934819385
 20
13.23606797749979
 10
-16.58069179013592
 20
13.703117166260288
 10
-16.822688297991938
 20
14.143307179915986
 10
-17.11794702889684
 20
14.549695958994757
 10
-17.461811576285243
 20
14.915874509685645
 10
-17.848858990830106
 20
15.23606797749979
 10
-18.272985303593135
 20
15.505226720175452
 10
-18.72750178926129
 20
15.719105943553005
 10
-19.20524045134058
 20
15.874332644514524
 10
-19.698667065742782
 20
15.96845880525791
 10
-20.2
 20
16.0
  0
ENDSEC
  0
SECTION
  2
OBJECTS
  0
DICTIONARY
  5
A
330
0
100
AcDbDictionary
280
0
281
1
  3
ACAD_COLOR
350
B
  3
ACAD_GROUP
350
C
  3
ACAD_LAYOUT
350
D
  3
ACAD_MATERIAL
350
E
  3
ACAD_MLEADERSTYLE
350
F
  3
ACAD_MLINESTYLE
350
10
  3
ACAD_PLOTSETTINGS
350
11
  3
ACAD_PLOTSTYLENAME
350
12
  3
ACAD_SCALELIST
350
14
  3
ACAD_TABLESTYLE
350
15
  3
ACAD_VISUALSTYLE
350
16
  3
EZDXF_META
350
2D
  0
DICTIONARY
  5
B
330
A
100
AcDbDictionary
280
0
281
1
  0
DICTIONARY
  5
C
330
A
100
AcDbDictionary
280
0
281
1
  0
DICTIONARY
  5
D
330
A
100
AcDbDictionary
280
0
281
1
  3
Model
350
1A
  3
Layout1
350
1E
  0
DICTIONARY
  5
E
330
A
100
AcDbDictionary
280
0
281
1
  3
ByBlock
350
1F
  3
ByLayer
350
20
  3
Global
350
21
  0
DICTIONARY
  5
F
330
A
100
AcDbDictionary
280
0
281
1
  3
Standard
350
2C
  0
DICTIONARY
  5
10
330
A
100
AcDbDictionary
280
0
281
1
  3
Standard
350
22
  0
DICTIONARY
  5
11
330
A
100
AcDbDictionary
280
0
281
1
  0
ACDBDICTIONARYWDFLT
  5
12
330
A
100
AcDbDictionary
280
0
281
1
  3
Normal
350
13
100
AcDbDictionaryWithDefault
340
13
  0
ACDBPLACEHOLDER
  5
13
330
12
  0
DICTIONARY
  5
14
330
A
100
AcDbDictionary
280
0
281
1
  0
DICTIONARY
  5
15
330
A
100
AcDbDictionary
280
0
281
1
  0
DICTIONARY
  5
16
330
A
100
AcDbDictionary
280
0
281
1
  0
LAYOUT
  5
1A
330
D
100
AcDbPlotSettings
  1

  2
Adobe PDF
  4
A3
  6

 40
7.5
 41
20.0
 42
7.5
 43
20.0
 44
420.0
 45
297.0
 46
0.0
 47
0.0
 48
0.0
 49
0.0
140
0.0
141
0.0
142
1.0
143
1.0
 70
1024
 72
1
 73
0
 74
5
  7

 75
16
 76
0
 77
2
 78
300
147
1.0
148
0.0
149
0.0
100
AcDbLayout
  1
Model
 70
1
 71
0
 10
0.0
 20
0.0
 11
420.0
 21
297.0
 12
0.0
 22
0.0
 32
0.0
 14
1e+20
 24
1e+20
 34
1e+20
 15
-1e+20
 25
-1e+20
 35
-1e+20
146
0.0
 13
0.0
 23
0.0
 33
0.0
 16
1.0
 26
0.0
 36
0.0
 17
0.0
 27
1.0
 37
0.0
 76
1
330
17
  0
LAYOUT
  5
1E
330
D
100
AcDbPlotSettings
  1

  2
Adobe PDF
  4
A3
  6

 40
7.5
 41
20.0
 42
7.5
 43
20.0
 44
420.0
 45
297.0
 46
0.0
 47
0.0
 48
0.0
 49
0.0
140
0.0
141
0.0
142
1.0
143
1.0
 70
0
 72
1
 73
0
 74
5
  7

 75
16
 76
0
 77
2
 78
300
147
1.0
148
0.0
149
0.0
100
AcDbLayout
  1
Layout1
 70
1
 71
1
 10
0.0
 20
0.0
 11
420.0
 21
297.0
 12
0.0
 22
0.0
 32
0.0
 14
1e+20
 24
1e+20
 34
1e+20
 15
-1e+20
 25
-1e+20
 35
-1e+20
146
0.0
 13
0.0
 23
0.0
 33
0.0
 16
1.0
 26
0.0
 36
0.0
 17
0.0
 27
1.0
 37
0.0
 76
1
330
1B
  0
MATERIAL
  5
1F
102
{ACAD_REACTORS
330
E
102
}
330
E
100
AcDbMaterial
  1
ByBlock
  2

 70
0
 40
1.0
 71
1
 41
1.0
 91
-1023410177
 42
1.0
 72
1
  3

 73
1
 74
1
 75
1
 44
0.5
 73
0
 45
1.0
 46
1.0
 77
1
  4

 78
1
 79
1
170
1
 48
1.0
171
1
  6

172
1
173
1
174
1
140
1.0
141
1.0
175
1
  7

176
1
177
1
178
1
143
1.0
179
1
  8

270
1
271
1
272
1
145
1.0
146
1.0
273
1
  9

274
1
275
1
276
1
 42
1.0
 72
1
  3

 73
1
 74
1
 75
1
 94
63
  0
MATERIAL
  5
20
102
{ACAD_REACTORS
330
E
102
}
330
E
100
AcDbMaterial
  1
ByLayer
  2

 70
0
 40
1.0
 71
1
 41
1.0
 91
-1023410177
 42
1.0
 72
1
  3

 73
1
 74
1
 75
1
 44
0.5
 73
0
 45
1.0
 46
1.0
 77
1
  4

 78
1
 79
1
170
1
 48
1.0
171
1
  6

172
1
173
1
174
1
140
1.0
141
1.0
175
1
  7

176
1
177
1
178
1
143
1.0
179
1
  8

270
1
271
1
272
1
145
1.0
146
1.0
273
1
  9

274
1
275
1
276
1
 42
1.0
 72
1
  3

 73
1
 74
1
 75
1
 94
63
  0
MATERIAL
  5
21
102
{ACAD_REACTORS
330
E
102
}
330
E
100
AcDbMaterial
  1
Global
  2

 70
0
 40
1.0
 71
1
 41
1.0
 91
-1023410177
 42
1.0
 72
1
  3

 73
1
 74
1
 75
1
 44
0.5
 73
0
 45
1.0
 46
1.0
 77
1
  4

 78
1
 79
1
170
1
 48
1.0
171
1
  6

172
1
173
1
174
1
140
1.0
141
1.0
175
1
  7

176
1
177
1
178
1
143
1.0
179
1
  8

270
1
271
1
272
1
145
1.0
146
1.0
273
1
  9

274
1
275
1
276
1
 42
1.0
 72
1
  3

 73
1
 74
1
 75
1
 94
63
  0
MLINESTYLE
  5
22
102
{ACAD_REACTORS
330
10
102
}
330
10
100
AcDbMlineStyle
  2
Standard
 70
0
  3

 62
256
 51
90.0
 52
90.0
 71
2
 49
0.5
 62
256
  6
BYLAYER
 49
-0.5
 62
256
  6
BYLAYER
  0
MLEADERSTYLE
  5
2C
102
{ACAD_REACTORS
330
F
102
}
330
F
100
AcDbMLeaderStyle
179
2
170
2
171
1
172
0
 90
2
 40
0.0
 41
0.0
173
1
 91
-1056964608
 92
-2
290
1
 42
2.0
291
1
 43
8.0
  3
Standard
 44
4.0
300

342
29
174
1
175
1
176
0
178
1
 93
-1056964608
 45
4.0
292
0
297
0
 46
4.0
 94
-1056964608
 47
1.0
 49
1.0
140
1.0
294
1
141
0.0
177
0
142
1.0
295
0
296
0
143
3.75
271
0
272
9
273
9
  0
DICTIONARY
  5
2D
330
A
100
AcDbDictionary
281
1
  3
CREATED_BY_EZDXF
350
2E
  3
WRITTEN_BY_EZDXF
350
3A
  0
DICTIONARYVAR
  5
2E
330
2D
100
DictionaryVariables
280
0
  1
1.0.3 @ 2025-05-29T09:39:03.913304+00:00
  0
DICTIONARYVAR
  5
3A
330
2D
100
DictionaryVariables
280
0
  1
1.0.3 @ 2025-05-29T09:39:03.915304+00:00
  0
ENDSEC
  0
EOF
