  0
SECTION
  2
HEADER
  9
$ACADVER
  1
AC1027
  9
$ACADMAINTVER
 70
105
  9
$DWGCODEPAGE
  3
ANSI_1252
  9
$LASTSAVEDBY
  1
ezdxf
  9
$REQUIREDVERSIONS
160
0
  9
$INSBASE
 10
0.0
 20
0.0
 30
0.0
  9
$EXTMIN
 10
1e+20
 20
1e+20
 30
1e+20
  9
$EXTMAX
 10
-1e+20
 20
-1e+20
 30
-1e+20
  9
$LIMMIN
 10
0.0
 20
0.0
  9
$LIMMAX
 10
420.0
 20
297.0
  9
$ORTHOMODE
 70
0
  9
$REGENMODE
 70
1
  9
$FILLMODE
 70
1
  9
$QTEXTMODE
 70
0
  9
$MIRRTEXT
 70
1
  9
$LTSCALE
 40
1.0
  9
$ATTMODE
 70
1
  9
$TEXTSIZE
 40
2.5
  9
$TRACEWID
 40
1.0
  9
$TEXTSTYLE
  7
Standard
  9
$CLAYER
  8
0
  9
$CELTYPE
  6
ByLayer
  9
$CECOLOR
 62
256
  9
$CELTSCALE
 40
1.0
  9
$DISPSILH
 70
0
  9
$DIMSCALE
 40
1.0
  9
$DIMASZ
 40
2.5
  9
$DIMEXO
 40
0.625
  9
$DIMDLI
 40
3.75
  9
$DIMRND
 40
0.0
  9
$DIMDLE
 40
0.0
  9
$DIMEXE
 40
1.25
  9
$DIMTP
 40
0.0
  9
$DIMTM
 40
0.0
  9
$DIMTXT
 40
2.5
  9
$DIMCEN
 40
2.5
  9
$DIMTSZ
 40
0.0
  9
$DIMTOL
 70
0
  9
$DIMLIM
 70
0
  9
$DIMTIH
 70
0
  9
$DIMTOH
 70
0
  9
$DIMSE1
 70
0
  9
$DIMSE2
 70
0
  9
$DIMTAD
 70
1
  9
$DIMZIN
 70
8
  9
$DIMBLK
  1

  9
$DIMASO
 70
1
  9
$DIMSHO
 70
1
  9
$DIMPOST
  1

  9
$DIMAPOST
  1

  9
$DIMALT
 70
0
  9
$DIMALTD
 70
3
  9
$DIMALTF
 40
0.03937007874
  9
$DIMLFAC
 40
1.0
  9
$DIMTOFL
 70
1
  9
$DIMTVP
 40
0.0
  9
$DIMTIX
 70
0
  9
$DIMSOXD
 70
0
  9
$DIMSAH
 70
0
  9
$DIMBLK1
  1

  9
$DIMBLK2
  1

  9
$DIMSTYLE
  2
ISO-25
  9
$DIMCLRD
 70
0
  9
$DIMCLRE
 70
0
  9
$DIMCLRT
 70
0
  9
$DIMTFAC
 40
1.0
  9
$DIMGAP
 40
0.625
  9
$DIMJUST
 70
0
  9
$DIMSD1
 70
0
  9
$DIMSD2
 70
0
  9
$DIMTOLJ
 70
0
  9
$DIMTZIN
 70
8
  9
$DIMALTZ
 70
0
  9
$DIMALTTZ
 70
0
  9
$DIMUPT
 70
0
  9
$DIMDEC
 70
2
  9
$DIMTDEC
 70
2
  9
$DIMALTU
 70
2
  9
$DIMALTTD
 70
3
  9
$DIMTXSTY
  7
Standard
  9
$DIMAUNIT
 70
0
  9
$DIMADEC
 70
0
  9
$DIMALTRND
 40
0.0
  9
$DIMAZIN
 70
0
  9
$DIMDSEP
 70
44
  9
$DIMATFIT
 70
3
  9
$DIMFRAC
 70
0
  9
$DIMLDRBLK
  1

  9
$DIMLUNIT
 70
2
  9
$DIMLWD
 70
-2
  9
$DIMLWE
 70
-2
  9
$DIMTMOVE
 70
0
  9
$DIMFXL
 40
1.0
  9
$DIMFXLON
 70
0
  9
$DIMJOGANG
 40
0.785398163397
  9
$DIMTFILL
 70
0
  9
$DIMTFILLCLR
 70
0
  9
$DIMARCSYM
 70
0
  9
$DIMLTYPE
  6

  9
$DIMLTEX1
  6

  9
$DIMLTEX2
  6

  9
$DIMTXTDIRECTION
 70
0
  9
$LUNITS
 70
2
  9
$LUPREC
 70
4
  9
$SKETCHINC
 40
1.0
  9
$FILLETRAD
 40
10.0
  9
$AUNITS
 70
0
  9
$AUPREC
 70
2
  9
$MENU
  1
.
  9
$ELEVATION
 40
0.0
  9
$PELEVATION
 40
0.0
  9
$THICKNESS
 40
0.0
  9
$LIMCHECK
 70
0
  9
$CHAMFERA
 40
0.0
  9
$CHAMFERB
 40
0.0
  9
$CHAMFERC
 40
0.0
  9
$CHAMFERD
 40
0.0
  9
$SKPOLY
 70
0
  9
$TDCREATE
 40
2460825.776840278
  9
$TDUCREATE
 40
2458532.153996898
  9
$TDUPDATE
 40
2460825.776840278
  9
$TDUUPDATE
 40
2458532.1544311
  9
$TDINDWG
 40
0.0
  9
$TDUSRTIMER
 40
0.0
  9
$USRTIMER
 70
1
  9
$ANGBASE
 50
0.0
  9
$ANGDIR
 70
0
  9
$PDMODE
 70
0
  9
$PDSIZE
 40
0.0
  9
$PLINEWID
 40
0.0
  9
$SPLFRAME
 70
0
  9
$SPLINETYPE
 70
6
  9
$SPLINESEGS
 70
8
  9
$HANDSEED
  5
3C
  9
$SURFTAB1
 70
6
  9
$SURFTAB2
 70
6
  9
$SURFTYPE
 70
6
  9
$SURFU
 70
6
  9
$SURFV
 70
6
  9
$UCSBASE
  2

  9
$UCSNAME
  2

  9
$UCSORG
 10
0.0
 20
0.0
 30
0.0
  9
$UCSXDIR
 10
1.0
 20
0.0
 30
0.0
  9
$UCSYDIR
 10
0.0
 20
1.0
 30
0.0
  9
$UCSORTHOREF
  2

  9
$UCSORTHOVIEW
 70
0
  9
$UCSORGTOP
 10
0.0
 20
0.0
 30
0.0
  9
$UCSORGBOTTOM
 10
0.0
 20
0.0
 30
0.0
  9
$UCSORGLEFT
 10
0.0
 20
0.0
 30
0.0
  9
$UCSORGRIGHT
 10
0.0
 20
0.0
 30
0.0
  9
$UCSORGFRONT
 10
0.0
 20
0.0
 30
0.0
  9
$UCSORGBACK
 10
0.0
 20
0.0
 30
0.0
  9
$PUCSBASE
  2

  9
$PUCSNAME
  2

  9
$PUCSORG
 10
0.0
 20
0.0
 30
0.0
  9
$PUCSXDIR
 10
1.0
 20
0.0
 30
0.0
  9
$PUCSYDIR
 10
0.0
 20
1.0
 30
0.0
  9
$PUCSORTHOREF
  2

  9
$PUCSORTHOVIEW
 70
0
  9
$PUCSORGTOP
 10
0.0
 20
0.0
 30
0.0
  9
$PUCSORGBOTTOM
 10
0.0
 20
0.0
 30
0.0
  9
$PUCSORGLEFT
 10
0.0
 20
0.0
 30
0.0
  9
$PUCSORGRIGHT
 10
0.0
 20
0.0
 30
0.0
  9
$PUCSORGFRONT
 10
0.0
 20
0.0
 30
0.0
  9
$PUCSORGBACK
 10
0.0
 20
0.0
 30
0.0
  9
$USERI1
 70
0
  9
$USERI2
 70
0
  9
$USERI3
 70
0
  9
$USERI4
 70
0
  9
$USERI5
 70
0
  9
$USERR1
 40
0.0
  9
$USERR2
 40
0.0
  9
$USERR3
 40
0.0
  9
$USERR4
 40
0.0
  9
$USERR5
 40
0.0
  9
$WORLDVIEW
 70
1
  9
$SHADEDGE
 70
3
  9
$SHADEDIF
 70
70
  9
$TILEMODE
 70
1
  9
$MAXACTVP
 70
64
  9
$PINSBASE
 10
0.0
 20
0.0
 30
0.0
  9
$PLIMCHECK
 70
0
  9
$PEXTMIN
 10
1e+20
 20
1e+20
 30
1e+20
  9
$PEXTMAX
 10
-1e+20
 20
-1e+20
 30
-1e+20
  9
$PLIMMIN
 10
0.0
 20
0.0
  9
$PLIMMAX
 10
420.0
 20
297.0
  9
$UNITMODE
 70
0
  9
$VISRETAIN
 70
1
  9
$PLINEGEN
 70
0
  9
$PSLTSCALE
 70
1
  9
$TREEDEPTH
 70
3020
  9
$CMLSTYLE
  2
Standard
  9
$CMLJUST
 70
0
  9
$CMLSCALE
 40
20.0
  9
$PROXYGRAPHICS
 70
1
  9
$MEASUREMENT
 70
1
  9
$CELWEIGHT
370
-1
  9
$ENDCAPS
280
0
  9
$JOINSTYLE
280
0
  9
$LWDISPLAY
290
0
  9
$INSUNITS
 70
6
  9
$HYPERLINKBASE
  1

  9
$STYLESHEET
  1

  9
$XEDIT
290
1
  9
$CEPSNTYPE
380
0
  9
$PSTYLEMODE
290
1
  9
$FINGERPRINTGUID
  2
{C17EA692-46F2-464B-B189-86B72A4B774E}
  9
$VERSIONGUID
  2
{52D2B1CC-3D2C-4DBB-B4C8-6361E9392D4C}
  9
$EXTNAMES
290
1
  9
$PSVPSCALE
 40
0.0
  9
$OLESTARTUP
290
0
  9
$SORTENTS
280
127
  9
$INDEXCTL
280
0
  9
$HIDETEXT
280
1
  9
$XCLIPFRAME
280
0
  9
$HALOGAP
280
0
  9
$OBSCOLOR
 70
257
  9
$OBSLTYPE
280
0
  9
$INTERSECTIONDISPLAY
280
0
  9
$INTERSECTIONCOLOR
 70
257
  9
$DIMASSOC
280
2
  9
$PROJECTNAME
  1

  9
$CAMERADISPLAY
290
0
  9
$LENSLENGTH
 40
50.0
  9
$CAMERAHEIGHT
 40
0.0
  9
$STEPSPERSEC
 40
24.0
  9
$STEPSIZE
 40
100.0
  9
$3DDWFPREC
 40
2.0
  9
$PSOLWIDTH
 40
0.005
  9
$PSOLHEIGHT
 40
0.08
  9
$LOFTANG1
 40
1.570796326795
  9
$LOFTANG2
 40
1.570796326795
  9
$LOFTMAG1
 40
0.0
  9
$LOFTMAG2
 40
0.0
  9
$LOFTPARAM
 70
7
  9
$LOFTNORMALS
280
1
  9
$LATITUDE
 40
37.795
  9
$LONGITUDE
 40
-122.394
  9
$NORTHDIRECTION
 40
0.0
  9
$TIMEZONE
 70
-8000
  9
$LIGHTGLYPHDISPLAY
280
1
  9
$TILEMODELIGHTSYNCH
280
1
  9
$CMATERIAL
347
20
  9
$SOLIDHIST
280
0
  9
$SHOWHIST
280
1
  9
$DWFFRAME
280
2
  9
$DGNFRAME
280
2
  9
$REALWORLDSCALE
290
1
  9
$INTERFERECOLOR
 62
256
  9
$CSHADOW
280
0
  9
$SHADOWPLANELOCATION
 40
0.0
  0
ENDSEC
  0
SECTION
  2
CLASSES
  0
CLASS
  1
ACDBDICTIONARYWDFLT
  2
AcDbDictionaryWithDefault
  3
ObjectDBX Classes
 90
0
 91
0
280
0
281
0
  0
CLASS
  1
SUN
  2
AcDbSun
  3
SCENEOE
 90
1153
 91
0
280
0
281
0
  0
CLASS
  1
VISUALSTYLE
  2
AcDbVisualStyle
  3
ObjectDBX Classes
 90
4095
 91
0
280
0
281
0
  0
CLASS
  1
MATERIAL
  2
AcDbMaterial
  3
ObjectDBX Classes
 90
1153
 91
0
280
0
281
0
  0
CLASS
  1
SCALE
  2
AcDbScale
  3
ObjectDBX Classes
 90
1153
 91
0
280
0
281
0
  0
CLASS
  1
TABLESTYLE
  2
AcDbTableStyle
  3
ObjectDBX Classes
 90
4095
 91
0
280
0
281
0
  0
CLASS
  1
MLEADERSTYLE
  2
AcDbMLeaderStyle
  3
ACDB_MLEADERSTYLE_CLASS
 90
4095
 91
0
280
0
281
0
  0
CLASS
  1
DICTIONARYVAR
  2
AcDbDictionaryVar
  3
ObjectDBX Classes
 90
0
 91
0
280
0
281
0
  0
CLASS
  1
CELLSTYLEMAP
  2
AcDbCellStyleMap
  3
ObjectDBX Classes
 90
1152
 91
0
280
0
281
0
  0
CLASS
  1
MENTALRAYRENDERSETTINGS
  2
AcDbMentalRayRenderSettings
  3
SCENEOE
 90
1024
 91
0
280
0
281
0
  0
CLASS
  1
ACDBDETAILVIEWSTYLE
  2
AcDbDetailViewStyle
  3
ObjectDBX Classes
 90
1025
 91
0
280
0
281
0
  0
CLASS
  1
ACDBSECTIONVIEWSTYLE
  2
AcDbSectionViewStyle
  3
ObjectDBX Classes
 90
1025
 91
0
280
0
281
0
  0
CLASS
  1
RASTERVARIABLES
  2
AcDbRasterVariables
  3
ISM
 90
0
 91
0
280
0
281
0
  0
CLASS
  1
LAYOUT
  2
AcDbLayout
  3
ObjectDBX Classes
 90
0
 91
0
280
0
281
0
  0
CLASS
  1
ACDBPLACEHOLDER
  2
AcDbPlaceHolder
  3
ObjectDBX Classes
 90
0
 91
0
280
0
281
0
  0
ENDSEC
  0
SECTION
  2
TABLES
  0
TABLE
  2
VPORT
  5
8
330
0
100
AcDbSymbolTable
 70
1
  0
VPORT
  5
23
330
8
100
AcDbSymbolTableRecord
100
AcDbViewportTableRecord
  2
*Active
 70
0
 10
0.0
 20
0.0
 11
1.0
 21
1.0
 12
0.0
 22
0.0
 13
0.0
 23
0.0
 14
0.5
 24
0.5
 15
0.5
 25
0.5
 16
0.0
 26
0.0
 36
1.0
 17
0.0
 27
0.0
 37
0.0
 40
1000.0
 41
1.34
 42
50.0
 43
0.0
 44
0.0
 50
0.0
 51
0.0
 71
0
 72
1000
 73
1
 74
3
 75
0
 76
0
 77
0
 78
0
281
0
 65
0
146
0.0
  0
ENDTAB
  0
TABLE
  2
LTYPE
  5
2
330
0
100
AcDbSymbolTable
 70
3
  0
LTYPE
  5
24
330
2
100
AcDbSymbolTableRecord
100
AcDbLinetypeTableRecord
  2
ByBlock
 70
0
  3

 72
65
 73
0
 40
0.0
  0
LTYPE
  5
25
330
2
100
AcDbSymbolTableRecord
100
AcDbLinetypeTableRecord
  2
ByLayer
 70
0
  3

 72
65
 73
0
 40
0.0
  0
LTYPE
  5
26
330
2
100
AcDbSymbolTableRecord
100
AcDbLinetypeTableRecord
  2
Continuous
 70
0
  3

 72
65
 73
0
 40
0.0
  0
ENDTAB
  0
TABLE
  2
LAYER
  5
1
330
0
100
AcDbSymbolTable
 70
2
  0
LAYER
  5
27
330
1
100
AcDbSymbolTableRecord
100
AcDbLayerTableRecord
  2
0
 70
0
 62
7
  6
Continuous
370
-3
390
13
347
21
  0
LAYER
  5
28
330
1
100
AcDbSymbolTableRecord
100
AcDbLayerTableRecord
  2
Defpoints
 70
0
 62
7
  6
Continuous
290
0
370
-3
390
13
347
21
  0
ENDTAB
  0
TABLE
  2
STYLE
  5
5
330
0
100
AcDbSymbolTable
 70
1
  0
STYLE
  5
29
330
5
100
AcDbSymbolTableRecord
100
AcDbTextStyleTableRecord
  2
Standard
 70
0
 40
0.0
 41
1.0
 50
0.0
 71
0
 42
2.5
  3
txt
  4

  0
ENDTAB
  0
TABLE
  2
VIEW
  5
7
330
0
100
AcDbSymbolTable
 70
0
  0
ENDTAB
  0
TABLE
  2
UCS
  5
6
330
0
100
AcDbSymbolTable
 70
0
  0
ENDTAB
  0
TABLE
  2
APPID
  5
3
330
0
100
AcDbSymbolTable
 70
3
  0
APPID
  5
2A
330
3
100
AcDbSymbolTableRecord
100
AcDbRegAppTableRecord
  2
ACAD
 70
0
  0
APPID
  5
39
330
3
100
AcDbSymbolTableRecord
100
AcDbRegAppTableRecord
  2
HATCHBACKGROUNDCOLOR
 70
0
  0
APPID
  5
3A
330
3
100
AcDbSymbolTableRecord
100
AcDbRegAppTableRecord
  2
EZDXF
 70
0
  0
ENDTAB
  0
TABLE
  2
DIMSTYLE
  5
4
330
0
100
AcDbSymbolTable
 70
1
100
AcDbDimStyleTable
  0
DIMSTYLE
105
2B
330
4
100
AcDbSymbolTableRecord
100
AcDbDimStyleTableRecord
  2
Standard
 70
0
 40
1.0
 41
2.5
 42
0.625
 43
3.75
 44
1.25
 45
0.0
 46
0.0
 47
0.0
 48
0.0
 49
2.5
140
2.5
141
2.5
142
0.0
143
0.03937007874
144
1.0
145
0.0
146
1.0
147
0.625
148
0.0
 69
0
 70
0
 71
0
 72
0
 73
0
 74
0
 75
0
 76
0
 77
1
 78
8
 79
3
170
0
171
3
172
1
173
0
174
0
175
0
176
0
177
0
178
0
179
2
271
2
272
2
273
2
274
3
275
0
276
0
277
2
278
44
279
0
280
0
281
0
282
0
283
0
284
8
285
0
286
0
288
0
289
3
290
0
371
-2
372
-2
  0
ENDTAB
  0
TABLE
  2
BLOCK_RECORD
  5
9
330
0
100
AcDbSymbolTable
 70
2
  0
BLOCK_RECORD
  5
17
330
9
100
AcDbSymbolTableRecord
100
AcDbBlockTableRecord
  2
*Model_Space
340
1A
 70
0
280
1
281
0
  0
BLOCK_RECORD
  5
1B
330
9
100
AcDbSymbolTableRecord
100
AcDbBlockTableRecord
  2
*Paper_Space
340
1E
 70
0
280
1
281
0
  0
ENDTAB
  0
ENDSEC
  0
SECTION
  2
BLOCKS
  0
BLOCK
  5
18
330
17
100
AcDbEntity
  8
0
100
AcDbBlockBegin
  2
*Model_Space
 70
0
 10
0.0
 20
0.0
 30
0.0
  3
*Model_Space
  1

  0
ENDBLK
  5
19
330
17
100
AcDbEntity
  8
0
100
AcDbBlockEnd
  0
BLOCK
  5
1C
330
1B
100
AcDbEntity
  8
0
100
AcDbBlockBegin
  2
*Paper_Space
 70
0
 10
0.0
 20
0.0
 30
0.0
  3
*Paper_Space
  1

  0
ENDBLK
  5
1D
330
1B
100
AcDbEntity
  8
0
100
AcDbBlockEnd
  0
ENDSEC
  0
SECTION
  2
ENTITIES
  0
LWPOLYLINE
  5
2F
330
17
100
AcDbEntity
  8
0
100
AcDbPolyline
 90
51
 70
0
 10
3.8
 20
12.0
 10
3.8
 20
11.76
 10
3.8
 20
11.52
 10
3.8
 20
11.28
 10
3.8
 20
11.04
 10
3.8
 20
10.8
 10
3.8
 20
10.56
 10
3.8
 20
10.32
 10
3.8
 20
10.08
 10
3.8
 20
9.84
 10
3.8
 20
9.6
 10
3.8
 20
9.36
 10
3.8
 20
9.120000000000001
 10
3.8000000000000003
 20
8.879999999999999
 10
3.8000000000000003
 20
8.64
 10
3.8000000000000003
 20
8.4
 10
3.8000000000000003
 20
8.16
 10
3.8000000000000003
 20
7.92
 10
3.8000000000000003
 20
7.68
 10
3.8000000000000003
 20
7.44
 10
3.8000000000000003
 20
7.2
 10
3.8000000000000003
 20
6.96
 10
3.8000000000000003
 20
6.72
 10
3.8000000000000003
 20
6.48
 10
3.8000000000000003
 20
6.24
 10
3.8000000000000003
 20
6.0
 10
3.8000000000000003
 20
5.76
 10
3.8000000000000003
 20
5.52
 10
3.8000000000000003
 20
5.28
 10
3.8000000000000003
 20
5.04
 10
3.8000000000000003
 20
4.8
 10
3.8000000000000003
 20
4.56
 10
3.8000000000000003
 20
4.32
 10
3.8000000000000003
 20
4.08
 10
3.8000000000000003
 20
3.84
 10
3.8000000000000003
 20
3.5999999999999996
 10
3.8000000000000003
 20
3.3599999999999994
 10
3.8000000000000003
 20
3.119999999999999
 10
3.8000000000000007
 20
2.880000000000001
 10
3.8000000000000007
 20
2.6400000000000006
 10
3.8000000000000007
 20
2.4000000000000004
 10
3.8000000000000007
 20
2.16
 10
3.8000000000000007
 20
1.92
 10
3.8000000000000007
 20
1.6799999999999997
 10
3.8000000000000007
 20
1.4399999999999995
 10
3.8000000000000007
 20
1.1999999999999993
 10
3.8000000000000007
 20
0.9600000000000009
 10
3.8000000000000007
 20
0.7200000000000006
 10
3.8000000000000007
 20
0.4800000000000004
 10
3.8000000000000007
 20
0.2400000000000002
 10
3.8000000000000007
 20
0.0
  0
LWPOLYLINE
  5
30
330
17
100
AcDbEntity
  8
0
100
AcDbPolyline
 90
51
 70
0
 10
-10.2
 20
5.0
 10
-10.2
 20
5.14
 10
-10.2
 20
5.28
 10
-10.2
 20
5.42
 10
-10.2
 20
5.5600000000000005
 10
-10.2
 20
5.7
 10
-10.2
 20
5.84
 10
-10.2
 20
5.98
 10
-10.2
 20
6.12
 10
-10.2
 20
6.26
 10
-10.2
 20
6.4
 10
-10.2
 20
6.54
 10
-10.2
 20
6.68
 10
-10.2
 20
6.82
 10
-10.2
 20
6.96
 10
-10.2
 20
7.1
 10
-10.2
 20
7.24
 10
-10.2
 20
7.38
 10
-10.2
 20
7.52
 10
-10.2
 20
7.66
 10
-10.2
 20
7.8
 10
-10.2
 20
7.9399999999999995
 10
-10.2
 20
8.08
 10
-10.2
 20
8.22
 10
-10.2
 20
8.36
 10
-10.2
 20
8.5
 10
-10.200000000000001
 20
8.64
 10
-10.200000000000001
 20
8.78
 10
-10.200000000000001
 20
8.92
 10
-10.200000000000001
 20
9.059999999999999
 10
-10.200000000000001
 20
9.2
 10
-10.200000000000001
 20
9.34
 10
-10.200000000000001
 20
9.48
 10
-10.200000000000001
 20
9.620000000000001
 10
-10.200000000000001
 20
9.76
 10
-10.200000000000001
 20
9.9
 10
-10.200000000000001
 20
10.04
 10
-10.200000000000001
 20
10.18
 10
-10.200000000000001
 20
10.32
 10
-10.200000000000001
 20
10.46
 10
-10.200000000000001
 20
10.6
 10
-10.200000000000001
 20
10.74
 10
-10.200000000000001
 20
10.879999999999999
 10
-10.200000000000001
 20
11.02
 10
-10.200000000000001
 20
11.16
 10
-10.200000000000001
 20
11.3
 10
-10.200000000000001
 20
11.440000000000001
 10
-10.200000000000001
 20
11.58
 10
-10.200000000000001
 20
11.719999999999999
 10
-10.200000000000001
 20
11.86
 10
-10.200000000000001
 20
12.0
  0
LWPOLYLINE
  5
31
330
17
100
AcDbEntity
  8
0
100
AcDbPolyline
 90
51
 70
0
 10
-10.2
 20
11.999999999999998
 10
-10.186187098997902
 20
12.439533636705189
 10
-10.144802909201346
 20
12.877332634950129
 10
-10.076010755100821
 20
13.31166920210007
 10
-9.980082127900417
 20
13.740829210153985
 10
-9.857395614066075
 20
14.16311896062463
 10
-9.708435401217761
 20
14.576871868792741
 10
-9.533789367262138
 20
14.980455040955508
 10
-9.334146760307046
 20
15.372275718712004
 10
-9.110295478514104
 20
15.750787564852978
 10
-8.863118960624632
 20
16.11449676604731
 10
-8.593592699430527
 20
16.461967928240824
 10
-8.30278039194988
 20
16.79182974150082
 10
-7.991829741500823
 20
17.102780391949878
 10
-7.661967928240828
 20
17.393592699430528
 10
-7.314496766047314
 20
17.66311896062463
 10
-6.95078756485298
 20
17.910295478514104
 10
-6.572275718712008
 20
18.134146760307047
 10
-6.180455040955511
 20
18.333789367262135
 10
-5.776871868792746
 20
18.50843540121776
 10
-5.363118960624634
 20
18.657395614066075
 10
-4.940829210153988
 20
18.780082127900418
 10
-4.511669202100073
 20
18.876010755100822
 10
-4.0773326349501335
 20
18.944802909201343
 10
-3.6395336367051936
 20
18.986187098997902
 10
-3.2000000000000024
 20
19.0
 10
-2.760466363294811
 20
18.986187098997902
 10
-2.3226673650498713
 20
18.944802909201346
 10
-1.888330797899931
 20
18.876010755100822
 10
-1.4591707898460164
 20
18.780082127900418
 10
-1.0368810393753702
 20
18.657395614066075
 10
-0.6231281312072592
 20
18.50843540121776
 10
-0.21954495904449267
 20
18.333789367262135
 10
0.17227571871200897
 20
18.134146760307043
 10
0.5507875648529761
 20
17.910295478514104
 10
0.9144967660473098
 20
17.663118960624633
 10
1.261967928240824
 20
17.393592699430528
 10
1.5918297415008205
 20
17.10278039194988
 10
1.9027803919498787
 20
16.791829741500823
 10
2.193592699430525
 20
16.461967928240828
 10
2.46311896062463
 20
16.114496766047314
 10
2.7102954785141034
 20
15.750787564852981
 10
2.934146760307045
 20
15.372275718712007
 10
3.1337893672621355
 20
14.980455040955512
 10
3.3084354012177597
 20
14.576871868792747
 10
3.4573956140660744
 20
14.163118960624635
 10
3.5800821279004165
 20
13.740829210153988
 10
3.67601075510082
 20
13.311669202100074
 10
3.7448029092013444
 20
12.877332634950134
 10
3.7861870989979005
 20
12.439533636705194
 10
3.8
 20
12.000000000000002
  0
LWPOLYLINE
  5
32
330
17
100
AcDbEntity
  8
0
100
AcDbPolyline
 90
51
 70
0
 10
3.8
 20
2.7000623958883797e-16
 10
3.1479999999999997
 20
2.2367885321727945e-16
 10
2.4959999999999996
 20
1.773514668457209e-16
 10
1.8439999999999996
 20
1.310240804741624e-16
 10
1.1919999999999997
 20
8.469669410260389e-17
 10
0.54
 20
3.83693077310454e-17
 10
-0.11200000000000054
 20
-7.958078640513158e-18
 10
-0.7640000000000002
 20
-5.4285465012071655e-17
 10
-1.4160000000000004
 20
-1.0061285138363018e-16
 10
-2.0680000000000005
 20
-1.469402377551887e-16
 10
-2.7199999999999998
 20
-1.9326762412674717e-16
 10
-3.3720000000000008
 20
-2.395950104983058e-16
 10
-4.024000000000001
 20
-2.859223968698643e-16
 10
-4.676000000000001
 20
-3.322497832414228e-16
 10
-5.328
 20
-3.785771696129813e-16
 10
-5.9799999999999995
 20
-4.2490455598453976e-16
 10
-6.632000000000001
 20
-4.712319423560984e-16
 10
-7.284000000000002
 20
-5.175593287276569e-16
 10
-7.936000000000001
 20
-5.638867150992154e-16
 10
-8.588000000000001
 20
-6.102141014707739e-16
 10
-9.239999999999998
 20
-6.565414878423322e-16
 10
-9.892
 20
-7.028688742138909e-16
 10
-10.544
 20
-7.491962605854494e-16
 10
-11.196000000000002
 20
-7.95523646957008e-16
 10
-11.848000000000003
 20
-8.418510333285666e-16
 10
-12.5
 20
-8.881784197001249e-16
 10
-13.152000000000001
 20
-9.345058060716836e-16
 10
-13.803999999999998
 20
-9.808331924432419e-16
 10
-14.456
 20
-1.0271605788148004e-15
 10
-15.108
 20
-1.0734879651863591e-15
 10
-15.759999999999998
 20
-1.1198153515579174e-15
 10
-16.412
 20
-1.166142737929476e-15
 10
-17.064
 20
-1.2124701243010347e-15
 10
-17.715999999999998
 20
-1.258797510672593e-15
 10
-18.368000000000002
 20
-1.3051248970441517e-15
 10
-19.02
 20
-1.35145228341571e-15
 10
-19.672
 20
-1.3977796697872687e-15
 10
-20.324
 20
-1.4441070561588273e-15
 10
-20.976
 20
-1.4904344425303856e-15
 10
-21.628
 20
-1.536761828901944e-15
 10
-22.279999999999998
 20
-1.5830892152735026e-15
 10
-22.932000000000002
 20
-1.6294166016450613e-15
 10
-23.584
 20
-1.6757439880166196e-15
 10
-24.235999999999997
 20
-1.722071374388178e-15
 10
-24.888
 20
-1.7683987607597369e-15
 10
-25.54
 20
-1.8147261471312952e-15
 10
-26.192000000000004
 20
-1.861053533502854e-15
 10
-26.844
 20
-1.9073809198744122e-15
 10
-27.496000000000002
 20
-1.953708306245971e-15
 10
-28.148
 20
-2.0000356926175293e-15
 10
-28.8
 20
-2.046363078989088e-15
  0
LWPOLYLINE
  5
33
330
17
100
AcDbEntity
  8
0
100
AcDbPolyline
 90
51
 70
0
 10
0.7999999999999998
 20
12.0
 10
0.7822478584123198
 20
11.623566746725944
 10
0.7291490029147547
 20
11.250474741657102
 10
0.6411747427077721
 20
10.884035575843084
 10
0.5191059435530057
 20
10.527501789261288
 10
0.3640260967534714
 20
10.184038001041813
 10
0.177311702008061
 20
9.856692820084014
 10
-0.03937995049723764
 20
9.548371785388095
 10
-0.28412549031435397
 20
9.261811576285245
 10
-0.5547525387053924
 20
8.999555721478163
 10
-0.8488589908301067
 20
8.76393202250021
 10
-1.1638343369985154
 20
8.557031891984225
 10
-1.4968828337397082
 20
8.380691790135923
 10
-1.8450483190188345
 20
8.236476924183098
 10
-2.2052404513405803
 20
8.125667355485476
 10
-2.574262139839076
 20
8.049246637619449
 10
-2.9488379218827454
 20
8.007893086286913
 10
-3.3256430363125116
 20
8.001973758537073
 10
-3.7013329342572168
 20
8.031541194742088
 10
-4.072572965586168
 20
8.09633295224501
 10
-4.436067977499789
 20
8.195773934819385
 10
-4.788591562539123
 20
8.328981497264076
 10
-5.127014696406861
 20
8.494773279824546
 10
-5.4483335114085225
 20
8.691677702901753
 10
-5.749695958994758
 20
8.917947028896842
 10
-6.028427124746189
 20
9.171572875253808
 10
-6.282052971103157
 20
9.450304041005241
 10
-6.508322297098246
 20
9.751666488591475
 10
-6.705226720175455
 20
10.07298530359314
 10
-6.871018502735923
 20
10.411408437460874
 10
-7.004226065180614
 20
10.76393202250021
 10
-7.103667047754989
 20
11.127427034413827
 10
-7.168458805257911
 20
11.498667065742781
 10
-7.198026241462927
 20
11.874356963687486
 10
-7.192106913713086
 20
12.25116207811725
 10
-7.150753362380551
 20
12.625737860160923
 10
-7.0743326445145245
 20
12.994759548659419
 10
-6.963523075816902
 20
13.354951680981163
 10
-6.819308209864079
 20
13.703117166260286
 10
-6.642968108015774
 20
14.036165663001485
 10
-6.436067977499791
 20
14.351141009169892
 10
-6.200444278521841
 20
14.645247461294606
 10
-5.938188423714754
 20
14.915874509685647
 10
-5.651628214611907
 20
15.16062004950276
 10
-5.3433071799159855
 20
15.377311702008061
 10
-5.015961998958188
 20
15.564026096753471
 10
-4.672498210738712
 20
15.719105943553005
 10
-4.3159644241569195
 20
15.841174742707771
 10
-3.9495252583428995
 20
15.929149002914755
 10
-3.5764332532740566
 20
15.98224785841232
 10
-3.2000000000000015
 20
16.0
  0
LWPOLYLINE
  5
34
330
17
100
AcDbEntity
  8
0
100
AcDbPolyline
 90
51
 70
0
 10
-3.2000000000000006
 20
16.0
 10
-3.0743569636874875
 20
15.998026241462927
 10
-2.948837921882747
 20
15.992106913713087
 10
-2.8235667467259433
 20
15.98224785841232
 10
-2.6986670657427836
 20
15.968458805257912
 10
-2.5742621398390773
 20
15.950753362380551
 10
-2.450474741657102
 20
15.929149002914755
 10
-2.3274270344138306
 20
15.90366704775499
 10
-2.2052404513405817
 20
15.874332644514524
 10
-2.0840355758430835
 20
15.841174742707771
 10
-1.963932022500211
 20
15.804226065180615
 10
-1.8450483190188351
 20
15.763523075816902
 10
-1.727501789261289
 20
15.719105943553005
 10
-1.6114084374608781
 20
15.671018502735924
 10
-1.49688283373971
 20
15.619308209864078
 10
-1.3840380010418136
 20
15.564026096753471
 10
-1.2729853035931393
 20
15.505226720175454
 10
-1.1638343369985154
 20
15.442968108015775
 10
-1.056692820084014
 20
15.377311702008061
 10
-0.9516664885914783
 20
15.308322297098247
 10
-0.8488589908301081
 20
15.23606797749979
 10
-0.7483717853880947
 20
15.160620049502763
 10
-0.6503040410052421
 20
15.082052971103158
 10
-0.5547525387053933
 20
15.000444278521838
 10
-0.46181157628524616
 20
14.915874509685647
 10
-0.37157287525381033
 20
14.828427124746192
 10
-0.2841254903143544
 20
14.738188423714755
 10
-0.1995557214781627
 20
14.645247461294609
 10
-0.11794702889684361
 20
14.549695958994759
 10
-0.03937995049723897
 20
14.451628214611906
 10
0.03606797749978874
 20
14.351141009169893
 10
0.1083222970982467
 20
14.248333511408523
 10
0.17731170200805968
 20
14.143307179915986
 10
0.2429681080157744
 20
14.036165663001485
 10
0.3052267201754546
 20
13.92701469640686
 10
0.364026096753471
 20
13.815961998958187
 10
0.41930820986407813
 20
13.703117166260292
 10
0.4710185027359244
 20
13.588591562539122
 10
0.5191059435530052
 20
13.472498210738713
 10
0.5635230758169016
 20
13.354951680981166
 10
0.604226065180614
 20
13.23606797749979
 10
0.6411747427077716
 20
13.115964424156918
 10
0.6743326445145241
 20
12.99475954865942
 10
0.7036670477549891
 20
12.872572965586171
 10
0.7291490029147543
 20
12.7495252583429
 10
0.7507533623805509
 20
12.625737860160925
 10
0.7684588052579109
 20
12.501332934257219
 10
0.7822478584123198
 20
12.376433253274058
 10
0.7921069137130861
 20
12.251162078117254
 10
0.7980262414629262
 20
12.125643036312514
 10
0.7999999999999998
 20
12.0
  0
LWPOLYLINE
  5
35
330
17
100
AcDbEntity
  8
0
100
AcDbPolyline
 90
51
 70
0
 10
-28.8
 20
-2.04636307898909e-15
 10
-28.8
 20
0.099999999999998
 10
-28.8
 20
0.199999999999998
 10
-28.8
 20
0.29999999999999805
 10
-28.8
 20
0.3999999999999981
 10
-28.8
 20
0.49999999999999806
 10
-28.8
 20
0.5999999999999982
 10
-28.8
 20
0.6999999999999983
 10
-28.8
 20
0.7999999999999983
 10
-28.8
 20
0.8999999999999982
 10
-28.8
 20
0.9999999999999982
 10
-28.8
 20
1.0999999999999985
 10
-28.8
 20
1.1999999999999984
 10
-28.8
 20
1.2999999999999985
 10
-28.8
 20
1.3999999999999986
 10
-28.8
 20
1.4999999999999987
 10
-28.8
 20
1.5999999999999985
 10
-28.8
 20
1.6999999999999986
 10
-28.8
 20
1.7999999999999985
 10
-28.8
 20
1.8999999999999986
 10
-28.8
 20
1.9999999999999982
 10
-28.8
 20
2.0999999999999988
 10
-28.8
 20
2.199999999999999
 10
-28.8
 20
2.2999999999999985
 10
-28.8
 20
2.3999999999999986
 10
-28.8
 20
2.4999999999999987
 10
-28.8
 20
2.5999999999999988
 10
-28.8
 20
2.699999999999999
 10
-28.8
 20
2.799999999999999
 10
-28.8
 20
2.899999999999999
 10
-28.8
 20
2.999999999999999
 10
-28.8
 20
3.0999999999999988
 10
-28.8
 20
3.199999999999999
 10
-28.8
 20
3.299999999999999
 10
-28.8
 20
3.399999999999999
 10
-28.8
 20
3.499999999999999
 10
-28.8
 20
3.5999999999999988
 10
-28.8
 20
3.699999999999999
 10
-28.8
 20
3.799999999999999
 10
-28.8
 20
3.899999999999999
 10
-28.8
 20
3.999999999999999
 10
-28.8
 20
4.1
 10
-28.8
 20
4.2
 10
-28.8
 20
4.3
 10
-28.8
 20
4.4
 10
-28.8
 20
4.5
 10
-28.8
 20
4.6
 10
-28.8
 20
4.7
 10
-28.8
 20
4.8
 10
-28.8
 20
4.9
 10
-28.8
 20
5.0
  0
LWPOLYLINE
  5
36
330
17
100
AcDbEntity
  8
0
100
AcDbPolyline
 90
51
 70
0
 10
-20.0
 20
5.0
 10
-19.804000000000002
 20
5.0
 10
-19.608
 20
5.0
 10
-19.412
 20
5.0
 10
-19.216
 20
5.0
 10
-19.02
 20
5.0
 10
-18.823999999999998
 20
5.0
 10
-18.628
 20
5.0
 10
-18.432000000000002
 20
5.0
 10
-18.236
 20
5.0
 10
-18.04
 20
5.0
 10
-17.844
 20
5.0
 10
-17.648
 20
5.0
 10
-17.451999999999998
 20
5.0
 10
-17.256
 20
5.0
 10
-17.060000000000002
 20
5.0
 10
-16.864
 20
5.0
 10
-16.668
 20
5.0
 10
-16.472
 20
5.0
 10
-16.276
 20
5.0
 10
-16.08
 20
5.0
 10
-15.884
 20
5.0
 10
-15.687999999999999
 20
5.0
 10
-15.492
 20
5.0
 10
-15.296
 20
5.0
 10
-15.1
 20
5.0
 10
-14.904
 20
5.0
 10
-14.707999999999998
 20
5.0
 10
-14.512
 20
5.0
 10
-14.315999999999999
 20
5.0
 10
-14.120000000000001
 20
5.0
 10
-13.924
 20
5.0
 10
-13.728
 20
5.0
 10
-13.532
 20
5.0
 10
-13.335999999999999
 20
5.0
 10
-13.14
 20
5.0
 10
-12.943999999999999
 20
5.0
 10
-12.748
 20
5.0
 10
-12.552
 20
5.0
 10
-12.355999999999998
 20
5.0
 10
-12.16
 20
5.0
 10
-11.964
 20
5.0
 10
-11.767999999999999
 20
5.0
 10
-11.572
 20
5.0
 10
-11.376
 20
5.0
 10
-11.18
 20
5.0
 10
-10.984
 20
5.0
 10
-10.788
 20
5.0
 10
-10.591999999999999
 20
5.0
 10
-10.395999999999999
 20
5.0
 10
-10.2
 20
5.0
  0
LWPOLYLINE
  5
37
330
17
100
AcDbEntity
  8
0
100
AcDbPolyline
 90
51
 70
0
 10
-28.8
 20
5.0
 10
-28.428
 20
5.0
 10
-28.056
 20
5.0
 10
-27.684
 20
5.0
 10
-27.312
 20
5.0
 10
-26.94
 20
5.0
 10
-26.568
 20
5.0
 10
-26.196
 20
5.0
 10
-25.824
 20
5.0
 10
-25.452
 20
5.0
 10
-25.080000000000002
 20
5.0
 10
-24.708
 20
5.0
 10
-24.336
 20
5.0
 10
-23.964
 20
5.0
 10
-23.592
 20
5.0
 10
-23.22
 20
5.0
 10
-22.848
 20
5.0
 10
-22.476
 20
5.0
 10
-22.104
 20
5.0
 10
-21.732
 20
5.0
 10
-21.36
 20
5.0
 10
-20.988
 20
5.0
 10
-20.616
 20
5.0
 10
-20.244
 20
5.0
 10
-19.872
 20
5.0
 10
-19.5
 20
5.0
 10
-19.128
 20
5.0
 10
-18.756
 20
5.0
 10
-18.384
 20
5.0
 10
-18.012
 20
5.0
 10
-17.64
 20
5.0
 10
-17.268
 20
5.0
 10
-16.896
 20
5.0
 10
-16.524
 20
5.0
 10
-16.152
 20
5.0
 10
-15.780000000000001
 20
5.0
 10
-15.408
 20
5.0
 10
-15.036
 20
5.0
 10
-14.664
 20
5.0
 10
-14.291999999999998
 20
5.0
 10
-13.92
 20
5.0
 10
-13.548
 20
5.0
 10
-13.176
 20
5.0
 10
-12.803999999999998
 20
5.0
 10
-12.431999999999999
 20
5.0
 10
-12.059999999999999
 20
5.0
 10
-11.687999999999999
 20
5.0
 10
-11.315999999999999
 20
5.0
 10
-10.943999999999999
 20
5.0
 10
-10.572
 20
5.0
 10
-10.2
 20
5.0
  0
LWPOLYLINE
  5
38
330
17
100
AcDbEntity
  8
0
100
AcDbPolyline
 90
51
 70
0
 10
-10.2
 20
5.0
 10
-10.2
 20
5.14
 10
-10.2
 20
5.28
 10
-10.2
 20
5.42
 10
-10.2
 20
5.5600000000000005
 10
-10.2
 20
5.7
 10
-10.2
 20
5.84
 10
-10.2
 20
5.98
 10
-10.2
 20
6.12
 10
-10.2
 20
6.26
 10
-10.2
 20
6.4
 10
-10.2
 20
6.54
 10
-10.2
 20
6.68
 10
-10.2
 20
6.82
 10
-10.2
 20
6.96
 10
-10.2
 20
7.1
 10
-10.2
 20
7.24
 10
-10.2
 20
7.38
 10
-10.2
 20
7.52
 10
-10.2
 20
7.66
 10
-10.2
 20
7.8
 10
-10.2
 20
7.9399999999999995
 10
-10.2
 20
8.08
 10
-10.2
 20
8.22
 10
-10.2
 20
8.36
 10
-10.2
 20
8.5
 10
-10.200000000000001
 20
8.64
 10
-10.200000000000001
 20
8.78
 10
-10.200000000000001
 20
8.92
 10
-10.200000000000001
 20
9.059999999999999
 10
-10.200000000000001
 20
9.2
 10
-10.200000000000001
 20
9.34
 10
-10.200000000000001
 20
9.48
 10
-10.200000000000001
 20
9.620000000000001
 10
-10.200000000000001
 20
9.76
 10
-10.200000000000001
 20
9.9
 10
-10.200000000000001
 20
10.04
 10
-10.200000000000001
 20
10.18
 10
-10.200000000000001
 20
10.32
 10
-10.200000000000001
 20
10.46
 10
-10.200000000000001
 20
10.6
 10
-10.200000000000001
 20
10.74
 10
-10.200000000000001
 20
10.879999999999999
 10
-10.200000000000001
 20
11.02
 10
-10.200000000000001
 20
11.16
 10
-10.200000000000001
 20
11.3
 10
-10.200000000000001
 20
11.440000000000001
 10
-10.200000000000001
 20
11.58
 10
-10.200000000000001
 20
11.719999999999999
 10
-10.200000000000001
 20
11.86
 10
-10.200000000000001
 20
12.0
  0
ENDSEC
  0
SECTION
  2
OBJECTS
  0
DICTIONARY
  5
A
330
0
100
AcDbDictionary
280
0
281
1
  3
ACAD_COLOR
350
B
  3
ACAD_GROUP
350
C
  3
ACAD_LAYOUT
350
D
  3
ACAD_MATERIAL
350
E
  3
ACAD_MLEADERSTYLE
350
F
  3
ACAD_MLINESTYLE
350
10
  3
ACAD_PLOTSETTINGS
350
11
  3
ACAD_PLOTSTYLENAME
350
12
  3
ACAD_SCALELIST
350
14
  3
ACAD_TABLESTYLE
350
15
  3
ACAD_VISUALSTYLE
350
16
  3
EZDXF_META
350
2D
  0
DICTIONARY
  5
B
330
A
100
AcDbDictionary
280
0
281
1
  0
DICTIONARY
  5
C
330
A
100
AcDbDictionary
280
0
281
1
  0
DICTIONARY
  5
D
330
A
100
AcDbDictionary
280
0
281
1
  3
Model
350
1A
  3
Layout1
350
1E
  0
DICTIONARY
  5
E
330
A
100
AcDbDictionary
280
0
281
1
  3
ByBlock
350
1F
  3
ByLayer
350
20
  3
Global
350
21
  0
DICTIONARY
  5
F
330
A
100
AcDbDictionary
280
0
281
1
  3
Standard
350
2C
  0
DICTIONARY
  5
10
330
A
100
AcDbDictionary
280
0
281
1
  3
Standard
350
22
  0
DICTIONARY
  5
11
330
A
100
AcDbDictionary
280
0
281
1
  0
ACDBDICTIONARYWDFLT
  5
12
330
A
100
AcDbDictionary
280
0
281
1
  3
Normal
350
13
100
AcDbDictionaryWithDefault
340
13
  0
ACDBPLACEHOLDER
  5
13
330
12
  0
DICTIONARY
  5
14
330
A
100
AcDbDictionary
280
0
281
1
  0
DICTIONARY
  5
15
330
A
100
AcDbDictionary
280
0
281
1
  0
DICTIONARY
  5
16
330
A
100
AcDbDictionary
280
0
281
1
  0
LAYOUT
  5
1A
330
D
100
AcDbPlotSettings
  1

  2
Adobe PDF
  4
A3
  6

 40
7.5
 41
20.0
 42
7.5
 43
20.0
 44
420.0
 45
297.0
 46
0.0
 47
0.0
 48
0.0
 49
0.0
140
0.0
141
0.0
142
1.0
143
1.0
 70
1024
 72
1
 73
0
 74
5
  7

 75
16
 76
0
 77
2
 78
300
147
1.0
148
0.0
149
0.0
100
AcDbLayout
  1
Model
 70
1
 71
0
 10
0.0
 20
0.0
 11
420.0
 21
297.0
 12
0.0
 22
0.0
 32
0.0
 14
1e+20
 24
1e+20
 34
1e+20
 15
-1e+20
 25
-1e+20
 35
-1e+20
146
0.0
 13
0.0
 23
0.0
 33
0.0
 16
1.0
 26
0.0
 36
0.0
 17
0.0
 27
1.0
 37
0.0
 76
1
330
17
  0
LAYOUT
  5
1E
330
D
100
AcDbPlotSettings
  1

  2
Adobe PDF
  4
A3
  6

 40
7.5
 41
20.0
 42
7.5
 43
20.0
 44
420.0
 45
297.0
 46
0.0
 47
0.0
 48
0.0
 49
0.0
140
0.0
141
0.0
142
1.0
143
1.0
 70
0
 72
1
 73
0
 74
5
  7

 75
16
 76
0
 77
2
 78
300
147
1.0
148
0.0
149
0.0
100
AcDbLayout
  1
Layout1
 70
1
 71
1
 10
0.0
 20
0.0
 11
420.0
 21
297.0
 12
0.0
 22
0.0
 32
0.0
 14
1e+20
 24
1e+20
 34
1e+20
 15
-1e+20
 25
-1e+20
 35
-1e+20
146
0.0
 13
0.0
 23
0.0
 33
0.0
 16
1.0
 26
0.0
 36
0.0
 17
0.0
 27
1.0
 37
0.0
 76
1
330
1B
  0
MATERIAL
  5
1F
102
{ACAD_REACTORS
330
E
102
}
330
E
100
AcDbMaterial
  1
ByBlock
  2

 70
0
 40
1.0
 71
1
 41
1.0
 91
-1023410177
 42
1.0
 72
1
  3

 73
1
 74
1
 75
1
 44
0.5
 73
0
 45
1.0
 46
1.0
 77
1
  4

 78
1
 79
1
170
1
 48
1.0
171
1
  6

172
1
173
1
174
1
140
1.0
141
1.0
175
1
  7

176
1
177
1
178
1
143
1.0
179
1
  8

270
1
271
1
272
1
145
1.0
146
1.0
273
1
  9

274
1
275
1
276
1
 42
1.0
 72
1
  3

 73
1
 74
1
 75
1
 94
63
  0
MATERIAL
  5
20
102
{ACAD_REACTORS
330
E
102
}
330
E
100
AcDbMaterial
  1
ByLayer
  2

 70
0
 40
1.0
 71
1
 41
1.0
 91
-1023410177
 42
1.0
 72
1
  3

 73
1
 74
1
 75
1
 44
0.5
 73
0
 45
1.0
 46
1.0
 77
1
  4

 78
1
 79
1
170
1
 48
1.0
171
1
  6

172
1
173
1
174
1
140
1.0
141
1.0
175
1
  7

176
1
177
1
178
1
143
1.0
179
1
  8

270
1
271
1
272
1
145
1.0
146
1.0
273
1
  9

274
1
275
1
276
1
 42
1.0
 72
1
  3

 73
1
 74
1
 75
1
 94
63
  0
MATERIAL
  5
21
102
{ACAD_REACTORS
330
E
102
}
330
E
100
AcDbMaterial
  1
Global
  2

 70
0
 40
1.0
 71
1
 41
1.0
 91
-1023410177
 42
1.0
 72
1
  3

 73
1
 74
1
 75
1
 44
0.5
 73
0
 45
1.0
 46
1.0
 77
1
  4

 78
1
 79
1
170
1
 48
1.0
171
1
  6

172
1
173
1
174
1
140
1.0
141
1.0
175
1
  7

176
1
177
1
178
1
143
1.0
179
1
  8

270
1
271
1
272
1
145
1.0
146
1.0
273
1
  9

274
1
275
1
276
1
 42
1.0
 72
1
  3

 73
1
 74
1
 75
1
 94
63
  0
MLINESTYLE
  5
22
102
{ACAD_REACTORS
330
10
102
}
330
10
100
AcDbMlineStyle
  2
Standard
 70
0
  3

 62
256
 51
90.0
 52
90.0
 71
2
 49
0.5
 62
256
  6
BYLAYER
 49
-0.5
 62
256
  6
BYLAYER
  0
MLEADERSTYLE
  5
2C
102
{ACAD_REACTORS
330
F
102
}
330
F
100
AcDbMLeaderStyle
179
2
170
2
171
1
172
0
 90
2
 40
0.0
 41
0.0
173
1
 91
-1056964608
 92
-2
290
1
 42
2.0
291
1
 43
8.0
  3
Standard
 44
4.0
300

342
29
174
1
175
1
176
0
178
1
 93
-1056964608
 45
4.0
292
0
297
0
 46
4.0
 94
-1056964608
 47
1.0
 49
1.0
140
1.0
294
1
141
0.0
177
0
142
1.0
295
0
296
0
143
3.75
271
0
272
9
273
9
  0
DICTIONARY
  5
2D
330
A
100
AcDbDictionary
281
1
  3
CREATED_BY_EZDXF
350
2E
  3
WRITTEN_BY_EZDXF
350
3B
  0
DICTIONARYVAR
  5
2E
330
2D
100
DictionaryVariables
280
0
  1
1.0.3 @ 2025-05-29T09:38:39.279751+00:00
  0
DICTIONARYVAR
  5
3B
330
2D
100
DictionaryVariables
280
0
  1
1.0.3 @ 2025-05-29T09:38:39.281893+00:00
  0
ENDSEC
  0
EOF
