  0
SECTION
  2
HEADER
  9
$ACADVER
  1
AC1027
  9
$ACADMAINTVER
 70
105
  9
$DWGCODEPAGE
  3
ANSI_1252
  9
$LASTSAVEDBY
  1
ezdxf
  9
$REQUIREDVERSIONS
160
0
  9
$INSBASE
 10
0.0
 20
0.0
 30
0.0
  9
$EXTMIN
 10
1e+20
 20
1e+20
 30
1e+20
  9
$EXTMAX
 10
-1e+20
 20
-1e+20
 30
-1e+20
  9
$LIMMIN
 10
0.0
 20
0.0
  9
$LIMMAX
 10
420.0
 20
297.0
  9
$ORTHOMODE
 70
0
  9
$REGENMODE
 70
1
  9
$FILLMODE
 70
1
  9
$QTEXTMODE
 70
0
  9
$MIRRTEXT
 70
1
  9
$LTSCALE
 40
1.0
  9
$ATTMODE
 70
1
  9
$TEXTSIZE
 40
2.5
  9
$TRACEWID
 40
1.0
  9
$TEXTSTYLE
  7
Standard
  9
$CLAYER
  8
0
  9
$CELTYPE
  6
ByLayer
  9
$CECOLOR
 62
256
  9
$CELTSCALE
 40
1.0
  9
$DISPSILH
 70
0
  9
$DIMSCALE
 40
1.0
  9
$DIMASZ
 40
2.5
  9
$DIMEXO
 40
0.625
  9
$DIMDLI
 40
3.75
  9
$DIMRND
 40
0.0
  9
$DIMDLE
 40
0.0
  9
$DIMEXE
 40
1.25
  9
$DIMTP
 40
0.0
  9
$DIMTM
 40
0.0
  9
$DIMTXT
 40
2.5
  9
$DIMCEN
 40
2.5
  9
$DIMTSZ
 40
0.0
  9
$DIMTOL
 70
0
  9
$DIMLIM
 70
0
  9
$DIMTIH
 70
0
  9
$DIMTOH
 70
0
  9
$DIMSE1
 70
0
  9
$DIMSE2
 70
0
  9
$DIMTAD
 70
1
  9
$DIMZIN
 70
8
  9
$DIMBLK
  1

  9
$DIMASO
 70
1
  9
$DIMSHO
 70
1
  9
$DIMPOST
  1

  9
$DIMAPOST
  1

  9
$DIMALT
 70
0
  9
$DIMALTD
 70
3
  9
$DIMALTF
 40
0.03937007874
  9
$DIMLFAC
 40
1.0
  9
$DIMTOFL
 70
1
  9
$DIMTVP
 40
0.0
  9
$DIMTIX
 70
0
  9
$DIMSOXD
 70
0
  9
$DIMSAH
 70
0
  9
$DIMBLK1
  1

  9
$DIMBLK2
  1

  9
$DIMSTYLE
  2
ISO-25
  9
$DIMCLRD
 70
0
  9
$DIMCLRE
 70
0
  9
$DIMCLRT
 70
0
  9
$DIMTFAC
 40
1.0
  9
$DIMGAP
 40
0.625
  9
$DIMJUST
 70
0
  9
$DIMSD1
 70
0
  9
$DIMSD2
 70
0
  9
$DIMTOLJ
 70
0
  9
$DIMTZIN
 70
8
  9
$DIMALTZ
 70
0
  9
$DIMALTTZ
 70
0
  9
$DIMUPT
 70
0
  9
$DIMDEC
 70
2
  9
$DIMTDEC
 70
2
  9
$DIMALTU
 70
2
  9
$DIMALTTD
 70
3
  9
$DIMTXSTY
  7
Standard
  9
$DIMAUNIT
 70
0
  9
$DIMADEC
 70
0
  9
$DIMALTRND
 40
0.0
  9
$DIMAZIN
 70
0
  9
$DIMDSEP
 70
44
  9
$DIMATFIT
 70
3
  9
$DIMFRAC
 70
0
  9
$DIMLDRBLK
  1

  9
$DIMLUNIT
 70
2
  9
$DIMLWD
 70
-2
  9
$DIMLWE
 70
-2
  9
$DIMTMOVE
 70
0
  9
$DIMFXL
 40
1.0
  9
$DIMFXLON
 70
0
  9
$DIMJOGANG
 40
0.785398163397
  9
$DIMTFILL
 70
0
  9
$DIMTFILLCLR
 70
0
  9
$DIMARCSYM
 70
0
  9
$DIMLTYPE
  6

  9
$DIMLTEX1
  6

  9
$DIMLTEX2
  6

  9
$DIMTXTDIRECTION
 70
0
  9
$LUNITS
 70
2
  9
$LUPREC
 70
4
  9
$SKETCHINC
 40
1.0
  9
$FILLETRAD
 40
10.0
  9
$AUNITS
 70
0
  9
$AUPREC
 70
2
  9
$MENU
  1
.
  9
$ELEVATION
 40
0.0
  9
$PELEVATION
 40
0.0
  9
$THICKNESS
 40
0.0
  9
$LIMCHECK
 70
0
  9
$CHAMFERA
 40
0.0
  9
$CHAMFERB
 40
0.0
  9
$CHAMFERC
 40
0.0
  9
$CHAMFERD
 40
0.0
  9
$SKPOLY
 70
0
  9
$TDCREATE
 40
2460835.061921296
  9
$TDUCREATE
 40
2458532.153996898
  9
$TDUPDATE
 40
2460835.061921296
  9
$TDUUPDATE
 40
2458532.1544311
  9
$TDINDWG
 40
0.0
  9
$TDUSRTIMER
 40
0.0
  9
$USRTIMER
 70
1
  9
$ANGBASE
 50
0.0
  9
$ANGDIR
 70
0
  9
$PDMODE
 70
0
  9
$PDSIZE
 40
0.0
  9
$PLINEWID
 40
0.0
  9
$SPLFRAME
 70
0
  9
$SPLINETYPE
 70
6
  9
$SPLINESEGS
 70
8
  9
$HANDSEED
  5
3B
  9
$SURFTAB1
 70
6
  9
$SURFTAB2
 70
6
  9
$SURFTYPE
 70
6
  9
$SURFU
 70
6
  9
$SURFV
 70
6
  9
$UCSBASE
  2

  9
$UCSNAME
  2

  9
$UCSORG
 10
0.0
 20
0.0
 30
0.0
  9
$UCSXDIR
 10
1.0
 20
0.0
 30
0.0
  9
$UCSYDIR
 10
0.0
 20
1.0
 30
0.0
  9
$UCSORTHOREF
  2

  9
$UCSORTHOVIEW
 70
0
  9
$UCSORGTOP
 10
0.0
 20
0.0
 30
0.0
  9
$UCSORGBOTTOM
 10
0.0
 20
0.0
 30
0.0
  9
$UCSORGLEFT
 10
0.0
 20
0.0
 30
0.0
  9
$UCSORGRIGHT
 10
0.0
 20
0.0
 30
0.0
  9
$UCSORGFRONT
 10
0.0
 20
0.0
 30
0.0
  9
$UCSORGBACK
 10
0.0
 20
0.0
 30
0.0
  9
$PUCSBASE
  2

  9
$PUCSNAME
  2

  9
$PUCSORG
 10
0.0
 20
0.0
 30
0.0
  9
$PUCSXDIR
 10
1.0
 20
0.0
 30
0.0
  9
$PUCSYDIR
 10
0.0
 20
1.0
 30
0.0
  9
$PUCSORTHOREF
  2

  9
$PUCSORTHOVIEW
 70
0
  9
$PUCSORGTOP
 10
0.0
 20
0.0
 30
0.0
  9
$PUCSORGBOTTOM
 10
0.0
 20
0.0
 30
0.0
  9
$PUCSORGLEFT
 10
0.0
 20
0.0
 30
0.0
  9
$PUCSORGRIGHT
 10
0.0
 20
0.0
 30
0.0
  9
$PUCSORGFRONT
 10
0.0
 20
0.0
 30
0.0
  9
$PUCSORGBACK
 10
0.0
 20
0.0
 30
0.0
  9
$USERI1
 70
0
  9
$USERI2
 70
0
  9
$USERI3
 70
0
  9
$USERI4
 70
0
  9
$USERI5
 70
0
  9
$USERR1
 40
0.0
  9
$USERR2
 40
0.0
  9
$USERR3
 40
0.0
  9
$USERR4
 40
0.0
  9
$USERR5
 40
0.0
  9
$WORLDVIEW
 70
1
  9
$SHADEDGE
 70
3
  9
$SHADEDIF
 70
70
  9
$TILEMODE
 70
1
  9
$MAXACTVP
 70
64
  9
$PINSBASE
 10
0.0
 20
0.0
 30
0.0
  9
$PLIMCHECK
 70
0
  9
$PEXTMIN
 10
1e+20
 20
1e+20
 30
1e+20
  9
$PEXTMAX
 10
-1e+20
 20
-1e+20
 30
-1e+20
  9
$PLIMMIN
 10
0.0
 20
0.0
  9
$PLIMMAX
 10
420.0
 20
297.0
  9
$UNITMODE
 70
0
  9
$VISRETAIN
 70
1
  9
$PLINEGEN
 70
0
  9
$PSLTSCALE
 70
1
  9
$TREEDEPTH
 70
3020
  9
$CMLSTYLE
  2
Standard
  9
$CMLJUST
 70
0
  9
$CMLSCALE
 40
20.0
  9
$PROXYGRAPHICS
 70
1
  9
$MEASUREMENT
 70
1
  9
$CELWEIGHT
370
-1
  9
$ENDCAPS
280
0
  9
$JOINSTYLE
280
0
  9
$LWDISPLAY
290
0
  9
$INSUNITS
 70
6
  9
$HYPERLINKBASE
  1

  9
$STYLESHEET
  1

  9
$XEDIT
290
1
  9
$CEPSNTYPE
380
0
  9
$PSTYLEMODE
290
1
  9
$FINGERPRINTGUID
  2
{82136C8D-5C18-4DE1-B8DD-D3665038E1CF}
  9
$VERSIONGUID
  2
{7D3346BB-C9C6-4DF5-97D3-200657B6FB1A}
  9
$EXTNAMES
290
1
  9
$PSVPSCALE
 40
0.0
  9
$OLESTARTUP
290
0
  9
$SORTENTS
280
127
  9
$INDEXCTL
280
0
  9
$HIDETEXT
280
1
  9
$XCLIPFRAME
280
0
  9
$HALOGAP
280
0
  9
$OBSCOLOR
 70
257
  9
$OBSLTYPE
280
0
  9
$INTERSECTIONDISPLAY
280
0
  9
$INTERSECTIONCOLOR
 70
257
  9
$DIMASSOC
280
2
  9
$PROJECTNAME
  1

  9
$CAMERADISPLAY
290
0
  9
$LENSLENGTH
 40
50.0
  9
$CAMERAHEIGHT
 40
0.0
  9
$STEPSPERSEC
 40
24.0
  9
$STEPSIZE
 40
100.0
  9
$3DDWFPREC
 40
2.0
  9
$PSOLWIDTH
 40
0.005
  9
$PSOLHEIGHT
 40
0.08
  9
$LOFTANG1
 40
1.570796326795
  9
$LOFTANG2
 40
1.570796326795
  9
$LOFTMAG1
 40
0.0
  9
$LOFTMAG2
 40
0.0
  9
$LOFTPARAM
 70
7
  9
$LOFTNORMALS
280
1
  9
$LATITUDE
 40
37.795
  9
$LONGITUDE
 40
-122.394
  9
$NORTHDIRECTION
 40
0.0
  9
$TIMEZONE
 70
-8000
  9
$LIGHTGLYPHDISPLAY
280
1
  9
$TILEMODELIGHTSYNCH
280
1
  9
$CMATERIAL
347
20
  9
$SOLIDHIST
280
0
  9
$SHOWHIST
280
1
  9
$DWFFRAME
280
2
  9
$DGNFRAME
280
2
  9
$REALWORLDSCALE
290
1
  9
$INTERFERECOLOR
 62
256
  9
$CSHADOW
280
0
  9
$SHADOWPLANELOCATION
 40
0.0
  0
ENDSEC
  0
SECTION
  2
CLASSES
  0
CLASS
  1
ACDBDICTIONARYWDFLT
  2
AcDbDictionaryWithDefault
  3
ObjectDBX Classes
 90
0
 91
0
280
0
281
0
  0
CLASS
  1
SUN
  2
AcDbSun
  3
SCENEOE
 90
1153
 91
0
280
0
281
0
  0
CLASS
  1
VISUALSTYLE
  2
AcDbVisualStyle
  3
ObjectDBX Classes
 90
4095
 91
0
280
0
281
0
  0
CLASS
  1
MATERIAL
  2
AcDbMaterial
  3
ObjectDBX Classes
 90
1153
 91
0
280
0
281
0
  0
CLASS
  1
SCALE
  2
AcDbScale
  3
ObjectDBX Classes
 90
1153
 91
0
280
0
281
0
  0
CLASS
  1
TABLESTYLE
  2
AcDbTableStyle
  3
ObjectDBX Classes
 90
4095
 91
0
280
0
281
0
  0
CLASS
  1
MLEADERSTYLE
  2
AcDbMLeaderStyle
  3
ACDB_MLEADERSTYLE_CLASS
 90
4095
 91
0
280
0
281
0
  0
CLASS
  1
DICTIONARYVAR
  2
AcDbDictionaryVar
  3
ObjectDBX Classes
 90
0
 91
0
280
0
281
0
  0
CLASS
  1
CELLSTYLEMAP
  2
AcDbCellStyleMap
  3
ObjectDBX Classes
 90
1152
 91
0
280
0
281
0
  0
CLASS
  1
MENTALRAYRENDERSETTINGS
  2
AcDbMentalRayRenderSettings
  3
SCENEOE
 90
1024
 91
0
280
0
281
0
  0
CLASS
  1
ACDBDETAILVIEWSTYLE
  2
AcDbDetailViewStyle
  3
ObjectDBX Classes
 90
1025
 91
0
280
0
281
0
  0
CLASS
  1
ACDBSECTIONVIEWSTYLE
  2
AcDbSectionViewStyle
  3
ObjectDBX Classes
 90
1025
 91
0
280
0
281
0
  0
CLASS
  1
RASTERVARIABLES
  2
AcDbRasterVariables
  3
ISM
 90
0
 91
0
280
0
281
0
  0
CLASS
  1
ACDBPLACEHOLDER
  2
AcDbPlaceHolder
  3
ObjectDBX Classes
 90
0
 91
0
280
0
281
0
  0
CLASS
  1
LAYOUT
  2
AcDbLayout
  3
ObjectDBX Classes
 90
0
 91
0
280
0
281
0
  0
ENDSEC
  0
SECTION
  2
TABLES
  0
TABLE
  2
VPORT
  5
8
330
0
100
AcDbSymbolTable
 70
1
  0
VPORT
  5
23
330
8
100
AcDbSymbolTableRecord
100
AcDbViewportTableRecord
  2
*Active
 70
0
 10
0.0
 20
0.0
 11
1.0
 21
1.0
 12
0.0
 22
0.0
 13
0.0
 23
0.0
 14
0.5
 24
0.5
 15
0.5
 25
0.5
 16
0.0
 26
0.0
 36
1.0
 17
0.0
 27
0.0
 37
0.0
 40
1000.0
 41
1.34
 42
50.0
 43
0.0
 44
0.0
 50
0.0
 51
0.0
 71
0
 72
1000
 73
1
 74
3
 75
0
 76
0
 77
0
 78
0
281
0
 65
0
146
0.0
  0
ENDTAB
  0
TABLE
  2
LTYPE
  5
2
330
0
100
AcDbSymbolTable
 70
3
  0
LTYPE
  5
24
330
2
100
AcDbSymbolTableRecord
100
AcDbLinetypeTableRecord
  2
ByBlock
 70
0
  3

 72
65
 73
0
 40
0.0
  0
LTYPE
  5
25
330
2
100
AcDbSymbolTableRecord
100
AcDbLinetypeTableRecord
  2
ByLayer
 70
0
  3

 72
65
 73
0
 40
0.0
  0
LTYPE
  5
26
330
2
100
AcDbSymbolTableRecord
100
AcDbLinetypeTableRecord
  2
Continuous
 70
0
  3

 72
65
 73
0
 40
0.0
  0
ENDTAB
  0
TABLE
  2
LAYER
  5
1
330
0
100
AcDbSymbolTable
 70
2
  0
LAYER
  5
27
330
1
100
AcDbSymbolTableRecord
100
AcDbLayerTableRecord
  2
0
 70
0
 62
7
  6
Continuous
370
-3
390
13
347
21
  0
LAYER
  5
28
330
1
100
AcDbSymbolTableRecord
100
AcDbLayerTableRecord
  2
Defpoints
 70
0
 62
7
  6
Continuous
290
0
370
-3
390
13
347
21
  0
ENDTAB
  0
TABLE
  2
STYLE
  5
5
330
0
100
AcDbSymbolTable
 70
1
  0
STYLE
  5
29
330
5
100
AcDbSymbolTableRecord
100
AcDbTextStyleTableRecord
  2
Standard
 70
0
 40
0.0
 41
1.0
 50
0.0
 71
0
 42
2.5
  3
txt
  4

  0
ENDTAB
  0
TABLE
  2
VIEW
  5
7
330
0
100
AcDbSymbolTable
 70
0
  0
ENDTAB
  0
TABLE
  2
UCS
  5
6
330
0
100
AcDbSymbolTable
 70
0
  0
ENDTAB
  0
TABLE
  2
APPID
  5
3
330
0
100
AcDbSymbolTable
 70
3
  0
APPID
  5
2A
330
3
100
AcDbSymbolTableRecord
100
AcDbRegAppTableRecord
  2
ACAD
 70
0
  0
APPID
  5
38
330
3
100
AcDbSymbolTableRecord
100
AcDbRegAppTableRecord
  2
HATCHBACKGROUNDCOLOR
 70
0
  0
APPID
  5
39
330
3
100
AcDbSymbolTableRecord
100
AcDbRegAppTableRecord
  2
EZDXF
 70
0
  0
ENDTAB
  0
TABLE
  2
DIMSTYLE
  5
4
330
0
100
AcDbSymbolTable
 70
1
100
AcDbDimStyleTable
  0
DIMSTYLE
105
2B
330
4
100
AcDbSymbolTableRecord
100
AcDbDimStyleTableRecord
  2
Standard
 70
0
 40
1.0
 41
2.5
 42
0.625
 43
3.75
 44
1.25
 45
0.0
 46
0.0
 47
0.0
 48
0.0
 49
2.5
140
2.5
141
2.5
142
0.0
143
0.03937007874
144
1.0
145
0.0
146
1.0
147
0.625
148
0.0
 69
0
 70
0
 71
0
 72
0
 73
0
 74
0
 75
0
 76
0
 77
1
 78
8
 79
3
170
0
171
3
172
1
173
0
174
0
175
0
176
0
177
0
178
0
179
2
271
2
272
2
273
2
274
3
275
0
276
0
277
2
278
44
279
0
280
0
281
0
282
0
283
0
284
8
285
0
286
0
288
0
289
3
290
0
371
-2
372
-2
  0
ENDTAB
  0
TABLE
  2
BLOCK_RECORD
  5
9
330
0
100
AcDbSymbolTable
 70
2
  0
BLOCK_RECORD
  5
17
330
9
100
AcDbSymbolTableRecord
100
AcDbBlockTableRecord
  2
*Model_Space
340
1A
 70
0
280
1
281
0
  0
BLOCK_RECORD
  5
1B
330
9
100
AcDbSymbolTableRecord
100
AcDbBlockTableRecord
  2
*Paper_Space
340
1E
 70
0
280
1
281
0
  0
ENDTAB
  0
ENDSEC
  0
SECTION
  2
BLOCKS
  0
BLOCK
  5
18
330
17
100
AcDbEntity
  8
0
100
AcDbBlockBegin
  2
*Model_Space
 70
0
 10
0.0
 20
0.0
 30
0.0
  3
*Model_Space
  1

  0
ENDBLK
  5
19
330
17
100
AcDbEntity
  8
0
100
AcDbBlockEnd
  0
BLOCK
  5
1C
330
1B
100
AcDbEntity
  8
0
100
AcDbBlockBegin
  2
*Paper_Space
 70
0
 10
0.0
 20
0.0
 30
0.0
  3
*Paper_Space
  1

  0
ENDBLK
  5
1D
330
1B
100
AcDbEntity
  8
0
100
AcDbBlockEnd
  0
ENDSEC
  0
SECTION
  2
ENTITIES
  0
LWPOLYLINE
  5
2F
330
17
100
AcDbEntity
  8
0
100
AcDbPolyline
 90
51
 70
0
 10
13.700000000000001
 20
12.0
 10
13.700000000000001
 20
11.86
 10
13.700000000000001
 20
11.719999999999999
 10
13.700000000000001
 20
11.58
 10
13.700000000000001
 20
11.44
 10
13.700000000000001
 20
11.3
 10
13.700000000000001
 20
11.16
 10
13.700000000000001
 20
11.02
 10
13.700000000000001
 20
10.879999999999999
 10
13.700000000000001
 20
10.74
 10
13.700000000000001
 20
10.6
 10
13.700000000000001
 20
10.46
 10
13.700000000000001
 20
10.32
 10
13.700000000000001
 20
10.18
 10
13.700000000000001
 20
10.04
 10
13.700000000000001
 20
9.9
 10
13.700000000000001
 20
9.76
 10
13.700000000000001
 20
9.620000000000001
 10
13.700000000000001
 20
9.48
 10
13.700000000000001
 20
9.34
 10
13.700000000000001
 20
9.2
 10
13.700000000000001
 20
9.06
 10
13.700000000000001
 20
8.92
 10
13.700000000000001
 20
8.78
 10
13.700000000000001
 20
8.64
 10
13.7
 20
8.5
 10
13.7
 20
8.36
 10
13.7
 20
8.22
 10
13.7
 20
8.08
 10
13.7
 20
7.94
 10
13.7
 20
7.8
 10
13.7
 20
7.66
 10
13.7
 20
7.52
 10
13.7
 20
7.38
 10
13.7
 20
7.24
 10
13.7
 20
7.1
 10
13.7
 20
6.96
 10
13.7
 20
6.82
 10
13.7
 20
6.68
 10
13.7
 20
6.54
 10
13.7
 20
6.4
 10
13.7
 20
6.26
 10
13.7
 20
6.12
 10
13.7
 20
5.98
 10
13.7
 20
5.84
 10
13.7
 20
5.7
 10
13.7
 20
5.56
 10
13.7
 20
5.42
 10
13.7
 20
5.28
 10
13.7
 20
5.14
 10
13.7
 20
5.0
  0
LWPOLYLINE
  5
30
330
17
100
AcDbEntity
  8
0
100
AcDbPolyline
 90
51
 70
0
 10
-0.3
 20
2.1316282072802997e-17
 10
0.21200000000000002
 20
-1.506350599811412e-17
 10
0.724
 20
-5.1443294069031234e-17
 10
1.2360000000000002
 20
-8.782308213994837e-17
 10
1.748
 20
-1.2420287021086548e-16
 10
2.2600000000000002
 20
-1.605826582817826e-16
 10
2.7720000000000007
 20
-1.9696244635269976e-16
 10
3.2840000000000007
 20
-2.3334223442361686e-16
 10
3.7960000000000003
 20
-2.6972202249453394e-16
 10
4.308000000000001
 20
-3.061018105654511e-16
 10
4.82
 20
-3.424815986363682e-16
 10
5.332000000000001
 20
-3.7886138670728537e-16
 10
5.844000000000001
 20
-4.152411747782025e-16
 10
6.356000000000001
 20
-4.516209628491196e-16
 10
6.868000000000001
 20
-4.880007509200367e-16
 10
7.38
 20
-5.243805389909538e-16
 10
7.892
 20
-5.607603270618709e-16
 10
8.404
 20
-5.97140115132788e-16
 10
8.916
 20
-6.335199032037052e-16
 10
9.428
 20
-6.698996912746223e-16
 10
9.94
 20
-7.062794793455393e-16
 10
10.452
 20
-7.426592674164564e-16
 10
10.964
 20
-7.790390554873737e-16
 10
11.476
 20
-8.154188435582908e-16
 10
11.988000000000001
 20
-8.517986316292079e-16
 10
12.5
 20
-8.881784197001249e-16
 10
13.012
 20
-9.24558207771042e-16
 10
13.524000000000001
 20
-9.609379958419593e-16
 10
14.036000000000001
 20
-9.973177839128763e-16
 10
14.548000000000002
 20
-1.0336975719837935e-15
 10
15.059999999999999
 20
-1.0700773600547104e-15
 10
15.572
 20
-1.1064571481256276e-15
 10
16.084
 20
-1.1428369361965448e-15
 10
16.596
 20
-1.1792167242674618e-15
 10
17.108
 20
-1.215596512338379e-15
 10
17.62
 20
-1.2519763004092961e-15
 10
18.132
 20
-1.2883560884802133e-15
 10
18.644000000000002
 20
-1.3247358765511306e-15
 10
19.156000000000002
 20
-1.3611156646220476e-15
 10
19.668000000000003
 20
-1.3974954526929648e-15
 10
20.18
 20
-1.4338752407638816e-15
 10
20.692000000000004
 20
-1.470255028834799e-15
 10
21.204
 20
-1.506634816905716e-15
 10
21.715999999999998
 20
-1.543014604976633e-15
 10
22.228
 20
-1.5793943930475503e-15
 10
22.74
 20
-1.6157741811184672e-15
 10
23.252000000000002
 20
-1.6521539691893846e-15
 10
23.764
 20
-1.6885337572603014e-15
 10
24.276000000000003
 20
-1.7249135453312188e-15
 10
24.788
 20
-1.7612933334021359e-15
 10
25.3
 20
-1.797673121473053e-15
  0
LWPOLYLINE
  5
31
330
17
100
AcDbEntity
  8
0
100
AcDbPolyline
 90
51
 70
0
 10
25.3
 20
-1.79767312147305e-15
 10
25.3
 20
0.09999999999999823
 10
25.3
 20
0.19999999999999826
 10
25.3
 20
0.2999999999999983
 10
25.3
 20
0.39999999999999836
 10
25.3
 20
0.49999999999999833
 10
25.3
 20
0.5999999999999984
 10
25.3
 20
0.6999999999999985
 10
25.3
 20
0.7999999999999985
 10
25.3
 20
0.8999999999999985
 10
25.3
 20
0.9999999999999984
 10
25.3
 20
1.0999999999999988
 10
25.3
 20
1.1999999999999986
 10
25.3
 20
1.2999999999999987
 10
25.3
 20
1.3999999999999988
 10
25.3
 20
1.499999999999999
 10
25.3
 20
1.5999999999999988
 10
25.3
 20
1.6999999999999988
 10
25.3
 20
1.7999999999999987
 10
25.3
 20
1.8999999999999988
 10
25.3
 20
1.9999999999999987
 10
25.3
 20
2.099999999999999
 10
25.3
 20
2.1999999999999993
 10
25.3
 20
2.299999999999999
 10
25.3
 20
2.399999999999999
 10
25.3
 20
2.499999999999999
 10
25.3
 20
2.599999999999999
 10
25.3
 20
2.6999999999999993
 10
25.3
 20
2.7999999999999994
 10
25.3
 20
2.8999999999999995
 10
25.3
 20
2.9999999999999996
 10
25.3
 20
3.099999999999999
 10
25.3
 20
3.1999999999999993
 10
25.3
 20
3.2999999999999994
 10
25.3
 20
3.3999999999999995
 10
25.3
 20
3.4999999999999996
 10
25.3
 20
3.599999999999999
 10
25.3
 20
3.6999999999999993
 10
25.3
 20
3.7999999999999994
 10
25.3
 20
3.8999999999999995
 10
25.3
 20
3.999999999999999
 10
25.3
 20
4.1
 10
25.3
 20
4.2
 10
25.3
 20
4.3
 10
25.3
 20
4.4
 10
25.3
 20
4.5
 10
25.3
 20
4.6
 10
25.3
 20
4.7
 10
25.3
 20
4.8
 10
25.3
 20
4.9
 10
25.3
 20
5.0
  0
LWPOLYLINE
  5
32
330
17
100
AcDbEntity
  8
0
100
AcDbPolyline
 90
51
 70
0
 10
13.7
 20
5.0
 10
13.825999999999999
 20
5.0
 10
13.952
 20
5.0
 10
14.078
 20
5.0
 10
14.203999999999999
 20
5.0
 10
14.33
 20
5.0
 10
14.456
 20
5.0
 10
14.581999999999999
 20
5.0
 10
14.707999999999998
 20
5.0
 10
14.834
 20
5.0
 10
14.959999999999999
 20
5.0
 10
15.085999999999999
 20
5.0
 10
15.212
 20
5.0
 10
15.338
 20
5.0
 10
15.463999999999999
 20
5.0
 10
15.59
 20
5.0
 10
15.716
 20
5.0
 10
15.841999999999999
 20
5.0
 10
15.968
 20
5.0
 10
16.094
 20
5.0
 10
16.22
 20
5.0
 10
16.346
 20
5.0
 10
16.472
 20
5.0
 10
16.598
 20
5.0
 10
16.724
 20
5.0
 10
16.85
 20
5.0
 10
16.976
 20
5.0
 10
17.102
 20
5.0
 10
17.228
 20
5.0
 10
17.354
 20
5.0
 10
17.48
 20
5.0
 10
17.606
 20
5.0
 10
17.732
 20
5.0
 10
17.858
 20
5.0
 10
17.984
 20
5.0
 10
18.11
 20
5.0
 10
18.236
 20
5.0
 10
18.362000000000002
 20
5.0
 10
18.488
 20
5.0
 10
18.614
 20
5.0
 10
18.740000000000002
 20
5.0
 10
18.866
 20
5.0
 10
18.992
 20
5.0
 10
19.118000000000002
 20
5.0
 10
19.244
 20
5.0
 10
19.37
 20
5.0
 10
19.496
 20
5.0
 10
19.622
 20
5.0
 10
19.748
 20
5.0
 10
19.874000000000002
 20
5.0
 10
20.0
 20
5.0
  0
LWPOLYLINE
  5
33
330
17
100
AcDbEntity
  8
0
100
AcDbPolyline
 90
51
 70
0
 10
25.3
 20
5.0
 10
25.068
 20
5.0
 10
24.836000000000002
 20
5.0
 10
24.604
 20
5.0
 10
24.372
 20
5.0
 10
24.14
 20
5.0
 10
23.908
 20
5.0
 10
23.676000000000002
 20
5.0
 10
23.444
 20
5.0
 10
23.212
 20
5.0
 10
22.98
 20
5.0
 10
22.748
 20
5.0
 10
22.516000000000002
 20
5.0
 10
22.284
 20
5.0
 10
22.052
 20
5.0
 10
21.82
 20
5.0
 10
21.588
 20
5.0
 10
21.356
 20
5.0
 10
21.124000000000002
 20
5.0
 10
20.892
 20
5.0
 10
20.66
 20
5.0
 10
20.428
 20
5.0
 10
20.195999999999998
 20
5.0
 10
19.964
 20
5.0
 10
19.732
 20
5.0
 10
19.5
 20
5.0
 10
19.268
 20
5.0
 10
19.036
 20
5.0
 10
18.804
 20
5.0
 10
18.572
 20
5.0
 10
18.34
 20
5.0
 10
18.108
 20
5.0
 10
17.875999999999998
 20
5.0
 10
17.644
 20
5.0
 10
17.412
 20
5.0
 10
17.18
 20
5.0
 10
16.948
 20
5.0
 10
16.716
 20
5.0
 10
16.484
 20
5.0
 10
16.252000000000002
 20
5.0
 10
16.02
 20
5.0
 10
15.787999999999998
 20
5.0
 10
15.556
 20
5.0
 10
15.324
 20
5.0
 10
15.091999999999999
 20
5.0
 10
14.859999999999998
 20
5.0
 10
14.628
 20
5.0
 10
14.395999999999999
 20
5.0
 10
14.164
 20
5.0
 10
13.931999999999999
 20
5.0
 10
13.7
 20
5.0
  0
LWPOLYLINE
  5
34
330
17
100
AcDbEntity
  8
0
100
AcDbPolyline
 90
51
 70
0
 10
13.7
 20
5.0
 10
13.7
 20
5.14
 10
13.7
 20
5.28
 10
13.7
 20
5.42
 10
13.7
 20
5.5600000000000005
 10
13.7
 20
5.7
 10
13.7
 20
5.84
 10
13.7
 20
5.98
 10
13.7
 20
6.12
 10
13.7
 20
6.26
 10
13.7
 20
6.4
 10
13.7
 20
6.54
 10
13.7
 20
6.68
 10
13.7
 20
6.82
 10
13.7
 20
6.96
 10
13.7
 20
7.1
 10
13.7
 20
7.24
 10
13.7
 20
7.38
 10
13.7
 20
7.52
 10
13.7
 20
7.66
 10
13.7
 20
7.8
 10
13.7
 20
7.9399999999999995
 10
13.7
 20
8.08
 10
13.7
 20
8.22
 10
13.7
 20
8.36
 10
13.7
 20
8.5
 10
13.700000000000001
 20
8.64
 10
13.700000000000001
 20
8.78
 10
13.700000000000001
 20
8.92
 10
13.700000000000001
 20
9.059999999999999
 10
13.700000000000001
 20
9.2
 10
13.700000000000001
 20
9.34
 10
13.700000000000001
 20
9.48
 10
13.700000000000001
 20
9.620000000000001
 10
13.700000000000001
 20
9.76
 10
13.700000000000001
 20
9.9
 10
13.700000000000001
 20
10.04
 10
13.700000000000001
 20
10.18
 10
13.700000000000001
 20
10.32
 10
13.700000000000001
 20
10.46
 10
13.700000000000001
 20
10.6
 10
13.700000000000001
 20
10.74
 10
13.700000000000001
 20
10.879999999999999
 10
13.700000000000001
 20
11.02
 10
13.700000000000001
 20
11.16
 10
13.700000000000001
 20
11.3
 10
13.700000000000001
 20
11.440000000000001
 10
13.700000000000001
 20
11.58
 10
13.700000000000001
 20
11.719999999999999
 10
13.700000000000001
 20
11.86
 10
13.700000000000001
 20
12.0
  0
LWPOLYLINE
  5
35
330
17
100
AcDbEntity
  8
0
100
AcDbPolyline
 90
51
 70
0
 10
13.7
 20
11.999999999999998
 10
13.686187098997902
 20
12.439533636705189
 10
13.644802909201346
 20
12.877332634950129
 10
13.576010755100821
 20
13.31166920210007
 10
13.480082127900417
 20
13.740829210153985
 10
13.357395614066075
 20
14.16311896062463
 10
13.208435401217761
 20
14.576871868792741
 10
13.033789367262138
 20
14.980455040955508
 10
12.834146760307046
 20
15.372275718712004
 10
12.610295478514104
 20
15.750787564852978
 10
12.363118960624632
 20
16.11449676604731
 10
12.093592699430527
 20
16.461967928240824
 10
11.80278039194988
 20
16.79182974150082
 10
11.491829741500823
 20
17.102780391949878
 10
11.161967928240827
 20
17.393592699430528
 10
10.814496766047313
 20
17.66311896062463
 10
10.45078756485298
 20
17.910295478514104
 10
10.072275718712007
 20
18.134146760307047
 10
9.680455040955511
 20
18.333789367262135
 10
9.276871868792746
 20
18.50843540121776
 10
8.863118960624634
 20
18.657395614066075
 10
8.440829210153987
 20
18.780082127900418
 10
8.011669202100073
 20
18.876010755100822
 10
7.577332634950133
 20
18.944802909201343
 10
7.139533636705193
 20
18.986187098997902
 10
6.700000000000002
 20
19.0
 10
6.26046636329481
 20
18.986187098997902
 10
5.822667365049871
 20
18.944802909201346
 10
5.388330797899931
 20
18.876010755100822
 10
4.9591707898460164
 20
18.780082127900418
 10
4.53688103937537
 20
18.657395614066075
 10
4.123128131207259
 20
18.50843540121776
 10
3.7195449590444922
 20
18.333789367262135
 10
3.3277242812879906
 20
18.134146760307043
 10
2.9492124351470235
 20
17.910295478514104
 10
2.58550323395269
 20
17.663118960624633
 10
2.238032071759176
 20
17.393592699430528
 10
1.9081702584991795
 20
17.10278039194988
 10
1.5972196080501213
 20
16.791829741500823
 10
1.3064073005694752
 20
16.461967928240828
 10
1.0368810393753698
 20
16.114496766047314
 10
0.7897045214858966
 20
15.75078756485298
 10
0.565853239692955
 20
15.372275718712007
 10
0.36621063273786447
 20
14.980455040955512
 10
0.1915645987822403
 20
14.576871868792745
 10
0.04260438593392557
 20
14.163118960624633
 10
-0.08008212790041647
 20
13.740829210153988
 10
-0.17601075510081987
 20
13.311669202100074
 10
-0.2448029092013444
 20
12.877332634950132
 10
-0.2861870989979005
 20
12.439533636705193
 10
-0.2999999999999998
 20
12.000000000000002
  0
LWPOLYLINE
  5
36
330
17
100
AcDbEntity
  8
0
100
AcDbPolyline
 90
51
 70
0
 10
-0.299999999999999
 20
12.0
 10
-0.299999999999999
 20
11.76
 10
-0.29999999999999905
 20
11.52
 10
-0.29999999999999905
 20
11.28
 10
-0.29999999999999905
 20
11.04
 10
-0.2999999999999991
 20
10.8
 10
-0.2999999999999991
 20
10.56
 10
-0.2999999999999991
 20
10.32
 10
-0.29999999999999916
 20
10.08
 10
-0.29999999999999916
 20
9.84
 10
-0.29999999999999916
 20
9.6
 10
-0.2999999999999992
 20
9.36
 10
-0.2999999999999992
 20
9.120000000000001
 10
-0.2999999999999992
 20
8.879999999999999
 10
-0.2999999999999992
 20
8.64
 10
-0.29999999999999927
 20
8.4
 10
-0.29999999999999927
 20
8.16
 10
-0.29999999999999927
 20
7.92
 10
-0.2999999999999993
 20
7.68
 10
-0.2999999999999993
 20
7.44
 10
-0.2999999999999993
 20
7.2
 10
-0.2999999999999994
 20
6.96
 10
-0.2999999999999994
 20
6.72
 10
-0.2999999999999994
 20
6.48
 10
-0.29999999999999943
 20
6.24
 10
-0.29999999999999943
 20
6.0
 10
-0.29999999999999943
 20
5.76
 10
-0.2999999999999995
 20
5.52
 10
-0.2999999999999995
 20
5.28
 10
-0.2999999999999995
 20
5.04
 10
-0.29999999999999954
 20
4.8
 10
-0.29999999999999954
 20
4.56
 10
-0.29999999999999954
 20
4.32
 10
-0.2999999999999996
 20
4.08
 10
-0.2999999999999996
 20
3.84
 10
-0.2999999999999996
 20
3.5999999999999996
 10
-0.29999999999999966
 20
3.3599999999999994
 10
-0.29999999999999966
 20
3.119999999999999
 10
-0.29999999999999966
 20
2.880000000000001
 10
-0.29999999999999966
 20
2.6400000000000006
 10
-0.2999999999999997
 20
2.4000000000000004
 10
-0.2999999999999997
 20
2.16
 10
-0.2999999999999997
 20
1.92
 10
-0.29999999999999977
 20
1.6799999999999997
 10
-0.29999999999999977
 20
1.4399999999999995
 10
-0.29999999999999977
 20
1.1999999999999993
 10
-0.2999999999999998
 20
0.9600000000000009
 10
-0.2999999999999998
 20
0.7200000000000006
 10
-0.2999999999999998
 20
0.4800000000000004
 10
-0.2999999999999999
 20
0.2400000000000002
 10
-0.2999999999999999
 20
0.0
  0
LWPOLYLINE
  5
37
330
17
100
AcDbEntity
  8
0
100
AcDbPolyline
 90
51
 70
0
 10
6.7
 20
16.0
 10
6.198667065742783
 20
15.968458805257912
 10
5.705240451340581
 20
15.874332644514524
 10
5.2275017892612885
 20
15.719105943553005
 10
4.772985303593138
 20
15.505226720175454
 10
4.348858990830108
 20
15.23606797749979
 10
3.9618115762852457
 20
14.915874509685647
 10
3.617947028896843
 20
14.549695958994759
 10
3.32268829799194
 20
14.143307179915986
 10
3.080691790135922
 20
13.703117166260292
 10
2.895773934819386
 20
13.23606797749979
 10
2.7708509970852457
 20
12.7495252583429
 10
2.707893086286914
 20
12.251162078117254
 10
2.707893086286914
 20
11.748837921882746
 10
2.7708509970852453
 20
11.2504747416571
 10
2.8957739348193856
 20
10.763932022500212
 10
3.0806917901359223
 20
10.296882833739708
 10
3.3226882979919403
 20
9.856692820084012
 10
3.617947028896843
 20
9.450304041005241
 10
3.961811576285245
 20
9.084125490314355
 10
4.348858990830108
 20
8.76393202250021
 10
4.772985303593139
 20
8.494773279824546
 10
5.227501789261288
 20
8.280894056446995
 10
5.705240451340579
 20
8.125667355485476
 10
6.198667065742782
 20
8.03154119474209
 10
6.699999999999999
 20
8.0
 10
7.201332934257217
 20
8.031541194742088
 10
7.694759548659419
 20
8.125667355485476
 10
8.172498210738713
 20
8.280894056446995
 10
8.627014696406862
 20
8.494773279824546
 10
9.051141009169891
 20
8.763932022500208
 10
9.438188423714754
 20
9.084125490314353
 10
9.782052971103157
 20
9.450304041005243
 10
10.07731170200806
 20
9.856692820084014
 10
10.31930820986408
 20
10.296882833739712
 10
10.504226065180614
 20
10.76393202250021
 10
10.629149002914755
 20
11.2504747416571
 10
10.692106913713086
 20
11.748837921882748
 10
10.692106913713086
 20
12.251162078117252
 10
10.629149002914755
 20
12.749525258342898
 10
10.504226065180614
 20
13.23606797749979
 10
10.31930820986408
 20
13.703117166260288
 10
10.07731170200806
 20
14.143307179915986
 10
9.782052971103159
 20
14.549695958994757
 10
9.438188423714756
 20
14.915874509685645
 10
9.051141009169893
 20
15.23606797749979
 10
8.627014696406864
 20
15.505226720175452
 10
8.172498210738711
 20
15.719105943553005
 10
7.694759548659421
 20
15.874332644514524
 10
7.201332934257219
 20
15.96845880525791
 10
6.700000000000001
 20
16.0
  0
ENDSEC
  0
SECTION
  2
OBJECTS
  0
DICTIONARY
  5
A
330
0
100
AcDbDictionary
280
0
281
1
  3
ACAD_COLOR
350
B
  3
ACAD_GROUP
350
C
  3
ACAD_LAYOUT
350
D
  3
ACAD_MATERIAL
350
E
  3
ACAD_MLEADERSTYLE
350
F
  3
ACAD_MLINESTYLE
350
10
  3
ACAD_PLOTSETTINGS
350
11
  3
ACAD_PLOTSTYLENAME
350
12
  3
ACAD_SCALELIST
350
14
  3
ACAD_TABLESTYLE
350
15
  3
ACAD_VISUALSTYLE
350
16
  3
EZDXF_META
350
2D
  0
DICTIONARY
  5
B
330
A
100
AcDbDictionary
280
0
281
1
  0
DICTIONARY
  5
C
330
A
100
AcDbDictionary
280
0
281
1
  0
DICTIONARY
  5
D
330
A
100
AcDbDictionary
280
0
281
1
  3
Model
350
1A
  3
Layout1
350
1E
  0
DICTIONARY
  5
E
330
A
100
AcDbDictionary
280
0
281
1
  3
ByBlock
350
1F
  3
ByLayer
350
20
  3
Global
350
21
  0
DICTIONARY
  5
F
330
A
100
AcDbDictionary
280
0
281
1
  3
Standard
350
2C
  0
DICTIONARY
  5
10
330
A
100
AcDbDictionary
280
0
281
1
  3
Standard
350
22
  0
DICTIONARY
  5
11
330
A
100
AcDbDictionary
280
0
281
1
  0
ACDBDICTIONARYWDFLT
  5
12
330
A
100
AcDbDictionary
280
0
281
1
  3
Normal
350
13
100
AcDbDictionaryWithDefault
340
13
  0
ACDBPLACEHOLDER
  5
13
330
12
  0
DICTIONARY
  5
14
330
A
100
AcDbDictionary
280
0
281
1
  0
DICTIONARY
  5
15
330
A
100
AcDbDictionary
280
0
281
1
  0
DICTIONARY
  5
16
330
A
100
AcDbDictionary
280
0
281
1
  0
LAYOUT
  5
1A
330
D
100
AcDbPlotSettings
  1

  2
Adobe PDF
  4
A3
  6

 40
7.5
 41
20.0
 42
7.5
 43
20.0
 44
420.0
 45
297.0
 46
0.0
 47
0.0
 48
0.0
 49
0.0
140
0.0
141
0.0
142
1.0
143
1.0
 70
1024
 72
1
 73
0
 74
5
  7

 75
16
 76
0
 77
2
 78
300
147
1.0
148
0.0
149
0.0
100
AcDbLayout
  1
Model
 70
1
 71
0
 10
0.0
 20
0.0
 11
420.0
 21
297.0
 12
0.0
 22
0.0
 32
0.0
 14
1e+20
 24
1e+20
 34
1e+20
 15
-1e+20
 25
-1e+20
 35
-1e+20
146
0.0
 13
0.0
 23
0.0
 33
0.0
 16
1.0
 26
0.0
 36
0.0
 17
0.0
 27
1.0
 37
0.0
 76
1
330
17
  0
LAYOUT
  5
1E
330
D
100
AcDbPlotSettings
  1

  2
Adobe PDF
  4
A3
  6

 40
7.5
 41
20.0
 42
7.5
 43
20.0
 44
420.0
 45
297.0
 46
0.0
 47
0.0
 48
0.0
 49
0.0
140
0.0
141
0.0
142
1.0
143
1.0
 70
0
 72
1
 73
0
 74
5
  7

 75
16
 76
0
 77
2
 78
300
147
1.0
148
0.0
149
0.0
100
AcDbLayout
  1
Layout1
 70
1
 71
1
 10
0.0
 20
0.0
 11
420.0
 21
297.0
 12
0.0
 22
0.0
 32
0.0
 14
1e+20
 24
1e+20
 34
1e+20
 15
-1e+20
 25
-1e+20
 35
-1e+20
146
0.0
 13
0.0
 23
0.0
 33
0.0
 16
1.0
 26
0.0
 36
0.0
 17
0.0
 27
1.0
 37
0.0
 76
1
330
1B
  0
MATERIAL
  5
1F
102
{ACAD_REACTORS
330
E
102
}
330
E
100
AcDbMaterial
  1
ByBlock
  2

 70
0
 40
1.0
 71
1
 41
1.0
 91
-1023410177
 42
1.0
 72
1
  3

 73
1
 74
1
 75
1
 44
0.5
 73
0
 45
1.0
 46
1.0
 77
1
  4

 78
1
 79
1
170
1
 48
1.0
171
1
  6

172
1
173
1
174
1
140
1.0
141
1.0
175
1
  7

176
1
177
1
178
1
143
1.0
179
1
  8

270
1
271
1
272
1
145
1.0
146
1.0
273
1
  9

274
1
275
1
276
1
 42
1.0
 72
1
  3

 73
1
 74
1
 75
1
 94
63
  0
MATERIAL
  5
20
102
{ACAD_REACTORS
330
E
102
}
330
E
100
AcDbMaterial
  1
ByLayer
  2

 70
0
 40
1.0
 71
1
 41
1.0
 91
-1023410177
 42
1.0
 72
1
  3

 73
1
 74
1
 75
1
 44
0.5
 73
0
 45
1.0
 46
1.0
 77
1
  4

 78
1
 79
1
170
1
 48
1.0
171
1
  6

172
1
173
1
174
1
140
1.0
141
1.0
175
1
  7

176
1
177
1
178
1
143
1.0
179
1
  8

270
1
271
1
272
1
145
1.0
146
1.0
273
1
  9

274
1
275
1
276
1
 42
1.0
 72
1
  3

 73
1
 74
1
 75
1
 94
63
  0
MATERIAL
  5
21
102
{ACAD_REACTORS
330
E
102
}
330
E
100
AcDbMaterial
  1
Global
  2

 70
0
 40
1.0
 71
1
 41
1.0
 91
-1023410177
 42
1.0
 72
1
  3

 73
1
 74
1
 75
1
 44
0.5
 73
0
 45
1.0
 46
1.0
 77
1
  4

 78
1
 79
1
170
1
 48
1.0
171
1
  6

172
1
173
1
174
1
140
1.0
141
1.0
175
1
  7

176
1
177
1
178
1
143
1.0
179
1
  8

270
1
271
1
272
1
145
1.0
146
1.0
273
1
  9

274
1
275
1
276
1
 42
1.0
 72
1
  3

 73
1
 74
1
 75
1
 94
63
  0
MLINESTYLE
  5
22
102
{ACAD_REACTORS
330
10
102
}
330
10
100
AcDbMlineStyle
  2
Standard
 70
0
  3

 62
256
 51
90.0
 52
90.0
 71
2
 49
0.5
 62
256
  6
BYLAYER
 49
-0.5
 62
256
  6
BYLAYER
  0
MLEADERSTYLE
  5
2C
102
{ACAD_REACTORS
330
F
102
}
330
F
100
AcDbMLeaderStyle
179
2
170
2
171
1
172
0
 90
2
 40
0.0
 41
0.0
173
1
 91
-1056964608
 92
-2
290
1
 42
2.0
291
1
 43
8.0
  3
Standard
 44
4.0
300

342
29
174
1
175
1
176
0
178
1
 93
-1056964608
 45
4.0
292
0
297
0
 46
4.0
 94
-1056964608
 47
1.0
 49
1.0
140
1.0
294
1
141
0.0
177
0
142
1.0
295
0
296
0
143
3.75
271
0
272
9
273
9
  0
DICTIONARY
  5
2D
330
A
100
AcDbDictionary
281
1
  3
CREATED_BY_EZDXF
350
2E
  3
WRITTEN_BY_EZDXF
350
3A
  0
DICTIONARYVAR
  5
2E
330
2D
100
DictionaryVariables
280
0
  1
1.0.3 @ 2025-06-07T16:29:10.836735+00:00
  0
DICTIONARYVAR
  5
3A
330
2D
100
DictionaryVariables
280
0
  1
1.0.3 @ 2025-06-07T16:29:10.840238+00:00
  0
ENDSEC
  0
EOF
