  0
SECTION
  2
HEADER
  9
$ACADVER
  1
AC1027
  9
$ACADMAINTVER
 70
105
  9
$DWGCODEPAGE
  3
ANSI_1252
  9
$LASTSAVEDBY
  1
ezdxf
  9
$REQUIREDVERSIONS
160
0
  9
$INSBASE
 10
0.0
 20
0.0
 30
0.0
  9
$EXTMIN
 10
1e+20
 20
1e+20
 30
1e+20
  9
$EXTMAX
 10
-1e+20
 20
-1e+20
 30
-1e+20
  9
$LIMMIN
 10
0.0
 20
0.0
  9
$LIMMAX
 10
420.0
 20
297.0
  9
$ORTHOMODE
 70
0
  9
$REGENMODE
 70
1
  9
$FILLMODE
 70
1
  9
$QTEXTMODE
 70
0
  9
$MIRRTEXT
 70
1
  9
$LTSCALE
 40
1.0
  9
$ATTMODE
 70
1
  9
$TEXTSIZE
 40
2.5
  9
$TRACEWID
 40
1.0
  9
$TEXTSTYLE
  7
Standard
  9
$CLAYER
  8
0
  9
$CELTYPE
  6
ByLayer
  9
$CECOLOR
 62
256
  9
$CELTSCALE
 40
1.0
  9
$DISPSILH
 70
0
  9
$DIMSCALE
 40
1.0
  9
$DIMASZ
 40
2.5
  9
$DIMEXO
 40
0.625
  9
$DIMDLI
 40
3.75
  9
$DIMRND
 40
0.0
  9
$DIMDLE
 40
0.0
  9
$DIMEXE
 40
1.25
  9
$DIMTP
 40
0.0
  9
$DIMTM
 40
0.0
  9
$DIMTXT
 40
2.5
  9
$DIMCEN
 40
2.5
  9
$DIMTSZ
 40
0.0
  9
$DIMTOL
 70
0
  9
$DIMLIM
 70
0
  9
$DIMTIH
 70
0
  9
$DIMTOH
 70
0
  9
$DIMSE1
 70
0
  9
$DIMSE2
 70
0
  9
$DIMTAD
 70
1
  9
$DIMZIN
 70
8
  9
$DIMBLK
  1

  9
$DIMASO
 70
1
  9
$DIMSHO
 70
1
  9
$DIMPOST
  1

  9
$DIMAPOST
  1

  9
$DIMALT
 70
0
  9
$DIMALTD
 70
3
  9
$DIMALTF
 40
0.03937007874
  9
$DIMLFAC
 40
1.0
  9
$DIMTOFL
 70
1
  9
$DIMTVP
 40
0.0
  9
$DIMTIX
 70
0
  9
$DIMSOXD
 70
0
  9
$DIMSAH
 70
0
  9
$DIMBLK1
  1

  9
$DIMBLK2
  1

  9
$DIMSTYLE
  2
ISO-25
  9
$DIMCLRD
 70
0
  9
$DIMCLRE
 70
0
  9
$DIMCLRT
 70
0
  9
$DIMTFAC
 40
1.0
  9
$DIMGAP
 40
0.625
  9
$DIMJUST
 70
0
  9
$DIMSD1
 70
0
  9
$DIMSD2
 70
0
  9
$DIMTOLJ
 70
0
  9
$DIMTZIN
 70
8
  9
$DIMALTZ
 70
0
  9
$DIMALTTZ
 70
0
  9
$DIMUPT
 70
0
  9
$DIMDEC
 70
2
  9
$DIMTDEC
 70
2
  9
$DIMALTU
 70
2
  9
$DIMALTTD
 70
3
  9
$DIMTXSTY
  7
Standard
  9
$DIMAUNIT
 70
0
  9
$DIMADEC
 70
0
  9
$DIMALTRND
 40
0.0
  9
$DIMAZIN
 70
0
  9
$DIMDSEP
 70
44
  9
$DIMATFIT
 70
3
  9
$DIMFRAC
 70
0
  9
$DIMLDRBLK
  1

  9
$DIMLUNIT
 70
2
  9
$DIMLWD
 70
-2
  9
$DIMLWE
 70
-2
  9
$DIMTMOVE
 70
0
  9
$DIMFXL
 40
1.0
  9
$DIMFXLON
 70
0
  9
$DIMJOGANG
 40
0.785398163397
  9
$DIMTFILL
 70
0
  9
$DIMTFILLCLR
 70
0
  9
$DIMARCSYM
 70
0
  9
$DIMLTYPE
  6

  9
$DIMLTEX1
  6

  9
$DIMLTEX2
  6

  9
$DIMTXTDIRECTION
 70
0
  9
$LUNITS
 70
2
  9
$LUPREC
 70
4
  9
$SKETCHINC
 40
1.0
  9
$FILLETRAD
 40
10.0
  9
$AUNITS
 70
0
  9
$AUPREC
 70
2
  9
$MENU
  1
.
  9
$ELEVATION
 40
0.0
  9
$PELEVATION
 40
0.0
  9
$THICKNESS
 40
0.0
  9
$LIMCHECK
 70
0
  9
$CHAMFERA
 40
0.0
  9
$CHAMFERB
 40
0.0
  9
$CHAMFERC
 40
0.0
  9
$CHAMFERD
 40
0.0
  9
$SKPOLY
 70
0
  9
$TDCREATE
 40
2460835.06193287
  9
$TDUCREATE
 40
2458532.153996898
  9
$TDUPDATE
 40
2460835.06193287
  9
$TDUUPDATE
 40
2458532.1544311
  9
$TDINDWG
 40
0.0
  9
$TDUSRTIMER
 40
0.0
  9
$USRTIMER
 70
1
  9
$ANGBASE
 50
0.0
  9
$ANGDIR
 70
0
  9
$PDMODE
 70
0
  9
$PDSIZE
 40
0.0
  9
$PLINEWID
 40
0.0
  9
$SPLFRAME
 70
0
  9
$SPLINETYPE
 70
6
  9
$SPLINESEGS
 70
8
  9
$HANDSEED
  5
3C
  9
$SURFTAB1
 70
6
  9
$SURFTAB2
 70
6
  9
$SURFTYPE
 70
6
  9
$SURFU
 70
6
  9
$SURFV
 70
6
  9
$UCSBASE
  2

  9
$UCSNAME
  2

  9
$UCSORG
 10
0.0
 20
0.0
 30
0.0
  9
$UCSXDIR
 10
1.0
 20
0.0
 30
0.0
  9
$UCSYDIR
 10
0.0
 20
1.0
 30
0.0
  9
$UCSORTHOREF
  2

  9
$UCSORTHOVIEW
 70
0
  9
$UCSORGTOP
 10
0.0
 20
0.0
 30
0.0
  9
$UCSORGBOTTOM
 10
0.0
 20
0.0
 30
0.0
  9
$UCSORGLEFT
 10
0.0
 20
0.0
 30
0.0
  9
$UCSORGRIGHT
 10
0.0
 20
0.0
 30
0.0
  9
$UCSORGFRONT
 10
0.0
 20
0.0
 30
0.0
  9
$UCSORGBACK
 10
0.0
 20
0.0
 30
0.0
  9
$PUCSBASE
  2

  9
$PUCSNAME
  2

  9
$PUCSORG
 10
0.0
 20
0.0
 30
0.0
  9
$PUCSXDIR
 10
1.0
 20
0.0
 30
0.0
  9
$PUCSYDIR
 10
0.0
 20
1.0
 30
0.0
  9
$PUCSORTHOREF
  2

  9
$PUCSORTHOVIEW
 70
0
  9
$PUCSORGTOP
 10
0.0
 20
0.0
 30
0.0
  9
$PUCSORGBOTTOM
 10
0.0
 20
0.0
 30
0.0
  9
$PUCSORGLEFT
 10
0.0
 20
0.0
 30
0.0
  9
$PUCSORGRIGHT
 10
0.0
 20
0.0
 30
0.0
  9
$PUCSORGFRONT
 10
0.0
 20
0.0
 30
0.0
  9
$PUCSORGBACK
 10
0.0
 20
0.0
 30
0.0
  9
$USERI1
 70
0
  9
$USERI2
 70
0
  9
$USERI3
 70
0
  9
$USERI4
 70
0
  9
$USERI5
 70
0
  9
$USERR1
 40
0.0
  9
$USERR2
 40
0.0
  9
$USERR3
 40
0.0
  9
$USERR4
 40
0.0
  9
$USERR5
 40
0.0
  9
$WORLDVIEW
 70
1
  9
$SHADEDGE
 70
3
  9
$SHADEDIF
 70
70
  9
$TILEMODE
 70
1
  9
$MAXACTVP
 70
64
  9
$PINSBASE
 10
0.0
 20
0.0
 30
0.0
  9
$PLIMCHECK
 70
0
  9
$PEXTMIN
 10
1e+20
 20
1e+20
 30
1e+20
  9
$PEXTMAX
 10
-1e+20
 20
-1e+20
 30
-1e+20
  9
$PLIMMIN
 10
0.0
 20
0.0
  9
$PLIMMAX
 10
420.0
 20
297.0
  9
$UNITMODE
 70
0
  9
$VISRETAIN
 70
1
  9
$PLINEGEN
 70
0
  9
$PSLTSCALE
 70
1
  9
$TREEDEPTH
 70
3020
  9
$CMLSTYLE
  2
Standard
  9
$CMLJUST
 70
0
  9
$CMLSCALE
 40
20.0
  9
$PROXYGRAPHICS
 70
1
  9
$MEASUREMENT
 70
1
  9
$CELWEIGHT
370
-1
  9
$ENDCAPS
280
0
  9
$JOINSTYLE
280
0
  9
$LWDISPLAY
290
0
  9
$INSUNITS
 70
6
  9
$HYPERLINKBASE
  1

  9
$STYLESHEET
  1

  9
$XEDIT
290
1
  9
$CEPSNTYPE
380
0
  9
$PSTYLEMODE
290
1
  9
$FINGERPRINTGUID
  2
{465A717B-64CD-492A-A154-87D8D0FFD5EC}
  9
$VERSIONGUID
  2
{7998A83F-8ED6-42B7-8702-4EC73E7F0C20}
  9
$EXTNAMES
290
1
  9
$PSVPSCALE
 40
0.0
  9
$OLESTARTUP
290
0
  9
$SORTENTS
280
127
  9
$INDEXCTL
280
0
  9
$HIDETEXT
280
1
  9
$XCLIPFRAME
280
0
  9
$HALOGAP
280
0
  9
$OBSCOLOR
 70
257
  9
$OBSLTYPE
280
0
  9
$INTERSECTIONDISPLAY
280
0
  9
$INTERSECTIONCOLOR
 70
257
  9
$DIMASSOC
280
2
  9
$PROJECTNAME
  1

  9
$CAMERADISPLAY
290
0
  9
$LENSLENGTH
 40
50.0
  9
$CAMERAHEIGHT
 40
0.0
  9
$STEPSPERSEC
 40
24.0
  9
$STEPSIZE
 40
100.0
  9
$3DDWFPREC
 40
2.0
  9
$PSOLWIDTH
 40
0.005
  9
$PSOLHEIGHT
 40
0.08
  9
$LOFTANG1
 40
1.570796326795
  9
$LOFTANG2
 40
1.570796326795
  9
$LOFTMAG1
 40
0.0
  9
$LOFTMAG2
 40
0.0
  9
$LOFTPARAM
 70
7
  9
$LOFTNORMALS
280
1
  9
$LATITUDE
 40
37.795
  9
$LONGITUDE
 40
-122.394
  9
$NORTHDIRECTION
 40
0.0
  9
$TIMEZONE
 70
-8000
  9
$LIGHTGLYPHDISPLAY
280
1
  9
$TILEMODELIGHTSYNCH
280
1
  9
$CMATERIAL
347
20
  9
$SOLIDHIST
280
0
  9
$SHOWHIST
280
1
  9
$DWFFRAME
280
2
  9
$DGNFRAME
280
2
  9
$REALWORLDSCALE
290
1
  9
$INTERFERECOLOR
 62
256
  9
$CSHADOW
280
0
  9
$SHADOWPLANELOCATION
 40
0.0
  0
ENDSEC
  0
SECTION
  2
CLASSES
  0
CLASS
  1
ACDBDICTIONARYWDFLT
  2
AcDbDictionaryWithDefault
  3
ObjectDBX Classes
 90
0
 91
0
280
0
281
0
  0
CLASS
  1
SUN
  2
AcDbSun
  3
SCENEOE
 90
1153
 91
0
280
0
281
0
  0
CLASS
  1
VISUALSTYLE
  2
AcDbVisualStyle
  3
ObjectDBX Classes
 90
4095
 91
0
280
0
281
0
  0
CLASS
  1
MATERIAL
  2
AcDbMaterial
  3
ObjectDBX Classes
 90
1153
 91
0
280
0
281
0
  0
CLASS
  1
SCALE
  2
AcDbScale
  3
ObjectDBX Classes
 90
1153
 91
0
280
0
281
0
  0
CLASS
  1
TABLESTYLE
  2
AcDbTableStyle
  3
ObjectDBX Classes
 90
4095
 91
0
280
0
281
0
  0
CLASS
  1
MLEADERSTYLE
  2
AcDbMLeaderStyle
  3
ACDB_MLEADERSTYLE_CLASS
 90
4095
 91
0
280
0
281
0
  0
CLASS
  1
DICTIONARYVAR
  2
AcDbDictionaryVar
  3
ObjectDBX Classes
 90
0
 91
0
280
0
281
0
  0
CLASS
  1
CELLSTYLEMAP
  2
AcDbCellStyleMap
  3
ObjectDBX Classes
 90
1152
 91
0
280
0
281
0
  0
CLASS
  1
MENTALRAYRENDERSETTINGS
  2
AcDbMentalRayRenderSettings
  3
SCENEOE
 90
1024
 91
0
280
0
281
0
  0
CLASS
  1
ACDBDETAILVIEWSTYLE
  2
AcDbDetailViewStyle
  3
ObjectDBX Classes
 90
1025
 91
0
280
0
281
0
  0
CLASS
  1
ACDBSECTIONVIEWSTYLE
  2
AcDbSectionViewStyle
  3
ObjectDBX Classes
 90
1025
 91
0
280
0
281
0
  0
CLASS
  1
RASTERVARIABLES
  2
AcDbRasterVariables
  3
ISM
 90
0
 91
0
280
0
281
0
  0
CLASS
  1
ACDBPLACEHOLDER
  2
AcDbPlaceHolder
  3
ObjectDBX Classes
 90
0
 91
0
280
0
281
0
  0
CLASS
  1
LAYOUT
  2
AcDbLayout
  3
ObjectDBX Classes
 90
0
 91
0
280
0
281
0
  0
ENDSEC
  0
SECTION
  2
TABLES
  0
TABLE
  2
VPORT
  5
8
330
0
100
AcDbSymbolTable
 70
1
  0
VPORT
  5
23
330
8
100
AcDbSymbolTableRecord
100
AcDbViewportTableRecord
  2
*Active
 70
0
 10
0.0
 20
0.0
 11
1.0
 21
1.0
 12
0.0
 22
0.0
 13
0.0
 23
0.0
 14
0.5
 24
0.5
 15
0.5
 25
0.5
 16
0.0
 26
0.0
 36
1.0
 17
0.0
 27
0.0
 37
0.0
 40
1000.0
 41
1.34
 42
50.0
 43
0.0
 44
0.0
 50
0.0
 51
0.0
 71
0
 72
1000
 73
1
 74
3
 75
0
 76
0
 77
0
 78
0
281
0
 65
0
146
0.0
  0
ENDTAB
  0
TABLE
  2
LTYPE
  5
2
330
0
100
AcDbSymbolTable
 70
3
  0
LTYPE
  5
24
330
2
100
AcDbSymbolTableRecord
100
AcDbLinetypeTableRecord
  2
ByBlock
 70
0
  3

 72
65
 73
0
 40
0.0
  0
LTYPE
  5
25
330
2
100
AcDbSymbolTableRecord
100
AcDbLinetypeTableRecord
  2
ByLayer
 70
0
  3

 72
65
 73
0
 40
0.0
  0
LTYPE
  5
26
330
2
100
AcDbSymbolTableRecord
100
AcDbLinetypeTableRecord
  2
Continuous
 70
0
  3

 72
65
 73
0
 40
0.0
  0
ENDTAB
  0
TABLE
  2
LAYER
  5
1
330
0
100
AcDbSymbolTable
 70
2
  0
LAYER
  5
27
330
1
100
AcDbSymbolTableRecord
100
AcDbLayerTableRecord
  2
0
 70
0
 62
7
  6
Continuous
370
-3
390
13
347
21
  0
LAYER
  5
28
330
1
100
AcDbSymbolTableRecord
100
AcDbLayerTableRecord
  2
Defpoints
 70
0
 62
7
  6
Continuous
290
0
370
-3
390
13
347
21
  0
ENDTAB
  0
TABLE
  2
STYLE
  5
5
330
0
100
AcDbSymbolTable
 70
1
  0
STYLE
  5
29
330
5
100
AcDbSymbolTableRecord
100
AcDbTextStyleTableRecord
  2
Standard
 70
0
 40
0.0
 41
1.0
 50
0.0
 71
0
 42
2.5
  3
txt
  4

  0
ENDTAB
  0
TABLE
  2
VIEW
  5
7
330
0
100
AcDbSymbolTable
 70
0
  0
ENDTAB
  0
TABLE
  2
UCS
  5
6
330
0
100
AcDbSymbolTable
 70
0
  0
ENDTAB
  0
TABLE
  2
APPID
  5
3
330
0
100
AcDbSymbolTable
 70
3
  0
APPID
  5
2A
330
3
100
AcDbSymbolTableRecord
100
AcDbRegAppTableRecord
  2
ACAD
 70
0
  0
APPID
  5
39
330
3
100
AcDbSymbolTableRecord
100
AcDbRegAppTableRecord
  2
HATCHBACKGROUNDCOLOR
 70
0
  0
APPID
  5
3A
330
3
100
AcDbSymbolTableRecord
100
AcDbRegAppTableRecord
  2
EZDXF
 70
0
  0
ENDTAB
  0
TABLE
  2
DIMSTYLE
  5
4
330
0
100
AcDbSymbolTable
 70
1
100
AcDbDimStyleTable
  0
DIMSTYLE
105
2B
330
4
100
AcDbSymbolTableRecord
100
AcDbDimStyleTableRecord
  2
Standard
 70
0
 40
1.0
 41
2.5
 42
0.625
 43
3.75
 44
1.25
 45
0.0
 46
0.0
 47
0.0
 48
0.0
 49
2.5
140
2.5
141
2.5
142
0.0
143
0.03937007874
144
1.0
145
0.0
146
1.0
147
0.625
148
0.0
 69
0
 70
0
 71
0
 72
0
 73
0
 74
0
 75
0
 76
0
 77
1
 78
8
 79
3
170
0
171
3
172
1
173
0
174
0
175
0
176
0
177
0
178
0
179
2
271
2
272
2
273
2
274
3
275
0
276
0
277
2
278
44
279
0
280
0
281
0
282
0
283
0
284
8
285
0
286
0
288
0
289
3
290
0
371
-2
372
-2
  0
ENDTAB
  0
TABLE
  2
BLOCK_RECORD
  5
9
330
0
100
AcDbSymbolTable
 70
2
  0
BLOCK_RECORD
  5
17
330
9
100
AcDbSymbolTableRecord
100
AcDbBlockTableRecord
  2
*Model_Space
340
1A
 70
0
280
1
281
0
  0
BLOCK_RECORD
  5
1B
330
9
100
AcDbSymbolTableRecord
100
AcDbBlockTableRecord
  2
*Paper_Space
340
1E
 70
0
280
1
281
0
  0
ENDTAB
  0
ENDSEC
  0
SECTION
  2
BLOCKS
  0
BLOCK
  5
18
330
17
100
AcDbEntity
  8
0
100
AcDbBlockBegin
  2
*Model_Space
 70
0
 10
0.0
 20
0.0
 30
0.0
  3
*Model_Space
  1

  0
ENDBLK
  5
19
330
17
100
AcDbEntity
  8
0
100
AcDbBlockEnd
  0
BLOCK
  5
1C
330
1B
100
AcDbEntity
  8
0
100
AcDbBlockBegin
  2
*Paper_Space
 70
0
 10
0.0
 20
0.0
 30
0.0
  3
*Paper_Space
  1

  0
ENDBLK
  5
1D
330
1B
100
AcDbEntity
  8
0
100
AcDbBlockEnd
  0
ENDSEC
  0
SECTION
  2
ENTITIES
  0
LWPOLYLINE
  5
2F
330
17
100
AcDbEntity
  8
0
100
AcDbPolyline
 90
51
 70
0
 10
0.799999999999999
 20
12.0
 10
0.799999999999999
 20
11.76
 10
0.799999999999999
 20
11.52
 10
0.799999999999999
 20
11.28
 10
0.7999999999999992
 20
11.04
 10
0.7999999999999992
 20
10.8
 10
0.7999999999999992
 20
10.56
 10
0.7999999999999992
 20
10.32
 10
0.7999999999999992
 20
10.08
 10
0.7999999999999992
 20
9.84
 10
0.7999999999999993
 20
9.6
 10
0.7999999999999993
 20
9.36
 10
0.7999999999999993
 20
9.120000000000001
 10
0.7999999999999993
 20
8.879999999999999
 10
0.7999999999999993
 20
8.64
 10
0.7999999999999993
 20
8.4
 10
0.7999999999999994
 20
8.16
 10
0.7999999999999994
 20
7.92
 10
0.7999999999999994
 20
7.68
 10
0.7999999999999994
 20
7.44
 10
0.7999999999999994
 20
7.2
 10
0.7999999999999994
 20
6.96
 10
0.7999999999999995
 20
6.72
 10
0.7999999999999995
 20
6.48
 10
0.7999999999999995
 20
6.24
 10
0.7999999999999995
 20
6.0
 10
0.7999999999999995
 20
5.76
 10
0.7999999999999995
 20
5.52
 10
0.7999999999999995
 20
5.28
 10
0.7999999999999996
 20
5.04
 10
0.7999999999999996
 20
4.8
 10
0.7999999999999996
 20
4.56
 10
0.7999999999999996
 20
4.32
 10
0.7999999999999996
 20
4.08
 10
0.7999999999999996
 20
3.84
 10
0.7999999999999997
 20
3.5999999999999996
 10
0.7999999999999997
 20
3.3599999999999994
 10
0.7999999999999997
 20
3.119999999999999
 10
0.7999999999999997
 20
2.880000000000001
 10
0.7999999999999997
 20
2.6400000000000006
 10
0.7999999999999997
 20
2.4000000000000004
 10
0.7999999999999998
 20
2.16
 10
0.7999999999999998
 20
1.92
 10
0.7999999999999998
 20
1.6799999999999997
 10
0.7999999999999998
 20
1.4399999999999995
 10
0.7999999999999998
 20
1.1999999999999993
 10
0.7999999999999998
 20
0.9600000000000009
 10
0.7999999999999999
 20
0.7200000000000006
 10
0.7999999999999999
 20
0.4800000000000004
 10
0.7999999999999999
 20
0.2400000000000002
 10
0.7999999999999999
 20
0.0
  0
LWPOLYLINE
  5
30
330
17
100
AcDbEntity
  8
0
100
AcDbPolyline
 90
51
 70
0
 10
-13.2
 20
5.0
 10
-13.2
 20
5.14
 10
-13.2
 20
5.28
 10
-13.2
 20
5.42
 10
-13.2
 20
5.5600000000000005
 10
-13.2
 20
5.7
 10
-13.2
 20
5.84
 10
-13.2
 20
5.98
 10
-13.2
 20
6.12
 10
-13.2
 20
6.26
 10
-13.2
 20
6.4
 10
-13.2
 20
6.54
 10
-13.2
 20
6.68
 10
-13.2
 20
6.82
 10
-13.2
 20
6.96
 10
-13.2
 20
7.1
 10
-13.2
 20
7.24
 10
-13.2
 20
7.38
 10
-13.2
 20
7.52
 10
-13.2
 20
7.66
 10
-13.2
 20
7.8
 10
-13.2
 20
7.9399999999999995
 10
-13.2
 20
8.08
 10
-13.2
 20
8.22
 10
-13.2
 20
8.36
 10
-13.2
 20
8.5
 10
-13.200000000000001
 20
8.64
 10
-13.200000000000001
 20
8.78
 10
-13.200000000000001
 20
8.92
 10
-13.200000000000001
 20
9.059999999999999
 10
-13.200000000000001
 20
9.2
 10
-13.200000000000001
 20
9.34
 10
-13.200000000000001
 20
9.48
 10
-13.200000000000001
 20
9.620000000000001
 10
-13.200000000000001
 20
9.76
 10
-13.200000000000001
 20
9.9
 10
-13.200000000000001
 20
10.04
 10
-13.200000000000001
 20
10.18
 10
-13.200000000000001
 20
10.32
 10
-13.200000000000001
 20
10.46
 10
-13.200000000000001
 20
10.6
 10
-13.200000000000001
 20
10.74
 10
-13.200000000000001
 20
10.879999999999999
 10
-13.200000000000001
 20
11.02
 10
-13.200000000000001
 20
11.16
 10
-13.200000000000001
 20
11.3
 10
-13.200000000000001
 20
11.440000000000001
 10
-13.200000000000001
 20
11.58
 10
-13.200000000000001
 20
11.719999999999999
 10
-13.200000000000001
 20
11.86
 10
-13.200000000000001
 20
12.0
  0
LWPOLYLINE
  5
31
330
17
100
AcDbEntity
  8
0
100
AcDbPolyline
 90
51
 70
0
 10
-13.2
 20
11.999999999999998
 10
-13.186187098997902
 20
12.439533636705189
 10
-13.144802909201346
 20
12.877332634950129
 10
-13.076010755100821
 20
13.31166920210007
 10
-12.980082127900417
 20
13.740829210153985
 10
-12.857395614066075
 20
14.16311896062463
 10
-12.708435401217761
 20
14.576871868792741
 10
-12.533789367262138
 20
14.980455040955508
 10
-12.334146760307046
 20
15.372275718712004
 10
-12.110295478514104
 20
15.750787564852978
 10
-11.863118960624632
 20
16.11449676604731
 10
-11.593592699430527
 20
16.461967928240824
 10
-11.30278039194988
 20
16.79182974150082
 10
-10.991829741500823
 20
17.102780391949878
 10
-10.661967928240827
 20
17.393592699430528
 10
-10.314496766047313
 20
17.66311896062463
 10
-9.95078756485298
 20
17.910295478514104
 10
-9.572275718712007
 20
18.134146760307047
 10
-9.180455040955511
 20
18.333789367262135
 10
-8.776871868792746
 20
18.50843540121776
 10
-8.363118960624634
 20
18.657395614066075
 10
-7.9408292101539875
 20
18.780082127900418
 10
-7.511669202100073
 20
18.876010755100822
 10
-7.077332634950133
 20
18.944802909201343
 10
-6.639533636705193
 20
18.986187098997902
 10
-6.200000000000002
 20
19.0
 10
-5.76046636329481
 20
18.986187098997902
 10
-5.322667365049871
 20
18.944802909201346
 10
-4.888330797899931
 20
18.876010755100822
 10
-4.4591707898460164
 20
18.780082127900418
 10
-4.03688103937537
 20
18.657395614066075
 10
-3.6231281312072587
 20
18.50843540121776
 10
-3.2195449590444922
 20
18.333789367262135
 10
-2.8277242812879906
 20
18.134146760307043
 10
-2.4492124351470235
 20
17.910295478514104
 10
-2.08550323395269
 20
17.663118960624633
 10
-1.738032071759176
 20
17.393592699430528
 10
-1.4081702584991795
 20
17.10278039194988
 10
-1.0972196080501213
 20
16.791829741500823
 10
-0.8064073005694752
 20
16.461967928240828
 10
-0.5368810393753698
 20
16.114496766047314
 10
-0.28970452148589665
 20
15.75078756485298
 10
-0.06585323969295498
 20
15.372275718712007
 10
0.13378936726213553
 20
14.980455040955512
 10
0.3084354012177597
 20
14.576871868792745
 10
0.45739561406607443
 20
14.163118960624633
 10
0.5800821279004165
 20
13.740829210153988
 10
0.6760107551008199
 20
13.311669202100074
 10
0.7448029092013444
 20
12.877332634950132
 10
0.7861870989979005
 20
12.439533636705193
 10
0.7999999999999998
 20
12.000000000000002
  0
LWPOLYLINE
  5
32
330
17
100
AcDbEntity
  8
0
100
AcDbPolyline
 90
51
 70
0
 10
0.8
 20
5.6843418860808e-17
 10
0.268
 20
1.904254531837068e-17
 10
-0.264
 20
-1.875832822406664e-17
 10
-0.7960000000000003
 20
-5.655920176650398e-17
 10
-1.328
 20
-9.436007530894128e-17
 10
-1.86
 20
-1.321609488513786e-16
 10
-2.3920000000000003
 20
-1.6996182239381594e-16
 10
-2.9240000000000004
 20
-2.0776269593625326e-16
 10
-3.4560000000000004
 20
-2.455635694786906e-16
 10
-3.9880000000000004
 20
-2.833644430211279e-16
 10
-4.5200000000000005
 20
-3.211653165635652e-16
 10
-5.0520000000000005
 20
-3.5896619010600253e-16
 10
-5.584000000000001
 20
-3.967670636484399e-16
 10
-6.1160000000000005
 20
-4.3456793719087717e-16
 10
-6.648000000000001
 20
-4.723688107333145e-16
 10
-7.180000000000001
 20
-5.101696842757519e-16
 10
-7.712000000000001
 20
-5.479705578181891e-16
 10
-8.244
 20
-5.857714313606264e-16
 10
-8.776
 20
-6.235723049030637e-16
 10
-9.308
 20
-6.61373178445501e-16
 10
-9.84
 20
-6.991740519879383e-16
 10
-10.372
 20
-7.369749255303757e-16
 10
-10.904
 20
-7.74775799072813e-16
 10
-11.436
 20
-8.125766726152503e-16
 10
-11.968000000000002
 20
-8.503775461576878e-16
 10
-12.5
 20
-8.881784197001249e-16
 10
-13.032
 20
-9.259792932425623e-16
 10
-13.564
 20
-9.637801667849996e-16
 10
-14.096
 20
-1.0015810403274368e-15
 10
-14.628000000000002
 20
-1.0393819138698743e-15
 10
-15.16
 20
-1.0771827874123116e-15
 10
-15.692
 20
-1.1149836609547488e-15
 10
-16.224
 20
-1.1527845344971861e-15
 10
-16.756
 20
-1.1905854080396236e-15
 10
-17.288
 20
-1.2283862815820608e-15
 10
-17.82
 20
-1.2661871551244981e-15
 10
-18.352
 20
-1.3039880286669354e-15
 10
-18.884
 20
-1.3417889022093729e-15
 10
-19.416
 20
-1.3795897757518101e-15
 10
-19.948
 20
-1.4173906492942474e-15
 10
-20.48
 20
-1.4551915228366847e-15
 10
-21.012
 20
-1.4929923963791221e-15
 10
-21.544
 20
-1.5307932699215594e-15
 10
-22.075999999999997
 20
-1.5685941434639965e-15
 10
-22.608
 20
-1.606395017006434e-15
 10
-23.14
 20
-1.6441958905488714e-15
 10
-23.672
 20
-1.6819967640913087e-15
 10
-24.204
 20
-1.719797637633746e-15
 10
-24.736000000000004
 20
-1.7575985111761836e-15
 10
-25.268
 20
-1.7953993847186205e-15
 10
-25.8
 20
-1.8332002582610577e-15
  0
LWPOLYLINE
  5
33
330
17
100
AcDbEntity
  8
0
100
AcDbPolyline
 90
51
 70
0
 10
-2.2
 20
12.0
 10
-2.21775214158768
 20
11.623566746725944
 10
-2.2708509970852453
 20
11.2504747416571
 10
-2.358825257292228
 20
10.884035575843082
 10
-2.4808940564469943
 20
10.527501789261288
 10
-2.6359739032465286
 20
10.184038001041813
 10
-2.8226882979919394
 20
9.856692820084014
 10
-3.039379950497238
 20
9.548371785388095
 10
-3.2841254903143544
 20
9.261811576285245
 10
-3.554752538705393
 20
8.999555721478162
 10
-3.848858990830107
 20
8.76393202250021
 10
-4.163834336998516
 20
8.557031891984225
 10
-4.496882833739709
 20
8.380691790135923
 10
-4.845048319018835
 20
8.236476924183098
 10
-5.205240451340581
 20
8.125667355485476
 10
-5.574262139839076
 20
8.049246637619449
 10
-5.948837921882745
 20
8.007893086286913
 10
-6.3256430363125125
 20
8.001973758537073
 10
-6.701332934257217
 20
8.031541194742088
 10
-7.072572965586168
 20
8.09633295224501
 10
-7.436067977499789
 20
8.195773934819385
 10
-7.788591562539123
 20
8.328981497264076
 10
-8.127014696406862
 20
8.494773279824546
 10
-8.448333511408523
 20
8.691677702901753
 10
-8.749695958994758
 20
8.917947028896844
 10
-9.028427124746191
 20
9.171572875253808
 10
-9.282052971103157
 20
9.450304041005243
 10
-9.508322297098246
 20
9.751666488591477
 10
-9.705226720175455
 20
10.07298530359314
 10
-9.871018502735923
 20
10.411408437460876
 10
-10.004226065180614
 20
10.76393202250021
 10
-10.103667047754989
 20
11.127427034413827
 10
-10.168458805257911
 20
11.498667065742781
 10
-10.198026241462927
 20
11.874356963687486
 10
-10.192106913713086
 20
12.251162078117252
 10
-10.150753362380552
 20
12.625737860160923
 10
-10.074332644514524
 20
12.99475954865942
 10
-9.963523075816902
 20
13.354951680981165
 10
-9.81930820986408
 20
13.703117166260288
 10
-9.642968108015774
 20
14.036165663001487
 10
-9.43606797749979
 20
14.351141009169892
 10
-9.20044427852184
 20
14.645247461294606
 10
-8.938188423714752
 20
14.915874509685647
 10
-8.651628214611906
 20
15.16062004950276
 10
-8.343307179915985
 20
15.377311702008061
 10
-8.015961998958188
 20
15.564026096753471
 10
-7.672498210738712
 20
15.719105943553005
 10
-7.315964424156919
 20
15.841174742707771
 10
-6.949525258342899
 20
15.929149002914755
 10
-6.576433253274057
 20
15.98224785841232
 10
-6.200000000000001
 20
16.0
  0
LWPOLYLINE
  5
34
330
17
100
AcDbEntity
  8
0
100
AcDbPolyline
 90
51
 70
0
 10
-6.2
 20
16.0
 10
-6.074356963687487
 20
15.998026241462927
 10
-5.948837921882746
 20
15.992106913713087
 10
-5.823566746725943
 20
15.98224785841232
 10
-5.698667065742783
 20
15.968458805257912
 10
-5.574262139839076
 20
15.950753362380551
 10
-5.450474741657102
 20
15.929149002914755
 10
-5.32742703441383
 20
15.90366704775499
 10
-5.205240451340581
 20
15.874332644514524
 10
-5.0840355758430835
 20
15.841174742707771
 10
-4.96393202250021
 20
15.804226065180615
 10
-4.845048319018835
 20
15.763523075816902
 10
-4.7275017892612885
 20
15.719105943553005
 10
-4.611408437460877
 20
15.671018502735924
 10
-4.4968828337397095
 20
15.619308209864078
 10
-4.384038001041813
 20
15.564026096753471
 10
-4.272985303593138
 20
15.505226720175454
 10
-4.163834336998515
 20
15.442968108015775
 10
-4.056692820084013
 20
15.377311702008061
 10
-3.951666488591478
 20
15.308322297098247
 10
-3.8488589908301076
 20
15.23606797749979
 10
-3.7483717853880942
 20
15.16062004950276
 10
-3.6503040410052416
 20
15.082052971103156
 10
-3.554752538705393
 20
15.000444278521838
 10
-3.4618115762852457
 20
14.915874509685647
 10
-3.37157287525381
 20
14.82842712474619
 10
-3.284125490314354
 20
14.738188423714755
 10
-3.1995557214781623
 20
14.645247461294607
 10
-3.117947028896843
 20
14.549695958994759
 10
-3.0393799504972385
 20
14.451628214611906
 10
-2.963932022500211
 20
14.351141009169893
 10
-2.891677702901753
 20
14.248333511408523
 10
-2.82268829799194
 20
14.143307179915986
 10
-2.7570318919842256
 20
14.036165663001485
 10
-2.6947732798245454
 20
13.92701469640686
 10
-2.635973903246529
 20
13.815961998958187
 10
-2.580691790135922
 20
13.703117166260292
 10
-2.5289814972640756
 20
13.588591562539122
 10
-2.480894056446995
 20
13.472498210738712
 10
-2.4364769241830984
 20
13.354951680981166
 10
-2.395773934819386
 20
13.23606797749979
 10
-2.3588252572922284
 20
13.115964424156918
 10
-2.325667355485476
 20
12.994759548659419
 10
-2.296332952245011
 20
12.872572965586171
 10
-2.2708509970852457
 20
12.7495252583429
 10
-2.249246637619449
 20
12.625737860160923
 10
-2.231541194742089
 20
12.501332934257217
 10
-2.21775214158768
 20
12.376433253274056
 10
-2.207893086286914
 20
12.251162078117254
 10
-2.2019737585370738
 20
12.125643036312514
 10
-2.2
 20
12.0
  0
LWPOLYLINE
  5
35
330
17
100
AcDbEntity
  8
0
100
AcDbPolyline
 90
51
 70
0
 10
-25.8
 20
-1.83320025826106e-15
 10
-25.8
 20
0.0999999999999982
 10
-25.8
 20
0.19999999999999823
 10
-25.8
 20
0.29999999999999827
 10
-25.8
 20
0.3999999999999983
 10
-25.8
 20
0.4999999999999982
 10
-25.8
 20
0.5999999999999983
 10
-25.8
 20
0.6999999999999984
 10
-25.8
 20
0.7999999999999984
 10
-25.8
 20
0.8999999999999984
 10
-25.8
 20
0.9999999999999984
 10
-25.8
 20
1.0999999999999988
 10
-25.8
 20
1.1999999999999986
 10
-25.8
 20
1.2999999999999987
 10
-25.8
 20
1.3999999999999988
 10
-25.8
 20
1.499999999999999
 10
-25.8
 20
1.5999999999999988
 10
-25.8
 20
1.6999999999999988
 10
-25.8
 20
1.7999999999999987
 10
-25.8
 20
1.8999999999999988
 10
-25.8
 20
1.9999999999999987
 10
-25.8
 20
2.099999999999999
 10
-25.8
 20
2.1999999999999993
 10
-25.8
 20
2.299999999999999
 10
-25.8
 20
2.399999999999999
 10
-25.8
 20
2.499999999999999
 10
-25.8
 20
2.599999999999999
 10
-25.8
 20
2.6999999999999993
 10
-25.8
 20
2.7999999999999994
 10
-25.8
 20
2.8999999999999995
 10
-25.8
 20
2.9999999999999996
 10
-25.8
 20
3.099999999999999
 10
-25.8
 20
3.1999999999999993
 10
-25.8
 20
3.2999999999999994
 10
-25.8
 20
3.3999999999999995
 10
-25.8
 20
3.4999999999999996
 10
-25.8
 20
3.599999999999999
 10
-25.8
 20
3.6999999999999993
 10
-25.8
 20
3.7999999999999994
 10
-25.8
 20
3.8999999999999995
 10
-25.8
 20
3.999999999999999
 10
-25.8
 20
4.1
 10
-25.8
 20
4.2
 10
-25.8
 20
4.3
 10
-25.8
 20
4.4
 10
-25.8
 20
4.5
 10
-25.8
 20
4.6
 10
-25.8
 20
4.7
 10
-25.8
 20
4.8
 10
-25.8
 20
4.9
 10
-25.8
 20
5.0
  0
LWPOLYLINE
  5
36
330
17
100
AcDbEntity
  8
0
100
AcDbPolyline
 90
51
 70
0
 10
-20.0
 20
5.0
 10
-19.864
 20
5.0
 10
-19.728
 20
5.0
 10
-19.592
 20
5.0
 10
-19.456
 20
5.0
 10
-19.32
 20
5.0
 10
-19.184
 20
5.0
 10
-19.048000000000002
 20
5.0
 10
-18.912
 20
5.0
 10
-18.776
 20
5.0
 10
-18.64
 20
5.0
 10
-18.503999999999998
 20
5.0
 10
-18.368000000000002
 20
5.0
 10
-18.232
 20
5.0
 10
-18.096
 20
5.0
 10
-17.96
 20
5.0
 10
-17.823999999999998
 20
5.0
 10
-17.688
 20
5.0
 10
-17.552
 20
5.0
 10
-17.416
 20
5.0
 10
-17.28
 20
5.0
 10
-17.144
 20
5.0
 10
-17.008
 20
5.0
 10
-16.872
 20
5.0
 10
-16.736
 20
5.0
 10
-16.6
 20
5.0
 10
-16.464
 20
5.0
 10
-16.328
 20
5.0
 10
-16.192
 20
5.0
 10
-16.055999999999997
 20
5.0
 10
-15.919999999999998
 20
5.0
 10
-15.783999999999999
 20
5.0
 10
-15.648
 20
5.0
 10
-15.512
 20
5.0
 10
-15.376
 20
5.0
 10
-15.239999999999998
 20
5.0
 10
-15.104
 20
5.0
 10
-14.968
 20
5.0
 10
-14.831999999999999
 20
5.0
 10
-14.695999999999998
 20
5.0
 10
-14.559999999999999
 20
5.0
 10
-14.424
 20
5.0
 10
-14.288
 20
5.0
 10
-14.152
 20
5.0
 10
-14.015999999999998
 20
5.0
 10
-13.879999999999999
 20
5.0
 10
-13.744
 20
5.0
 10
-13.608
 20
5.0
 10
-13.472
 20
5.0
 10
-13.335999999999999
 20
5.0
 10
-13.2
 20
5.0
  0
LWPOLYLINE
  5
37
330
17
100
AcDbEntity
  8
0
100
AcDbPolyline
 90
51
 70
0
 10
-25.8
 20
5.0
 10
-25.548000000000002
 20
5.0
 10
-25.296
 20
5.0
 10
-25.044
 20
5.0
 10
-24.792
 20
5.0
 10
-24.54
 20
5.0
 10
-24.288
 20
5.0
 10
-24.036
 20
5.0
 10
-23.784
 20
5.0
 10
-23.532
 20
5.0
 10
-23.28
 20
5.0
 10
-23.028
 20
5.0
 10
-22.776
 20
5.0
 10
-22.524
 20
5.0
 10
-22.272
 20
5.0
 10
-22.02
 20
5.0
 10
-21.768
 20
5.0
 10
-21.516
 20
5.0
 10
-21.264
 20
5.0
 10
-21.012
 20
5.0
 10
-20.759999999999998
 20
5.0
 10
-20.508
 20
5.0
 10
-20.256
 20
5.0
 10
-20.004
 20
5.0
 10
-19.752
 20
5.0
 10
-19.5
 20
5.0
 10
-19.248
 20
5.0
 10
-18.996
 20
5.0
 10
-18.744
 20
5.0
 10
-18.492
 20
5.0
 10
-18.24
 20
5.0
 10
-17.988
 20
5.0
 10
-17.736
 20
5.0
 10
-17.484
 20
5.0
 10
-17.232
 20
5.0
 10
-16.98
 20
5.0
 10
-16.728
 20
5.0
 10
-16.476
 20
5.0
 10
-16.224
 20
5.0
 10
-15.972
 20
5.0
 10
-15.719999999999999
 20
5.0
 10
-15.468
 20
5.0
 10
-15.216
 20
5.0
 10
-14.963999999999999
 20
5.0
 10
-14.712
 20
5.0
 10
-14.459999999999999
 20
5.0
 10
-14.208
 20
5.0
 10
-13.956
 20
5.0
 10
-13.703999999999999
 20
5.0
 10
-13.451999999999998
 20
5.0
 10
-13.2
 20
5.0
  0
LWPOLYLINE
  5
38
330
17
100
AcDbEntity
  8
0
100
AcDbPolyline
 90
51
 70
0
 10
-13.2
 20
5.0
 10
-13.2
 20
5.14
 10
-13.2
 20
5.28
 10
-13.2
 20
5.42
 10
-13.2
 20
5.5600000000000005
 10
-13.2
 20
5.7
 10
-13.2
 20
5.84
 10
-13.2
 20
5.98
 10
-13.2
 20
6.12
 10
-13.2
 20
6.26
 10
-13.2
 20
6.4
 10
-13.2
 20
6.54
 10
-13.2
 20
6.68
 10
-13.2
 20
6.82
 10
-13.2
 20
6.96
 10
-13.2
 20
7.1
 10
-13.2
 20
7.24
 10
-13.2
 20
7.38
 10
-13.2
 20
7.52
 10
-13.2
 20
7.66
 10
-13.2
 20
7.8
 10
-13.2
 20
7.9399999999999995
 10
-13.2
 20
8.08
 10
-13.2
 20
8.22
 10
-13.2
 20
8.36
 10
-13.2
 20
8.5
 10
-13.200000000000001
 20
8.64
 10
-13.200000000000001
 20
8.78
 10
-13.200000000000001
 20
8.92
 10
-13.200000000000001
 20
9.059999999999999
 10
-13.200000000000001
 20
9.2
 10
-13.200000000000001
 20
9.34
 10
-13.200000000000001
 20
9.48
 10
-13.200000000000001
 20
9.620000000000001
 10
-13.200000000000001
 20
9.76
 10
-13.200000000000001
 20
9.9
 10
-13.200000000000001
 20
10.04
 10
-13.200000000000001
 20
10.18
 10
-13.200000000000001
 20
10.32
 10
-13.200000000000001
 20
10.46
 10
-13.200000000000001
 20
10.6
 10
-13.200000000000001
 20
10.74
 10
-13.200000000000001
 20
10.879999999999999
 10
-13.200000000000001
 20
11.02
 10
-13.200000000000001
 20
11.16
 10
-13.200000000000001
 20
11.3
 10
-13.200000000000001
 20
11.440000000000001
 10
-13.200000000000001
 20
11.58
 10
-13.200000000000001
 20
11.719999999999999
 10
-13.200000000000001
 20
11.86
 10
-13.200000000000001
 20
12.0
  0
ENDSEC
  0
SECTION
  2
OBJECTS
  0
DICTIONARY
  5
A
330
0
100
AcDbDictionary
280
0
281
1
  3
ACAD_COLOR
350
B
  3
ACAD_GROUP
350
C
  3
ACAD_LAYOUT
350
D
  3
ACAD_MATERIAL
350
E
  3
ACAD_MLEADERSTYLE
350
F
  3
ACAD_MLINESTYLE
350
10
  3
ACAD_PLOTSETTINGS
350
11
  3
ACAD_PLOTSTYLENAME
350
12
  3
ACAD_SCALELIST
350
14
  3
ACAD_TABLESTYLE
350
15
  3
ACAD_VISUALSTYLE
350
16
  3
EZDXF_META
350
2D
  0
DICTIONARY
  5
B
330
A
100
AcDbDictionary
280
0
281
1
  0
DICTIONARY
  5
C
330
A
100
AcDbDictionary
280
0
281
1
  0
DICTIONARY
  5
D
330
A
100
AcDbDictionary
280
0
281
1
  3
Model
350
1A
  3
Layout1
350
1E
  0
DICTIONARY
  5
E
330
A
100
AcDbDictionary
280
0
281
1
  3
ByBlock
350
1F
  3
ByLayer
350
20
  3
Global
350
21
  0
DICTIONARY
  5
F
330
A
100
AcDbDictionary
280
0
281
1
  3
Standard
350
2C
  0
DICTIONARY
  5
10
330
A
100
AcDbDictionary
280
0
281
1
  3
Standard
350
22
  0
DICTIONARY
  5
11
330
A
100
AcDbDictionary
280
0
281
1
  0
ACDBDICTIONARYWDFLT
  5
12
330
A
100
AcDbDictionary
280
0
281
1
  3
Normal
350
13
100
AcDbDictionaryWithDefault
340
13
  0
ACDBPLACEHOLDER
  5
13
330
12
  0
DICTIONARY
  5
14
330
A
100
AcDbDictionary
280
0
281
1
  0
DICTIONARY
  5
15
330
A
100
AcDbDictionary
280
0
281
1
  0
DICTIONARY
  5
16
330
A
100
AcDbDictionary
280
0
281
1
  0
LAYOUT
  5
1A
330
D
100
AcDbPlotSettings
  1

  2
Adobe PDF
  4
A3
  6

 40
7.5
 41
20.0
 42
7.5
 43
20.0
 44
420.0
 45
297.0
 46
0.0
 47
0.0
 48
0.0
 49
0.0
140
0.0
141
0.0
142
1.0
143
1.0
 70
1024
 72
1
 73
0
 74
5
  7

 75
16
 76
0
 77
2
 78
300
147
1.0
148
0.0
149
0.0
100
AcDbLayout
  1
Model
 70
1
 71
0
 10
0.0
 20
0.0
 11
420.0
 21
297.0
 12
0.0
 22
0.0
 32
0.0
 14
1e+20
 24
1e+20
 34
1e+20
 15
-1e+20
 25
-1e+20
 35
-1e+20
146
0.0
 13
0.0
 23
0.0
 33
0.0
 16
1.0
 26
0.0
 36
0.0
 17
0.0
 27
1.0
 37
0.0
 76
1
330
17
  0
LAYOUT
  5
1E
330
D
100
AcDbPlotSettings
  1

  2
Adobe PDF
  4
A3
  6

 40
7.5
 41
20.0
 42
7.5
 43
20.0
 44
420.0
 45
297.0
 46
0.0
 47
0.0
 48
0.0
 49
0.0
140
0.0
141
0.0
142
1.0
143
1.0
 70
0
 72
1
 73
0
 74
5
  7

 75
16
 76
0
 77
2
 78
300
147
1.0
148
0.0
149
0.0
100
AcDbLayout
  1
Layout1
 70
1
 71
1
 10
0.0
 20
0.0
 11
420.0
 21
297.0
 12
0.0
 22
0.0
 32
0.0
 14
1e+20
 24
1e+20
 34
1e+20
 15
-1e+20
 25
-1e+20
 35
-1e+20
146
0.0
 13
0.0
 23
0.0
 33
0.0
 16
1.0
 26
0.0
 36
0.0
 17
0.0
 27
1.0
 37
0.0
 76
1
330
1B
  0
MATERIAL
  5
1F
102
{ACAD_REACTORS
330
E
102
}
330
E
100
AcDbMaterial
  1
ByBlock
  2

 70
0
 40
1.0
 71
1
 41
1.0
 91
-1023410177
 42
1.0
 72
1
  3

 73
1
 74
1
 75
1
 44
0.5
 73
0
 45
1.0
 46
1.0
 77
1
  4

 78
1
 79
1
170
1
 48
1.0
171
1
  6

172
1
173
1
174
1
140
1.0
141
1.0
175
1
  7

176
1
177
1
178
1
143
1.0
179
1
  8

270
1
271
1
272
1
145
1.0
146
1.0
273
1
  9

274
1
275
1
276
1
 42
1.0
 72
1
  3

 73
1
 74
1
 75
1
 94
63
  0
MATERIAL
  5
20
102
{ACAD_REACTORS
330
E
102
}
330
E
100
AcDbMaterial
  1
ByLayer
  2

 70
0
 40
1.0
 71
1
 41
1.0
 91
-1023410177
 42
1.0
 72
1
  3

 73
1
 74
1
 75
1
 44
0.5
 73
0
 45
1.0
 46
1.0
 77
1
  4

 78
1
 79
1
170
1
 48
1.0
171
1
  6

172
1
173
1
174
1
140
1.0
141
1.0
175
1
  7

176
1
177
1
178
1
143
1.0
179
1
  8

270
1
271
1
272
1
145
1.0
146
1.0
273
1
  9

274
1
275
1
276
1
 42
1.0
 72
1
  3

 73
1
 74
1
 75
1
 94
63
  0
MATERIAL
  5
21
102
{ACAD_REACTORS
330
E
102
}
330
E
100
AcDbMaterial
  1
Global
  2

 70
0
 40
1.0
 71
1
 41
1.0
 91
-1023410177
 42
1.0
 72
1
  3

 73
1
 74
1
 75
1
 44
0.5
 73
0
 45
1.0
 46
1.0
 77
1
  4

 78
1
 79
1
170
1
 48
1.0
171
1
  6

172
1
173
1
174
1
140
1.0
141
1.0
175
1
  7

176
1
177
1
178
1
143
1.0
179
1
  8

270
1
271
1
272
1
145
1.0
146
1.0
273
1
  9

274
1
275
1
276
1
 42
1.0
 72
1
  3

 73
1
 74
1
 75
1
 94
63
  0
MLINESTYLE
  5
22
102
{ACAD_REACTORS
330
10
102
}
330
10
100
AcDbMlineStyle
  2
Standard
 70
0
  3

 62
256
 51
90.0
 52
90.0
 71
2
 49
0.5
 62
256
  6
BYLAYER
 49
-0.5
 62
256
  6
BYLAYER
  0
MLEADERSTYLE
  5
2C
102
{ACAD_REACTORS
330
F
102
}
330
F
100
AcDbMLeaderStyle
179
2
170
2
171
1
172
0
 90
2
 40
0.0
 41
0.0
173
1
 91
-1056964608
 92
-2
290
1
 42
2.0
291
1
 43
8.0
  3
Standard
 44
4.0
300

342
29
174
1
175
1
176
0
178
1
 93
-1056964608
 45
4.0
292
0
297
0
 46
4.0
 94
-1056964608
 47
1.0
 49
1.0
140
1.0
294
1
141
0.0
177
0
142
1.0
295
0
296
0
143
3.75
271
0
272
9
273
9
  0
DICTIONARY
  5
2D
330
A
100
AcDbDictionary
281
1
  3
CREATED_BY_EZDXF
350
2E
  3
WRITTEN_BY_EZDXF
350
3B
  0
DICTIONARYVAR
  5
2E
330
2D
100
DictionaryVariables
280
0
  1
1.0.3 @ 2025-06-07T16:29:11.644984+00:00
  0
DICTIONARYVAR
  5
3B
330
2D
100
DictionaryVariables
280
0
  1
1.0.3 @ 2025-06-07T16:29:11.647986+00:00
  0
ENDSEC
  0
EOF
