  0
SECTION
  2
HEADER
  9
$ACADVER
  1
AC1027
  9
$ACADMAINTVER
 70
105
  9
$DWGCODEPAGE
  3
ANSI_1252
  9
$LASTSAVEDBY
  1
ezdxf
  9
$REQUIREDVERSIONS
160
0
  9
$INSBASE
 10
0.0
 20
0.0
 30
0.0
  9
$EXTMIN
 10
1e+20
 20
1e+20
 30
1e+20
  9
$EXTMAX
 10
-1e+20
 20
-1e+20
 30
-1e+20
  9
$LIMMIN
 10
0.0
 20
0.0
  9
$LIMMAX
 10
420.0
 20
297.0
  9
$ORTHOMODE
 70
0
  9
$REGENMODE
 70
1
  9
$FILLMODE
 70
1
  9
$QTEXTMODE
 70
0
  9
$MIRRTEXT
 70
1
  9
$LTSCALE
 40
1.0
  9
$ATTMODE
 70
1
  9
$TEXTSIZE
 40
2.5
  9
$TRACEWID
 40
1.0
  9
$TEXTSTYLE
  7
Standard
  9
$CLAYER
  8
0
  9
$CELTYPE
  6
ByLayer
  9
$CECOLOR
 62
256
  9
$CELTSCALE
 40
1.0
  9
$DISPSILH
 70
0
  9
$DIMSCALE
 40
1.0
  9
$DIMASZ
 40
2.5
  9
$DIMEXO
 40
0.625
  9
$DIMDLI
 40
3.75
  9
$DIMRND
 40
0.0
  9
$DIMDLE
 40
0.0
  9
$DIMEXE
 40
1.25
  9
$DIMTP
 40
0.0
  9
$DIMTM
 40
0.0
  9
$DIMTXT
 40
2.5
  9
$DIMCEN
 40
2.5
  9
$DIMTSZ
 40
0.0
  9
$DIMTOL
 70
0
  9
$DIMLIM
 70
0
  9
$DIMTIH
 70
0
  9
$DIMTOH
 70
0
  9
$DIMSE1
 70
0
  9
$DIMSE2
 70
0
  9
$DIMTAD
 70
1
  9
$DIMZIN
 70
8
  9
$DIMBLK
  1

  9
$DIMASO
 70
1
  9
$DIMSHO
 70
1
  9
$DIMPOST
  1

  9
$DIMAPOST
  1

  9
$DIMALT
 70
0
  9
$DIMALTD
 70
3
  9
$DIMALTF
 40
0.03937007874
  9
$DIMLFAC
 40
1.0
  9
$DIMTOFL
 70
1
  9
$DIMTVP
 40
0.0
  9
$DIMTIX
 70
0
  9
$DIMSOXD
 70
0
  9
$DIMSAH
 70
0
  9
$DIMBLK1
  1

  9
$DIMBLK2
  1

  9
$DIMSTYLE
  2
ISO-25
  9
$DIMCLRD
 70
0
  9
$DIMCLRE
 70
0
  9
$DIMCLRT
 70
0
  9
$DIMTFAC
 40
1.0
  9
$DIMGAP
 40
0.625
  9
$DIMJUST
 70
0
  9
$DIMSD1
 70
0
  9
$DIMSD2
 70
0
  9
$DIMTOLJ
 70
0
  9
$DIMTZIN
 70
8
  9
$DIMALTZ
 70
0
  9
$DIMALTTZ
 70
0
  9
$DIMUPT
 70
0
  9
$DIMDEC
 70
2
  9
$DIMTDEC
 70
2
  9
$DIMALTU
 70
2
  9
$DIMALTTD
 70
3
  9
$DIMTXSTY
  7
Standard
  9
$DIMAUNIT
 70
0
  9
$DIMADEC
 70
0
  9
$DIMALTRND
 40
0.0
  9
$DIMAZIN
 70
0
  9
$DIMDSEP
 70
44
  9
$DIMATFIT
 70
3
  9
$DIMFRAC
 70
0
  9
$DIMLDRBLK
  1

  9
$DIMLUNIT
 70
2
  9
$DIMLWD
 70
-2
  9
$DIMLWE
 70
-2
  9
$DIMTMOVE
 70
0
  9
$DIMFXL
 40
1.0
  9
$DIMFXLON
 70
0
  9
$DIMJOGANG
 40
0.785398163397
  9
$DIMTFILL
 70
0
  9
$DIMTFILLCLR
 70
0
  9
$DIMARCSYM
 70
0
  9
$DIMLTYPE
  6

  9
$DIMLTEX1
  6

  9
$DIMLTEX2
  6

  9
$DIMTXTDIRECTION
 70
0
  9
$LUNITS
 70
2
  9
$LUPREC
 70
4
  9
$SKETCHINC
 40
1.0
  9
$FILLETRAD
 40
10.0
  9
$AUNITS
 70
0
  9
$AUPREC
 70
2
  9
$MENU
  1
.
  9
$ELEVATION
 40
0.0
  9
$PELEVATION
 40
0.0
  9
$THICKNESS
 40
0.0
  9
$LIMCHECK
 70
0
  9
$CHAMFERA
 40
0.0
  9
$CHAMFERB
 40
0.0
  9
$CHAMFERC
 40
0.0
  9
$CHAMFERD
 40
0.0
  9
$SKPOLY
 70
0
  9
$TDCREATE
 40
2460825.7770949076
  9
$TDUCREATE
 40
2458532.153996898
  9
$TDUPDATE
 40
2460825.7770949076
  9
$TDUUPDATE
 40
2458532.1544311
  9
$TDINDWG
 40
0.0
  9
$TDUSRTIMER
 40
0.0
  9
$USRTIMER
 70
1
  9
$ANGBASE
 50
0.0
  9
$ANGDIR
 70
0
  9
$PDMODE
 70
0
  9
$PDSIZE
 40
0.0
  9
$PLINEWID
 40
0.0
  9
$SPLFRAME
 70
0
  9
$SPLINETYPE
 70
6
  9
$SPLINESEGS
 70
8
  9
$HANDSEED
  5
3C
  9
$SURFTAB1
 70
6
  9
$SURFTAB2
 70
6
  9
$SURFTYPE
 70
6
  9
$SURFU
 70
6
  9
$SURFV
 70
6
  9
$UCSBASE
  2

  9
$UCSNAME
  2

  9
$UCSORG
 10
0.0
 20
0.0
 30
0.0
  9
$UCSXDIR
 10
1.0
 20
0.0
 30
0.0
  9
$UCSYDIR
 10
0.0
 20
1.0
 30
0.0
  9
$UCSORTHOREF
  2

  9
$UCSORTHOVIEW
 70
0
  9
$UCSORGTOP
 10
0.0
 20
0.0
 30
0.0
  9
$UCSORGBOTTOM
 10
0.0
 20
0.0
 30
0.0
  9
$UCSORGLEFT
 10
0.0
 20
0.0
 30
0.0
  9
$UCSORGRIGHT
 10
0.0
 20
0.0
 30
0.0
  9
$UCSORGFRONT
 10
0.0
 20
0.0
 30
0.0
  9
$UCSORGBACK
 10
0.0
 20
0.0
 30
0.0
  9
$PUCSBASE
  2

  9
$PUCSNAME
  2

  9
$PUCSORG
 10
0.0
 20
0.0
 30
0.0
  9
$PUCSXDIR
 10
1.0
 20
0.0
 30
0.0
  9
$PUCSYDIR
 10
0.0
 20
1.0
 30
0.0
  9
$PUCSORTHOREF
  2

  9
$PUCSORTHOVIEW
 70
0
  9
$PUCSORGTOP
 10
0.0
 20
0.0
 30
0.0
  9
$PUCSORGBOTTOM
 10
0.0
 20
0.0
 30
0.0
  9
$PUCSORGLEFT
 10
0.0
 20
0.0
 30
0.0
  9
$PUCSORGRIGHT
 10
0.0
 20
0.0
 30
0.0
  9
$PUCSORGFRONT
 10
0.0
 20
0.0
 30
0.0
  9
$PUCSORGBACK
 10
0.0
 20
0.0
 30
0.0
  9
$USERI1
 70
0
  9
$USERI2
 70
0
  9
$USERI3
 70
0
  9
$USERI4
 70
0
  9
$USERI5
 70
0
  9
$USERR1
 40
0.0
  9
$USERR2
 40
0.0
  9
$USERR3
 40
0.0
  9
$USERR4
 40
0.0
  9
$USERR5
 40
0.0
  9
$WORLDVIEW
 70
1
  9
$SHADEDGE
 70
3
  9
$SHADEDIF
 70
70
  9
$TILEMODE
 70
1
  9
$MAXACTVP
 70
64
  9
$PINSBASE
 10
0.0
 20
0.0
 30
0.0
  9
$PLIMCHECK
 70
0
  9
$PEXTMIN
 10
1e+20
 20
1e+20
 30
1e+20
  9
$PEXTMAX
 10
-1e+20
 20
-1e+20
 30
-1e+20
  9
$PLIMMIN
 10
0.0
 20
0.0
  9
$PLIMMAX
 10
420.0
 20
297.0
  9
$UNITMODE
 70
0
  9
$VISRETAIN
 70
1
  9
$PLINEGEN
 70
0
  9
$PSLTSCALE
 70
1
  9
$TREEDEPTH
 70
3020
  9
$CMLSTYLE
  2
Standard
  9
$CMLJUST
 70
0
  9
$CMLSCALE
 40
20.0
  9
$PROXYGRAPHICS
 70
1
  9
$MEASUREMENT
 70
1
  9
$CELWEIGHT
370
-1
  9
$ENDCAPS
280
0
  9
$JOINSTYLE
280
0
  9
$LWDISPLAY
290
0
  9
$INSUNITS
 70
6
  9
$HYPERLINKBASE
  1

  9
$STYLESHEET
  1

  9
$XEDIT
290
1
  9
$CEPSNTYPE
380
0
  9
$PSTYLEMODE
290
1
  9
$FINGERPRINTGUID
  2
{86576990-A6E6-40DA-A62A-A0D25A25BB20}
  9
$VERSIONGUID
  2
{A05D185D-6D4F-40E4-A362-7745BDCC9786}
  9
$EXTNAMES
290
1
  9
$PSVPSCALE
 40
0.0
  9
$OLESTARTUP
290
0
  9
$SORTENTS
280
127
  9
$INDEXCTL
280
0
  9
$HIDETEXT
280
1
  9
$XCLIPFRAME
280
0
  9
$HALOGAP
280
0
  9
$OBSCOLOR
 70
257
  9
$OBSLTYPE
280
0
  9
$INTERSECTIONDISPLAY
280
0
  9
$INTERSECTIONCOLOR
 70
257
  9
$DIMASSOC
280
2
  9
$PROJECTNAME
  1

  9
$CAMERADISPLAY
290
0
  9
$LENSLENGTH
 40
50.0
  9
$CAMERAHEIGHT
 40
0.0
  9
$STEPSPERSEC
 40
24.0
  9
$STEPSIZE
 40
100.0
  9
$3DDWFPREC
 40
2.0
  9
$PSOLWIDTH
 40
0.005
  9
$PSOLHEIGHT
 40
0.08
  9
$LOFTANG1
 40
1.570796326795
  9
$LOFTANG2
 40
1.570796326795
  9
$LOFTMAG1
 40
0.0
  9
$LOFTMAG2
 40
0.0
  9
$LOFTPARAM
 70
7
  9
$LOFTNORMALS
280
1
  9
$LATITUDE
 40
37.795
  9
$LONGITUDE
 40
-122.394
  9
$NORTHDIRECTION
 40
0.0
  9
$TIMEZONE
 70
-8000
  9
$LIGHTGLYPHDISPLAY
280
1
  9
$TILEMODELIGHTSYNCH
280
1
  9
$CMATERIAL
347
20
  9
$SOLIDHIST
280
0
  9
$SHOWHIST
280
1
  9
$DWFFRAME
280
2
  9
$DGNFRAME
280
2
  9
$REALWORLDSCALE
290
1
  9
$INTERFERECOLOR
 62
256
  9
$CSHADOW
280
0
  9
$SHADOWPLANELOCATION
 40
0.0
  0
ENDSEC
  0
SECTION
  2
CLASSES
  0
CLASS
  1
ACDBDICTIONARYWDFLT
  2
AcDbDictionaryWithDefault
  3
ObjectDBX Classes
 90
0
 91
0
280
0
281
0
  0
CLASS
  1
SUN
  2
AcDbSun
  3
SCENEOE
 90
1153
 91
0
280
0
281
0
  0
CLASS
  1
VISUALSTYLE
  2
AcDbVisualStyle
  3
ObjectDBX Classes
 90
4095
 91
0
280
0
281
0
  0
CLASS
  1
MATERIAL
  2
AcDbMaterial
  3
ObjectDBX Classes
 90
1153
 91
0
280
0
281
0
  0
CLASS
  1
SCALE
  2
AcDbScale
  3
ObjectDBX Classes
 90
1153
 91
0
280
0
281
0
  0
CLASS
  1
TABLESTYLE
  2
AcDbTableStyle
  3
ObjectDBX Classes
 90
4095
 91
0
280
0
281
0
  0
CLASS
  1
MLEADERSTYLE
  2
AcDbMLeaderStyle
  3
ACDB_MLEADERSTYLE_CLASS
 90
4095
 91
0
280
0
281
0
  0
CLASS
  1
DICTIONARYVAR
  2
AcDbDictionaryVar
  3
ObjectDBX Classes
 90
0
 91
0
280
0
281
0
  0
CLASS
  1
CELLSTYLEMAP
  2
AcDbCellStyleMap
  3
ObjectDBX Classes
 90
1152
 91
0
280
0
281
0
  0
CLASS
  1
MENTALRAYRENDERSETTINGS
  2
AcDbMentalRayRenderSettings
  3
SCENEOE
 90
1024
 91
0
280
0
281
0
  0
CLASS
  1
ACDBDETAILVIEWSTYLE
  2
AcDbDetailViewStyle
  3
ObjectDBX Classes
 90
1025
 91
0
280
0
281
0
  0
CLASS
  1
ACDBSECTIONVIEWSTYLE
  2
AcDbSectionViewStyle
  3
ObjectDBX Classes
 90
1025
 91
0
280
0
281
0
  0
CLASS
  1
RASTERVARIABLES
  2
AcDbRasterVariables
  3
ISM
 90
0
 91
0
280
0
281
0
  0
CLASS
  1
LAYOUT
  2
AcDbLayout
  3
ObjectDBX Classes
 90
0
 91
0
280
0
281
0
  0
CLASS
  1
ACDBPLACEHOLDER
  2
AcDbPlaceHolder
  3
ObjectDBX Classes
 90
0
 91
0
280
0
281
0
  0
ENDSEC
  0
SECTION
  2
TABLES
  0
TABLE
  2
VPORT
  5
8
330
0
100
AcDbSymbolTable
 70
1
  0
VPORT
  5
23
330
8
100
AcDbSymbolTableRecord
100
AcDbViewportTableRecord
  2
*Active
 70
0
 10
0.0
 20
0.0
 11
1.0
 21
1.0
 12
0.0
 22
0.0
 13
0.0
 23
0.0
 14
0.5
 24
0.5
 15
0.5
 25
0.5
 16
0.0
 26
0.0
 36
1.0
 17
0.0
 27
0.0
 37
0.0
 40
1000.0
 41
1.34
 42
50.0
 43
0.0
 44
0.0
 50
0.0
 51
0.0
 71
0
 72
1000
 73
1
 74
3
 75
0
 76
0
 77
0
 78
0
281
0
 65
0
146
0.0
  0
ENDTAB
  0
TABLE
  2
LTYPE
  5
2
330
0
100
AcDbSymbolTable
 70
3
  0
LTYPE
  5
24
330
2
100
AcDbSymbolTableRecord
100
AcDbLinetypeTableRecord
  2
ByBlock
 70
0
  3

 72
65
 73
0
 40
0.0
  0
LTYPE
  5
25
330
2
100
AcDbSymbolTableRecord
100
AcDbLinetypeTableRecord
  2
ByLayer
 70
0
  3

 72
65
 73
0
 40
0.0
  0
LTYPE
  5
26
330
2
100
AcDbSymbolTableRecord
100
AcDbLinetypeTableRecord
  2
Continuous
 70
0
  3

 72
65
 73
0
 40
0.0
  0
ENDTAB
  0
TABLE
  2
LAYER
  5
1
330
0
100
AcDbSymbolTable
 70
2
  0
LAYER
  5
27
330
1
100
AcDbSymbolTableRecord
100
AcDbLayerTableRecord
  2
0
 70
0
 62
7
  6
Continuous
370
-3
390
13
347
21
  0
LAYER
  5
28
330
1
100
AcDbSymbolTableRecord
100
AcDbLayerTableRecord
  2
Defpoints
 70
0
 62
7
  6
Continuous
290
0
370
-3
390
13
347
21
  0
ENDTAB
  0
TABLE
  2
STYLE
  5
5
330
0
100
AcDbSymbolTable
 70
1
  0
STYLE
  5
29
330
5
100
AcDbSymbolTableRecord
100
AcDbTextStyleTableRecord
  2
Standard
 70
0
 40
0.0
 41
1.0
 50
0.0
 71
0
 42
2.5
  3
txt
  4

  0
ENDTAB
  0
TABLE
  2
VIEW
  5
7
330
0
100
AcDbSymbolTable
 70
0
  0
ENDTAB
  0
TABLE
  2
UCS
  5
6
330
0
100
AcDbSymbolTable
 70
0
  0
ENDTAB
  0
TABLE
  2
APPID
  5
3
330
0
100
AcDbSymbolTable
 70
3
  0
APPID
  5
2A
330
3
100
AcDbSymbolTableRecord
100
AcDbRegAppTableRecord
  2
ACAD
 70
0
  0
APPID
  5
39
330
3
100
AcDbSymbolTableRecord
100
AcDbRegAppTableRecord
  2
HATCHBACKGROUNDCOLOR
 70
0
  0
APPID
  5
3A
330
3
100
AcDbSymbolTableRecord
100
AcDbRegAppTableRecord
  2
EZDXF
 70
0
  0
ENDTAB
  0
TABLE
  2
DIMSTYLE
  5
4
330
0
100
AcDbSymbolTable
 70
1
100
AcDbDimStyleTable
  0
DIMSTYLE
105
2B
330
4
100
AcDbSymbolTableRecord
100
AcDbDimStyleTableRecord
  2
Standard
 70
0
 40
1.0
 41
2.5
 42
0.625
 43
3.75
 44
1.25
 45
0.0
 46
0.0
 47
0.0
 48
0.0
 49
2.5
140
2.5
141
2.5
142
0.0
143
0.03937007874
144
1.0
145
0.0
146
1.0
147
0.625
148
0.0
 69
0
 70
0
 71
0
 72
0
 73
0
 74
0
 75
0
 76
0
 77
1
 78
8
 79
3
170
0
171
3
172
1
173
0
174
0
175
0
176
0
177
0
178
0
179
2
271
2
272
2
273
2
274
3
275
0
276
0
277
2
278
44
279
0
280
0
281
0
282
0
283
0
284
8
285
0
286
0
288
0
289
3
290
0
371
-2
372
-2
  0
ENDTAB
  0
TABLE
  2
BLOCK_RECORD
  5
9
330
0
100
AcDbSymbolTable
 70
2
  0
BLOCK_RECORD
  5
17
330
9
100
AcDbSymbolTableRecord
100
AcDbBlockTableRecord
  2
*Model_Space
340
1A
 70
0
280
1
281
0
  0
BLOCK_RECORD
  5
1B
330
9
100
AcDbSymbolTableRecord
100
AcDbBlockTableRecord
  2
*Paper_Space
340
1E
 70
0
280
1
281
0
  0
ENDTAB
  0
ENDSEC
  0
SECTION
  2
BLOCKS
  0
BLOCK
  5
18
330
17
100
AcDbEntity
  8
0
100
AcDbBlockBegin
  2
*Model_Space
 70
0
 10
0.0
 20
0.0
 30
0.0
  3
*Model_Space
  1

  0
ENDBLK
  5
19
330
17
100
AcDbEntity
  8
0
100
AcDbBlockEnd
  0
BLOCK
  5
1C
330
1B
100
AcDbEntity
  8
0
100
AcDbBlockBegin
  2
*Paper_Space
 70
0
 10
0.0
 20
0.0
 30
0.0
  3
*Paper_Space
  1

  0
ENDBLK
  5
1D
330
1B
100
AcDbEntity
  8
0
100
AcDbBlockEnd
  0
ENDSEC
  0
SECTION
  2
ENTITIES
  0
LWPOLYLINE
  5
2F
330
17
100
AcDbEntity
  8
0
100
AcDbPolyline
 90
51
 70
0
 10
24.8
 20
12.0
 10
24.8
 20
11.76
 10
24.8
 20
11.52
 10
24.8
 20
11.28
 10
24.8
 20
11.04
 10
24.8
 20
10.8
 10
24.8
 20
10.56
 10
24.8
 20
10.32
 10
24.8
 20
10.08
 10
24.8
 20
9.84
 10
24.8
 20
9.6
 10
24.8
 20
9.36
 10
24.8
 20
9.120000000000001
 10
24.8
 20
8.879999999999999
 10
24.8
 20
8.64
 10
24.8
 20
8.4
 10
24.8
 20
8.16
 10
24.8
 20
7.92
 10
24.8
 20
7.68
 10
24.8
 20
7.44
 10
24.8
 20
7.2
 10
24.8
 20
6.96
 10
24.8
 20
6.72
 10
24.8
 20
6.48
 10
24.8
 20
6.24
 10
24.8
 20
6.0
 10
24.8
 20
5.76
 10
24.8
 20
5.52
 10
24.8
 20
5.28
 10
24.8
 20
5.04
 10
24.8
 20
4.8
 10
24.8
 20
4.56
 10
24.8
 20
4.32
 10
24.8
 20
4.08
 10
24.8
 20
3.84
 10
24.8
 20
3.5999999999999996
 10
24.8
 20
3.3599999999999994
 10
24.8
 20
3.119999999999999
 10
24.8
 20
2.880000000000001
 10
24.8
 20
2.6400000000000006
 10
24.8
 20
2.4000000000000004
 10
24.8
 20
2.16
 10
24.8
 20
1.92
 10
24.8
 20
1.6799999999999997
 10
24.8
 20
1.4399999999999995
 10
24.8
 20
1.1999999999999993
 10
24.8
 20
0.9600000000000009
 10
24.8
 20
0.7200000000000006
 10
24.8
 20
0.4800000000000004
 10
24.8
 20
0.2400000000000002
 10
24.8
 20
0.0
  0
LWPOLYLINE
  5
30
330
17
100
AcDbEntity
  8
0
100
AcDbPolyline
 90
51
 70
0
 10
10.8
 20
5.0
 10
10.8
 20
5.14
 10
10.8
 20
5.28
 10
10.8
 20
5.42
 10
10.8
 20
5.5600000000000005
 10
10.8
 20
5.7
 10
10.8
 20
5.84
 10
10.8
 20
5.98
 10
10.8
 20
6.12
 10
10.8
 20
6.26
 10
10.8
 20
6.4
 10
10.8
 20
6.54
 10
10.8
 20
6.68
 10
10.8
 20
6.82
 10
10.8
 20
6.96
 10
10.8
 20
7.1
 10
10.8
 20
7.24
 10
10.8
 20
7.38
 10
10.8
 20
7.52
 10
10.8
 20
7.66
 10
10.8
 20
7.8
 10
10.8
 20
7.9399999999999995
 10
10.8
 20
8.08
 10
10.8
 20
8.22
 10
10.8
 20
8.36
 10
10.8
 20
8.5
 10
10.799999999999999
 20
8.64
 10
10.799999999999999
 20
8.78
 10
10.799999999999999
 20
8.92
 10
10.799999999999999
 20
9.059999999999999
 10
10.799999999999999
 20
9.2
 10
10.799999999999999
 20
9.34
 10
10.799999999999999
 20
9.48
 10
10.799999999999999
 20
9.620000000000001
 10
10.799999999999999
 20
9.76
 10
10.799999999999999
 20
9.9
 10
10.799999999999999
 20
10.04
 10
10.799999999999999
 20
10.18
 10
10.799999999999999
 20
10.32
 10
10.799999999999999
 20
10.46
 10
10.799999999999999
 20
10.6
 10
10.799999999999999
 20
10.74
 10
10.799999999999999
 20
10.879999999999999
 10
10.799999999999999
 20
11.02
 10
10.799999999999999
 20
11.16
 10
10.799999999999999
 20
11.3
 10
10.799999999999999
 20
11.440000000000001
 10
10.799999999999999
 20
11.58
 10
10.799999999999999
 20
11.719999999999999
 10
10.799999999999999
 20
11.86
 10
10.799999999999999
 20
12.0
  0
LWPOLYLINE
  5
31
330
17
100
AcDbEntity
  8
0
100
AcDbPolyline
 90
51
 70
0
 10
10.8
 20
11.999999999999998
 10
10.8138129010021
 20
12.439533636705189
 10
10.855197090798654
 20
12.877332634950129
 10
10.923989244899179
 20
13.31166920210007
 10
11.019917872099583
 20
13.740829210153985
 10
11.142604385933925
 20
14.16311896062463
 10
11.29156459878224
 20
14.576871868792741
 10
11.466210632737864
 20
14.980455040955508
 10
11.665853239692954
 20
15.372275718712004
 10
11.889704521485896
 20
15.750787564852978
 10
12.136881039375368
 20
16.11449676604731
 10
12.406407300569473
 20
16.461967928240824
 10
12.69721960805012
 20
16.79182974150082
 10
13.008170258499177
 20
17.102780391949878
 10
13.338032071759173
 20
17.393592699430528
 10
13.685503233952687
 20
17.66311896062463
 10
14.049212435147021
 20
17.910295478514104
 10
14.427724281287993
 20
18.134146760307047
 10
14.819544959044489
 20
18.333789367262135
 10
15.223128131207256
 20
18.50843540121776
 10
15.636881039375368
 20
18.657395614066075
 10
16.059170789846014
 20
18.780082127900418
 10
16.488330797899927
 20
18.876010755100822
 10
16.92266736504987
 20
18.944802909201343
 10
17.360466363294808
 20
18.986187098997902
 10
17.8
 20
19.0
 10
18.23953363670519
 20
18.986187098997902
 10
18.67733263495013
 20
18.944802909201346
 10
19.11166920210007
 20
18.876010755100822
 10
19.540829210153984
 20
18.780082127900418
 10
19.96311896062463
 20
18.657395614066075
 10
20.37687186879274
 20
18.50843540121776
 10
20.78045504095551
 20
18.333789367262135
 10
21.17227571871201
 20
18.134146760307043
 10
21.55078756485298
 20
17.910295478514104
 10
21.91449676604731
 20
17.663118960624633
 10
22.261967928240825
 20
17.393592699430528
 10
22.59182974150082
 20
17.10278039194988
 10
22.90278039194988
 20
16.791829741500823
 10
23.193592699430525
 20
16.461967928240828
 10
23.46311896062463
 20
16.114496766047314
 10
23.710295478514105
 20
15.75078756485298
 10
23.934146760307044
 20
15.372275718712007
 10
24.133789367262136
 20
14.980455040955512
 10
24.30843540121776
 20
14.576871868792745
 10
24.457395614066076
 20
14.163118960624633
 10
24.58008212790042
 20
13.740829210153988
 10
24.67601075510082
 20
13.311669202100074
 10
24.744802909201347
 20
12.877332634950132
 10
24.7861870989979
 20
12.439533636705193
 10
24.8
 20
12.000000000000002
  0
LWPOLYLINE
  5
32
330
17
100
AcDbEntity
  8
0
100
AcDbPolyline
 90
51
 70
0
 10
24.8
 20
1.7621459846850479e-15
 10
23.308
 20
1.656133008509641e-15
 10
21.816000000000003
 20
1.5501200323342343e-15
 10
20.324
 20
1.4441070561588273e-15
 10
18.832
 20
1.3380940799834204e-15
 10
17.34
 20
1.2320811038080133e-15
 10
15.848
 20
1.1260681276326064e-15
 10
14.356000000000002
 20
1.0200551514571996e-15
 10
12.864
 20
9.140421752817927e-16
 10
11.372000000000002
 20
8.080291991063857e-16
 10
9.88
 20
7.020162229309788e-16
 10
8.388000000000002
 20
5.96003246755572e-16
 10
6.896000000000001
 20
4.899902705801649e-16
 10
5.404
 20
3.8397729440475803e-16
 10
3.9120000000000026
 20
2.779643182293513e-16
 10
2.4200000000000017
 20
1.7195134205394431e-16
 10
0.9280000000000008
 20
6.593836587853733e-17
 10
-0.5639999999999965
 20
-4.007461029686939e-17
 10
-2.0559999999999974
 20
-1.4608758647227637e-16
 10
-3.5479999999999983
 20
-2.5210056264768333e-16
 10
-5.039999999999999
 20
-3.581135388230903e-16
 10
-6.5319999999999965
 20
-4.641265149984971e-16
 10
-8.023999999999997
 20
-5.70139491173904e-16
 10
-9.516000000000002
 20
-6.761524673493112e-16
 10
-11.008
 20
-7.82165443524718e-16
 10
-12.499999999999996
 20
-8.881784197001247e-16
 10
-13.992
 20
-9.94191395875532e-16
 10
-15.483999999999998
 20
-1.1002043720509386e-15
 10
-16.975999999999996
 20
-1.2062173482263454e-15
 10
-18.467999999999993
 20
-1.3122303244017521e-15
 10
-19.959999999999997
 20
-1.4182433005771594e-15
 10
-21.451999999999995
 20
-1.524256276752566e-15
 10
-22.944
 20
-1.6302692529279733e-15
 10
-24.435999999999996
 20
-1.73628222910338e-15
 10
-25.927999999999994
 20
-1.8422952052787867e-15
 10
-27.419999999999998
 20
-1.948308181454194e-15
 10
-28.911999999999995
 20
-2.0543211576296008e-15
 10
-30.403999999999993
 20
-2.1603341338050073e-15
 10
-31.895999999999997
 20
-2.2663471099804145e-15
 10
-33.38799999999999
 20
-2.372360086155821e-15
 10
-34.879999999999995
 20
-2.4783730623312283e-15
 10
-36.372
 20
-2.5843860385066355e-15
 10
-37.86399999999999
 20
-2.6903990146820416e-15
 10
-39.355999999999995
 20
-2.796411990857449e-15
 10
-40.848
 20
-2.902424967032856e-15
 10
-42.33999999999999
 20
-3.0084379432082626e-15
 10
-43.83200000000001
 20
-3.1144509193836707e-15
 10
-45.324
 20
-3.2204638955590767e-15
 10
-46.816
 20
-3.326476871734484e-15
 10
-48.30799999999999
 20
-3.4324898479098905e-15
 10
-49.8
 20
-3.5385028240852977e-15
  0
LWPOLYLINE
  5
33
330
17
100
AcDbEntity
  8
0
100
AcDbPolyline
 90
51
 70
0
 10
21.8
 20
12.0
 10
21.78224785841232
 20
11.623566746725944
 10
21.729149002914756
 20
11.2504747416571
 10
21.641174742707772
 20
10.884035575843082
 10
21.519105943553008
 20
10.527501789261288
 10
21.364026096753474
 20
10.184038001041813
 10
21.177311702008062
 20
9.856692820084014
 10
20.96062004950276
 20
9.548371785388095
 10
20.715874509685648
 20
9.261811576285245
 10
20.445247461294606
 20
8.999555721478162
 10
20.151141009169894
 20
8.76393202250021
 10
19.836165663001484
 20
8.557031891984225
 10
19.503117166260292
 20
8.380691790135923
 10
19.154951680981167
 20
8.236476924183098
 10
18.79475954865942
 20
8.125667355485476
 10
18.425737860160925
 20
8.049246637619449
 10
18.051162078117255
 20
8.007893086286913
 10
17.67435696368749
 20
8.001973758537073
 10
17.298667065742784
 20
8.031541194742088
 10
16.92742703441383
 20
8.09633295224501
 10
16.56393202250021
 20
8.195773934819385
 10
16.21140843746088
 20
8.328981497264076
 10
15.87298530359314
 20
8.494773279824546
 10
15.55166648859148
 20
8.691677702901753
 10
15.250304041005242
 20
8.917947028896844
 10
14.97157287525381
 20
9.171572875253808
 10
14.717947028896843
 20
9.450304041005243
 10
14.491677702901754
 20
9.751666488591477
 10
14.294773279824547
 20
10.07298530359314
 10
14.128981497264077
 20
10.411408437460876
 10
13.995773934819386
 20
10.76393202250021
 10
13.896332952245011
 20
11.127427034413827
 10
13.83154119474209
 20
11.498667065742781
 10
13.801973758537073
 20
11.874356963687486
 10
13.807893086286914
 20
12.251162078117252
 10
13.84924663761945
 20
12.625737860160923
 10
13.925667355485476
 20
12.99475954865942
 10
14.036476924183098
 20
13.354951680981165
 10
14.18069179013592
 20
13.703117166260288
 10
14.357031891984228
 20
14.036165663001487
 10
14.563932022500211
 20
14.351141009169892
 10
14.79955572147816
 20
14.645247461294606
 10
15.061811576285248
 20
14.915874509685647
 10
15.348371785388094
 20
15.16062004950276
 10
15.656692820084015
 20
15.377311702008061
 10
15.984038001041814
 20
15.564026096753471
 10
16.32750178926129
 20
15.719105943553005
 10
16.684035575843083
 20
15.841174742707771
 10
17.0504747416571
 20
15.929149002914755
 10
17.423566746725946
 20
15.98224785841232
 10
17.8
 20
16.0
  0
LWPOLYLINE
  5
34
330
17
100
AcDbEntity
  8
0
100
AcDbPolyline
 90
51
 70
0
 10
17.8
 20
16.0
 10
17.925643036312515
 20
15.998026241462927
 10
18.051162078117255
 20
15.992106913713087
 10
18.17643325327406
 20
15.98224785841232
 10
18.301332934257218
 20
15.968458805257912
 10
18.425737860160925
 20
15.950753362380551
 10
18.5495252583429
 20
15.929149002914755
 10
18.67257296558617
 20
15.90366704775499
 10
18.79475954865942
 20
15.874332644514524
 10
18.91596442415692
 20
15.841174742707771
 10
19.03606797749979
 20
15.804226065180615
 10
19.154951680981167
 20
15.763523075816902
 10
19.27249821073871
 20
15.719105943553005
 10
19.388591562539123
 20
15.671018502735924
 10
19.503117166260292
 20
15.619308209864078
 10
19.615961998958188
 20
15.564026096753471
 10
19.72701469640686
 20
15.505226720175454
 10
19.836165663001488
 20
15.442968108015775
 10
19.943307179915987
 20
15.377311702008061
 10
20.048333511408522
 20
15.308322297098247
 10
20.151141009169894
 20
15.23606797749979
 10
20.251628214611905
 20
15.16062004950276
 10
20.349695958994758
 20
15.082052971103156
 10
20.445247461294606
 20
15.000444278521838
 10
20.538188423714754
 20
14.915874509685647
 10
20.628427124746192
 20
14.82842712474619
 10
20.715874509685648
 20
14.738188423714755
 10
20.800444278521837
 20
14.645247461294607
 10
20.882052971103157
 20
14.549695958994759
 10
20.96062004950276
 20
14.451628214611906
 10
21.03606797749979
 20
14.351141009169893
 10
21.108322297098248
 20
14.248333511408523
 10
21.177311702008062
 20
14.143307179915986
 10
21.242968108015774
 20
14.036165663001485
 10
21.305226720175455
 20
13.92701469640686
 10
21.36402609675347
 20
13.815961998958187
 10
21.419308209864077
 20
13.703117166260292
 10
21.471018502735927
 20
13.588591562539122
 10
21.519105943553008
 20
13.472498210738712
 10
21.563523075816903
 20
13.354951680981166
 10
21.604226065180615
 20
13.23606797749979
 10
21.641174742707772
 20
13.115964424156918
 10
21.674332644514525
 20
12.994759548659419
 10
21.70366704775499
 20
12.872572965586171
 10
21.729149002914756
 20
12.7495252583429
 10
21.75075336238055
 20
12.625737860160923
 10
21.76845880525791
 20
12.501332934257217
 10
21.78224785841232
 20
12.376433253274056
 10
21.792106913713088
 20
12.251162078117254
 10
21.798026241462928
 20
12.125643036312514
 10
21.8
 20
12.0
  0
LWPOLYLINE
  5
35
330
17
100
AcDbEntity
  8
0
100
AcDbPolyline
 90
51
 70
0
 10
-49.8
 20
-3.5385028240853e-15
 10
-49.8
 20
0.09999999999999654
 10
-49.8
 20
0.19999999999999662
 10
-49.8
 20
0.29999999999999666
 10
-49.8
 20
0.39999999999999675
 10
-49.8
 20
0.4999999999999968
 10
-49.8
 20
0.5999999999999969
 10
-49.8
 20
0.6999999999999971
 10
-49.8
 20
0.799999999999997
 10
-49.8
 20
0.899999999999997
 10
-49.8
 20
0.9999999999999971
 10
-49.8
 20
1.0999999999999972
 10
-49.8
 20
1.1999999999999973
 10
-49.8
 20
1.2999999999999974
 10
-49.8
 20
1.3999999999999977
 10
-49.8
 20
1.4999999999999976
 10
-49.8
 20
1.5999999999999976
 10
-49.8
 20
1.6999999999999975
 10
-49.8
 20
1.7999999999999976
 10
-49.8
 20
1.899999999999998
 10
-49.8
 20
1.9999999999999978
 10
-49.8
 20
2.099999999999998
 10
-49.8
 20
2.199999999999998
 10
-49.8
 20
2.299999999999998
 10
-49.8
 20
2.399999999999998
 10
-49.8
 20
2.4999999999999982
 10
-49.8
 20
2.5999999999999983
 10
-49.8
 20
2.699999999999998
 10
-49.8
 20
2.799999999999999
 10
-49.8
 20
2.8999999999999986
 10
-49.8
 20
2.9999999999999987
 10
-49.8
 20
3.0999999999999988
 10
-49.8
 20
3.199999999999999
 10
-49.8
 20
3.299999999999999
 10
-49.8
 20
3.3999999999999986
 10
-49.8
 20
3.4999999999999987
 10
-49.8
 20
3.5999999999999988
 10
-49.8
 20
3.6999999999999993
 10
-49.8
 20
3.7999999999999994
 10
-49.8
 20
3.8999999999999995
 10
-49.8
 20
3.999999999999999
 10
-49.8
 20
4.1
 10
-49.8
 20
4.199999999999999
 10
-49.8
 20
4.299999999999999
 10
-49.8
 20
4.3999999999999995
 10
-49.8
 20
4.5
 10
-49.8
 20
4.6
 10
-49.8
 20
4.7
 10
-49.8
 20
4.8
 10
-49.8
 20
4.8999999999999995
 10
-49.8
 20
5.0
  0
LWPOLYLINE
  5
36
330
17
100
AcDbEntity
  8
0
100
AcDbPolyline
 90
51
 70
0
 10
-20.0
 20
5.0
 10
-19.384
 20
5.0
 10
-18.768
 20
5.0
 10
-18.152
 20
5.0
 10
-17.536
 20
5.0
 10
-16.92
 20
5.0
 10
-16.304000000000002
 20
5.0
 10
-15.688
 20
5.0
 10
-15.072
 20
5.0
 10
-14.456
 20
5.0
 10
-13.84
 20
5.0
 10
-13.224
 20
5.0
 10
-12.608
 20
5.0
 10
-11.992
 20
5.0
 10
-11.376000000000001
 20
5.0
 10
-10.760000000000002
 20
5.0
 10
-10.144
 20
5.0
 10
-9.528000000000002
 20
5.0
 10
-8.911999999999999
 20
5.0
 10
-8.296
 20
5.0
 10
-7.68
 20
5.0
 10
-7.064
 20
5.0
 10
-6.448
 20
5.0
 10
-5.832000000000001
 20
5.0
 10
-5.216000000000001
 20
5.0
 10
-4.600000000000001
 20
5.0
 10
-3.9840000000000018
 20
5.0
 10
-3.368000000000002
 20
5.0
 10
-2.7520000000000024
 20
5.0
 10
-2.136000000000003
 20
5.0
 10
-1.5200000000000031
 20
5.0
 10
-0.9039999999999999
 20
5.0
 10
-0.28800000000000026
 20
5.0
 10
0.32799999999999585
 20
5.0
 10
0.9439999999999955
 20
5.0
 10
1.5599999999999987
 20
5.0
 10
2.1759999999999984
 20
5.0
 10
2.791999999999998
 20
5.0
 10
3.4079999999999977
 20
5.0
 10
4.023999999999997
 20
5.0
 10
4.640000000000001
 20
5.0
 10
5.256
 20
5.0
 10
5.872
 20
5.0
 10
6.487999999999996
 20
5.0
 10
7.103999999999999
 20
5.0
 10
7.719999999999999
 20
5.0
 10
8.335999999999999
 20
5.0
 10
8.951999999999998
 20
5.0
 10
9.567999999999998
 20
5.0
 10
10.183999999999997
 20
5.0
 10
10.799999999999997
 20
5.0
  0
LWPOLYLINE
  5
37
330
17
100
AcDbEntity
  8
0
100
AcDbPolyline
 90
51
 70
0
 10
-49.8
 20
5.0
 10
-48.587999999999994
 20
5.0
 10
-47.376
 20
5.0
 10
-46.164
 20
5.0
 10
-44.952
 20
5.0
 10
-43.739999999999995
 20
5.0
 10
-42.528
 20
5.0
 10
-41.316
 20
5.0
 10
-40.104
 20
5.0
 10
-38.891999999999996
 20
5.0
 10
-37.68
 20
5.0
 10
-36.467999999999996
 20
5.0
 10
-35.256
 20
5.0
 10
-34.044
 20
5.0
 10
-32.832
 20
5.0
 10
-31.62
 20
5.0
 10
-30.407999999999998
 20
5.0
 10
-29.196
 20
5.0
 10
-27.983999999999998
 20
5.0
 10
-26.772
 20
5.0
 10
-25.56
 20
5.0
 10
-24.348
 20
5.0
 10
-23.136
 20
5.0
 10
-21.924
 20
5.0
 10
-20.712
 20
5.0
 10
-19.5
 20
5.0
 10
-18.288
 20
5.0
 10
-17.076
 20
5.0
 10
-15.864000000000004
 20
5.0
 10
-14.652000000000001
 20
5.0
 10
-13.440000000000005
 20
5.0
 10
-12.228000000000002
 20
5.0
 10
-11.015999999999998
 20
5.0
 10
-9.804000000000002
 20
5.0
 10
-8.592000000000006
 20
5.0
 10
-7.3799999999999955
 20
5.0
 10
-6.167999999999999
 20
5.0
 10
-4.956000000000003
 20
5.0
 10
-3.7439999999999998
 20
5.0
 10
-2.5320000000000036
 20
5.0
 10
-1.3200000000000003
 20
5.0
 10
-0.10799999999999699
 20
5.0
 10
1.1039999999999992
 20
5.0
 10
2.3159999999999954
 20
5.0
 10
3.5279999999999987
 20
5.0
 10
4.739999999999995
 20
5.0
 10
5.951999999999998
 20
5.0
 10
7.1640000000000015
 20
5.0
 10
8.375999999999998
 20
5.0
 10
9.587999999999994
 20
5.0
 10
10.799999999999997
 20
5.0
  0
LWPOLYLINE
  5
38
330
17
100
AcDbEntity
  8
0
100
AcDbPolyline
 90
51
 70
0
 10
10.8
 20
5.0
 10
10.8
 20
5.14
 10
10.8
 20
5.28
 10
10.8
 20
5.42
 10
10.8
 20
5.5600000000000005
 10
10.8
 20
5.7
 10
10.8
 20
5.84
 10
10.8
 20
5.98
 10
10.8
 20
6.12
 10
10.8
 20
6.26
 10
10.8
 20
6.4
 10
10.8
 20
6.54
 10
10.8
 20
6.68
 10
10.8
 20
6.82
 10
10.8
 20
6.96
 10
10.8
 20
7.1
 10
10.8
 20
7.24
 10
10.8
 20
7.38
 10
10.8
 20
7.52
 10
10.8
 20
7.66
 10
10.8
 20
7.8
 10
10.8
 20
7.9399999999999995
 10
10.8
 20
8.08
 10
10.8
 20
8.22
 10
10.8
 20
8.36
 10
10.8
 20
8.5
 10
10.799999999999999
 20
8.64
 10
10.799999999999999
 20
8.78
 10
10.799999999999999
 20
8.92
 10
10.799999999999999
 20
9.059999999999999
 10
10.799999999999999
 20
9.2
 10
10.799999999999999
 20
9.34
 10
10.799999999999999
 20
9.48
 10
10.799999999999999
 20
9.620000000000001
 10
10.799999999999999
 20
9.76
 10
10.799999999999999
 20
9.9
 10
10.799999999999999
 20
10.04
 10
10.799999999999999
 20
10.18
 10
10.799999999999999
 20
10.32
 10
10.799999999999999
 20
10.46
 10
10.799999999999999
 20
10.6
 10
10.799999999999999
 20
10.74
 10
10.799999999999999
 20
10.879999999999999
 10
10.799999999999999
 20
11.02
 10
10.799999999999999
 20
11.16
 10
10.799999999999999
 20
11.3
 10
10.799999999999999
 20
11.440000000000001
 10
10.799999999999999
 20
11.58
 10
10.799999999999999
 20
11.719999999999999
 10
10.799999999999999
 20
11.86
 10
10.799999999999999
 20
12.0
  0
ENDSEC
  0
SECTION
  2
OBJECTS
  0
DICTIONARY
  5
A
330
0
100
AcDbDictionary
280
0
281
1
  3
ACAD_COLOR
350
B
  3
ACAD_GROUP
350
C
  3
ACAD_LAYOUT
350
D
  3
ACAD_MATERIAL
350
E
  3
ACAD_MLEADERSTYLE
350
F
  3
ACAD_MLINESTYLE
350
10
  3
ACAD_PLOTSETTINGS
350
11
  3
ACAD_PLOTSTYLENAME
350
12
  3
ACAD_SCALELIST
350
14
  3
ACAD_TABLESTYLE
350
15
  3
ACAD_VISUALSTYLE
350
16
  3
EZDXF_META
350
2D
  0
DICTIONARY
  5
B
330
A
100
AcDbDictionary
280
0
281
1
  0
DICTIONARY
  5
C
330
A
100
AcDbDictionary
280
0
281
1
  0
DICTIONARY
  5
D
330
A
100
AcDbDictionary
280
0
281
1
  3
Model
350
1A
  3
Layout1
350
1E
  0
DICTIONARY
  5
E
330
A
100
AcDbDictionary
280
0
281
1
  3
ByBlock
350
1F
  3
ByLayer
350
20
  3
Global
350
21
  0
DICTIONARY
  5
F
330
A
100
AcDbDictionary
280
0
281
1
  3
Standard
350
2C
  0
DICTIONARY
  5
10
330
A
100
AcDbDictionary
280
0
281
1
  3
Standard
350
22
  0
DICTIONARY
  5
11
330
A
100
AcDbDictionary
280
0
281
1
  0
ACDBDICTIONARYWDFLT
  5
12
330
A
100
AcDbDictionary
280
0
281
1
  3
Normal
350
13
100
AcDbDictionaryWithDefault
340
13
  0
ACDBPLACEHOLDER
  5
13
330
12
  0
DICTIONARY
  5
14
330
A
100
AcDbDictionary
280
0
281
1
  0
DICTIONARY
  5
15
330
A
100
AcDbDictionary
280
0
281
1
  0
DICTIONARY
  5
16
330
A
100
AcDbDictionary
280
0
281
1
  0
LAYOUT
  5
1A
330
D
100
AcDbPlotSettings
  1

  2
Adobe PDF
  4
A3
  6

 40
7.5
 41
20.0
 42
7.5
 43
20.0
 44
420.0
 45
297.0
 46
0.0
 47
0.0
 48
0.0
 49
0.0
140
0.0
141
0.0
142
1.0
143
1.0
 70
1024
 72
1
 73
0
 74
5
  7

 75
16
 76
0
 77
2
 78
300
147
1.0
148
0.0
149
0.0
100
AcDbLayout
  1
Model
 70
1
 71
0
 10
0.0
 20
0.0
 11
420.0
 21
297.0
 12
0.0
 22
0.0
 32
0.0
 14
1e+20
 24
1e+20
 34
1e+20
 15
-1e+20
 25
-1e+20
 35
-1e+20
146
0.0
 13
0.0
 23
0.0
 33
0.0
 16
1.0
 26
0.0
 36
0.0
 17
0.0
 27
1.0
 37
0.0
 76
1
330
17
  0
LAYOUT
  5
1E
330
D
100
AcDbPlotSettings
  1

  2
Adobe PDF
  4
A3
  6

 40
7.5
 41
20.0
 42
7.5
 43
20.0
 44
420.0
 45
297.0
 46
0.0
 47
0.0
 48
0.0
 49
0.0
140
0.0
141
0.0
142
1.0
143
1.0
 70
0
 72
1
 73
0
 74
5
  7

 75
16
 76
0
 77
2
 78
300
147
1.0
148
0.0
149
0.0
100
AcDbLayout
  1
Layout1
 70
1
 71
1
 10
0.0
 20
0.0
 11
420.0
 21
297.0
 12
0.0
 22
0.0
 32
0.0
 14
1e+20
 24
1e+20
 34
1e+20
 15
-1e+20
 25
-1e+20
 35
-1e+20
146
0.0
 13
0.0
 23
0.0
 33
0.0
 16
1.0
 26
0.0
 36
0.0
 17
0.0
 27
1.0
 37
0.0
 76
1
330
1B
  0
MATERIAL
  5
1F
102
{ACAD_REACTORS
330
E
102
}
330
E
100
AcDbMaterial
  1
ByBlock
  2

 70
0
 40
1.0
 71
1
 41
1.0
 91
-1023410177
 42
1.0
 72
1
  3

 73
1
 74
1
 75
1
 44
0.5
 73
0
 45
1.0
 46
1.0
 77
1
  4

 78
1
 79
1
170
1
 48
1.0
171
1
  6

172
1
173
1
174
1
140
1.0
141
1.0
175
1
  7

176
1
177
1
178
1
143
1.0
179
1
  8

270
1
271
1
272
1
145
1.0
146
1.0
273
1
  9

274
1
275
1
276
1
 42
1.0
 72
1
  3

 73
1
 74
1
 75
1
 94
63
  0
MATERIAL
  5
20
102
{ACAD_REACTORS
330
E
102
}
330
E
100
AcDbMaterial
  1
ByLayer
  2

 70
0
 40
1.0
 71
1
 41
1.0
 91
-1023410177
 42
1.0
 72
1
  3

 73
1
 74
1
 75
1
 44
0.5
 73
0
 45
1.0
 46
1.0
 77
1
  4

 78
1
 79
1
170
1
 48
1.0
171
1
  6

172
1
173
1
174
1
140
1.0
141
1.0
175
1
  7

176
1
177
1
178
1
143
1.0
179
1
  8

270
1
271
1
272
1
145
1.0
146
1.0
273
1
  9

274
1
275
1
276
1
 42
1.0
 72
1
  3

 73
1
 74
1
 75
1
 94
63
  0
MATERIAL
  5
21
102
{ACAD_REACTORS
330
E
102
}
330
E
100
AcDbMaterial
  1
Global
  2

 70
0
 40
1.0
 71
1
 41
1.0
 91
-1023410177
 42
1.0
 72
1
  3

 73
1
 74
1
 75
1
 44
0.5
 73
0
 45
1.0
 46
1.0
 77
1
  4

 78
1
 79
1
170
1
 48
1.0
171
1
  6

172
1
173
1
174
1
140
1.0
141
1.0
175
1
  7

176
1
177
1
178
1
143
1.0
179
1
  8

270
1
271
1
272
1
145
1.0
146
1.0
273
1
  9

274
1
275
1
276
1
 42
1.0
 72
1
  3

 73
1
 74
1
 75
1
 94
63
  0
MLINESTYLE
  5
22
102
{ACAD_REACTORS
330
10
102
}
330
10
100
AcDbMlineStyle
  2
Standard
 70
0
  3

 62
256
 51
90.0
 52
90.0
 71
2
 49
0.5
 62
256
  6
BYLAYER
 49
-0.5
 62
256
  6
BYLAYER
  0
MLEADERSTYLE
  5
2C
102
{ACAD_REACTORS
330
F
102
}
330
F
100
AcDbMLeaderStyle
179
2
170
2
171
1
172
0
 90
2
 40
0.0
 41
0.0
173
1
 91
-1056964608
 92
-2
290
1
 42
2.0
291
1
 43
8.0
  3
Standard
 44
4.0
300

342
29
174
1
175
1
176
0
178
1
 93
-1056964608
 45
4.0
292
0
297
0
 46
4.0
 94
-1056964608
 47
1.0
 49
1.0
140
1.0
294
1
141
0.0
177
0
142
1.0
295
0
296
0
143
3.75
271
0
272
9
273
9
  0
DICTIONARY
  5
2D
330
A
100
AcDbDictionary
281
1
  3
CREATED_BY_EZDXF
350
2E
  3
WRITTEN_BY_EZDXF
350
3B
  0
DICTIONARYVAR
  5
2E
330
2D
100
DictionaryVariables
280
0
  1
1.0.3 @ 2025-05-29T09:39:01.404742+00:00
  0
DICTIONARYVAR
  5
3B
330
2D
100
DictionaryVariables
280
0
  1
1.0.3 @ 2025-05-29T09:39:01.406742+00:00
  0
ENDSEC
  0
EOF
