  0
SECTION
  2
HEADER
  9
$ACADVER
  1
AC1027
  9
$ACADMAINTVER
 70
105
  9
$DWGCODEPAGE
  3
ANSI_1252
  9
$LASTSAVEDBY
  1
ezdxf
  9
$REQUIREDVERSIONS
160
0
  9
$INSBASE
 10
0.0
 20
0.0
 30
0.0
  9
$EXTMIN
 10
1e+20
 20
1e+20
 30
1e+20
  9
$EXTMAX
 10
-1e+20
 20
-1e+20
 30
-1e+20
  9
$LIMMIN
 10
0.0
 20
0.0
  9
$LIMMAX
 10
420.0
 20
297.0
  9
$ORTHOMODE
 70
0
  9
$REGENMODE
 70
1
  9
$FILLMODE
 70
1
  9
$QTEXTMODE
 70
0
  9
$MIRRTEXT
 70
1
  9
$LTSCALE
 40
1.0
  9
$ATTMODE
 70
1
  9
$TEXTSIZE
 40
2.5
  9
$TRACEWID
 40
1.0
  9
$TEXTSTYLE
  7
Standard
  9
$CLAYER
  8
0
  9
$CELTYPE
  6
ByLayer
  9
$CECOLOR
 62
256
  9
$CELTSCALE
 40
1.0
  9
$DISPSILH
 70
0
  9
$DIMSCALE
 40
1.0
  9
$DIMASZ
 40
2.5
  9
$DIMEXO
 40
0.625
  9
$DIMDLI
 40
3.75
  9
$DIMRND
 40
0.0
  9
$DIMDLE
 40
0.0
  9
$DIMEXE
 40
1.25
  9
$DIMTP
 40
0.0
  9
$DIMTM
 40
0.0
  9
$DIMTXT
 40
2.5
  9
$DIMCEN
 40
2.5
  9
$DIMTSZ
 40
0.0
  9
$DIMTOL
 70
0
  9
$DIMLIM
 70
0
  9
$DIMTIH
 70
0
  9
$DIMTOH
 70
0
  9
$DIMSE1
 70
0
  9
$DIMSE2
 70
0
  9
$DIMTAD
 70
1
  9
$DIMZIN
 70
8
  9
$DIMBLK
  1

  9
$DIMASO
 70
1
  9
$DIMSHO
 70
1
  9
$DIMPOST
  1

  9
$DIMAPOST
  1

  9
$DIMALT
 70
0
  9
$DIMALTD
 70
3
  9
$DIMALTF
 40
0.03937007874
  9
$DIMLFAC
 40
1.0
  9
$DIMTOFL
 70
1
  9
$DIMTVP
 40
0.0
  9
$DIMTIX
 70
0
  9
$DIMSOXD
 70
0
  9
$DIMSAH
 70
0
  9
$DIMBLK1
  1

  9
$DIMBLK2
  1

  9
$DIMSTYLE
  2
ISO-25
  9
$DIMCLRD
 70
0
  9
$DIMCLRE
 70
0
  9
$DIMCLRT
 70
0
  9
$DIMTFAC
 40
1.0
  9
$DIMGAP
 40
0.625
  9
$DIMJUST
 70
0
  9
$DIMSD1
 70
0
  9
$DIMSD2
 70
0
  9
$DIMTOLJ
 70
0
  9
$DIMTZIN
 70
8
  9
$DIMALTZ
 70
0
  9
$DIMALTTZ
 70
0
  9
$DIMUPT
 70
0
  9
$DIMDEC
 70
2
  9
$DIMTDEC
 70
2
  9
$DIMALTU
 70
2
  9
$DIMALTTD
 70
3
  9
$DIMTXSTY
  7
Standard
  9
$DIMAUNIT
 70
0
  9
$DIMADEC
 70
0
  9
$DIMALTRND
 40
0.0
  9
$DIMAZIN
 70
0
  9
$DIMDSEP
 70
44
  9
$DIMATFIT
 70
3
  9
$DIMFRAC
 70
0
  9
$DIMLDRBLK
  1

  9
$DIMLUNIT
 70
2
  9
$DIMLWD
 70
-2
  9
$DIMLWE
 70
-2
  9
$DIMTMOVE
 70
0
  9
$DIMFXL
 40
1.0
  9
$DIMFXLON
 70
0
  9
$DIMJOGANG
 40
0.785398163397
  9
$DIMTFILL
 70
0
  9
$DIMTFILLCLR
 70
0
  9
$DIMARCSYM
 70
0
  9
$DIMLTYPE
  6

  9
$DIMLTEX1
  6

  9
$DIMLTEX2
  6

  9
$DIMTXTDIRECTION
 70
0
  9
$LUNITS
 70
2
  9
$LUPREC
 70
4
  9
$SKETCHINC
 40
1.0
  9
$FILLETRAD
 40
10.0
  9
$AUNITS
 70
0
  9
$AUPREC
 70
2
  9
$MENU
  1
.
  9
$ELEVATION
 40
0.0
  9
$PELEVATION
 40
0.0
  9
$THICKNESS
 40
0.0
  9
$LIMCHECK
 70
0
  9
$CHAMFERA
 40
0.0
  9
$CHAMFERB
 40
0.0
  9
$CHAMFERC
 40
0.0
  9
$CHAMFERD
 40
0.0
  9
$SKPOLY
 70
0
  9
$TDCREATE
 40
2460825.7784375
  9
$TDUCREATE
 40
2458532.153996898
  9
$TDUPDATE
 40
2460825.7784375
  9
$TDUUPDATE
 40
2458532.1544311
  9
$TDINDWG
 40
0.0
  9
$TDUSRTIMER
 40
0.0
  9
$USRTIMER
 70
1
  9
$ANGBASE
 50
0.0
  9
$ANGDIR
 70
0
  9
$PDMODE
 70
0
  9
$PDSIZE
 40
0.0
  9
$PLINEWID
 40
0.0
  9
$SPLFRAME
 70
0
  9
$SPLINETYPE
 70
6
  9
$SPLINESEGS
 70
8
  9
$HANDSEED
  5
43
  9
$SURFTAB1
 70
6
  9
$SURFTAB2
 70
6
  9
$SURFTYPE
 70
6
  9
$SURFU
 70
6
  9
$SURFV
 70
6
  9
$UCSBASE
  2

  9
$UCSNAME
  2

  9
$UCSORG
 10
0.0
 20
0.0
 30
0.0
  9
$UCSXDIR
 10
1.0
 20
0.0
 30
0.0
  9
$UCSYDIR
 10
0.0
 20
1.0
 30
0.0
  9
$UCSORTHOREF
  2

  9
$UCSORTHOVIEW
 70
0
  9
$UCSORGTOP
 10
0.0
 20
0.0
 30
0.0
  9
$UCSORGBOTTOM
 10
0.0
 20
0.0
 30
0.0
  9
$UCSORGLEFT
 10
0.0
 20
0.0
 30
0.0
  9
$UCSORGRIGHT
 10
0.0
 20
0.0
 30
0.0
  9
$UCSORGFRONT
 10
0.0
 20
0.0
 30
0.0
  9
$UCSORGBACK
 10
0.0
 20
0.0
 30
0.0
  9
$PUCSBASE
  2

  9
$PUCSNAME
  2

  9
$PUCSORG
 10
0.0
 20
0.0
 30
0.0
  9
$PUCSXDIR
 10
1.0
 20
0.0
 30
0.0
  9
$PUCSYDIR
 10
0.0
 20
1.0
 30
0.0
  9
$PUCSORTHOREF
  2

  9
$PUCSORTHOVIEW
 70
0
  9
$PUCSORGTOP
 10
0.0
 20
0.0
 30
0.0
  9
$PUCSORGBOTTOM
 10
0.0
 20
0.0
 30
0.0
  9
$PUCSORGLEFT
 10
0.0
 20
0.0
 30
0.0
  9
$PUCSORGRIGHT
 10
0.0
 20
0.0
 30
0.0
  9
$PUCSORGFRONT
 10
0.0
 20
0.0
 30
0.0
  9
$PUCSORGBACK
 10
0.0
 20
0.0
 30
0.0
  9
$USERI1
 70
0
  9
$USERI2
 70
0
  9
$USERI3
 70
0
  9
$USERI4
 70
0
  9
$USERI5
 70
0
  9
$USERR1
 40
0.0
  9
$USERR2
 40
0.0
  9
$USERR3
 40
0.0
  9
$USERR4
 40
0.0
  9
$USERR5
 40
0.0
  9
$WORLDVIEW
 70
1
  9
$SHADEDGE
 70
3
  9
$SHADEDIF
 70
70
  9
$TILEMODE
 70
1
  9
$MAXACTVP
 70
64
  9
$PINSBASE
 10
0.0
 20
0.0
 30
0.0
  9
$PLIMCHECK
 70
0
  9
$PEXTMIN
 10
1e+20
 20
1e+20
 30
1e+20
  9
$PEXTMAX
 10
-1e+20
 20
-1e+20
 30
-1e+20
  9
$PLIMMIN
 10
0.0
 20
0.0
  9
$PLIMMAX
 10
420.0
 20
297.0
  9
$UNITMODE
 70
0
  9
$VISRETAIN
 70
1
  9
$PLINEGEN
 70
0
  9
$PSLTSCALE
 70
1
  9
$TREEDEPTH
 70
3020
  9
$CMLSTYLE
  2
Standard
  9
$CMLJUST
 70
0
  9
$CMLSCALE
 40
20.0
  9
$PROXYGRAPHICS
 70
1
  9
$MEASUREMENT
 70
1
  9
$CELWEIGHT
370
-1
  9
$ENDCAPS
280
0
  9
$JOINSTYLE
280
0
  9
$LWDISPLAY
290
0
  9
$INSUNITS
 70
6
  9
$HYPERLINKBASE
  1

  9
$STYLESHEET
  1

  9
$XEDIT
290
1
  9
$CEPSNTYPE
380
0
  9
$PSTYLEMODE
290
1
  9
$FINGERPRINTGUID
  2
{B24FEE5C-85F0-4CA4-9840-4D82132CCE37}
  9
$VERSIONGUID
  2
{8BCE167B-F622-4E2C-A576-175F03620F44}
  9
$EXTNAMES
290
1
  9
$PSVPSCALE
 40
0.0
  9
$OLESTARTUP
290
0
  9
$SORTENTS
280
127
  9
$INDEXCTL
280
0
  9
$HIDETEXT
280
1
  9
$XCLIPFRAME
280
0
  9
$HALOGAP
280
0
  9
$OBSCOLOR
 70
257
  9
$OBSLTYPE
280
0
  9
$INTERSECTIONDISPLAY
280
0
  9
$INTERSECTIONCOLOR
 70
257
  9
$DIMASSOC
280
2
  9
$PROJECTNAME
  1

  9
$CAMERADISPLAY
290
0
  9
$LENSLENGTH
 40
50.0
  9
$CAMERAHEIGHT
 40
0.0
  9
$STEPSPERSEC
 40
24.0
  9
$STEPSIZE
 40
100.0
  9
$3DDWFPREC
 40
2.0
  9
$PSOLWIDTH
 40
0.005
  9
$PSOLHEIGHT
 40
0.08
  9
$LOFTANG1
 40
1.570796326795
  9
$LOFTANG2
 40
1.570796326795
  9
$LOFTMAG1
 40
0.0
  9
$LOFTMAG2
 40
0.0
  9
$LOFTPARAM
 70
7
  9
$LOFTNORMALS
280
1
  9
$LATITUDE
 40
37.795
  9
$LONGITUDE
 40
-122.394
  9
$NORTHDIRECTION
 40
0.0
  9
$TIMEZONE
 70
-8000
  9
$LIGHTGLYPHDISPLAY
280
1
  9
$TILEMODELIGHTSYNCH
280
1
  9
$CMATERIAL
347
20
  9
$SOLIDHIST
280
0
  9
$SHOWHIST
280
1
  9
$DWFFRAME
280
2
  9
$DGNFRAME
280
2
  9
$REALWORLDSCALE
290
1
  9
$INTERFERECOLOR
 62
256
  9
$CSHADOW
280
0
  9
$SHADOWPLANELOCATION
 40
0.0
  0
ENDSEC
  0
SECTION
  2
CLASSES
  0
CLASS
  1
ACDBDICTIONARYWDFLT
  2
AcDbDictionaryWithDefault
  3
ObjectDBX Classes
 90
0
 91
0
280
0
281
0
  0
CLASS
  1
SUN
  2
AcDbSun
  3
SCENEOE
 90
1153
 91
0
280
0
281
0
  0
CLASS
  1
VISUALSTYLE
  2
AcDbVisualStyle
  3
ObjectDBX Classes
 90
4095
 91
0
280
0
281
0
  0
CLASS
  1
MATERIAL
  2
AcDbMaterial
  3
ObjectDBX Classes
 90
1153
 91
0
280
0
281
0
  0
CLASS
  1
SCALE
  2
AcDbScale
  3
ObjectDBX Classes
 90
1153
 91
0
280
0
281
0
  0
CLASS
  1
TABLESTYLE
  2
AcDbTableStyle
  3
ObjectDBX Classes
 90
4095
 91
0
280
0
281
0
  0
CLASS
  1
MLEADERSTYLE
  2
AcDbMLeaderStyle
  3
ACDB_MLEADERSTYLE_CLASS
 90
4095
 91
0
280
0
281
0
  0
CLASS
  1
DICTIONARYVAR
  2
AcDbDictionaryVar
  3
ObjectDBX Classes
 90
0
 91
0
280
0
281
0
  0
CLASS
  1
CELLSTYLEMAP
  2
AcDbCellStyleMap
  3
ObjectDBX Classes
 90
1152
 91
0
280
0
281
0
  0
CLASS
  1
MENTALRAYRENDERSETTINGS
  2
AcDbMentalRayRenderSettings
  3
SCENEOE
 90
1024
 91
0
280
0
281
0
  0
CLASS
  1
ACDBDETAILVIEWSTYLE
  2
AcDbDetailViewStyle
  3
ObjectDBX Classes
 90
1025
 91
0
280
0
281
0
  0
CLASS
  1
ACDBSECTIONVIEWSTYLE
  2
AcDbSectionViewStyle
  3
ObjectDBX Classes
 90
1025
 91
0
280
0
281
0
  0
CLASS
  1
RASTERVARIABLES
  2
AcDbRasterVariables
  3
ISM
 90
0
 91
0
280
0
281
0
  0
CLASS
  1
LAYOUT
  2
AcDbLayout
  3
ObjectDBX Classes
 90
0
 91
0
280
0
281
0
  0
CLASS
  1
ACDBPLACEHOLDER
  2
AcDbPlaceHolder
  3
ObjectDBX Classes
 90
0
 91
0
280
0
281
0
  0
ENDSEC
  0
SECTION
  2
TABLES
  0
TABLE
  2
VPORT
  5
8
330
0
100
AcDbSymbolTable
 70
1
  0
VPORT
  5
23
330
8
100
AcDbSymbolTableRecord
100
AcDbViewportTableRecord
  2
*Active
 70
0
 10
0.0
 20
0.0
 11
1.0
 21
1.0
 12
0.0
 22
0.0
 13
0.0
 23
0.0
 14
0.5
 24
0.5
 15
0.5
 25
0.5
 16
0.0
 26
0.0
 36
1.0
 17
0.0
 27
0.0
 37
0.0
 40
1000.0
 41
1.34
 42
50.0
 43
0.0
 44
0.0
 50
0.0
 51
0.0
 71
0
 72
1000
 73
1
 74
3
 75
0
 76
0
 77
0
 78
0
281
0
 65
0
146
0.0
  0
ENDTAB
  0
TABLE
  2
LTYPE
  5
2
330
0
100
AcDbSymbolTable
 70
3
  0
LTYPE
  5
24
330
2
100
AcDbSymbolTableRecord
100
AcDbLinetypeTableRecord
  2
ByBlock
 70
0
  3

 72
65
 73
0
 40
0.0
  0
LTYPE
  5
25
330
2
100
AcDbSymbolTableRecord
100
AcDbLinetypeTableRecord
  2
ByLayer
 70
0
  3

 72
65
 73
0
 40
0.0
  0
LTYPE
  5
26
330
2
100
AcDbSymbolTableRecord
100
AcDbLinetypeTableRecord
  2
Continuous
 70
0
  3

 72
65
 73
0
 40
0.0
  0
ENDTAB
  0
TABLE
  2
LAYER
  5
1
330
0
100
AcDbSymbolTable
 70
2
  0
LAYER
  5
27
330
1
100
AcDbSymbolTableRecord
100
AcDbLayerTableRecord
  2
0
 70
0
 62
7
  6
Continuous
370
-3
390
13
347
21
  0
LAYER
  5
28
330
1
100
AcDbSymbolTableRecord
100
AcDbLayerTableRecord
  2
Defpoints
 70
0
 62
7
  6
Continuous
290
0
370
-3
390
13
347
21
  0
ENDTAB
  0
TABLE
  2
STYLE
  5
5
330
0
100
AcDbSymbolTable
 70
1
  0
STYLE
  5
29
330
5
100
AcDbSymbolTableRecord
100
AcDbTextStyleTableRecord
  2
Standard
 70
0
 40
0.0
 41
1.0
 50
0.0
 71
0
 42
2.5
  3
txt
  4

  0
ENDTAB
  0
TABLE
  2
VIEW
  5
7
330
0
100
AcDbSymbolTable
 70
0
  0
ENDTAB
  0
TABLE
  2
UCS
  5
6
330
0
100
AcDbSymbolTable
 70
0
  0
ENDTAB
  0
TABLE
  2
APPID
  5
3
330
0
100
AcDbSymbolTable
 70
3
  0
APPID
  5
2A
330
3
100
AcDbSymbolTableRecord
100
AcDbRegAppTableRecord
  2
ACAD
 70
0
  0
APPID
  5
40
330
3
100
AcDbSymbolTableRecord
100
AcDbRegAppTableRecord
  2
HATCHBACKGROUNDCOLOR
 70
0
  0
APPID
  5
41
330
3
100
AcDbSymbolTableRecord
100
AcDbRegAppTableRecord
  2
EZDXF
 70
0
  0
ENDTAB
  0
TABLE
  2
DIMSTYLE
  5
4
330
0
100
AcDbSymbolTable
 70
1
100
AcDbDimStyleTable
  0
DIMSTYLE
105
2B
330
4
100
AcDbSymbolTableRecord
100
AcDbDimStyleTableRecord
  2
Standard
 70
0
 40
1.0
 41
2.5
 42
0.625
 43
3.75
 44
1.25
 45
0.0
 46
0.0
 47
0.0
 48
0.0
 49
2.5
140
2.5
141
2.5
142
0.0
143
0.03937007874
144
1.0
145
0.0
146
1.0
147
0.625
148
0.0
 69
0
 70
0
 71
0
 72
0
 73
0
 74
0
 75
0
 76
0
 77
1
 78
8
 79
3
170
0
171
3
172
1
173
0
174
0
175
0
176
0
177
0
178
0
179
2
271
2
272
2
273
2
274
3
275
0
276
0
277
2
278
44
279
0
280
0
281
0
282
0
283
0
284
8
285
0
286
0
288
0
289
3
290
0
371
-2
372
-2
  0
ENDTAB
  0
TABLE
  2
BLOCK_RECORD
  5
9
330
0
100
AcDbSymbolTable
 70
2
  0
BLOCK_RECORD
  5
17
330
9
100
AcDbSymbolTableRecord
100
AcDbBlockTableRecord
  2
*Model_Space
340
1A
 70
0
280
1
281
0
  0
BLOCK_RECORD
  5
1B
330
9
100
AcDbSymbolTableRecord
100
AcDbBlockTableRecord
  2
*Paper_Space
340
1E
 70
0
280
1
281
0
  0
ENDTAB
  0
ENDSEC
  0
SECTION
  2
BLOCKS
  0
BLOCK
  5
18
330
17
100
AcDbEntity
  8
0
100
AcDbBlockBegin
  2
*Model_Space
 70
0
 10
0.0
 20
0.0
 30
0.0
  3
*Model_Space
  1

  0
ENDBLK
  5
19
330
17
100
AcDbEntity
  8
0
100
AcDbBlockEnd
  0
BLOCK
  5
1C
330
1B
100
AcDbEntity
  8
0
100
AcDbBlockBegin
  2
*Paper_Space
 70
0
 10
0.0
 20
0.0
 30
0.0
  3
*Paper_Space
  1

  0
ENDBLK
  5
1D
330
1B
100
AcDbEntity
  8
0
100
AcDbBlockEnd
  0
ENDSEC
  0
SECTION
  2
ENTITIES
  0
LWPOLYLINE
  5
2F
330
17
100
AcDbEntity
  8
0
100
AcDbPolyline
 90
51
 70
0
 10
0.0
 20
37.7
 10
0.0
 20
37.028
 10
0.0
 20
36.356
 10
0.0
 20
35.684000000000005
 10
0.0
 20
35.012
 10
0.0
 20
34.34
 10
0.0
 20
33.668
 10
0.0
 20
32.996
 10
0.0
 20
32.324
 10
0.0
 20
31.652
 10
0.0
 20
30.980000000000004
 10
0.0
 20
30.308
 10
0.0
 20
29.636000000000003
 10
0.0
 20
28.964
 10
0.0
 20
28.292
 10
0.0
 20
27.620000000000005
 10
0.0
 20
26.948
 10
0.0
 20
26.276000000000003
 10
0.0
 20
25.604
 10
0.0
 20
24.932000000000002
 10
0.0
 20
24.26
 10
0.0
 20
23.588
 10
0.0
 20
22.916
 10
0.0
 20
22.244
 10
0.0
 20
21.572000000000003
 10
0.0
 20
20.9
 10
0.0
 20
20.228
 10
0.0
 20
19.555999999999997
 10
0.0
 20
18.884
 10
0.0
 20
18.211999999999996
 10
0.0
 20
17.54
 10
0.0
 20
16.867999999999995
 10
0.0
 20
16.195999999999998
 10
0.0
 20
15.524000000000003
 10
0.0
 20
14.851999999999999
 10
0.0
 20
14.180000000000001
 10
0.0
 20
13.507999999999997
 10
0.0
 20
12.836
 10
0.0
 20
12.164000000000003
 10
0.0
 20
11.491999999999999
 10
0.0
 20
10.820000000000002
 10
0.0
 20
10.147999999999998
 10
0.0
 20
9.476
 10
0.0
 20
8.804
 10
0.0
 20
8.132
 10
0.0
 20
7.460000000000003
 10
0.0
 20
6.7879999999999985
 10
0.0
 20
6.116000000000001
 10
0.0
 20
5.444000000000001
 10
0.0
 20
4.771999999999997
 10
0.0
 20
4.1
  0
LWPOLYLINE
  5
30
330
17
100
AcDbEntity
  8
0
100
AcDbPolyline
 90
51
 70
0
 10
4.05
 20
4.1
 10
4.05
 20
4.017999999999999
 10
4.05
 20
3.936
 10
4.05
 20
3.853999999999999
 10
4.05
 20
3.7720000000000002
 10
4.05
 20
3.6899999999999995
 10
4.05
 20
3.6080000000000005
 10
4.05
 20
3.526
 10
4.05
 20
3.443999999999999
 10
4.05
 20
3.362
 10
4.05
 20
3.2799999999999994
 10
4.05
 20
3.1980000000000004
 10
4.05
 20
3.1159999999999997
 10
4.05
 20
3.033999999999999
 10
4.05
 20
2.952
 10
4.05
 20
2.869999999999999
 10
4.05
 20
2.7880000000000003
 10
4.05
 20
2.7059999999999995
 10
4.05
 20
2.6239999999999988
 10
4.05
 20
2.542
 10
4.05
 20
2.459999999999999
 10
4.05
 20
2.378
 10
4.05
 20
2.2959999999999994
 10
4.05
 20
2.2140000000000004
 10
4.05
 20
2.1319999999999997
 10
4.05
 20
2.0500000000000007
 10
4.05
 20
1.968
 10
4.05
 20
1.8859999999999992
 10
4.05
 20
1.8040000000000003
 10
4.05
 20
1.7219999999999995
 10
4.05
 20
1.6400000000000006
 10
4.05
 20
1.5579999999999998
 10
4.05
 20
1.475999999999999
 10
4.05
 20
1.3940000000000001
 10
4.05
 20
1.3120000000000012
 10
4.05
 20
1.2300000000000004
 10
4.05
 20
1.1479999999999997
 10
4.05
 20
1.065999999999999
 10
4.05
 20
0.984
 10
4.05
 20
0.902000000000001
 10
4.05
 20
0.8200000000000003
 10
4.05
 20
0.7379999999999995
 10
4.05
 20
0.6559999999999988
 10
4.05
 20
0.5739999999999998
 10
4.05
 20
0.4920000000000009
 10
4.05
 20
0.41000000000000014
 10
4.05
 20
0.3279999999999994
 10
4.05
 20
0.24600000000000044
 10
4.05
 20
0.1639999999999997
 10
4.05
 20
0.08200000000000074
 10
4.05
 20
0.0
  0
LWPOLYLINE
  5
31
330
17
100
AcDbEntity
  8
0
100
AcDbPolyline
 90
51
 70
0
 10
9.95
 20
4.1
 10
9.95
 20
4.017999999999999
 10
9.95
 20
3.936
 10
9.95
 20
3.853999999999999
 10
9.95
 20
3.7720000000000002
 10
9.95
 20
3.6899999999999995
 10
9.95
 20
3.6080000000000005
 10
9.95
 20
3.526
 10
9.95
 20
3.443999999999999
 10
9.95
 20
3.362
 10
9.95
 20
3.2799999999999994
 10
9.95
 20
3.1980000000000004
 10
9.95
 20
3.1159999999999997
 10
9.95
 20
3.033999999999999
 10
9.95
 20
2.952
 10
9.95
 20
2.869999999999999
 10
9.95
 20
2.7880000000000003
 10
9.95
 20
2.7059999999999995
 10
9.95
 20
2.6239999999999988
 10
9.95
 20
2.542
 10
9.95
 20
2.459999999999999
 10
9.95
 20
2.378
 10
9.95
 20
2.2959999999999994
 10
9.95
 20
2.2140000000000004
 10
9.95
 20
2.1319999999999997
 10
9.95
 20
2.0500000000000007
 10
9.95
 20
1.968
 10
9.95
 20
1.8859999999999992
 10
9.95
 20
1.8040000000000003
 10
9.95
 20
1.7219999999999995
 10
9.95
 20
1.6400000000000006
 10
9.95
 20
1.5579999999999998
 10
9.95
 20
1.475999999999999
 10
9.95
 20
1.3940000000000001
 10
9.95
 20
1.3120000000000012
 10
9.95
 20
1.2300000000000004
 10
9.95
 20
1.1479999999999997
 10
9.95
 20
1.065999999999999
 10
9.95
 20
0.984
 10
9.95
 20
0.902000000000001
 10
9.95
 20
0.8200000000000003
 10
9.95
 20
0.7379999999999995
 10
9.95
 20
0.6559999999999988
 10
9.95
 20
0.5739999999999998
 10
9.95
 20
0.4920000000000009
 10
9.95
 20
0.41000000000000014
 10
9.95
 20
0.3279999999999994
 10
9.95
 20
0.24600000000000044
 10
9.95
 20
0.1639999999999997
 10
9.95
 20
0.08200000000000074
 10
9.95
 20
0.0
  0
LWPOLYLINE
  5
32
330
17
100
AcDbEntity
  8
0
100
AcDbPolyline
 90
51
 70
0
 10
4.05
 20
41.6
 10
4.05
 20
41.522
 10
4.05
 20
41.444
 10
4.05
 20
41.366
 10
4.05
 20
41.288000000000004
 10
4.05
 20
41.21
 10
4.05
 20
41.132000000000005
 10
4.05
 20
41.054
 10
4.05
 20
40.976
 10
4.05
 20
40.898
 10
4.05
 20
40.82
 10
4.05
 20
40.742000000000004
 10
4.05
 20
40.664
 10
4.05
 20
40.586
 10
4.05
 20
40.508
 10
4.05
 20
40.43
 10
4.05
 20
40.352000000000004
 10
4.05
 20
40.274
 10
4.05
 20
40.196000000000005
 10
4.05
 20
40.118
 10
4.05
 20
40.04
 10
4.05
 20
39.962
 10
4.05
 20
39.884
 10
4.05
 20
39.806000000000004
 10
4.05
 20
39.728
 10
4.05
 20
39.65
 10
4.05
 20
39.572
 10
4.05
 20
39.494
 10
4.05
 20
39.416000000000004
 10
4.05
 20
39.338
 10
4.05
 20
39.260000000000005
 10
4.05
 20
39.182
 10
4.05
 20
39.104
 10
4.05
 20
39.026
 10
4.05
 20
38.948
 10
4.05
 20
38.870000000000005
 10
4.05
 20
38.792
 10
4.05
 20
38.714
 10
4.05
 20
38.636
 10
4.05
 20
38.558
 10
4.05
 20
38.480000000000004
 10
4.05
 20
38.402
 10
4.05
 20
38.324000000000005
 10
4.05
 20
38.246
 10
4.05
 20
38.168000000000006
 10
4.05
 20
38.09
 10
4.05
 20
38.012
 10
4.05
 20
37.934000000000005
 10
4.05
 20
37.856
 10
4.05
 20
37.778000000000006
 10
4.05
 20
37.7
  0
LWPOLYLINE
  5
33
330
17
100
AcDbEntity
  8
0
100
AcDbPolyline
 90
51
 70
0
 10
9.95
 20
41.6
 10
9.95
 20
41.522
 10
9.95
 20
41.444
 10
9.95
 20
41.366
 10
9.95
 20
41.288000000000004
 10
9.95
 20
41.21
 10
9.95
 20
41.132000000000005
 10
9.95
 20
41.054
 10
9.95
 20
40.976
 10
9.95
 20
40.898
 10
9.95
 20
40.82
 10
9.95
 20
40.742000000000004
 10
9.95
 20
40.664
 10
9.95
 20
40.586
 10
9.95
 20
40.508
 10
9.95
 20
40.43
 10
9.95
 20
40.352000000000004
 10
9.95
 20
40.274
 10
9.95
 20
40.196000000000005
 10
9.95
 20
40.118
 10
9.95
 20
40.04
 10
9.95
 20
39.962
 10
9.95
 20
39.884
 10
9.95
 20
39.806000000000004
 10
9.95
 20
39.728
 10
9.95
 20
39.65
 10
9.95
 20
39.572
 10
9.95
 20
39.494
 10
9.95
 20
39.416000000000004
 10
9.95
 20
39.338
 10
9.95
 20
39.260000000000005
 10
9.95
 20
39.182
 10
9.95
 20
39.104
 10
9.95
 20
39.026
 10
9.95
 20
38.948
 10
9.95
 20
38.870000000000005
 10
9.95
 20
38.792
 10
9.95
 20
38.714
 10
9.95
 20
38.636
 10
9.95
 20
38.558
 10
9.95
 20
38.480000000000004
 10
9.95
 20
38.402
 10
9.95
 20
38.324000000000005
 10
9.95
 20
38.246
 10
9.95
 20
38.168000000000006
 10
9.95
 20
38.09
 10
9.95
 20
38.012
 10
9.95
 20
37.934000000000005
 10
9.95
 20
37.856
 10
9.95
 20
37.778000000000006
 10
9.95
 20
37.7
  0
LWPOLYLINE
  5
34
330
17
100
AcDbEntity
  8
0
100
AcDbPolyline
 90
51
 70
0
 10
0.0
 20
37.7
 10
0.03747736310507727
 20
37.7
 10
0.07495472621015425
 20
37.7
 10
0.11243208931523152
 20
37.7
 10
0.18141867061592468
 20
37.7
 10
0.2924175428441048
 20
37.7
 10
0.4034164150722858
 20
37.7
 10
0.5144152873004668
 20
37.7
 10
0.6847941600259294
 20
37.7
 10
0.8650696995009375
 20
37.7
 10
1.045345238975947
 20
37.7
 10
1.243444359223558
 20
37.7
 10
1.4861024314026707
 20
37.7
 10
1.7287605035817855
 20
37.7
 10
1.9714185757609002
 20
37.7
 10
2.252007185380677
 20
37.7
 10
2.547768009976717
 20
37.7
 10
2.843528834572756
 20
37.7
 10
3.1452599742639826
 20
37.7
 10
3.482813004526293
 20
37.7
 10
3.820366034788609
 20
37.7
 10
4.157919065050919
 20
37.7
 10
4.51197691401328
 20
37.7
 10
4.878413377000683
 20
37.7
 10
5.244849839988081
 20
37.7
 10
5.611286302975479
 20
37.7
 10
5.992592859526421
 20
37.7
 10
6.373899416077356
 20
37.7
 10
6.755205972628292
 20
37.7
 10
7.136635995980135
 20
37.7
 10
7.518230641733173
 20
37.7
 10
7.899825287486212
 20
37.7
 10
8.281419933239256
 20
37.7
 10
8.65075320842689
 20
37.7
 10
9.018042921853624
 20
37.7
 10
9.385332635280362
 20
37.7
 10
9.744522091087669
 20
37.7
 10
10.08346090284641
 20
37.7
 10
10.422399714605158
 20
37.7
 10
10.761338526363904
 20
37.7
 10
11.070768288156664
 20
37.7
 10
11.368394429963045
 20
37.7
 10
11.66602057176942
 20
37.7
 10
11.95611892064003
 20
37.7
 10
12.201050511896042
 20
37.7
 10
12.445982103152057
 20
37.7
 10
12.690913694408062
 20
37.7
 10
12.900381699821063
 20
37.7
 10
13.083252015851802
 20
37.7
 10
13.26612233188254
 20
37.7
 10
13.448992647913283
 20
37.7
  0
LWPOLYLINE
  5
35
330
17
100
AcDbEntity
  8
0
100
AcDbPolyline
 90
51
 70
0
 10
0.0
 20
4.1
 10
0.03747736310507727
 20
4.1
 10
0.07495472621015425
 20
4.1
 10
0.11243208931523152
 20
4.1
 10
0.18141867061592468
 20
4.1
 10
0.2924175428441048
 20
4.1
 10
0.4034164150722858
 20
4.1
 10
0.5144152873004668
 20
4.1
 10
0.6847941600259294
 20
4.1
 10
0.8650696995009375
 20
4.1
 10
1.045345238975947
 20
4.1
 10
1.243444359223558
 20
4.1
 10
1.4861024314026707
 20
4.1
 10
1.7287605035817855
 20
4.1
 10
1.9714185757609002
 20
4.1
 10
2.252007185380677
 20
4.1
 10
2.547768009976717
 20
4.1
 10
2.843528834572756
 20
4.1
 10
3.1452599742639826
 20
4.1
 10
3.482813004526293
 20
4.1
 10
3.820366034788609
 20
4.1
 10
4.157919065050919
 20
4.1
 10
4.51197691401328
 20
4.1
 10
4.878413377000683
 20
4.1
 10
5.244849839988081
 20
4.1
 10
5.611286302975479
 20
4.1
 10
5.992592859526421
 20
4.1
 10
6.373899416077356
 20
4.1
 10
6.755205972628292
 20
4.1
 10
7.136635995980135
 20
4.1
 10
7.518230641733173
 20
4.1
 10
7.899825287486212
 20
4.1
 10
8.281419933239256
 20
4.1
 10
8.65075320842689
 20
4.1
 10
9.018042921853624
 20
4.1
 10
9.385332635280362
 20
4.1
 10
9.744522091087669
 20
4.1
 10
10.08346090284641
 20
4.1
 10
10.422399714605158
 20
4.1
 10
10.761338526363904
 20
4.1
 10
11.070768288156664
 20
4.1
 10
11.368394429963045
 20
4.1
 10
11.66602057176942
 20
4.1
 10
11.95611892064003
 20
4.1
 10
12.201050511896042
 20
4.1
 10
12.445982103152057
 20
4.1
 10
12.690913694408062
 20
4.1
 10
12.900381699821063
 20
4.1
 10
13.083252015851802
 20
4.1
 10
13.26612233188254
 20
4.1
 10
13.448992647913283
 20
4.1
  0
LWPOLYLINE
  5
36
330
17
100
AcDbEntity
  8
0
100
AcDbPolyline
 90
51
 70
0
 10
19.0
 20
37.7
 10
19.0
 20
37.028
 10
19.0
 20
36.356
 10
19.0
 20
35.684000000000005
 10
19.0
 20
35.012
 10
19.0
 20
34.34
 10
19.0
 20
33.668
 10
19.0
 20
32.996
 10
19.0
 20
32.324
 10
19.0
 20
31.652
 10
19.0
 20
30.980000000000004
 10
19.0
 20
30.308
 10
19.0
 20
29.636000000000003
 10
19.0
 20
28.964
 10
19.0
 20
28.292
 10
19.0
 20
27.620000000000005
 10
19.0
 20
26.948
 10
19.0
 20
26.276000000000003
 10
19.0
 20
25.604
 10
19.0
 20
24.932000000000002
 10
19.0
 20
24.26
 10
19.0
 20
23.588
 10
19.0
 20
22.916
 10
19.0
 20
22.244
 10
19.0
 20
21.572000000000003
 10
19.0
 20
20.9
 10
19.0
 20
20.228
 10
19.0
 20
19.555999999999997
 10
19.0
 20
18.884
 10
19.0
 20
18.211999999999996
 10
19.0
 20
17.54
 10
19.0
 20
16.867999999999995
 10
19.0
 20
16.195999999999998
 10
19.0
 20
15.524000000000003
 10
19.0
 20
14.851999999999999
 10
19.0
 20
14.180000000000001
 10
19.0
 20
13.507999999999997
 10
19.0
 20
12.836
 10
19.0
 20
12.164000000000003
 10
19.0
 20
11.491999999999999
 10
19.0
 20
10.820000000000002
 10
19.0
 20
10.147999999999998
 10
19.0
 20
9.476
 10
19.0
 20
8.804
 10
19.0
 20
8.132
 10
19.0
 20
7.460000000000003
 10
19.0
 20
6.7879999999999985
 10
19.0
 20
6.116000000000001
 10
19.0
 20
5.444000000000001
 10
19.0
 20
4.771999999999997
 10
19.0
 20
4.1
  0
LWPOLYLINE
  5
37
330
17
100
AcDbEntity
  8
0
100
AcDbPolyline
 90
51
 70
0
 10
15.2915619758885
 20
4.1
 10
15.34573073637073
 20
4.1
 10
15.39989949685296
 20
4.1
 10
15.45406825733519
 20
4.1
 10
15.50823701781742
 20
4.1
 10
15.56240577829965
 20
4.1
 10
15.61657453878188
 20
4.1
 10
15.67074329926411
 20
4.1
 10
15.724912059746341
 20
4.1
 10
15.77908082022857
 20
4.1
 10
15.8332495807108
 20
4.1
 10
15.88741834119303
 20
4.1
 10
15.94158710167526
 20
4.1
 10
15.995755862157491
 20
4.1
 10
16.049924622639722
 20
4.1
 10
16.10409338312195
 20
4.1
 10
16.15826214360418
 20
4.1
 10
16.21243090408641
 20
4.1
 10
16.26659966456864
 20
4.1
 10
16.320768425050872
 20
4.1
 10
16.3749371855331
 20
4.1
 10
16.42910594601533
 20
4.1
 10
16.48327470649756
 20
4.1
 10
16.53744346697979
 20
4.1
 10
16.591612227462022
 20
4.1
 10
16.64578098794425
 20
4.1
 10
16.69994974842648
 20
4.1
 10
16.75411850890871
 20
4.1
 10
16.808287269390938
 20
4.1
 10
16.86245602987317
 20
4.1
 10
16.9166247903554
 20
4.1
 10
16.97079355083763
 20
4.1
 10
17.02496231131986
 20
4.1
 10
17.07913107180209
 20
4.1
 10
17.13329983228432
 20
4.1
 10
17.18746859276655
 20
4.1
 10
17.24163735324878
 20
4.1
 10
17.29580611373101
 20
4.1
 10
17.34997487421324
 20
4.1
 10
17.40414363469547
 20
4.1
 10
17.4583123951777
 20
4.1
 10
17.51248115565993
 20
4.1
 10
17.56664991614216
 20
4.1
 10
17.62081867662439
 20
4.1
 10
17.67498743710662
 20
4.1
 10
17.72915619758885
 20
4.1
 10
17.78332495807108
 20
4.1
 10
17.83749371855331
 20
4.1
 10
17.89166247903554
 20
4.1
 10
17.94583123951777
 20
4.1
 10
18.0
 20
4.1
  0
LWPOLYLINE
  5
38
330
17
100
AcDbEntity
  8
0
100
AcDbPolyline
 90
51
 70
0
 10
18.0
 20
4.1
 10
18.0
 20
4.771999999999999
 10
18.0
 20
5.444
 10
18.0
 20
6.116
 10
18.0
 20
6.788
 10
18.0
 20
7.459999999999999
 10
18.0
 20
8.132
 10
18.0
 20
8.804
 10
18.0
 20
9.475999999999999
 10
18.0
 20
10.148
 10
18.0
 20
10.82
 10
18.0
 20
11.492
 10
18.0
 20
12.164
 10
18.0
 20
12.836
 10
18.0
 20
13.508000000000001
 10
18.0
 20
14.18
 10
18.0
 20
14.852
 10
18.0
 20
15.524000000000001
 10
18.0
 20
16.196
 10
18.0
 20
16.868
 10
18.0
 20
17.54
 10
18.0
 20
18.212
 10
18.0
 20
18.884
 10
18.0
 20
19.556
 10
18.0
 20
20.228
 10
18.0
 20
20.9
 10
18.0
 20
21.572000000000003
 10
18.0
 20
22.244
 10
18.0
 20
22.916000000000004
 10
18.0
 20
23.588
 10
18.0
 20
24.259999999999998
 10
18.0
 20
24.932000000000002
 10
18.0
 20
25.604
 10
18.0
 20
26.275999999999996
 10
18.0
 20
26.948
 10
18.0
 20
27.619999999999997
 10
18.0
 20
28.292
 10
18.0
 20
28.964
 10
18.0
 20
29.635999999999996
 10
18.0
 20
30.308
 10
18.0
 20
30.979999999999997
 10
18.0
 20
31.652
 10
18.0
 20
32.324
 10
18.0
 20
32.996
 10
18.0
 20
33.668
 10
18.0
 20
34.339999999999996
 10
18.0
 20
35.012
 10
18.0
 20
35.684
 10
18.0
 20
36.356
 10
18.0
 20
37.028000000000006
 10
18.0
 20
37.7
  0
LWPOLYLINE
  5
39
330
17
100
AcDbEntity
  8
0
100
AcDbPolyline
 90
51
 70
0
 10
15.2915619758885
 20
37.7
 10
15.34573073637073
 20
37.7
 10
15.39989949685296
 20
37.7
 10
15.45406825733519
 20
37.7
 10
15.50823701781742
 20
37.7
 10
15.56240577829965
 20
37.7
 10
15.61657453878188
 20
37.7
 10
15.67074329926411
 20
37.7
 10
15.724912059746341
 20
37.7
 10
15.77908082022857
 20
37.7
 10
15.8332495807108
 20
37.7
 10
15.88741834119303
 20
37.7
 10
15.94158710167526
 20
37.7
 10
15.995755862157491
 20
37.7
 10
16.049924622639722
 20
37.7
 10
16.10409338312195
 20
37.7
 10
16.15826214360418
 20
37.7
 10
16.21243090408641
 20
37.7
 10
16.26659966456864
 20
37.7
 10
16.320768425050872
 20
37.7
 10
16.3749371855331
 20
37.7
 10
16.42910594601533
 20
37.7
 10
16.48327470649756
 20
37.7
 10
16.53744346697979
 20
37.7
 10
16.591612227462022
 20
37.7
 10
16.64578098794425
 20
37.7
 10
16.69994974842648
 20
37.7
 10
16.75411850890871
 20
37.7
 10
16.808287269390938
 20
37.7
 10
16.86245602987317
 20
37.7
 10
16.9166247903554
 20
37.7
 10
16.97079355083763
 20
37.7
 10
17.02496231131986
 20
37.7
 10
17.07913107180209
 20
37.7
 10
17.13329983228432
 20
37.7
 10
17.18746859276655
 20
37.7
 10
17.24163735324878
 20
37.7
 10
17.29580611373101
 20
37.7
 10
17.34997487421324
 20
37.7
 10
17.40414363469547
 20
37.7
 10
17.4583123951777
 20
37.7
 10
17.51248115565993
 20
37.7
 10
17.56664991614216
 20
37.7
 10
17.62081867662439
 20
37.7
 10
17.67498743710662
 20
37.7
 10
17.72915619758885
 20
37.7
 10
17.78332495807108
 20
37.7
 10
17.83749371855331
 20
37.7
 10
17.89166247903554
 20
37.7
 10
17.94583123951777
 20
37.7
 10
18.0
 20
37.7
  0
LWPOLYLINE
  5
3A
330
17
100
AcDbEntity
  8
0
100
AcDbPolyline
 90
51
 70
0
 10
13.448992647913283
 20
37.7
 10
13.468997533198069
 20
37.7
 10
13.489002418482853
 20
37.7
 10
13.509007303767639
 20
37.7
 10
13.53049918436655
 20
37.7
 10
13.55397372538429
 20
37.7
 10
13.577448266402032
 20
37.7
 10
13.600922807419773
 20
37.7
 10
13.62723056265924
 20
37.7
 10
13.654010520268995
 20
37.7
 10
13.68079047787875
 20
37.7
 10
13.708461307251996
 20
37.7
 10
13.738359316033971
 20
37.7
 10
13.768257324815947
 20
37.7
 10
13.798155333597922
 20
37.7
 10
13.830131106931223
 20
37.7
 10
13.862937986085054
 20
37.7
 10
13.895744865238886
 20
37.7
 10
13.928934506924158
 20
37.7
 10
13.964420723798064
 20
37.7
 10
13.999906940671972
 20
37.7
 10
14.035393157545878
 20
37.7
 10
14.072268551069683
 20
37.7
 10
14.110185827080912
 20
37.7
 10
14.148103103092142
 20
37.7
 10
14.186020379103372
 20
37.7
 10
14.226103426814174
 20
37.7
 10
14.266186474524977
 20
37.7
 10
14.306269522235779
 20
37.7
 10
14.347160569154397
 20
37.7
 10
14.389128948350102
 20
37.7
 10
14.431097327545807
 20
37.7
 10
14.473065706741512
 20
37.7
 10
14.516398400726478
 20
37.7
 10
14.559958480509653
 20
37.7
 10
14.60351856029283
 20
37.7
 10
14.647446335330232
 20
37.7
 10
14.692293348503192
 20
37.7
 10
14.737140361676154
 20
37.7
 10
14.781987374849114
 20
37.7
 10
14.827529503871535
 20
37.7
 10
14.87334967923374
 20
37.7
 10
14.919169854595944
 20
37.7
 10
14.965083255998087
 20
37.7
 10
15.011556013639854
 20
37.7
 10
15.058028771281622
 20
37.7
 10
15.104501528923388
 20
37.7
 10
15.151161393188843
 20
37.7
 10
15.197961587422062
 20
37.7
 10
15.244761781655281
 20
37.7
 10
15.2915619758885
 20
37.7
  0
LWPOLYLINE
  5
3B
330
17
100
AcDbEntity
  8
0
100
AcDbPolyline
 90
51
 70
0
 10
18.0
 20
37.7
 10
18.02
 20
37.7
 10
18.04
 20
37.7
 10
18.06
 20
37.7
 10
18.08
 20
37.7
 10
18.1
 20
37.7
 10
18.12
 20
37.7
 10
18.14
 20
37.7
 10
18.16
 20
37.7
 10
18.18
 20
37.7
 10
18.2
 20
37.7
 10
18.22
 20
37.7
 10
18.24
 20
37.7
 10
18.26
 20
37.7
 10
18.28
 20
37.7
 10
18.3
 20
37.7
 10
18.32
 20
37.7
 10
18.34
 20
37.7
 10
18.36
 20
37.7
 10
18.38
 20
37.7
 10
18.4
 20
37.7
 10
18.42
 20
37.7
 10
18.44
 20
37.7
 10
18.46
 20
37.7
 10
18.48
 20
37.7
 10
18.5
 20
37.7
 10
18.52
 20
37.7
 10
18.54
 20
37.7
 10
18.56
 20
37.7
 10
18.580000000000002
 20
37.7
 10
18.6
 20
37.7
 10
18.62
 20
37.7
 10
18.64
 20
37.7
 10
18.66
 20
37.7
 10
18.68
 20
37.7
 10
18.7
 20
37.7
 10
18.72
 20
37.7
 10
18.740000000000002
 20
37.7
 10
18.76
 20
37.7
 10
18.78
 20
37.7
 10
18.8
 20
37.7
 10
18.82
 20
37.7
 10
18.84
 20
37.7
 10
18.86
 20
37.7
 10
18.88
 20
37.7
 10
18.900000000000002
 20
37.7
 10
18.92
 20
37.7
 10
18.94
 20
37.7
 10
18.96
 20
37.7
 10
18.98
 20
37.7
 10
19.0
 20
37.7
  0
LWPOLYLINE
  5
3C
330
17
100
AcDbEntity
  8
0
100
AcDbPolyline
 90
51
 70
0
 10
19.000000000000004
 20
4.1
 10
18.980000000000004
 20
4.1
 10
18.960000000000004
 20
4.1
 10
18.940000000000005
 20
4.1
 10
18.92
 20
4.1
 10
18.900000000000006
 20
4.1
 10
18.880000000000003
 20
4.1
 10
18.860000000000003
 20
4.1
 10
18.840000000000003
 20
4.1
 10
18.820000000000004
 20
4.1
 10
18.800000000000004
 20
4.1
 10
18.780000000000005
 20
4.1
 10
18.760000000000005
 20
4.1
 10
18.740000000000002
 20
4.1
 10
18.720000000000002
 20
4.1
 10
18.700000000000003
 20
4.1
 10
18.680000000000003
 20
4.1
 10
18.660000000000004
 20
4.1
 10
18.640000000000004
 20
4.1
 10
18.620000000000005
 20
4.1
 10
18.6
 20
4.1
 10
18.580000000000005
 20
4.1
 10
18.560000000000002
 20
4.1
 10
18.540000000000003
 20
4.1
 10
18.520000000000003
 20
4.1
 10
18.500000000000004
 20
4.1
 10
18.480000000000004
 20
4.1
 10
18.460000000000004
 20
4.1
 10
18.440000000000005
 20
4.1
 10
18.42
 20
4.1
 10
18.400000000000006
 20
4.1
 10
18.380000000000003
 20
4.1
 10
18.360000000000003
 20
4.1
 10
18.340000000000003
 20
4.1
 10
18.320000000000004
 20
4.1
 10
18.300000000000004
 20
4.1
 10
18.280000000000005
 20
4.1
 10
18.260000000000005
 20
4.1
 10
18.240000000000002
 20
4.1
 10
18.220000000000002
 20
4.1
 10
18.200000000000003
 20
4.1
 10
18.180000000000003
 20
4.1
 10
18.160000000000004
 20
4.1
 10
18.140000000000004
 20
4.1
 10
18.120000000000005
 20
4.1
 10
18.1
 20
4.1
 10
18.080000000000005
 20
4.1
 10
18.060000000000002
 20
4.1
 10
18.040000000000003
 20
4.1
 10
18.020000000000003
 20
4.1
 10
18.000000000000004
 20
4.1
  0
LWPOLYLINE
  5
3D
330
17
100
AcDbEntity
  8
0
100
AcDbPolyline
 90
51
 70
0
 10
15.2915619758885
 20
4.1
 10
15.244761781655281
 20
4.1
 10
15.197961587422062
 20
4.1
 10
15.151161393188843
 20
4.1
 10
15.10450152892339
 20
4.1
 10
15.058028771281622
 20
4.1
 10
15.011556013639856
 20
4.1
 10
14.965083255998088
 20
4.1
 10
14.919169854595946
 20
4.1
 10
14.873349679233742
 20
4.1
 10
14.827529503871537
 20
4.1
 10
14.781987374849114
 20
4.1
 10
14.737140361676154
 20
4.1
 10
14.692293348503192
 20
4.1
 10
14.647446335330232
 20
4.1
 10
14.60351856029283
 20
4.1
 10
14.559958480509655
 20
4.1
 10
14.516398400726478
 20
4.1
 10
14.473065706741513
 20
4.1
 10
14.431097327545809
 20
4.1
 10
14.389128948350104
 20
4.1
 10
14.347160569154399
 20
4.1
 10
14.30626952223578
 20
4.1
 10
14.266186474524977
 20
4.1
 10
14.226103426814175
 20
4.1
 10
14.186020379103372
 20
4.1
 10
14.148103103092144
 20
4.1
 10
14.110185827080914
 20
4.1
 10
14.072268551069685
 20
4.1
 10
14.03539315754588
 20
4.1
 10
13.999906940671972
 20
4.1
 10
13.964420723798066
 20
4.1
 10
13.928934506924158
 20
4.1
 10
13.895744865238887
 20
4.1
 10
13.862937986085054
 20
4.1
 10
13.830131106931223
 20
4.1
 10
13.798155333597922
 20
4.1
 10
13.768257324815947
 20
4.1
 10
13.738359316033973
 20
4.1
 10
13.708461307251998
 20
4.1
 10
13.680790477878752
 20
4.1
 10
13.654010520268997
 20
4.1
 10
13.627230562659241
 20
4.1
 10
13.600922807419773
 20
4.1
 10
13.577448266402033
 20
4.1
 10
13.55397372538429
 20
4.1
 10
13.53049918436655
 20
4.1
 10
13.50900730376764
 20
4.1
 10
13.489002418482855
 20
4.1
 10
13.468997533198069
 20
4.1
 10
13.448992647913283
 20
4.1
  0
LWPOLYLINE
  5
3E
330
17
100
AcDbEntity
  8
0
100
AcDbPolyline
 90
51
 70
0
 10
9.95
 20
0.0
 10
9.929290455462185
 20
0.0
 10
9.908580910924373
 20
0.0
 10
9.887871366386559
 20
0.0
 10
9.84985583926147
 20
0.0
 10
9.788765668686683
 20
0.0
 10
9.727675498111894
 20
0.0
 10
9.666585327537106
 20
0.0
 10
9.573508891424588
 20
0.0
 10
9.475101411055784
 20
0.0
 10
9.376693930686978
 20
0.0
 10
9.269034236656895
 20
0.0
 10
9.138244008473617
 20
0.0
 10
9.007453780290337
 20
0.0
 10
8.87666355210706
 20
0.0
 10
8.727427338465972
 20
0.0
 10
8.57081273064176
 20
0.0
 10
8.414198122817549
 20
0.0
 10
8.255016219387771
 20
0.0
 10
8.080430542324583
 20
0.0
 10
7.905844865261396
 20
0.0
 10
7.731259188198208
 20
0.0
 10
7.551406874343748
 20
0.0
 10
7.367604582895832
 20
0.0
 10
7.183802291447916
 20
0.0
 10
7.0
 20
0.0
 10
6.8161977085520835
 20
0.0
 10
6.632395417104169
 20
0.0
 10
6.448593125656252
 20
0.0
 10
6.268740811801791
 20
0.0
 10
6.094155134738605
 20
0.0
 10
5.919569457675418
 20
0.0
 10
5.7449837806122295
 20
0.0
 10
5.58580187718245
 20
0.0
 10
5.4291872693582395
 20
0.0
 10
5.27257266153403
 20
0.0
 10
5.1233364478929415
 20
0.0
 10
4.992546219709663
 20
0.0
 10
4.861755991526385
 20
0.0
 10
4.730965763343107
 20
0.0
 10
4.623306069313023
 20
0.0
 10
4.524898588944218
 20
0.0
 10
4.426491108575411
 20
0.0
 10
4.333414672462895
 20
0.0
 10
4.272324501888106
 20
0.0
 10
4.211234331313317
 20
0.0
 10
4.15014416073853
 20
0.0
 10
4.112128633613441
 20
0.0
 10
4.091419089075627
 20
0.0
 10
4.070709544537814
 20
0.0
 10
4.05
 20
0.0
  0
LWPOLYLINE
  5
3F
330
17
100
AcDbEntity
  8
0
100
AcDbPolyline
 90
51
 70
0
 10
9.95
 20
41.6
 10
9.929290455462185
 20
41.6
 10
9.908580910924373
 20
41.6
 10
9.887871366386559
 20
41.6
 10
9.84985583926147
 20
41.6
 10
9.788765668686683
 20
41.6
 10
9.727675498111894
 20
41.6
 10
9.666585327537106
 20
41.6
 10
9.573508891424588
 20
41.6
 10
9.475101411055784
 20
41.6
 10
9.376693930686978
 20
41.6
 10
9.269034236656895
 20
41.6
 10
9.138244008473617
 20
41.6
 10
9.007453780290337
 20
41.6
 10
8.87666355210706
 20
41.6
 10
8.727427338465972
 20
41.6
 10
8.57081273064176
 20
41.6
 10
8.414198122817549
 20
41.6
 10
8.255016219387771
 20
41.6
 10
8.080430542324583
 20
41.6
 10
7.905844865261396
 20
41.6
 10
7.731259188198208
 20
41.6
 10
7.551406874343748
 20
41.6
 10
7.367604582895832
 20
41.6
 10
7.183802291447916
 20
41.6
 10
7.0
 20
41.6
 10
6.8161977085520835
 20
41.6
 10
6.632395417104169
 20
41.6
 10
6.448593125656252
 20
41.6
 10
6.268740811801791
 20
41.6
 10
6.094155134738605
 20
41.6
 10
5.919569457675418
 20
41.6
 10
5.7449837806122295
 20
41.6
 10
5.58580187718245
 20
41.6
 10
5.4291872693582395
 20
41.6
 10
5.27257266153403
 20
41.6
 10
5.1233364478929415
 20
41.6
 10
4.992546219709663
 20
41.6
 10
4.861755991526385
 20
41.6
 10
4.730965763343107
 20
41.6
 10
4.623306069313023
 20
41.6
 10
4.524898588944218
 20
41.6
 10
4.426491108575411
 20
41.6
 10
4.333414672462895
 20
41.6
 10
4.272324501888106
 20
41.6
 10
4.211234331313317
 20
41.6
 10
4.15014416073853
 20
41.6
 10
4.112128633613441
 20
41.6
 10
4.091419089075627
 20
41.6
 10
4.070709544537814
 20
41.6
 10
4.05
 20
41.6
  0
ENDSEC
  0
SECTION
  2
OBJECTS
  0
DICTIONARY
  5
A
330
0
100
AcDbDictionary
280
0
281
1
  3
ACAD_COLOR
350
B
  3
ACAD_GROUP
350
C
  3
ACAD_LAYOUT
350
D
  3
ACAD_MATERIAL
350
E
  3
ACAD_MLEADERSTYLE
350
F
  3
ACAD_MLINESTYLE
350
10
  3
ACAD_PLOTSETTINGS
350
11
  3
ACAD_PLOTSTYLENAME
350
12
  3
ACAD_SCALELIST
350
14
  3
ACAD_TABLESTYLE
350
15
  3
ACAD_VISUALSTYLE
350
16
  3
EZDXF_META
350
2D
  0
DICTIONARY
  5
B
330
A
100
AcDbDictionary
280
0
281
1
  0
DICTIONARY
  5
C
330
A
100
AcDbDictionary
280
0
281
1
  0
DICTIONARY
  5
D
330
A
100
AcDbDictionary
280
0
281
1
  3
Model
350
1A
  3
Layout1
350
1E
  0
DICTIONARY
  5
E
330
A
100
AcDbDictionary
280
0
281
1
  3
ByBlock
350
1F
  3
ByLayer
350
20
  3
Global
350
21
  0
DICTIONARY
  5
F
330
A
100
AcDbDictionary
280
0
281
1
  3
Standard
350
2C
  0
DICTIONARY
  5
10
330
A
100
AcDbDictionary
280
0
281
1
  3
Standard
350
22
  0
DICTIONARY
  5
11
330
A
100
AcDbDictionary
280
0
281
1
  0
ACDBDICTIONARYWDFLT
  5
12
330
A
100
AcDbDictionary
280
0
281
1
  3
Normal
350
13
100
AcDbDictionaryWithDefault
340
13
  0
ACDBPLACEHOLDER
  5
13
330
12
  0
DICTIONARY
  5
14
330
A
100
AcDbDictionary
280
0
281
1
  0
DICTIONARY
  5
15
330
A
100
AcDbDictionary
280
0
281
1
  0
DICTIONARY
  5
16
330
A
100
AcDbDictionary
280
0
281
1
  0
LAYOUT
  5
1A
330
D
100
AcDbPlotSettings
  1

  2
Adobe PDF
  4
A3
  6

 40
7.5
 41
20.0
 42
7.5
 43
20.0
 44
420.0
 45
297.0
 46
0.0
 47
0.0
 48
0.0
 49
0.0
140
0.0
141
0.0
142
1.0
143
1.0
 70
1024
 72
1
 73
0
 74
5
  7

 75
16
 76
0
 77
2
 78
300
147
1.0
148
0.0
149
0.0
100
AcDbLayout
  1
Model
 70
1
 71
0
 10
0.0
 20
0.0
 11
420.0
 21
297.0
 12
0.0
 22
0.0
 32
0.0
 14
1e+20
 24
1e+20
 34
1e+20
 15
-1e+20
 25
-1e+20
 35
-1e+20
146
0.0
 13
0.0
 23
0.0
 33
0.0
 16
1.0
 26
0.0
 36
0.0
 17
0.0
 27
1.0
 37
0.0
 76
1
330
17
  0
LAYOUT
  5
1E
330
D
100
AcDbPlotSettings
  1

  2
Adobe PDF
  4
A3
  6

 40
7.5
 41
20.0
 42
7.5
 43
20.0
 44
420.0
 45
297.0
 46
0.0
 47
0.0
 48
0.0
 49
0.0
140
0.0
141
0.0
142
1.0
143
1.0
 70
0
 72
1
 73
0
 74
5
  7

 75
16
 76
0
 77
2
 78
300
147
1.0
148
0.0
149
0.0
100
AcDbLayout
  1
Layout1
 70
1
 71
1
 10
0.0
 20
0.0
 11
420.0
 21
297.0
 12
0.0
 22
0.0
 32
0.0
 14
1e+20
 24
1e+20
 34
1e+20
 15
-1e+20
 25
-1e+20
 35
-1e+20
146
0.0
 13
0.0
 23
0.0
 33
0.0
 16
1.0
 26
0.0
 36
0.0
 17
0.0
 27
1.0
 37
0.0
 76
1
330
1B
  0
MATERIAL
  5
1F
102
{ACAD_REACTORS
330
E
102
}
330
E
100
AcDbMaterial
  1
ByBlock
  2

 70
0
 40
1.0
 71
1
 41
1.0
 91
-1023410177
 42
1.0
 72
1
  3

 73
1
 74
1
 75
1
 44
0.5
 73
0
 45
1.0
 46
1.0
 77
1
  4

 78
1
 79
1
170
1
 48
1.0
171
1
  6

172
1
173
1
174
1
140
1.0
141
1.0
175
1
  7

176
1
177
1
178
1
143
1.0
179
1
  8

270
1
271
1
272
1
145
1.0
146
1.0
273
1
  9

274
1
275
1
276
1
 42
1.0
 72
1
  3

 73
1
 74
1
 75
1
 94
63
  0
MATERIAL
  5
20
102
{ACAD_REACTORS
330
E
102
}
330
E
100
AcDbMaterial
  1
ByLayer
  2

 70
0
 40
1.0
 71
1
 41
1.0
 91
-1023410177
 42
1.0
 72
1
  3

 73
1
 74
1
 75
1
 44
0.5
 73
0
 45
1.0
 46
1.0
 77
1
  4

 78
1
 79
1
170
1
 48
1.0
171
1
  6

172
1
173
1
174
1
140
1.0
141
1.0
175
1
  7

176
1
177
1
178
1
143
1.0
179
1
  8

270
1
271
1
272
1
145
1.0
146
1.0
273
1
  9

274
1
275
1
276
1
 42
1.0
 72
1
  3

 73
1
 74
1
 75
1
 94
63
  0
MATERIAL
  5
21
102
{ACAD_REACTORS
330
E
102
}
330
E
100
AcDbMaterial
  1
Global
  2

 70
0
 40
1.0
 71
1
 41
1.0
 91
-1023410177
 42
1.0
 72
1
  3

 73
1
 74
1
 75
1
 44
0.5
 73
0
 45
1.0
 46
1.0
 77
1
  4

 78
1
 79
1
170
1
 48
1.0
171
1
  6

172
1
173
1
174
1
140
1.0
141
1.0
175
1
  7

176
1
177
1
178
1
143
1.0
179
1
  8

270
1
271
1
272
1
145
1.0
146
1.0
273
1
  9

274
1
275
1
276
1
 42
1.0
 72
1
  3

 73
1
 74
1
 75
1
 94
63
  0
MLINESTYLE
  5
22
102
{ACAD_REACTORS
330
10
102
}
330
10
100
AcDbMlineStyle
  2
Standard
 70
0
  3

 62
256
 51
90.0
 52
90.0
 71
2
 49
0.5
 62
256
  6
BYLAYER
 49
-0.5
 62
256
  6
BYLAYER
  0
MLEADERSTYLE
  5
2C
102
{ACAD_REACTORS
330
F
102
}
330
F
100
AcDbMLeaderStyle
179
2
170
2
171
1
172
0
 90
2
 40
0.0
 41
0.0
173
1
 91
-1056964608
 92
-2
290
1
 42
2.0
291
1
 43
8.0
  3
Standard
 44
4.0
300

342
29
174
1
175
1
176
0
178
1
 93
-1056964608
 45
4.0
292
0
297
0
 46
4.0
 94
-1056964608
 47
1.0
 49
1.0
140
1.0
294
1
141
0.0
177
0
142
1.0
295
0
296
0
143
3.75
271
0
272
9
273
9
  0
DICTIONARY
  5
2D
330
A
100
AcDbDictionary
281
1
  3
CREATED_BY_EZDXF
350
2E
  3
WRITTEN_BY_EZDXF
350
42
  0
DICTIONARYVAR
  5
2E
330
2D
100
DictionaryVariables
280
0
  1
1.0.3 @ 2025-05-29T09:40:57.518785+00:00
  0
DICTIONARYVAR
  5
42
330
2D
100
DictionaryVariables
280
0
  1
1.0.3 @ 2025-05-29T09:40:57.523553+00:00
  0
ENDSEC
  0
EOF
