  0
SECTION
  2
HEADER
  9
$ACADVER
  1
AC1027
  9
$ACADMAINTVER
 70
105
  9
$DWGCODEPAGE
  3
ANSI_1252
  9
$LASTSAVEDBY
  1
ezdxf
  9
$REQUIREDVERSIONS
160
0
  9
$INSBASE
 10
0.0
 20
0.0
 30
0.0
  9
$EXTMIN
 10
1e+20
 20
1e+20
 30
1e+20
  9
$EXTMAX
 10
-1e+20
 20
-1e+20
 30
-1e+20
  9
$LIMMIN
 10
0.0
 20
0.0
  9
$LIMMAX
 10
420.0
 20
297.0
  9
$ORTHOMODE
 70
0
  9
$REGENMODE
 70
1
  9
$FILLMODE
 70
1
  9
$QTEXTMODE
 70
0
  9
$MIRRTEXT
 70
1
  9
$LTSCALE
 40
1.0
  9
$ATTMODE
 70
1
  9
$TEXTSIZE
 40
2.5
  9
$TRACEWID
 40
1.0
  9
$TEXTSTYLE
  7
Standard
  9
$CLAYER
  8
0
  9
$CELTYPE
  6
ByLayer
  9
$CECOLOR
 62
256
  9
$CELTSCALE
 40
1.0
  9
$DISPSILH
 70
0
  9
$DIMSCALE
 40
1.0
  9
$DIMASZ
 40
2.5
  9
$DIMEXO
 40
0.625
  9
$DIMDLI
 40
3.75
  9
$DIMRND
 40
0.0
  9
$DIMDLE
 40
0.0
  9
$DIMEXE
 40
1.25
  9
$DIMTP
 40
0.0
  9
$DIMTM
 40
0.0
  9
$DIMTXT
 40
2.5
  9
$DIMCEN
 40
2.5
  9
$DIMTSZ
 40
0.0
  9
$DIMTOL
 70
0
  9
$DIMLIM
 70
0
  9
$DIMTIH
 70
0
  9
$DIMTOH
 70
0
  9
$DIMSE1
 70
0
  9
$DIMSE2
 70
0
  9
$DIMTAD
 70
1
  9
$DIMZIN
 70
8
  9
$DIMBLK
  1

  9
$DIMASO
 70
1
  9
$DIMSHO
 70
1
  9
$DIMPOST
  1

  9
$DIMAPOST
  1

  9
$DIMALT
 70
0
  9
$DIMALTD
 70
3
  9
$DIMALTF
 40
0.03937007874
  9
$DIMLFAC
 40
1.0
  9
$DIMTOFL
 70
1
  9
$DIMTVP
 40
0.0
  9
$DIMTIX
 70
0
  9
$DIMSOXD
 70
0
  9
$DIMSAH
 70
0
  9
$DIMBLK1
  1

  9
$DIMBLK2
  1

  9
$DIMSTYLE
  2
ISO-25
  9
$DIMCLRD
 70
0
  9
$DIMCLRE
 70
0
  9
$DIMCLRT
 70
0
  9
$DIMTFAC
 40
1.0
  9
$DIMGAP
 40
0.625
  9
$DIMJUST
 70
0
  9
$DIMSD1
 70
0
  9
$DIMSD2
 70
0
  9
$DIMTOLJ
 70
0
  9
$DIMTZIN
 70
8
  9
$DIMALTZ
 70
0
  9
$DIMALTTZ
 70
0
  9
$DIMUPT
 70
0
  9
$DIMDEC
 70
2
  9
$DIMTDEC
 70
2
  9
$DIMALTU
 70
2
  9
$DIMALTTD
 70
3
  9
$DIMTXSTY
  7
Standard
  9
$DIMAUNIT
 70
0
  9
$DIMADEC
 70
0
  9
$DIMALTRND
 40
0.0
  9
$DIMAZIN
 70
0
  9
$DIMDSEP
 70
44
  9
$DIMATFIT
 70
3
  9
$DIMFRAC
 70
0
  9
$DIMLDRBLK
  1

  9
$DIMLUNIT
 70
2
  9
$DIMLWD
 70
-2
  9
$DIMLWE
 70
-2
  9
$DIMTMOVE
 70
0
  9
$DIMFXL
 40
1.0
  9
$DIMFXLON
 70
0
  9
$DIMJOGANG
 40
0.785398163397
  9
$DIMTFILL
 70
0
  9
$DIMTFILLCLR
 70
0
  9
$DIMARCSYM
 70
0
  9
$DIMLTYPE
  6

  9
$DIMLTEX1
  6

  9
$DIMLTEX2
  6

  9
$DIMTXTDIRECTION
 70
0
  9
$LUNITS
 70
2
  9
$LUPREC
 70
4
  9
$SKETCHINC
 40
1.0
  9
$FILLETRAD
 40
10.0
  9
$AUNITS
 70
0
  9
$AUPREC
 70
2
  9
$MENU
  1
.
  9
$ELEVATION
 40
0.0
  9
$PELEVATION
 40
0.0
  9
$THICKNESS
 40
0.0
  9
$LIMCHECK
 70
0
  9
$CHAMFERA
 40
0.0
  9
$CHAMFERB
 40
0.0
  9
$CHAMFERC
 40
0.0
  9
$CHAMFERD
 40
0.0
  9
$SKPOLY
 70
0
  9
$TDCREATE
 40
2460825.777060185
  9
$TDUCREATE
 40
2458532.153996898
  9
$TDUPDATE
 40
2460825.777060185
  9
$TDUUPDATE
 40
2458532.1544311
  9
$TDINDWG
 40
0.0
  9
$TDUSRTIMER
 40
0.0
  9
$USRTIMER
 70
1
  9
$ANGBASE
 50
0.0
  9
$ANGDIR
 70
0
  9
$PDMODE
 70
0
  9
$PDSIZE
 40
0.0
  9
$PLINEWID
 40
0.0
  9
$SPLFRAME
 70
0
  9
$SPLINETYPE
 70
6
  9
$SPLINESEGS
 70
8
  9
$HANDSEED
  5
3B
  9
$SURFTAB1
 70
6
  9
$SURFTAB2
 70
6
  9
$SURFTYPE
 70
6
  9
$SURFU
 70
6
  9
$SURFV
 70
6
  9
$UCSBASE
  2

  9
$UCSNAME
  2

  9
$UCSORG
 10
0.0
 20
0.0
 30
0.0
  9
$UCSXDIR
 10
1.0
 20
0.0
 30
0.0
  9
$UCSYDIR
 10
0.0
 20
1.0
 30
0.0
  9
$UCSORTHOREF
  2

  9
$UCSORTHOVIEW
 70
0
  9
$UCSORGTOP
 10
0.0
 20
0.0
 30
0.0
  9
$UCSORGBOTTOM
 10
0.0
 20
0.0
 30
0.0
  9
$UCSORGLEFT
 10
0.0
 20
0.0
 30
0.0
  9
$UCSORGRIGHT
 10
0.0
 20
0.0
 30
0.0
  9
$UCSORGFRONT
 10
0.0
 20
0.0
 30
0.0
  9
$UCSORGBACK
 10
0.0
 20
0.0
 30
0.0
  9
$PUCSBASE
  2

  9
$PUCSNAME
  2

  9
$PUCSORG
 10
0.0
 20
0.0
 30
0.0
  9
$PUCSXDIR
 10
1.0
 20
0.0
 30
0.0
  9
$PUCSYDIR
 10
0.0
 20
1.0
 30
0.0
  9
$PUCSORTHOREF
  2

  9
$PUCSORTHOVIEW
 70
0
  9
$PUCSORGTOP
 10
0.0
 20
0.0
 30
0.0
  9
$PUCSORGBOTTOM
 10
0.0
 20
0.0
 30
0.0
  9
$PUCSORGLEFT
 10
0.0
 20
0.0
 30
0.0
  9
$PUCSORGRIGHT
 10
0.0
 20
0.0
 30
0.0
  9
$PUCSORGFRONT
 10
0.0
 20
0.0
 30
0.0
  9
$PUCSORGBACK
 10
0.0
 20
0.0
 30
0.0
  9
$USERI1
 70
0
  9
$USERI2
 70
0
  9
$USERI3
 70
0
  9
$USERI4
 70
0
  9
$USERI5
 70
0
  9
$USERR1
 40
0.0
  9
$USERR2
 40
0.0
  9
$USERR3
 40
0.0
  9
$USERR4
 40
0.0
  9
$USERR5
 40
0.0
  9
$WORLDVIEW
 70
1
  9
$SHADEDGE
 70
3
  9
$SHADEDIF
 70
70
  9
$TILEMODE
 70
1
  9
$MAXACTVP
 70
64
  9
$PINSBASE
 10
0.0
 20
0.0
 30
0.0
  9
$PLIMCHECK
 70
0
  9
$PEXTMIN
 10
1e+20
 20
1e+20
 30
1e+20
  9
$PEXTMAX
 10
-1e+20
 20
-1e+20
 30
-1e+20
  9
$PLIMMIN
 10
0.0
 20
0.0
  9
$PLIMMAX
 10
420.0
 20
297.0
  9
$UNITMODE
 70
0
  9
$VISRETAIN
 70
1
  9
$PLINEGEN
 70
0
  9
$PSLTSCALE
 70
1
  9
$TREEDEPTH
 70
3020
  9
$CMLSTYLE
  2
Standard
  9
$CMLJUST
 70
0
  9
$CMLSCALE
 40
20.0
  9
$PROXYGRAPHICS
 70
1
  9
$MEASUREMENT
 70
1
  9
$CELWEIGHT
370
-1
  9
$ENDCAPS
280
0
  9
$JOINSTYLE
280
0
  9
$LWDISPLAY
290
0
  9
$INSUNITS
 70
6
  9
$HYPERLINKBASE
  1

  9
$STYLESHEET
  1

  9
$XEDIT
290
1
  9
$CEPSNTYPE
380
0
  9
$PSTYLEMODE
290
1
  9
$FINGERPRINTGUID
  2
{A917C08A-F8EA-429E-BEA2-8E9421D34729}
  9
$VERSIONGUID
  2
{89E219F7-8544-4EDC-BD45-D6873C015189}
  9
$EXTNAMES
290
1
  9
$PSVPSCALE
 40
0.0
  9
$OLESTARTUP
290
0
  9
$SORTENTS
280
127
  9
$INDEXCTL
280
0
  9
$HIDETEXT
280
1
  9
$XCLIPFRAME
280
0
  9
$HALOGAP
280
0
  9
$OBSCOLOR
 70
257
  9
$OBSLTYPE
280
0
  9
$INTERSECTIONDISPLAY
280
0
  9
$INTERSECTIONCOLOR
 70
257
  9
$DIMASSOC
280
2
  9
$PROJECTNAME
  1

  9
$CAMERADISPLAY
290
0
  9
$LENSLENGTH
 40
50.0
  9
$CAMERAHEIGHT
 40
0.0
  9
$STEPSPERSEC
 40
24.0
  9
$STEPSIZE
 40
100.0
  9
$3DDWFPREC
 40
2.0
  9
$PSOLWIDTH
 40
0.005
  9
$PSOLHEIGHT
 40
0.08
  9
$LOFTANG1
 40
1.570796326795
  9
$LOFTANG2
 40
1.570796326795
  9
$LOFTMAG1
 40
0.0
  9
$LOFTMAG2
 40
0.0
  9
$LOFTPARAM
 70
7
  9
$LOFTNORMALS
280
1
  9
$LATITUDE
 40
37.795
  9
$LONGITUDE
 40
-122.394
  9
$NORTHDIRECTION
 40
0.0
  9
$TIMEZONE
 70
-8000
  9
$LIGHTGLYPHDISPLAY
280
1
  9
$TILEMODELIGHTSYNCH
280
1
  9
$CMATERIAL
347
20
  9
$SOLIDHIST
280
0
  9
$SHOWHIST
280
1
  9
$DWFFRAME
280
2
  9
$DGNFRAME
280
2
  9
$REALWORLDSCALE
290
1
  9
$INTERFERECOLOR
 62
256
  9
$CSHADOW
280
0
  9
$SHADOWPLANELOCATION
 40
0.0
  0
ENDSEC
  0
SECTION
  2
CLASSES
  0
CLASS
  1
ACDBDICTIONARYWDFLT
  2
AcDbDictionaryWithDefault
  3
ObjectDBX Classes
 90
0
 91
0
280
0
281
0
  0
CLASS
  1
SUN
  2
AcDbSun
  3
SCENEOE
 90
1153
 91
0
280
0
281
0
  0
CLASS
  1
VISUALSTYLE
  2
AcDbVisualStyle
  3
ObjectDBX Classes
 90
4095
 91
0
280
0
281
0
  0
CLASS
  1
MATERIAL
  2
AcDbMaterial
  3
ObjectDBX Classes
 90
1153
 91
0
280
0
281
0
  0
CLASS
  1
SCALE
  2
AcDbScale
  3
ObjectDBX Classes
 90
1153
 91
0
280
0
281
0
  0
CLASS
  1
TABLESTYLE
  2
AcDbTableStyle
  3
ObjectDBX Classes
 90
4095
 91
0
280
0
281
0
  0
CLASS
  1
MLEADERSTYLE
  2
AcDbMLeaderStyle
  3
ACDB_MLEADERSTYLE_CLASS
 90
4095
 91
0
280
0
281
0
  0
CLASS
  1
DICTIONARYVAR
  2
AcDbDictionaryVar
  3
ObjectDBX Classes
 90
0
 91
0
280
0
281
0
  0
CLASS
  1
CELLSTYLEMAP
  2
AcDbCellStyleMap
  3
ObjectDBX Classes
 90
1152
 91
0
280
0
281
0
  0
CLASS
  1
MENTALRAYRENDERSETTINGS
  2
AcDbMentalRayRenderSettings
  3
SCENEOE
 90
1024
 91
0
280
0
281
0
  0
CLASS
  1
ACDBDETAILVIEWSTYLE
  2
AcDbDetailViewStyle
  3
ObjectDBX Classes
 90
1025
 91
0
280
0
281
0
  0
CLASS
  1
ACDBSECTIONVIEWSTYLE
  2
AcDbSectionViewStyle
  3
ObjectDBX Classes
 90
1025
 91
0
280
0
281
0
  0
CLASS
  1
RASTERVARIABLES
  2
AcDbRasterVariables
  3
ISM
 90
0
 91
0
280
0
281
0
  0
CLASS
  1
LAYOUT
  2
AcDbLayout
  3
ObjectDBX Classes
 90
0
 91
0
280
0
281
0
  0
CLASS
  1
ACDBPLACEHOLDER
  2
AcDbPlaceHolder
  3
ObjectDBX Classes
 90
0
 91
0
280
0
281
0
  0
ENDSEC
  0
SECTION
  2
TABLES
  0
TABLE
  2
VPORT
  5
8
330
0
100
AcDbSymbolTable
 70
1
  0
VPORT
  5
23
330
8
100
AcDbSymbolTableRecord
100
AcDbViewportTableRecord
  2
*Active
 70
0
 10
0.0
 20
0.0
 11
1.0
 21
1.0
 12
0.0
 22
0.0
 13
0.0
 23
0.0
 14
0.5
 24
0.5
 15
0.5
 25
0.5
 16
0.0
 26
0.0
 36
1.0
 17
0.0
 27
0.0
 37
0.0
 40
1000.0
 41
1.34
 42
50.0
 43
0.0
 44
0.0
 50
0.0
 51
0.0
 71
0
 72
1000
 73
1
 74
3
 75
0
 76
0
 77
0
 78
0
281
0
 65
0
146
0.0
  0
ENDTAB
  0
TABLE
  2
LTYPE
  5
2
330
0
100
AcDbSymbolTable
 70
3
  0
LTYPE
  5
24
330
2
100
AcDbSymbolTableRecord
100
AcDbLinetypeTableRecord
  2
ByBlock
 70
0
  3

 72
65
 73
0
 40
0.0
  0
LTYPE
  5
25
330
2
100
AcDbSymbolTableRecord
100
AcDbLinetypeTableRecord
  2
ByLayer
 70
0
  3

 72
65
 73
0
 40
0.0
  0
LTYPE
  5
26
330
2
100
AcDbSymbolTableRecord
100
AcDbLinetypeTableRecord
  2
Continuous
 70
0
  3

 72
65
 73
0
 40
0.0
  0
ENDTAB
  0
TABLE
  2
LAYER
  5
1
330
0
100
AcDbSymbolTable
 70
2
  0
LAYER
  5
27
330
1
100
AcDbSymbolTableRecord
100
AcDbLayerTableRecord
  2
0
 70
0
 62
7
  6
Continuous
370
-3
390
13
347
21
  0
LAYER
  5
28
330
1
100
AcDbSymbolTableRecord
100
AcDbLayerTableRecord
  2
Defpoints
 70
0
 62
7
  6
Continuous
290
0
370
-3
390
13
347
21
  0
ENDTAB
  0
TABLE
  2
STYLE
  5
5
330
0
100
AcDbSymbolTable
 70
1
  0
STYLE
  5
29
330
5
100
AcDbSymbolTableRecord
100
AcDbTextStyleTableRecord
  2
Standard
 70
0
 40
0.0
 41
1.0
 50
0.0
 71
0
 42
2.5
  3
txt
  4

  0
ENDTAB
  0
TABLE
  2
VIEW
  5
7
330
0
100
AcDbSymbolTable
 70
0
  0
ENDTAB
  0
TABLE
  2
UCS
  5
6
330
0
100
AcDbSymbolTable
 70
0
  0
ENDTAB
  0
TABLE
  2
APPID
  5
3
330
0
100
AcDbSymbolTable
 70
3
  0
APPID
  5
2A
330
3
100
AcDbSymbolTableRecord
100
AcDbRegAppTableRecord
  2
ACAD
 70
0
  0
APPID
  5
38
330
3
100
AcDbSymbolTableRecord
100
AcDbRegAppTableRecord
  2
HATCHBACKGROUNDCOLOR
 70
0
  0
APPID
  5
39
330
3
100
AcDbSymbolTableRecord
100
AcDbRegAppTableRecord
  2
EZDXF
 70
0
  0
ENDTAB
  0
TABLE
  2
DIMSTYLE
  5
4
330
0
100
AcDbSymbolTable
 70
1
100
AcDbDimStyleTable
  0
DIMSTYLE
105
2B
330
4
100
AcDbSymbolTableRecord
100
AcDbDimStyleTableRecord
  2
Standard
 70
0
 40
1.0
 41
2.5
 42
0.625
 43
3.75
 44
1.25
 45
0.0
 46
0.0
 47
0.0
 48
0.0
 49
2.5
140
2.5
141
2.5
142
0.0
143
0.03937007874
144
1.0
145
0.0
146
1.0
147
0.625
148
0.0
 69
0
 70
0
 71
0
 72
0
 73
0
 74
0
 75
0
 76
0
 77
1
 78
8
 79
3
170
0
171
3
172
1
173
0
174
0
175
0
176
0
177
0
178
0
179
2
271
2
272
2
273
2
274
3
275
0
276
0
277
2
278
44
279
0
280
0
281
0
282
0
283
0
284
8
285
0
286
0
288
0
289
3
290
0
371
-2
372
-2
  0
ENDTAB
  0
TABLE
  2
BLOCK_RECORD
  5
9
330
0
100
AcDbSymbolTable
 70
2
  0
BLOCK_RECORD
  5
17
330
9
100
AcDbSymbolTableRecord
100
AcDbBlockTableRecord
  2
*Model_Space
340
1A
 70
0
280
1
281
0
  0
BLOCK_RECORD
  5
1B
330
9
100
AcDbSymbolTableRecord
100
AcDbBlockTableRecord
  2
*Paper_Space
340
1E
 70
0
280
1
281
0
  0
ENDTAB
  0
ENDSEC
  0
SECTION
  2
BLOCKS
  0
BLOCK
  5
18
330
17
100
AcDbEntity
  8
0
100
AcDbBlockBegin
  2
*Model_Space
 70
0
 10
0.0
 20
0.0
 30
0.0
  3
*Model_Space
  1

  0
ENDBLK
  5
19
330
17
100
AcDbEntity
  8
0
100
AcDbBlockEnd
  0
BLOCK
  5
1C
330
1B
100
AcDbEntity
  8
0
100
AcDbBlockBegin
  2
*Paper_Space
 70
0
 10
0.0
 20
0.0
 30
0.0
  3
*Paper_Space
  1

  0
ENDBLK
  5
1D
330
1B
100
AcDbEntity
  8
0
100
AcDbBlockEnd
  0
ENDSEC
  0
SECTION
  2
ENTITIES
  0
LWPOLYLINE
  5
2F
330
17
100
AcDbEntity
  8
0
100
AcDbPolyline
 90
51
 70
0
 10
-7.499999999999998
 20
12.0
 10
-7.499999999999998
 20
11.86
 10
-7.499999999999998
 20
11.719999999999999
 10
-7.499999999999998
 20
11.58
 10
-7.499999999999998
 20
11.44
 10
-7.499999999999998
 20
11.3
 10
-7.499999999999998
 20
11.16
 10
-7.499999999999998
 20
11.02
 10
-7.499999999999998
 20
10.879999999999999
 10
-7.499999999999998
 20
10.74
 10
-7.499999999999998
 20
10.6
 10
-7.499999999999998
 20
10.46
 10
-7.499999999999999
 20
10.32
 10
-7.499999999999999
 20
10.18
 10
-7.499999999999999
 20
10.04
 10
-7.499999999999999
 20
9.9
 10
-7.499999999999999
 20
9.76
 10
-7.499999999999999
 20
9.620000000000001
 10
-7.499999999999999
 20
9.48
 10
-7.499999999999999
 20
9.34
 10
-7.499999999999999
 20
9.2
 10
-7.499999999999999
 20
9.06
 10
-7.499999999999999
 20
8.92
 10
-7.499999999999999
 20
8.78
 10
-7.499999999999999
 20
8.64
 10
-7.499999999999999
 20
8.5
 10
-7.499999999999999
 20
8.36
 10
-7.499999999999999
 20
8.22
 10
-7.499999999999999
 20
8.08
 10
-7.499999999999999
 20
7.94
 10
-7.499999999999999
 20
7.8
 10
-7.499999999999999
 20
7.66
 10
-7.499999999999999
 20
7.52
 10
-7.499999999999999
 20
7.38
 10
-7.499999999999999
 20
7.24
 10
-7.499999999999999
 20
7.1
 10
-7.499999999999999
 20
6.96
 10
-7.499999999999999
 20
6.82
 10
-7.5
 20
6.68
 10
-7.5
 20
6.54
 10
-7.5
 20
6.4
 10
-7.5
 20
6.26
 10
-7.5
 20
6.12
 10
-7.5
 20
5.98
 10
-7.5
 20
5.84
 10
-7.5
 20
5.7
 10
-7.5
 20
5.56
 10
-7.5
 20
5.42
 10
-7.5
 20
5.28
 10
-7.5
 20
5.14
 10
-7.5
 20
5.0
  0
LWPOLYLINE
  5
30
330
17
100
AcDbEntity
  8
0
100
AcDbPolyline
 90
51
 70
0
 10
-21.5
 20
1.527666881884215e-15
 10
-20.14
 20
1.4310330698208413e-15
 10
-18.78
 20
1.3343992577574677e-15
 10
-17.42
 20
1.2377654456940943e-15
 10
-16.06
 20
1.1411316336307205e-15
 10
-14.7
 20
1.0444978215673468e-15
 10
-13.34
 20
9.478640095039734e-16
 10
-11.98
 20
8.512301974405998e-16
 10
-10.62
 20
7.545963853772261e-16
 10
-9.26
 20
6.579625733138526e-16
 10
-7.9
 20
5.61328761250479e-16
 10
-6.539999999999999
 20
4.646949491871053e-16
 10
-5.18
 20
3.6806113712373174e-16
 10
-3.8200000000000003
 20
2.714273250603582e-16
 10
-2.460000000000001
 20
1.7479351299698465e-16
 10
-1.1000000000000014
 20
7.815970093361109e-17
 10
0.26000000000000156
 20
-1.847411112976271e-17
 10
1.620000000000001
 20
-1.1510792319313627e-16
 10
2.9800000000000004
 20
-2.117417352565098e-16
 10
4.34
 20
-3.083755473198834e-16
 10
5.699999999999999
 20
-4.050093593832569e-16
 10
7.059999999999999
 20
-5.016431714466305e-16
 10
8.420000000000002
 20
-5.982769835100042e-16
 10
9.780000000000001
 20
-6.949107955733779e-16
 10
11.14
 20
-7.915446076367514e-16
 10
12.5
 20
-8.881784197001249e-16
 10
13.86
 20
-9.848122317634985e-16
 10
15.219999999999999
 20
-1.0814460438268721e-15
 10
16.58
 20
-1.1780798558902455e-15
 10
17.939999999999998
 20
-1.2747136679536192e-15
 10
19.299999999999997
 20
-1.3713474800169928e-15
 10
20.659999999999997
 20
-1.4679812920803662e-15
 10
22.020000000000003
 20
-1.5646151041437403e-15
 10
23.380000000000003
 20
-1.6612489162071139e-15
 10
24.740000000000002
 20
-1.7578827282704873e-15
 10
26.1
 20
-1.854516540333861e-15
 10
27.46
 20
-1.9511503523972344e-15
 10
28.82
 20
-2.047784164460608e-15
 10
30.18
 20
-2.1444179765239817e-15
 10
31.54
 20
-2.2410517885873553e-15
 10
32.9
 20
-2.337685600650729e-15
 10
34.26
 20
-2.434319412714102e-15
 10
35.62
 20
-2.5309532247774758e-15
 10
36.98
 20
-2.6275870368408494e-15
 10
38.34
 20
-2.7242208489042235e-15
 10
39.7
 20
-2.820854660967597e-15
 10
41.06
 20
-2.9174884730309707e-15
 10
42.42
 20
-3.014122285094344e-15
 10
43.78
 20
-3.1107560971577176e-15
 10
45.14
 20
-3.2073899092210912e-15
 10
46.5
 20
-3.304023721284465e-15
  0
LWPOLYLINE
  5
31
330
17
100
AcDbEntity
  8
0
100
AcDbPolyline
 90
51
 70
0
 10
46.5
 20
-3.30402372128447e-15
 10
46.5
 20
0.09999999999999677
 10
46.5
 20
0.19999999999999685
 10
46.5
 20
0.2999999999999969
 10
46.5
 20
0.39999999999999697
 10
46.5
 20
0.499999999999997
 10
46.5
 20
0.5999999999999971
 10
46.5
 20
0.6999999999999973
 10
46.5
 20
0.7999999999999973
 10
46.5
 20
0.8999999999999972
 10
46.5
 20
0.9999999999999973
 10
46.5
 20
1.0999999999999974
 10
46.5
 20
1.1999999999999975
 10
46.5
 20
1.2999999999999976
 10
46.5
 20
1.399999999999998
 10
46.5
 20
1.4999999999999978
 10
46.5
 20
1.5999999999999979
 10
46.5
 20
1.6999999999999977
 10
46.5
 20
1.7999999999999978
 10
46.5
 20
1.8999999999999981
 10
46.5
 20
1.999999999999998
 10
46.5
 20
2.0999999999999983
 10
46.5
 20
2.1999999999999984
 10
46.5
 20
2.2999999999999985
 10
46.5
 20
2.3999999999999986
 10
46.5
 20
2.4999999999999987
 10
46.5
 20
2.5999999999999988
 10
46.5
 20
2.6999999999999984
 10
46.5
 20
2.7999999999999994
 10
46.5
 20
2.899999999999999
 10
46.5
 20
2.999999999999999
 10
46.5
 20
3.099999999999999
 10
46.5
 20
3.1999999999999993
 10
46.5
 20
3.2999999999999994
 10
46.5
 20
3.399999999999999
 10
46.5
 20
3.499999999999999
 10
46.5
 20
3.599999999999999
 10
46.5
 20
3.6999999999999997
 10
46.5
 20
3.8
 10
46.5
 20
3.9
 10
46.5
 20
3.999999999999999
 10
46.5
 20
4.1
 10
46.5
 20
4.199999999999999
 10
46.5
 20
4.299999999999999
 10
46.5
 20
4.3999999999999995
 10
46.5
 20
4.5
 10
46.5
 20
4.6
 10
46.5
 20
4.7
 10
46.5
 20
4.8
 10
46.5
 20
4.8999999999999995
 10
46.5
 20
5.0
  0
LWPOLYLINE
  5
32
330
17
100
AcDbEntity
  8
0
100
AcDbPolyline
 90
51
 70
0
 10
-7.500000000000007
 20
5.0
 10
-6.950000000000006
 20
5.0
 10
-6.400000000000006
 20
5.0
 10
-5.850000000000005
 20
5.0
 10
-5.300000000000008
 20
5.0
 10
-4.750000000000007
 20
5.0
 10
-4.200000000000006
 20
5.0
 10
-3.6500000000000057
 20
5.0
 10
-3.100000000000005
 20
5.0
 10
-2.5500000000000043
 20
5.0
 10
-2.000000000000007
 20
5.0
 10
-1.4500000000000064
 20
5.0
 10
-0.9000000000000057
 20
5.0
 10
-0.350000000000005
 20
5.0
 10
0.19999999999999574
 20
5.0
 10
0.7499999999999929
 20
5.0
 10
1.2999999999999972
 20
5.0
 10
1.8499999999999943
 20
5.0
 10
2.399999999999995
 20
5.0
 10
2.9499999999999957
 20
5.0
 10
3.499999999999993
 20
5.0
 10
4.049999999999997
 20
5.0
 10
4.599999999999994
 20
5.0
 10
5.149999999999995
 20
5.0
 10
5.699999999999996
 20
5.0
 10
6.25
 20
5.0
 10
6.799999999999997
 20
5.0
 10
7.349999999999998
 20
5.0
 10
7.899999999999999
 20
5.0
 10
8.449999999999996
 20
5.0
 10
8.999999999999996
 20
5.0
 10
9.549999999999997
 20
5.0
 10
10.099999999999998
 20
5.0
 10
10.649999999999999
 20
5.0
 10
11.199999999999996
 20
5.0
 10
11.749999999999996
 20
5.0
 10
12.299999999999997
 20
5.0
 10
12.849999999999998
 20
5.0
 10
13.399999999999999
 20
5.0
 10
13.949999999999996
 20
5.0
 10
14.499999999999996
 20
5.0
 10
15.049999999999997
 20
5.0
 10
15.599999999999998
 20
5.0
 10
16.15
 20
5.0
 10
16.699999999999996
 20
5.0
 10
17.249999999999996
 20
5.0
 10
17.799999999999997
 20
5.0
 10
18.349999999999998
 20
5.0
 10
18.900000000000002
 20
5.0
 10
19.450000000000003
 20
5.0
 10
20.000000000000004
 20
5.0
  0
LWPOLYLINE
  5
33
330
17
100
AcDbEntity
  8
0
100
AcDbPolyline
 90
51
 70
0
 10
46.5
 20
5.0
 10
45.42
 20
5.0
 10
44.34
 20
5.0
 10
43.26
 20
5.0
 10
42.18
 20
5.0
 10
41.1
 20
5.0
 10
40.019999999999996
 20
5.0
 10
38.94
 20
5.0
 10
37.86
 20
5.0
 10
36.78
 20
5.0
 10
35.7
 20
5.0
 10
34.62
 20
5.0
 10
33.54
 20
5.0
 10
32.46
 20
5.0
 10
31.380000000000003
 20
5.0
 10
30.3
 20
5.0
 10
29.22
 20
5.0
 10
28.14
 20
5.0
 10
27.06
 20
5.0
 10
25.98
 20
5.0
 10
24.9
 20
5.0
 10
23.82
 20
5.0
 10
22.74
 20
5.0
 10
21.66
 20
5.0
 10
20.58
 20
5.0
 10
19.5
 20
5.0
 10
18.42
 20
5.0
 10
17.34
 20
5.0
 10
16.26
 20
5.0
 10
15.18
 20
5.0
 10
14.100000000000001
 20
5.0
 10
13.020000000000003
 20
5.0
 10
11.939999999999998
 20
5.0
 10
10.86
 20
5.0
 10
9.780000000000001
 20
5.0
 10
8.700000000000003
 20
5.0
 10
7.619999999999997
 20
5.0
 10
6.539999999999999
 20
5.0
 10
5.460000000000001
 20
5.0
 10
4.380000000000003
 20
5.0
 10
3.299999999999997
 20
5.0
 10
2.219999999999999
 20
5.0
 10
1.1400000000000006
 20
5.0
 10
0.060000000000002274
 20
5.0
 10
-1.0200000000000031
 20
5.0
 10
-2.1000000000000014
 20
5.0
 10
-3.1799999999999997
 20
5.0
 10
-4.259999999999998
 20
5.0
 10
-5.340000000000003
 20
5.0
 10
-6.420000000000002
 20
5.0
 10
-7.5
 20
5.0
  0
LWPOLYLINE
  5
34
330
17
100
AcDbEntity
  8
0
100
AcDbPolyline
 90
51
 70
0
 10
-7.5
 20
5.0
 10
-7.5
 20
5.14
 10
-7.5
 20
5.28
 10
-7.5
 20
5.42
 10
-7.5
 20
5.5600000000000005
 10
-7.5
 20
5.7
 10
-7.5
 20
5.84
 10
-7.5
 20
5.98
 10
-7.5
 20
6.12
 10
-7.5
 20
6.26
 10
-7.5
 20
6.4
 10
-7.5
 20
6.54
 10
-7.5
 20
6.68
 10
-7.499999999999999
 20
6.82
 10
-7.499999999999999
 20
6.96
 10
-7.499999999999999
 20
7.1
 10
-7.499999999999999
 20
7.24
 10
-7.499999999999999
 20
7.38
 10
-7.499999999999999
 20
7.52
 10
-7.499999999999999
 20
7.66
 10
-7.499999999999999
 20
7.8
 10
-7.499999999999999
 20
7.9399999999999995
 10
-7.499999999999999
 20
8.08
 10
-7.499999999999999
 20
8.22
 10
-7.499999999999999
 20
8.36
 10
-7.499999999999999
 20
8.5
 10
-7.499999999999999
 20
8.64
 10
-7.499999999999999
 20
8.78
 10
-7.499999999999999
 20
8.92
 10
-7.499999999999999
 20
9.059999999999999
 10
-7.499999999999999
 20
9.2
 10
-7.499999999999999
 20
9.34
 10
-7.499999999999999
 20
9.48
 10
-7.499999999999999
 20
9.620000000000001
 10
-7.499999999999999
 20
9.76
 10
-7.499999999999999
 20
9.9
 10
-7.499999999999999
 20
10.04
 10
-7.499999999999999
 20
10.18
 10
-7.499999999999999
 20
10.32
 10
-7.499999999999998
 20
10.46
 10
-7.499999999999998
 20
10.6
 10
-7.499999999999998
 20
10.74
 10
-7.499999999999998
 20
10.879999999999999
 10
-7.499999999999998
 20
11.02
 10
-7.499999999999998
 20
11.16
 10
-7.499999999999998
 20
11.3
 10
-7.499999999999998
 20
11.440000000000001
 10
-7.499999999999998
 20
11.58
 10
-7.499999999999998
 20
11.719999999999999
 10
-7.499999999999998
 20
11.86
 10
-7.499999999999998
 20
12.0
  0
LWPOLYLINE
  5
35
330
17
100
AcDbEntity
  8
0
100
AcDbPolyline
 90
51
 70
0
 10
-7.5
 20
11.999999999999998
 10
-7.513812901002099
 20
12.439533636705189
 10
-7.5551970907986545
 20
12.877332634950129
 10
-7.623989244899179
 20
13.31166920210007
 10
-7.7199178720995825
 20
13.740829210153985
 10
-7.8426043859339245
 20
14.16311896062463
 10
-7.991564598782239
 20
14.576871868792741
 10
-8.166210632737863
 20
14.980455040955508
 10
-8.365853239692953
 20
15.372275718712004
 10
-8.589704521485896
 20
15.750787564852978
 10
-8.836881039375367
 20
16.11449676604731
 10
-9.106407300569472
 20
16.461967928240824
 10
-9.397219608050118
 20
16.79182974150082
 10
-9.708170258499177
 20
17.102780391949878
 10
-10.038032071759172
 20
17.393592699430528
 10
-10.385503233952686
 20
17.66311896062463
 10
-10.74921243514702
 20
17.910295478514104
 10
-11.127724281287993
 20
18.134146760307047
 10
-11.519544959044488
 20
18.333789367262135
 10
-11.923128131207255
 20
18.50843540121776
 10
-12.336881039375367
 20
18.657395614066075
 10
-12.759170789846012
 20
18.780082127900418
 10
-13.188330797899926
 20
18.876010755100822
 10
-13.622667365049868
 20
18.944802909201343
 10
-14.060466363294807
 20
18.986187098997902
 10
-14.499999999999998
 20
19.0
 10
-14.939533636705189
 20
18.986187098997902
 10
-15.377332634950129
 20
18.944802909201346
 10
-15.81166920210007
 20
18.876010755100822
 10
-16.240829210153983
 20
18.780082127900418
 10
-16.66311896062463
 20
18.657395614066075
 10
-17.076871868792743
 20
18.50843540121776
 10
-17.48045504095551
 20
18.333789367262135
 10
-17.87227571871201
 20
18.134146760307043
 10
-18.250787564852978
 20
17.910295478514104
 10
-18.61449676604731
 20
17.663118960624633
 10
-18.961967928240824
 20
17.393592699430528
 10
-19.29182974150082
 20
17.10278039194988
 10
-19.602780391949878
 20
16.791829741500823
 10
-19.893592699430524
 20
16.461967928240828
 10
-20.16311896062463
 20
16.114496766047314
 10
-20.410295478514104
 20
15.75078756485298
 10
-20.634146760307047
 20
15.372275718712007
 10
-20.833789367262135
 20
14.980455040955512
 10
-21.00843540121776
 20
14.576871868792745
 10
-21.157395614066075
 20
14.163118960624633
 10
-21.280082127900418
 20
13.740829210153988
 10
-21.376010755100822
 20
13.311669202100074
 10
-21.444802909201343
 20
12.877332634950132
 10
-21.486187098997902
 20
12.439533636705193
 10
-21.5
 20
12.000000000000002
  0
LWPOLYLINE
  5
36
330
17
100
AcDbEntity
  8
0
100
AcDbPolyline
 90
51
 70
0
 10
-21.5
 20
12.0
 10
-21.5
 20
11.76
 10
-21.5
 20
11.52
 10
-21.5
 20
11.28
 10
-21.5
 20
11.04
 10
-21.5
 20
10.8
 10
-21.5
 20
10.56
 10
-21.5
 20
10.32
 10
-21.5
 20
10.08
 10
-21.5
 20
9.84
 10
-21.5
 20
9.6
 10
-21.5
 20
9.36
 10
-21.5
 20
9.120000000000001
 10
-21.5
 20
8.879999999999999
 10
-21.5
 20
8.64
 10
-21.5
 20
8.4
 10
-21.5
 20
8.16
 10
-21.5
 20
7.92
 10
-21.5
 20
7.68
 10
-21.5
 20
7.44
 10
-21.5
 20
7.2
 10
-21.5
 20
6.96
 10
-21.5
 20
6.72
 10
-21.5
 20
6.48
 10
-21.5
 20
6.24
 10
-21.5
 20
6.0
 10
-21.5
 20
5.76
 10
-21.5
 20
5.52
 10
-21.5
 20
5.28
 10
-21.5
 20
5.04
 10
-21.5
 20
4.8
 10
-21.5
 20
4.56
 10
-21.5
 20
4.32
 10
-21.5
 20
4.08
 10
-21.5
 20
3.84
 10
-21.5
 20
3.5999999999999996
 10
-21.5
 20
3.3599999999999994
 10
-21.5
 20
3.119999999999999
 10
-21.5
 20
2.880000000000001
 10
-21.5
 20
2.6400000000000006
 10
-21.5
 20
2.4000000000000004
 10
-21.5
 20
2.16
 10
-21.5
 20
1.92
 10
-21.5
 20
1.6799999999999997
 10
-21.5
 20
1.4399999999999995
 10
-21.5
 20
1.1999999999999993
 10
-21.5
 20
0.9600000000000009
 10
-21.5
 20
0.7200000000000006
 10
-21.5
 20
0.4800000000000004
 10
-21.5
 20
0.2400000000000002
 10
-21.5
 20
0.0
  0
LWPOLYLINE
  5
37
330
17
100
AcDbEntity
  8
0
100
AcDbPolyline
 90
51
 70
0
 10
-14.5
 20
16.0
 10
-15.001332934257217
 20
15.968458805257912
 10
-15.494759548659419
 20
15.874332644514524
 10
-15.972498210738712
 20
15.719105943553005
 10
-16.42701469640686
 20
15.505226720175454
 10
-16.851141009169893
 20
15.23606797749979
 10
-17.238188423714753
 20
14.915874509685647
 10
-17.582052971103156
 20
14.549695958994759
 10
-17.87731170200806
 20
14.143307179915986
 10
-18.11930820986408
 20
13.703117166260292
 10
-18.304226065180615
 20
13.23606797749979
 10
-18.429149002914755
 20
12.7495252583429
 10
-18.492106913713087
 20
12.251162078117254
 10
-18.492106913713087
 20
11.748837921882746
 10
-18.429149002914755
 20
11.2504747416571
 10
-18.304226065180615
 20
10.763932022500212
 10
-18.119308209864077
 20
10.296882833739708
 10
-17.87731170200806
 20
9.856692820084012
 10
-17.582052971103156
 20
9.450304041005241
 10
-17.238188423714757
 20
9.084125490314355
 10
-16.851141009169893
 20
8.76393202250021
 10
-16.42701469640686
 20
8.494773279824546
 10
-15.972498210738713
 20
8.280894056446995
 10
-15.49475954865942
 20
8.125667355485476
 10
-15.001332934257219
 20
8.03154119474209
 10
-14.5
 20
8.0
 10
-13.998667065742783
 20
8.031541194742088
 10
-13.505240451340581
 20
8.125667355485476
 10
-13.027501789261288
 20
8.280894056446995
 10
-12.57298530359314
 20
8.494773279824546
 10
-12.14885899083011
 20
8.763932022500208
 10
-11.761811576285247
 20
9.084125490314353
 10
-11.417947028896842
 20
9.450304041005243
 10
-11.122688297991939
 20
9.856692820084014
 10
-10.88069179013592
 20
10.296882833739712
 10
-10.695773934819385
 20
10.76393202250021
 10
-10.570850997085245
 20
11.2504747416571
 10
-10.507893086286913
 20
11.748837921882748
 10
-10.507893086286913
 20
12.251162078117252
 10
-10.570850997085245
 20
12.749525258342898
 10
-10.695773934819385
 20
13.23606797749979
 10
-10.88069179013592
 20
13.703117166260288
 10
-11.12268829799194
 20
14.143307179915986
 10
-11.417947028896842
 20
14.549695958994757
 10
-11.761811576285243
 20
14.915874509685645
 10
-12.148858990830107
 20
15.23606797749979
 10
-12.572985303593136
 20
15.505226720175452
 10
-13.027501789261288
 20
15.719105943553005
 10
-13.505240451340578
 20
15.874332644514524
 10
-13.998667065742781
 20
15.96845880525791
 10
-14.499999999999998
 20
16.0
  0
ENDSEC
  0
SECTION
  2
OBJECTS
  0
DICTIONARY
  5
A
330
0
100
AcDbDictionary
280
0
281
1
  3
ACAD_COLOR
350
B
  3
ACAD_GROUP
350
C
  3
ACAD_LAYOUT
350
D
  3
ACAD_MATERIAL
350
E
  3
ACAD_MLEADERSTYLE
350
F
  3
ACAD_MLINESTYLE
350
10
  3
ACAD_PLOTSETTINGS
350
11
  3
ACAD_PLOTSTYLENAME
350
12
  3
ACAD_SCALELIST
350
14
  3
ACAD_TABLESTYLE
350
15
  3
ACAD_VISUALSTYLE
350
16
  3
EZDXF_META
350
2D
  0
DICTIONARY
  5
B
330
A
100
AcDbDictionary
280
0
281
1
  0
DICTIONARY
  5
C
330
A
100
AcDbDictionary
280
0
281
1
  0
DICTIONARY
  5
D
330
A
100
AcDbDictionary
280
0
281
1
  3
Model
350
1A
  3
Layout1
350
1E
  0
DICTIONARY
  5
E
330
A
100
AcDbDictionary
280
0
281
1
  3
ByBlock
350
1F
  3
ByLayer
350
20
  3
Global
350
21
  0
DICTIONARY
  5
F
330
A
100
AcDbDictionary
280
0
281
1
  3
Standard
350
2C
  0
DICTIONARY
  5
10
330
A
100
AcDbDictionary
280
0
281
1
  3
Standard
350
22
  0
DICTIONARY
  5
11
330
A
100
AcDbDictionary
280
0
281
1
  0
ACDBDICTIONARYWDFLT
  5
12
330
A
100
AcDbDictionary
280
0
281
1
  3
Normal
350
13
100
AcDbDictionaryWithDefault
340
13
  0
ACDBPLACEHOLDER
  5
13
330
12
  0
DICTIONARY
  5
14
330
A
100
AcDbDictionary
280
0
281
1
  0
DICTIONARY
  5
15
330
A
100
AcDbDictionary
280
0
281
1
  0
DICTIONARY
  5
16
330
A
100
AcDbDictionary
280
0
281
1
  0
LAYOUT
  5
1A
330
D
100
AcDbPlotSettings
  1

  2
Adobe PDF
  4
A3
  6

 40
7.5
 41
20.0
 42
7.5
 43
20.0
 44
420.0
 45
297.0
 46
0.0
 47
0.0
 48
0.0
 49
0.0
140
0.0
141
0.0
142
1.0
143
1.0
 70
1024
 72
1
 73
0
 74
5
  7

 75
16
 76
0
 77
2
 78
300
147
1.0
148
0.0
149
0.0
100
AcDbLayout
  1
Model
 70
1
 71
0
 10
0.0
 20
0.0
 11
420.0
 21
297.0
 12
0.0
 22
0.0
 32
0.0
 14
1e+20
 24
1e+20
 34
1e+20
 15
-1e+20
 25
-1e+20
 35
-1e+20
146
0.0
 13
0.0
 23
0.0
 33
0.0
 16
1.0
 26
0.0
 36
0.0
 17
0.0
 27
1.0
 37
0.0
 76
1
330
17
  0
LAYOUT
  5
1E
330
D
100
AcDbPlotSettings
  1

  2
Adobe PDF
  4
A3
  6

 40
7.5
 41
20.0
 42
7.5
 43
20.0
 44
420.0
 45
297.0
 46
0.0
 47
0.0
 48
0.0
 49
0.0
140
0.0
141
0.0
142
1.0
143
1.0
 70
0
 72
1
 73
0
 74
5
  7

 75
16
 76
0
 77
2
 78
300
147
1.0
148
0.0
149
0.0
100
AcDbLayout
  1
Layout1
 70
1
 71
1
 10
0.0
 20
0.0
 11
420.0
 21
297.0
 12
0.0
 22
0.0
 32
0.0
 14
1e+20
 24
1e+20
 34
1e+20
 15
-1e+20
 25
-1e+20
 35
-1e+20
146
0.0
 13
0.0
 23
0.0
 33
0.0
 16
1.0
 26
0.0
 36
0.0
 17
0.0
 27
1.0
 37
0.0
 76
1
330
1B
  0
MATERIAL
  5
1F
102
{ACAD_REACTORS
330
E
102
}
330
E
100
AcDbMaterial
  1
ByBlock
  2

 70
0
 40
1.0
 71
1
 41
1.0
 91
-1023410177
 42
1.0
 72
1
  3

 73
1
 74
1
 75
1
 44
0.5
 73
0
 45
1.0
 46
1.0
 77
1
  4

 78
1
 79
1
170
1
 48
1.0
171
1
  6

172
1
173
1
174
1
140
1.0
141
1.0
175
1
  7

176
1
177
1
178
1
143
1.0
179
1
  8

270
1
271
1
272
1
145
1.0
146
1.0
273
1
  9

274
1
275
1
276
1
 42
1.0
 72
1
  3

 73
1
 74
1
 75
1
 94
63
  0
MATERIAL
  5
20
102
{ACAD_REACTORS
330
E
102
}
330
E
100
AcDbMaterial
  1
ByLayer
  2

 70
0
 40
1.0
 71
1
 41
1.0
 91
-1023410177
 42
1.0
 72
1
  3

 73
1
 74
1
 75
1
 44
0.5
 73
0
 45
1.0
 46
1.0
 77
1
  4

 78
1
 79
1
170
1
 48
1.0
171
1
  6

172
1
173
1
174
1
140
1.0
141
1.0
175
1
  7

176
1
177
1
178
1
143
1.0
179
1
  8

270
1
271
1
272
1
145
1.0
146
1.0
273
1
  9

274
1
275
1
276
1
 42
1.0
 72
1
  3

 73
1
 74
1
 75
1
 94
63
  0
MATERIAL
  5
21
102
{ACAD_REACTORS
330
E
102
}
330
E
100
AcDbMaterial
  1
Global
  2

 70
0
 40
1.0
 71
1
 41
1.0
 91
-1023410177
 42
1.0
 72
1
  3

 73
1
 74
1
 75
1
 44
0.5
 73
0
 45
1.0
 46
1.0
 77
1
  4

 78
1
 79
1
170
1
 48
1.0
171
1
  6

172
1
173
1
174
1
140
1.0
141
1.0
175
1
  7

176
1
177
1
178
1
143
1.0
179
1
  8

270
1
271
1
272
1
145
1.0
146
1.0
273
1
  9

274
1
275
1
276
1
 42
1.0
 72
1
  3

 73
1
 74
1
 75
1
 94
63
  0
MLINESTYLE
  5
22
102
{ACAD_REACTORS
330
10
102
}
330
10
100
AcDbMlineStyle
  2
Standard
 70
0
  3

 62
256
 51
90.0
 52
90.0
 71
2
 49
0.5
 62
256
  6
BYLAYER
 49
-0.5
 62
256
  6
BYLAYER
  0
MLEADERSTYLE
  5
2C
102
{ACAD_REACTORS
330
F
102
}
330
F
100
AcDbMLeaderStyle
179
2
170
2
171
1
172
0
 90
2
 40
0.0
 41
0.0
173
1
 91
-1056964608
 92
-2
290
1
 42
2.0
291
1
 43
8.0
  3
Standard
 44
4.0
300

342
29
174
1
175
1
176
0
178
1
 93
-1056964608
 45
4.0
292
0
297
0
 46
4.0
 94
-1056964608
 47
1.0
 49
1.0
140
1.0
294
1
141
0.0
177
0
142
1.0
295
0
296
0
143
3.75
271
0
272
9
273
9
  0
DICTIONARY
  5
2D
330
A
100
AcDbDictionary
281
1
  3
CREATED_BY_EZDXF
350
2E
  3
WRITTEN_BY_EZDXF
350
3A
  0
DICTIONARYVAR
  5
2E
330
2D
100
DictionaryVariables
280
0
  1
1.0.3 @ 2025-05-29T09:38:58.026455+00:00
  0
DICTIONARYVAR
  5
3A
330
2D
100
DictionaryVariables
280
0
  1
1.0.3 @ 2025-05-29T09:38:58.027959+00:00
  0
ENDSEC
  0
EOF
