  0
SECTION
  2
HEADER
  9
$ACADVER
  1
AC1027
  9
$ACADMAINTVER
 70
105
  9
$DWGCODEPAGE
  3
ANSI_1252
  9
$LASTSAVEDBY
  1
ezdxf
  9
$REQUIREDVERSIONS
160
0
  9
$INSBASE
 10
0.0
 20
0.0
 30
0.0
  9
$EXTMIN
 10
1e+20
 20
1e+20
 30
1e+20
  9
$EXTMAX
 10
-1e+20
 20
-1e+20
 30
-1e+20
  9
$LIMMIN
 10
0.0
 20
0.0
  9
$LIMMAX
 10
420.0
 20
297.0
  9
$ORTHOMODE
 70
0
  9
$REGENMODE
 70
1
  9
$FILLMODE
 70
1
  9
$QTEXTMODE
 70
0
  9
$MIRRTEXT
 70
1
  9
$LTSCALE
 40
1.0
  9
$ATTMODE
 70
1
  9
$TEXTSIZE
 40
2.5
  9
$TRACEWID
 40
1.0
  9
$TEXTSTYLE
  7
Standard
  9
$CLAYER
  8
0
  9
$CELTYPE
  6
ByLayer
  9
$CECOLOR
 62
256
  9
$CELTSCALE
 40
1.0
  9
$DISPSILH
 70
0
  9
$DIMSCALE
 40
1.0
  9
$DIMASZ
 40
2.5
  9
$DIMEXO
 40
0.625
  9
$DIMDLI
 40
3.75
  9
$DIMRND
 40
0.0
  9
$DIMDLE
 40
0.0
  9
$DIMEXE
 40
1.25
  9
$DIMTP
 40
0.0
  9
$DIMTM
 40
0.0
  9
$DIMTXT
 40
2.5
  9
$DIMCEN
 40
2.5
  9
$DIMTSZ
 40
0.0
  9
$DIMTOL
 70
0
  9
$DIMLIM
 70
0
  9
$DIMTIH
 70
0
  9
$DIMTOH
 70
0
  9
$DIMSE1
 70
0
  9
$DIMSE2
 70
0
  9
$DIMTAD
 70
1
  9
$DIMZIN
 70
8
  9
$DIMBLK
  1

  9
$DIMASO
 70
1
  9
$DIMSHO
 70
1
  9
$DIMPOST
  1

  9
$DIMAPOST
  1

  9
$DIMALT
 70
0
  9
$DIMALTD
 70
3
  9
$DIMALTF
 40
0.03937007874
  9
$DIMLFAC
 40
1.0
  9
$DIMTOFL
 70
1
  9
$DIMTVP
 40
0.0
  9
$DIMTIX
 70
0
  9
$DIMSOXD
 70
0
  9
$DIMSAH
 70
0
  9
$DIMBLK1
  1

  9
$DIMBLK2
  1

  9
$DIMSTYLE
  2
ISO-25
  9
$DIMCLRD
 70
0
  9
$DIMCLRE
 70
0
  9
$DIMCLRT
 70
0
  9
$DIMTFAC
 40
1.0
  9
$DIMGAP
 40
0.625
  9
$DIMJUST
 70
0
  9
$DIMSD1
 70
0
  9
$DIMSD2
 70
0
  9
$DIMTOLJ
 70
0
  9
$DIMTZIN
 70
8
  9
$DIMALTZ
 70
0
  9
$DIMALTTZ
 70
0
  9
$DIMUPT
 70
0
  9
$DIMDEC
 70
2
  9
$DIMTDEC
 70
2
  9
$DIMALTU
 70
2
  9
$DIMALTTD
 70
3
  9
$DIMTXSTY
  7
Standard
  9
$DIMAUNIT
 70
0
  9
$DIMADEC
 70
0
  9
$DIMALTRND
 40
0.0
  9
$DIMAZIN
 70
0
  9
$DIMDSEP
 70
44
  9
$DIMATFIT
 70
3
  9
$DIMFRAC
 70
0
  9
$DIMLDRBLK
  1

  9
$DIMLUNIT
 70
2
  9
$DIMLWD
 70
-2
  9
$DIMLWE
 70
-2
  9
$DIMTMOVE
 70
0
  9
$DIMFXL
 40
1.0
  9
$DIMFXLON
 70
0
  9
$DIMJOGANG
 40
0.785398163397
  9
$DIMTFILL
 70
0
  9
$DIMTFILLCLR
 70
0
  9
$DIMARCSYM
 70
0
  9
$DIMLTYPE
  6

  9
$DIMLTEX1
  6

  9
$DIMLTEX2
  6

  9
$DIMTXTDIRECTION
 70
0
  9
$LUNITS
 70
2
  9
$LUPREC
 70
4
  9
$SKETCHINC
 40
1.0
  9
$FILLETRAD
 40
10.0
  9
$AUNITS
 70
0
  9
$AUPREC
 70
2
  9
$MENU
  1
.
  9
$ELEVATION
 40
0.0
  9
$PELEVATION
 40
0.0
  9
$THICKNESS
 40
0.0
  9
$LIMCHECK
 70
0
  9
$CHAMFERA
 40
0.0
  9
$CHAMFERB
 40
0.0
  9
$CHAMFERC
 40
0.0
  9
$CHAMFERD
 40
0.0
  9
$SKPOLY
 70
0
  9
$TDCREATE
 40
2460825.7771527776
  9
$TDUCREATE
 40
2458532.153996898
  9
$TDUPDATE
 40
2460825.7771527776
  9
$TDUUPDATE
 40
2458532.1544311
  9
$TDINDWG
 40
0.0
  9
$TDUSRTIMER
 40
0.0
  9
$USRTIMER
 70
1
  9
$ANGBASE
 50
0.0
  9
$ANGDIR
 70
0
  9
$PDMODE
 70
0
  9
$PDSIZE
 40
0.0
  9
$PLINEWID
 40
0.0
  9
$SPLFRAME
 70
0
  9
$SPLINETYPE
 70
6
  9
$SPLINESEGS
 70
8
  9
$HANDSEED
  5
3B
  9
$SURFTAB1
 70
6
  9
$SURFTAB2
 70
6
  9
$SURFTYPE
 70
6
  9
$SURFU
 70
6
  9
$SURFV
 70
6
  9
$UCSBASE
  2

  9
$UCSNAME
  2

  9
$UCSORG
 10
0.0
 20
0.0
 30
0.0
  9
$UCSXDIR
 10
1.0
 20
0.0
 30
0.0
  9
$UCSYDIR
 10
0.0
 20
1.0
 30
0.0
  9
$UCSORTHOREF
  2

  9
$UCSORTHOVIEW
 70
0
  9
$UCSORGTOP
 10
0.0
 20
0.0
 30
0.0
  9
$UCSORGBOTTOM
 10
0.0
 20
0.0
 30
0.0
  9
$UCSORGLEFT
 10
0.0
 20
0.0
 30
0.0
  9
$UCSORGRIGHT
 10
0.0
 20
0.0
 30
0.0
  9
$UCSORGFRONT
 10
0.0
 20
0.0
 30
0.0
  9
$UCSORGBACK
 10
0.0
 20
0.0
 30
0.0
  9
$PUCSBASE
  2

  9
$PUCSNAME
  2

  9
$PUCSORG
 10
0.0
 20
0.0
 30
0.0
  9
$PUCSXDIR
 10
1.0
 20
0.0
 30
0.0
  9
$PUCSYDIR
 10
0.0
 20
1.0
 30
0.0
  9
$PUCSORTHOREF
  2

  9
$PUCSORTHOVIEW
 70
0
  9
$PUCSORGTOP
 10
0.0
 20
0.0
 30
0.0
  9
$PUCSORGBOTTOM
 10
0.0
 20
0.0
 30
0.0
  9
$PUCSORGLEFT
 10
0.0
 20
0.0
 30
0.0
  9
$PUCSORGRIGHT
 10
0.0
 20
0.0
 30
0.0
  9
$PUCSORGFRONT
 10
0.0
 20
0.0
 30
0.0
  9
$PUCSORGBACK
 10
0.0
 20
0.0
 30
0.0
  9
$USERI1
 70
0
  9
$USERI2
 70
0
  9
$USERI3
 70
0
  9
$USERI4
 70
0
  9
$USERI5
 70
0
  9
$USERR1
 40
0.0
  9
$USERR2
 40
0.0
  9
$USERR3
 40
0.0
  9
$USERR4
 40
0.0
  9
$USERR5
 40
0.0
  9
$WORLDVIEW
 70
1
  9
$SHADEDGE
 70
3
  9
$SHADEDIF
 70
70
  9
$TILEMODE
 70
1
  9
$MAXACTVP
 70
64
  9
$PINSBASE
 10
0.0
 20
0.0
 30
0.0
  9
$PLIMCHECK
 70
0
  9
$PEXTMIN
 10
1e+20
 20
1e+20
 30
1e+20
  9
$PEXTMAX
 10
-1e+20
 20
-1e+20
 30
-1e+20
  9
$PLIMMIN
 10
0.0
 20
0.0
  9
$PLIMMAX
 10
420.0
 20
297.0
  9
$UNITMODE
 70
0
  9
$VISRETAIN
 70
1
  9
$PLINEGEN
 70
0
  9
$PSLTSCALE
 70
1
  9
$TREEDEPTH
 70
3020
  9
$CMLSTYLE
  2
Standard
  9
$CMLJUST
 70
0
  9
$CMLSCALE
 40
20.0
  9
$PROXYGRAPHICS
 70
1
  9
$MEASUREMENT
 70
1
  9
$CELWEIGHT
370
-1
  9
$ENDCAPS
280
0
  9
$JOINSTYLE
280
0
  9
$LWDISPLAY
290
0
  9
$INSUNITS
 70
6
  9
$HYPERLINKBASE
  1

  9
$STYLESHEET
  1

  9
$XEDIT
290
1
  9
$CEPSNTYPE
380
0
  9
$PSTYLEMODE
290
1
  9
$FINGERPRINTGUID
  2
{32948FAF-A2A8-453B-9AC9-E8941B9B1C66}
  9
$VERSIONGUID
  2
{F80205A8-4FD7-43FA-9E08-F13EEB0D9275}
  9
$EXTNAMES
290
1
  9
$PSVPSCALE
 40
0.0
  9
$OLESTARTUP
290
0
  9
$SORTENTS
280
127
  9
$INDEXCTL
280
0
  9
$HIDETEXT
280
1
  9
$XCLIPFRAME
280
0
  9
$HALOGAP
280
0
  9
$OBSCOLOR
 70
257
  9
$OBSLTYPE
280
0
  9
$INTERSECTIONDISPLAY
280
0
  9
$INTERSECTIONCOLOR
 70
257
  9
$DIMASSOC
280
2
  9
$PROJECTNAME
  1

  9
$CAMERADISPLAY
290
0
  9
$LENSLENGTH
 40
50.0
  9
$CAMERAHEIGHT
 40
0.0
  9
$STEPSPERSEC
 40
24.0
  9
$STEPSIZE
 40
100.0
  9
$3DDWFPREC
 40
2.0
  9
$PSOLWIDTH
 40
0.005
  9
$PSOLHEIGHT
 40
0.08
  9
$LOFTANG1
 40
1.570796326795
  9
$LOFTANG2
 40
1.570796326795
  9
$LOFTMAG1
 40
0.0
  9
$LOFTMAG2
 40
0.0
  9
$LOFTPARAM
 70
7
  9
$LOFTNORMALS
280
1
  9
$LATITUDE
 40
37.795
  9
$LONGITUDE
 40
-122.394
  9
$NORTHDIRECTION
 40
0.0
  9
$TIMEZONE
 70
-8000
  9
$LIGHTGLYPHDISPLAY
280
1
  9
$TILEMODELIGHTSYNCH
280
1
  9
$CMATERIAL
347
20
  9
$SOLIDHIST
280
0
  9
$SHOWHIST
280
1
  9
$DWFFRAME
280
2
  9
$DGNFRAME
280
2
  9
$REALWORLDSCALE
290
1
  9
$INTERFERECOLOR
 62
256
  9
$CSHADOW
280
0
  9
$SHADOWPLANELOCATION
 40
0.0
  0
ENDSEC
  0
SECTION
  2
CLASSES
  0
CLASS
  1
ACDBDICTIONARYWDFLT
  2
AcDbDictionaryWithDefault
  3
ObjectDBX Classes
 90
0
 91
0
280
0
281
0
  0
CLASS
  1
SUN
  2
AcDbSun
  3
SCENEOE
 90
1153
 91
0
280
0
281
0
  0
CLASS
  1
VISUALSTYLE
  2
AcDbVisualStyle
  3
ObjectDBX Classes
 90
4095
 91
0
280
0
281
0
  0
CLASS
  1
MATERIAL
  2
AcDbMaterial
  3
ObjectDBX Classes
 90
1153
 91
0
280
0
281
0
  0
CLASS
  1
SCALE
  2
AcDbScale
  3
ObjectDBX Classes
 90
1153
 91
0
280
0
281
0
  0
CLASS
  1
TABLESTYLE
  2
AcDbTableStyle
  3
ObjectDBX Classes
 90
4095
 91
0
280
0
281
0
  0
CLASS
  1
MLEADERSTYLE
  2
AcDbMLeaderStyle
  3
ACDB_MLEADERSTYLE_CLASS
 90
4095
 91
0
280
0
281
0
  0
CLASS
  1
DICTIONARYVAR
  2
AcDbDictionaryVar
  3
ObjectDBX Classes
 90
0
 91
0
280
0
281
0
  0
CLASS
  1
CELLSTYLEMAP
  2
AcDbCellStyleMap
  3
ObjectDBX Classes
 90
1152
 91
0
280
0
281
0
  0
CLASS
  1
MENTALRAYRENDERSETTINGS
  2
AcDbMentalRayRenderSettings
  3
SCENEOE
 90
1024
 91
0
280
0
281
0
  0
CLASS
  1
ACDBDETAILVIEWSTYLE
  2
AcDbDetailViewStyle
  3
ObjectDBX Classes
 90
1025
 91
0
280
0
281
0
  0
CLASS
  1
ACDBSECTIONVIEWSTYLE
  2
AcDbSectionViewStyle
  3
ObjectDBX Classes
 90
1025
 91
0
280
0
281
0
  0
CLASS
  1
RASTERVARIABLES
  2
AcDbRasterVariables
  3
ISM
 90
0
 91
0
280
0
281
0
  0
CLASS
  1
LAYOUT
  2
AcDbLayout
  3
ObjectDBX Classes
 90
0
 91
0
280
0
281
0
  0
CLASS
  1
ACDBPLACEHOLDER
  2
AcDbPlaceHolder
  3
ObjectDBX Classes
 90
0
 91
0
280
0
281
0
  0
ENDSEC
  0
SECTION
  2
TABLES
  0
TABLE
  2
VPORT
  5
8
330
0
100
AcDbSymbolTable
 70
1
  0
VPORT
  5
23
330
8
100
AcDbSymbolTableRecord
100
AcDbViewportTableRecord
  2
*Active
 70
0
 10
0.0
 20
0.0
 11
1.0
 21
1.0
 12
0.0
 22
0.0
 13
0.0
 23
0.0
 14
0.5
 24
0.5
 15
0.5
 25
0.5
 16
0.0
 26
0.0
 36
1.0
 17
0.0
 27
0.0
 37
0.0
 40
1000.0
 41
1.34
 42
50.0
 43
0.0
 44
0.0
 50
0.0
 51
0.0
 71
0
 72
1000
 73
1
 74
3
 75
0
 76
0
 77
0
 78
0
281
0
 65
0
146
0.0
  0
ENDTAB
  0
TABLE
  2
LTYPE
  5
2
330
0
100
AcDbSymbolTable
 70
3
  0
LTYPE
  5
24
330
2
100
AcDbSymbolTableRecord
100
AcDbLinetypeTableRecord
  2
ByBlock
 70
0
  3

 72
65
 73
0
 40
0.0
  0
LTYPE
  5
25
330
2
100
AcDbSymbolTableRecord
100
AcDbLinetypeTableRecord
  2
ByLayer
 70
0
  3

 72
65
 73
0
 40
0.0
  0
LTYPE
  5
26
330
2
100
AcDbSymbolTableRecord
100
AcDbLinetypeTableRecord
  2
Continuous
 70
0
  3

 72
65
 73
0
 40
0.0
  0
ENDTAB
  0
TABLE
  2
LAYER
  5
1
330
0
100
AcDbSymbolTable
 70
2
  0
LAYER
  5
27
330
1
100
AcDbSymbolTableRecord
100
AcDbLayerTableRecord
  2
0
 70
0
 62
7
  6
Continuous
370
-3
390
13
347
21
  0
LAYER
  5
28
330
1
100
AcDbSymbolTableRecord
100
AcDbLayerTableRecord
  2
Defpoints
 70
0
 62
7
  6
Continuous
290
0
370
-3
390
13
347
21
  0
ENDTAB
  0
TABLE
  2
STYLE
  5
5
330
0
100
AcDbSymbolTable
 70
1
  0
STYLE
  5
29
330
5
100
AcDbSymbolTableRecord
100
AcDbTextStyleTableRecord
  2
Standard
 70
0
 40
0.0
 41
1.0
 50
0.0
 71
0
 42
2.5
  3
txt
  4

  0
ENDTAB
  0
TABLE
  2
VIEW
  5
7
330
0
100
AcDbSymbolTable
 70
0
  0
ENDTAB
  0
TABLE
  2
UCS
  5
6
330
0
100
AcDbSymbolTable
 70
0
  0
ENDTAB
  0
TABLE
  2
APPID
  5
3
330
0
100
AcDbSymbolTable
 70
3
  0
APPID
  5
2A
330
3
100
AcDbSymbolTableRecord
100
AcDbRegAppTableRecord
  2
ACAD
 70
0
  0
APPID
  5
38
330
3
100
AcDbSymbolTableRecord
100
AcDbRegAppTableRecord
  2
HATCHBACKGROUNDCOLOR
 70
0
  0
APPID
  5
39
330
3
100
AcDbSymbolTableRecord
100
AcDbRegAppTableRecord
  2
EZDXF
 70
0
  0
ENDTAB
  0
TABLE
  2
DIMSTYLE
  5
4
330
0
100
AcDbSymbolTable
 70
1
100
AcDbDimStyleTable
  0
DIMSTYLE
105
2B
330
4
100
AcDbSymbolTableRecord
100
AcDbDimStyleTableRecord
  2
Standard
 70
0
 40
1.0
 41
2.5
 42
0.625
 43
3.75
 44
1.25
 45
0.0
 46
0.0
 47
0.0
 48
0.0
 49
2.5
140
2.5
141
2.5
142
0.0
143
0.03937007874
144
1.0
145
0.0
146
1.0
147
0.625
148
0.0
 69
0
 70
0
 71
0
 72
0
 73
0
 74
0
 75
0
 76
0
 77
1
 78
8
 79
3
170
0
171
3
172
1
173
0
174
0
175
0
176
0
177
0
178
0
179
2
271
2
272
2
273
2
274
3
275
0
276
0
277
2
278
44
279
0
280
0
281
0
282
0
283
0
284
8
285
0
286
0
288
0
289
3
290
0
371
-2
372
-2
  0
ENDTAB
  0
TABLE
  2
BLOCK_RECORD
  5
9
330
0
100
AcDbSymbolTable
 70
2
  0
BLOCK_RECORD
  5
17
330
9
100
AcDbSymbolTableRecord
100
AcDbBlockTableRecord
  2
*Model_Space
340
1A
 70
0
280
1
281
0
  0
BLOCK_RECORD
  5
1B
330
9
100
AcDbSymbolTableRecord
100
AcDbBlockTableRecord
  2
*Paper_Space
340
1E
 70
0
280
1
281
0
  0
ENDTAB
  0
ENDSEC
  0
SECTION
  2
BLOCKS
  0
BLOCK
  5
18
330
17
100
AcDbEntity
  8
0
100
AcDbBlockBegin
  2
*Model_Space
 70
0
 10
0.0
 20
0.0
 30
0.0
  3
*Model_Space
  1

  0
ENDBLK
  5
19
330
17
100
AcDbEntity
  8
0
100
AcDbBlockEnd
  0
BLOCK
  5
1C
330
1B
100
AcDbEntity
  8
0
100
AcDbBlockBegin
  2
*Paper_Space
 70
0
 10
0.0
 20
0.0
 30
0.0
  3
*Paper_Space
  1

  0
ENDBLK
  5
1D
330
1B
100
AcDbEntity
  8
0
100
AcDbBlockEnd
  0
ENDSEC
  0
SECTION
  2
ENTITIES
  0
LWPOLYLINE
  5
2F
330
17
100
AcDbEntity
  8
0
100
AcDbPolyline
 90
51
 70
0
 10
-15.799999999999999
 20
12.0
 10
-15.799999999999999
 20
11.86
 10
-15.799999999999999
 20
11.719999999999999
 10
-15.799999999999999
 20
11.58
 10
-15.799999999999999
 20
11.44
 10
-15.799999999999999
 20
11.3
 10
-15.799999999999999
 20
11.16
 10
-15.799999999999999
 20
11.02
 10
-15.799999999999999
 20
10.879999999999999
 10
-15.799999999999999
 20
10.74
 10
-15.799999999999999
 20
10.6
 10
-15.799999999999999
 20
10.46
 10
-15.799999999999999
 20
10.32
 10
-15.799999999999999
 20
10.18
 10
-15.799999999999999
 20
10.04
 10
-15.799999999999999
 20
9.9
 10
-15.799999999999999
 20
9.76
 10
-15.799999999999999
 20
9.620000000000001
 10
-15.799999999999999
 20
9.48
 10
-15.799999999999999
 20
9.34
 10
-15.799999999999999
 20
9.2
 10
-15.799999999999999
 20
9.06
 10
-15.799999999999999
 20
8.92
 10
-15.799999999999999
 20
8.78
 10
-15.799999999999999
 20
8.64
 10
-15.8
 20
8.5
 10
-15.8
 20
8.36
 10
-15.8
 20
8.22
 10
-15.8
 20
8.08
 10
-15.8
 20
7.94
 10
-15.8
 20
7.8
 10
-15.8
 20
7.66
 10
-15.8
 20
7.52
 10
-15.8
 20
7.38
 10
-15.8
 20
7.24
 10
-15.8
 20
7.1
 10
-15.8
 20
6.96
 10
-15.8
 20
6.82
 10
-15.8
 20
6.68
 10
-15.8
 20
6.54
 10
-15.8
 20
6.4
 10
-15.8
 20
6.26
 10
-15.8
 20
6.12
 10
-15.8
 20
5.98
 10
-15.8
 20
5.84
 10
-15.8
 20
5.7
 10
-15.8
 20
5.56
 10
-15.8
 20
5.42
 10
-15.8
 20
5.28
 10
-15.8
 20
5.14
 10
-15.8
 20
5.0
  0
LWPOLYLINE
  5
30
330
17
100
AcDbEntity
  8
0
100
AcDbPolyline
 90
51
 70
0
 10
-29.8
 20
2.117417352565098e-15
 10
-28.108
 20
1.997193521674489e-15
 10
-26.416
 20
1.87696969078388e-15
 10
-24.724
 20
1.7567458598932712e-15
 10
-23.032
 20
1.6365220290026621e-15
 10
-21.34
 20
1.5162981981120533e-15
 10
-19.648000000000003
 20
1.3960743672214446e-15
 10
-17.956000000000003
 20
1.2758505363308357e-15
 10
-16.264000000000003
 20
1.1556267054402268e-15
 10
-14.572000000000001
 20
1.0354028745496177e-15
 10
-12.879999999999999
 20
9.151790436590086e-16
 10
-11.188000000000002
 20
7.949552127684e-16
 10
-9.496000000000002
 20
6.747313818777911e-16
 10
-7.804000000000002
 20
5.545075509871822e-16
 10
-6.112000000000002
 20
4.3428372009657324e-16
 10
-4.420000000000002
 20
3.140598892059643e-16
 10
-2.7280000000000015
 20
1.9383605831535537e-16
 10
-1.036000000000005
 20
7.361222742474671e-17
 10
0.6559999999999988
 20
-4.661160346586247e-17
 10
2.3479999999999954
 20
-1.6683543435647114e-16
 10
4.040000000000003
 20
-2.8705926524708056e-16
 10
5.731999999999996
 20
-4.07283096137689e-16
 10
7.423999999999996
 20
-5.275069270282979e-16
 10
9.115999999999996
 20
-6.477307579189069e-16
 10
10.807999999999996
 20
-7.679545888095158e-16
 10
12.499999999999996
 20
-8.881784197001247e-16
 10
14.191999999999997
 20
-1.0084022505907335e-15
 10
15.883999999999997
 20
-1.1286260814813426e-15
 10
17.575999999999997
 20
-1.2488499123719515e-15
 10
19.26799999999999
 20
-1.3690737432625598e-15
 10
20.959999999999997
 20
-1.4892975741531693e-15
 10
22.651999999999997
 20
-1.6095214050437781e-15
 10
24.343999999999998
 20
-1.7297452359343872e-15
 10
26.03599999999999
 20
-1.8499690668249955e-15
 10
27.72799999999999
 20
-1.9701928977156044e-15
 10
29.419999999999998
 20
-2.090416728606214e-15
 10
31.112
 20
-2.210640559496823e-15
 10
32.804
 20
-2.330864390387432e-15
 10
34.495999999999995
 20
-2.4510882212780403e-15
 10
36.188
 20
-2.57131205216865e-15
 10
37.88000000000001
 20
-2.6915358830592593e-15
 10
39.572
 20
-2.8117597139498678e-15
 10
41.263999999999996
 20
-2.9319835448404763e-15
 10
42.956
 20
-3.0522073757310856e-15
 10
44.647999999999996
 20
-3.172431206621694e-15
 10
46.33999999999999
 20
-3.2926550375123025e-15
 10
48.032
 20
-3.412878868402912e-15
 10
49.724000000000004
 20
-3.533102699293521e-15
 10
51.416
 20
-3.65332653018413e-15
 10
53.10799999999999
 20
-3.7735503610747385e-15
 10
54.8
 20
-3.893774191965348e-15
  0
LWPOLYLINE
  5
31
330
17
100
AcDbEntity
  8
0
100
AcDbPolyline
 90
51
 70
0
 10
54.8
 20
-3.89377419196535e-15
 10
54.8
 20
0.09999999999999618
 10
54.8
 20
0.19999999999999626
 10
54.8
 20
0.2999999999999963
 10
54.8
 20
0.3999999999999964
 10
54.8
 20
0.49999999999999645
 10
54.8
 20
0.5999999999999965
 10
54.8
 20
0.6999999999999967
 10
54.8
 20
0.7999999999999967
 10
54.8
 20
0.8999999999999967
 10
54.8
 20
0.9999999999999968
 10
54.8
 20
1.0999999999999968
 10
54.8
 20
1.1999999999999968
 10
54.8
 20
1.299999999999997
 10
54.8
 20
1.3999999999999972
 10
54.8
 20
1.4999999999999971
 10
54.8
 20
1.5999999999999972
 10
54.8
 20
1.699999999999997
 10
54.8
 20
1.7999999999999972
 10
54.8
 20
1.8999999999999975
 10
54.8
 20
1.9999999999999973
 10
54.8
 20
2.0999999999999974
 10
54.8
 20
2.1999999999999975
 10
54.8
 20
2.2999999999999976
 10
54.8
 20
2.3999999999999977
 10
54.8
 20
2.499999999999998
 10
54.8
 20
2.599999999999998
 10
54.8
 20
2.6999999999999975
 10
54.8
 20
2.7999999999999985
 10
54.8
 20
2.899999999999998
 10
54.8
 20
2.9999999999999982
 10
54.8
 20
3.0999999999999983
 10
54.8
 20
3.1999999999999984
 10
54.8
 20
3.2999999999999985
 10
54.8
 20
3.399999999999998
 10
54.8
 20
3.4999999999999982
 10
54.8
 20
3.5999999999999983
 10
54.8
 20
3.699999999999999
 10
54.8
 20
3.799999999999999
 10
54.8
 20
3.899999999999999
 10
54.8
 20
3.999999999999999
 10
54.8
 20
4.1
 10
54.8
 20
4.199999999999999
 10
54.8
 20
4.299999999999999
 10
54.8
 20
4.3999999999999995
 10
54.8
 20
4.5
 10
54.8
 20
4.6
 10
54.8
 20
4.7
 10
54.8
 20
4.8
 10
54.8
 20
4.8999999999999995
 10
54.8
 20
5.0
  0
LWPOLYLINE
  5
32
330
17
100
AcDbEntity
  8
0
100
AcDbPolyline
 90
51
 70
0
 10
-15.799999999999997
 20
5.0
 10
-15.083999999999996
 20
5.0
 10
-14.367999999999995
 20
5.0
 10
-13.652000000000001
 20
5.0
 10
-12.936
 20
5.0
 10
-12.219999999999999
 20
5.0
 10
-11.503999999999998
 20
5.0
 10
-10.787999999999997
 20
5.0
 10
-10.071999999999996
 20
5.0
 10
-9.355999999999995
 20
5.0
 10
-8.64
 20
5.0
 10
-7.9239999999999995
 20
5.0
 10
-7.207999999999998
 20
5.0
 10
-6.491999999999997
 20
5.0
 10
-5.775999999999996
 20
5.0
 10
-5.059999999999995
 20
5.0
 10
-4.343999999999998
 20
5.0
 10
-3.628
 20
5.0
 10
-2.911999999999999
 20
5.0
 10
-2.195999999999998
 20
5.0
 10
-1.4799999999999969
 20
5.0
 10
-0.7639999999999958
 20
5.0
 10
-0.047999999999998266
 20
5.0
 10
0.6680000000000028
 20
5.0
 10
1.3840000000000003
 20
5.0
 10
2.1000000000000014
 20
5.0
 10
2.8160000000000025
 20
5.0
 10
3.532
 20
5.0
 10
4.248000000000001
 20
5.0
 10
4.963999999999999
 20
5.0
 10
5.680000000000003
 20
5.0
 10
6.396000000000001
 20
5.0
 10
7.112000000000002
 20
5.0
 10
7.827999999999999
 20
5.0
 10
8.544
 20
5.0
 10
9.260000000000002
 20
5.0
 10
9.976000000000003
 20
5.0
 10
10.692
 20
5.0
 10
11.408000000000001
 20
5.0
 10
12.123999999999999
 20
5.0
 10
12.840000000000003
 20
5.0
 10
13.556000000000001
 20
5.0
 10
14.272000000000002
 20
5.0
 10
14.988
 20
5.0
 10
15.704
 20
5.0
 10
16.42
 20
5.0
 10
17.136000000000003
 20
5.0
 10
17.852000000000004
 20
5.0
 10
18.567999999999998
 20
5.0
 10
19.284
 20
5.0
 10
20.0
 20
5.0
  0
LWPOLYLINE
  5
33
330
17
100
AcDbEntity
  8
0
100
AcDbPolyline
 90
51
 70
0
 10
54.8
 20
5.0
 10
53.388
 20
5.0
 10
51.976
 20
5.0
 10
50.56399999999999
 20
5.0
 10
49.152
 20
5.0
 10
47.739999999999995
 20
5.0
 10
46.327999999999996
 20
5.0
 10
44.916
 20
5.0
 10
43.504
 20
5.0
 10
42.092
 20
5.0
 10
40.68
 20
5.0
 10
39.268
 20
5.0
 10
37.855999999999995
 20
5.0
 10
36.444
 20
5.0
 10
35.032
 20
5.0
 10
33.62
 20
5.0
 10
32.208
 20
5.0
 10
30.796
 20
5.0
 10
29.383999999999997
 20
5.0
 10
27.972
 20
5.0
 10
26.56
 20
5.0
 10
25.148
 20
5.0
 10
23.736
 20
5.0
 10
22.323999999999998
 20
5.0
 10
20.912
 20
5.0
 10
19.5
 20
5.0
 10
18.088
 20
5.0
 10
16.676000000000002
 20
5.0
 10
15.264000000000003
 20
5.0
 10
13.851999999999997
 20
5.0
 10
12.439999999999998
 20
5.0
 10
11.027999999999999
 20
5.0
 10
9.616
 20
5.0
 10
8.204
 20
5.0
 10
6.792000000000002
 20
5.0
 10
5.3799999999999955
 20
5.0
 10
3.9679999999999964
 20
5.0
 10
2.5559999999999974
 20
5.0
 10
1.1440000000000055
 20
5.0
 10
-0.2679999999999936
 20
5.0
 10
-1.6799999999999997
 20
5.0
 10
-3.0919999999999987
 20
5.0
 10
-4.503999999999998
 20
5.0
 10
-5.915999999999997
 20
5.0
 10
-7.327999999999996
 20
5.0
 10
-8.739999999999995
 20
5.0
 10
-10.152000000000001
 20
5.0
 10
-11.563999999999993
 20
5.0
 10
-12.975999999999999
 20
5.0
 10
-14.387999999999991
 20
5.0
 10
-15.799999999999997
 20
5.0
  0
LWPOLYLINE
  5
34
330
17
100
AcDbEntity
  8
0
100
AcDbPolyline
 90
51
 70
0
 10
-15.8
 20
5.0
 10
-15.8
 20
5.14
 10
-15.8
 20
5.28
 10
-15.8
 20
5.42
 10
-15.8
 20
5.5600000000000005
 10
-15.8
 20
5.7
 10
-15.8
 20
5.84
 10
-15.8
 20
5.98
 10
-15.8
 20
6.12
 10
-15.8
 20
6.26
 10
-15.8
 20
6.4
 10
-15.8
 20
6.54
 10
-15.8
 20
6.68
 10
-15.8
 20
6.82
 10
-15.8
 20
6.96
 10
-15.8
 20
7.1
 10
-15.8
 20
7.24
 10
-15.8
 20
7.38
 10
-15.8
 20
7.52
 10
-15.8
 20
7.66
 10
-15.8
 20
7.8
 10
-15.8
 20
7.9399999999999995
 10
-15.8
 20
8.08
 10
-15.8
 20
8.22
 10
-15.8
 20
8.36
 10
-15.8
 20
8.5
 10
-15.799999999999999
 20
8.64
 10
-15.799999999999999
 20
8.78
 10
-15.799999999999999
 20
8.92
 10
-15.799999999999999
 20
9.059999999999999
 10
-15.799999999999999
 20
9.2
 10
-15.799999999999999
 20
9.34
 10
-15.799999999999999
 20
9.48
 10
-15.799999999999999
 20
9.620000000000001
 10
-15.799999999999999
 20
9.76
 10
-15.799999999999999
 20
9.9
 10
-15.799999999999999
 20
10.04
 10
-15.799999999999999
 20
10.18
 10
-15.799999999999999
 20
10.32
 10
-15.799999999999999
 20
10.46
 10
-15.799999999999999
 20
10.6
 10
-15.799999999999999
 20
10.74
 10
-15.799999999999999
 20
10.879999999999999
 10
-15.799999999999999
 20
11.02
 10
-15.799999999999999
 20
11.16
 10
-15.799999999999999
 20
11.3
 10
-15.799999999999999
 20
11.440000000000001
 10
-15.799999999999999
 20
11.58
 10
-15.799999999999999
 20
11.719999999999999
 10
-15.799999999999999
 20
11.86
 10
-15.799999999999999
 20
12.0
  0
LWPOLYLINE
  5
35
330
17
100
AcDbEntity
  8
0
100
AcDbPolyline
 90
51
 70
0
 10
-15.8
 20
11.999999999999998
 10
-15.8138129010021
 20
12.439533636705189
 10
-15.855197090798654
 20
12.877332634950129
 10
-15.923989244899179
 20
13.31166920210007
 10
-16.019917872099583
 20
13.740829210153985
 10
-16.142604385933925
 20
14.16311896062463
 10
-16.29156459878224
 20
14.576871868792741
 10
-16.466210632737862
 20
14.980455040955508
 10
-16.665853239692954
 20
15.372275718712004
 10
-16.889704521485896
 20
15.750787564852978
 10
-17.136881039375368
 20
16.11449676604731
 10
-17.406407300569473
 20
16.461967928240824
 10
-17.69721960805012
 20
16.79182974150082
 10
-18.008170258499177
 20
17.102780391949878
 10
-18.338032071759173
 20
17.393592699430528
 10
-18.685503233952687
 20
17.66311896062463
 10
-19.04921243514702
 20
17.910295478514104
 10
-19.427724281287993
 20
18.134146760307047
 10
-19.81954495904449
 20
18.333789367262135
 10
-20.223128131207254
 20
18.50843540121776
 10
-20.636881039375368
 20
18.657395614066075
 10
-21.059170789846014
 20
18.780082127900418
 10
-21.488330797899927
 20
18.876010755100822
 10
-21.92266736504987
 20
18.944802909201343
 10
-22.360466363294808
 20
18.986187098997902
 10
-22.8
 20
19.0
 10
-23.23953363670519
 20
18.986187098997902
 10
-23.67733263495013
 20
18.944802909201346
 10
-24.11166920210007
 20
18.876010755100822
 10
-24.540829210153984
 20
18.780082127900418
 10
-24.96311896062463
 20
18.657395614066075
 10
-25.37687186879274
 20
18.50843540121776
 10
-25.78045504095551
 20
18.333789367262135
 10
-26.17227571871201
 20
18.134146760307043
 10
-26.55078756485298
 20
17.910295478514104
 10
-26.91449676604731
 20
17.663118960624633
 10
-27.261967928240825
 20
17.393592699430528
 10
-27.59182974150082
 20
17.10278039194988
 10
-27.90278039194988
 20
16.791829741500823
 10
-28.193592699430525
 20
16.461967928240828
 10
-28.46311896062463
 20
16.114496766047314
 10
-28.710295478514105
 20
15.75078756485298
 10
-28.934146760307044
 20
15.372275718712007
 10
-29.133789367262136
 20
14.980455040955512
 10
-29.30843540121776
 20
14.576871868792745
 10
-29.457395614066076
 20
14.163118960624633
 10
-29.58008212790042
 20
13.740829210153988
 10
-29.67601075510082
 20
13.311669202100074
 10
-29.744802909201347
 20
12.877332634950132
 10
-29.7861870989979
 20
12.439533636705193
 10
-29.8
 20
12.000000000000002
  0
LWPOLYLINE
  5
36
330
17
100
AcDbEntity
  8
0
100
AcDbPolyline
 90
51
 70
0
 10
-29.8
 20
12.0
 10
-29.8
 20
11.76
 10
-29.8
 20
11.52
 10
-29.8
 20
11.28
 10
-29.8
 20
11.04
 10
-29.8
 20
10.8
 10
-29.8
 20
10.56
 10
-29.8
 20
10.32
 10
-29.8
 20
10.08
 10
-29.8
 20
9.84
 10
-29.8
 20
9.6
 10
-29.8
 20
9.36
 10
-29.8
 20
9.120000000000001
 10
-29.8
 20
8.879999999999999
 10
-29.8
 20
8.64
 10
-29.8
 20
8.4
 10
-29.8
 20
8.16
 10
-29.8
 20
7.92
 10
-29.8
 20
7.68
 10
-29.8
 20
7.44
 10
-29.8
 20
7.2
 10
-29.8
 20
6.96
 10
-29.8
 20
6.72
 10
-29.8
 20
6.48
 10
-29.8
 20
6.24
 10
-29.8
 20
6.0
 10
-29.8
 20
5.76
 10
-29.8
 20
5.52
 10
-29.8
 20
5.28
 10
-29.8
 20
5.04
 10
-29.8
 20
4.8
 10
-29.8
 20
4.56
 10
-29.8
 20
4.32
 10
-29.8
 20
4.08
 10
-29.8
 20
3.84
 10
-29.8
 20
3.5999999999999996
 10
-29.8
 20
3.3599999999999994
 10
-29.8
 20
3.119999999999999
 10
-29.8
 20
2.880000000000001
 10
-29.8
 20
2.6400000000000006
 10
-29.8
 20
2.4000000000000004
 10
-29.8
 20
2.16
 10
-29.8
 20
1.92
 10
-29.8
 20
1.6799999999999997
 10
-29.8
 20
1.4399999999999995
 10
-29.8
 20
1.1999999999999993
 10
-29.8
 20
0.9600000000000009
 10
-29.8
 20
0.7200000000000006
 10
-29.8
 20
0.4800000000000004
 10
-29.8
 20
0.2400000000000002
 10
-29.8
 20
0.0
  0
LWPOLYLINE
  5
37
330
17
100
AcDbEntity
  8
0
100
AcDbPolyline
 90
51
 70
0
 10
-22.8
 20
16.0
 10
-23.301332934257218
 20
15.968458805257912
 10
-23.79475954865942
 20
15.874332644514524
 10
-24.27249821073871
 20
15.719105943553005
 10
-24.72701469640686
 20
15.505226720175454
 10
-25.151141009169894
 20
15.23606797749979
 10
-25.538188423714754
 20
14.915874509685647
 10
-25.882052971103157
 20
14.549695958994759
 10
-26.177311702008062
 20
14.143307179915986
 10
-26.419308209864077
 20
13.703117166260292
 10
-26.604226065180615
 20
13.23606797749979
 10
-26.729149002914756
 20
12.7495252583429
 10
-26.792106913713088
 20
12.251162078117254
 10
-26.792106913713088
 20
11.748837921882746
 10
-26.729149002914756
 20
11.2504747416571
 10
-26.604226065180615
 20
10.763932022500212
 10
-26.419308209864077
 20
10.296882833739708
 10
-26.177311702008062
 20
9.856692820084012
 10
-25.882052971103157
 20
9.450304041005241
 10
-25.538188423714757
 20
9.084125490314355
 10
-25.151141009169894
 20
8.76393202250021
 10
-24.72701469640686
 20
8.494773279824546
 10
-24.272498210738714
 20
8.280894056446995
 10
-23.79475954865942
 20
8.125667355485476
 10
-23.301332934257218
 20
8.03154119474209
 10
-22.8
 20
8.0
 10
-22.298667065742784
 20
8.031541194742088
 10
-21.805240451340584
 20
8.125667355485476
 10
-21.32750178926129
 20
8.280894056446995
 10
-20.87298530359314
 20
8.494773279824546
 10
-20.44885899083011
 20
8.763932022500208
 10
-20.061811576285248
 20
9.084125490314353
 10
-19.717947028896845
 20
9.450304041005243
 10
-19.42268829799194
 20
9.856692820084014
 10
-19.18069179013592
 20
10.296882833739712
 10
-18.995773934819386
 20
10.76393202250021
 10
-18.870850997085245
 20
11.2504747416571
 10
-18.807893086286914
 20
11.748837921882748
 10
-18.807893086286914
 20
12.251162078117252
 10
-18.870850997085245
 20
12.749525258342898
 10
-18.995773934819386
 20
13.23606797749979
 10
-19.18069179013592
 20
13.703117166260288
 10
-19.42268829799194
 20
14.143307179915986
 10
-19.71794702889684
 20
14.549695958994757
 10
-20.061811576285244
 20
14.915874509685645
 10
-20.448858990830107
 20
15.23606797749979
 10
-20.872985303593136
 20
15.505226720175452
 10
-21.32750178926129
 20
15.719105943553005
 10
-21.80524045134058
 20
15.874332644514524
 10
-22.298667065742784
 20
15.96845880525791
 10
-22.8
 20
16.0
  0
ENDSEC
  0
SECTION
  2
OBJECTS
  0
DICTIONARY
  5
A
330
0
100
AcDbDictionary
280
0
281
1
  3
ACAD_COLOR
350
B
  3
ACAD_GROUP
350
C
  3
ACAD_LAYOUT
350
D
  3
ACAD_MATERIAL
350
E
  3
ACAD_MLEADERSTYLE
350
F
  3
ACAD_MLINESTYLE
350
10
  3
ACAD_PLOTSETTINGS
350
11
  3
ACAD_PLOTSTYLENAME
350
12
  3
ACAD_SCALELIST
350
14
  3
ACAD_TABLESTYLE
350
15
  3
ACAD_VISUALSTYLE
350
16
  3
EZDXF_META
350
2D
  0
DICTIONARY
  5
B
330
A
100
AcDbDictionary
280
0
281
1
  0
DICTIONARY
  5
C
330
A
100
AcDbDictionary
280
0
281
1
  0
DICTIONARY
  5
D
330
A
100
AcDbDictionary
280
0
281
1
  3
Model
350
1A
  3
Layout1
350
1E
  0
DICTIONARY
  5
E
330
A
100
AcDbDictionary
280
0
281
1
  3
ByBlock
350
1F
  3
ByLayer
350
20
  3
Global
350
21
  0
DICTIONARY
  5
F
330
A
100
AcDbDictionary
280
0
281
1
  3
Standard
350
2C
  0
DICTIONARY
  5
10
330
A
100
AcDbDictionary
280
0
281
1
  3
Standard
350
22
  0
DICTIONARY
  5
11
330
A
100
AcDbDictionary
280
0
281
1
  0
ACDBDICTIONARYWDFLT
  5
12
330
A
100
AcDbDictionary
280
0
281
1
  3
Normal
350
13
100
AcDbDictionaryWithDefault
340
13
  0
ACDBPLACEHOLDER
  5
13
330
12
  0
DICTIONARY
  5
14
330
A
100
AcDbDictionary
280
0
281
1
  0
DICTIONARY
  5
15
330
A
100
AcDbDictionary
280
0
281
1
  0
DICTIONARY
  5
16
330
A
100
AcDbDictionary
280
0
281
1
  0
LAYOUT
  5
1A
330
D
100
AcDbPlotSettings
  1

  2
Adobe PDF
  4
A3
  6

 40
7.5
 41
20.0
 42
7.5
 43
20.0
 44
420.0
 45
297.0
 46
0.0
 47
0.0
 48
0.0
 49
0.0
140
0.0
141
0.0
142
1.0
143
1.0
 70
1024
 72
1
 73
0
 74
5
  7

 75
16
 76
0
 77
2
 78
300
147
1.0
148
0.0
149
0.0
100
AcDbLayout
  1
Model
 70
1
 71
0
 10
0.0
 20
0.0
 11
420.0
 21
297.0
 12
0.0
 22
0.0
 32
0.0
 14
1e+20
 24
1e+20
 34
1e+20
 15
-1e+20
 25
-1e+20
 35
-1e+20
146
0.0
 13
0.0
 23
0.0
 33
0.0
 16
1.0
 26
0.0
 36
0.0
 17
0.0
 27
1.0
 37
0.0
 76
1
330
17
  0
LAYOUT
  5
1E
330
D
100
AcDbPlotSettings
  1

  2
Adobe PDF
  4
A3
  6

 40
7.5
 41
20.0
 42
7.5
 43
20.0
 44
420.0
 45
297.0
 46
0.0
 47
0.0
 48
0.0
 49
0.0
140
0.0
141
0.0
142
1.0
143
1.0
 70
0
 72
1
 73
0
 74
5
  7

 75
16
 76
0
 77
2
 78
300
147
1.0
148
0.0
149
0.0
100
AcDbLayout
  1
Layout1
 70
1
 71
1
 10
0.0
 20
0.0
 11
420.0
 21
297.0
 12
0.0
 22
0.0
 32
0.0
 14
1e+20
 24
1e+20
 34
1e+20
 15
-1e+20
 25
-1e+20
 35
-1e+20
146
0.0
 13
0.0
 23
0.0
 33
0.0
 16
1.0
 26
0.0
 36
0.0
 17
0.0
 27
1.0
 37
0.0
 76
1
330
1B
  0
MATERIAL
  5
1F
102
{ACAD_REACTORS
330
E
102
}
330
E
100
AcDbMaterial
  1
ByBlock
  2

 70
0
 40
1.0
 71
1
 41
1.0
 91
-1023410177
 42
1.0
 72
1
  3

 73
1
 74
1
 75
1
 44
0.5
 73
0
 45
1.0
 46
1.0
 77
1
  4

 78
1
 79
1
170
1
 48
1.0
171
1
  6

172
1
173
1
174
1
140
1.0
141
1.0
175
1
  7

176
1
177
1
178
1
143
1.0
179
1
  8

270
1
271
1
272
1
145
1.0
146
1.0
273
1
  9

274
1
275
1
276
1
 42
1.0
 72
1
  3

 73
1
 74
1
 75
1
 94
63
  0
MATERIAL
  5
20
102
{ACAD_REACTORS
330
E
102
}
330
E
100
AcDbMaterial
  1
ByLayer
  2

 70
0
 40
1.0
 71
1
 41
1.0
 91
-1023410177
 42
1.0
 72
1
  3

 73
1
 74
1
 75
1
 44
0.5
 73
0
 45
1.0
 46
1.0
 77
1
  4

 78
1
 79
1
170
1
 48
1.0
171
1
  6

172
1
173
1
174
1
140
1.0
141
1.0
175
1
  7

176
1
177
1
178
1
143
1.0
179
1
  8

270
1
271
1
272
1
145
1.0
146
1.0
273
1
  9

274
1
275
1
276
1
 42
1.0
 72
1
  3

 73
1
 74
1
 75
1
 94
63
  0
MATERIAL
  5
21
102
{ACAD_REACTORS
330
E
102
}
330
E
100
AcDbMaterial
  1
Global
  2

 70
0
 40
1.0
 71
1
 41
1.0
 91
-1023410177
 42
1.0
 72
1
  3

 73
1
 74
1
 75
1
 44
0.5
 73
0
 45
1.0
 46
1.0
 77
1
  4

 78
1
 79
1
170
1
 48
1.0
171
1
  6

172
1
173
1
174
1
140
1.0
141
1.0
175
1
  7

176
1
177
1
178
1
143
1.0
179
1
  8

270
1
271
1
272
1
145
1.0
146
1.0
273
1
  9

274
1
275
1
276
1
 42
1.0
 72
1
  3

 73
1
 74
1
 75
1
 94
63
  0
MLINESTYLE
  5
22
102
{ACAD_REACTORS
330
10
102
}
330
10
100
AcDbMlineStyle
  2
Standard
 70
0
  3

 62
256
 51
90.0
 52
90.0
 71
2
 49
0.5
 62
256
  6
BYLAYER
 49
-0.5
 62
256
  6
BYLAYER
  0
MLEADERSTYLE
  5
2C
102
{ACAD_REACTORS
330
F
102
}
330
F
100
AcDbMLeaderStyle
179
2
170
2
171
1
172
0
 90
2
 40
0.0
 41
0.0
173
1
 91
-1056964608
 92
-2
290
1
 42
2.0
291
1
 43
8.0
  3
Standard
 44
4.0
300

342
29
174
1
175
1
176
0
178
1
 93
-1056964608
 45
4.0
292
0
297
0
 46
4.0
 94
-1056964608
 47
1.0
 49
1.0
140
1.0
294
1
141
0.0
177
0
142
1.0
295
0
296
0
143
3.75
271
0
272
9
273
9
  0
DICTIONARY
  5
2D
330
A
100
AcDbDictionary
281
1
  3
CREATED_BY_EZDXF
350
2E
  3
WRITTEN_BY_EZDXF
350
3A
  0
DICTIONARYVAR
  5
2E
330
2D
100
DictionaryVariables
280
0
  1
1.0.3 @ 2025-05-29T09:39:06.560280+00:00
  0
DICTIONARYVAR
  5
3A
330
2D
100
DictionaryVariables
280
0
  1
1.0.3 @ 2025-05-29T09:39:06.562279+00:00
  0
ENDSEC
  0
EOF
