  0
SECTION
  2
HEADER
  9
$ACADVER
  1
AC1027
  9
$ACADMAINTVER
 70
105
  9
$DWGCODEPAGE
  3
ANSI_1252
  9
$LASTSAVEDBY
  1
ezdxf
  9
$REQUIREDVERSIONS
160
0
  9
$INSBASE
 10
0.0
 20
0.0
 30
0.0
  9
$EXTMIN
 10
1e+20
 20
1e+20
 30
1e+20
  9
$EXTMAX
 10
-1e+20
 20
-1e+20
 30
-1e+20
  9
$LIMMIN
 10
0.0
 20
0.0
  9
$LIMMAX
 10
420.0
 20
297.0
  9
$ORTHOMODE
 70
0
  9
$REGENMODE
 70
1
  9
$FILLMODE
 70
1
  9
$QTEXTMODE
 70
0
  9
$MIRRTEXT
 70
1
  9
$LTSCALE
 40
1.0
  9
$ATTMODE
 70
1
  9
$TEXTSIZE
 40
2.5
  9
$TRACEWID
 40
1.0
  9
$TEXTSTYLE
  7
Standard
  9
$CLAYER
  8
0
  9
$CELTYPE
  6
ByLayer
  9
$CECOLOR
 62
256
  9
$CELTSCALE
 40
1.0
  9
$DISPSILH
 70
0
  9
$DIMSCALE
 40
1.0
  9
$DIMASZ
 40
2.5
  9
$DIMEXO
 40
0.625
  9
$DIMDLI
 40
3.75
  9
$DIMRND
 40
0.0
  9
$DIMDLE
 40
0.0
  9
$DIMEXE
 40
1.25
  9
$DIMTP
 40
0.0
  9
$DIMTM
 40
0.0
  9
$DIMTXT
 40
2.5
  9
$DIMCEN
 40
2.5
  9
$DIMTSZ
 40
0.0
  9
$DIMTOL
 70
0
  9
$DIMLIM
 70
0
  9
$DIMTIH
 70
0
  9
$DIMTOH
 70
0
  9
$DIMSE1
 70
0
  9
$DIMSE2
 70
0
  9
$DIMTAD
 70
1
  9
$DIMZIN
 70
8
  9
$DIMBLK
  1

  9
$DIMASO
 70
1
  9
$DIMSHO
 70
1
  9
$DIMPOST
  1

  9
$DIMAPOST
  1

  9
$DIMALT
 70
0
  9
$DIMALTD
 70
3
  9
$DIMALTF
 40
0.03937007874
  9
$DIMLFAC
 40
1.0
  9
$DIMTOFL
 70
1
  9
$DIMTVP
 40
0.0
  9
$DIMTIX
 70
0
  9
$DIMSOXD
 70
0
  9
$DIMSAH
 70
0
  9
$DIMBLK1
  1

  9
$DIMBLK2
  1

  9
$DIMSTYLE
  2
ISO-25
  9
$DIMCLRD
 70
0
  9
$DIMCLRE
 70
0
  9
$DIMCLRT
 70
0
  9
$DIMTFAC
 40
1.0
  9
$DIMGAP
 40
0.625
  9
$DIMJUST
 70
0
  9
$DIMSD1
 70
0
  9
$DIMSD2
 70
0
  9
$DIMTOLJ
 70
0
  9
$DIMTZIN
 70
8
  9
$DIMALTZ
 70
0
  9
$DIMALTTZ
 70
0
  9
$DIMUPT
 70
0
  9
$DIMDEC
 70
2
  9
$DIMTDEC
 70
2
  9
$DIMALTU
 70
2
  9
$DIMALTTD
 70
3
  9
$DIMTXSTY
  7
Standard
  9
$DIMAUNIT
 70
0
  9
$DIMADEC
 70
0
  9
$DIMALTRND
 40
0.0
  9
$DIMAZIN
 70
0
  9
$DIMDSEP
 70
44
  9
$DIMATFIT
 70
3
  9
$DIMFRAC
 70
0
  9
$DIMLDRBLK
  1

  9
$DIMLUNIT
 70
2
  9
$DIMLWD
 70
-2
  9
$DIMLWE
 70
-2
  9
$DIMTMOVE
 70
0
  9
$DIMFXL
 40
1.0
  9
$DIMFXLON
 70
0
  9
$DIMJOGANG
 40
0.785398163397
  9
$DIMTFILL
 70
0
  9
$DIMTFILLCLR
 70
0
  9
$DIMARCSYM
 70
0
  9
$DIMLTYPE
  6

  9
$DIMLTEX1
  6

  9
$DIMLTEX2
  6

  9
$DIMTXTDIRECTION
 70
0
  9
$LUNITS
 70
2
  9
$LUPREC
 70
4
  9
$SKETCHINC
 40
1.0
  9
$FILLETRAD
 40
10.0
  9
$AUNITS
 70
0
  9
$AUPREC
 70
2
  9
$MENU
  1
.
  9
$ELEVATION
 40
0.0
  9
$PELEVATION
 40
0.0
  9
$THICKNESS
 40
0.0
  9
$LIMCHECK
 70
0
  9
$CHAMFERA
 40
0.0
  9
$CHAMFERB
 40
0.0
  9
$CHAMFERC
 40
0.0
  9
$CHAMFERD
 40
0.0
  9
$SKPOLY
 70
0
  9
$TDCREATE
 40
2460825.778738426
  9
$TDUCREATE
 40
2458532.153996898
  9
$TDUPDATE
 40
2460825.778738426
  9
$TDUUPDATE
 40
2458532.1544311
  9
$TDINDWG
 40
0.0
  9
$TDUSRTIMER
 40
0.0
  9
$USRTIMER
 70
1
  9
$ANGBASE
 50
0.0
  9
$ANGDIR
 70
0
  9
$PDMODE
 70
0
  9
$PDSIZE
 40
0.0
  9
$PLINEWID
 40
0.0
  9
$SPLFRAME
 70
0
  9
$SPLINETYPE
 70
6
  9
$SPLINESEGS
 70
8
  9
$HANDSEED
  5
3C
  9
$SURFTAB1
 70
6
  9
$SURFTAB2
 70
6
  9
$SURFTYPE
 70
6
  9
$SURFU
 70
6
  9
$SURFV
 70
6
  9
$UCSBASE
  2

  9
$UCSNAME
  2

  9
$UCSORG
 10
0.0
 20
0.0
 30
0.0
  9
$UCSXDIR
 10
1.0
 20
0.0
 30
0.0
  9
$UCSYDIR
 10
0.0
 20
1.0
 30
0.0
  9
$UCSORTHOREF
  2

  9
$UCSORTHOVIEW
 70
0
  9
$UCSORGTOP
 10
0.0
 20
0.0
 30
0.0
  9
$UCSORGBOTTOM
 10
0.0
 20
0.0
 30
0.0
  9
$UCSORGLEFT
 10
0.0
 20
0.0
 30
0.0
  9
$UCSORGRIGHT
 10
0.0
 20
0.0
 30
0.0
  9
$UCSORGFRONT
 10
0.0
 20
0.0
 30
0.0
  9
$UCSORGBACK
 10
0.0
 20
0.0
 30
0.0
  9
$PUCSBASE
  2

  9
$PUCSNAME
  2

  9
$PUCSORG
 10
0.0
 20
0.0
 30
0.0
  9
$PUCSXDIR
 10
1.0
 20
0.0
 30
0.0
  9
$PUCSYDIR
 10
0.0
 20
1.0
 30
0.0
  9
$PUCSORTHOREF
  2

  9
$PUCSORTHOVIEW
 70
0
  9
$PUCSORGTOP
 10
0.0
 20
0.0
 30
0.0
  9
$PUCSORGBOTTOM
 10
0.0
 20
0.0
 30
0.0
  9
$PUCSORGLEFT
 10
0.0
 20
0.0
 30
0.0
  9
$PUCSORGRIGHT
 10
0.0
 20
0.0
 30
0.0
  9
$PUCSORGFRONT
 10
0.0
 20
0.0
 30
0.0
  9
$PUCSORGBACK
 10
0.0
 20
0.0
 30
0.0
  9
$USERI1
 70
0
  9
$USERI2
 70
0
  9
$USERI3
 70
0
  9
$USERI4
 70
0
  9
$USERI5
 70
0
  9
$USERR1
 40
0.0
  9
$USERR2
 40
0.0
  9
$USERR3
 40
0.0
  9
$USERR4
 40
0.0
  9
$USERR5
 40
0.0
  9
$WORLDVIEW
 70
1
  9
$SHADEDGE
 70
3
  9
$SHADEDIF
 70
70
  9
$TILEMODE
 70
1
  9
$MAXACTVP
 70
64
  9
$PINSBASE
 10
0.0
 20
0.0
 30
0.0
  9
$PLIMCHECK
 70
0
  9
$PEXTMIN
 10
1e+20
 20
1e+20
 30
1e+20
  9
$PEXTMAX
 10
-1e+20
 20
-1e+20
 30
-1e+20
  9
$PLIMMIN
 10
0.0
 20
0.0
  9
$PLIMMAX
 10
420.0
 20
297.0
  9
$UNITMODE
 70
0
  9
$VISRETAIN
 70
1
  9
$PLINEGEN
 70
0
  9
$PSLTSCALE
 70
1
  9
$TREEDEPTH
 70
3020
  9
$CMLSTYLE
  2
Standard
  9
$CMLJUST
 70
0
  9
$CMLSCALE
 40
20.0
  9
$PROXYGRAPHICS
 70
1
  9
$MEASUREMENT
 70
1
  9
$CELWEIGHT
370
-1
  9
$ENDCAPS
280
0
  9
$JOINSTYLE
280
0
  9
$LWDISPLAY
290
0
  9
$INSUNITS
 70
6
  9
$HYPERLINKBASE
  1

  9
$STYLESHEET
  1

  9
$XEDIT
290
1
  9
$CEPSNTYPE
380
0
  9
$PSTYLEMODE
290
1
  9
$FINGERPRINTGUID
  2
{66F533FC-C563-449A-8758-4516DAA9E0EF}
  9
$VERSIONGUID
  2
{D6227F57-992A-4CF7-8009-73AAEFC3F65F}
  9
$EXTNAMES
290
1
  9
$PSVPSCALE
 40
0.0
  9
$OLESTARTUP
290
0
  9
$SORTENTS
280
127
  9
$INDEXCTL
280
0
  9
$HIDETEXT
280
1
  9
$XCLIPFRAME
280
0
  9
$HALOGAP
280
0
  9
$OBSCOLOR
 70
257
  9
$OBSLTYPE
280
0
  9
$INTERSECTIONDISPLAY
280
0
  9
$INTERSECTIONCOLOR
 70
257
  9
$DIMASSOC
280
2
  9
$PROJECTNAME
  1

  9
$CAMERADISPLAY
290
0
  9
$LENSLENGTH
 40
50.0
  9
$CAMERAHEIGHT
 40
0.0
  9
$STEPSPERSEC
 40
24.0
  9
$STEPSIZE
 40
100.0
  9
$3DDWFPREC
 40
2.0
  9
$PSOLWIDTH
 40
0.005
  9
$PSOLHEIGHT
 40
0.08
  9
$LOFTANG1
 40
1.570796326795
  9
$LOFTANG2
 40
1.570796326795
  9
$LOFTMAG1
 40
0.0
  9
$LOFTMAG2
 40
0.0
  9
$LOFTPARAM
 70
7
  9
$LOFTNORMALS
280
1
  9
$LATITUDE
 40
37.795
  9
$LONGITUDE
 40
-122.394
  9
$NORTHDIRECTION
 40
0.0
  9
$TIMEZONE
 70
-8000
  9
$LIGHTGLYPHDISPLAY
280
1
  9
$TILEMODELIGHTSYNCH
280
1
  9
$CMATERIAL
347
20
  9
$SOLIDHIST
280
0
  9
$SHOWHIST
280
1
  9
$DWFFRAME
280
2
  9
$DGNFRAME
280
2
  9
$REALWORLDSCALE
290
1
  9
$INTERFERECOLOR
 62
256
  9
$CSHADOW
280
0
  9
$SHADOWPLANELOCATION
 40
0.0
  0
ENDSEC
  0
SECTION
  2
CLASSES
  0
CLASS
  1
ACDBDICTIONARYWDFLT
  2
AcDbDictionaryWithDefault
  3
ObjectDBX Classes
 90
0
 91
0
280
0
281
0
  0
CLASS
  1
SUN
  2
AcDbSun
  3
SCENEOE
 90
1153
 91
0
280
0
281
0
  0
CLASS
  1
VISUALSTYLE
  2
AcDbVisualStyle
  3
ObjectDBX Classes
 90
4095
 91
0
280
0
281
0
  0
CLASS
  1
MATERIAL
  2
AcDbMaterial
  3
ObjectDBX Classes
 90
1153
 91
0
280
0
281
0
  0
CLASS
  1
SCALE
  2
AcDbScale
  3
ObjectDBX Classes
 90
1153
 91
0
280
0
281
0
  0
CLASS
  1
TABLESTYLE
  2
AcDbTableStyle
  3
ObjectDBX Classes
 90
4095
 91
0
280
0
281
0
  0
CLASS
  1
MLEADERSTYLE
  2
AcDbMLeaderStyle
  3
ACDB_MLEADERSTYLE_CLASS
 90
4095
 91
0
280
0
281
0
  0
CLASS
  1
DICTIONARYVAR
  2
AcDbDictionaryVar
  3
ObjectDBX Classes
 90
0
 91
0
280
0
281
0
  0
CLASS
  1
CELLSTYLEMAP
  2
AcDbCellStyleMap
  3
ObjectDBX Classes
 90
1152
 91
0
280
0
281
0
  0
CLASS
  1
MENTALRAYRENDERSETTINGS
  2
AcDbMentalRayRenderSettings
  3
SCENEOE
 90
1024
 91
0
280
0
281
0
  0
CLASS
  1
ACDBDETAILVIEWSTYLE
  2
AcDbDetailViewStyle
  3
ObjectDBX Classes
 90
1025
 91
0
280
0
281
0
  0
CLASS
  1
ACDBSECTIONVIEWSTYLE
  2
AcDbSectionViewStyle
  3
ObjectDBX Classes
 90
1025
 91
0
280
0
281
0
  0
CLASS
  1
RASTERVARIABLES
  2
AcDbRasterVariables
  3
ISM
 90
0
 91
0
280
0
281
0
  0
CLASS
  1
LAYOUT
  2
AcDbLayout
  3
ObjectDBX Classes
 90
0
 91
0
280
0
281
0
  0
CLASS
  1
ACDBPLACEHOLDER
  2
AcDbPlaceHolder
  3
ObjectDBX Classes
 90
0
 91
0
280
0
281
0
  0
ENDSEC
  0
SECTION
  2
TABLES
  0
TABLE
  2
VPORT
  5
8
330
0
100
AcDbSymbolTable
 70
1
  0
VPORT
  5
23
330
8
100
AcDbSymbolTableRecord
100
AcDbViewportTableRecord
  2
*Active
 70
0
 10
0.0
 20
0.0
 11
1.0
 21
1.0
 12
0.0
 22
0.0
 13
0.0
 23
0.0
 14
0.5
 24
0.5
 15
0.5
 25
0.5
 16
0.0
 26
0.0
 36
1.0
 17
0.0
 27
0.0
 37
0.0
 40
1000.0
 41
1.34
 42
50.0
 43
0.0
 44
0.0
 50
0.0
 51
0.0
 71
0
 72
1000
 73
1
 74
3
 75
0
 76
0
 77
0
 78
0
281
0
 65
0
146
0.0
  0
ENDTAB
  0
TABLE
  2
LTYPE
  5
2
330
0
100
AcDbSymbolTable
 70
3
  0
LTYPE
  5
24
330
2
100
AcDbSymbolTableRecord
100
AcDbLinetypeTableRecord
  2
ByBlock
 70
0
  3

 72
65
 73
0
 40
0.0
  0
LTYPE
  5
25
330
2
100
AcDbSymbolTableRecord
100
AcDbLinetypeTableRecord
  2
ByLayer
 70
0
  3

 72
65
 73
0
 40
0.0
  0
LTYPE
  5
26
330
2
100
AcDbSymbolTableRecord
100
AcDbLinetypeTableRecord
  2
Continuous
 70
0
  3

 72
65
 73
0
 40
0.0
  0
ENDTAB
  0
TABLE
  2
LAYER
  5
1
330
0
100
AcDbSymbolTable
 70
2
  0
LAYER
  5
27
330
1
100
AcDbSymbolTableRecord
100
AcDbLayerTableRecord
  2
0
 70
0
 62
7
  6
Continuous
370
-3
390
13
347
21
  0
LAYER
  5
28
330
1
100
AcDbSymbolTableRecord
100
AcDbLayerTableRecord
  2
Defpoints
 70
0
 62
7
  6
Continuous
290
0
370
-3
390
13
347
21
  0
ENDTAB
  0
TABLE
  2
STYLE
  5
5
330
0
100
AcDbSymbolTable
 70
1
  0
STYLE
  5
29
330
5
100
AcDbSymbolTableRecord
100
AcDbTextStyleTableRecord
  2
Standard
 70
0
 40
0.0
 41
1.0
 50
0.0
 71
0
 42
2.5
  3
txt
  4

  0
ENDTAB
  0
TABLE
  2
VIEW
  5
7
330
0
100
AcDbSymbolTable
 70
0
  0
ENDTAB
  0
TABLE
  2
UCS
  5
6
330
0
100
AcDbSymbolTable
 70
0
  0
ENDTAB
  0
TABLE
  2
APPID
  5
3
330
0
100
AcDbSymbolTable
 70
3
  0
APPID
  5
2A
330
3
100
AcDbSymbolTableRecord
100
AcDbRegAppTableRecord
  2
ACAD
 70
0
  0
APPID
  5
39
330
3
100
AcDbSymbolTableRecord
100
AcDbRegAppTableRecord
  2
HATCHBACKGROUNDCOLOR
 70
0
  0
APPID
  5
3A
330
3
100
AcDbSymbolTableRecord
100
AcDbRegAppTableRecord
  2
EZDXF
 70
0
  0
ENDTAB
  0
TABLE
  2
DIMSTYLE
  5
4
330
0
100
AcDbSymbolTable
 70
1
100
AcDbDimStyleTable
  0
DIMSTYLE
105
2B
330
4
100
AcDbSymbolTableRecord
100
AcDbDimStyleTableRecord
  2
Standard
 70
0
 40
1.0
 41
2.5
 42
0.625
 43
3.75
 44
1.25
 45
0.0
 46
0.0
 47
0.0
 48
0.0
 49
2.5
140
2.5
141
2.5
142
0.0
143
0.03937007874
144
1.0
145
0.0
146
1.0
147
0.625
148
0.0
 69
0
 70
0
 71
0
 72
0
 73
0
 74
0
 75
0
 76
0
 77
1
 78
8
 79
3
170
0
171
3
172
1
173
0
174
0
175
0
176
0
177
0
178
0
179
2
271
2
272
2
273
2
274
3
275
0
276
0
277
2
278
44
279
0
280
0
281
0
282
0
283
0
284
8
285
0
286
0
288
0
289
3
290
0
371
-2
372
-2
  0
ENDTAB
  0
TABLE
  2
BLOCK_RECORD
  5
9
330
0
100
AcDbSymbolTable
 70
2
  0
BLOCK_RECORD
  5
17
330
9
100
AcDbSymbolTableRecord
100
AcDbBlockTableRecord
  2
*Model_Space
340
1A
 70
0
280
1
281
0
  0
BLOCK_RECORD
  5
1B
330
9
100
AcDbSymbolTableRecord
100
AcDbBlockTableRecord
  2
*Paper_Space
340
1E
 70
0
280
1
281
0
  0
ENDTAB
  0
ENDSEC
  0
SECTION
  2
BLOCKS
  0
BLOCK
  5
18
330
17
100
AcDbEntity
  8
0
100
AcDbBlockBegin
  2
*Model_Space
 70
0
 10
0.0
 20
0.0
 30
0.0
  3
*Model_Space
  1

  0
ENDBLK
  5
19
330
17
100
AcDbEntity
  8
0
100
AcDbBlockEnd
  0
BLOCK
  5
1C
330
1B
100
AcDbEntity
  8
0
100
AcDbBlockBegin
  2
*Paper_Space
 70
0
 10
0.0
 20
0.0
 30
0.0
  3
*Paper_Space
  1

  0
ENDBLK
  5
1D
330
1B
100
AcDbEntity
  8
0
100
AcDbBlockEnd
  0
ENDSEC
  0
SECTION
  2
ENTITIES
  0
LWPOLYLINE
  5
2F
330
17
100
AcDbEntity
  8
0
100
AcDbPolyline
 90
51
 70
0
 10
-4.277777777777788
 20
13.448992647913283
 10
-3.5881859868501347
 20
13.112243871089749
 10
-2.939601176853225
 20
12.702031339530526
 10
-2.3398187624353985
 20
12.22328544433969
 10
-1.7960475966982115
 20
11.68176028691875
 10
-1.3148233271705507
 20
11.083964519767022
 10
-0.9019298431171547
 20
10.437083118246463
 10
-0.5623297583152533
 20
9.748891023545069
 10
-0.3001047648347761
 20
9.027659694773837
 10
-0.11840657471681748
 20
8.282057693358329
 10
-0.01941903918791077
 20
7.5210464946123
 10
-0.004331900703584246
 20
6.753772778745981
 10
-0.07332649329838503
 20
5.989458495875622
 10
-0.22557356311147814
 20
5.237290026355477
 10
-0.459243235283175
 20
4.506307768626792
 10
-0.7715270074291434
 20
3.805297481640045
 10
-1.1586715053501973
 20
3.142684687818188
 10
-1.616023595263984
 20
2.526433405743707
 10
-2.138086310349502
 20
1.963950429712881
 10
-2.718584919416929
 20
1.461996306632158
 10
-3.3505423436159516
 20
1.026604080235444
 10
-4.02636301474054
 20
0.6630067792448262
 10
-4.737924167227688
 20
0.375574521002787
 10
-5.476673466601173
 20
0.16776198653449192
 10
-6.233731800953009
 20
0.04206689834335364
 10
-7.000000000000003
 20
0.0
 10
-7.766268199046994
 20
0.04206689834335364
 10
-8.523326533398832
 20
0.1677619865344928
 10
-9.262075832772316
 20
0.37557452100278876
 10
-9.97363698525946
 20
0.6630067792448271
 10
-10.649457656384055
 20
1.0266040802354475
 10
-11.281415080583077
 20
1.4619963066321624
 10
-11.861913689650502
 20
1.9639504297128845
 10
-12.383976404736018
 20
2.526433405743708
 10
-12.841328494649801
 20
3.142684687818187
 10
-13.228472992570861
 20
3.805297481640052
 10
-13.540756764716825
 20
4.506307768626794
 10
-13.774426436888522
 20
5.237290026355473
 10
-13.926673506701615
 20
5.9894584958756285
 10
-13.995668099296417
 20
6.753772778745983
 10
-13.980580960812087
 20
7.5210464946123095
 10
-13.881593425283182
 20
8.282057693358333
 10
-13.699895235165224
 20
9.027659694773837
 10
-13.437670241684742
 20
9.748891023545076
 10
-13.098070156882844
 20
10.437083118246466
 10
-12.68517667282945
 20
11.08396451976702
 10
-12.203952403301784
 20
11.681760286918756
 10
-11.660181237564599
 20
12.223285444339691
 10
-11.060398823146766
 20
12.702031339530532
 10
-10.41181401314986
 20
13.112243871089753
 10
-9.72222222222221
 20
13.448992647913283
  0
LWPOLYLINE
  5
30
330
17
100
AcDbEntity
  8
0
100
AcDbPolyline
 90
51
 70
0
 10
-5.500000000000001
 20
18.0
 10
-5.500000000000001
 20
17.94583123951777
 10
-5.500000000000001
 20
17.89166247903554
 10
-5.500000000000001
 20
17.83749371855331
 10
-5.500000000000001
 20
17.78332495807108
 10
-5.500000000000001
 20
17.72915619758885
 10
-5.500000000000001
 20
17.67498743710662
 10
-5.500000000000001
 20
17.62081867662439
 10
-5.500000000000001
 20
17.56664991614216
 10
-5.500000000000001
 20
17.51248115565993
 10
-5.500000000000001
 20
17.4583123951777
 10
-5.500000000000001
 20
17.40414363469547
 10
-5.500000000000001
 20
17.34997487421324
 10
-5.500000000000001
 20
17.29580611373101
 10
-5.500000000000001
 20
17.24163735324878
 10
-5.500000000000001
 20
17.18746859276655
 10
-5.500000000000001
 20
17.13329983228432
 10
-5.500000000000001
 20
17.079131071802088
 10
-5.500000000000001
 20
17.02496231131986
 10
-5.500000000000001
 20
16.97079355083763
 10
-5.500000000000001
 20
16.9166247903554
 10
-5.500000000000001
 20
16.86245602987317
 10
-5.500000000000001
 20
16.80828726939094
 10
-5.500000000000001
 20
16.75411850890871
 10
-5.500000000000001
 20
16.69994974842648
 10
-5.500000000000001
 20
16.64578098794425
 10
-5.500000000000001
 20
16.591612227462022
 10
-5.500000000000001
 20
16.53744346697979
 10
-5.500000000000001
 20
16.48327470649756
 10
-5.5
 20
16.42910594601533
 10
-5.5
 20
16.3749371855331
 10
-5.5
 20
16.320768425050872
 10
-5.5
 20
16.26659966456864
 10
-5.5
 20
16.21243090408641
 10
-5.5
 20
16.15826214360418
 10
-5.5
 20
16.10409338312195
 10
-5.5
 20
16.049924622639722
 10
-5.5
 20
15.995755862157491
 10
-5.5
 20
15.94158710167526
 10
-5.5
 20
15.88741834119303
 10
-5.5
 20
15.8332495807108
 10
-5.5
 20
15.77908082022857
 10
-5.5
 20
15.724912059746341
 10
-5.5
 20
15.67074329926411
 10
-5.5
 20
15.61657453878188
 10
-5.5
 20
15.56240577829965
 10
-5.5
 20
15.50823701781742
 10
-5.5
 20
15.45406825733519
 10
-5.5
 20
15.39989949685296
 10
-5.5
 20
15.34573073637073
 10
-5.5
 20
15.2915619758885
  0
LWPOLYLINE
  5
31
330
17
100
AcDbEntity
  8
0
100
AcDbPolyline
 90
51
 70
0
 10
-7.5
 20
19.0
 10
-7.48
 20
19.0
 10
-7.46
 20
19.0
 10
-7.4399999999999995
 20
19.0
 10
-7.42
 20
19.0
 10
-7.4
 20
19.0
 10
-7.38
 20
19.0
 10
-7.359999999999999
 20
19.0
 10
-7.34
 20
19.0
 10
-7.32
 20
19.0
 10
-7.3
 20
19.0
 10
-7.28
 20
19.0
 10
-7.26
 20
19.0
 10
-7.24
 20
19.0
 10
-7.22
 20
19.0
 10
-7.2
 20
19.0
 10
-7.18
 20
19.0
 10
-7.16
 20
19.0
 10
-7.140000000000001
 20
19.0
 10
-7.12
 20
19.0
 10
-7.1
 20
19.0
 10
-7.08
 20
19.0
 10
-7.0600000000000005
 20
19.0
 10
-7.04
 20
19.0
 10
-7.02
 20
19.0
 10
-7.0
 20
19.0
 10
-6.98
 20
19.0
 10
-6.96
 20
19.0
 10
-6.9399999999999995
 20
19.0
 10
-6.92
 20
19.0
 10
-6.9
 20
19.0
 10
-6.88
 20
19.0
 10
-6.859999999999999
 20
19.0
 10
-6.84
 20
19.0
 10
-6.82
 20
19.0
 10
-6.8
 20
19.0
 10
-6.78
 20
19.0
 10
-6.76
 20
19.0
 10
-6.74
 20
19.0
 10
-6.72
 20
19.0
 10
-6.7
 20
19.0
 10
-6.68
 20
19.0
 10
-6.66
 20
19.0
 10
-6.640000000000001
 20
19.0
 10
-6.62
 20
19.0
 10
-6.6
 20
19.0
 10
-6.58
 20
19.0
 10
-6.5600000000000005
 20
19.0
 10
-6.54
 20
19.0
 10
-6.52
 20
19.0
 10
-6.5
 20
19.0
  0
LWPOLYLINE
  5
32
330
17
100
AcDbEntity
  8
0
100
AcDbPolyline
 90
51
 70
0
 10
-8.499999999999998
 20
15.2915619758885
 10
-8.499999999999998
 20
15.34573073637073
 10
-8.499999999999998
 20
15.39989949685296
 10
-8.499999999999998
 20
15.45406825733519
 10
-8.499999999999998
 20
15.50823701781742
 10
-8.499999999999998
 20
15.56240577829965
 10
-8.499999999999998
 20
15.61657453878188
 10
-8.499999999999998
 20
15.67074329926411
 10
-8.499999999999998
 20
15.724912059746341
 10
-8.499999999999998
 20
15.77908082022857
 10
-8.499999999999998
 20
15.8332495807108
 10
-8.499999999999998
 20
15.88741834119303
 10
-8.499999999999998
 20
15.94158710167526
 10
-8.499999999999998
 20
15.995755862157491
 10
-8.499999999999998
 20
16.049924622639722
 10
-8.499999999999998
 20
16.10409338312195
 10
-8.499999999999998
 20
16.15826214360418
 10
-8.499999999999998
 20
16.21243090408641
 10
-8.499999999999998
 20
16.26659966456864
 10
-8.499999999999998
 20
16.320768425050872
 10
-8.5
 20
16.3749371855331
 10
-8.5
 20
16.42910594601533
 10
-8.5
 20
16.48327470649756
 10
-8.5
 20
16.53744346697979
 10
-8.5
 20
16.591612227462022
 10
-8.5
 20
16.64578098794425
 10
-8.5
 20
16.69994974842648
 10
-8.5
 20
16.75411850890871
 10
-8.5
 20
16.808287269390938
 10
-8.5
 20
16.86245602987317
 10
-8.5
 20
16.9166247903554
 10
-8.5
 20
16.97079355083763
 10
-8.5
 20
17.02496231131986
 10
-8.5
 20
17.07913107180209
 10
-8.5
 20
17.13329983228432
 10
-8.5
 20
17.18746859276655
 10
-8.5
 20
17.24163735324878
 10
-8.5
 20
17.29580611373101
 10
-8.5
 20
17.34997487421324
 10
-8.5
 20
17.40414363469547
 10
-8.5
 20
17.4583123951777
 10
-8.5
 20
17.51248115565993
 10
-8.5
 20
17.56664991614216
 10
-8.5
 20
17.62081867662439
 10
-8.5
 20
17.67498743710662
 10
-8.5
 20
17.72915619758885
 10
-8.5
 20
17.78332495807108
 10
-8.5
 20
17.83749371855331
 10
-8.5
 20
17.89166247903554
 10
-8.5
 20
17.94583123951777
 10
-8.5
 20
18.0
  0
LWPOLYLINE
  5
33
330
17
100
AcDbEntity
  8
0
100
AcDbPolyline
 90
51
 70
0
 10
-5.499999999999997
 20
18.000000000000004
 10
-5.519999999999997
 20
18.020000000000003
 10
-5.539999999999997
 20
18.040000000000003
 10
-5.559999999999997
 20
18.060000000000002
 10
-5.5799999999999965
 20
18.080000000000002
 10
-5.599999999999997
 20
18.1
 10
-5.6199999999999966
 20
18.120000000000005
 10
-5.639999999999997
 20
18.140000000000004
 10
-5.659999999999997
 20
18.160000000000004
 10
-5.679999999999997
 20
18.180000000000003
 10
-5.699999999999997
 20
18.200000000000003
 10
-5.719999999999996
 20
18.220000000000002
 10
-5.739999999999997
 20
18.240000000000002
 10
-5.759999999999996
 20
18.26
 10
-5.779999999999997
 20
18.28
 10
-5.799999999999997
 20
18.300000000000004
 10
-5.819999999999996
 20
18.32
 10
-5.839999999999996
 20
18.340000000000003
 10
-5.859999999999996
 20
18.360000000000003
 10
-5.879999999999996
 20
18.380000000000003
 10
-5.899999999999997
 20
18.400000000000002
 10
-5.919999999999996
 20
18.42
 10
-5.939999999999996
 20
18.44
 10
-5.959999999999996
 20
18.46
 10
-5.979999999999996
 20
18.480000000000004
 10
-5.9999999999999964
 20
18.500000000000004
 10
-6.019999999999996
 20
18.520000000000003
 10
-6.0399999999999965
 20
18.540000000000003
 10
-6.059999999999996
 20
18.560000000000002
 10
-6.079999999999996
 20
18.580000000000002
 10
-6.099999999999996
 20
18.6
 10
-6.119999999999996
 20
18.620000000000005
 10
-6.139999999999996
 20
18.640000000000004
 10
-6.159999999999996
 20
18.660000000000004
 10
-6.179999999999995
 20
18.680000000000003
 10
-6.199999999999997
 20
18.700000000000003
 10
-6.219999999999995
 20
18.720000000000002
 10
-6.239999999999996
 20
18.740000000000002
 10
-6.259999999999996
 20
18.76
 10
-6.279999999999996
 20
18.78
 10
-6.299999999999996
 20
18.800000000000004
 10
-6.319999999999996
 20
18.82
 10
-6.339999999999995
 20
18.840000000000003
 10
-6.359999999999996
 20
18.860000000000003
 10
-6.3799999999999955
 20
18.880000000000003
 10
-6.399999999999996
 20
18.900000000000002
 10
-6.4199999999999955
 20
18.92
 10
-6.439999999999996
 20
18.940000000000005
 10
-6.4599999999999955
 20
18.96
 10
-6.479999999999996
 20
18.980000000000004
 10
-6.499999999999996
 20
19.000000000000004
  0
LWPOLYLINE
  5
34
330
17
100
AcDbEntity
  8
0
100
AcDbPolyline
 90
51
 70
0
 10
-7.500000000000004
 20
19.000000000000004
 10
-7.520000000000004
 20
18.980000000000004
 10
-7.5400000000000045
 20
18.960000000000004
 10
-7.560000000000004
 20
18.940000000000005
 10
-7.5800000000000045
 20
18.92
 10
-7.600000000000004
 20
18.900000000000006
 10
-7.620000000000004
 20
18.880000000000003
 10
-7.640000000000004
 20
18.860000000000003
 10
-7.660000000000004
 20
18.840000000000003
 10
-7.680000000000004
 20
18.820000000000004
 10
-7.700000000000005
 20
18.800000000000004
 10
-7.720000000000003
 20
18.780000000000005
 10
-7.740000000000004
 20
18.760000000000005
 10
-7.760000000000004
 20
18.740000000000002
 10
-7.780000000000004
 20
18.720000000000006
 10
-7.800000000000004
 20
18.700000000000003
 10
-7.820000000000004
 20
18.680000000000003
 10
-7.840000000000004
 20
18.660000000000004
 10
-7.860000000000004
 20
18.640000000000004
 10
-7.8800000000000034
 20
18.620000000000005
 10
-7.900000000000004
 20
18.600000000000005
 10
-7.9200000000000035
 20
18.580000000000005
 10
-7.940000000000004
 20
18.560000000000002
 10
-7.9600000000000035
 20
18.540000000000003
 10
-7.980000000000004
 20
18.520000000000003
 10
-8.000000000000004
 20
18.500000000000004
 10
-8.020000000000003
 20
18.480000000000004
 10
-8.040000000000003
 20
18.460000000000004
 10
-8.060000000000004
 20
18.440000000000005
 10
-8.080000000000004
 20
18.42
 10
-8.100000000000005
 20
18.400000000000006
 10
-8.120000000000005
 20
18.380000000000003
 10
-8.140000000000004
 20
18.360000000000003
 10
-8.160000000000004
 20
18.340000000000003
 10
-8.180000000000003
 20
18.320000000000004
 10
-8.200000000000003
 20
18.300000000000004
 10
-8.220000000000002
 20
18.280000000000005
 10
-8.240000000000004
 20
18.260000000000005
 10
-8.260000000000003
 20
18.240000000000002
 10
-8.280000000000005
 20
18.220000000000002
 10
-8.300000000000004
 20
18.200000000000003
 10
-8.320000000000004
 20
18.180000000000003
 10
-8.340000000000003
 20
18.160000000000004
 10
-8.360000000000003
 20
18.140000000000004
 10
-8.380000000000003
 20
18.120000000000005
 10
-8.400000000000004
 20
18.1
 10
-8.420000000000003
 20
18.080000000000002
 10
-8.440000000000003
 20
18.060000000000002
 10
-8.460000000000004
 20
18.040000000000003
 10
-8.480000000000004
 20
18.020000000000003
 10
-8.500000000000004
 20
18.000000000000004
  0
LWPOLYLINE
  5
35
330
17
100
AcDbEntity
  8
0
100
AcDbPolyline
 90
51
 70
0
 10
-8.5
 20
15.2915619758885
 10
-8.500548818987276
 20
15.244711418294962
 10
-8.502194974746825
 20
15.197886573176996
 10
-8.50493756383711
 20
15.151113138898678
 10
-8.508775081073162
 20
15.104416785608842
 10
-8.513705420352661
 20
15.05782314115281
 10
-8.519725875811794
 20
15.011357777007342
 10
-8.526833143310293
 20
14.965046194246536
 10
-8.53502332224481
 20
14.918913809546341
 10
-8.544291917689634
 20
14.872985941235408
 10
-8.554633842863598
 20
14.827287795399911
 10
-8.566043421921806
 20
14.781844452049969
 10
-8.578514393070632
 20
14.736680851355256
 10
-8.592039912004319
 20
14.691821779957369
 10
-8.606612555661263
 20
14.647291857366444
 10
-8.622224326297932
 20
14.603115522449496
 10
-8.638866655878173
 20
14.55931702001792
 10
-8.656530410775524
 20
14.515920387521462
 10
-8.675205896785908
 20
14.472949441856022
 10
-8.694882864448005
 20
14.430427766292482
 10
-8.715550514668351
 20
14.388378697533762
 10
-8.737197504648083
 20
14.346825312907193
 10
-8.759811954108084
 20
14.305790417699244
 10
-8.783381451809102
 20
14.265296532639546
 10
-8.807893062363277
 20
14.22536588154109
 10
-8.83333333333333
 20
14.186020379103372
 10
-8.859688302615512
 20
14.147281618885193
 10
-8.886943506102268
 20
14.109170861453705
 10
-8.915083985620425
 20
14.071709022716206
 10
-8.944094297140515
 20
14.034916662441095
 10
-8.973958519252744
 20
13.998813972974274
 10
-9.004660261904979
 20
13.963420768157217
 10
-9.036182675397908
 20
13.928756472452747
 10
-9.068508459632486
 20
13.894840110284528
 10
-9.101619873604541
 20
13.861690295596096
 10
-9.135498745141394
 20
13.829325221635179
 10
-9.170126480875075
 20
13.797762650968888
 10
-9.205484076446728
 20
13.767019905735296
 10
-9.24155212693656
 20
13.737113858136704
 10
-9.278310837513626
 20
13.708060921179872
 10
-9.315740034299616
 20
13.679877039668234
 10
-9.353819175440652
 20
13.652577681451104
 10
-9.392527362381058
 20
13.626177828934608
 10
-9.43184335133288
 20
13.600691970859069
 10
-9.471745564934876
 20
13.576134094347308
 10
-9.512212104094587
 20
13.55251767722824
 10
-9.553220760006973
 20
13.529855680639992
 10
-9.594749026343026
 20
13.508160541916581
 10
-9.636774111601671
 20
13.48744416776207
 10
-9.67927295161818
 20
13.467717927715942
 10
-9.722222222222213
 20
13.448992647913283
  0
LWPOLYLINE
  5
36
330
17
100
AcDbEntity
  8
0
100
AcDbPolyline
 90
51
 70
0
 10
-4.2777777777777874
 20
13.448992647913283
 10
-4.320727048381819
 20
13.467717927715942
 10
-4.363225888398328
 20
13.48744416776207
 10
-4.405250973656974
 20
13.508160541916581
 10
-4.4467792399930275
 20
13.529855680639992
 10
-4.487787895905413
 20
13.55251767722824
 10
-4.528254435065124
 20
13.576134094347308
 10
-4.56815664866712
 20
13.60069197085907
 10
-4.607472637618942
 20
13.626177828934608
 10
-4.646180824559349
 20
13.652577681451103
 10
-4.684259965700385
 20
13.679877039668234
 10
-4.721689162486374
 20
13.708060921179872
 10
-4.7584478730634405
 20
13.737113858136704
 10
-4.794515923553272
 20
13.767019905735296
 10
-4.8298735191249245
 20
13.797762650968888
 10
-4.864501254858606
 20
13.829325221635179
 10
-4.898380126395458
 20
13.861690295596096
 10
-4.931491540367515
 20
13.894840110284528
 10
-4.963817324602092
 20
13.928756472452747
 10
-4.995339738095022
 20
13.963420768157217
 10
-5.026041480747256
 20
13.998813972974274
 10
-5.055905702859486
 20
14.034916662441095
 10
-5.084916014379574
 20
14.071709022716206
 10
-5.113056493897732
 20
14.109170861453705
 10
-5.1403116973844885
 20
14.147281618885193
 10
-5.16666666666667
 20
14.186020379103372
 10
-5.192106937636723
 20
14.225365881541089
 10
-5.216618548190898
 20
14.265296532639546
 10
-5.240188045891916
 20
14.305790417699242
 10
-5.262802495351916
 20
14.34682531290719
 10
-5.284449485331648
 20
14.38837869753376
 10
-5.3051171355519955
 20
14.430427766292482
 10
-5.324794103214092
 20
14.472949441856022
 10
-5.343469589224476
 20
14.515920387521462
 10
-5.361133344121826
 20
14.559317020017918
 10
-5.377775673702068
 20
14.603115522449496
 10
-5.393387444338737
 20
14.647291857366442
 10
-5.407960087995681
 20
14.691821779957369
 10
-5.421485606929368
 20
14.736680851355256
 10
-5.4339565780781935
 20
14.781844452049969
 10
-5.445366157136401
 20
14.82728779539991
 10
-5.455708082310367
 20
14.872985941235408
 10
-5.464976677755191
 20
14.918913809546341
 10
-5.473166856689707
 20
14.965046194246536
 10
-5.480274124188206
 20
15.011357777007342
 10
-5.486294579647339
 20
15.057823141152808
 10
-5.491224918926838
 20
15.104416785608842
 10
-5.49506243616289
 20
15.151113138898678
 10
-5.497805025253174
 20
15.197886573176996
 10
-5.499451181012724
 20
15.244711418294962
 10
-5.5
 20
15.2915619758885
  0
LWPOLYLINE
  5
37
330
17
100
AcDbEntity
  8
0
100
AcDbPolyline
 90
51
 70
0
 10
-7.0
 20
9.95
 10
-7.277619524289618
 20
9.936907795579087
 10
-7.552774878027888
 20
9.897747389649632
 10
-7.823023762815726
 20
9.832866372746983
 10
-8.0859674304198
 20
9.742840633370342
 10
-8.339271974231663
 20
9.628469246355685
 10
-8.58068904518804
 20
9.490767380230945
 10
-8.80807580827628
 20
9.330957286508287
 10
-9.019413962489631
 20
9.150457450893164
 10
-9.212827655409855
 20
8.950870002704773
 10
-9.386600133406095
 20
8.733966494262797
 10
-9.539188979661635
 20
8.501672176463595
 10
-9.669239804774758
 20
8.256048910116965
 10
-9.775598268414965
 20
7.99927686472361
 10
-9.85732032532946
 20
7.733635167136321
 10
-9.913680604755656
 20
7.461481671868682
 10
-9.944178848863402
 20
7.185232032611475
 10
-9.948544353078908
 20
6.907338260719522
 10
-9.92673836887771
 20
6.630266960985303
 10
-9.878954447719305
 20
6.3564774378802
 10
-9.805616723070703
 20
6.088399866593906
 10
-9.707376145767745
 20
5.828413722627397
 10
-9.585104706129398
 20
5.5788266613999395
 10
-9.439887694109958
 20
5.3418540353362145
 10
-9.273014066188578
 20
5.119599230241365
 10
-9.085965004500316
 20
4.914034995499685
 10
-8.880400769758635
 20
4.726985933811422
 10
-8.658145964663786
 20
4.560112305890043
 10
-8.42117333860006
 20
4.414895293870602
 10
-8.171586277372604
 20
4.292623854232256
 10
-7.911600133406095
 20
4.1943832769292975
 10
-7.643522562119801
 20
4.121045552280695
 10
-7.369733039014698
 20
4.073261631122291
 10
-7.092661739280478
 20
4.051455646921092
 10
-6.8147679673885255
 20
4.055821151136598
 10
-6.538518328131319
 20
4.0863193952443435
 10
-6.266364832863679
 20
4.142679674670537
 10
-6.00072313527639
 20
4.224401731585035
 10
-5.743951089883037
 20
4.330760195225242
 10
-5.498327823536405
 20
4.460811020338366
 10
-5.266033505737205
 20
4.6133998665939036
 10
-5.0491299972952275
 20
4.787172344590144
 10
-4.849542549106836
 20
4.980586037510369
 10
-4.669042713491713
 20
5.19192419172372
 10
-4.509232619769055
 20
5.4193109548119605
 10
-4.371530753644315
 20
5.660728025768337
 10
-4.257159366629658
 20
5.9140325695802005
 10
-4.167133627253018
 20
6.176976237184273
 10
-4.102252610350368
 20
6.447225121972112
 10
-4.063092204420913
 20
6.722380475710384
 10
-4.05
 20
6.999999999999999
  0
LWPOLYLINE
  5
38
330
17
100
AcDbEntity
  8
0
100
AcDbPolyline
 90
51
 70
0
 10
-4.05
 20
6.999999999999999
 10
-4.051455646921092
 20
7.092661739280477
 10
-4.055821151136598
 20
7.185232032611473
 10
-4.063092204420913
 20
7.277619524289618
 10
-4.07326163112229
 20
7.369733039014697
 10
-4.0863193952443435
 20
7.461481671868681
 10
-4.102252610350368
 20
7.552774878027886
 10
-4.121045552280695
 20
7.643522562119799
 10
-4.142679674670538
 20
7.733635167136322
 10
-4.167133627253017
 20
7.823023762815726
 10
-4.194383276929297
 20
7.911600133406094
 10
-4.224401731585035
 20
7.999276864723608
 10
-4.257159366629658
 20
8.085967430419798
 10
-4.2926238542322555
 20
8.171586277372603
 10
-4.330760195225242
 20
8.256048910116965
 10
-4.371530753644315
 20
8.339271974231663
 10
-4.414895293870602
 20
8.42117333860006
 10
-4.460811020338367
 20
8.501672176463597
 10
-4.5092326197690555
 20
8.580689045188041
 10
-4.560112305890042
 20
8.658145964663785
 10
-4.613399866593904
 20
8.733966494262795
 10
-4.669042713491713
 20
8.80807580827628
 10
-4.72698593381142
 20
8.880400769758634
 10
-4.787172344590143
 20
8.950870002704772
 10
-4.849542549106836
 20
9.019413962489631
 10
-4.914034995499684
 20
9.085965004500315
 10
-4.980586037510367
 20
9.150457450893164
 10
-5.049129997295226
 20
9.212827655409855
 10
-5.1195992302413655
 20
9.27301406618858
 10
-5.19192419172372
 20
9.330957286508287
 10
-5.266033505737203
 20
9.386600133406095
 10
-5.341854035336214
 20
9.439887694109956
 10
-5.419310954811959
 20
9.490767380230944
 10
-5.498327823536405
 20
9.539188979661635
 10
-5.5788266613999395
 20
9.585104706129398
 10
-5.660728025768337
 20
9.628469246355685
 10
-5.743951089883034
 20
9.669239804774758
 10
-5.828413722627398
 20
9.707376145767745
 10
-5.9140325695802005
 20
9.742840633370342
 10
-6.00072313527639
 20
9.775598268414965
 10
-6.088399866593904
 20
9.805616723070703
 10
-6.176976237184272
 20
9.832866372746981
 10
-6.266364832863677
 20
9.85732032532946
 10
-6.356477437880197
 20
9.878954447719305
 10
-6.447225121972112
 20
9.897747389649632
 10
-6.538518328131318
 20
9.913680604755656
 10
-6.630266960985301
 20
9.926738368877709
 10
-6.722380475710383
 20
9.936907795579087
 10
-6.8147679673885255
 20
9.944178848863402
 10
-6.907338260719522
 20
9.948544353078908
 10
-6.999999999999999
 20
9.95
  0
ENDSEC
  0
SECTION
  2
OBJECTS
  0
DICTIONARY
  5
A
330
0
100
AcDbDictionary
280
0
281
1
  3
ACAD_COLOR
350
B
  3
ACAD_GROUP
350
C
  3
ACAD_LAYOUT
350
D
  3
ACAD_MATERIAL
350
E
  3
ACAD_MLEADERSTYLE
350
F
  3
ACAD_MLINESTYLE
350
10
  3
ACAD_PLOTSETTINGS
350
11
  3
ACAD_PLOTSTYLENAME
350
12
  3
ACAD_SCALELIST
350
14
  3
ACAD_TABLESTYLE
350
15
  3
ACAD_VISUALSTYLE
350
16
  3
EZDXF_META
350
2D
  0
DICTIONARY
  5
B
330
A
100
AcDbDictionary
280
0
281
1
  0
DICTIONARY
  5
C
330
A
100
AcDbDictionary
280
0
281
1
  0
DICTIONARY
  5
D
330
A
100
AcDbDictionary
280
0
281
1
  3
Model
350
1A
  3
Layout1
350
1E
  0
DICTIONARY
  5
E
330
A
100
AcDbDictionary
280
0
281
1
  3
ByBlock
350
1F
  3
ByLayer
350
20
  3
Global
350
21
  0
DICTIONARY
  5
F
330
A
100
AcDbDictionary
280
0
281
1
  3
Standard
350
2C
  0
DICTIONARY
  5
10
330
A
100
AcDbDictionary
280
0
281
1
  3
Standard
350
22
  0
DICTIONARY
  5
11
330
A
100
AcDbDictionary
280
0
281
1
  0
ACDBDICTIONARYWDFLT
  5
12
330
A
100
AcDbDictionary
280
0
281
1
  3
Normal
350
13
100
AcDbDictionaryWithDefault
340
13
  0
ACDBPLACEHOLDER
  5
13
330
12
  0
DICTIONARY
  5
14
330
A
100
AcDbDictionary
280
0
281
1
  0
DICTIONARY
  5
15
330
A
100
AcDbDictionary
280
0
281
1
  0
DICTIONARY
  5
16
330
A
100
AcDbDictionary
280
0
281
1
  0
LAYOUT
  5
1A
330
D
100
AcDbPlotSettings
  1

  2
Adobe PDF
  4
A3
  6

 40
7.5
 41
20.0
 42
7.5
 43
20.0
 44
420.0
 45
297.0
 46
0.0
 47
0.0
 48
0.0
 49
0.0
140
0.0
141
0.0
142
1.0
143
1.0
 70
1024
 72
1
 73
0
 74
5
  7

 75
16
 76
0
 77
2
 78
300
147
1.0
148
0.0
149
0.0
100
AcDbLayout
  1
Model
 70
1
 71
0
 10
0.0
 20
0.0
 11
420.0
 21
297.0
 12
0.0
 22
0.0
 32
0.0
 14
1e+20
 24
1e+20
 34
1e+20
 15
-1e+20
 25
-1e+20
 35
-1e+20
146
0.0
 13
0.0
 23
0.0
 33
0.0
 16
1.0
 26
0.0
 36
0.0
 17
0.0
 27
1.0
 37
0.0
 76
1
330
17
  0
LAYOUT
  5
1E
330
D
100
AcDbPlotSettings
  1

  2
Adobe PDF
  4
A3
  6

 40
7.5
 41
20.0
 42
7.5
 43
20.0
 44
420.0
 45
297.0
 46
0.0
 47
0.0
 48
0.0
 49
0.0
140
0.0
141
0.0
142
1.0
143
1.0
 70
0
 72
1
 73
0
 74
5
  7

 75
16
 76
0
 77
2
 78
300
147
1.0
148
0.0
149
0.0
100
AcDbLayout
  1
Layout1
 70
1
 71
1
 10
0.0
 20
0.0
 11
420.0
 21
297.0
 12
0.0
 22
0.0
 32
0.0
 14
1e+20
 24
1e+20
 34
1e+20
 15
-1e+20
 25
-1e+20
 35
-1e+20
146
0.0
 13
0.0
 23
0.0
 33
0.0
 16
1.0
 26
0.0
 36
0.0
 17
0.0
 27
1.0
 37
0.0
 76
1
330
1B
  0
MATERIAL
  5
1F
102
{ACAD_REACTORS
330
E
102
}
330
E
100
AcDbMaterial
  1
ByBlock
  2

 70
0
 40
1.0
 71
1
 41
1.0
 91
-1023410177
 42
1.0
 72
1
  3

 73
1
 74
1
 75
1
 44
0.5
 73
0
 45
1.0
 46
1.0
 77
1
  4

 78
1
 79
1
170
1
 48
1.0
171
1
  6

172
1
173
1
174
1
140
1.0
141
1.0
175
1
  7

176
1
177
1
178
1
143
1.0
179
1
  8

270
1
271
1
272
1
145
1.0
146
1.0
273
1
  9

274
1
275
1
276
1
 42
1.0
 72
1
  3

 73
1
 74
1
 75
1
 94
63
  0
MATERIAL
  5
20
102
{ACAD_REACTORS
330
E
102
}
330
E
100
AcDbMaterial
  1
ByLayer
  2

 70
0
 40
1.0
 71
1
 41
1.0
 91
-1023410177
 42
1.0
 72
1
  3

 73
1
 74
1
 75
1
 44
0.5
 73
0
 45
1.0
 46
1.0
 77
1
  4

 78
1
 79
1
170
1
 48
1.0
171
1
  6

172
1
173
1
174
1
140
1.0
141
1.0
175
1
  7

176
1
177
1
178
1
143
1.0
179
1
  8

270
1
271
1
272
1
145
1.0
146
1.0
273
1
  9

274
1
275
1
276
1
 42
1.0
 72
1
  3

 73
1
 74
1
 75
1
 94
63
  0
MATERIAL
  5
21
102
{ACAD_REACTORS
330
E
102
}
330
E
100
AcDbMaterial
  1
Global
  2

 70
0
 40
1.0
 71
1
 41
1.0
 91
-1023410177
 42
1.0
 72
1
  3

 73
1
 74
1
 75
1
 44
0.5
 73
0
 45
1.0
 46
1.0
 77
1
  4

 78
1
 79
1
170
1
 48
1.0
171
1
  6

172
1
173
1
174
1
140
1.0
141
1.0
175
1
  7

176
1
177
1
178
1
143
1.0
179
1
  8

270
1
271
1
272
1
145
1.0
146
1.0
273
1
  9

274
1
275
1
276
1
 42
1.0
 72
1
  3

 73
1
 74
1
 75
1
 94
63
  0
MLINESTYLE
  5
22
102
{ACAD_REACTORS
330
10
102
}
330
10
100
AcDbMlineStyle
  2
Standard
 70
0
  3

 62
256
 51
90.0
 52
90.0
 71
2
 49
0.5
 62
256
  6
BYLAYER
 49
-0.5
 62
256
  6
BYLAYER
  0
MLEADERSTYLE
  5
2C
102
{ACAD_REACTORS
330
F
102
}
330
F
100
AcDbMLeaderStyle
179
2
170
2
171
1
172
0
 90
2
 40
0.0
 41
0.0
173
1
 91
-1056964608
 92
-2
290
1
 42
2.0
291
1
 43
8.0
  3
Standard
 44
4.0
300

342
29
174
1
175
1
176
0
178
1
 93
-1056964608
 45
4.0
292
0
297
0
 46
4.0
 94
-1056964608
 47
1.0
 49
1.0
140
1.0
294
1
141
0.0
177
0
142
1.0
295
0
296
0
143
3.75
271
0
272
9
273
9
  0
DICTIONARY
  5
2D
330
A
100
AcDbDictionary
281
1
  3
CREATED_BY_EZDXF
350
2E
  3
WRITTEN_BY_EZDXF
350
3B
  0
DICTIONARYVAR
  5
2E
330
2D
100
DictionaryVariables
280
0
  1
1.0.3 @ 2025-05-29T09:41:23.723385+00:00
  0
DICTIONARYVAR
  5
3B
330
2D
100
DictionaryVariables
280
0
  1
1.0.3 @ 2025-05-29T09:41:23.726396+00:00
  0
ENDSEC
  0
EOF
