  0
SECTION
  2
HEADER
  9
$ACADVER
  1
AC1027
  9
$ACADMAINTVER
 70
105
  9
$DWGCODEPAGE
  3
ANSI_1252
  9
$LASTSAVEDBY
  1
ezdxf
  9
$REQUIREDVERSIONS
160
0
  9
$INSBASE
 10
0.0
 20
0.0
 30
0.0
  9
$EXTMIN
 10
1e+20
 20
1e+20
 30
1e+20
  9
$EXTMAX
 10
-1e+20
 20
-1e+20
 30
-1e+20
  9
$LIMMIN
 10
0.0
 20
0.0
  9
$LIMMAX
 10
420.0
 20
297.0
  9
$ORTHOMODE
 70
0
  9
$REGENMODE
 70
1
  9
$FILLMODE
 70
1
  9
$QTEXTMODE
 70
0
  9
$MIRRTEXT
 70
1
  9
$LTSCALE
 40
1.0
  9
$ATTMODE
 70
1
  9
$TEXTSIZE
 40
2.5
  9
$TRACEWID
 40
1.0
  9
$TEXTSTYLE
  7
Standard
  9
$CLAYER
  8
0
  9
$CELTYPE
  6
ByLayer
  9
$CECOLOR
 62
256
  9
$CELTSCALE
 40
1.0
  9
$DISPSILH
 70
0
  9
$DIMSCALE
 40
1.0
  9
$DIMASZ
 40
2.5
  9
$DIMEXO
 40
0.625
  9
$DIMDLI
 40
3.75
  9
$DIMRND
 40
0.0
  9
$DIMDLE
 40
0.0
  9
$DIMEXE
 40
1.25
  9
$DIMTP
 40
0.0
  9
$DIMTM
 40
0.0
  9
$DIMTXT
 40
2.5
  9
$DIMCEN
 40
2.5
  9
$DIMTSZ
 40
0.0
  9
$DIMTOL
 70
0
  9
$DIMLIM
 70
0
  9
$DIMTIH
 70
0
  9
$DIMTOH
 70
0
  9
$DIMSE1
 70
0
  9
$DIMSE2
 70
0
  9
$DIMTAD
 70
1
  9
$DIMZIN
 70
8
  9
$DIMBLK
  1

  9
$DIMASO
 70
1
  9
$DIMSHO
 70
1
  9
$DIMPOST
  1

  9
$DIMAPOST
  1

  9
$DIMALT
 70
0
  9
$DIMALTD
 70
3
  9
$DIMALTF
 40
0.03937007874
  9
$DIMLFAC
 40
1.0
  9
$DIMTOFL
 70
1
  9
$DIMTVP
 40
0.0
  9
$DIMTIX
 70
0
  9
$DIMSOXD
 70
0
  9
$DIMSAH
 70
0
  9
$DIMBLK1
  1

  9
$DIMBLK2
  1

  9
$DIMSTYLE
  2
ISO-25
  9
$DIMCLRD
 70
0
  9
$DIMCLRE
 70
0
  9
$DIMCLRT
 70
0
  9
$DIMTFAC
 40
1.0
  9
$DIMGAP
 40
0.625
  9
$DIMJUST
 70
0
  9
$DIMSD1
 70
0
  9
$DIMSD2
 70
0
  9
$DIMTOLJ
 70
0
  9
$DIMTZIN
 70
8
  9
$DIMALTZ
 70
0
  9
$DIMALTTZ
 70
0
  9
$DIMUPT
 70
0
  9
$DIMDEC
 70
2
  9
$DIMTDEC
 70
2
  9
$DIMALTU
 70
2
  9
$DIMALTTD
 70
3
  9
$DIMTXSTY
  7
Standard
  9
$DIMAUNIT
 70
0
  9
$DIMADEC
 70
0
  9
$DIMALTRND
 40
0.0
  9
$DIMAZIN
 70
0
  9
$DIMDSEP
 70
44
  9
$DIMATFIT
 70
3
  9
$DIMFRAC
 70
0
  9
$DIMLDRBLK
  1

  9
$DIMLUNIT
 70
2
  9
$DIMLWD
 70
-2
  9
$DIMLWE
 70
-2
  9
$DIMTMOVE
 70
0
  9
$DIMFXL
 40
1.0
  9
$DIMFXLON
 70
0
  9
$DIMJOGANG
 40
0.785398163397
  9
$DIMTFILL
 70
0
  9
$DIMTFILLCLR
 70
0
  9
$DIMARCSYM
 70
0
  9
$DIMLTYPE
  6

  9
$DIMLTEX1
  6

  9
$DIMLTEX2
  6

  9
$DIMTXTDIRECTION
 70
0
  9
$LUNITS
 70
2
  9
$LUPREC
 70
4
  9
$SKETCHINC
 40
1.0
  9
$FILLETRAD
 40
10.0
  9
$AUNITS
 70
0
  9
$AUPREC
 70
2
  9
$MENU
  1
.
  9
$ELEVATION
 40
0.0
  9
$PELEVATION
 40
0.0
  9
$THICKNESS
 40
0.0
  9
$LIMCHECK
 70
0
  9
$CHAMFERA
 40
0.0
  9
$CHAMFERB
 40
0.0
  9
$CHAMFERC
 40
0.0
  9
$CHAMFERD
 40
0.0
  9
$SKPOLY
 70
0
  9
$TDCREATE
 40
2460825.776851852
  9
$TDUCREATE
 40
2458532.153996898
  9
$TDUPDATE
 40
2460825.776851852
  9
$TDUUPDATE
 40
2458532.1544311
  9
$TDINDWG
 40
0.0
  9
$TDUSRTIMER
 40
0.0
  9
$USRTIMER
 70
1
  9
$ANGBASE
 50
0.0
  9
$ANGDIR
 70
0
  9
$PDMODE
 70
0
  9
$PDSIZE
 40
0.0
  9
$PLINEWID
 40
0.0
  9
$SPLFRAME
 70
0
  9
$SPLINETYPE
 70
6
  9
$SPLINESEGS
 70
8
  9
$HANDSEED
  5
3C
  9
$SURFTAB1
 70
6
  9
$SURFTAB2
 70
6
  9
$SURFTYPE
 70
6
  9
$SURFU
 70
6
  9
$SURFV
 70
6
  9
$UCSBASE
  2

  9
$UCSNAME
  2

  9
$UCSORG
 10
0.0
 20
0.0
 30
0.0
  9
$UCSXDIR
 10
1.0
 20
0.0
 30
0.0
  9
$UCSYDIR
 10
0.0
 20
1.0
 30
0.0
  9
$UCSORTHOREF
  2

  9
$UCSORTHOVIEW
 70
0
  9
$UCSORGTOP
 10
0.0
 20
0.0
 30
0.0
  9
$UCSORGBOTTOM
 10
0.0
 20
0.0
 30
0.0
  9
$UCSORGLEFT
 10
0.0
 20
0.0
 30
0.0
  9
$UCSORGRIGHT
 10
0.0
 20
0.0
 30
0.0
  9
$UCSORGFRONT
 10
0.0
 20
0.0
 30
0.0
  9
$UCSORGBACK
 10
0.0
 20
0.0
 30
0.0
  9
$PUCSBASE
  2

  9
$PUCSNAME
  2

  9
$PUCSORG
 10
0.0
 20
0.0
 30
0.0
  9
$PUCSXDIR
 10
1.0
 20
0.0
 30
0.0
  9
$PUCSYDIR
 10
0.0
 20
1.0
 30
0.0
  9
$PUCSORTHOREF
  2

  9
$PUCSORTHOVIEW
 70
0
  9
$PUCSORGTOP
 10
0.0
 20
0.0
 30
0.0
  9
$PUCSORGBOTTOM
 10
0.0
 20
0.0
 30
0.0
  9
$PUCSORGLEFT
 10
0.0
 20
0.0
 30
0.0
  9
$PUCSORGRIGHT
 10
0.0
 20
0.0
 30
0.0
  9
$PUCSORGFRONT
 10
0.0
 20
0.0
 30
0.0
  9
$PUCSORGBACK
 10
0.0
 20
0.0
 30
0.0
  9
$USERI1
 70
0
  9
$USERI2
 70
0
  9
$USERI3
 70
0
  9
$USERI4
 70
0
  9
$USERI5
 70
0
  9
$USERR1
 40
0.0
  9
$USERR2
 40
0.0
  9
$USERR3
 40
0.0
  9
$USERR4
 40
0.0
  9
$USERR5
 40
0.0
  9
$WORLDVIEW
 70
1
  9
$SHADEDGE
 70
3
  9
$SHADEDIF
 70
70
  9
$TILEMODE
 70
1
  9
$MAXACTVP
 70
64
  9
$PINSBASE
 10
0.0
 20
0.0
 30
0.0
  9
$PLIMCHECK
 70
0
  9
$PEXTMIN
 10
1e+20
 20
1e+20
 30
1e+20
  9
$PEXTMAX
 10
-1e+20
 20
-1e+20
 30
-1e+20
  9
$PLIMMIN
 10
0.0
 20
0.0
  9
$PLIMMAX
 10
420.0
 20
297.0
  9
$UNITMODE
 70
0
  9
$VISRETAIN
 70
1
  9
$PLINEGEN
 70
0
  9
$PSLTSCALE
 70
1
  9
$TREEDEPTH
 70
3020
  9
$CMLSTYLE
  2
Standard
  9
$CMLJUST
 70
0
  9
$CMLSCALE
 40
20.0
  9
$PROXYGRAPHICS
 70
1
  9
$MEASUREMENT
 70
1
  9
$CELWEIGHT
370
-1
  9
$ENDCAPS
280
0
  9
$JOINSTYLE
280
0
  9
$LWDISPLAY
290
0
  9
$INSUNITS
 70
6
  9
$HYPERLINKBASE
  1

  9
$STYLESHEET
  1

  9
$XEDIT
290
1
  9
$CEPSNTYPE
380
0
  9
$PSTYLEMODE
290
1
  9
$FINGERPRINTGUID
  2
{E7DFBC53-C495-4DE8-93D8-9509A9B45E7B}
  9
$VERSIONGUID
  2
{AA019053-665B-45C1-A9F8-3EC6D3B2D64F}
  9
$EXTNAMES
290
1
  9
$PSVPSCALE
 40
0.0
  9
$OLESTARTUP
290
0
  9
$SORTENTS
280
127
  9
$INDEXCTL
280
0
  9
$HIDETEXT
280
1
  9
$XCLIPFRAME
280
0
  9
$HALOGAP
280
0
  9
$OBSCOLOR
 70
257
  9
$OBSLTYPE
280
0
  9
$INTERSECTIONDISPLAY
280
0
  9
$INTERSECTIONCOLOR
 70
257
  9
$DIMASSOC
280
2
  9
$PROJECTNAME
  1

  9
$CAMERADISPLAY
290
0
  9
$LENSLENGTH
 40
50.0
  9
$CAMERAHEIGHT
 40
0.0
  9
$STEPSPERSEC
 40
24.0
  9
$STEPSIZE
 40
100.0
  9
$3DDWFPREC
 40
2.0
  9
$PSOLWIDTH
 40
0.005
  9
$PSOLHEIGHT
 40
0.08
  9
$LOFTANG1
 40
1.570796326795
  9
$LOFTANG2
 40
1.570796326795
  9
$LOFTMAG1
 40
0.0
  9
$LOFTMAG2
 40
0.0
  9
$LOFTPARAM
 70
7
  9
$LOFTNORMALS
280
1
  9
$LATITUDE
 40
37.795
  9
$LONGITUDE
 40
-122.394
  9
$NORTHDIRECTION
 40
0.0
  9
$TIMEZONE
 70
-8000
  9
$LIGHTGLYPHDISPLAY
280
1
  9
$TILEMODELIGHTSYNCH
280
1
  9
$CMATERIAL
347
20
  9
$SOLIDHIST
280
0
  9
$SHOWHIST
280
1
  9
$DWFFRAME
280
2
  9
$DGNFRAME
280
2
  9
$REALWORLDSCALE
290
1
  9
$INTERFERECOLOR
 62
256
  9
$CSHADOW
280
0
  9
$SHADOWPLANELOCATION
 40
0.0
  0
ENDSEC
  0
SECTION
  2
CLASSES
  0
CLASS
  1
ACDBDICTIONARYWDFLT
  2
AcDbDictionaryWithDefault
  3
ObjectDBX Classes
 90
0
 91
0
280
0
281
0
  0
CLASS
  1
SUN
  2
AcDbSun
  3
SCENEOE
 90
1153
 91
0
280
0
281
0
  0
CLASS
  1
VISUALSTYLE
  2
AcDbVisualStyle
  3
ObjectDBX Classes
 90
4095
 91
0
280
0
281
0
  0
CLASS
  1
MATERIAL
  2
AcDbMaterial
  3
ObjectDBX Classes
 90
1153
 91
0
280
0
281
0
  0
CLASS
  1
SCALE
  2
AcDbScale
  3
ObjectDBX Classes
 90
1153
 91
0
280
0
281
0
  0
CLASS
  1
TABLESTYLE
  2
AcDbTableStyle
  3
ObjectDBX Classes
 90
4095
 91
0
280
0
281
0
  0
CLASS
  1
MLEADERSTYLE
  2
AcDbMLeaderStyle
  3
ACDB_MLEADERSTYLE_CLASS
 90
4095
 91
0
280
0
281
0
  0
CLASS
  1
DICTIONARYVAR
  2
AcDbDictionaryVar
  3
ObjectDBX Classes
 90
0
 91
0
280
0
281
0
  0
CLASS
  1
CELLSTYLEMAP
  2
AcDbCellStyleMap
  3
ObjectDBX Classes
 90
1152
 91
0
280
0
281
0
  0
CLASS
  1
MENTALRAYRENDERSETTINGS
  2
AcDbMentalRayRenderSettings
  3
SCENEOE
 90
1024
 91
0
280
0
281
0
  0
CLASS
  1
ACDBDETAILVIEWSTYLE
  2
AcDbDetailViewStyle
  3
ObjectDBX Classes
 90
1025
 91
0
280
0
281
0
  0
CLASS
  1
ACDBSECTIONVIEWSTYLE
  2
AcDbSectionViewStyle
  3
ObjectDBX Classes
 90
1025
 91
0
280
0
281
0
  0
CLASS
  1
RASTERVARIABLES
  2
AcDbRasterVariables
  3
ISM
 90
0
 91
0
280
0
281
0
  0
CLASS
  1
LAYOUT
  2
AcDbLayout
  3
ObjectDBX Classes
 90
0
 91
0
280
0
281
0
  0
CLASS
  1
ACDBPLACEHOLDER
  2
AcDbPlaceHolder
  3
ObjectDBX Classes
 90
0
 91
0
280
0
281
0
  0
ENDSEC
  0
SECTION
  2
TABLES
  0
TABLE
  2
VPORT
  5
8
330
0
100
AcDbSymbolTable
 70
1
  0
VPORT
  5
23
330
8
100
AcDbSymbolTableRecord
100
AcDbViewportTableRecord
  2
*Active
 70
0
 10
0.0
 20
0.0
 11
1.0
 21
1.0
 12
0.0
 22
0.0
 13
0.0
 23
0.0
 14
0.5
 24
0.5
 15
0.5
 25
0.5
 16
0.0
 26
0.0
 36
1.0
 17
0.0
 27
0.0
 37
0.0
 40
1000.0
 41
1.34
 42
50.0
 43
0.0
 44
0.0
 50
0.0
 51
0.0
 71
0
 72
1000
 73
1
 74
3
 75
0
 76
0
 77
0
 78
0
281
0
 65
0
146
0.0
  0
ENDTAB
  0
TABLE
  2
LTYPE
  5
2
330
0
100
AcDbSymbolTable
 70
3
  0
LTYPE
  5
24
330
2
100
AcDbSymbolTableRecord
100
AcDbLinetypeTableRecord
  2
ByBlock
 70
0
  3

 72
65
 73
0
 40
0.0
  0
LTYPE
  5
25
330
2
100
AcDbSymbolTableRecord
100
AcDbLinetypeTableRecord
  2
ByLayer
 70
0
  3

 72
65
 73
0
 40
0.0
  0
LTYPE
  5
26
330
2
100
AcDbSymbolTableRecord
100
AcDbLinetypeTableRecord
  2
Continuous
 70
0
  3

 72
65
 73
0
 40
0.0
  0
ENDTAB
  0
TABLE
  2
LAYER
  5
1
330
0
100
AcDbSymbolTable
 70
2
  0
LAYER
  5
27
330
1
100
AcDbSymbolTableRecord
100
AcDbLayerTableRecord
  2
0
 70
0
 62
7
  6
Continuous
370
-3
390
13
347
21
  0
LAYER
  5
28
330
1
100
AcDbSymbolTableRecord
100
AcDbLayerTableRecord
  2
Defpoints
 70
0
 62
7
  6
Continuous
290
0
370
-3
390
13
347
21
  0
ENDTAB
  0
TABLE
  2
STYLE
  5
5
330
0
100
AcDbSymbolTable
 70
1
  0
STYLE
  5
29
330
5
100
AcDbSymbolTableRecord
100
AcDbTextStyleTableRecord
  2
Standard
 70
0
 40
0.0
 41
1.0
 50
0.0
 71
0
 42
2.5
  3
txt
  4

  0
ENDTAB
  0
TABLE
  2
VIEW
  5
7
330
0
100
AcDbSymbolTable
 70
0
  0
ENDTAB
  0
TABLE
  2
UCS
  5
6
330
0
100
AcDbSymbolTable
 70
0
  0
ENDTAB
  0
TABLE
  2
APPID
  5
3
330
0
100
AcDbSymbolTable
 70
3
  0
APPID
  5
2A
330
3
100
AcDbSymbolTableRecord
100
AcDbRegAppTableRecord
  2
ACAD
 70
0
  0
APPID
  5
39
330
3
100
AcDbSymbolTableRecord
100
AcDbRegAppTableRecord
  2
HATCHBACKGROUNDCOLOR
 70
0
  0
APPID
  5
3A
330
3
100
AcDbSymbolTableRecord
100
AcDbRegAppTableRecord
  2
EZDXF
 70
0
  0
ENDTAB
  0
TABLE
  2
DIMSTYLE
  5
4
330
0
100
AcDbSymbolTable
 70
1
100
AcDbDimStyleTable
  0
DIMSTYLE
105
2B
330
4
100
AcDbSymbolTableRecord
100
AcDbDimStyleTableRecord
  2
Standard
 70
0
 40
1.0
 41
2.5
 42
0.625
 43
3.75
 44
1.25
 45
0.0
 46
0.0
 47
0.0
 48
0.0
 49
2.5
140
2.5
141
2.5
142
0.0
143
0.03937007874
144
1.0
145
0.0
146
1.0
147
0.625
148
0.0
 69
0
 70
0
 71
0
 72
0
 73
0
 74
0
 75
0
 76
0
 77
1
 78
8
 79
3
170
0
171
3
172
1
173
0
174
0
175
0
176
0
177
0
178
0
179
2
271
2
272
2
273
2
274
3
275
0
276
0
277
2
278
44
279
0
280
0
281
0
282
0
283
0
284
8
285
0
286
0
288
0
289
3
290
0
371
-2
372
-2
  0
ENDTAB
  0
TABLE
  2
BLOCK_RECORD
  5
9
330
0
100
AcDbSymbolTable
 70
2
  0
BLOCK_RECORD
  5
17
330
9
100
AcDbSymbolTableRecord
100
AcDbBlockTableRecord
  2
*Model_Space
340
1A
 70
0
280
1
281
0
  0
BLOCK_RECORD
  5
1B
330
9
100
AcDbSymbolTableRecord
100
AcDbBlockTableRecord
  2
*Paper_Space
340
1E
 70
0
280
1
281
0
  0
ENDTAB
  0
ENDSEC
  0
SECTION
  2
BLOCKS
  0
BLOCK
  5
18
330
17
100
AcDbEntity
  8
0
100
AcDbBlockBegin
  2
*Model_Space
 70
0
 10
0.0
 20
0.0
 30
0.0
  3
*Model_Space
  1

  0
ENDBLK
  5
19
330
17
100
AcDbEntity
  8
0
100
AcDbBlockEnd
  0
BLOCK
  5
1C
330
1B
100
AcDbEntity
  8
0
100
AcDbBlockBegin
  2
*Paper_Space
 70
0
 10
0.0
 20
0.0
 30
0.0
  3
*Paper_Space
  1

  0
ENDBLK
  5
1D
330
1B
100
AcDbEntity
  8
0
100
AcDbBlockEnd
  0
ENDSEC
  0
SECTION
  2
ENTITIES
  0
LWPOLYLINE
  5
2F
330
17
100
AcDbEntity
  8
0
100
AcDbPolyline
 90
51
 70
0
 10
4.6
 20
12.0
 10
4.6
 20
11.76
 10
4.6
 20
11.52
 10
4.6
 20
11.28
 10
4.6
 20
11.04
 10
4.6
 20
10.8
 10
4.6
 20
10.56
 10
4.6
 20
10.32
 10
4.6
 20
10.08
 10
4.6
 20
9.84
 10
4.6
 20
9.6
 10
4.6
 20
9.36
 10
4.6
 20
9.120000000000001
 10
4.6
 20
8.879999999999999
 10
4.6
 20
8.64
 10
4.6
 20
8.4
 10
4.6
 20
8.16
 10
4.6
 20
7.92
 10
4.6
 20
7.68
 10
4.6
 20
7.44
 10
4.6
 20
7.2
 10
4.6
 20
6.96
 10
4.6
 20
6.72
 10
4.6
 20
6.48
 10
4.6
 20
6.24
 10
4.6000000000000005
 20
6.0
 10
4.6000000000000005
 20
5.76
 10
4.6000000000000005
 20
5.52
 10
4.6000000000000005
 20
5.28
 10
4.6000000000000005
 20
5.04
 10
4.6000000000000005
 20
4.8
 10
4.6000000000000005
 20
4.56
 10
4.6000000000000005
 20
4.32
 10
4.6000000000000005
 20
4.08
 10
4.6000000000000005
 20
3.84
 10
4.6000000000000005
 20
3.5999999999999996
 10
4.6000000000000005
 20
3.3599999999999994
 10
4.6000000000000005
 20
3.119999999999999
 10
4.6000000000000005
 20
2.880000000000001
 10
4.6000000000000005
 20
2.6400000000000006
 10
4.6000000000000005
 20
2.4000000000000004
 10
4.6000000000000005
 20
2.16
 10
4.6000000000000005
 20
1.92
 10
4.6000000000000005
 20
1.6799999999999997
 10
4.6000000000000005
 20
1.4399999999999995
 10
4.6000000000000005
 20
1.1999999999999993
 10
4.6000000000000005
 20
0.9600000000000009
 10
4.6000000000000005
 20
0.7200000000000006
 10
4.6000000000000005
 20
0.4800000000000004
 10
4.6000000000000005
 20
0.2400000000000002
 10
4.6000000000000005
 20
0.0
  0
LWPOLYLINE
  5
30
330
17
100
AcDbEntity
  8
0
100
AcDbPolyline
 90
51
 70
0
 10
-9.4
 20
5.0
 10
-9.4
 20
5.14
 10
-9.4
 20
5.28
 10
-9.4
 20
5.42
 10
-9.4
 20
5.5600000000000005
 10
-9.4
 20
5.7
 10
-9.4
 20
5.84
 10
-9.4
 20
5.98
 10
-9.4
 20
6.12
 10
-9.4
 20
6.26
 10
-9.4
 20
6.4
 10
-9.4
 20
6.54
 10
-9.4
 20
6.68
 10
-9.4
 20
6.82
 10
-9.4
 20
6.96
 10
-9.4
 20
7.1
 10
-9.4
 20
7.24
 10
-9.4
 20
7.38
 10
-9.4
 20
7.52
 10
-9.4
 20
7.66
 10
-9.4
 20
7.8
 10
-9.4
 20
7.9399999999999995
 10
-9.4
 20
8.08
 10
-9.4
 20
8.22
 10
-9.4
 20
8.36
 10
-9.4
 20
8.5
 10
-9.400000000000002
 20
8.64
 10
-9.400000000000002
 20
8.78
 10
-9.400000000000002
 20
8.92
 10
-9.400000000000002
 20
9.059999999999999
 10
-9.400000000000002
 20
9.2
 10
-9.400000000000002
 20
9.34
 10
-9.400000000000002
 20
9.48
 10
-9.400000000000002
 20
9.620000000000001
 10
-9.400000000000002
 20
9.76
 10
-9.400000000000002
 20
9.9
 10
-9.400000000000002
 20
10.04
 10
-9.400000000000002
 20
10.18
 10
-9.400000000000002
 20
10.32
 10
-9.400000000000002
 20
10.46
 10
-9.400000000000002
 20
10.6
 10
-9.400000000000002
 20
10.74
 10
-9.400000000000002
 20
10.879999999999999
 10
-9.400000000000002
 20
11.02
 10
-9.400000000000002
 20
11.16
 10
-9.400000000000002
 20
11.3
 10
-9.400000000000002
 20
11.440000000000001
 10
-9.400000000000002
 20
11.58
 10
-9.400000000000002
 20
11.719999999999999
 10
-9.400000000000002
 20
11.86
 10
-9.400000000000002
 20
12.0
  0
LWPOLYLINE
  5
31
330
17
100
AcDbEntity
  8
0
100
AcDbPolyline
 90
51
 70
0
 10
-9.4
 20
11.999999999999998
 10
-9.386187098997901
 20
12.439533636705189
 10
-9.344802909201345
 20
12.877332634950129
 10
-9.27601075510082
 20
13.31166920210007
 10
-9.180082127900418
 20
13.740829210153985
 10
-9.057395614066076
 20
14.16311896062463
 10
-8.90843540121776
 20
14.576871868792741
 10
-8.733789367262137
 20
14.980455040955508
 10
-8.534146760307047
 20
15.372275718712004
 10
-8.310295478514105
 20
15.750787564852978
 10
-8.063118960624633
 20
16.11449676604731
 10
-7.793592699430526
 20
16.461967928240824
 10
-7.50278039194988
 20
16.79182974150082
 10
-7.191829741500822
 20
17.102780391949878
 10
-6.861967928240828
 20
17.393592699430528
 10
-6.514496766047314
 20
17.66311896062463
 10
-6.15078756485298
 20
17.910295478514104
 10
-5.772275718712008
 20
18.134146760307047
 10
-5.380455040955511
 20
18.333789367262135
 10
-4.976871868792745
 20
18.50843540121776
 10
-4.563118960624634
 20
18.657395614066075
 10
-4.140829210153988
 20
18.780082127900418
 10
-3.7116692021000732
 20
18.876010755100822
 10
-3.277332634950133
 20
18.944802909201343
 10
-2.8395336367051933
 20
18.986187098997902
 10
-2.400000000000002
 20
19.0
 10
-1.960466363294811
 20
18.986187098997902
 10
-1.522667365049871
 20
18.944802909201346
 10
-1.0883307978999308
 20
18.876010755100822
 10
-0.6591707898460162
 20
18.780082127900418
 10
-0.23688103937536997
 20
18.657395614066075
 10
0.17687186879274108
 20
18.50843540121776
 10
0.5804550409555076
 20
18.333789367262135
 10
0.9722757187120092
 20
18.134146760307043
 10
1.3507875648529764
 20
17.910295478514104
 10
1.71449676604731
 20
17.663118960624633
 10
2.0619679282408243
 20
17.393592699430528
 10
2.3918297415008207
 20
17.10278039194988
 10
2.702780391949879
 20
16.791829741500823
 10
2.993592699430525
 20
16.461967928240828
 10
3.2631189606246305
 20
16.114496766047314
 10
3.5102954785141036
 20
15.750787564852981
 10
3.7341467603070453
 20
15.372275718712007
 10
3.933789367262136
 20
14.980455040955512
 10
4.1084354012177595
 20
14.576871868792747
 10
4.257395614066075
 20
14.163118960624635
 10
4.380082127900417
 20
13.740829210153988
 10
4.47601075510082
 20
13.311669202100074
 10
4.544802909201344
 20
12.877332634950134
 10
4.5861870989979
 20
12.439533636705194
 10
4.6
 20
12.000000000000002
  0
LWPOLYLINE
  5
32
330
17
100
AcDbEntity
  8
0
100
AcDbPolyline
 90
51
 70
0
 10
4.6
 20
3.2684965844964593e-16
 10
3.9159999999999995
 20
2.782485353236551e-16
 10
3.2319999999999993
 20
2.2964741219766424e-16
 10
2.5479999999999996
 20
1.8104628907167345e-16
 10
1.8639999999999994
 20
1.324451659456826e-16
 10
1.1799999999999997
 20
8.384404281969177e-17
 10
0.49599999999999955
 20
3.5242919693700926e-17
 10
-0.1880000000000006
 20
-1.3358203432289923e-17
 10
-0.8720000000000008
 20
-6.195932655828078e-17
 10
-1.556000000000001
 20
-1.1056044968427162e-16
 10
-2.24
 20
-1.5916157281026242e-16
 10
-2.9240000000000013
 20
-2.077626959362533e-16
 10
-3.6080000000000005
 20
-2.563638190622441e-16
 10
-4.292000000000002
 20
-3.04964942188235e-16
 10
-4.976000000000001
 20
-3.535660653142258e-16
 10
-5.66
 20
-4.021671884402166e-16
 10
-6.344000000000001
 20
-4.507683115662075e-16
 10
-7.028000000000002
 20
-4.993694346921984e-16
 10
-7.7120000000000015
 20
-5.479705578181892e-16
 10
-8.396000000000003
 20
-5.965716809441801e-16
 10
-9.08
 20
-6.451728040701708e-16
 10
-9.764000000000001
 20
-6.937739271961617e-16
 10
-10.448000000000002
 20
-7.423750503221526e-16
 10
-11.132000000000001
 20
-7.909761734481433e-16
 10
-11.816
 20
-8.395772965741342e-16
 10
-12.500000000000002
 20
-8.88178419700125e-16
 10
-13.184000000000003
 20
-9.36779542826116e-16
 10
-13.868000000000004
 20
-9.85380665952107e-16
 10
-14.552000000000001
 20
-1.0339817890780975e-15
 10
-15.236000000000002
 20
-1.0825829122040884e-15
 10
-15.92
 20
-1.1311840353300792e-15
 10
-16.604
 20
-1.17978515845607e-15
 10
-17.288000000000004
 20
-1.228386281582061e-15
 10
-17.972
 20
-1.2769874047080518e-15
 10
-18.656000000000006
 20
-1.325588527834043e-15
 10
-19.340000000000003
 20
-1.3741896509600335e-15
 10
-20.024
 20
-1.4227907740860242e-15
 10
-20.708000000000006
 20
-1.4713918972120154e-15
 10
-21.392000000000003
 20
-1.5199930203380061e-15
 10
-22.076
 20
-1.5685941434639967e-15
 10
-22.759999999999998
 20
-1.6171952665899874e-15
 10
-23.444000000000003
 20
-1.6657963897159785e-15
 10
-24.128
 20
-1.714397512841969e-15
 10
-24.812000000000005
 20
-1.7629986359679604e-15
 10
-25.496000000000002
 20
-1.811599759093951e-15
 10
-26.180000000000007
 20
-1.860200882219942e-15
 10
-26.864000000000004
 20
-1.9088020053459327e-15
 10
-27.548000000000002
 20
-1.9574031284719236e-15
 10
-28.232
 20
-2.006004251597914e-15
 10
-28.916000000000004
 20
-2.0546053747239055e-15
 10
-29.6
 20
-2.103206497849896e-15
  0
LWPOLYLINE
  5
33
330
17
100
AcDbEntity
  8
0
100
AcDbPolyline
 90
51
 70
0
 10
1.6
 20
12.0
 10
1.58224785841232
 20
11.623566746725944
 10
1.529149002914755
 20
11.250474741657102
 10
1.4411747427077723
 20
10.884035575843084
 10
1.319105943553006
 20
10.527501789261288
 10
1.1640260967534717
 20
10.184038001041813
 10
0.9773117020080613
 20
9.856692820084014
 10
0.7606200495027626
 20
9.548371785388095
 10
0.5158745096856463
 20
9.261811576285245
 10
0.24524746129460784
 20
8.999555721478163
 10
-0.048858990830106475
 20
8.76393202250021
 10
-0.3638343369985151
 20
8.557031891984225
 10
-0.6968828337397079
 20
8.380691790135923
 10
-1.0450483190188342
 20
8.236476924183098
 10
-1.40524045134058
 20
8.125667355485476
 10
-1.7742621398390757
 20
8.049246637619449
 10
-2.148837921882745
 20
8.007893086286913
 10
-2.5256430363125113
 20
8.001973758537073
 10
-2.9013329342572165
 20
8.031541194742088
 10
-3.2725729655861677
 20
8.09633295224501
 10
-3.6360679774997884
 20
8.195773934819385
 10
-3.9885915625391224
 20
8.328981497264076
 10
-4.327014696406861
 20
8.494773279824546
 10
-4.648333511408522
 20
8.691677702901753
 10
-4.949695958994758
 20
8.917947028896842
 10
-5.228427124746189
 20
9.171572875253808
 10
-5.4820529711031565
 20
9.450304041005241
 10
-5.7083222970982455
 20
9.751666488591475
 10
-5.905226720175454
 20
10.07298530359314
 10
-6.071018502735924
 20
10.411408437460874
 10
-6.204226065180614
 20
10.76393202250021
 10
-6.303667047754988
 20
11.127427034413827
 10
-6.3684588052579105
 20
11.498667065742781
 10
-6.398026241462926
 20
11.874356963687486
 10
-6.392106913713086
 20
12.25116207811725
 10
-6.350753362380551
 20
12.625737860160923
 10
-6.274332644514525
 20
12.994759548659419
 10
-6.163523075816903
 20
13.354951680981163
 10
-6.0193082098640796
 20
13.703117166260286
 10
-5.842968108015773
 20
14.036165663001485
 10
-5.63606797749979
 20
14.351141009169892
 10
-5.4004442785218405
 20
14.645247461294606
 10
-5.1381884237147535
 20
14.915874509685647
 10
-4.851628214611907
 20
15.16062004950276
 10
-4.543307179915986
 20
15.377311702008061
 10
-4.215961998958188
 20
15.564026096753471
 10
-3.872498210738712
 20
15.719105943553005
 10
-3.515964424156919
 20
15.841174742707771
 10
-3.149525258342899
 20
15.929149002914755
 10
-2.7764332532740563
 20
15.98224785841232
 10
-2.4000000000000012
 20
16.0
  0
LWPOLYLINE
  5
34
330
17
100
AcDbEntity
  8
0
100
AcDbPolyline
 90
51
 70
0
 10
-2.4000000000000004
 20
16.0
 10
-2.274356963687487
 20
15.998026241462927
 10
-2.148837921882747
 20
15.992106913713087
 10
-2.023566746725943
 20
15.98224785841232
 10
-1.8986670657427833
 20
15.968458805257912
 10
-1.774262139839077
 20
15.950753362380551
 10
-1.650474741657102
 20
15.929149002914755
 10
-1.5274270344138303
 20
15.90366704775499
 10
-1.4052404513405812
 20
15.874332644514524
 10
-1.2840355758430833
 20
15.841174742707771
 10
-1.1639320225002108
 20
15.804226065180615
 10
-1.0450483190188349
 20
15.763523075816902
 10
-0.9275017892612887
 20
15.719105943553005
 10
-0.8114084374608779
 20
15.671018502735924
 10
-0.6968828337397097
 20
15.619308209864078
 10
-0.5840380010418134
 20
15.564026096753471
 10
-0.47298530359313906
 20
15.505226720175454
 10
-0.3638343369985151
 20
15.442968108015775
 10
-0.25669282008401373
 20
15.377311702008061
 10
-0.15166648859147802
 20
15.308322297098247
 10
-0.04885899083010781
 20
15.23606797749979
 10
0.05162821461190559
 20
15.160620049502763
 10
0.14969595899475818
 20
15.082052971103158
 10
0.24524746129460695
 20
15.000444278521838
 10
0.3381884237147541
 20
14.915874509685647
 10
0.42842712474618994
 20
14.828427124746192
 10
0.5158745096856459
 20
14.738188423714755
 10
0.6004442785218376
 20
14.645247461294609
 10
0.6820529711031567
 20
14.549695958994759
 10
0.7606200495027613
 20
14.451628214611906
 10
0.836067977499789
 20
14.351141009169893
 10
0.908322297098247
 20
14.248333511408523
 10
0.97731170200806
 20
14.143307179915986
 10
1.0429681080157747
 20
14.036165663001485
 10
1.1052267201754549
 20
13.92701469640686
 10
1.1640260967534712
 20
13.815961998958187
 10
1.2193082098640784
 20
13.703117166260292
 10
1.2710185027359246
 20
13.588591562539122
 10
1.3191059435530055
 20
13.472498210738713
 10
1.363523075816902
 20
13.354951680981166
 10
1.4042260651806142
 20
13.23606797749979
 10
1.441174742707772
 20
13.115964424156918
 10
1.4743326445145244
 20
12.99475954865942
 10
1.5036670477549894
 20
12.872572965586171
 10
1.5291490029147545
 20
12.7495252583429
 10
1.5507533623805512
 20
12.625737860160925
 10
1.5684588052579111
 20
12.501332934257219
 10
1.58224785841232
 20
12.376433253274058
 10
1.5921069137130863
 20
12.251162078117254
 10
1.5980262414629265
 20
12.125643036312514
 10
1.6
 20
12.0
  0
LWPOLYLINE
  5
35
330
17
100
AcDbEntity
  8
0
100
AcDbPolyline
 90
51
 70
0
 10
-29.6
 20
-2.1032064978499e-15
 10
-29.6
 20
0.09999999999999792
 10
-29.6
 20
0.19999999999999796
 10
-29.6
 20
0.299999999999998
 10
-29.6
 20
0.399999999999998
 10
-29.6
 20
0.499999999999998
 10
-29.6
 20
0.5999999999999981
 10
-29.6
 20
0.6999999999999982
 10
-29.6
 20
0.7999999999999982
 10
-29.6
 20
0.8999999999999981
 10
-29.6
 20
0.9999999999999981
 10
-29.6
 20
1.0999999999999985
 10
-29.6
 20
1.1999999999999984
 10
-29.6
 20
1.2999999999999985
 10
-29.6
 20
1.3999999999999986
 10
-29.6
 20
1.4999999999999987
 10
-29.6
 20
1.5999999999999985
 10
-29.6
 20
1.6999999999999986
 10
-29.6
 20
1.7999999999999985
 10
-29.6
 20
1.8999999999999986
 10
-29.6
 20
1.9999999999999982
 10
-29.6
 20
2.0999999999999988
 10
-29.6
 20
2.199999999999999
 10
-29.6
 20
2.2999999999999985
 10
-29.6
 20
2.3999999999999986
 10
-29.6
 20
2.4999999999999987
 10
-29.6
 20
2.5999999999999988
 10
-29.6
 20
2.699999999999999
 10
-29.6
 20
2.799999999999999
 10
-29.6
 20
2.899999999999999
 10
-29.6
 20
2.999999999999999
 10
-29.6
 20
3.0999999999999988
 10
-29.6
 20
3.199999999999999
 10
-29.6
 20
3.299999999999999
 10
-29.6
 20
3.399999999999999
 10
-29.6
 20
3.499999999999999
 10
-29.6
 20
3.5999999999999988
 10
-29.6
 20
3.699999999999999
 10
-29.6
 20
3.799999999999999
 10
-29.6
 20
3.899999999999999
 10
-29.6
 20
3.999999999999999
 10
-29.6
 20
4.1
 10
-29.6
 20
4.2
 10
-29.6
 20
4.3
 10
-29.6
 20
4.4
 10
-29.6
 20
4.5
 10
-29.6
 20
4.6
 10
-29.6
 20
4.7
 10
-29.6
 20
4.8
 10
-29.6
 20
4.9
 10
-29.6
 20
5.0
  0
LWPOLYLINE
  5
36
330
17
100
AcDbEntity
  8
0
100
AcDbPolyline
 90
51
 70
0
 10
-20.0
 20
5.0
 10
-19.788
 20
5.0
 10
-19.576
 20
5.0
 10
-19.364
 20
5.0
 10
-19.152
 20
5.0
 10
-18.939999999999998
 20
5.0
 10
-18.728
 20
5.0
 10
-18.516
 20
5.0
 10
-18.304000000000002
 20
5.0
 10
-18.092
 20
5.0
 10
-17.88
 20
5.0
 10
-17.668
 20
5.0
 10
-17.456
 20
5.0
 10
-17.244
 20
5.0
 10
-17.032
 20
5.0
 10
-16.82
 20
5.0
 10
-16.608
 20
5.0
 10
-16.396
 20
5.0
 10
-16.184
 20
5.0
 10
-15.972
 20
5.0
 10
-15.76
 20
5.0
 10
-15.548
 20
5.0
 10
-15.336
 20
5.0
 10
-15.124
 20
5.0
 10
-14.912
 20
5.0
 10
-14.7
 20
5.0
 10
-14.488
 20
5.0
 10
-14.276
 20
5.0
 10
-14.064
 20
5.0
 10
-13.852
 20
5.0
 10
-13.64
 20
5.0
 10
-13.428
 20
5.0
 10
-13.216000000000001
 20
5.0
 10
-13.004
 20
5.0
 10
-12.792000000000002
 20
5.0
 10
-12.58
 20
5.0
 10
-12.368
 20
5.0
 10
-12.156
 20
5.0
 10
-11.943999999999999
 20
5.0
 10
-11.732000000000001
 20
5.0
 10
-11.52
 20
5.0
 10
-11.308
 20
5.0
 10
-11.096
 20
5.0
 10
-10.884
 20
5.0
 10
-10.672
 20
5.0
 10
-10.46
 20
5.0
 10
-10.248000000000001
 20
5.0
 10
-10.036
 20
5.0
 10
-9.824000000000002
 20
5.0
 10
-9.612
 20
5.0
 10
-9.4
 20
5.0
  0
LWPOLYLINE
  5
37
330
17
100
AcDbEntity
  8
0
100
AcDbPolyline
 90
51
 70
0
 10
-29.6
 20
5.0
 10
-29.196
 20
5.0
 10
-28.792
 20
5.0
 10
-28.388
 20
5.0
 10
-27.984
 20
5.0
 10
-27.580000000000002
 20
5.0
 10
-27.176000000000002
 20
5.0
 10
-26.772000000000002
 20
5.0
 10
-26.368000000000002
 20
5.0
 10
-25.964000000000002
 20
5.0
 10
-25.560000000000002
 20
5.0
 10
-25.156
 20
5.0
 10
-24.752000000000002
 20
5.0
 10
-24.348
 20
5.0
 10
-23.944
 20
5.0
 10
-23.54
 20
5.0
 10
-23.136
 20
5.0
 10
-22.732
 20
5.0
 10
-22.328000000000003
 20
5.0
 10
-21.924
 20
5.0
 10
-21.52
 20
5.0
 10
-21.116
 20
5.0
 10
-20.712
 20
5.0
 10
-20.308
 20
5.0
 10
-19.904
 20
5.0
 10
-19.5
 20
5.0
 10
-19.096
 20
5.0
 10
-18.692
 20
5.0
 10
-18.287999999999997
 20
5.0
 10
-17.884
 20
5.0
 10
-17.479999999999997
 20
5.0
 10
-17.076
 20
5.0
 10
-16.671999999999997
 20
5.0
 10
-16.268
 20
5.0
 10
-15.864
 20
5.0
 10
-15.459999999999999
 20
5.0
 10
-15.056000000000001
 20
5.0
 10
-14.652
 20
5.0
 10
-14.248
 20
5.0
 10
-13.844
 20
5.0
 10
-13.439999999999998
 20
5.0
 10
-13.035999999999998
 20
5.0
 10
-12.631999999999998
 20
5.0
 10
-12.227999999999998
 20
5.0
 10
-11.823999999999998
 20
5.0
 10
-11.419999999999998
 20
5.0
 10
-11.015999999999998
 20
5.0
 10
-10.611999999999998
 20
5.0
 10
-10.207999999999998
 20
5.0
 10
-9.803999999999998
 20
5.0
 10
-9.399999999999999
 20
5.0
  0
LWPOLYLINE
  5
38
330
17
100
AcDbEntity
  8
0
100
AcDbPolyline
 90
51
 70
0
 10
-9.4
 20
5.0
 10
-9.4
 20
5.14
 10
-9.4
 20
5.28
 10
-9.4
 20
5.42
 10
-9.4
 20
5.5600000000000005
 10
-9.4
 20
5.7
 10
-9.4
 20
5.84
 10
-9.4
 20
5.98
 10
-9.4
 20
6.12
 10
-9.4
 20
6.26
 10
-9.4
 20
6.4
 10
-9.4
 20
6.54
 10
-9.4
 20
6.68
 10
-9.4
 20
6.82
 10
-9.4
 20
6.96
 10
-9.4
 20
7.1
 10
-9.4
 20
7.24
 10
-9.4
 20
7.38
 10
-9.4
 20
7.52
 10
-9.4
 20
7.66
 10
-9.4
 20
7.8
 10
-9.4
 20
7.9399999999999995
 10
-9.4
 20
8.08
 10
-9.4
 20
8.22
 10
-9.4
 20
8.36
 10
-9.4
 20
8.5
 10
-9.400000000000002
 20
8.64
 10
-9.400000000000002
 20
8.78
 10
-9.400000000000002
 20
8.92
 10
-9.400000000000002
 20
9.059999999999999
 10
-9.400000000000002
 20
9.2
 10
-9.400000000000002
 20
9.34
 10
-9.400000000000002
 20
9.48
 10
-9.400000000000002
 20
9.620000000000001
 10
-9.400000000000002
 20
9.76
 10
-9.400000000000002
 20
9.9
 10
-9.400000000000002
 20
10.04
 10
-9.400000000000002
 20
10.18
 10
-9.400000000000002
 20
10.32
 10
-9.400000000000002
 20
10.46
 10
-9.400000000000002
 20
10.6
 10
-9.400000000000002
 20
10.74
 10
-9.400000000000002
 20
10.879999999999999
 10
-9.400000000000002
 20
11.02
 10
-9.400000000000002
 20
11.16
 10
-9.400000000000002
 20
11.3
 10
-9.400000000000002
 20
11.440000000000001
 10
-9.400000000000002
 20
11.58
 10
-9.400000000000002
 20
11.719999999999999
 10
-9.400000000000002
 20
11.86
 10
-9.400000000000002
 20
12.0
  0
ENDSEC
  0
SECTION
  2
OBJECTS
  0
DICTIONARY
  5
A
330
0
100
AcDbDictionary
280
0
281
1
  3
ACAD_COLOR
350
B
  3
ACAD_GROUP
350
C
  3
ACAD_LAYOUT
350
D
  3
ACAD_MATERIAL
350
E
  3
ACAD_MLEADERSTYLE
350
F
  3
ACAD_MLINESTYLE
350
10
  3
ACAD_PLOTSETTINGS
350
11
  3
ACAD_PLOTSTYLENAME
350
12
  3
ACAD_SCALELIST
350
14
  3
ACAD_TABLESTYLE
350
15
  3
ACAD_VISUALSTYLE
350
16
  3
EZDXF_META
350
2D
  0
DICTIONARY
  5
B
330
A
100
AcDbDictionary
280
0
281
1
  0
DICTIONARY
  5
C
330
A
100
AcDbDictionary
280
0
281
1
  0
DICTIONARY
  5
D
330
A
100
AcDbDictionary
280
0
281
1
  3
Model
350
1A
  3
Layout1
350
1E
  0
DICTIONARY
  5
E
330
A
100
AcDbDictionary
280
0
281
1
  3
ByBlock
350
1F
  3
ByLayer
350
20
  3
Global
350
21
  0
DICTIONARY
  5
F
330
A
100
AcDbDictionary
280
0
281
1
  3
Standard
350
2C
  0
DICTIONARY
  5
10
330
A
100
AcDbDictionary
280
0
281
1
  3
Standard
350
22
  0
DICTIONARY
  5
11
330
A
100
AcDbDictionary
280
0
281
1
  0
ACDBDICTIONARYWDFLT
  5
12
330
A
100
AcDbDictionary
280
0
281
1
  3
Normal
350
13
100
AcDbDictionaryWithDefault
340
13
  0
ACDBPLACEHOLDER
  5
13
330
12
  0
DICTIONARY
  5
14
330
A
100
AcDbDictionary
280
0
281
1
  0
DICTIONARY
  5
15
330
A
100
AcDbDictionary
280
0
281
1
  0
DICTIONARY
  5
16
330
A
100
AcDbDictionary
280
0
281
1
  0
LAYOUT
  5
1A
330
D
100
AcDbPlotSettings
  1

  2
Adobe PDF
  4
A3
  6

 40
7.5
 41
20.0
 42
7.5
 43
20.0
 44
420.0
 45
297.0
 46
0.0
 47
0.0
 48
0.0
 49
0.0
140
0.0
141
0.0
142
1.0
143
1.0
 70
1024
 72
1
 73
0
 74
5
  7

 75
16
 76
0
 77
2
 78
300
147
1.0
148
0.0
149
0.0
100
AcDbLayout
  1
Model
 70
1
 71
0
 10
0.0
 20
0.0
 11
420.0
 21
297.0
 12
0.0
 22
0.0
 32
0.0
 14
1e+20
 24
1e+20
 34
1e+20
 15
-1e+20
 25
-1e+20
 35
-1e+20
146
0.0
 13
0.0
 23
0.0
 33
0.0
 16
1.0
 26
0.0
 36
0.0
 17
0.0
 27
1.0
 37
0.0
 76
1
330
17
  0
LAYOUT
  5
1E
330
D
100
AcDbPlotSettings
  1

  2
Adobe PDF
  4
A3
  6

 40
7.5
 41
20.0
 42
7.5
 43
20.0
 44
420.0
 45
297.0
 46
0.0
 47
0.0
 48
0.0
 49
0.0
140
0.0
141
0.0
142
1.0
143
1.0
 70
0
 72
1
 73
0
 74
5
  7

 75
16
 76
0
 77
2
 78
300
147
1.0
148
0.0
149
0.0
100
AcDbLayout
  1
Layout1
 70
1
 71
1
 10
0.0
 20
0.0
 11
420.0
 21
297.0
 12
0.0
 22
0.0
 32
0.0
 14
1e+20
 24
1e+20
 34
1e+20
 15
-1e+20
 25
-1e+20
 35
-1e+20
146
0.0
 13
0.0
 23
0.0
 33
0.0
 16
1.0
 26
0.0
 36
0.0
 17
0.0
 27
1.0
 37
0.0
 76
1
330
1B
  0
MATERIAL
  5
1F
102
{ACAD_REACTORS
330
E
102
}
330
E
100
AcDbMaterial
  1
ByBlock
  2

 70
0
 40
1.0
 71
1
 41
1.0
 91
-1023410177
 42
1.0
 72
1
  3

 73
1
 74
1
 75
1
 44
0.5
 73
0
 45
1.0
 46
1.0
 77
1
  4

 78
1
 79
1
170
1
 48
1.0
171
1
  6

172
1
173
1
174
1
140
1.0
141
1.0
175
1
  7

176
1
177
1
178
1
143
1.0
179
1
  8

270
1
271
1
272
1
145
1.0
146
1.0
273
1
  9

274
1
275
1
276
1
 42
1.0
 72
1
  3

 73
1
 74
1
 75
1
 94
63
  0
MATERIAL
  5
20
102
{ACAD_REACTORS
330
E
102
}
330
E
100
AcDbMaterial
  1
ByLayer
  2

 70
0
 40
1.0
 71
1
 41
1.0
 91
-1023410177
 42
1.0
 72
1
  3

 73
1
 74
1
 75
1
 44
0.5
 73
0
 45
1.0
 46
1.0
 77
1
  4

 78
1
 79
1
170
1
 48
1.0
171
1
  6

172
1
173
1
174
1
140
1.0
141
1.0
175
1
  7

176
1
177
1
178
1
143
1.0
179
1
  8

270
1
271
1
272
1
145
1.0
146
1.0
273
1
  9

274
1
275
1
276
1
 42
1.0
 72
1
  3

 73
1
 74
1
 75
1
 94
63
  0
MATERIAL
  5
21
102
{ACAD_REACTORS
330
E
102
}
330
E
100
AcDbMaterial
  1
Global
  2

 70
0
 40
1.0
 71
1
 41
1.0
 91
-1023410177
 42
1.0
 72
1
  3

 73
1
 74
1
 75
1
 44
0.5
 73
0
 45
1.0
 46
1.0
 77
1
  4

 78
1
 79
1
170
1
 48
1.0
171
1
  6

172
1
173
1
174
1
140
1.0
141
1.0
175
1
  7

176
1
177
1
178
1
143
1.0
179
1
  8

270
1
271
1
272
1
145
1.0
146
1.0
273
1
  9

274
1
275
1
276
1
 42
1.0
 72
1
  3

 73
1
 74
1
 75
1
 94
63
  0
MLINESTYLE
  5
22
102
{ACAD_REACTORS
330
10
102
}
330
10
100
AcDbMlineStyle
  2
Standard
 70
0
  3

 62
256
 51
90.0
 52
90.0
 71
2
 49
0.5
 62
256
  6
BYLAYER
 49
-0.5
 62
256
  6
BYLAYER
  0
MLEADERSTYLE
  5
2C
102
{ACAD_REACTORS
330
F
102
}
330
F
100
AcDbMLeaderStyle
179
2
170
2
171
1
172
0
 90
2
 40
0.0
 41
0.0
173
1
 91
-1056964608
 92
-2
290
1
 42
2.0
291
1
 43
8.0
  3
Standard
 44
4.0
300

342
29
174
1
175
1
176
0
178
1
 93
-1056964608
 45
4.0
292
0
297
0
 46
4.0
 94
-1056964608
 47
1.0
 49
1.0
140
1.0
294
1
141
0.0
177
0
142
1.0
295
0
296
0
143
3.75
271
0
272
9
273
9
  0
DICTIONARY
  5
2D
330
A
100
AcDbDictionary
281
1
  3
CREATED_BY_EZDXF
350
2E
  3
WRITTEN_BY_EZDXF
350
3B
  0
DICTIONARYVAR
  5
2E
330
2D
100
DictionaryVariables
280
0
  1
1.0.3 @ 2025-05-29T09:38:40.114510+00:00
  0
DICTIONARYVAR
  5
3B
330
2D
100
DictionaryVariables
280
0
  1
1.0.3 @ 2025-05-29T09:38:40.117510+00:00
  0
ENDSEC
  0
EOF
