  0
SECTION
  2
HEADER
  9
$ACADVER
  1
AC1027
  9
$ACADMAINTVER
 70
105
  9
$DWGCODEPAGE
  3
ANSI_1252
  9
$LASTSAVEDBY
  1
ezdxf
  9
$REQUIREDVERSIONS
160
0
  9
$INSBASE
 10
0.0
 20
0.0
 30
0.0
  9
$EXTMIN
 10
1e+20
 20
1e+20
 30
1e+20
  9
$EXTMAX
 10
-1e+20
 20
-1e+20
 30
-1e+20
  9
$LIMMIN
 10
0.0
 20
0.0
  9
$LIMMAX
 10
420.0
 20
297.0
  9
$ORTHOMODE
 70
0
  9
$REGENMODE
 70
1
  9
$FILLMODE
 70
1
  9
$QTEXTMODE
 70
0
  9
$MIRRTEXT
 70
1
  9
$LTSCALE
 40
1.0
  9
$ATTMODE
 70
1
  9
$TEXTSIZE
 40
2.5
  9
$TRACEWID
 40
1.0
  9
$TEXTSTYLE
  7
Standard
  9
$CLAYER
  8
0
  9
$CELTYPE
  6
ByLayer
  9
$CECOLOR
 62
256
  9
$CELTSCALE
 40
1.0
  9
$DISPSILH
 70
0
  9
$DIMSCALE
 40
1.0
  9
$DIMASZ
 40
2.5
  9
$DIMEXO
 40
0.625
  9
$DIMDLI
 40
3.75
  9
$DIMRND
 40
0.0
  9
$DIMDLE
 40
0.0
  9
$DIMEXE
 40
1.25
  9
$DIMTP
 40
0.0
  9
$DIMTM
 40
0.0
  9
$DIMTXT
 40
2.5
  9
$DIMCEN
 40
2.5
  9
$DIMTSZ
 40
0.0
  9
$DIMTOL
 70
0
  9
$DIMLIM
 70
0
  9
$DIMTIH
 70
0
  9
$DIMTOH
 70
0
  9
$DIMSE1
 70
0
  9
$DIMSE2
 70
0
  9
$DIMTAD
 70
1
  9
$DIMZIN
 70
8
  9
$DIMBLK
  1

  9
$DIMASO
 70
1
  9
$DIMSHO
 70
1
  9
$DIMPOST
  1

  9
$DIMAPOST
  1

  9
$DIMALT
 70
0
  9
$DIMALTD
 70
3
  9
$DIMALTF
 40
0.03937007874
  9
$DIMLFAC
 40
1.0
  9
$DIMTOFL
 70
1
  9
$DIMTVP
 40
0.0
  9
$DIMTIX
 70
0
  9
$DIMSOXD
 70
0
  9
$DIMSAH
 70
0
  9
$DIMBLK1
  1

  9
$DIMBLK2
  1

  9
$DIMSTYLE
  2
ISO-25
  9
$DIMCLRD
 70
0
  9
$DIMCLRE
 70
0
  9
$DIMCLRT
 70
0
  9
$DIMTFAC
 40
1.0
  9
$DIMGAP
 40
0.625
  9
$DIMJUST
 70
0
  9
$DIMSD1
 70
0
  9
$DIMSD2
 70
0
  9
$DIMTOLJ
 70
0
  9
$DIMTZIN
 70
8
  9
$DIMALTZ
 70
0
  9
$DIMALTTZ
 70
0
  9
$DIMUPT
 70
0
  9
$DIMDEC
 70
2
  9
$DIMTDEC
 70
2
  9
$DIMALTU
 70
2
  9
$DIMALTTD
 70
3
  9
$DIMTXSTY
  7
Standard
  9
$DIMAUNIT
 70
0
  9
$DIMADEC
 70
0
  9
$DIMALTRND
 40
0.0
  9
$DIMAZIN
 70
0
  9
$DIMDSEP
 70
44
  9
$DIMATFIT
 70
3
  9
$DIMFRAC
 70
0
  9
$DIMLDRBLK
  1

  9
$DIMLUNIT
 70
2
  9
$DIMLWD
 70
-2
  9
$DIMLWE
 70
-2
  9
$DIMTMOVE
 70
0
  9
$DIMFXL
 40
1.0
  9
$DIMFXLON
 70
0
  9
$DIMJOGANG
 40
0.785398163397
  9
$DIMTFILL
 70
0
  9
$DIMTFILLCLR
 70
0
  9
$DIMARCSYM
 70
0
  9
$DIMLTYPE
  6

  9
$DIMLTEX1
  6

  9
$DIMLTEX2
  6

  9
$DIMTXTDIRECTION
 70
0
  9
$LUNITS
 70
2
  9
$LUPREC
 70
4
  9
$SKETCHINC
 40
1.0
  9
$FILLETRAD
 40
10.0
  9
$AUNITS
 70
0
  9
$AUPREC
 70
2
  9
$MENU
  1
.
  9
$ELEVATION
 40
0.0
  9
$PELEVATION
 40
0.0
  9
$THICKNESS
 40
0.0
  9
$LIMCHECK
 70
0
  9
$CHAMFERA
 40
0.0
  9
$CHAMFERB
 40
0.0
  9
$CHAMFERC
 40
0.0
  9
$CHAMFERD
 40
0.0
  9
$SKPOLY
 70
0
  9
$TDCREATE
 40
2460825.776851852
  9
$TDUCREATE
 40
2458532.153996898
  9
$TDUPDATE
 40
2460825.776851852
  9
$TDUUPDATE
 40
2458532.1544311
  9
$TDINDWG
 40
0.0
  9
$TDUSRTIMER
 40
0.0
  9
$USRTIMER
 70
1
  9
$ANGBASE
 50
0.0
  9
$ANGDIR
 70
0
  9
$PDMODE
 70
0
  9
$PDSIZE
 40
0.0
  9
$PLINEWID
 40
0.0
  9
$SPLFRAME
 70
0
  9
$SPLINETYPE
 70
6
  9
$SPLINESEGS
 70
8
  9
$HANDSEED
  5
3C
  9
$SURFTAB1
 70
6
  9
$SURFTAB2
 70
6
  9
$SURFTYPE
 70
6
  9
$SURFU
 70
6
  9
$SURFV
 70
6
  9
$UCSBASE
  2

  9
$UCSNAME
  2

  9
$UCSORG
 10
0.0
 20
0.0
 30
0.0
  9
$UCSXDIR
 10
1.0
 20
0.0
 30
0.0
  9
$UCSYDIR
 10
0.0
 20
1.0
 30
0.0
  9
$UCSORTHOREF
  2

  9
$UCSORTHOVIEW
 70
0
  9
$UCSORGTOP
 10
0.0
 20
0.0
 30
0.0
  9
$UCSORGBOTTOM
 10
0.0
 20
0.0
 30
0.0
  9
$UCSORGLEFT
 10
0.0
 20
0.0
 30
0.0
  9
$UCSORGRIGHT
 10
0.0
 20
0.0
 30
0.0
  9
$UCSORGFRONT
 10
0.0
 20
0.0
 30
0.0
  9
$UCSORGBACK
 10
0.0
 20
0.0
 30
0.0
  9
$PUCSBASE
  2

  9
$PUCSNAME
  2

  9
$PUCSORG
 10
0.0
 20
0.0
 30
0.0
  9
$PUCSXDIR
 10
1.0
 20
0.0
 30
0.0
  9
$PUCSYDIR
 10
0.0
 20
1.0
 30
0.0
  9
$PUCSORTHOREF
  2

  9
$PUCSORTHOVIEW
 70
0
  9
$PUCSORGTOP
 10
0.0
 20
0.0
 30
0.0
  9
$PUCSORGBOTTOM
 10
0.0
 20
0.0
 30
0.0
  9
$PUCSORGLEFT
 10
0.0
 20
0.0
 30
0.0
  9
$PUCSORGRIGHT
 10
0.0
 20
0.0
 30
0.0
  9
$PUCSORGFRONT
 10
0.0
 20
0.0
 30
0.0
  9
$PUCSORGBACK
 10
0.0
 20
0.0
 30
0.0
  9
$USERI1
 70
0
  9
$USERI2
 70
0
  9
$USERI3
 70
0
  9
$USERI4
 70
0
  9
$USERI5
 70
0
  9
$USERR1
 40
0.0
  9
$USERR2
 40
0.0
  9
$USERR3
 40
0.0
  9
$USERR4
 40
0.0
  9
$USERR5
 40
0.0
  9
$WORLDVIEW
 70
1
  9
$SHADEDGE
 70
3
  9
$SHADEDIF
 70
70
  9
$TILEMODE
 70
1
  9
$MAXACTVP
 70
64
  9
$PINSBASE
 10
0.0
 20
0.0
 30
0.0
  9
$PLIMCHECK
 70
0
  9
$PEXTMIN
 10
1e+20
 20
1e+20
 30
1e+20
  9
$PEXTMAX
 10
-1e+20
 20
-1e+20
 30
-1e+20
  9
$PLIMMIN
 10
0.0
 20
0.0
  9
$PLIMMAX
 10
420.0
 20
297.0
  9
$UNITMODE
 70
0
  9
$VISRETAIN
 70
1
  9
$PLINEGEN
 70
0
  9
$PSLTSCALE
 70
1
  9
$TREEDEPTH
 70
3020
  9
$CMLSTYLE
  2
Standard
  9
$CMLJUST
 70
0
  9
$CMLSCALE
 40
20.0
  9
$PROXYGRAPHICS
 70
1
  9
$MEASUREMENT
 70
1
  9
$CELWEIGHT
370
-1
  9
$ENDCAPS
280
0
  9
$JOINSTYLE
280
0
  9
$LWDISPLAY
290
0
  9
$INSUNITS
 70
6
  9
$HYPERLINKBASE
  1

  9
$STYLESHEET
  1

  9
$XEDIT
290
1
  9
$CEPSNTYPE
380
0
  9
$PSTYLEMODE
290
1
  9
$FINGERPRINTGUID
  2
{964B02EC-47C4-46EC-A920-33299935A28D}
  9
$VERSIONGUID
  2
{A0A0A04E-706B-44EF-8E24-2FD243B7B0AF}
  9
$EXTNAMES
290
1
  9
$PSVPSCALE
 40
0.0
  9
$OLESTARTUP
290
0
  9
$SORTENTS
280
127
  9
$INDEXCTL
280
0
  9
$HIDETEXT
280
1
  9
$XCLIPFRAME
280
0
  9
$HALOGAP
280
0
  9
$OBSCOLOR
 70
257
  9
$OBSLTYPE
280
0
  9
$INTERSECTIONDISPLAY
280
0
  9
$INTERSECTIONCOLOR
 70
257
  9
$DIMASSOC
280
2
  9
$PROJECTNAME
  1

  9
$CAMERADISPLAY
290
0
  9
$LENSLENGTH
 40
50.0
  9
$CAMERAHEIGHT
 40
0.0
  9
$STEPSPERSEC
 40
24.0
  9
$STEPSIZE
 40
100.0
  9
$3DDWFPREC
 40
2.0
  9
$PSOLWIDTH
 40
0.005
  9
$PSOLHEIGHT
 40
0.08
  9
$LOFTANG1
 40
1.570796326795
  9
$LOFTANG2
 40
1.570796326795
  9
$LOFTMAG1
 40
0.0
  9
$LOFTMAG2
 40
0.0
  9
$LOFTPARAM
 70
7
  9
$LOFTNORMALS
280
1
  9
$LATITUDE
 40
37.795
  9
$LONGITUDE
 40
-122.394
  9
$NORTHDIRECTION
 40
0.0
  9
$TIMEZONE
 70
-8000
  9
$LIGHTGLYPHDISPLAY
280
1
  9
$TILEMODELIGHTSYNCH
280
1
  9
$CMATERIAL
347
20
  9
$SOLIDHIST
280
0
  9
$SHOWHIST
280
1
  9
$DWFFRAME
280
2
  9
$DGNFRAME
280
2
  9
$REALWORLDSCALE
290
1
  9
$INTERFERECOLOR
 62
256
  9
$CSHADOW
280
0
  9
$SHADOWPLANELOCATION
 40
0.0
  0
ENDSEC
  0
SECTION
  2
CLASSES
  0
CLASS
  1
ACDBDICTIONARYWDFLT
  2
AcDbDictionaryWithDefault
  3
ObjectDBX Classes
 90
0
 91
0
280
0
281
0
  0
CLASS
  1
SUN
  2
AcDbSun
  3
SCENEOE
 90
1153
 91
0
280
0
281
0
  0
CLASS
  1
VISUALSTYLE
  2
AcDbVisualStyle
  3
ObjectDBX Classes
 90
4095
 91
0
280
0
281
0
  0
CLASS
  1
MATERIAL
  2
AcDbMaterial
  3
ObjectDBX Classes
 90
1153
 91
0
280
0
281
0
  0
CLASS
  1
SCALE
  2
AcDbScale
  3
ObjectDBX Classes
 90
1153
 91
0
280
0
281
0
  0
CLASS
  1
TABLESTYLE
  2
AcDbTableStyle
  3
ObjectDBX Classes
 90
4095
 91
0
280
0
281
0
  0
CLASS
  1
MLEADERSTYLE
  2
AcDbMLeaderStyle
  3
ACDB_MLEADERSTYLE_CLASS
 90
4095
 91
0
280
0
281
0
  0
CLASS
  1
DICTIONARYVAR
  2
AcDbDictionaryVar
  3
ObjectDBX Classes
 90
0
 91
0
280
0
281
0
  0
CLASS
  1
CELLSTYLEMAP
  2
AcDbCellStyleMap
  3
ObjectDBX Classes
 90
1152
 91
0
280
0
281
0
  0
CLASS
  1
MENTALRAYRENDERSETTINGS
  2
AcDbMentalRayRenderSettings
  3
SCENEOE
 90
1024
 91
0
280
0
281
0
  0
CLASS
  1
ACDBDETAILVIEWSTYLE
  2
AcDbDetailViewStyle
  3
ObjectDBX Classes
 90
1025
 91
0
280
0
281
0
  0
CLASS
  1
ACDBSECTIONVIEWSTYLE
  2
AcDbSectionViewStyle
  3
ObjectDBX Classes
 90
1025
 91
0
280
0
281
0
  0
CLASS
  1
RASTERVARIABLES
  2
AcDbRasterVariables
  3
ISM
 90
0
 91
0
280
0
281
0
  0
CLASS
  1
LAYOUT
  2
AcDbLayout
  3
ObjectDBX Classes
 90
0
 91
0
280
0
281
0
  0
CLASS
  1
ACDBPLACEHOLDER
  2
AcDbPlaceHolder
  3
ObjectDBX Classes
 90
0
 91
0
280
0
281
0
  0
ENDSEC
  0
SECTION
  2
TABLES
  0
TABLE
  2
VPORT
  5
8
330
0
100
AcDbSymbolTable
 70
1
  0
VPORT
  5
23
330
8
100
AcDbSymbolTableRecord
100
AcDbViewportTableRecord
  2
*Active
 70
0
 10
0.0
 20
0.0
 11
1.0
 21
1.0
 12
0.0
 22
0.0
 13
0.0
 23
0.0
 14
0.5
 24
0.5
 15
0.5
 25
0.5
 16
0.0
 26
0.0
 36
1.0
 17
0.0
 27
0.0
 37
0.0
 40
1000.0
 41
1.34
 42
50.0
 43
0.0
 44
0.0
 50
0.0
 51
0.0
 71
0
 72
1000
 73
1
 74
3
 75
0
 76
0
 77
0
 78
0
281
0
 65
0
146
0.0
  0
ENDTAB
  0
TABLE
  2
LTYPE
  5
2
330
0
100
AcDbSymbolTable
 70
3
  0
LTYPE
  5
24
330
2
100
AcDbSymbolTableRecord
100
AcDbLinetypeTableRecord
  2
ByBlock
 70
0
  3

 72
65
 73
0
 40
0.0
  0
LTYPE
  5
25
330
2
100
AcDbSymbolTableRecord
100
AcDbLinetypeTableRecord
  2
ByLayer
 70
0
  3

 72
65
 73
0
 40
0.0
  0
LTYPE
  5
26
330
2
100
AcDbSymbolTableRecord
100
AcDbLinetypeTableRecord
  2
Continuous
 70
0
  3

 72
65
 73
0
 40
0.0
  0
ENDTAB
  0
TABLE
  2
LAYER
  5
1
330
0
100
AcDbSymbolTable
 70
2
  0
LAYER
  5
27
330
1
100
AcDbSymbolTableRecord
100
AcDbLayerTableRecord
  2
0
 70
0
 62
7
  6
Continuous
370
-3
390
13
347
21
  0
LAYER
  5
28
330
1
100
AcDbSymbolTableRecord
100
AcDbLayerTableRecord
  2
Defpoints
 70
0
 62
7
  6
Continuous
290
0
370
-3
390
13
347
21
  0
ENDTAB
  0
TABLE
  2
STYLE
  5
5
330
0
100
AcDbSymbolTable
 70
1
  0
STYLE
  5
29
330
5
100
AcDbSymbolTableRecord
100
AcDbTextStyleTableRecord
  2
Standard
 70
0
 40
0.0
 41
1.0
 50
0.0
 71
0
 42
2.5
  3
txt
  4

  0
ENDTAB
  0
TABLE
  2
VIEW
  5
7
330
0
100
AcDbSymbolTable
 70
0
  0
ENDTAB
  0
TABLE
  2
UCS
  5
6
330
0
100
AcDbSymbolTable
 70
0
  0
ENDTAB
  0
TABLE
  2
APPID
  5
3
330
0
100
AcDbSymbolTable
 70
3
  0
APPID
  5
2A
330
3
100
AcDbSymbolTableRecord
100
AcDbRegAppTableRecord
  2
ACAD
 70
0
  0
APPID
  5
39
330
3
100
AcDbSymbolTableRecord
100
AcDbRegAppTableRecord
  2
HATCHBACKGROUNDCOLOR
 70
0
  0
APPID
  5
3A
330
3
100
AcDbSymbolTableRecord
100
AcDbRegAppTableRecord
  2
EZDXF
 70
0
  0
ENDTAB
  0
TABLE
  2
DIMSTYLE
  5
4
330
0
100
AcDbSymbolTable
 70
1
100
AcDbDimStyleTable
  0
DIMSTYLE
105
2B
330
4
100
AcDbSymbolTableRecord
100
AcDbDimStyleTableRecord
  2
Standard
 70
0
 40
1.0
 41
2.5
 42
0.625
 43
3.75
 44
1.25
 45
0.0
 46
0.0
 47
0.0
 48
0.0
 49
2.5
140
2.5
141
2.5
142
0.0
143
0.03937007874
144
1.0
145
0.0
146
1.0
147
0.625
148
0.0
 69
0
 70
0
 71
0
 72
0
 73
0
 74
0
 75
0
 76
0
 77
1
 78
8
 79
3
170
0
171
3
172
1
173
0
174
0
175
0
176
0
177
0
178
0
179
2
271
2
272
2
273
2
274
3
275
0
276
0
277
2
278
44
279
0
280
0
281
0
282
0
283
0
284
8
285
0
286
0
288
0
289
3
290
0
371
-2
372
-2
  0
ENDTAB
  0
TABLE
  2
BLOCK_RECORD
  5
9
330
0
100
AcDbSymbolTable
 70
2
  0
BLOCK_RECORD
  5
17
330
9
100
AcDbSymbolTableRecord
100
AcDbBlockTableRecord
  2
*Model_Space
340
1A
 70
0
280
1
281
0
  0
BLOCK_RECORD
  5
1B
330
9
100
AcDbSymbolTableRecord
100
AcDbBlockTableRecord
  2
*Paper_Space
340
1E
 70
0
280
1
281
0
  0
ENDTAB
  0
ENDSEC
  0
SECTION
  2
BLOCKS
  0
BLOCK
  5
18
330
17
100
AcDbEntity
  8
0
100
AcDbBlockBegin
  2
*Model_Space
 70
0
 10
0.0
 20
0.0
 30
0.0
  3
*Model_Space
  1

  0
ENDBLK
  5
19
330
17
100
AcDbEntity
  8
0
100
AcDbBlockEnd
  0
BLOCK
  5
1C
330
1B
100
AcDbEntity
  8
0
100
AcDbBlockBegin
  2
*Paper_Space
 70
0
 10
0.0
 20
0.0
 30
0.0
  3
*Paper_Space
  1

  0
ENDBLK
  5
1D
330
1B
100
AcDbEntity
  8
0
100
AcDbBlockEnd
  0
ENDSEC
  0
SECTION
  2
ENTITIES
  0
LWPOLYLINE
  5
2F
330
17
100
AcDbEntity
  8
0
100
AcDbPolyline
 90
51
 70
0
 10
4.7
 20
12.0
 10
4.7
 20
11.76
 10
4.7
 20
11.52
 10
4.7
 20
11.28
 10
4.7
 20
11.04
 10
4.7
 20
10.8
 10
4.7
 20
10.56
 10
4.7
 20
10.32
 10
4.7
 20
10.08
 10
4.7
 20
9.84
 10
4.7
 20
9.6
 10
4.7
 20
9.36
 10
4.7
 20
9.120000000000001
 10
4.7
 20
8.879999999999999
 10
4.7
 20
8.64
 10
4.7
 20
8.4
 10
4.7
 20
8.16
 10
4.7
 20
7.92
 10
4.7
 20
7.68
 10
4.7
 20
7.44
 10
4.7
 20
7.2
 10
4.7
 20
6.96
 10
4.7
 20
6.72
 10
4.7
 20
6.48
 10
4.7
 20
6.24
 10
4.700000000000001
 20
6.0
 10
4.700000000000001
 20
5.76
 10
4.700000000000001
 20
5.52
 10
4.700000000000001
 20
5.28
 10
4.700000000000001
 20
5.04
 10
4.700000000000001
 20
4.8
 10
4.700000000000001
 20
4.56
 10
4.700000000000001
 20
4.32
 10
4.700000000000001
 20
4.08
 10
4.700000000000001
 20
3.84
 10
4.700000000000001
 20
3.5999999999999996
 10
4.700000000000001
 20
3.3599999999999994
 10
4.700000000000001
 20
3.119999999999999
 10
4.700000000000001
 20
2.880000000000001
 10
4.700000000000001
 20
2.6400000000000006
 10
4.700000000000001
 20
2.4000000000000004
 10
4.700000000000001
 20
2.16
 10
4.700000000000001
 20
1.92
 10
4.700000000000001
 20
1.6799999999999997
 10
4.700000000000001
 20
1.4399999999999995
 10
4.700000000000001
 20
1.1999999999999993
 10
4.700000000000001
 20
0.9600000000000009
 10
4.700000000000001
 20
0.7200000000000006
 10
4.700000000000001
 20
0.4800000000000004
 10
4.700000000000001
 20
0.2400000000000002
 10
4.700000000000001
 20
0.0
  0
LWPOLYLINE
  5
30
330
17
100
AcDbEntity
  8
0
100
AcDbPolyline
 90
51
 70
0
 10
-9.3
 20
5.0
 10
-9.3
 20
5.14
 10
-9.3
 20
5.28
 10
-9.3
 20
5.42
 10
-9.3
 20
5.5600000000000005
 10
-9.3
 20
5.7
 10
-9.3
 20
5.84
 10
-9.3
 20
5.98
 10
-9.3
 20
6.12
 10
-9.3
 20
6.26
 10
-9.3
 20
6.4
 10
-9.3
 20
6.54
 10
-9.3
 20
6.68
 10
-9.3
 20
6.82
 10
-9.3
 20
6.96
 10
-9.3
 20
7.1
 10
-9.3
 20
7.24
 10
-9.3
 20
7.38
 10
-9.3
 20
7.52
 10
-9.3
 20
7.66
 10
-9.3
 20
7.8
 10
-9.3
 20
7.9399999999999995
 10
-9.3
 20
8.08
 10
-9.3
 20
8.22
 10
-9.3
 20
8.36
 10
-9.3
 20
8.5
 10
-9.300000000000002
 20
8.64
 10
-9.300000000000002
 20
8.78
 10
-9.300000000000002
 20
8.92
 10
-9.300000000000002
 20
9.059999999999999
 10
-9.300000000000002
 20
9.2
 10
-9.300000000000002
 20
9.34
 10
-9.300000000000002
 20
9.48
 10
-9.300000000000002
 20
9.620000000000001
 10
-9.300000000000002
 20
9.76
 10
-9.300000000000002
 20
9.9
 10
-9.300000000000002
 20
10.04
 10
-9.300000000000002
 20
10.18
 10
-9.300000000000002
 20
10.32
 10
-9.300000000000002
 20
10.46
 10
-9.300000000000002
 20
10.6
 10
-9.300000000000002
 20
10.74
 10
-9.300000000000002
 20
10.879999999999999
 10
-9.300000000000002
 20
11.02
 10
-9.300000000000002
 20
11.16
 10
-9.300000000000002
 20
11.3
 10
-9.300000000000002
 20
11.440000000000001
 10
-9.300000000000002
 20
11.58
 10
-9.300000000000002
 20
11.719999999999999
 10
-9.300000000000002
 20
11.86
 10
-9.300000000000002
 20
12.0
  0
LWPOLYLINE
  5
31
330
17
100
AcDbEntity
  8
0
100
AcDbPolyline
 90
51
 70
0
 10
-9.3
 20
11.999999999999998
 10
-9.2861870989979
 20
12.439533636705189
 10
-9.244802909201345
 20
12.877332634950129
 10
-9.17601075510082
 20
13.31166920210007
 10
-9.080082127900418
 20
13.740829210153985
 10
-8.957395614066076
 20
14.16311896062463
 10
-8.80843540121776
 20
14.576871868792741
 10
-8.633789367262136
 20
14.980455040955508
 10
-8.434146760307048
 20
15.372275718712004
 10
-8.210295478514105
 20
15.750787564852978
 10
-7.963118960624633
 20
16.11449676604731
 10
-7.693592699430527
 20
16.461967928240824
 10
-7.4027803919498805
 20
16.79182974150082
 10
-7.091829741500822
 20
17.102780391949878
 10
-6.761967928240828
 20
17.393592699430528
 10
-6.414496766047313
 20
17.66311896062463
 10
-6.05078756485298
 20
17.910295478514104
 10
-5.672275718712008
 20
18.134146760307047
 10
-5.280455040955511
 20
18.333789367262135
 10
-4.876871868792746
 20
18.50843540121776
 10
-4.463118960624634
 20
18.657395614066075
 10
-4.040829210153988
 20
18.780082127900418
 10
-3.611669202100073
 20
18.876010755100822
 10
-3.1773326349501327
 20
18.944802909201343
 10
-2.7395336367051932
 20
18.986187098997902
 10
-2.300000000000002
 20
19.0
 10
-1.8604663632948109
 20
18.986187098997902
 10
-1.422667365049871
 20
18.944802909201346
 10
-0.9883307978999307
 20
18.876010755100822
 10
-0.5591707898460161
 20
18.780082127900418
 10
-0.13688103937536988
 20
18.657395614066075
 10
0.27687186879274117
 20
18.50843540121776
 10
0.6804550409555077
 20
18.333789367262135
 10
1.0722757187120093
 20
18.134146760307043
 10
1.4507875648529764
 20
17.910295478514104
 10
1.8144967660473101
 20
17.663118960624633
 10
2.1619679282408244
 20
17.393592699430528
 10
2.491829741500821
 20
17.10278039194988
 10
2.802780391949879
 20
16.791829741500823
 10
3.093592699430525
 20
16.461967928240828
 10
3.3631189606246306
 20
16.114496766047314
 10
3.6102954785141037
 20
15.750787564852981
 10
3.8341467603070454
 20
15.372275718712007
 10
4.033789367262136
 20
14.980455040955512
 10
4.20843540121776
 20
14.576871868792747
 10
4.357395614066075
 20
14.163118960624635
 10
4.480082127900417
 20
13.740829210153988
 10
4.57601075510082
 20
13.311669202100074
 10
4.644802909201345
 20
12.877332634950134
 10
4.686187098997901
 20
12.439533636705194
 10
4.7
 20
12.000000000000002
  0
LWPOLYLINE
  5
32
330
17
100
AcDbEntity
  8
0
100
AcDbPolyline
 90
51
 70
0
 10
4.7
 20
3.33955085807247e-16
 10
4.0120000000000005
 20
2.850697455869521e-16
 10
3.3240000000000003
 20
2.3618440536665724e-16
 10
2.6360000000000006
 20
1.872990651463624e-16
 10
1.9480000000000004
 20
1.384137249260675e-16
 10
1.2600000000000002
 20
8.952838470577261e-17
 10
0.572000000000001
 20
4.064304448547779e-17
 10
-0.11599999999999966
 20
-8.242295734817134e-18
 10
-0.8039999999999994
 20
-5.7127635955112e-17
 10
-1.491999999999999
 20
-1.0601297617540684e-16
 10
-2.1799999999999997
 20
-1.5489831639570177e-16
 10
-2.8679999999999994
 20
-2.0378365661599664e-16
 10
-3.5559999999999983
 20
-2.5266899683629144e-16
 10
-4.243999999999999
 20
-3.0155433705658636e-16
 10
-4.9319999999999995
 20
-3.504396772768813e-16
 10
-5.62
 20
-3.993250174971762e-16
 10
-6.307999999999999
 20
-4.48210357717471e-16
 10
-6.9959999999999996
 20
-4.970956979377659e-16
 10
-7.683999999999998
 20
-5.459810381580607e-16
 10
-8.372
 20
-5.948663783783557e-16
 10
-9.059999999999999
 20
-6.437517185986505e-16
 10
-9.748000000000001
 20
-6.926370588189455e-16
 10
-10.436
 20
-7.415223990392403e-16
 10
-11.123999999999999
 20
-7.904077392595351e-16
 10
-11.811999999999998
 20
-8.392930794798299e-16
 10
-12.5
 20
-8.881784197001249e-16
 10
-13.187999999999999
 20
-9.370637599204197e-16
 10
-13.876000000000001
 20
-9.859491001407148e-16
 10
-14.564
 20
-1.0348344403610097e-15
 10
-15.251999999999999
 20
-1.0837197805813043e-15
 10
-15.940000000000001
 20
-1.1326051208015994e-15
 10
-16.627999999999997
 20
-1.1814904610218939e-15
 10
-17.316
 20
-1.230375801242189e-15
 10
-18.004
 20
-1.279261141462484e-15
 10
-18.692
 20
-1.3281464816827789e-15
 10
-19.38
 20
-1.3770318219030736e-15
 10
-20.067999999999998
 20
-1.4259171621233684e-15
 10
-20.756
 20
-1.4748025023436635e-15
 10
-21.444000000000003
 20
-1.5236878425639586e-15
 10
-22.131999999999998
 20
-1.572573182784253e-15
 10
-22.82
 20
-1.6214585230045481e-15
 10
-23.508
 20
-1.670343863224843e-15
 10
-24.196
 20
-1.7192292034451379e-15
 10
-24.884
 20
-1.7681145436654328e-15
 10
-25.572
 20
-1.8169998838857274e-15
 10
-26.26
 20
-1.8658852241060227e-15
 10
-26.947999999999997
 20
-1.914770564326317e-15
 10
-27.636
 20
-1.963655904546612e-15
 10
-28.323999999999995
 20
-2.0125412447669065e-15
 10
-29.011999999999997
 20
-2.0614265849872018e-15
 10
-29.7
 20
-2.1103119252074967e-15
  0
LWPOLYLINE
  5
33
330
17
100
AcDbEntity
  8
0
100
AcDbPolyline
 90
51
 70
0
 10
1.7000000000000002
 20
12.0
 10
1.6822478584123202
 20
11.623566746725944
 10
1.629149002914755
 20
11.250474741657102
 10
1.5411747427077724
 20
10.884035575843084
 10
1.419105943553006
 20
10.527501789261288
 10
1.2640260967534718
 20
10.184038001041813
 10
1.0773117020080614
 20
9.856692820084014
 10
0.8606200495027627
 20
9.548371785388095
 10
0.6158745096856464
 20
9.261811576285245
 10
0.3452474612946079
 20
8.999555721478163
 10
0.051141009169893614
 20
8.76393202250021
 10
-0.263834336998515
 20
8.557031891984225
 10
-0.5968828337397079
 20
8.380691790135923
 10
-0.9450483190188341
 20
8.236476924183098
 10
-1.30524045134058
 20
8.125667355485476
 10
-1.6742621398390756
 20
8.049246637619449
 10
-2.048837921882745
 20
8.007893086286913
 10
-2.425643036312511
 20
8.001973758537073
 10
-2.8013329342572164
 20
8.031541194742088
 10
-3.1725729655861676
 20
8.09633295224501
 10
-3.5360679774997887
 20
8.195773934819385
 10
-3.8885915625391227
 20
8.328981497264076
 10
-4.227014696406861
 20
8.494773279824546
 10
-4.548333511408522
 20
8.691677702901753
 10
-4.849695958994758
 20
8.917947028896842
 10
-5.128427124746189
 20
9.171572875253808
 10
-5.382052971103157
 20
9.450304041005241
 10
-5.608322297098246
 20
9.751666488591475
 10
-5.805226720175455
 20
10.07298530359314
 10
-5.971018502735923
 20
10.411408437460874
 10
-6.1042260651806135
 20
10.76393202250021
 10
-6.203667047754989
 20
11.127427034413827
 10
-6.268458805257911
 20
11.498667065742781
 10
-6.298026241462926
 20
11.874356963687486
 10
-6.292106913713086
 20
12.25116207811725
 10
-6.250753362380551
 20
12.625737860160923
 10
-6.174332644514524
 20
12.994759548659419
 10
-6.063523075816902
 20
13.354951680981163
 10
-5.919308209864079
 20
13.703117166260286
 10
-5.7429681080157735
 20
14.036165663001485
 10
-5.5360679774997905
 20
14.351141009169892
 10
-5.300444278521841
 20
14.645247461294606
 10
-5.038188423714754
 20
14.915874509685647
 10
-4.751628214611906
 20
15.16062004950276
 10
-4.443307179915985
 20
15.377311702008061
 10
-4.115961998958188
 20
15.564026096753471
 10
-3.7724982107387115
 20
15.719105943553005
 10
-3.415964424156919
 20
15.841174742707771
 10
-3.049525258342899
 20
15.929149002914755
 10
-2.6764332532740562
 20
15.98224785841232
 10
-2.300000000000001
 20
16.0
  0
LWPOLYLINE
  5
34
330
17
100
AcDbEntity
  8
0
100
AcDbPolyline
 90
51
 70
0
 10
-2.3000000000000003
 20
16.0
 10
-2.174356963687487
 20
15.998026241462927
 10
-2.048837921882747
 20
15.992106913713087
 10
-1.923566746725943
 20
15.98224785841232
 10
-1.7986670657427832
 20
15.968458805257912
 10
-1.674262139839077
 20
15.950753362380551
 10
-1.5504747416571019
 20
15.929149002914755
 10
-1.4274270344138302
 20
15.90366704775499
 10
-1.305240451340581
 20
15.874332644514524
 10
-1.1840355758430832
 20
15.841174742707771
 10
-1.0639320225002107
 20
15.804226065180615
 10
-0.9450483190188348
 20
15.763523075816902
 10
-0.8275017892612886
 20
15.719105943553005
 10
-0.7114084374608778
 20
15.671018502735924
 10
-0.5968828337397096
 20
15.619308209864078
 10
-0.48403800104181327
 20
15.564026096753471
 10
-0.372985303593139
 20
15.505226720175454
 10
-0.263834336998515
 20
15.442968108015775
 10
-0.15669282008401364
 20
15.377311702008061
 10
-0.05166648859147793
 20
15.308322297098247
 10
0.05114100916989228
 20
15.23606797749979
 10
0.15162821461190568
 20
15.160620049502763
 10
0.24969595899475827
 20
15.082052971103158
 10
0.34524746129460704
 20
15.000444278521838
 10
0.4381884237147542
 20
14.915874509685647
 10
0.52842712474619
 20
14.828427124746192
 10
0.6158745096856459
 20
14.738188423714755
 10
0.7004442785218377
 20
14.645247461294609
 10
0.7820529711031567
 20
14.549695958994759
 10
0.8606200495027614
 20
14.451628214611906
 10
0.9360679774997891
 20
14.351141009169893
 10
1.008322297098247
 20
14.248333511408523
 10
1.07731170200806
 20
14.143307179915986
 10
1.1429681080157748
 20
14.036165663001485
 10
1.205226720175455
 20
13.92701469640686
 10
1.2640260967534713
 20
13.815961998958187
 10
1.3193082098640785
 20
13.703117166260292
 10
1.3710185027359247
 20
13.588591562539122
 10
1.4191059435530056
 20
13.472498210738713
 10
1.463523075816902
 20
13.354951680981166
 10
1.5042260651806143
 20
13.23606797749979
 10
1.541174742707772
 20
13.115964424156918
 10
1.5743326445145245
 20
12.99475954865942
 10
1.6036670477549895
 20
12.872572965586171
 10
1.6291490029147546
 20
12.7495252583429
 10
1.6507533623805513
 20
12.625737860160925
 10
1.6684588052579112
 20
12.501332934257219
 10
1.6822478584123202
 20
12.376433253274058
 10
1.6921069137130864
 20
12.251162078117254
 10
1.6980262414629266
 20
12.125643036312514
 10
1.7000000000000002
 20
12.0
  0
LWPOLYLINE
  5
35
330
17
100
AcDbEntity
  8
0
100
AcDbPolyline
 90
51
 70
0
 10
-29.7
 20
-2.1103119252075e-15
 10
-29.7
 20
0.09999999999999792
 10
-29.7
 20
0.19999999999999796
 10
-29.7
 20
0.299999999999998
 10
-29.7
 20
0.399999999999998
 10
-29.7
 20
0.499999999999998
 10
-29.7
 20
0.5999999999999981
 10
-29.7
 20
0.6999999999999982
 10
-29.7
 20
0.7999999999999982
 10
-29.7
 20
0.8999999999999981
 10
-29.7
 20
0.9999999999999981
 10
-29.7
 20
1.0999999999999983
 10
-29.7
 20
1.1999999999999982
 10
-29.7
 20
1.2999999999999983
 10
-29.7
 20
1.3999999999999984
 10
-29.7
 20
1.4999999999999984
 10
-29.7
 20
1.5999999999999983
 10
-29.7
 20
1.6999999999999984
 10
-29.7
 20
1.7999999999999983
 10
-29.7
 20
1.8999999999999984
 10
-29.7
 20
1.9999999999999982
 10
-29.7
 20
2.0999999999999988
 10
-29.7
 20
2.199999999999999
 10
-29.7
 20
2.2999999999999985
 10
-29.7
 20
2.3999999999999986
 10
-29.7
 20
2.4999999999999987
 10
-29.7
 20
2.5999999999999988
 10
-29.7
 20
2.699999999999999
 10
-29.7
 20
2.799999999999999
 10
-29.7
 20
2.899999999999999
 10
-29.7
 20
2.999999999999999
 10
-29.7
 20
3.0999999999999988
 10
-29.7
 20
3.199999999999999
 10
-29.7
 20
3.299999999999999
 10
-29.7
 20
3.399999999999999
 10
-29.7
 20
3.499999999999999
 10
-29.7
 20
3.5999999999999988
 10
-29.7
 20
3.699999999999999
 10
-29.7
 20
3.799999999999999
 10
-29.7
 20
3.899999999999999
 10
-29.7
 20
3.999999999999999
 10
-29.7
 20
4.1
 10
-29.7
 20
4.2
 10
-29.7
 20
4.3
 10
-29.7
 20
4.4
 10
-29.7
 20
4.5
 10
-29.7
 20
4.6
 10
-29.7
 20
4.7
 10
-29.7
 20
4.8
 10
-29.7
 20
4.9
 10
-29.7
 20
5.0
  0
LWPOLYLINE
  5
36
330
17
100
AcDbEntity
  8
0
100
AcDbPolyline
 90
51
 70
0
 10
-20.0
 20
5.0
 10
-19.786
 20
5.0
 10
-19.572
 20
5.0
 10
-19.358
 20
5.0
 10
-19.144
 20
5.0
 10
-18.93
 20
5.0
 10
-18.716
 20
5.0
 10
-18.502000000000002
 20
5.0
 10
-18.288
 20
5.0
 10
-18.073999999999998
 20
5.0
 10
-17.86
 20
5.0
 10
-17.646
 20
5.0
 10
-17.432000000000002
 20
5.0
 10
-17.218
 20
5.0
 10
-17.004
 20
5.0
 10
-16.79
 20
5.0
 10
-16.576
 20
5.0
 10
-16.362000000000002
 20
5.0
 10
-16.148
 20
5.0
 10
-15.934000000000001
 20
5.0
 10
-15.719999999999999
 20
5.0
 10
-15.506
 20
5.0
 10
-15.292000000000002
 20
5.0
 10
-15.078
 20
5.0
 10
-14.864
 20
5.0
 10
-14.65
 20
5.0
 10
-14.436
 20
5.0
 10
-14.222000000000001
 20
5.0
 10
-14.008000000000001
 20
5.0
 10
-13.794
 20
5.0
 10
-13.58
 20
5.0
 10
-13.366
 20
5.0
 10
-13.152000000000001
 20
5.0
 10
-12.938
 20
5.0
 10
-12.724
 20
5.0
 10
-12.51
 20
5.0
 10
-12.296
 20
5.0
 10
-12.082
 20
5.0
 10
-11.868
 20
5.0
 10
-11.654000000000002
 20
5.0
 10
-11.44
 20
5.0
 10
-11.226
 20
5.0
 10
-11.012
 20
5.0
 10
-10.798
 20
5.0
 10
-10.584000000000001
 20
5.0
 10
-10.370000000000001
 20
5.0
 10
-10.156
 20
5.0
 10
-9.942
 20
5.0
 10
-9.728000000000002
 20
5.0
 10
-9.514000000000001
 20
5.0
 10
-9.3
 20
5.0
  0
LWPOLYLINE
  5
37
330
17
100
AcDbEntity
  8
0
100
AcDbPolyline
 90
51
 70
0
 10
-29.7
 20
5.0
 10
-29.291999999999998
 20
5.0
 10
-28.884
 20
5.0
 10
-28.476
 20
5.0
 10
-28.067999999999998
 20
5.0
 10
-27.66
 20
5.0
 10
-27.252
 20
5.0
 10
-26.844
 20
5.0
 10
-26.436
 20
5.0
 10
-26.028
 20
5.0
 10
-25.619999999999997
 20
5.0
 10
-25.212
 20
5.0
 10
-24.804
 20
5.0
 10
-24.396
 20
5.0
 10
-23.988
 20
5.0
 10
-23.58
 20
5.0
 10
-23.172
 20
5.0
 10
-22.764
 20
5.0
 10
-22.356
 20
5.0
 10
-21.948
 20
5.0
 10
-21.54
 20
5.0
 10
-21.131999999999998
 20
5.0
 10
-20.724
 20
5.0
 10
-20.316
 20
5.0
 10
-19.908
 20
5.0
 10
-19.5
 20
5.0
 10
-19.092
 20
5.0
 10
-18.684
 20
5.0
 10
-18.276
 20
5.0
 10
-17.868000000000002
 20
5.0
 10
-17.46
 20
5.0
 10
-17.052
 20
5.0
 10
-16.644
 20
5.0
 10
-16.236
 20
5.0
 10
-15.828000000000001
 20
5.0
 10
-15.42
 20
5.0
 10
-15.012
 20
5.0
 10
-14.604000000000001
 20
5.0
 10
-14.196000000000002
 20
5.0
 10
-13.788
 20
5.0
 10
-13.379999999999999
 20
5.0
 10
-12.972000000000001
 20
5.0
 10
-12.564
 20
5.0
 10
-12.156000000000002
 20
5.0
 10
-11.748000000000001
 20
5.0
 10
-11.34
 20
5.0
 10
-10.931999999999999
 20
5.0
 10
-10.524000000000001
 20
5.0
 10
-10.116
 20
5.0
 10
-9.708000000000002
 20
5.0
 10
-9.3
 20
5.0
  0
LWPOLYLINE
  5
38
330
17
100
AcDbEntity
  8
0
100
AcDbPolyline
 90
51
 70
0
 10
-9.3
 20
5.0
 10
-9.3
 20
5.14
 10
-9.3
 20
5.28
 10
-9.3
 20
5.42
 10
-9.3
 20
5.5600000000000005
 10
-9.3
 20
5.7
 10
-9.3
 20
5.84
 10
-9.3
 20
5.98
 10
-9.3
 20
6.12
 10
-9.3
 20
6.26
 10
-9.3
 20
6.4
 10
-9.3
 20
6.54
 10
-9.3
 20
6.68
 10
-9.3
 20
6.82
 10
-9.3
 20
6.96
 10
-9.3
 20
7.1
 10
-9.3
 20
7.24
 10
-9.3
 20
7.38
 10
-9.3
 20
7.52
 10
-9.3
 20
7.66
 10
-9.3
 20
7.8
 10
-9.3
 20
7.9399999999999995
 10
-9.3
 20
8.08
 10
-9.3
 20
8.22
 10
-9.3
 20
8.36
 10
-9.3
 20
8.5
 10
-9.300000000000002
 20
8.64
 10
-9.300000000000002
 20
8.78
 10
-9.300000000000002
 20
8.92
 10
-9.300000000000002
 20
9.059999999999999
 10
-9.300000000000002
 20
9.2
 10
-9.300000000000002
 20
9.34
 10
-9.300000000000002
 20
9.48
 10
-9.300000000000002
 20
9.620000000000001
 10
-9.300000000000002
 20
9.76
 10
-9.300000000000002
 20
9.9
 10
-9.300000000000002
 20
10.04
 10
-9.300000000000002
 20
10.18
 10
-9.300000000000002
 20
10.32
 10
-9.300000000000002
 20
10.46
 10
-9.300000000000002
 20
10.6
 10
-9.300000000000002
 20
10.74
 10
-9.300000000000002
 20
10.879999999999999
 10
-9.300000000000002
 20
11.02
 10
-9.300000000000002
 20
11.16
 10
-9.300000000000002
 20
11.3
 10
-9.300000000000002
 20
11.440000000000001
 10
-9.300000000000002
 20
11.58
 10
-9.300000000000002
 20
11.719999999999999
 10
-9.300000000000002
 20
11.86
 10
-9.300000000000002
 20
12.0
  0
ENDSEC
  0
SECTION
  2
OBJECTS
  0
DICTIONARY
  5
A
330
0
100
AcDbDictionary
280
0
281
1
  3
ACAD_COLOR
350
B
  3
ACAD_GROUP
350
C
  3
ACAD_LAYOUT
350
D
  3
ACAD_MATERIAL
350
E
  3
ACAD_MLEADERSTYLE
350
F
  3
ACAD_MLINESTYLE
350
10
  3
ACAD_PLOTSETTINGS
350
11
  3
ACAD_PLOTSTYLENAME
350
12
  3
ACAD_SCALELIST
350
14
  3
ACAD_TABLESTYLE
350
15
  3
ACAD_VISUALSTYLE
350
16
  3
EZDXF_META
350
2D
  0
DICTIONARY
  5
B
330
A
100
AcDbDictionary
280
0
281
1
  0
DICTIONARY
  5
C
330
A
100
AcDbDictionary
280
0
281
1
  0
DICTIONARY
  5
D
330
A
100
AcDbDictionary
280
0
281
1
  3
Model
350
1A
  3
Layout1
350
1E
  0
DICTIONARY
  5
E
330
A
100
AcDbDictionary
280
0
281
1
  3
ByBlock
350
1F
  3
ByLayer
350
20
  3
Global
350
21
  0
DICTIONARY
  5
F
330
A
100
AcDbDictionary
280
0
281
1
  3
Standard
350
2C
  0
DICTIONARY
  5
10
330
A
100
AcDbDictionary
280
0
281
1
  3
Standard
350
22
  0
DICTIONARY
  5
11
330
A
100
AcDbDictionary
280
0
281
1
  0
ACDBDICTIONARYWDFLT
  5
12
330
A
100
AcDbDictionary
280
0
281
1
  3
Normal
350
13
100
AcDbDictionaryWithDefault
340
13
  0
ACDBPLACEHOLDER
  5
13
330
12
  0
DICTIONARY
  5
14
330
A
100
AcDbDictionary
280
0
281
1
  0
DICTIONARY
  5
15
330
A
100
AcDbDictionary
280
0
281
1
  0
DICTIONARY
  5
16
330
A
100
AcDbDictionary
280
0
281
1
  0
LAYOUT
  5
1A
330
D
100
AcDbPlotSettings
  1

  2
Adobe PDF
  4
A3
  6

 40
7.5
 41
20.0
 42
7.5
 43
20.0
 44
420.0
 45
297.0
 46
0.0
 47
0.0
 48
0.0
 49
0.0
140
0.0
141
0.0
142
1.0
143
1.0
 70
1024
 72
1
 73
0
 74
5
  7

 75
16
 76
0
 77
2
 78
300
147
1.0
148
0.0
149
0.0
100
AcDbLayout
  1
Model
 70
1
 71
0
 10
0.0
 20
0.0
 11
420.0
 21
297.0
 12
0.0
 22
0.0
 32
0.0
 14
1e+20
 24
1e+20
 34
1e+20
 15
-1e+20
 25
-1e+20
 35
-1e+20
146
0.0
 13
0.0
 23
0.0
 33
0.0
 16
1.0
 26
0.0
 36
0.0
 17
0.0
 27
1.0
 37
0.0
 76
1
330
17
  0
LAYOUT
  5
1E
330
D
100
AcDbPlotSettings
  1

  2
Adobe PDF
  4
A3
  6

 40
7.5
 41
20.0
 42
7.5
 43
20.0
 44
420.0
 45
297.0
 46
0.0
 47
0.0
 48
0.0
 49
0.0
140
0.0
141
0.0
142
1.0
143
1.0
 70
0
 72
1
 73
0
 74
5
  7

 75
16
 76
0
 77
2
 78
300
147
1.0
148
0.0
149
0.0
100
AcDbLayout
  1
Layout1
 70
1
 71
1
 10
0.0
 20
0.0
 11
420.0
 21
297.0
 12
0.0
 22
0.0
 32
0.0
 14
1e+20
 24
1e+20
 34
1e+20
 15
-1e+20
 25
-1e+20
 35
-1e+20
146
0.0
 13
0.0
 23
0.0
 33
0.0
 16
1.0
 26
0.0
 36
0.0
 17
0.0
 27
1.0
 37
0.0
 76
1
330
1B
  0
MATERIAL
  5
1F
102
{ACAD_REACTORS
330
E
102
}
330
E
100
AcDbMaterial
  1
ByBlock
  2

 70
0
 40
1.0
 71
1
 41
1.0
 91
-1023410177
 42
1.0
 72
1
  3

 73
1
 74
1
 75
1
 44
0.5
 73
0
 45
1.0
 46
1.0
 77
1
  4

 78
1
 79
1
170
1
 48
1.0
171
1
  6

172
1
173
1
174
1
140
1.0
141
1.0
175
1
  7

176
1
177
1
178
1
143
1.0
179
1
  8

270
1
271
1
272
1
145
1.0
146
1.0
273
1
  9

274
1
275
1
276
1
 42
1.0
 72
1
  3

 73
1
 74
1
 75
1
 94
63
  0
MATERIAL
  5
20
102
{ACAD_REACTORS
330
E
102
}
330
E
100
AcDbMaterial
  1
ByLayer
  2

 70
0
 40
1.0
 71
1
 41
1.0
 91
-1023410177
 42
1.0
 72
1
  3

 73
1
 74
1
 75
1
 44
0.5
 73
0
 45
1.0
 46
1.0
 77
1
  4

 78
1
 79
1
170
1
 48
1.0
171
1
  6

172
1
173
1
174
1
140
1.0
141
1.0
175
1
  7

176
1
177
1
178
1
143
1.0
179
1
  8

270
1
271
1
272
1
145
1.0
146
1.0
273
1
  9

274
1
275
1
276
1
 42
1.0
 72
1
  3

 73
1
 74
1
 75
1
 94
63
  0
MATERIAL
  5
21
102
{ACAD_REACTORS
330
E
102
}
330
E
100
AcDbMaterial
  1
Global
  2

 70
0
 40
1.0
 71
1
 41
1.0
 91
-1023410177
 42
1.0
 72
1
  3

 73
1
 74
1
 75
1
 44
0.5
 73
0
 45
1.0
 46
1.0
 77
1
  4

 78
1
 79
1
170
1
 48
1.0
171
1
  6

172
1
173
1
174
1
140
1.0
141
1.0
175
1
  7

176
1
177
1
178
1
143
1.0
179
1
  8

270
1
271
1
272
1
145
1.0
146
1.0
273
1
  9

274
1
275
1
276
1
 42
1.0
 72
1
  3

 73
1
 74
1
 75
1
 94
63
  0
MLINESTYLE
  5
22
102
{ACAD_REACTORS
330
10
102
}
330
10
100
AcDbMlineStyle
  2
Standard
 70
0
  3

 62
256
 51
90.0
 52
90.0
 71
2
 49
0.5
 62
256
  6
BYLAYER
 49
-0.5
 62
256
  6
BYLAYER
  0
MLEADERSTYLE
  5
2C
102
{ACAD_REACTORS
330
F
102
}
330
F
100
AcDbMLeaderStyle
179
2
170
2
171
1
172
0
 90
2
 40
0.0
 41
0.0
173
1
 91
-1056964608
 92
-2
290
1
 42
2.0
291
1
 43
8.0
  3
Standard
 44
4.0
300

342
29
174
1
175
1
176
0
178
1
 93
-1056964608
 45
4.0
292
0
297
0
 46
4.0
 94
-1056964608
 47
1.0
 49
1.0
140
1.0
294
1
141
0.0
177
0
142
1.0
295
0
296
0
143
3.75
271
0
272
9
273
9
  0
DICTIONARY
  5
2D
330
A
100
AcDbDictionary
281
1
  3
CREATED_BY_EZDXF
350
2E
  3
WRITTEN_BY_EZDXF
350
3B
  0
DICTIONARYVAR
  5
2E
330
2D
100
DictionaryVariables
280
0
  1
1.0.3 @ 2025-05-29T09:38:40.222278+00:00
  0
DICTIONARYVAR
  5
3B
330
2D
100
DictionaryVariables
280
0
  1
1.0.3 @ 2025-05-29T09:38:40.224277+00:00
  0
ENDSEC
  0
EOF
