  0
SECTION
  2
HEADER
  9
$ACADVER
  1
AC1027
  9
$ACADMAINTVER
 70
105
  9
$DWGCODEPAGE
  3
ANSI_1252
  9
$LASTSAVEDBY
  1
ezdxf
  9
$REQUIREDVERSIONS
160
0
  9
$INSBASE
 10
0.0
 20
0.0
 30
0.0
  9
$EXTMIN
 10
1e+20
 20
1e+20
 30
1e+20
  9
$EXTMAX
 10
-1e+20
 20
-1e+20
 30
-1e+20
  9
$LIMMIN
 10
0.0
 20
0.0
  9
$LIMMAX
 10
420.0
 20
297.0
  9
$ORTHOMODE
 70
0
  9
$REGENMODE
 70
1
  9
$FILLMODE
 70
1
  9
$QTEXTMODE
 70
0
  9
$MIRRTEXT
 70
1
  9
$LTSCALE
 40
1.0
  9
$ATTMODE
 70
1
  9
$TEXTSIZE
 40
2.5
  9
$TRACEWID
 40
1.0
  9
$TEXTSTYLE
  7
Standard
  9
$CLAYER
  8
0
  9
$CELTYPE
  6
ByLayer
  9
$CECOLOR
 62
256
  9
$CELTSCALE
 40
1.0
  9
$DISPSILH
 70
0
  9
$DIMSCALE
 40
1.0
  9
$DIMASZ
 40
2.5
  9
$DIMEXO
 40
0.625
  9
$DIMDLI
 40
3.75
  9
$DIMRND
 40
0.0
  9
$DIMDLE
 40
0.0
  9
$DIMEXE
 40
1.25
  9
$DIMTP
 40
0.0
  9
$DIMTM
 40
0.0
  9
$DIMTXT
 40
2.5
  9
$DIMCEN
 40
2.5
  9
$DIMTSZ
 40
0.0
  9
$DIMTOL
 70
0
  9
$DIMLIM
 70
0
  9
$DIMTIH
 70
0
  9
$DIMTOH
 70
0
  9
$DIMSE1
 70
0
  9
$DIMSE2
 70
0
  9
$DIMTAD
 70
1
  9
$DIMZIN
 70
8
  9
$DIMBLK
  1

  9
$DIMASO
 70
1
  9
$DIMSHO
 70
1
  9
$DIMPOST
  1

  9
$DIMAPOST
  1

  9
$DIMALT
 70
0
  9
$DIMALTD
 70
3
  9
$DIMALTF
 40
0.03937007874
  9
$DIMLFAC
 40
1.0
  9
$DIMTOFL
 70
1
  9
$DIMTVP
 40
0.0
  9
$DIMTIX
 70
0
  9
$DIMSOXD
 70
0
  9
$DIMSAH
 70
0
  9
$DIMBLK1
  1

  9
$DIMBLK2
  1

  9
$DIMSTYLE
  2
ISO-25
  9
$DIMCLRD
 70
0
  9
$DIMCLRE
 70
0
  9
$DIMCLRT
 70
0
  9
$DIMTFAC
 40
1.0
  9
$DIMGAP
 40
0.625
  9
$DIMJUST
 70
0
  9
$DIMSD1
 70
0
  9
$DIMSD2
 70
0
  9
$DIMTOLJ
 70
0
  9
$DIMTZIN
 70
8
  9
$DIMALTZ
 70
0
  9
$DIMALTTZ
 70
0
  9
$DIMUPT
 70
0
  9
$DIMDEC
 70
2
  9
$DIMTDEC
 70
2
  9
$DIMALTU
 70
2
  9
$DIMALTTD
 70
3
  9
$DIMTXSTY
  7
Standard
  9
$DIMAUNIT
 70
0
  9
$DIMADEC
 70
0
  9
$DIMALTRND
 40
0.0
  9
$DIMAZIN
 70
0
  9
$DIMDSEP
 70
44
  9
$DIMATFIT
 70
3
  9
$DIMFRAC
 70
0
  9
$DIMLDRBLK
  1

  9
$DIMLUNIT
 70
2
  9
$DIMLWD
 70
-2
  9
$DIMLWE
 70
-2
  9
$DIMTMOVE
 70
0
  9
$DIMFXL
 40
1.0
  9
$DIMFXLON
 70
0
  9
$DIMJOGANG
 40
0.785398163397
  9
$DIMTFILL
 70
0
  9
$DIMTFILLCLR
 70
0
  9
$DIMARCSYM
 70
0
  9
$DIMLTYPE
  6

  9
$DIMLTEX1
  6

  9
$DIMLTEX2
  6

  9
$DIMTXTDIRECTION
 70
0
  9
$LUNITS
 70
2
  9
$LUPREC
 70
4
  9
$SKETCHINC
 40
1.0
  9
$FILLETRAD
 40
10.0
  9
$AUNITS
 70
0
  9
$AUPREC
 70
2
  9
$MENU
  1
.
  9
$ELEVATION
 40
0.0
  9
$PELEVATION
 40
0.0
  9
$THICKNESS
 40
0.0
  9
$LIMCHECK
 70
0
  9
$CHAMFERA
 40
0.0
  9
$CHAMFERB
 40
0.0
  9
$CHAMFERC
 40
0.0
  9
$CHAMFERD
 40
0.0
  9
$SKPOLY
 70
0
  9
$TDCREATE
 40
2460825.777060185
  9
$TDUCREATE
 40
2458532.153996898
  9
$TDUPDATE
 40
2460825.777060185
  9
$TDUUPDATE
 40
2458532.1544311
  9
$TDINDWG
 40
0.0
  9
$TDUSRTIMER
 40
0.0
  9
$USRTIMER
 70
1
  9
$ANGBASE
 50
0.0
  9
$ANGDIR
 70
0
  9
$PDMODE
 70
0
  9
$PDSIZE
 40
0.0
  9
$PLINEWID
 40
0.0
  9
$SPLFRAME
 70
0
  9
$SPLINETYPE
 70
6
  9
$SPLINESEGS
 70
8
  9
$HANDSEED
  5
3B
  9
$SURFTAB1
 70
6
  9
$SURFTAB2
 70
6
  9
$SURFTYPE
 70
6
  9
$SURFU
 70
6
  9
$SURFV
 70
6
  9
$UCSBASE
  2

  9
$UCSNAME
  2

  9
$UCSORG
 10
0.0
 20
0.0
 30
0.0
  9
$UCSXDIR
 10
1.0
 20
0.0
 30
0.0
  9
$UCSYDIR
 10
0.0
 20
1.0
 30
0.0
  9
$UCSORTHOREF
  2

  9
$UCSORTHOVIEW
 70
0
  9
$UCSORGTOP
 10
0.0
 20
0.0
 30
0.0
  9
$UCSORGBOTTOM
 10
0.0
 20
0.0
 30
0.0
  9
$UCSORGLEFT
 10
0.0
 20
0.0
 30
0.0
  9
$UCSORGRIGHT
 10
0.0
 20
0.0
 30
0.0
  9
$UCSORGFRONT
 10
0.0
 20
0.0
 30
0.0
  9
$UCSORGBACK
 10
0.0
 20
0.0
 30
0.0
  9
$PUCSBASE
  2

  9
$PUCSNAME
  2

  9
$PUCSORG
 10
0.0
 20
0.0
 30
0.0
  9
$PUCSXDIR
 10
1.0
 20
0.0
 30
0.0
  9
$PUCSYDIR
 10
0.0
 20
1.0
 30
0.0
  9
$PUCSORTHOREF
  2

  9
$PUCSORTHOVIEW
 70
0
  9
$PUCSORGTOP
 10
0.0
 20
0.0
 30
0.0
  9
$PUCSORGBOTTOM
 10
0.0
 20
0.0
 30
0.0
  9
$PUCSORGLEFT
 10
0.0
 20
0.0
 30
0.0
  9
$PUCSORGRIGHT
 10
0.0
 20
0.0
 30
0.0
  9
$PUCSORGFRONT
 10
0.0
 20
0.0
 30
0.0
  9
$PUCSORGBACK
 10
0.0
 20
0.0
 30
0.0
  9
$USERI1
 70
0
  9
$USERI2
 70
0
  9
$USERI3
 70
0
  9
$USERI4
 70
0
  9
$USERI5
 70
0
  9
$USERR1
 40
0.0
  9
$USERR2
 40
0.0
  9
$USERR3
 40
0.0
  9
$USERR4
 40
0.0
  9
$USERR5
 40
0.0
  9
$WORLDVIEW
 70
1
  9
$SHADEDGE
 70
3
  9
$SHADEDIF
 70
70
  9
$TILEMODE
 70
1
  9
$MAXACTVP
 70
64
  9
$PINSBASE
 10
0.0
 20
0.0
 30
0.0
  9
$PLIMCHECK
 70
0
  9
$PEXTMIN
 10
1e+20
 20
1e+20
 30
1e+20
  9
$PEXTMAX
 10
-1e+20
 20
-1e+20
 30
-1e+20
  9
$PLIMMIN
 10
0.0
 20
0.0
  9
$PLIMMAX
 10
420.0
 20
297.0
  9
$UNITMODE
 70
0
  9
$VISRETAIN
 70
1
  9
$PLINEGEN
 70
0
  9
$PSLTSCALE
 70
1
  9
$TREEDEPTH
 70
3020
  9
$CMLSTYLE
  2
Standard
  9
$CMLJUST
 70
0
  9
$CMLSCALE
 40
20.0
  9
$PROXYGRAPHICS
 70
1
  9
$MEASUREMENT
 70
1
  9
$CELWEIGHT
370
-1
  9
$ENDCAPS
280
0
  9
$JOINSTYLE
280
0
  9
$LWDISPLAY
290
0
  9
$INSUNITS
 70
6
  9
$HYPERLINKBASE
  1

  9
$STYLESHEET
  1

  9
$XEDIT
290
1
  9
$CEPSNTYPE
380
0
  9
$PSTYLEMODE
290
1
  9
$FINGERPRINTGUID
  2
{D37B6331-A0CA-4E41-9A16-8CC967696FF4}
  9
$VERSIONGUID
  2
{7080094B-FCDE-4ECF-877F-4B15EE83D0D0}
  9
$EXTNAMES
290
1
  9
$PSVPSCALE
 40
0.0
  9
$OLESTARTUP
290
0
  9
$SORTENTS
280
127
  9
$INDEXCTL
280
0
  9
$HIDETEXT
280
1
  9
$XCLIPFRAME
280
0
  9
$HALOGAP
280
0
  9
$OBSCOLOR
 70
257
  9
$OBSLTYPE
280
0
  9
$INTERSECTIONDISPLAY
280
0
  9
$INTERSECTIONCOLOR
 70
257
  9
$DIMASSOC
280
2
  9
$PROJECTNAME
  1

  9
$CAMERADISPLAY
290
0
  9
$LENSLENGTH
 40
50.0
  9
$CAMERAHEIGHT
 40
0.0
  9
$STEPSPERSEC
 40
24.0
  9
$STEPSIZE
 40
100.0
  9
$3DDWFPREC
 40
2.0
  9
$PSOLWIDTH
 40
0.005
  9
$PSOLHEIGHT
 40
0.08
  9
$LOFTANG1
 40
1.570796326795
  9
$LOFTANG2
 40
1.570796326795
  9
$LOFTMAG1
 40
0.0
  9
$LOFTMAG2
 40
0.0
  9
$LOFTPARAM
 70
7
  9
$LOFTNORMALS
280
1
  9
$LATITUDE
 40
37.795
  9
$LONGITUDE
 40
-122.394
  9
$NORTHDIRECTION
 40
0.0
  9
$TIMEZONE
 70
-8000
  9
$LIGHTGLYPHDISPLAY
280
1
  9
$TILEMODELIGHTSYNCH
280
1
  9
$CMATERIAL
347
20
  9
$SOLIDHIST
280
0
  9
$SHOWHIST
280
1
  9
$DWFFRAME
280
2
  9
$DGNFRAME
280
2
  9
$REALWORLDSCALE
290
1
  9
$INTERFERECOLOR
 62
256
  9
$CSHADOW
280
0
  9
$SHADOWPLANELOCATION
 40
0.0
  0
ENDSEC
  0
SECTION
  2
CLASSES
  0
CLASS
  1
ACDBDICTIONARYWDFLT
  2
AcDbDictionaryWithDefault
  3
ObjectDBX Classes
 90
0
 91
0
280
0
281
0
  0
CLASS
  1
SUN
  2
AcDbSun
  3
SCENEOE
 90
1153
 91
0
280
0
281
0
  0
CLASS
  1
VISUALSTYLE
  2
AcDbVisualStyle
  3
ObjectDBX Classes
 90
4095
 91
0
280
0
281
0
  0
CLASS
  1
MATERIAL
  2
AcDbMaterial
  3
ObjectDBX Classes
 90
1153
 91
0
280
0
281
0
  0
CLASS
  1
SCALE
  2
AcDbScale
  3
ObjectDBX Classes
 90
1153
 91
0
280
0
281
0
  0
CLASS
  1
TABLESTYLE
  2
AcDbTableStyle
  3
ObjectDBX Classes
 90
4095
 91
0
280
0
281
0
  0
CLASS
  1
MLEADERSTYLE
  2
AcDbMLeaderStyle
  3
ACDB_MLEADERSTYLE_CLASS
 90
4095
 91
0
280
0
281
0
  0
CLASS
  1
DICTIONARYVAR
  2
AcDbDictionaryVar
  3
ObjectDBX Classes
 90
0
 91
0
280
0
281
0
  0
CLASS
  1
CELLSTYLEMAP
  2
AcDbCellStyleMap
  3
ObjectDBX Classes
 90
1152
 91
0
280
0
281
0
  0
CLASS
  1
MENTALRAYRENDERSETTINGS
  2
AcDbMentalRayRenderSettings
  3
SCENEOE
 90
1024
 91
0
280
0
281
0
  0
CLASS
  1
ACDBDETAILVIEWSTYLE
  2
AcDbDetailViewStyle
  3
ObjectDBX Classes
 90
1025
 91
0
280
0
281
0
  0
CLASS
  1
ACDBSECTIONVIEWSTYLE
  2
AcDbSectionViewStyle
  3
ObjectDBX Classes
 90
1025
 91
0
280
0
281
0
  0
CLASS
  1
RASTERVARIABLES
  2
AcDbRasterVariables
  3
ISM
 90
0
 91
0
280
0
281
0
  0
CLASS
  1
LAYOUT
  2
AcDbLayout
  3
ObjectDBX Classes
 90
0
 91
0
280
0
281
0
  0
CLASS
  1
ACDBPLACEHOLDER
  2
AcDbPlaceHolder
  3
ObjectDBX Classes
 90
0
 91
0
280
0
281
0
  0
ENDSEC
  0
SECTION
  2
TABLES
  0
TABLE
  2
VPORT
  5
8
330
0
100
AcDbSymbolTable
 70
1
  0
VPORT
  5
23
330
8
100
AcDbSymbolTableRecord
100
AcDbViewportTableRecord
  2
*Active
 70
0
 10
0.0
 20
0.0
 11
1.0
 21
1.0
 12
0.0
 22
0.0
 13
0.0
 23
0.0
 14
0.5
 24
0.5
 15
0.5
 25
0.5
 16
0.0
 26
0.0
 36
1.0
 17
0.0
 27
0.0
 37
0.0
 40
1000.0
 41
1.34
 42
50.0
 43
0.0
 44
0.0
 50
0.0
 51
0.0
 71
0
 72
1000
 73
1
 74
3
 75
0
 76
0
 77
0
 78
0
281
0
 65
0
146
0.0
  0
ENDTAB
  0
TABLE
  2
LTYPE
  5
2
330
0
100
AcDbSymbolTable
 70
3
  0
LTYPE
  5
24
330
2
100
AcDbSymbolTableRecord
100
AcDbLinetypeTableRecord
  2
ByBlock
 70
0
  3

 72
65
 73
0
 40
0.0
  0
LTYPE
  5
25
330
2
100
AcDbSymbolTableRecord
100
AcDbLinetypeTableRecord
  2
ByLayer
 70
0
  3

 72
65
 73
0
 40
0.0
  0
LTYPE
  5
26
330
2
100
AcDbSymbolTableRecord
100
AcDbLinetypeTableRecord
  2
Continuous
 70
0
  3

 72
65
 73
0
 40
0.0
  0
ENDTAB
  0
TABLE
  2
LAYER
  5
1
330
0
100
AcDbSymbolTable
 70
2
  0
LAYER
  5
27
330
1
100
AcDbSymbolTableRecord
100
AcDbLayerTableRecord
  2
0
 70
0
 62
7
  6
Continuous
370
-3
390
13
347
21
  0
LAYER
  5
28
330
1
100
AcDbSymbolTableRecord
100
AcDbLayerTableRecord
  2
Defpoints
 70
0
 62
7
  6
Continuous
290
0
370
-3
390
13
347
21
  0
ENDTAB
  0
TABLE
  2
STYLE
  5
5
330
0
100
AcDbSymbolTable
 70
1
  0
STYLE
  5
29
330
5
100
AcDbSymbolTableRecord
100
AcDbTextStyleTableRecord
  2
Standard
 70
0
 40
0.0
 41
1.0
 50
0.0
 71
0
 42
2.5
  3
txt
  4

  0
ENDTAB
  0
TABLE
  2
VIEW
  5
7
330
0
100
AcDbSymbolTable
 70
0
  0
ENDTAB
  0
TABLE
  2
UCS
  5
6
330
0
100
AcDbSymbolTable
 70
0
  0
ENDTAB
  0
TABLE
  2
APPID
  5
3
330
0
100
AcDbSymbolTable
 70
3
  0
APPID
  5
2A
330
3
100
AcDbSymbolTableRecord
100
AcDbRegAppTableRecord
  2
ACAD
 70
0
  0
APPID
  5
38
330
3
100
AcDbSymbolTableRecord
100
AcDbRegAppTableRecord
  2
HATCHBACKGROUNDCOLOR
 70
0
  0
APPID
  5
39
330
3
100
AcDbSymbolTableRecord
100
AcDbRegAppTableRecord
  2
EZDXF
 70
0
  0
ENDTAB
  0
TABLE
  2
DIMSTYLE
  5
4
330
0
100
AcDbSymbolTable
 70
1
100
AcDbDimStyleTable
  0
DIMSTYLE
105
2B
330
4
100
AcDbSymbolTableRecord
100
AcDbDimStyleTableRecord
  2
Standard
 70
0
 40
1.0
 41
2.5
 42
0.625
 43
3.75
 44
1.25
 45
0.0
 46
0.0
 47
0.0
 48
0.0
 49
2.5
140
2.5
141
2.5
142
0.0
143
0.03937007874
144
1.0
145
0.0
146
1.0
147
0.625
148
0.0
 69
0
 70
0
 71
0
 72
0
 73
0
 74
0
 75
0
 76
0
 77
1
 78
8
 79
3
170
0
171
3
172
1
173
0
174
0
175
0
176
0
177
0
178
0
179
2
271
2
272
2
273
2
274
3
275
0
276
0
277
2
278
44
279
0
280
0
281
0
282
0
283
0
284
8
285
0
286
0
288
0
289
3
290
0
371
-2
372
-2
  0
ENDTAB
  0
TABLE
  2
BLOCK_RECORD
  5
9
330
0
100
AcDbSymbolTable
 70
2
  0
BLOCK_RECORD
  5
17
330
9
100
AcDbSymbolTableRecord
100
AcDbBlockTableRecord
  2
*Model_Space
340
1A
 70
0
280
1
281
0
  0
BLOCK_RECORD
  5
1B
330
9
100
AcDbSymbolTableRecord
100
AcDbBlockTableRecord
  2
*Paper_Space
340
1E
 70
0
280
1
281
0
  0
ENDTAB
  0
ENDSEC
  0
SECTION
  2
BLOCKS
  0
BLOCK
  5
18
330
17
100
AcDbEntity
  8
0
100
AcDbBlockBegin
  2
*Model_Space
 70
0
 10
0.0
 20
0.0
 30
0.0
  3
*Model_Space
  1

  0
ENDBLK
  5
19
330
17
100
AcDbEntity
  8
0
100
AcDbBlockEnd
  0
BLOCK
  5
1C
330
1B
100
AcDbEntity
  8
0
100
AcDbBlockBegin
  2
*Paper_Space
 70
0
 10
0.0
 20
0.0
 30
0.0
  3
*Paper_Space
  1

  0
ENDBLK
  5
1D
330
1B
100
AcDbEntity
  8
0
100
AcDbBlockEnd
  0
ENDSEC
  0
SECTION
  2
ENTITIES
  0
LWPOLYLINE
  5
2F
330
17
100
AcDbEntity
  8
0
100
AcDbPolyline
 90
51
 70
0
 10
-8.299999999999999
 20
12.0
 10
-8.299999999999999
 20
11.86
 10
-8.299999999999999
 20
11.719999999999999
 10
-8.299999999999999
 20
11.58
 10
-8.299999999999999
 20
11.44
 10
-8.299999999999999
 20
11.3
 10
-8.299999999999999
 20
11.16
 10
-8.299999999999999
 20
11.02
 10
-8.299999999999999
 20
10.879999999999999
 10
-8.299999999999999
 20
10.74
 10
-8.299999999999999
 20
10.6
 10
-8.299999999999999
 20
10.46
 10
-8.299999999999999
 20
10.32
 10
-8.299999999999999
 20
10.18
 10
-8.299999999999999
 20
10.04
 10
-8.299999999999999
 20
9.9
 10
-8.299999999999999
 20
9.76
 10
-8.299999999999999
 20
9.620000000000001
 10
-8.299999999999999
 20
9.48
 10
-8.299999999999999
 20
9.34
 10
-8.299999999999999
 20
9.2
 10
-8.299999999999999
 20
9.06
 10
-8.299999999999999
 20
8.92
 10
-8.299999999999999
 20
8.78
 10
-8.299999999999999
 20
8.64
 10
-8.3
 20
8.5
 10
-8.3
 20
8.36
 10
-8.3
 20
8.22
 10
-8.3
 20
8.08
 10
-8.3
 20
7.94
 10
-8.3
 20
7.8
 10
-8.3
 20
7.66
 10
-8.3
 20
7.52
 10
-8.3
 20
7.38
 10
-8.3
 20
7.24
 10
-8.3
 20
7.1
 10
-8.3
 20
6.96
 10
-8.3
 20
6.82
 10
-8.3
 20
6.68
 10
-8.3
 20
6.54
 10
-8.3
 20
6.4
 10
-8.3
 20
6.26
 10
-8.3
 20
6.12
 10
-8.3
 20
5.98
 10
-8.3
 20
5.84
 10
-8.3
 20
5.7
 10
-8.3
 20
5.56
 10
-8.3
 20
5.42
 10
-8.3
 20
5.28
 10
-8.3
 20
5.14
 10
-8.3
 20
5.0
  0
LWPOLYLINE
  5
30
330
17
100
AcDbEntity
  8
0
100
AcDbPolyline
 90
51
 70
0
 10
-22.3
 20
1.5845103007450228e-15
 10
-20.908
 20
1.485602751927217e-15
 10
-19.516000000000002
 20
1.3866952031094111e-15
 10
-18.124000000000002
 20
1.2877876542916053e-15
 10
-16.732
 20
1.1888801054737992e-15
 10
-15.34
 20
1.0899725566559934e-15
 10
-13.948000000000002
 20
9.910650078381875e-16
 10
-12.556000000000003
 20
8.921574590203816e-16
 10
-11.164000000000001
 20
7.932499102025757e-16
 10
-9.772000000000002
 20
6.943423613847698e-16
 10
-8.38
 20
5.954348125669639e-16
 10
-6.988000000000003
 20
4.965272637491581e-16
 10
-5.596000000000004
 20
3.976197149313522e-16
 10
-4.204000000000001
 20
2.987121661135461e-16
 10
-2.8120000000000047
 20
1.9980461729574044e-16
 10
-1.4200000000000017
 20
1.0089706847793432e-16
 10
-0.028000000000002245
 20
1.9895196601284394e-18
 10
1.3639999999999972
 20
-9.691802915767744e-17
 10
2.7559999999999967
 20
-1.958255779754833e-16
 10
4.147999999999996
 20
-2.947331267932892e-16
 10
5.539999999999999
 20
-3.936406756110953e-16
 10
6.931999999999999
 20
-4.925482244289012e-16
 10
8.323999999999995
 20
-5.914557732467068e-16
 10
9.715999999999998
 20
-6.903633220645129e-16
 10
11.107999999999993
 20
-7.892708708823186e-16
 10
12.499999999999996
 20
-8.881784197001247e-16
 10
13.892
 20
-9.870859685179309e-16
 10
15.283999999999995
 20
-1.0859935173357364e-15
 10
16.67599999999999
 20
-1.184901066153542e-15
 10
18.067999999999994
 20
-1.2838086149713483e-15
 10
19.459999999999997
 20
-1.3827161637891543e-15
 10
20.852
 20
-1.4816237126069604e-15
 10
22.243999999999996
 20
-1.580531261424766e-15
 10
23.635999999999992
 20
-1.6794388102425717e-15
 10
25.027999999999995
 20
-1.778346359060378e-15
 10
26.419999999999998
 20
-1.877253907878184e-15
 10
27.811999999999994
 20
-1.9761614566959897e-15
 10
29.203999999999997
 20
-2.0750690055137956e-15
 10
30.595999999999993
 20
-2.1739765543316014e-15
 10
31.98799999999999
 20
-2.272884103149407e-15
 10
33.379999999999995
 20
-2.371791651967213e-15
 10
34.77199999999999
 20
-2.470699200785019e-15
 10
36.164
 20
-2.5696067496028256e-15
 10
37.556
 20
-2.668514298420631e-15
 10
38.94799999999999
 20
-2.767421847238437e-15
 10
40.33999999999999
 20
-2.8663293960562424e-15
 10
41.732
 20
-2.965236944874049e-15
 10
43.123999999999995
 20
-3.0641444936918546e-15
 10
44.51599999999999
 20
-3.1630520425096604e-15
 10
45.908
 20
-3.261959591327467e-15
 10
47.3
 20
-3.3608671401452725e-15
  0
LWPOLYLINE
  5
31
330
17
100
AcDbEntity
  8
0
100
AcDbPolyline
 90
51
 70
0
 10
47.3
 20
-3.36086714014527e-15
 10
47.3
 20
0.09999999999999672
 10
47.3
 20
0.1999999999999968
 10
47.3
 20
0.2999999999999968
 10
47.3
 20
0.3999999999999969
 10
47.3
 20
0.49999999999999695
 10
47.3
 20
0.5999999999999971
 10
47.3
 20
0.6999999999999973
 10
47.3
 20
0.7999999999999973
 10
47.3
 20
0.8999999999999972
 10
47.3
 20
0.9999999999999973
 10
47.3
 20
1.0999999999999974
 10
47.3
 20
1.1999999999999975
 10
47.3
 20
1.2999999999999976
 10
47.3
 20
1.399999999999998
 10
47.3
 20
1.4999999999999978
 10
47.3
 20
1.5999999999999979
 10
47.3
 20
1.6999999999999977
 10
47.3
 20
1.7999999999999978
 10
47.3
 20
1.8999999999999981
 10
47.3
 20
1.999999999999998
 10
47.3
 20
2.099999999999998
 10
47.3
 20
2.199999999999998
 10
47.3
 20
2.299999999999998
 10
47.3
 20
2.399999999999998
 10
47.3
 20
2.4999999999999982
 10
47.3
 20
2.5999999999999983
 10
47.3
 20
2.699999999999998
 10
47.3
 20
2.799999999999999
 10
47.3
 20
2.8999999999999986
 10
47.3
 20
2.9999999999999987
 10
47.3
 20
3.0999999999999988
 10
47.3
 20
3.199999999999999
 10
47.3
 20
3.299999999999999
 10
47.3
 20
3.3999999999999986
 10
47.3
 20
3.4999999999999987
 10
47.3
 20
3.5999999999999988
 10
47.3
 20
3.6999999999999993
 10
47.3
 20
3.7999999999999994
 10
47.3
 20
3.8999999999999995
 10
47.3
 20
3.999999999999999
 10
47.3
 20
4.1
 10
47.3
 20
4.199999999999999
 10
47.3
 20
4.299999999999999
 10
47.3
 20
4.3999999999999995
 10
47.3
 20
4.5
 10
47.3
 20
4.6
 10
47.3
 20
4.7
 10
47.3
 20
4.8
 10
47.3
 20
4.8999999999999995
 10
47.3
 20
5.0
  0
LWPOLYLINE
  5
32
330
17
100
AcDbEntity
  8
0
100
AcDbPolyline
 90
51
 70
0
 10
-8.299999999999997
 20
5.0
 10
-7.733999999999995
 20
5.0
 10
-7.167999999999999
 20
5.0
 10
-6.601999999999997
 20
5.0
 10
-6.035999999999998
 20
5.0
 10
-5.469999999999999
 20
5.0
 10
-4.903999999999996
 20
5.0
 10
-4.337999999999997
 20
5.0
 10
-3.7719999999999985
 20
5.0
 10
-3.205999999999996
 20
5.0
 10
-2.639999999999997
 20
5.0
 10
-2.073999999999998
 20
5.0
 10
-1.5079999999999991
 20
5.0
 10
-0.9419999999999966
 20
5.0
 10
-0.37599999999999767
 20
5.0
 10
0.19000000000000128
 20
5.0
 10
0.7560000000000002
 20
5.0
 10
1.3220000000000027
 20
5.0
 10
1.8880000000000017
 20
5.0
 10
2.4540000000000006
 20
5.0
 10
3.020000000000003
 20
5.0
 10
3.586000000000002
 20
5.0
 10
4.152000000000001
 20
5.0
 10
4.7180000000000035
 20
5.0
 10
5.283999999999999
 20
5.0
 10
5.850000000000001
 20
5.0
 10
6.416000000000004
 20
5.0
 10
6.981999999999999
 20
5.0
 10
7.548000000000002
 20
5.0
 10
8.114
 20
5.0
 10
8.68
 20
5.0
 10
9.246000000000002
 20
5.0
 10
9.812000000000001
 20
5.0
 10
10.378
 20
5.0
 10
10.944000000000003
 20
5.0
 10
11.510000000000002
 20
5.0
 10
12.076
 20
5.0
 10
12.642
 20
5.0
 10
13.207999999999998
 20
5.0
 10
13.774000000000001
 20
5.0
 10
14.340000000000003
 20
5.0
 10
14.906000000000002
 20
5.0
 10
15.472000000000001
 20
5.0
 10
16.038
 20
5.0
 10
16.604
 20
5.0
 10
17.169999999999998
 20
5.0
 10
17.736
 20
5.0
 10
18.302
 20
5.0
 10
18.868
 20
5.0
 10
19.433999999999997
 20
5.0
 10
20.0
 20
5.0
  0
LWPOLYLINE
  5
33
330
17
100
AcDbEntity
  8
0
100
AcDbPolyline
 90
51
 70
0
 10
47.3
 20
5.0
 10
46.188
 20
5.0
 10
45.07599999999999
 20
5.0
 10
43.964
 20
5.0
 10
42.852
 20
5.0
 10
41.739999999999995
 20
5.0
 10
40.628
 20
5.0
 10
39.516
 20
5.0
 10
38.403999999999996
 20
5.0
 10
37.292
 20
5.0
 10
36.18
 20
5.0
 10
35.068
 20
5.0
 10
33.955999999999996
 20
5.0
 10
32.843999999999994
 20
5.0
 10
31.732
 20
5.0
 10
30.62
 20
5.0
 10
29.508
 20
5.0
 10
28.395999999999997
 20
5.0
 10
27.284
 20
5.0
 10
26.172
 20
5.0
 10
25.06
 20
5.0
 10
23.948
 20
5.0
 10
22.836000000000002
 20
5.0
 10
21.723999999999997
 20
5.0
 10
20.612
 20
5.0
 10
19.5
 20
5.0
 10
18.387999999999998
 20
5.0
 10
17.276
 20
5.0
 10
16.164
 20
5.0
 10
15.052
 20
5.0
 10
13.940000000000005
 20
5.0
 10
12.827999999999996
 20
5.0
 10
11.716000000000001
 20
5.0
 10
10.604
 20
5.0
 10
9.491999999999997
 20
5.0
 10
8.380000000000003
 20
5.0
 10
7.268000000000001
 20
5.0
 10
6.155999999999999
 20
5.0
 10
5.044000000000004
 20
5.0
 10
3.932000000000002
 20
5.0
 10
2.8200000000000003
 20
5.0
 10
1.7079999999999984
 20
5.0
 10
0.5960000000000036
 20
5.0
 10
-0.5159999999999982
 20
5.0
 10
-1.627999999999993
 20
5.0
 10
-2.739999999999995
 20
5.0
 10
-3.852000000000004
 20
5.0
 10
-4.963999999999999
 20
5.0
 10
-6.0760000000000005
 20
5.0
 10
-7.187999999999995
 20
5.0
 10
-8.299999999999997
 20
5.0
  0
LWPOLYLINE
  5
34
330
17
100
AcDbEntity
  8
0
100
AcDbPolyline
 90
51
 70
0
 10
-8.3
 20
5.0
 10
-8.3
 20
5.14
 10
-8.3
 20
5.28
 10
-8.3
 20
5.42
 10
-8.3
 20
5.5600000000000005
 10
-8.3
 20
5.7
 10
-8.3
 20
5.84
 10
-8.3
 20
5.98
 10
-8.3
 20
6.12
 10
-8.3
 20
6.26
 10
-8.3
 20
6.4
 10
-8.3
 20
6.54
 10
-8.3
 20
6.68
 10
-8.3
 20
6.82
 10
-8.3
 20
6.96
 10
-8.3
 20
7.1
 10
-8.3
 20
7.24
 10
-8.3
 20
7.38
 10
-8.3
 20
7.52
 10
-8.3
 20
7.66
 10
-8.3
 20
7.8
 10
-8.3
 20
7.9399999999999995
 10
-8.3
 20
8.08
 10
-8.3
 20
8.22
 10
-8.3
 20
8.36
 10
-8.3
 20
8.5
 10
-8.299999999999999
 20
8.64
 10
-8.299999999999999
 20
8.78
 10
-8.299999999999999
 20
8.92
 10
-8.299999999999999
 20
9.059999999999999
 10
-8.299999999999999
 20
9.2
 10
-8.299999999999999
 20
9.34
 10
-8.299999999999999
 20
9.48
 10
-8.299999999999999
 20
9.620000000000001
 10
-8.299999999999999
 20
9.76
 10
-8.299999999999999
 20
9.9
 10
-8.299999999999999
 20
10.04
 10
-8.299999999999999
 20
10.18
 10
-8.299999999999999
 20
10.32
 10
-8.299999999999999
 20
10.46
 10
-8.299999999999999
 20
10.6
 10
-8.299999999999999
 20
10.74
 10
-8.299999999999999
 20
10.879999999999999
 10
-8.299999999999999
 20
11.02
 10
-8.299999999999999
 20
11.16
 10
-8.299999999999999
 20
11.3
 10
-8.299999999999999
 20
11.440000000000001
 10
-8.299999999999999
 20
11.58
 10
-8.299999999999999
 20
11.719999999999999
 10
-8.299999999999999
 20
11.86
 10
-8.299999999999999
 20
12.0
  0
LWPOLYLINE
  5
35
330
17
100
AcDbEntity
  8
0
100
AcDbPolyline
 90
51
 70
0
 10
-8.3
 20
11.999999999999998
 10
-8.3138129010021
 20
12.439533636705189
 10
-8.355197090798654
 20
12.877332634950129
 10
-8.423989244899179
 20
13.31166920210007
 10
-8.519917872099583
 20
13.740829210153985
 10
-8.642604385933925
 20
14.16311896062463
 10
-8.79156459878224
 20
14.576871868792741
 10
-8.966210632737864
 20
14.980455040955508
 10
-9.165853239692954
 20
15.372275718712004
 10
-9.389704521485896
 20
15.750787564852978
 10
-9.636881039375368
 20
16.11449676604731
 10
-9.906407300569473
 20
16.461967928240824
 10
-10.19721960805012
 20
16.79182974150082
 10
-10.508170258499177
 20
17.102780391949878
 10
-10.838032071759173
 20
17.393592699430528
 10
-11.185503233952687
 20
17.66311896062463
 10
-11.549212435147021
 20
17.910295478514104
 10
-11.927724281287993
 20
18.134146760307047
 10
-12.319544959044489
 20
18.333789367262135
 10
-12.723128131207256
 20
18.50843540121776
 10
-13.136881039375368
 20
18.657395614066075
 10
-13.559170789846013
 20
18.780082127900418
 10
-13.988330797899927
 20
18.876010755100822
 10
-14.422667365049868
 20
18.944802909201343
 10
-14.860466363294808
 20
18.986187098997902
 10
-15.299999999999999
 20
19.0
 10
-15.73953363670519
 20
18.986187098997902
 10
-16.17733263495013
 20
18.944802909201346
 10
-16.61166920210007
 20
18.876010755100822
 10
-17.040829210153984
 20
18.780082127900418
 10
-17.46311896062463
 20
18.657395614066075
 10
-17.87687186879274
 20
18.50843540121776
 10
-18.28045504095551
 20
18.333789367262135
 10
-18.67227571871201
 20
18.134146760307043
 10
-19.05078756485298
 20
17.910295478514104
 10
-19.41449676604731
 20
17.663118960624633
 10
-19.761967928240825
 20
17.393592699430528
 10
-20.09182974150082
 20
17.10278039194988
 10
-20.40278039194988
 20
16.791829741500823
 10
-20.693592699430525
 20
16.461967928240828
 10
-20.96311896062463
 20
16.114496766047314
 10
-21.210295478514105
 20
15.75078756485298
 10
-21.434146760307044
 20
15.372275718712007
 10
-21.633789367262136
 20
14.980455040955512
 10
-21.80843540121776
 20
14.576871868792745
 10
-21.957395614066076
 20
14.163118960624633
 10
-22.08008212790042
 20
13.740829210153988
 10
-22.17601075510082
 20
13.311669202100074
 10
-22.244802909201347
 20
12.877332634950132
 10
-22.2861870989979
 20
12.439533636705193
 10
-22.3
 20
12.000000000000002
  0
LWPOLYLINE
  5
36
330
17
100
AcDbEntity
  8
0
100
AcDbPolyline
 90
51
 70
0
 10
-22.3
 20
12.0
 10
-22.3
 20
11.76
 10
-22.3
 20
11.52
 10
-22.3
 20
11.28
 10
-22.3
 20
11.04
 10
-22.3
 20
10.8
 10
-22.3
 20
10.56
 10
-22.3
 20
10.32
 10
-22.3
 20
10.08
 10
-22.3
 20
9.84
 10
-22.3
 20
9.6
 10
-22.3
 20
9.36
 10
-22.3
 20
9.120000000000001
 10
-22.3
 20
8.879999999999999
 10
-22.3
 20
8.64
 10
-22.3
 20
8.4
 10
-22.3
 20
8.16
 10
-22.3
 20
7.92
 10
-22.3
 20
7.68
 10
-22.3
 20
7.44
 10
-22.3
 20
7.2
 10
-22.3
 20
6.96
 10
-22.3
 20
6.72
 10
-22.3
 20
6.48
 10
-22.3
 20
6.24
 10
-22.3
 20
6.0
 10
-22.3
 20
5.76
 10
-22.3
 20
5.52
 10
-22.3
 20
5.28
 10
-22.3
 20
5.04
 10
-22.3
 20
4.8
 10
-22.3
 20
4.56
 10
-22.3
 20
4.32
 10
-22.3
 20
4.08
 10
-22.3
 20
3.84
 10
-22.3
 20
3.5999999999999996
 10
-22.3
 20
3.3599999999999994
 10
-22.3
 20
3.119999999999999
 10
-22.3
 20
2.880000000000001
 10
-22.3
 20
2.6400000000000006
 10
-22.3
 20
2.4000000000000004
 10
-22.3
 20
2.16
 10
-22.3
 20
1.92
 10
-22.3
 20
1.6799999999999997
 10
-22.3
 20
1.4399999999999995
 10
-22.3
 20
1.1999999999999993
 10
-22.3
 20
0.9600000000000009
 10
-22.3
 20
0.7200000000000006
 10
-22.3
 20
0.4800000000000004
 10
-22.3
 20
0.2400000000000002
 10
-22.3
 20
0.0
  0
LWPOLYLINE
  5
37
330
17
100
AcDbEntity
  8
0
100
AcDbPolyline
 90
51
 70
0
 10
-15.3
 20
16.0
 10
-15.801332934257218
 20
15.968458805257912
 10
-16.29475954865942
 20
15.874332644514524
 10
-16.77249821073871
 20
15.719105943553005
 10
-17.22701469640686
 20
15.505226720175454
 10
-17.651141009169894
 20
15.23606797749979
 10
-18.038188423714754
 20
14.915874509685647
 10
-18.382052971103157
 20
14.549695958994759
 10
-18.677311702008062
 20
14.143307179915986
 10
-18.919308209864077
 20
13.703117166260292
 10
-19.104226065180615
 20
13.23606797749979
 10
-19.229149002914756
 20
12.7495252583429
 10
-19.292106913713088
 20
12.251162078117254
 10
-19.292106913713088
 20
11.748837921882746
 10
-19.229149002914756
 20
11.2504747416571
 10
-19.104226065180615
 20
10.763932022500212
 10
-18.919308209864077
 20
10.296882833739708
 10
-18.677311702008062
 20
9.856692820084012
 10
-18.382052971103157
 20
9.450304041005241
 10
-18.038188423714757
 20
9.084125490314355
 10
-17.651141009169894
 20
8.76393202250021
 10
-17.22701469640686
 20
8.494773279824546
 10
-16.772498210738714
 20
8.280894056446995
 10
-16.29475954865942
 20
8.125667355485476
 10
-15.80133293425722
 20
8.03154119474209
 10
-15.3
 20
8.0
 10
-14.798667065742784
 20
8.031541194742088
 10
-14.305240451340582
 20
8.125667355485476
 10
-13.827501789261289
 20
8.280894056446995
 10
-13.37298530359314
 20
8.494773279824546
 10
-12.94885899083011
 20
8.763932022500208
 10
-12.561811576285248
 20
9.084125490314353
 10
-12.217947028896843
 20
9.450304041005243
 10
-11.92268829799194
 20
9.856692820084014
 10
-11.68069179013592
 20
10.296882833739712
 10
-11.495773934819386
 20
10.76393202250021
 10
-11.370850997085245
 20
11.2504747416571
 10
-11.307893086286914
 20
11.748837921882748
 10
-11.307893086286914
 20
12.251162078117252
 10
-11.370850997085245
 20
12.749525258342898
 10
-11.495773934819386
 20
13.23606797749979
 10
-11.68069179013592
 20
13.703117166260288
 10
-11.922688297991941
 20
14.143307179915986
 10
-12.217947028896843
 20
14.549695958994757
 10
-12.561811576285244
 20
14.915874509685645
 10
-12.948858990830107
 20
15.23606797749979
 10
-13.372985303593136
 20
15.505226720175452
 10
-13.827501789261289
 20
15.719105943553005
 10
-14.305240451340579
 20
15.874332644514524
 10
-14.798667065742782
 20
15.96845880525791
 10
-15.299999999999999
 20
16.0
  0
ENDSEC
  0
SECTION
  2
OBJECTS
  0
DICTIONARY
  5
A
330
0
100
AcDbDictionary
280
0
281
1
  3
ACAD_COLOR
350
B
  3
ACAD_GROUP
350
C
  3
ACAD_LAYOUT
350
D
  3
ACAD_MATERIAL
350
E
  3
ACAD_MLEADERSTYLE
350
F
  3
ACAD_MLINESTYLE
350
10
  3
ACAD_PLOTSETTINGS
350
11
  3
ACAD_PLOTSTYLENAME
350
12
  3
ACAD_SCALELIST
350
14
  3
ACAD_TABLESTYLE
350
15
  3
ACAD_VISUALSTYLE
350
16
  3
EZDXF_META
350
2D
  0
DICTIONARY
  5
B
330
A
100
AcDbDictionary
280
0
281
1
  0
DICTIONARY
  5
C
330
A
100
AcDbDictionary
280
0
281
1
  0
DICTIONARY
  5
D
330
A
100
AcDbDictionary
280
0
281
1
  3
Model
350
1A
  3
Layout1
350
1E
  0
DICTIONARY
  5
E
330
A
100
AcDbDictionary
280
0
281
1
  3
ByBlock
350
1F
  3
ByLayer
350
20
  3
Global
350
21
  0
DICTIONARY
  5
F
330
A
100
AcDbDictionary
280
0
281
1
  3
Standard
350
2C
  0
DICTIONARY
  5
10
330
A
100
AcDbDictionary
280
0
281
1
  3
Standard
350
22
  0
DICTIONARY
  5
11
330
A
100
AcDbDictionary
280
0
281
1
  0
ACDBDICTIONARYWDFLT
  5
12
330
A
100
AcDbDictionary
280
0
281
1
  3
Normal
350
13
100
AcDbDictionaryWithDefault
340
13
  0
ACDBPLACEHOLDER
  5
13
330
12
  0
DICTIONARY
  5
14
330
A
100
AcDbDictionary
280
0
281
1
  0
DICTIONARY
  5
15
330
A
100
AcDbDictionary
280
0
281
1
  0
DICTIONARY
  5
16
330
A
100
AcDbDictionary
280
0
281
1
  0
LAYOUT
  5
1A
330
D
100
AcDbPlotSettings
  1

  2
Adobe PDF
  4
A3
  6

 40
7.5
 41
20.0
 42
7.5
 43
20.0
 44
420.0
 45
297.0
 46
0.0
 47
0.0
 48
0.0
 49
0.0
140
0.0
141
0.0
142
1.0
143
1.0
 70
1024
 72
1
 73
0
 74
5
  7

 75
16
 76
0
 77
2
 78
300
147
1.0
148
0.0
149
0.0
100
AcDbLayout
  1
Model
 70
1
 71
0
 10
0.0
 20
0.0
 11
420.0
 21
297.0
 12
0.0
 22
0.0
 32
0.0
 14
1e+20
 24
1e+20
 34
1e+20
 15
-1e+20
 25
-1e+20
 35
-1e+20
146
0.0
 13
0.0
 23
0.0
 33
0.0
 16
1.0
 26
0.0
 36
0.0
 17
0.0
 27
1.0
 37
0.0
 76
1
330
17
  0
LAYOUT
  5
1E
330
D
100
AcDbPlotSettings
  1

  2
Adobe PDF
  4
A3
  6

 40
7.5
 41
20.0
 42
7.5
 43
20.0
 44
420.0
 45
297.0
 46
0.0
 47
0.0
 48
0.0
 49
0.0
140
0.0
141
0.0
142
1.0
143
1.0
 70
0
 72
1
 73
0
 74
5
  7

 75
16
 76
0
 77
2
 78
300
147
1.0
148
0.0
149
0.0
100
AcDbLayout
  1
Layout1
 70
1
 71
1
 10
0.0
 20
0.0
 11
420.0
 21
297.0
 12
0.0
 22
0.0
 32
0.0
 14
1e+20
 24
1e+20
 34
1e+20
 15
-1e+20
 25
-1e+20
 35
-1e+20
146
0.0
 13
0.0
 23
0.0
 33
0.0
 16
1.0
 26
0.0
 36
0.0
 17
0.0
 27
1.0
 37
0.0
 76
1
330
1B
  0
MATERIAL
  5
1F
102
{ACAD_REACTORS
330
E
102
}
330
E
100
AcDbMaterial
  1
ByBlock
  2

 70
0
 40
1.0
 71
1
 41
1.0
 91
-1023410177
 42
1.0
 72
1
  3

 73
1
 74
1
 75
1
 44
0.5
 73
0
 45
1.0
 46
1.0
 77
1
  4

 78
1
 79
1
170
1
 48
1.0
171
1
  6

172
1
173
1
174
1
140
1.0
141
1.0
175
1
  7

176
1
177
1
178
1
143
1.0
179
1
  8

270
1
271
1
272
1
145
1.0
146
1.0
273
1
  9

274
1
275
1
276
1
 42
1.0
 72
1
  3

 73
1
 74
1
 75
1
 94
63
  0
MATERIAL
  5
20
102
{ACAD_REACTORS
330
E
102
}
330
E
100
AcDbMaterial
  1
ByLayer
  2

 70
0
 40
1.0
 71
1
 41
1.0
 91
-1023410177
 42
1.0
 72
1
  3

 73
1
 74
1
 75
1
 44
0.5
 73
0
 45
1.0
 46
1.0
 77
1
  4

 78
1
 79
1
170
1
 48
1.0
171
1
  6

172
1
173
1
174
1
140
1.0
141
1.0
175
1
  7

176
1
177
1
178
1
143
1.0
179
1
  8

270
1
271
1
272
1
145
1.0
146
1.0
273
1
  9

274
1
275
1
276
1
 42
1.0
 72
1
  3

 73
1
 74
1
 75
1
 94
63
  0
MATERIAL
  5
21
102
{ACAD_REACTORS
330
E
102
}
330
E
100
AcDbMaterial
  1
Global
  2

 70
0
 40
1.0
 71
1
 41
1.0
 91
-1023410177
 42
1.0
 72
1
  3

 73
1
 74
1
 75
1
 44
0.5
 73
0
 45
1.0
 46
1.0
 77
1
  4

 78
1
 79
1
170
1
 48
1.0
171
1
  6

172
1
173
1
174
1
140
1.0
141
1.0
175
1
  7

176
1
177
1
178
1
143
1.0
179
1
  8

270
1
271
1
272
1
145
1.0
146
1.0
273
1
  9

274
1
275
1
276
1
 42
1.0
 72
1
  3

 73
1
 74
1
 75
1
 94
63
  0
MLINESTYLE
  5
22
102
{ACAD_REACTORS
330
10
102
}
330
10
100
AcDbMlineStyle
  2
Standard
 70
0
  3

 62
256
 51
90.0
 52
90.0
 71
2
 49
0.5
 62
256
  6
BYLAYER
 49
-0.5
 62
256
  6
BYLAYER
  0
MLEADERSTYLE
  5
2C
102
{ACAD_REACTORS
330
F
102
}
330
F
100
AcDbMLeaderStyle
179
2
170
2
171
1
172
0
 90
2
 40
0.0
 41
0.0
173
1
 91
-1056964608
 92
-2
290
1
 42
2.0
291
1
 43
8.0
  3
Standard
 44
4.0
300

342
29
174
1
175
1
176
0
178
1
 93
-1056964608
 45
4.0
292
0
297
0
 46
4.0
 94
-1056964608
 47
1.0
 49
1.0
140
1.0
294
1
141
0.0
177
0
142
1.0
295
0
296
0
143
3.75
271
0
272
9
273
9
  0
DICTIONARY
  5
2D
330
A
100
AcDbDictionary
281
1
  3
CREATED_BY_EZDXF
350
2E
  3
WRITTEN_BY_EZDXF
350
3A
  0
DICTIONARYVAR
  5
2E
330
2D
100
DictionaryVariables
280
0
  1
1.0.3 @ 2025-05-29T09:38:58.876730+00:00
  0
DICTIONARYVAR
  5
3A
330
2D
100
DictionaryVariables
280
0
  1
1.0.3 @ 2025-05-29T09:38:58.879249+00:00
  0
ENDSEC
  0
EOF
