  0
SECTION
  2
HEADER
  9
$ACADVER
  1
AC1027
  9
$ACADMAINTVER
 70
105
  9
$DWGCODEPAGE
  3
ANSI_1252
  9
$LASTSAVEDBY
  1
ezdxf
  9
$REQUIREDVERSIONS
160
0
  9
$INSBASE
 10
0.0
 20
0.0
 30
0.0
  9
$EXTMIN
 10
1e+20
 20
1e+20
 30
1e+20
  9
$EXTMAX
 10
-1e+20
 20
-1e+20
 30
-1e+20
  9
$LIMMIN
 10
0.0
 20
0.0
  9
$LIMMAX
 10
420.0
 20
297.0
  9
$ORTHOMODE
 70
0
  9
$REGENMODE
 70
1
  9
$FILLMODE
 70
1
  9
$QTEXTMODE
 70
0
  9
$MIRRTEXT
 70
1
  9
$LTSCALE
 40
1.0
  9
$ATTMODE
 70
1
  9
$TEXTSIZE
 40
2.5
  9
$TRACEWID
 40
1.0
  9
$TEXTSTYLE
  7
Standard
  9
$CLAYER
  8
0
  9
$CELTYPE
  6
ByLayer
  9
$CECOLOR
 62
256
  9
$CELTSCALE
 40
1.0
  9
$DISPSILH
 70
0
  9
$DIMSCALE
 40
1.0
  9
$DIMASZ
 40
2.5
  9
$DIMEXO
 40
0.625
  9
$DIMDLI
 40
3.75
  9
$DIMRND
 40
0.0
  9
$DIMDLE
 40
0.0
  9
$DIMEXE
 40
1.25
  9
$DIMTP
 40
0.0
  9
$DIMTM
 40
0.0
  9
$DIMTXT
 40
2.5
  9
$DIMCEN
 40
2.5
  9
$DIMTSZ
 40
0.0
  9
$DIMTOL
 70
0
  9
$DIMLIM
 70
0
  9
$DIMTIH
 70
0
  9
$DIMTOH
 70
0
  9
$DIMSE1
 70
0
  9
$DIMSE2
 70
0
  9
$DIMTAD
 70
1
  9
$DIMZIN
 70
8
  9
$DIMBLK
  1

  9
$DIMASO
 70
1
  9
$DIMSHO
 70
1
  9
$DIMPOST
  1

  9
$DIMAPOST
  1

  9
$DIMALT
 70
0
  9
$DIMALTD
 70
3
  9
$DIMALTF
 40
0.03937007874
  9
$DIMLFAC
 40
1.0
  9
$DIMTOFL
 70
1
  9
$DIMTVP
 40
0.0
  9
$DIMTIX
 70
0
  9
$DIMSOXD
 70
0
  9
$DIMSAH
 70
0
  9
$DIMBLK1
  1

  9
$DIMBLK2
  1

  9
$DIMSTYLE
  2
ISO-25
  9
$DIMCLRD
 70
0
  9
$DIMCLRE
 70
0
  9
$DIMCLRT
 70
0
  9
$DIMTFAC
 40
1.0
  9
$DIMGAP
 40
0.625
  9
$DIMJUST
 70
0
  9
$DIMSD1
 70
0
  9
$DIMSD2
 70
0
  9
$DIMTOLJ
 70
0
  9
$DIMTZIN
 70
8
  9
$DIMALTZ
 70
0
  9
$DIMALTTZ
 70
0
  9
$DIMUPT
 70
0
  9
$DIMDEC
 70
2
  9
$DIMTDEC
 70
2
  9
$DIMALTU
 70
2
  9
$DIMALTTD
 70
3
  9
$DIMTXSTY
  7
Standard
  9
$DIMAUNIT
 70
0
  9
$DIMADEC
 70
0
  9
$DIMALTRND
 40
0.0
  9
$DIMAZIN
 70
0
  9
$DIMDSEP
 70
44
  9
$DIMATFIT
 70
3
  9
$DIMFRAC
 70
0
  9
$DIMLDRBLK
  1

  9
$DIMLUNIT
 70
2
  9
$DIMLWD
 70
-2
  9
$DIMLWE
 70
-2
  9
$DIMTMOVE
 70
0
  9
$DIMFXL
 40
1.0
  9
$DIMFXLON
 70
0
  9
$DIMJOGANG
 40
0.785398163397
  9
$DIMTFILL
 70
0
  9
$DIMTFILLCLR
 70
0
  9
$DIMARCSYM
 70
0
  9
$DIMLTYPE
  6

  9
$DIMLTEX1
  6

  9
$DIMLTEX2
  6

  9
$DIMTXTDIRECTION
 70
0
  9
$LUNITS
 70
2
  9
$LUPREC
 70
4
  9
$SKETCHINC
 40
1.0
  9
$FILLETRAD
 40
10.0
  9
$AUNITS
 70
0
  9
$AUPREC
 70
2
  9
$MENU
  1
.
  9
$ELEVATION
 40
0.0
  9
$PELEVATION
 40
0.0
  9
$THICKNESS
 40
0.0
  9
$LIMCHECK
 70
0
  9
$CHAMFERA
 40
0.0
  9
$CHAMFERB
 40
0.0
  9
$CHAMFERC
 40
0.0
  9
$CHAMFERD
 40
0.0
  9
$SKPOLY
 70
0
  9
$TDCREATE
 40
2460825.7769907406
  9
$TDUCREATE
 40
2458532.153996898
  9
$TDUPDATE
 40
2460825.7769907406
  9
$TDUUPDATE
 40
2458532.1544311
  9
$TDINDWG
 40
0.0
  9
$TDUSRTIMER
 40
0.0
  9
$USRTIMER
 70
1
  9
$ANGBASE
 50
0.0
  9
$ANGDIR
 70
0
  9
$PDMODE
 70
0
  9
$PDSIZE
 40
0.0
  9
$PLINEWID
 40
0.0
  9
$SPLFRAME
 70
0
  9
$SPLINETYPE
 70
6
  9
$SPLINESEGS
 70
8
  9
$HANDSEED
  5
3C
  9
$SURFTAB1
 70
6
  9
$SURFTAB2
 70
6
  9
$SURFTYPE
 70
6
  9
$SURFU
 70
6
  9
$SURFV
 70
6
  9
$UCSBASE
  2

  9
$UCSNAME
  2

  9
$UCSORG
 10
0.0
 20
0.0
 30
0.0
  9
$UCSXDIR
 10
1.0
 20
0.0
 30
0.0
  9
$UCSYDIR
 10
0.0
 20
1.0
 30
0.0
  9
$UCSORTHOREF
  2

  9
$UCSORTHOVIEW
 70
0
  9
$UCSORGTOP
 10
0.0
 20
0.0
 30
0.0
  9
$UCSORGBOTTOM
 10
0.0
 20
0.0
 30
0.0
  9
$UCSORGLEFT
 10
0.0
 20
0.0
 30
0.0
  9
$UCSORGRIGHT
 10
0.0
 20
0.0
 30
0.0
  9
$UCSORGFRONT
 10
0.0
 20
0.0
 30
0.0
  9
$UCSORGBACK
 10
0.0
 20
0.0
 30
0.0
  9
$PUCSBASE
  2

  9
$PUCSNAME
  2

  9
$PUCSORG
 10
0.0
 20
0.0
 30
0.0
  9
$PUCSXDIR
 10
1.0
 20
0.0
 30
0.0
  9
$PUCSYDIR
 10
0.0
 20
1.0
 30
0.0
  9
$PUCSORTHOREF
  2

  9
$PUCSORTHOVIEW
 70
0
  9
$PUCSORGTOP
 10
0.0
 20
0.0
 30
0.0
  9
$PUCSORGBOTTOM
 10
0.0
 20
0.0
 30
0.0
  9
$PUCSORGLEFT
 10
0.0
 20
0.0
 30
0.0
  9
$PUCSORGRIGHT
 10
0.0
 20
0.0
 30
0.0
  9
$PUCSORGFRONT
 10
0.0
 20
0.0
 30
0.0
  9
$PUCSORGBACK
 10
0.0
 20
0.0
 30
0.0
  9
$USERI1
 70
0
  9
$USERI2
 70
0
  9
$USERI3
 70
0
  9
$USERI4
 70
0
  9
$USERI5
 70
0
  9
$USERR1
 40
0.0
  9
$USERR2
 40
0.0
  9
$USERR3
 40
0.0
  9
$USERR4
 40
0.0
  9
$USERR5
 40
0.0
  9
$WORLDVIEW
 70
1
  9
$SHADEDGE
 70
3
  9
$SHADEDIF
 70
70
  9
$TILEMODE
 70
1
  9
$MAXACTVP
 70
64
  9
$PINSBASE
 10
0.0
 20
0.0
 30
0.0
  9
$PLIMCHECK
 70
0
  9
$PEXTMIN
 10
1e+20
 20
1e+20
 30
1e+20
  9
$PEXTMAX
 10
-1e+20
 20
-1e+20
 30
-1e+20
  9
$PLIMMIN
 10
0.0
 20
0.0
  9
$PLIMMAX
 10
420.0
 20
297.0
  9
$UNITMODE
 70
0
  9
$VISRETAIN
 70
1
  9
$PLINEGEN
 70
0
  9
$PSLTSCALE
 70
1
  9
$TREEDEPTH
 70
3020
  9
$CMLSTYLE
  2
Standard
  9
$CMLJUST
 70
0
  9
$CMLSCALE
 40
20.0
  9
$PROXYGRAPHICS
 70
1
  9
$MEASUREMENT
 70
1
  9
$CELWEIGHT
370
-1
  9
$ENDCAPS
280
0
  9
$JOINSTYLE
280
0
  9
$LWDISPLAY
290
0
  9
$INSUNITS
 70
6
  9
$HYPERLINKBASE
  1

  9
$STYLESHEET
  1

  9
$XEDIT
290
1
  9
$CEPSNTYPE
380
0
  9
$PSTYLEMODE
290
1
  9
$FINGERPRINTGUID
  2
{4137A4EB-C03D-4808-BB31-061D9346B121}
  9
$VERSIONGUID
  2
{0909025E-F089-434F-AD7C-32DF5D424EFE}
  9
$EXTNAMES
290
1
  9
$PSVPSCALE
 40
0.0
  9
$OLESTARTUP
290
0
  9
$SORTENTS
280
127
  9
$INDEXCTL
280
0
  9
$HIDETEXT
280
1
  9
$XCLIPFRAME
280
0
  9
$HALOGAP
280
0
  9
$OBSCOLOR
 70
257
  9
$OBSLTYPE
280
0
  9
$INTERSECTIONDISPLAY
280
0
  9
$INTERSECTIONCOLOR
 70
257
  9
$DIMASSOC
280
2
  9
$PROJECTNAME
  1

  9
$CAMERADISPLAY
290
0
  9
$LENSLENGTH
 40
50.0
  9
$CAMERAHEIGHT
 40
0.0
  9
$STEPSPERSEC
 40
24.0
  9
$STEPSIZE
 40
100.0
  9
$3DDWFPREC
 40
2.0
  9
$PSOLWIDTH
 40
0.005
  9
$PSOLHEIGHT
 40
0.08
  9
$LOFTANG1
 40
1.570796326795
  9
$LOFTANG2
 40
1.570796326795
  9
$LOFTMAG1
 40
0.0
  9
$LOFTMAG2
 40
0.0
  9
$LOFTPARAM
 70
7
  9
$LOFTNORMALS
280
1
  9
$LATITUDE
 40
37.795
  9
$LONGITUDE
 40
-122.394
  9
$NORTHDIRECTION
 40
0.0
  9
$TIMEZONE
 70
-8000
  9
$LIGHTGLYPHDISPLAY
280
1
  9
$TILEMODELIGHTSYNCH
280
1
  9
$CMATERIAL
347
20
  9
$SOLIDHIST
280
0
  9
$SHOWHIST
280
1
  9
$DWFFRAME
280
2
  9
$DGNFRAME
280
2
  9
$REALWORLDSCALE
290
1
  9
$INTERFERECOLOR
 62
256
  9
$CSHADOW
280
0
  9
$SHADOWPLANELOCATION
 40
0.0
  0
ENDSEC
  0
SECTION
  2
CLASSES
  0
CLASS
  1
ACDBDICTIONARYWDFLT
  2
AcDbDictionaryWithDefault
  3
ObjectDBX Classes
 90
0
 91
0
280
0
281
0
  0
CLASS
  1
SUN
  2
AcDbSun
  3
SCENEOE
 90
1153
 91
0
280
0
281
0
  0
CLASS
  1
VISUALSTYLE
  2
AcDbVisualStyle
  3
ObjectDBX Classes
 90
4095
 91
0
280
0
281
0
  0
CLASS
  1
MATERIAL
  2
AcDbMaterial
  3
ObjectDBX Classes
 90
1153
 91
0
280
0
281
0
  0
CLASS
  1
SCALE
  2
AcDbScale
  3
ObjectDBX Classes
 90
1153
 91
0
280
0
281
0
  0
CLASS
  1
TABLESTYLE
  2
AcDbTableStyle
  3
ObjectDBX Classes
 90
4095
 91
0
280
0
281
0
  0
CLASS
  1
MLEADERSTYLE
  2
AcDbMLeaderStyle
  3
ACDB_MLEADERSTYLE_CLASS
 90
4095
 91
0
280
0
281
0
  0
CLASS
  1
DICTIONARYVAR
  2
AcDbDictionaryVar
  3
ObjectDBX Classes
 90
0
 91
0
280
0
281
0
  0
CLASS
  1
CELLSTYLEMAP
  2
AcDbCellStyleMap
  3
ObjectDBX Classes
 90
1152
 91
0
280
0
281
0
  0
CLASS
  1
MENTALRAYRENDERSETTINGS
  2
AcDbMentalRayRenderSettings
  3
SCENEOE
 90
1024
 91
0
280
0
281
0
  0
CLASS
  1
ACDBDETAILVIEWSTYLE
  2
AcDbDetailViewStyle
  3
ObjectDBX Classes
 90
1025
 91
0
280
0
281
0
  0
CLASS
  1
ACDBSECTIONVIEWSTYLE
  2
AcDbSectionViewStyle
  3
ObjectDBX Classes
 90
1025
 91
0
280
0
281
0
  0
CLASS
  1
RASTERVARIABLES
  2
AcDbRasterVariables
  3
ISM
 90
0
 91
0
280
0
281
0
  0
CLASS
  1
LAYOUT
  2
AcDbLayout
  3
ObjectDBX Classes
 90
0
 91
0
280
0
281
0
  0
CLASS
  1
ACDBPLACEHOLDER
  2
AcDbPlaceHolder
  3
ObjectDBX Classes
 90
0
 91
0
280
0
281
0
  0
ENDSEC
  0
SECTION
  2
TABLES
  0
TABLE
  2
VPORT
  5
8
330
0
100
AcDbSymbolTable
 70
1
  0
VPORT
  5
23
330
8
100
AcDbSymbolTableRecord
100
AcDbViewportTableRecord
  2
*Active
 70
0
 10
0.0
 20
0.0
 11
1.0
 21
1.0
 12
0.0
 22
0.0
 13
0.0
 23
0.0
 14
0.5
 24
0.5
 15
0.5
 25
0.5
 16
0.0
 26
0.0
 36
1.0
 17
0.0
 27
0.0
 37
0.0
 40
1000.0
 41
1.34
 42
50.0
 43
0.0
 44
0.0
 50
0.0
 51
0.0
 71
0
 72
1000
 73
1
 74
3
 75
0
 76
0
 77
0
 78
0
281
0
 65
0
146
0.0
  0
ENDTAB
  0
TABLE
  2
LTYPE
  5
2
330
0
100
AcDbSymbolTable
 70
3
  0
LTYPE
  5
24
330
2
100
AcDbSymbolTableRecord
100
AcDbLinetypeTableRecord
  2
ByBlock
 70
0
  3

 72
65
 73
0
 40
0.0
  0
LTYPE
  5
25
330
2
100
AcDbSymbolTableRecord
100
AcDbLinetypeTableRecord
  2
ByLayer
 70
0
  3

 72
65
 73
0
 40
0.0
  0
LTYPE
  5
26
330
2
100
AcDbSymbolTableRecord
100
AcDbLinetypeTableRecord
  2
Continuous
 70
0
  3

 72
65
 73
0
 40
0.0
  0
ENDTAB
  0
TABLE
  2
LAYER
  5
1
330
0
100
AcDbSymbolTable
 70
2
  0
LAYER
  5
27
330
1
100
AcDbSymbolTableRecord
100
AcDbLayerTableRecord
  2
0
 70
0
 62
7
  6
Continuous
370
-3
390
13
347
21
  0
LAYER
  5
28
330
1
100
AcDbSymbolTableRecord
100
AcDbLayerTableRecord
  2
Defpoints
 70
0
 62
7
  6
Continuous
290
0
370
-3
390
13
347
21
  0
ENDTAB
  0
TABLE
  2
STYLE
  5
5
330
0
100
AcDbSymbolTable
 70
1
  0
STYLE
  5
29
330
5
100
AcDbSymbolTableRecord
100
AcDbTextStyleTableRecord
  2
Standard
 70
0
 40
0.0
 41
1.0
 50
0.0
 71
0
 42
2.5
  3
txt
  4

  0
ENDTAB
  0
TABLE
  2
VIEW
  5
7
330
0
100
AcDbSymbolTable
 70
0
  0
ENDTAB
  0
TABLE
  2
UCS
  5
6
330
0
100
AcDbSymbolTable
 70
0
  0
ENDTAB
  0
TABLE
  2
APPID
  5
3
330
0
100
AcDbSymbolTable
 70
3
  0
APPID
  5
2A
330
3
100
AcDbSymbolTableRecord
100
AcDbRegAppTableRecord
  2
ACAD
 70
0
  0
APPID
  5
39
330
3
100
AcDbSymbolTableRecord
100
AcDbRegAppTableRecord
  2
HATCHBACKGROUNDCOLOR
 70
0
  0
APPID
  5
3A
330
3
100
AcDbSymbolTableRecord
100
AcDbRegAppTableRecord
  2
EZDXF
 70
0
  0
ENDTAB
  0
TABLE
  2
DIMSTYLE
  5
4
330
0
100
AcDbSymbolTable
 70
1
100
AcDbDimStyleTable
  0
DIMSTYLE
105
2B
330
4
100
AcDbSymbolTableRecord
100
AcDbDimStyleTableRecord
  2
Standard
 70
0
 40
1.0
 41
2.5
 42
0.625
 43
3.75
 44
1.25
 45
0.0
 46
0.0
 47
0.0
 48
0.0
 49
2.5
140
2.5
141
2.5
142
0.0
143
0.03937007874
144
1.0
145
0.0
146
1.0
147
0.625
148
0.0
 69
0
 70
0
 71
0
 72
0
 73
0
 74
0
 75
0
 76
0
 77
1
 78
8
 79
3
170
0
171
3
172
1
173
0
174
0
175
0
176
0
177
0
178
0
179
2
271
2
272
2
273
2
274
3
275
0
276
0
277
2
278
44
279
0
280
0
281
0
282
0
283
0
284
8
285
0
286
0
288
0
289
3
290
0
371
-2
372
-2
  0
ENDTAB
  0
TABLE
  2
BLOCK_RECORD
  5
9
330
0
100
AcDbSymbolTable
 70
2
  0
BLOCK_RECORD
  5
17
330
9
100
AcDbSymbolTableRecord
100
AcDbBlockTableRecord
  2
*Model_Space
340
1A
 70
0
280
1
281
0
  0
BLOCK_RECORD
  5
1B
330
9
100
AcDbSymbolTableRecord
100
AcDbBlockTableRecord
  2
*Paper_Space
340
1E
 70
0
280
1
281
0
  0
ENDTAB
  0
ENDSEC
  0
SECTION
  2
BLOCKS
  0
BLOCK
  5
18
330
17
100
AcDbEntity
  8
0
100
AcDbBlockBegin
  2
*Model_Space
 70
0
 10
0.0
 20
0.0
 30
0.0
  3
*Model_Space
  1

  0
ENDBLK
  5
19
330
17
100
AcDbEntity
  8
0
100
AcDbBlockEnd
  0
BLOCK
  5
1C
330
1B
100
AcDbEntity
  8
0
100
AcDbBlockBegin
  2
*Paper_Space
 70
0
 10
0.0
 20
0.0
 30
0.0
  3
*Paper_Space
  1

  0
ENDBLK
  5
1D
330
1B
100
AcDbEntity
  8
0
100
AcDbBlockEnd
  0
ENDSEC
  0
SECTION
  2
ENTITIES
  0
LWPOLYLINE
  5
2F
330
17
100
AcDbEntity
  8
0
100
AcDbPolyline
 90
51
 70
0
 10
16.2
 20
12.0
 10
16.2
 20
11.76
 10
16.2
 20
11.52
 10
16.2
 20
11.28
 10
16.2
 20
11.04
 10
16.2
 20
10.8
 10
16.2
 20
10.56
 10
16.2
 20
10.32
 10
16.2
 20
10.08
 10
16.2
 20
9.84
 10
16.2
 20
9.6
 10
16.2
 20
9.36
 10
16.2
 20
9.120000000000001
 10
16.2
 20
8.879999999999999
 10
16.2
 20
8.64
 10
16.2
 20
8.4
 10
16.2
 20
8.16
 10
16.2
 20
7.92
 10
16.2
 20
7.68
 10
16.2
 20
7.44
 10
16.2
 20
7.2
 10
16.2
 20
6.96
 10
16.2
 20
6.72
 10
16.2
 20
6.48
 10
16.2
 20
6.24
 10
16.2
 20
6.0
 10
16.2
 20
5.76
 10
16.2
 20
5.52
 10
16.2
 20
5.28
 10
16.2
 20
5.04
 10
16.2
 20
4.8
 10
16.2
 20
4.56
 10
16.2
 20
4.32
 10
16.2
 20
4.08
 10
16.2
 20
3.84
 10
16.2
 20
3.5999999999999996
 10
16.2
 20
3.3599999999999994
 10
16.2
 20
3.119999999999999
 10
16.2
 20
2.880000000000001
 10
16.2
 20
2.6400000000000006
 10
16.2
 20
2.4000000000000004
 10
16.2
 20
2.16
 10
16.2
 20
1.92
 10
16.2
 20
1.6799999999999997
 10
16.2
 20
1.4399999999999995
 10
16.2
 20
1.1999999999999993
 10
16.2
 20
0.9600000000000009
 10
16.2
 20
0.7200000000000006
 10
16.2
 20
0.4800000000000004
 10
16.2
 20
0.2400000000000002
 10
16.2
 20
0.0
  0
LWPOLYLINE
  5
30
330
17
100
AcDbEntity
  8
0
100
AcDbPolyline
 90
51
 70
0
 10
2.2
 20
5.0
 10
2.2
 20
5.14
 10
2.2
 20
5.28
 10
2.2
 20
5.42
 10
2.2
 20
5.5600000000000005
 10
2.2
 20
5.7
 10
2.2
 20
5.84
 10
2.1999999999999997
 20
5.98
 10
2.1999999999999997
 20
6.12
 10
2.1999999999999997
 20
6.26
 10
2.1999999999999997
 20
6.4
 10
2.1999999999999997
 20
6.54
 10
2.1999999999999997
 20
6.68
 10
2.1999999999999997
 20
6.82
 10
2.1999999999999997
 20
6.96
 10
2.1999999999999997
 20
7.1
 10
2.1999999999999997
 20
7.24
 10
2.1999999999999997
 20
7.38
 10
2.1999999999999997
 20
7.52
 10
2.1999999999999997
 20
7.66
 10
2.1999999999999993
 20
7.8
 10
2.1999999999999993
 20
7.9399999999999995
 10
2.1999999999999993
 20
8.08
 10
2.1999999999999993
 20
8.22
 10
2.1999999999999993
 20
8.36
 10
2.1999999999999993
 20
8.5
 10
2.1999999999999993
 20
8.64
 10
2.1999999999999993
 20
8.78
 10
2.1999999999999993
 20
8.92
 10
2.1999999999999993
 20
9.059999999999999
 10
2.1999999999999993
 20
9.2
 10
2.1999999999999993
 20
9.34
 10
2.1999999999999993
 20
9.48
 10
2.199999999999999
 20
9.620000000000001
 10
2.199999999999999
 20
9.76
 10
2.199999999999999
 20
9.9
 10
2.199999999999999
 20
10.04
 10
2.199999999999999
 20
10.18
 10
2.199999999999999
 20
10.32
 10
2.199999999999999
 20
10.46
 10
2.199999999999999
 20
10.6
 10
2.199999999999999
 20
10.74
 10
2.199999999999999
 20
10.879999999999999
 10
2.199999999999999
 20
11.02
 10
2.199999999999999
 20
11.16
 10
2.1999999999999984
 20
11.3
 10
2.1999999999999984
 20
11.440000000000001
 10
2.1999999999999984
 20
11.58
 10
2.1999999999999984
 20
11.719999999999999
 10
2.1999999999999984
 20
11.86
 10
2.1999999999999984
 20
12.0
  0
LWPOLYLINE
  5
31
330
17
100
AcDbEntity
  8
0
100
AcDbPolyline
 90
51
 70
0
 10
2.1999999999999993
 20
11.999999999999998
 10
2.2138129010020986
 20
12.439533636705189
 10
2.255197090798654
 20
12.877332634950129
 10
2.3239892448991784
 20
13.31166920210007
 10
2.4199178720995818
 20
13.740829210153985
 10
2.542604385933924
 20
14.16311896062463
 10
2.6915645987822385
 20
14.576871868792741
 10
2.8662106327378627
 20
14.980455040955508
 10
3.0658532396929523
 20
15.372275718712004
 10
3.289704521485895
 20
15.750787564852978
 10
3.5368810393753662
 20
16.11449676604731
 10
3.8064073005694725
 20
16.461967928240824
 10
4.097219608050119
 20
16.79182974150082
 10
4.408170258499177
 20
17.102780391949878
 10
4.7380320717591715
 20
17.393592699430528
 10
5.085503233952686
 20
17.66311896062463
 10
5.44921243514702
 20
17.910295478514104
 10
5.827724281287992
 20
18.134146760307047
 10
6.219544959044488
 20
18.333789367262135
 10
6.623128131207254
 20
18.50843540121776
 10
7.036881039375365
 20
18.657395614066075
 10
7.459170789846012
 20
18.780082127900418
 10
7.888330797899926
 20
18.876010755100822
 10
8.322667365049867
 20
18.944802909201343
 10
8.760466363294807
 20
18.986187098997902
 10
9.199999999999998
 20
19.0
 10
9.639533636705188
 20
18.986187098997902
 10
10.077332634950128
 20
18.944802909201346
 10
10.51166920210007
 20
18.876010755100822
 10
10.940829210153984
 20
18.780082127900418
 10
11.363118960624629
 20
18.657395614066075
 10
11.77687186879274
 20
18.50843540121776
 10
12.180455040955508
 20
18.333789367262135
 10
12.572275718712008
 20
18.134146760307043
 10
12.950787564852977
 20
17.910295478514104
 10
13.31449676604731
 20
17.663118960624633
 10
13.661967928240824
 20
17.393592699430528
 10
13.991829741500819
 20
17.10278039194988
 10
14.302780391949877
 20
16.791829741500823
 10
14.593592699430523
 20
16.461967928240828
 10
14.863118960624629
 20
16.114496766047314
 10
15.110295478514104
 20
15.75078756485298
 10
15.334146760307044
 20
15.372275718712007
 10
15.533789367262134
 20
14.980455040955512
 10
15.70843540121776
 20
14.576871868792745
 10
15.857395614066075
 20
14.163118960624633
 10
15.980082127900417
 20
13.740829210153988
 10
16.076010755100818
 20
13.311669202100074
 10
16.144802909201346
 20
12.877332634950132
 10
16.186187098997898
 20
12.439533636705193
 10
16.2
 20
12.000000000000002
  0
LWPOLYLINE
  5
32
330
17
100
AcDbEntity
  8
0
100
AcDbPolyline
 90
51
 70
0
 10
16.2
 20
1.151079231931362e-15
 10
15.052
 20
1.0695089258661025e-15
 10
13.904
 20
9.879386198008429e-16
 10
12.755999999999998
 20
9.063683137355835e-16
 10
11.607999999999999
 20
8.247980076703239e-16
 10
10.459999999999999
 20
7.432277016050645e-16
 10
9.311999999999998
 20
6.616573955398049e-16
 10
8.163999999999998
 20
5.800870894745454e-16
 10
7.015999999999998
 20
4.98516783409286e-16
 10
5.8679999999999986
 20
4.1694647734402656e-16
 10
4.719999999999999
 20
3.353761712787671e-16
 10
3.5719999999999974
 20
2.538058652135075e-16
 10
2.4239999999999977
 20
1.7223555914824807e-16
 10
1.275999999999998
 20
9.066525308298861e-17
 10
0.12799999999999656
 20
9.094947017729035e-18
 10
-1.0200000000000031
 20
-7.247535904753042e-17
 10
-2.168000000000003
 20
-1.5404566511278988e-16
 10
-3.3160000000000025
 20
-2.3561597117804933e-16
 10
-4.464000000000002
 20
-3.1718627724330877e-16
 10
-5.612000000000002
 20
-3.9875658330856825e-16
 10
-6.760000000000002
 20
-4.803268893738277e-16
 10
-7.908000000000001
 20
-5.618971954390871e-16
 10
-9.056000000000004
 20
-6.434675015043468e-16
 10
-10.204
 20
-7.250378075696061e-16
 10
-11.352000000000004
 20
-8.066081136348657e-16
 10
-12.500000000000004
 20
-8.881784197001252e-16
 10
-13.648000000000003
 20
-9.697487257653847e-16
 10
-14.796000000000003
 20
-1.051319031830644e-15
 10
-15.944000000000006
 20
-1.1328893378959037e-15
 10
-17.092000000000002
 20
-1.214459643961163e-15
 10
-18.240000000000006
 20
-1.2960299500264228e-15
 10
-19.388
 20
-1.3776002560916818e-15
 10
-20.536000000000005
 20
-1.4591705621569416e-15
 10
-21.684000000000008
 20
-1.5407408682222013e-15
 10
-22.832000000000004
 20
-1.6223111742874605e-15
 10
-23.980000000000008
 20
-1.7038814803527201e-15
 10
-25.128000000000004
 20
-1.7854517864179794e-15
 10
-26.276000000000007
 20
-1.8670220924832392e-15
 10
-27.424000000000003
 20
-1.9485923985484982e-15
 10
-28.572000000000006
 20
-2.030162704613758e-15
 10
-29.720000000000002
 20
-2.111733010679017e-15
 10
-30.868000000000006
 20
-2.193303316744277e-15
 10
-32.016000000000005
 20
-2.2748736228095364e-15
 10
-33.164
 20
-2.3564439288747954e-15
 10
-34.31200000000001
 20
-2.4380142349400556e-15
 10
-35.46000000000001
 20
-2.519584541005315e-15
 10
-36.608000000000004
 20
-2.601154847070574e-15
 10
-37.756
 20
-2.6827251531358335e-15
 10
-38.90400000000001
 20
-2.7642954592010937e-15
 10
-40.05200000000001
 20
-2.8458657652663528e-15
 10
-41.2
 20
-2.927436071331612e-15
  0
LWPOLYLINE
  5
33
330
17
100
AcDbEntity
  8
0
100
AcDbPolyline
 90
51
 70
0
 10
13.2
 20
12.0
 10
13.18224785841232
 20
11.623566746725944
 10
13.129149002914755
 20
11.2504747416571
 10
13.04117474270777
 20
10.884035575843082
 10
12.919105943553005
 20
10.527501789261288
 10
12.76402609675347
 20
10.184038001041813
 10
12.57731170200806
 20
9.856692820084014
 10
12.360620049502762
 20
9.548371785388095
 10
12.115874509685645
 20
9.261811576285245
 10
11.845247461294607
 20
8.999555721478162
 10
11.551141009169893
 20
8.76393202250021
 10
11.236165663001483
 20
8.557031891984225
 10
10.90311716626029
 20
8.380691790135923
 10
10.554951680981164
 20
8.236476924183098
 10
10.194759548659418
 20
8.125667355485476
 10
9.825737860160924
 20
8.049246637619449
 10
9.451162078117253
 20
8.007893086286913
 10
9.074356963687487
 20
8.001973758537073
 10
8.698667065742782
 20
8.031541194742088
 10
8.32742703441383
 20
8.09633295224501
 10
7.96393202250021
 20
8.195773934819385
 10
7.611408437460876
 20
8.328981497264076
 10
7.2729853035931376
 20
8.494773279824546
 10
6.951666488591477
 20
8.691677702901753
 10
6.65030404100524
 20
8.917947028896844
 10
6.371572875253809
 20
9.171572875253808
 10
6.117947028896841
 20
9.450304041005243
 10
5.891677702901752
 20
9.751666488591477
 10
5.694773279824545
 20
10.07298530359314
 10
5.528981497264075
 20
10.411408437460876
 10
5.395773934819385
 20
10.76393202250021
 10
5.29633295224501
 20
11.127427034413827
 10
5.231541194742088
 20
11.498667065742781
 10
5.201973758537073
 20
11.874356963687486
 10
5.207893086286913
 20
12.251162078117252
 10
5.249246637619448
 20
12.625737860160923
 10
5.325667355485475
 20
12.99475954865942
 10
5.436476924183097
 20
13.354951680981165
 10
5.580691790135919
 20
13.703117166260288
 10
5.757031891984226
 20
14.036165663001487
 10
5.9639320225002095
 20
14.351141009169892
 10
6.199555721478159
 20
14.645247461294606
 10
6.461811576285246
 20
14.915874509685647
 10
6.748371785388093
 20
15.16062004950276
 10
7.056692820084014
 20
15.377311702008061
 10
7.384038001041811
 20
15.564026096753471
 10
7.727501789261288
 20
15.719105943553005
 10
8.08403557584308
 20
15.841174742707771
 10
8.4504747416571
 20
15.929149002914755
 10
8.823566746725943
 20
15.98224785841232
 10
9.199999999999998
 20
16.0
  0
LWPOLYLINE
  5
34
330
17
100
AcDbEntity
  8
0
100
AcDbPolyline
 90
51
 70
0
 10
9.2
 20
16.0
 10
9.325643036312513
 20
15.998026241462927
 10
9.451162078117253
 20
15.992106913713087
 10
9.576433253274056
 20
15.98224785841232
 10
9.701332934257216
 20
15.968458805257912
 10
9.825737860160922
 20
15.950753362380551
 10
9.949525258342899
 20
15.929149002914755
 10
10.07257296558617
 20
15.90366704775499
 10
10.194759548659418
 20
15.874332644514524
 10
10.315964424156917
 20
15.841174742707771
 10
10.436067977499789
 20
15.804226065180615
 10
10.554951680981166
 20
15.763523075816902
 10
10.672498210738711
 20
15.719105943553005
 10
10.788591562539121
 20
15.671018502735924
 10
10.90311716626029
 20
15.619308209864078
 10
11.015961998958186
 20
15.564026096753471
 10
11.12701469640686
 20
15.505226720175454
 10
11.236165663001485
 20
15.442968108015775
 10
11.343307179915985
 20
15.377311702008061
 10
11.44833351140852
 20
15.308322297098247
 10
11.551141009169893
 20
15.23606797749979
 10
11.651628214611906
 20
15.16062004950276
 10
11.749695958994758
 20
15.082052971103156
 10
11.845247461294607
 20
15.000444278521838
 10
11.938188423714754
 20
14.915874509685647
 10
12.02842712474619
 20
14.82842712474619
 10
12.115874509685646
 20
14.738188423714755
 10
12.200444278521838
 20
14.645247461294607
 10
12.282052971103155
 20
14.549695958994759
 10
12.36062004950276
 20
14.451628214611906
 10
12.436067977499789
 20
14.351141009169893
 10
12.508322297098246
 20
14.248333511408523
 10
12.57731170200806
 20
14.143307179915986
 10
12.642968108015774
 20
14.036165663001485
 10
12.705226720175453
 20
13.92701469640686
 10
12.76402609675347
 20
13.815961998958187
 10
12.819308209864078
 20
13.703117166260292
 10
12.871018502735923
 20
13.588591562539122
 10
12.919105943553005
 20
13.472498210738712
 10
12.963523075816902
 20
13.354951680981166
 10
13.004226065180614
 20
13.23606797749979
 10
13.04117474270777
 20
13.115964424156918
 10
13.074332644514524
 20
12.994759548659419
 10
13.103667047754989
 20
12.872572965586171
 10
13.129149002914755
 20
12.7495252583429
 10
13.15075336238055
 20
12.625737860160923
 10
13.16845880525791
 20
12.501332934257217
 10
13.18224785841232
 20
12.376433253274056
 10
13.192106913713086
 20
12.251162078117254
 10
13.198026241462927
 20
12.125643036312514
 10
13.2
 20
12.0
  0
LWPOLYLINE
  5
35
330
17
100
AcDbEntity
  8
0
100
AcDbPolyline
 90
51
 70
0
 10
-41.2
 20
-2.92743607133161e-15
 10
-41.2
 20
0.09999999999999712
 10
-41.2
 20
0.19999999999999718
 10
-41.2
 20
0.2999999999999972
 10
-41.2
 20
0.39999999999999725
 10
-41.2
 20
0.4999999999999974
 10
-41.2
 20
0.5999999999999974
 10
-41.2
 20
0.6999999999999975
 10
-41.2
 20
0.7999999999999975
 10
-41.2
 20
0.8999999999999976
 10
-41.2
 20
0.9999999999999978
 10
-41.2
 20
1.0999999999999976
 10
-41.2
 20
1.1999999999999977
 10
-41.2
 20
1.2999999999999976
 10
-41.2
 20
1.399999999999998
 10
-41.2
 20
1.499999999999998
 10
-41.2
 20
1.5999999999999979
 10
-41.2
 20
1.699999999999998
 10
-41.2
 20
1.799999999999998
 10
-41.2
 20
1.8999999999999984
 10
-41.2
 20
1.9999999999999982
 10
-41.2
 20
2.099999999999998
 10
-41.2
 20
2.199999999999998
 10
-41.2
 20
2.299999999999998
 10
-41.2
 20
2.399999999999998
 10
-41.2
 20
2.4999999999999982
 10
-41.2
 20
2.599999999999998
 10
-41.2
 20
2.6999999999999984
 10
-41.2
 20
2.7999999999999985
 10
-41.2
 20
2.8999999999999986
 10
-41.2
 20
2.9999999999999987
 10
-41.2
 20
3.0999999999999988
 10
-41.2
 20
3.1999999999999984
 10
-41.2
 20
3.2999999999999985
 10
-41.2
 20
3.3999999999999986
 10
-41.2
 20
3.4999999999999987
 10
-41.2
 20
3.5999999999999988
 10
-41.2
 20
3.6999999999999984
 10
-41.2
 20
3.7999999999999994
 10
-41.2
 20
3.899999999999999
 10
-41.2
 20
4.0
 10
-41.2
 20
4.1
 10
-41.2
 20
4.199999999999999
 10
-41.2
 20
4.3
 10
-41.2
 20
4.3999999999999995
 10
-41.2
 20
4.5
 10
-41.2
 20
4.6
 10
-41.2
 20
4.699999999999999
 10
-41.2
 20
4.8
 10
-41.2
 20
4.9
 10
-41.2
 20
5.0
  0
LWPOLYLINE
  5
36
330
17
100
AcDbEntity
  8
0
100
AcDbPolyline
 90
51
 70
0
 10
-20.0
 20
5.0
 10
-19.556
 20
5.0
 10
-19.112000000000002
 20
5.0
 10
-18.668
 20
5.0
 10
-18.224
 20
5.0
 10
-17.78
 20
5.0
 10
-17.336
 20
5.0
 10
-16.892
 20
5.0
 10
-16.448
 20
5.0
 10
-16.004
 20
5.0
 10
-15.559999999999999
 20
5.0
 10
-15.116
 20
5.0
 10
-14.672
 20
5.0
 10
-14.228000000000002
 20
5.0
 10
-13.783999999999999
 20
5.0
 10
-13.34
 20
5.0
 10
-12.896
 20
5.0
 10
-12.452000000000002
 20
5.0
 10
-12.008000000000001
 20
5.0
 10
-11.564
 20
5.0
 10
-11.12
 20
5.0
 10
-10.676
 20
5.0
 10
-10.232000000000001
 20
5.0
 10
-9.788
 20
5.0
 10
-9.344000000000001
 20
5.0
 10
-8.899999999999999
 20
5.0
 10
-8.456000000000003
 20
5.0
 10
-8.012
 20
5.0
 10
-7.567999999999998
 20
5.0
 10
-7.124000000000002
 20
5.0
 10
-6.68
 20
5.0
 10
-6.236000000000001
 20
5.0
 10
-5.792000000000002
 20
5.0
 10
-5.347999999999999
 20
5.0
 10
-4.9040000000000035
 20
5.0
 10
-4.460000000000001
 20
5.0
 10
-4.016000000000002
 20
5.0
 10
-3.571999999999999
 20
5.0
 10
-3.128
 20
5.0
 10
-2.684000000000001
 20
5.0
 10
-2.2399999999999984
 20
5.0
 10
-1.796000000000003
 20
5.0
 10
-1.3520000000000003
 20
5.0
 10
-0.9080000000000013
 20
5.0
 10
-0.4640000000000022
 20
5.0
 10
-0.019999999999999574
 20
5.0
 10
0.4239999999999995
 20
5.0
 10
0.8679999999999986
 20
5.0
 10
1.3119999999999976
 20
5.0
 10
1.7560000000000002
 20
5.0
 10
2.1999999999999993
 20
5.0
  0
LWPOLYLINE
  5
37
330
17
100
AcDbEntity
  8
0
100
AcDbPolyline
 90
51
 70
0
 10
-41.2
 20
5.0
 10
-40.332
 20
5.0
 10
-39.464
 20
5.0
 10
-38.596000000000004
 20
5.0
 10
-37.728
 20
5.0
 10
-36.86
 20
5.0
 10
-35.992000000000004
 20
5.0
 10
-35.124
 20
5.0
 10
-34.256
 20
5.0
 10
-33.388000000000005
 20
5.0
 10
-32.52
 20
5.0
 10
-31.652
 20
5.0
 10
-30.784
 20
5.0
 10
-29.916000000000004
 20
5.0
 10
-29.048000000000002
 20
5.0
 10
-28.18
 20
5.0
 10
-27.312
 20
5.0
 10
-26.444000000000003
 20
5.0
 10
-25.576
 20
5.0
 10
-24.708
 20
5.0
 10
-23.84
 20
5.0
 10
-22.972
 20
5.0
 10
-22.104
 20
5.0
 10
-21.236
 20
5.0
 10
-20.368
 20
5.0
 10
-19.5
 20
5.0
 10
-18.632
 20
5.0
 10
-17.764
 20
5.0
 10
-16.895999999999997
 20
5.0
 10
-16.028
 20
5.0
 10
-15.159999999999997
 20
5.0
 10
-14.292000000000002
 20
5.0
 10
-13.424
 20
5.0
 10
-12.555999999999997
 20
5.0
 10
-11.687999999999999
 20
5.0
 10
-10.819999999999997
 20
5.0
 10
-9.952000000000002
 20
5.0
 10
-9.083999999999996
 20
5.0
 10
-8.215999999999994
 20
5.0
 10
-7.347999999999999
 20
5.0
 10
-6.479999999999997
 20
5.0
 10
-5.611999999999995
 20
5.0
 10
-4.744
 20
5.0
 10
-3.8759999999999977
 20
5.0
 10
-3.0079999999999956
 20
5.0
 10
-2.1400000000000006
 20
5.0
 10
-1.2719999999999985
 20
5.0
 10
-0.40399999999999636
 20
5.0
 10
0.46400000000000574
 20
5.0
 10
1.3320000000000078
 20
5.0
 10
2.200000000000003
 20
5.0
  0
LWPOLYLINE
  5
38
330
17
100
AcDbEntity
  8
0
100
AcDbPolyline
 90
51
 70
0
 10
2.2
 20
5.0
 10
2.2
 20
5.14
 10
2.2
 20
5.28
 10
2.2
 20
5.42
 10
2.2
 20
5.5600000000000005
 10
2.2
 20
5.7
 10
2.2
 20
5.84
 10
2.1999999999999997
 20
5.98
 10
2.1999999999999997
 20
6.12
 10
2.1999999999999997
 20
6.26
 10
2.1999999999999997
 20
6.4
 10
2.1999999999999997
 20
6.54
 10
2.1999999999999997
 20
6.68
 10
2.1999999999999997
 20
6.82
 10
2.1999999999999997
 20
6.96
 10
2.1999999999999997
 20
7.1
 10
2.1999999999999997
 20
7.24
 10
2.1999999999999997
 20
7.38
 10
2.1999999999999997
 20
7.52
 10
2.1999999999999997
 20
7.66
 10
2.1999999999999993
 20
7.8
 10
2.1999999999999993
 20
7.9399999999999995
 10
2.1999999999999993
 20
8.08
 10
2.1999999999999993
 20
8.22
 10
2.1999999999999993
 20
8.36
 10
2.1999999999999993
 20
8.5
 10
2.1999999999999993
 20
8.64
 10
2.1999999999999993
 20
8.78
 10
2.1999999999999993
 20
8.92
 10
2.1999999999999993
 20
9.059999999999999
 10
2.1999999999999993
 20
9.2
 10
2.1999999999999993
 20
9.34
 10
2.1999999999999993
 20
9.48
 10
2.199999999999999
 20
9.620000000000001
 10
2.199999999999999
 20
9.76
 10
2.199999999999999
 20
9.9
 10
2.199999999999999
 20
10.04
 10
2.199999999999999
 20
10.18
 10
2.199999999999999
 20
10.32
 10
2.199999999999999
 20
10.46
 10
2.199999999999999
 20
10.6
 10
2.199999999999999
 20
10.74
 10
2.199999999999999
 20
10.879999999999999
 10
2.199999999999999
 20
11.02
 10
2.199999999999999
 20
11.16
 10
2.1999999999999984
 20
11.3
 10
2.1999999999999984
 20
11.440000000000001
 10
2.1999999999999984
 20
11.58
 10
2.1999999999999984
 20
11.719999999999999
 10
2.1999999999999984
 20
11.86
 10
2.1999999999999984
 20
12.0
  0
ENDSEC
  0
SECTION
  2
OBJECTS
  0
DICTIONARY
  5
A
330
0
100
AcDbDictionary
280
0
281
1
  3
ACAD_COLOR
350
B
  3
ACAD_GROUP
350
C
  3
ACAD_LAYOUT
350
D
  3
ACAD_MATERIAL
350
E
  3
ACAD_MLEADERSTYLE
350
F
  3
ACAD_MLINESTYLE
350
10
  3
ACAD_PLOTSETTINGS
350
11
  3
ACAD_PLOTSTYLENAME
350
12
  3
ACAD_SCALELIST
350
14
  3
ACAD_TABLESTYLE
350
15
  3
ACAD_VISUALSTYLE
350
16
  3
EZDXF_META
350
2D
  0
DICTIONARY
  5
B
330
A
100
AcDbDictionary
280
0
281
1
  0
DICTIONARY
  5
C
330
A
100
AcDbDictionary
280
0
281
1
  0
DICTIONARY
  5
D
330
A
100
AcDbDictionary
280
0
281
1
  3
Model
350
1A
  3
Layout1
350
1E
  0
DICTIONARY
  5
E
330
A
100
AcDbDictionary
280
0
281
1
  3
ByBlock
350
1F
  3
ByLayer
350
20
  3
Global
350
21
  0
DICTIONARY
  5
F
330
A
100
AcDbDictionary
280
0
281
1
  3
Standard
350
2C
  0
DICTIONARY
  5
10
330
A
100
AcDbDictionary
280
0
281
1
  3
Standard
350
22
  0
DICTIONARY
  5
11
330
A
100
AcDbDictionary
280
0
281
1
  0
ACDBDICTIONARYWDFLT
  5
12
330
A
100
AcDbDictionary
280
0
281
1
  3
Normal
350
13
100
AcDbDictionaryWithDefault
340
13
  0
ACDBPLACEHOLDER
  5
13
330
12
  0
DICTIONARY
  5
14
330
A
100
AcDbDictionary
280
0
281
1
  0
DICTIONARY
  5
15
330
A
100
AcDbDictionary
280
0
281
1
  0
DICTIONARY
  5
16
330
A
100
AcDbDictionary
280
0
281
1
  0
LAYOUT
  5
1A
330
D
100
AcDbPlotSettings
  1

  2
Adobe PDF
  4
A3
  6

 40
7.5
 41
20.0
 42
7.5
 43
20.0
 44
420.0
 45
297.0
 46
0.0
 47
0.0
 48
0.0
 49
0.0
140
0.0
141
0.0
142
1.0
143
1.0
 70
1024
 72
1
 73
0
 74
5
  7

 75
16
 76
0
 77
2
 78
300
147
1.0
148
0.0
149
0.0
100
AcDbLayout
  1
Model
 70
1
 71
0
 10
0.0
 20
0.0
 11
420.0
 21
297.0
 12
0.0
 22
0.0
 32
0.0
 14
1e+20
 24
1e+20
 34
1e+20
 15
-1e+20
 25
-1e+20
 35
-1e+20
146
0.0
 13
0.0
 23
0.0
 33
0.0
 16
1.0
 26
0.0
 36
0.0
 17
0.0
 27
1.0
 37
0.0
 76
1
330
17
  0
LAYOUT
  5
1E
330
D
100
AcDbPlotSettings
  1

  2
Adobe PDF
  4
A3
  6

 40
7.5
 41
20.0
 42
7.5
 43
20.0
 44
420.0
 45
297.0
 46
0.0
 47
0.0
 48
0.0
 49
0.0
140
0.0
141
0.0
142
1.0
143
1.0
 70
0
 72
1
 73
0
 74
5
  7

 75
16
 76
0
 77
2
 78
300
147
1.0
148
0.0
149
0.0
100
AcDbLayout
  1
Layout1
 70
1
 71
1
 10
0.0
 20
0.0
 11
420.0
 21
297.0
 12
0.0
 22
0.0
 32
0.0
 14
1e+20
 24
1e+20
 34
1e+20
 15
-1e+20
 25
-1e+20
 35
-1e+20
146
0.0
 13
0.0
 23
0.0
 33
0.0
 16
1.0
 26
0.0
 36
0.0
 17
0.0
 27
1.0
 37
0.0
 76
1
330
1B
  0
MATERIAL
  5
1F
102
{ACAD_REACTORS
330
E
102
}
330
E
100
AcDbMaterial
  1
ByBlock
  2

 70
0
 40
1.0
 71
1
 41
1.0
 91
-1023410177
 42
1.0
 72
1
  3

 73
1
 74
1
 75
1
 44
0.5
 73
0
 45
1.0
 46
1.0
 77
1
  4

 78
1
 79
1
170
1
 48
1.0
171
1
  6

172
1
173
1
174
1
140
1.0
141
1.0
175
1
  7

176
1
177
1
178
1
143
1.0
179
1
  8

270
1
271
1
272
1
145
1.0
146
1.0
273
1
  9

274
1
275
1
276
1
 42
1.0
 72
1
  3

 73
1
 74
1
 75
1
 94
63
  0
MATERIAL
  5
20
102
{ACAD_REACTORS
330
E
102
}
330
E
100
AcDbMaterial
  1
ByLayer
  2

 70
0
 40
1.0
 71
1
 41
1.0
 91
-1023410177
 42
1.0
 72
1
  3

 73
1
 74
1
 75
1
 44
0.5
 73
0
 45
1.0
 46
1.0
 77
1
  4

 78
1
 79
1
170
1
 48
1.0
171
1
  6

172
1
173
1
174
1
140
1.0
141
1.0
175
1
  7

176
1
177
1
178
1
143
1.0
179
1
  8

270
1
271
1
272
1
145
1.0
146
1.0
273
1
  9

274
1
275
1
276
1
 42
1.0
 72
1
  3

 73
1
 74
1
 75
1
 94
63
  0
MATERIAL
  5
21
102
{ACAD_REACTORS
330
E
102
}
330
E
100
AcDbMaterial
  1
Global
  2

 70
0
 40
1.0
 71
1
 41
1.0
 91
-1023410177
 42
1.0
 72
1
  3

 73
1
 74
1
 75
1
 44
0.5
 73
0
 45
1.0
 46
1.0
 77
1
  4

 78
1
 79
1
170
1
 48
1.0
171
1
  6

172
1
173
1
174
1
140
1.0
141
1.0
175
1
  7

176
1
177
1
178
1
143
1.0
179
1
  8

270
1
271
1
272
1
145
1.0
146
1.0
273
1
  9

274
1
275
1
276
1
 42
1.0
 72
1
  3

 73
1
 74
1
 75
1
 94
63
  0
MLINESTYLE
  5
22
102
{ACAD_REACTORS
330
10
102
}
330
10
100
AcDbMlineStyle
  2
Standard
 70
0
  3

 62
256
 51
90.0
 52
90.0
 71
2
 49
0.5
 62
256
  6
BYLAYER
 49
-0.5
 62
256
  6
BYLAYER
  0
MLEADERSTYLE
  5
2C
102
{ACAD_REACTORS
330
F
102
}
330
F
100
AcDbMLeaderStyle
179
2
170
2
171
1
172
0
 90
2
 40
0.0
 41
0.0
173
1
 91
-1056964608
 92
-2
290
1
 42
2.0
291
1
 43
8.0
  3
Standard
 44
4.0
300

342
29
174
1
175
1
176
0
178
1
 93
-1056964608
 45
4.0
292
0
297
0
 46
4.0
 94
-1056964608
 47
1.0
 49
1.0
140
1.0
294
1
141
0.0
177
0
142
1.0
295
0
296
0
143
3.75
271
0
272
9
273
9
  0
DICTIONARY
  5
2D
330
A
100
AcDbDictionary
281
1
  3
CREATED_BY_EZDXF
350
2E
  3
WRITTEN_BY_EZDXF
350
3B
  0
DICTIONARYVAR
  5
2E
330
2D
100
DictionaryVariables
280
0
  1
1.0.3 @ 2025-05-29T09:38:52.200615+00:00
  0
DICTIONARYVAR
  5
3B
330
2D
100
DictionaryVariables
280
0
  1
1.0.3 @ 2025-05-29T09:38:52.204123+00:00
  0
ENDSEC
  0
EOF
