  0
SECTION
  2
HEADER
  9
$ACADVER
  1
AC1027
  9
$ACADMAINTVER
 70
105
  9
$DWGCODEPAGE
  3
ANSI_1252
  9
$LASTSAVEDBY
  1
ezdxf
  9
$REQUIREDVERSIONS
160
0
  9
$INSBASE
 10
0.0
 20
0.0
 30
0.0
  9
$EXTMIN
 10
1e+20
 20
1e+20
 30
1e+20
  9
$EXTMAX
 10
-1e+20
 20
-1e+20
 30
-1e+20
  9
$LIMMIN
 10
0.0
 20
0.0
  9
$LIMMAX
 10
420.0
 20
297.0
  9
$ORTHOMODE
 70
0
  9
$REGENMODE
 70
1
  9
$FILLMODE
 70
1
  9
$QTEXTMODE
 70
0
  9
$MIRRTEXT
 70
1
  9
$LTSCALE
 40
1.0
  9
$ATTMODE
 70
1
  9
$TEXTSIZE
 40
2.5
  9
$TRACEWID
 40
1.0
  9
$TEXTSTYLE
  7
Standard
  9
$CLAYER
  8
0
  9
$CELTYPE
  6
ByLayer
  9
$CECOLOR
 62
256
  9
$CELTSCALE
 40
1.0
  9
$DISPSILH
 70
0
  9
$DIMSCALE
 40
1.0
  9
$DIMASZ
 40
2.5
  9
$DIMEXO
 40
0.625
  9
$DIMDLI
 40
3.75
  9
$DIMRND
 40
0.0
  9
$DIMDLE
 40
0.0
  9
$DIMEXE
 40
1.25
  9
$DIMTP
 40
0.0
  9
$DIMTM
 40
0.0
  9
$DIMTXT
 40
2.5
  9
$DIMCEN
 40
2.5
  9
$DIMTSZ
 40
0.0
  9
$DIMTOL
 70
0
  9
$DIMLIM
 70
0
  9
$DIMTIH
 70
0
  9
$DIMTOH
 70
0
  9
$DIMSE1
 70
0
  9
$DIMSE2
 70
0
  9
$DIMTAD
 70
1
  9
$DIMZIN
 70
8
  9
$DIMBLK
  1

  9
$DIMASO
 70
1
  9
$DIMSHO
 70
1
  9
$DIMPOST
  1

  9
$DIMAPOST
  1

  9
$DIMALT
 70
0
  9
$DIMALTD
 70
3
  9
$DIMALTF
 40
0.03937007874
  9
$DIMLFAC
 40
1.0
  9
$DIMTOFL
 70
1
  9
$DIMTVP
 40
0.0
  9
$DIMTIX
 70
0
  9
$DIMSOXD
 70
0
  9
$DIMSAH
 70
0
  9
$DIMBLK1
  1

  9
$DIMBLK2
  1

  9
$DIMSTYLE
  2
ISO-25
  9
$DIMCLRD
 70
0
  9
$DIMCLRE
 70
0
  9
$DIMCLRT
 70
0
  9
$DIMTFAC
 40
1.0
  9
$DIMGAP
 40
0.625
  9
$DIMJUST
 70
0
  9
$DIMSD1
 70
0
  9
$DIMSD2
 70
0
  9
$DIMTOLJ
 70
0
  9
$DIMTZIN
 70
8
  9
$DIMALTZ
 70
0
  9
$DIMALTTZ
 70
0
  9
$DIMUPT
 70
0
  9
$DIMDEC
 70
2
  9
$DIMTDEC
 70
2
  9
$DIMALTU
 70
2
  9
$DIMALTTD
 70
3
  9
$DIMTXSTY
  7
Standard
  9
$DIMAUNIT
 70
0
  9
$DIMADEC
 70
0
  9
$DIMALTRND
 40
0.0
  9
$DIMAZIN
 70
0
  9
$DIMDSEP
 70
44
  9
$DIMATFIT
 70
3
  9
$DIMFRAC
 70
0
  9
$DIMLDRBLK
  1

  9
$DIMLUNIT
 70
2
  9
$DIMLWD
 70
-2
  9
$DIMLWE
 70
-2
  9
$DIMTMOVE
 70
0
  9
$DIMFXL
 40
1.0
  9
$DIMFXLON
 70
0
  9
$DIMJOGANG
 40
0.785398163397
  9
$DIMTFILL
 70
0
  9
$DIMTFILLCLR
 70
0
  9
$DIMARCSYM
 70
0
  9
$DIMLTYPE
  6

  9
$DIMLTEX1
  6

  9
$DIMLTEX2
  6

  9
$DIMTXTDIRECTION
 70
0
  9
$LUNITS
 70
2
  9
$LUPREC
 70
4
  9
$SKETCHINC
 40
1.0
  9
$FILLETRAD
 40
10.0
  9
$AUNITS
 70
0
  9
$AUPREC
 70
2
  9
$MENU
  1
.
  9
$ELEVATION
 40
0.0
  9
$PELEVATION
 40
0.0
  9
$THICKNESS
 40
0.0
  9
$LIMCHECK
 70
0
  9
$CHAMFERA
 40
0.0
  9
$CHAMFERB
 40
0.0
  9
$CHAMFERC
 40
0.0
  9
$CHAMFERD
 40
0.0
  9
$SKPOLY
 70
0
  9
$TDCREATE
 40
2460825.7769791665
  9
$TDUCREATE
 40
2458532.153996898
  9
$TDUPDATE
 40
2460825.7769791665
  9
$TDUUPDATE
 40
2458532.1544311
  9
$TDINDWG
 40
0.0
  9
$TDUSRTIMER
 40
0.0
  9
$USRTIMER
 70
1
  9
$ANGBASE
 50
0.0
  9
$ANGDIR
 70
0
  9
$PDMODE
 70
0
  9
$PDSIZE
 40
0.0
  9
$PLINEWID
 40
0.0
  9
$SPLFRAME
 70
0
  9
$SPLINETYPE
 70
6
  9
$SPLINESEGS
 70
8
  9
$HANDSEED
  5
3B
  9
$SURFTAB1
 70
6
  9
$SURFTAB2
 70
6
  9
$SURFTYPE
 70
6
  9
$SURFU
 70
6
  9
$SURFV
 70
6
  9
$UCSBASE
  2

  9
$UCSNAME
  2

  9
$UCSORG
 10
0.0
 20
0.0
 30
0.0
  9
$UCSXDIR
 10
1.0
 20
0.0
 30
0.0
  9
$UCSYDIR
 10
0.0
 20
1.0
 30
0.0
  9
$UCSORTHOREF
  2

  9
$UCSORTHOVIEW
 70
0
  9
$UCSORGTOP
 10
0.0
 20
0.0
 30
0.0
  9
$UCSORGBOTTOM
 10
0.0
 20
0.0
 30
0.0
  9
$UCSORGLEFT
 10
0.0
 20
0.0
 30
0.0
  9
$UCSORGRIGHT
 10
0.0
 20
0.0
 30
0.0
  9
$UCSORGFRONT
 10
0.0
 20
0.0
 30
0.0
  9
$UCSORGBACK
 10
0.0
 20
0.0
 30
0.0
  9
$PUCSBASE
  2

  9
$PUCSNAME
  2

  9
$PUCSORG
 10
0.0
 20
0.0
 30
0.0
  9
$PUCSXDIR
 10
1.0
 20
0.0
 30
0.0
  9
$PUCSYDIR
 10
0.0
 20
1.0
 30
0.0
  9
$PUCSORTHOREF
  2

  9
$PUCSORTHOVIEW
 70
0
  9
$PUCSORGTOP
 10
0.0
 20
0.0
 30
0.0
  9
$PUCSORGBOTTOM
 10
0.0
 20
0.0
 30
0.0
  9
$PUCSORGLEFT
 10
0.0
 20
0.0
 30
0.0
  9
$PUCSORGRIGHT
 10
0.0
 20
0.0
 30
0.0
  9
$PUCSORGFRONT
 10
0.0
 20
0.0
 30
0.0
  9
$PUCSORGBACK
 10
0.0
 20
0.0
 30
0.0
  9
$USERI1
 70
0
  9
$USERI2
 70
0
  9
$USERI3
 70
0
  9
$USERI4
 70
0
  9
$USERI5
 70
0
  9
$USERR1
 40
0.0
  9
$USERR2
 40
0.0
  9
$USERR3
 40
0.0
  9
$USERR4
 40
0.0
  9
$USERR5
 40
0.0
  9
$WORLDVIEW
 70
1
  9
$SHADEDGE
 70
3
  9
$SHADEDIF
 70
70
  9
$TILEMODE
 70
1
  9
$MAXACTVP
 70
64
  9
$PINSBASE
 10
0.0
 20
0.0
 30
0.0
  9
$PLIMCHECK
 70
0
  9
$PEXTMIN
 10
1e+20
 20
1e+20
 30
1e+20
  9
$PEXTMAX
 10
-1e+20
 20
-1e+20
 30
-1e+20
  9
$PLIMMIN
 10
0.0
 20
0.0
  9
$PLIMMAX
 10
420.0
 20
297.0
  9
$UNITMODE
 70
0
  9
$VISRETAIN
 70
1
  9
$PLINEGEN
 70
0
  9
$PSLTSCALE
 70
1
  9
$TREEDEPTH
 70
3020
  9
$CMLSTYLE
  2
Standard
  9
$CMLJUST
 70
0
  9
$CMLSCALE
 40
20.0
  9
$PROXYGRAPHICS
 70
1
  9
$MEASUREMENT
 70
1
  9
$CELWEIGHT
370
-1
  9
$ENDCAPS
280
0
  9
$JOINSTYLE
280
0
  9
$LWDISPLAY
290
0
  9
$INSUNITS
 70
6
  9
$HYPERLINKBASE
  1

  9
$STYLESHEET
  1

  9
$XEDIT
290
1
  9
$CEPSNTYPE
380
0
  9
$PSTYLEMODE
290
1
  9
$FINGERPRINTGUID
  2
{09F2C660-E9CD-4BC9-A0E6-6E15237B93DD}
  9
$VERSIONGUID
  2
{7DFB0F17-BA1C-4899-825C-7EAEC64FDBAA}
  9
$EXTNAMES
290
1
  9
$PSVPSCALE
 40
0.0
  9
$OLESTARTUP
290
0
  9
$SORTENTS
280
127
  9
$INDEXCTL
280
0
  9
$HIDETEXT
280
1
  9
$XCLIPFRAME
280
0
  9
$HALOGAP
280
0
  9
$OBSCOLOR
 70
257
  9
$OBSLTYPE
280
0
  9
$INTERSECTIONDISPLAY
280
0
  9
$INTERSECTIONCOLOR
 70
257
  9
$DIMASSOC
280
2
  9
$PROJECTNAME
  1

  9
$CAMERADISPLAY
290
0
  9
$LENSLENGTH
 40
50.0
  9
$CAMERAHEIGHT
 40
0.0
  9
$STEPSPERSEC
 40
24.0
  9
$STEPSIZE
 40
100.0
  9
$3DDWFPREC
 40
2.0
  9
$PSOLWIDTH
 40
0.005
  9
$PSOLHEIGHT
 40
0.08
  9
$LOFTANG1
 40
1.570796326795
  9
$LOFTANG2
 40
1.570796326795
  9
$LOFTMAG1
 40
0.0
  9
$LOFTMAG2
 40
0.0
  9
$LOFTPARAM
 70
7
  9
$LOFTNORMALS
280
1
  9
$LATITUDE
 40
37.795
  9
$LONGITUDE
 40
-122.394
  9
$NORTHDIRECTION
 40
0.0
  9
$TIMEZONE
 70
-8000
  9
$LIGHTGLYPHDISPLAY
280
1
  9
$TILEMODELIGHTSYNCH
280
1
  9
$CMATERIAL
347
20
  9
$SOLIDHIST
280
0
  9
$SHOWHIST
280
1
  9
$DWFFRAME
280
2
  9
$DGNFRAME
280
2
  9
$REALWORLDSCALE
290
1
  9
$INTERFERECOLOR
 62
256
  9
$CSHADOW
280
0
  9
$SHADOWPLANELOCATION
 40
0.0
  0
ENDSEC
  0
SECTION
  2
CLASSES
  0
CLASS
  1
ACDBDICTIONARYWDFLT
  2
AcDbDictionaryWithDefault
  3
ObjectDBX Classes
 90
0
 91
0
280
0
281
0
  0
CLASS
  1
SUN
  2
AcDbSun
  3
SCENEOE
 90
1153
 91
0
280
0
281
0
  0
CLASS
  1
VISUALSTYLE
  2
AcDbVisualStyle
  3
ObjectDBX Classes
 90
4095
 91
0
280
0
281
0
  0
CLASS
  1
MATERIAL
  2
AcDbMaterial
  3
ObjectDBX Classes
 90
1153
 91
0
280
0
281
0
  0
CLASS
  1
SCALE
  2
AcDbScale
  3
ObjectDBX Classes
 90
1153
 91
0
280
0
281
0
  0
CLASS
  1
TABLESTYLE
  2
AcDbTableStyle
  3
ObjectDBX Classes
 90
4095
 91
0
280
0
281
0
  0
CLASS
  1
MLEADERSTYLE
  2
AcDbMLeaderStyle
  3
ACDB_MLEADERSTYLE_CLASS
 90
4095
 91
0
280
0
281
0
  0
CLASS
  1
DICTIONARYVAR
  2
AcDbDictionaryVar
  3
ObjectDBX Classes
 90
0
 91
0
280
0
281
0
  0
CLASS
  1
CELLSTYLEMAP
  2
AcDbCellStyleMap
  3
ObjectDBX Classes
 90
1152
 91
0
280
0
281
0
  0
CLASS
  1
MENTALRAYRENDERSETTINGS
  2
AcDbMentalRayRenderSettings
  3
SCENEOE
 90
1024
 91
0
280
0
281
0
  0
CLASS
  1
ACDBDETAILVIEWSTYLE
  2
AcDbDetailViewStyle
  3
ObjectDBX Classes
 90
1025
 91
0
280
0
281
0
  0
CLASS
  1
ACDBSECTIONVIEWSTYLE
  2
AcDbSectionViewStyle
  3
ObjectDBX Classes
 90
1025
 91
0
280
0
281
0
  0
CLASS
  1
RASTERVARIABLES
  2
AcDbRasterVariables
  3
ISM
 90
0
 91
0
280
0
281
0
  0
CLASS
  1
LAYOUT
  2
AcDbLayout
  3
ObjectDBX Classes
 90
0
 91
0
280
0
281
0
  0
CLASS
  1
ACDBPLACEHOLDER
  2
AcDbPlaceHolder
  3
ObjectDBX Classes
 90
0
 91
0
280
0
281
0
  0
ENDSEC
  0
SECTION
  2
TABLES
  0
TABLE
  2
VPORT
  5
8
330
0
100
AcDbSymbolTable
 70
1
  0
VPORT
  5
23
330
8
100
AcDbSymbolTableRecord
100
AcDbViewportTableRecord
  2
*Active
 70
0
 10
0.0
 20
0.0
 11
1.0
 21
1.0
 12
0.0
 22
0.0
 13
0.0
 23
0.0
 14
0.5
 24
0.5
 15
0.5
 25
0.5
 16
0.0
 26
0.0
 36
1.0
 17
0.0
 27
0.0
 37
0.0
 40
1000.0
 41
1.34
 42
50.0
 43
0.0
 44
0.0
 50
0.0
 51
0.0
 71
0
 72
1000
 73
1
 74
3
 75
0
 76
0
 77
0
 78
0
281
0
 65
0
146
0.0
  0
ENDTAB
  0
TABLE
  2
LTYPE
  5
2
330
0
100
AcDbSymbolTable
 70
3
  0
LTYPE
  5
24
330
2
100
AcDbSymbolTableRecord
100
AcDbLinetypeTableRecord
  2
ByBlock
 70
0
  3

 72
65
 73
0
 40
0.0
  0
LTYPE
  5
25
330
2
100
AcDbSymbolTableRecord
100
AcDbLinetypeTableRecord
  2
ByLayer
 70
0
  3

 72
65
 73
0
 40
0.0
  0
LTYPE
  5
26
330
2
100
AcDbSymbolTableRecord
100
AcDbLinetypeTableRecord
  2
Continuous
 70
0
  3

 72
65
 73
0
 40
0.0
  0
ENDTAB
  0
TABLE
  2
LAYER
  5
1
330
0
100
AcDbSymbolTable
 70
2
  0
LAYER
  5
27
330
1
100
AcDbSymbolTableRecord
100
AcDbLayerTableRecord
  2
0
 70
0
 62
7
  6
Continuous
370
-3
390
13
347
21
  0
LAYER
  5
28
330
1
100
AcDbSymbolTableRecord
100
AcDbLayerTableRecord
  2
Defpoints
 70
0
 62
7
  6
Continuous
290
0
370
-3
390
13
347
21
  0
ENDTAB
  0
TABLE
  2
STYLE
  5
5
330
0
100
AcDbSymbolTable
 70
1
  0
STYLE
  5
29
330
5
100
AcDbSymbolTableRecord
100
AcDbTextStyleTableRecord
  2
Standard
 70
0
 40
0.0
 41
1.0
 50
0.0
 71
0
 42
2.5
  3
txt
  4

  0
ENDTAB
  0
TABLE
  2
VIEW
  5
7
330
0
100
AcDbSymbolTable
 70
0
  0
ENDTAB
  0
TABLE
  2
UCS
  5
6
330
0
100
AcDbSymbolTable
 70
0
  0
ENDTAB
  0
TABLE
  2
APPID
  5
3
330
0
100
AcDbSymbolTable
 70
3
  0
APPID
  5
2A
330
3
100
AcDbSymbolTableRecord
100
AcDbRegAppTableRecord
  2
ACAD
 70
0
  0
APPID
  5
38
330
3
100
AcDbSymbolTableRecord
100
AcDbRegAppTableRecord
  2
HATCHBACKGROUNDCOLOR
 70
0
  0
APPID
  5
39
330
3
100
AcDbSymbolTableRecord
100
AcDbRegAppTableRecord
  2
EZDXF
 70
0
  0
ENDTAB
  0
TABLE
  2
DIMSTYLE
  5
4
330
0
100
AcDbSymbolTable
 70
1
100
AcDbDimStyleTable
  0
DIMSTYLE
105
2B
330
4
100
AcDbSymbolTableRecord
100
AcDbDimStyleTableRecord
  2
Standard
 70
0
 40
1.0
 41
2.5
 42
0.625
 43
3.75
 44
1.25
 45
0.0
 46
0.0
 47
0.0
 48
0.0
 49
2.5
140
2.5
141
2.5
142
0.0
143
0.03937007874
144
1.0
145
0.0
146
1.0
147
0.625
148
0.0
 69
0
 70
0
 71
0
 72
0
 73
0
 74
0
 75
0
 76
0
 77
1
 78
8
 79
3
170
0
171
3
172
1
173
0
174
0
175
0
176
0
177
0
178
0
179
2
271
2
272
2
273
2
274
3
275
0
276
0
277
2
278
44
279
0
280
0
281
0
282
0
283
0
284
8
285
0
286
0
288
0
289
3
290
0
371
-2
372
-2
  0
ENDTAB
  0
TABLE
  2
BLOCK_RECORD
  5
9
330
0
100
AcDbSymbolTable
 70
2
  0
BLOCK_RECORD
  5
17
330
9
100
AcDbSymbolTableRecord
100
AcDbBlockTableRecord
  2
*Model_Space
340
1A
 70
0
280
1
281
0
  0
BLOCK_RECORD
  5
1B
330
9
100
AcDbSymbolTableRecord
100
AcDbBlockTableRecord
  2
*Paper_Space
340
1E
 70
0
280
1
281
0
  0
ENDTAB
  0
ENDSEC
  0
SECTION
  2
BLOCKS
  0
BLOCK
  5
18
330
17
100
AcDbEntity
  8
0
100
AcDbBlockBegin
  2
*Model_Space
 70
0
 10
0.0
 20
0.0
 30
0.0
  3
*Model_Space
  1

  0
ENDBLK
  5
19
330
17
100
AcDbEntity
  8
0
100
AcDbBlockEnd
  0
BLOCK
  5
1C
330
1B
100
AcDbEntity
  8
0
100
AcDbBlockBegin
  2
*Paper_Space
 70
0
 10
0.0
 20
0.0
 30
0.0
  3
*Paper_Space
  1

  0
ENDBLK
  5
1D
330
1B
100
AcDbEntity
  8
0
100
AcDbBlockEnd
  0
ENDSEC
  0
SECTION
  2
ENTITIES
  0
LWPOLYLINE
  5
2F
330
17
100
AcDbEntity
  8
0
100
AcDbPolyline
 90
51
 70
0
 10
-1.5999999999999983
 20
12.0
 10
-1.5999999999999983
 20
11.86
 10
-1.5999999999999985
 20
11.719999999999999
 10
-1.5999999999999985
 20
11.58
 10
-1.5999999999999985
 20
11.44
 10
-1.5999999999999985
 20
11.3
 10
-1.5999999999999985
 20
11.16
 10
-1.5999999999999985
 20
11.02
 10
-1.5999999999999985
 20
10.879999999999999
 10
-1.5999999999999988
 20
10.74
 10
-1.5999999999999988
 20
10.6
 10
-1.5999999999999988
 20
10.46
 10
-1.5999999999999988
 20
10.32
 10
-1.5999999999999988
 20
10.18
 10
-1.5999999999999988
 20
10.04
 10
-1.599999999999999
 20
9.9
 10
-1.599999999999999
 20
9.76
 10
-1.599999999999999
 20
9.620000000000001
 10
-1.599999999999999
 20
9.48
 10
-1.599999999999999
 20
9.34
 10
-1.599999999999999
 20
9.2
 10
-1.599999999999999
 20
9.06
 10
-1.5999999999999992
 20
8.92
 10
-1.5999999999999992
 20
8.78
 10
-1.5999999999999992
 20
8.64
 10
-1.5999999999999992
 20
8.5
 10
-1.5999999999999992
 20
8.36
 10
-1.5999999999999992
 20
8.22
 10
-1.5999999999999994
 20
8.08
 10
-1.5999999999999994
 20
7.94
 10
-1.5999999999999994
 20
7.8
 10
-1.5999999999999994
 20
7.66
 10
-1.5999999999999994
 20
7.52
 10
-1.5999999999999994
 20
7.38
 10
-1.5999999999999996
 20
7.24
 10
-1.5999999999999996
 20
7.1
 10
-1.5999999999999996
 20
6.96
 10
-1.5999999999999996
 20
6.82
 10
-1.5999999999999996
 20
6.68
 10
-1.5999999999999996
 20
6.54
 10
-1.5999999999999996
 20
6.4
 10
-1.5999999999999999
 20
6.26
 10
-1.5999999999999999
 20
6.12
 10
-1.5999999999999999
 20
5.98
 10
-1.5999999999999999
 20
5.84
 10
-1.5999999999999999
 20
5.7
 10
-1.5999999999999999
 20
5.56
 10
-1.6
 20
5.42
 10
-1.6
 20
5.28
 10
-1.6
 20
5.14
 10
-1.6
 20
5.0
  0
LWPOLYLINE
  5
30
330
17
100
AcDbEntity
  8
0
100
AcDbPolyline
 90
51
 70
0
 10
-15.6
 20
1.1084466677857559e-15
 10
-14.475999999999999
 20
1.0285816642863206e-15
 10
-13.352
 20
9.487166607868856e-16
 10
-12.228
 20
8.688516572874502e-16
 10
-11.104
 20
7.889866537880149e-16
 10
-9.98
 20
7.091216502885798e-16
 10
-8.855999999999998
 20
6.292566467891444e-16
 10
-7.731999999999999
 20
5.493916432897093e-16
 10
-6.607999999999999
 20
4.69526639790274e-16
 10
-5.484
 20
3.896616362908388e-16
 10
-4.359999999999999
 20
3.0979663279140353e-16
 10
-3.235999999999999
 20
2.2993162929196827e-16
 10
-2.1119999999999983
 20
1.5006662579253299e-16
 10
-0.9879999999999995
 20
7.020162229309785e-17
 10
0.136000000000001
 20
-9.663381206337431e-18
 10
1.2599999999999998
 20
-8.952838470577257e-17
 10
2.384000000000002
 20
-1.6939338820520798e-16
 10
3.508000000000001
 20
-2.4925839170464315e-16
 10
4.632
 20
-3.2912339520407826e-16
 10
5.7559999999999985
 20
-4.089883987035134e-16
 10
6.880000000000001
 20
-4.888534022029488e-16
 10
8.004
 20
-5.68718405702384e-16
 10
9.128000000000002
 20
-6.485834092018194e-16
 10
10.252000000000004
 20
-7.284484127012548e-16
 10
11.376000000000003
 20
-8.083134162006899e-16
 10
12.500000000000002
 20
-8.88178419700125e-16
 10
13.624
 20
-9.680434231995603e-16
 10
14.748000000000003
 20
-1.0479084266989956e-15
 10
15.872000000000002
 20
-1.1277734301984308e-15
 10
16.996000000000002
 20
-1.207638433697866e-15
 10
18.119999999999997
 20
-1.287503437197301e-15
 10
19.244
 20
-1.3673684406967364e-15
 10
20.368000000000002
 20
-1.4472334441961717e-15
 10
21.492000000000004
 20
-1.5270984476956071e-15
 10
22.616
 20
-1.606963451195042e-15
 10
23.740000000000002
 20
-1.6868284546944774e-15
 10
24.863999999999997
 20
-1.7666934581939123e-15
 10
25.988
 20
-1.8465584616933476e-15
 10
27.111999999999995
 20
-1.9264234651927826e-15
 10
28.236000000000004
 20
-2.0062884686922185e-15
 10
29.36
 20
-2.0861534721916536e-15
 10
30.484
 20
-2.166018475691089e-15
 10
31.607999999999997
 20
-2.2458834791905237e-15
 10
32.732
 20
-2.325748482689959e-15
 10
33.856
 20
-2.4056134861893946e-15
 10
34.98
 20
-2.4854784896888293e-15
 10
36.104000000000006
 20
-2.5653434931882655e-15
 10
37.228
 20
-2.6452084966877e-15
 10
38.352000000000004
 20
-2.7250735001871356e-15
 10
39.476
 20
-2.8049385036865707e-15
 10
40.6
 20
-2.8848035071860058e-15
  0
LWPOLYLINE
  5
31
330
17
100
AcDbEntity
  8
0
100
AcDbPolyline
 90
51
 70
0
 10
40.6
 20
-2.88480350718601e-15
 10
40.6
 20
0.09999999999999716
 10
40.6
 20
0.1999999999999972
 10
40.6
 20
0.29999999999999727
 10
40.6
 20
0.3999999999999973
 10
40.6
 20
0.49999999999999745
 10
40.6
 20
0.5999999999999974
 10
40.6
 20
0.6999999999999975
 10
40.6
 20
0.7999999999999975
 10
40.6
 20
0.8999999999999976
 10
40.6
 20
0.9999999999999978
 10
40.6
 20
1.0999999999999976
 10
40.6
 20
1.1999999999999977
 10
40.6
 20
1.2999999999999976
 10
40.6
 20
1.399999999999998
 10
40.6
 20
1.499999999999998
 10
40.6
 20
1.5999999999999979
 10
40.6
 20
1.699999999999998
 10
40.6
 20
1.799999999999998
 10
40.6
 20
1.8999999999999984
 10
40.6
 20
1.9999999999999987
 10
40.6
 20
2.0999999999999983
 10
40.6
 20
2.1999999999999984
 10
40.6
 20
2.2999999999999985
 10
40.6
 20
2.3999999999999986
 10
40.6
 20
2.4999999999999987
 10
40.6
 20
2.5999999999999983
 10
40.6
 20
2.699999999999999
 10
40.6
 20
2.799999999999999
 10
40.6
 20
2.899999999999999
 10
40.6
 20
2.999999999999999
 10
40.6
 20
3.099999999999999
 10
40.6
 20
3.199999999999999
 10
40.6
 20
3.299999999999999
 10
40.6
 20
3.399999999999999
 10
40.6
 20
3.499999999999999
 10
40.6
 20
3.599999999999999
 10
40.6
 20
3.699999999999999
 10
40.6
 20
3.8
 10
40.6
 20
3.8999999999999995
 10
40.6
 20
4.0
 10
40.6
 20
4.1
 10
40.6
 20
4.199999999999999
 10
40.6
 20
4.3
 10
40.6
 20
4.3999999999999995
 10
40.6
 20
4.5
 10
40.6
 20
4.6
 10
40.6
 20
4.699999999999999
 10
40.6
 20
4.8
 10
40.6
 20
4.9
 10
40.6
 20
5.0
  0
LWPOLYLINE
  5
32
330
17
100
AcDbEntity
  8
0
100
AcDbPolyline
 90
51
 70
0
 10
-1.6000000000000014
 20
5.0
 10
-1.1680000000000028
 20
5.0
 10
-0.7360000000000007
 20
5.0
 10
-0.30400000000000205
 20
5.0
 10
0.1280000000000001
 20
5.0
 10
0.5599999999999987
 20
5.0
 10
0.9919999999999973
 20
5.0
 10
1.4239999999999995
 20
5.0
 10
1.855999999999998
 20
5.0
 10
2.2879999999999967
 20
5.0
 10
2.719999999999999
 20
5.0
 10
3.152000000000001
 20
5.0
 10
3.5839999999999996
 20
5.0
 10
4.015999999999998
 20
5.0
 10
4.448
 20
5.0
 10
4.879999999999999
 20
5.0
 10
5.311999999999998
 20
5.0
 10
5.744
 20
5.0
 10
6.175999999999998
 20
5.0
 10
6.607999999999997
 20
5.0
 10
7.039999999999999
 20
5.0
 10
7.472000000000001
 20
5.0
 10
7.904
 20
5.0
 10
8.335999999999999
 20
5.0
 10
8.768
 20
5.0
 10
9.2
 20
5.0
 10
9.632
 20
5.0
 10
10.064
 20
5.0
 10
10.496
 20
5.0
 10
10.928
 20
5.0
 10
11.36
 20
5.0
 10
11.792
 20
5.0
 10
12.224
 20
5.0
 10
12.656
 20
5.0
 10
13.088000000000001
 20
5.0
 10
13.519999999999998
 20
5.0
 10
13.951999999999998
 20
5.0
 10
14.384
 20
5.0
 10
14.815999999999999
 20
5.0
 10
15.248000000000001
 20
5.0
 10
15.68
 20
5.0
 10
16.112
 20
5.0
 10
16.544
 20
5.0
 10
16.976
 20
5.0
 10
17.408
 20
5.0
 10
17.84
 20
5.0
 10
18.272
 20
5.0
 10
18.704
 20
5.0
 10
19.136000000000003
 20
5.0
 10
19.568
 20
5.0
 10
20.0
 20
5.0
  0
LWPOLYLINE
  5
33
330
17
100
AcDbEntity
  8
0
100
AcDbPolyline
 90
51
 70
0
 10
40.6
 20
5.0
 10
39.756
 20
5.0
 10
38.912
 20
5.0
 10
38.068
 20
5.0
 10
37.224000000000004
 20
5.0
 10
36.38
 20
5.0
 10
35.536
 20
5.0
 10
34.692
 20
5.0
 10
33.848
 20
5.0
 10
33.004000000000005
 20
5.0
 10
32.160000000000004
 20
5.0
 10
31.316000000000003
 20
5.0
 10
30.472
 20
5.0
 10
29.628
 20
5.0
 10
28.784
 20
5.0
 10
27.94
 20
5.0
 10
27.096
 20
5.0
 10
26.252
 20
5.0
 10
25.408
 20
5.0
 10
24.564
 20
5.0
 10
23.720000000000002
 20
5.0
 10
22.876
 20
5.0
 10
22.032
 20
5.0
 10
21.188000000000002
 20
5.0
 10
20.344
 20
5.0
 10
19.5
 20
5.0
 10
18.656
 20
5.0
 10
17.812
 20
5.0
 10
16.968
 20
5.0
 10
16.124
 20
5.0
 10
15.280000000000001
 20
5.0
 10
14.436
 20
5.0
 10
13.591999999999999
 20
5.0
 10
12.747999999999998
 20
5.0
 10
11.903999999999996
 20
5.0
 10
11.060000000000002
 20
5.0
 10
10.216000000000001
 20
5.0
 10
9.372
 20
5.0
 10
8.527999999999999
 20
5.0
 10
7.6839999999999975
 20
5.0
 10
6.840000000000003
 20
5.0
 10
5.996000000000002
 20
5.0
 10
5.152000000000001
 20
5.0
 10
4.308
 20
5.0
 10
3.4639999999999986
 20
5.0
 10
2.6199999999999974
 20
5.0
 10
1.7760000000000034
 20
5.0
 10
0.9320000000000022
 20
5.0
 10
0.08800000000000097
 20
5.0
 10
-0.7560000000000002
 20
5.0
 10
-1.6000000000000014
 20
5.0
  0
LWPOLYLINE
  5
34
330
17
100
AcDbEntity
  8
0
100
AcDbPolyline
 90
51
 70
0
 10
-1.6
 20
5.0
 10
-1.6
 20
5.14
 10
-1.6
 20
5.28
 10
-1.6
 20
5.42
 10
-1.5999999999999999
 20
5.5600000000000005
 10
-1.5999999999999999
 20
5.7
 10
-1.5999999999999999
 20
5.84
 10
-1.5999999999999999
 20
5.98
 10
-1.5999999999999999
 20
6.12
 10
-1.5999999999999999
 20
6.26
 10
-1.5999999999999996
 20
6.4
 10
-1.5999999999999996
 20
6.54
 10
-1.5999999999999996
 20
6.68
 10
-1.5999999999999996
 20
6.82
 10
-1.5999999999999996
 20
6.96
 10
-1.5999999999999996
 20
7.1
 10
-1.5999999999999996
 20
7.24
 10
-1.5999999999999994
 20
7.38
 10
-1.5999999999999994
 20
7.52
 10
-1.5999999999999994
 20
7.66
 10
-1.5999999999999994
 20
7.8
 10
-1.5999999999999994
 20
7.9399999999999995
 10
-1.5999999999999994
 20
8.08
 10
-1.5999999999999992
 20
8.22
 10
-1.5999999999999992
 20
8.36
 10
-1.5999999999999992
 20
8.5
 10
-1.5999999999999992
 20
8.64
 10
-1.5999999999999992
 20
8.78
 10
-1.5999999999999992
 20
8.92
 10
-1.599999999999999
 20
9.059999999999999
 10
-1.599999999999999
 20
9.2
 10
-1.599999999999999
 20
9.34
 10
-1.599999999999999
 20
9.48
 10
-1.599999999999999
 20
9.620000000000001
 10
-1.599999999999999
 20
9.76
 10
-1.599999999999999
 20
9.9
 10
-1.5999999999999988
 20
10.04
 10
-1.5999999999999988
 20
10.18
 10
-1.5999999999999988
 20
10.32
 10
-1.5999999999999988
 20
10.46
 10
-1.5999999999999988
 20
10.6
 10
-1.5999999999999988
 20
10.74
 10
-1.5999999999999985
 20
10.879999999999999
 10
-1.5999999999999985
 20
11.02
 10
-1.5999999999999985
 20
11.16
 10
-1.5999999999999985
 20
11.3
 10
-1.5999999999999985
 20
11.440000000000001
 10
-1.5999999999999985
 20
11.58
 10
-1.5999999999999985
 20
11.719999999999999
 10
-1.5999999999999983
 20
11.86
 10
-1.5999999999999983
 20
12.0
  0
LWPOLYLINE
  5
35
330
17
100
AcDbEntity
  8
0
100
AcDbPolyline
 90
51
 70
0
 10
-1.5999999999999996
 20
11.999999999999998
 10
-1.613812901002099
 20
12.439533636705189
 10
-1.6551970907986542
 20
12.877332634950129
 10
-1.7239892448991787
 20
13.31166920210007
 10
-1.8199178720995821
 20
13.740829210153985
 10
-1.9426043859339241
 20
14.16311896062463
 10
-2.091564598782239
 20
14.576871868792741
 10
-2.266210632737863
 20
14.980455040955508
 10
-2.4658532396929527
 20
15.372275718712004
 10
-2.6897045214858952
 20
15.750787564852978
 10
-2.9368810393753666
 20
16.11449676604731
 10
-3.206407300569473
 20
16.461967928240824
 10
-3.497219608050119
 20
16.79182974150082
 10
-3.8081702584991772
 20
17.102780391949878
 10
-4.138032071759172
 20
17.393592699430528
 10
-4.485503233952686
 20
17.66311896062463
 10
-4.84921243514702
 20
17.910295478514104
 10
-5.227724281287992
 20
18.134146760307047
 10
-5.619544959044489
 20
18.333789367262135
 10
-6.023128131207255
 20
18.50843540121776
 10
-6.436881039375366
 20
18.657395614066075
 10
-6.859170789846012
 20
18.780082127900418
 10
-7.288330797899927
 20
18.876010755100822
 10
-7.722667365049867
 20
18.944802909201343
 10
-8.160466363294807
 20
18.986187098997902
 10
-8.599999999999998
 20
19.0
 10
-9.039533636705189
 20
18.986187098997902
 10
-9.477332634950129
 20
18.944802909201346
 10
-9.91166920210007
 20
18.876010755100822
 10
-10.340829210153984
 20
18.780082127900418
 10
-10.763118960624631
 20
18.657395614066075
 10
-11.176871868792741
 20
18.50843540121776
 10
-11.580455040955508
 20
18.333789367262135
 10
-11.972275718712009
 20
18.134146760307043
 10
-12.350787564852975
 20
17.910295478514104
 10
-12.71449676604731
 20
17.663118960624633
 10
-13.061967928240824
 20
17.393592699430528
 10
-13.391829741500821
 20
17.10278039194988
 10
-13.70278039194988
 20
16.791829741500823
 10
-13.993592699430526
 20
16.461967928240828
 10
-14.263118960624631
 20
16.114496766047314
 10
-14.510295478514102
 20
15.75078756485298
 10
-14.734146760307045
 20
15.372275718712007
 10
-14.933789367262136
 20
14.980455040955512
 10
-15.10843540121776
 20
14.576871868792745
 10
-15.257395614066073
 20
14.163118960624633
 10
-15.380082127900415
 20
13.740829210153988
 10
-15.47601075510082
 20
13.311669202100074
 10
-15.544802909201344
 20
12.877332634950132
 10
-15.5861870989979
 20
12.439533636705193
 10
-15.6
 20
12.000000000000002
  0
LWPOLYLINE
  5
36
330
17
100
AcDbEntity
  8
0
100
AcDbPolyline
 90
51
 70
0
 10
-15.6
 20
12.0
 10
-15.6
 20
11.76
 10
-15.6
 20
11.52
 10
-15.6
 20
11.28
 10
-15.6
 20
11.04
 10
-15.6
 20
10.8
 10
-15.6
 20
10.56
 10
-15.6
 20
10.32
 10
-15.6
 20
10.08
 10
-15.6
 20
9.84
 10
-15.6
 20
9.6
 10
-15.6
 20
9.36
 10
-15.6
 20
9.120000000000001
 10
-15.6
 20
8.879999999999999
 10
-15.6
 20
8.64
 10
-15.6
 20
8.4
 10
-15.6
 20
8.16
 10
-15.6
 20
7.92
 10
-15.6
 20
7.68
 10
-15.6
 20
7.44
 10
-15.6
 20
7.2
 10
-15.6
 20
6.96
 10
-15.6
 20
6.72
 10
-15.6
 20
6.48
 10
-15.6
 20
6.24
 10
-15.6
 20
6.0
 10
-15.6
 20
5.76
 10
-15.6
 20
5.52
 10
-15.6
 20
5.28
 10
-15.6
 20
5.04
 10
-15.6
 20
4.8
 10
-15.6
 20
4.56
 10
-15.6
 20
4.32
 10
-15.6
 20
4.08
 10
-15.6
 20
3.84
 10
-15.6
 20
3.5999999999999996
 10
-15.6
 20
3.3599999999999994
 10
-15.6
 20
3.119999999999999
 10
-15.6
 20
2.880000000000001
 10
-15.6
 20
2.6400000000000006
 10
-15.6
 20
2.4000000000000004
 10
-15.6
 20
2.16
 10
-15.6
 20
1.92
 10
-15.6
 20
1.6799999999999997
 10
-15.6
 20
1.4399999999999995
 10
-15.6
 20
1.1999999999999993
 10
-15.6
 20
0.9600000000000009
 10
-15.6
 20
0.7200000000000006
 10
-15.6
 20
0.4800000000000004
 10
-15.6
 20
0.2400000000000002
 10
-15.600000000000001
 20
0.0
  0
LWPOLYLINE
  5
37
330
17
100
AcDbEntity
  8
0
100
AcDbPolyline
 90
51
 70
0
 10
-8.6
 20
16.0
 10
-9.101332934257217
 20
15.968458805257912
 10
-9.594759548659418
 20
15.874332644514524
 10
-10.072498210738711
 20
15.719105943553005
 10
-10.52701469640686
 20
15.505226720175454
 10
-10.951141009169891
 20
15.23606797749979
 10
-11.338188423714755
 20
14.915874509685647
 10
-11.682052971103158
 20
14.549695958994759
 10
-11.977311702008059
 20
14.143307179915986
 10
-12.219308209864078
 20
13.703117166260292
 10
-12.404226065180614
 20
13.23606797749979
 10
-12.529149002914753
 20
12.7495252583429
 10
-12.592106913713085
 20
12.251162078117254
 10
-12.592106913713085
 20
11.748837921882746
 10
-12.529149002914755
 20
11.2504747416571
 10
-12.404226065180614
 20
10.763932022500212
 10
-12.219308209864078
 20
10.296882833739708
 10
-11.977311702008059
 20
9.856692820084012
 10
-11.682052971103158
 20
9.450304041005241
 10
-11.338188423714755
 20
9.084125490314355
 10
-10.951141009169893
 20
8.76393202250021
 10
-10.52701469640686
 20
8.494773279824546
 10
-10.072498210738711
 20
8.280894056446995
 10
-9.59475954865942
 20
8.125667355485476
 10
-9.101332934257218
 20
8.03154119474209
 10
-8.6
 20
8.0
 10
-8.098667065742783
 20
8.031541194742088
 10
-7.605240451340581
 20
8.125667355485476
 10
-7.127501789261288
 20
8.280894056446995
 10
-6.672985303593138
 20
8.494773279824546
 10
-6.248858990830109
 20
8.763932022500208
 10
-5.8618115762852465
 20
9.084125490314353
 10
-5.517947028896842
 20
9.450304041005243
 10
-5.2226882979919385
 20
9.856692820084014
 10
-4.9806917901359204
 20
10.296882833739712
 10
-4.795773934819385
 20
10.76393202250021
 10
-4.670850997085244
 20
11.2504747416571
 10
-4.607893086286913
 20
11.748837921882748
 10
-4.607893086286913
 20
12.251162078117252
 10
-4.670850997085244
 20
12.749525258342898
 10
-4.795773934819385
 20
13.23606797749979
 10
-4.98069179013592
 20
13.703117166260288
 10
-5.22268829799194
 20
14.143307179915986
 10
-5.517947028896842
 20
14.549695958994757
 10
-5.861811576285244
 20
14.915874509685645
 10
-6.248858990830106
 20
15.23606797749979
 10
-6.672985303593135
 20
15.505226720175452
 10
-7.127501789261288
 20
15.719105943553005
 10
-7.6052404513405785
 20
15.874332644514524
 10
-8.09866706574278
 20
15.96845880525791
 10
-8.599999999999998
 20
16.0
  0
ENDSEC
  0
SECTION
  2
OBJECTS
  0
DICTIONARY
  5
A
330
0
100
AcDbDictionary
280
0
281
1
  3
ACAD_COLOR
350
B
  3
ACAD_GROUP
350
C
  3
ACAD_LAYOUT
350
D
  3
ACAD_MATERIAL
350
E
  3
ACAD_MLEADERSTYLE
350
F
  3
ACAD_MLINESTYLE
350
10
  3
ACAD_PLOTSETTINGS
350
11
  3
ACAD_PLOTSTYLENAME
350
12
  3
ACAD_SCALELIST
350
14
  3
ACAD_TABLESTYLE
350
15
  3
ACAD_VISUALSTYLE
350
16
  3
EZDXF_META
350
2D
  0
DICTIONARY
  5
B
330
A
100
AcDbDictionary
280
0
281
1
  0
DICTIONARY
  5
C
330
A
100
AcDbDictionary
280
0
281
1
  0
DICTIONARY
  5
D
330
A
100
AcDbDictionary
280
0
281
1
  3
Model
350
1A
  3
Layout1
350
1E
  0
DICTIONARY
  5
E
330
A
100
AcDbDictionary
280
0
281
1
  3
ByBlock
350
1F
  3
ByLayer
350
20
  3
Global
350
21
  0
DICTIONARY
  5
F
330
A
100
AcDbDictionary
280
0
281
1
  3
Standard
350
2C
  0
DICTIONARY
  5
10
330
A
100
AcDbDictionary
280
0
281
1
  3
Standard
350
22
  0
DICTIONARY
  5
11
330
A
100
AcDbDictionary
280
0
281
1
  0
ACDBDICTIONARYWDFLT
  5
12
330
A
100
AcDbDictionary
280
0
281
1
  3
Normal
350
13
100
AcDbDictionaryWithDefault
340
13
  0
ACDBPLACEHOLDER
  5
13
330
12
  0
DICTIONARY
  5
14
330
A
100
AcDbDictionary
280
0
281
1
  0
DICTIONARY
  5
15
330
A
100
AcDbDictionary
280
0
281
1
  0
DICTIONARY
  5
16
330
A
100
AcDbDictionary
280
0
281
1
  0
LAYOUT
  5
1A
330
D
100
AcDbPlotSettings
  1

  2
Adobe PDF
  4
A3
  6

 40
7.5
 41
20.0
 42
7.5
 43
20.0
 44
420.0
 45
297.0
 46
0.0
 47
0.0
 48
0.0
 49
0.0
140
0.0
141
0.0
142
1.0
143
1.0
 70
1024
 72
1
 73
0
 74
5
  7

 75
16
 76
0
 77
2
 78
300
147
1.0
148
0.0
149
0.0
100
AcDbLayout
  1
Model
 70
1
 71
0
 10
0.0
 20
0.0
 11
420.0
 21
297.0
 12
0.0
 22
0.0
 32
0.0
 14
1e+20
 24
1e+20
 34
1e+20
 15
-1e+20
 25
-1e+20
 35
-1e+20
146
0.0
 13
0.0
 23
0.0
 33
0.0
 16
1.0
 26
0.0
 36
0.0
 17
0.0
 27
1.0
 37
0.0
 76
1
330
17
  0
LAYOUT
  5
1E
330
D
100
AcDbPlotSettings
  1

  2
Adobe PDF
  4
A3
  6

 40
7.5
 41
20.0
 42
7.5
 43
20.0
 44
420.0
 45
297.0
 46
0.0
 47
0.0
 48
0.0
 49
0.0
140
0.0
141
0.0
142
1.0
143
1.0
 70
0
 72
1
 73
0
 74
5
  7

 75
16
 76
0
 77
2
 78
300
147
1.0
148
0.0
149
0.0
100
AcDbLayout
  1
Layout1
 70
1
 71
1
 10
0.0
 20
0.0
 11
420.0
 21
297.0
 12
0.0
 22
0.0
 32
0.0
 14
1e+20
 24
1e+20
 34
1e+20
 15
-1e+20
 25
-1e+20
 35
-1e+20
146
0.0
 13
0.0
 23
0.0
 33
0.0
 16
1.0
 26
0.0
 36
0.0
 17
0.0
 27
1.0
 37
0.0
 76
1
330
1B
  0
MATERIAL
  5
1F
102
{ACAD_REACTORS
330
E
102
}
330
E
100
AcDbMaterial
  1
ByBlock
  2

 70
0
 40
1.0
 71
1
 41
1.0
 91
-1023410177
 42
1.0
 72
1
  3

 73
1
 74
1
 75
1
 44
0.5
 73
0
 45
1.0
 46
1.0
 77
1
  4

 78
1
 79
1
170
1
 48
1.0
171
1
  6

172
1
173
1
174
1
140
1.0
141
1.0
175
1
  7

176
1
177
1
178
1
143
1.0
179
1
  8

270
1
271
1
272
1
145
1.0
146
1.0
273
1
  9

274
1
275
1
276
1
 42
1.0
 72
1
  3

 73
1
 74
1
 75
1
 94
63
  0
MATERIAL
  5
20
102
{ACAD_REACTORS
330
E
102
}
330
E
100
AcDbMaterial
  1
ByLayer
  2

 70
0
 40
1.0
 71
1
 41
1.0
 91
-1023410177
 42
1.0
 72
1
  3

 73
1
 74
1
 75
1
 44
0.5
 73
0
 45
1.0
 46
1.0
 77
1
  4

 78
1
 79
1
170
1
 48
1.0
171
1
  6

172
1
173
1
174
1
140
1.0
141
1.0
175
1
  7

176
1
177
1
178
1
143
1.0
179
1
  8

270
1
271
1
272
1
145
1.0
146
1.0
273
1
  9

274
1
275
1
276
1
 42
1.0
 72
1
  3

 73
1
 74
1
 75
1
 94
63
  0
MATERIAL
  5
21
102
{ACAD_REACTORS
330
E
102
}
330
E
100
AcDbMaterial
  1
Global
  2

 70
0
 40
1.0
 71
1
 41
1.0
 91
-1023410177
 42
1.0
 72
1
  3

 73
1
 74
1
 75
1
 44
0.5
 73
0
 45
1.0
 46
1.0
 77
1
  4

 78
1
 79
1
170
1
 48
1.0
171
1
  6

172
1
173
1
174
1
140
1.0
141
1.0
175
1
  7

176
1
177
1
178
1
143
1.0
179
1
  8

270
1
271
1
272
1
145
1.0
146
1.0
273
1
  9

274
1
275
1
276
1
 42
1.0
 72
1
  3

 73
1
 74
1
 75
1
 94
63
  0
MLINESTYLE
  5
22
102
{ACAD_REACTORS
330
10
102
}
330
10
100
AcDbMlineStyle
  2
Standard
 70
0
  3

 62
256
 51
90.0
 52
90.0
 71
2
 49
0.5
 62
256
  6
BYLAYER
 49
-0.5
 62
256
  6
BYLAYER
  0
MLEADERSTYLE
  5
2C
102
{ACAD_REACTORS
330
F
102
}
330
F
100
AcDbMLeaderStyle
179
2
170
2
171
1
172
0
 90
2
 40
0.0
 41
0.0
173
1
 91
-1056964608
 92
-2
290
1
 42
2.0
291
1
 43
8.0
  3
Standard
 44
4.0
300

342
29
174
1
175
1
176
0
178
1
 93
-1056964608
 45
4.0
292
0
297
0
 46
4.0
 94
-1056964608
 47
1.0
 49
1.0
140
1.0
294
1
141
0.0
177
0
142
1.0
295
0
296
0
143
3.75
271
0
272
9
273
9
  0
DICTIONARY
  5
2D
330
A
100
AcDbDictionary
281
1
  3
CREATED_BY_EZDXF
350
2E
  3
WRITTEN_BY_EZDXF
350
3A
  0
DICTIONARYVAR
  5
2E
330
2D
100
DictionaryVariables
280
0
  1
1.0.3 @ 2025-05-29T09:38:51.506994+00:00
  0
DICTIONARYVAR
  5
3A
330
2D
100
DictionaryVariables
280
0
  1
1.0.3 @ 2025-05-29T09:38:51.509508+00:00
  0
ENDSEC
  0
EOF
