  0
SECTION
  2
HEADER
  9
$ACADVER
  1
AC1027
  9
$ACADMAINTVER
 70
105
  9
$DWGCODEPAGE
  3
ANSI_1252
  9
$LASTSAVEDBY
  1
ezdxf
  9
$REQUIREDVERSIONS
160
0
  9
$INSBASE
 10
0.0
 20
0.0
 30
0.0
  9
$EXTMIN
 10
1e+20
 20
1e+20
 30
1e+20
  9
$EXTMAX
 10
-1e+20
 20
-1e+20
 30
-1e+20
  9
$LIMMIN
 10
0.0
 20
0.0
  9
$LIMMAX
 10
420.0
 20
297.0
  9
$ORTHOMODE
 70
0
  9
$REGENMODE
 70
1
  9
$FILLMODE
 70
1
  9
$QTEXTMODE
 70
0
  9
$MIRRTEXT
 70
1
  9
$LTSCALE
 40
1.0
  9
$ATTMODE
 70
1
  9
$TEXTSIZE
 40
2.5
  9
$TRACEWID
 40
1.0
  9
$TEXTSTYLE
  7
Standard
  9
$CLAYER
  8
0
  9
$CELTYPE
  6
ByLayer
  9
$CECOLOR
 62
256
  9
$CELTSCALE
 40
1.0
  9
$DISPSILH
 70
0
  9
$DIMSCALE
 40
1.0
  9
$DIMASZ
 40
2.5
  9
$DIMEXO
 40
0.625
  9
$DIMDLI
 40
3.75
  9
$DIMRND
 40
0.0
  9
$DIMDLE
 40
0.0
  9
$DIMEXE
 40
1.25
  9
$DIMTP
 40
0.0
  9
$DIMTM
 40
0.0
  9
$DIMTXT
 40
2.5
  9
$DIMCEN
 40
2.5
  9
$DIMTSZ
 40
0.0
  9
$DIMTOL
 70
0
  9
$DIMLIM
 70
0
  9
$DIMTIH
 70
0
  9
$DIMTOH
 70
0
  9
$DIMSE1
 70
0
  9
$DIMSE2
 70
0
  9
$DIMTAD
 70
1
  9
$DIMZIN
 70
8
  9
$DIMBLK
  1

  9
$DIMASO
 70
1
  9
$DIMSHO
 70
1
  9
$DIMPOST
  1

  9
$DIMAPOST
  1

  9
$DIMALT
 70
0
  9
$DIMALTD
 70
3
  9
$DIMALTF
 40
0.03937007874
  9
$DIMLFAC
 40
1.0
  9
$DIMTOFL
 70
1
  9
$DIMTVP
 40
0.0
  9
$DIMTIX
 70
0
  9
$DIMSOXD
 70
0
  9
$DIMSAH
 70
0
  9
$DIMBLK1
  1

  9
$DIMBLK2
  1

  9
$DIMSTYLE
  2
ISO-25
  9
$DIMCLRD
 70
0
  9
$DIMCLRE
 70
0
  9
$DIMCLRT
 70
0
  9
$DIMTFAC
 40
1.0
  9
$DIMGAP
 40
0.625
  9
$DIMJUST
 70
0
  9
$DIMSD1
 70
0
  9
$DIMSD2
 70
0
  9
$DIMTOLJ
 70
0
  9
$DIMTZIN
 70
8
  9
$DIMALTZ
 70
0
  9
$DIMALTTZ
 70
0
  9
$DIMUPT
 70
0
  9
$DIMDEC
 70
2
  9
$DIMTDEC
 70
2
  9
$DIMALTU
 70
2
  9
$DIMALTTD
 70
3
  9
$DIMTXSTY
  7
Standard
  9
$DIMAUNIT
 70
0
  9
$DIMADEC
 70
0
  9
$DIMALTRND
 40
0.0
  9
$DIMAZIN
 70
0
  9
$DIMDSEP
 70
44
  9
$DIMATFIT
 70
3
  9
$DIMFRAC
 70
0
  9
$DIMLDRBLK
  1

  9
$DIMLUNIT
 70
2
  9
$DIMLWD
 70
-2
  9
$DIMLWE
 70
-2
  9
$DIMTMOVE
 70
0
  9
$DIMFXL
 40
1.0
  9
$DIMFXLON
 70
0
  9
$DIMJOGANG
 40
0.785398163397
  9
$DIMTFILL
 70
0
  9
$DIMTFILLCLR
 70
0
  9
$DIMARCSYM
 70
0
  9
$DIMLTYPE
  6

  9
$DIMLTEX1
  6

  9
$DIMLTEX2
  6

  9
$DIMTXTDIRECTION
 70
0
  9
$LUNITS
 70
2
  9
$LUPREC
 70
4
  9
$SKETCHINC
 40
1.0
  9
$FILLETRAD
 40
10.0
  9
$AUNITS
 70
0
  9
$AUPREC
 70
2
  9
$MENU
  1
.
  9
$ELEVATION
 40
0.0
  9
$PELEVATION
 40
0.0
  9
$THICKNESS
 40
0.0
  9
$LIMCHECK
 70
0
  9
$CHAMFERA
 40
0.0
  9
$CHAMFERB
 40
0.0
  9
$CHAMFERC
 40
0.0
  9
$CHAMFERD
 40
0.0
  9
$SKPOLY
 70
0
  9
$TDCREATE
 40
2460835.0619444447
  9
$TDUCREATE
 40
2458532.153996898
  9
$TDUPDATE
 40
2460835.0619444447
  9
$TDUUPDATE
 40
2458532.1544311
  9
$TDINDWG
 40
0.0
  9
$TDUSRTIMER
 40
0.0
  9
$USRTIMER
 70
1
  9
$ANGBASE
 50
0.0
  9
$ANGDIR
 70
0
  9
$PDMODE
 70
0
  9
$PDSIZE
 40
0.0
  9
$PLINEWID
 40
0.0
  9
$SPLFRAME
 70
0
  9
$SPLINETYPE
 70
6
  9
$SPLINESEGS
 70
8
  9
$HANDSEED
  5
3C
  9
$SURFTAB1
 70
6
  9
$SURFTAB2
 70
6
  9
$SURFTYPE
 70
6
  9
$SURFU
 70
6
  9
$SURFV
 70
6
  9
$UCSBASE
  2

  9
$UCSNAME
  2

  9
$UCSORG
 10
0.0
 20
0.0
 30
0.0
  9
$UCSXDIR
 10
1.0
 20
0.0
 30
0.0
  9
$UCSYDIR
 10
0.0
 20
1.0
 30
0.0
  9
$UCSORTHOREF
  2

  9
$UCSORTHOVIEW
 70
0
  9
$UCSORGTOP
 10
0.0
 20
0.0
 30
0.0
  9
$UCSORGBOTTOM
 10
0.0
 20
0.0
 30
0.0
  9
$UCSORGLEFT
 10
0.0
 20
0.0
 30
0.0
  9
$UCSORGRIGHT
 10
0.0
 20
0.0
 30
0.0
  9
$UCSORGFRONT
 10
0.0
 20
0.0
 30
0.0
  9
$UCSORGBACK
 10
0.0
 20
0.0
 30
0.0
  9
$PUCSBASE
  2

  9
$PUCSNAME
  2

  9
$PUCSORG
 10
0.0
 20
0.0
 30
0.0
  9
$PUCSXDIR
 10
1.0
 20
0.0
 30
0.0
  9
$PUCSYDIR
 10
0.0
 20
1.0
 30
0.0
  9
$PUCSORTHOREF
  2

  9
$PUCSORTHOVIEW
 70
0
  9
$PUCSORGTOP
 10
0.0
 20
0.0
 30
0.0
  9
$PUCSORGBOTTOM
 10
0.0
 20
0.0
 30
0.0
  9
$PUCSORGLEFT
 10
0.0
 20
0.0
 30
0.0
  9
$PUCSORGRIGHT
 10
0.0
 20
0.0
 30
0.0
  9
$PUCSORGFRONT
 10
0.0
 20
0.0
 30
0.0
  9
$PUCSORGBACK
 10
0.0
 20
0.0
 30
0.0
  9
$USERI1
 70
0
  9
$USERI2
 70
0
  9
$USERI3
 70
0
  9
$USERI4
 70
0
  9
$USERI5
 70
0
  9
$USERR1
 40
0.0
  9
$USERR2
 40
0.0
  9
$USERR3
 40
0.0
  9
$USERR4
 40
0.0
  9
$USERR5
 40
0.0
  9
$WORLDVIEW
 70
1
  9
$SHADEDGE
 70
3
  9
$SHADEDIF
 70
70
  9
$TILEMODE
 70
1
  9
$MAXACTVP
 70
64
  9
$PINSBASE
 10
0.0
 20
0.0
 30
0.0
  9
$PLIMCHECK
 70
0
  9
$PEXTMIN
 10
1e+20
 20
1e+20
 30
1e+20
  9
$PEXTMAX
 10
-1e+20
 20
-1e+20
 30
-1e+20
  9
$PLIMMIN
 10
0.0
 20
0.0
  9
$PLIMMAX
 10
420.0
 20
297.0
  9
$UNITMODE
 70
0
  9
$VISRETAIN
 70
1
  9
$PLINEGEN
 70
0
  9
$PSLTSCALE
 70
1
  9
$TREEDEPTH
 70
3020
  9
$CMLSTYLE
  2
Standard
  9
$CMLJUST
 70
0
  9
$CMLSCALE
 40
20.0
  9
$PROXYGRAPHICS
 70
1
  9
$MEASUREMENT
 70
1
  9
$CELWEIGHT
370
-1
  9
$ENDCAPS
280
0
  9
$JOINSTYLE
280
0
  9
$LWDISPLAY
290
0
  9
$INSUNITS
 70
6
  9
$HYPERLINKBASE
  1

  9
$STYLESHEET
  1

  9
$XEDIT
290
1
  9
$CEPSNTYPE
380
0
  9
$PSTYLEMODE
290
1
  9
$FINGERPRINTGUID
  2
{EA741768-7633-4DF8-AACD-758C757442C4}
  9
$VERSIONGUID
  2
{2CDF606E-B71A-4007-B15B-84CAEBF58169}
  9
$EXTNAMES
290
1
  9
$PSVPSCALE
 40
0.0
  9
$OLESTARTUP
290
0
  9
$SORTENTS
280
127
  9
$INDEXCTL
280
0
  9
$HIDETEXT
280
1
  9
$XCLIPFRAME
280
0
  9
$HALOGAP
280
0
  9
$OBSCOLOR
 70
257
  9
$OBSLTYPE
280
0
  9
$INTERSECTIONDISPLAY
280
0
  9
$INTERSECTIONCOLOR
 70
257
  9
$DIMASSOC
280
2
  9
$PROJECTNAME
  1

  9
$CAMERADISPLAY
290
0
  9
$LENSLENGTH
 40
50.0
  9
$CAMERAHEIGHT
 40
0.0
  9
$STEPSPERSEC
 40
24.0
  9
$STEPSIZE
 40
100.0
  9
$3DDWFPREC
 40
2.0
  9
$PSOLWIDTH
 40
0.005
  9
$PSOLHEIGHT
 40
0.08
  9
$LOFTANG1
 40
1.570796326795
  9
$LOFTANG2
 40
1.570796326795
  9
$LOFTMAG1
 40
0.0
  9
$LOFTMAG2
 40
0.0
  9
$LOFTPARAM
 70
7
  9
$LOFTNORMALS
280
1
  9
$LATITUDE
 40
37.795
  9
$LONGITUDE
 40
-122.394
  9
$NORTHDIRECTION
 40
0.0
  9
$TIMEZONE
 70
-8000
  9
$LIGHTGLYPHDISPLAY
280
1
  9
$TILEMODELIGHTSYNCH
280
1
  9
$CMATERIAL
347
20
  9
$SOLIDHIST
280
0
  9
$SHOWHIST
280
1
  9
$DWFFRAME
280
2
  9
$DGNFRAME
280
2
  9
$REALWORLDSCALE
290
1
  9
$INTERFERECOLOR
 62
256
  9
$CSHADOW
280
0
  9
$SHADOWPLANELOCATION
 40
0.0
  0
ENDSEC
  0
SECTION
  2
CLASSES
  0
CLASS
  1
ACDBDICTIONARYWDFLT
  2
AcDbDictionaryWithDefault
  3
ObjectDBX Classes
 90
0
 91
0
280
0
281
0
  0
CLASS
  1
SUN
  2
AcDbSun
  3
SCENEOE
 90
1153
 91
0
280
0
281
0
  0
CLASS
  1
VISUALSTYLE
  2
AcDbVisualStyle
  3
ObjectDBX Classes
 90
4095
 91
0
280
0
281
0
  0
CLASS
  1
MATERIAL
  2
AcDbMaterial
  3
ObjectDBX Classes
 90
1153
 91
0
280
0
281
0
  0
CLASS
  1
SCALE
  2
AcDbScale
  3
ObjectDBX Classes
 90
1153
 91
0
280
0
281
0
  0
CLASS
  1
TABLESTYLE
  2
AcDbTableStyle
  3
ObjectDBX Classes
 90
4095
 91
0
280
0
281
0
  0
CLASS
  1
MLEADERSTYLE
  2
AcDbMLeaderStyle
  3
ACDB_MLEADERSTYLE_CLASS
 90
4095
 91
0
280
0
281
0
  0
CLASS
  1
DICTIONARYVAR
  2
AcDbDictionaryVar
  3
ObjectDBX Classes
 90
0
 91
0
280
0
281
0
  0
CLASS
  1
CELLSTYLEMAP
  2
AcDbCellStyleMap
  3
ObjectDBX Classes
 90
1152
 91
0
280
0
281
0
  0
CLASS
  1
MENTALRAYRENDERSETTINGS
  2
AcDbMentalRayRenderSettings
  3
SCENEOE
 90
1024
 91
0
280
0
281
0
  0
CLASS
  1
ACDBDETAILVIEWSTYLE
  2
AcDbDetailViewStyle
  3
ObjectDBX Classes
 90
1025
 91
0
280
0
281
0
  0
CLASS
  1
ACDBSECTIONVIEWSTYLE
  2
AcDbSectionViewStyle
  3
ObjectDBX Classes
 90
1025
 91
0
280
0
281
0
  0
CLASS
  1
RASTERVARIABLES
  2
AcDbRasterVariables
  3
ISM
 90
0
 91
0
280
0
281
0
  0
CLASS
  1
ACDBPLACEHOLDER
  2
AcDbPlaceHolder
  3
ObjectDBX Classes
 90
0
 91
0
280
0
281
0
  0
CLASS
  1
LAYOUT
  2
AcDbLayout
  3
ObjectDBX Classes
 90
0
 91
0
280
0
281
0
  0
ENDSEC
  0
SECTION
  2
TABLES
  0
TABLE
  2
VPORT
  5
8
330
0
100
AcDbSymbolTable
 70
1
  0
VPORT
  5
23
330
8
100
AcDbSymbolTableRecord
100
AcDbViewportTableRecord
  2
*Active
 70
0
 10
0.0
 20
0.0
 11
1.0
 21
1.0
 12
0.0
 22
0.0
 13
0.0
 23
0.0
 14
0.5
 24
0.5
 15
0.5
 25
0.5
 16
0.0
 26
0.0
 36
1.0
 17
0.0
 27
0.0
 37
0.0
 40
1000.0
 41
1.34
 42
50.0
 43
0.0
 44
0.0
 50
0.0
 51
0.0
 71
0
 72
1000
 73
1
 74
3
 75
0
 76
0
 77
0
 78
0
281
0
 65
0
146
0.0
  0
ENDTAB
  0
TABLE
  2
LTYPE
  5
2
330
0
100
AcDbSymbolTable
 70
3
  0
LTYPE
  5
24
330
2
100
AcDbSymbolTableRecord
100
AcDbLinetypeTableRecord
  2
ByBlock
 70
0
  3

 72
65
 73
0
 40
0.0
  0
LTYPE
  5
25
330
2
100
AcDbSymbolTableRecord
100
AcDbLinetypeTableRecord
  2
ByLayer
 70
0
  3

 72
65
 73
0
 40
0.0
  0
LTYPE
  5
26
330
2
100
AcDbSymbolTableRecord
100
AcDbLinetypeTableRecord
  2
Continuous
 70
0
  3

 72
65
 73
0
 40
0.0
  0
ENDTAB
  0
TABLE
  2
LAYER
  5
1
330
0
100
AcDbSymbolTable
 70
2
  0
LAYER
  5
27
330
1
100
AcDbSymbolTableRecord
100
AcDbLayerTableRecord
  2
0
 70
0
 62
7
  6
Continuous
370
-3
390
13
347
21
  0
LAYER
  5
28
330
1
100
AcDbSymbolTableRecord
100
AcDbLayerTableRecord
  2
Defpoints
 70
0
 62
7
  6
Continuous
290
0
370
-3
390
13
347
21
  0
ENDTAB
  0
TABLE
  2
STYLE
  5
5
330
0
100
AcDbSymbolTable
 70
1
  0
STYLE
  5
29
330
5
100
AcDbSymbolTableRecord
100
AcDbTextStyleTableRecord
  2
Standard
 70
0
 40
0.0
 41
1.0
 50
0.0
 71
0
 42
2.5
  3
txt
  4

  0
ENDTAB
  0
TABLE
  2
VIEW
  5
7
330
0
100
AcDbSymbolTable
 70
0
  0
ENDTAB
  0
TABLE
  2
UCS
  5
6
330
0
100
AcDbSymbolTable
 70
0
  0
ENDTAB
  0
TABLE
  2
APPID
  5
3
330
0
100
AcDbSymbolTable
 70
3
  0
APPID
  5
2A
330
3
100
AcDbSymbolTableRecord
100
AcDbRegAppTableRecord
  2
ACAD
 70
0
  0
APPID
  5
39
330
3
100
AcDbSymbolTableRecord
100
AcDbRegAppTableRecord
  2
HATCHBACKGROUNDCOLOR
 70
0
  0
APPID
  5
3A
330
3
100
AcDbSymbolTableRecord
100
AcDbRegAppTableRecord
  2
EZDXF
 70
0
  0
ENDTAB
  0
TABLE
  2
DIMSTYLE
  5
4
330
0
100
AcDbSymbolTable
 70
1
100
AcDbDimStyleTable
  0
DIMSTYLE
105
2B
330
4
100
AcDbSymbolTableRecord
100
AcDbDimStyleTableRecord
  2
Standard
 70
0
 40
1.0
 41
2.5
 42
0.625
 43
3.75
 44
1.25
 45
0.0
 46
0.0
 47
0.0
 48
0.0
 49
2.5
140
2.5
141
2.5
142
0.0
143
0.03937007874
144
1.0
145
0.0
146
1.0
147
0.625
148
0.0
 69
0
 70
0
 71
0
 72
0
 73
0
 74
0
 75
0
 76
0
 77
1
 78
8
 79
3
170
0
171
3
172
1
173
0
174
0
175
0
176
0
177
0
178
0
179
2
271
2
272
2
273
2
274
3
275
0
276
0
277
2
278
44
279
0
280
0
281
0
282
0
283
0
284
8
285
0
286
0
288
0
289
3
290
0
371
-2
372
-2
  0
ENDTAB
  0
TABLE
  2
BLOCK_RECORD
  5
9
330
0
100
AcDbSymbolTable
 70
2
  0
BLOCK_RECORD
  5
17
330
9
100
AcDbSymbolTableRecord
100
AcDbBlockTableRecord
  2
*Model_Space
340
1A
 70
0
280
1
281
0
  0
BLOCK_RECORD
  5
1B
330
9
100
AcDbSymbolTableRecord
100
AcDbBlockTableRecord
  2
*Paper_Space
340
1E
 70
0
280
1
281
0
  0
ENDTAB
  0
ENDSEC
  0
SECTION
  2
BLOCKS
  0
BLOCK
  5
18
330
17
100
AcDbEntity
  8
0
100
AcDbBlockBegin
  2
*Model_Space
 70
0
 10
0.0
 20
0.0
 30
0.0
  3
*Model_Space
  1

  0
ENDBLK
  5
19
330
17
100
AcDbEntity
  8
0
100
AcDbBlockEnd
  0
BLOCK
  5
1C
330
1B
100
AcDbEntity
  8
0
100
AcDbBlockBegin
  2
*Paper_Space
 70
0
 10
0.0
 20
0.0
 30
0.0
  3
*Paper_Space
  1

  0
ENDBLK
  5
1D
330
1B
100
AcDbEntity
  8
0
100
AcDbBlockEnd
  0
ENDSEC
  0
SECTION
  2
ENTITIES
  0
LWPOLYLINE
  5
2F
330
17
100
AcDbEntity
  8
0
100
AcDbPolyline
 90
51
 70
0
 10
1.1
 20
12.0
 10
1.1
 20
11.76
 10
1.1
 20
11.52
 10
1.1
 20
11.28
 10
1.1
 20
11.04
 10
1.1
 20
10.8
 10
1.1
 20
10.56
 10
1.1000000000000003
 20
10.32
 10
1.1000000000000003
 20
10.08
 10
1.1000000000000003
 20
9.84
 10
1.1000000000000003
 20
9.6
 10
1.1000000000000003
 20
9.36
 10
1.1000000000000003
 20
9.120000000000001
 10
1.1000000000000003
 20
8.879999999999999
 10
1.1000000000000003
 20
8.64
 10
1.1000000000000003
 20
8.4
 10
1.1000000000000003
 20
8.16
 10
1.1000000000000003
 20
7.92
 10
1.1000000000000003
 20
7.68
 10
1.1000000000000005
 20
7.44
 10
1.1000000000000005
 20
7.2
 10
1.1000000000000005
 20
6.96
 10
1.1000000000000005
 20
6.72
 10
1.1000000000000005
 20
6.48
 10
1.1000000000000005
 20
6.24
 10
1.1000000000000005
 20
6.0
 10
1.1000000000000005
 20
5.76
 10
1.1000000000000005
 20
5.52
 10
1.1000000000000005
 20
5.28
 10
1.1000000000000005
 20
5.04
 10
1.1000000000000005
 20
4.8
 10
1.1000000000000005
 20
4.56
 10
1.1000000000000008
 20
4.32
 10
1.1000000000000008
 20
4.08
 10
1.1000000000000008
 20
3.84
 10
1.1000000000000008
 20
3.5999999999999996
 10
1.1000000000000008
 20
3.3599999999999994
 10
1.1000000000000008
 20
3.119999999999999
 10
1.1000000000000008
 20
2.880000000000001
 10
1.1000000000000008
 20
2.6400000000000006
 10
1.1000000000000008
 20
2.4000000000000004
 10
1.1000000000000008
 20
2.16
 10
1.1000000000000008
 20
1.92
 10
1.1000000000000008
 20
1.6799999999999997
 10
1.100000000000001
 20
1.4399999999999995
 10
1.100000000000001
 20
1.1999999999999993
 10
1.100000000000001
 20
0.9600000000000009
 10
1.100000000000001
 20
0.7200000000000006
 10
1.100000000000001
 20
0.4800000000000004
 10
1.100000000000001
 20
0.2400000000000002
 10
1.100000000000001
 20
0.0
  0
LWPOLYLINE
  5
30
330
17
100
AcDbEntity
  8
0
100
AcDbPolyline
 90
51
 70
0
 10
-12.9
 20
5.0
 10
-12.9
 20
5.14
 10
-12.9
 20
5.28
 10
-12.9
 20
5.42
 10
-12.9
 20
5.5600000000000005
 10
-12.9
 20
5.7
 10
-12.9
 20
5.84
 10
-12.9
 20
5.98
 10
-12.9
 20
6.12
 10
-12.9
 20
6.26
 10
-12.9
 20
6.4
 10
-12.9
 20
6.54
 10
-12.9
 20
6.68
 10
-12.9
 20
6.82
 10
-12.9
 20
6.96
 10
-12.9
 20
7.1
 10
-12.9
 20
7.24
 10
-12.9
 20
7.38
 10
-12.9
 20
7.52
 10
-12.9
 20
7.66
 10
-12.9
 20
7.8
 10
-12.9
 20
7.9399999999999995
 10
-12.9
 20
8.08
 10
-12.9
 20
8.22
 10
-12.9
 20
8.36
 10
-12.9
 20
8.5
 10
-12.900000000000002
 20
8.64
 10
-12.900000000000002
 20
8.78
 10
-12.900000000000002
 20
8.92
 10
-12.900000000000002
 20
9.059999999999999
 10
-12.900000000000002
 20
9.2
 10
-12.900000000000002
 20
9.34
 10
-12.900000000000002
 20
9.48
 10
-12.900000000000002
 20
9.620000000000001
 10
-12.900000000000002
 20
9.76
 10
-12.900000000000002
 20
9.9
 10
-12.900000000000002
 20
10.04
 10
-12.900000000000002
 20
10.18
 10
-12.900000000000002
 20
10.32
 10
-12.900000000000002
 20
10.46
 10
-12.900000000000002
 20
10.6
 10
-12.900000000000002
 20
10.74
 10
-12.900000000000002
 20
10.879999999999999
 10
-12.900000000000002
 20
11.02
 10
-12.900000000000002
 20
11.16
 10
-12.900000000000002
 20
11.3
 10
-12.900000000000002
 20
11.440000000000001
 10
-12.900000000000002
 20
11.58
 10
-12.900000000000002
 20
11.719999999999999
 10
-12.900000000000002
 20
11.86
 10
-12.900000000000002
 20
12.0
  0
LWPOLYLINE
  5
31
330
17
100
AcDbEntity
  8
0
100
AcDbPolyline
 90
51
 70
0
 10
-12.9
 20
11.999999999999998
 10
-12.886187098997901
 20
12.439533636705189
 10
-12.844802909201345
 20
12.877332634950129
 10
-12.77601075510082
 20
13.31166920210007
 10
-12.680082127900418
 20
13.740829210153985
 10
-12.557395614066076
 20
14.16311896062463
 10
-12.408435401217762
 20
14.576871868792741
 10
-12.233789367262137
 20
14.980455040955508
 10
-12.034146760307047
 20
15.372275718712004
 10
-11.810295478514105
 20
15.750787564852978
 10
-11.563118960624633
 20
16.11449676604731
 10
-11.293592699430526
 20
16.461967928240824
 10
-11.00278039194988
 20
16.79182974150082
 10
-10.691829741500822
 20
17.102780391949878
 10
-10.361967928240828
 20
17.393592699430528
 10
-10.014496766047314
 20
17.66311896062463
 10
-9.65078756485298
 20
17.910295478514104
 10
-9.272275718712008
 20
18.134146760307047
 10
-8.88045504095551
 20
18.333789367262135
 10
-8.476871868792745
 20
18.50843540121776
 10
-8.063118960624635
 20
18.657395614066075
 10
-7.640829210153988
 20
18.780082127900418
 10
-7.211669202100073
 20
18.876010755100822
 10
-6.777332634950133
 20
18.944802909201343
 10
-6.339533636705193
 20
18.986187098997902
 10
-5.900000000000002
 20
19.0
 10
-5.460466363294811
 20
18.986187098997902
 10
-5.022667365049871
 20
18.944802909201346
 10
-4.588330797899931
 20
18.876010755100822
 10
-4.159170789846016
 20
18.780082127900418
 10
-3.73688103937537
 20
18.657395614066075
 10
-3.323128131207259
 20
18.50843540121776
 10
-2.9195449590444924
 20
18.333789367262135
 10
-2.5277242812879908
 20
18.134146760307043
 10
-2.1492124351470236
 20
17.910295478514104
 10
-1.7855032339526904
 20
17.663118960624633
 10
-1.4380320717591761
 20
17.393592699430528
 10
-1.1081702584991797
 20
17.10278039194988
 10
-0.7972196080501215
 20
16.791829741500823
 10
-0.5064073005694754
 20
16.461967928240828
 10
-0.23688103937536997
 20
16.114496766047314
 10
0.010295478514103173
 20
15.75078756485298
 10
0.23414676030704484
 20
15.372275718712007
 10
0.43378936726213535
 20
14.980455040955512
 10
0.6084354012177595
 20
14.576871868792745
 10
0.7573956140660743
 20
14.163118960624633
 10
0.8800821279004163
 20
13.740829210153988
 10
0.9760107551008197
 20
13.311669202100074
 10
1.0448029092013442
 20
12.877332634950132
 10
1.0861870989979003
 20
12.439533636705193
 10
1.0999999999999996
 20
12.000000000000002
  0
LWPOLYLINE
  5
32
330
17
100
AcDbEntity
  8
0
100
AcDbPolyline
 90
51
 70
0
 10
1.1
 20
7.8159700933611e-17
 10
0.556
 20
3.950617610826156e-17
 10
0.01200000000000001
 20
8.526512829121207e-19
 10
-0.532
 20
-3.780087354243732e-17
 10
-1.076
 20
-7.645439836778676e-17
 10
-1.62
 20
-1.151079231931362e-16
 10
-2.164
 20
-1.5376144801848565e-16
 10
-2.7080000000000006
 20
-1.924149728438351e-16
 10
-3.2520000000000002
 20
-2.3106849766918453e-16
 10
-3.796
 20
-2.6972202249453394e-16
 10
-4.34
 20
-3.083755473198834e-16
 10
-4.884
 20
-3.4702907214523284e-16
 10
-5.428000000000001
 20
-3.856825969705823e-16
 10
-5.9719999999999995
 20
-4.2433612179593165e-16
 10
-6.516000000000002
 20
-4.6298964662128125e-16
 10
-7.060000000000002
 20
-5.016431714466307e-16
 10
-7.604000000000001
 20
-5.402966962719801e-16
 10
-8.148000000000001
 20
-5.789502210973295e-16
 10
-8.692
 20
-6.176037459226789e-16
 10
-9.236000000000002
 20
-6.562572707480285e-16
 10
-9.780000000000001
 20
-6.949107955733779e-16
 10
-10.324000000000002
 20
-7.335643203987273e-16
 10
-10.868000000000002
 20
-7.722178452240768e-16
 10
-11.412
 20
-8.108713700494261e-16
 10
-11.956000000000001
 20
-8.495248948747756e-16
 10
-12.500000000000002
 20
-8.88178419700125e-16
 10
-13.044
 20
-9.268319445254745e-16
 10
-13.588000000000003
 20
-9.65485469350824e-16
 10
-14.132000000000003
 20
-1.0041389941761734e-15
 10
-14.676000000000002
 20
-1.0427925190015228e-15
 10
-15.220000000000004
 20
-1.0814460438268725e-15
 10
-15.764000000000001
 20
-1.1200995686522216e-15
 10
-16.308
 20
-1.158753093477571e-15
 10
-16.852
 20
-1.1974066183029205e-15
 10
-17.396
 20
-1.23606014312827e-15
 10
-17.94
 20
-1.2747136679536194e-15
 10
-18.483999999999998
 20
-1.3133671927789686e-15
 10
-19.028
 20
-1.352020717604318e-15
 10
-19.572000000000003
 20
-1.390674242429668e-15
 10
-20.116000000000003
 20
-1.4293277672550174e-15
 10
-20.66
 20
-1.4679812920803664e-15
 10
-21.204
 20
-1.506634816905716e-15
 10
-21.748
 20
-1.5452883417310655e-15
 10
-22.292
 20
-1.583941866556415e-15
 10
-22.836000000000002
 20
-1.6225953913817644e-15
 10
-23.380000000000003
 20
-1.6612489162071139e-15
 10
-23.924
 20
-1.6999024410324632e-15
 10
-24.468
 20
-1.7385559658578126e-15
 10
-25.012
 20
-1.777209490683162e-15
 10
-25.556
 20
-1.8158630155085113e-15
 10
-26.1
 20
-1.854516540333861e-15
  0
LWPOLYLINE
  5
33
330
17
100
AcDbEntity
  8
0
100
AcDbPolyline
 90
51
 70
0
 10
-1.9000000000000004
 20
12.0
 10
-1.9177521415876804
 20
11.623566746725944
 10
-1.9708509970852455
 20
11.2504747416571
 10
-2.058825257292228
 20
10.884035575843082
 10
-2.1808940564469945
 20
10.527501789261288
 10
-2.3359739032465288
 20
10.184038001041813
 10
-2.5226882979919396
 20
9.856692820084014
 10
-2.7393799504972383
 20
9.548371785388095
 10
-2.9841254903143546
 20
9.261811576285245
 10
-3.254752538705393
 20
8.999555721478162
 10
-3.5488589908301074
 20
8.76393202250021
 10
-3.863834336998516
 20
8.557031891984225
 10
-4.196882833739709
 20
8.380691790135923
 10
-4.545048319018835
 20
8.236476924183098
 10
-4.905240451340581
 20
8.125667355485476
 10
-5.2742621398390765
 20
8.049246637619449
 10
-5.6488379218827465
 20
8.007893086286913
 10
-6.025643036312513
 20
8.001973758537073
 10
-6.401332934257217
 20
8.031541194742088
 10
-6.772572965586169
 20
8.09633295224501
 10
-7.136067977499789
 20
8.195773934819385
 10
-7.488591562539123
 20
8.328981497264076
 10
-7.827014696406862
 20
8.494773279824546
 10
-8.148333511408524
 20
8.691677702901753
 10
-8.44969595899476
 20
8.917947028896844
 10
-8.72842712474619
 20
9.171572875253808
 10
-8.982052971103158
 20
9.450304041005243
 10
-9.208322297098247
 20
9.751666488591477
 10
-9.405226720175454
 20
10.07298530359314
 10
-9.571018502735924
 20
10.411408437460876
 10
-9.704226065180615
 20
10.76393202250021
 10
-9.803667047754988
 20
11.127427034413827
 10
-9.868458805257912
 20
11.498667065742781
 10
-9.898026241462926
 20
11.874356963687486
 10
-9.892106913713086
 20
12.251162078117252
 10
-9.850753362380551
 20
12.625737860160923
 10
-9.774332644514525
 20
12.99475954865942
 10
-9.663523075816903
 20
13.354951680981165
 10
-9.51930820986408
 20
13.703117166260288
 10
-9.342968108015775
 20
14.036165663001487
 10
-9.13606797749979
 20
14.351141009169892
 10
-8.90044427852184
 20
14.645247461294606
 10
-8.638188423714753
 20
14.915874509685647
 10
-8.351628214611907
 20
15.16062004950276
 10
-8.043307179915985
 20
15.377311702008061
 10
-7.715961998958188
 20
15.564026096753471
 10
-7.372498210738712
 20
15.719105943553005
 10
-7.015964424156919
 20
15.841174742707771
 10
-6.649525258342899
 20
15.929149002914755
 10
-6.276433253274057
 20
15.98224785841232
 10
-5.900000000000001
 20
16.0
  0
LWPOLYLINE
  5
34
330
17
100
AcDbEntity
  8
0
100
AcDbPolyline
 90
51
 70
0
 10
-5.9
 20
16.0
 10
-5.774356963687487
 20
15.998026241462927
 10
-5.6488379218827465
 20
15.992106913713087
 10
-5.523566746725943
 20
15.98224785841232
 10
-5.398667065742783
 20
15.968458805257912
 10
-5.2742621398390765
 20
15.950753362380551
 10
-5.150474741657102
 20
15.929149002914755
 10
-5.02742703441383
 20
15.90366704775499
 10
-4.905240451340581
 20
15.874332644514524
 10
-4.784035575843083
 20
15.841174742707771
 10
-4.6639320225002106
 20
15.804226065180615
 10
-4.545048319018835
 20
15.763523075816902
 10
-4.427501789261289
 20
15.719105943553005
 10
-4.311408437460878
 20
15.671018502735924
 10
-4.19688283373971
 20
15.619308209864078
 10
-4.084038001041813
 20
15.564026096753471
 10
-3.972985303593139
 20
15.505226720175454
 10
-3.863834336998515
 20
15.442968108015775
 10
-3.7566928200840137
 20
15.377311702008061
 10
-3.651666488591478
 20
15.308322297098247
 10
-3.548858990830108
 20
15.23606797749979
 10
-3.4483717853880944
 20
15.16062004950276
 10
-3.350304041005242
 20
15.082052971103156
 10
-3.254752538705393
 20
15.000444278521838
 10
-3.161811576285246
 20
14.915874509685647
 10
-3.07157287525381
 20
14.82842712474619
 10
-2.984125490314354
 20
14.738188423714755
 10
-2.8995557214781624
 20
14.645247461294607
 10
-2.8179470288968433
 20
14.549695958994759
 10
-2.7393799504972387
 20
14.451628214611906
 10
-2.663932022500211
 20
14.351141009169893
 10
-2.591677702901753
 20
14.248333511408523
 10
-2.52268829799194
 20
14.143307179915986
 10
-2.457031891984226
 20
14.036165663001485
 10
-2.3947732798245456
 20
13.92701469640686
 10
-2.335973903246529
 20
13.815961998958187
 10
-2.280691790135922
 20
13.703117166260292
 10
-2.228981497264076
 20
13.588591562539122
 10
-2.180894056446995
 20
13.472498210738712
 10
-2.1364769241830985
 20
13.354951680981166
 10
-2.0957739348193862
 20
13.23606797749979
 10
-2.0588252572922285
 20
13.115964424156918
 10
-2.025667355485476
 20
12.994759548659419
 10
-1.996332952245011
 20
12.872572965586171
 10
-1.970850997085246
 20
12.7495252583429
 10
-1.9492466376194493
 20
12.625737860160923
 10
-1.9315411947420893
 20
12.501332934257217
 10
-1.9177521415876804
 20
12.376433253274056
 10
-1.9078930862869141
 20
12.251162078117254
 10
-1.901973758537074
 20
12.125643036312514
 10
-1.9000000000000004
 20
12.0
  0
LWPOLYLINE
  5
35
330
17
100
AcDbEntity
  8
0
100
AcDbPolyline
 90
51
 70
0
 10
-26.1
 20
-1.85451654033386e-15
 10
-26.1
 20
0.09999999999999817
 10
-26.1
 20
0.1999999999999982
 10
-26.1
 20
0.29999999999999827
 10
-26.1
 20
0.3999999999999983
 10
-26.1
 20
0.4999999999999982
 10
-26.1
 20
0.5999999999999983
 10
-26.1
 20
0.6999999999999984
 10
-26.1
 20
0.7999999999999984
 10
-26.1
 20
0.8999999999999984
 10
-26.1
 20
0.9999999999999984
 10
-26.1
 20
1.0999999999999988
 10
-26.1
 20
1.1999999999999986
 10
-26.1
 20
1.2999999999999987
 10
-26.1
 20
1.3999999999999988
 10
-26.1
 20
1.499999999999999
 10
-26.1
 20
1.5999999999999988
 10
-26.1
 20
1.6999999999999988
 10
-26.1
 20
1.7999999999999987
 10
-26.1
 20
1.8999999999999988
 10
-26.1
 20
1.9999999999999987
 10
-26.1
 20
2.099999999999999
 10
-26.1
 20
2.1999999999999993
 10
-26.1
 20
2.299999999999999
 10
-26.1
 20
2.399999999999999
 10
-26.1
 20
2.499999999999999
 10
-26.1
 20
2.599999999999999
 10
-26.1
 20
2.6999999999999993
 10
-26.1
 20
2.7999999999999994
 10
-26.1
 20
2.8999999999999995
 10
-26.1
 20
2.9999999999999996
 10
-26.1
 20
3.099999999999999
 10
-26.1
 20
3.1999999999999993
 10
-26.1
 20
3.2999999999999994
 10
-26.1
 20
3.3999999999999995
 10
-26.1
 20
3.4999999999999996
 10
-26.1
 20
3.599999999999999
 10
-26.1
 20
3.6999999999999993
 10
-26.1
 20
3.7999999999999994
 10
-26.1
 20
3.8999999999999995
 10
-26.1
 20
3.999999999999999
 10
-26.1
 20
4.1
 10
-26.1
 20
4.2
 10
-26.1
 20
4.3
 10
-26.1
 20
4.4
 10
-26.1
 20
4.5
 10
-26.1
 20
4.6
 10
-26.1
 20
4.7
 10
-26.1
 20
4.8
 10
-26.1
 20
4.9
 10
-26.1
 20
5.0
  0
LWPOLYLINE
  5
36
330
17
100
AcDbEntity
  8
0
100
AcDbPolyline
 90
51
 70
0
 10
-20.0
 20
5.0
 10
-19.858
 20
5.0
 10
-19.716
 20
5.0
 10
-19.573999999999998
 20
5.0
 10
-19.432000000000002
 20
5.0
 10
-19.29
 20
5.0
 10
-19.148
 20
5.0
 10
-19.006
 20
5.0
 10
-18.864
 20
5.0
 10
-18.722
 20
5.0
 10
-18.58
 20
5.0
 10
-18.438000000000002
 20
5.0
 10
-18.296
 20
5.0
 10
-18.154
 20
5.0
 10
-18.012
 20
5.0
 10
-17.87
 20
5.0
 10
-17.728
 20
5.0
 10
-17.586
 20
5.0
 10
-17.444
 20
5.0
 10
-17.302
 20
5.0
 10
-17.16
 20
5.0
 10
-17.018
 20
5.0
 10
-16.876
 20
5.0
 10
-16.734
 20
5.0
 10
-16.592
 20
5.0
 10
-16.45
 20
5.0
 10
-16.308
 20
5.0
 10
-16.166
 20
5.0
 10
-16.024
 20
5.0
 10
-15.882000000000001
 20
5.0
 10
-15.74
 20
5.0
 10
-15.597999999999999
 20
5.0
 10
-15.456
 20
5.0
 10
-15.314
 20
5.0
 10
-15.172
 20
5.0
 10
-15.030000000000001
 20
5.0
 10
-14.888
 20
5.0
 10
-14.746
 20
5.0
 10
-14.604
 20
5.0
 10
-14.462
 20
5.0
 10
-14.32
 20
5.0
 10
-14.178
 20
5.0
 10
-14.036000000000001
 20
5.0
 10
-13.894
 20
5.0
 10
-13.752
 20
5.0
 10
-13.61
 20
5.0
 10
-13.468
 20
5.0
 10
-13.326
 20
5.0
 10
-13.184000000000001
 20
5.0
 10
-13.042000000000002
 20
5.0
 10
-12.9
 20
5.0
  0
LWPOLYLINE
  5
37
330
17
100
AcDbEntity
  8
0
100
AcDbPolyline
 90
51
 70
0
 10
-26.1
 20
5.0
 10
-25.836000000000002
 20
5.0
 10
-25.572000000000003
 20
5.0
 10
-25.308
 20
5.0
 10
-25.044
 20
5.0
 10
-24.78
 20
5.0
 10
-24.516000000000002
 20
5.0
 10
-24.252000000000002
 20
5.0
 10
-23.988
 20
5.0
 10
-23.724
 20
5.0
 10
-23.46
 20
5.0
 10
-23.196
 20
5.0
 10
-22.932000000000002
 20
5.0
 10
-22.668
 20
5.0
 10
-22.404
 20
5.0
 10
-22.14
 20
5.0
 10
-21.876
 20
5.0
 10
-21.612000000000002
 20
5.0
 10
-21.348
 20
5.0
 10
-21.084000000000003
 20
5.0
 10
-20.82
 20
5.0
 10
-20.556
 20
5.0
 10
-20.292
 20
5.0
 10
-20.028000000000002
 20
5.0
 10
-19.764000000000003
 20
5.0
 10
-19.5
 20
5.0
 10
-19.236
 20
5.0
 10
-18.972
 20
5.0
 10
-18.708000000000002
 20
5.0
 10
-18.444000000000003
 20
5.0
 10
-18.18
 20
5.0
 10
-17.916
 20
5.0
 10
-17.652
 20
5.0
 10
-17.388
 20
5.0
 10
-17.124000000000002
 20
5.0
 10
-16.86
 20
5.0
 10
-16.596
 20
5.0
 10
-16.332
 20
5.0
 10
-16.068
 20
5.0
 10
-15.804
 20
5.0
 10
-15.540000000000001
 20
5.0
 10
-15.276
 20
5.0
 10
-15.012
 20
5.0
 10
-14.748000000000001
 20
5.0
 10
-14.484
 20
5.0
 10
-14.22
 20
5.0
 10
-13.956000000000001
 20
5.0
 10
-13.692
 20
5.0
 10
-13.428
 20
5.0
 10
-13.164
 20
5.0
 10
-12.900000000000002
 20
5.0
  0
LWPOLYLINE
  5
38
330
17
100
AcDbEntity
  8
0
100
AcDbPolyline
 90
51
 70
0
 10
-12.9
 20
5.0
 10
-12.9
 20
5.14
 10
-12.9
 20
5.28
 10
-12.9
 20
5.42
 10
-12.9
 20
5.5600000000000005
 10
-12.9
 20
5.7
 10
-12.9
 20
5.84
 10
-12.9
 20
5.98
 10
-12.9
 20
6.12
 10
-12.9
 20
6.26
 10
-12.9
 20
6.4
 10
-12.9
 20
6.54
 10
-12.9
 20
6.68
 10
-12.9
 20
6.82
 10
-12.9
 20
6.96
 10
-12.9
 20
7.1
 10
-12.9
 20
7.24
 10
-12.9
 20
7.38
 10
-12.9
 20
7.52
 10
-12.9
 20
7.66
 10
-12.9
 20
7.8
 10
-12.9
 20
7.9399999999999995
 10
-12.9
 20
8.08
 10
-12.9
 20
8.22
 10
-12.9
 20
8.36
 10
-12.9
 20
8.5
 10
-12.900000000000002
 20
8.64
 10
-12.900000000000002
 20
8.78
 10
-12.900000000000002
 20
8.92
 10
-12.900000000000002
 20
9.059999999999999
 10
-12.900000000000002
 20
9.2
 10
-12.900000000000002
 20
9.34
 10
-12.900000000000002
 20
9.48
 10
-12.900000000000002
 20
9.620000000000001
 10
-12.900000000000002
 20
9.76
 10
-12.900000000000002
 20
9.9
 10
-12.900000000000002
 20
10.04
 10
-12.900000000000002
 20
10.18
 10
-12.900000000000002
 20
10.32
 10
-12.900000000000002
 20
10.46
 10
-12.900000000000002
 20
10.6
 10
-12.900000000000002
 20
10.74
 10
-12.900000000000002
 20
10.879999999999999
 10
-12.900000000000002
 20
11.02
 10
-12.900000000000002
 20
11.16
 10
-12.900000000000002
 20
11.3
 10
-12.900000000000002
 20
11.440000000000001
 10
-12.900000000000002
 20
11.58
 10
-12.900000000000002
 20
11.719999999999999
 10
-12.900000000000002
 20
11.86
 10
-12.900000000000002
 20
12.0
  0
ENDSEC
  0
SECTION
  2
OBJECTS
  0
DICTIONARY
  5
A
330
0
100
AcDbDictionary
280
0
281
1
  3
ACAD_COLOR
350
B
  3
ACAD_GROUP
350
C
  3
ACAD_LAYOUT
350
D
  3
ACAD_MATERIAL
350
E
  3
ACAD_MLEADERSTYLE
350
F
  3
ACAD_MLINESTYLE
350
10
  3
ACAD_PLOTSETTINGS
350
11
  3
ACAD_PLOTSTYLENAME
350
12
  3
ACAD_SCALELIST
350
14
  3
ACAD_TABLESTYLE
350
15
  3
ACAD_VISUALSTYLE
350
16
  3
EZDXF_META
350
2D
  0
DICTIONARY
  5
B
330
A
100
AcDbDictionary
280
0
281
1
  0
DICTIONARY
  5
C
330
A
100
AcDbDictionary
280
0
281
1
  0
DICTIONARY
  5
D
330
A
100
AcDbDictionary
280
0
281
1
  3
Model
350
1A
  3
Layout1
350
1E
  0
DICTIONARY
  5
E
330
A
100
AcDbDictionary
280
0
281
1
  3
ByBlock
350
1F
  3
ByLayer
350
20
  3
Global
350
21
  0
DICTIONARY
  5
F
330
A
100
AcDbDictionary
280
0
281
1
  3
Standard
350
2C
  0
DICTIONARY
  5
10
330
A
100
AcDbDictionary
280
0
281
1
  3
Standard
350
22
  0
DICTIONARY
  5
11
330
A
100
AcDbDictionary
280
0
281
1
  0
ACDBDICTIONARYWDFLT
  5
12
330
A
100
AcDbDictionary
280
0
281
1
  3
Normal
350
13
100
AcDbDictionaryWithDefault
340
13
  0
ACDBPLACEHOLDER
  5
13
330
12
  0
DICTIONARY
  5
14
330
A
100
AcDbDictionary
280
0
281
1
  0
DICTIONARY
  5
15
330
A
100
AcDbDictionary
280
0
281
1
  0
DICTIONARY
  5
16
330
A
100
AcDbDictionary
280
0
281
1
  0
LAYOUT
  5
1A
330
D
100
AcDbPlotSettings
  1

  2
Adobe PDF
  4
A3
  6

 40
7.5
 41
20.0
 42
7.5
 43
20.0
 44
420.0
 45
297.0
 46
0.0
 47
0.0
 48
0.0
 49
0.0
140
0.0
141
0.0
142
1.0
143
1.0
 70
1024
 72
1
 73
0
 74
5
  7

 75
16
 76
0
 77
2
 78
300
147
1.0
148
0.0
149
0.0
100
AcDbLayout
  1
Model
 70
1
 71
0
 10
0.0
 20
0.0
 11
420.0
 21
297.0
 12
0.0
 22
0.0
 32
0.0
 14
1e+20
 24
1e+20
 34
1e+20
 15
-1e+20
 25
-1e+20
 35
-1e+20
146
0.0
 13
0.0
 23
0.0
 33
0.0
 16
1.0
 26
0.0
 36
0.0
 17
0.0
 27
1.0
 37
0.0
 76
1
330
17
  0
LAYOUT
  5
1E
330
D
100
AcDbPlotSettings
  1

  2
Adobe PDF
  4
A3
  6

 40
7.5
 41
20.0
 42
7.5
 43
20.0
 44
420.0
 45
297.0
 46
0.0
 47
0.0
 48
0.0
 49
0.0
140
0.0
141
0.0
142
1.0
143
1.0
 70
0
 72
1
 73
0
 74
5
  7

 75
16
 76
0
 77
2
 78
300
147
1.0
148
0.0
149
0.0
100
AcDbLayout
  1
Layout1
 70
1
 71
1
 10
0.0
 20
0.0
 11
420.0
 21
297.0
 12
0.0
 22
0.0
 32
0.0
 14
1e+20
 24
1e+20
 34
1e+20
 15
-1e+20
 25
-1e+20
 35
-1e+20
146
0.0
 13
0.0
 23
0.0
 33
0.0
 16
1.0
 26
0.0
 36
0.0
 17
0.0
 27
1.0
 37
0.0
 76
1
330
1B
  0
MATERIAL
  5
1F
102
{ACAD_REACTORS
330
E
102
}
330
E
100
AcDbMaterial
  1
ByBlock
  2

 70
0
 40
1.0
 71
1
 41
1.0
 91
-1023410177
 42
1.0
 72
1
  3

 73
1
 74
1
 75
1
 44
0.5
 73
0
 45
1.0
 46
1.0
 77
1
  4

 78
1
 79
1
170
1
 48
1.0
171
1
  6

172
1
173
1
174
1
140
1.0
141
1.0
175
1
  7

176
1
177
1
178
1
143
1.0
179
1
  8

270
1
271
1
272
1
145
1.0
146
1.0
273
1
  9

274
1
275
1
276
1
 42
1.0
 72
1
  3

 73
1
 74
1
 75
1
 94
63
  0
MATERIAL
  5
20
102
{ACAD_REACTORS
330
E
102
}
330
E
100
AcDbMaterial
  1
ByLayer
  2

 70
0
 40
1.0
 71
1
 41
1.0
 91
-1023410177
 42
1.0
 72
1
  3

 73
1
 74
1
 75
1
 44
0.5
 73
0
 45
1.0
 46
1.0
 77
1
  4

 78
1
 79
1
170
1
 48
1.0
171
1
  6

172
1
173
1
174
1
140
1.0
141
1.0
175
1
  7

176
1
177
1
178
1
143
1.0
179
1
  8

270
1
271
1
272
1
145
1.0
146
1.0
273
1
  9

274
1
275
1
276
1
 42
1.0
 72
1
  3

 73
1
 74
1
 75
1
 94
63
  0
MATERIAL
  5
21
102
{ACAD_REACTORS
330
E
102
}
330
E
100
AcDbMaterial
  1
Global
  2

 70
0
 40
1.0
 71
1
 41
1.0
 91
-1023410177
 42
1.0
 72
1
  3

 73
1
 74
1
 75
1
 44
0.5
 73
0
 45
1.0
 46
1.0
 77
1
  4

 78
1
 79
1
170
1
 48
1.0
171
1
  6

172
1
173
1
174
1
140
1.0
141
1.0
175
1
  7

176
1
177
1
178
1
143
1.0
179
1
  8

270
1
271
1
272
1
145
1.0
146
1.0
273
1
  9

274
1
275
1
276
1
 42
1.0
 72
1
  3

 73
1
 74
1
 75
1
 94
63
  0
MLINESTYLE
  5
22
102
{ACAD_REACTORS
330
10
102
}
330
10
100
AcDbMlineStyle
  2
Standard
 70
0
  3

 62
256
 51
90.0
 52
90.0
 71
2
 49
0.5
 62
256
  6
BYLAYER
 49
-0.5
 62
256
  6
BYLAYER
  0
MLEADERSTYLE
  5
2C
102
{ACAD_REACTORS
330
F
102
}
330
F
100
AcDbMLeaderStyle
179
2
170
2
171
1
172
0
 90
2
 40
0.0
 41
0.0
173
1
 91
-1056964608
 92
-2
290
1
 42
2.0
291
1
 43
8.0
  3
Standard
 44
4.0
300

342
29
174
1
175
1
176
0
178
1
 93
-1056964608
 45
4.0
292
0
297
0
 46
4.0
 94
-1056964608
 47
1.0
 49
1.0
140
1.0
294
1
141
0.0
177
0
142
1.0
295
0
296
0
143
3.75
271
0
272
9
273
9
  0
DICTIONARY
  5
2D
330
A
100
AcDbDictionary
281
1
  3
CREATED_BY_EZDXF
350
2E
  3
WRITTEN_BY_EZDXF
350
3B
  0
DICTIONARYVAR
  5
2E
330
2D
100
DictionaryVariables
280
0
  1
1.0.3 @ 2025-06-07T16:29:12.081125+00:00
  0
DICTIONARYVAR
  5
3B
330
2D
100
DictionaryVariables
280
0
  1
1.0.3 @ 2025-06-07T16:29:12.085127+00:00
  0
ENDSEC
  0
EOF
