  0
SECTION
  2
HEADER
  9
$ACADVER
  1
AC1027
  9
$ACADMAINTVER
 70
105
  9
$DWGCODEPAGE
  3
ANSI_1252
  9
$LASTSAVEDBY
  1
ezdxf
  9
$REQUIREDVERSIONS
160
0
  9
$INSBASE
 10
0.0
 20
0.0
 30
0.0
  9
$EXTMIN
 10
1e+20
 20
1e+20
 30
1e+20
  9
$EXTMAX
 10
-1e+20
 20
-1e+20
 30
-1e+20
  9
$LIMMIN
 10
0.0
 20
0.0
  9
$LIMMAX
 10
420.0
 20
297.0
  9
$ORTHOMODE
 70
0
  9
$REGENMODE
 70
1
  9
$FILLMODE
 70
1
  9
$QTEXTMODE
 70
0
  9
$MIRRTEXT
 70
1
  9
$LTSCALE
 40
1.0
  9
$ATTMODE
 70
1
  9
$TEXTSIZE
 40
2.5
  9
$TRACEWID
 40
1.0
  9
$TEXTSTYLE
  7
Standard
  9
$CLAYER
  8
0
  9
$CELTYPE
  6
ByLayer
  9
$CECOLOR
 62
256
  9
$CELTSCALE
 40
1.0
  9
$DISPSILH
 70
0
  9
$DIMSCALE
 40
1.0
  9
$DIMASZ
 40
2.5
  9
$DIMEXO
 40
0.625
  9
$DIMDLI
 40
3.75
  9
$DIMRND
 40
0.0
  9
$DIMDLE
 40
0.0
  9
$DIMEXE
 40
1.25
  9
$DIMTP
 40
0.0
  9
$DIMTM
 40
0.0
  9
$DIMTXT
 40
2.5
  9
$DIMCEN
 40
2.5
  9
$DIMTSZ
 40
0.0
  9
$DIMTOL
 70
0
  9
$DIMLIM
 70
0
  9
$DIMTIH
 70
0
  9
$DIMTOH
 70
0
  9
$DIMSE1
 70
0
  9
$DIMSE2
 70
0
  9
$DIMTAD
 70
1
  9
$DIMZIN
 70
8
  9
$DIMBLK
  1

  9
$DIMASO
 70
1
  9
$DIMSHO
 70
1
  9
$DIMPOST
  1

  9
$DIMAPOST
  1

  9
$DIMALT
 70
0
  9
$DIMALTD
 70
3
  9
$DIMALTF
 40
0.03937007874
  9
$DIMLFAC
 40
1.0
  9
$DIMTOFL
 70
1
  9
$DIMTVP
 40
0.0
  9
$DIMTIX
 70
0
  9
$DIMSOXD
 70
0
  9
$DIMSAH
 70
0
  9
$DIMBLK1
  1

  9
$DIMBLK2
  1

  9
$DIMSTYLE
  2
ISO-25
  9
$DIMCLRD
 70
0
  9
$DIMCLRE
 70
0
  9
$DIMCLRT
 70
0
  9
$DIMTFAC
 40
1.0
  9
$DIMGAP
 40
0.625
  9
$DIMJUST
 70
0
  9
$DIMSD1
 70
0
  9
$DIMSD2
 70
0
  9
$DIMTOLJ
 70
0
  9
$DIMTZIN
 70
8
  9
$DIMALTZ
 70
0
  9
$DIMALTTZ
 70
0
  9
$DIMUPT
 70
0
  9
$DIMDEC
 70
2
  9
$DIMTDEC
 70
2
  9
$DIMALTU
 70
2
  9
$DIMALTTD
 70
3
  9
$DIMTXSTY
  7
Standard
  9
$DIMAUNIT
 70
0
  9
$DIMADEC
 70
0
  9
$DIMALTRND
 40
0.0
  9
$DIMAZIN
 70
0
  9
$DIMDSEP
 70
44
  9
$DIMATFIT
 70
3
  9
$DIMFRAC
 70
0
  9
$DIMLDRBLK
  1

  9
$DIMLUNIT
 70
2
  9
$DIMLWD
 70
-2
  9
$DIMLWE
 70
-2
  9
$DIMTMOVE
 70
0
  9
$DIMFXL
 40
1.0
  9
$DIMFXLON
 70
0
  9
$DIMJOGANG
 40
0.785398163397
  9
$DIMTFILL
 70
0
  9
$DIMTFILLCLR
 70
0
  9
$DIMARCSYM
 70
0
  9
$DIMLTYPE
  6

  9
$DIMLTEX1
  6

  9
$DIMLTEX2
  6

  9
$DIMTXTDIRECTION
 70
0
  9
$LUNITS
 70
2
  9
$LUPREC
 70
4
  9
$SKETCHINC
 40
1.0
  9
$FILLETRAD
 40
10.0
  9
$AUNITS
 70
0
  9
$AUPREC
 70
2
  9
$MENU
  1
.
  9
$ELEVATION
 40
0.0
  9
$PELEVATION
 40
0.0
  9
$THICKNESS
 40
0.0
  9
$LIMCHECK
 70
0
  9
$CHAMFERA
 40
0.0
  9
$CHAMFERB
 40
0.0
  9
$CHAMFERC
 40
0.0
  9
$CHAMFERD
 40
0.0
  9
$SKPOLY
 70
0
  9
$TDCREATE
 40
2460825.7773495372
  9
$TDUCREATE
 40
2458532.153996898
  9
$TDUPDATE
 40
2460825.7773495372
  9
$TDUUPDATE
 40
2458532.1544311
  9
$TDINDWG
 40
0.0
  9
$TDUSRTIMER
 40
0.0
  9
$USRTIMER
 70
1
  9
$ANGBASE
 50
0.0
  9
$ANGDIR
 70
0
  9
$PDMODE
 70
0
  9
$PDSIZE
 40
0.0
  9
$PLINEWID
 40
0.0
  9
$SPLFRAME
 70
0
  9
$SPLINETYPE
 70
6
  9
$SPLINESEGS
 70
8
  9
$HANDSEED
  5
50
  9
$SURFTAB1
 70
6
  9
$SURFTAB2
 70
6
  9
$SURFTYPE
 70
6
  9
$SURFU
 70
6
  9
$SURFV
 70
6
  9
$UCSBASE
  2

  9
$UCSNAME
  2

  9
$UCSORG
 10
0.0
 20
0.0
 30
0.0
  9
$UCSXDIR
 10
1.0
 20
0.0
 30
0.0
  9
$UCSYDIR
 10
0.0
 20
1.0
 30
0.0
  9
$UCSORTHOREF
  2

  9
$UCSORTHOVIEW
 70
0
  9
$UCSORGTOP
 10
0.0
 20
0.0
 30
0.0
  9
$UCSORGBOTTOM
 10
0.0
 20
0.0
 30
0.0
  9
$UCSORGLEFT
 10
0.0
 20
0.0
 30
0.0
  9
$UCSORGRIGHT
 10
0.0
 20
0.0
 30
0.0
  9
$UCSORGFRONT
 10
0.0
 20
0.0
 30
0.0
  9
$UCSORGBACK
 10
0.0
 20
0.0
 30
0.0
  9
$PUCSBASE
  2

  9
$PUCSNAME
  2

  9
$PUCSORG
 10
0.0
 20
0.0
 30
0.0
  9
$PUCSXDIR
 10
1.0
 20
0.0
 30
0.0
  9
$PUCSYDIR
 10
0.0
 20
1.0
 30
0.0
  9
$PUCSORTHOREF
  2

  9
$PUCSORTHOVIEW
 70
0
  9
$PUCSORGTOP
 10
0.0
 20
0.0
 30
0.0
  9
$PUCSORGBOTTOM
 10
0.0
 20
0.0
 30
0.0
  9
$PUCSORGLEFT
 10
0.0
 20
0.0
 30
0.0
  9
$PUCSORGRIGHT
 10
0.0
 20
0.0
 30
0.0
  9
$PUCSORGFRONT
 10
0.0
 20
0.0
 30
0.0
  9
$PUCSORGBACK
 10
0.0
 20
0.0
 30
0.0
  9
$USERI1
 70
0
  9
$USERI2
 70
0
  9
$USERI3
 70
0
  9
$USERI4
 70
0
  9
$USERI5
 70
0
  9
$USERR1
 40
0.0
  9
$USERR2
 40
0.0
  9
$USERR3
 40
0.0
  9
$USERR4
 40
0.0
  9
$USERR5
 40
0.0
  9
$WORLDVIEW
 70
1
  9
$SHADEDGE
 70
3
  9
$SHADEDIF
 70
70
  9
$TILEMODE
 70
1
  9
$MAXACTVP
 70
64
  9
$PINSBASE
 10
0.0
 20
0.0
 30
0.0
  9
$PLIMCHECK
 70
0
  9
$PEXTMIN
 10
1e+20
 20
1e+20
 30
1e+20
  9
$PEXTMAX
 10
-1e+20
 20
-1e+20
 30
-1e+20
  9
$PLIMMIN
 10
0.0
 20
0.0
  9
$PLIMMAX
 10
420.0
 20
297.0
  9
$UNITMODE
 70
0
  9
$VISRETAIN
 70
1
  9
$PLINEGEN
 70
0
  9
$PSLTSCALE
 70
1
  9
$TREEDEPTH
 70
3020
  9
$CMLSTYLE
  2
Standard
  9
$CMLJUST
 70
0
  9
$CMLSCALE
 40
20.0
  9
$PROXYGRAPHICS
 70
1
  9
$MEASUREMENT
 70
1
  9
$CELWEIGHT
370
-1
  9
$ENDCAPS
280
0
  9
$JOINSTYLE
280
0
  9
$LWDISPLAY
290
0
  9
$INSUNITS
 70
6
  9
$HYPERLINKBASE
  1

  9
$STYLESHEET
  1

  9
$XEDIT
290
1
  9
$CEPSNTYPE
380
0
  9
$PSTYLEMODE
290
1
  9
$FINGERPRINTGUID
  2
{242EC6A6-581F-4D88-AC79-9EF5CC2BABA5}
  9
$VERSIONGUID
  2
{238DFA72-302E-47D3-A8DA-3B50CC1C89D1}
  9
$EXTNAMES
290
1
  9
$PSVPSCALE
 40
0.0
  9
$OLESTARTUP
290
0
  9
$SORTENTS
280
127
  9
$INDEXCTL
280
0
  9
$HIDETEXT
280
1
  9
$XCLIPFRAME
280
0
  9
$HALOGAP
280
0
  9
$OBSCOLOR
 70
257
  9
$OBSLTYPE
280
0
  9
$INTERSECTIONDISPLAY
280
0
  9
$INTERSECTIONCOLOR
 70
257
  9
$DIMASSOC
280
2
  9
$PROJECTNAME
  1

  9
$CAMERADISPLAY
290
0
  9
$LENSLENGTH
 40
50.0
  9
$CAMERAHEIGHT
 40
0.0
  9
$STEPSPERSEC
 40
24.0
  9
$STEPSIZE
 40
100.0
  9
$3DDWFPREC
 40
2.0
  9
$PSOLWIDTH
 40
0.005
  9
$PSOLHEIGHT
 40
0.08
  9
$LOFTANG1
 40
1.570796326795
  9
$LOFTANG2
 40
1.570796326795
  9
$LOFTMAG1
 40
0.0
  9
$LOFTMAG2
 40
0.0
  9
$LOFTPARAM
 70
7
  9
$LOFTNORMALS
280
1
  9
$LATITUDE
 40
37.795
  9
$LONGITUDE
 40
-122.394
  9
$NORTHDIRECTION
 40
0.0
  9
$TIMEZONE
 70
-8000
  9
$LIGHTGLYPHDISPLAY
280
1
  9
$TILEMODELIGHTSYNCH
280
1
  9
$CMATERIAL
347
20
  9
$SOLIDHIST
280
0
  9
$SHOWHIST
280
1
  9
$DWFFRAME
280
2
  9
$DGNFRAME
280
2
  9
$REALWORLDSCALE
290
1
  9
$INTERFERECOLOR
 62
256
  9
$CSHADOW
280
0
  9
$SHADOWPLANELOCATION
 40
0.0
  0
ENDSEC
  0
SECTION
  2
CLASSES
  0
CLASS
  1
ACDBDICTIONARYWDFLT
  2
AcDbDictionaryWithDefault
  3
ObjectDBX Classes
 90
0
 91
0
280
0
281
0
  0
CLASS
  1
SUN
  2
AcDbSun
  3
SCENEOE
 90
1153
 91
0
280
0
281
0
  0
CLASS
  1
VISUALSTYLE
  2
AcDbVisualStyle
  3
ObjectDBX Classes
 90
4095
 91
0
280
0
281
0
  0
CLASS
  1
MATERIAL
  2
AcDbMaterial
  3
ObjectDBX Classes
 90
1153
 91
0
280
0
281
0
  0
CLASS
  1
SCALE
  2
AcDbScale
  3
ObjectDBX Classes
 90
1153
 91
0
280
0
281
0
  0
CLASS
  1
TABLESTYLE
  2
AcDbTableStyle
  3
ObjectDBX Classes
 90
4095
 91
0
280
0
281
0
  0
CLASS
  1
MLEADERSTYLE
  2
AcDbMLeaderStyle
  3
ACDB_MLEADERSTYLE_CLASS
 90
4095
 91
0
280
0
281
0
  0
CLASS
  1
DICTIONARYVAR
  2
AcDbDictionaryVar
  3
ObjectDBX Classes
 90
0
 91
0
280
0
281
0
  0
CLASS
  1
CELLSTYLEMAP
  2
AcDbCellStyleMap
  3
ObjectDBX Classes
 90
1152
 91
0
280
0
281
0
  0
CLASS
  1
MENTALRAYRENDERSETTINGS
  2
AcDbMentalRayRenderSettings
  3
SCENEOE
 90
1024
 91
0
280
0
281
0
  0
CLASS
  1
ACDBDETAILVIEWSTYLE
  2
AcDbDetailViewStyle
  3
ObjectDBX Classes
 90
1025
 91
0
280
0
281
0
  0
CLASS
  1
ACDBSECTIONVIEWSTYLE
  2
AcDbSectionViewStyle
  3
ObjectDBX Classes
 90
1025
 91
0
280
0
281
0
  0
CLASS
  1
RASTERVARIABLES
  2
AcDbRasterVariables
  3
ISM
 90
0
 91
0
280
0
281
0
  0
CLASS
  1
LAYOUT
  2
AcDbLayout
  3
ObjectDBX Classes
 90
0
 91
0
280
0
281
0
  0
CLASS
  1
ACDBPLACEHOLDER
  2
AcDbPlaceHolder
  3
ObjectDBX Classes
 90
0
 91
0
280
0
281
0
  0
ENDSEC
  0
SECTION
  2
TABLES
  0
TABLE
  2
VPORT
  5
8
330
0
100
AcDbSymbolTable
 70
1
  0
VPORT
  5
23
330
8
100
AcDbSymbolTableRecord
100
AcDbViewportTableRecord
  2
*Active
 70
0
 10
0.0
 20
0.0
 11
1.0
 21
1.0
 12
0.0
 22
0.0
 13
0.0
 23
0.0
 14
0.5
 24
0.5
 15
0.5
 25
0.5
 16
0.0
 26
0.0
 36
1.0
 17
0.0
 27
0.0
 37
0.0
 40
1000.0
 41
1.34
 42
50.0
 43
0.0
 44
0.0
 50
0.0
 51
0.0
 71
0
 72
1000
 73
1
 74
3
 75
0
 76
0
 77
0
 78
0
281
0
 65
0
146
0.0
  0
ENDTAB
  0
TABLE
  2
LTYPE
  5
2
330
0
100
AcDbSymbolTable
 70
3
  0
LTYPE
  5
24
330
2
100
AcDbSymbolTableRecord
100
AcDbLinetypeTableRecord
  2
ByBlock
 70
0
  3

 72
65
 73
0
 40
0.0
  0
LTYPE
  5
25
330
2
100
AcDbSymbolTableRecord
100
AcDbLinetypeTableRecord
  2
ByLayer
 70
0
  3

 72
65
 73
0
 40
0.0
  0
LTYPE
  5
26
330
2
100
AcDbSymbolTableRecord
100
AcDbLinetypeTableRecord
  2
Continuous
 70
0
  3

 72
65
 73
0
 40
0.0
  0
ENDTAB
  0
TABLE
  2
LAYER
  5
1
330
0
100
AcDbSymbolTable
 70
2
  0
LAYER
  5
27
330
1
100
AcDbSymbolTableRecord
100
AcDbLayerTableRecord
  2
0
 70
0
 62
7
  6
Continuous
370
-3
390
13
347
21
  0
LAYER
  5
28
330
1
100
AcDbSymbolTableRecord
100
AcDbLayerTableRecord
  2
Defpoints
 70
0
 62
7
  6
Continuous
290
0
370
-3
390
13
347
21
  0
ENDTAB
  0
TABLE
  2
STYLE
  5
5
330
0
100
AcDbSymbolTable
 70
1
  0
STYLE
  5
29
330
5
100
AcDbSymbolTableRecord
100
AcDbTextStyleTableRecord
  2
Standard
 70
0
 40
0.0
 41
1.0
 50
0.0
 71
0
 42
2.5
  3
txt
  4

  0
ENDTAB
  0
TABLE
  2
VIEW
  5
7
330
0
100
AcDbSymbolTable
 70
0
  0
ENDTAB
  0
TABLE
  2
UCS
  5
6
330
0
100
AcDbSymbolTable
 70
0
  0
ENDTAB
  0
TABLE
  2
APPID
  5
3
330
0
100
AcDbSymbolTable
 70
3
  0
APPID
  5
2A
330
3
100
AcDbSymbolTableRecord
100
AcDbRegAppTableRecord
  2
ACAD
 70
0
  0
APPID
  5
4D
330
3
100
AcDbSymbolTableRecord
100
AcDbRegAppTableRecord
  2
HATCHBACKGROUNDCOLOR
 70
0
  0
APPID
  5
4E
330
3
100
AcDbSymbolTableRecord
100
AcDbRegAppTableRecord
  2
EZDXF
 70
0
  0
ENDTAB
  0
TABLE
  2
DIMSTYLE
  5
4
330
0
100
AcDbSymbolTable
 70
1
100
AcDbDimStyleTable
  0
DIMSTYLE
105
2B
330
4
100
AcDbSymbolTableRecord
100
AcDbDimStyleTableRecord
  2
Standard
 70
0
 40
1.0
 41
2.5
 42
0.625
 43
3.75
 44
1.25
 45
0.0
 46
0.0
 47
0.0
 48
0.0
 49
2.5
140
2.5
141
2.5
142
0.0
143
0.03937007874
144
1.0
145
0.0
146
1.0
147
0.625
148
0.0
 69
0
 70
0
 71
0
 72
0
 73
0
 74
0
 75
0
 76
0
 77
1
 78
8
 79
3
170
0
171
3
172
1
173
0
174
0
175
0
176
0
177
0
178
0
179
2
271
2
272
2
273
2
274
3
275
0
276
0
277
2
278
44
279
0
280
0
281
0
282
0
283
0
284
8
285
0
286
0
288
0
289
3
290
0
371
-2
372
-2
  0
ENDTAB
  0
TABLE
  2
BLOCK_RECORD
  5
9
330
0
100
AcDbSymbolTable
 70
2
  0
BLOCK_RECORD
  5
17
330
9
100
AcDbSymbolTableRecord
100
AcDbBlockTableRecord
  2
*Model_Space
340
1A
 70
0
280
1
281
0
  0
BLOCK_RECORD
  5
1B
330
9
100
AcDbSymbolTableRecord
100
AcDbBlockTableRecord
  2
*Paper_Space
340
1E
 70
0
280
1
281
0
  0
ENDTAB
  0
ENDSEC
  0
SECTION
  2
BLOCKS
  0
BLOCK
  5
18
330
17
100
AcDbEntity
  8
0
100
AcDbBlockBegin
  2
*Model_Space
 70
0
 10
0.0
 20
0.0
 30
0.0
  3
*Model_Space
  1

  0
ENDBLK
  5
19
330
17
100
AcDbEntity
  8
0
100
AcDbBlockEnd
  0
BLOCK
  5
1C
330
1B
100
AcDbEntity
  8
0
100
AcDbBlockBegin
  2
*Paper_Space
 70
0
 10
0.0
 20
0.0
 30
0.0
  3
*Paper_Space
  1

  0
ENDBLK
  5
1D
330
1B
100
AcDbEntity
  8
0
100
AcDbBlockEnd
  0
ENDSEC
  0
SECTION
  2
ENTITIES
  0
LWPOLYLINE
  5
2F
330
17
100
AcDbEntity
  8
0
100
AcDbPolyline
 90
51
 70
0
 10
0.0
 20
-4.0
 10
0.0
 20
-3.92
 10
0.0
 20
-3.84
 10
0.0
 20
-3.76
 10
0.0
 20
-3.6799999999999997
 10
0.0
 20
-3.5999999999999996
 10
0.0
 20
-3.5199999999999996
 10
0.0
 20
-3.4399999999999995
 10
0.0
 20
-3.3599999999999994
 10
0.0
 20
-3.2799999999999994
 10
0.0
 20
-3.1999999999999993
 10
0.0
 20
-3.119999999999999
 10
0.0
 20
-3.039999999999999
 10
0.0
 20
-2.960000000000001
 10
0.0
 20
-2.879999999999999
 10
0.0
 20
-2.8000000000000007
 10
0.0
 20
-2.7200000000000006
 10
0.0
 20
-2.6400000000000006
 10
0.0
 20
-2.5600000000000005
 10
0.0
 20
-2.4800000000000004
 10
0.0
 20
-2.4000000000000004
 10
0.0
 20
-2.3200000000000003
 10
0.0
 20
-2.24
 10
0.0
 20
-2.16
 10
0.0
 20
-2.08
 10
0.0
 20
-2.0
 10
0.0
 20
-1.92
 10
0.0
 20
-1.8399999999999999
 10
0.0
 20
-1.7599999999999998
 10
0.0
 20
-1.6799999999999997
 10
0.0
 20
-1.5999999999999996
 10
0.0
 20
-1.5199999999999996
 10
0.0
 20
-1.4399999999999995
 10
0.0
 20
-1.3599999999999994
 10
0.0
 20
-1.2799999999999994
 10
0.0
 20
-1.1999999999999993
 10
0.0
 20
-1.120000000000001
 10
0.0
 20
-1.0399999999999991
 10
0.0
 20
-0.9600000000000009
 10
0.0
 20
-0.879999999999999
 10
0.0
 20
-0.8000000000000007
 10
0.0
 20
-0.7200000000000006
 10
0.0
 20
-0.6400000000000006
 10
0.0
 20
-0.5600000000000005
 10
0.0
 20
-0.4800000000000004
 10
0.0
 20
-0.40000000000000036
 10
0.0
 20
-0.3200000000000003
 10
0.0
 20
-0.2400000000000002
 10
0.0
 20
-0.16000000000000014
 10
0.0
 20
-0.08000000000000007
 10
0.0
 20
0.0
  0
LWPOLYLINE
  5
30
330
17
100
AcDbEntity
  8
0
100
AcDbPolyline
 90
51
 70
0
 10
-28.0
 20
-25.4
 10
-28.0
 20
-24.892
 10
-28.0
 20
-24.384
 10
-28.0
 20
-23.875999999999998
 10
-28.0
 20
-23.368
 10
-28.0
 20
-22.86
 10
-28.0
 20
-22.351999999999997
 10
-28.0
 20
-21.844
 10
-28.0
 20
-21.336
 10
-28.0
 20
-20.828
 10
-28.0
 20
-20.32
 10
-28.0
 20
-19.811999999999998
 10
-28.0
 20
-19.304
 10
-28.0
 20
-18.796
 10
-28.0
 20
-18.288
 10
-28.0
 20
-17.779999999999998
 10
-28.0
 20
-17.272
 10
-28.0
 20
-16.764
 10
-28.0
 20
-16.256
 10
-28.0
 20
-15.748
 10
-28.0
 20
-15.239999999999998
 10
-28.0
 20
-14.732
 10
-28.0
 20
-14.224
 10
-28.0
 20
-13.716
 10
-28.0
 20
-13.208
 10
-28.0
 20
-12.7
 10
-28.0
 20
-12.191999999999998
 10
-28.0
 20
-11.684
 10
-28.0
 20
-11.176
 10
-28.0
 20
-10.668000000000001
 10
-28.0
 20
-10.159999999999998
 10
-28.0
 20
-9.652
 10
-28.0
 20
-9.143999999999998
 10
-28.0
 20
-8.636
 10
-28.0
 20
-8.128
 10
-28.0
 20
-7.619999999999997
 10
-28.0
 20
-7.111999999999998
 10
-28.0
 20
-6.603999999999999
 10
-28.0
 20
-6.096
 10
-28.0
 20
-5.588000000000001
 10
-28.0
 20
-5.079999999999998
 10
-28.0
 20
-4.572000000000003
 10
-28.0
 20
-4.064
 10
-28.0
 20
-3.5559999999999974
 10
-28.0
 20
-3.048000000000002
 10
-28.0
 20
-2.539999999999999
 10
-28.0
 20
-2.032
 10
-28.0
 20
-1.524000000000001
 10
-28.0
 20
-1.0160000000000018
 10
-28.0
 20
-0.5079999999999991
 10
-28.0
 20
0.0
  0
LWPOLYLINE
  5
31
330
17
100
AcDbEntity
  8
0
100
AcDbPolyline
 90
51
 70
0
 10
0.0
 20
-25.4
 10
0.0
 20
-25.32
 10
0.0
 20
-25.24
 10
0.0
 20
-25.16
 10
0.0
 20
-25.08
 10
0.0
 20
-25.0
 10
0.0
 20
-24.919999999999998
 10
0.0
 20
-24.84
 10
0.0
 20
-24.759999999999998
 10
0.0
 20
-24.68
 10
0.0
 20
-24.599999999999998
 10
0.0
 20
-24.52
 10
0.0
 20
-24.439999999999998
 10
0.0
 20
-24.36
 10
0.0
 20
-24.279999999999998
 10
0.0
 20
-24.2
 10
0.0
 20
-24.119999999999997
 10
0.0
 20
-24.04
 10
0.0
 20
-23.959999999999997
 10
0.0
 20
-23.88
 10
0.0
 20
-23.799999999999997
 10
0.0
 20
-23.72
 10
0.0
 20
-23.639999999999997
 10
0.0
 20
-23.56
 10
0.0
 20
-23.479999999999997
 10
0.0
 20
-23.4
 10
0.0
 20
-23.32
 10
0.0
 20
-23.24
 10
0.0
 20
-23.159999999999997
 10
0.0
 20
-23.08
 10
0.0
 20
-23.0
 10
0.0
 20
-22.919999999999998
 10
0.0
 20
-22.84
 10
0.0
 20
-22.759999999999998
 10
0.0
 20
-22.68
 10
0.0
 20
-22.599999999999998
 10
0.0
 20
-22.52
 10
0.0
 20
-22.439999999999998
 10
0.0
 20
-22.36
 10
0.0
 20
-22.279999999999998
 10
0.0
 20
-22.2
 10
0.0
 20
-22.119999999999997
 10
0.0
 20
-22.04
 10
0.0
 20
-21.959999999999997
 10
0.0
 20
-21.88
 10
0.0
 20
-21.799999999999997
 10
0.0
 20
-21.72
 10
0.0
 20
-21.64
 10
0.0
 20
-21.56
 10
0.0
 20
-21.479999999999997
 10
0.0
 20
-21.4
  0
LWPOLYLINE
  5
32
330
17
100
AcDbEntity
  8
0
100
AcDbPolyline
 90
51
 70
0
 10
-5.0
 20
0.0
 10
-5.12
 20
0.0
 10
-5.24
 20
0.0
 10
-5.36
 20
0.0
 10
-5.48
 20
0.0
 10
-5.6
 20
0.0
 10
-5.72
 20
0.0
 10
-5.84
 20
0.0
 10
-5.96
 20
0.0
 10
-6.08
 20
0.0
 10
-6.2
 20
0.0
 10
-6.32
 20
0.0
 10
-6.4399999999999995
 20
0.0
 10
-6.5600000000000005
 20
0.0
 10
-6.68
 20
0.0
 10
-6.8
 20
0.0
 10
-6.92
 20
0.0
 10
-7.04
 20
0.0
 10
-7.16
 20
0.0
 10
-7.279999999999999
 20
0.0
 10
-7.4
 20
0.0
 10
-7.52
 20
0.0
 10
-7.640000000000001
 20
0.0
 10
-7.76
 20
0.0
 10
-7.88
 20
0.0
 10
-8.0
 20
0.0
 10
-8.120000000000001
 20
0.0
 10
-8.24
 20
0.0
 10
-8.36
 20
0.0
 10
-8.48
 20
0.0
 10
-8.6
 20
0.0
 10
-8.72
 20
0.0
 10
-8.84
 20
0.0
 10
-8.96
 20
0.0
 10
-9.08
 20
0.0
 10
-9.2
 20
0.0
 10
-9.32
 20
0.0
 10
-9.440000000000001
 20
0.0
 10
-9.559999999999999
 20
0.0
 10
-9.68
 20
0.0
 10
-9.8
 20
0.0
 10
-9.92
 20
0.0
 10
-10.04
 20
0.0
 10
-10.16
 20
0.0
 10
-10.280000000000001
 20
0.0
 10
-10.4
 20
0.0
 10
-10.52
 20
0.0
 10
-10.64
 20
0.0
 10
-10.76
 20
0.0
 10
-10.879999999999999
 20
0.0
 10
-11.0
 20
0.0
  0
LWPOLYLINE
  5
33
330
17
100
AcDbEntity
  8
0
100
AcDbPolyline
 90
51
 70
0
 10
-5.0
 20
-4.0
 10
-5.12
 20
-4.0
 10
-5.24
 20
-4.0
 10
-5.36
 20
-4.0
 10
-5.48
 20
-4.0
 10
-5.6
 20
-4.0
 10
-5.72
 20
-4.0
 10
-5.84
 20
-4.0
 10
-5.96
 20
-4.0
 10
-6.08
 20
-4.0
 10
-6.2
 20
-4.0
 10
-6.32
 20
-4.0
 10
-6.4399999999999995
 20
-4.0
 10
-6.5600000000000005
 20
-4.0
 10
-6.68
 20
-4.0
 10
-6.8
 20
-4.0
 10
-6.92
 20
-4.0
 10
-7.04
 20
-4.0
 10
-7.16
 20
-4.0
 10
-7.279999999999999
 20
-4.0
 10
-7.4
 20
-4.0
 10
-7.52
 20
-4.0
 10
-7.640000000000001
 20
-4.0
 10
-7.76
 20
-4.0
 10
-7.88
 20
-4.0
 10
-8.0
 20
-4.0
 10
-8.12
 20
-4.0
 10
-8.24
 20
-4.0
 10
-8.36
 20
-4.0
 10
-8.48
 20
-4.0
 10
-8.6
 20
-4.0
 10
-8.72
 20
-4.0
 10
-8.84
 20
-4.0
 10
-8.959999999999999
 20
-4.0
 10
-9.08
 20
-4.0
 10
-9.200000000000001
 20
-4.0
 10
-9.32
 20
-4.0
 10
-9.44
 20
-4.0
 10
-9.56
 20
-4.0
 10
-9.68
 20
-4.0
 10
-9.799999999999999
 20
-4.0
 10
-9.92
 20
-4.0
 10
-10.040000000000001
 20
-4.0
 10
-10.16
 20
-4.0
 10
-10.28
 20
-4.0
 10
-10.4
 20
-4.0
 10
-10.52
 20
-4.0
 10
-10.639999999999999
 20
-4.0
 10
-10.76
 20
-4.0
 10
-10.88
 20
-4.0
 10
-11.0
 20
-4.0
  0
LWPOLYLINE
  5
34
330
17
100
AcDbEntity
  8
0
100
AcDbPolyline
 90
51
 70
0
 10
0.0
 20
-4.0
 10
-0.0088029061494604
 20
-4.0
 10
-0.017605812298920925
 20
-4.0
 10
-0.026408718448381323
 20
-4.0
 10
-0.042709529160638776
 20
-4.0
 10
-0.06900754595662503
 20
-4.0
 10
-0.09530556275261126
 20
-4.0
 10
-0.12160357954859788
 20
-4.0
 10
-0.16261393733902874
 20
-4.0
 10
-0.2060763519618676
 20
-4.0
 10
-0.24953876658470586
 20
-4.0
 10
-0.29774913342054093
 20
-4.0
 10
-0.3578293807888692
 20
-4.0
 10
-0.4179096281571967
 20
-4.0
 10
-0.47798987552552497
 20
-4.0
 10
-0.549400329162039
 20
-4.0
 10
-0.6253428653058275
 20
-4.0
 10
-0.7012854014496172
 20
-4.0
 10
-0.7793575472106296
 20
-4.0
 10
-0.8702073506749863
 20
-4.0
 10
-0.9610571541393418
 20
-4.0
 10
-1.0519069576036975
 20
-4.0
 10
-1.1506223486850364
 20
-4.0
 10
-1.255236930479111
 20
-4.0
 10
-1.359851512273187
 20
-4.0
 10
-1.4644660940672614
 20
-4.0
 10
-1.5815298651262002
 20
-4.0
 10
-1.698593636185141
 20
-4.0
 10
-1.8156574072440814
 20
-4.0
 10
-1.9374256259123703
 20
-4.0
 10
-2.0654664413931254
 20
-4.0
 10
-2.1935072568738807
 20
-4.0
 10
-2.3215480723546356
 20
-4.0
 10
-2.4576176223006523
 20
-4.0
 10
-2.595025294657541
 20
-4.0
 10
-2.7324329670144305
 20
-4.0
 10
-2.8720231752771643
 20
-4.0
 10
-3.017069723304515
 20
-4.0
 10
-3.1621162713318616
 20
-4.0
 10
-3.3071628193592084
 20
-4.0
 10
-3.4563628182230164
 20
-4.0
 10
-3.6072241974214094
 20
-4.0
 10
-3.758085576619802
 20
-4.0
 10
-3.9095066217890255
 20
-4.0
 10
-4.064285662783238
 20
-4.0
 10
-4.2190647037774465
 20
-4.0
 10
-4.373843744771655
 20
-4.0
 10
-4.529749200366108
 20
-4.0
 10
-4.686499466910739
 20
-4.0
 10
-4.8432497334553695
 20
-4.0
 10
-4.999999999999999
 20
-4.0
  0
LWPOLYLINE
  5
35
330
17
100
AcDbEntity
  8
0
100
AcDbPolyline
 90
51
 70
0
 10
0.0
 20
0.0
 10
-0.008802906149460462
 20
0.0
 10
-0.017605812298920925
 20
0.0
 10
-0.026408718448381323
 20
0.0
 10
-0.04270952916063859
 20
0.0
 10
-0.06900754595662503
 20
0.0
 10
-0.09530556275261146
 20
0.0
 10
-0.12160357954859788
 20
0.0
 10
-0.16261393733902874
 20
0.0
 10
-0.2060763519618673
 20
0.0
 10
-0.24953876658470586
 20
0.0
 10
-0.2977491334205414
 20
0.0
 10
-0.3578293807888692
 20
0.0
 10
-0.4179096281571967
 20
0.0
 10
-0.47798987552552497
 20
0.0
 10
-0.549400329162039
 20
0.0
 10
-0.6253428653058275
 20
0.0
 10
-0.7012854014496172
 20
0.0
 10
-0.7793575472106296
 20
0.0
 10
-0.8702073506749863
 20
0.0
 10
-0.9610571541393418
 20
0.0
 10
-1.0519069576036975
 20
0.0
 10
-1.1506223486850367
 20
0.0
 10
-1.2552369304791113
 20
0.0
 10
-1.3598515122731876
 20
0.0
 10
-1.4644660940672622
 20
0.0
 10
-1.581529865126201
 20
0.0
 10
-1.698593636185142
 20
0.0
 10
-1.8156574072440808
 20
0.0
 10
-1.937425625912371
 20
0.0
 10
-2.065466441393126
 20
0.0
 10
-2.1935072568738807
 20
0.0
 10
-2.321548072354638
 20
0.0
 10
-2.4576176223006523
 20
0.0
 10
-2.595025294657541
 20
0.0
 10
-2.7324329670144305
 20
0.0
 10
-2.8720231752771643
 20
0.0
 10
-3.017069723304513
 20
0.0
 10
-3.16211627133186
 20
0.0
 10
-3.3071628193592084
 20
0.0
 10
-3.456362818223017
 20
0.0
 10
-3.6072241974214094
 20
0.0
 10
-3.7580855766198047
 20
0.0
 10
-3.909506621789028
 20
0.0
 10
-4.064285662783239
 20
0.0
 10
-4.219064703777447
 20
0.0
 10
-4.373843744771656
 20
0.0
 10
-4.529749200366107
 20
0.0
 10
-4.686499466910737
 20
0.0
 10
-4.8432497334553695
 20
0.0
 10
-4.999999999999999
 20
0.0
  0
LWPOLYLINE
  5
36
330
17
100
AcDbEntity
  8
0
100
AcDbPolyline
 90
51
 70
0
 10
-5.0
 20
-21.4
 10
-5.12
 20
-21.4
 10
-5.24
 20
-21.4
 10
-5.36
 20
-21.4
 10
-5.48
 20
-21.4
 10
-5.6
 20
-21.4
 10
-5.72
 20
-21.4
 10
-5.84
 20
-21.4
 10
-5.96
 20
-21.4
 10
-6.08
 20
-21.4
 10
-6.2
 20
-21.4
 10
-6.32
 20
-21.4
 10
-6.4399999999999995
 20
-21.4
 10
-6.5600000000000005
 20
-21.4
 10
-6.68
 20
-21.4
 10
-6.8
 20
-21.4
 10
-6.92
 20
-21.4
 10
-7.04
 20
-21.4
 10
-7.16
 20
-21.4
 10
-7.279999999999999
 20
-21.4
 10
-7.4
 20
-21.4
 10
-7.52
 20
-21.4
 10
-7.640000000000001
 20
-21.4
 10
-7.76
 20
-21.4
 10
-7.88
 20
-21.4
 10
-8.0
 20
-21.4
 10
-8.12
 20
-21.4
 10
-8.24
 20
-21.4
 10
-8.36
 20
-21.4
 10
-8.48
 20
-21.4
 10
-8.6
 20
-21.4
 10
-8.72
 20
-21.4
 10
-8.84
 20
-21.4
 10
-8.959999999999999
 20
-21.4
 10
-9.08
 20
-21.4
 10
-9.200000000000001
 20
-21.4
 10
-9.32
 20
-21.4
 10
-9.44
 20
-21.4
 10
-9.56
 20
-21.4
 10
-9.68
 20
-21.4
 10
-9.799999999999999
 20
-21.4
 10
-9.92
 20
-21.4
 10
-10.040000000000001
 20
-21.4
 10
-10.16
 20
-21.4
 10
-10.28
 20
-21.4
 10
-10.4
 20
-21.4
 10
-10.52
 20
-21.4
 10
-10.639999999999999
 20
-21.4
 10
-10.76
 20
-21.4
 10
-10.88
 20
-21.4
 10
-11.0
 20
-21.4
  0
LWPOLYLINE
  5
37
330
17
100
AcDbEntity
  8
0
100
AcDbPolyline
 90
51
 70
0
 10
-5.0
 20
-25.4
 10
-5.12
 20
-25.4
 10
-5.24
 20
-25.4
 10
-5.36
 20
-25.4
 10
-5.48
 20
-25.4
 10
-5.6
 20
-25.4
 10
-5.72
 20
-25.4
 10
-5.84
 20
-25.4
 10
-5.96
 20
-25.4
 10
-6.08
 20
-25.4
 10
-6.2
 20
-25.4
 10
-6.32
 20
-25.4
 10
-6.4399999999999995
 20
-25.4
 10
-6.5600000000000005
 20
-25.4
 10
-6.68
 20
-25.4
 10
-6.8
 20
-25.4
 10
-6.92
 20
-25.4
 10
-7.04
 20
-25.4
 10
-7.16
 20
-25.4
 10
-7.279999999999999
 20
-25.4
 10
-7.4
 20
-25.4
 10
-7.52
 20
-25.4
 10
-7.640000000000001
 20
-25.4
 10
-7.76
 20
-25.4
 10
-7.88
 20
-25.4
 10
-8.0
 20
-25.4
 10
-8.120000000000001
 20
-25.4
 10
-8.24
 20
-25.4
 10
-8.36
 20
-25.4
 10
-8.48
 20
-25.4
 10
-8.6
 20
-25.4
 10
-8.72
 20
-25.4
 10
-8.84
 20
-25.4
 10
-8.96
 20
-25.4
 10
-9.08
 20
-25.4
 10
-9.2
 20
-25.4
 10
-9.32
 20
-25.4
 10
-9.440000000000001
 20
-25.4
 10
-9.559999999999999
 20
-25.4
 10
-9.68
 20
-25.4
 10
-9.8
 20
-25.4
 10
-9.92
 20
-25.4
 10
-10.04
 20
-25.4
 10
-10.16
 20
-25.4
 10
-10.280000000000001
 20
-25.4
 10
-10.4
 20
-25.4
 10
-10.52
 20
-25.4
 10
-10.64
 20
-25.4
 10
-10.76
 20
-25.4
 10
-10.879999999999999
 20
-25.4
 10
-11.0
 20
-25.4
  0
LWPOLYLINE
  5
38
330
17
100
AcDbEntity
  8
0
100
AcDbPolyline
 90
51
 70
0
 10
-26.714285714285687
 20
0.0
 10
-26.762277345513777
 20
0.0
 10
-26.81026897674187
 20
0.0
 10
-26.85826060796996
 20
0.0
 10
-26.904921937209206
 20
0.0
 10
-26.949809530463327
 20
0.0
 10
-26.994697123717454
 20
0.0
 10
-27.039584716971575
 20
0.0
 10
-27.081724404464556
 20
0.0
 10
-27.123406107664014
 20
0.0
 10
-27.165087810863472
 20
0.0
 10
-27.205826523257617
 20
0.0
 10
-27.24420775863848
 20
0.0
 10
-27.282588994019346
 20
0.0
 10
-27.32097022940021
 20
0.0
 10
-27.35693178144943
 20
0.0
 10
-27.391925460165986
 20
0.0
 10
-27.426919138882546
 20
0.0
 10
-27.46141753774438
 20
0.0
 10
-27.492944257477856
 20
0.0
 10
-27.52447097721133
 20
0.0
 10
-27.555997696944807
 20
0.0
 10
-27.585502419759834
 20
0.0
 10
-27.61349064488602
 20
0.0
 10
-27.64147887001221
 20
0.0
 10
-27.6694670951384
 20
0.0
 10
-27.6938533190454
 20
0.0
 10
-27.718239542952393
 20
0.0
 10
-27.74262576685939
 20
0.0
 10
-27.765444561600976
 20
0.0
 10
-27.78617345078869
 20
0.0
 10
-27.8069023399764
 20
0.0
 10
-27.827631229164112
 20
0.0
 10
-27.84518494444907
 20
0.0
 10
-27.862209464083566
 20
0.0
 10
-27.879233983718063
 20
0.0
 10
-27.895189075067783
 20
0.0
 10
-27.90847059570556
 20
0.0
 10
-27.921752116343335
 20
0.0
 10
-27.93503363698111
 20
0.0
 10
-27.9456200609062
 20
0.0
 10
-27.95512844614622
 20
0.0
 10
-27.964636831386237
 20
0.0
 10
-27.973603115144055
 20
0.0
 10
-27.979316790008678
 20
0.0
 10
-27.9850304648733
 20
0.0
 10
-27.990744139737924
 20
0.0
 10
-27.99428200033112
 20
0.0
 10
-27.996188000220744
 20
0.0
 10
-27.998094000110374
 20
0.0
 10
-28.0
 20
0.0
  0
LWPOLYLINE
  5
39
330
17
100
AcDbEntity
  8
0
100
AcDbPolyline
 90
51
 70
0
 10
-26.714285714285687
 20
-25.4
 10
-26.762277345513777
 20
-25.4
 10
-26.81026897674187
 20
-25.4
 10
-26.85826060796996
 20
-25.4
 10
-26.904921937209206
 20
-25.4
 10
-26.949809530463327
 20
-25.4
 10
-26.994697123717454
 20
-25.4
 10
-27.039584716971575
 20
-25.4
 10
-27.081724404464556
 20
-25.4
 10
-27.123406107664014
 20
-25.4
 10
-27.165087810863472
 20
-25.4
 10
-27.205826523257617
 20
-25.4
 10
-27.24420775863848
 20
-25.4
 10
-27.282588994019346
 20
-25.4
 10
-27.32097022940021
 20
-25.4
 10
-27.35693178144943
 20
-25.4
 10
-27.391925460165986
 20
-25.4
 10
-27.426919138882546
 20
-25.4
 10
-27.46141753774438
 20
-25.4
 10
-27.492944257477856
 20
-25.4
 10
-27.52447097721133
 20
-25.4
 10
-27.555997696944807
 20
-25.4
 10
-27.585502419759834
 20
-25.4
 10
-27.61349064488602
 20
-25.4
 10
-27.64147887001221
 20
-25.4
 10
-27.6694670951384
 20
-25.4
 10
-27.6938533190454
 20
-25.4
 10
-27.718239542952393
 20
-25.4
 10
-27.74262576685939
 20
-25.4
 10
-27.765444561600976
 20
-25.4
 10
-27.78617345078869
 20
-25.4
 10
-27.8069023399764
 20
-25.4
 10
-27.827631229164112
 20
-25.4
 10
-27.84518494444907
 20
-25.4
 10
-27.862209464083566
 20
-25.4
 10
-27.879233983718063
 20
-25.4
 10
-27.895189075067783
 20
-25.4
 10
-27.90847059570556
 20
-25.4
 10
-27.921752116343335
 20
-25.4
 10
-27.93503363698111
 20
-25.4
 10
-27.9456200609062
 20
-25.4
 10
-27.95512844614622
 20
-25.4
 10
-27.964636831386237
 20
-25.4
 10
-27.973603115144055
 20
-25.4
 10
-27.979316790008678
 20
-25.4
 10
-27.9850304648733
 20
-25.4
 10
-27.990744139737924
 20
-25.4
 10
-27.99428200033112
 20
-25.4
 10
-27.996188000220744
 20
-25.4
 10
-27.998094000110374
 20
-25.4
 10
-28.0
 20
-25.4
  0
LWPOLYLINE
  5
3A
330
17
100
AcDbEntity
  8
0
100
AcDbPolyline
 90
51
 70
0
 10
0.0
 20
-21.4
 10
-0.0088029061494604
 20
-21.4
 10
-0.017605812298920925
 20
-21.4
 10
-0.026408718448381323
 20
-21.4
 10
-0.042709529160638776
 20
-21.4
 10
-0.06900754595662503
 20
-21.4
 10
-0.09530556275261126
 20
-21.4
 10
-0.12160357954859788
 20
-21.4
 10
-0.16261393733902874
 20
-21.4
 10
-0.2060763519618676
 20
-21.4
 10
-0.24953876658470586
 20
-21.4
 10
-0.29774913342054093
 20
-21.4
 10
-0.3578293807888692
 20
-21.4
 10
-0.4179096281571967
 20
-21.4
 10
-0.47798987552552497
 20
-21.4
 10
-0.549400329162039
 20
-21.4
 10
-0.6253428653058275
 20
-21.4
 10
-0.7012854014496172
 20
-21.4
 10
-0.7793575472106296
 20
-21.4
 10
-0.8702073506749863
 20
-21.4
 10
-0.9610571541393418
 20
-21.4
 10
-1.0519069576036975
 20
-21.4
 10
-1.1506223486850364
 20
-21.4
 10
-1.255236930479111
 20
-21.4
 10
-1.359851512273187
 20
-21.4
 10
-1.4644660940672614
 20
-21.4
 10
-1.5815298651262002
 20
-21.4
 10
-1.698593636185141
 20
-21.4
 10
-1.8156574072440814
 20
-21.4
 10
-1.9374256259123703
 20
-21.4
 10
-2.0654664413931254
 20
-21.4
 10
-2.1935072568738807
 20
-21.4
 10
-2.3215480723546356
 20
-21.4
 10
-2.4576176223006523
 20
-21.4
 10
-2.595025294657541
 20
-21.4
 10
-2.7324329670144305
 20
-21.4
 10
-2.8720231752771643
 20
-21.4
 10
-3.017069723304515
 20
-21.4
 10
-3.1621162713318616
 20
-21.4
 10
-3.3071628193592084
 20
-21.4
 10
-3.4563628182230164
 20
-21.4
 10
-3.6072241974214094
 20
-21.4
 10
-3.758085576619802
 20
-21.4
 10
-3.9095066217890255
 20
-21.4
 10
-4.064285662783238
 20
-21.4
 10
-4.2190647037774465
 20
-21.4
 10
-4.373843744771655
 20
-21.4
 10
-4.529749200366108
 20
-21.4
 10
-4.686499466910739
 20
-21.4
 10
-4.8432497334553695
 20
-21.4
 10
-4.999999999999999
 20
-21.4
  0
LWPOLYLINE
  5
3B
330
17
100
AcDbEntity
  8
0
100
AcDbPolyline
 90
51
 70
0
 10
0.0
 20
-25.4
 10
-0.008802906149460462
 20
-25.4
 10
-0.017605812298920925
 20
-25.4
 10
-0.026408718448381323
 20
-25.4
 10
-0.04270952916063859
 20
-25.4
 10
-0.06900754595662503
 20
-25.4
 10
-0.09530556275261146
 20
-25.4
 10
-0.12160357954859788
 20
-25.4
 10
-0.16261393733902874
 20
-25.4
 10
-0.2060763519618673
 20
-25.4
 10
-0.24953876658470586
 20
-25.4
 10
-0.2977491334205414
 20
-25.4
 10
-0.3578293807888692
 20
-25.4
 10
-0.4179096281571967
 20
-25.4
 10
-0.47798987552552497
 20
-25.4
 10
-0.549400329162039
 20
-25.4
 10
-0.6253428653058275
 20
-25.4
 10
-0.7012854014496172
 20
-25.4
 10
-0.7793575472106296
 20
-25.4
 10
-0.8702073506749863
 20
-25.4
 10
-0.9610571541393418
 20
-25.4
 10
-1.0519069576036975
 20
-25.4
 10
-1.1506223486850367
 20
-25.4
 10
-1.2552369304791113
 20
-25.4
 10
-1.3598515122731876
 20
-25.4
 10
-1.4644660940672622
 20
-25.4
 10
-1.581529865126201
 20
-25.4
 10
-1.698593636185142
 20
-25.4
 10
-1.8156574072440808
 20
-25.4
 10
-1.937425625912371
 20
-25.4
 10
-2.065466441393126
 20
-25.4
 10
-2.1935072568738807
 20
-25.4
 10
-2.321548072354638
 20
-25.4
 10
-2.4576176223006523
 20
-25.4
 10
-2.595025294657541
 20
-25.4
 10
-2.7324329670144305
 20
-25.4
 10
-2.8720231752771643
 20
-25.4
 10
-3.017069723304513
 20
-25.4
 10
-3.16211627133186
 20
-25.4
 10
-3.3071628193592084
 20
-25.4
 10
-3.456362818223017
 20
-25.4
 10
-3.6072241974214094
 20
-25.4
 10
-3.7580855766198047
 20
-25.4
 10
-3.909506621789028
 20
-25.4
 10
-4.064285662783239
 20
-25.4
 10
-4.219064703777447
 20
-25.4
 10
-4.373843744771656
 20
-25.4
 10
-4.529749200366107
 20
-25.4
 10
-4.686499466910737
 20
-25.4
 10
-4.8432497334553695
 20
-25.4
 10
-4.999999999999999
 20
-25.4
  0
LWPOLYLINE
  5
3C
330
17
100
AcDbEntity
  8
0
100
AcDbPolyline
 90
51
 70
0
 10
-19.0
 20
0.0
 10
-19.0
 20
-0.5079999999999991
 10
-19.0
 20
-1.016
 10
-19.0
 20
-1.5239999999999991
 10
-19.0
 20
-2.032
 10
-19.0
 20
-2.539999999999999
 10
-19.0
 20
-3.048
 10
-19.0
 20
-3.555999999999999
 10
-19.0
 20
-4.064
 10
-19.0
 20
-4.571999999999999
 10
-19.0
 20
-5.08
 10
-19.0
 20
-5.587999999999999
 10
-19.0
 20
-6.095999999999999
 10
-19.0
 20
-6.604
 10
-19.0
 20
-7.111999999999999
 10
-19.0
 20
-7.62
 10
-19.0
 20
-8.128
 10
-19.0
 20
-8.636
 10
-19.0
 20
-9.144
 10
-19.0
 20
-9.652
 10
-19.0
 20
-10.16
 10
-19.0
 20
-10.668
 10
-19.0
 20
-11.175999999999998
 10
-19.0
 20
-11.684
 10
-19.0
 20
-12.191999999999998
 10
-19.0
 20
-12.7
 10
-19.0
 20
-13.208
 10
-19.0
 20
-13.716
 10
-19.0
 20
-14.223999999999998
 10
-19.0
 20
-14.731999999999998
 10
-19.0
 20
-15.24
 10
-19.0
 20
-15.748
 10
-19.0
 20
-16.256
 10
-19.0
 20
-16.764
 10
-19.0
 20
-17.272
 10
-19.0
 20
-17.78
 10
-19.0
 20
-18.288
 10
-19.0
 20
-18.796
 10
-19.0
 20
-19.304
 10
-19.0
 20
-19.811999999999998
 10
-19.0
 20
-20.32
 10
-19.0
 20
-20.827999999999996
 10
-19.0
 20
-21.336
 10
-19.0
 20
-21.844
 10
-19.0
 20
-22.351999999999997
 10
-19.0
 20
-22.86
 10
-19.0
 20
-23.368
 10
-19.0
 20
-23.875999999999998
 10
-19.0
 20
-24.383999999999997
 10
-19.0
 20
-24.892
 10
-19.0
 20
-25.4
  0
LWPOLYLINE
  5
3D
330
17
100
AcDbEntity
  8
0
100
AcDbPolyline
 90
51
 70
0
 10
-20.0
 20
0.0
 10
-20.08
 20
0.0
 10
-20.16
 20
0.0
 10
-20.24
 20
0.0
 10
-20.32
 20
0.0
 10
-20.4
 20
0.0
 10
-20.48
 20
0.0
 10
-20.56
 20
0.0
 10
-20.64
 20
0.0
 10
-20.72
 20
0.0
 10
-20.8
 20
0.0
 10
-20.88
 20
0.0
 10
-20.96
 20
0.0
 10
-21.04
 20
0.0
 10
-21.12
 20
0.0
 10
-21.2
 20
0.0
 10
-21.28
 20
0.0
 10
-21.36
 20
0.0
 10
-21.44
 20
0.0
 10
-21.52
 20
0.0
 10
-21.6
 20
0.0
 10
-21.68
 20
0.0
 10
-21.759999999999998
 20
0.0
 10
-21.84
 20
0.0
 10
-21.92
 20
0.0
 10
-22.0
 20
0.0
 10
-22.08
 20
0.0
 10
-22.16
 20
0.0
 10
-22.240000000000002
 20
0.0
 10
-22.32
 20
0.0
 10
-22.4
 20
0.0
 10
-22.48
 20
0.0
 10
-22.56
 20
0.0
 10
-22.64
 20
0.0
 10
-22.72
 20
0.0
 10
-22.8
 20
0.0
 10
-22.88
 20
0.0
 10
-22.96
 20
0.0
 10
-23.04
 20
0.0
 10
-23.12
 20
0.0
 10
-23.2
 20
0.0
 10
-23.28
 20
0.0
 10
-23.36
 20
0.0
 10
-23.439999999999998
 20
0.0
 10
-23.52
 20
0.0
 10
-23.6
 20
0.0
 10
-23.68
 20
0.0
 10
-23.759999999999998
 20
0.0
 10
-23.84
 20
0.0
 10
-23.92
 20
0.0
 10
-24.0
 20
0.0
  0
LWPOLYLINE
  5
3E
330
17
100
AcDbEntity
  8
0
100
AcDbPolyline
 90
51
 70
0
 10
-24.0
 20
0.0
 10
-24.0
 20
-0.5079999999999991
 10
-24.0
 20
-1.016
 10
-24.0
 20
-1.5239999999999991
 10
-24.0
 20
-2.032
 10
-24.0
 20
-2.539999999999999
 10
-24.0
 20
-3.048
 10
-24.0
 20
-3.555999999999999
 10
-24.0
 20
-4.064
 10
-24.0
 20
-4.571999999999999
 10
-24.0
 20
-5.08
 10
-24.0
 20
-5.587999999999999
 10
-24.0
 20
-6.095999999999999
 10
-24.0
 20
-6.604
 10
-24.0
 20
-7.111999999999999
 10
-24.0
 20
-7.62
 10
-24.0
 20
-8.128
 10
-24.0
 20
-8.636
 10
-24.0
 20
-9.144
 10
-24.0
 20
-9.652
 10
-24.0
 20
-10.16
 10
-24.0
 20
-10.668
 10
-24.0
 20
-11.175999999999998
 10
-24.0
 20
-11.684
 10
-24.0
 20
-12.191999999999998
 10
-24.0
 20
-12.7
 10
-24.0
 20
-13.208
 10
-24.0
 20
-13.716
 10
-24.0
 20
-14.223999999999998
 10
-24.0
 20
-14.731999999999998
 10
-24.0
 20
-15.24
 10
-24.0
 20
-15.748
 10
-24.0
 20
-16.256
 10
-24.0
 20
-16.764
 10
-24.0
 20
-17.272
 10
-24.0
 20
-17.78
 10
-24.0
 20
-18.288
 10
-24.0
 20
-18.796
 10
-24.0
 20
-19.304
 10
-24.0
 20
-19.811999999999998
 10
-24.0
 20
-20.32
 10
-24.0
 20
-20.827999999999996
 10
-24.0
 20
-21.336
 10
-24.0
 20
-21.844
 10
-24.0
 20
-22.351999999999997
 10
-24.0
 20
-22.86
 10
-24.0
 20
-23.368
 10
-24.0
 20
-23.875999999999998
 10
-24.0
 20
-24.383999999999997
 10
-24.0
 20
-24.892
 10
-24.0
 20
-25.4
  0
LWPOLYLINE
  5
3F
330
17
100
AcDbEntity
  8
0
100
AcDbPolyline
 90
51
 70
0
 10
-20.0
 20
-25.4
 10
-20.08
 20
-25.4
 10
-20.16
 20
-25.4
 10
-20.24
 20
-25.4
 10
-20.32
 20
-25.4
 10
-20.4
 20
-25.4
 10
-20.48
 20
-25.4
 10
-20.56
 20
-25.4
 10
-20.64
 20
-25.4
 10
-20.72
 20
-25.4
 10
-20.8
 20
-25.4
 10
-20.88
 20
-25.4
 10
-20.96
 20
-25.4
 10
-21.04
 20
-25.4
 10
-21.12
 20
-25.4
 10
-21.2
 20
-25.4
 10
-21.28
 20
-25.4
 10
-21.36
 20
-25.4
 10
-21.44
 20
-25.4
 10
-21.52
 20
-25.4
 10
-21.6
 20
-25.4
 10
-21.68
 20
-25.4
 10
-21.759999999999998
 20
-25.4
 10
-21.84
 20
-25.4
 10
-21.92
 20
-25.4
 10
-22.0
 20
-25.4
 10
-22.08
 20
-25.4
 10
-22.16
 20
-25.4
 10
-22.240000000000002
 20
-25.4
 10
-22.32
 20
-25.4
 10
-22.4
 20
-25.4
 10
-22.48
 20
-25.4
 10
-22.56
 20
-25.4
 10
-22.64
 20
-25.4
 10
-22.72
 20
-25.4
 10
-22.8
 20
-25.4
 10
-22.88
 20
-25.4
 10
-22.96
 20
-25.4
 10
-23.04
 20
-25.4
 10
-23.12
 20
-25.4
 10
-23.2
 20
-25.4
 10
-23.28
 20
-25.4
 10
-23.36
 20
-25.4
 10
-23.439999999999998
 20
-25.4
 10
-23.52
 20
-25.4
 10
-23.6
 20
-25.4
 10
-23.68
 20
-25.4
 10
-23.759999999999998
 20
-25.4
 10
-23.84
 20
-25.4
 10
-23.92
 20
-25.4
 10
-24.0
 20
-25.4
  0
LWPOLYLINE
  5
40
330
17
100
AcDbEntity
  8
0
100
AcDbPolyline
 90
51
 70
0
 10
-20.0
 20
-25.4
 10
-20.0
 20
-24.892
 10
-20.0
 20
-24.384
 10
-20.0
 20
-23.875999999999998
 10
-20.0
 20
-23.368
 10
-20.0
 20
-22.86
 10
-20.0
 20
-22.351999999999997
 10
-20.0
 20
-21.844
 10
-20.0
 20
-21.336
 10
-20.0
 20
-20.828
 10
-20.0
 20
-20.32
 10
-20.0
 20
-19.811999999999998
 10
-20.0
 20
-19.304
 10
-20.0
 20
-18.796
 10
-20.0
 20
-18.288
 10
-20.0
 20
-17.779999999999998
 10
-20.0
 20
-17.272
 10
-20.0
 20
-16.764
 10
-20.0
 20
-16.256
 10
-20.0
 20
-15.748
 10
-20.0
 20
-15.239999999999998
 10
-20.0
 20
-14.732
 10
-20.0
 20
-14.224
 10
-20.0
 20
-13.716
 10
-20.0
 20
-13.208
 10
-20.0
 20
-12.7
 10
-20.0
 20
-12.191999999999998
 10
-20.0
 20
-11.684
 10
-20.0
 20
-11.176
 10
-20.0
 20
-10.668000000000001
 10
-20.0
 20
-10.159999999999998
 10
-20.0
 20
-9.652
 10
-20.0
 20
-9.143999999999998
 10
-20.0
 20
-8.636
 10
-20.0
 20
-8.128
 10
-20.0
 20
-7.619999999999997
 10
-20.0
 20
-7.111999999999998
 10
-20.0
 20
-6.603999999999999
 10
-20.0
 20
-6.096
 10
-20.0
 20
-5.588000000000001
 10
-20.0
 20
-5.079999999999998
 10
-20.0
 20
-4.572000000000003
 10
-20.0
 20
-4.064
 10
-20.0
 20
-3.5559999999999974
 10
-20.0
 20
-3.048000000000002
 10
-20.0
 20
-2.539999999999999
 10
-20.0
 20
-2.032
 10
-20.0
 20
-1.524000000000001
 10
-20.0
 20
-1.0160000000000018
 10
-20.0
 20
-0.5079999999999991
 10
-20.0
 20
0.0
  0
LWPOLYLINE
  5
41
330
17
100
AcDbEntity
  8
0
100
AcDbPolyline
 90
51
 70
0
 10
-25.0
 20
-25.4
 10
-25.0
 20
-24.892
 10
-25.0
 20
-24.384
 10
-25.0
 20
-23.875999999999998
 10
-25.0
 20
-23.368
 10
-25.0
 20
-22.86
 10
-25.0
 20
-22.351999999999997
 10
-25.0
 20
-21.844
 10
-25.0
 20
-21.336
 10
-25.0
 20
-20.828
 10
-25.0
 20
-20.32
 10
-25.0
 20
-19.811999999999998
 10
-25.0
 20
-19.304
 10
-25.0
 20
-18.796
 10
-25.0
 20
-18.288
 10
-25.0
 20
-17.779999999999998
 10
-25.0
 20
-17.272
 10
-25.0
 20
-16.764
 10
-25.0
 20
-16.256
 10
-25.0
 20
-15.748
 10
-25.0
 20
-15.239999999999998
 10
-25.0
 20
-14.732
 10
-25.0
 20
-14.224
 10
-25.0
 20
-13.716
 10
-25.0
 20
-13.208
 10
-25.0
 20
-12.7
 10
-25.0
 20
-12.191999999999998
 10
-25.0
 20
-11.684
 10
-25.0
 20
-11.176
 10
-25.0
 20
-10.668000000000001
 10
-25.0
 20
-10.159999999999998
 10
-25.0
 20
-9.652
 10
-25.0
 20
-9.143999999999998
 10
-25.0
 20
-8.636
 10
-25.0
 20
-8.128
 10
-25.0
 20
-7.619999999999997
 10
-25.0
 20
-7.111999999999998
 10
-25.0
 20
-6.603999999999999
 10
-25.0
 20
-6.096
 10
-25.0
 20
-5.588000000000001
 10
-25.0
 20
-5.079999999999998
 10
-25.0
 20
-4.572000000000003
 10
-25.0
 20
-4.064
 10
-25.0
 20
-3.5559999999999974
 10
-25.0
 20
-3.048000000000002
 10
-25.0
 20
-2.539999999999999
 10
-25.0
 20
-2.032
 10
-25.0
 20
-1.524000000000001
 10
-25.0
 20
-1.0160000000000018
 10
-25.0
 20
-0.5079999999999991
 10
-25.0
 20
0.0
  0
LWPOLYLINE
  5
42
330
17
100
AcDbEntity
  8
0
100
AcDbPolyline
 90
51
 70
0
 10
-23.999999999999986
 20
-25.4
 10
-24.019999999999985
 20
-25.4
 10
-24.039999999999985
 20
-25.4
 10
-24.059999999999985
 20
-25.4
 10
-24.079999999999988
 20
-25.4
 10
-24.099999999999987
 20
-25.4
 10
-24.119999999999987
 20
-25.4
 10
-24.139999999999986
 20
-25.4
 10
-24.159999999999986
 20
-25.4
 10
-24.179999999999986
 20
-25.4
 10
-24.199999999999985
 20
-25.4
 10
-24.219999999999988
 20
-25.4
 10
-24.239999999999988
 20
-25.4
 10
-24.259999999999987
 20
-25.4
 10
-24.279999999999987
 20
-25.4
 10
-24.299999999999986
 20
-25.4
 10
-24.319999999999986
 20
-25.4
 10
-24.339999999999986
 20
-25.4
 10
-24.35999999999999
 20
-25.4
 10
-24.37999999999999
 20
-25.4
 10
-24.399999999999988
 20
-25.4
 10
-24.419999999999987
 20
-25.4
 10
-24.439999999999987
 20
-25.4
 10
-24.459999999999987
 20
-25.4
 10
-24.479999999999986
 20
-25.4
 10
-24.499999999999986
 20
-25.4
 10
-24.51999999999999
 20
-25.4
 10
-24.53999999999999
 20
-25.4
 10
-24.559999999999988
 20
-25.4
 10
-24.579999999999988
 20
-25.4
 10
-24.599999999999987
 20
-25.4
 10
-24.619999999999987
 20
-25.4
 10
-24.639999999999986
 20
-25.4
 10
-24.65999999999999
 20
-25.4
 10
-24.67999999999999
 20
-25.4
 10
-24.69999999999999
 20
-25.4
 10
-24.719999999999988
 20
-25.4
 10
-24.739999999999988
 20
-25.4
 10
-24.759999999999987
 20
-25.4
 10
-24.779999999999987
 20
-25.4
 10
-24.79999999999999
 20
-25.4
 10
-24.81999999999999
 20
-25.4
 10
-24.83999999999999
 20
-25.4
 10
-24.85999999999999
 20
-25.4
 10
-24.87999999999999
 20
-25.4
 10
-24.899999999999988
 20
-25.4
 10
-24.919999999999987
 20
-25.4
 10
-24.93999999999999
 20
-25.4
 10
-24.95999999999999
 20
-25.4
 10
-24.97999999999999
 20
-25.4
 10
-24.99999999999999
 20
-25.4
  0
LWPOLYLINE
  5
43
330
17
100
AcDbEntity
  8
0
100
AcDbPolyline
 90
51
 70
0
 10
-25.0
 20
-25.4
 10
-25.00254133318617
 20
-25.4
 10
-25.00508266637234
 20
-25.4
 10
-25.007623999558508
 20
-25.4
 10
-25.0123411470161
 20
-25.4
 10
-25.01995938016893
 20
-25.4
 10
-25.02757761332176
 20
-25.4
 10
-25.03519584647459
 20
-25.4
 10
-25.047150891485014
 20
-25.4
 10
-25.059828738471708
 20
-25.4
 10
-25.0725065854584
 20
-25.4
 10
-25.08662181735852
 20
-25.4
 10
-25.10433051154222
 20
-25.4
 10
-25.12203920572592
 20
-25.4
 10
-25.13974789990962
 20
-25.4
 10
-25.161021355042575
 20
-25.4
 10
-25.183720714555236
 20
-25.4
 10
-25.206420074067896
 20
-25.4
 10
-25.22982502778117
 20
-25.4
 10
-25.25746354669812
 20
-25.4
 10
-25.285102065615067
 20
-25.4
 10
-25.31274058453202
 20
-25.4
 10
-25.34316564418747
 20
-25.4
 10
-25.375680609396795
 20
-25.4
 10
-25.408195574606122
 20
-25.4
 10
-25.44071053981545
 20
-25.4
 10
-25.478028173317032
 20
-25.4
 10
-25.51534580681862
 20
-25.4
 10
-25.552663440320202
 20
-25.4
 10
-25.592003070740237
 20
-25.4
 10
-25.634038697051537
 20
-25.4
 10
-25.676074323362837
 20
-25.4
 10
-25.718109949674133
 20
-25.4
 10
-25.764107814823245
 20
-25.4
 10
-25.810766053111987
 20
-25.4
 10
-25.85742429140073
 20
-25.4
 10
-25.90537302746635
 20
-25.4
 10
-25.956548007974167
 20
-25.4
 10
-26.007722988481987
 20
-25.4
 10
-26.058897968989804
 20
-25.4
 10
-26.113216252181996
 20
-25.4
 10
-26.168791856447935
 20
-25.4
 10
-26.224367460713875
 20
-25.4
 10
-26.280553710704517
 20
-25.4
 10
-26.340403835043347
 20
-25.4
 10
-26.400253959382177
 20
-25.4
 10
-26.460104083721006
 20
-25.4
 10
-26.522319189373334
 20
-25.4
 10
-26.586308031010788
 20
-25.4
 10
-26.650296872648237
 20
-25.4
 10
-26.71428571428569
 20
-25.4
  0
LWPOLYLINE
  5
44
330
17
100
AcDbEntity
  8
0
100
AcDbPolyline
 90
51
 70
0
 10
-10.999999999999998
 20
-25.4
 10
-11.250800426471406
 20
-25.4
 10
-11.501600852942815
 20
-25.4
 10
-11.75240127941423
 20
-25.4
 10
-12.001850008365349
 20
-25.4
 10
-12.249496473956082
 20
-25.4
 10
-12.497142939546816
 20
-25.4
 10
-12.74478940513755
 20
-25.4
 10
-12.987063077408314
 20
-25.4
 10
-13.228441284125742
 20
-25.4
 10
-13.46981949084317
 20
-25.4
 10
-13.708539489025263
 20
-25.4
 10
-13.94061396586902
 20
-25.4
 10
-14.172688442712781
 20
-25.4
 10
-14.404762919556536
 20
-25.4
 10
-14.62810725277691
 20
-25.4
 10
-14.847959528547932
 20
-25.4
 10
-15.06781180431896
 20
-25.4
 10
-15.28552308423258
 20
-25.4
 10
-15.490388389001788
 20
-25.4
 10
-15.695253693770997
 20
-25.4
 10
-15.900118998540204
 20
-25.4
 10
-16.09494814840947
 20
-25.4
 10
-16.28225018210377
 20
-25.4
 10
-16.46955221579808
 20
-25.4
 10
-16.65685424949238
 20
-25.4
 10
-16.824237580362897
 20
-25.4
 10
-16.99162091123342
 20
-25.4
 10
-17.15900424210394
 20
-25.4
 10
-17.316948867834082
 20
-25.4
 10
-17.46230855337705
 20
-25.4
 10
-17.60766823892002
 20
-25.4
 10
-17.75302792446299
 20
-25.4
 10
-17.877943357680614
 20
-25.4
 10
-17.999451415510674
 20
-25.4
 10
-18.120959473340736
 20
-25.4
 10
-18.235216199159158
 20
-25.4
 10
-18.331344594948487
 20
-25.4
 10
-18.427472990737808
 20
-25.4
 10
-18.523601386527133
 20
-25.4
 10
-18.60073797346447
 20
-25.4
 10
-18.67027783686101
 20
-25.4
 10
-18.73981770025755
 20
-25.4
 10
-18.80543427272224
 20
-25.4
 10
-18.84751109959582
 20
-25.4
 10
-18.8895879264694
 20
-25.4
 10
-18.93166475334298
 20
-25.4
 10
-18.95774605048259
 20
-25.4
 10
-18.97183070032173
 20
-25.4
 10
-18.985915350160862
 20
-25.4
 10
-19.0
 20
-25.4
  0
LWPOLYLINE
  5
45
330
17
100
AcDbEntity
  8
0
100
AcDbPolyline
 90
51
 70
0
 10
-19.000000000000004
 20
-25.4
 10
-19.020000000000003
 20
-25.4
 10
-19.040000000000003
 20
-25.4
 10
-19.060000000000002
 20
-25.4
 10
-19.080000000000002
 20
-25.4
 10
-19.1
 20
-25.4
 10
-19.120000000000005
 20
-25.4
 10
-19.140000000000004
 20
-25.4
 10
-19.160000000000004
 20
-25.4
 10
-19.180000000000003
 20
-25.4
 10
-19.200000000000003
 20
-25.4
 10
-19.220000000000002
 20
-25.4
 10
-19.240000000000002
 20
-25.4
 10
-19.26
 20
-25.4
 10
-19.28
 20
-25.4
 10
-19.300000000000004
 20
-25.4
 10
-19.320000000000004
 20
-25.4
 10
-19.340000000000003
 20
-25.4
 10
-19.360000000000003
 20
-25.4
 10
-19.380000000000003
 20
-25.4
 10
-19.400000000000002
 20
-25.4
 10
-19.42
 20
-25.4
 10
-19.44
 20
-25.4
 10
-19.46
 20
-25.4
 10
-19.48
 20
-25.4
 10
-19.5
 20
-25.4
 10
-19.520000000000003
 20
-25.4
 10
-19.540000000000003
 20
-25.4
 10
-19.560000000000002
 20
-25.4
 10
-19.580000000000002
 20
-25.4
 10
-19.6
 20
-25.4
 10
-19.62
 20
-25.4
 10
-19.64
 20
-25.4
 10
-19.66
 20
-25.4
 10
-19.68
 20
-25.4
 10
-19.7
 20
-25.4
 10
-19.720000000000002
 20
-25.4
 10
-19.740000000000002
 20
-25.4
 10
-19.76
 20
-25.4
 10
-19.78
 20
-25.4
 10
-19.8
 20
-25.4
 10
-19.82
 20
-25.4
 10
-19.84
 20
-25.4
 10
-19.86
 20
-25.4
 10
-19.88
 20
-25.4
 10
-19.900000000000002
 20
-25.4
 10
-19.92
 20
-25.4
 10
-19.94
 20
-25.4
 10
-19.96
 20
-25.4
 10
-19.98
 20
-25.4
 10
-20.0
 20
-25.4
  0
LWPOLYLINE
  5
46
330
17
100
AcDbEntity
  8
0
100
AcDbPolyline
 90
51
 70
0
 10
-25.0
 20
0.0
 10
-24.98
 20
0.0
 10
-24.96
 20
0.0
 10
-24.94
 20
0.0
 10
-24.92
 20
0.0
 10
-24.9
 20
0.0
 10
-24.88
 20
0.0
 10
-24.86
 20
0.0
 10
-24.84
 20
0.0
 10
-24.82
 20
0.0
 10
-24.8
 20
0.0
 10
-24.78
 20
0.0
 10
-24.76
 20
0.0
 10
-24.74
 20
0.0
 10
-24.72
 20
0.0
 10
-24.7
 20
0.0
 10
-24.68
 20
0.0
 10
-24.66
 20
0.0
 10
-24.64
 20
0.0
 10
-24.62
 20
0.0
 10
-24.6
 20
0.0
 10
-24.58
 20
0.0
 10
-24.56
 20
0.0
 10
-24.54
 20
0.0
 10
-24.52
 20
0.0
 10
-24.5
 20
0.0
 10
-24.48
 20
0.0
 10
-24.46
 20
0.0
 10
-24.44
 20
0.0
 10
-24.419999999999998
 20
0.0
 10
-24.4
 20
0.0
 10
-24.38
 20
0.0
 10
-24.36
 20
0.0
 10
-24.34
 20
0.0
 10
-24.32
 20
0.0
 10
-24.3
 20
0.0
 10
-24.28
 20
0.0
 10
-24.259999999999998
 20
0.0
 10
-24.24
 20
0.0
 10
-24.22
 20
0.0
 10
-24.2
 20
0.0
 10
-24.18
 20
0.0
 10
-24.16
 20
0.0
 10
-24.14
 20
0.0
 10
-24.12
 20
0.0
 10
-24.099999999999998
 20
0.0
 10
-24.08
 20
0.0
 10
-24.06
 20
0.0
 10
-24.04
 20
0.0
 10
-24.02
 20
0.0
 10
-24.0
 20
0.0
  0
LWPOLYLINE
  5
47
330
17
100
AcDbEntity
  8
0
100
AcDbPolyline
 90
51
 70
0
 10
-20.0
 20
0.0
 10
-19.98
 20
0.0
 10
-19.96
 20
0.0
 10
-19.94
 20
0.0
 10
-19.92
 20
0.0
 10
-19.9
 20
0.0
 10
-19.88
 20
0.0
 10
-19.86
 20
0.0
 10
-19.84
 20
0.0
 10
-19.82
 20
0.0
 10
-19.8
 20
0.0
 10
-19.78
 20
0.0
 10
-19.76
 20
0.0
 10
-19.74
 20
0.0
 10
-19.72
 20
0.0
 10
-19.7
 20
0.0
 10
-19.68
 20
0.0
 10
-19.66
 20
0.0
 10
-19.64
 20
0.0
 10
-19.62
 20
0.0
 10
-19.6
 20
0.0
 10
-19.58
 20
0.0
 10
-19.56
 20
0.0
 10
-19.54
 20
0.0
 10
-19.52
 20
0.0
 10
-19.5
 20
0.0
 10
-19.48
 20
0.0
 10
-19.46
 20
0.0
 10
-19.44
 20
0.0
 10
-19.419999999999998
 20
0.0
 10
-19.4
 20
0.0
 10
-19.38
 20
0.0
 10
-19.36
 20
0.0
 10
-19.34
 20
0.0
 10
-19.32
 20
0.0
 10
-19.3
 20
0.0
 10
-19.28
 20
0.0
 10
-19.26
 20
0.0
 10
-19.24
 20
0.0
 10
-19.22
 20
0.0
 10
-19.2
 20
0.0
 10
-19.18
 20
0.0
 10
-19.16
 20
0.0
 10
-19.14
 20
0.0
 10
-19.12
 20
0.0
 10
-19.1
 20
0.0
 10
-19.08
 20
0.0
 10
-19.06
 20
0.0
 10
-19.04
 20
0.0
 10
-19.02
 20
0.0
 10
-19.0
 20
0.0
  0
LWPOLYLINE
  5
48
330
17
100
AcDbEntity
  8
0
100
AcDbPolyline
 90
51
 70
0
 10
-19.0
 20
0.0
 10
-18.985915350160862
 20
0.0
 10
-18.97183070032173
 20
0.0
 10
-18.95774605048259
 20
0.0
 10
-18.93166475334298
 20
0.0
 10
-18.8895879264694
 20
0.0
 10
-18.84751109959582
 20
0.0
 10
-18.80543427272224
 20
0.0
 10
-18.739817700257554
 20
0.0
 10
-18.67027783686101
 20
0.0
 10
-18.600737973464472
 20
0.0
 10
-18.523601386527137
 20
0.0
 10
-18.42747299073781
 20
0.0
 10
-18.331344594948483
 20
0.0
 10
-18.235216199159158
 20
0.0
 10
-18.120959473340736
 20
0.0
 10
-17.999451415510674
 20
0.0
 10
-17.87794335768061
 20
0.0
 10
-17.75302792446299
 20
0.0
 10
-17.607668238920024
 20
0.0
 10
-17.462308553377053
 20
0.0
 10
-17.316948867834082
 20
0.0
 10
-17.159004242103943
 20
0.0
 10
-16.991620911233422
 20
0.0
 10
-16.8242375803629
 20
0.0
 10
-16.65685424949238
 20
0.0
 10
-16.469552215798075
 20
0.0
 10
-16.282250182103773
 20
0.0
 10
-16.094948148409472
 20
0.0
 10
-15.900118998540208
 20
0.0
 10
-15.695253693770999
 20
0.0
 10
-15.49038838900179
 20
0.0
 10
-15.28552308423258
 20
0.0
 10
-15.067811804318957
 20
0.0
 10
-14.847959528547932
 20
0.0
 10
-14.62810725277691
 20
0.0
 10
-14.404762919556534
 20
0.0
 10
-14.172688442712778
 20
0.0
 10
-13.940613965869025
 20
0.0
 10
-13.708539489025268
 20
0.0
 10
-13.469819490843173
 20
0.0
 10
-13.228441284125743
 20
0.0
 10
-12.987063077408312
 20
0.0
 10
-12.744789405137553
 20
0.0
 10
-12.49714293954682
 20
0.0
 10
-12.249496473956084
 20
0.0
 10
-12.00185000836535
 20
0.0
 10
-11.752401279414228
 20
0.0
 10
-11.50160085294282
 20
0.0
 10
-11.25080042647141
 20
0.0
 10
-11.0
 20
0.0
  0
LWPOLYLINE
  5
49
330
17
100
AcDbEntity
  8
0
100
AcDbPolyline
 90
51
 70
0
 10
-26.714285714285694
 20
0.0
 10
-26.65029687264824
 20
0.0
 10
-26.586308031010788
 20
0.0
 10
-26.522319189373338
 20
0.0
 10
-26.460104083721006
 20
0.0
 10
-26.40025395938218
 20
0.0
 10
-26.34040383504335
 20
0.0
 10
-26.28055371070452
 20
0.0
 10
-26.22436746071388
 20
0.0
 10
-26.16879185644794
 20
0.0
 10
-26.113216252181996
 20
0.0
 10
-26.058897968989804
 20
0.0
 10
-26.007722988481987
 20
0.0
 10
-25.956548007974167
 20
0.0
 10
-25.905373027466354
 20
0.0
 10
-25.857424291400733
 20
0.0
 10
-25.81076605311199
 20
0.0
 10
-25.764107814823245
 20
0.0
 10
-25.718109949674137
 20
0.0
 10
-25.676074323362837
 20
0.0
 10
-25.634038697051537
 20
0.0
 10
-25.592003070740237
 20
0.0
 10
-25.552663440320202
 20
0.0
 10
-25.51534580681862
 20
0.0
 10
-25.478028173317036
 20
0.0
 10
-25.44071053981545
 20
0.0
 10
-25.408195574606122
 20
0.0
 10
-25.375680609396795
 20
0.0
 10
-25.34316564418747
 20
0.0
 10
-25.31274058453202
 20
0.0
 10
-25.28510206561507
 20
0.0
 10
-25.257463546698123
 20
0.0
 10
-25.22982502778117
 20
0.0
 10
-25.2064200740679
 20
0.0
 10
-25.183720714555236
 20
0.0
 10
-25.16102135504258
 20
0.0
 10
-25.13974789990962
 20
0.0
 10
-25.12203920572592
 20
0.0
 10
-25.10433051154222
 20
0.0
 10
-25.08662181735852
 20
0.0
 10
-25.072506585458395
 20
0.0
 10
-25.059828738471705
 20
0.0
 10
-25.047150891485014
 20
0.0
 10
-25.03519584647459
 20
0.0
 10
-25.02757761332176
 20
0.0
 10
-25.01995938016893
 20
0.0
 10
-25.012341147016105
 20
0.0
 10
-25.007623999558508
 20
0.0
 10
-25.00508266637234
 20
0.0
 10
-25.00254133318617
 20
0.0
 10
-25.0
 20
0.0
  0
LWPOLYLINE
  5
4A
330
17
100
AcDbEntity
  8
0
100
AcDbPolyline
 90
51
 70
0
 10
-13.999999999999988
 20
-21.4
 10
-13.942675297410666
 20
-21.4
 10
-13.885350594821343
 20
-21.4
 10
-13.828025892232022
 20
-21.4
 10
-13.770448329163958
 20
-21.4
 10
-13.712533618790914
 20
-21.4
 10
-13.654618908417866
 20
-21.4
 10
-13.59670419804482
 20
-21.4
 10
-13.538321187957662
 20
-21.4
 10
-13.479860127918153
 20
-21.4
 10
-13.421399067878642
 20
-21.4
 10
-13.362794499355742
 20
-21.4
 10
-13.30383115962436
 20
-21.4
 10
-13.244867819892976
 20
-21.4
 10
-13.185904480161593
 20
-21.4
 10
-13.126614118229188
 20
-21.4
 10
-13.067192947416373
 20
-21.4
 10
-13.007771776603557
 20
-21.4
 10
-12.948291600456162
 20
-21.4
 10
-12.8884573923013
 20
-21.4
 10
-12.828623184146439
 20
-21.4
 10
-12.768788975991576
 20
-21.4
 10
-12.70874452084198
 20
-21.4
 10
-12.648542380446337
 20
-21.4
 10
-12.58834024005069
 20
-21.4
 10
-12.528138099655044
 20
-21.4
 10
-12.46761340947996
 20
-21.4
 10
-12.407088719304875
 20
-21.4
 10
-12.346564029129787
 20
-21.4
 10
-12.285920657168038
 20
-21.4
 10
-12.225119042824067
 20
-21.4
 10
-12.164317428480098
 20
-21.4
 10
-12.103515814136127
 20
-21.4
 10
-12.042516122817913
 20
-21.4
 10
-11.981483418670658
 20
-21.4
 10
-11.920450714523403
 20
-21.4
 10
-11.859365130023523
 20
-21.4
 10
-11.798147344642087
 20
-21.4
 10
-11.73692955926065
 20
-21.4
 10
-11.675711773879213
 20
-21.4
 10
-11.614394750537475
 20
-21.4
 10
-11.553038032011619
 20
-21.4
 10
-11.491681313485763
 20
-21.4
 10
-11.430311354913899
 20
-21.4
 10
-11.368861956066004
 20
-21.4
 10
-11.307412557218106
 20
-21.4
 10
-11.24596315837021
 20
-21.4
 10
-11.184487269445734
 20
-21.4
 10
-11.122991512963823
 20
-21.4
 10
-11.061495756481913
 20
-21.4
 10
-11.0
 20
-21.4
  0
LWPOLYLINE
  5
4B
330
17
100
AcDbEntity
  8
0
100
AcDbPolyline
 90
51
 70
0
 10
-10.999999999999998
 20
-4.0
 10
-11.06149575648191
 20
-4.0
 10
-11.122991512963823
 20
-4.0
 10
-11.184487269445736
 20
-4.0
 10
-11.245963158370206
 20
-4.0
 10
-11.307412557218102
 20
-4.0
 10
-11.368861956066
 20
-4.0
 10
-11.430311354913897
 20
-4.0
 10
-11.491681313485762
 20
-4.0
 10
-11.553038032011619
 20
-4.0
 10
-11.614394750537476
 20
-4.0
 10
-11.675711773879208
 20
-4.0
 10
-11.736929559260645
 20
-4.0
 10
-11.798147344642082
 20
-4.0
 10
-11.85936513002352
 20
-4.0
 10
-11.9204507145234
 20
-4.0
 10
-11.981483418670656
 20
-4.0
 10
-12.042516122817913
 20
-4.0
 10
-12.103515814136122
 20
-4.0
 10
-12.164317428480093
 20
-4.0
 10
-12.225119042824064
 20
-4.0
 10
-12.285920657168035
 20
-4.0
 10
-12.346564029129786
 20
-4.0
 10
-12.407088719304872
 20
-4.0
 10
-12.46761340947996
 20
-4.0
 10
-12.528138099655045
 20
-4.0
 10
-12.588340240050684
 20
-4.0
 10
-12.648542380446331
 20
-4.0
 10
-12.708744520841979
 20
-4.0
 10
-12.768788975991574
 20
-4.0
 10
-12.828623184146437
 20
-4.0
 10
-12.8884573923013
 20
-4.0
 10
-12.948291600456162
 20
-4.0
 10
-13.00777177660355
 20
-4.0
 10
-13.067192947416368
 20
-4.0
 10
-13.126614118229185
 20
-4.0
 10
-13.185904480161591
 20
-4.0
 10
-13.244867819892976
 20
-4.0
 10
-13.303831159624359
 20
-4.0
 10
-13.362794499355743
 20
-4.0
 10
-13.421399067878639
 20
-4.0
 10
-13.47986012791815
 20
-4.0
 10
-13.538321187957658
 20
-4.0
 10
-13.596704198044815
 20
-4.0
 10
-13.654618908417863
 20
-4.0
 10
-13.71253361879091
 20
-4.0
 10
-13.770448329163958
 20
-4.0
 10
-13.828025892232013
 20
-4.0
 10
-13.885350594821336
 20
-4.0
 10
-13.942675297410661
 20
-4.0
 10
-13.999999999999984
 20
-4.0
  0
LWPOLYLINE
  5
4C
330
17
100
AcDbEntity
  8
0
100
AcDbPolyline
 90
51
 70
0
 10
-14.0
 20
-4.0
 10
-14.0
 20
-4.348000000000001
 10
-14.0
 20
-4.696
 10
-14.0
 20
-5.0440000000000005
 10
-14.0
 20
-5.3919999999999995
 10
-14.0
 20
-5.74
 10
-14.0
 20
-6.087999999999999
 10
-14.0
 20
-6.436
 10
-14.0
 20
-6.784000000000001
 10
-14.0
 20
-7.132
 10
-14.0
 20
-7.48
 10
-14.0
 20
-7.827999999999999
 10
-14.0
 20
-8.175999999999998
 10
-14.0
 20
-8.524000000000001
 10
-14.0
 20
-8.872
 10
-14.0
 20
-9.219999999999999
 10
-14.0
 20
-9.568
 10
-14.0
 20
-9.916
 10
-14.0
 20
-10.264
 10
-14.0
 20
-10.611999999999998
 10
-14.0
 20
-10.96
 10
-14.0
 20
-11.308
 10
-14.0
 20
-11.655999999999999
 10
-14.0
 20
-12.004
 10
-14.0
 20
-12.351999999999999
 10
-14.0
 20
-12.7
 10
-14.0
 20
-13.048
 10
-14.0
 20
-13.395999999999999
 10
-14.0
 20
-13.743999999999998
 10
-14.0
 20
-14.091999999999999
 10
-14.0
 20
-14.44
 10
-14.0
 20
-14.788
 10
-14.0
 20
-15.136
 10
-14.0
 20
-15.483999999999998
 10
-14.0
 20
-15.831999999999999
 10
-14.0
 20
-16.18
 10
-14.0
 20
-16.528
 10
-14.0
 20
-16.875999999999998
 10
-14.0
 20
-17.223999999999997
 10
-14.0
 20
-17.571999999999996
 10
-14.0
 20
-17.92
 10
-14.0
 20
-18.268
 10
-14.0
 20
-18.616
 10
-14.0
 20
-18.964
 10
-14.0
 20
-19.311999999999998
 10
-14.0
 20
-19.659999999999997
 10
-14.0
 20
-20.008
 10
-14.0
 20
-20.355999999999998
 10
-14.0
 20
-20.703999999999997
 10
-14.0
 20
-21.052
 10
-14.0
 20
-21.4
  0
ENDSEC
  0
SECTION
  2
OBJECTS
  0
DICTIONARY
  5
A
330
0
100
AcDbDictionary
280
0
281
1
  3
ACAD_COLOR
350
B
  3
ACAD_GROUP
350
C
  3
ACAD_LAYOUT
350
D
  3
ACAD_MATERIAL
350
E
  3
ACAD_MLEADERSTYLE
350
F
  3
ACAD_MLINESTYLE
350
10
  3
ACAD_PLOTSETTINGS
350
11
  3
ACAD_PLOTSTYLENAME
350
12
  3
ACAD_SCALELIST
350
14
  3
ACAD_TABLESTYLE
350
15
  3
ACAD_VISUALSTYLE
350
16
  3
EZDXF_META
350
2D
  0
DICTIONARY
  5
B
330
A
100
AcDbDictionary
280
0
281
1
  0
DICTIONARY
  5
C
330
A
100
AcDbDictionary
280
0
281
1
  0
DICTIONARY
  5
D
330
A
100
AcDbDictionary
280
0
281
1
  3
Model
350
1A
  3
Layout1
350
1E
  0
DICTIONARY
  5
E
330
A
100
AcDbDictionary
280
0
281
1
  3
ByBlock
350
1F
  3
ByLayer
350
20
  3
Global
350
21
  0
DICTIONARY
  5
F
330
A
100
AcDbDictionary
280
0
281
1
  3
Standard
350
2C
  0
DICTIONARY
  5
10
330
A
100
AcDbDictionary
280
0
281
1
  3
Standard
350
22
  0
DICTIONARY
  5
11
330
A
100
AcDbDictionary
280
0
281
1
  0
ACDBDICTIONARYWDFLT
  5
12
330
A
100
AcDbDictionary
280
0
281
1
  3
Normal
350
13
100
AcDbDictionaryWithDefault
340
13
  0
ACDBPLACEHOLDER
  5
13
330
12
  0
DICTIONARY
  5
14
330
A
100
AcDbDictionary
280
0
281
1
  0
DICTIONARY
  5
15
330
A
100
AcDbDictionary
280
0
281
1
  0
DICTIONARY
  5
16
330
A
100
AcDbDictionary
280
0
281
1
  0
LAYOUT
  5
1A
330
D
100
AcDbPlotSettings
  1

  2
Adobe PDF
  4
A3
  6

 40
7.5
 41
20.0
 42
7.5
 43
20.0
 44
420.0
 45
297.0
 46
0.0
 47
0.0
 48
0.0
 49
0.0
140
0.0
141
0.0
142
1.0
143
1.0
 70
1024
 72
1
 73
0
 74
5
  7

 75
16
 76
0
 77
2
 78
300
147
1.0
148
0.0
149
0.0
100
AcDbLayout
  1
Model
 70
1
 71
0
 10
0.0
 20
0.0
 11
420.0
 21
297.0
 12
0.0
 22
0.0
 32
0.0
 14
1e+20
 24
1e+20
 34
1e+20
 15
-1e+20
 25
-1e+20
 35
-1e+20
146
0.0
 13
0.0
 23
0.0
 33
0.0
 16
1.0
 26
0.0
 36
0.0
 17
0.0
 27
1.0
 37
0.0
 76
1
330
17
  0
LAYOUT
  5
1E
330
D
100
AcDbPlotSettings
  1

  2
Adobe PDF
  4
A3
  6

 40
7.5
 41
20.0
 42
7.5
 43
20.0
 44
420.0
 45
297.0
 46
0.0
 47
0.0
 48
0.0
 49
0.0
140
0.0
141
0.0
142
1.0
143
1.0
 70
0
 72
1
 73
0
 74
5
  7

 75
16
 76
0
 77
2
 78
300
147
1.0
148
0.0
149
0.0
100
AcDbLayout
  1
Layout1
 70
1
 71
1
 10
0.0
 20
0.0
 11
420.0
 21
297.0
 12
0.0
 22
0.0
 32
0.0
 14
1e+20
 24
1e+20
 34
1e+20
 15
-1e+20
 25
-1e+20
 35
-1e+20
146
0.0
 13
0.0
 23
0.0
 33
0.0
 16
1.0
 26
0.0
 36
0.0
 17
0.0
 27
1.0
 37
0.0
 76
1
330
1B
  0
MATERIAL
  5
1F
102
{ACAD_REACTORS
330
E
102
}
330
E
100
AcDbMaterial
  1
ByBlock
  2

 70
0
 40
1.0
 71
1
 41
1.0
 91
-1023410177
 42
1.0
 72
1
  3

 73
1
 74
1
 75
1
 44
0.5
 73
0
 45
1.0
 46
1.0
 77
1
  4

 78
1
 79
1
170
1
 48
1.0
171
1
  6

172
1
173
1
174
1
140
1.0
141
1.0
175
1
  7

176
1
177
1
178
1
143
1.0
179
1
  8

270
1
271
1
272
1
145
1.0
146
1.0
273
1
  9

274
1
275
1
276
1
 42
1.0
 72
1
  3

 73
1
 74
1
 75
1
 94
63
  0
MATERIAL
  5
20
102
{ACAD_REACTORS
330
E
102
}
330
E
100
AcDbMaterial
  1
ByLayer
  2

 70
0
 40
1.0
 71
1
 41
1.0
 91
-1023410177
 42
1.0
 72
1
  3

 73
1
 74
1
 75
1
 44
0.5
 73
0
 45
1.0
 46
1.0
 77
1
  4

 78
1
 79
1
170
1
 48
1.0
171
1
  6

172
1
173
1
174
1
140
1.0
141
1.0
175
1
  7

176
1
177
1
178
1
143
1.0
179
1
  8

270
1
271
1
272
1
145
1.0
146
1.0
273
1
  9

274
1
275
1
276
1
 42
1.0
 72
1
  3

 73
1
 74
1
 75
1
 94
63
  0
MATERIAL
  5
21
102
{ACAD_REACTORS
330
E
102
}
330
E
100
AcDbMaterial
  1
Global
  2

 70
0
 40
1.0
 71
1
 41
1.0
 91
-1023410177
 42
1.0
 72
1
  3

 73
1
 74
1
 75
1
 44
0.5
 73
0
 45
1.0
 46
1.0
 77
1
  4

 78
1
 79
1
170
1
 48
1.0
171
1
  6

172
1
173
1
174
1
140
1.0
141
1.0
175
1
  7

176
1
177
1
178
1
143
1.0
179
1
  8

270
1
271
1
272
1
145
1.0
146
1.0
273
1
  9

274
1
275
1
276
1
 42
1.0
 72
1
  3

 73
1
 74
1
 75
1
 94
63
  0
MLINESTYLE
  5
22
102
{ACAD_REACTORS
330
10
102
}
330
10
100
AcDbMlineStyle
  2
Standard
 70
0
  3

 62
256
 51
90.0
 52
90.0
 71
2
 49
0.5
 62
256
  6
BYLAYER
 49
-0.5
 62
256
  6
BYLAYER
  0
MLEADERSTYLE
  5
2C
102
{ACAD_REACTORS
330
F
102
}
330
F
100
AcDbMLeaderStyle
179
2
170
2
171
1
172
0
 90
2
 40
0.0
 41
0.0
173
1
 91
-1056964608
 92
-2
290
1
 42
2.0
291
1
 43
8.0
  3
Standard
 44
4.0
300

342
29
174
1
175
1
176
0
178
1
 93
-1056964608
 45
4.0
292
0
297
0
 46
4.0
 94
-1056964608
 47
1.0
 49
1.0
140
1.0
294
1
141
0.0
177
0
142
1.0
295
0
296
0
143
3.75
271
0
272
9
273
9
  0
DICTIONARY
  5
2D
330
A
100
AcDbDictionary
281
1
  3
CREATED_BY_EZDXF
350
2E
  3
WRITTEN_BY_EZDXF
350
4F
  0
DICTIONARYVAR
  5
2E
330
2D
100
DictionaryVariables
280
0
  1
1.0.3 @ 2025-05-29T09:39:23.354125+00:00
  0
DICTIONARYVAR
  5
4F
330
2D
100
DictionaryVariables
280
0
  1
1.0.3 @ 2025-05-29T09:39:23.360152+00:00
  0
ENDSEC
  0
EOF
