  0
SECTION
  2
HEADER
  9
$ACADVER
  1
AC1027
  9
$ACADMAINTVER
 70
105
  9
$DWGCODEPAGE
  3
ANSI_1252
  9
$LASTSAVEDBY
  1
ezdxf
  9
$REQUIREDVERSIONS
160
0
  9
$INSBASE
 10
0.0
 20
0.0
 30
0.0
  9
$EXTMIN
 10
1e+20
 20
1e+20
 30
1e+20
  9
$EXTMAX
 10
-1e+20
 20
-1e+20
 30
-1e+20
  9
$LIMMIN
 10
0.0
 20
0.0
  9
$LIMMAX
 10
420.0
 20
297.0
  9
$ORTHOMODE
 70
0
  9
$REGENMODE
 70
1
  9
$FILLMODE
 70
1
  9
$QTEXTMODE
 70
0
  9
$MIRRTEXT
 70
1
  9
$LTSCALE
 40
1.0
  9
$ATTMODE
 70
1
  9
$TEXTSIZE
 40
2.5
  9
$TRACEWID
 40
1.0
  9
$TEXTSTYLE
  7
Standard
  9
$CLAYER
  8
0
  9
$CELTYPE
  6
ByLayer
  9
$CECOLOR
 62
256
  9
$CELTSCALE
 40
1.0
  9
$DISPSILH
 70
0
  9
$DIMSCALE
 40
1.0
  9
$DIMASZ
 40
2.5
  9
$DIMEXO
 40
0.625
  9
$DIMDLI
 40
3.75
  9
$DIMRND
 40
0.0
  9
$DIMDLE
 40
0.0
  9
$DIMEXE
 40
1.25
  9
$DIMTP
 40
0.0
  9
$DIMTM
 40
0.0
  9
$DIMTXT
 40
2.5
  9
$DIMCEN
 40
2.5
  9
$DIMTSZ
 40
0.0
  9
$DIMTOL
 70
0
  9
$DIMLIM
 70
0
  9
$DIMTIH
 70
0
  9
$DIMTOH
 70
0
  9
$DIMSE1
 70
0
  9
$DIMSE2
 70
0
  9
$DIMTAD
 70
1
  9
$DIMZIN
 70
8
  9
$DIMBLK
  1

  9
$DIMASO
 70
1
  9
$DIMSHO
 70
1
  9
$DIMPOST
  1

  9
$DIMAPOST
  1

  9
$DIMALT
 70
0
  9
$DIMALTD
 70
3
  9
$DIMALTF
 40
0.03937007874
  9
$DIMLFAC
 40
1.0
  9
$DIMTOFL
 70
1
  9
$DIMTVP
 40
0.0
  9
$DIMTIX
 70
0
  9
$DIMSOXD
 70
0
  9
$DIMSAH
 70
0
  9
$DIMBLK1
  1

  9
$DIMBLK2
  1

  9
$DIMSTYLE
  2
ISO-25
  9
$DIMCLRD
 70
0
  9
$DIMCLRE
 70
0
  9
$DIMCLRT
 70
0
  9
$DIMTFAC
 40
1.0
  9
$DIMGAP
 40
0.625
  9
$DIMJUST
 70
0
  9
$DIMSD1
 70
0
  9
$DIMSD2
 70
0
  9
$DIMTOLJ
 70
0
  9
$DIMTZIN
 70
8
  9
$DIMALTZ
 70
0
  9
$DIMALTTZ
 70
0
  9
$DIMUPT
 70
0
  9
$DIMDEC
 70
2
  9
$DIMTDEC
 70
2
  9
$DIMALTU
 70
2
  9
$DIMALTTD
 70
3
  9
$DIMTXSTY
  7
Standard
  9
$DIMAUNIT
 70
0
  9
$DIMADEC
 70
0
  9
$DIMALTRND
 40
0.0
  9
$DIMAZIN
 70
0
  9
$DIMDSEP
 70
44
  9
$DIMATFIT
 70
3
  9
$DIMFRAC
 70
0
  9
$DIMLDRBLK
  1

  9
$DIMLUNIT
 70
2
  9
$DIMLWD
 70
-2
  9
$DIMLWE
 70
-2
  9
$DIMTMOVE
 70
0
  9
$DIMFXL
 40
1.0
  9
$DIMFXLON
 70
0
  9
$DIMJOGANG
 40
0.785398163397
  9
$DIMTFILL
 70
0
  9
$DIMTFILLCLR
 70
0
  9
$DIMARCSYM
 70
0
  9
$DIMLTYPE
  6

  9
$DIMLTEX1
  6

  9
$DIMLTEX2
  6

  9
$DIMTXTDIRECTION
 70
0
  9
$LUNITS
 70
2
  9
$LUPREC
 70
4
  9
$SKETCHINC
 40
1.0
  9
$FILLETRAD
 40
10.0
  9
$AUNITS
 70
0
  9
$AUPREC
 70
2
  9
$MENU
  1
.
  9
$ELEVATION
 40
0.0
  9
$PELEVATION
 40
0.0
  9
$THICKNESS
 40
0.0
  9
$LIMCHECK
 70
0
  9
$CHAMFERA
 40
0.0
  9
$CHAMFERB
 40
0.0
  9
$CHAMFERC
 40
0.0
  9
$CHAMFERD
 40
0.0
  9
$SKPOLY
 70
0
  9
$TDCREATE
 40
2460825.7773726853
  9
$TDUCREATE
 40
2458532.153996898
  9
$TDUPDATE
 40
2460825.7773726853
  9
$TDUUPDATE
 40
2458532.1544311
  9
$TDINDWG
 40
0.0
  9
$TDUSRTIMER
 40
0.0
  9
$USRTIMER
 70
1
  9
$ANGBASE
 50
0.0
  9
$ANGDIR
 70
0
  9
$PDMODE
 70
0
  9
$PDSIZE
 40
0.0
  9
$PLINEWID
 40
0.0
  9
$SPLFRAME
 70
0
  9
$SPLINETYPE
 70
6
  9
$SPLINESEGS
 70
8
  9
$HANDSEED
  5
44
  9
$SURFTAB1
 70
6
  9
$SURFTAB2
 70
6
  9
$SURFTYPE
 70
6
  9
$SURFU
 70
6
  9
$SURFV
 70
6
  9
$UCSBASE
  2

  9
$UCSNAME
  2

  9
$UCSORG
 10
0.0
 20
0.0
 30
0.0
  9
$UCSXDIR
 10
1.0
 20
0.0
 30
0.0
  9
$UCSYDIR
 10
0.0
 20
1.0
 30
0.0
  9
$UCSORTHOREF
  2

  9
$UCSORTHOVIEW
 70
0
  9
$UCSORGTOP
 10
0.0
 20
0.0
 30
0.0
  9
$UCSORGBOTTOM
 10
0.0
 20
0.0
 30
0.0
  9
$UCSORGLEFT
 10
0.0
 20
0.0
 30
0.0
  9
$UCSORGRIGHT
 10
0.0
 20
0.0
 30
0.0
  9
$UCSORGFRONT
 10
0.0
 20
0.0
 30
0.0
  9
$UCSORGBACK
 10
0.0
 20
0.0
 30
0.0
  9
$PUCSBASE
  2

  9
$PUCSNAME
  2

  9
$PUCSORG
 10
0.0
 20
0.0
 30
0.0
  9
$PUCSXDIR
 10
1.0
 20
0.0
 30
0.0
  9
$PUCSYDIR
 10
0.0
 20
1.0
 30
0.0
  9
$PUCSORTHOREF
  2

  9
$PUCSORTHOVIEW
 70
0
  9
$PUCSORGTOP
 10
0.0
 20
0.0
 30
0.0
  9
$PUCSORGBOTTOM
 10
0.0
 20
0.0
 30
0.0
  9
$PUCSORGLEFT
 10
0.0
 20
0.0
 30
0.0
  9
$PUCSORGRIGHT
 10
0.0
 20
0.0
 30
0.0
  9
$PUCSORGFRONT
 10
0.0
 20
0.0
 30
0.0
  9
$PUCSORGBACK
 10
0.0
 20
0.0
 30
0.0
  9
$USERI1
 70
0
  9
$USERI2
 70
0
  9
$USERI3
 70
0
  9
$USERI4
 70
0
  9
$USERI5
 70
0
  9
$USERR1
 40
0.0
  9
$USERR2
 40
0.0
  9
$USERR3
 40
0.0
  9
$USERR4
 40
0.0
  9
$USERR5
 40
0.0
  9
$WORLDVIEW
 70
1
  9
$SHADEDGE
 70
3
  9
$SHADEDIF
 70
70
  9
$TILEMODE
 70
1
  9
$MAXACTVP
 70
64
  9
$PINSBASE
 10
0.0
 20
0.0
 30
0.0
  9
$PLIMCHECK
 70
0
  9
$PEXTMIN
 10
1e+20
 20
1e+20
 30
1e+20
  9
$PEXTMAX
 10
-1e+20
 20
-1e+20
 30
-1e+20
  9
$PLIMMIN
 10
0.0
 20
0.0
  9
$PLIMMAX
 10
420.0
 20
297.0
  9
$UNITMODE
 70
0
  9
$VISRETAIN
 70
1
  9
$PLINEGEN
 70
0
  9
$PSLTSCALE
 70
1
  9
$TREEDEPTH
 70
3020
  9
$CMLSTYLE
  2
Standard
  9
$CMLJUST
 70
0
  9
$CMLSCALE
 40
20.0
  9
$PROXYGRAPHICS
 70
1
  9
$MEASUREMENT
 70
1
  9
$CELWEIGHT
370
-1
  9
$ENDCAPS
280
0
  9
$JOINSTYLE
280
0
  9
$LWDISPLAY
290
0
  9
$INSUNITS
 70
6
  9
$HYPERLINKBASE
  1

  9
$STYLESHEET
  1

  9
$XEDIT
290
1
  9
$CEPSNTYPE
380
0
  9
$PSTYLEMODE
290
1
  9
$FINGERPRINTGUID
  2
{618EE982-3672-4163-9F6F-74F37C167090}
  9
$VERSIONGUID
  2
{14449E7A-5BC1-466D-8891-EABE81308C17}
  9
$EXTNAMES
290
1
  9
$PSVPSCALE
 40
0.0
  9
$OLESTARTUP
290
0
  9
$SORTENTS
280
127
  9
$INDEXCTL
280
0
  9
$HIDETEXT
280
1
  9
$XCLIPFRAME
280
0
  9
$HALOGAP
280
0
  9
$OBSCOLOR
 70
257
  9
$OBSLTYPE
280
0
  9
$INTERSECTIONDISPLAY
280
0
  9
$INTERSECTIONCOLOR
 70
257
  9
$DIMASSOC
280
2
  9
$PROJECTNAME
  1

  9
$CAMERADISPLAY
290
0
  9
$LENSLENGTH
 40
50.0
  9
$CAMERAHEIGHT
 40
0.0
  9
$STEPSPERSEC
 40
24.0
  9
$STEPSIZE
 40
100.0
  9
$3DDWFPREC
 40
2.0
  9
$PSOLWIDTH
 40
0.005
  9
$PSOLHEIGHT
 40
0.08
  9
$LOFTANG1
 40
1.570796326795
  9
$LOFTANG2
 40
1.570796326795
  9
$LOFTMAG1
 40
0.0
  9
$LOFTMAG2
 40
0.0
  9
$LOFTPARAM
 70
7
  9
$LOFTNORMALS
280
1
  9
$LATITUDE
 40
37.795
  9
$LONGITUDE
 40
-122.394
  9
$NORTHDIRECTION
 40
0.0
  9
$TIMEZONE
 70
-8000
  9
$LIGHTGLYPHDISPLAY
280
1
  9
$TILEMODELIGHTSYNCH
280
1
  9
$CMATERIAL
347
20
  9
$SOLIDHIST
280
0
  9
$SHOWHIST
280
1
  9
$DWFFRAME
280
2
  9
$DGNFRAME
280
2
  9
$REALWORLDSCALE
290
1
  9
$INTERFERECOLOR
 62
256
  9
$CSHADOW
280
0
  9
$SHADOWPLANELOCATION
 40
0.0
  0
ENDSEC
  0
SECTION
  2
CLASSES
  0
CLASS
  1
ACDBDICTIONARYWDFLT
  2
AcDbDictionaryWithDefault
  3
ObjectDBX Classes
 90
0
 91
0
280
0
281
0
  0
CLASS
  1
SUN
  2
AcDbSun
  3
SCENEOE
 90
1153
 91
0
280
0
281
0
  0
CLASS
  1
VISUALSTYLE
  2
AcDbVisualStyle
  3
ObjectDBX Classes
 90
4095
 91
0
280
0
281
0
  0
CLASS
  1
MATERIAL
  2
AcDbMaterial
  3
ObjectDBX Classes
 90
1153
 91
0
280
0
281
0
  0
CLASS
  1
SCALE
  2
AcDbScale
  3
ObjectDBX Classes
 90
1153
 91
0
280
0
281
0
  0
CLASS
  1
TABLESTYLE
  2
AcDbTableStyle
  3
ObjectDBX Classes
 90
4095
 91
0
280
0
281
0
  0
CLASS
  1
MLEADERSTYLE
  2
AcDbMLeaderStyle
  3
ACDB_MLEADERSTYLE_CLASS
 90
4095
 91
0
280
0
281
0
  0
CLASS
  1
DICTIONARYVAR
  2
AcDbDictionaryVar
  3
ObjectDBX Classes
 90
0
 91
0
280
0
281
0
  0
CLASS
  1
CELLSTYLEMAP
  2
AcDbCellStyleMap
  3
ObjectDBX Classes
 90
1152
 91
0
280
0
281
0
  0
CLASS
  1
MENTALRAYRENDERSETTINGS
  2
AcDbMentalRayRenderSettings
  3
SCENEOE
 90
1024
 91
0
280
0
281
0
  0
CLASS
  1
ACDBDETAILVIEWSTYLE
  2
AcDbDetailViewStyle
  3
ObjectDBX Classes
 90
1025
 91
0
280
0
281
0
  0
CLASS
  1
ACDBSECTIONVIEWSTYLE
  2
AcDbSectionViewStyle
  3
ObjectDBX Classes
 90
1025
 91
0
280
0
281
0
  0
CLASS
  1
RASTERVARIABLES
  2
AcDbRasterVariables
  3
ISM
 90
0
 91
0
280
0
281
0
  0
CLASS
  1
LAYOUT
  2
AcDbLayout
  3
ObjectDBX Classes
 90
0
 91
0
280
0
281
0
  0
CLASS
  1
ACDBPLACEHOLDER
  2
AcDbPlaceHolder
  3
ObjectDBX Classes
 90
0
 91
0
280
0
281
0
  0
ENDSEC
  0
SECTION
  2
TABLES
  0
TABLE
  2
VPORT
  5
8
330
0
100
AcDbSymbolTable
 70
1
  0
VPORT
  5
23
330
8
100
AcDbSymbolTableRecord
100
AcDbViewportTableRecord
  2
*Active
 70
0
 10
0.0
 20
0.0
 11
1.0
 21
1.0
 12
0.0
 22
0.0
 13
0.0
 23
0.0
 14
0.5
 24
0.5
 15
0.5
 25
0.5
 16
0.0
 26
0.0
 36
1.0
 17
0.0
 27
0.0
 37
0.0
 40
1000.0
 41
1.34
 42
50.0
 43
0.0
 44
0.0
 50
0.0
 51
0.0
 71
0
 72
1000
 73
1
 74
3
 75
0
 76
0
 77
0
 78
0
281
0
 65
0
146
0.0
  0
ENDTAB
  0
TABLE
  2
LTYPE
  5
2
330
0
100
AcDbSymbolTable
 70
3
  0
LTYPE
  5
24
330
2
100
AcDbSymbolTableRecord
100
AcDbLinetypeTableRecord
  2
ByBlock
 70
0
  3

 72
65
 73
0
 40
0.0
  0
LTYPE
  5
25
330
2
100
AcDbSymbolTableRecord
100
AcDbLinetypeTableRecord
  2
ByLayer
 70
0
  3

 72
65
 73
0
 40
0.0
  0
LTYPE
  5
26
330
2
100
AcDbSymbolTableRecord
100
AcDbLinetypeTableRecord
  2
Continuous
 70
0
  3

 72
65
 73
0
 40
0.0
  0
ENDTAB
  0
TABLE
  2
LAYER
  5
1
330
0
100
AcDbSymbolTable
 70
2
  0
LAYER
  5
27
330
1
100
AcDbSymbolTableRecord
100
AcDbLayerTableRecord
  2
0
 70
0
 62
7
  6
Continuous
370
-3
390
13
347
21
  0
LAYER
  5
28
330
1
100
AcDbSymbolTableRecord
100
AcDbLayerTableRecord
  2
Defpoints
 70
0
 62
7
  6
Continuous
290
0
370
-3
390
13
347
21
  0
ENDTAB
  0
TABLE
  2
STYLE
  5
5
330
0
100
AcDbSymbolTable
 70
1
  0
STYLE
  5
29
330
5
100
AcDbSymbolTableRecord
100
AcDbTextStyleTableRecord
  2
Standard
 70
0
 40
0.0
 41
1.0
 50
0.0
 71
0
 42
2.5
  3
txt
  4

  0
ENDTAB
  0
TABLE
  2
VIEW
  5
7
330
0
100
AcDbSymbolTable
 70
0
  0
ENDTAB
  0
TABLE
  2
UCS
  5
6
330
0
100
AcDbSymbolTable
 70
0
  0
ENDTAB
  0
TABLE
  2
APPID
  5
3
330
0
100
AcDbSymbolTable
 70
3
  0
APPID
  5
2A
330
3
100
AcDbSymbolTableRecord
100
AcDbRegAppTableRecord
  2
ACAD
 70
0
  0
APPID
  5
41
330
3
100
AcDbSymbolTableRecord
100
AcDbRegAppTableRecord
  2
HATCHBACKGROUNDCOLOR
 70
0
  0
APPID
  5
42
330
3
100
AcDbSymbolTableRecord
100
AcDbRegAppTableRecord
  2
EZDXF
 70
0
  0
ENDTAB
  0
TABLE
  2
DIMSTYLE
  5
4
330
0
100
AcDbSymbolTable
 70
1
100
AcDbDimStyleTable
  0
DIMSTYLE
105
2B
330
4
100
AcDbSymbolTableRecord
100
AcDbDimStyleTableRecord
  2
Standard
 70
0
 40
1.0
 41
2.5
 42
0.625
 43
3.75
 44
1.25
 45
0.0
 46
0.0
 47
0.0
 48
0.0
 49
2.5
140
2.5
141
2.5
142
0.0
143
0.03937007874
144
1.0
145
0.0
146
1.0
147
0.625
148
0.0
 69
0
 70
0
 71
0
 72
0
 73
0
 74
0
 75
0
 76
0
 77
1
 78
8
 79
3
170
0
171
3
172
1
173
0
174
0
175
0
176
0
177
0
178
0
179
2
271
2
272
2
273
2
274
3
275
0
276
0
277
2
278
44
279
0
280
0
281
0
282
0
283
0
284
8
285
0
286
0
288
0
289
3
290
0
371
-2
372
-2
  0
ENDTAB
  0
TABLE
  2
BLOCK_RECORD
  5
9
330
0
100
AcDbSymbolTable
 70
2
  0
BLOCK_RECORD
  5
17
330
9
100
AcDbSymbolTableRecord
100
AcDbBlockTableRecord
  2
*Model_Space
340
1A
 70
0
280
1
281
0
  0
BLOCK_RECORD
  5
1B
330
9
100
AcDbSymbolTableRecord
100
AcDbBlockTableRecord
  2
*Paper_Space
340
1E
 70
0
280
1
281
0
  0
ENDTAB
  0
ENDSEC
  0
SECTION
  2
BLOCKS
  0
BLOCK
  5
18
330
17
100
AcDbEntity
  8
0
100
AcDbBlockBegin
  2
*Model_Space
 70
0
 10
0.0
 20
0.0
 30
0.0
  3
*Model_Space
  1

  0
ENDBLK
  5
19
330
17
100
AcDbEntity
  8
0
100
AcDbBlockEnd
  0
BLOCK
  5
1C
330
1B
100
AcDbEntity
  8
0
100
AcDbBlockBegin
  2
*Paper_Space
 70
0
 10
0.0
 20
0.0
 30
0.0
  3
*Paper_Space
  1

  0
ENDBLK
  5
1D
330
1B
100
AcDbEntity
  8
0
100
AcDbBlockEnd
  0
ENDSEC
  0
SECTION
  2
ENTITIES
  0
LWPOLYLINE
  5
2F
330
17
100
AcDbEntity
  8
0
100
AcDbPolyline
 90
51
 70
0
 10
22.0
 20
43.0
 10
22.094232277234383
 20
42.99851968109719
 10
22.18837155858794
 20
42.994080185284815
 10
22.282324939955544
 20
42.98668589380924
 10
22.375999700692912
 20
42.97634410394343
 10
22.469303395120694
 20
42.96306502178541
 10
22.562143943757174
 20
42.94686175218607
 10
22.654429724189626
 20
42.927750285816245
 10
22.746069661494566
 20
42.90574948338589
 10
22.83697331811769
 20
42.88088105703083
 10
22.927050983124843
 20
42.85316954888546
 10
23.016213760735873
 20
42.822642306862676
 10
23.104373658054033
 20
42.789329457664756
 10
23.19144367190434
 20
42.75326387705194
 10
23.277337874695217
 20
42.71448115739806
 10
23.36197149921864
 20
42.6730195725651
 10
23.445261022305147
 20
42.62892004013159
 10
23.527124247251116
 20
42.58222608101183
 10
23.60748038493699
 20
42.53298377650604
 10
23.686250133556392
 20
42.48124172282368
 10
23.76335575687742
 20
42.42705098312484
 10
23.83872116095893
 20
42.37046503712707
 10
23.912271969246067
 20
42.31153972832737
 10
23.983935595970955
 20
42.25033320889138
 10
24.053641317786067
 20
42.186905882264234
 10
24.121320343559642
 20
42.121320343559645
 10
24.186905882264234
 20
42.05364131778607
 10
24.250333208891377
 20
41.983935595970955
 10
24.311539728327368
 20
41.91227196924607
 10
24.370465037127072
 20
41.838721160958926
 10
24.427050983124843
 20
41.76335575687742
 10
24.481241722823686
 20
41.68625013355639
 10
24.532983776506043
 20
41.60748038493699
 10
24.582226081011832
 20
41.527124247251116
 10
24.62892004013159
 20
41.44526102230515
 10
24.673019572565103
 20
41.36197149921864
 10
24.71448115739806
 20
41.27733787469522
 10
24.753263877051943
 20
41.19144367190434
 10
24.789329457664756
 20
41.10437365805404
 10
24.822642306862676
 20
41.01621376073587
 10
24.85316954888546
 20
40.92705098312484
 10
24.88088105703083
 20
40.836973318117685
 10
24.905749483385893
 20
40.746069661494566
 10
24.92775028581624
 20
40.65442972418963
 10
24.946861752186066
 20
40.56214394375717
 10
24.96306502178541
 20
40.46930339512069
 10
24.976344103943433
 20
40.375999700692915
 10
24.98668589380924
 20
40.282324939955544
 10
24.994080185284815
 20
40.18837155858794
 10
24.998519681097193
 20
40.09423227723438
 10
25.0
 20
40.0
  0
LWPOLYLINE
  5
30
330
17
100
AcDbEntity
  8
0
100
AcDbPolyline
 90
51
 70
0
 10
25.0
 20
40.0
 10
24.98668589380924
 20
39.717675060044456
 10
24.946861752186066
 20
39.43785605624283
 10
24.88088105703083
 20
39.163026681882315
 10
24.789329457664756
 20
38.89562634194596
 10
24.673019572565103
 20
38.63802850078136
 10
24.532983776506043
 20
38.39251961506301
 10
24.370465037127072
 20
38.161278839041074
 10
24.186905882264234
 20
37.94635868221393
 10
23.983935595970955
 20
37.74966679110862
 10
23.76335575687742
 20
37.57294901687516
 10
23.527124247251113
 20
37.41777391898817
 10
23.277337874695217
 20
37.28551884260194
 10
23.016213760735873
 20
37.177357693137324
 10
22.746069661494563
 20
37.09425051661411
 10
22.469303395120694
 20
37.03693497821459
 10
22.188371558587942
 20
37.005919814715185
 10
21.905767722765614
 20
37.00148031890281
 10
21.624000299307088
 20
37.02365589605657
 10
21.345570275810374
 20
37.072249714183755
 10
21.07294901687516
 20
37.14683045111454
 10
20.80855632809566
 20
37.24673612294806
 10
20.554738977694853
 20
37.37107995986841
 10
20.313749866443608
 20
37.51875827717632
 10
20.08772803075393
 20
37.68846027167263
 10
19.878679656440358
 20
37.878679656440355
 10
19.688460271672632
 20
38.08772803075393
 10
19.518758277176314
 20
38.31374986644361
 10
19.37107995986841
 20
38.55473897769485
 10
19.246736122948057
 20
38.808556328095655
 10
19.14683045111454
 20
39.07294901687516
 10
19.07224971418376
 20
39.345570275810374
 10
19.023655896056567
 20
39.624000299307085
 10
19.001480318902807
 20
39.90576772276562
 10
19.005919814715185
 20
40.18837155858794
 10
19.036934978214585
 20
40.46930339512069
 10
19.094250516614107
 20
40.746069661494566
 10
19.177357693137324
 20
41.01621376073587
 10
19.28551884260194
 20
41.27733787469522
 10
19.417773918988168
 20
41.527124247251116
 10
19.572949016875157
 20
41.76335575687742
 10
19.74966679110862
 20
41.983935595970955
 10
19.946358682213933
 20
42.186905882264234
 10
20.16127883904107
 20
42.37046503712707
 10
20.392519615063012
 20
42.53298377650604
 10
20.63802850078136
 20
42.6730195725651
 10
20.895626341945967
 20
42.789329457664756
 10
21.16302668188231
 20
42.88088105703083
 10
21.437856056242826
 20
42.94686175218607
 10
21.717675060044456
 20
42.98668589380924
 10
22.0
 20
43.0
  0
LWPOLYLINE
  5
31
330
17
100
AcDbEntity
  8
0
100
AcDbPolyline
 90
51
 70
0
 10
16.8038475772934
 20
45.0
 10
16.56777062574753
 20
45.0
 10
16.331693674201663
 20
45.0
 10
16.095616722655794
 20
45.0
 10
15.859539771109928
 20
45.0
 10
15.623462819564061
 20
45.0
 10
15.387385868018193
 20
45.0
 10
15.151308916472324
 20
45.0
 10
14.915231964926456
 20
45.0
 10
14.679155013380587
 20
45.0
 10
14.44307806183472
 20
45.0
 10
14.207001110288852
 20
45.0
 10
13.970924158742983
 20
45.0
 10
13.734847207197117
 20
45.0
 10
13.498770255651248
 20
45.0
 10
13.26269330410538
 20
45.0
 10
13.026616352559511
 20
45.0
 10
12.790539401013644
 20
45.0
 10
12.554462449467776
 20
45.0
 10
12.31838549792191
 20
45.0
 10
12.08230854637604
 20
45.0
 10
11.846231594830172
 20
45.0
 10
11.610154643284304
 20
45.0
 10
11.374077691738435
 20
45.0
 10
11.138000740192567
 20
45.0
 10
10.9019237886467
 20
45.0
 10
10.665846837100831
 20
45.0
 10
10.429769885554965
 20
45.0
 10
10.193692934009096
 20
45.0
 10
9.957615982463228
 20
45.0
 10
9.72153903091736
 20
45.0
 10
9.485462079371493
 20
45.0
 10
9.249385127825624
 20
45.0
 10
9.013308176279756
 20
45.0
 10
8.777231224733889
 20
45.0
 10
8.54115427318802
 20
45.0
 10
8.305077321642152
 20
45.0
 10
8.069000370096283
 20
45.0
 10
7.832923418550417
 20
45.0
 10
7.596846467004548
 20
45.0
 10
7.360769515458681
 20
45.0
 10
7.124692563912813
 20
45.0
 10
6.888615612366944
 20
45.0
 10
6.652538660821076
 20
45.0
 10
6.416461709275209
 20
45.0
 10
6.180384757729339
 20
45.0
 10
5.944307806183472
 20
45.0
 10
5.708230854637604
 20
45.0
 10
5.472153903091735
 20
45.0
 10
5.236076951545867
 20
45.0
 10
5.0
 20
45.0
  0
LWPOLYLINE
  5
32
330
17
100
AcDbEntity
  8
0
100
AcDbPolyline
 90
51
 70
0
 10
14.0
 20
45.0
 10
13.82
 20
45.0
 10
13.64
 20
45.0
 10
13.46
 20
45.0
 10
13.28
 20
45.0
 10
13.1
 20
45.0
 10
12.92
 20
45.0
 10
12.74
 20
45.0
 10
12.56
 20
45.0
 10
12.379999999999999
 20
45.0
 10
12.2
 20
45.0
 10
12.02
 20
45.0
 10
11.84
 20
45.0
 10
11.66
 20
45.0
 10
11.48
 20
45.0
 10
11.3
 20
45.0
 10
11.120000000000001
 20
45.0
 10
10.94
 20
45.0
 10
10.76
 20
45.0
 10
10.58
 20
45.0
 10
10.4
 20
45.0
 10
10.22
 20
45.0
 10
10.04
 20
45.0
 10
9.86
 20
45.0
 10
9.68
 20
45.0
 10
9.5
 20
45.0
 10
9.32
 20
45.0
 10
9.14
 20
45.0
 10
8.96
 20
45.0
 10
8.780000000000001
 20
45.0
 10
8.6
 20
45.0
 10
8.42
 20
45.0
 10
8.24
 20
45.0
 10
8.059999999999999
 20
45.0
 10
7.88
 20
45.0
 10
7.7
 20
45.0
 10
7.52
 20
45.0
 10
7.34
 20
45.0
 10
7.16
 20
45.0
 10
6.98
 20
45.0
 10
6.8
 20
45.0
 10
6.62
 20
45.0
 10
6.44
 20
45.0
 10
6.26
 20
45.0
 10
6.08
 20
45.0
 10
5.9
 20
45.0
 10
5.720000000000001
 20
45.0
 10
5.539999999999999
 20
45.0
 10
5.359999999999999
 20
45.0
 10
5.18
 20
45.0
 10
5.0
 20
45.0
  0
LWPOLYLINE
  5
33
330
17
100
AcDbEntity
  8
0
100
AcDbPolyline
 90
51
 70
0
 10
5.0
 20
35.0
 10
5.12
 20
35.0
 10
5.24
 20
35.0
 10
5.36
 20
35.0
 10
5.48
 20
35.0
 10
5.6
 20
35.0
 10
5.72
 20
35.0
 10
5.84
 20
35.0
 10
5.96
 20
35.0
 10
6.08
 20
35.0
 10
6.2
 20
35.0
 10
6.32
 20
35.0
 10
6.4399999999999995
 20
35.0
 10
6.5600000000000005
 20
35.0
 10
6.68
 20
35.0
 10
6.8
 20
35.0
 10
6.92
 20
35.0
 10
7.04
 20
35.0
 10
7.16
 20
35.0
 10
7.279999999999999
 20
35.0
 10
7.4
 20
35.0
 10
7.52
 20
35.0
 10
7.640000000000001
 20
35.0
 10
7.76
 20
35.0
 10
7.88
 20
35.0
 10
8.0
 20
35.0
 10
8.120000000000001
 20
35.0
 10
8.24
 20
35.0
 10
8.36
 20
35.0
 10
8.48
 20
35.0
 10
8.6
 20
35.0
 10
8.72
 20
35.0
 10
8.84
 20
35.0
 10
8.96
 20
35.0
 10
9.08
 20
35.0
 10
9.2
 20
35.0
 10
9.32
 20
35.0
 10
9.440000000000001
 20
35.0
 10
9.559999999999999
 20
35.0
 10
9.68
 20
35.0
 10
9.8
 20
35.0
 10
9.92
 20
35.0
 10
10.04
 20
35.0
 10
10.16
 20
35.0
 10
10.280000000000001
 20
35.0
 10
10.4
 20
35.0
 10
10.52
 20
35.0
 10
10.64
 20
35.0
 10
10.76
 20
35.0
 10
10.879999999999999
 20
35.0
 10
11.0
 20
35.0
  0
LWPOLYLINE
  5
34
330
17
100
AcDbEntity
  8
0
100
AcDbPolyline
 90
51
 70
0
 10
26.714285714285687
 20
36.28846255520951
 10
26.90207181086185
 20
36.540275739144285
 10
27.07642166934328
 20
36.801571786795584
 10
27.236857408886777
 20
37.07163450385925
 10
27.382939286282017
 20
37.349723667199655
 10
27.514266901257074
 20
37.63507705374981
 10
27.630480293947784
 20
37.92691252971186
 10
27.73126093152267
 20
38.22443019433143
 10
27.81633258125931
 20
38.52681457236999
 10
27.885462067679043
 20
38.83323684926582
 10
27.938459911664715
 20
39.14285714285711
 10
27.975180849809806
 20
39.45482680544055
 10
27.995524232575296
 20
39.76829074985576
 10
27.999434300163074
 20
40.08238979321969
 10
27.986900335349674
 20
40.396263011887264
 10
27.95795669286142
 20
40.70905010118315
 10
27.91268270521052
 20
41.01989373343716
 10
27.85120246525018
 20
41.32794190785977
 10
27.77368448604468
 20
41.63235028581704
 10
27.680341238986824
 20
41.932284505104164
 10
27.57142857142858
 20
42.22692246687425
 10
27.4472450054213
 20
42.515456588954116
 10
27.308130919487525
 20
42.7970960193709
 10
27.154467615667087
 20
43.071068804022346
 10
26.986676274394757
 20
43.33662400254934
 10
26.80521680007393
 20
43.59303374661125
 10
26.610586560510622
 20
43.839595234922406
 10
26.4033190236629
 20
44.07563265958163
 10
26.183982295442267
 20
44.300499058414694
 10
25.953177562574872
 20
44.51357808825267
 10
25.71153744479046
 20
44.71428571428571
 10
25.459724260855683
 20
44.90207181086187
 10
25.198428213204387
 20
45.0764216693433
 10
24.928365496140714
 20
45.2368574088868
 10
24.650276332800313
 20
45.38293928628203
 10
24.364922946250154
 20
45.514266901257095
 10
24.0730874702881
 20
45.6304802939478
 10
23.775569805668535
 20
45.73126093152268
 10
23.47318542762997
 20
45.81633258125932
 10
23.166763150734138
 20
45.88546206767905
 10
22.857142857142858
 20
45.93845991166472
 10
22.545173194559414
 20
45.97518084980981
 10
22.23170925014421
 20
45.9955242325753
 10
21.91761020678027
 20
45.999434300163074
 10
21.603736988112708
 20
45.986900335349674
 10
21.29094989881682
 20
45.957956692861416
 10
20.980106266562807
 20
45.912682705210514
 10
20.672058092140198
 20
45.85120246525017
 10
20.367649714182924
 20
45.77368448604467
 10
20.0677154948958
 20
45.68034123898681
 10
19.773077533125715
 20
45.57142857142857
  0
LWPOLYLINE
  5
35
330
17
100
AcDbEntity
  8
0
100
AcDbPolyline
 90
51
 70
0
 10
5.0
 20
45.0
 10
4.6860474023534335
 20
44.99013364214136
 10
4.373333832178479
 20
44.96057350657239
 10
4.063093427071377
 20
44.911436253643444
 10
3.756550564175726
 20
44.84291580564316
 10
3.4549150281252627
 20
44.75528258147577
 10
3.1593772365766104
 20
44.64888242944126
 10
2.8711035421746365
 20
44.5241352623301
 10
2.5912316294914235
 20
44.38153340021932
 10
2.320866025105017
 20
44.22163962751007
 10
2.061073738537634
 20
44.045084971874736
 10
1.8128800512565517
 20
43.852566213878944
 10
1.5772644703565568
 20
43.64484313710706
 10
1.355156862892942
 20
43.42273552964345
 10
1.147433786121054
 20
43.18711994874345
 10
0.9549150281252636
 20
42.93892626146236
 10
0.7783603724899244
 20
42.67913397489498
 10
0.6184665997806817
 20
42.408768370508575
 10
0.47586473766990167
 20
42.12889645782536
 10
0.3511175705587437
 20
41.84062276342339
 10
0.24471741852423268
 20
41.545084971874736
 10
0.15708419435684462
 20
41.243449435824274
 10
0.08856374635655673
 20
40.93690657292862
 10
0.0394264934276114
 20
40.626666167821526
 10
0.009866357858641983
 20
40.31395259764657
 10
0.0
 20
40.0
 10
0.009866357858641983
 20
39.68604740235343
 10
0.03942649342761051
 20
39.37333383217848
 10
0.08856374635655673
 20
39.06309342707138
 10
0.15708419435684462
 20
38.756550564175726
 10
0.2447174185242318
 20
38.454915028125264
 10
0.3511175705587428
 20
38.15937723657661
 10
0.47586473766990256
 20
37.87110354217464
 10
0.6184665997806826
 20
37.591231629491425
 10
0.7783603724899253
 20
37.32086602510502
 10
0.9549150281252627
 20
37.06107373853764
 10
1.147433786121054
 20
36.81288005125655
 10
1.355156862892943
 20
36.57726447035655
 10
1.577264470356556
 20
36.35515686289294
 10
1.8128800512565508
 20
36.147433786121056
 10
2.0610737385376336
 20
35.954915028125264
 10
2.320866025105015
 20
35.77836037248993
 10
2.591231629491424
 20
35.61846659978068
 10
2.8711035421746356
 20
35.4758647376699
 10
3.159377236576609
 20
35.35111757055874
 10
3.4549150281252627
 20
35.24471741852423
 10
3.7565505641757237
 20
35.15708419435685
 10
4.063093427071377
 20
35.088563746356556
 10
4.373333832178478
 20
35.03942649342761
 10
4.686047402353432
 20
35.00986635785864
 10
4.999999999999999
 20
35.0
  0
LWPOLYLINE
  5
36
330
17
100
AcDbEntity
  8
0
100
AcDbPolyline
 90
51
 70
0
 10
19.0
 20
27.0
 10
19.0
 20
26.48
 10
19.0
 20
25.96
 10
19.0
 20
25.439999999999998
 10
19.0
 20
24.92
 10
19.0
 20
24.4
 10
19.0
 20
23.88
 10
19.0
 20
23.36
 10
19.0
 20
22.84
 10
19.0
 20
22.32
 10
19.0
 20
21.8
 10
19.0
 20
21.28
 10
19.0
 20
20.759999999999998
 10
19.0
 20
20.240000000000002
 10
19.0
 20
19.72
 10
19.0
 20
19.2
 10
19.0
 20
18.68
 10
19.0
 20
18.16
 10
19.0
 20
17.64
 10
19.0
 20
17.119999999999997
 10
19.0
 20
16.6
 10
19.0
 20
16.08
 10
19.0
 20
15.560000000000002
 10
19.0
 20
15.04
 10
19.0
 20
14.52
 10
19.0
 20
14.0
 10
19.0
 20
13.48
 10
19.0
 20
12.96
 10
19.0
 20
12.439999999999998
 10
19.0
 20
11.920000000000002
 10
19.0
 20
11.399999999999999
 10
19.0
 20
10.879999999999999
 10
19.0
 20
10.36
 10
19.0
 20
9.84
 10
19.0
 20
9.32
 10
19.0
 20
8.8
 10
19.0
 20
8.280000000000001
 10
19.0
 20
7.760000000000002
 10
19.0
 20
7.239999999999998
 10
19.0
 20
6.719999999999999
 10
19.0
 20
6.199999999999999
 10
19.0
 20
5.68
 10
19.0
 20
5.16
 10
19.0
 20
4.640000000000001
 10
19.0
 20
4.120000000000001
 10
19.0
 20
3.6000000000000014
 10
19.0
 20
3.0799999999999983
 10
19.0
 20
2.5600000000000023
 10
19.0
 20
2.039999999999999
 10
19.0
 20
1.519999999999996
 10
19.0
 20
1.0
  0
LWPOLYLINE
  5
37
330
17
100
AcDbEntity
  8
0
100
AcDbPolyline
 90
51
 70
0
 10
20.0
 20
0.0
 10
20.08
 20
0.0
 10
20.16
 20
0.0
 10
20.24
 20
0.0
 10
20.32
 20
0.0
 10
20.4
 20
0.0
 10
20.48
 20
0.0
 10
20.56
 20
0.0
 10
20.64
 20
0.0
 10
20.72
 20
0.0
 10
20.8
 20
0.0
 10
20.88
 20
0.0
 10
20.96
 20
0.0
 10
21.04
 20
0.0
 10
21.12
 20
0.0
 10
21.2
 20
0.0
 10
21.28
 20
0.0
 10
21.36
 20
0.0
 10
21.44
 20
0.0
 10
21.52
 20
0.0
 10
21.6
 20
0.0
 10
21.68
 20
0.0
 10
21.759999999999998
 20
0.0
 10
21.84
 20
0.0
 10
21.92
 20
0.0
 10
22.0
 20
0.0
 10
22.08
 20
0.0
 10
22.16
 20
0.0
 10
22.240000000000002
 20
0.0
 10
22.32
 20
0.0
 10
22.4
 20
0.0
 10
22.48
 20
0.0
 10
22.56
 20
0.0
 10
22.64
 20
0.0
 10
22.72
 20
0.0
 10
22.8
 20
0.0
 10
22.88
 20
0.0
 10
22.96
 20
0.0
 10
23.04
 20
0.0
 10
23.12
 20
0.0
 10
23.2
 20
0.0
 10
23.28
 20
0.0
 10
23.36
 20
0.0
 10
23.439999999999998
 20
0.0
 10
23.52
 20
0.0
 10
23.6
 20
0.0
 10
23.68
 20
0.0
 10
23.759999999999998
 20
0.0
 10
23.84
 20
0.0
 10
23.92
 20
0.0
 10
24.0
 20
0.0
  0
LWPOLYLINE
  5
38
330
17
100
AcDbEntity
  8
0
100
AcDbPolyline
 90
51
 70
0
 10
25.0
 20
1.0
 10
25.0
 20
1.6067949192431121
 10
25.0
 20
2.2135898384862243
 10
25.0
 20
2.820384757729336
 10
25.0
 20
3.427179676972448
 10
25.0
 20
4.033974596215559
 10
25.0
 20
4.640769515458672
 10
25.0
 20
5.247564434701784
 10
25.0
 20
5.854359353944896
 10
25.0
 20
6.461154273188008
 10
25.0
 20
7.0679491924311195
 10
25.0
 20
7.674744111674232
 10
25.0
 20
8.281539030917344
 10
25.0
 20
8.888333950160456
 10
25.0
 20
9.495128869403567
 10
25.0
 20
10.10192378864668
 10
25.0
 20
10.708718707889792
 10
25.0
 20
11.315513627132905
 10
25.0
 20
11.922308546376016
 10
25.0
 20
12.529103465619128
 10
25.0
 20
13.135898384862239
 10
25.0
 20
13.742693304105353
 10
25.0
 20
14.349488223348464
 10
25.0
 20
14.956283142591577
 10
25.0
 20
15.563078061834688
 10
25.0
 20
16.1698729810778
 10
25.0
 20
16.776667900320913
 10
25.0
 20
17.383462819564024
 10
25.000000000000004
 20
17.990257738807134
 10
25.000000000000004
 20
18.59705265805025
 10
25.000000000000004
 20
19.20384757729336
 10
25.000000000000004
 20
19.810642496536474
 10
25.000000000000004
 20
20.417437415779585
 10
25.000000000000004
 20
21.024232335022695
 10
25.000000000000004
 20
21.63102725426581
 10
25.000000000000004
 20
22.23782217350892
 10
25.000000000000004
 20
22.84461709275203
 10
25.000000000000004
 20
23.451412011995146
 10
25.000000000000004
 20
24.058206931238256
 10
25.000000000000004
 20
24.665001850481367
 10
25.000000000000004
 20
25.271796769724478
 10
25.000000000000004
 20
25.87859168896759
 10
25.000000000000004
 20
26.485386608210707
 10
25.000000000000004
 20
27.092181527453818
 10
25.000000000000004
 20
27.69897644669693
 10
25.000000000000004
 20
28.30577136594004
 10
25.000000000000004
 20
28.912566285183154
 10
25.000000000000004
 20
29.519361204426264
 10
25.000000000000004
 20
30.126156123669375
 10
25.000000000000004
 20
30.732951042912486
 10
25.000000000000004
 20
31.339745962155597
  0
LWPOLYLINE
  5
39
330
17
100
AcDbEntity
  8
0
100
AcDbPolyline
 90
51
 70
0
 10
5.0
 20
43.0
 10
5.375999700692913
 20
42.97634410394343
 10
5.746069661494564
 20
42.90574948338589
 10
6.104373658054033
 20
42.789329457664756
 10
6.4452610223051465
 20
42.62892004013159
 10
6.763355756877419
 20
42.42705098312484
 10
7.053641317786066
 20
42.186905882264234
 10
7.311539728327368
 20
41.91227196924607
 10
7.532983776506045
 20
41.60748038493699
 10
7.714481157398058
 20
41.27733787469522
 10
7.853169548885461
 20
40.92705098312484
 10
7.946861752186066
 20
40.56214394375717
 10
7.9940801852848145
 20
40.18837155858794
 10
7.9940801852848145
 20
39.81162844141206
 10
7.9468617521860665
 20
39.43785605624283
 10
7.853169548885461
 20
39.07294901687516
 10
7.714481157398058
 20
38.72266212530478
 10
7.532983776506045
 20
38.39251961506301
 10
7.311539728327368
 20
38.08772803075393
 10
7.053641317786067
 20
37.813094117735766
 10
6.76335575687742
 20
37.57294901687516
 10
6.445261022305146
 20
37.37107995986841
 10
6.104373658054034
 20
37.210670542335244
 10
5.746069661494566
 20
37.09425051661411
 10
5.375999700692914
 20
37.02365589605657
 10
5.0
 20
37.0
 10
4.624000299307087
 20
37.02365589605657
 10
4.253930338505437
 20
37.0942505166141
 10
3.8956263419459662
 20
37.210670542335244
 10
3.554738977694854
 20
37.37107995986841
 10
3.2366442431225817
 20
37.57294901687516
 10
2.9463586822139347
 20
37.813094117735766
 10
2.688460271672632
 20
38.08772803075393
 10
2.467016223493954
 20
38.39251961506301
 10
2.285518842601941
 20
38.72266212530479
 10
2.1468304511145395
 20
39.07294901687516
 10
2.053138247813934
 20
39.43785605624283
 10
2.0059198147151855
 20
39.81162844141206
 10
2.0059198147151855
 20
40.18837155858794
 10
2.053138247813934
 20
40.56214394375717
 10
2.146830451114539
 20
40.92705098312484
 10
2.2855188426019404
 20
41.27733787469521
 10
2.467016223493955
 20
41.60748038493699
 10
2.688460271672631
 20
41.91227196924607
 10
2.9463586822139334
 20
42.186905882264234
 10
3.23664424312258
 20
42.42705098312484
 10
3.5547389776948517
 20
42.62892004013159
 10
3.8956263419459667
 20
42.789329457664756
 10
4.253930338505434
 20
42.90574948338589
 10
4.624000299307086
 20
42.97634410394343
 10
4.999999999999999
 20
43.0
  0
LWPOLYLINE
  5
3A
330
17
100
AcDbEntity
  8
0
100
AcDbPolyline
 90
51
 70
0
 10
26.0
 20
40.0
 10
25.96845880525791
 20
40.50133293425722
 10
25.874332644514524
 20
40.99475954865942
 10
25.719105943553007
 20
41.47249821073871
 10
25.505226720175454
 20
41.927014696406864
 10
25.23606797749979
 20
42.35114100916989
 10
24.915874509685647
 20
42.73818842371475
 10
24.54969595899476
 20
43.08205297110316
 10
24.143307179915986
 20
43.37731170200806
 10
23.70311716626029
 20
43.61930820986408
 10
23.23606797749979
 20
43.804226065180615
 10
22.7495252583429
 20
43.929149002914755
 10
22.251162078117254
 20
43.99210691371309
 10
21.748837921882746
 20
43.99210691371309
 10
21.2504747416571
 20
43.929149002914755
 10
20.76393202250021
 20
43.804226065180615
 10
20.29688283373971
 20
43.61930820986408
 10
19.856692820084014
 20
43.37731170200806
 10
19.45030404100524
 20
43.08205297110316
 10
19.084125490314356
 20
42.73818842371475
 10
18.76393202250021
 20
42.35114100916989
 10
18.494773279824546
 20
41.92701469640686
 10
18.280894056446996
 20
41.47249821073871
 10
18.125667355485476
 20
40.994759548659424
 10
18.03154119474209
 20
40.50133293425722
 10
18.0
 20
40.0
 10
18.03154119474209
 20
39.49866706574278
 10
18.125667355485476
 20
39.00524045134058
 10
18.280894056446993
 20
38.52750178926129
 10
18.494773279824546
 20
38.072985303593136
 10
18.76393202250021
 20
37.64885899083011
 10
19.084125490314353
 20
37.26181157628525
 10
19.450304041005243
 20
36.91794702889684
 10
19.856692820084014
 20
36.62268829799194
 10
20.296882833739712
 20
36.38069179013592
 10
20.76393202250021
 20
36.195773934819385
 10
21.2504747416571
 20
36.070850997085245
 10
21.748837921882746
 20
36.00789308628691
 10
22.25116207811725
 20
36.00789308628691
 10
22.749525258342896
 20
36.070850997085245
 10
23.23606797749979
 20
36.195773934819385
 10
23.703117166260288
 20
36.38069179013592
 10
24.143307179915986
 20
36.62268829799194
 10
24.549695958994757
 20
36.91794702889684
 10
24.915874509685644
 20
37.26181157628525
 10
25.23606797749979
 20
37.64885899083011
 10
25.505226720175454
 20
38.072985303593136
 10
25.719105943553007
 20
38.52750178926129
 10
25.874332644514524
 20
39.005240451340576
 10
25.96845880525791
 20
39.49866706574278
 10
26.0
 20
40.0
  0
LWPOLYLINE
  5
3B
330
17
100
AcDbEntity
  8
0
100
AcDbPolyline
 90
51
 70
0
 10
23.999999999999986
 20
1.4210854715202004e-14
 10
24.019999999999985
 20
0.020000000000013785
 10
24.039999999999985
 20
0.04000000000001336
 10
24.059999999999988
 20
0.06000000000001293
 10
24.079999999999988
 20
0.0800000000000125
 10
24.099999999999987
 20
0.10000000000001208
 10
24.119999999999987
 20
0.12000000000001165
 10
24.139999999999986
 20
0.14000000000001478
 10
24.159999999999986
 20
0.16000000000001435
 10
24.179999999999986
 20
0.18000000000001393
 10
24.199999999999985
 20
0.2000000000000135
 10
24.219999999999985
 20
0.22000000000001307
 10
24.239999999999988
 20
0.24000000000001265
 10
24.259999999999987
 20
0.2600000000000122
 10
24.279999999999987
 20
0.2800000000000118
 10
24.299999999999986
 20
0.30000000000001137
 10
24.31999999999999
 20
0.3200000000000145
 10
24.33999999999999
 20
0.34000000000001407
 10
24.35999999999999
 20
0.36000000000001364
 10
24.37999999999999
 20
0.3800000000000132
 10
24.399999999999984
 20
0.4000000000000128
 10
24.419999999999987
 20
0.4200000000000159
 10
24.439999999999987
 20
0.4400000000000155
 10
24.459999999999987
 20
0.4600000000000115
 10
24.479999999999986
 20
0.4800000000000111
 10
24.499999999999986
 20
0.5000000000000107
 10
24.51999999999999
 20
0.5200000000000138
 10
24.53999999999999
 20
0.5400000000000134
 10
24.559999999999988
 20
0.5600000000000129
 10
24.579999999999988
 20
0.5800000000000125
 10
24.599999999999987
 20
0.6000000000000156
 10
24.619999999999987
 20
0.6200000000000152
 10
24.639999999999986
 20
0.6400000000000148
 10
24.659999999999986
 20
0.6600000000000144
 10
24.679999999999986
 20
0.6800000000000104
 10
24.69999999999999
 20
0.7000000000000135
 10
24.719999999999988
 20
0.7200000000000131
 10
24.739999999999988
 20
0.7400000000000126
 10
24.759999999999987
 20
0.7600000000000122
 10
24.779999999999987
 20
0.7800000000000153
 10
24.799999999999986
 20
0.8000000000000149
 10
24.819999999999986
 20
0.8200000000000145
 10
24.839999999999986
 20
0.8400000000000141
 10
24.85999999999999
 20
0.8600000000000136
 10
24.87999999999999
 20
0.8800000000000132
 10
24.899999999999988
 20
0.9000000000000128
 10
24.919999999999987
 20
0.9200000000000124
 10
24.939999999999987
 20
0.9400000000000119
 10
24.95999999999999
 20
0.9600000000000151
 10
24.97999999999999
 20
0.9800000000000146
 10
24.99999999999999
 20
1.0000000000000142
  0
LWPOLYLINE
  5
3C
330
17
100
AcDbEntity
  8
0
100
AcDbPolyline
 90
51
 70
0
 10
25.0
 20
31.3397459621556
 10
25.00071169732971
 20
31.4464542128312
 10
25.002846662690562
 20
31.553143477512535
 10
25.00640451622027
 20
31.65979477358341
 10
25.011384624890127
 20
31.766389125183167
 10
25.017786102617617
 20
31.872907566582956
 10
25.025607810424088
 20
31.979331145560202
 10
25.034848356637404
 20
32.085640926770665
 10
25.04550609713954
 20
32.19181799511748
 10
25.057579135659143
 20
32.297843459116656
 10
25.071065324108886
 20
32.40369845425828
 10
25.085962262967698
 20
32.50936414636302
 10
25.102267301707677
 20
32.61482173493314
 10
25.119977539265683
 20
32.72005245649759
 10
25.139089824559527
 20
32.82503758795048
 10
25.159600757048604
 20
32.92975844988241
 10
25.18150668733895
 20
33.0341964099039
 10
25.204803717832533
 20
33.138332885960644
 10
25.22948770342076
 20
33.24214934963966
 10
25.255554252221973
 20
33.34562732946595
 10
25.282998726362877
 20
33.44874841418903
 10
25.311816242803733
 20
33.55149425605875
 10
25.342001674207165
 20
33.65384657408978
 10
25.373549649850442
 20
33.75578715731426
 10
25.406454556581057
 20
33.85729786802197
 10
25.44071053981545
 20
33.95836064498749
 10
25.476311504580668
 20
34.058957506683676
 10
25.513251116598823
 20
34.159070554481076
 10
25.551522803414105
 20
34.25868197583249
 10
25.59111975556219
 20
34.35777404744228
 10
25.6320349277818
 20
34.45632913841973
 10
25.674261040268227
 20
34.55432971341611
 10
25.717790579968604
 20
34.6517583357445
 10
25.762615801918635
 20
34.74859767048234
 10
25.808728730620626
 20
34.84483048755563
 10
25.85612116146252
 20
34.940439664804636
 10
25.904784662177708
 20
35.03540819103032
 10
25.9547105743453
 20
35.129719169021065
 10
26.00589001493071
 20
35.22335581855906
 10
26.058313877866134
 20
35.31630147940594
 10
26.11197283567076
 20
35.408539614267056
 10
26.166857341110337
 20
35.500053811733835
 10
26.222957628895877
 20
35.59082778920379
 10
26.280263717421125
 20
35.680845395777574
 10
26.338765410538535
 20
35.77009061513263
 10
26.39845229937342
 20
35.858547568372884
 10
26.459313764175924
 20
35.946200516853985
 10
26.52133897621055
 20
36.03303386498358
 10
26.584516899682857
 20
36.11903216299618
 10
26.648836293702985
 20
36.20418010970201
 10
26.71428571428569
 20
36.288462555209506
  0
LWPOLYLINE
  5
3D
330
17
100
AcDbEntity
  8
0
100
AcDbPolyline
 90
51
 70
0
 10
19.77307753312572
 20
45.571428571428555
 10
19.71649774834233
 20
45.549062543472225
 10
19.659749507193585
 20
45.52712744877899
 10
19.602836091777178
 20
45.50562455598948
 10
19.545760793743856
 20
45.48455510874743
 10
19.48852691410703
 20
45.46392032562779
 10
19.43113776305184
 20
45.44372140006621
 10
19.373596659743736
 20
45.42395950029003
 10
19.315906932136485
 20
45.40463576925074
 10
19.258071916779716
 20
45.38575132455782
 10
19.200094958625925
 20
45.36730725841417
 10
19.141979410837042
 20
45.34930463755288
 10
19.083728634590464
 20
45.33174450317557
 10
19.0253459988847
 20
45.314627870892174
 10
18.96683488034447
 20
45.29795573066216
 10
18.90819866302547
 20
45.281729046737325
 10
18.849440738218604
 20
45.26594875760601
 10
18.790564504253865
 20
45.25061577593879
 10
18.731573366303802
 20
45.235730988535735
 10
18.672470736186547
 20
45.221295256275106
 10
18.61326003216852
 20
45.20730941406354
 10
18.5539446787667
 20
45.193774270787785
 10
18.494528106550593
 20
45.18069060926794
 10
18.435013751943806
 20
45.16805918621212
 10
18.37540505702529
 20
45.15588073217275
 10
18.315705469330286
 20
45.14415595150427
 10
18.25591844165091
 20
45.132885522322425
 10
18.196047431836465
 20
45.122070096465045
 10
18.136095902593468
 20
45.111710299454316
 10
18.076067321285354
 20
45.10180673046062
 10
18.01596515973195
 20
45.09235996226793
 10
17.955792894008695
 20
45.08337054124057
 10
17.895554004245557
 20
45.07483898729172
 10
17.835251974425795
 20
45.06676579385331
 10
17.774890292184434
 20
45.05915142784746
 10
17.71447244860658
 20
45.05199632965952
 10
17.65400193802547
 20
45.045300913112534
 10
17.59348225782041
 20
45.0390655654434
 10
17.532916908214485
 20
45.03329064728038
 10
17.472309392072113
 20
45.027976492622294
 10
17.411663214696475
 20
45.023123408819195
 10
17.350981883626748
 20
45.01873167655459
 10
17.290268908435277
 20
45.0148015498292
 10
17.22952780052458
 20
45.01133325594628
 10
17.16876207292425
 20
45.00832699549847
 10
17.107975240087796
 20
45.00578294235619
 10
17.047170817689373
 20
45.00370124365759
 10
16.986352322420444
 20
45.00208201980002
 10
16.925523271786393
 20
45.00092536443311
 10
16.864687183903087
 20
45.00023134445329
 10
16.8038475772934
 20
45.0
  0
LWPOLYLINE
  5
3E
330
17
100
AcDbEntity
  8
0
100
AcDbPolyline
 90
51
 70
0
 10
10.999999999999998
 20
35.0
 10
11.251286072625023
 20
34.996052482925855
 10
11.502324156234502
 20
34.984213827426174
 10
11.752866506548116
 20
34.96449571682464
 10
12.002665868514434
 20
34.93691761051582
 10
12.251475720321846
 20
34.901506724761106
 10
12.499050516685795
 20
34.85829800582951
 10
12.745145931172337
 20
34.80733409550998
 10
12.989519097318839
 20
34.74866528902905
 10
13.231928848313833
 20
34.68234948541554
 10
13.472135954999578
 20
34.60845213036123
 10
13.70990336196233
 20
34.527046151633805
 10
13.94499642147742
 20
34.438211887106014
 10
14.177183125078246
 20
34.34203700547185
 10
14.406234332520581
 20
34.23861641972816
 10
14.631923997916374
 20
34.128052193506946
 10
14.85402939281372
 20
34.01045344035091
 10
15.072331326002972
 20
33.885936216031546
 10
15.286614359831974
 20
33.75462340401612
 10
15.496667022817045
 20
33.616644594196494
 10
15.702282018339783
 20
33.47213595499958
 10
15.90325642922381
 20
33.32124009900552
 10
16.099391917989514
 20
33.16410594220632
 10
16.29049492258921
 20
33.00088855704368
 10
16.47637684742951
 20
32.831749019371294
 10
16.65685424949238
 20
32.65685424949238
 10
16.83174901937129
 20
32.47637684742951
 10
17.000888557043673
 20
32.29049492258922
 10
17.164105942206316
 20
32.099391917989514
 10
17.32124009900552
 20
31.903256429223813
 10
17.47213595499958
 20
31.702282018339787
 10
17.616644594196494
 20
31.496667022817046
 10
17.75462340401612
 20
31.286614359831976
 10
17.88593621603155
 20
31.07233132600297
 10
18.010453440350908
 20
30.85402939281372
 10
18.128052193506942
 20
30.631923997916374
 10
18.238616419728153
 20
30.406234332520583
 10
18.342037005471852
 20
30.177183125078244
 10
18.43821188710601
 20
29.944996421477423
 10
18.527046151633805
 20
29.709903361962333
 10
18.60845213036123
 20
29.47213595499958
 10
18.682349485415543
 20
29.23192884831384
 10
18.74866528902905
 20
28.989519097318844
 10
18.80733409550998
 20
28.745145931172345
 10
18.85829800582951
 20
28.4990505166858
 10
18.901506724761102
 20
28.25147572032185
 10
18.93691761051582
 20
28.002665868514438
 10
18.96449571682464
 20
27.752866506548113
 10
18.984213827426174
 20
27.502324156234508
 10
18.996052482925855
 20
27.251286072625028
 10
19.0
 20
27.000000000000004
  0
LWPOLYLINE
  5
3F
330
17
100
AcDbEntity
  8
0
100
AcDbPolyline
 90
51
 70
0
 10
19.000000000000004
 20
0.9999999999999964
 10
19.020000000000003
 20
0.9799999999999969
 10
19.040000000000003
 20
0.9599999999999973
 10
19.060000000000006
 20
0.9399999999999942
 10
19.080000000000005
 20
0.9199999999999946
 10
19.100000000000005
 20
0.899999999999995
 10
19.12
 20
0.879999999999999
 10
19.14
 20
0.8599999999999994
 10
19.160000000000004
 20
0.8399999999999963
 10
19.180000000000003
 20
0.8199999999999967
 10
19.200000000000003
 20
0.7999999999999972
 10
19.220000000000002
 20
0.7799999999999976
 10
19.240000000000002
 20
0.759999999999998
 10
19.260000000000005
 20
0.7399999999999949
 10
19.280000000000005
 20
0.7199999999999953
 10
19.300000000000004
 20
0.6999999999999957
 10
19.320000000000004
 20
0.6799999999999962
 10
19.340000000000003
 20
0.6599999999999966
 10
19.360000000000003
 20
0.639999999999997
 10
19.380000000000003
 20
0.6199999999999974
 10
19.400000000000002
 20
0.5999999999999979
 10
19.42
 20
0.5799999999999983
 10
19.44
 20
0.5599999999999987
 10
19.460000000000004
 20
0.5399999999999956
 10
19.480000000000004
 20
0.519999999999996
 10
19.500000000000004
 20
0.49999999999999645
 10
19.520000000000003
 20
0.4799999999999969
 10
19.540000000000003
 20
0.4599999999999973
 10
19.560000000000002
 20
0.4399999999999977
 10
19.580000000000002
 20
0.41999999999999815
 10
19.6
 20
0.3999999999999986
 10
19.62
 20
0.379999999999999
 10
19.64
 20
0.35999999999999943
 10
19.660000000000004
 20
0.3399999999999963
 10
19.680000000000003
 20
0.31999999999999673
 10
19.700000000000003
 20
0.29999999999999716
 10
19.720000000000002
 20
0.2799999999999976
 10
19.740000000000002
 20
0.259999999999998
 10
19.76
 20
0.23999999999999844
 10
19.78
 20
0.21999999999999886
 10
19.8
 20
0.1999999999999993
 10
19.82
 20
0.17999999999999972
 10
19.84
 20
0.16000000000000014
 10
19.860000000000003
 20
0.13999999999999702
 10
19.880000000000003
 20
0.11999999999999744
 10
19.900000000000002
 20
0.09999999999999787
 10
19.92
 20
0.0799999999999983
 10
19.94
 20
0.05999999999999872
 10
19.96
 20
0.03999999999999915
 10
19.98
 20
0.019999999999999574
 10
20.0
 20
0.0
  0
LWPOLYLINE
  5
40
330
17
100
AcDbEntity
  8
0
100
AcDbPolyline
 90
51
 70
0
 10
10.999999999999998
 20
35.0
 10
11.061502878067163
 20
34.99976358375605
 10
11.123002121064474
 20
34.99905434899736
 10
11.184494094136918
 20
34.99787233764259
 10
11.245975162859162
 20
34.99621761955341
 10
11.307441693450388
 20
34.99409029253037
 10
11.368890052989013
 20
34.99149048230715
 10
11.43031660962745
 20
34.98841834254308
 10
11.491717732806746
 20
34.9848740548141
 10
11.553089793471175
 20
34.98085782860201
 10
11.61442916428272
 20
34.97636990128209
 10
11.675732219835458
 20
34.97141053810906
 10
11.736995336869871
 20
34.96598003220144
 10
11.798214894486948
 20
34.96007870452417
 10
11.85938727436222
 20
34.95370690386969
 10
11.920508860959615
 20
34.94686500683728
 10
11.981576041745154
 20
34.93955341781085
 10
12.042585207400457
 20
34.931772568935
 10
12.10353275203607
 20
34.9235229200895
 10
12.164415073404612
 20
34.914804958862106
 10
12.225228573113643
 20
34.90561920051971
 10
12.285969656838363
 20
34.89596618797795
 10
12.34663473453406
 20
34.88584649176906
 10
12.407220220648277
 20
34.875260710008185
 10
12.467722534332752
 20
34.86420946835801
 10
12.528138099655045
 20
34.85269341999181
 10
12.588463345809892
 20
34.840713245554795
 10
12.648694707330279
 20
34.82826965312393
 10
12.708828624298134
 20
34.81536337816607
 10
12.768861542554763
 20
34.80199518349446
 10
12.828789913910903
 20
34.78816585922371
 10
12.888610196356437
 20
34.77387622272303
 10
12.948318854269743
 20
34.75912711856798
 10
13.00791235862666
 20
34.743919418490506
 10
13.067387187209082
 20
34.72825402132744
 10
13.126739824813106
 20
34.71213185296737
 10
13.18596676345682
 20
34.695553866295924
 10
13.245064502587631
 20
34.67852104113943
 10
13.30402954928916
 20
34.66103438420703
 10
13.362858418487692
 20
34.643094929031164
 10
13.421547633158147
 20
34.62470373590648
 10
13.480093724529613
 20
34.605861891827175
 10
13.538493232290332
 20
34.58657051042275
 10
13.596742704792234
 20
34.5668307318922
 10
13.654838699254944
 20
34.546643722936594
 10
13.712777781969262
 20
34.526010676690134
 10
13.770556528500109
 20
34.504932812649656
 10
13.82817152388892
 20
34.483411376602504
 10
13.885619362855508
 20
34.46144764055296
 10
13.942896649999286
 20
34.43904290264702
 10
13.999999999999984
 20
34.41619848709567
  0
ENDSEC
  0
SECTION
  2
OBJECTS
  0
DICTIONARY
  5
A
330
0
100
AcDbDictionary
280
0
281
1
  3
ACAD_COLOR
350
B
  3
ACAD_GROUP
350
C
  3
ACAD_LAYOUT
350
D
  3
ACAD_MATERIAL
350
E
  3
ACAD_MLEADERSTYLE
350
F
  3
ACAD_MLINESTYLE
350
10
  3
ACAD_PLOTSETTINGS
350
11
  3
ACAD_PLOTSTYLENAME
350
12
  3
ACAD_SCALELIST
350
14
  3
ACAD_TABLESTYLE
350
15
  3
ACAD_VISUALSTYLE
350
16
  3
EZDXF_META
350
2D
  0
DICTIONARY
  5
B
330
A
100
AcDbDictionary
280
0
281
1
  0
DICTIONARY
  5
C
330
A
100
AcDbDictionary
280
0
281
1
  0
DICTIONARY
  5
D
330
A
100
AcDbDictionary
280
0
281
1
  3
Model
350
1A
  3
Layout1
350
1E
  0
DICTIONARY
  5
E
330
A
100
AcDbDictionary
280
0
281
1
  3
ByBlock
350
1F
  3
ByLayer
350
20
  3
Global
350
21
  0
DICTIONARY
  5
F
330
A
100
AcDbDictionary
280
0
281
1
  3
Standard
350
2C
  0
DICTIONARY
  5
10
330
A
100
AcDbDictionary
280
0
281
1
  3
Standard
350
22
  0
DICTIONARY
  5
11
330
A
100
AcDbDictionary
280
0
281
1
  0
ACDBDICTIONARYWDFLT
  5
12
330
A
100
AcDbDictionary
280
0
281
1
  3
Normal
350
13
100
AcDbDictionaryWithDefault
340
13
  0
ACDBPLACEHOLDER
  5
13
330
12
  0
DICTIONARY
  5
14
330
A
100
AcDbDictionary
280
0
281
1
  0
DICTIONARY
  5
15
330
A
100
AcDbDictionary
280
0
281
1
  0
DICTIONARY
  5
16
330
A
100
AcDbDictionary
280
0
281
1
  0
LAYOUT
  5
1A
330
D
100
AcDbPlotSettings
  1

  2
Adobe PDF
  4
A3
  6

 40
7.5
 41
20.0
 42
7.5
 43
20.0
 44
420.0
 45
297.0
 46
0.0
 47
0.0
 48
0.0
 49
0.0
140
0.0
141
0.0
142
1.0
143
1.0
 70
1024
 72
1
 73
0
 74
5
  7

 75
16
 76
0
 77
2
 78
300
147
1.0
148
0.0
149
0.0
100
AcDbLayout
  1
Model
 70
1
 71
0
 10
0.0
 20
0.0
 11
420.0
 21
297.0
 12
0.0
 22
0.0
 32
0.0
 14
1e+20
 24
1e+20
 34
1e+20
 15
-1e+20
 25
-1e+20
 35
-1e+20
146
0.0
 13
0.0
 23
0.0
 33
0.0
 16
1.0
 26
0.0
 36
0.0
 17
0.0
 27
1.0
 37
0.0
 76
1
330
17
  0
LAYOUT
  5
1E
330
D
100
AcDbPlotSettings
  1

  2
Adobe PDF
  4
A3
  6

 40
7.5
 41
20.0
 42
7.5
 43
20.0
 44
420.0
 45
297.0
 46
0.0
 47
0.0
 48
0.0
 49
0.0
140
0.0
141
0.0
142
1.0
143
1.0
 70
0
 72
1
 73
0
 74
5
  7

 75
16
 76
0
 77
2
 78
300
147
1.0
148
0.0
149
0.0
100
AcDbLayout
  1
Layout1
 70
1
 71
1
 10
0.0
 20
0.0
 11
420.0
 21
297.0
 12
0.0
 22
0.0
 32
0.0
 14
1e+20
 24
1e+20
 34
1e+20
 15
-1e+20
 25
-1e+20
 35
-1e+20
146
0.0
 13
0.0
 23
0.0
 33
0.0
 16
1.0
 26
0.0
 36
0.0
 17
0.0
 27
1.0
 37
0.0
 76
1
330
1B
  0
MATERIAL
  5
1F
102
{ACAD_REACTORS
330
E
102
}
330
E
100
AcDbMaterial
  1
ByBlock
  2

 70
0
 40
1.0
 71
1
 41
1.0
 91
-1023410177
 42
1.0
 72
1
  3

 73
1
 74
1
 75
1
 44
0.5
 73
0
 45
1.0
 46
1.0
 77
1
  4

 78
1
 79
1
170
1
 48
1.0
171
1
  6

172
1
173
1
174
1
140
1.0
141
1.0
175
1
  7

176
1
177
1
178
1
143
1.0
179
1
  8

270
1
271
1
272
1
145
1.0
146
1.0
273
1
  9

274
1
275
1
276
1
 42
1.0
 72
1
  3

 73
1
 74
1
 75
1
 94
63
  0
MATERIAL
  5
20
102
{ACAD_REACTORS
330
E
102
}
330
E
100
AcDbMaterial
  1
ByLayer
  2

 70
0
 40
1.0
 71
1
 41
1.0
 91
-1023410177
 42
1.0
 72
1
  3

 73
1
 74
1
 75
1
 44
0.5
 73
0
 45
1.0
 46
1.0
 77
1
  4

 78
1
 79
1
170
1
 48
1.0
171
1
  6

172
1
173
1
174
1
140
1.0
141
1.0
175
1
  7

176
1
177
1
178
1
143
1.0
179
1
  8

270
1
271
1
272
1
145
1.0
146
1.0
273
1
  9

274
1
275
1
276
1
 42
1.0
 72
1
  3

 73
1
 74
1
 75
1
 94
63
  0
MATERIAL
  5
21
102
{ACAD_REACTORS
330
E
102
}
330
E
100
AcDbMaterial
  1
Global
  2

 70
0
 40
1.0
 71
1
 41
1.0
 91
-1023410177
 42
1.0
 72
1
  3

 73
1
 74
1
 75
1
 44
0.5
 73
0
 45
1.0
 46
1.0
 77
1
  4

 78
1
 79
1
170
1
 48
1.0
171
1
  6

172
1
173
1
174
1
140
1.0
141
1.0
175
1
  7

176
1
177
1
178
1
143
1.0
179
1
  8

270
1
271
1
272
1
145
1.0
146
1.0
273
1
  9

274
1
275
1
276
1
 42
1.0
 72
1
  3

 73
1
 74
1
 75
1
 94
63
  0
MLINESTYLE
  5
22
102
{ACAD_REACTORS
330
10
102
}
330
10
100
AcDbMlineStyle
  2
Standard
 70
0
  3

 62
256
 51
90.0
 52
90.0
 71
2
 49
0.5
 62
256
  6
BYLAYER
 49
-0.5
 62
256
  6
BYLAYER
  0
MLEADERSTYLE
  5
2C
102
{ACAD_REACTORS
330
F
102
}
330
F
100
AcDbMLeaderStyle
179
2
170
2
171
1
172
0
 90
2
 40
0.0
 41
0.0
173
1
 91
-1056964608
 92
-2
290
1
 42
2.0
291
1
 43
8.0
  3
Standard
 44
4.0
300

342
29
174
1
175
1
176
0
178
1
 93
-1056964608
 45
4.0
292
0
297
0
 46
4.0
 94
-1056964608
 47
1.0
 49
1.0
140
1.0
294
1
141
0.0
177
0
142
1.0
295
0
296
0
143
3.75
271
0
272
9
273
9
  0
DICTIONARY
  5
2D
330
A
100
AcDbDictionary
281
1
  3
CREATED_BY_EZDXF
350
2E
  3
WRITTEN_BY_EZDXF
350
43
  0
DICTIONARYVAR
  5
2E
330
2D
100
DictionaryVariables
280
0
  1
1.0.3 @ 2025-05-29T09:39:25.251085+00:00
  0
DICTIONARYVAR
  5
43
330
2D
100
DictionaryVariables
280
0
  1
1.0.3 @ 2025-05-29T09:39:25.254121+00:00
  0
ENDSEC
  0
EOF
