  0
SECTION
  2
HEADER
  9
$ACADVER
  1
AC1027
  9
$ACADMAINTVER
 70
105
  9
$DWGCODEPAGE
  3
ANSI_1252
  9
$LASTSAVEDBY
  1
ezdxf
  9
$REQUIREDVERSIONS
160
0
  9
$INSBASE
 10
0.0
 20
0.0
 30
0.0
  9
$EXTMIN
 10
1e+20
 20
1e+20
 30
1e+20
  9
$EXTMAX
 10
-1e+20
 20
-1e+20
 30
-1e+20
  9
$LIMMIN
 10
0.0
 20
0.0
  9
$LIMMAX
 10
420.0
 20
297.0
  9
$ORTHOMODE
 70
0
  9
$REGENMODE
 70
1
  9
$FILLMODE
 70
1
  9
$QTEXTMODE
 70
0
  9
$MIRRTEXT
 70
1
  9
$LTSCALE
 40
1.0
  9
$ATTMODE
 70
1
  9
$TEXTSIZE
 40
2.5
  9
$TRACEWID
 40
1.0
  9
$TEXTSTYLE
  7
Standard
  9
$CLAYER
  8
0
  9
$CELTYPE
  6
ByLayer
  9
$CECOLOR
 62
256
  9
$CELTSCALE
 40
1.0
  9
$DISPSILH
 70
0
  9
$DIMSCALE
 40
1.0
  9
$DIMASZ
 40
2.5
  9
$DIMEXO
 40
0.625
  9
$DIMDLI
 40
3.75
  9
$DIMRND
 40
0.0
  9
$DIMDLE
 40
0.0
  9
$DIMEXE
 40
1.25
  9
$DIMTP
 40
0.0
  9
$DIMTM
 40
0.0
  9
$DIMTXT
 40
2.5
  9
$DIMCEN
 40
2.5
  9
$DIMTSZ
 40
0.0
  9
$DIMTOL
 70
0
  9
$DIMLIM
 70
0
  9
$DIMTIH
 70
0
  9
$DIMTOH
 70
0
  9
$DIMSE1
 70
0
  9
$DIMSE2
 70
0
  9
$DIMTAD
 70
1
  9
$DIMZIN
 70
8
  9
$DIMBLK
  1

  9
$DIMASO
 70
1
  9
$DIMSHO
 70
1
  9
$DIMPOST
  1

  9
$DIMAPOST
  1

  9
$DIMALT
 70
0
  9
$DIMALTD
 70
3
  9
$DIMALTF
 40
0.03937007874
  9
$DIMLFAC
 40
1.0
  9
$DIMTOFL
 70
1
  9
$DIMTVP
 40
0.0
  9
$DIMTIX
 70
0
  9
$DIMSOXD
 70
0
  9
$DIMSAH
 70
0
  9
$DIMBLK1
  1

  9
$DIMBLK2
  1

  9
$DIMSTYLE
  2
ISO-25
  9
$DIMCLRD
 70
0
  9
$DIMCLRE
 70
0
  9
$DIMCLRT
 70
0
  9
$DIMTFAC
 40
1.0
  9
$DIMGAP
 40
0.625
  9
$DIMJUST
 70
0
  9
$DIMSD1
 70
0
  9
$DIMSD2
 70
0
  9
$DIMTOLJ
 70
0
  9
$DIMTZIN
 70
8
  9
$DIMALTZ
 70
0
  9
$DIMALTTZ
 70
0
  9
$DIMUPT
 70
0
  9
$DIMDEC
 70
2
  9
$DIMTDEC
 70
2
  9
$DIMALTU
 70
2
  9
$DIMALTTD
 70
3
  9
$DIMTXSTY
  7
Standard
  9
$DIMAUNIT
 70
0
  9
$DIMADEC
 70
0
  9
$DIMALTRND
 40
0.0
  9
$DIMAZIN
 70
0
  9
$DIMDSEP
 70
44
  9
$DIMATFIT
 70
3
  9
$DIMFRAC
 70
0
  9
$DIMLDRBLK
  1

  9
$DIMLUNIT
 70
2
  9
$DIMLWD
 70
-2
  9
$DIMLWE
 70
-2
  9
$DIMTMOVE
 70
0
  9
$DIMFXL
 40
1.0
  9
$DIMFXLON
 70
0
  9
$DIMJOGANG
 40
0.785398163397
  9
$DIMTFILL
 70
0
  9
$DIMTFILLCLR
 70
0
  9
$DIMARCSYM
 70
0
  9
$DIMLTYPE
  6

  9
$DIMLTEX1
  6

  9
$DIMLTEX2
  6

  9
$DIMTXTDIRECTION
 70
0
  9
$LUNITS
 70
2
  9
$LUPREC
 70
4
  9
$SKETCHINC
 40
1.0
  9
$FILLETRAD
 40
10.0
  9
$AUNITS
 70
0
  9
$AUPREC
 70
2
  9
$MENU
  1
.
  9
$ELEVATION
 40
0.0
  9
$PELEVATION
 40
0.0
  9
$THICKNESS
 40
0.0
  9
$LIMCHECK
 70
0
  9
$CHAMFERA
 40
0.0
  9
$CHAMFERB
 40
0.0
  9
$CHAMFERC
 40
0.0
  9
$CHAMFERD
 40
0.0
  9
$SKPOLY
 70
0
  9
$TDCREATE
 40
2460825.7769560185
  9
$TDUCREATE
 40
2458532.153996898
  9
$TDUPDATE
 40
2460825.7769560185
  9
$TDUUPDATE
 40
2458532.1544311
  9
$TDINDWG
 40
0.0
  9
$TDUSRTIMER
 40
0.0
  9
$USRTIMER
 70
1
  9
$ANGBASE
 50
0.0
  9
$ANGDIR
 70
0
  9
$PDMODE
 70
0
  9
$PDSIZE
 40
0.0
  9
$PLINEWID
 40
0.0
  9
$SPLFRAME
 70
0
  9
$SPLINETYPE
 70
6
  9
$SPLINESEGS
 70
8
  9
$HANDSEED
  5
3C
  9
$SURFTAB1
 70
6
  9
$SURFTAB2
 70
6
  9
$SURFTYPE
 70
6
  9
$SURFU
 70
6
  9
$SURFV
 70
6
  9
$UCSBASE
  2

  9
$UCSNAME
  2

  9
$UCSORG
 10
0.0
 20
0.0
 30
0.0
  9
$UCSXDIR
 10
1.0
 20
0.0
 30
0.0
  9
$UCSYDIR
 10
0.0
 20
1.0
 30
0.0
  9
$UCSORTHOREF
  2

  9
$UCSORTHOVIEW
 70
0
  9
$UCSORGTOP
 10
0.0
 20
0.0
 30
0.0
  9
$UCSORGBOTTOM
 10
0.0
 20
0.0
 30
0.0
  9
$UCSORGLEFT
 10
0.0
 20
0.0
 30
0.0
  9
$UCSORGRIGHT
 10
0.0
 20
0.0
 30
0.0
  9
$UCSORGFRONT
 10
0.0
 20
0.0
 30
0.0
  9
$UCSORGBACK
 10
0.0
 20
0.0
 30
0.0
  9
$PUCSBASE
  2

  9
$PUCSNAME
  2

  9
$PUCSORG
 10
0.0
 20
0.0
 30
0.0
  9
$PUCSXDIR
 10
1.0
 20
0.0
 30
0.0
  9
$PUCSYDIR
 10
0.0
 20
1.0
 30
0.0
  9
$PUCSORTHOREF
  2

  9
$PUCSORTHOVIEW
 70
0
  9
$PUCSORGTOP
 10
0.0
 20
0.0
 30
0.0
  9
$PUCSORGBOTTOM
 10
0.0
 20
0.0
 30
0.0
  9
$PUCSORGLEFT
 10
0.0
 20
0.0
 30
0.0
  9
$PUCSORGRIGHT
 10
0.0
 20
0.0
 30
0.0
  9
$PUCSORGFRONT
 10
0.0
 20
0.0
 30
0.0
  9
$PUCSORGBACK
 10
0.0
 20
0.0
 30
0.0
  9
$USERI1
 70
0
  9
$USERI2
 70
0
  9
$USERI3
 70
0
  9
$USERI4
 70
0
  9
$USERI5
 70
0
  9
$USERR1
 40
0.0
  9
$USERR2
 40
0.0
  9
$USERR3
 40
0.0
  9
$USERR4
 40
0.0
  9
$USERR5
 40
0.0
  9
$WORLDVIEW
 70
1
  9
$SHADEDGE
 70
3
  9
$SHADEDIF
 70
70
  9
$TILEMODE
 70
1
  9
$MAXACTVP
 70
64
  9
$PINSBASE
 10
0.0
 20
0.0
 30
0.0
  9
$PLIMCHECK
 70
0
  9
$PEXTMIN
 10
1e+20
 20
1e+20
 30
1e+20
  9
$PEXTMAX
 10
-1e+20
 20
-1e+20
 30
-1e+20
  9
$PLIMMIN
 10
0.0
 20
0.0
  9
$PLIMMAX
 10
420.0
 20
297.0
  9
$UNITMODE
 70
0
  9
$VISRETAIN
 70
1
  9
$PLINEGEN
 70
0
  9
$PSLTSCALE
 70
1
  9
$TREEDEPTH
 70
3020
  9
$CMLSTYLE
  2
Standard
  9
$CMLJUST
 70
0
  9
$CMLSCALE
 40
20.0
  9
$PROXYGRAPHICS
 70
1
  9
$MEASUREMENT
 70
1
  9
$CELWEIGHT
370
-1
  9
$ENDCAPS
280
0
  9
$JOINSTYLE
280
0
  9
$LWDISPLAY
290
0
  9
$INSUNITS
 70
6
  9
$HYPERLINKBASE
  1

  9
$STYLESHEET
  1

  9
$XEDIT
290
1
  9
$CEPSNTYPE
380
0
  9
$PSTYLEMODE
290
1
  9
$FINGERPRINTGUID
  2
{ED63941F-406E-40FE-B9FE-F5064B2C17A8}
  9
$VERSIONGUID
  2
{8517D952-A2AD-4AB7-9771-89B0E205A601}
  9
$EXTNAMES
290
1
  9
$PSVPSCALE
 40
0.0
  9
$OLESTARTUP
290
0
  9
$SORTENTS
280
127
  9
$INDEXCTL
280
0
  9
$HIDETEXT
280
1
  9
$XCLIPFRAME
280
0
  9
$HALOGAP
280
0
  9
$OBSCOLOR
 70
257
  9
$OBSLTYPE
280
0
  9
$INTERSECTIONDISPLAY
280
0
  9
$INTERSECTIONCOLOR
 70
257
  9
$DIMASSOC
280
2
  9
$PROJECTNAME
  1

  9
$CAMERADISPLAY
290
0
  9
$LENSLENGTH
 40
50.0
  9
$CAMERAHEIGHT
 40
0.0
  9
$STEPSPERSEC
 40
24.0
  9
$STEPSIZE
 40
100.0
  9
$3DDWFPREC
 40
2.0
  9
$PSOLWIDTH
 40
0.005
  9
$PSOLHEIGHT
 40
0.08
  9
$LOFTANG1
 40
1.570796326795
  9
$LOFTANG2
 40
1.570796326795
  9
$LOFTMAG1
 40
0.0
  9
$LOFTMAG2
 40
0.0
  9
$LOFTPARAM
 70
7
  9
$LOFTNORMALS
280
1
  9
$LATITUDE
 40
37.795
  9
$LONGITUDE
 40
-122.394
  9
$NORTHDIRECTION
 40
0.0
  9
$TIMEZONE
 70
-8000
  9
$LIGHTGLYPHDISPLAY
280
1
  9
$TILEMODELIGHTSYNCH
280
1
  9
$CMATERIAL
347
20
  9
$SOLIDHIST
280
0
  9
$SHOWHIST
280
1
  9
$DWFFRAME
280
2
  9
$DGNFRAME
280
2
  9
$REALWORLDSCALE
290
1
  9
$INTERFERECOLOR
 62
256
  9
$CSHADOW
280
0
  9
$SHADOWPLANELOCATION
 40
0.0
  0
ENDSEC
  0
SECTION
  2
CLASSES
  0
CLASS
  1
ACDBDICTIONARYWDFLT
  2
AcDbDictionaryWithDefault
  3
ObjectDBX Classes
 90
0
 91
0
280
0
281
0
  0
CLASS
  1
SUN
  2
AcDbSun
  3
SCENEOE
 90
1153
 91
0
280
0
281
0
  0
CLASS
  1
VISUALSTYLE
  2
AcDbVisualStyle
  3
ObjectDBX Classes
 90
4095
 91
0
280
0
281
0
  0
CLASS
  1
MATERIAL
  2
AcDbMaterial
  3
ObjectDBX Classes
 90
1153
 91
0
280
0
281
0
  0
CLASS
  1
SCALE
  2
AcDbScale
  3
ObjectDBX Classes
 90
1153
 91
0
280
0
281
0
  0
CLASS
  1
TABLESTYLE
  2
AcDbTableStyle
  3
ObjectDBX Classes
 90
4095
 91
0
280
0
281
0
  0
CLASS
  1
MLEADERSTYLE
  2
AcDbMLeaderStyle
  3
ACDB_MLEADERSTYLE_CLASS
 90
4095
 91
0
280
0
281
0
  0
CLASS
  1
DICTIONARYVAR
  2
AcDbDictionaryVar
  3
ObjectDBX Classes
 90
0
 91
0
280
0
281
0
  0
CLASS
  1
CELLSTYLEMAP
  2
AcDbCellStyleMap
  3
ObjectDBX Classes
 90
1152
 91
0
280
0
281
0
  0
CLASS
  1
MENTALRAYRENDERSETTINGS
  2
AcDbMentalRayRenderSettings
  3
SCENEOE
 90
1024
 91
0
280
0
281
0
  0
CLASS
  1
ACDBDETAILVIEWSTYLE
  2
AcDbDetailViewStyle
  3
ObjectDBX Classes
 90
1025
 91
0
280
0
281
0
  0
CLASS
  1
ACDBSECTIONVIEWSTYLE
  2
AcDbSectionViewStyle
  3
ObjectDBX Classes
 90
1025
 91
0
280
0
281
0
  0
CLASS
  1
RASTERVARIABLES
  2
AcDbRasterVariables
  3
ISM
 90
0
 91
0
280
0
281
0
  0
CLASS
  1
LAYOUT
  2
AcDbLayout
  3
ObjectDBX Classes
 90
0
 91
0
280
0
281
0
  0
CLASS
  1
ACDBPLACEHOLDER
  2
AcDbPlaceHolder
  3
ObjectDBX Classes
 90
0
 91
0
280
0
281
0
  0
ENDSEC
  0
SECTION
  2
TABLES
  0
TABLE
  2
VPORT
  5
8
330
0
100
AcDbSymbolTable
 70
1
  0
VPORT
  5
23
330
8
100
AcDbSymbolTableRecord
100
AcDbViewportTableRecord
  2
*Active
 70
0
 10
0.0
 20
0.0
 11
1.0
 21
1.0
 12
0.0
 22
0.0
 13
0.0
 23
0.0
 14
0.5
 24
0.5
 15
0.5
 25
0.5
 16
0.0
 26
0.0
 36
1.0
 17
0.0
 27
0.0
 37
0.0
 40
1000.0
 41
1.34
 42
50.0
 43
0.0
 44
0.0
 50
0.0
 51
0.0
 71
0
 72
1000
 73
1
 74
3
 75
0
 76
0
 77
0
 78
0
281
0
 65
0
146
0.0
  0
ENDTAB
  0
TABLE
  2
LTYPE
  5
2
330
0
100
AcDbSymbolTable
 70
3
  0
LTYPE
  5
24
330
2
100
AcDbSymbolTableRecord
100
AcDbLinetypeTableRecord
  2
ByBlock
 70
0
  3

 72
65
 73
0
 40
0.0
  0
LTYPE
  5
25
330
2
100
AcDbSymbolTableRecord
100
AcDbLinetypeTableRecord
  2
ByLayer
 70
0
  3

 72
65
 73
0
 40
0.0
  0
LTYPE
  5
26
330
2
100
AcDbSymbolTableRecord
100
AcDbLinetypeTableRecord
  2
Continuous
 70
0
  3

 72
65
 73
0
 40
0.0
  0
ENDTAB
  0
TABLE
  2
LAYER
  5
1
330
0
100
AcDbSymbolTable
 70
2
  0
LAYER
  5
27
330
1
100
AcDbSymbolTableRecord
100
AcDbLayerTableRecord
  2
0
 70
0
 62
7
  6
Continuous
370
-3
390
13
347
21
  0
LAYER
  5
28
330
1
100
AcDbSymbolTableRecord
100
AcDbLayerTableRecord
  2
Defpoints
 70
0
 62
7
  6
Continuous
290
0
370
-3
390
13
347
21
  0
ENDTAB
  0
TABLE
  2
STYLE
  5
5
330
0
100
AcDbSymbolTable
 70
1
  0
STYLE
  5
29
330
5
100
AcDbSymbolTableRecord
100
AcDbTextStyleTableRecord
  2
Standard
 70
0
 40
0.0
 41
1.0
 50
0.0
 71
0
 42
2.5
  3
txt
  4

  0
ENDTAB
  0
TABLE
  2
VIEW
  5
7
330
0
100
AcDbSymbolTable
 70
0
  0
ENDTAB
  0
TABLE
  2
UCS
  5
6
330
0
100
AcDbSymbolTable
 70
0
  0
ENDTAB
  0
TABLE
  2
APPID
  5
3
330
0
100
AcDbSymbolTable
 70
3
  0
APPID
  5
2A
330
3
100
AcDbSymbolTableRecord
100
AcDbRegAppTableRecord
  2
ACAD
 70
0
  0
APPID
  5
39
330
3
100
AcDbSymbolTableRecord
100
AcDbRegAppTableRecord
  2
HATCHBACKGROUNDCOLOR
 70
0
  0
APPID
  5
3A
330
3
100
AcDbSymbolTableRecord
100
AcDbRegAppTableRecord
  2
EZDXF
 70
0
  0
ENDTAB
  0
TABLE
  2
DIMSTYLE
  5
4
330
0
100
AcDbSymbolTable
 70
1
100
AcDbDimStyleTable
  0
DIMSTYLE
105
2B
330
4
100
AcDbSymbolTableRecord
100
AcDbDimStyleTableRecord
  2
Standard
 70
0
 40
1.0
 41
2.5
 42
0.625
 43
3.75
 44
1.25
 45
0.0
 46
0.0
 47
0.0
 48
0.0
 49
2.5
140
2.5
141
2.5
142
0.0
143
0.03937007874
144
1.0
145
0.0
146
1.0
147
0.625
148
0.0
 69
0
 70
0
 71
0
 72
0
 73
0
 74
0
 75
0
 76
0
 77
1
 78
8
 79
3
170
0
171
3
172
1
173
0
174
0
175
0
176
0
177
0
178
0
179
2
271
2
272
2
273
2
274
3
275
0
276
0
277
2
278
44
279
0
280
0
281
0
282
0
283
0
284
8
285
0
286
0
288
0
289
3
290
0
371
-2
372
-2
  0
ENDTAB
  0
TABLE
  2
BLOCK_RECORD
  5
9
330
0
100
AcDbSymbolTable
 70
2
  0
BLOCK_RECORD
  5
17
330
9
100
AcDbSymbolTableRecord
100
AcDbBlockTableRecord
  2
*Model_Space
340
1A
 70
0
280
1
281
0
  0
BLOCK_RECORD
  5
1B
330
9
100
AcDbSymbolTableRecord
100
AcDbBlockTableRecord
  2
*Paper_Space
340
1E
 70
0
280
1
281
0
  0
ENDTAB
  0
ENDSEC
  0
SECTION
  2
BLOCKS
  0
BLOCK
  5
18
330
17
100
AcDbEntity
  8
0
100
AcDbBlockBegin
  2
*Model_Space
 70
0
 10
0.0
 20
0.0
 30
0.0
  3
*Model_Space
  1

  0
ENDBLK
  5
19
330
17
100
AcDbEntity
  8
0
100
AcDbBlockEnd
  0
BLOCK
  5
1C
330
1B
100
AcDbEntity
  8
0
100
AcDbBlockBegin
  2
*Paper_Space
 70
0
 10
0.0
 20
0.0
 30
0.0
  3
*Paper_Space
  1

  0
ENDBLK
  5
1D
330
1B
100
AcDbEntity
  8
0
100
AcDbBlockEnd
  0
ENDSEC
  0
SECTION
  2
ENTITIES
  0
LWPOLYLINE
  5
2F
330
17
100
AcDbEntity
  8
0
100
AcDbPolyline
 90
51
 70
0
 10
14.1
 20
12.0
 10
14.1
 20
11.76
 10
14.1
 20
11.52
 10
14.1
 20
11.28
 10
14.1
 20
11.04
 10
14.1
 20
10.8
 10
14.1
 20
10.56
 10
14.1
 20
10.32
 10
14.1
 20
10.08
 10
14.1
 20
9.84
 10
14.1
 20
9.6
 10
14.1
 20
9.36
 10
14.1
 20
9.120000000000001
 10
14.1
 20
8.879999999999999
 10
14.1
 20
8.64
 10
14.1
 20
8.4
 10
14.1
 20
8.16
 10
14.1
 20
7.92
 10
14.1
 20
7.68
 10
14.1
 20
7.44
 10
14.1
 20
7.2
 10
14.1
 20
6.96
 10
14.1
 20
6.72
 10
14.1
 20
6.48
 10
14.1
 20
6.24
 10
14.1
 20
6.0
 10
14.1
 20
5.76
 10
14.1
 20
5.52
 10
14.1
 20
5.28
 10
14.1
 20
5.04
 10
14.1
 20
4.8
 10
14.1
 20
4.56
 10
14.1
 20
4.32
 10
14.1
 20
4.08
 10
14.1
 20
3.84
 10
14.1
 20
3.5999999999999996
 10
14.1
 20
3.3599999999999994
 10
14.1
 20
3.119999999999999
 10
14.1
 20
2.880000000000001
 10
14.1
 20
2.6400000000000006
 10
14.1
 20
2.4000000000000004
 10
14.1
 20
2.16
 10
14.1
 20
1.92
 10
14.1
 20
1.6799999999999997
 10
14.1
 20
1.4399999999999995
 10
14.1
 20
1.1999999999999993
 10
14.1
 20
0.9600000000000009
 10
14.1
 20
0.7200000000000006
 10
14.1
 20
0.4800000000000004
 10
14.1
 20
0.2400000000000002
 10
14.100000000000001
 20
0.0
  0
LWPOLYLINE
  5
30
330
17
100
AcDbEntity
  8
0
100
AcDbPolyline
 90
51
 70
0
 10
0.100000000000001
 20
5.0
 10
0.10000000000000098
 20
5.14
 10
0.10000000000000094
 20
5.28
 10
0.10000000000000091
 20
5.42
 10
0.10000000000000087
 20
5.5600000000000005
 10
0.10000000000000084
 20
5.7
 10
0.1000000000000008
 20
5.84
 10
0.10000000000000077
 20
5.98
 10
0.10000000000000073
 20
6.12
 10
0.1000000000000007
 20
6.26
 10
0.10000000000000066
 20
6.4
 10
0.10000000000000063
 20
6.54
 10
0.10000000000000059
 20
6.68
 10
0.10000000000000056
 20
6.82
 10
0.10000000000000052
 20
6.96
 10
0.10000000000000049
 20
7.1
 10
0.10000000000000045
 20
7.24
 10
0.10000000000000042
 20
7.38
 10
0.10000000000000038
 20
7.52
 10
0.10000000000000035
 20
7.66
 10
0.10000000000000031
 20
7.8
 10
0.10000000000000028
 20
7.9399999999999995
 10
0.10000000000000024
 20
8.08
 10
0.10000000000000021
 20
8.22
 10
0.10000000000000017
 20
8.36
 10
0.10000000000000014
 20
8.5
 10
0.1000000000000001
 20
8.64
 10
0.10000000000000007
 20
8.78
 10
0.10000000000000003
 20
8.92
 10
0.1
 20
9.059999999999999
 10
0.09999999999999996
 20
9.2
 10
0.09999999999999994
 20
9.34
 10
0.0999999999999999
 20
9.48
 10
0.09999999999999987
 20
9.620000000000001
 10
0.09999999999999983
 20
9.76
 10
0.0999999999999998
 20
9.9
 10
0.09999999999999976
 20
10.04
 10
0.09999999999999973
 20
10.18
 10
0.09999999999999969
 20
10.32
 10
0.09999999999999966
 20
10.46
 10
0.09999999999999962
 20
10.6
 10
0.09999999999999959
 20
10.74
 10
0.09999999999999955
 20
10.879999999999999
 10
0.09999999999999952
 20
11.02
 10
0.09999999999999948
 20
11.16
 10
0.09999999999999945
 20
11.3
 10
0.09999999999999941
 20
11.440000000000001
 10
0.09999999999999938
 20
11.58
 10
0.09999999999999934
 20
11.719999999999999
 10
0.09999999999999931
 20
11.86
 10
0.09999999999999927
 20
12.0
  0
LWPOLYLINE
  5
31
330
17
100
AcDbEntity
  8
0
100
AcDbPolyline
 90
51
 70
0
 10
0.09999999999999964
 20
11.999999999999998
 10
0.11381290100209895
 20
12.439533636705189
 10
0.15519709079865418
 20
12.877332634950129
 10
0.2239892448991787
 20
13.31166920210007
 10
0.3199178720995821
 20
13.740829210153985
 10
0.44260438593392415
 20
14.16311896062463
 10
0.5915645987822389
 20
14.576871868792741
 10
0.766210632737863
 20
14.980455040955508
 10
0.9658532396929527
 20
15.372275718712004
 10
1.1897045214858952
 20
15.750787564852978
 10
1.4368810393753666
 20
16.11449676604731
 10
1.7064073005694729
 20
16.461967928240824
 10
1.997219608050119
 20
16.79182974150082
 10
2.3081702584991772
 20
17.102780391949878
 10
2.638032071759172
 20
17.393592699430528
 10
2.985503233952686
 20
17.66311896062463
 10
3.34921243514702
 20
17.910295478514104
 10
3.7277242812879923
 20
18.134146760307047
 10
4.119544959044489
 20
18.333789367262135
 10
4.523128131207255
 20
18.50843540121776
 10
4.936881039375366
 20
18.657395614066075
 10
5.359170789846012
 20
18.780082127900418
 10
5.788330797899927
 20
18.876010755100822
 10
6.222667365049867
 20
18.944802909201343
 10
6.660466363294807
 20
18.986187098997902
 10
7.099999999999998
 20
19.0
 10
7.539533636705189
 20
18.986187098997902
 10
7.977332634950129
 20
18.944802909201346
 10
8.41166920210007
 20
18.876010755100822
 10
8.840829210153984
 20
18.780082127900418
 10
9.263118960624631
 20
18.657395614066075
 10
9.676871868792741
 20
18.50843540121776
 10
10.080455040955508
 20
18.333789367262135
 10
10.472275718712009
 20
18.134146760307043
 10
10.850787564852975
 20
17.910295478514104
 10
11.21449676604731
 20
17.663118960624633
 10
11.561967928240824
 20
17.393592699430528
 10
11.891829741500821
 20
17.10278039194988
 10
12.20278039194988
 20
16.791829741500823
 10
12.493592699430526
 20
16.461967928240828
 10
12.763118960624631
 20
16.114496766047314
 10
13.010295478514102
 20
15.75078756485298
 10
13.234146760307045
 20
15.372275718712007
 10
13.433789367262136
 20
14.980455040955512
 10
13.60843540121776
 20
14.576871868792745
 10
13.757395614066073
 20
14.163118960624633
 10
13.880082127900415
 20
13.740829210153988
 10
13.97601075510082
 20
13.311669202100074
 10
14.044802909201344
 20
12.877332634950132
 10
14.0861870989979
 20
12.439533636705193
 10
14.1
 20
12.000000000000002
  0
LWPOLYLINE
  5
32
330
17
100
AcDbEntity
  8
0
100
AcDbPolyline
 90
51
 70
0
 10
14.1
 20
1.001865257421741e-15
 10
13.036
 20
9.262635103368662e-16
 10
11.972
 20
8.506617632519916e-16
 10
10.908
 20
7.75060016167117e-16
 10
9.844
 20
6.994582690822423e-16
 10
8.78
 20
6.238565219973677e-16
 10
7.715999999999998
 20
5.482547749124931e-16
 10
6.651999999999999
 20
4.726530278276184e-16
 10
5.587999999999999
 20
3.970512807427438e-16
 10
4.523999999999999
 20
3.2144953365786914e-16
 10
3.459999999999999
 20
2.458477865729945e-16
 10
2.395999999999999
 20
1.7024603948811987e-16
 10
1.3319999999999972
 20
9.464429240324511e-17
 10
0.2679999999999989
 20
1.9042545318370602e-17
 10
-0.7960000000000012
 20
-5.655920176650404e-17
 10
-1.8600000000000012
 20
-1.3216094885137867e-16
 10
-2.9240000000000013
 20
-2.077626959362533e-16
 10
-3.9880000000000013
 20
-2.8336444302112795e-16
 10
-5.052000000000001
 20
-3.589661901060026e-16
 10
-6.116000000000001
 20
-4.345679371908772e-16
 10
-7.1800000000000015
 20
-5.101696842757519e-16
 10
-8.244000000000002
 20
-5.857714313606265e-16
 10
-9.308000000000002
 20
-6.613731784455011e-16
 10
-10.372000000000002
 20
-7.369749255303758e-16
 10
-11.436000000000005
 20
-8.125766726152507e-16
 10
-12.500000000000002
 20
-8.88178419700125e-16
 10
-13.564000000000002
 20
-9.637801667849998e-16
 10
-14.628000000000002
 20
-1.0393819138698743e-15
 10
-15.692000000000002
 20
-1.114983660954749e-15
 10
-16.756000000000007
 20
-1.190585408039624e-15
 10
-17.82
 20
-1.2661871551244981e-15
 10
-18.884
 20
-1.3417889022093729e-15
 10
-19.948
 20
-1.4173906492942474e-15
 10
-21.012
 20
-1.4929923963791221e-15
 10
-22.076
 20
-1.5685941434639967e-15
 10
-23.14
 20
-1.6441958905488714e-15
 10
-24.204
 20
-1.719797637633746e-15
 10
-25.268
 20
-1.7953993847186205e-15
 10
-26.332
 20
-1.8710011318034954e-15
 10
-27.396
 20
-1.94660287888837e-15
 10
-28.46
 20
-2.0222046259732445e-15
 10
-29.524
 20
-2.097806373058119e-15
 10
-30.588
 20
-2.173408120142994e-15
 10
-31.651999999999994
 20
-2.249009867227868e-15
 10
-32.716
 20
-2.324611614312743e-15
 10
-33.78
 20
-2.4002133613976176e-15
 10
-34.844
 20
-2.4758151084824925e-15
 10
-35.908
 20
-2.551416855567367e-15
 10
-36.97200000000001
 20
-2.627018602652242e-15
 10
-38.036
 20
-2.702620349737116e-15
 10
-39.1
 20
-2.778222096821991e-15
  0
LWPOLYLINE
  5
33
330
17
100
AcDbEntity
  8
0
100
AcDbPolyline
 90
51
 70
0
 10
11.1
 20
12.0
 10
11.08224785841232
 20
11.623566746725944
 10
11.029149002914755
 20
11.2504747416571
 10
10.941174742707773
 20
10.884035575843082
 10
10.819105943553005
 20
10.527501789261288
 10
10.66402609675347
 20
10.184038001041813
 10
10.47731170200806
 20
9.856692820084014
 10
10.260620049502762
 20
9.548371785388095
 10
10.015874509685645
 20
9.261811576285245
 10
9.745247461294607
 20
8.999555721478162
 10
9.451141009169893
 20
8.76393202250021
 10
9.136165663001485
 20
8.557031891984225
 10
8.803117166260291
 20
8.380691790135923
 10
8.454951680981164
 20
8.236476924183098
 10
8.094759548659418
 20
8.125667355485476
 10
7.7257378601609235
 20
8.049246637619449
 10
7.3511620781172535
 20
8.007893086286913
 10
6.974356963687487
 20
8.001973758537073
 10
6.598667065742783
 20
8.031541194742088
 10
6.227427034413831
 20
8.09633295224501
 10
5.863932022500211
 20
8.195773934819385
 10
5.511408437460877
 20
8.328981497264076
 10
5.172985303593138
 20
8.494773279824546
 10
4.851666488591477
 20
8.691677702901753
 10
4.550304041005241
 20
8.917947028896844
 10
4.27157287525381
 20
9.171572875253808
 10
4.017947028896842
 20
9.450304041005243
 10
3.791677702901753
 20
9.751666488591477
 10
3.5947732798245453
 20
10.07298530359314
 10
3.428981497264076
 20
10.411408437460876
 10
3.2957739348193855
 20
10.76393202250021
 10
3.196332952245011
 20
11.127427034413827
 10
3.1315411947420886
 20
11.498667065742781
 10
3.1019737585370732
 20
11.874356963687486
 10
3.1078930862869134
 20
12.251162078117252
 10
3.1492466376194486
 20
12.625737860160923
 10
3.2256673554854753
 20
12.99475954865942
 10
3.3364769241830974
 20
13.354951680981165
 10
3.48069179013592
 20
13.703117166260288
 10
3.657031891984226
 20
14.036165663001487
 10
3.8639320225002094
 20
14.351141009169892
 10
4.0995557214781595
 20
14.645247461294606
 10
4.3618115762852465
 20
14.915874509685647
 10
4.648371785388093
 20
15.16062004950276
 10
4.956692820084014
 20
15.377311702008061
 10
5.284038001041812
 20
15.564026096753471
 10
5.627501789261288
 20
15.719105943553005
 10
5.984035575843081
 20
15.841174742707771
 10
6.350474741657101
 20
15.929149002914755
 10
6.723566746725943
 20
15.98224785841232
 10
7.099999999999999
 20
16.0
  0
LWPOLYLINE
  5
34
330
17
100
AcDbEntity
  8
0
100
AcDbPolyline
 90
51
 70
0
 10
7.1
 20
16.0
 10
7.225643036312513
 20
15.998026241462927
 10
7.3511620781172535
 20
15.992106913713087
 10
7.476433253274057
 20
15.98224785841232
 10
7.601332934257217
 20
15.968458805257912
 10
7.7257378601609235
 20
15.950753362380551
 10
7.849525258342898
 20
15.929149002914755
 10
7.97257296558617
 20
15.90366704775499
 10
8.094759548659418
 20
15.874332644514524
 10
8.215964424156917
 20
15.841174742707771
 10
8.33606797749979
 20
15.804226065180615
 10
8.454951680981164
 20
15.763523075816902
 10
8.572498210738711
 20
15.719105943553005
 10
8.688591562539122
 20
15.671018502735924
 10
8.80311716626029
 20
15.619308209864078
 10
8.915961998958187
 20
15.564026096753471
 10
9.02701469640686
 20
15.505226720175454
 10
9.136165663001485
 20
15.442968108015775
 10
9.243307179915986
 20
15.377311702008061
 10
9.348333511408523
 20
15.308322297098247
 10
9.451141009169891
 20
15.23606797749979
 10
9.551628214611906
 20
15.16062004950276
 10
9.649695958994759
 20
15.082052971103156
 10
9.745247461294607
 20
15.000444278521838
 10
9.838188423714755
 20
14.915874509685647
 10
9.92842712474619
 20
14.82842712474619
 10
10.015874509685645
 20
14.738188423714755
 10
10.100444278521838
 20
14.645247461294607
 10
10.182052971103158
 20
14.549695958994759
 10
10.260620049502762
 20
14.451628214611906
 10
10.33606797749979
 20
14.351141009169893
 10
10.408322297098247
 20
14.248333511408523
 10
10.477311702008059
 20
14.143307179915986
 10
10.542968108015774
 20
14.036165663001485
 10
10.605226720175455
 20
13.92701469640686
 10
10.66402609675347
 20
13.815961998958187
 10
10.719308209864078
 20
13.703117166260292
 10
10.771018502735924
 20
13.588591562539122
 10
10.819105943553005
 20
13.472498210738712
 10
10.863523075816902
 20
13.354951680981166
 10
10.904226065180614
 20
13.23606797749979
 10
10.941174742707771
 20
13.115964424156918
 10
10.974332644514524
 20
12.994759548659419
 10
11.00366704775499
 20
12.872572965586171
 10
11.029149002914753
 20
12.7495252583429
 10
11.05075336238055
 20
12.625737860160923
 10
11.068458805257912
 20
12.501332934257217
 10
11.08224785841232
 20
12.376433253274056
 10
11.092106913713085
 20
12.251162078117254
 10
11.098026241462925
 20
12.125643036312514
 10
11.1
 20
12.0
  0
LWPOLYLINE
  5
35
330
17
100
AcDbEntity
  8
0
100
AcDbPolyline
 90
51
 70
0
 10
-39.1
 20
-2.77822209682199e-15
 10
-39.1
 20
0.09999999999999727
 10
-39.1
 20
0.19999999999999732
 10
-39.1
 20
0.2999999999999974
 10
-39.1
 20
0.3999999999999974
 10
-39.1
 20
0.49999999999999756
 10
-39.1
 20
0.5999999999999975
 10
-39.1
 20
0.6999999999999976
 10
-39.1
 20
0.7999999999999976
 10
-39.1
 20
0.8999999999999977
 10
-39.1
 20
0.9999999999999979
 10
-39.1
 20
1.0999999999999976
 10
-39.1
 20
1.1999999999999977
 10
-39.1
 20
1.2999999999999976
 10
-39.1
 20
1.399999999999998
 10
-39.1
 20
1.499999999999998
 10
-39.1
 20
1.5999999999999979
 10
-39.1
 20
1.699999999999998
 10
-39.1
 20
1.799999999999998
 10
-39.1
 20
1.8999999999999984
 10
-39.1
 20
1.9999999999999987
 10
-39.1
 20
2.0999999999999983
 10
-39.1
 20
2.1999999999999984
 10
-39.1
 20
2.2999999999999985
 10
-39.1
 20
2.3999999999999986
 10
-39.1
 20
2.4999999999999987
 10
-39.1
 20
2.5999999999999983
 10
-39.1
 20
2.699999999999999
 10
-39.1
 20
2.799999999999999
 10
-39.1
 20
2.899999999999999
 10
-39.1
 20
2.999999999999999
 10
-39.1
 20
3.099999999999999
 10
-39.1
 20
3.199999999999999
 10
-39.1
 20
3.299999999999999
 10
-39.1
 20
3.399999999999999
 10
-39.1
 20
3.499999999999999
 10
-39.1
 20
3.599999999999999
 10
-39.1
 20
3.699999999999999
 10
-39.1
 20
3.8
 10
-39.1
 20
3.8999999999999995
 10
-39.1
 20
4.0
 10
-39.1
 20
4.1
 10
-39.1
 20
4.199999999999999
 10
-39.1
 20
4.3
 10
-39.1
 20
4.3999999999999995
 10
-39.1
 20
4.5
 10
-39.1
 20
4.6
 10
-39.1
 20
4.699999999999999
 10
-39.1
 20
4.8
 10
-39.1
 20
4.9
 10
-39.1
 20
5.0
  0
LWPOLYLINE
  5
36
330
17
100
AcDbEntity
  8
0
100
AcDbPolyline
 90
51
 70
0
 10
-20.0
 20
5.0
 10
-19.598
 20
5.0
 10
-19.195999999999998
 20
5.0
 10
-18.794
 20
5.0
 10
-18.392
 20
5.0
 10
-17.990000000000002
 20
5.0
 10
-17.588
 20
5.0
 10
-17.186
 20
5.0
 10
-16.784
 20
5.0
 10
-16.381999999999998
 20
5.0
 10
-15.98
 20
5.0
 10
-15.578
 20
5.0
 10
-15.175999999999998
 20
5.0
 10
-14.774000000000001
 20
5.0
 10
-14.372
 20
5.0
 10
-13.969999999999999
 20
5.0
 10
-13.568
 20
5.0
 10
-13.166
 20
5.0
 10
-12.764
 20
5.0
 10
-12.361999999999998
 20
5.0
 10
-11.96
 20
5.0
 10
-11.558
 20
5.0
 10
-11.155999999999999
 20
5.0
 10
-10.754
 20
5.0
 10
-10.351999999999999
 20
5.0
 10
-9.95
 20
5.0
 10
-9.548
 20
5.0
 10
-9.145999999999999
 20
5.0
 10
-8.744
 20
5.0
 10
-8.341999999999999
 20
5.0
 10
-7.939999999999998
 20
5.0
 10
-7.538
 20
5.0
 10
-7.135999999999999
 20
5.0
 10
-6.733999999999998
 20
5.0
 10
-6.332000000000001
 20
5.0
 10
-5.93
 20
5.0
 10
-5.527999999999999
 20
5.0
 10
-5.125999999999998
 20
5.0
 10
-4.723999999999997
 20
5.0
 10
-4.321999999999996
 20
5.0
 10
-3.9200000000000017
 20
5.0
 10
-3.5180000000000007
 20
5.0
 10
-3.1159999999999997
 20
5.0
 10
-2.7139999999999986
 20
5.0
 10
-2.3119999999999976
 20
5.0
 10
-1.9099999999999966
 20
5.0
 10
-1.5079999999999991
 20
5.0
 10
-1.105999999999998
 20
5.0
 10
-0.7039999999999971
 20
5.0
 10
-0.3019999999999996
 20
5.0
 10
0.10000000000000142
 20
5.0
  0
LWPOLYLINE
  5
37
330
17
100
AcDbEntity
  8
0
100
AcDbPolyline
 90
51
 70
0
 10
-39.1
 20
5.0
 10
-38.316
 20
5.0
 10
-37.532000000000004
 20
5.0
 10
-36.748000000000005
 20
5.0
 10
-35.964
 20
5.0
 10
-35.18
 20
5.0
 10
-34.396
 20
5.0
 10
-33.612
 20
5.0
 10
-32.828
 20
5.0
 10
-32.044000000000004
 20
5.0
 10
-31.26
 20
5.0
 10
-30.476
 20
5.0
 10
-29.692
 20
5.0
 10
-28.908
 20
5.0
 10
-28.124000000000002
 20
5.0
 10
-27.340000000000003
 20
5.0
 10
-26.556
 20
5.0
 10
-25.772
 20
5.0
 10
-24.988
 20
5.0
 10
-24.204
 20
5.0
 10
-23.42
 20
5.0
 10
-22.636
 20
5.0
 10
-21.852
 20
5.0
 10
-21.068
 20
5.0
 10
-20.284
 20
5.0
 10
-19.5
 20
5.0
 10
-18.716
 20
5.0
 10
-17.932
 20
5.0
 10
-17.148
 20
5.0
 10
-16.363999999999997
 20
5.0
 10
-15.580000000000002
 20
5.0
 10
-14.796
 20
5.0
 10
-14.012
 20
5.0
 10
-13.227999999999998
 20
5.0
 10
-12.443999999999999
 20
5.0
 10
-11.66
 20
5.0
 10
-10.876000000000001
 20
5.0
 10
-10.091999999999999
 20
5.0
 10
-9.308
 20
5.0
 10
-8.523999999999997
 20
5.0
 10
-7.740000000000002
 20
5.0
 10
-6.956000000000003
 20
5.0
 10
-6.171999999999997
 20
5.0
 10
-5.387999999999998
 20
5.0
 10
-4.603999999999999
 20
5.0
 10
-3.8200000000000003
 20
5.0
 10
-3.0360000000000014
 20
5.0
 10
-2.2520000000000024
 20
5.0
 10
-1.4679999999999964
 20
5.0
 10
-0.6839999999999975
 20
5.0
 10
0.10000000000000142
 20
5.0
  0
LWPOLYLINE
  5
38
330
17
100
AcDbEntity
  8
0
100
AcDbPolyline
 90
51
 70
0
 10
0.100000000000001
 20
5.0
 10
0.10000000000000098
 20
5.14
 10
0.10000000000000094
 20
5.28
 10
0.10000000000000091
 20
5.42
 10
0.10000000000000087
 20
5.5600000000000005
 10
0.10000000000000084
 20
5.7
 10
0.1000000000000008
 20
5.84
 10
0.10000000000000077
 20
5.98
 10
0.10000000000000073
 20
6.12
 10
0.1000000000000007
 20
6.26
 10
0.10000000000000066
 20
6.4
 10
0.10000000000000063
 20
6.54
 10
0.10000000000000059
 20
6.68
 10
0.10000000000000056
 20
6.82
 10
0.10000000000000052
 20
6.96
 10
0.10000000000000049
 20
7.1
 10
0.10000000000000045
 20
7.24
 10
0.10000000000000042
 20
7.38
 10
0.10000000000000038
 20
7.52
 10
0.10000000000000035
 20
7.66
 10
0.10000000000000031
 20
7.8
 10
0.10000000000000028
 20
7.9399999999999995
 10
0.10000000000000024
 20
8.08
 10
0.10000000000000021
 20
8.22
 10
0.10000000000000017
 20
8.36
 10
0.10000000000000014
 20
8.5
 10
0.1000000000000001
 20
8.64
 10
0.10000000000000007
 20
8.78
 10
0.10000000000000003
 20
8.92
 10
0.1
 20
9.059999999999999
 10
0.09999999999999996
 20
9.2
 10
0.09999999999999994
 20
9.34
 10
0.0999999999999999
 20
9.48
 10
0.09999999999999987
 20
9.620000000000001
 10
0.09999999999999983
 20
9.76
 10
0.0999999999999998
 20
9.9
 10
0.09999999999999976
 20
10.04
 10
0.09999999999999973
 20
10.18
 10
0.09999999999999969
 20
10.32
 10
0.09999999999999966
 20
10.46
 10
0.09999999999999962
 20
10.6
 10
0.09999999999999959
 20
10.74
 10
0.09999999999999955
 20
10.879999999999999
 10
0.09999999999999952
 20
11.02
 10
0.09999999999999948
 20
11.16
 10
0.09999999999999945
 20
11.3
 10
0.09999999999999941
 20
11.440000000000001
 10
0.09999999999999938
 20
11.58
 10
0.09999999999999934
 20
11.719999999999999
 10
0.09999999999999931
 20
11.86
 10
0.09999999999999927
 20
12.0
  0
ENDSEC
  0
SECTION
  2
OBJECTS
  0
DICTIONARY
  5
A
330
0
100
AcDbDictionary
280
0
281
1
  3
ACAD_COLOR
350
B
  3
ACAD_GROUP
350
C
  3
ACAD_LAYOUT
350
D
  3
ACAD_MATERIAL
350
E
  3
ACAD_MLEADERSTYLE
350
F
  3
ACAD_MLINESTYLE
350
10
  3
ACAD_PLOTSETTINGS
350
11
  3
ACAD_PLOTSTYLENAME
350
12
  3
ACAD_SCALELIST
350
14
  3
ACAD_TABLESTYLE
350
15
  3
ACAD_VISUALSTYLE
350
16
  3
EZDXF_META
350
2D
  0
DICTIONARY
  5
B
330
A
100
AcDbDictionary
280
0
281
1
  0
DICTIONARY
  5
C
330
A
100
AcDbDictionary
280
0
281
1
  0
DICTIONARY
  5
D
330
A
100
AcDbDictionary
280
0
281
1
  3
Model
350
1A
  3
Layout1
350
1E
  0
DICTIONARY
  5
E
330
A
100
AcDbDictionary
280
0
281
1
  3
ByBlock
350
1F
  3
ByLayer
350
20
  3
Global
350
21
  0
DICTIONARY
  5
F
330
A
100
AcDbDictionary
280
0
281
1
  3
Standard
350
2C
  0
DICTIONARY
  5
10
330
A
100
AcDbDictionary
280
0
281
1
  3
Standard
350
22
  0
DICTIONARY
  5
11
330
A
100
AcDbDictionary
280
0
281
1
  0
ACDBDICTIONARYWDFLT
  5
12
330
A
100
AcDbDictionary
280
0
281
1
  3
Normal
350
13
100
AcDbDictionaryWithDefault
340
13
  0
ACDBPLACEHOLDER
  5
13
330
12
  0
DICTIONARY
  5
14
330
A
100
AcDbDictionary
280
0
281
1
  0
DICTIONARY
  5
15
330
A
100
AcDbDictionary
280
0
281
1
  0
DICTIONARY
  5
16
330
A
100
AcDbDictionary
280
0
281
1
  0
LAYOUT
  5
1A
330
D
100
AcDbPlotSettings
  1

  2
Adobe PDF
  4
A3
  6

 40
7.5
 41
20.0
 42
7.5
 43
20.0
 44
420.0
 45
297.0
 46
0.0
 47
0.0
 48
0.0
 49
0.0
140
0.0
141
0.0
142
1.0
143
1.0
 70
1024
 72
1
 73
0
 74
5
  7

 75
16
 76
0
 77
2
 78
300
147
1.0
148
0.0
149
0.0
100
AcDbLayout
  1
Model
 70
1
 71
0
 10
0.0
 20
0.0
 11
420.0
 21
297.0
 12
0.0
 22
0.0
 32
0.0
 14
1e+20
 24
1e+20
 34
1e+20
 15
-1e+20
 25
-1e+20
 35
-1e+20
146
0.0
 13
0.0
 23
0.0
 33
0.0
 16
1.0
 26
0.0
 36
0.0
 17
0.0
 27
1.0
 37
0.0
 76
1
330
17
  0
LAYOUT
  5
1E
330
D
100
AcDbPlotSettings
  1

  2
Adobe PDF
  4
A3
  6

 40
7.5
 41
20.0
 42
7.5
 43
20.0
 44
420.0
 45
297.0
 46
0.0
 47
0.0
 48
0.0
 49
0.0
140
0.0
141
0.0
142
1.0
143
1.0
 70
0
 72
1
 73
0
 74
5
  7

 75
16
 76
0
 77
2
 78
300
147
1.0
148
0.0
149
0.0
100
AcDbLayout
  1
Layout1
 70
1
 71
1
 10
0.0
 20
0.0
 11
420.0
 21
297.0
 12
0.0
 22
0.0
 32
0.0
 14
1e+20
 24
1e+20
 34
1e+20
 15
-1e+20
 25
-1e+20
 35
-1e+20
146
0.0
 13
0.0
 23
0.0
 33
0.0
 16
1.0
 26
0.0
 36
0.0
 17
0.0
 27
1.0
 37
0.0
 76
1
330
1B
  0
MATERIAL
  5
1F
102
{ACAD_REACTORS
330
E
102
}
330
E
100
AcDbMaterial
  1
ByBlock
  2

 70
0
 40
1.0
 71
1
 41
1.0
 91
-1023410177
 42
1.0
 72
1
  3

 73
1
 74
1
 75
1
 44
0.5
 73
0
 45
1.0
 46
1.0
 77
1
  4

 78
1
 79
1
170
1
 48
1.0
171
1
  6

172
1
173
1
174
1
140
1.0
141
1.0
175
1
  7

176
1
177
1
178
1
143
1.0
179
1
  8

270
1
271
1
272
1
145
1.0
146
1.0
273
1
  9

274
1
275
1
276
1
 42
1.0
 72
1
  3

 73
1
 74
1
 75
1
 94
63
  0
MATERIAL
  5
20
102
{ACAD_REACTORS
330
E
102
}
330
E
100
AcDbMaterial
  1
ByLayer
  2

 70
0
 40
1.0
 71
1
 41
1.0
 91
-1023410177
 42
1.0
 72
1
  3

 73
1
 74
1
 75
1
 44
0.5
 73
0
 45
1.0
 46
1.0
 77
1
  4

 78
1
 79
1
170
1
 48
1.0
171
1
  6

172
1
173
1
174
1
140
1.0
141
1.0
175
1
  7

176
1
177
1
178
1
143
1.0
179
1
  8

270
1
271
1
272
1
145
1.0
146
1.0
273
1
  9

274
1
275
1
276
1
 42
1.0
 72
1
  3

 73
1
 74
1
 75
1
 94
63
  0
MATERIAL
  5
21
102
{ACAD_REACTORS
330
E
102
}
330
E
100
AcDbMaterial
  1
Global
  2

 70
0
 40
1.0
 71
1
 41
1.0
 91
-1023410177
 42
1.0
 72
1
  3

 73
1
 74
1
 75
1
 44
0.5
 73
0
 45
1.0
 46
1.0
 77
1
  4

 78
1
 79
1
170
1
 48
1.0
171
1
  6

172
1
173
1
174
1
140
1.0
141
1.0
175
1
  7

176
1
177
1
178
1
143
1.0
179
1
  8

270
1
271
1
272
1
145
1.0
146
1.0
273
1
  9

274
1
275
1
276
1
 42
1.0
 72
1
  3

 73
1
 74
1
 75
1
 94
63
  0
MLINESTYLE
  5
22
102
{ACAD_REACTORS
330
10
102
}
330
10
100
AcDbMlineStyle
  2
Standard
 70
0
  3

 62
256
 51
90.0
 52
90.0
 71
2
 49
0.5
 62
256
  6
BYLAYER
 49
-0.5
 62
256
  6
BYLAYER
  0
MLEADERSTYLE
  5
2C
102
{ACAD_REACTORS
330
F
102
}
330
F
100
AcDbMLeaderStyle
179
2
170
2
171
1
172
0
 90
2
 40
0.0
 41
0.0
173
1
 91
-1056964608
 92
-2
290
1
 42
2.0
291
1
 43
8.0
  3
Standard
 44
4.0
300

342
29
174
1
175
1
176
0
178
1
 93
-1056964608
 45
4.0
292
0
297
0
 46
4.0
 94
-1056964608
 47
1.0
 49
1.0
140
1.0
294
1
141
0.0
177
0
142
1.0
295
0
296
0
143
3.75
271
0
272
9
273
9
  0
DICTIONARY
  5
2D
330
A
100
AcDbDictionary
281
1
  3
CREATED_BY_EZDXF
350
2E
  3
WRITTEN_BY_EZDXF
350
3B
  0
DICTIONARYVAR
  5
2E
330
2D
100
DictionaryVariables
280
0
  1
1.0.3 @ 2025-05-29T09:38:49.846417+00:00
  0
DICTIONARYVAR
  5
3B
330
2D
100
DictionaryVariables
280
0
  1
1.0.3 @ 2025-05-29T09:38:49.848755+00:00
  0
ENDSEC
  0
EOF
