  0
SECTION
  2
HEADER
  9
$ACADVER
  1
AC1027
  9
$ACADMAINTVER
 70
105
  9
$DWGCODEPAGE
  3
ANSI_1252
  9
$LASTSAVEDBY
  1
ezdxf
  9
$REQUIREDVERSIONS
160
0
  9
$INSBASE
 10
0.0
 20
0.0
 30
0.0
  9
$EXTMIN
 10
1e+20
 20
1e+20
 30
1e+20
  9
$EXTMAX
 10
-1e+20
 20
-1e+20
 30
-1e+20
  9
$LIMMIN
 10
0.0
 20
0.0
  9
$LIMMAX
 10
420.0
 20
297.0
  9
$ORTHOMODE
 70
0
  9
$REGENMODE
 70
1
  9
$FILLMODE
 70
1
  9
$QTEXTMODE
 70
0
  9
$MIRRTEXT
 70
1
  9
$LTSCALE
 40
1.0
  9
$ATTMODE
 70
1
  9
$TEXTSIZE
 40
2.5
  9
$TRACEWID
 40
1.0
  9
$TEXTSTYLE
  7
Standard
  9
$CLAYER
  8
0
  9
$CELTYPE
  6
ByLayer
  9
$CECOLOR
 62
256
  9
$CELTSCALE
 40
1.0
  9
$DISPSILH
 70
0
  9
$DIMSCALE
 40
1.0
  9
$DIMASZ
 40
2.5
  9
$DIMEXO
 40
0.625
  9
$DIMDLI
 40
3.75
  9
$DIMRND
 40
0.0
  9
$DIMDLE
 40
0.0
  9
$DIMEXE
 40
1.25
  9
$DIMTP
 40
0.0
  9
$DIMTM
 40
0.0
  9
$DIMTXT
 40
2.5
  9
$DIMCEN
 40
2.5
  9
$DIMTSZ
 40
0.0
  9
$DIMTOL
 70
0
  9
$DIMLIM
 70
0
  9
$DIMTIH
 70
0
  9
$DIMTOH
 70
0
  9
$DIMSE1
 70
0
  9
$DIMSE2
 70
0
  9
$DIMTAD
 70
1
  9
$DIMZIN
 70
8
  9
$DIMBLK
  1

  9
$DIMASO
 70
1
  9
$DIMSHO
 70
1
  9
$DIMPOST
  1

  9
$DIMAPOST
  1

  9
$DIMALT
 70
0
  9
$DIMALTD
 70
3
  9
$DIMALTF
 40
0.03937007874
  9
$DIMLFAC
 40
1.0
  9
$DIMTOFL
 70
1
  9
$DIMTVP
 40
0.0
  9
$DIMTIX
 70
0
  9
$DIMSOXD
 70
0
  9
$DIMSAH
 70
0
  9
$DIMBLK1
  1

  9
$DIMBLK2
  1

  9
$DIMSTYLE
  2
ISO-25
  9
$DIMCLRD
 70
0
  9
$DIMCLRE
 70
0
  9
$DIMCLRT
 70
0
  9
$DIMTFAC
 40
1.0
  9
$DIMGAP
 40
0.625
  9
$DIMJUST
 70
0
  9
$DIMSD1
 70
0
  9
$DIMSD2
 70
0
  9
$DIMTOLJ
 70
0
  9
$DIMTZIN
 70
8
  9
$DIMALTZ
 70
0
  9
$DIMALTTZ
 70
0
  9
$DIMUPT
 70
0
  9
$DIMDEC
 70
2
  9
$DIMTDEC
 70
2
  9
$DIMALTU
 70
2
  9
$DIMALTTD
 70
3
  9
$DIMTXSTY
  7
Standard
  9
$DIMAUNIT
 70
0
  9
$DIMADEC
 70
0
  9
$DIMALTRND
 40
0.0
  9
$DIMAZIN
 70
0
  9
$DIMDSEP
 70
44
  9
$DIMATFIT
 70
3
  9
$DIMFRAC
 70
0
  9
$DIMLDRBLK
  1

  9
$DIMLUNIT
 70
2
  9
$DIMLWD
 70
-2
  9
$DIMLWE
 70
-2
  9
$DIMTMOVE
 70
0
  9
$DIMFXL
 40
1.0
  9
$DIMFXLON
 70
0
  9
$DIMJOGANG
 40
0.785398163397
  9
$DIMTFILL
 70
0
  9
$DIMTFILLCLR
 70
0
  9
$DIMARCSYM
 70
0
  9
$DIMLTYPE
  6

  9
$DIMLTEX1
  6

  9
$DIMLTEX2
  6

  9
$DIMTXTDIRECTION
 70
0
  9
$LUNITS
 70
2
  9
$LUPREC
 70
4
  9
$SKETCHINC
 40
1.0
  9
$FILLETRAD
 40
10.0
  9
$AUNITS
 70
0
  9
$AUPREC
 70
2
  9
$MENU
  1
.
  9
$ELEVATION
 40
0.0
  9
$PELEVATION
 40
0.0
  9
$THICKNESS
 40
0.0
  9
$LIMCHECK
 70
0
  9
$CHAMFERA
 40
0.0
  9
$CHAMFERB
 40
0.0
  9
$CHAMFERC
 40
0.0
  9
$CHAMFERD
 40
0.0
  9
$SKPOLY
 70
0
  9
$TDCREATE
 40
2460825.776863426
  9
$TDUCREATE
 40
2458532.153996898
  9
$TDUPDATE
 40
2460825.776863426
  9
$TDUUPDATE
 40
2458532.1544311
  9
$TDINDWG
 40
0.0
  9
$TDUSRTIMER
 40
0.0
  9
$USRTIMER
 70
1
  9
$ANGBASE
 50
0.0
  9
$ANGDIR
 70
0
  9
$PDMODE
 70
0
  9
$PDSIZE
 40
0.0
  9
$PLINEWID
 40
0.0
  9
$SPLFRAME
 70
0
  9
$SPLINETYPE
 70
6
  9
$SPLINESEGS
 70
8
  9
$HANDSEED
  5
3B
  9
$SURFTAB1
 70
6
  9
$SURFTAB2
 70
6
  9
$SURFTYPE
 70
6
  9
$SURFU
 70
6
  9
$SURFV
 70
6
  9
$UCSBASE
  2

  9
$UCSNAME
  2

  9
$UCSORG
 10
0.0
 20
0.0
 30
0.0
  9
$UCSXDIR
 10
1.0
 20
0.0
 30
0.0
  9
$UCSYDIR
 10
0.0
 20
1.0
 30
0.0
  9
$UCSORTHOREF
  2

  9
$UCSORTHOVIEW
 70
0
  9
$UCSORGTOP
 10
0.0
 20
0.0
 30
0.0
  9
$UCSORGBOTTOM
 10
0.0
 20
0.0
 30
0.0
  9
$UCSORGLEFT
 10
0.0
 20
0.0
 30
0.0
  9
$UCSORGRIGHT
 10
0.0
 20
0.0
 30
0.0
  9
$UCSORGFRONT
 10
0.0
 20
0.0
 30
0.0
  9
$UCSORGBACK
 10
0.0
 20
0.0
 30
0.0
  9
$PUCSBASE
  2

  9
$PUCSNAME
  2

  9
$PUCSORG
 10
0.0
 20
0.0
 30
0.0
  9
$PUCSXDIR
 10
1.0
 20
0.0
 30
0.0
  9
$PUCSYDIR
 10
0.0
 20
1.0
 30
0.0
  9
$PUCSORTHOREF
  2

  9
$PUCSORTHOVIEW
 70
0
  9
$PUCSORGTOP
 10
0.0
 20
0.0
 30
0.0
  9
$PUCSORGBOTTOM
 10
0.0
 20
0.0
 30
0.0
  9
$PUCSORGLEFT
 10
0.0
 20
0.0
 30
0.0
  9
$PUCSORGRIGHT
 10
0.0
 20
0.0
 30
0.0
  9
$PUCSORGFRONT
 10
0.0
 20
0.0
 30
0.0
  9
$PUCSORGBACK
 10
0.0
 20
0.0
 30
0.0
  9
$USERI1
 70
0
  9
$USERI2
 70
0
  9
$USERI3
 70
0
  9
$USERI4
 70
0
  9
$USERI5
 70
0
  9
$USERR1
 40
0.0
  9
$USERR2
 40
0.0
  9
$USERR3
 40
0.0
  9
$USERR4
 40
0.0
  9
$USERR5
 40
0.0
  9
$WORLDVIEW
 70
1
  9
$SHADEDGE
 70
3
  9
$SHADEDIF
 70
70
  9
$TILEMODE
 70
1
  9
$MAXACTVP
 70
64
  9
$PINSBASE
 10
0.0
 20
0.0
 30
0.0
  9
$PLIMCHECK
 70
0
  9
$PEXTMIN
 10
1e+20
 20
1e+20
 30
1e+20
  9
$PEXTMAX
 10
-1e+20
 20
-1e+20
 30
-1e+20
  9
$PLIMMIN
 10
0.0
 20
0.0
  9
$PLIMMAX
 10
420.0
 20
297.0
  9
$UNITMODE
 70
0
  9
$VISRETAIN
 70
1
  9
$PLINEGEN
 70
0
  9
$PSLTSCALE
 70
1
  9
$TREEDEPTH
 70
3020
  9
$CMLSTYLE
  2
Standard
  9
$CMLJUST
 70
0
  9
$CMLSCALE
 40
20.0
  9
$PROXYGRAPHICS
 70
1
  9
$MEASUREMENT
 70
1
  9
$CELWEIGHT
370
-1
  9
$ENDCAPS
280
0
  9
$JOINSTYLE
280
0
  9
$LWDISPLAY
290
0
  9
$INSUNITS
 70
6
  9
$HYPERLINKBASE
  1

  9
$STYLESHEET
  1

  9
$XEDIT
290
1
  9
$CEPSNTYPE
380
0
  9
$PSTYLEMODE
290
1
  9
$FINGERPRINTGUID
  2
{99B9B190-EEA2-4A22-ADFE-1F9FCCF553A8}
  9
$VERSIONGUID
  2
{6A58C55B-9904-4F25-A884-B98613FC110B}
  9
$EXTNAMES
290
1
  9
$PSVPSCALE
 40
0.0
  9
$OLESTARTUP
290
0
  9
$SORTENTS
280
127
  9
$INDEXCTL
280
0
  9
$HIDETEXT
280
1
  9
$XCLIPFRAME
280
0
  9
$HALOGAP
280
0
  9
$OBSCOLOR
 70
257
  9
$OBSLTYPE
280
0
  9
$INTERSECTIONDISPLAY
280
0
  9
$INTERSECTIONCOLOR
 70
257
  9
$DIMASSOC
280
2
  9
$PROJECTNAME
  1

  9
$CAMERADISPLAY
290
0
  9
$LENSLENGTH
 40
50.0
  9
$CAMERAHEIGHT
 40
0.0
  9
$STEPSPERSEC
 40
24.0
  9
$STEPSIZE
 40
100.0
  9
$3DDWFPREC
 40
2.0
  9
$PSOLWIDTH
 40
0.005
  9
$PSOLHEIGHT
 40
0.08
  9
$LOFTANG1
 40
1.570796326795
  9
$LOFTANG2
 40
1.570796326795
  9
$LOFTMAG1
 40
0.0
  9
$LOFTMAG2
 40
0.0
  9
$LOFTPARAM
 70
7
  9
$LOFTNORMALS
280
1
  9
$LATITUDE
 40
37.795
  9
$LONGITUDE
 40
-122.394
  9
$NORTHDIRECTION
 40
0.0
  9
$TIMEZONE
 70
-8000
  9
$LIGHTGLYPHDISPLAY
280
1
  9
$TILEMODELIGHTSYNCH
280
1
  9
$CMATERIAL
347
20
  9
$SOLIDHIST
280
0
  9
$SHOWHIST
280
1
  9
$DWFFRAME
280
2
  9
$DGNFRAME
280
2
  9
$REALWORLDSCALE
290
1
  9
$INTERFERECOLOR
 62
256
  9
$CSHADOW
280
0
  9
$SHADOWPLANELOCATION
 40
0.0
  0
ENDSEC
  0
SECTION
  2
CLASSES
  0
CLASS
  1
ACDBDICTIONARYWDFLT
  2
AcDbDictionaryWithDefault
  3
ObjectDBX Classes
 90
0
 91
0
280
0
281
0
  0
CLASS
  1
SUN
  2
AcDbSun
  3
SCENEOE
 90
1153
 91
0
280
0
281
0
  0
CLASS
  1
VISUALSTYLE
  2
AcDbVisualStyle
  3
ObjectDBX Classes
 90
4095
 91
0
280
0
281
0
  0
CLASS
  1
MATERIAL
  2
AcDbMaterial
  3
ObjectDBX Classes
 90
1153
 91
0
280
0
281
0
  0
CLASS
  1
SCALE
  2
AcDbScale
  3
ObjectDBX Classes
 90
1153
 91
0
280
0
281
0
  0
CLASS
  1
TABLESTYLE
  2
AcDbTableStyle
  3
ObjectDBX Classes
 90
4095
 91
0
280
0
281
0
  0
CLASS
  1
MLEADERSTYLE
  2
AcDbMLeaderStyle
  3
ACDB_MLEADERSTYLE_CLASS
 90
4095
 91
0
280
0
281
0
  0
CLASS
  1
DICTIONARYVAR
  2
AcDbDictionaryVar
  3
ObjectDBX Classes
 90
0
 91
0
280
0
281
0
  0
CLASS
  1
CELLSTYLEMAP
  2
AcDbCellStyleMap
  3
ObjectDBX Classes
 90
1152
 91
0
280
0
281
0
  0
CLASS
  1
MENTALRAYRENDERSETTINGS
  2
AcDbMentalRayRenderSettings
  3
SCENEOE
 90
1024
 91
0
280
0
281
0
  0
CLASS
  1
ACDBDETAILVIEWSTYLE
  2
AcDbDetailViewStyle
  3
ObjectDBX Classes
 90
1025
 91
0
280
0
281
0
  0
CLASS
  1
ACDBSECTIONVIEWSTYLE
  2
AcDbSectionViewStyle
  3
ObjectDBX Classes
 90
1025
 91
0
280
0
281
0
  0
CLASS
  1
RASTERVARIABLES
  2
AcDbRasterVariables
  3
ISM
 90
0
 91
0
280
0
281
0
  0
CLASS
  1
LAYOUT
  2
AcDbLayout
  3
ObjectDBX Classes
 90
0
 91
0
280
0
281
0
  0
CLASS
  1
ACDBPLACEHOLDER
  2
AcDbPlaceHolder
  3
ObjectDBX Classes
 90
0
 91
0
280
0
281
0
  0
ENDSEC
  0
SECTION
  2
TABLES
  0
TABLE
  2
VPORT
  5
8
330
0
100
AcDbSymbolTable
 70
1
  0
VPORT
  5
23
330
8
100
AcDbSymbolTableRecord
100
AcDbViewportTableRecord
  2
*Active
 70
0
 10
0.0
 20
0.0
 11
1.0
 21
1.0
 12
0.0
 22
0.0
 13
0.0
 23
0.0
 14
0.5
 24
0.5
 15
0.5
 25
0.5
 16
0.0
 26
0.0
 36
1.0
 17
0.0
 27
0.0
 37
0.0
 40
1000.0
 41
1.34
 42
50.0
 43
0.0
 44
0.0
 50
0.0
 51
0.0
 71
0
 72
1000
 73
1
 74
3
 75
0
 76
0
 77
0
 78
0
281
0
 65
0
146
0.0
  0
ENDTAB
  0
TABLE
  2
LTYPE
  5
2
330
0
100
AcDbSymbolTable
 70
3
  0
LTYPE
  5
24
330
2
100
AcDbSymbolTableRecord
100
AcDbLinetypeTableRecord
  2
ByBlock
 70
0
  3

 72
65
 73
0
 40
0.0
  0
LTYPE
  5
25
330
2
100
AcDbSymbolTableRecord
100
AcDbLinetypeTableRecord
  2
ByLayer
 70
0
  3

 72
65
 73
0
 40
0.0
  0
LTYPE
  5
26
330
2
100
AcDbSymbolTableRecord
100
AcDbLinetypeTableRecord
  2
Continuous
 70
0
  3

 72
65
 73
0
 40
0.0
  0
ENDTAB
  0
TABLE
  2
LAYER
  5
1
330
0
100
AcDbSymbolTable
 70
2
  0
LAYER
  5
27
330
1
100
AcDbSymbolTableRecord
100
AcDbLayerTableRecord
  2
0
 70
0
 62
7
  6
Continuous
370
-3
390
13
347
21
  0
LAYER
  5
28
330
1
100
AcDbSymbolTableRecord
100
AcDbLayerTableRecord
  2
Defpoints
 70
0
 62
7
  6
Continuous
290
0
370
-3
390
13
347
21
  0
ENDTAB
  0
TABLE
  2
STYLE
  5
5
330
0
100
AcDbSymbolTable
 70
1
  0
STYLE
  5
29
330
5
100
AcDbSymbolTableRecord
100
AcDbTextStyleTableRecord
  2
Standard
 70
0
 40
0.0
 41
1.0
 50
0.0
 71
0
 42
2.5
  3
txt
  4

  0
ENDTAB
  0
TABLE
  2
VIEW
  5
7
330
0
100
AcDbSymbolTable
 70
0
  0
ENDTAB
  0
TABLE
  2
UCS
  5
6
330
0
100
AcDbSymbolTable
 70
0
  0
ENDTAB
  0
TABLE
  2
APPID
  5
3
330
0
100
AcDbSymbolTable
 70
3
  0
APPID
  5
2A
330
3
100
AcDbSymbolTableRecord
100
AcDbRegAppTableRecord
  2
ACAD
 70
0
  0
APPID
  5
38
330
3
100
AcDbSymbolTableRecord
100
AcDbRegAppTableRecord
  2
HATCHBACKGROUNDCOLOR
 70
0
  0
APPID
  5
39
330
3
100
AcDbSymbolTableRecord
100
AcDbRegAppTableRecord
  2
EZDXF
 70
0
  0
ENDTAB
  0
TABLE
  2
DIMSTYLE
  5
4
330
0
100
AcDbSymbolTable
 70
1
100
AcDbDimStyleTable
  0
DIMSTYLE
105
2B
330
4
100
AcDbSymbolTableRecord
100
AcDbDimStyleTableRecord
  2
Standard
 70
0
 40
1.0
 41
2.5
 42
0.625
 43
3.75
 44
1.25
 45
0.0
 46
0.0
 47
0.0
 48
0.0
 49
2.5
140
2.5
141
2.5
142
0.0
143
0.03937007874
144
1.0
145
0.0
146
1.0
147
0.625
148
0.0
 69
0
 70
0
 71
0
 72
0
 73
0
 74
0
 75
0
 76
0
 77
1
 78
8
 79
3
170
0
171
3
172
1
173
0
174
0
175
0
176
0
177
0
178
0
179
2
271
2
272
2
273
2
274
3
275
0
276
0
277
2
278
44
279
0
280
0
281
0
282
0
283
0
284
8
285
0
286
0
288
0
289
3
290
0
371
-2
372
-2
  0
ENDTAB
  0
TABLE
  2
BLOCK_RECORD
  5
9
330
0
100
AcDbSymbolTable
 70
2
  0
BLOCK_RECORD
  5
17
330
9
100
AcDbSymbolTableRecord
100
AcDbBlockTableRecord
  2
*Model_Space
340
1A
 70
0
280
1
281
0
  0
BLOCK_RECORD
  5
1B
330
9
100
AcDbSymbolTableRecord
100
AcDbBlockTableRecord
  2
*Paper_Space
340
1E
 70
0
280
1
281
0
  0
ENDTAB
  0
ENDSEC
  0
SECTION
  2
BLOCKS
  0
BLOCK
  5
18
330
17
100
AcDbEntity
  8
0
100
AcDbBlockBegin
  2
*Model_Space
 70
0
 10
0.0
 20
0.0
 30
0.0
  3
*Model_Space
  1

  0
ENDBLK
  5
19
330
17
100
AcDbEntity
  8
0
100
AcDbBlockEnd
  0
BLOCK
  5
1C
330
1B
100
AcDbEntity
  8
0
100
AcDbBlockBegin
  2
*Paper_Space
 70
0
 10
0.0
 20
0.0
 30
0.0
  3
*Paper_Space
  1

  0
ENDBLK
  5
1D
330
1B
100
AcDbEntity
  8
0
100
AcDbBlockEnd
  0
ENDSEC
  0
SECTION
  2
ENTITIES
  0
LWPOLYLINE
  5
2F
330
17
100
AcDbEntity
  8
0
100
AcDbPolyline
 90
51
 70
0
 10
7.600000000000001
 20
12.0
 10
7.600000000000001
 20
11.86
 10
7.600000000000001
 20
11.719999999999999
 10
7.600000000000001
 20
11.58
 10
7.600000000000001
 20
11.44
 10
7.600000000000001
 20
11.3
 10
7.600000000000001
 20
11.16
 10
7.600000000000001
 20
11.02
 10
7.600000000000001
 20
10.879999999999999
 10
7.600000000000001
 20
10.74
 10
7.600000000000001
 20
10.6
 10
7.600000000000001
 20
10.46
 10
7.6000000000000005
 20
10.32
 10
7.6000000000000005
 20
10.18
 10
7.6000000000000005
 20
10.04
 10
7.6000000000000005
 20
9.9
 10
7.6000000000000005
 20
9.76
 10
7.6000000000000005
 20
9.620000000000001
 10
7.6000000000000005
 20
9.48
 10
7.6000000000000005
 20
9.34
 10
7.6000000000000005
 20
9.2
 10
7.6000000000000005
 20
9.06
 10
7.6000000000000005
 20
8.92
 10
7.6000000000000005
 20
8.78
 10
7.6000000000000005
 20
8.64
 10
7.6000000000000005
 20
8.5
 10
7.6000000000000005
 20
8.36
 10
7.6000000000000005
 20
8.22
 10
7.6000000000000005
 20
8.08
 10
7.6000000000000005
 20
7.94
 10
7.6000000000000005
 20
7.8
 10
7.6000000000000005
 20
7.66
 10
7.6000000000000005
 20
7.52
 10
7.6000000000000005
 20
7.38
 10
7.6000000000000005
 20
7.24
 10
7.6000000000000005
 20
7.1
 10
7.6000000000000005
 20
6.96
 10
7.6000000000000005
 20
6.82
 10
7.6
 20
6.68
 10
7.6
 20
6.54
 10
7.6
 20
6.4
 10
7.6
 20
6.26
 10
7.6
 20
6.12
 10
7.6
 20
5.98
 10
7.6
 20
5.84
 10
7.6
 20
5.7
 10
7.6
 20
5.56
 10
7.6
 20
5.42
 10
7.6
 20
5.28
 10
7.6
 20
5.14
 10
7.6
 20
5.0
  0
LWPOLYLINE
  5
30
330
17
100
AcDbEntity
  8
0
100
AcDbPolyline
 90
51
 70
0
 10
-6.4
 20
4.54747350886464e-16
 10
-5.644
 20
4.0103032006300043e-16
 10
-4.888000000000001
 20
3.473132892395369e-16
 10
-4.132000000000001
 20
2.935962584160733e-16
 10
-3.376000000000001
 20
2.398792275926098e-16
 10
-2.6200000000000006
 20
1.8616219676914623e-16
 10
-1.8640000000000008
 20
1.3244516594568268e-16
 10
-1.1080000000000014
 20
7.872813512221917e-17
 10
-0.3520000000000012
 20
2.5011104298755604e-17
 10
0.403999999999999
 20
-2.870592652470797e-17
 10
1.1599999999999993
 20
-8.242295734817154e-17
 10
1.9159999999999986
 20
-1.3613998817163505e-16
 10
2.671999999999999
 20
-1.8985701899509863e-16
 10
3.427999999999999
 20
-2.435740498185622e-16
 10
4.1839999999999975
 20
-2.9729108064202564e-16
 10
4.9399999999999995
 20
-3.5100811146548934e-16
 10
5.695999999999998
 20
-4.047251422889528e-16
 10
6.451999999999998
 20
-4.584421731124164e-16
 10
7.207999999999998
 20
-5.1215920393588e-16
 10
7.963999999999999
 20
-5.658762347593435e-16
 10
8.719999999999999
 20
-6.195932655828071e-16
 10
9.475999999999999
 20
-6.733102964062706e-16
 10
10.231999999999998
 20
-7.270273272297341e-16
 10
10.987999999999998
 20
-7.807443580531976e-16
 10
11.743999999999998
 20
-8.344613888766613e-16
 10
12.499999999999998
 20
-8.881784197001248e-16
 10
13.255999999999998
 20
-9.418954505235883e-16
 10
14.011999999999999
 20
-9.95612481347052e-16
 10
14.767999999999995
 20
-1.0493295121705152e-15
 10
15.523999999999996
 20
-1.1030465429939789e-15
 10
16.28
 20
-1.1567635738174427e-15
 10
17.036
 20
-1.2104806046409064e-15
 10
17.791999999999994
 20
-1.2641976354643694e-15
 10
18.547999999999995
 20
-1.317914666287833e-15
 10
19.303999999999995
 20
-1.3716316971112965e-15
 10
20.060000000000002
 20
-1.4253487279347606e-15
 10
20.815999999999995
 20
-1.4790657587582236e-15
 10
21.571999999999996
 20
-1.5327827895816873e-15
 10
22.327999999999996
 20
-1.586499820405151e-15
 10
23.083999999999996
 20
-1.6402168512286144e-15
 10
23.839999999999996
 20
-1.693933882052078e-15
 10
24.595999999999997
 20
-1.7476509128755415e-15
 10
25.351999999999997
 20
-1.8013679436990054e-15
 10
26.107999999999997
 20
-1.8550849745224686e-15
 10
26.863999999999997
 20
-1.9088020053459323e-15
 10
27.619999999999997
 20
-1.962519036169396e-15
 10
28.375999999999998
 20
-2.0162360669928596e-15
 10
29.131999999999998
 20
-2.069953097816323e-15
 10
29.887999999999998
 20
-2.1236701286397865e-15
 10
30.644
 20
-2.17738715946325e-15
 10
31.4
 20
-2.231104190286714e-15
  0
LWPOLYLINE
  5
31
330
17
100
AcDbEntity
  8
0
100
AcDbPolyline
 90
51
 70
0
 10
31.4
 20
-2.23110419028671e-15
 10
31.4
 20
0.09999999999999781
 10
31.4
 20
0.19999999999999787
 10
31.4
 20
0.29999999999999793
 10
31.4
 20
0.39999999999999797
 10
31.4
 20
0.4999999999999981
 10
31.4
 20
0.5999999999999981
 10
31.4
 20
0.6999999999999982
 10
31.4
 20
0.7999999999999982
 10
31.4
 20
0.8999999999999982
 10
31.4
 20
0.9999999999999984
 10
31.4
 20
1.0999999999999983
 10
31.4
 20
1.1999999999999984
 10
31.4
 20
1.2999999999999983
 10
31.4
 20
1.3999999999999986
 10
31.4
 20
1.4999999999999987
 10
31.4
 20
1.5999999999999985
 10
31.4
 20
1.6999999999999986
 10
31.4
 20
1.7999999999999987
 10
31.4
 20
1.899999999999999
 10
31.4
 20
1.9999999999999991
 10
31.4
 20
2.0999999999999988
 10
31.4
 20
2.199999999999999
 10
31.4
 20
2.299999999999999
 10
31.4
 20
2.399999999999999
 10
31.4
 20
2.499999999999999
 10
31.4
 20
2.5999999999999988
 10
31.4
 20
2.6999999999999993
 10
31.4
 20
2.7999999999999994
 10
31.4
 20
2.8999999999999995
 10
31.4
 20
2.9999999999999996
 10
31.4
 20
3.0999999999999996
 10
31.4
 20
3.1999999999999993
 10
31.4
 20
3.2999999999999994
 10
31.4
 20
3.3999999999999995
 10
31.4
 20
3.4999999999999996
 10
31.4
 20
3.5999999999999996
 10
31.4
 20
3.6999999999999993
 10
31.4
 20
3.8000000000000003
 10
31.4
 20
3.9
 10
31.4
 20
4.0
 10
31.4
 20
4.1
 10
31.4
 20
4.199999999999999
 10
31.4
 20
4.3
 10
31.4
 20
4.3999999999999995
 10
31.4
 20
4.5
 10
31.4
 20
4.6
 10
31.4
 20
4.699999999999999
 10
31.4
 20
4.8
 10
31.4
 20
4.9
 10
31.4
 20
5.0
  0
LWPOLYLINE
  5
32
330
17
100
AcDbEntity
  8
0
100
AcDbPolyline
 90
51
 70
0
 10
7.600000000000001
 20
5.0
 10
7.8480000000000025
 20
5.0
 10
8.096
 20
5.0
 10
8.344000000000001
 20
5.0
 10
8.592000000000002
 20
5.0
 10
8.84
 20
5.0
 10
9.088000000000001
 20
5.0
 10
9.336000000000002
 20
5.0
 10
9.584000000000001
 20
5.0
 10
9.832
 20
5.0
 10
10.080000000000002
 20
5.0
 10
10.328000000000001
 20
5.0
 10
10.576
 20
5.0
 10
10.824000000000002
 20
5.0
 10
11.072000000000001
 20
5.0
 10
11.32
 20
5.0
 10
11.568000000000001
 20
5.0
 10
11.816
 20
5.0
 10
12.064
 20
5.0
 10
12.312000000000001
 20
5.0
 10
12.56
 20
5.0
 10
12.808
 20
5.0
 10
13.056000000000001
 20
5.0
 10
13.304000000000002
 20
5.0
 10
13.552
 20
5.0
 10
13.8
 20
5.0
 10
14.048000000000002
 20
5.0
 10
14.296
 20
5.0
 10
14.544
 20
5.0
 10
14.792000000000002
 20
5.0
 10
15.04
 20
5.0
 10
15.288
 20
5.0
 10
15.536000000000001
 20
5.0
 10
15.784
 20
5.0
 10
16.032
 20
5.0
 10
16.28
 20
5.0
 10
16.528
 20
5.0
 10
16.776
 20
5.0
 10
17.024
 20
5.0
 10
17.272
 20
5.0
 10
17.52
 20
5.0
 10
17.768
 20
5.0
 10
18.016
 20
5.0
 10
18.264
 20
5.0
 10
18.512
 20
5.0
 10
18.759999999999998
 20
5.0
 10
19.008000000000003
 20
5.0
 10
19.256
 20
5.0
 10
19.503999999999998
 20
5.0
 10
19.752
 20
5.0
 10
20.0
 20
5.0
  0
LWPOLYLINE
  5
33
330
17
100
AcDbEntity
  8
0
100
AcDbPolyline
 90
51
 70
0
 10
31.4
 20
5.0
 10
30.924
 20
5.0
 10
30.448
 20
5.0
 10
29.971999999999998
 20
5.0
 10
29.496
 20
5.0
 10
29.02
 20
5.0
 10
28.543999999999997
 20
5.0
 10
28.067999999999998
 20
5.0
 10
27.592
 20
5.0
 10
27.116
 20
5.0
 10
26.64
 20
5.0
 10
26.164
 20
5.0
 10
25.688
 20
5.0
 10
25.212
 20
5.0
 10
24.736
 20
5.0
 10
24.259999999999998
 20
5.0
 10
23.784
 20
5.0
 10
23.308
 20
5.0
 10
22.832
 20
5.0
 10
22.356
 20
5.0
 10
21.88
 20
5.0
 10
21.404
 20
5.0
 10
20.928
 20
5.0
 10
20.451999999999998
 20
5.0
 10
19.976
 20
5.0
 10
19.5
 20
5.0
 10
19.024
 20
5.0
 10
18.548000000000002
 20
5.0
 10
18.072000000000003
 20
5.0
 10
17.596
 20
5.0
 10
17.12
 20
5.0
 10
16.644
 20
5.0
 10
16.168
 20
5.0
 10
15.692000000000002
 20
5.0
 10
15.216000000000001
 20
5.0
 10
14.740000000000002
 20
5.0
 10
14.264
 20
5.0
 10
13.788
 20
5.0
 10
13.312000000000001
 20
5.0
 10
12.835999999999999
 20
5.0
 10
12.36
 20
5.0
 10
11.884
 20
5.0
 10
11.408000000000001
 20
5.0
 10
10.932000000000002
 20
5.0
 10
10.456000000000003
 20
5.0
 10
9.980000000000004
 20
5.0
 10
9.503999999999998
 20
5.0
 10
9.027999999999999
 20
5.0
 10
8.552
 20
5.0
 10
8.076
 20
5.0
 10
7.600000000000001
 20
5.0
  0
LWPOLYLINE
  5
34
330
17
100
AcDbEntity
  8
0
100
AcDbPolyline
 90
51
 70
0
 10
7.6
 20
5.0
 10
7.6
 20
5.14
 10
7.6
 20
5.28
 10
7.6
 20
5.42
 10
7.6
 20
5.5600000000000005
 10
7.6
 20
5.7
 10
7.6
 20
5.84
 10
7.6
 20
5.98
 10
7.6
 20
6.12
 10
7.6
 20
6.26
 10
7.6
 20
6.4
 10
7.6
 20
6.54
 10
7.6
 20
6.68
 10
7.6000000000000005
 20
6.82
 10
7.6000000000000005
 20
6.96
 10
7.6000000000000005
 20
7.1
 10
7.6000000000000005
 20
7.24
 10
7.6000000000000005
 20
7.38
 10
7.6000000000000005
 20
7.52
 10
7.6000000000000005
 20
7.66
 10
7.6000000000000005
 20
7.8
 10
7.6000000000000005
 20
7.9399999999999995
 10
7.6000000000000005
 20
8.08
 10
7.6000000000000005
 20
8.22
 10
7.6000000000000005
 20
8.36
 10
7.6000000000000005
 20
8.5
 10
7.6000000000000005
 20
8.64
 10
7.6000000000000005
 20
8.78
 10
7.6000000000000005
 20
8.92
 10
7.6000000000000005
 20
9.059999999999999
 10
7.6000000000000005
 20
9.2
 10
7.6000000000000005
 20
9.34
 10
7.6000000000000005
 20
9.48
 10
7.6000000000000005
 20
9.620000000000001
 10
7.6000000000000005
 20
9.76
 10
7.6000000000000005
 20
9.9
 10
7.6000000000000005
 20
10.04
 10
7.6000000000000005
 20
10.18
 10
7.6000000000000005
 20
10.32
 10
7.600000000000001
 20
10.46
 10
7.600000000000001
 20
10.6
 10
7.600000000000001
 20
10.74
 10
7.600000000000001
 20
10.879999999999999
 10
7.600000000000001
 20
11.02
 10
7.600000000000001
 20
11.16
 10
7.600000000000001
 20
11.3
 10
7.600000000000001
 20
11.440000000000001
 10
7.600000000000001
 20
11.58
 10
7.600000000000001
 20
11.719999999999999
 10
7.600000000000001
 20
11.86
 10
7.600000000000001
 20
12.0
  0
LWPOLYLINE
  5
35
330
17
100
AcDbEntity
  8
0
100
AcDbPolyline
 90
51
 70
0
 10
7.599999999999999
 20
11.999999999999998
 10
7.5861870989978994
 20
12.439533636705189
 10
7.544802909201344
 20
12.877332634950129
 10
7.47601075510082
 20
13.31166920210007
 10
7.380082127900416
 20
13.740829210153985
 10
7.257395614066074
 20
14.16311896062463
 10
7.1084354012177595
 20
14.576871868792741
 10
6.933789367262135
 20
14.980455040955508
 10
6.734146760307046
 20
15.372275718712004
 10
6.510295478514103
 20
15.750787564852978
 10
6.263118960624632
 20
16.11449676604731
 10
5.9935926994305255
 20
16.461967928240824
 10
5.702780391949879
 20
16.79182974150082
 10
5.391829741500821
 20
17.102780391949878
 10
5.0619679282408265
 20
17.393592699430528
 10
4.714496766047312
 20
17.66311896062463
 10
4.350787564852979
 20
17.910295478514104
 10
3.972275718712007
 20
18.134146760307047
 10
3.5804550409555107
 20
18.333789367262135
 10
3.1768718687927446
 20
18.50843540121776
 10
2.7631189606246336
 20
18.657395614066075
 10
2.340829210153987
 20
18.780082127900418
 10
1.9116692021000723
 20
18.876010755100822
 10
1.477332634950132
 20
18.944802909201343
 10
1.0395336367051922
 20
18.986187098997902
 10
0.6000000000000011
 20
19.0
 10
0.16046636329481
 20
18.986187098997902
 10
-0.27733263495012983
 20
18.944802909201346
 10
-0.7116692021000701
 20
18.876010755100822
 10
-1.1408292101539848
 20
18.780082127900418
 10
-1.563118960624631
 20
18.657395614066075
 10
-1.976871868792742
 20
18.50843540121776
 10
-2.3804550409555087
 20
18.333789367262135
 10
-2.7722757187120104
 20
18.134146760307043
 10
-3.150787564852977
 20
17.910295478514104
 10
-3.514496766047311
 20
17.663118960624633
 10
-3.8619679282408255
 20
17.393592699430528
 10
-4.191829741500822
 20
17.10278039194988
 10
-4.50278039194988
 20
16.791829741500823
 10
-4.793592699430526
 20
16.461967928240828
 10
-5.063118960624632
 20
16.114496766047314
 10
-5.310295478514105
 20
15.750787564852981
 10
-5.534146760307046
 20
15.372275718712007
 10
-5.733789367262137
 20
14.980455040955512
 10
-5.908435401217761
 20
14.576871868792747
 10
-6.057395614066076
 20
14.163118960624635
 10
-6.180082127900418
 20
13.740829210153988
 10
-6.276010755100821
 20
13.311669202100074
 10
-6.344802909201346
 20
12.877332634950134
 10
-6.386187098997902
 20
12.439533636705194
 10
-6.400000000000001
 20
12.000000000000002
  0
LWPOLYLINE
  5
36
330
17
100
AcDbEntity
  8
0
100
AcDbPolyline
 90
51
 70
0
 10
-6.4
 20
12.0
 10
-6.4
 20
11.76
 10
-6.4
 20
11.52
 10
-6.4
 20
11.28
 10
-6.4
 20
11.04
 10
-6.4
 20
10.8
 10
-6.4
 20
10.56
 10
-6.4
 20
10.32
 10
-6.4
 20
10.08
 10
-6.4
 20
9.84
 10
-6.4
 20
9.6
 10
-6.4
 20
9.36
 10
-6.4
 20
9.120000000000001
 10
-6.4
 20
8.879999999999999
 10
-6.4
 20
8.64
 10
-6.4
 20
8.4
 10
-6.4
 20
8.16
 10
-6.4
 20
7.92
 10
-6.4
 20
7.68
 10
-6.4
 20
7.44
 10
-6.4
 20
7.2
 10
-6.4
 20
6.96
 10
-6.4
 20
6.72
 10
-6.4
 20
6.48
 10
-6.4
 20
6.24
 10
-6.400000000000001
 20
6.0
 10
-6.400000000000001
 20
5.76
 10
-6.400000000000001
 20
5.52
 10
-6.400000000000001
 20
5.28
 10
-6.400000000000001
 20
5.04
 10
-6.400000000000001
 20
4.8
 10
-6.400000000000001
 20
4.56
 10
-6.400000000000001
 20
4.32
 10
-6.400000000000001
 20
4.08
 10
-6.400000000000001
 20
3.84
 10
-6.400000000000001
 20
3.5999999999999996
 10
-6.400000000000001
 20
3.3599999999999994
 10
-6.400000000000001
 20
3.119999999999999
 10
-6.400000000000001
 20
2.880000000000001
 10
-6.400000000000001
 20
2.6400000000000006
 10
-6.400000000000001
 20
2.4000000000000004
 10
-6.400000000000001
 20
2.16
 10
-6.400000000000001
 20
1.92
 10
-6.400000000000001
 20
1.6799999999999997
 10
-6.400000000000001
 20
1.4399999999999995
 10
-6.400000000000001
 20
1.1999999999999993
 10
-6.400000000000001
 20
0.9600000000000009
 10
-6.400000000000001
 20
0.7200000000000006
 10
-6.400000000000001
 20
0.4800000000000004
 10
-6.400000000000001
 20
0.2400000000000002
 10
-6.400000000000001
 20
0.0
  0
LWPOLYLINE
  5
37
330
17
100
AcDbEntity
  8
0
100
AcDbPolyline
 90
51
 70
0
 10
0.5999999999999992
 20
16.0
 10
0.09866706574278217
 20
15.968458805257912
 10
-0.39475954865942
 20
15.874332644514524
 10
-0.8724982107387125
 20
15.719105943553005
 10
-1.327014696406862
 20
15.505226720175454
 10
-1.7511410091698936
 20
15.23606797749979
 10
-2.1381884237147553
 20
14.915874509685647
 10
-2.4820529711031583
 20
14.549695958994759
 10
-2.7773117020080615
 20
14.143307179915986
 10
-3.0193082098640796
 20
13.703117166260292
 10
-3.204226065180615
 20
13.23606797749979
 10
-3.3291490029147557
 20
12.7495252583429
 10
-3.3921069137130875
 20
12.251162078117254
 10
-3.3921069137130875
 20
11.748837921882746
 10
-3.3291490029147557
 20
11.250474741657102
 10
-3.204226065180616
 20
10.763932022500212
 10
-3.0193082098640787
 20
10.296882833739708
 10
-2.7773117020080607
 20
9.856692820084012
 10
-2.4820529711031583
 20
9.450304041005241
 10
-2.138188423714756
 20
9.084125490314355
 10
-1.751141009169894
 20
8.76393202250021
 10
-1.327014696406862
 20
8.494773279824546
 10
-0.8724982107387138
 20
8.280894056446995
 10
-0.3947595486594222
 20
8.125667355485476
 10
0.09866706574278061
 20
8.03154119474209
 10
0.5999999999999983
 20
8.0
 10
1.1013329342572158
 20
8.031541194742088
 10
1.594759548659417
 20
8.125667355485476
 10
2.0724982107387104
 20
8.280894056446995
 10
2.5270146964068605
 20
8.494773279824546
 10
2.9511410091698895
 20
8.763932022500208
 10
3.3381884237147528
 20
9.084125490314353
 10
3.6820529711031567
 20
9.450304041005243
 10
3.97731170200806
 20
9.856692820084014
 10
4.219308209864078
 20
10.296882833739712
 10
4.404226065180613
 20
10.76393202250021
 10
4.529149002914754
 20
11.2504747416571
 10
4.592106913713085
 20
11.748837921882746
 10
4.592106913713085
 20
12.25116207811725
 10
4.529149002914754
 20
12.749525258342898
 10
4.404226065180613
 20
13.236067977499788
 10
4.219308209864079
 20
13.703117166260288
 10
3.977311702008059
 20
14.143307179915986
 10
3.6820529711031575
 20
14.549695958994757
 10
3.3381884237147545
 20
14.915874509685645
 10
2.951141009169892
 20
15.23606797749979
 10
2.5270146964068636
 20
15.505226720175452
 10
2.0724982107387104
 20
15.719105943553005
 10
1.5947595486594206
 20
15.874332644514524
 10
1.1013329342572178
 20
15.96845880525791
 10
0.6000000000000002
 20
16.0
  0
ENDSEC
  0
SECTION
  2
OBJECTS
  0
DICTIONARY
  5
A
330
0
100
AcDbDictionary
280
0
281
1
  3
ACAD_COLOR
350
B
  3
ACAD_GROUP
350
C
  3
ACAD_LAYOUT
350
D
  3
ACAD_MATERIAL
350
E
  3
ACAD_MLEADERSTYLE
350
F
  3
ACAD_MLINESTYLE
350
10
  3
ACAD_PLOTSETTINGS
350
11
  3
ACAD_PLOTSTYLENAME
350
12
  3
ACAD_SCALELIST
350
14
  3
ACAD_TABLESTYLE
350
15
  3
ACAD_VISUALSTYLE
350
16
  3
EZDXF_META
350
2D
  0
DICTIONARY
  5
B
330
A
100
AcDbDictionary
280
0
281
1
  0
DICTIONARY
  5
C
330
A
100
AcDbDictionary
280
0
281
1
  0
DICTIONARY
  5
D
330
A
100
AcDbDictionary
280
0
281
1
  3
Model
350
1A
  3
Layout1
350
1E
  0
DICTIONARY
  5
E
330
A
100
AcDbDictionary
280
0
281
1
  3
ByBlock
350
1F
  3
ByLayer
350
20
  3
Global
350
21
  0
DICTIONARY
  5
F
330
A
100
AcDbDictionary
280
0
281
1
  3
Standard
350
2C
  0
DICTIONARY
  5
10
330
A
100
AcDbDictionary
280
0
281
1
  3
Standard
350
22
  0
DICTIONARY
  5
11
330
A
100
AcDbDictionary
280
0
281
1
  0
ACDBDICTIONARYWDFLT
  5
12
330
A
100
AcDbDictionary
280
0
281
1
  3
Normal
350
13
100
AcDbDictionaryWithDefault
340
13
  0
ACDBPLACEHOLDER
  5
13
330
12
  0
DICTIONARY
  5
14
330
A
100
AcDbDictionary
280
0
281
1
  0
DICTIONARY
  5
15
330
A
100
AcDbDictionary
280
0
281
1
  0
DICTIONARY
  5
16
330
A
100
AcDbDictionary
280
0
281
1
  0
LAYOUT
  5
1A
330
D
100
AcDbPlotSettings
  1

  2
Adobe PDF
  4
A3
  6

 40
7.5
 41
20.0
 42
7.5
 43
20.0
 44
420.0
 45
297.0
 46
0.0
 47
0.0
 48
0.0
 49
0.0
140
0.0
141
0.0
142
1.0
143
1.0
 70
1024
 72
1
 73
0
 74
5
  7

 75
16
 76
0
 77
2
 78
300
147
1.0
148
0.0
149
0.0
100
AcDbLayout
  1
Model
 70
1
 71
0
 10
0.0
 20
0.0
 11
420.0
 21
297.0
 12
0.0
 22
0.0
 32
0.0
 14
1e+20
 24
1e+20
 34
1e+20
 15
-1e+20
 25
-1e+20
 35
-1e+20
146
0.0
 13
0.0
 23
0.0
 33
0.0
 16
1.0
 26
0.0
 36
0.0
 17
0.0
 27
1.0
 37
0.0
 76
1
330
17
  0
LAYOUT
  5
1E
330
D
100
AcDbPlotSettings
  1

  2
Adobe PDF
  4
A3
  6

 40
7.5
 41
20.0
 42
7.5
 43
20.0
 44
420.0
 45
297.0
 46
0.0
 47
0.0
 48
0.0
 49
0.0
140
0.0
141
0.0
142
1.0
143
1.0
 70
0
 72
1
 73
0
 74
5
  7

 75
16
 76
0
 77
2
 78
300
147
1.0
148
0.0
149
0.0
100
AcDbLayout
  1
Layout1
 70
1
 71
1
 10
0.0
 20
0.0
 11
420.0
 21
297.0
 12
0.0
 22
0.0
 32
0.0
 14
1e+20
 24
1e+20
 34
1e+20
 15
-1e+20
 25
-1e+20
 35
-1e+20
146
0.0
 13
0.0
 23
0.0
 33
0.0
 16
1.0
 26
0.0
 36
0.0
 17
0.0
 27
1.0
 37
0.0
 76
1
330
1B
  0
MATERIAL
  5
1F
102
{ACAD_REACTORS
330
E
102
}
330
E
100
AcDbMaterial
  1
ByBlock
  2

 70
0
 40
1.0
 71
1
 41
1.0
 91
-1023410177
 42
1.0
 72
1
  3

 73
1
 74
1
 75
1
 44
0.5
 73
0
 45
1.0
 46
1.0
 77
1
  4

 78
1
 79
1
170
1
 48
1.0
171
1
  6

172
1
173
1
174
1
140
1.0
141
1.0
175
1
  7

176
1
177
1
178
1
143
1.0
179
1
  8

270
1
271
1
272
1
145
1.0
146
1.0
273
1
  9

274
1
275
1
276
1
 42
1.0
 72
1
  3

 73
1
 74
1
 75
1
 94
63
  0
MATERIAL
  5
20
102
{ACAD_REACTORS
330
E
102
}
330
E
100
AcDbMaterial
  1
ByLayer
  2

 70
0
 40
1.0
 71
1
 41
1.0
 91
-1023410177
 42
1.0
 72
1
  3

 73
1
 74
1
 75
1
 44
0.5
 73
0
 45
1.0
 46
1.0
 77
1
  4

 78
1
 79
1
170
1
 48
1.0
171
1
  6

172
1
173
1
174
1
140
1.0
141
1.0
175
1
  7

176
1
177
1
178
1
143
1.0
179
1
  8

270
1
271
1
272
1
145
1.0
146
1.0
273
1
  9

274
1
275
1
276
1
 42
1.0
 72
1
  3

 73
1
 74
1
 75
1
 94
63
  0
MATERIAL
  5
21
102
{ACAD_REACTORS
330
E
102
}
330
E
100
AcDbMaterial
  1
Global
  2

 70
0
 40
1.0
 71
1
 41
1.0
 91
-1023410177
 42
1.0
 72
1
  3

 73
1
 74
1
 75
1
 44
0.5
 73
0
 45
1.0
 46
1.0
 77
1
  4

 78
1
 79
1
170
1
 48
1.0
171
1
  6

172
1
173
1
174
1
140
1.0
141
1.0
175
1
  7

176
1
177
1
178
1
143
1.0
179
1
  8

270
1
271
1
272
1
145
1.0
146
1.0
273
1
  9

274
1
275
1
276
1
 42
1.0
 72
1
  3

 73
1
 74
1
 75
1
 94
63
  0
MLINESTYLE
  5
22
102
{ACAD_REACTORS
330
10
102
}
330
10
100
AcDbMlineStyle
  2
Standard
 70
0
  3

 62
256
 51
90.0
 52
90.0
 71
2
 49
0.5
 62
256
  6
BYLAYER
 49
-0.5
 62
256
  6
BYLAYER
  0
MLEADERSTYLE
  5
2C
102
{ACAD_REACTORS
330
F
102
}
330
F
100
AcDbMLeaderStyle
179
2
170
2
171
1
172
0
 90
2
 40
0.0
 41
0.0
173
1
 91
-1056964608
 92
-2
290
1
 42
2.0
291
1
 43
8.0
  3
Standard
 44
4.0
300

342
29
174
1
175
1
176
0
178
1
 93
-1056964608
 45
4.0
292
0
297
0
 46
4.0
 94
-1056964608
 47
1.0
 49
1.0
140
1.0
294
1
141
0.0
177
0
142
1.0
295
0
296
0
143
3.75
271
0
272
9
273
9
  0
DICTIONARY
  5
2D
330
A
100
AcDbDictionary
281
1
  3
CREATED_BY_EZDXF
350
2E
  3
WRITTEN_BY_EZDXF
350
3A
  0
DICTIONARYVAR
  5
2E
330
2D
100
DictionaryVariables
280
0
  1
1.0.3 @ 2025-05-29T09:38:41.862701+00:00
  0
DICTIONARYVAR
  5
3A
330
2D
100
DictionaryVariables
280
0
  1
1.0.3 @ 2025-05-29T09:38:41.867401+00:00
  0
ENDSEC
  0
EOF
