  0
SECTION
  2
HEADER
  9
$ACADVER
  1
AC1027
  9
$ACADMAINTVER
 70
105
  9
$DWGCODEPAGE
  3
ANSI_1252
  9
$LASTSAVEDBY
  1
ezdxf
  9
$REQUIREDVERSIONS
160
0
  9
$INSBASE
 10
0.0
 20
0.0
 30
0.0
  9
$EXTMIN
 10
1e+20
 20
1e+20
 30
1e+20
  9
$EXTMAX
 10
-1e+20
 20
-1e+20
 30
-1e+20
  9
$LIMMIN
 10
0.0
 20
0.0
  9
$LIMMAX
 10
420.0
 20
297.0
  9
$ORTHOMODE
 70
0
  9
$REGENMODE
 70
1
  9
$FILLMODE
 70
1
  9
$QTEXTMODE
 70
0
  9
$MIRRTEXT
 70
1
  9
$LTSCALE
 40
1.0
  9
$ATTMODE
 70
1
  9
$TEXTSIZE
 40
2.5
  9
$TRACEWID
 40
1.0
  9
$TEXTSTYLE
  7
Standard
  9
$CLAYER
  8
0
  9
$CELTYPE
  6
ByLayer
  9
$CECOLOR
 62
256
  9
$CELTSCALE
 40
1.0
  9
$DISPSILH
 70
0
  9
$DIMSCALE
 40
1.0
  9
$DIMASZ
 40
2.5
  9
$DIMEXO
 40
0.625
  9
$DIMDLI
 40
3.75
  9
$DIMRND
 40
0.0
  9
$DIMDLE
 40
0.0
  9
$DIMEXE
 40
1.25
  9
$DIMTP
 40
0.0
  9
$DIMTM
 40
0.0
  9
$DIMTXT
 40
2.5
  9
$DIMCEN
 40
2.5
  9
$DIMTSZ
 40
0.0
  9
$DIMTOL
 70
0
  9
$DIMLIM
 70
0
  9
$DIMTIH
 70
0
  9
$DIMTOH
 70
0
  9
$DIMSE1
 70
0
  9
$DIMSE2
 70
0
  9
$DIMTAD
 70
1
  9
$DIMZIN
 70
8
  9
$DIMBLK
  1

  9
$DIMASO
 70
1
  9
$DIMSHO
 70
1
  9
$DIMPOST
  1

  9
$DIMAPOST
  1

  9
$DIMALT
 70
0
  9
$DIMALTD
 70
3
  9
$DIMALTF
 40
0.03937007874
  9
$DIMLFAC
 40
1.0
  9
$DIMTOFL
 70
1
  9
$DIMTVP
 40
0.0
  9
$DIMTIX
 70
0
  9
$DIMSOXD
 70
0
  9
$DIMSAH
 70
0
  9
$DIMBLK1
  1

  9
$DIMBLK2
  1

  9
$DIMSTYLE
  2
ISO-25
  9
$DIMCLRD
 70
0
  9
$DIMCLRE
 70
0
  9
$DIMCLRT
 70
0
  9
$DIMTFAC
 40
1.0
  9
$DIMGAP
 40
0.625
  9
$DIMJUST
 70
0
  9
$DIMSD1
 70
0
  9
$DIMSD2
 70
0
  9
$DIMTOLJ
 70
0
  9
$DIMTZIN
 70
8
  9
$DIMALTZ
 70
0
  9
$DIMALTTZ
 70
0
  9
$DIMUPT
 70
0
  9
$DIMDEC
 70
2
  9
$DIMTDEC
 70
2
  9
$DIMALTU
 70
2
  9
$DIMALTTD
 70
3
  9
$DIMTXSTY
  7
Standard
  9
$DIMAUNIT
 70
0
  9
$DIMADEC
 70
0
  9
$DIMALTRND
 40
0.0
  9
$DIMAZIN
 70
0
  9
$DIMDSEP
 70
44
  9
$DIMATFIT
 70
3
  9
$DIMFRAC
 70
0
  9
$DIMLDRBLK
  1

  9
$DIMLUNIT
 70
2
  9
$DIMLWD
 70
-2
  9
$DIMLWE
 70
-2
  9
$DIMTMOVE
 70
0
  9
$DIMFXL
 40
1.0
  9
$DIMFXLON
 70
0
  9
$DIMJOGANG
 40
0.785398163397
  9
$DIMTFILL
 70
0
  9
$DIMTFILLCLR
 70
0
  9
$DIMARCSYM
 70
0
  9
$DIMLTYPE
  6

  9
$DIMLTEX1
  6

  9
$DIMLTEX2
  6

  9
$DIMTXTDIRECTION
 70
0
  9
$LUNITS
 70
2
  9
$LUPREC
 70
4
  9
$SKETCHINC
 40
1.0
  9
$FILLETRAD
 40
10.0
  9
$AUNITS
 70
0
  9
$AUPREC
 70
2
  9
$MENU
  1
.
  9
$ELEVATION
 40
0.0
  9
$PELEVATION
 40
0.0
  9
$THICKNESS
 40
0.0
  9
$LIMCHECK
 70
0
  9
$CHAMFERA
 40
0.0
  9
$CHAMFERB
 40
0.0
  9
$CHAMFERC
 40
0.0
  9
$CHAMFERD
 40
0.0
  9
$SKPOLY
 70
0
  9
$TDCREATE
 40
2460825.776909722
  9
$TDUCREATE
 40
2458532.153996898
  9
$TDUPDATE
 40
2460825.776909722
  9
$TDUUPDATE
 40
2458532.1544311
  9
$TDINDWG
 40
0.0
  9
$TDUSRTIMER
 40
0.0
  9
$USRTIMER
 70
1
  9
$ANGBASE
 50
0.0
  9
$ANGDIR
 70
0
  9
$PDMODE
 70
0
  9
$PDSIZE
 40
0.0
  9
$PLINEWID
 40
0.0
  9
$SPLFRAME
 70
0
  9
$SPLINETYPE
 70
6
  9
$SPLINESEGS
 70
8
  9
$HANDSEED
  5
3C
  9
$SURFTAB1
 70
6
  9
$SURFTAB2
 70
6
  9
$SURFTYPE
 70
6
  9
$SURFU
 70
6
  9
$SURFV
 70
6
  9
$UCSBASE
  2

  9
$UCSNAME
  2

  9
$UCSORG
 10
0.0
 20
0.0
 30
0.0
  9
$UCSXDIR
 10
1.0
 20
0.0
 30
0.0
  9
$UCSYDIR
 10
0.0
 20
1.0
 30
0.0
  9
$UCSORTHOREF
  2

  9
$UCSORTHOVIEW
 70
0
  9
$UCSORGTOP
 10
0.0
 20
0.0
 30
0.0
  9
$UCSORGBOTTOM
 10
0.0
 20
0.0
 30
0.0
  9
$UCSORGLEFT
 10
0.0
 20
0.0
 30
0.0
  9
$UCSORGRIGHT
 10
0.0
 20
0.0
 30
0.0
  9
$UCSORGFRONT
 10
0.0
 20
0.0
 30
0.0
  9
$UCSORGBACK
 10
0.0
 20
0.0
 30
0.0
  9
$PUCSBASE
  2

  9
$PUCSNAME
  2

  9
$PUCSORG
 10
0.0
 20
0.0
 30
0.0
  9
$PUCSXDIR
 10
1.0
 20
0.0
 30
0.0
  9
$PUCSYDIR
 10
0.0
 20
1.0
 30
0.0
  9
$PUCSORTHOREF
  2

  9
$PUCSORTHOVIEW
 70
0
  9
$PUCSORGTOP
 10
0.0
 20
0.0
 30
0.0
  9
$PUCSORGBOTTOM
 10
0.0
 20
0.0
 30
0.0
  9
$PUCSORGLEFT
 10
0.0
 20
0.0
 30
0.0
  9
$PUCSORGRIGHT
 10
0.0
 20
0.0
 30
0.0
  9
$PUCSORGFRONT
 10
0.0
 20
0.0
 30
0.0
  9
$PUCSORGBACK
 10
0.0
 20
0.0
 30
0.0
  9
$USERI1
 70
0
  9
$USERI2
 70
0
  9
$USERI3
 70
0
  9
$USERI4
 70
0
  9
$USERI5
 70
0
  9
$USERR1
 40
0.0
  9
$USERR2
 40
0.0
  9
$USERR3
 40
0.0
  9
$USERR4
 40
0.0
  9
$USERR5
 40
0.0
  9
$WORLDVIEW
 70
1
  9
$SHADEDGE
 70
3
  9
$SHADEDIF
 70
70
  9
$TILEMODE
 70
1
  9
$MAXACTVP
 70
64
  9
$PINSBASE
 10
0.0
 20
0.0
 30
0.0
  9
$PLIMCHECK
 70
0
  9
$PEXTMIN
 10
1e+20
 20
1e+20
 30
1e+20
  9
$PEXTMAX
 10
-1e+20
 20
-1e+20
 30
-1e+20
  9
$PLIMMIN
 10
0.0
 20
0.0
  9
$PLIMMAX
 10
420.0
 20
297.0
  9
$UNITMODE
 70
0
  9
$VISRETAIN
 70
1
  9
$PLINEGEN
 70
0
  9
$PSLTSCALE
 70
1
  9
$TREEDEPTH
 70
3020
  9
$CMLSTYLE
  2
Standard
  9
$CMLJUST
 70
0
  9
$CMLSCALE
 40
20.0
  9
$PROXYGRAPHICS
 70
1
  9
$MEASUREMENT
 70
1
  9
$CELWEIGHT
370
-1
  9
$ENDCAPS
280
0
  9
$JOINSTYLE
280
0
  9
$LWDISPLAY
290
0
  9
$INSUNITS
 70
6
  9
$HYPERLINKBASE
  1

  9
$STYLESHEET
  1

  9
$XEDIT
290
1
  9
$CEPSNTYPE
380
0
  9
$PSTYLEMODE
290
1
  9
$FINGERPRINTGUID
  2
{4653AD2A-0C9C-47D5-8E53-99CAC656196E}
  9
$VERSIONGUID
  2
{11959D04-D2E2-46EF-B9E7-14B19D310BAE}
  9
$EXTNAMES
290
1
  9
$PSVPSCALE
 40
0.0
  9
$OLESTARTUP
290
0
  9
$SORTENTS
280
127
  9
$INDEXCTL
280
0
  9
$HIDETEXT
280
1
  9
$XCLIPFRAME
280
0
  9
$HALOGAP
280
0
  9
$OBSCOLOR
 70
257
  9
$OBSLTYPE
280
0
  9
$INTERSECTIONDISPLAY
280
0
  9
$INTERSECTIONCOLOR
 70
257
  9
$DIMASSOC
280
2
  9
$PROJECTNAME
  1

  9
$CAMERADISPLAY
290
0
  9
$LENSLENGTH
 40
50.0
  9
$CAMERAHEIGHT
 40
0.0
  9
$STEPSPERSEC
 40
24.0
  9
$STEPSIZE
 40
100.0
  9
$3DDWFPREC
 40
2.0
  9
$PSOLWIDTH
 40
0.005
  9
$PSOLHEIGHT
 40
0.08
  9
$LOFTANG1
 40
1.570796326795
  9
$LOFTANG2
 40
1.570796326795
  9
$LOFTMAG1
 40
0.0
  9
$LOFTMAG2
 40
0.0
  9
$LOFTPARAM
 70
7
  9
$LOFTNORMALS
280
1
  9
$LATITUDE
 40
37.795
  9
$LONGITUDE
 40
-122.394
  9
$NORTHDIRECTION
 40
0.0
  9
$TIMEZONE
 70
-8000
  9
$LIGHTGLYPHDISPLAY
280
1
  9
$TILEMODELIGHTSYNCH
280
1
  9
$CMATERIAL
347
20
  9
$SOLIDHIST
280
0
  9
$SHOWHIST
280
1
  9
$DWFFRAME
280
2
  9
$DGNFRAME
280
2
  9
$REALWORLDSCALE
290
1
  9
$INTERFERECOLOR
 62
256
  9
$CSHADOW
280
0
  9
$SHADOWPLANELOCATION
 40
0.0
  0
ENDSEC
  0
SECTION
  2
CLASSES
  0
CLASS
  1
ACDBDICTIONARYWDFLT
  2
AcDbDictionaryWithDefault
  3
ObjectDBX Classes
 90
0
 91
0
280
0
281
0
  0
CLASS
  1
SUN
  2
AcDbSun
  3
SCENEOE
 90
1153
 91
0
280
0
281
0
  0
CLASS
  1
VISUALSTYLE
  2
AcDbVisualStyle
  3
ObjectDBX Classes
 90
4095
 91
0
280
0
281
0
  0
CLASS
  1
MATERIAL
  2
AcDbMaterial
  3
ObjectDBX Classes
 90
1153
 91
0
280
0
281
0
  0
CLASS
  1
SCALE
  2
AcDbScale
  3
ObjectDBX Classes
 90
1153
 91
0
280
0
281
0
  0
CLASS
  1
TABLESTYLE
  2
AcDbTableStyle
  3
ObjectDBX Classes
 90
4095
 91
0
280
0
281
0
  0
CLASS
  1
MLEADERSTYLE
  2
AcDbMLeaderStyle
  3
ACDB_MLEADERSTYLE_CLASS
 90
4095
 91
0
280
0
281
0
  0
CLASS
  1
DICTIONARYVAR
  2
AcDbDictionaryVar
  3
ObjectDBX Classes
 90
0
 91
0
280
0
281
0
  0
CLASS
  1
CELLSTYLEMAP
  2
AcDbCellStyleMap
  3
ObjectDBX Classes
 90
1152
 91
0
280
0
281
0
  0
CLASS
  1
MENTALRAYRENDERSETTINGS
  2
AcDbMentalRayRenderSettings
  3
SCENEOE
 90
1024
 91
0
280
0
281
0
  0
CLASS
  1
ACDBDETAILVIEWSTYLE
  2
AcDbDetailViewStyle
  3
ObjectDBX Classes
 90
1025
 91
0
280
0
281
0
  0
CLASS
  1
ACDBSECTIONVIEWSTYLE
  2
AcDbSectionViewStyle
  3
ObjectDBX Classes
 90
1025
 91
0
280
0
281
0
  0
CLASS
  1
RASTERVARIABLES
  2
AcDbRasterVariables
  3
ISM
 90
0
 91
0
280
0
281
0
  0
CLASS
  1
LAYOUT
  2
AcDbLayout
  3
ObjectDBX Classes
 90
0
 91
0
280
0
281
0
  0
CLASS
  1
ACDBPLACEHOLDER
  2
AcDbPlaceHolder
  3
ObjectDBX Classes
 90
0
 91
0
280
0
281
0
  0
ENDSEC
  0
SECTION
  2
TABLES
  0
TABLE
  2
VPORT
  5
8
330
0
100
AcDbSymbolTable
 70
1
  0
VPORT
  5
23
330
8
100
AcDbSymbolTableRecord
100
AcDbViewportTableRecord
  2
*Active
 70
0
 10
0.0
 20
0.0
 11
1.0
 21
1.0
 12
0.0
 22
0.0
 13
0.0
 23
0.0
 14
0.5
 24
0.5
 15
0.5
 25
0.5
 16
0.0
 26
0.0
 36
1.0
 17
0.0
 27
0.0
 37
0.0
 40
1000.0
 41
1.34
 42
50.0
 43
0.0
 44
0.0
 50
0.0
 51
0.0
 71
0
 72
1000
 73
1
 74
3
 75
0
 76
0
 77
0
 78
0
281
0
 65
0
146
0.0
  0
ENDTAB
  0
TABLE
  2
LTYPE
  5
2
330
0
100
AcDbSymbolTable
 70
3
  0
LTYPE
  5
24
330
2
100
AcDbSymbolTableRecord
100
AcDbLinetypeTableRecord
  2
ByBlock
 70
0
  3

 72
65
 73
0
 40
0.0
  0
LTYPE
  5
25
330
2
100
AcDbSymbolTableRecord
100
AcDbLinetypeTableRecord
  2
ByLayer
 70
0
  3

 72
65
 73
0
 40
0.0
  0
LTYPE
  5
26
330
2
100
AcDbSymbolTableRecord
100
AcDbLinetypeTableRecord
  2
Continuous
 70
0
  3

 72
65
 73
0
 40
0.0
  0
ENDTAB
  0
TABLE
  2
LAYER
  5
1
330
0
100
AcDbSymbolTable
 70
2
  0
LAYER
  5
27
330
1
100
AcDbSymbolTableRecord
100
AcDbLayerTableRecord
  2
0
 70
0
 62
7
  6
Continuous
370
-3
390
13
347
21
  0
LAYER
  5
28
330
1
100
AcDbSymbolTableRecord
100
AcDbLayerTableRecord
  2
Defpoints
 70
0
 62
7
  6
Continuous
290
0
370
-3
390
13
347
21
  0
ENDTAB
  0
TABLE
  2
STYLE
  5
5
330
0
100
AcDbSymbolTable
 70
1
  0
STYLE
  5
29
330
5
100
AcDbSymbolTableRecord
100
AcDbTextStyleTableRecord
  2
Standard
 70
0
 40
0.0
 41
1.0
 50
0.0
 71
0
 42
2.5
  3
txt
  4

  0
ENDTAB
  0
TABLE
  2
VIEW
  5
7
330
0
100
AcDbSymbolTable
 70
0
  0
ENDTAB
  0
TABLE
  2
UCS
  5
6
330
0
100
AcDbSymbolTable
 70
0
  0
ENDTAB
  0
TABLE
  2
APPID
  5
3
330
0
100
AcDbSymbolTable
 70
3
  0
APPID
  5
2A
330
3
100
AcDbSymbolTableRecord
100
AcDbRegAppTableRecord
  2
ACAD
 70
0
  0
APPID
  5
39
330
3
100
AcDbSymbolTableRecord
100
AcDbRegAppTableRecord
  2
HATCHBACKGROUNDCOLOR
 70
0
  0
APPID
  5
3A
330
3
100
AcDbSymbolTableRecord
100
AcDbRegAppTableRecord
  2
EZDXF
 70
0
  0
ENDTAB
  0
TABLE
  2
DIMSTYLE
  5
4
330
0
100
AcDbSymbolTable
 70
1
100
AcDbDimStyleTable
  0
DIMSTYLE
105
2B
330
4
100
AcDbSymbolTableRecord
100
AcDbDimStyleTableRecord
  2
Standard
 70
0
 40
1.0
 41
2.5
 42
0.625
 43
3.75
 44
1.25
 45
0.0
 46
0.0
 47
0.0
 48
0.0
 49
2.5
140
2.5
141
2.5
142
0.0
143
0.03937007874
144
1.0
145
0.0
146
1.0
147
0.625
148
0.0
 69
0
 70
0
 71
0
 72
0
 73
0
 74
0
 75
0
 76
0
 77
1
 78
8
 79
3
170
0
171
3
172
1
173
0
174
0
175
0
176
0
177
0
178
0
179
2
271
2
272
2
273
2
274
3
275
0
276
0
277
2
278
44
279
0
280
0
281
0
282
0
283
0
284
8
285
0
286
0
288
0
289
3
290
0
371
-2
372
-2
  0
ENDTAB
  0
TABLE
  2
BLOCK_RECORD
  5
9
330
0
100
AcDbSymbolTable
 70
2
  0
BLOCK_RECORD
  5
17
330
9
100
AcDbSymbolTableRecord
100
AcDbBlockTableRecord
  2
*Model_Space
340
1A
 70
0
280
1
281
0
  0
BLOCK_RECORD
  5
1B
330
9
100
AcDbSymbolTableRecord
100
AcDbBlockTableRecord
  2
*Paper_Space
340
1E
 70
0
280
1
281
0
  0
ENDTAB
  0
ENDSEC
  0
SECTION
  2
BLOCKS
  0
BLOCK
  5
18
330
17
100
AcDbEntity
  8
0
100
AcDbBlockBegin
  2
*Model_Space
 70
0
 10
0.0
 20
0.0
 30
0.0
  3
*Model_Space
  1

  0
ENDBLK
  5
19
330
17
100
AcDbEntity
  8
0
100
AcDbBlockEnd
  0
BLOCK
  5
1C
330
1B
100
AcDbEntity
  8
0
100
AcDbBlockBegin
  2
*Paper_Space
 70
0
 10
0.0
 20
0.0
 30
0.0
  3
*Paper_Space
  1

  0
ENDBLK
  5
1D
330
1B
100
AcDbEntity
  8
0
100
AcDbBlockEnd
  0
ENDSEC
  0
SECTION
  2
ENTITIES
  0
LWPOLYLINE
  5
2F
330
17
100
AcDbEntity
  8
0
100
AcDbPolyline
 90
51
 70
0
 10
9.9
 20
12.0
 10
9.9
 20
11.76
 10
9.9
 20
11.52
 10
9.9
 20
11.28
 10
9.9
 20
11.04
 10
9.9
 20
10.8
 10
9.9
 20
10.56
 10
9.9
 20
10.32
 10
9.9
 20
10.08
 10
9.9
 20
9.84
 10
9.9
 20
9.6
 10
9.9
 20
9.36
 10
9.9
 20
9.120000000000001
 10
9.9
 20
8.879999999999999
 10
9.9
 20
8.64
 10
9.9
 20
8.4
 10
9.9
 20
8.16
 10
9.9
 20
7.92
 10
9.9
 20
7.68
 10
9.9
 20
7.44
 10
9.9
 20
7.2
 10
9.9
 20
6.96
 10
9.9
 20
6.72
 10
9.9
 20
6.48
 10
9.9
 20
6.24
 10
9.9
 20
6.0
 10
9.9
 20
5.76
 10
9.9
 20
5.52
 10
9.9
 20
5.28
 10
9.9
 20
5.04
 10
9.9
 20
4.8
 10
9.9
 20
4.56
 10
9.9
 20
4.32
 10
9.9
 20
4.08
 10
9.9
 20
3.84
 10
9.9
 20
3.5999999999999996
 10
9.9
 20
3.3599999999999994
 10
9.9
 20
3.119999999999999
 10
9.9
 20
2.880000000000001
 10
9.9
 20
2.6400000000000006
 10
9.9
 20
2.4000000000000004
 10
9.9
 20
2.16
 10
9.9
 20
1.92
 10
9.9
 20
1.6799999999999997
 10
9.9
 20
1.4399999999999995
 10
9.9
 20
1.1999999999999993
 10
9.9
 20
0.9600000000000009
 10
9.9
 20
0.7200000000000006
 10
9.9
 20
0.4800000000000004
 10
9.9
 20
0.2400000000000002
 10
9.900000000000002
 20
0.0
  0
LWPOLYLINE
  5
30
330
17
100
AcDbEntity
  8
0
100
AcDbPolyline
 90
51
 70
0
 10
-4.1
 20
5.0
 10
-4.1
 20
5.14
 10
-4.1
 20
5.28
 10
-4.1
 20
5.42
 10
-4.1
 20
5.5600000000000005
 10
-4.1
 20
5.7
 10
-4.1
 20
5.84
 10
-4.1
 20
5.98
 10
-4.1
 20
6.12
 10
-4.1
 20
6.26
 10
-4.1
 20
6.4
 10
-4.1
 20
6.54
 10
-4.1
 20
6.68
 10
-4.1000000000000005
 20
6.82
 10
-4.1000000000000005
 20
6.96
 10
-4.1000000000000005
 20
7.1
 10
-4.1000000000000005
 20
7.24
 10
-4.1000000000000005
 20
7.38
 10
-4.1000000000000005
 20
7.52
 10
-4.1000000000000005
 20
7.66
 10
-4.1000000000000005
 20
7.8
 10
-4.1000000000000005
 20
7.9399999999999995
 10
-4.1000000000000005
 20
8.08
 10
-4.1000000000000005
 20
8.22
 10
-4.1000000000000005
 20
8.36
 10
-4.1000000000000005
 20
8.5
 10
-4.1000000000000005
 20
8.64
 10
-4.1000000000000005
 20
8.78
 10
-4.1000000000000005
 20
8.92
 10
-4.1000000000000005
 20
9.059999999999999
 10
-4.1000000000000005
 20
9.2
 10
-4.1000000000000005
 20
9.34
 10
-4.1000000000000005
 20
9.48
 10
-4.1000000000000005
 20
9.620000000000001
 10
-4.1000000000000005
 20
9.76
 10
-4.1000000000000005
 20
9.9
 10
-4.1000000000000005
 20
10.04
 10
-4.1000000000000005
 20
10.18
 10
-4.1000000000000005
 20
10.32
 10
-4.100000000000001
 20
10.46
 10
-4.100000000000001
 20
10.6
 10
-4.100000000000001
 20
10.74
 10
-4.100000000000001
 20
10.879999999999999
 10
-4.100000000000001
 20
11.02
 10
-4.100000000000001
 20
11.16
 10
-4.100000000000001
 20
11.3
 10
-4.100000000000001
 20
11.440000000000001
 10
-4.100000000000001
 20
11.58
 10
-4.100000000000001
 20
11.719999999999999
 10
-4.100000000000001
 20
11.86
 10
-4.100000000000001
 20
12.0
  0
LWPOLYLINE
  5
31
330
17
100
AcDbEntity
  8
0
100
AcDbPolyline
 90
51
 70
0
 10
-4.1
 20
11.999999999999998
 10
-4.0861870989979
 20
12.439533636705189
 10
-4.044802909201346
 20
12.877332634950129
 10
-3.976010755100821
 20
13.31166920210007
 10
-3.8800821279004176
 20
13.740829210153985
 10
-3.7573956140660756
 20
14.16311896062463
 10
-3.608435401217761
 20
14.576871868792741
 10
-3.4337893672621367
 20
14.980455040955508
 10
-3.234146760307047
 20
15.372275718712004
 10
-3.0102954785141045
 20
15.750787564852978
 10
-2.763118960624633
 20
16.11449676604731
 10
-2.493592699430527
 20
16.461967928240824
 10
-2.2027803919498807
 20
16.79182974150082
 10
-1.8918297415008225
 20
17.102780391949878
 10
-1.5619679282408279
 20
17.393592699430528
 10
-1.2144967660473136
 20
17.66311896062463
 10
-0.8507875648529803
 20
17.910295478514104
 10
-0.4722757187120079
 20
18.134146760307047
 10
-0.08045504095551159
 20
18.333789367262135
 10
0.3231281312072545
 20
18.50843540121776
 10
0.7368810393753655
 20
18.657395614066075
 10
1.159170789846012
 20
18.780082127900418
 10
1.5883307978999266
 20
18.876010755100822
 10
2.022667365049867
 20
18.944802909201343
 10
2.4604663632948065
 20
18.986187098997902
 10
2.8999999999999977
 20
19.0
 10
3.339533636705189
 20
18.986187098997902
 10
3.777332634950129
 20
18.944802909201346
 10
4.211669202100069
 20
18.876010755100822
 10
4.640829210153983
 20
18.780082127900418
 10
5.06311896062463
 20
18.657395614066075
 10
5.476871868792741
 20
18.50843540121776
 10
5.880455040955507
 20
18.333789367262135
 10
6.2722757187120095
 20
18.134146760307043
 10
6.650787564852976
 20
17.910295478514104
 10
7.01449676604731
 20
17.663118960624633
 10
7.361967928240825
 20
17.393592699430528
 10
7.69182974150082
 20
17.10278039194988
 10
8.002780391949878
 20
16.791829741500823
 10
8.293592699430524
 20
16.461967928240828
 10
8.56311896062463
 20
16.114496766047314
 10
8.810295478514103
 20
15.750787564852981
 10
9.034146760307046
 20
15.372275718712007
 10
9.233789367262135
 20
14.980455040955512
 10
9.40843540121776
 20
14.576871868792747
 10
9.557395614066074
 20
14.163118960624635
 10
9.680082127900416
 20
13.740829210153988
 10
9.77601075510082
 20
13.311669202100074
 10
9.844802909201345
 20
12.877332634950134
 10
9.886187098997901
 20
12.439533636705194
 10
9.9
 20
12.000000000000002
  0
LWPOLYLINE
  5
32
330
17
100
AcDbEntity
  8
0
100
AcDbPolyline
 90
51
 70
0
 10
9.9
 20
7.03437308402499e-16
 10
9.004000000000001
 20
6.397726792783941e-16
 10
8.108
 20
5.761080501542891e-16
 10
7.212000000000001
 20
5.124434210301842e-16
 10
6.316000000000001
 20
4.487787919060791e-16
 10
5.42
 20
3.851141627819742e-16
 10
4.524000000000001
 20
3.214495336578693e-16
 10
3.628000000000001
 20
2.5778490453376435e-16
 10
2.732000000000001
 20
1.9412027540965937e-16
 10
1.8360000000000003
 20
1.3045564628555438e-16
 10
0.9399999999999995
 20
6.679101716144936e-17
 10
0.04400000000000048
 20
3.126388037344474e-18
 10
-0.8519999999999985
 20
-6.053824108676041e-17
 10
-1.7479999999999993
 20
-1.2420287021086543e-16
 10
-2.6439999999999984
 20
-1.878674993349703e-16
 10
-3.539999999999999
 20
-2.515321284590753e-16
 10
-4.435999999999998
 20
-3.151967575831802e-16
 10
-5.331999999999997
 20
-3.788613867072851e-16
 10
-6.228
 20
-4.425260158313902e-16
 10
-7.123999999999997
 20
-5.06190644955495e-16
 10
-8.020000000000001
 20
-5.698552740796003e-16
 10
-8.915999999999999
 20
-6.335199032037051e-16
 10
-9.812
 20
-6.9718453232781e-16
 10
-10.707999999999997
 20
-7.608491614519147e-16
 10
-11.603999999999997
 20
-8.245137905760198e-16
 10
-12.499999999999998
 20
-8.881784197001248e-16
 10
-13.395999999999999
 20
-9.518430488242298e-16
 10
-14.291999999999996
 20
-1.0155076779483345e-15
 10
-15.187999999999997
 20
-1.0791723070724397e-15
 10
-16.083999999999996
 20
-1.1428369361965444e-15
 10
-16.979999999999997
 20
-1.2065015653206496e-15
 10
-17.875999999999998
 20
-1.2701661944447545e-15
 10
-18.772
 20
-1.3338308235688595e-15
 10
-19.668
 20
-1.3974954526929646e-15
 10
-20.563999999999993
 20
-1.461160081817069e-15
 10
-21.46
 20
-1.5248247109411745e-15
 10
-22.356
 20
-1.5884893400652796e-15
 10
-23.252000000000002
 20
-1.6521539691893846e-15
 10
-24.147999999999996
 20
-1.7158185983134891e-15
 10
-25.043999999999997
 20
-1.779483227437594e-15
 10
-25.940000000000005
 20
-1.8431478565616996e-15
 10
-26.836
 20
-1.906812485685804e-15
 10
-27.732
 20
-1.970477114809909e-15
 10
-28.628
 20
-2.0341417439340143e-15
 10
-29.524
 20
-2.097806373058119e-15
 10
-30.419999999999995
 20
-2.1614710021822238e-15
 10
-31.315999999999995
 20
-2.2251356313063285e-15
 10
-32.211999999999996
 20
-2.2888002604304337e-15
 10
-33.108
 20
-2.352464889554539e-15
 10
-34.004
 20
-2.4161295186786436e-15
 10
-34.9
 20
-2.4797941478027487e-15
  0
LWPOLYLINE
  5
33
330
17
100
AcDbEntity
  8
0
100
AcDbPolyline
 90
51
 70
0
 10
6.9
 20
12.0
 10
6.88224785841232
 20
11.623566746725944
 10
6.829149002914755
 20
11.250474741657102
 10
6.741174742707772
 20
10.884035575843084
 10
6.619105943553006
 20
10.527501789261288
 10
6.4640260967534715
 20
10.184038001041813
 10
6.2773117020080615
 20
9.856692820084014
 10
6.060620049502763
 20
9.548371785388095
 10
5.815874509685646
 20
9.261811576285245
 10
5.545247461294608
 20
8.999555721478163
 10
5.251141009169894
 20
8.76393202250021
 10
4.936165663001485
 20
8.557031891984225
 10
4.603117166260292
 20
8.380691790135923
 10
4.254951680981166
 20
8.236476924183098
 10
3.8947595486594198
 20
8.125667355485476
 10
3.525737860160924
 20
8.049246637619449
 10
3.1511620781172547
 20
8.007893086286913
 10
2.7743569636874885
 20
8.001973758537073
 10
2.3986670657427833
 20
8.031541194742088
 10
2.027427034413832
 20
8.09633295224501
 10
1.6639320225002112
 20
8.195773934819385
 10
1.3114084374608772
 20
8.328981497264076
 10
0.9729853035931388
 20
8.494773279824546
 10
0.651666488591478
 20
8.691677702901753
 10
0.3503040410052418
 20
8.917947028896842
 10
0.07157287525381051
 20
9.171572875253808
 10
-0.1820529711031571
 20
9.450304041005241
 10
-0.4083222970982461
 20
9.751666488591475
 10
-0.6052267201754544
 20
10.07298530359314
 10
-0.7710185027359238
 20
10.411408437460874
 10
-0.9042260651806142
 20
10.76393202250021
 10
-1.003667047754989
 20
11.127427034413827
 10
-1.0684588052579111
 20
11.498667065742781
 10
-1.0980262414629265
 20
11.874356963687486
 10
-1.0921069137130863
 20
12.25116207811725
 10
-1.0507533623805512
 20
12.625737860160923
 10
-0.9743326445145244
 20
12.994759548659419
 10
-0.8635230758169024
 20
13.354951680981163
 10
-0.7193082098640797
 20
13.703117166260286
 10
-0.5429681080157738
 20
14.036165663001485
 10
-0.3360679774997908
 20
14.351141009169892
 10
-0.10044427852184068
 20
14.645247461294606
 10
0.16181157628524634
 20
14.915874509685647
 10
0.4483717853880935
 20
15.16062004950276
 10
0.7566928200840142
 20
15.377311702008061
 10
1.0840380010418116
 20
15.564026096753471
 10
1.427501789261288
 20
15.719105943553005
 10
1.7840355758430808
 20
15.841174742707771
 10
2.1504747416571006
 20
15.929149002914755
 10
2.5235667467259435
 20
15.98224785841232
 10
2.8999999999999986
 20
16.0
  0
LWPOLYLINE
  5
34
330
17
100
AcDbEntity
  8
0
100
AcDbPolyline
 90
51
 70
0
 10
2.8999999999999995
 20
16.0
 10
3.0256430363125126
 20
15.998026241462927
 10
3.151162078117253
 20
15.992106913713087
 10
3.2764332532740568
 20
15.98224785841232
 10
3.4013329342572165
 20
15.968458805257912
 10
3.525737860160923
 20
15.950753362380551
 10
3.649525258342898
 20
15.929149002914755
 10
3.7725729655861695
 20
15.90366704775499
 10
3.894759548659419
 20
15.874332644514524
 10
4.015964424156916
 20
15.841174742707771
 10
4.136067977499789
 20
15.804226065180615
 10
4.254951680981165
 20
15.763523075816902
 10
4.372498210738711
 20
15.719105943553005
 10
4.488591562539122
 20
15.671018502735924
 10
4.60311716626029
 20
15.619308209864078
 10
4.7159619989581865
 20
15.564026096753471
 10
4.827014696406861
 20
15.505226720175454
 10
4.936165663001485
 20
15.442968108015775
 10
5.0433071799159865
 20
15.377311702008061
 10
5.148333511408522
 20
15.308322297098247
 10
5.251141009169892
 20
15.23606797749979
 10
5.351628214611905
 20
15.160620049502763
 10
5.449695958994758
 20
15.082052971103158
 10
5.545247461294607
 20
15.000444278521838
 10
5.6381884237147535
 20
14.915874509685647
 10
5.72842712474619
 20
14.828427124746192
 10
5.815874509685646
 20
14.738188423714755
 10
5.900444278521837
 20
14.645247461294609
 10
5.9820529711031565
 20
14.549695958994759
 10
6.060620049502761
 20
14.451628214611906
 10
6.136067977499788
 20
14.351141009169893
 10
6.208322297098247
 20
14.248333511408523
 10
6.27731170200806
 20
14.143307179915986
 10
6.342968108015775
 20
14.036165663001485
 10
6.405226720175454
 20
13.92701469640686
 10
6.4640260967534715
 20
13.815961998958187
 10
6.519308209864079
 20
13.703117166260292
 10
6.5710185027359245
 20
13.588591562539122
 10
6.619105943553006
 20
13.472498210738713
 10
6.663523075816902
 20
13.354951680981166
 10
6.704226065180614
 20
13.23606797749979
 10
6.741174742707772
 20
13.115964424156918
 10
6.774332644514525
 20
12.99475954865942
 10
6.803667047754989
 20
12.872572965586171
 10
6.829149002914754
 20
12.7495252583429
 10
6.850753362380551
 20
12.625737860160925
 10
6.8684588052579105
 20
12.501332934257219
 10
6.88224785841232
 20
12.376433253274058
 10
6.892106913713086
 20
12.251162078117254
 10
6.898026241462926
 20
12.125643036312514
 10
6.9
 20
12.0
  0
LWPOLYLINE
  5
35
330
17
100
AcDbEntity
  8
0
100
AcDbPolyline
 90
51
 70
0
 10
-34.9
 20
-2.47979414780275e-15
 10
-34.9
 20
0.09999999999999756
 10
-34.9
 20
0.19999999999999762
 10
-34.9
 20
0.29999999999999766
 10
-34.9
 20
0.3999999999999977
 10
-34.9
 20
0.49999999999999784
 10
-34.9
 20
0.5999999999999979
 10
-34.9
 20
0.699999999999998
 10
-34.9
 20
0.7999999999999979
 10
-34.9
 20
0.899999999999998
 10
-34.9
 20
0.9999999999999982
 10
-34.9
 20
1.099999999999998
 10
-34.9
 20
1.1999999999999982
 10
-34.9
 20
1.299999999999998
 10
-34.9
 20
1.3999999999999984
 10
-34.9
 20
1.4999999999999984
 10
-34.9
 20
1.5999999999999983
 10
-34.9
 20
1.6999999999999984
 10
-34.9
 20
1.7999999999999985
 10
-34.9
 20
1.8999999999999988
 10
-34.9
 20
1.9999999999999987
 10
-34.9
 20
2.0999999999999983
 10
-34.9
 20
2.1999999999999984
 10
-34.9
 20
2.2999999999999985
 10
-34.9
 20
2.3999999999999986
 10
-34.9
 20
2.4999999999999987
 10
-34.9
 20
2.5999999999999983
 10
-34.9
 20
2.699999999999999
 10
-34.9
 20
2.799999999999999
 10
-34.9
 20
2.899999999999999
 10
-34.9
 20
2.999999999999999
 10
-34.9
 20
3.099999999999999
 10
-34.9
 20
3.199999999999999
 10
-34.9
 20
3.299999999999999
 10
-34.9
 20
3.399999999999999
 10
-34.9
 20
3.499999999999999
 10
-34.9
 20
3.599999999999999
 10
-34.9
 20
3.699999999999999
 10
-34.9
 20
3.8
 10
-34.9
 20
3.8999999999999995
 10
-34.9
 20
4.0
 10
-34.9
 20
4.1
 10
-34.9
 20
4.199999999999999
 10
-34.9
 20
4.3
 10
-34.9
 20
4.3999999999999995
 10
-34.9
 20
4.5
 10
-34.9
 20
4.6
 10
-34.9
 20
4.699999999999999
 10
-34.9
 20
4.8
 10
-34.9
 20
4.9
 10
-34.9
 20
5.0
  0
LWPOLYLINE
  5
36
330
17
100
AcDbEntity
  8
0
100
AcDbPolyline
 90
51
 70
0
 10
-20.0
 20
5.0
 10
-19.682000000000002
 20
5.0
 10
-19.364
 20
5.0
 10
-19.046
 20
5.0
 10
-18.728
 20
5.0
 10
-18.41
 20
5.0
 10
-18.092
 20
5.0
 10
-17.774
 20
5.0
 10
-17.456
 20
5.0
 10
-17.137999999999998
 20
5.0
 10
-16.82
 20
5.0
 10
-16.502000000000002
 20
5.0
 10
-16.184
 20
5.0
 10
-15.866
 20
5.0
 10
-15.548000000000002
 20
5.0
 10
-15.23
 20
5.0
 10
-14.912
 20
5.0
 10
-14.594000000000001
 20
5.0
 10
-14.276
 20
5.0
 10
-13.958000000000002
 20
5.0
 10
-13.64
 20
5.0
 10
-13.322
 20
5.0
 10
-13.004000000000001
 20
5.0
 10
-12.686
 20
5.0
 10
-12.368
 20
5.0
 10
-12.05
 20
5.0
 10
-11.732000000000001
 20
5.0
 10
-11.414000000000001
 20
5.0
 10
-11.096000000000002
 20
5.0
 10
-10.778
 20
5.0
 10
-10.46
 20
5.0
 10
-10.142000000000001
 20
5.0
 10
-9.824000000000002
 20
5.0
 10
-9.506000000000002
 20
5.0
 10
-9.188000000000002
 20
5.0
 10
-8.869999999999997
 20
5.0
 10
-8.552
 20
5.0
 10
-8.234000000000002
 20
5.0
 10
-7.916000000000004
 20
5.0
 10
-7.5980000000000025
 20
5.0
 10
-7.280000000000001
 20
5.0
 10
-6.962
 20
5.0
 10
-6.643999999999998
 20
5.0
 10
-6.3260000000000005
 20
5.0
 10
-6.008000000000003
 20
5.0
 10
-5.690000000000005
 20
5.0
 10
-5.372
 20
5.0
 10
-5.054000000000002
 20
5.0
 10
-4.736000000000001
 20
5.0
 10
-4.417999999999999
 20
5.0
 10
-4.100000000000001
 20
5.0
  0
LWPOLYLINE
  5
37
330
17
100
AcDbEntity
  8
0
100
AcDbPolyline
 90
51
 70
0
 10
-34.9
 20
5.0
 10
-34.284
 20
5.0
 10
-33.668
 20
5.0
 10
-33.052
 20
5.0
 10
-32.436
 20
5.0
 10
-31.82
 20
5.0
 10
-31.204
 20
5.0
 10
-30.588
 20
5.0
 10
-29.971999999999998
 20
5.0
 10
-29.355999999999998
 20
5.0
 10
-28.74
 20
5.0
 10
-28.124
 20
5.0
 10
-27.508
 20
5.0
 10
-26.892
 20
5.0
 10
-26.276
 20
5.0
 10
-25.66
 20
5.0
 10
-25.043999999999997
 20
5.0
 10
-24.428
 20
5.0
 10
-23.811999999999998
 20
5.0
 10
-23.195999999999998
 20
5.0
 10
-22.58
 20
5.0
 10
-21.964
 20
5.0
 10
-21.348
 20
5.0
 10
-20.732
 20
5.0
 10
-20.116
 20
5.0
 10
-19.5
 20
5.0
 10
-18.884
 20
5.0
 10
-18.268
 20
5.0
 10
-17.652
 20
5.0
 10
-17.036
 20
5.0
 10
-16.42
 20
5.0
 10
-15.803999999999998
 20
5.0
 10
-15.187999999999999
 20
5.0
 10
-14.572000000000003
 20
5.0
 10
-13.956000000000003
 20
5.0
 10
-13.34
 20
5.0
 10
-12.724
 20
5.0
 10
-12.108
 20
5.0
 10
-11.492
 20
5.0
 10
-10.876000000000001
 20
5.0
 10
-10.259999999999998
 20
5.0
 10
-9.643999999999998
 20
5.0
 10
-9.027999999999999
 20
5.0
 10
-8.412000000000003
 20
5.0
 10
-7.796000000000003
 20
5.0
 10
-7.180000000000003
 20
5.0
 10
-6.564
 20
5.0
 10
-5.948
 20
5.0
 10
-5.332000000000001
 20
5.0
 10
-4.716000000000001
 20
5.0
 10
-4.100000000000001
 20
5.0
  0
LWPOLYLINE
  5
38
330
17
100
AcDbEntity
  8
0
100
AcDbPolyline
 90
51
 70
0
 10
-4.1
 20
5.0
 10
-4.1
 20
5.14
 10
-4.1
 20
5.28
 10
-4.1
 20
5.42
 10
-4.1
 20
5.5600000000000005
 10
-4.1
 20
5.7
 10
-4.1
 20
5.84
 10
-4.1
 20
5.98
 10
-4.1
 20
6.12
 10
-4.1
 20
6.26
 10
-4.1
 20
6.4
 10
-4.1
 20
6.54
 10
-4.1
 20
6.68
 10
-4.1000000000000005
 20
6.82
 10
-4.1000000000000005
 20
6.96
 10
-4.1000000000000005
 20
7.1
 10
-4.1000000000000005
 20
7.24
 10
-4.1000000000000005
 20
7.38
 10
-4.1000000000000005
 20
7.52
 10
-4.1000000000000005
 20
7.66
 10
-4.1000000000000005
 20
7.8
 10
-4.1000000000000005
 20
7.9399999999999995
 10
-4.1000000000000005
 20
8.08
 10
-4.1000000000000005
 20
8.22
 10
-4.1000000000000005
 20
8.36
 10
-4.1000000000000005
 20
8.5
 10
-4.1000000000000005
 20
8.64
 10
-4.1000000000000005
 20
8.78
 10
-4.1000000000000005
 20
8.92
 10
-4.1000000000000005
 20
9.059999999999999
 10
-4.1000000000000005
 20
9.2
 10
-4.1000000000000005
 20
9.34
 10
-4.1000000000000005
 20
9.48
 10
-4.1000000000000005
 20
9.620000000000001
 10
-4.1000000000000005
 20
9.76
 10
-4.1000000000000005
 20
9.9
 10
-4.1000000000000005
 20
10.04
 10
-4.1000000000000005
 20
10.18
 10
-4.1000000000000005
 20
10.32
 10
-4.100000000000001
 20
10.46
 10
-4.100000000000001
 20
10.6
 10
-4.100000000000001
 20
10.74
 10
-4.100000000000001
 20
10.879999999999999
 10
-4.100000000000001
 20
11.02
 10
-4.100000000000001
 20
11.16
 10
-4.100000000000001
 20
11.3
 10
-4.100000000000001
 20
11.440000000000001
 10
-4.100000000000001
 20
11.58
 10
-4.100000000000001
 20
11.719999999999999
 10
-4.100000000000001
 20
11.86
 10
-4.100000000000001
 20
12.0
  0
ENDSEC
  0
SECTION
  2
OBJECTS
  0
DICTIONARY
  5
A
330
0
100
AcDbDictionary
280
0
281
1
  3
ACAD_COLOR
350
B
  3
ACAD_GROUP
350
C
  3
ACAD_LAYOUT
350
D
  3
ACAD_MATERIAL
350
E
  3
ACAD_MLEADERSTYLE
350
F
  3
ACAD_MLINESTYLE
350
10
  3
ACAD_PLOTSETTINGS
350
11
  3
ACAD_PLOTSTYLENAME
350
12
  3
ACAD_SCALELIST
350
14
  3
ACAD_TABLESTYLE
350
15
  3
ACAD_VISUALSTYLE
350
16
  3
EZDXF_META
350
2D
  0
DICTIONARY
  5
B
330
A
100
AcDbDictionary
280
0
281
1
  0
DICTIONARY
  5
C
330
A
100
AcDbDictionary
280
0
281
1
  0
DICTIONARY
  5
D
330
A
100
AcDbDictionary
280
0
281
1
  3
Model
350
1A
  3
Layout1
350
1E
  0
DICTIONARY
  5
E
330
A
100
AcDbDictionary
280
0
281
1
  3
ByBlock
350
1F
  3
ByLayer
350
20
  3
Global
350
21
  0
DICTIONARY
  5
F
330
A
100
AcDbDictionary
280
0
281
1
  3
Standard
350
2C
  0
DICTIONARY
  5
10
330
A
100
AcDbDictionary
280
0
281
1
  3
Standard
350
22
  0
DICTIONARY
  5
11
330
A
100
AcDbDictionary
280
0
281
1
  0
ACDBDICTIONARYWDFLT
  5
12
330
A
100
AcDbDictionary
280
0
281
1
  3
Normal
350
13
100
AcDbDictionaryWithDefault
340
13
  0
ACDBPLACEHOLDER
  5
13
330
12
  0
DICTIONARY
  5
14
330
A
100
AcDbDictionary
280
0
281
1
  0
DICTIONARY
  5
15
330
A
100
AcDbDictionary
280
0
281
1
  0
DICTIONARY
  5
16
330
A
100
AcDbDictionary
280
0
281
1
  0
LAYOUT
  5
1A
330
D
100
AcDbPlotSettings
  1

  2
Adobe PDF
  4
A3
  6

 40
7.5
 41
20.0
 42
7.5
 43
20.0
 44
420.0
 45
297.0
 46
0.0
 47
0.0
 48
0.0
 49
0.0
140
0.0
141
0.0
142
1.0
143
1.0
 70
1024
 72
1
 73
0
 74
5
  7

 75
16
 76
0
 77
2
 78
300
147
1.0
148
0.0
149
0.0
100
AcDbLayout
  1
Model
 70
1
 71
0
 10
0.0
 20
0.0
 11
420.0
 21
297.0
 12
0.0
 22
0.0
 32
0.0
 14
1e+20
 24
1e+20
 34
1e+20
 15
-1e+20
 25
-1e+20
 35
-1e+20
146
0.0
 13
0.0
 23
0.0
 33
0.0
 16
1.0
 26
0.0
 36
0.0
 17
0.0
 27
1.0
 37
0.0
 76
1
330
17
  0
LAYOUT
  5
1E
330
D
100
AcDbPlotSettings
  1

  2
Adobe PDF
  4
A3
  6

 40
7.5
 41
20.0
 42
7.5
 43
20.0
 44
420.0
 45
297.0
 46
0.0
 47
0.0
 48
0.0
 49
0.0
140
0.0
141
0.0
142
1.0
143
1.0
 70
0
 72
1
 73
0
 74
5
  7

 75
16
 76
0
 77
2
 78
300
147
1.0
148
0.0
149
0.0
100
AcDbLayout
  1
Layout1
 70
1
 71
1
 10
0.0
 20
0.0
 11
420.0
 21
297.0
 12
0.0
 22
0.0
 32
0.0
 14
1e+20
 24
1e+20
 34
1e+20
 15
-1e+20
 25
-1e+20
 35
-1e+20
146
0.0
 13
0.0
 23
0.0
 33
0.0
 16
1.0
 26
0.0
 36
0.0
 17
0.0
 27
1.0
 37
0.0
 76
1
330
1B
  0
MATERIAL
  5
1F
102
{ACAD_REACTORS
330
E
102
}
330
E
100
AcDbMaterial
  1
ByBlock
  2

 70
0
 40
1.0
 71
1
 41
1.0
 91
-1023410177
 42
1.0
 72
1
  3

 73
1
 74
1
 75
1
 44
0.5
 73
0
 45
1.0
 46
1.0
 77
1
  4

 78
1
 79
1
170
1
 48
1.0
171
1
  6

172
1
173
1
174
1
140
1.0
141
1.0
175
1
  7

176
1
177
1
178
1
143
1.0
179
1
  8

270
1
271
1
272
1
145
1.0
146
1.0
273
1
  9

274
1
275
1
276
1
 42
1.0
 72
1
  3

 73
1
 74
1
 75
1
 94
63
  0
MATERIAL
  5
20
102
{ACAD_REACTORS
330
E
102
}
330
E
100
AcDbMaterial
  1
ByLayer
  2

 70
0
 40
1.0
 71
1
 41
1.0
 91
-1023410177
 42
1.0
 72
1
  3

 73
1
 74
1
 75
1
 44
0.5
 73
0
 45
1.0
 46
1.0
 77
1
  4

 78
1
 79
1
170
1
 48
1.0
171
1
  6

172
1
173
1
174
1
140
1.0
141
1.0
175
1
  7

176
1
177
1
178
1
143
1.0
179
1
  8

270
1
271
1
272
1
145
1.0
146
1.0
273
1
  9

274
1
275
1
276
1
 42
1.0
 72
1
  3

 73
1
 74
1
 75
1
 94
63
  0
MATERIAL
  5
21
102
{ACAD_REACTORS
330
E
102
}
330
E
100
AcDbMaterial
  1
Global
  2

 70
0
 40
1.0
 71
1
 41
1.0
 91
-1023410177
 42
1.0
 72
1
  3

 73
1
 74
1
 75
1
 44
0.5
 73
0
 45
1.0
 46
1.0
 77
1
  4

 78
1
 79
1
170
1
 48
1.0
171
1
  6

172
1
173
1
174
1
140
1.0
141
1.0
175
1
  7

176
1
177
1
178
1
143
1.0
179
1
  8

270
1
271
1
272
1
145
1.0
146
1.0
273
1
  9

274
1
275
1
276
1
 42
1.0
 72
1
  3

 73
1
 74
1
 75
1
 94
63
  0
MLINESTYLE
  5
22
102
{ACAD_REACTORS
330
10
102
}
330
10
100
AcDbMlineStyle
  2
Standard
 70
0
  3

 62
256
 51
90.0
 52
90.0
 71
2
 49
0.5
 62
256
  6
BYLAYER
 49
-0.5
 62
256
  6
BYLAYER
  0
MLEADERSTYLE
  5
2C
102
{ACAD_REACTORS
330
F
102
}
330
F
100
AcDbMLeaderStyle
179
2
170
2
171
1
172
0
 90
2
 40
0.0
 41
0.0
173
1
 91
-1056964608
 92
-2
290
1
 42
2.0
291
1
 43
8.0
  3
Standard
 44
4.0
300

342
29
174
1
175
1
176
0
178
1
 93
-1056964608
 45
4.0
292
0
297
0
 46
4.0
 94
-1056964608
 47
1.0
 49
1.0
140
1.0
294
1
141
0.0
177
0
142
1.0
295
0
296
0
143
3.75
271
0
272
9
273
9
  0
DICTIONARY
  5
2D
330
A
100
AcDbDictionary
281
1
  3
CREATED_BY_EZDXF
350
2E
  3
WRITTEN_BY_EZDXF
350
3B
  0
DICTIONARYVAR
  5
2E
330
2D
100
DictionaryVariables
280
0
  1
1.0.3 @ 2025-05-29T09:38:45.442260+00:00
  0
DICTIONARYVAR
  5
3B
330
2D
100
DictionaryVariables
280
0
  1
1.0.3 @ 2025-05-29T09:38:45.445230+00:00
  0
ENDSEC
  0
EOF
