  0
SECTION
  2
HEADER
  9
$ACADVER
  1
AC1027
  9
$ACADMAINTVER
 70
105
  9
$DWGCODEPAGE
  3
ANSI_1252
  9
$LASTSAVEDBY
  1
ezdxf
  9
$REQUIREDVERSIONS
160
0
  9
$INSBASE
 10
0.0
 20
0.0
 30
0.0
  9
$EXTMIN
 10
1e+20
 20
1e+20
 30
1e+20
  9
$EXTMAX
 10
-1e+20
 20
-1e+20
 30
-1e+20
  9
$LIMMIN
 10
0.0
 20
0.0
  9
$LIMMAX
 10
420.0
 20
297.0
  9
$ORTHOMODE
 70
0
  9
$REGENMODE
 70
1
  9
$FILLMODE
 70
1
  9
$QTEXTMODE
 70
0
  9
$MIRRTEXT
 70
1
  9
$LTSCALE
 40
1.0
  9
$ATTMODE
 70
1
  9
$TEXTSIZE
 40
2.5
  9
$TRACEWID
 40
1.0
  9
$TEXTSTYLE
  7
Standard
  9
$CLAYER
  8
0
  9
$CELTYPE
  6
ByLayer
  9
$CECOLOR
 62
256
  9
$CELTSCALE
 40
1.0
  9
$DISPSILH
 70
0
  9
$DIMSCALE
 40
1.0
  9
$DIMASZ
 40
2.5
  9
$DIMEXO
 40
0.625
  9
$DIMDLI
 40
3.75
  9
$DIMRND
 40
0.0
  9
$DIMDLE
 40
0.0
  9
$DIMEXE
 40
1.25
  9
$DIMTP
 40
0.0
  9
$DIMTM
 40
0.0
  9
$DIMTXT
 40
2.5
  9
$DIMCEN
 40
2.5
  9
$DIMTSZ
 40
0.0
  9
$DIMTOL
 70
0
  9
$DIMLIM
 70
0
  9
$DIMTIH
 70
0
  9
$DIMTOH
 70
0
  9
$DIMSE1
 70
0
  9
$DIMSE2
 70
0
  9
$DIMTAD
 70
1
  9
$DIMZIN
 70
8
  9
$DIMBLK
  1

  9
$DIMASO
 70
1
  9
$DIMSHO
 70
1
  9
$DIMPOST
  1

  9
$DIMAPOST
  1

  9
$DIMALT
 70
0
  9
$DIMALTD
 70
3
  9
$DIMALTF
 40
0.03937007874
  9
$DIMLFAC
 40
1.0
  9
$DIMTOFL
 70
1
  9
$DIMTVP
 40
0.0
  9
$DIMTIX
 70
0
  9
$DIMSOXD
 70
0
  9
$DIMSAH
 70
0
  9
$DIMBLK1
  1

  9
$DIMBLK2
  1

  9
$DIMSTYLE
  2
ISO-25
  9
$DIMCLRD
 70
0
  9
$DIMCLRE
 70
0
  9
$DIMCLRT
 70
0
  9
$DIMTFAC
 40
1.0
  9
$DIMGAP
 40
0.625
  9
$DIMJUST
 70
0
  9
$DIMSD1
 70
0
  9
$DIMSD2
 70
0
  9
$DIMTOLJ
 70
0
  9
$DIMTZIN
 70
8
  9
$DIMALTZ
 70
0
  9
$DIMALTTZ
 70
0
  9
$DIMUPT
 70
0
  9
$DIMDEC
 70
2
  9
$DIMTDEC
 70
2
  9
$DIMALTU
 70
2
  9
$DIMALTTD
 70
3
  9
$DIMTXSTY
  7
Standard
  9
$DIMAUNIT
 70
0
  9
$DIMADEC
 70
0
  9
$DIMALTRND
 40
0.0
  9
$DIMAZIN
 70
0
  9
$DIMDSEP
 70
44
  9
$DIMATFIT
 70
3
  9
$DIMFRAC
 70
0
  9
$DIMLDRBLK
  1

  9
$DIMLUNIT
 70
2
  9
$DIMLWD
 70
-2
  9
$DIMLWE
 70
-2
  9
$DIMTMOVE
 70
0
  9
$DIMFXL
 40
1.0
  9
$DIMFXLON
 70
0
  9
$DIMJOGANG
 40
0.785398163397
  9
$DIMTFILL
 70
0
  9
$DIMTFILLCLR
 70
0
  9
$DIMARCSYM
 70
0
  9
$DIMLTYPE
  6

  9
$DIMLTEX1
  6

  9
$DIMLTEX2
  6

  9
$DIMTXTDIRECTION
 70
0
  9
$LUNITS
 70
2
  9
$LUPREC
 70
4
  9
$SKETCHINC
 40
1.0
  9
$FILLETRAD
 40
10.0
  9
$AUNITS
 70
0
  9
$AUPREC
 70
2
  9
$MENU
  1
.
  9
$ELEVATION
 40
0.0
  9
$PELEVATION
 40
0.0
  9
$THICKNESS
 40
0.0
  9
$LIMCHECK
 70
0
  9
$CHAMFERA
 40
0.0
  9
$CHAMFERB
 40
0.0
  9
$CHAMFERC
 40
0.0
  9
$CHAMFERD
 40
0.0
  9
$SKPOLY
 70
0
  9
$TDCREATE
 40
2460825.776909722
  9
$TDUCREATE
 40
2458532.153996898
  9
$TDUPDATE
 40
2460825.776909722
  9
$TDUUPDATE
 40
2458532.1544311
  9
$TDINDWG
 40
0.0
  9
$TDUSRTIMER
 40
0.0
  9
$USRTIMER
 70
1
  9
$ANGBASE
 50
0.0
  9
$ANGDIR
 70
0
  9
$PDMODE
 70
0
  9
$PDSIZE
 40
0.0
  9
$PLINEWID
 40
0.0
  9
$SPLFRAME
 70
0
  9
$SPLINETYPE
 70
6
  9
$SPLINESEGS
 70
8
  9
$HANDSEED
  5
3B
  9
$SURFTAB1
 70
6
  9
$SURFTAB2
 70
6
  9
$SURFTYPE
 70
6
  9
$SURFU
 70
6
  9
$SURFV
 70
6
  9
$UCSBASE
  2

  9
$UCSNAME
  2

  9
$UCSORG
 10
0.0
 20
0.0
 30
0.0
  9
$UCSXDIR
 10
1.0
 20
0.0
 30
0.0
  9
$UCSYDIR
 10
0.0
 20
1.0
 30
0.0
  9
$UCSORTHOREF
  2

  9
$UCSORTHOVIEW
 70
0
  9
$UCSORGTOP
 10
0.0
 20
0.0
 30
0.0
  9
$UCSORGBOTTOM
 10
0.0
 20
0.0
 30
0.0
  9
$UCSORGLEFT
 10
0.0
 20
0.0
 30
0.0
  9
$UCSORGRIGHT
 10
0.0
 20
0.0
 30
0.0
  9
$UCSORGFRONT
 10
0.0
 20
0.0
 30
0.0
  9
$UCSORGBACK
 10
0.0
 20
0.0
 30
0.0
  9
$PUCSBASE
  2

  9
$PUCSNAME
  2

  9
$PUCSORG
 10
0.0
 20
0.0
 30
0.0
  9
$PUCSXDIR
 10
1.0
 20
0.0
 30
0.0
  9
$PUCSYDIR
 10
0.0
 20
1.0
 30
0.0
  9
$PUCSORTHOREF
  2

  9
$PUCSORTHOVIEW
 70
0
  9
$PUCSORGTOP
 10
0.0
 20
0.0
 30
0.0
  9
$PUCSORGBOTTOM
 10
0.0
 20
0.0
 30
0.0
  9
$PUCSORGLEFT
 10
0.0
 20
0.0
 30
0.0
  9
$PUCSORGRIGHT
 10
0.0
 20
0.0
 30
0.0
  9
$PUCSORGFRONT
 10
0.0
 20
0.0
 30
0.0
  9
$PUCSORGBACK
 10
0.0
 20
0.0
 30
0.0
  9
$USERI1
 70
0
  9
$USERI2
 70
0
  9
$USERI3
 70
0
  9
$USERI4
 70
0
  9
$USERI5
 70
0
  9
$USERR1
 40
0.0
  9
$USERR2
 40
0.0
  9
$USERR3
 40
0.0
  9
$USERR4
 40
0.0
  9
$USERR5
 40
0.0
  9
$WORLDVIEW
 70
1
  9
$SHADEDGE
 70
3
  9
$SHADEDIF
 70
70
  9
$TILEMODE
 70
1
  9
$MAXACTVP
 70
64
  9
$PINSBASE
 10
0.0
 20
0.0
 30
0.0
  9
$PLIMCHECK
 70
0
  9
$PEXTMIN
 10
1e+20
 20
1e+20
 30
1e+20
  9
$PEXTMAX
 10
-1e+20
 20
-1e+20
 30
-1e+20
  9
$PLIMMIN
 10
0.0
 20
0.0
  9
$PLIMMAX
 10
420.0
 20
297.0
  9
$UNITMODE
 70
0
  9
$VISRETAIN
 70
1
  9
$PLINEGEN
 70
0
  9
$PSLTSCALE
 70
1
  9
$TREEDEPTH
 70
3020
  9
$CMLSTYLE
  2
Standard
  9
$CMLJUST
 70
0
  9
$CMLSCALE
 40
20.0
  9
$PROXYGRAPHICS
 70
1
  9
$MEASUREMENT
 70
1
  9
$CELWEIGHT
370
-1
  9
$ENDCAPS
280
0
  9
$JOINSTYLE
280
0
  9
$LWDISPLAY
290
0
  9
$INSUNITS
 70
6
  9
$HYPERLINKBASE
  1

  9
$STYLESHEET
  1

  9
$XEDIT
290
1
  9
$CEPSNTYPE
380
0
  9
$PSTYLEMODE
290
1
  9
$FINGERPRINTGUID
  2
{193F439B-71BB-49DF-A955-7234ECA86A62}
  9
$VERSIONGUID
  2
{53AA80EE-C958-47C6-B1C9-A17DBEBD58C1}
  9
$EXTNAMES
290
1
  9
$PSVPSCALE
 40
0.0
  9
$OLESTARTUP
290
0
  9
$SORTENTS
280
127
  9
$INDEXCTL
280
0
  9
$HIDETEXT
280
1
  9
$XCLIPFRAME
280
0
  9
$HALOGAP
280
0
  9
$OBSCOLOR
 70
257
  9
$OBSLTYPE
280
0
  9
$INTERSECTIONDISPLAY
280
0
  9
$INTERSECTIONCOLOR
 70
257
  9
$DIMASSOC
280
2
  9
$PROJECTNAME
  1

  9
$CAMERADISPLAY
290
0
  9
$LENSLENGTH
 40
50.0
  9
$CAMERAHEIGHT
 40
0.0
  9
$STEPSPERSEC
 40
24.0
  9
$STEPSIZE
 40
100.0
  9
$3DDWFPREC
 40
2.0
  9
$PSOLWIDTH
 40
0.005
  9
$PSOLHEIGHT
 40
0.08
  9
$LOFTANG1
 40
1.570796326795
  9
$LOFTANG2
 40
1.570796326795
  9
$LOFTMAG1
 40
0.0
  9
$LOFTMAG2
 40
0.0
  9
$LOFTPARAM
 70
7
  9
$LOFTNORMALS
280
1
  9
$LATITUDE
 40
37.795
  9
$LONGITUDE
 40
-122.394
  9
$NORTHDIRECTION
 40
0.0
  9
$TIMEZONE
 70
-8000
  9
$LIGHTGLYPHDISPLAY
280
1
  9
$TILEMODELIGHTSYNCH
280
1
  9
$CMATERIAL
347
20
  9
$SOLIDHIST
280
0
  9
$SHOWHIST
280
1
  9
$DWFFRAME
280
2
  9
$DGNFRAME
280
2
  9
$REALWORLDSCALE
290
1
  9
$INTERFERECOLOR
 62
256
  9
$CSHADOW
280
0
  9
$SHADOWPLANELOCATION
 40
0.0
  0
ENDSEC
  0
SECTION
  2
CLASSES
  0
CLASS
  1
ACDBDICTIONARYWDFLT
  2
AcDbDictionaryWithDefault
  3
ObjectDBX Classes
 90
0
 91
0
280
0
281
0
  0
CLASS
  1
SUN
  2
AcDbSun
  3
SCENEOE
 90
1153
 91
0
280
0
281
0
  0
CLASS
  1
VISUALSTYLE
  2
AcDbVisualStyle
  3
ObjectDBX Classes
 90
4095
 91
0
280
0
281
0
  0
CLASS
  1
MATERIAL
  2
AcDbMaterial
  3
ObjectDBX Classes
 90
1153
 91
0
280
0
281
0
  0
CLASS
  1
SCALE
  2
AcDbScale
  3
ObjectDBX Classes
 90
1153
 91
0
280
0
281
0
  0
CLASS
  1
TABLESTYLE
  2
AcDbTableStyle
  3
ObjectDBX Classes
 90
4095
 91
0
280
0
281
0
  0
CLASS
  1
MLEADERSTYLE
  2
AcDbMLeaderStyle
  3
ACDB_MLEADERSTYLE_CLASS
 90
4095
 91
0
280
0
281
0
  0
CLASS
  1
DICTIONARYVAR
  2
AcDbDictionaryVar
  3
ObjectDBX Classes
 90
0
 91
0
280
0
281
0
  0
CLASS
  1
CELLSTYLEMAP
  2
AcDbCellStyleMap
  3
ObjectDBX Classes
 90
1152
 91
0
280
0
281
0
  0
CLASS
  1
MENTALRAYRENDERSETTINGS
  2
AcDbMentalRayRenderSettings
  3
SCENEOE
 90
1024
 91
0
280
0
281
0
  0
CLASS
  1
ACDBDETAILVIEWSTYLE
  2
AcDbDetailViewStyle
  3
ObjectDBX Classes
 90
1025
 91
0
280
0
281
0
  0
CLASS
  1
ACDBSECTIONVIEWSTYLE
  2
AcDbSectionViewStyle
  3
ObjectDBX Classes
 90
1025
 91
0
280
0
281
0
  0
CLASS
  1
RASTERVARIABLES
  2
AcDbRasterVariables
  3
ISM
 90
0
 91
0
280
0
281
0
  0
CLASS
  1
LAYOUT
  2
AcDbLayout
  3
ObjectDBX Classes
 90
0
 91
0
280
0
281
0
  0
CLASS
  1
ACDBPLACEHOLDER
  2
AcDbPlaceHolder
  3
ObjectDBX Classes
 90
0
 91
0
280
0
281
0
  0
ENDSEC
  0
SECTION
  2
TABLES
  0
TABLE
  2
VPORT
  5
8
330
0
100
AcDbSymbolTable
 70
1
  0
VPORT
  5
23
330
8
100
AcDbSymbolTableRecord
100
AcDbViewportTableRecord
  2
*Active
 70
0
 10
0.0
 20
0.0
 11
1.0
 21
1.0
 12
0.0
 22
0.0
 13
0.0
 23
0.0
 14
0.5
 24
0.5
 15
0.5
 25
0.5
 16
0.0
 26
0.0
 36
1.0
 17
0.0
 27
0.0
 37
0.0
 40
1000.0
 41
1.34
 42
50.0
 43
0.0
 44
0.0
 50
0.0
 51
0.0
 71
0
 72
1000
 73
1
 74
3
 75
0
 76
0
 77
0
 78
0
281
0
 65
0
146
0.0
  0
ENDTAB
  0
TABLE
  2
LTYPE
  5
2
330
0
100
AcDbSymbolTable
 70
3
  0
LTYPE
  5
24
330
2
100
AcDbSymbolTableRecord
100
AcDbLinetypeTableRecord
  2
ByBlock
 70
0
  3

 72
65
 73
0
 40
0.0
  0
LTYPE
  5
25
330
2
100
AcDbSymbolTableRecord
100
AcDbLinetypeTableRecord
  2
ByLayer
 70
0
  3

 72
65
 73
0
 40
0.0
  0
LTYPE
  5
26
330
2
100
AcDbSymbolTableRecord
100
AcDbLinetypeTableRecord
  2
Continuous
 70
0
  3

 72
65
 73
0
 40
0.0
  0
ENDTAB
  0
TABLE
  2
LAYER
  5
1
330
0
100
AcDbSymbolTable
 70
2
  0
LAYER
  5
27
330
1
100
AcDbSymbolTableRecord
100
AcDbLayerTableRecord
  2
0
 70
0
 62
7
  6
Continuous
370
-3
390
13
347
21
  0
LAYER
  5
28
330
1
100
AcDbSymbolTableRecord
100
AcDbLayerTableRecord
  2
Defpoints
 70
0
 62
7
  6
Continuous
290
0
370
-3
390
13
347
21
  0
ENDTAB
  0
TABLE
  2
STYLE
  5
5
330
0
100
AcDbSymbolTable
 70
1
  0
STYLE
  5
29
330
5
100
AcDbSymbolTableRecord
100
AcDbTextStyleTableRecord
  2
Standard
 70
0
 40
0.0
 41
1.0
 50
0.0
 71
0
 42
2.5
  3
txt
  4

  0
ENDTAB
  0
TABLE
  2
VIEW
  5
7
330
0
100
AcDbSymbolTable
 70
0
  0
ENDTAB
  0
TABLE
  2
UCS
  5
6
330
0
100
AcDbSymbolTable
 70
0
  0
ENDTAB
  0
TABLE
  2
APPID
  5
3
330
0
100
AcDbSymbolTable
 70
3
  0
APPID
  5
2A
330
3
100
AcDbSymbolTableRecord
100
AcDbRegAppTableRecord
  2
ACAD
 70
0
  0
APPID
  5
38
330
3
100
AcDbSymbolTableRecord
100
AcDbRegAppTableRecord
  2
HATCHBACKGROUNDCOLOR
 70
0
  0
APPID
  5
39
330
3
100
AcDbSymbolTableRecord
100
AcDbRegAppTableRecord
  2
EZDXF
 70
0
  0
ENDTAB
  0
TABLE
  2
DIMSTYLE
  5
4
330
0
100
AcDbSymbolTable
 70
1
100
AcDbDimStyleTable
  0
DIMSTYLE
105
2B
330
4
100
AcDbSymbolTableRecord
100
AcDbDimStyleTableRecord
  2
Standard
 70
0
 40
1.0
 41
2.5
 42
0.625
 43
3.75
 44
1.25
 45
0.0
 46
0.0
 47
0.0
 48
0.0
 49
2.5
140
2.5
141
2.5
142
0.0
143
0.03937007874
144
1.0
145
0.0
146
1.0
147
0.625
148
0.0
 69
0
 70
0
 71
0
 72
0
 73
0
 74
0
 75
0
 76
0
 77
1
 78
8
 79
3
170
0
171
3
172
1
173
0
174
0
175
0
176
0
177
0
178
0
179
2
271
2
272
2
273
2
274
3
275
0
276
0
277
2
278
44
279
0
280
0
281
0
282
0
283
0
284
8
285
0
286
0
288
0
289
3
290
0
371
-2
372
-2
  0
ENDTAB
  0
TABLE
  2
BLOCK_RECORD
  5
9
330
0
100
AcDbSymbolTable
 70
2
  0
BLOCK_RECORD
  5
17
330
9
100
AcDbSymbolTableRecord
100
AcDbBlockTableRecord
  2
*Model_Space
340
1A
 70
0
280
1
281
0
  0
BLOCK_RECORD
  5
1B
330
9
100
AcDbSymbolTableRecord
100
AcDbBlockTableRecord
  2
*Paper_Space
340
1E
 70
0
280
1
281
0
  0
ENDTAB
  0
ENDSEC
  0
SECTION
  2
BLOCKS
  0
BLOCK
  5
18
330
17
100
AcDbEntity
  8
0
100
AcDbBlockBegin
  2
*Model_Space
 70
0
 10
0.0
 20
0.0
 30
0.0
  3
*Model_Space
  1

  0
ENDBLK
  5
19
330
17
100
AcDbEntity
  8
0
100
AcDbBlockEnd
  0
BLOCK
  5
1C
330
1B
100
AcDbEntity
  8
0
100
AcDbBlockBegin
  2
*Paper_Space
 70
0
 10
0.0
 20
0.0
 30
0.0
  3
*Paper_Space
  1

  0
ENDBLK
  5
1D
330
1B
100
AcDbEntity
  8
0
100
AcDbBlockEnd
  0
ENDSEC
  0
SECTION
  2
ENTITIES
  0
LWPOLYLINE
  5
2F
330
17
100
AcDbEntity
  8
0
100
AcDbPolyline
 90
51
 70
0
 10
3.9000000000000017
 20
12.0
 10
3.9000000000000017
 20
11.86
 10
3.9000000000000017
 20
11.719999999999999
 10
3.9000000000000017
 20
11.58
 10
3.9000000000000017
 20
11.44
 10
3.9000000000000017
 20
11.3
 10
3.9000000000000012
 20
11.16
 10
3.9000000000000012
 20
11.02
 10
3.9000000000000012
 20
10.879999999999999
 10
3.9000000000000012
 20
10.74
 10
3.9000000000000012
 20
10.6
 10
3.9000000000000012
 20
10.46
 10
3.9000000000000012
 20
10.32
 10
3.9000000000000012
 20
10.18
 10
3.9000000000000012
 20
10.04
 10
3.9000000000000012
 20
9.9
 10
3.9000000000000012
 20
9.76
 10
3.9000000000000012
 20
9.620000000000001
 10
3.900000000000001
 20
9.48
 10
3.900000000000001
 20
9.34
 10
3.900000000000001
 20
9.2
 10
3.900000000000001
 20
9.06
 10
3.900000000000001
 20
8.92
 10
3.900000000000001
 20
8.78
 10
3.900000000000001
 20
8.64
 10
3.900000000000001
 20
8.5
 10
3.900000000000001
 20
8.36
 10
3.900000000000001
 20
8.22
 10
3.900000000000001
 20
8.08
 10
3.900000000000001
 20
7.94
 10
3.900000000000001
 20
7.8
 10
3.9000000000000004
 20
7.66
 10
3.9000000000000004
 20
7.52
 10
3.9000000000000004
 20
7.38
 10
3.9000000000000004
 20
7.24
 10
3.9000000000000004
 20
7.1
 10
3.9000000000000004
 20
6.96
 10
3.9000000000000004
 20
6.82
 10
3.9000000000000004
 20
6.68
 10
3.9000000000000004
 20
6.54
 10
3.9000000000000004
 20
6.4
 10
3.9000000000000004
 20
6.26
 10
3.9000000000000004
 20
6.12
 10
3.9000000000000004
 20
5.98
 10
3.9
 20
5.84
 10
3.9
 20
5.7
 10
3.9
 20
5.56
 10
3.9
 20
5.42
 10
3.9
 20
5.28
 10
3.9
 20
5.14
 10
3.9
 20
5.0
  0
LWPOLYLINE
  5
30
330
17
100
AcDbEntity
  8
0
100
AcDbPolyline
 90
51
 70
0
 10
-10.1
 20
7.176481631177009e-16
 10
-9.196
 20
6.534150998049879e-16
 10
-8.292
 20
5.891820364922748e-16
 10
-7.387999999999999
 20
5.249489731795617e-16
 10
-6.484
 20
4.607159098668488e-16
 10
-5.58
 20
3.9648284655413577e-16
 10
-4.675999999999998
 20
3.322497832414226e-16
 10
-3.7719999999999994
 20
2.6801671992870967e-16
 10
-2.8679999999999994
 20
2.0378365661599664e-16
 10
-1.9639999999999986
 20
1.3955059330328354e-16
 10
-1.0600000000000005
 20
7.531752999057063e-17
 10
-0.1559999999999988
 20
1.1084466677857475e-17
 10
0.7480000000000029
 20
-5.314859663485568e-17
 10
1.652000000000001
 20
-1.1738165994756858e-16
 10
2.556000000000001
 20
-1.816147232602816e-16
 10
3.460000000000001
 20
-2.4584778657299466e-16
 10
4.364000000000001
 20
-3.1008084988570766e-16
 10
5.2680000000000025
 20
-3.743139131984208e-16
 10
6.172000000000002
 20
-4.3854697651113386e-16
 10
7.076000000000002
 20
-5.027800398238469e-16
 10
7.979999999999999
 20
-5.670131031365596e-16
 10
8.884000000000002
 20
-6.312461664492729e-16
 10
9.788000000000002
 20
-6.95479229761986e-16
 10
10.692000000000002
 20
-7.59712293074699e-16
 10
11.596000000000005
 20
-8.239453563874123e-16
 10
12.500000000000002
 20
-8.88178419700125e-16
 10
13.404000000000002
 20
-9.52411483012838e-16
 10
14.308000000000002
 20
-1.016644546325551e-15
 10
15.212000000000002
 20
-1.0808776096382642e-15
 10
16.116000000000007
 20
-1.1451106729509776e-15
 10
17.020000000000003
 20
-1.2093437362636902e-15
 10
17.924
 20
-1.273576799576403e-15
 10
18.828000000000003
 20
-1.3378098628891165e-15
 10
19.732000000000006
 20
-1.4020429262018297e-15
 10
20.636000000000003
 20
-1.4662759895145425e-15
 10
21.54
 20
-1.5305090528272553e-15
 10
22.444000000000003
 20
-1.5947421161399685e-15
 10
23.348
 20
-1.6589751794526813e-15
 10
24.252000000000002
 20
-1.7232082427653947e-15
 10
25.156
 20
-1.7874413060781073e-15
 10
26.059999999999995
 20
-1.8516743693908203e-15
 10
26.964
 20
-1.9159074327035333e-15
 10
27.868000000000002
 20
-1.9801404960162467e-15
 10
28.772
 20
-2.0443735593289593e-15
 10
29.676000000000002
 20
-2.1086066226416727e-15
 10
30.580000000000005
 20
-2.172839685954386e-15
 10
31.484
 20
-2.2370727492670987e-15
 10
32.388
 20
-2.3013058125798117e-15
 10
33.29200000000001
 20
-2.3655388758925255e-15
 10
34.196000000000005
 20
-2.429771939205238e-15
 10
35.1
 20
-2.494005002517951e-15
  0
LWPOLYLINE
  5
31
330
17
100
AcDbEntity
  8
0
100
AcDbPolyline
 90
51
 70
0
 10
35.1
 20
-2.49400500251795e-15
 10
35.1
 20
0.09999999999999755
 10
35.1
 20
0.1999999999999976
 10
35.1
 20
0.29999999999999766
 10
35.1
 20
0.3999999999999977
 10
35.1
 20
0.49999999999999784
 10
35.1
 20
0.5999999999999979
 10
35.1
 20
0.699999999999998
 10
35.1
 20
0.7999999999999979
 10
35.1
 20
0.899999999999998
 10
35.1
 20
0.9999999999999982
 10
35.1
 20
1.099999999999998
 10
35.1
 20
1.1999999999999982
 10
35.1
 20
1.299999999999998
 10
35.1
 20
1.3999999999999984
 10
35.1
 20
1.4999999999999984
 10
35.1
 20
1.5999999999999983
 10
35.1
 20
1.6999999999999984
 10
35.1
 20
1.7999999999999985
 10
35.1
 20
1.8999999999999988
 10
35.1
 20
1.9999999999999987
 10
35.1
 20
2.0999999999999983
 10
35.1
 20
2.1999999999999984
 10
35.1
 20
2.2999999999999985
 10
35.1
 20
2.3999999999999986
 10
35.1
 20
2.4999999999999987
 10
35.1
 20
2.5999999999999983
 10
35.1
 20
2.699999999999999
 10
35.1
 20
2.799999999999999
 10
35.1
 20
2.899999999999999
 10
35.1
 20
2.999999999999999
 10
35.1
 20
3.099999999999999
 10
35.1
 20
3.199999999999999
 10
35.1
 20
3.299999999999999
 10
35.1
 20
3.399999999999999
 10
35.1
 20
3.499999999999999
 10
35.1
 20
3.599999999999999
 10
35.1
 20
3.699999999999999
 10
35.1
 20
3.8
 10
35.1
 20
3.8999999999999995
 10
35.1
 20
4.0
 10
35.1
 20
4.1
 10
35.1
 20
4.199999999999999
 10
35.1
 20
4.3
 10
35.1
 20
4.3999999999999995
 10
35.1
 20
4.5
 10
35.1
 20
4.6
 10
35.1
 20
4.699999999999999
 10
35.1
 20
4.8
 10
35.1
 20
4.9
 10
35.1
 20
5.0
  0
LWPOLYLINE
  5
32
330
17
100
AcDbEntity
  8
0
100
AcDbPolyline
 90
51
 70
0
 10
3.8999999999999986
 20
5.0
 10
4.221999999999998
 20
5.0
 10
4.543999999999997
 20
5.0
 10
4.866
 20
5.0
 10
5.187999999999999
 20
5.0
 10
5.509999999999998
 20
5.0
 10
5.831999999999997
 20
5.0
 10
6.154
 20
5.0
 10
6.475999999999999
 20
5.0
 10
6.797999999999998
 20
5.0
 10
7.119999999999997
 20
5.0
 10
7.442
 20
5.0
 10
7.763999999999999
 20
5.0
 10
8.085999999999999
 20
5.0
 10
8.408000000000001
 20
5.0
 10
8.73
 20
5.0
 10
9.052
 20
5.0
 10
9.373999999999999
 20
5.0
 10
9.695999999999998
 20
5.0
 10
10.017999999999999
 20
5.0
 10
10.34
 20
5.0
 10
10.661999999999999
 20
5.0
 10
10.983999999999998
 20
5.0
 10
11.306
 20
5.0
 10
11.628
 20
5.0
 10
11.95
 20
5.0
 10
12.271999999999998
 20
5.0
 10
12.594
 20
5.0
 10
12.916
 20
5.0
 10
13.238
 20
5.0
 10
13.56
 20
5.0
 10
13.882
 20
5.0
 10
14.203999999999999
 20
5.0
 10
14.526
 20
5.0
 10
14.848
 20
5.0
 10
15.169999999999998
 20
5.0
 10
15.491999999999999
 20
5.0
 10
15.814
 20
5.0
 10
16.136
 20
5.0
 10
16.458
 20
5.0
 10
16.78
 20
5.0
 10
17.101999999999997
 20
5.0
 10
17.424
 20
5.0
 10
17.746000000000002
 20
5.0
 10
18.067999999999998
 20
5.0
 10
18.39
 20
5.0
 10
18.712
 20
5.0
 10
19.034
 20
5.0
 10
19.356
 20
5.0
 10
19.678
 20
5.0
 10
20.0
 20
5.0
  0
LWPOLYLINE
  5
33
330
17
100
AcDbEntity
  8
0
100
AcDbPolyline
 90
51
 70
0
 10
35.1
 20
5.0
 10
34.476
 20
5.0
 10
33.852000000000004
 20
5.0
 10
33.228
 20
5.0
 10
32.604
 20
5.0
 10
31.98
 20
5.0
 10
31.356
 20
5.0
 10
30.732
 20
5.0
 10
30.108
 20
5.0
 10
29.484
 20
5.0
 10
28.86
 20
5.0
 10
28.236
 20
5.0
 10
27.612000000000002
 20
5.0
 10
26.988
 20
5.0
 10
26.364
 20
5.0
 10
25.740000000000002
 20
5.0
 10
25.116
 20
5.0
 10
24.491999999999997
 20
5.0
 10
23.868000000000002
 20
5.0
 10
23.244
 20
5.0
 10
22.62
 20
5.0
 10
21.996000000000002
 20
5.0
 10
21.372
 20
5.0
 10
20.748
 20
5.0
 10
20.124000000000002
 20
5.0
 10
19.5
 20
5.0
 10
18.876
 20
5.0
 10
18.252
 20
5.0
 10
17.628
 20
5.0
 10
17.004
 20
5.0
 10
16.38
 20
5.0
 10
15.756
 20
5.0
 10
15.131999999999998
 20
5.0
 10
14.508
 20
5.0
 10
13.883999999999997
 20
5.0
 10
13.260000000000002
 20
5.0
 10
12.636
 20
5.0
 10
12.012
 20
5.0
 10
11.387999999999998
 20
5.0
 10
10.764
 20
5.0
 10
10.14
 20
5.0
 10
9.516000000000002
 20
5.0
 10
8.892
 20
5.0
 10
8.267999999999997
 20
5.0
 10
7.643999999999998
 20
5.0
 10
7.019999999999996
 20
5.0
 10
6.396000000000001
 20
5.0
 10
5.7719999999999985
 20
5.0
 10
5.148
 20
5.0
 10
4.523999999999997
 20
5.0
 10
3.8999999999999986
 20
5.0
  0
LWPOLYLINE
  5
34
330
17
100
AcDbEntity
  8
0
100
AcDbPolyline
 90
51
 70
0
 10
3.9
 20
5.0
 10
3.9
 20
5.14
 10
3.9
 20
5.28
 10
3.9
 20
5.42
 10
3.9
 20
5.5600000000000005
 10
3.9
 20
5.7
 10
3.9
 20
5.84
 10
3.9000000000000004
 20
5.98
 10
3.9000000000000004
 20
6.12
 10
3.9000000000000004
 20
6.26
 10
3.9000000000000004
 20
6.4
 10
3.9000000000000004
 20
6.54
 10
3.9000000000000004
 20
6.68
 10
3.9000000000000004
 20
6.82
 10
3.9000000000000004
 20
6.96
 10
3.9000000000000004
 20
7.1
 10
3.9000000000000004
 20
7.24
 10
3.9000000000000004
 20
7.38
 10
3.9000000000000004
 20
7.52
 10
3.9000000000000004
 20
7.66
 10
3.900000000000001
 20
7.8
 10
3.900000000000001
 20
7.9399999999999995
 10
3.900000000000001
 20
8.08
 10
3.900000000000001
 20
8.22
 10
3.900000000000001
 20
8.36
 10
3.900000000000001
 20
8.5
 10
3.900000000000001
 20
8.64
 10
3.900000000000001
 20
8.78
 10
3.900000000000001
 20
8.92
 10
3.900000000000001
 20
9.059999999999999
 10
3.900000000000001
 20
9.2
 10
3.900000000000001
 20
9.34
 10
3.900000000000001
 20
9.48
 10
3.9000000000000012
 20
9.620000000000001
 10
3.9000000000000012
 20
9.76
 10
3.9000000000000012
 20
9.9
 10
3.9000000000000012
 20
10.04
 10
3.9000000000000012
 20
10.18
 10
3.9000000000000012
 20
10.32
 10
3.9000000000000012
 20
10.46
 10
3.9000000000000012
 20
10.6
 10
3.9000000000000012
 20
10.74
 10
3.9000000000000012
 20
10.879999999999999
 10
3.9000000000000012
 20
11.02
 10
3.9000000000000012
 20
11.16
 10
3.9000000000000017
 20
11.3
 10
3.9000000000000017
 20
11.440000000000001
 10
3.9000000000000017
 20
11.58
 10
3.9000000000000017
 20
11.719999999999999
 10
3.9000000000000017
 20
11.86
 10
3.9000000000000017
 20
12.0
  0
LWPOLYLINE
  5
35
330
17
100
AcDbEntity
  8
0
100
AcDbPolyline
 90
51
 70
0
 10
3.9
 20
11.999999999999998
 10
3.8861870989979006
 20
12.439533636705189
 10
3.8448029092013454
 20
12.877332634950129
 10
3.776010755100821
 20
13.31166920210007
 10
3.6800821279004174
 20
13.740829210153985
 10
3.5573956140660754
 20
14.16311896062463
 10
3.4084354012177607
 20
14.576871868792741
 10
3.2337893672621365
 20
14.980455040955508
 10
3.034146760307047
 20
15.372275718712004
 10
2.8102954785141043
 20
15.750787564852978
 10
2.563118960624633
 20
16.11449676604731
 10
2.2935926994305267
 20
16.461967928240824
 10
2.0027803919498806
 20
16.79182974150082
 10
1.6918297415008223
 20
17.102780391949878
 10
1.3619679282408277
 20
17.393592699430528
 10
1.0144967660473134
 20
17.66311896062463
 10
0.6507875648529802
 20
17.910295478514104
 10
0.27227571871200773
 20
18.134146760307047
 10
-0.11954495904448859
 20
18.333789367262135
 10
-0.5231281312072547
 20
18.50843540121776
 10
-0.9368810393753657
 20
18.657395614066075
 10
-1.3591707898460121
 20
18.780082127900418
 10
-1.7883307978999268
 20
18.876010755100822
 10
-2.222667365049867
 20
18.944802909201343
 10
-2.6604663632948067
 20
18.986187098997902
 10
-3.099999999999998
 20
19.0
 10
-3.539533636705189
 20
18.986187098997902
 10
-3.977332634950129
 20
18.944802909201346
 10
-4.411669202100069
 20
18.876010755100822
 10
-4.840829210153984
 20
18.780082127900418
 10
-5.26311896062463
 20
18.657395614066075
 10
-5.676871868792741
 20
18.50843540121776
 10
-6.080455040955508
 20
18.333789367262135
 10
-6.472275718712009
 20
18.134146760307043
 10
-6.850787564852976
 20
17.910295478514104
 10
-7.21449676604731
 20
17.663118960624633
 10
-7.561967928240824
 20
17.393592699430528
 10
-7.891829741500821
 20
17.10278039194988
 10
-8.20278039194988
 20
16.791829741500823
 10
-8.493592699430526
 20
16.461967928240828
 10
-8.763118960624631
 20
16.114496766047314
 10
-9.010295478514104
 20
15.750787564852981
 10
-9.234146760307045
 20
15.372275718712007
 10
-9.433789367262136
 20
14.980455040955512
 10
-9.60843540121776
 20
14.576871868792747
 10
-9.757395614066075
 20
14.163118960624635
 10
-9.880082127900417
 20
13.740829210153988
 10
-9.97601075510082
 20
13.311669202100074
 10
-10.044802909201344
 20
12.877332634950134
 10
-10.0861870989979
 20
12.439533636705194
 10
-10.1
 20
12.000000000000002
  0
LWPOLYLINE
  5
36
330
17
100
AcDbEntity
  8
0
100
AcDbPolyline
 90
51
 70
0
 10
-10.1
 20
12.0
 10
-10.1
 20
11.76
 10
-10.1
 20
11.52
 10
-10.1
 20
11.28
 10
-10.1
 20
11.04
 10
-10.1
 20
10.8
 10
-10.1
 20
10.56
 10
-10.1
 20
10.32
 10
-10.1
 20
10.08
 10
-10.1
 20
9.84
 10
-10.1
 20
9.6
 10
-10.1
 20
9.36
 10
-10.1
 20
9.120000000000001
 10
-10.1
 20
8.879999999999999
 10
-10.1
 20
8.64
 10
-10.1
 20
8.4
 10
-10.1
 20
8.16
 10
-10.1
 20
7.92
 10
-10.1
 20
7.68
 10
-10.1
 20
7.44
 10
-10.1
 20
7.2
 10
-10.1
 20
6.96
 10
-10.1
 20
6.72
 10
-10.1
 20
6.48
 10
-10.1
 20
6.24
 10
-10.1
 20
6.0
 10
-10.1
 20
5.76
 10
-10.1
 20
5.52
 10
-10.1
 20
5.28
 10
-10.1
 20
5.04
 10
-10.1
 20
4.8
 10
-10.1
 20
4.56
 10
-10.1
 20
4.32
 10
-10.1
 20
4.08
 10
-10.1
 20
3.84
 10
-10.1
 20
3.5999999999999996
 10
-10.1
 20
3.3599999999999994
 10
-10.1
 20
3.119999999999999
 10
-10.1
 20
2.880000000000001
 10
-10.1
 20
2.6400000000000006
 10
-10.1
 20
2.4000000000000004
 10
-10.1
 20
2.16
 10
-10.1
 20
1.92
 10
-10.1
 20
1.6799999999999997
 10
-10.1
 20
1.4399999999999995
 10
-10.1
 20
1.1999999999999993
 10
-10.1
 20
0.9600000000000009
 10
-10.1
 20
0.7200000000000006
 10
-10.1
 20
0.4800000000000004
 10
-10.1
 20
0.2400000000000002
 10
-10.100000000000001
 20
0.0
  0
LWPOLYLINE
  5
37
330
17
100
AcDbEntity
  8
0
100
AcDbPolyline
 90
51
 70
0
 10
-3.0999999999999996
 20
16.0
 10
-3.6013329342572167
 20
15.968458805257912
 10
-4.094759548659419
 20
15.874332644514524
 10
-4.572498210738711
 20
15.719105943553005
 10
-5.0270146964068605
 20
15.505226720175454
 10
-5.451141009169892
 20
15.23606797749979
 10
-5.8381884237147545
 20
14.915874509685647
 10
-6.182052971103157
 20
14.549695958994759
 10
-6.47731170200806
 20
14.143307179915986
 10
-6.719308209864078
 20
13.703117166260292
 10
-6.904226065180614
 20
13.23606797749979
 10
-7.029149002914755
 20
12.7495252583429
 10
-7.092106913713087
 20
12.251162078117254
 10
-7.092106913713087
 20
11.748837921882746
 10
-7.029149002914755
 20
11.250474741657102
 10
-6.904226065180614
 20
10.763932022500212
 10
-6.719308209864078
 20
10.29688283373971
 10
-6.477311702008061
 20
9.856692820084014
 10
-6.1820529711031575
 20
9.450304041005241
 10
-5.838188423714756
 20
9.084125490314355
 10
-5.451141009169893
 20
8.76393202250021
 10
-5.027014696406861
 20
8.494773279824546
 10
-4.572498210738713
 20
8.280894056446995
 10
-4.094759548659422
 20
8.125667355485476
 10
-3.6013329342572185
 20
8.03154119474209
 10
-3.100000000000001
 20
8.0
 10
-2.5986670657427835
 20
8.031541194742088
 10
-2.105240451340582
 20
8.125667355485476
 10
-1.6275017892612889
 20
8.280894056446995
 10
-1.172985303593139
 20
8.494773279824546
 10
-0.7488589908301098
 20
8.763932022500208
 10
-0.36181157628524696
 20
9.084125490314353
 10
-0.017947028896843076
 20
9.450304041005241
 10
0.27731170200806066
 20
9.856692820084014
 10
0.5193082098640791
 20
10.29688283373971
 10
0.704226065180614
 20
10.76393202250021
 10
0.8291490029147548
 20
11.2504747416571
 10
0.8921069137130861
 20
11.748837921882746
 10
0.8921069137130861
 20
12.25116207811725
 10
0.8291490029147548
 20
12.749525258342896
 10
0.7042260651806145
 20
13.236067977499788
 10
0.5193082098640796
 20
13.703117166260286
 10
0.2773117020080602
 20
14.143307179915986
 10
-0.0179470288968413
 20
14.549695958994757
 10
-0.36181157628524385
 20
14.915874509685644
 10
-0.7488589908301062
 20
15.23606797749979
 10
-1.1729853035931352
 20
15.505226720175452
 10
-1.6275017892612882
 20
15.719105943553005
 10
-2.1052404513405785
 20
15.874332644514524
 10
-2.598667065742781
 20
15.96845880525791
 10
-3.0999999999999988
 20
16.0
  0
ENDSEC
  0
SECTION
  2
OBJECTS
  0
DICTIONARY
  5
A
330
0
100
AcDbDictionary
280
0
281
1
  3
ACAD_COLOR
350
B
  3
ACAD_GROUP
350
C
  3
ACAD_LAYOUT
350
D
  3
ACAD_MATERIAL
350
E
  3
ACAD_MLEADERSTYLE
350
F
  3
ACAD_MLINESTYLE
350
10
  3
ACAD_PLOTSETTINGS
350
11
  3
ACAD_PLOTSTYLENAME
350
12
  3
ACAD_SCALELIST
350
14
  3
ACAD_TABLESTYLE
350
15
  3
ACAD_VISUALSTYLE
350
16
  3
EZDXF_META
350
2D
  0
DICTIONARY
  5
B
330
A
100
AcDbDictionary
280
0
281
1
  0
DICTIONARY
  5
C
330
A
100
AcDbDictionary
280
0
281
1
  0
DICTIONARY
  5
D
330
A
100
AcDbDictionary
280
0
281
1
  3
Model
350
1A
  3
Layout1
350
1E
  0
DICTIONARY
  5
E
330
A
100
AcDbDictionary
280
0
281
1
  3
ByBlock
350
1F
  3
ByLayer
350
20
  3
Global
350
21
  0
DICTIONARY
  5
F
330
A
100
AcDbDictionary
280
0
281
1
  3
Standard
350
2C
  0
DICTIONARY
  5
10
330
A
100
AcDbDictionary
280
0
281
1
  3
Standard
350
22
  0
DICTIONARY
  5
11
330
A
100
AcDbDictionary
280
0
281
1
  0
ACDBDICTIONARYWDFLT
  5
12
330
A
100
AcDbDictionary
280
0
281
1
  3
Normal
350
13
100
AcDbDictionaryWithDefault
340
13
  0
ACDBPLACEHOLDER
  5
13
330
12
  0
DICTIONARY
  5
14
330
A
100
AcDbDictionary
280
0
281
1
  0
DICTIONARY
  5
15
330
A
100
AcDbDictionary
280
0
281
1
  0
DICTIONARY
  5
16
330
A
100
AcDbDictionary
280
0
281
1
  0
LAYOUT
  5
1A
330
D
100
AcDbPlotSettings
  1

  2
Adobe PDF
  4
A3
  6

 40
7.5
 41
20.0
 42
7.5
 43
20.0
 44
420.0
 45
297.0
 46
0.0
 47
0.0
 48
0.0
 49
0.0
140
0.0
141
0.0
142
1.0
143
1.0
 70
1024
 72
1
 73
0
 74
5
  7

 75
16
 76
0
 77
2
 78
300
147
1.0
148
0.0
149
0.0
100
AcDbLayout
  1
Model
 70
1
 71
0
 10
0.0
 20
0.0
 11
420.0
 21
297.0
 12
0.0
 22
0.0
 32
0.0
 14
1e+20
 24
1e+20
 34
1e+20
 15
-1e+20
 25
-1e+20
 35
-1e+20
146
0.0
 13
0.0
 23
0.0
 33
0.0
 16
1.0
 26
0.0
 36
0.0
 17
0.0
 27
1.0
 37
0.0
 76
1
330
17
  0
LAYOUT
  5
1E
330
D
100
AcDbPlotSettings
  1

  2
Adobe PDF
  4
A3
  6

 40
7.5
 41
20.0
 42
7.5
 43
20.0
 44
420.0
 45
297.0
 46
0.0
 47
0.0
 48
0.0
 49
0.0
140
0.0
141
0.0
142
1.0
143
1.0
 70
0
 72
1
 73
0
 74
5
  7

 75
16
 76
0
 77
2
 78
300
147
1.0
148
0.0
149
0.0
100
AcDbLayout
  1
Layout1
 70
1
 71
1
 10
0.0
 20
0.0
 11
420.0
 21
297.0
 12
0.0
 22
0.0
 32
0.0
 14
1e+20
 24
1e+20
 34
1e+20
 15
-1e+20
 25
-1e+20
 35
-1e+20
146
0.0
 13
0.0
 23
0.0
 33
0.0
 16
1.0
 26
0.0
 36
0.0
 17
0.0
 27
1.0
 37
0.0
 76
1
330
1B
  0
MATERIAL
  5
1F
102
{ACAD_REACTORS
330
E
102
}
330
E
100
AcDbMaterial
  1
ByBlock
  2

 70
0
 40
1.0
 71
1
 41
1.0
 91
-1023410177
 42
1.0
 72
1
  3

 73
1
 74
1
 75
1
 44
0.5
 73
0
 45
1.0
 46
1.0
 77
1
  4

 78
1
 79
1
170
1
 48
1.0
171
1
  6

172
1
173
1
174
1
140
1.0
141
1.0
175
1
  7

176
1
177
1
178
1
143
1.0
179
1
  8

270
1
271
1
272
1
145
1.0
146
1.0
273
1
  9

274
1
275
1
276
1
 42
1.0
 72
1
  3

 73
1
 74
1
 75
1
 94
63
  0
MATERIAL
  5
20
102
{ACAD_REACTORS
330
E
102
}
330
E
100
AcDbMaterial
  1
ByLayer
  2

 70
0
 40
1.0
 71
1
 41
1.0
 91
-1023410177
 42
1.0
 72
1
  3

 73
1
 74
1
 75
1
 44
0.5
 73
0
 45
1.0
 46
1.0
 77
1
  4

 78
1
 79
1
170
1
 48
1.0
171
1
  6

172
1
173
1
174
1
140
1.0
141
1.0
175
1
  7

176
1
177
1
178
1
143
1.0
179
1
  8

270
1
271
1
272
1
145
1.0
146
1.0
273
1
  9

274
1
275
1
276
1
 42
1.0
 72
1
  3

 73
1
 74
1
 75
1
 94
63
  0
MATERIAL
  5
21
102
{ACAD_REACTORS
330
E
102
}
330
E
100
AcDbMaterial
  1
Global
  2

 70
0
 40
1.0
 71
1
 41
1.0
 91
-1023410177
 42
1.0
 72
1
  3

 73
1
 74
1
 75
1
 44
0.5
 73
0
 45
1.0
 46
1.0
 77
1
  4

 78
1
 79
1
170
1
 48
1.0
171
1
  6

172
1
173
1
174
1
140
1.0
141
1.0
175
1
  7

176
1
177
1
178
1
143
1.0
179
1
  8

270
1
271
1
272
1
145
1.0
146
1.0
273
1
  9

274
1
275
1
276
1
 42
1.0
 72
1
  3

 73
1
 74
1
 75
1
 94
63
  0
MLINESTYLE
  5
22
102
{ACAD_REACTORS
330
10
102
}
330
10
100
AcDbMlineStyle
  2
Standard
 70
0
  3

 62
256
 51
90.0
 52
90.0
 71
2
 49
0.5
 62
256
  6
BYLAYER
 49
-0.5
 62
256
  6
BYLAYER
  0
MLEADERSTYLE
  5
2C
102
{ACAD_REACTORS
330
F
102
}
330
F
100
AcDbMLeaderStyle
179
2
170
2
171
1
172
0
 90
2
 40
0.0
 41
0.0
173
1
 91
-1056964608
 92
-2
290
1
 42
2.0
291
1
 43
8.0
  3
Standard
 44
4.0
300

342
29
174
1
175
1
176
0
178
1
 93
-1056964608
 45
4.0
292
0
297
0
 46
4.0
 94
-1056964608
 47
1.0
 49
1.0
140
1.0
294
1
141
0.0
177
0
142
1.0
295
0
296
0
143
3.75
271
0
272
9
273
9
  0
DICTIONARY
  5
2D
330
A
100
AcDbDictionary
281
1
  3
CREATED_BY_EZDXF
350
2E
  3
WRITTEN_BY_EZDXF
350
3A
  0
DICTIONARYVAR
  5
2E
330
2D
100
DictionaryVariables
280
0
  1
1.0.3 @ 2025-05-29T09:38:45.626068+00:00
  0
DICTIONARYVAR
  5
3A
330
2D
100
DictionaryVariables
280
0
  1
1.0.3 @ 2025-05-29T09:38:45.628573+00:00
  0
ENDSEC
  0
EOF
