  0
SECTION
  2
HEADER
  9
$ACADVER
  1
AC1027
  9
$ACADMAINTVER
 70
105
  9
$DWGCODEPAGE
  3
ANSI_1252
  9
$LASTSAVEDBY
  1
ezdxf
  9
$REQUIREDVERSIONS
160
0
  9
$INSBASE
 10
0.0
 20
0.0
 30
0.0
  9
$EXTMIN
 10
1e+20
 20
1e+20
 30
1e+20
  9
$EXTMAX
 10
-1e+20
 20
-1e+20
 30
-1e+20
  9
$LIMMIN
 10
0.0
 20
0.0
  9
$LIMMAX
 10
420.0
 20
297.0
  9
$ORTHOMODE
 70
0
  9
$REGENMODE
 70
1
  9
$FILLMODE
 70
1
  9
$QTEXTMODE
 70
0
  9
$MIRRTEXT
 70
1
  9
$LTSCALE
 40
1.0
  9
$ATTMODE
 70
1
  9
$TEXTSIZE
 40
2.5
  9
$TRACEWID
 40
1.0
  9
$TEXTSTYLE
  7
Standard
  9
$CLAYER
  8
0
  9
$CELTYPE
  6
ByLayer
  9
$CECOLOR
 62
256
  9
$CELTSCALE
 40
1.0
  9
$DISPSILH
 70
0
  9
$DIMSCALE
 40
1.0
  9
$DIMASZ
 40
2.5
  9
$DIMEXO
 40
0.625
  9
$DIMDLI
 40
3.75
  9
$DIMRND
 40
0.0
  9
$DIMDLE
 40
0.0
  9
$DIMEXE
 40
1.25
  9
$DIMTP
 40
0.0
  9
$DIMTM
 40
0.0
  9
$DIMTXT
 40
2.5
  9
$DIMCEN
 40
2.5
  9
$DIMTSZ
 40
0.0
  9
$DIMTOL
 70
0
  9
$DIMLIM
 70
0
  9
$DIMTIH
 70
0
  9
$DIMTOH
 70
0
  9
$DIMSE1
 70
0
  9
$DIMSE2
 70
0
  9
$DIMTAD
 70
1
  9
$DIMZIN
 70
8
  9
$DIMBLK
  1

  9
$DIMASO
 70
1
  9
$DIMSHO
 70
1
  9
$DIMPOST
  1

  9
$DIMAPOST
  1

  9
$DIMALT
 70
0
  9
$DIMALTD
 70
3
  9
$DIMALTF
 40
0.03937007874
  9
$DIMLFAC
 40
1.0
  9
$DIMTOFL
 70
1
  9
$DIMTVP
 40
0.0
  9
$DIMTIX
 70
0
  9
$DIMSOXD
 70
0
  9
$DIMSAH
 70
0
  9
$DIMBLK1
  1

  9
$DIMBLK2
  1

  9
$DIMSTYLE
  2
ISO-25
  9
$DIMCLRD
 70
0
  9
$DIMCLRE
 70
0
  9
$DIMCLRT
 70
0
  9
$DIMTFAC
 40
1.0
  9
$DIMGAP
 40
0.625
  9
$DIMJUST
 70
0
  9
$DIMSD1
 70
0
  9
$DIMSD2
 70
0
  9
$DIMTOLJ
 70
0
  9
$DIMTZIN
 70
8
  9
$DIMALTZ
 70
0
  9
$DIMALTTZ
 70
0
  9
$DIMUPT
 70
0
  9
$DIMDEC
 70
2
  9
$DIMTDEC
 70
2
  9
$DIMALTU
 70
2
  9
$DIMALTTD
 70
3
  9
$DIMTXSTY
  7
Standard
  9
$DIMAUNIT
 70
0
  9
$DIMADEC
 70
0
  9
$DIMALTRND
 40
0.0
  9
$DIMAZIN
 70
0
  9
$DIMDSEP
 70
44
  9
$DIMATFIT
 70
3
  9
$DIMFRAC
 70
0
  9
$DIMLDRBLK
  1

  9
$DIMLUNIT
 70
2
  9
$DIMLWD
 70
-2
  9
$DIMLWE
 70
-2
  9
$DIMTMOVE
 70
0
  9
$DIMFXL
 40
1.0
  9
$DIMFXLON
 70
0
  9
$DIMJOGANG
 40
0.785398163397
  9
$DIMTFILL
 70
0
  9
$DIMTFILLCLR
 70
0
  9
$DIMARCSYM
 70
0
  9
$DIMLTYPE
  6

  9
$DIMLTEX1
  6

  9
$DIMLTEX2
  6

  9
$DIMTXTDIRECTION
 70
0
  9
$LUNITS
 70
2
  9
$LUPREC
 70
4
  9
$SKETCHINC
 40
1.0
  9
$FILLETRAD
 40
10.0
  9
$AUNITS
 70
0
  9
$AUPREC
 70
2
  9
$MENU
  1
.
  9
$ELEVATION
 40
0.0
  9
$PELEVATION
 40
0.0
  9
$THICKNESS
 40
0.0
  9
$LIMCHECK
 70
0
  9
$CHAMFERA
 40
0.0
  9
$CHAMFERB
 40
0.0
  9
$CHAMFERC
 40
0.0
  9
$CHAMFERD
 40
0.0
  9
$SKPOLY
 70
0
  9
$TDCREATE
 40
2460825.7768171295
  9
$TDUCREATE
 40
2458532.153996898
  9
$TDUPDATE
 40
2460825.7768171295
  9
$TDUUPDATE
 40
2458532.1544311
  9
$TDINDWG
 40
0.0
  9
$TDUSRTIMER
 40
0.0
  9
$USRTIMER
 70
1
  9
$ANGBASE
 50
0.0
  9
$ANGDIR
 70
0
  9
$PDMODE
 70
0
  9
$PDSIZE
 40
0.0
  9
$PLINEWID
 40
0.0
  9
$SPLFRAME
 70
0
  9
$SPLINETYPE
 70
6
  9
$SPLINESEGS
 70
8
  9
$HANDSEED
  5
3C
  9
$SURFTAB1
 70
6
  9
$SURFTAB2
 70
6
  9
$SURFTYPE
 70
6
  9
$SURFU
 70
6
  9
$SURFV
 70
6
  9
$UCSBASE
  2

  9
$UCSNAME
  2

  9
$UCSORG
 10
0.0
 20
0.0
 30
0.0
  9
$UCSXDIR
 10
1.0
 20
0.0
 30
0.0
  9
$UCSYDIR
 10
0.0
 20
1.0
 30
0.0
  9
$UCSORTHOREF
  2

  9
$UCSORTHOVIEW
 70
0
  9
$UCSORGTOP
 10
0.0
 20
0.0
 30
0.0
  9
$UCSORGBOTTOM
 10
0.0
 20
0.0
 30
0.0
  9
$UCSORGLEFT
 10
0.0
 20
0.0
 30
0.0
  9
$UCSORGRIGHT
 10
0.0
 20
0.0
 30
0.0
  9
$UCSORGFRONT
 10
0.0
 20
0.0
 30
0.0
  9
$UCSORGBACK
 10
0.0
 20
0.0
 30
0.0
  9
$PUCSBASE
  2

  9
$PUCSNAME
  2

  9
$PUCSORG
 10
0.0
 20
0.0
 30
0.0
  9
$PUCSXDIR
 10
1.0
 20
0.0
 30
0.0
  9
$PUCSYDIR
 10
0.0
 20
1.0
 30
0.0
  9
$PUCSORTHOREF
  2

  9
$PUCSORTHOVIEW
 70
0
  9
$PUCSORGTOP
 10
0.0
 20
0.0
 30
0.0
  9
$PUCSORGBOTTOM
 10
0.0
 20
0.0
 30
0.0
  9
$PUCSORGLEFT
 10
0.0
 20
0.0
 30
0.0
  9
$PUCSORGRIGHT
 10
0.0
 20
0.0
 30
0.0
  9
$PUCSORGFRONT
 10
0.0
 20
0.0
 30
0.0
  9
$PUCSORGBACK
 10
0.0
 20
0.0
 30
0.0
  9
$USERI1
 70
0
  9
$USERI2
 70
0
  9
$USERI3
 70
0
  9
$USERI4
 70
0
  9
$USERI5
 70
0
  9
$USERR1
 40
0.0
  9
$USERR2
 40
0.0
  9
$USERR3
 40
0.0
  9
$USERR4
 40
0.0
  9
$USERR5
 40
0.0
  9
$WORLDVIEW
 70
1
  9
$SHADEDGE
 70
3
  9
$SHADEDIF
 70
70
  9
$TILEMODE
 70
1
  9
$MAXACTVP
 70
64
  9
$PINSBASE
 10
0.0
 20
0.0
 30
0.0
  9
$PLIMCHECK
 70
0
  9
$PEXTMIN
 10
1e+20
 20
1e+20
 30
1e+20
  9
$PEXTMAX
 10
-1e+20
 20
-1e+20
 30
-1e+20
  9
$PLIMMIN
 10
0.0
 20
0.0
  9
$PLIMMAX
 10
420.0
 20
297.0
  9
$UNITMODE
 70
0
  9
$VISRETAIN
 70
1
  9
$PLINEGEN
 70
0
  9
$PSLTSCALE
 70
1
  9
$TREEDEPTH
 70
3020
  9
$CMLSTYLE
  2
Standard
  9
$CMLJUST
 70
0
  9
$CMLSCALE
 40
20.0
  9
$PROXYGRAPHICS
 70
1
  9
$MEASUREMENT
 70
1
  9
$CELWEIGHT
370
-1
  9
$ENDCAPS
280
0
  9
$JOINSTYLE
280
0
  9
$LWDISPLAY
290
0
  9
$INSUNITS
 70
6
  9
$HYPERLINKBASE
  1

  9
$STYLESHEET
  1

  9
$XEDIT
290
1
  9
$CEPSNTYPE
380
0
  9
$PSTYLEMODE
290
1
  9
$FINGERPRINTGUID
  2
{4B9732D3-7EBF-4B0B-A14D-02C4E02FECEF}
  9
$VERSIONGUID
  2
{9ECAA007-624F-46EB-BEE7-001035BC8042}
  9
$EXTNAMES
290
1
  9
$PSVPSCALE
 40
0.0
  9
$OLESTARTUP
290
0
  9
$SORTENTS
280
127
  9
$INDEXCTL
280
0
  9
$HIDETEXT
280
1
  9
$XCLIPFRAME
280
0
  9
$HALOGAP
280
0
  9
$OBSCOLOR
 70
257
  9
$OBSLTYPE
280
0
  9
$INTERSECTIONDISPLAY
280
0
  9
$INTERSECTIONCOLOR
 70
257
  9
$DIMASSOC
280
2
  9
$PROJECTNAME
  1

  9
$CAMERADISPLAY
290
0
  9
$LENSLENGTH
 40
50.0
  9
$CAMERAHEIGHT
 40
0.0
  9
$STEPSPERSEC
 40
24.0
  9
$STEPSIZE
 40
100.0
  9
$3DDWFPREC
 40
2.0
  9
$PSOLWIDTH
 40
0.005
  9
$PSOLHEIGHT
 40
0.08
  9
$LOFTANG1
 40
1.570796326795
  9
$LOFTANG2
 40
1.570796326795
  9
$LOFTMAG1
 40
0.0
  9
$LOFTMAG2
 40
0.0
  9
$LOFTPARAM
 70
7
  9
$LOFTNORMALS
280
1
  9
$LATITUDE
 40
37.795
  9
$LONGITUDE
 40
-122.394
  9
$NORTHDIRECTION
 40
0.0
  9
$TIMEZONE
 70
-8000
  9
$LIGHTGLYPHDISPLAY
280
1
  9
$TILEMODELIGHTSYNCH
280
1
  9
$CMATERIAL
347
20
  9
$SOLIDHIST
280
0
  9
$SHOWHIST
280
1
  9
$DWFFRAME
280
2
  9
$DGNFRAME
280
2
  9
$REALWORLDSCALE
290
1
  9
$INTERFERECOLOR
 62
256
  9
$CSHADOW
280
0
  9
$SHADOWPLANELOCATION
 40
0.0
  0
ENDSEC
  0
SECTION
  2
CLASSES
  0
CLASS
  1
ACDBDICTIONARYWDFLT
  2
AcDbDictionaryWithDefault
  3
ObjectDBX Classes
 90
0
 91
0
280
0
281
0
  0
CLASS
  1
SUN
  2
AcDbSun
  3
SCENEOE
 90
1153
 91
0
280
0
281
0
  0
CLASS
  1
VISUALSTYLE
  2
AcDbVisualStyle
  3
ObjectDBX Classes
 90
4095
 91
0
280
0
281
0
  0
CLASS
  1
MATERIAL
  2
AcDbMaterial
  3
ObjectDBX Classes
 90
1153
 91
0
280
0
281
0
  0
CLASS
  1
SCALE
  2
AcDbScale
  3
ObjectDBX Classes
 90
1153
 91
0
280
0
281
0
  0
CLASS
  1
TABLESTYLE
  2
AcDbTableStyle
  3
ObjectDBX Classes
 90
4095
 91
0
280
0
281
0
  0
CLASS
  1
MLEADERSTYLE
  2
AcDbMLeaderStyle
  3
ACDB_MLEADERSTYLE_CLASS
 90
4095
 91
0
280
0
281
0
  0
CLASS
  1
DICTIONARYVAR
  2
AcDbDictionaryVar
  3
ObjectDBX Classes
 90
0
 91
0
280
0
281
0
  0
CLASS
  1
CELLSTYLEMAP
  2
AcDbCellStyleMap
  3
ObjectDBX Classes
 90
1152
 91
0
280
0
281
0
  0
CLASS
  1
MENTALRAYRENDERSETTINGS
  2
AcDbMentalRayRenderSettings
  3
SCENEOE
 90
1024
 91
0
280
0
281
0
  0
CLASS
  1
ACDBDETAILVIEWSTYLE
  2
AcDbDetailViewStyle
  3
ObjectDBX Classes
 90
1025
 91
0
280
0
281
0
  0
CLASS
  1
ACDBSECTIONVIEWSTYLE
  2
AcDbSectionViewStyle
  3
ObjectDBX Classes
 90
1025
 91
0
280
0
281
0
  0
CLASS
  1
RASTERVARIABLES
  2
AcDbRasterVariables
  3
ISM
 90
0
 91
0
280
0
281
0
  0
CLASS
  1
LAYOUT
  2
AcDbLayout
  3
ObjectDBX Classes
 90
0
 91
0
280
0
281
0
  0
CLASS
  1
ACDBPLACEHOLDER
  2
AcDbPlaceHolder
  3
ObjectDBX Classes
 90
0
 91
0
280
0
281
0
  0
ENDSEC
  0
SECTION
  2
TABLES
  0
TABLE
  2
VPORT
  5
8
330
0
100
AcDbSymbolTable
 70
1
  0
VPORT
  5
23
330
8
100
AcDbSymbolTableRecord
100
AcDbViewportTableRecord
  2
*Active
 70
0
 10
0.0
 20
0.0
 11
1.0
 21
1.0
 12
0.0
 22
0.0
 13
0.0
 23
0.0
 14
0.5
 24
0.5
 15
0.5
 25
0.5
 16
0.0
 26
0.0
 36
1.0
 17
0.0
 27
0.0
 37
0.0
 40
1000.0
 41
1.34
 42
50.0
 43
0.0
 44
0.0
 50
0.0
 51
0.0
 71
0
 72
1000
 73
1
 74
3
 75
0
 76
0
 77
0
 78
0
281
0
 65
0
146
0.0
  0
ENDTAB
  0
TABLE
  2
LTYPE
  5
2
330
0
100
AcDbSymbolTable
 70
3
  0
LTYPE
  5
24
330
2
100
AcDbSymbolTableRecord
100
AcDbLinetypeTableRecord
  2
ByBlock
 70
0
  3

 72
65
 73
0
 40
0.0
  0
LTYPE
  5
25
330
2
100
AcDbSymbolTableRecord
100
AcDbLinetypeTableRecord
  2
ByLayer
 70
0
  3

 72
65
 73
0
 40
0.0
  0
LTYPE
  5
26
330
2
100
AcDbSymbolTableRecord
100
AcDbLinetypeTableRecord
  2
Continuous
 70
0
  3

 72
65
 73
0
 40
0.0
  0
ENDTAB
  0
TABLE
  2
LAYER
  5
1
330
0
100
AcDbSymbolTable
 70
2
  0
LAYER
  5
27
330
1
100
AcDbSymbolTableRecord
100
AcDbLayerTableRecord
  2
0
 70
0
 62
7
  6
Continuous
370
-3
390
13
347
21
  0
LAYER
  5
28
330
1
100
AcDbSymbolTableRecord
100
AcDbLayerTableRecord
  2
Defpoints
 70
0
 62
7
  6
Continuous
290
0
370
-3
390
13
347
21
  0
ENDTAB
  0
TABLE
  2
STYLE
  5
5
330
0
100
AcDbSymbolTable
 70
1
  0
STYLE
  5
29
330
5
100
AcDbSymbolTableRecord
100
AcDbTextStyleTableRecord
  2
Standard
 70
0
 40
0.0
 41
1.0
 50
0.0
 71
0
 42
2.5
  3
txt
  4

  0
ENDTAB
  0
TABLE
  2
VIEW
  5
7
330
0
100
AcDbSymbolTable
 70
0
  0
ENDTAB
  0
TABLE
  2
UCS
  5
6
330
0
100
AcDbSymbolTable
 70
0
  0
ENDTAB
  0
TABLE
  2
APPID
  5
3
330
0
100
AcDbSymbolTable
 70
3
  0
APPID
  5
2A
330
3
100
AcDbSymbolTableRecord
100
AcDbRegAppTableRecord
  2
ACAD
 70
0
  0
APPID
  5
39
330
3
100
AcDbSymbolTableRecord
100
AcDbRegAppTableRecord
  2
HATCHBACKGROUNDCOLOR
 70
0
  0
APPID
  5
3A
330
3
100
AcDbSymbolTableRecord
100
AcDbRegAppTableRecord
  2
EZDXF
 70
0
  0
ENDTAB
  0
TABLE
  2
DIMSTYLE
  5
4
330
0
100
AcDbSymbolTable
 70
1
100
AcDbDimStyleTable
  0
DIMSTYLE
105
2B
330
4
100
AcDbSymbolTableRecord
100
AcDbDimStyleTableRecord
  2
Standard
 70
0
 40
1.0
 41
2.5
 42
0.625
 43
3.75
 44
1.25
 45
0.0
 46
0.0
 47
0.0
 48
0.0
 49
2.5
140
2.5
141
2.5
142
0.0
143
0.03937007874
144
1.0
145
0.0
146
1.0
147
0.625
148
0.0
 69
0
 70
0
 71
0
 72
0
 73
0
 74
0
 75
0
 76
0
 77
1
 78
8
 79
3
170
0
171
3
172
1
173
0
174
0
175
0
176
0
177
0
178
0
179
2
271
2
272
2
273
2
274
3
275
0
276
0
277
2
278
44
279
0
280
0
281
0
282
0
283
0
284
8
285
0
286
0
288
0
289
3
290
0
371
-2
372
-2
  0
ENDTAB
  0
TABLE
  2
BLOCK_RECORD
  5
9
330
0
100
AcDbSymbolTable
 70
2
  0
BLOCK_RECORD
  5
17
330
9
100
AcDbSymbolTableRecord
100
AcDbBlockTableRecord
  2
*Model_Space
340
1A
 70
0
280
1
281
0
  0
BLOCK_RECORD
  5
1B
330
9
100
AcDbSymbolTableRecord
100
AcDbBlockTableRecord
  2
*Paper_Space
340
1E
 70
0
280
1
281
0
  0
ENDTAB
  0
ENDSEC
  0
SECTION
  2
BLOCKS
  0
BLOCK
  5
18
330
17
100
AcDbEntity
  8
0
100
AcDbBlockBegin
  2
*Model_Space
 70
0
 10
0.0
 20
0.0
 30
0.0
  3
*Model_Space
  1

  0
ENDBLK
  5
19
330
17
100
AcDbEntity
  8
0
100
AcDbBlockEnd
  0
BLOCK
  5
1C
330
1B
100
AcDbEntity
  8
0
100
AcDbBlockBegin
  2
*Paper_Space
 70
0
 10
0.0
 20
0.0
 30
0.0
  3
*Paper_Space
  1

  0
ENDBLK
  5
1D
330
1B
100
AcDbEntity
  8
0
100
AcDbBlockEnd
  0
ENDSEC
  0
SECTION
  2
ENTITIES
  0
LWPOLYLINE
  5
2F
330
17
100
AcDbEntity
  8
0
100
AcDbPolyline
 90
51
 70
0
 10
2.4
 20
12.0
 10
2.4
 20
11.76
 10
2.4
 20
11.52
 10
2.4
 20
11.28
 10
2.4
 20
11.04
 10
2.4
 20
10.8
 10
2.4
 20
10.56
 10
2.4
 20
10.32
 10
2.4
 20
10.08
 10
2.4
 20
9.84
 10
2.4
 20
9.6
 10
2.4
 20
9.36
 10
2.4
 20
9.120000000000001
 10
2.4000000000000004
 20
8.879999999999999
 10
2.4000000000000004
 20
8.64
 10
2.4000000000000004
 20
8.4
 10
2.4000000000000004
 20
8.16
 10
2.4000000000000004
 20
7.92
 10
2.4000000000000004
 20
7.68
 10
2.4000000000000004
 20
7.44
 10
2.4000000000000004
 20
7.2
 10
2.4000000000000004
 20
6.96
 10
2.4000000000000004
 20
6.72
 10
2.4000000000000004
 20
6.48
 10
2.4000000000000004
 20
6.24
 10
2.4000000000000004
 20
6.0
 10
2.4000000000000004
 20
5.76
 10
2.4000000000000004
 20
5.52
 10
2.4000000000000004
 20
5.28
 10
2.4000000000000004
 20
5.04
 10
2.4000000000000004
 20
4.8
 10
2.4000000000000004
 20
4.56
 10
2.4000000000000004
 20
4.32
 10
2.4000000000000004
 20
4.08
 10
2.4000000000000004
 20
3.84
 10
2.4000000000000004
 20
3.5999999999999996
 10
2.4000000000000004
 20
3.3599999999999994
 10
2.4000000000000004
 20
3.119999999999999
 10
2.400000000000001
 20
2.880000000000001
 10
2.400000000000001
 20
2.6400000000000006
 10
2.400000000000001
 20
2.4000000000000004
 10
2.400000000000001
 20
2.16
 10
2.400000000000001
 20
1.92
 10
2.400000000000001
 20
1.6799999999999997
 10
2.400000000000001
 20
1.4399999999999995
 10
2.400000000000001
 20
1.1999999999999993
 10
2.400000000000001
 20
0.9600000000000009
 10
2.400000000000001
 20
0.7200000000000006
 10
2.400000000000001
 20
0.4800000000000004
 10
2.400000000000001
 20
0.2400000000000002
 10
2.400000000000001
 20
0.0
  0
LWPOLYLINE
  5
30
330
17
100
AcDbEntity
  8
0
100
AcDbPolyline
 90
51
 70
0
 10
-11.6
 20
5.0
 10
-11.6
 20
5.14
 10
-11.6
 20
5.28
 10
-11.6
 20
5.42
 10
-11.6
 20
5.5600000000000005
 10
-11.6
 20
5.7
 10
-11.6
 20
5.84
 10
-11.6
 20
5.98
 10
-11.6
 20
6.12
 10
-11.6
 20
6.26
 10
-11.6
 20
6.4
 10
-11.6
 20
6.54
 10
-11.6
 20
6.68
 10
-11.6
 20
6.82
 10
-11.6
 20
6.96
 10
-11.6
 20
7.1
 10
-11.6
 20
7.24
 10
-11.6
 20
7.38
 10
-11.6
 20
7.52
 10
-11.6
 20
7.66
 10
-11.6
 20
7.8
 10
-11.6
 20
7.9399999999999995
 10
-11.6
 20
8.08
 10
-11.6
 20
8.22
 10
-11.6
 20
8.36
 10
-11.6
 20
8.5
 10
-11.600000000000001
 20
8.64
 10
-11.600000000000001
 20
8.78
 10
-11.600000000000001
 20
8.92
 10
-11.600000000000001
 20
9.059999999999999
 10
-11.600000000000001
 20
9.2
 10
-11.600000000000001
 20
9.34
 10
-11.600000000000001
 20
9.48
 10
-11.600000000000001
 20
9.620000000000001
 10
-11.600000000000001
 20
9.76
 10
-11.600000000000001
 20
9.9
 10
-11.600000000000001
 20
10.04
 10
-11.600000000000001
 20
10.18
 10
-11.600000000000001
 20
10.32
 10
-11.600000000000001
 20
10.46
 10
-11.600000000000001
 20
10.6
 10
-11.600000000000001
 20
10.74
 10
-11.600000000000001
 20
10.879999999999999
 10
-11.600000000000001
 20
11.02
 10
-11.600000000000001
 20
11.16
 10
-11.600000000000001
 20
11.3
 10
-11.600000000000001
 20
11.440000000000001
 10
-11.600000000000001
 20
11.58
 10
-11.600000000000001
 20
11.719999999999999
 10
-11.600000000000001
 20
11.86
 10
-11.600000000000001
 20
12.0
  0
LWPOLYLINE
  5
31
330
17
100
AcDbEntity
  8
0
100
AcDbPolyline
 90
51
 70
0
 10
-11.6
 20
11.999999999999998
 10
-11.5861870989979
 20
12.439533636705189
 10
-11.544802909201344
 20
12.877332634950129
 10
-11.47601075510082
 20
13.31166920210007
 10
-11.380082127900417
 20
13.740829210153985
 10
-11.257395614066075
 20
14.16311896062463
 10
-11.108435401217761
 20
14.576871868792741
 10
-10.933789367262136
 20
14.980455040955508
 10
-10.734146760307047
 20
15.372275718712004
 10
-10.510295478514104
 20
15.750787564852978
 10
-10.263118960624633
 20
16.11449676604731
 10
-9.993592699430526
 20
16.461967928240824
 10
-9.70278039194988
 20
16.79182974150082
 10
-9.391829741500821
 20
17.102780391949878
 10
-9.061967928240827
 20
17.393592699430528
 10
-8.714496766047313
 20
17.66311896062463
 10
-8.350787564852979
 20
17.910295478514104
 10
-7.972275718712007
 20
18.134146760307047
 10
-7.580455040955511
 20
18.333789367262135
 10
-7.176871868792745
 20
18.50843540121776
 10
-6.763118960624634
 20
18.657395614066075
 10
-6.340829210153987
 20
18.780082127900418
 10
-5.9116692021000725
 20
18.876010755100822
 10
-5.477332634950132
 20
18.944802909201343
 10
-5.039533636705192
 20
18.986187098997902
 10
-4.600000000000001
 20
19.0
 10
-4.160466363294811
 20
18.986187098997902
 10
-3.7226673650498703
 20
18.944802909201346
 10
-3.2883307978999303
 20
18.876010755100822
 10
-2.8591707898460155
 20
18.780082127900418
 10
-2.4368810393753693
 20
18.657395614066075
 10
-2.023128131207258
 20
18.50843540121776
 10
-1.6195449590444917
 20
18.333789367262135
 10
-1.22772428128799
 20
18.134146760307043
 10
-0.8492124351470229
 20
17.910295478514104
 10
-0.4855032339526897
 20
17.663118960624633
 10
-0.13803207175917542
 20
17.393592699430528
 10
0.191829741500821
 20
17.10278039194988
 10
0.5027803919498792
 20
16.791829741500823
 10
0.7935926994305254
 20
16.461967928240828
 10
1.0631189606246307
 20
16.114496766047314
 10
1.3102954785141039
 20
15.75078756485298
 10
1.5341467603070456
 20
15.372275718712007
 10
1.733789367262136
 20
14.980455040955512
 10
1.9084354012177602
 20
14.576871868792745
 10
2.057395614066075
 20
14.163118960624633
 10
2.180082127900417
 20
13.740829210153988
 10
2.2760107551008204
 20
13.311669202100074
 10
2.344802909201345
 20
12.877332634950132
 10
2.386187098997901
 20
12.439533636705193
 10
2.4000000000000004
 20
12.000000000000002
  0
LWPOLYLINE
  5
32
330
17
100
AcDbEntity
  8
0
100
AcDbPolyline
 90
51
 70
0
 10
2.4
 20
1.7053025658242397e-16
 10
1.8039999999999998
 20
1.2818190953112203e-16
 10
1.208
 20
8.583356247982007e-17
 10
0.6120000000000001
 20
4.348521542851812e-17
 10
0.016000000000000014
 20
1.136868377216161e-18
 10
-0.5800000000000001
 20
-4.12114786740858e-17
 10
-1.1759999999999997
 20
-8.355982572538773e-17
 10
-1.7719999999999998
 20
-1.259081727766897e-16
 10
-2.368
 20
-1.6825651982799167e-16
 10
-2.964
 20
-2.1060486687929362e-16
 10
-3.56
 20
-2.5295321393059557e-16
 10
-4.155999999999999
 20
-2.9530156098189744e-16
 10
-4.751999999999999
 20
-3.376499080331994e-16
 10
-5.347999999999999
 20
-3.799982550845014e-16
 10
-5.943999999999999
 20
-4.2234660213580335e-16
 10
-6.539999999999999
 20
-4.646949491871053e-16
 10
-7.135999999999999
 20
-5.070432962384072e-16
 10
-7.731999999999999
 20
-5.493916432897093e-16
 10
-8.328
 20
-5.917399903410112e-16
 10
-8.923999999999998
 20
-6.34088337392313e-16
 10
-9.52
 20
-6.764366844436151e-16
 10
-10.115999999999998
 20
-7.18785031494917e-16
 10
-10.711999999999998
 20
-7.61133378546219e-16
 10
-11.308
 20
-8.03481725597521e-16
 10
-11.903999999999998
 20
-8.458300726488228e-16
 10
-12.499999999999998
 20
-8.881784197001248e-16
 10
-13.095999999999998
 20
-9.305267667514268e-16
 10
-13.691999999999998
 20
-9.728751138027287e-16
 10
-14.287999999999998
 20
-1.0152234608540308e-15
 10
-14.883999999999999
 20
-1.0575718079053327e-15
 10
-15.479999999999999
 20
-1.0999201549566346e-15
 10
-16.076
 20
-1.1422685020079368e-15
 10
-16.672
 20
-1.1846168490592387e-15
 10
-17.267999999999997
 20
-1.2269651961105404e-15
 10
-17.864
 20
-1.2693135431618425e-15
 10
-18.46
 20
-1.3116618902131446e-15
 10
-19.056
 20
-1.3540102372644466e-15
 10
-19.652
 20
-1.3963585843157485e-15
 10
-20.247999999999998
 20
-1.4387069313670502e-15
 10
-20.843999999999998
 20
-1.4810552784183521e-15
 10
-21.44
 20
-1.5234036254696545e-15
 10
-22.036
 20
-1.5657519725209564e-15
 10
-22.631999999999998
 20
-1.6081003195722581e-15
 10
-23.227999999999998
 20
-1.65044866662356e-15
 10
-23.823999999999998
 20
-1.692797013674862e-15
 10
-24.419999999999998
 20
-1.7351453607261639e-15
 10
-25.016000000000002
 20
-1.777493707777466e-15
 10
-25.612
 20
-1.819842054828768e-15
 10
-26.208
 20
-1.86219040188007e-15
 10
-26.804
 20
-1.9045387489313718e-15
 10
-27.4
 20
-1.946887095982674e-15
  0
LWPOLYLINE
  5
33
330
17
100
AcDbEntity
  8
0
100
AcDbPolyline
 90
51
 70
0
 10
-0.5999999999999996
 20
12.0
 10
-0.6177521415876797
 20
11.623566746725944
 10
-0.6708509970852448
 20
11.2504747416571
 10
-0.7588252572922274
 20
10.884035575843082
 10
-0.8808940564469938
 20
10.527501789261288
 10
-1.035973903246528
 20
10.184038001041813
 10
-1.222688297991939
 20
9.856692820084014
 10
-1.4393799504972375
 20
9.548371785388095
 10
-1.6841254903143539
 20
9.261811576285245
 10
-1.9547525387053923
 20
8.999555721478162
 10
-2.2488589908301067
 20
8.76393202250021
 10
-2.5638343369985153
 20
8.557031891984225
 10
-2.896882833739708
 20
8.380691790135923
 10
-3.245048319018834
 20
8.236476924183098
 10
-3.6052404513405802
 20
8.125667355485476
 10
-3.974262139839076
 20
8.049246637619449
 10
-4.348837921882746
 20
8.007893086286913
 10
-4.725643036312512
 20
8.001973758537073
 10
-5.101332934257217
 20
8.031541194742088
 10
-5.472572965586168
 20
8.09633295224501
 10
-5.836067977499789
 20
8.195773934819385
 10
-6.188591562539123
 20
8.328981497264076
 10
-6.527014696406861
 20
8.494773279824546
 10
-6.848333511408522
 20
8.691677702901753
 10
-7.149695958994759
 20
8.917947028896844
 10
-7.4284271247461895
 20
9.171572875253808
 10
-7.6820529711031575
 20
9.450304041005243
 10
-7.9083222970982465
 20
9.751666488591477
 10
-8.105226720175454
 20
10.07298530359314
 10
-8.271018502735924
 20
10.411408437460876
 10
-8.404226065180614
 20
10.76393202250021
 10
-8.503667047754988
 20
11.127427034413827
 10
-8.568458805257912
 20
11.498667065742781
 10
-8.598026241462925
 20
11.874356963687486
 10
-8.592106913713085
 20
12.251162078117252
 10
-8.55075336238055
 20
12.625737860160923
 10
-8.474332644514524
 20
12.99475954865942
 10
-8.363523075816902
 20
13.354951680981165
 10
-8.21930820986408
 20
13.703117166260288
 10
-8.042968108015774
 20
14.036165663001487
 10
-7.8360679774997894
 20
14.351141009169892
 10
-7.60044427852184
 20
14.645247461294606
 10
-7.338188423714753
 20
14.915874509685647
 10
-7.051628214611906
 20
15.16062004950276
 10
-6.743307179915985
 20
15.377311702008061
 10
-6.4159619989581875
 20
15.564026096753471
 10
-6.072498210738711
 20
15.719105943553005
 10
-5.715964424156918
 20
15.841174742707771
 10
-5.349525258342898
 20
15.929149002914755
 10
-4.976433253274056
 20
15.98224785841232
 10
-4.6000000000000005
 20
16.0
  0
LWPOLYLINE
  5
34
330
17
100
AcDbEntity
  8
0
100
AcDbPolyline
 90
51
 70
0
 10
-4.6
 20
16.0
 10
-4.4743569636874865
 20
15.998026241462927
 10
-4.348837921882746
 20
15.992106913713087
 10
-4.223566746725942
 20
15.98224785841232
 10
-4.098667065742783
 20
15.968458805257912
 10
-3.9742621398390763
 20
15.950753362380551
 10
-3.8504747416571012
 20
15.929149002914755
 10
-3.7274270344138296
 20
15.90366704775499
 10
-3.6052404513405802
 20
15.874332644514524
 10
-3.4840355758430825
 20
15.841174742707771
 10
-3.36393202250021
 20
15.804226065180615
 10
-3.245048319018834
 20
15.763523075816902
 10
-3.127501789261288
 20
15.719105943553005
 10
-3.011408437460877
 20
15.671018502735924
 10
-2.896882833739709
 20
15.619308209864078
 10
-2.7840380010418126
 20
15.564026096753471
 10
-2.6729853035931384
 20
15.505226720175454
 10
-2.5638343369985144
 20
15.442968108015775
 10
-2.456692820084013
 20
15.377311702008061
 10
-2.3516664885914773
 20
15.308322297098247
 10
-2.248858990830107
 20
15.23606797749979
 10
-2.1483717853880937
 20
15.16062004950276
 10
-2.050304041005241
 20
15.082052971103156
 10
-1.9547525387053923
 20
15.000444278521838
 10
-1.8618115762852452
 20
14.915874509685647
 10
-1.7715728752538094
 20
14.82842712474619
 10
-1.6841254903143534
 20
14.738188423714755
 10
-1.5995557214781617
 20
14.645247461294607
 10
-1.5179470288968426
 20
14.549695958994759
 10
-1.439379950497238
 20
14.451628214611906
 10
-1.3639320225002103
 20
14.351141009169893
 10
-1.2916777029017523
 20
14.248333511408523
 10
-1.2226882979919393
 20
14.143307179915986
 10
-1.157031891984225
 20
14.036165663001485
 10
-1.0947732798245449
 20
13.92701469640686
 10
-1.0359739032465285
 20
13.815961998958187
 10
-0.9806917901359213
 20
13.703117166260292
 10
-0.9289814972640751
 20
13.588591562539122
 10
-0.8808940564469943
 20
13.472498210738712
 10
-0.8364769241830978
 20
13.354951680981166
 10
-0.7957739348193855
 20
13.23606797749979
 10
-0.7588252572922278
 20
13.115964424156918
 10
-0.7256673554854753
 20
12.994759548659419
 10
-0.6963329522450104
 20
12.872572965586171
 10
-0.6708509970852452
 20
12.7495252583429
 10
-0.6492466376194486
 20
12.625737860160923
 10
-0.6315411947420886
 20
12.501332934257217
 10
-0.6177521415876797
 20
12.376433253274056
 10
-0.6078930862869134
 20
12.251162078117254
 10
-0.6019737585370732
 20
12.125643036312514
 10
-0.5999999999999996
 20
12.0
  0
LWPOLYLINE
  5
35
330
17
100
AcDbEntity
  8
0
100
AcDbPolyline
 90
51
 70
0
 10
-27.4
 20
-1.94688709598267e-15
 10
-27.4
 20
0.09999999999999809
 10
-27.4
 20
0.19999999999999812
 10
-27.4
 20
0.29999999999999816
 10
-27.4
 20
0.3999999999999982
 10
-27.4
 20
0.49999999999999817
 10
-27.4
 20
0.5999999999999982
 10
-27.4
 20
0.6999999999999983
 10
-27.4
 20
0.7999999999999983
 10
-27.4
 20
0.8999999999999982
 10
-27.4
 20
0.9999999999999982
 10
-27.4
 20
1.0999999999999985
 10
-27.4
 20
1.1999999999999984
 10
-27.4
 20
1.2999999999999985
 10
-27.4
 20
1.3999999999999986
 10
-27.4
 20
1.4999999999999987
 10
-27.4
 20
1.5999999999999985
 10
-27.4
 20
1.6999999999999986
 10
-27.4
 20
1.7999999999999985
 10
-27.4
 20
1.8999999999999986
 10
-27.4
 20
1.9999999999999987
 10
-27.4
 20
2.099999999999999
 10
-27.4
 20
2.1999999999999993
 10
-27.4
 20
2.299999999999999
 10
-27.4
 20
2.399999999999999
 10
-27.4
 20
2.499999999999999
 10
-27.4
 20
2.599999999999999
 10
-27.4
 20
2.6999999999999993
 10
-27.4
 20
2.7999999999999994
 10
-27.4
 20
2.8999999999999995
 10
-27.4
 20
2.9999999999999996
 10
-27.4
 20
3.099999999999999
 10
-27.4
 20
3.1999999999999993
 10
-27.4
 20
3.2999999999999994
 10
-27.4
 20
3.3999999999999995
 10
-27.4
 20
3.4999999999999996
 10
-27.4
 20
3.599999999999999
 10
-27.4
 20
3.6999999999999993
 10
-27.4
 20
3.7999999999999994
 10
-27.4
 20
3.8999999999999995
 10
-27.4
 20
3.999999999999999
 10
-27.4
 20
4.1
 10
-27.4
 20
4.2
 10
-27.4
 20
4.3
 10
-27.4
 20
4.4
 10
-27.4
 20
4.5
 10
-27.4
 20
4.6
 10
-27.4
 20
4.7
 10
-27.4
 20
4.8
 10
-27.4
 20
4.9
 10
-27.4
 20
5.0
  0
LWPOLYLINE
  5
36
330
17
100
AcDbEntity
  8
0
100
AcDbPolyline
 90
51
 70
0
 10
-20.0
 20
5.0
 10
-19.832
 20
5.0
 10
-19.664
 20
5.0
 10
-19.496000000000002
 20
5.0
 10
-19.328
 20
5.0
 10
-19.16
 20
5.0
 10
-18.992
 20
5.0
 10
-18.823999999999998
 20
5.0
 10
-18.656
 20
5.0
 10
-18.488
 20
5.0
 10
-18.32
 20
5.0
 10
-18.152
 20
5.0
 10
-17.984
 20
5.0
 10
-17.816
 20
5.0
 10
-17.648
 20
5.0
 10
-17.48
 20
5.0
 10
-17.311999999999998
 20
5.0
 10
-17.144
 20
5.0
 10
-16.976
 20
5.0
 10
-16.808
 20
5.0
 10
-16.64
 20
5.0
 10
-16.472
 20
5.0
 10
-16.304000000000002
 20
5.0
 10
-16.136
 20
5.0
 10
-15.968
 20
5.0
 10
-15.8
 20
5.0
 10
-15.632
 20
5.0
 10
-15.463999999999999
 20
5.0
 10
-15.296
 20
5.0
 10
-15.128
 20
5.0
 10
-14.96
 20
5.0
 10
-14.791999999999998
 20
5.0
 10
-14.623999999999999
 20
5.0
 10
-14.456
 20
5.0
 10
-14.288
 20
5.0
 10
-14.120000000000001
 20
5.0
 10
-13.951999999999998
 20
5.0
 10
-13.783999999999999
 20
5.0
 10
-13.616
 20
5.0
 10
-13.448
 20
5.0
 10
-13.280000000000001
 20
5.0
 10
-13.111999999999998
 20
5.0
 10
-12.943999999999999
 20
5.0
 10
-12.776
 20
5.0
 10
-12.608
 20
5.0
 10
-12.440000000000001
 20
5.0
 10
-12.271999999999998
 20
5.0
 10
-12.104
 20
5.0
 10
-11.936
 20
5.0
 10
-11.767999999999999
 20
5.0
 10
-11.6
 20
5.0
  0
LWPOLYLINE
  5
37
330
17
100
AcDbEntity
  8
0
100
AcDbPolyline
 90
51
 70
0
 10
-27.4
 20
5.0
 10
-27.084
 20
5.0
 10
-26.767999999999997
 20
5.0
 10
-26.451999999999998
 20
5.0
 10
-26.136
 20
5.0
 10
-25.82
 20
5.0
 10
-25.503999999999998
 20
5.0
 10
-25.188
 20
5.0
 10
-24.872
 20
5.0
 10
-24.555999999999997
 20
5.0
 10
-24.24
 20
5.0
 10
-23.924
 20
5.0
 10
-23.607999999999997
 20
5.0
 10
-23.291999999999998
 20
5.0
 10
-22.976
 20
5.0
 10
-22.66
 20
5.0
 10
-22.343999999999998
 20
5.0
 10
-22.028
 20
5.0
 10
-21.712
 20
5.0
 10
-21.396
 20
5.0
 10
-21.08
 20
5.0
 10
-20.764
 20
5.0
 10
-20.448
 20
5.0
 10
-20.131999999999998
 20
5.0
 10
-19.816
 20
5.0
 10
-19.5
 20
5.0
 10
-19.183999999999997
 20
5.0
 10
-18.868
 20
5.0
 10
-18.552
 20
5.0
 10
-18.235999999999997
 20
5.0
 10
-17.92
 20
5.0
 10
-17.604
 20
5.0
 10
-17.287999999999997
 20
5.0
 10
-16.972
 20
5.0
 10
-16.656
 20
5.0
 10
-16.339999999999996
 20
5.0
 10
-16.024
 20
5.0
 10
-15.708
 20
5.0
 10
-15.392
 20
5.0
 10
-15.076
 20
5.0
 10
-14.759999999999998
 20
5.0
 10
-14.443999999999999
 20
5.0
 10
-14.128
 20
5.0
 10
-13.812
 20
5.0
 10
-13.496
 20
5.0
 10
-13.179999999999998
 20
5.0
 10
-12.863999999999999
 20
5.0
 10
-12.548
 20
5.0
 10
-12.232
 20
5.0
 10
-11.916
 20
5.0
 10
-11.599999999999998
 20
5.0
  0
LWPOLYLINE
  5
38
330
17
100
AcDbEntity
  8
0
100
AcDbPolyline
 90
51
 70
0
 10
-11.6
 20
5.0
 10
-11.6
 20
5.14
 10
-11.6
 20
5.28
 10
-11.6
 20
5.42
 10
-11.6
 20
5.5600000000000005
 10
-11.6
 20
5.7
 10
-11.6
 20
5.84
 10
-11.6
 20
5.98
 10
-11.6
 20
6.12
 10
-11.6
 20
6.26
 10
-11.6
 20
6.4
 10
-11.6
 20
6.54
 10
-11.6
 20
6.68
 10
-11.6
 20
6.82
 10
-11.6
 20
6.96
 10
-11.6
 20
7.1
 10
-11.6
 20
7.24
 10
-11.6
 20
7.38
 10
-11.6
 20
7.52
 10
-11.6
 20
7.66
 10
-11.6
 20
7.8
 10
-11.6
 20
7.9399999999999995
 10
-11.6
 20
8.08
 10
-11.6
 20
8.22
 10
-11.6
 20
8.36
 10
-11.6
 20
8.5
 10
-11.600000000000001
 20
8.64
 10
-11.600000000000001
 20
8.78
 10
-11.600000000000001
 20
8.92
 10
-11.600000000000001
 20
9.059999999999999
 10
-11.600000000000001
 20
9.2
 10
-11.600000000000001
 20
9.34
 10
-11.600000000000001
 20
9.48
 10
-11.600000000000001
 20
9.620000000000001
 10
-11.600000000000001
 20
9.76
 10
-11.600000000000001
 20
9.9
 10
-11.600000000000001
 20
10.04
 10
-11.600000000000001
 20
10.18
 10
-11.600000000000001
 20
10.32
 10
-11.600000000000001
 20
10.46
 10
-11.600000000000001
 20
10.6
 10
-11.600000000000001
 20
10.74
 10
-11.600000000000001
 20
10.879999999999999
 10
-11.600000000000001
 20
11.02
 10
-11.600000000000001
 20
11.16
 10
-11.600000000000001
 20
11.3
 10
-11.600000000000001
 20
11.440000000000001
 10
-11.600000000000001
 20
11.58
 10
-11.600000000000001
 20
11.719999999999999
 10
-11.600000000000001
 20
11.86
 10
-11.600000000000001
 20
12.0
  0
ENDSEC
  0
SECTION
  2
OBJECTS
  0
DICTIONARY
  5
A
330
0
100
AcDbDictionary
280
0
281
1
  3
ACAD_COLOR
350
B
  3
ACAD_GROUP
350
C
  3
ACAD_LAYOUT
350
D
  3
ACAD_MATERIAL
350
E
  3
ACAD_MLEADERSTYLE
350
F
  3
ACAD_MLINESTYLE
350
10
  3
ACAD_PLOTSETTINGS
350
11
  3
ACAD_PLOTSTYLENAME
350
12
  3
ACAD_SCALELIST
350
14
  3
ACAD_TABLESTYLE
350
15
  3
ACAD_VISUALSTYLE
350
16
  3
EZDXF_META
350
2D
  0
DICTIONARY
  5
B
330
A
100
AcDbDictionary
280
0
281
1
  0
DICTIONARY
  5
C
330
A
100
AcDbDictionary
280
0
281
1
  0
DICTIONARY
  5
D
330
A
100
AcDbDictionary
280
0
281
1
  3
Model
350
1A
  3
Layout1
350
1E
  0
DICTIONARY
  5
E
330
A
100
AcDbDictionary
280
0
281
1
  3
ByBlock
350
1F
  3
ByLayer
350
20
  3
Global
350
21
  0
DICTIONARY
  5
F
330
A
100
AcDbDictionary
280
0
281
1
  3
Standard
350
2C
  0
DICTIONARY
  5
10
330
A
100
AcDbDictionary
280
0
281
1
  3
Standard
350
22
  0
DICTIONARY
  5
11
330
A
100
AcDbDictionary
280
0
281
1
  0
ACDBDICTIONARYWDFLT
  5
12
330
A
100
AcDbDictionary
280
0
281
1
  3
Normal
350
13
100
AcDbDictionaryWithDefault
340
13
  0
ACDBPLACEHOLDER
  5
13
330
12
  0
DICTIONARY
  5
14
330
A
100
AcDbDictionary
280
0
281
1
  0
DICTIONARY
  5
15
330
A
100
AcDbDictionary
280
0
281
1
  0
DICTIONARY
  5
16
330
A
100
AcDbDictionary
280
0
281
1
  0
LAYOUT
  5
1A
330
D
100
AcDbPlotSettings
  1

  2
Adobe PDF
  4
A3
  6

 40
7.5
 41
20.0
 42
7.5
 43
20.0
 44
420.0
 45
297.0
 46
0.0
 47
0.0
 48
0.0
 49
0.0
140
0.0
141
0.0
142
1.0
143
1.0
 70
1024
 72
1
 73
0
 74
5
  7

 75
16
 76
0
 77
2
 78
300
147
1.0
148
0.0
149
0.0
100
AcDbLayout
  1
Model
 70
1
 71
0
 10
0.0
 20
0.0
 11
420.0
 21
297.0
 12
0.0
 22
0.0
 32
0.0
 14
1e+20
 24
1e+20
 34
1e+20
 15
-1e+20
 25
-1e+20
 35
-1e+20
146
0.0
 13
0.0
 23
0.0
 33
0.0
 16
1.0
 26
0.0
 36
0.0
 17
0.0
 27
1.0
 37
0.0
 76
1
330
17
  0
LAYOUT
  5
1E
330
D
100
AcDbPlotSettings
  1

  2
Adobe PDF
  4
A3
  6

 40
7.5
 41
20.0
 42
7.5
 43
20.0
 44
420.0
 45
297.0
 46
0.0
 47
0.0
 48
0.0
 49
0.0
140
0.0
141
0.0
142
1.0
143
1.0
 70
0
 72
1
 73
0
 74
5
  7

 75
16
 76
0
 77
2
 78
300
147
1.0
148
0.0
149
0.0
100
AcDbLayout
  1
Layout1
 70
1
 71
1
 10
0.0
 20
0.0
 11
420.0
 21
297.0
 12
0.0
 22
0.0
 32
0.0
 14
1e+20
 24
1e+20
 34
1e+20
 15
-1e+20
 25
-1e+20
 35
-1e+20
146
0.0
 13
0.0
 23
0.0
 33
0.0
 16
1.0
 26
0.0
 36
0.0
 17
0.0
 27
1.0
 37
0.0
 76
1
330
1B
  0
MATERIAL
  5
1F
102
{ACAD_REACTORS
330
E
102
}
330
E
100
AcDbMaterial
  1
ByBlock
  2

 70
0
 40
1.0
 71
1
 41
1.0
 91
-1023410177
 42
1.0
 72
1
  3

 73
1
 74
1
 75
1
 44
0.5
 73
0
 45
1.0
 46
1.0
 77
1
  4

 78
1
 79
1
170
1
 48
1.0
171
1
  6

172
1
173
1
174
1
140
1.0
141
1.0
175
1
  7

176
1
177
1
178
1
143
1.0
179
1
  8

270
1
271
1
272
1
145
1.0
146
1.0
273
1
  9

274
1
275
1
276
1
 42
1.0
 72
1
  3

 73
1
 74
1
 75
1
 94
63
  0
MATERIAL
  5
20
102
{ACAD_REACTORS
330
E
102
}
330
E
100
AcDbMaterial
  1
ByLayer
  2

 70
0
 40
1.0
 71
1
 41
1.0
 91
-1023410177
 42
1.0
 72
1
  3

 73
1
 74
1
 75
1
 44
0.5
 73
0
 45
1.0
 46
1.0
 77
1
  4

 78
1
 79
1
170
1
 48
1.0
171
1
  6

172
1
173
1
174
1
140
1.0
141
1.0
175
1
  7

176
1
177
1
178
1
143
1.0
179
1
  8

270
1
271
1
272
1
145
1.0
146
1.0
273
1
  9

274
1
275
1
276
1
 42
1.0
 72
1
  3

 73
1
 74
1
 75
1
 94
63
  0
MATERIAL
  5
21
102
{ACAD_REACTORS
330
E
102
}
330
E
100
AcDbMaterial
  1
Global
  2

 70
0
 40
1.0
 71
1
 41
1.0
 91
-1023410177
 42
1.0
 72
1
  3

 73
1
 74
1
 75
1
 44
0.5
 73
0
 45
1.0
 46
1.0
 77
1
  4

 78
1
 79
1
170
1
 48
1.0
171
1
  6

172
1
173
1
174
1
140
1.0
141
1.0
175
1
  7

176
1
177
1
178
1
143
1.0
179
1
  8

270
1
271
1
272
1
145
1.0
146
1.0
273
1
  9

274
1
275
1
276
1
 42
1.0
 72
1
  3

 73
1
 74
1
 75
1
 94
63
  0
MLINESTYLE
  5
22
102
{ACAD_REACTORS
330
10
102
}
330
10
100
AcDbMlineStyle
  2
Standard
 70
0
  3

 62
256
 51
90.0
 52
90.0
 71
2
 49
0.5
 62
256
  6
BYLAYER
 49
-0.5
 62
256
  6
BYLAYER
  0
MLEADERSTYLE
  5
2C
102
{ACAD_REACTORS
330
F
102
}
330
F
100
AcDbMLeaderStyle
179
2
170
2
171
1
172
0
 90
2
 40
0.0
 41
0.0
173
1
 91
-1056964608
 92
-2
290
1
 42
2.0
291
1
 43
8.0
  3
Standard
 44
4.0
300

342
29
174
1
175
1
176
0
178
1
 93
-1056964608
 45
4.0
292
0
297
0
 46
4.0
 94
-1056964608
 47
1.0
 49
1.0
140
1.0
294
1
141
0.0
177
0
142
1.0
295
0
296
0
143
3.75
271
0
272
9
273
9
  0
DICTIONARY
  5
2D
330
A
100
AcDbDictionary
281
1
  3
CREATED_BY_EZDXF
350
2E
  3
WRITTEN_BY_EZDXF
350
3B
  0
DICTIONARYVAR
  5
2E
330
2D
100
DictionaryVariables
280
0
  1
1.0.3 @ 2025-05-29T09:38:37.796678+00:00
  0
DICTIONARYVAR
  5
3B
330
2D
100
DictionaryVariables
280
0
  1
1.0.3 @ 2025-05-29T09:38:37.799263+00:00
  0
ENDSEC
  0
EOF
