  0
SECTION
  2
HEADER
  9
$ACADVER
  1
AC1027
  9
$ACADMAINTVER
 70
105
  9
$DWGCODEPAGE
  3
ANSI_1252
  9
$LASTSAVEDBY
  1
ezdxf
  9
$REQUIREDVERSIONS
160
0
  9
$INSBASE
 10
0.0
 20
0.0
 30
0.0
  9
$EXTMIN
 10
1e+20
 20
1e+20
 30
1e+20
  9
$EXTMAX
 10
-1e+20
 20
-1e+20
 30
-1e+20
  9
$LIMMIN
 10
0.0
 20
0.0
  9
$LIMMAX
 10
420.0
 20
297.0
  9
$ORTHOMODE
 70
0
  9
$REGENMODE
 70
1
  9
$FILLMODE
 70
1
  9
$QTEXTMODE
 70
0
  9
$MIRRTEXT
 70
1
  9
$LTSCALE
 40
1.0
  9
$ATTMODE
 70
1
  9
$TEXTSIZE
 40
2.5
  9
$TRACEWID
 40
1.0
  9
$TEXTSTYLE
  7
Standard
  9
$CLAYER
  8
0
  9
$CELTYPE
  6
ByLayer
  9
$CECOLOR
 62
256
  9
$CELTSCALE
 40
1.0
  9
$DISPSILH
 70
0
  9
$DIMSCALE
 40
1.0
  9
$DIMASZ
 40
2.5
  9
$DIMEXO
 40
0.625
  9
$DIMDLI
 40
3.75
  9
$DIMRND
 40
0.0
  9
$DIMDLE
 40
0.0
  9
$DIMEXE
 40
1.25
  9
$DIMTP
 40
0.0
  9
$DIMTM
 40
0.0
  9
$DIMTXT
 40
2.5
  9
$DIMCEN
 40
2.5
  9
$DIMTSZ
 40
0.0
  9
$DIMTOL
 70
0
  9
$DIMLIM
 70
0
  9
$DIMTIH
 70
0
  9
$DIMTOH
 70
0
  9
$DIMSE1
 70
0
  9
$DIMSE2
 70
0
  9
$DIMTAD
 70
1
  9
$DIMZIN
 70
8
  9
$DIMBLK
  1

  9
$DIMASO
 70
1
  9
$DIMSHO
 70
1
  9
$DIMPOST
  1

  9
$DIMAPOST
  1

  9
$DIMALT
 70
0
  9
$DIMALTD
 70
3
  9
$DIMALTF
 40
0.03937007874
  9
$DIMLFAC
 40
1.0
  9
$DIMTOFL
 70
1
  9
$DIMTVP
 40
0.0
  9
$DIMTIX
 70
0
  9
$DIMSOXD
 70
0
  9
$DIMSAH
 70
0
  9
$DIMBLK1
  1

  9
$DIMBLK2
  1

  9
$DIMSTYLE
  2
ISO-25
  9
$DIMCLRD
 70
0
  9
$DIMCLRE
 70
0
  9
$DIMCLRT
 70
0
  9
$DIMTFAC
 40
1.0
  9
$DIMGAP
 40
0.625
  9
$DIMJUST
 70
0
  9
$DIMSD1
 70
0
  9
$DIMSD2
 70
0
  9
$DIMTOLJ
 70
0
  9
$DIMTZIN
 70
8
  9
$DIMALTZ
 70
0
  9
$DIMALTTZ
 70
0
  9
$DIMUPT
 70
0
  9
$DIMDEC
 70
2
  9
$DIMTDEC
 70
2
  9
$DIMALTU
 70
2
  9
$DIMALTTD
 70
3
  9
$DIMTXSTY
  7
Standard
  9
$DIMAUNIT
 70
0
  9
$DIMADEC
 70
0
  9
$DIMALTRND
 40
0.0
  9
$DIMAZIN
 70
0
  9
$DIMDSEP
 70
44
  9
$DIMATFIT
 70
3
  9
$DIMFRAC
 70
0
  9
$DIMLDRBLK
  1

  9
$DIMLUNIT
 70
2
  9
$DIMLWD
 70
-2
  9
$DIMLWE
 70
-2
  9
$DIMTMOVE
 70
0
  9
$DIMFXL
 40
1.0
  9
$DIMFXLON
 70
0
  9
$DIMJOGANG
 40
0.785398163397
  9
$DIMTFILL
 70
0
  9
$DIMTFILLCLR
 70
0
  9
$DIMARCSYM
 70
0
  9
$DIMLTYPE
  6

  9
$DIMLTEX1
  6

  9
$DIMLTEX2
  6

  9
$DIMTXTDIRECTION
 70
0
  9
$LUNITS
 70
2
  9
$LUPREC
 70
4
  9
$SKETCHINC
 40
1.0
  9
$FILLETRAD
 40
10.0
  9
$AUNITS
 70
0
  9
$AUPREC
 70
2
  9
$MENU
  1
.
  9
$ELEVATION
 40
0.0
  9
$PELEVATION
 40
0.0
  9
$THICKNESS
 40
0.0
  9
$LIMCHECK
 70
0
  9
$CHAMFERA
 40
0.0
  9
$CHAMFERB
 40
0.0
  9
$CHAMFERC
 40
0.0
  9
$CHAMFERD
 40
0.0
  9
$SKPOLY
 70
0
  9
$TDCREATE
 40
2460825.7769328705
  9
$TDUCREATE
 40
2458532.153996898
  9
$TDUPDATE
 40
2460825.7769328705
  9
$TDUUPDATE
 40
2458532.1544311
  9
$TDINDWG
 40
0.0
  9
$TDUSRTIMER
 40
0.0
  9
$USRTIMER
 70
1
  9
$ANGBASE
 50
0.0
  9
$ANGDIR
 70
0
  9
$PDMODE
 70
0
  9
$PDSIZE
 40
0.0
  9
$PLINEWID
 40
0.0
  9
$SPLFRAME
 70
0
  9
$SPLINETYPE
 70
6
  9
$SPLINESEGS
 70
8
  9
$HANDSEED
  5
3C
  9
$SURFTAB1
 70
6
  9
$SURFTAB2
 70
6
  9
$SURFTYPE
 70
6
  9
$SURFU
 70
6
  9
$SURFV
 70
6
  9
$UCSBASE
  2

  9
$UCSNAME
  2

  9
$UCSORG
 10
0.0
 20
0.0
 30
0.0
  9
$UCSXDIR
 10
1.0
 20
0.0
 30
0.0
  9
$UCSYDIR
 10
0.0
 20
1.0
 30
0.0
  9
$UCSORTHOREF
  2

  9
$UCSORTHOVIEW
 70
0
  9
$UCSORGTOP
 10
0.0
 20
0.0
 30
0.0
  9
$UCSORGBOTTOM
 10
0.0
 20
0.0
 30
0.0
  9
$UCSORGLEFT
 10
0.0
 20
0.0
 30
0.0
  9
$UCSORGRIGHT
 10
0.0
 20
0.0
 30
0.0
  9
$UCSORGFRONT
 10
0.0
 20
0.0
 30
0.0
  9
$UCSORGBACK
 10
0.0
 20
0.0
 30
0.0
  9
$PUCSBASE
  2

  9
$PUCSNAME
  2

  9
$PUCSORG
 10
0.0
 20
0.0
 30
0.0
  9
$PUCSXDIR
 10
1.0
 20
0.0
 30
0.0
  9
$PUCSYDIR
 10
0.0
 20
1.0
 30
0.0
  9
$PUCSORTHOREF
  2

  9
$PUCSORTHOVIEW
 70
0
  9
$PUCSORGTOP
 10
0.0
 20
0.0
 30
0.0
  9
$PUCSORGBOTTOM
 10
0.0
 20
0.0
 30
0.0
  9
$PUCSORGLEFT
 10
0.0
 20
0.0
 30
0.0
  9
$PUCSORGRIGHT
 10
0.0
 20
0.0
 30
0.0
  9
$PUCSORGFRONT
 10
0.0
 20
0.0
 30
0.0
  9
$PUCSORGBACK
 10
0.0
 20
0.0
 30
0.0
  9
$USERI1
 70
0
  9
$USERI2
 70
0
  9
$USERI3
 70
0
  9
$USERI4
 70
0
  9
$USERI5
 70
0
  9
$USERR1
 40
0.0
  9
$USERR2
 40
0.0
  9
$USERR3
 40
0.0
  9
$USERR4
 40
0.0
  9
$USERR5
 40
0.0
  9
$WORLDVIEW
 70
1
  9
$SHADEDGE
 70
3
  9
$SHADEDIF
 70
70
  9
$TILEMODE
 70
1
  9
$MAXACTVP
 70
64
  9
$PINSBASE
 10
0.0
 20
0.0
 30
0.0
  9
$PLIMCHECK
 70
0
  9
$PEXTMIN
 10
1e+20
 20
1e+20
 30
1e+20
  9
$PEXTMAX
 10
-1e+20
 20
-1e+20
 30
-1e+20
  9
$PLIMMIN
 10
0.0
 20
0.0
  9
$PLIMMAX
 10
420.0
 20
297.0
  9
$UNITMODE
 70
0
  9
$VISRETAIN
 70
1
  9
$PLINEGEN
 70
0
  9
$PSLTSCALE
 70
1
  9
$TREEDEPTH
 70
3020
  9
$CMLSTYLE
  2
Standard
  9
$CMLJUST
 70
0
  9
$CMLSCALE
 40
20.0
  9
$PROXYGRAPHICS
 70
1
  9
$MEASUREMENT
 70
1
  9
$CELWEIGHT
370
-1
  9
$ENDCAPS
280
0
  9
$JOINSTYLE
280
0
  9
$LWDISPLAY
290
0
  9
$INSUNITS
 70
6
  9
$HYPERLINKBASE
  1

  9
$STYLESHEET
  1

  9
$XEDIT
290
1
  9
$CEPSNTYPE
380
0
  9
$PSTYLEMODE
290
1
  9
$FINGERPRINTGUID
  2
{87AAADEA-C06D-4627-BF69-202412A424B5}
  9
$VERSIONGUID
  2
{B6A39176-21E2-4760-AA30-005D1949902E}
  9
$EXTNAMES
290
1
  9
$PSVPSCALE
 40
0.0
  9
$OLESTARTUP
290
0
  9
$SORTENTS
280
127
  9
$INDEXCTL
280
0
  9
$HIDETEXT
280
1
  9
$XCLIPFRAME
280
0
  9
$HALOGAP
280
0
  9
$OBSCOLOR
 70
257
  9
$OBSLTYPE
280
0
  9
$INTERSECTIONDISPLAY
280
0
  9
$INTERSECTIONCOLOR
 70
257
  9
$DIMASSOC
280
2
  9
$PROJECTNAME
  1

  9
$CAMERADISPLAY
290
0
  9
$LENSLENGTH
 40
50.0
  9
$CAMERAHEIGHT
 40
0.0
  9
$STEPSPERSEC
 40
24.0
  9
$STEPSIZE
 40
100.0
  9
$3DDWFPREC
 40
2.0
  9
$PSOLWIDTH
 40
0.005
  9
$PSOLHEIGHT
 40
0.08
  9
$LOFTANG1
 40
1.570796326795
  9
$LOFTANG2
 40
1.570796326795
  9
$LOFTMAG1
 40
0.0
  9
$LOFTMAG2
 40
0.0
  9
$LOFTPARAM
 70
7
  9
$LOFTNORMALS
280
1
  9
$LATITUDE
 40
37.795
  9
$LONGITUDE
 40
-122.394
  9
$NORTHDIRECTION
 40
0.0
  9
$TIMEZONE
 70
-8000
  9
$LIGHTGLYPHDISPLAY
280
1
  9
$TILEMODELIGHTSYNCH
280
1
  9
$CMATERIAL
347
20
  9
$SOLIDHIST
280
0
  9
$SHOWHIST
280
1
  9
$DWFFRAME
280
2
  9
$DGNFRAME
280
2
  9
$REALWORLDSCALE
290
1
  9
$INTERFERECOLOR
 62
256
  9
$CSHADOW
280
0
  9
$SHADOWPLANELOCATION
 40
0.0
  0
ENDSEC
  0
SECTION
  2
CLASSES
  0
CLASS
  1
ACDBDICTIONARYWDFLT
  2
AcDbDictionaryWithDefault
  3
ObjectDBX Classes
 90
0
 91
0
280
0
281
0
  0
CLASS
  1
SUN
  2
AcDbSun
  3
SCENEOE
 90
1153
 91
0
280
0
281
0
  0
CLASS
  1
VISUALSTYLE
  2
AcDbVisualStyle
  3
ObjectDBX Classes
 90
4095
 91
0
280
0
281
0
  0
CLASS
  1
MATERIAL
  2
AcDbMaterial
  3
ObjectDBX Classes
 90
1153
 91
0
280
0
281
0
  0
CLASS
  1
SCALE
  2
AcDbScale
  3
ObjectDBX Classes
 90
1153
 91
0
280
0
281
0
  0
CLASS
  1
TABLESTYLE
  2
AcDbTableStyle
  3
ObjectDBX Classes
 90
4095
 91
0
280
0
281
0
  0
CLASS
  1
MLEADERSTYLE
  2
AcDbMLeaderStyle
  3
ACDB_MLEADERSTYLE_CLASS
 90
4095
 91
0
280
0
281
0
  0
CLASS
  1
DICTIONARYVAR
  2
AcDbDictionaryVar
  3
ObjectDBX Classes
 90
0
 91
0
280
0
281
0
  0
CLASS
  1
CELLSTYLEMAP
  2
AcDbCellStyleMap
  3
ObjectDBX Classes
 90
1152
 91
0
280
0
281
0
  0
CLASS
  1
MENTALRAYRENDERSETTINGS
  2
AcDbMentalRayRenderSettings
  3
SCENEOE
 90
1024
 91
0
280
0
281
0
  0
CLASS
  1
ACDBDETAILVIEWSTYLE
  2
AcDbDetailViewStyle
  3
ObjectDBX Classes
 90
1025
 91
0
280
0
281
0
  0
CLASS
  1
ACDBSECTIONVIEWSTYLE
  2
AcDbSectionViewStyle
  3
ObjectDBX Classes
 90
1025
 91
0
280
0
281
0
  0
CLASS
  1
RASTERVARIABLES
  2
AcDbRasterVariables
  3
ISM
 90
0
 91
0
280
0
281
0
  0
CLASS
  1
LAYOUT
  2
AcDbLayout
  3
ObjectDBX Classes
 90
0
 91
0
280
0
281
0
  0
CLASS
  1
ACDBPLACEHOLDER
  2
AcDbPlaceHolder
  3
ObjectDBX Classes
 90
0
 91
0
280
0
281
0
  0
ENDSEC
  0
SECTION
  2
TABLES
  0
TABLE
  2
VPORT
  5
8
330
0
100
AcDbSymbolTable
 70
1
  0
VPORT
  5
23
330
8
100
AcDbSymbolTableRecord
100
AcDbViewportTableRecord
  2
*Active
 70
0
 10
0.0
 20
0.0
 11
1.0
 21
1.0
 12
0.0
 22
0.0
 13
0.0
 23
0.0
 14
0.5
 24
0.5
 15
0.5
 25
0.5
 16
0.0
 26
0.0
 36
1.0
 17
0.0
 27
0.0
 37
0.0
 40
1000.0
 41
1.34
 42
50.0
 43
0.0
 44
0.0
 50
0.0
 51
0.0
 71
0
 72
1000
 73
1
 74
3
 75
0
 76
0
 77
0
 78
0
281
0
 65
0
146
0.0
  0
ENDTAB
  0
TABLE
  2
LTYPE
  5
2
330
0
100
AcDbSymbolTable
 70
3
  0
LTYPE
  5
24
330
2
100
AcDbSymbolTableRecord
100
AcDbLinetypeTableRecord
  2
ByBlock
 70
0
  3

 72
65
 73
0
 40
0.0
  0
LTYPE
  5
25
330
2
100
AcDbSymbolTableRecord
100
AcDbLinetypeTableRecord
  2
ByLayer
 70
0
  3

 72
65
 73
0
 40
0.0
  0
LTYPE
  5
26
330
2
100
AcDbSymbolTableRecord
100
AcDbLinetypeTableRecord
  2
Continuous
 70
0
  3

 72
65
 73
0
 40
0.0
  0
ENDTAB
  0
TABLE
  2
LAYER
  5
1
330
0
100
AcDbSymbolTable
 70
2
  0
LAYER
  5
27
330
1
100
AcDbSymbolTableRecord
100
AcDbLayerTableRecord
  2
0
 70
0
 62
7
  6
Continuous
370
-3
390
13
347
21
  0
LAYER
  5
28
330
1
100
AcDbSymbolTableRecord
100
AcDbLayerTableRecord
  2
Defpoints
 70
0
 62
7
  6
Continuous
290
0
370
-3
390
13
347
21
  0
ENDTAB
  0
TABLE
  2
STYLE
  5
5
330
0
100
AcDbSymbolTable
 70
1
  0
STYLE
  5
29
330
5
100
AcDbSymbolTableRecord
100
AcDbTextStyleTableRecord
  2
Standard
 70
0
 40
0.0
 41
1.0
 50
0.0
 71
0
 42
2.5
  3
txt
  4

  0
ENDTAB
  0
TABLE
  2
VIEW
  5
7
330
0
100
AcDbSymbolTable
 70
0
  0
ENDTAB
  0
TABLE
  2
UCS
  5
6
330
0
100
AcDbSymbolTable
 70
0
  0
ENDTAB
  0
TABLE
  2
APPID
  5
3
330
0
100
AcDbSymbolTable
 70
3
  0
APPID
  5
2A
330
3
100
AcDbSymbolTableRecord
100
AcDbRegAppTableRecord
  2
ACAD
 70
0
  0
APPID
  5
39
330
3
100
AcDbSymbolTableRecord
100
AcDbRegAppTableRecord
  2
HATCHBACKGROUNDCOLOR
 70
0
  0
APPID
  5
3A
330
3
100
AcDbSymbolTableRecord
100
AcDbRegAppTableRecord
  2
EZDXF
 70
0
  0
ENDTAB
  0
TABLE
  2
DIMSTYLE
  5
4
330
0
100
AcDbSymbolTable
 70
1
100
AcDbDimStyleTable
  0
DIMSTYLE
105
2B
330
4
100
AcDbSymbolTableRecord
100
AcDbDimStyleTableRecord
  2
Standard
 70
0
 40
1.0
 41
2.5
 42
0.625
 43
3.75
 44
1.25
 45
0.0
 46
0.0
 47
0.0
 48
0.0
 49
2.5
140
2.5
141
2.5
142
0.0
143
0.03937007874
144
1.0
145
0.0
146
1.0
147
0.625
148
0.0
 69
0
 70
0
 71
0
 72
0
 73
0
 74
0
 75
0
 76
0
 77
1
 78
8
 79
3
170
0
171
3
172
1
173
0
174
0
175
0
176
0
177
0
178
0
179
2
271
2
272
2
273
2
274
3
275
0
276
0
277
2
278
44
279
0
280
0
281
0
282
0
283
0
284
8
285
0
286
0
288
0
289
3
290
0
371
-2
372
-2
  0
ENDTAB
  0
TABLE
  2
BLOCK_RECORD
  5
9
330
0
100
AcDbSymbolTable
 70
2
  0
BLOCK_RECORD
  5
17
330
9
100
AcDbSymbolTableRecord
100
AcDbBlockTableRecord
  2
*Model_Space
340
1A
 70
0
280
1
281
0
  0
BLOCK_RECORD
  5
1B
330
9
100
AcDbSymbolTableRecord
100
AcDbBlockTableRecord
  2
*Paper_Space
340
1E
 70
0
280
1
281
0
  0
ENDTAB
  0
ENDSEC
  0
SECTION
  2
BLOCKS
  0
BLOCK
  5
18
330
17
100
AcDbEntity
  8
0
100
AcDbBlockBegin
  2
*Model_Space
 70
0
 10
0.0
 20
0.0
 30
0.0
  3
*Model_Space
  1

  0
ENDBLK
  5
19
330
17
100
AcDbEntity
  8
0
100
AcDbBlockEnd
  0
BLOCK
  5
1C
330
1B
100
AcDbEntity
  8
0
100
AcDbBlockBegin
  2
*Paper_Space
 70
0
 10
0.0
 20
0.0
 30
0.0
  3
*Paper_Space
  1

  0
ENDBLK
  5
1D
330
1B
100
AcDbEntity
  8
0
100
AcDbBlockEnd
  0
ENDSEC
  0
SECTION
  2
ENTITIES
  0
LWPOLYLINE
  5
2F
330
17
100
AcDbEntity
  8
0
100
AcDbPolyline
 90
51
 70
0
 10
11.6
 20
12.0
 10
11.6
 20
11.76
 10
11.6
 20
11.52
 10
11.6
 20
11.28
 10
11.6
 20
11.04
 10
11.6
 20
10.8
 10
11.6
 20
10.56
 10
11.6
 20
10.32
 10
11.6
 20
10.08
 10
11.6
 20
9.84
 10
11.6
 20
9.6
 10
11.6
 20
9.36
 10
11.6
 20
9.120000000000001
 10
11.6
 20
8.879999999999999
 10
11.6
 20
8.64
 10
11.6
 20
8.4
 10
11.6
 20
8.16
 10
11.6
 20
7.92
 10
11.6
 20
7.68
 10
11.6
 20
7.44
 10
11.6
 20
7.2
 10
11.6
 20
6.96
 10
11.6
 20
6.72
 10
11.6
 20
6.48
 10
11.6
 20
6.24
 10
11.6
 20
6.0
 10
11.6
 20
5.76
 10
11.6
 20
5.52
 10
11.6
 20
5.28
 10
11.6
 20
5.04
 10
11.6
 20
4.8
 10
11.6
 20
4.56
 10
11.6
 20
4.32
 10
11.6
 20
4.08
 10
11.6
 20
3.84
 10
11.6
 20
3.5999999999999996
 10
11.6
 20
3.3599999999999994
 10
11.6
 20
3.119999999999999
 10
11.6
 20
2.880000000000001
 10
11.6
 20
2.6400000000000006
 10
11.6
 20
2.4000000000000004
 10
11.6
 20
2.16
 10
11.6
 20
1.92
 10
11.6
 20
1.6799999999999997
 10
11.6
 20
1.4399999999999995
 10
11.6
 20
1.1999999999999993
 10
11.6
 20
0.9600000000000009
 10
11.6
 20
0.7200000000000006
 10
11.6
 20
0.4800000000000004
 10
11.6
 20
0.2400000000000002
 10
11.600000000000001
 20
0.0
  0
LWPOLYLINE
  5
30
330
17
100
AcDbEntity
  8
0
100
AcDbPolyline
 90
51
 70
0
 10
-2.4
 20
5.0
 10
-2.4
 20
5.14
 10
-2.4
 20
5.28
 10
-2.4
 20
5.42
 10
-2.4
 20
5.5600000000000005
 10
-2.4
 20
5.7
 10
-2.4
 20
5.84
 10
-2.4000000000000004
 20
5.98
 10
-2.4000000000000004
 20
6.12
 10
-2.4000000000000004
 20
6.26
 10
-2.4000000000000004
 20
6.4
 10
-2.4000000000000004
 20
6.54
 10
-2.4000000000000004
 20
6.68
 10
-2.4000000000000004
 20
6.82
 10
-2.4000000000000004
 20
6.96
 10
-2.4000000000000004
 20
7.1
 10
-2.4000000000000004
 20
7.24
 10
-2.4000000000000004
 20
7.38
 10
-2.4000000000000004
 20
7.52
 10
-2.4000000000000004
 20
7.66
 10
-2.400000000000001
 20
7.8
 10
-2.400000000000001
 20
7.9399999999999995
 10
-2.400000000000001
 20
8.08
 10
-2.400000000000001
 20
8.22
 10
-2.400000000000001
 20
8.36
 10
-2.400000000000001
 20
8.5
 10
-2.400000000000001
 20
8.64
 10
-2.400000000000001
 20
8.78
 10
-2.400000000000001
 20
8.92
 10
-2.400000000000001
 20
9.059999999999999
 10
-2.400000000000001
 20
9.2
 10
-2.400000000000001
 20
9.34
 10
-2.400000000000001
 20
9.48
 10
-2.4000000000000012
 20
9.620000000000001
 10
-2.4000000000000012
 20
9.76
 10
-2.4000000000000012
 20
9.9
 10
-2.4000000000000012
 20
10.04
 10
-2.4000000000000012
 20
10.18
 10
-2.4000000000000012
 20
10.32
 10
-2.4000000000000012
 20
10.46
 10
-2.4000000000000012
 20
10.6
 10
-2.4000000000000012
 20
10.74
 10
-2.4000000000000012
 20
10.879999999999999
 10
-2.4000000000000012
 20
11.02
 10
-2.4000000000000012
 20
11.16
 10
-2.4000000000000017
 20
11.3
 10
-2.4000000000000017
 20
11.440000000000001
 10
-2.4000000000000017
 20
11.58
 10
-2.4000000000000017
 20
11.719999999999999
 10
-2.4000000000000017
 20
11.86
 10
-2.4000000000000017
 20
12.0
  0
LWPOLYLINE
  5
31
330
17
100
AcDbEntity
  8
0
100
AcDbPolyline
 90
51
 70
0
 10
-2.4000000000000004
 20
11.999999999999998
 10
-2.386187098997901
 20
12.439533636705189
 10
-2.344802909201346
 20
12.877332634950129
 10
-2.2760107551008213
 20
13.31166920210007
 10
-2.180082127900418
 20
13.740829210153985
 10
-2.057395614066076
 20
14.16311896062463
 10
-1.9084354012177611
 20
14.576871868792741
 10
-1.733789367262137
 20
14.980455040955508
 10
-1.5341467603070473
 20
15.372275718712004
 10
-1.3102954785141048
 20
15.750787564852978
 10
-1.0631189606246334
 20
16.11449676604731
 10
-0.7935926994305271
 20
16.461967928240824
 10
-0.502780391949881
 20
16.79182974150082
 10
-0.19182974150082277
 20
17.102780391949878
 10
0.13803207175917187
 20
17.393592699430528
 10
0.48550323395268613
 20
17.66311896062463
 10
0.8492124351470198
 20
17.910295478514104
 10
1.2277242812879923
 20
18.134146760307047
 10
1.6195449590444886
 20
18.333789367262135
 10
2.0231281312072547
 20
18.50843540121776
 10
2.4368810393753657
 20
18.657395614066075
 10
2.8591707898460124
 20
18.780082127900418
 10
3.2883307978999268
 20
18.876010755100822
 10
3.722667365049867
 20
18.944802909201343
 10
4.160466363294807
 20
18.986187098997902
 10
4.599999999999998
 20
19.0
 10
5.039533636705189
 20
18.986187098997902
 10
5.477332634950129
 20
18.944802909201346
 10
5.911669202100069
 20
18.876010755100822
 10
6.340829210153984
 20
18.780082127900418
 10
6.76311896062463
 20
18.657395614066075
 10
7.176871868792741
 20
18.50843540121776
 10
7.580455040955508
 20
18.333789367262135
 10
7.972275718712009
 20
18.134146760307043
 10
8.350787564852975
 20
17.910295478514104
 10
8.71449676604731
 20
17.663118960624633
 10
9.061967928240824
 20
17.393592699430528
 10
9.391829741500821
 20
17.10278039194988
 10
9.70278039194988
 20
16.791829741500823
 10
9.993592699430526
 20
16.461967928240828
 10
10.263118960624631
 20
16.114496766047314
 10
10.510295478514102
 20
15.75078756485298
 10
10.734146760307045
 20
15.372275718712007
 10
10.933789367262136
 20
14.980455040955512
 10
11.10843540121776
 20
14.576871868792745
 10
11.257395614066073
 20
14.163118960624633
 10
11.380082127900415
 20
13.740829210153988
 10
11.47601075510082
 20
13.311669202100074
 10
11.544802909201344
 20
12.877332634950132
 10
11.5861870989979
 20
12.439533636705193
 10
11.6
 20
12.000000000000002
  0
LWPOLYLINE
  5
32
330
17
100
AcDbEntity
  8
0
100
AcDbPolyline
 90
51
 70
0
 10
11.6
 20
8.24229573481716e-16
 10
10.636
 20
7.557332537544422e-16
 10
9.671999999999999
 20
6.872369340271686e-16
 10
8.707999999999998
 20
6.187406142998949e-16
 10
7.744
 20
5.502442945726214e-16
 10
6.779999999999999
 20
4.817479748453477e-16
 10
5.815999999999999
 20
4.1325165511807405e-16
 10
4.8519999999999985
 20
3.447553353908004e-16
 10
3.887999999999999
 20
2.762590156635268e-16
 10
2.9239999999999995
 20
2.0776269593625319e-16
 10
1.959999999999999
 20
1.3926637620897953e-16
 10
0.9959999999999987
 20
7.077005648170586e-17
 10
0.03199999999999825
 20
2.2737367544321956e-18
 10
-0.9320000000000004
 20
-6.622258297284134e-17
 10
-1.8960000000000026
 20
-1.3471890270011513e-16
 10
-2.860000000000001
 20
-2.0321522242738868e-16
 10
-3.8240000000000016
 20
-2.7171154215466233e-16
 10
-4.788000000000002
 20
-3.40207861881936e-16
 10
-5.752000000000001
 20
-4.0870418160920954e-16
 10
-6.716000000000003
 20
-4.772005013364834e-16
 10
-7.6800000000000015
 20
-5.456968210637569e-16
 10
-8.644
 20
-6.141931407910304e-16
 10
-9.608000000000002
 20
-6.8268946051830425e-16
 10
-10.572000000000005
 20
-7.51185780245578e-16
 10
-11.536000000000003
 20
-8.196820999728515e-16
 10
-12.500000000000002
 20
-8.88178419700125e-16
 10
-13.464
 20
-9.566747394273986e-16
 10
-14.428000000000003
 20
-1.0251710591546725e-15
 10
-15.392000000000005
 20
-1.0936673788819462e-15
 10
-16.356
 20
-1.1621636986092195e-15
 10
-17.32
 20
-1.230660018336493e-15
 10
-18.284
 20
-1.2991563380637666e-15
 10
-19.248000000000005
 20
-1.3676526577910407e-15
 10
-20.212000000000003
 20
-1.4361489775183143e-15
 10
-21.176000000000002
 20
-1.5046452972455878e-15
 10
-22.14
 20
-1.5731416169728613e-15
 10
-23.104
 20
-1.6416379367001348e-15
 10
-24.067999999999998
 20
-1.7101342564274084e-15
 10
-25.032000000000004
 20
-1.7786305761546823e-15
 10
-25.996000000000002
 20
-1.847126895881956e-15
 10
-26.96
 20
-1.9156232156092294e-15
 10
-27.924
 20
-1.984119535336503e-15
 10
-28.887999999999998
 20
-2.052615855063777e-15
 10
-29.851999999999997
 20
-2.1211121747910503e-15
 10
-30.816000000000003
 20
-2.1896084945183243e-15
 10
-31.78
 20
-2.2581048142455978e-15
 10
-32.74400000000001
 20
-2.3266011339728717e-15
 10
-33.708
 20
-2.395097453700145e-15
 10
-34.672000000000004
 20
-2.4635937734274188e-15
 10
-35.636
 20
-2.5320900931546923e-15
 10
-36.6
 20
-2.600586412881966e-15
  0
LWPOLYLINE
  5
33
330
17
100
AcDbEntity
  8
0
100
AcDbPolyline
 90
51
 70
0
 10
8.6
 20
12.0
 10
8.58224785841232
 20
11.623566746725944
 10
8.529149002914755
 20
11.2504747416571
 10
8.441174742707773
 20
10.884035575843082
 10
8.319105943553005
 20
10.527501789261288
 10
8.16402609675347
 20
10.184038001041813
 10
7.977311702008061
 20
9.856692820084014
 10
7.760620049502762
 20
9.548371785388095
 10
7.515874509685645
 20
9.261811576285245
 10
7.245247461294607
 20
8.999555721478162
 10
6.951141009169893
 20
8.76393202250021
 10
6.636165663001484
 20
8.557031891984225
 10
6.303117166260291
 20
8.380691790135923
 10
5.954951680981165
 20
8.236476924183098
 10
5.594759548659419
 20
8.125667355485476
 10
5.2257378601609235
 20
8.049246637619449
 10
4.8511620781172535
 20
8.007893086286913
 10
4.474356963687487
 20
8.001973758537073
 10
4.098667065742783
 20
8.031541194742088
 10
3.7274270344138314
 20
8.09633295224501
 10
3.3639320225002107
 20
8.195773934819385
 10
3.0114084374608767
 20
8.328981497264076
 10
2.672985303593138
 20
8.494773279824546
 10
2.3516664885914773
 20
8.691677702901753
 10
2.050304041005241
 20
8.917947028896844
 10
1.7715728752538098
 20
9.171572875253808
 10
1.5179470288968422
 20
9.450304041005243
 10
1.2916777029017532
 20
9.751666488591477
 10
1.0947732798245453
 20
10.07298530359314
 10
0.928981497264076
 20
10.411408437460876
 10
0.7957739348193855
 20
10.76393202250021
 10
0.6963329522450108
 20
11.127427034413827
 10
0.6315411947420886
 20
11.498667065742781
 10
0.6019737585370732
 20
11.874356963687486
 10
0.6078930862869134
 20
12.251162078117252
 10
0.6492466376194486
 20
12.625737860160923
 10
0.7256673554854753
 20
12.99475954865942
 10
0.8364769241830974
 20
13.354951680981165
 10
0.98069179013592
 20
13.703117166260288
 10
1.157031891984226
 20
14.036165663001487
 10
1.3639320225002094
 20
14.351141009169892
 10
1.5995557214781595
 20
14.645247461294606
 10
1.8618115762852465
 20
14.915874509685647
 10
2.1483717853880937
 20
15.16062004950276
 10
2.4566928200840144
 20
15.377311702008061
 10
2.7840380010418118
 20
15.564026096753471
 10
3.127501789261288
 20
15.719105943553005
 10
3.484035575843081
 20
15.841174742707771
 10
3.850474741657101
 20
15.929149002914755
 10
4.223566746725943
 20
15.98224785841232
 10
4.599999999999999
 20
16.0
  0
LWPOLYLINE
  5
34
330
17
100
AcDbEntity
  8
0
100
AcDbPolyline
 90
51
 70
0
 10
4.6
 20
16.0
 10
4.725643036312513
 20
15.998026241462927
 10
4.8511620781172535
 20
15.992106913713087
 10
4.976433253274057
 20
15.98224785841232
 10
5.101332934257217
 20
15.968458805257912
 10
5.2257378601609235
 20
15.950753362380551
 10
5.349525258342898
 20
15.929149002914755
 10
5.47257296558617
 20
15.90366704775499
 10
5.594759548659419
 20
15.874332644514524
 10
5.715964424156917
 20
15.841174742707771
 10
5.8360679774997894
 20
15.804226065180615
 10
5.954951680981165
 20
15.763523075816902
 10
6.072498210738711
 20
15.719105943553005
 10
6.188591562539122
 20
15.671018502735924
 10
6.30311716626029
 20
15.619308209864078
 10
6.415961998958187
 20
15.564026096753471
 10
6.5270146964068605
 20
15.505226720175454
 10
6.636165663001485
 20
15.442968108015775
 10
6.743307179915986
 20
15.377311702008061
 10
6.848333511408522
 20
15.308322297098247
 10
6.951141009169892
 20
15.23606797749979
 10
7.051628214611906
 20
15.16062004950276
 10
7.149695958994759
 20
15.082052971103156
 10
7.245247461294607
 20
15.000444278521838
 10
7.3381884237147545
 20
14.915874509685647
 10
7.4284271247461895
 20
14.82842712474619
 10
7.515874509685646
 20
14.738188423714755
 10
7.600444278521838
 20
14.645247461294607
 10
7.682052971103157
 20
14.549695958994759
 10
7.760620049502761
 20
14.451628214611906
 10
7.8360679774997894
 20
14.351141009169893
 10
7.9083222970982465
 20
14.248333511408523
 10
7.97731170200806
 20
14.143307179915986
 10
8.042968108015774
 20
14.036165663001485
 10
8.105226720175455
 20
13.92701469640686
 10
8.16402609675347
 20
13.815961998958187
 10
8.219308209864078
 20
13.703117166260292
 10
8.271018502735924
 20
13.588591562539122
 10
8.319105943553005
 20
13.472498210738712
 10
8.363523075816902
 20
13.354951680981166
 10
8.404226065180614
 20
13.23606797749979
 10
8.441174742707771
 20
13.115964424156918
 10
8.474332644514524
 20
12.994759548659419
 10
8.50366704775499
 20
12.872572965586171
 10
8.529149002914753
 20
12.7495252583429
 10
8.55075336238055
 20
12.625737860160923
 10
8.568458805257912
 20
12.501332934257217
 10
8.58224785841232
 20
12.376433253274056
 10
8.592106913713085
 20
12.251162078117254
 10
8.598026241462925
 20
12.125643036312514
 10
8.6
 20
12.0
  0
LWPOLYLINE
  5
35
330
17
100
AcDbEntity
  8
0
100
AcDbPolyline
 90
51
 70
0
 10
-36.6
 20
-2.60058641288197e-15
 10
-36.6
 20
0.09999999999999745
 10
-36.6
 20
0.19999999999999749
 10
-36.6
 20
0.29999999999999755
 10
-36.6
 20
0.3999999999999976
 10
-36.6
 20
0.4999999999999977
 10
-36.6
 20
0.5999999999999978
 10
-36.6
 20
0.6999999999999978
 10
-36.6
 20
0.7999999999999978
 10
-36.6
 20
0.8999999999999979
 10
-36.6
 20
0.9999999999999981
 10
-36.6
 20
1.0999999999999979
 10
-36.6
 20
1.199999999999998
 10
-36.6
 20
1.2999999999999978
 10
-36.6
 20
1.3999999999999981
 10
-36.6
 20
1.4999999999999982
 10
-36.6
 20
1.599999999999998
 10
-36.6
 20
1.6999999999999982
 10
-36.6
 20
1.7999999999999983
 10
-36.6
 20
1.8999999999999986
 10
-36.6
 20
1.9999999999999987
 10
-36.6
 20
2.0999999999999983
 10
-36.6
 20
2.1999999999999984
 10
-36.6
 20
2.2999999999999985
 10
-36.6
 20
2.3999999999999986
 10
-36.6
 20
2.4999999999999987
 10
-36.6
 20
2.5999999999999983
 10
-36.6
 20
2.699999999999999
 10
-36.6
 20
2.799999999999999
 10
-36.6
 20
2.899999999999999
 10
-36.6
 20
2.999999999999999
 10
-36.6
 20
3.099999999999999
 10
-36.6
 20
3.199999999999999
 10
-36.6
 20
3.299999999999999
 10
-36.6
 20
3.399999999999999
 10
-36.6
 20
3.499999999999999
 10
-36.6
 20
3.599999999999999
 10
-36.6
 20
3.699999999999999
 10
-36.6
 20
3.8
 10
-36.6
 20
3.8999999999999995
 10
-36.6
 20
4.0
 10
-36.6
 20
4.1
 10
-36.6
 20
4.199999999999999
 10
-36.6
 20
4.3
 10
-36.6
 20
4.3999999999999995
 10
-36.6
 20
4.5
 10
-36.6
 20
4.6
 10
-36.6
 20
4.699999999999999
 10
-36.6
 20
4.8
 10
-36.6
 20
4.9
 10
-36.6
 20
5.0
  0
LWPOLYLINE
  5
36
330
17
100
AcDbEntity
  8
0
100
AcDbPolyline
 90
51
 70
0
 10
-20.0
 20
5.0
 10
-19.648
 20
5.0
 10
-19.296
 20
5.0
 10
-18.944
 20
5.0
 10
-18.592
 20
5.0
 10
-18.240000000000002
 20
5.0
 10
-17.887999999999998
 20
5.0
 10
-17.536
 20
5.0
 10
-17.183999999999997
 20
5.0
 10
-16.832
 20
5.0
 10
-16.48
 20
5.0
 10
-16.128
 20
5.0
 10
-15.776
 20
5.0
 10
-15.424
 20
5.0
 10
-15.072
 20
5.0
 10
-14.719999999999999
 20
5.0
 10
-14.367999999999999
 20
5.0
 10
-14.015999999999998
 20
5.0
 10
-13.664
 20
5.0
 10
-13.312
 20
5.0
 10
-12.96
 20
5.0
 10
-12.608
 20
5.0
 10
-12.256
 20
5.0
 10
-11.904
 20
5.0
 10
-11.552
 20
5.0
 10
-11.2
 20
5.0
 10
-10.847999999999999
 20
5.0
 10
-10.495999999999999
 20
5.0
 10
-10.143999999999998
 20
5.0
 10
-9.792
 20
5.0
 10
-9.44
 20
5.0
 10
-9.088
 20
5.0
 10
-8.735999999999997
 20
5.0
 10
-8.384
 20
5.0
 10
-8.031999999999996
 20
5.0
 10
-7.68
 20
5.0
 10
-7.327999999999999
 20
5.0
 10
-6.975999999999999
 20
5.0
 10
-6.623999999999999
 20
5.0
 10
-6.2719999999999985
 20
5.0
 10
-5.920000000000002
 20
5.0
 10
-5.567999999999998
 20
5.0
 10
-5.216000000000001
 20
5.0
 10
-4.863999999999997
 20
5.0
 10
-4.5120000000000005
 20
5.0
 10
-4.159999999999997
 20
5.0
 10
-3.808
 20
5.0
 10
-3.4559999999999995
 20
5.0
 10
-3.103999999999999
 20
5.0
 10
-2.751999999999999
 20
5.0
 10
-2.3999999999999986
 20
5.0
  0
LWPOLYLINE
  5
37
330
17
100
AcDbEntity
  8
0
100
AcDbPolyline
 90
51
 70
0
 10
-36.6
 20
5.0
 10
-35.916000000000004
 20
5.0
 10
-35.232
 20
5.0
 10
-34.548
 20
5.0
 10
-33.864000000000004
 20
5.0
 10
-33.18
 20
5.0
 10
-32.496
 20
5.0
 10
-31.812
 20
5.0
 10
-31.128
 20
5.0
 10
-30.444000000000003
 20
5.0
 10
-29.76
 20
5.0
 10
-29.076
 20
5.0
 10
-28.392000000000003
 20
5.0
 10
-27.708
 20
5.0
 10
-27.024
 20
5.0
 10
-26.340000000000003
 20
5.0
 10
-25.656
 20
5.0
 10
-24.972
 20
5.0
 10
-24.288
 20
5.0
 10
-23.604
 20
5.0
 10
-22.92
 20
5.0
 10
-22.236
 20
5.0
 10
-21.552
 20
5.0
 10
-20.868000000000002
 20
5.0
 10
-20.184
 20
5.0
 10
-19.5
 20
5.0
 10
-18.816
 20
5.0
 10
-18.131999999999998
 20
5.0
 10
-17.448
 20
5.0
 10
-16.764
 20
5.0
 10
-16.080000000000002
 20
5.0
 10
-15.396
 20
5.0
 10
-14.712
 20
5.0
 10
-14.027999999999999
 20
5.0
 10
-13.343999999999998
 20
5.0
 10
-12.66
 20
5.0
 10
-11.975999999999999
 20
5.0
 10
-11.291999999999998
 20
5.0
 10
-10.607999999999997
 20
5.0
 10
-9.924
 20
5.0
 10
-9.240000000000002
 20
5.0
 10
-8.556000000000001
 20
5.0
 10
-7.872
 20
5.0
 10
-7.187999999999999
 20
5.0
 10
-6.503999999999998
 20
5.0
 10
-5.819999999999997
 20
5.0
 10
-5.135999999999999
 20
5.0
 10
-4.451999999999998
 20
5.0
 10
-3.7680000000000007
 20
5.0
 10
-3.083999999999996
 20
5.0
 10
-2.3999999999999986
 20
5.0
  0
LWPOLYLINE
  5
38
330
17
100
AcDbEntity
  8
0
100
AcDbPolyline
 90
51
 70
0
 10
-2.4
 20
5.0
 10
-2.4
 20
5.14
 10
-2.4
 20
5.28
 10
-2.4
 20
5.42
 10
-2.4
 20
5.5600000000000005
 10
-2.4
 20
5.7
 10
-2.4
 20
5.84
 10
-2.4000000000000004
 20
5.98
 10
-2.4000000000000004
 20
6.12
 10
-2.4000000000000004
 20
6.26
 10
-2.4000000000000004
 20
6.4
 10
-2.4000000000000004
 20
6.54
 10
-2.4000000000000004
 20
6.68
 10
-2.4000000000000004
 20
6.82
 10
-2.4000000000000004
 20
6.96
 10
-2.4000000000000004
 20
7.1
 10
-2.4000000000000004
 20
7.24
 10
-2.4000000000000004
 20
7.38
 10
-2.4000000000000004
 20
7.52
 10
-2.4000000000000004
 20
7.66
 10
-2.400000000000001
 20
7.8
 10
-2.400000000000001
 20
7.9399999999999995
 10
-2.400000000000001
 20
8.08
 10
-2.400000000000001
 20
8.22
 10
-2.400000000000001
 20
8.36
 10
-2.400000000000001
 20
8.5
 10
-2.400000000000001
 20
8.64
 10
-2.400000000000001
 20
8.78
 10
-2.400000000000001
 20
8.92
 10
-2.400000000000001
 20
9.059999999999999
 10
-2.400000000000001
 20
9.2
 10
-2.400000000000001
 20
9.34
 10
-2.400000000000001
 20
9.48
 10
-2.4000000000000012
 20
9.620000000000001
 10
-2.4000000000000012
 20
9.76
 10
-2.4000000000000012
 20
9.9
 10
-2.4000000000000012
 20
10.04
 10
-2.4000000000000012
 20
10.18
 10
-2.4000000000000012
 20
10.32
 10
-2.4000000000000012
 20
10.46
 10
-2.4000000000000012
 20
10.6
 10
-2.4000000000000012
 20
10.74
 10
-2.4000000000000012
 20
10.879999999999999
 10
-2.4000000000000012
 20
11.02
 10
-2.4000000000000012
 20
11.16
 10
-2.4000000000000017
 20
11.3
 10
-2.4000000000000017
 20
11.440000000000001
 10
-2.4000000000000017
 20
11.58
 10
-2.4000000000000017
 20
11.719999999999999
 10
-2.4000000000000017
 20
11.86
 10
-2.4000000000000017
 20
12.0
  0
ENDSEC
  0
SECTION
  2
OBJECTS
  0
DICTIONARY
  5
A
330
0
100
AcDbDictionary
280
0
281
1
  3
ACAD_COLOR
350
B
  3
ACAD_GROUP
350
C
  3
ACAD_LAYOUT
350
D
  3
ACAD_MATERIAL
350
E
  3
ACAD_MLEADERSTYLE
350
F
  3
ACAD_MLINESTYLE
350
10
  3
ACAD_PLOTSETTINGS
350
11
  3
ACAD_PLOTSTYLENAME
350
12
  3
ACAD_SCALELIST
350
14
  3
ACAD_TABLESTYLE
350
15
  3
ACAD_VISUALSTYLE
350
16
  3
EZDXF_META
350
2D
  0
DICTIONARY
  5
B
330
A
100
AcDbDictionary
280
0
281
1
  0
DICTIONARY
  5
C
330
A
100
AcDbDictionary
280
0
281
1
  0
DICTIONARY
  5
D
330
A
100
AcDbDictionary
280
0
281
1
  3
Model
350
1A
  3
Layout1
350
1E
  0
DICTIONARY
  5
E
330
A
100
AcDbDictionary
280
0
281
1
  3
ByBlock
350
1F
  3
ByLayer
350
20
  3
Global
350
21
  0
DICTIONARY
  5
F
330
A
100
AcDbDictionary
280
0
281
1
  3
Standard
350
2C
  0
DICTIONARY
  5
10
330
A
100
AcDbDictionary
280
0
281
1
  3
Standard
350
22
  0
DICTIONARY
  5
11
330
A
100
AcDbDictionary
280
0
281
1
  0
ACDBDICTIONARYWDFLT
  5
12
330
A
100
AcDbDictionary
280
0
281
1
  3
Normal
350
13
100
AcDbDictionaryWithDefault
340
13
  0
ACDBPLACEHOLDER
  5
13
330
12
  0
DICTIONARY
  5
14
330
A
100
AcDbDictionary
280
0
281
1
  0
DICTIONARY
  5
15
330
A
100
AcDbDictionary
280
0
281
1
  0
DICTIONARY
  5
16
330
A
100
AcDbDictionary
280
0
281
1
  0
LAYOUT
  5
1A
330
D
100
AcDbPlotSettings
  1

  2
Adobe PDF
  4
A3
  6

 40
7.5
 41
20.0
 42
7.5
 43
20.0
 44
420.0
 45
297.0
 46
0.0
 47
0.0
 48
0.0
 49
0.0
140
0.0
141
0.0
142
1.0
143
1.0
 70
1024
 72
1
 73
0
 74
5
  7

 75
16
 76
0
 77
2
 78
300
147
1.0
148
0.0
149
0.0
100
AcDbLayout
  1
Model
 70
1
 71
0
 10
0.0
 20
0.0
 11
420.0
 21
297.0
 12
0.0
 22
0.0
 32
0.0
 14
1e+20
 24
1e+20
 34
1e+20
 15
-1e+20
 25
-1e+20
 35
-1e+20
146
0.0
 13
0.0
 23
0.0
 33
0.0
 16
1.0
 26
0.0
 36
0.0
 17
0.0
 27
1.0
 37
0.0
 76
1
330
17
  0
LAYOUT
  5
1E
330
D
100
AcDbPlotSettings
  1

  2
Adobe PDF
  4
A3
  6

 40
7.5
 41
20.0
 42
7.5
 43
20.0
 44
420.0
 45
297.0
 46
0.0
 47
0.0
 48
0.0
 49
0.0
140
0.0
141
0.0
142
1.0
143
1.0
 70
0
 72
1
 73
0
 74
5
  7

 75
16
 76
0
 77
2
 78
300
147
1.0
148
0.0
149
0.0
100
AcDbLayout
  1
Layout1
 70
1
 71
1
 10
0.0
 20
0.0
 11
420.0
 21
297.0
 12
0.0
 22
0.0
 32
0.0
 14
1e+20
 24
1e+20
 34
1e+20
 15
-1e+20
 25
-1e+20
 35
-1e+20
146
0.0
 13
0.0
 23
0.0
 33
0.0
 16
1.0
 26
0.0
 36
0.0
 17
0.0
 27
1.0
 37
0.0
 76
1
330
1B
  0
MATERIAL
  5
1F
102
{ACAD_REACTORS
330
E
102
}
330
E
100
AcDbMaterial
  1
ByBlock
  2

 70
0
 40
1.0
 71
1
 41
1.0
 91
-1023410177
 42
1.0
 72
1
  3

 73
1
 74
1
 75
1
 44
0.5
 73
0
 45
1.0
 46
1.0
 77
1
  4

 78
1
 79
1
170
1
 48
1.0
171
1
  6

172
1
173
1
174
1
140
1.0
141
1.0
175
1
  7

176
1
177
1
178
1
143
1.0
179
1
  8

270
1
271
1
272
1
145
1.0
146
1.0
273
1
  9

274
1
275
1
276
1
 42
1.0
 72
1
  3

 73
1
 74
1
 75
1
 94
63
  0
MATERIAL
  5
20
102
{ACAD_REACTORS
330
E
102
}
330
E
100
AcDbMaterial
  1
ByLayer
  2

 70
0
 40
1.0
 71
1
 41
1.0
 91
-1023410177
 42
1.0
 72
1
  3

 73
1
 74
1
 75
1
 44
0.5
 73
0
 45
1.0
 46
1.0
 77
1
  4

 78
1
 79
1
170
1
 48
1.0
171
1
  6

172
1
173
1
174
1
140
1.0
141
1.0
175
1
  7

176
1
177
1
178
1
143
1.0
179
1
  8

270
1
271
1
272
1
145
1.0
146
1.0
273
1
  9

274
1
275
1
276
1
 42
1.0
 72
1
  3

 73
1
 74
1
 75
1
 94
63
  0
MATERIAL
  5
21
102
{ACAD_REACTORS
330
E
102
}
330
E
100
AcDbMaterial
  1
Global
  2

 70
0
 40
1.0
 71
1
 41
1.0
 91
-1023410177
 42
1.0
 72
1
  3

 73
1
 74
1
 75
1
 44
0.5
 73
0
 45
1.0
 46
1.0
 77
1
  4

 78
1
 79
1
170
1
 48
1.0
171
1
  6

172
1
173
1
174
1
140
1.0
141
1.0
175
1
  7

176
1
177
1
178
1
143
1.0
179
1
  8

270
1
271
1
272
1
145
1.0
146
1.0
273
1
  9

274
1
275
1
276
1
 42
1.0
 72
1
  3

 73
1
 74
1
 75
1
 94
63
  0
MLINESTYLE
  5
22
102
{ACAD_REACTORS
330
10
102
}
330
10
100
AcDbMlineStyle
  2
Standard
 70
0
  3

 62
256
 51
90.0
 52
90.0
 71
2
 49
0.5
 62
256
  6
BYLAYER
 49
-0.5
 62
256
  6
BYLAYER
  0
MLEADERSTYLE
  5
2C
102
{ACAD_REACTORS
330
F
102
}
330
F
100
AcDbMLeaderStyle
179
2
170
2
171
1
172
0
 90
2
 40
0.0
 41
0.0
173
1
 91
-1056964608
 92
-2
290
1
 42
2.0
291
1
 43
8.0
  3
Standard
 44
4.0
300

342
29
174
1
175
1
176
0
178
1
 93
-1056964608
 45
4.0
292
0
297
0
 46
4.0
 94
-1056964608
 47
1.0
 49
1.0
140
1.0
294
1
141
0.0
177
0
142
1.0
295
0
296
0
143
3.75
271
0
272
9
273
9
  0
DICTIONARY
  5
2D
330
A
100
AcDbDictionary
281
1
  3
CREATED_BY_EZDXF
350
2E
  3
WRITTEN_BY_EZDXF
350
3B
  0
DICTIONARYVAR
  5
2E
330
2D
100
DictionaryVariables
280
0
  1
1.0.3 @ 2025-05-29T09:38:47.145367+00:00
  0
DICTIONARYVAR
  5
3B
330
2D
100
DictionaryVariables
280
0
  1
1.0.3 @ 2025-05-29T09:38:47.146377+00:00
  0
ENDSEC
  0
EOF
