  0
SECTION
  2
HEADER
  9
$ACADVER
  1
AC1027
  9
$ACADMAINTVER
 70
105
  9
$DWGCODEPAGE
  3
ANSI_1252
  9
$LASTSAVEDBY
  1
ezdxf
  9
$REQUIREDVERSIONS
160
0
  9
$INSBASE
 10
0.0
 20
0.0
 30
0.0
  9
$EXTMIN
 10
1e+20
 20
1e+20
 30
1e+20
  9
$EXTMAX
 10
-1e+20
 20
-1e+20
 30
-1e+20
  9
$LIMMIN
 10
0.0
 20
0.0
  9
$LIMMAX
 10
420.0
 20
297.0
  9
$ORTHOMODE
 70
0
  9
$REGENMODE
 70
1
  9
$FILLMODE
 70
1
  9
$QTEXTMODE
 70
0
  9
$MIRRTEXT
 70
1
  9
$LTSCALE
 40
1.0
  9
$ATTMODE
 70
1
  9
$TEXTSIZE
 40
2.5
  9
$TRACEWID
 40
1.0
  9
$TEXTSTYLE
  7
Standard
  9
$CLAYER
  8
0
  9
$CELTYPE
  6
ByLayer
  9
$CECOLOR
 62
256
  9
$CELTSCALE
 40
1.0
  9
$DISPSILH
 70
0
  9
$DIMSCALE
 40
1.0
  9
$DIMASZ
 40
2.5
  9
$DIMEXO
 40
0.625
  9
$DIMDLI
 40
3.75
  9
$DIMRND
 40
0.0
  9
$DIMDLE
 40
0.0
  9
$DIMEXE
 40
1.25
  9
$DIMTP
 40
0.0
  9
$DIMTM
 40
0.0
  9
$DIMTXT
 40
2.5
  9
$DIMCEN
 40
2.5
  9
$DIMTSZ
 40
0.0
  9
$DIMTOL
 70
0
  9
$DIMLIM
 70
0
  9
$DIMTIH
 70
0
  9
$DIMTOH
 70
0
  9
$DIMSE1
 70
0
  9
$DIMSE2
 70
0
  9
$DIMTAD
 70
1
  9
$DIMZIN
 70
8
  9
$DIMBLK
  1

  9
$DIMASO
 70
1
  9
$DIMSHO
 70
1
  9
$DIMPOST
  1

  9
$DIMAPOST
  1

  9
$DIMALT
 70
0
  9
$DIMALTD
 70
3
  9
$DIMALTF
 40
0.03937007874
  9
$DIMLFAC
 40
1.0
  9
$DIMTOFL
 70
1
  9
$DIMTVP
 40
0.0
  9
$DIMTIX
 70
0
  9
$DIMSOXD
 70
0
  9
$DIMSAH
 70
0
  9
$DIMBLK1
  1

  9
$DIMBLK2
  1

  9
$DIMSTYLE
  2
ISO-25
  9
$DIMCLRD
 70
0
  9
$DIMCLRE
 70
0
  9
$DIMCLRT
 70
0
  9
$DIMTFAC
 40
1.0
  9
$DIMGAP
 40
0.625
  9
$DIMJUST
 70
0
  9
$DIMSD1
 70
0
  9
$DIMSD2
 70
0
  9
$DIMTOLJ
 70
0
  9
$DIMTZIN
 70
8
  9
$DIMALTZ
 70
0
  9
$DIMALTTZ
 70
0
  9
$DIMUPT
 70
0
  9
$DIMDEC
 70
2
  9
$DIMTDEC
 70
2
  9
$DIMALTU
 70
2
  9
$DIMALTTD
 70
3
  9
$DIMTXSTY
  7
Standard
  9
$DIMAUNIT
 70
0
  9
$DIMADEC
 70
0
  9
$DIMALTRND
 40
0.0
  9
$DIMAZIN
 70
0
  9
$DIMDSEP
 70
44
  9
$DIMATFIT
 70
3
  9
$DIMFRAC
 70
0
  9
$DIMLDRBLK
  1

  9
$DIMLUNIT
 70
2
  9
$DIMLWD
 70
-2
  9
$DIMLWE
 70
-2
  9
$DIMTMOVE
 70
0
  9
$DIMFXL
 40
1.0
  9
$DIMFXLON
 70
0
  9
$DIMJOGANG
 40
0.785398163397
  9
$DIMTFILL
 70
0
  9
$DIMTFILLCLR
 70
0
  9
$DIMARCSYM
 70
0
  9
$DIMLTYPE
  6

  9
$DIMLTEX1
  6

  9
$DIMLTEX2
  6

  9
$DIMTXTDIRECTION
 70
0
  9
$LUNITS
 70
2
  9
$LUPREC
 70
4
  9
$SKETCHINC
 40
1.0
  9
$FILLETRAD
 40
10.0
  9
$AUNITS
 70
0
  9
$AUPREC
 70
2
  9
$MENU
  1
.
  9
$ELEVATION
 40
0.0
  9
$PELEVATION
 40
0.0
  9
$THICKNESS
 40
0.0
  9
$LIMCHECK
 70
0
  9
$CHAMFERA
 40
0.0
  9
$CHAMFERB
 40
0.0
  9
$CHAMFERC
 40
0.0
  9
$CHAMFERD
 40
0.0
  9
$SKPOLY
 70
0
  9
$TDCREATE
 40
2460825.7771412036
  9
$TDUCREATE
 40
2458532.153996898
  9
$TDUPDATE
 40
2460825.7771412036
  9
$TDUUPDATE
 40
2458532.1544311
  9
$TDINDWG
 40
0.0
  9
$TDUSRTIMER
 40
0.0
  9
$USRTIMER
 70
1
  9
$ANGBASE
 50
0.0
  9
$ANGDIR
 70
0
  9
$PDMODE
 70
0
  9
$PDSIZE
 40
0.0
  9
$PLINEWID
 40
0.0
  9
$SPLFRAME
 70
0
  9
$SPLINETYPE
 70
6
  9
$SPLINESEGS
 70
8
  9
$HANDSEED
  5
3C
  9
$SURFTAB1
 70
6
  9
$SURFTAB2
 70
6
  9
$SURFTYPE
 70
6
  9
$SURFU
 70
6
  9
$SURFV
 70
6
  9
$UCSBASE
  2

  9
$UCSNAME
  2

  9
$UCSORG
 10
0.0
 20
0.0
 30
0.0
  9
$UCSXDIR
 10
1.0
 20
0.0
 30
0.0
  9
$UCSYDIR
 10
0.0
 20
1.0
 30
0.0
  9
$UCSORTHOREF
  2

  9
$UCSORTHOVIEW
 70
0
  9
$UCSORGTOP
 10
0.0
 20
0.0
 30
0.0
  9
$UCSORGBOTTOM
 10
0.0
 20
0.0
 30
0.0
  9
$UCSORGLEFT
 10
0.0
 20
0.0
 30
0.0
  9
$UCSORGRIGHT
 10
0.0
 20
0.0
 30
0.0
  9
$UCSORGFRONT
 10
0.0
 20
0.0
 30
0.0
  9
$UCSORGBACK
 10
0.0
 20
0.0
 30
0.0
  9
$PUCSBASE
  2

  9
$PUCSNAME
  2

  9
$PUCSORG
 10
0.0
 20
0.0
 30
0.0
  9
$PUCSXDIR
 10
1.0
 20
0.0
 30
0.0
  9
$PUCSYDIR
 10
0.0
 20
1.0
 30
0.0
  9
$PUCSORTHOREF
  2

  9
$PUCSORTHOVIEW
 70
0
  9
$PUCSORGTOP
 10
0.0
 20
0.0
 30
0.0
  9
$PUCSORGBOTTOM
 10
0.0
 20
0.0
 30
0.0
  9
$PUCSORGLEFT
 10
0.0
 20
0.0
 30
0.0
  9
$PUCSORGRIGHT
 10
0.0
 20
0.0
 30
0.0
  9
$PUCSORGFRONT
 10
0.0
 20
0.0
 30
0.0
  9
$PUCSORGBACK
 10
0.0
 20
0.0
 30
0.0
  9
$USERI1
 70
0
  9
$USERI2
 70
0
  9
$USERI3
 70
0
  9
$USERI4
 70
0
  9
$USERI5
 70
0
  9
$USERR1
 40
0.0
  9
$USERR2
 40
0.0
  9
$USERR3
 40
0.0
  9
$USERR4
 40
0.0
  9
$USERR5
 40
0.0
  9
$WORLDVIEW
 70
1
  9
$SHADEDGE
 70
3
  9
$SHADEDIF
 70
70
  9
$TILEMODE
 70
1
  9
$MAXACTVP
 70
64
  9
$PINSBASE
 10
0.0
 20
0.0
 30
0.0
  9
$PLIMCHECK
 70
0
  9
$PEXTMIN
 10
1e+20
 20
1e+20
 30
1e+20
  9
$PEXTMAX
 10
-1e+20
 20
-1e+20
 30
-1e+20
  9
$PLIMMIN
 10
0.0
 20
0.0
  9
$PLIMMAX
 10
420.0
 20
297.0
  9
$UNITMODE
 70
0
  9
$VISRETAIN
 70
1
  9
$PLINEGEN
 70
0
  9
$PSLTSCALE
 70
1
  9
$TREEDEPTH
 70
3020
  9
$CMLSTYLE
  2
Standard
  9
$CMLJUST
 70
0
  9
$CMLSCALE
 40
20.0
  9
$PROXYGRAPHICS
 70
1
  9
$MEASUREMENT
 70
1
  9
$CELWEIGHT
370
-1
  9
$ENDCAPS
280
0
  9
$JOINSTYLE
280
0
  9
$LWDISPLAY
290
0
  9
$INSUNITS
 70
6
  9
$HYPERLINKBASE
  1

  9
$STYLESHEET
  1

  9
$XEDIT
290
1
  9
$CEPSNTYPE
380
0
  9
$PSTYLEMODE
290
1
  9
$FINGERPRINTGUID
  2
{C66FF5A6-09AE-4175-9B3C-483EF5E4A192}
  9
$VERSIONGUID
  2
{868CF495-C84C-4EA4-88F2-9F932EEB69A7}
  9
$EXTNAMES
290
1
  9
$PSVPSCALE
 40
0.0
  9
$OLESTARTUP
290
0
  9
$SORTENTS
280
127
  9
$INDEXCTL
280
0
  9
$HIDETEXT
280
1
  9
$XCLIPFRAME
280
0
  9
$HALOGAP
280
0
  9
$OBSCOLOR
 70
257
  9
$OBSLTYPE
280
0
  9
$INTERSECTIONDISPLAY
280
0
  9
$INTERSECTIONCOLOR
 70
257
  9
$DIMASSOC
280
2
  9
$PROJECTNAME
  1

  9
$CAMERADISPLAY
290
0
  9
$LENSLENGTH
 40
50.0
  9
$CAMERAHEIGHT
 40
0.0
  9
$STEPSPERSEC
 40
24.0
  9
$STEPSIZE
 40
100.0
  9
$3DDWFPREC
 40
2.0
  9
$PSOLWIDTH
 40
0.005
  9
$PSOLHEIGHT
 40
0.08
  9
$LOFTANG1
 40
1.570796326795
  9
$LOFTANG2
 40
1.570796326795
  9
$LOFTMAG1
 40
0.0
  9
$LOFTMAG2
 40
0.0
  9
$LOFTPARAM
 70
7
  9
$LOFTNORMALS
280
1
  9
$LATITUDE
 40
37.795
  9
$LONGITUDE
 40
-122.394
  9
$NORTHDIRECTION
 40
0.0
  9
$TIMEZONE
 70
-8000
  9
$LIGHTGLYPHDISPLAY
280
1
  9
$TILEMODELIGHTSYNCH
280
1
  9
$CMATERIAL
347
20
  9
$SOLIDHIST
280
0
  9
$SHOWHIST
280
1
  9
$DWFFRAME
280
2
  9
$DGNFRAME
280
2
  9
$REALWORLDSCALE
290
1
  9
$INTERFERECOLOR
 62
256
  9
$CSHADOW
280
0
  9
$SHADOWPLANELOCATION
 40
0.0
  0
ENDSEC
  0
SECTION
  2
CLASSES
  0
CLASS
  1
ACDBDICTIONARYWDFLT
  2
AcDbDictionaryWithDefault
  3
ObjectDBX Classes
 90
0
 91
0
280
0
281
0
  0
CLASS
  1
SUN
  2
AcDbSun
  3
SCENEOE
 90
1153
 91
0
280
0
281
0
  0
CLASS
  1
VISUALSTYLE
  2
AcDbVisualStyle
  3
ObjectDBX Classes
 90
4095
 91
0
280
0
281
0
  0
CLASS
  1
MATERIAL
  2
AcDbMaterial
  3
ObjectDBX Classes
 90
1153
 91
0
280
0
281
0
  0
CLASS
  1
SCALE
  2
AcDbScale
  3
ObjectDBX Classes
 90
1153
 91
0
280
0
281
0
  0
CLASS
  1
TABLESTYLE
  2
AcDbTableStyle
  3
ObjectDBX Classes
 90
4095
 91
0
280
0
281
0
  0
CLASS
  1
MLEADERSTYLE
  2
AcDbMLeaderStyle
  3
ACDB_MLEADERSTYLE_CLASS
 90
4095
 91
0
280
0
281
0
  0
CLASS
  1
DICTIONARYVAR
  2
AcDbDictionaryVar
  3
ObjectDBX Classes
 90
0
 91
0
280
0
281
0
  0
CLASS
  1
CELLSTYLEMAP
  2
AcDbCellStyleMap
  3
ObjectDBX Classes
 90
1152
 91
0
280
0
281
0
  0
CLASS
  1
MENTALRAYRENDERSETTINGS
  2
AcDbMentalRayRenderSettings
  3
SCENEOE
 90
1024
 91
0
280
0
281
0
  0
CLASS
  1
ACDBDETAILVIEWSTYLE
  2
AcDbDetailViewStyle
  3
ObjectDBX Classes
 90
1025
 91
0
280
0
281
0
  0
CLASS
  1
ACDBSECTIONVIEWSTYLE
  2
AcDbSectionViewStyle
  3
ObjectDBX Classes
 90
1025
 91
0
280
0
281
0
  0
CLASS
  1
RASTERVARIABLES
  2
AcDbRasterVariables
  3
ISM
 90
0
 91
0
280
0
281
0
  0
CLASS
  1
LAYOUT
  2
AcDbLayout
  3
ObjectDBX Classes
 90
0
 91
0
280
0
281
0
  0
CLASS
  1
ACDBPLACEHOLDER
  2
AcDbPlaceHolder
  3
ObjectDBX Classes
 90
0
 91
0
280
0
281
0
  0
ENDSEC
  0
SECTION
  2
TABLES
  0
TABLE
  2
VPORT
  5
8
330
0
100
AcDbSymbolTable
 70
1
  0
VPORT
  5
23
330
8
100
AcDbSymbolTableRecord
100
AcDbViewportTableRecord
  2
*Active
 70
0
 10
0.0
 20
0.0
 11
1.0
 21
1.0
 12
0.0
 22
0.0
 13
0.0
 23
0.0
 14
0.5
 24
0.5
 15
0.5
 25
0.5
 16
0.0
 26
0.0
 36
1.0
 17
0.0
 27
0.0
 37
0.0
 40
1000.0
 41
1.34
 42
50.0
 43
0.0
 44
0.0
 50
0.0
 51
0.0
 71
0
 72
1000
 73
1
 74
3
 75
0
 76
0
 77
0
 78
0
281
0
 65
0
146
0.0
  0
ENDTAB
  0
TABLE
  2
LTYPE
  5
2
330
0
100
AcDbSymbolTable
 70
3
  0
LTYPE
  5
24
330
2
100
AcDbSymbolTableRecord
100
AcDbLinetypeTableRecord
  2
ByBlock
 70
0
  3

 72
65
 73
0
 40
0.0
  0
LTYPE
  5
25
330
2
100
AcDbSymbolTableRecord
100
AcDbLinetypeTableRecord
  2
ByLayer
 70
0
  3

 72
65
 73
0
 40
0.0
  0
LTYPE
  5
26
330
2
100
AcDbSymbolTableRecord
100
AcDbLinetypeTableRecord
  2
Continuous
 70
0
  3

 72
65
 73
0
 40
0.0
  0
ENDTAB
  0
TABLE
  2
LAYER
  5
1
330
0
100
AcDbSymbolTable
 70
2
  0
LAYER
  5
27
330
1
100
AcDbSymbolTableRecord
100
AcDbLayerTableRecord
  2
0
 70
0
 62
7
  6
Continuous
370
-3
390
13
347
21
  0
LAYER
  5
28
330
1
100
AcDbSymbolTableRecord
100
AcDbLayerTableRecord
  2
Defpoints
 70
0
 62
7
  6
Continuous
290
0
370
-3
390
13
347
21
  0
ENDTAB
  0
TABLE
  2
STYLE
  5
5
330
0
100
AcDbSymbolTable
 70
1
  0
STYLE
  5
29
330
5
100
AcDbSymbolTableRecord
100
AcDbTextStyleTableRecord
  2
Standard
 70
0
 40
0.0
 41
1.0
 50
0.0
 71
0
 42
2.5
  3
txt
  4

  0
ENDTAB
  0
TABLE
  2
VIEW
  5
7
330
0
100
AcDbSymbolTable
 70
0
  0
ENDTAB
  0
TABLE
  2
UCS
  5
6
330
0
100
AcDbSymbolTable
 70
0
  0
ENDTAB
  0
TABLE
  2
APPID
  5
3
330
0
100
AcDbSymbolTable
 70
3
  0
APPID
  5
2A
330
3
100
AcDbSymbolTableRecord
100
AcDbRegAppTableRecord
  2
ACAD
 70
0
  0
APPID
  5
39
330
3
100
AcDbSymbolTableRecord
100
AcDbRegAppTableRecord
  2
HATCHBACKGROUNDCOLOR
 70
0
  0
APPID
  5
3A
330
3
100
AcDbSymbolTableRecord
100
AcDbRegAppTableRecord
  2
EZDXF
 70
0
  0
ENDTAB
  0
TABLE
  2
DIMSTYLE
  5
4
330
0
100
AcDbSymbolTable
 70
1
100
AcDbDimStyleTable
  0
DIMSTYLE
105
2B
330
4
100
AcDbSymbolTableRecord
100
AcDbDimStyleTableRecord
  2
Standard
 70
0
 40
1.0
 41
2.5
 42
0.625
 43
3.75
 44
1.25
 45
0.0
 46
0.0
 47
0.0
 48
0.0
 49
2.5
140
2.5
141
2.5
142
0.0
143
0.03937007874
144
1.0
145
0.0
146
1.0
147
0.625
148
0.0
 69
0
 70
0
 71
0
 72
0
 73
0
 74
0
 75
0
 76
0
 77
1
 78
8
 79
3
170
0
171
3
172
1
173
0
174
0
175
0
176
0
177
0
178
0
179
2
271
2
272
2
273
2
274
3
275
0
276
0
277
2
278
44
279
0
280
0
281
0
282
0
283
0
284
8
285
0
286
0
288
0
289
3
290
0
371
-2
372
-2
  0
ENDTAB
  0
TABLE
  2
BLOCK_RECORD
  5
9
330
0
100
AcDbSymbolTable
 70
2
  0
BLOCK_RECORD
  5
17
330
9
100
AcDbSymbolTableRecord
100
AcDbBlockTableRecord
  2
*Model_Space
340
1A
 70
0
280
1
281
0
  0
BLOCK_RECORD
  5
1B
330
9
100
AcDbSymbolTableRecord
100
AcDbBlockTableRecord
  2
*Paper_Space
340
1E
 70
0
280
1
281
0
  0
ENDTAB
  0
ENDSEC
  0
SECTION
  2
BLOCKS
  0
BLOCK
  5
18
330
17
100
AcDbEntity
  8
0
100
AcDbBlockBegin
  2
*Model_Space
 70
0
 10
0.0
 20
0.0
 30
0.0
  3
*Model_Space
  1

  0
ENDBLK
  5
19
330
17
100
AcDbEntity
  8
0
100
AcDbBlockEnd
  0
BLOCK
  5
1C
330
1B
100
AcDbEntity
  8
0
100
AcDbBlockBegin
  2
*Paper_Space
 70
0
 10
0.0
 20
0.0
 30
0.0
  3
*Paper_Space
  1

  0
ENDBLK
  5
1D
330
1B
100
AcDbEntity
  8
0
100
AcDbBlockEnd
  0
ENDSEC
  0
SECTION
  2
ENTITIES
  0
LWPOLYLINE
  5
2F
330
17
100
AcDbEntity
  8
0
100
AcDbPolyline
 90
51
 70
0
 10
29.2
 20
12.0
 10
29.2
 20
11.76
 10
29.2
 20
11.52
 10
29.2
 20
11.28
 10
29.2
 20
11.04
 10
29.2
 20
10.8
 10
29.2
 20
10.56
 10
29.2
 20
10.32
 10
29.2
 20
10.08
 10
29.2
 20
9.84
 10
29.2
 20
9.6
 10
29.2
 20
9.36
 10
29.2
 20
9.120000000000001
 10
29.2
 20
8.879999999999999
 10
29.2
 20
8.64
 10
29.2
 20
8.4
 10
29.2
 20
8.16
 10
29.2
 20
7.92
 10
29.2
 20
7.68
 10
29.2
 20
7.44
 10
29.2
 20
7.2
 10
29.2
 20
6.96
 10
29.2
 20
6.72
 10
29.2
 20
6.48
 10
29.2
 20
6.24
 10
29.2
 20
6.0
 10
29.2
 20
5.76
 10
29.2
 20
5.52
 10
29.2
 20
5.28
 10
29.2
 20
5.04
 10
29.2
 20
4.8
 10
29.2
 20
4.56
 10
29.2
 20
4.32
 10
29.2
 20
4.08
 10
29.2
 20
3.84
 10
29.2
 20
3.5999999999999996
 10
29.2
 20
3.3599999999999994
 10
29.2
 20
3.119999999999999
 10
29.2
 20
2.880000000000001
 10
29.2
 20
2.6400000000000006
 10
29.2
 20
2.4000000000000004
 10
29.2
 20
2.16
 10
29.2
 20
1.92
 10
29.2
 20
1.6799999999999997
 10
29.2
 20
1.4399999999999995
 10
29.2
 20
1.1999999999999993
 10
29.2
 20
0.9600000000000009
 10
29.2
 20
0.7200000000000006
 10
29.2
 20
0.4800000000000004
 10
29.2
 20
0.2400000000000002
 10
29.2
 20
0.0
  0
LWPOLYLINE
  5
30
330
17
100
AcDbEntity
  8
0
100
AcDbPolyline
 90
51
 70
0
 10
15.2
 20
5.0
 10
15.2
 20
5.14
 10
15.2
 20
5.28
 10
15.2
 20
5.42
 10
15.2
 20
5.5600000000000005
 10
15.2
 20
5.7
 10
15.2
 20
5.84
 10
15.2
 20
5.98
 10
15.2
 20
6.12
 10
15.2
 20
6.26
 10
15.2
 20
6.4
 10
15.2
 20
6.54
 10
15.2
 20
6.68
 10
15.2
 20
6.82
 10
15.2
 20
6.96
 10
15.2
 20
7.1
 10
15.2
 20
7.24
 10
15.2
 20
7.38
 10
15.2
 20
7.52
 10
15.2
 20
7.66
 10
15.2
 20
7.8
 10
15.2
 20
7.9399999999999995
 10
15.2
 20
8.08
 10
15.2
 20
8.22
 10
15.2
 20
8.36
 10
15.2
 20
8.5
 10
15.199999999999998
 20
8.64
 10
15.199999999999998
 20
8.78
 10
15.199999999999998
 20
8.92
 10
15.199999999999998
 20
9.059999999999999
 10
15.199999999999998
 20
9.2
 10
15.199999999999998
 20
9.34
 10
15.199999999999998
 20
9.48
 10
15.199999999999998
 20
9.620000000000001
 10
15.199999999999998
 20
9.76
 10
15.199999999999998
 20
9.9
 10
15.199999999999998
 20
10.04
 10
15.199999999999998
 20
10.18
 10
15.199999999999998
 20
10.32
 10
15.199999999999998
 20
10.46
 10
15.199999999999998
 20
10.6
 10
15.199999999999998
 20
10.74
 10
15.199999999999998
 20
10.879999999999999
 10
15.199999999999998
 20
11.02
 10
15.199999999999998
 20
11.16
 10
15.199999999999998
 20
11.3
 10
15.199999999999998
 20
11.440000000000001
 10
15.199999999999998
 20
11.58
 10
15.199999999999998
 20
11.719999999999999
 10
15.199999999999998
 20
11.86
 10
15.199999999999998
 20
12.0
  0
LWPOLYLINE
  5
31
330
17
100
AcDbEntity
  8
0
100
AcDbPolyline
 90
51
 70
0
 10
15.2
 20
11.999999999999998
 10
15.213812901002099
 20
12.439533636705189
 10
15.255197090798653
 20
12.877332634950129
 10
15.323989244899177
 20
13.31166920210007
 10
15.419917872099582
 20
13.740829210153985
 10
15.542604385933924
 20
14.16311896062463
 10
15.69156459878224
 20
14.576871868792741
 10
15.866210632737863
 20
14.980455040955508
 10
16.065853239692952
 20
15.372275718712004
 10
16.289704521485895
 20
15.750787564852978
 10
16.536881039375366
 20
16.11449676604731
 10
16.80640730056947
 20
16.461967928240824
 10
17.097219608050118
 20
16.79182974150082
 10
17.408170258499176
 20
17.102780391949878
 10
17.73803207175917
 20
17.393592699430528
 10
18.085503233952686
 20
17.66311896062463
 10
18.449212435147018
 20
17.910295478514104
 10
18.827724281287992
 20
18.134146760307047
 10
19.219544959044487
 20
18.333789367262135
 10
19.623128131207253
 20
18.50843540121776
 10
20.036881039375366
 20
18.657395614066075
 10
20.459170789846013
 20
18.780082127900418
 10
20.888330797899926
 20
18.876010755100822
 10
21.322667365049867
 20
18.944802909201343
 10
21.760466363294807
 20
18.986187098997902
 10
22.2
 20
19.0
 10
22.63953363670519
 20
18.986187098997902
 10
23.077332634950128
 20
18.944802909201346
 10
23.51166920210007
 20
18.876010755100822
 10
23.940829210153982
 20
18.780082127900418
 10
24.36311896062463
 20
18.657395614066075
 10
24.77687186879274
 20
18.50843540121776
 10
25.180455040955508
 20
18.333789367262135
 10
25.57227571871201
 20
18.134146760307043
 10
25.950787564852977
 20
17.910295478514104
 10
26.31449676604731
 20
17.663118960624633
 10
26.661967928240824
 20
17.393592699430528
 10
26.99182974150082
 20
17.10278039194988
 10
27.302780391949877
 20
16.791829741500823
 10
27.593592699430523
 20
16.461967928240828
 10
27.86311896062463
 20
16.114496766047314
 10
28.110295478514104
 20
15.75078756485298
 10
28.334146760307043
 20
15.372275718712007
 10
28.533789367262134
 20
14.980455040955512
 10
28.70843540121776
 20
14.576871868792745
 10
28.857395614066075
 20
14.163118960624633
 10
28.980082127900417
 20
13.740829210153988
 10
29.076010755100818
 20
13.311669202100074
 10
29.144802909201346
 20
12.877332634950132
 10
29.186187098997898
 20
12.439533636705193
 10
29.2
 20
12.000000000000002
  0
LWPOLYLINE
  5
32
330
17
100
AcDbEntity
  8
0
100
AcDbPolyline
 90
51
 70
0
 10
29.2
 20
2.0747847884194916e-15
 10
27.532
 20
1.956266260094707e-15
 10
25.863999999999997
 20
1.837747731769922e-15
 10
24.195999999999998
 20
1.7192292034451377e-15
 10
22.528
 20
1.6007106751203532e-15
 10
20.86
 20
1.4821921467955685e-15
 10
19.192
 20
1.363673618470784e-15
 10
17.523999999999997
 20
1.245155090145999e-15
 10
15.855999999999998
 20
1.1266365618212143e-15
 10
14.187999999999999
 20
1.0081180334964298e-15
 10
12.52
 20
8.89599505171645e-16
 10
10.851999999999997
 20
7.710809768468603e-16
 10
9.183999999999997
 20
6.525624485220757e-16
 10
7.515999999999998
 20
5.34043920197291e-16
 10
5.847999999999995
 20
4.1552539187250613e-16
 10
4.18
 20
2.9700686354772176e-16
 10
2.511999999999997
 20
1.784883352229369e-16
 10
0.8439999999999941
 20
5.996980689815202e-17
 10
-0.8240000000000016
 20
-5.854872142663235e-17
 10
-2.4920000000000044
 20
-1.7706724975141722e-16
 10
-4.16
 20
-2.955857780762016e-16
 10
-5.827999999999999
 20
-4.1410430640098623e-16
 10
-7.496000000000006
 20
-5.326228347257713e-16
 10
-9.164000000000005
 20
-6.51141363050556e-16
 10
-10.832000000000004
 20
-7.696598913753406e-16
 10
-12.500000000000004
 20
-8.881784197001252e-16
 10
-14.168000000000003
 20
-1.0066969480249097e-15
 10
-15.836000000000002
 20
-1.1252154763496945e-15
 10
-17.50400000000001
 20
-1.2437340046744796e-15
 10
-19.172000000000008
 20
-1.362252532999264e-15
 10
-20.84
 20
-1.4807710613240482e-15
 10
-22.508
 20
-1.599289589648833e-15
 10
-24.176000000000005
 20
-1.717808117973618e-15
 10
-25.844000000000005
 20
-1.8363266462984025e-15
 10
-27.51200000000001
 20
-1.954845174623188e-15
 10
-29.180000000000003
 20
-2.073363702947972e-15
 10
-30.848000000000003
 20
-2.1918822312727565e-15
 10
-32.516000000000005
 20
-2.3104007595975414e-15
 10
-34.18400000000001
 20
-2.4289192879223267e-15
 10
-35.852000000000004
 20
-2.5474378162471104e-15
 10
-37.519999999999996
 20
-2.6659563445718946e-15
 10
-39.188
 20
-2.78447487289668e-15
 10
-40.855999999999995
 20
-2.902993401221464e-15
 10
-42.524
 20
-3.0215119295462493e-15
 10
-44.19200000000001
 20
-3.1400304578710342e-15
 10
-45.86
 20
-3.2585489861958183e-15
 10
-47.528000000000006
 20
-3.3770675145206036e-15
 10
-49.196
 20
-3.4955860428453878e-15
 10
-50.864000000000004
 20
-3.614104571170173e-15
 10
-52.53200000000001
 20
-3.7326230994949576e-15
 10
-54.2
 20
-3.851141627819742e-15
  0
LWPOLYLINE
  5
33
330
17
100
AcDbEntity
  8
0
100
AcDbPolyline
 90
51
 70
0
 10
26.2
 20
12.0
 10
26.182247858412317
 20
11.623566746725944
 10
26.129149002914755
 20
11.2504747416571
 10
26.04117474270777
 20
10.884035575843082
 10
25.919105943553006
 20
10.527501789261288
 10
25.764026096753472
 20
10.184038001041813
 10
25.57731170200806
 20
9.856692820084014
 10
25.36062004950276
 20
9.548371785388095
 10
25.115874509685646
 20
9.261811576285245
 10
24.845247461294605
 20
8.999555721478162
 10
24.551141009169893
 20
8.76393202250021
 10
24.236165663001483
 20
8.557031891984225
 10
23.90311716626029
 20
8.380691790135923
 10
23.554951680981166
 20
8.236476924183098
 10
23.19475954865942
 20
8.125667355485476
 10
22.825737860160924
 20
8.049246637619449
 10
22.451162078117253
 20
8.007893086286913
 10
22.07435696368749
 20
8.001973758537073
 10
21.698667065742782
 20
8.031541194742088
 10
21.32742703441383
 20
8.09633295224501
 10
20.96393202250021
 20
8.195773934819385
 10
20.611408437460877
 20
8.328981497264076
 10
20.27298530359314
 20
8.494773279824546
 10
19.951666488591478
 20
8.691677702901753
 10
19.650304041005242
 20
8.917947028896844
 10
19.37157287525381
 20
9.171572875253808
 10
19.117947028896843
 20
9.450304041005243
 10
18.891677702901752
 20
9.751666488591477
 10
18.694773279824545
 20
10.07298530359314
 10
18.528981497264077
 20
10.411408437460876
 10
18.395773934819385
 20
10.76393202250021
 10
18.29633295224501
 20
11.127427034413827
 10
18.23154119474209
 20
11.498667065742781
 10
18.201973758537072
 20
11.874356963687486
 10
18.207893086286912
 20
12.251162078117252
 10
18.24924663761945
 20
12.625737860160923
 10
18.325667355485475
 20
12.99475954865942
 10
18.436476924183097
 20
13.354951680981165
 10
18.58069179013592
 20
13.703117166260288
 10
18.757031891984226
 20
14.036165663001487
 10
18.96393202250021
 20
14.351141009169892
 10
19.19955572147816
 20
14.645247461294606
 10
19.461811576285246
 20
14.915874509685647
 10
19.748371785388095
 20
15.16062004950276
 10
20.056692820084013
 20
15.377311702008061
 10
20.384038001041812
 20
15.564026096753471
 10
20.72750178926129
 20
15.719105943553005
 10
21.08403557584308
 20
15.841174742707771
 10
21.4504747416571
 20
15.929149002914755
 10
21.823566746725945
 20
15.98224785841232
 10
22.2
 20
16.0
  0
LWPOLYLINE
  5
34
330
17
100
AcDbEntity
  8
0
100
AcDbPolyline
 90
51
 70
0
 10
22.2
 20
16.0
 10
22.325643036312513
 20
15.998026241462927
 10
22.451162078117253
 20
15.992106913713087
 10
22.576433253274057
 20
15.98224785841232
 10
22.701332934257216
 20
15.968458805257912
 10
22.825737860160924
 20
15.950753362380551
 10
22.9495252583429
 20
15.929149002914755
 10
23.07257296558617
 20
15.90366704775499
 10
23.19475954865942
 20
15.874332644514524
 10
23.315964424156917
 20
15.841174742707771
 10
23.43606797749979
 20
15.804226065180615
 10
23.554951680981166
 20
15.763523075816902
 10
23.67249821073871
 20
15.719105943553005
 10
23.78859156253912
 20
15.671018502735924
 10
23.90311716626029
 20
15.619308209864078
 10
24.015961998958186
 20
15.564026096753471
 10
24.12701469640686
 20
15.505226720175454
 10
24.236165663001486
 20
15.442968108015775
 10
24.343307179915985
 20
15.377311702008061
 10
24.44833351140852
 20
15.308322297098247
 10
24.551141009169893
 20
15.23606797749979
 10
24.651628214611904
 20
15.16062004950276
 10
24.749695958994756
 20
15.082052971103156
 10
24.845247461294605
 20
15.000444278521838
 10
24.938188423714752
 20
14.915874509685647
 10
25.02842712474619
 20
14.82842712474619
 10
25.115874509685646
 20
14.738188423714755
 10
25.200444278521836
 20
14.645247461294607
 10
25.282052971103155
 20
14.549695958994759
 10
25.36062004950276
 20
14.451628214611906
 10
25.43606797749979
 20
14.351141009169893
 10
25.508322297098246
 20
14.248333511408523
 10
25.57731170200806
 20
14.143307179915986
 10
25.642968108015772
 20
14.036165663001485
 10
25.705226720175453
 20
13.92701469640686
 10
25.76402609675347
 20
13.815961998958187
 10
25.819308209864076
 20
13.703117166260292
 10
25.871018502735925
 20
13.588591562539122
 10
25.919105943553006
 20
13.472498210738712
 10
25.9635230758169
 20
13.354951680981166
 10
26.004226065180614
 20
13.23606797749979
 10
26.04117474270777
 20
13.115964424156918
 10
26.074332644514524
 20
12.994759548659419
 10
26.10366704775499
 20
12.872572965586171
 10
26.129149002914755
 20
12.7495252583429
 10
26.15075336238055
 20
12.625737860160923
 10
26.16845880525791
 20
12.501332934257217
 10
26.182247858412317
 20
12.376433253274056
 10
26.192106913713086
 20
12.251162078117254
 10
26.198026241462927
 20
12.125643036312514
 10
26.2
 20
12.0
  0
LWPOLYLINE
  5
35
330
17
100
AcDbEntity
  8
0
100
AcDbPolyline
 90
51
 70
0
 10
-54.2
 20
-3.85114162781974e-15
 10
-54.2
 20
0.09999999999999622
 10
-54.2
 20
0.1999999999999963
 10
-54.2
 20
0.2999999999999964
 10
-54.2
 20
0.39999999999999647
 10
-54.2
 20
0.4999999999999965
 10
-54.2
 20
0.5999999999999965
 10
-54.2
 20
0.6999999999999967
 10
-54.2
 20
0.7999999999999967
 10
-54.2
 20
0.8999999999999967
 10
-54.2
 20
0.9999999999999968
 10
-54.2
 20
1.099999999999997
 10
-54.2
 20
1.199999999999997
 10
-54.2
 20
1.2999999999999972
 10
-54.2
 20
1.3999999999999975
 10
-54.2
 20
1.4999999999999973
 10
-54.2
 20
1.5999999999999974
 10
-54.2
 20
1.6999999999999973
 10
-54.2
 20
1.7999999999999974
 10
-54.2
 20
1.8999999999999977
 10
-54.2
 20
1.9999999999999976
 10
-54.2
 20
2.0999999999999974
 10
-54.2
 20
2.1999999999999975
 10
-54.2
 20
2.2999999999999976
 10
-54.2
 20
2.3999999999999977
 10
-54.2
 20
2.499999999999998
 10
-54.2
 20
2.599999999999998
 10
-54.2
 20
2.6999999999999975
 10
-54.2
 20
2.7999999999999985
 10
-54.2
 20
2.899999999999998
 10
-54.2
 20
2.9999999999999982
 10
-54.2
 20
3.0999999999999983
 10
-54.2
 20
3.1999999999999984
 10
-54.2
 20
3.2999999999999985
 10
-54.2
 20
3.399999999999998
 10
-54.2
 20
3.4999999999999982
 10
-54.2
 20
3.5999999999999983
 10
-54.2
 20
3.699999999999999
 10
-54.2
 20
3.799999999999999
 10
-54.2
 20
3.899999999999999
 10
-54.2
 20
3.999999999999999
 10
-54.2
 20
4.1
 10
-54.2
 20
4.199999999999999
 10
-54.2
 20
4.299999999999999
 10
-54.2
 20
4.3999999999999995
 10
-54.2
 20
4.5
 10
-54.2
 20
4.6
 10
-54.2
 20
4.7
 10
-54.2
 20
4.8
 10
-54.2
 20
4.8999999999999995
 10
-54.2
 20
5.0
  0
LWPOLYLINE
  5
36
330
17
100
AcDbEntity
  8
0
100
AcDbPolyline
 90
51
 70
0
 10
-20.0
 20
5.0
 10
-19.296
 20
5.0
 10
-18.592
 20
5.0
 10
-17.887999999999998
 20
5.0
 10
-17.183999999999997
 20
5.0
 10
-16.48
 20
5.0
 10
-15.776
 20
5.0
 10
-15.072
 20
5.0
 10
-14.367999999999999
 20
5.0
 10
-13.664
 20
5.0
 10
-12.96
 20
5.0
 10
-12.256
 20
5.0
 10
-11.552
 20
5.0
 10
-10.847999999999999
 20
5.0
 10
-10.143999999999998
 20
5.0
 10
-9.44
 20
5.0
 10
-8.735999999999997
 20
5.0
 10
-8.031999999999996
 20
5.0
 10
-7.327999999999999
 20
5.0
 10
-6.623999999999999
 20
5.0
 10
-5.920000000000002
 20
5.0
 10
-5.216000000000001
 20
5.0
 10
-4.5120000000000005
 20
5.0
 10
-3.808
 20
5.0
 10
-3.103999999999999
 20
5.0
 10
-2.3999999999999986
 20
5.0
 10
-1.695999999999998
 20
5.0
 10
-0.9919999999999973
 20
5.0
 10
-0.2879999999999967
 20
5.0
 10
0.41600000000000037
 20
5.0
 10
1.120000000000001
 20
5.0
 10
1.8240000000000016
 20
5.0
 10
2.5280000000000022
 20
5.0
 10
3.232000000000003
 20
5.0
 10
3.9360000000000035
 20
5.0
 10
4.640000000000001
 20
5.0
 10
5.344000000000001
 20
5.0
 10
6.048000000000002
 20
5.0
 10
6.7520000000000024
 20
5.0
 10
7.456000000000003
 20
5.0
 10
8.159999999999997
 20
5.0
 10
8.864000000000004
 20
5.0
 10
9.567999999999998
 20
5.0
 10
10.272000000000006
 20
5.0
 10
10.975999999999999
 20
5.0
 10
11.680000000000007
 20
5.0
 10
12.384
 20
5.0
 10
13.088000000000001
 20
5.0
 10
13.792000000000002
 20
5.0
 10
14.496000000000002
 20
5.0
 10
15.200000000000003
 20
5.0
  0
LWPOLYLINE
  5
37
330
17
100
AcDbEntity
  8
0
100
AcDbPolyline
 90
51
 70
0
 10
-54.2
 20
5.0
 10
-52.812
 20
5.0
 10
-51.42400000000001
 20
5.0
 10
-50.036
 20
5.0
 10
-48.648
 20
5.0
 10
-47.260000000000005
 20
5.0
 10
-45.872
 20
5.0
 10
-44.484
 20
5.0
 10
-43.096000000000004
 20
5.0
 10
-41.708
 20
5.0
 10
-40.32
 20
5.0
 10
-38.932
 20
5.0
 10
-37.544
 20
5.0
 10
-36.156000000000006
 20
5.0
 10
-34.768
 20
5.0
 10
-33.38
 20
5.0
 10
-31.992
 20
5.0
 10
-30.604
 20
5.0
 10
-29.216
 20
5.0
 10
-27.828
 20
5.0
 10
-26.44
 20
5.0
 10
-25.052
 20
5.0
 10
-23.663999999999998
 20
5.0
 10
-22.276000000000003
 20
5.0
 10
-20.887999999999998
 20
5.0
 10
-19.5
 20
5.0
 10
-18.112000000000002
 20
5.0
 10
-16.723999999999997
 20
5.0
 10
-15.335999999999999
 20
5.0
 10
-13.948
 20
5.0
 10
-12.560000000000002
 20
5.0
 10
-11.172000000000004
 20
5.0
 10
-9.783999999999999
 20
5.0
 10
-8.396
 20
5.0
 10
-7.007999999999996
 20
5.0
 10
-5.6200000000000045
 20
5.0
 10
-4.231999999999999
 20
5.0
 10
-2.844000000000001
 20
5.0
 10
-1.455999999999996
 20
5.0
 10
-0.06799999999999784
 20
5.0
 10
1.3200000000000003
 20
5.0
 10
2.7079999999999984
 20
5.0
 10
4.096000000000004
 20
5.0
 10
5.484000000000002
 20
5.0
 10
6.872000000000007
 20
5.0
 10
8.260000000000005
 20
5.0
 10
9.647999999999996
 20
5.0
 10
11.036000000000001
 20
5.0
 10
12.424000000000007
 20
5.0
 10
13.811999999999998
 20
5.0
 10
15.200000000000003
 20
5.0
  0
LWPOLYLINE
  5
38
330
17
100
AcDbEntity
  8
0
100
AcDbPolyline
 90
51
 70
0
 10
15.2
 20
5.0
 10
15.2
 20
5.14
 10
15.2
 20
5.28
 10
15.2
 20
5.42
 10
15.2
 20
5.5600000000000005
 10
15.2
 20
5.7
 10
15.2
 20
5.84
 10
15.2
 20
5.98
 10
15.2
 20
6.12
 10
15.2
 20
6.26
 10
15.2
 20
6.4
 10
15.2
 20
6.54
 10
15.2
 20
6.68
 10
15.2
 20
6.82
 10
15.2
 20
6.96
 10
15.2
 20
7.1
 10
15.2
 20
7.24
 10
15.2
 20
7.38
 10
15.2
 20
7.52
 10
15.2
 20
7.66
 10
15.2
 20
7.8
 10
15.2
 20
7.9399999999999995
 10
15.2
 20
8.08
 10
15.2
 20
8.22
 10
15.2
 20
8.36
 10
15.2
 20
8.5
 10
15.199999999999998
 20
8.64
 10
15.199999999999998
 20
8.78
 10
15.199999999999998
 20
8.92
 10
15.199999999999998
 20
9.059999999999999
 10
15.199999999999998
 20
9.2
 10
15.199999999999998
 20
9.34
 10
15.199999999999998
 20
9.48
 10
15.199999999999998
 20
9.620000000000001
 10
15.199999999999998
 20
9.76
 10
15.199999999999998
 20
9.9
 10
15.199999999999998
 20
10.04
 10
15.199999999999998
 20
10.18
 10
15.199999999999998
 20
10.32
 10
15.199999999999998
 20
10.46
 10
15.199999999999998
 20
10.6
 10
15.199999999999998
 20
10.74
 10
15.199999999999998
 20
10.879999999999999
 10
15.199999999999998
 20
11.02
 10
15.199999999999998
 20
11.16
 10
15.199999999999998
 20
11.3
 10
15.199999999999998
 20
11.440000000000001
 10
15.199999999999998
 20
11.58
 10
15.199999999999998
 20
11.719999999999999
 10
15.199999999999998
 20
11.86
 10
15.199999999999998
 20
12.0
  0
ENDSEC
  0
SECTION
  2
OBJECTS
  0
DICTIONARY
  5
A
330
0
100
AcDbDictionary
280
0
281
1
  3
ACAD_COLOR
350
B
  3
ACAD_GROUP
350
C
  3
ACAD_LAYOUT
350
D
  3
ACAD_MATERIAL
350
E
  3
ACAD_MLEADERSTYLE
350
F
  3
ACAD_MLINESTYLE
350
10
  3
ACAD_PLOTSETTINGS
350
11
  3
ACAD_PLOTSTYLENAME
350
12
  3
ACAD_SCALELIST
350
14
  3
ACAD_TABLESTYLE
350
15
  3
ACAD_VISUALSTYLE
350
16
  3
EZDXF_META
350
2D
  0
DICTIONARY
  5
B
330
A
100
AcDbDictionary
280
0
281
1
  0
DICTIONARY
  5
C
330
A
100
AcDbDictionary
280
0
281
1
  0
DICTIONARY
  5
D
330
A
100
AcDbDictionary
280
0
281
1
  3
Model
350
1A
  3
Layout1
350
1E
  0
DICTIONARY
  5
E
330
A
100
AcDbDictionary
280
0
281
1
  3
ByBlock
350
1F
  3
ByLayer
350
20
  3
Global
350
21
  0
DICTIONARY
  5
F
330
A
100
AcDbDictionary
280
0
281
1
  3
Standard
350
2C
  0
DICTIONARY
  5
10
330
A
100
AcDbDictionary
280
0
281
1
  3
Standard
350
22
  0
DICTIONARY
  5
11
330
A
100
AcDbDictionary
280
0
281
1
  0
ACDBDICTIONARYWDFLT
  5
12
330
A
100
AcDbDictionary
280
0
281
1
  3
Normal
350
13
100
AcDbDictionaryWithDefault
340
13
  0
ACDBPLACEHOLDER
  5
13
330
12
  0
DICTIONARY
  5
14
330
A
100
AcDbDictionary
280
0
281
1
  0
DICTIONARY
  5
15
330
A
100
AcDbDictionary
280
0
281
1
  0
DICTIONARY
  5
16
330
A
100
AcDbDictionary
280
0
281
1
  0
LAYOUT
  5
1A
330
D
100
AcDbPlotSettings
  1

  2
Adobe PDF
  4
A3
  6

 40
7.5
 41
20.0
 42
7.5
 43
20.0
 44
420.0
 45
297.0
 46
0.0
 47
0.0
 48
0.0
 49
0.0
140
0.0
141
0.0
142
1.0
143
1.0
 70
1024
 72
1
 73
0
 74
5
  7

 75
16
 76
0
 77
2
 78
300
147
1.0
148
0.0
149
0.0
100
AcDbLayout
  1
Model
 70
1
 71
0
 10
0.0
 20
0.0
 11
420.0
 21
297.0
 12
0.0
 22
0.0
 32
0.0
 14
1e+20
 24
1e+20
 34
1e+20
 15
-1e+20
 25
-1e+20
 35
-1e+20
146
0.0
 13
0.0
 23
0.0
 33
0.0
 16
1.0
 26
0.0
 36
0.0
 17
0.0
 27
1.0
 37
0.0
 76
1
330
17
  0
LAYOUT
  5
1E
330
D
100
AcDbPlotSettings
  1

  2
Adobe PDF
  4
A3
  6

 40
7.5
 41
20.0
 42
7.5
 43
20.0
 44
420.0
 45
297.0
 46
0.0
 47
0.0
 48
0.0
 49
0.0
140
0.0
141
0.0
142
1.0
143
1.0
 70
0
 72
1
 73
0
 74
5
  7

 75
16
 76
0
 77
2
 78
300
147
1.0
148
0.0
149
0.0
100
AcDbLayout
  1
Layout1
 70
1
 71
1
 10
0.0
 20
0.0
 11
420.0
 21
297.0
 12
0.0
 22
0.0
 32
0.0
 14
1e+20
 24
1e+20
 34
1e+20
 15
-1e+20
 25
-1e+20
 35
-1e+20
146
0.0
 13
0.0
 23
0.0
 33
0.0
 16
1.0
 26
0.0
 36
0.0
 17
0.0
 27
1.0
 37
0.0
 76
1
330
1B
  0
MATERIAL
  5
1F
102
{ACAD_REACTORS
330
E
102
}
330
E
100
AcDbMaterial
  1
ByBlock
  2

 70
0
 40
1.0
 71
1
 41
1.0
 91
-1023410177
 42
1.0
 72
1
  3

 73
1
 74
1
 75
1
 44
0.5
 73
0
 45
1.0
 46
1.0
 77
1
  4

 78
1
 79
1
170
1
 48
1.0
171
1
  6

172
1
173
1
174
1
140
1.0
141
1.0
175
1
  7

176
1
177
1
178
1
143
1.0
179
1
  8

270
1
271
1
272
1
145
1.0
146
1.0
273
1
  9

274
1
275
1
276
1
 42
1.0
 72
1
  3

 73
1
 74
1
 75
1
 94
63
  0
MATERIAL
  5
20
102
{ACAD_REACTORS
330
E
102
}
330
E
100
AcDbMaterial
  1
ByLayer
  2

 70
0
 40
1.0
 71
1
 41
1.0
 91
-1023410177
 42
1.0
 72
1
  3

 73
1
 74
1
 75
1
 44
0.5
 73
0
 45
1.0
 46
1.0
 77
1
  4

 78
1
 79
1
170
1
 48
1.0
171
1
  6

172
1
173
1
174
1
140
1.0
141
1.0
175
1
  7

176
1
177
1
178
1
143
1.0
179
1
  8

270
1
271
1
272
1
145
1.0
146
1.0
273
1
  9

274
1
275
1
276
1
 42
1.0
 72
1
  3

 73
1
 74
1
 75
1
 94
63
  0
MATERIAL
  5
21
102
{ACAD_REACTORS
330
E
102
}
330
E
100
AcDbMaterial
  1
Global
  2

 70
0
 40
1.0
 71
1
 41
1.0
 91
-1023410177
 42
1.0
 72
1
  3

 73
1
 74
1
 75
1
 44
0.5
 73
0
 45
1.0
 46
1.0
 77
1
  4

 78
1
 79
1
170
1
 48
1.0
171
1
  6

172
1
173
1
174
1
140
1.0
141
1.0
175
1
  7

176
1
177
1
178
1
143
1.0
179
1
  8

270
1
271
1
272
1
145
1.0
146
1.0
273
1
  9

274
1
275
1
276
1
 42
1.0
 72
1
  3

 73
1
 74
1
 75
1
 94
63
  0
MLINESTYLE
  5
22
102
{ACAD_REACTORS
330
10
102
}
330
10
100
AcDbMlineStyle
  2
Standard
 70
0
  3

 62
256
 51
90.0
 52
90.0
 71
2
 49
0.5
 62
256
  6
BYLAYER
 49
-0.5
 62
256
  6
BYLAYER
  0
MLEADERSTYLE
  5
2C
102
{ACAD_REACTORS
330
F
102
}
330
F
100
AcDbMLeaderStyle
179
2
170
2
171
1
172
0
 90
2
 40
0.0
 41
0.0
173
1
 91
-1056964608
 92
-2
290
1
 42
2.0
291
1
 43
8.0
  3
Standard
 44
4.0
300

342
29
174
1
175
1
176
0
178
1
 93
-1056964608
 45
4.0
292
0
297
0
 46
4.0
 94
-1056964608
 47
1.0
 49
1.0
140
1.0
294
1
141
0.0
177
0
142
1.0
295
0
296
0
143
3.75
271
0
272
9
273
9
  0
DICTIONARY
  5
2D
330
A
100
AcDbDictionary
281
1
  3
CREATED_BY_EZDXF
350
2E
  3
WRITTEN_BY_EZDXF
350
3B
  0
DICTIONARYVAR
  5
2E
330
2D
100
DictionaryVariables
280
0
  1
1.0.3 @ 2025-05-29T09:39:05.893053+00:00
  0
DICTIONARYVAR
  5
3B
330
2D
100
DictionaryVariables
280
0
  1
1.0.3 @ 2025-05-29T09:39:05.896061+00:00
  0
ENDSEC
  0
EOF
