  0
SECTION
  2
HEADER
  9
$ACADVER
  1
AC1027
  9
$ACADMAINTVER
 70
105
  9
$DWGCODEPAGE
  3
ANSI_1252
  9
$LASTSAVEDBY
  1
ezdxf
  9
$REQUIREDVERSIONS
160
0
  9
$INSBASE
 10
0.0
 20
0.0
 30
0.0
  9
$EXTMIN
 10
1e+20
 20
1e+20
 30
1e+20
  9
$EXTMAX
 10
-1e+20
 20
-1e+20
 30
-1e+20
  9
$LIMMIN
 10
0.0
 20
0.0
  9
$LIMMAX
 10
420.0
 20
297.0
  9
$ORTHOMODE
 70
0
  9
$REGENMODE
 70
1
  9
$FILLMODE
 70
1
  9
$QTEXTMODE
 70
0
  9
$MIRRTEXT
 70
1
  9
$LTSCALE
 40
1.0
  9
$ATTMODE
 70
1
  9
$TEXTSIZE
 40
2.5
  9
$TRACEWID
 40
1.0
  9
$TEXTSTYLE
  7
Standard
  9
$CLAYER
  8
0
  9
$CELTYPE
  6
ByLayer
  9
$CECOLOR
 62
256
  9
$CELTSCALE
 40
1.0
  9
$DISPSILH
 70
0
  9
$DIMSCALE
 40
1.0
  9
$DIMASZ
 40
2.5
  9
$DIMEXO
 40
0.625
  9
$DIMDLI
 40
3.75
  9
$DIMRND
 40
0.0
  9
$DIMDLE
 40
0.0
  9
$DIMEXE
 40
1.25
  9
$DIMTP
 40
0.0
  9
$DIMTM
 40
0.0
  9
$DIMTXT
 40
2.5
  9
$DIMCEN
 40
2.5
  9
$DIMTSZ
 40
0.0
  9
$DIMTOL
 70
0
  9
$DIMLIM
 70
0
  9
$DIMTIH
 70
0
  9
$DIMTOH
 70
0
  9
$DIMSE1
 70
0
  9
$DIMSE2
 70
0
  9
$DIMTAD
 70
1
  9
$DIMZIN
 70
8
  9
$DIMBLK
  1

  9
$DIMASO
 70
1
  9
$DIMSHO
 70
1
  9
$DIMPOST
  1

  9
$DIMAPOST
  1

  9
$DIMALT
 70
0
  9
$DIMALTD
 70
3
  9
$DIMALTF
 40
0.03937007874
  9
$DIMLFAC
 40
1.0
  9
$DIMTOFL
 70
1
  9
$DIMTVP
 40
0.0
  9
$DIMTIX
 70
0
  9
$DIMSOXD
 70
0
  9
$DIMSAH
 70
0
  9
$DIMBLK1
  1

  9
$DIMBLK2
  1

  9
$DIMSTYLE
  2
ISO-25
  9
$DIMCLRD
 70
0
  9
$DIMCLRE
 70
0
  9
$DIMCLRT
 70
0
  9
$DIMTFAC
 40
1.0
  9
$DIMGAP
 40
0.625
  9
$DIMJUST
 70
0
  9
$DIMSD1
 70
0
  9
$DIMSD2
 70
0
  9
$DIMTOLJ
 70
0
  9
$DIMTZIN
 70
8
  9
$DIMALTZ
 70
0
  9
$DIMALTTZ
 70
0
  9
$DIMUPT
 70
0
  9
$DIMDEC
 70
2
  9
$DIMTDEC
 70
2
  9
$DIMALTU
 70
2
  9
$DIMALTTD
 70
3
  9
$DIMTXSTY
  7
Standard
  9
$DIMAUNIT
 70
0
  9
$DIMADEC
 70
0
  9
$DIMALTRND
 40
0.0
  9
$DIMAZIN
 70
0
  9
$DIMDSEP
 70
44
  9
$DIMATFIT
 70
3
  9
$DIMFRAC
 70
0
  9
$DIMLDRBLK
  1

  9
$DIMLUNIT
 70
2
  9
$DIMLWD
 70
-2
  9
$DIMLWE
 70
-2
  9
$DIMTMOVE
 70
0
  9
$DIMFXL
 40
1.0
  9
$DIMFXLON
 70
0
  9
$DIMJOGANG
 40
0.785398163397
  9
$DIMTFILL
 70
0
  9
$DIMTFILLCLR
 70
0
  9
$DIMARCSYM
 70
0
  9
$DIMLTYPE
  6

  9
$DIMLTEX1
  6

  9
$DIMLTEX2
  6

  9
$DIMTXTDIRECTION
 70
0
  9
$LUNITS
 70
2
  9
$LUPREC
 70
4
  9
$SKETCHINC
 40
1.0
  9
$FILLETRAD
 40
10.0
  9
$AUNITS
 70
0
  9
$AUPREC
 70
2
  9
$MENU
  1
.
  9
$ELEVATION
 40
0.0
  9
$PELEVATION
 40
0.0
  9
$THICKNESS
 40
0.0
  9
$LIMCHECK
 70
0
  9
$CHAMFERA
 40
0.0
  9
$CHAMFERB
 40
0.0
  9
$CHAMFERC
 40
0.0
  9
$CHAMFERD
 40
0.0
  9
$SKPOLY
 70
0
  9
$TDCREATE
 40
2460825.776828704
  9
$TDUCREATE
 40
2458532.153996898
  9
$TDUPDATE
 40
2460825.776828704
  9
$TDUUPDATE
 40
2458532.1544311
  9
$TDINDWG
 40
0.0
  9
$TDUSRTIMER
 40
0.0
  9
$USRTIMER
 70
1
  9
$ANGBASE
 50
0.0
  9
$ANGDIR
 70
0
  9
$PDMODE
 70
0
  9
$PDSIZE
 40
0.0
  9
$PLINEWID
 40
0.0
  9
$SPLFRAME
 70
0
  9
$SPLINETYPE
 70
6
  9
$SPLINESEGS
 70
8
  9
$HANDSEED
  5
3C
  9
$SURFTAB1
 70
6
  9
$SURFTAB2
 70
6
  9
$SURFTYPE
 70
6
  9
$SURFU
 70
6
  9
$SURFV
 70
6
  9
$UCSBASE
  2

  9
$UCSNAME
  2

  9
$UCSORG
 10
0.0
 20
0.0
 30
0.0
  9
$UCSXDIR
 10
1.0
 20
0.0
 30
0.0
  9
$UCSYDIR
 10
0.0
 20
1.0
 30
0.0
  9
$UCSORTHOREF
  2

  9
$UCSORTHOVIEW
 70
0
  9
$UCSORGTOP
 10
0.0
 20
0.0
 30
0.0
  9
$UCSORGBOTTOM
 10
0.0
 20
0.0
 30
0.0
  9
$UCSORGLEFT
 10
0.0
 20
0.0
 30
0.0
  9
$UCSORGRIGHT
 10
0.0
 20
0.0
 30
0.0
  9
$UCSORGFRONT
 10
0.0
 20
0.0
 30
0.0
  9
$UCSORGBACK
 10
0.0
 20
0.0
 30
0.0
  9
$PUCSBASE
  2

  9
$PUCSNAME
  2

  9
$PUCSORG
 10
0.0
 20
0.0
 30
0.0
  9
$PUCSXDIR
 10
1.0
 20
0.0
 30
0.0
  9
$PUCSYDIR
 10
0.0
 20
1.0
 30
0.0
  9
$PUCSORTHOREF
  2

  9
$PUCSORTHOVIEW
 70
0
  9
$PUCSORGTOP
 10
0.0
 20
0.0
 30
0.0
  9
$PUCSORGBOTTOM
 10
0.0
 20
0.0
 30
0.0
  9
$PUCSORGLEFT
 10
0.0
 20
0.0
 30
0.0
  9
$PUCSORGRIGHT
 10
0.0
 20
0.0
 30
0.0
  9
$PUCSORGFRONT
 10
0.0
 20
0.0
 30
0.0
  9
$PUCSORGBACK
 10
0.0
 20
0.0
 30
0.0
  9
$USERI1
 70
0
  9
$USERI2
 70
0
  9
$USERI3
 70
0
  9
$USERI4
 70
0
  9
$USERI5
 70
0
  9
$USERR1
 40
0.0
  9
$USERR2
 40
0.0
  9
$USERR3
 40
0.0
  9
$USERR4
 40
0.0
  9
$USERR5
 40
0.0
  9
$WORLDVIEW
 70
1
  9
$SHADEDGE
 70
3
  9
$SHADEDIF
 70
70
  9
$TILEMODE
 70
1
  9
$MAXACTVP
 70
64
  9
$PINSBASE
 10
0.0
 20
0.0
 30
0.0
  9
$PLIMCHECK
 70
0
  9
$PEXTMIN
 10
1e+20
 20
1e+20
 30
1e+20
  9
$PEXTMAX
 10
-1e+20
 20
-1e+20
 30
-1e+20
  9
$PLIMMIN
 10
0.0
 20
0.0
  9
$PLIMMAX
 10
420.0
 20
297.0
  9
$UNITMODE
 70
0
  9
$VISRETAIN
 70
1
  9
$PLINEGEN
 70
0
  9
$PSLTSCALE
 70
1
  9
$TREEDEPTH
 70
3020
  9
$CMLSTYLE
  2
Standard
  9
$CMLJUST
 70
0
  9
$CMLSCALE
 40
20.0
  9
$PROXYGRAPHICS
 70
1
  9
$MEASUREMENT
 70
1
  9
$CELWEIGHT
370
-1
  9
$ENDCAPS
280
0
  9
$JOINSTYLE
280
0
  9
$LWDISPLAY
290
0
  9
$INSUNITS
 70
6
  9
$HYPERLINKBASE
  1

  9
$STYLESHEET
  1

  9
$XEDIT
290
1
  9
$CEPSNTYPE
380
0
  9
$PSTYLEMODE
290
1
  9
$FINGERPRINTGUID
  2
{2CA2C220-B04E-4F87-8561-6666E6B0D5B6}
  9
$VERSIONGUID
  2
{F3AAEA00-C1C5-403C-AC7A-B1DC1C32D003}
  9
$EXTNAMES
290
1
  9
$PSVPSCALE
 40
0.0
  9
$OLESTARTUP
290
0
  9
$SORTENTS
280
127
  9
$INDEXCTL
280
0
  9
$HIDETEXT
280
1
  9
$XCLIPFRAME
280
0
  9
$HALOGAP
280
0
  9
$OBSCOLOR
 70
257
  9
$OBSLTYPE
280
0
  9
$INTERSECTIONDISPLAY
280
0
  9
$INTERSECTIONCOLOR
 70
257
  9
$DIMASSOC
280
2
  9
$PROJECTNAME
  1

  9
$CAMERADISPLAY
290
0
  9
$LENSLENGTH
 40
50.0
  9
$CAMERAHEIGHT
 40
0.0
  9
$STEPSPERSEC
 40
24.0
  9
$STEPSIZE
 40
100.0
  9
$3DDWFPREC
 40
2.0
  9
$PSOLWIDTH
 40
0.005
  9
$PSOLHEIGHT
 40
0.08
  9
$LOFTANG1
 40
1.570796326795
  9
$LOFTANG2
 40
1.570796326795
  9
$LOFTMAG1
 40
0.0
  9
$LOFTMAG2
 40
0.0
  9
$LOFTPARAM
 70
7
  9
$LOFTNORMALS
280
1
  9
$LATITUDE
 40
37.795
  9
$LONGITUDE
 40
-122.394
  9
$NORTHDIRECTION
 40
0.0
  9
$TIMEZONE
 70
-8000
  9
$LIGHTGLYPHDISPLAY
280
1
  9
$TILEMODELIGHTSYNCH
280
1
  9
$CMATERIAL
347
20
  9
$SOLIDHIST
280
0
  9
$SHOWHIST
280
1
  9
$DWFFRAME
280
2
  9
$DGNFRAME
280
2
  9
$REALWORLDSCALE
290
1
  9
$INTERFERECOLOR
 62
256
  9
$CSHADOW
280
0
  9
$SHADOWPLANELOCATION
 40
0.0
  0
ENDSEC
  0
SECTION
  2
CLASSES
  0
CLASS
  1
ACDBDICTIONARYWDFLT
  2
AcDbDictionaryWithDefault
  3
ObjectDBX Classes
 90
0
 91
0
280
0
281
0
  0
CLASS
  1
SUN
  2
AcDbSun
  3
SCENEOE
 90
1153
 91
0
280
0
281
0
  0
CLASS
  1
VISUALSTYLE
  2
AcDbVisualStyle
  3
ObjectDBX Classes
 90
4095
 91
0
280
0
281
0
  0
CLASS
  1
MATERIAL
  2
AcDbMaterial
  3
ObjectDBX Classes
 90
1153
 91
0
280
0
281
0
  0
CLASS
  1
SCALE
  2
AcDbScale
  3
ObjectDBX Classes
 90
1153
 91
0
280
0
281
0
  0
CLASS
  1
TABLESTYLE
  2
AcDbTableStyle
  3
ObjectDBX Classes
 90
4095
 91
0
280
0
281
0
  0
CLASS
  1
MLEADERSTYLE
  2
AcDbMLeaderStyle
  3
ACDB_MLEADERSTYLE_CLASS
 90
4095
 91
0
280
0
281
0
  0
CLASS
  1
DICTIONARYVAR
  2
AcDbDictionaryVar
  3
ObjectDBX Classes
 90
0
 91
0
280
0
281
0
  0
CLASS
  1
CELLSTYLEMAP
  2
AcDbCellStyleMap
  3
ObjectDBX Classes
 90
1152
 91
0
280
0
281
0
  0
CLASS
  1
MENTALRAYRENDERSETTINGS
  2
AcDbMentalRayRenderSettings
  3
SCENEOE
 90
1024
 91
0
280
0
281
0
  0
CLASS
  1
ACDBDETAILVIEWSTYLE
  2
AcDbDetailViewStyle
  3
ObjectDBX Classes
 90
1025
 91
0
280
0
281
0
  0
CLASS
  1
ACDBSECTIONVIEWSTYLE
  2
AcDbSectionViewStyle
  3
ObjectDBX Classes
 90
1025
 91
0
280
0
281
0
  0
CLASS
  1
RASTERVARIABLES
  2
AcDbRasterVariables
  3
ISM
 90
0
 91
0
280
0
281
0
  0
CLASS
  1
LAYOUT
  2
AcDbLayout
  3
ObjectDBX Classes
 90
0
 91
0
280
0
281
0
  0
CLASS
  1
ACDBPLACEHOLDER
  2
AcDbPlaceHolder
  3
ObjectDBX Classes
 90
0
 91
0
280
0
281
0
  0
ENDSEC
  0
SECTION
  2
TABLES
  0
TABLE
  2
VPORT
  5
8
330
0
100
AcDbSymbolTable
 70
1
  0
VPORT
  5
23
330
8
100
AcDbSymbolTableRecord
100
AcDbViewportTableRecord
  2
*Active
 70
0
 10
0.0
 20
0.0
 11
1.0
 21
1.0
 12
0.0
 22
0.0
 13
0.0
 23
0.0
 14
0.5
 24
0.5
 15
0.5
 25
0.5
 16
0.0
 26
0.0
 36
1.0
 17
0.0
 27
0.0
 37
0.0
 40
1000.0
 41
1.34
 42
50.0
 43
0.0
 44
0.0
 50
0.0
 51
0.0
 71
0
 72
1000
 73
1
 74
3
 75
0
 76
0
 77
0
 78
0
281
0
 65
0
146
0.0
  0
ENDTAB
  0
TABLE
  2
LTYPE
  5
2
330
0
100
AcDbSymbolTable
 70
3
  0
LTYPE
  5
24
330
2
100
AcDbSymbolTableRecord
100
AcDbLinetypeTableRecord
  2
ByBlock
 70
0
  3

 72
65
 73
0
 40
0.0
  0
LTYPE
  5
25
330
2
100
AcDbSymbolTableRecord
100
AcDbLinetypeTableRecord
  2
ByLayer
 70
0
  3

 72
65
 73
0
 40
0.0
  0
LTYPE
  5
26
330
2
100
AcDbSymbolTableRecord
100
AcDbLinetypeTableRecord
  2
Continuous
 70
0
  3

 72
65
 73
0
 40
0.0
  0
ENDTAB
  0
TABLE
  2
LAYER
  5
1
330
0
100
AcDbSymbolTable
 70
2
  0
LAYER
  5
27
330
1
100
AcDbSymbolTableRecord
100
AcDbLayerTableRecord
  2
0
 70
0
 62
7
  6
Continuous
370
-3
390
13
347
21
  0
LAYER
  5
28
330
1
100
AcDbSymbolTableRecord
100
AcDbLayerTableRecord
  2
Defpoints
 70
0
 62
7
  6
Continuous
290
0
370
-3
390
13
347
21
  0
ENDTAB
  0
TABLE
  2
STYLE
  5
5
330
0
100
AcDbSymbolTable
 70
1
  0
STYLE
  5
29
330
5
100
AcDbSymbolTableRecord
100
AcDbTextStyleTableRecord
  2
Standard
 70
0
 40
0.0
 41
1.0
 50
0.0
 71
0
 42
2.5
  3
txt
  4

  0
ENDTAB
  0
TABLE
  2
VIEW
  5
7
330
0
100
AcDbSymbolTable
 70
0
  0
ENDTAB
  0
TABLE
  2
UCS
  5
6
330
0
100
AcDbSymbolTable
 70
0
  0
ENDTAB
  0
TABLE
  2
APPID
  5
3
330
0
100
AcDbSymbolTable
 70
3
  0
APPID
  5
2A
330
3
100
AcDbSymbolTableRecord
100
AcDbRegAppTableRecord
  2
ACAD
 70
0
  0
APPID
  5
39
330
3
100
AcDbSymbolTableRecord
100
AcDbRegAppTableRecord
  2
HATCHBACKGROUNDCOLOR
 70
0
  0
APPID
  5
3A
330
3
100
AcDbSymbolTableRecord
100
AcDbRegAppTableRecord
  2
EZDXF
 70
0
  0
ENDTAB
  0
TABLE
  2
DIMSTYLE
  5
4
330
0
100
AcDbSymbolTable
 70
1
100
AcDbDimStyleTable
  0
DIMSTYLE
105
2B
330
4
100
AcDbSymbolTableRecord
100
AcDbDimStyleTableRecord
  2
Standard
 70
0
 40
1.0
 41
2.5
 42
0.625
 43
3.75
 44
1.25
 45
0.0
 46
0.0
 47
0.0
 48
0.0
 49
2.5
140
2.5
141
2.5
142
0.0
143
0.03937007874
144
1.0
145
0.0
146
1.0
147
0.625
148
0.0
 69
0
 70
0
 71
0
 72
0
 73
0
 74
0
 75
0
 76
0
 77
1
 78
8
 79
3
170
0
171
3
172
1
173
0
174
0
175
0
176
0
177
0
178
0
179
2
271
2
272
2
273
2
274
3
275
0
276
0
277
2
278
44
279
0
280
0
281
0
282
0
283
0
284
8
285
0
286
0
288
0
289
3
290
0
371
-2
372
-2
  0
ENDTAB
  0
TABLE
  2
BLOCK_RECORD
  5
9
330
0
100
AcDbSymbolTable
 70
2
  0
BLOCK_RECORD
  5
17
330
9
100
AcDbSymbolTableRecord
100
AcDbBlockTableRecord
  2
*Model_Space
340
1A
 70
0
280
1
281
0
  0
BLOCK_RECORD
  5
1B
330
9
100
AcDbSymbolTableRecord
100
AcDbBlockTableRecord
  2
*Paper_Space
340
1E
 70
0
280
1
281
0
  0
ENDTAB
  0
ENDSEC
  0
SECTION
  2
BLOCKS
  0
BLOCK
  5
18
330
17
100
AcDbEntity
  8
0
100
AcDbBlockBegin
  2
*Model_Space
 70
0
 10
0.0
 20
0.0
 30
0.0
  3
*Model_Space
  1

  0
ENDBLK
  5
19
330
17
100
AcDbEntity
  8
0
100
AcDbBlockEnd
  0
BLOCK
  5
1C
330
1B
100
AcDbEntity
  8
0
100
AcDbBlockBegin
  2
*Paper_Space
 70
0
 10
0.0
 20
0.0
 30
0.0
  3
*Paper_Space
  1

  0
ENDBLK
  5
1D
330
1B
100
AcDbEntity
  8
0
100
AcDbBlockEnd
  0
ENDSEC
  0
SECTION
  2
ENTITIES
  0
LWPOLYLINE
  5
2F
330
17
100
AcDbEntity
  8
0
100
AcDbPolyline
 90
51
 70
0
 10
2.7
 20
12.0
 10
2.7
 20
11.76
 10
2.7
 20
11.52
 10
2.7
 20
11.28
 10
2.7
 20
11.04
 10
2.7
 20
10.8
 10
2.7
 20
10.56
 10
2.7
 20
10.32
 10
2.7
 20
10.08
 10
2.7
 20
9.84
 10
2.7
 20
9.6
 10
2.7
 20
9.36
 10
2.7
 20
9.120000000000001
 10
2.7000000000000006
 20
8.879999999999999
 10
2.7000000000000006
 20
8.64
 10
2.7000000000000006
 20
8.4
 10
2.7000000000000006
 20
8.16
 10
2.7000000000000006
 20
7.92
 10
2.7000000000000006
 20
7.68
 10
2.7000000000000006
 20
7.44
 10
2.7000000000000006
 20
7.2
 10
2.7000000000000006
 20
6.96
 10
2.7000000000000006
 20
6.72
 10
2.7000000000000006
 20
6.48
 10
2.7000000000000006
 20
6.24
 10
2.7000000000000006
 20
6.0
 10
2.7000000000000006
 20
5.76
 10
2.7000000000000006
 20
5.52
 10
2.7000000000000006
 20
5.28
 10
2.7000000000000006
 20
5.04
 10
2.7000000000000006
 20
4.8
 10
2.7000000000000006
 20
4.56
 10
2.7000000000000006
 20
4.32
 10
2.7000000000000006
 20
4.08
 10
2.7000000000000006
 20
3.84
 10
2.7000000000000006
 20
3.5999999999999996
 10
2.7000000000000006
 20
3.3599999999999994
 10
2.7000000000000006
 20
3.119999999999999
 10
2.700000000000001
 20
2.880000000000001
 10
2.700000000000001
 20
2.6400000000000006
 10
2.700000000000001
 20
2.4000000000000004
 10
2.700000000000001
 20
2.16
 10
2.700000000000001
 20
1.92
 10
2.700000000000001
 20
1.6799999999999997
 10
2.700000000000001
 20
1.4399999999999995
 10
2.700000000000001
 20
1.1999999999999993
 10
2.700000000000001
 20
0.9600000000000009
 10
2.700000000000001
 20
0.7200000000000006
 10
2.700000000000001
 20
0.4800000000000004
 10
2.700000000000001
 20
0.2400000000000002
 10
2.700000000000001
 20
0.0
  0
LWPOLYLINE
  5
30
330
17
100
AcDbEntity
  8
0
100
AcDbPolyline
 90
51
 70
0
 10
-11.3
 20
5.0
 10
-11.3
 20
5.14
 10
-11.3
 20
5.28
 10
-11.3
 20
5.42
 10
-11.3
 20
5.5600000000000005
 10
-11.3
 20
5.7
 10
-11.3
 20
5.84
 10
-11.3
 20
5.98
 10
-11.3
 20
6.12
 10
-11.3
 20
6.26
 10
-11.3
 20
6.4
 10
-11.3
 20
6.54
 10
-11.3
 20
6.68
 10
-11.3
 20
6.82
 10
-11.3
 20
6.96
 10
-11.3
 20
7.1
 10
-11.3
 20
7.24
 10
-11.3
 20
7.38
 10
-11.3
 20
7.52
 10
-11.3
 20
7.66
 10
-11.3
 20
7.8
 10
-11.3
 20
7.9399999999999995
 10
-11.3
 20
8.08
 10
-11.3
 20
8.22
 10
-11.3
 20
8.36
 10
-11.3
 20
8.5
 10
-11.300000000000002
 20
8.64
 10
-11.300000000000002
 20
8.78
 10
-11.300000000000002
 20
8.92
 10
-11.300000000000002
 20
9.059999999999999
 10
-11.300000000000002
 20
9.2
 10
-11.300000000000002
 20
9.34
 10
-11.300000000000002
 20
9.48
 10
-11.300000000000002
 20
9.620000000000001
 10
-11.300000000000002
 20
9.76
 10
-11.300000000000002
 20
9.9
 10
-11.300000000000002
 20
10.04
 10
-11.300000000000002
 20
10.18
 10
-11.300000000000002
 20
10.32
 10
-11.300000000000002
 20
10.46
 10
-11.300000000000002
 20
10.6
 10
-11.300000000000002
 20
10.74
 10
-11.300000000000002
 20
10.879999999999999
 10
-11.300000000000002
 20
11.02
 10
-11.300000000000002
 20
11.16
 10
-11.300000000000002
 20
11.3
 10
-11.300000000000002
 20
11.440000000000001
 10
-11.300000000000002
 20
11.58
 10
-11.300000000000002
 20
11.719999999999999
 10
-11.300000000000002
 20
11.86
 10
-11.300000000000002
 20
12.0
  0
LWPOLYLINE
  5
31
330
17
100
AcDbEntity
  8
0
100
AcDbPolyline
 90
51
 70
0
 10
-11.3
 20
11.999999999999998
 10
-11.2861870989979
 20
12.439533636705189
 10
-11.244802909201345
 20
12.877332634950129
 10
-11.17601075510082
 20
13.31166920210007
 10
-11.080082127900418
 20
13.740829210153985
 10
-10.957395614066076
 20
14.16311896062463
 10
-10.80843540121776
 20
14.576871868792741
 10
-10.633789367262136
 20
14.980455040955508
 10
-10.434146760307048
 20
15.372275718712004
 10
-10.210295478514105
 20
15.750787564852978
 10
-9.963118960624634
 20
16.11449676604731
 10
-9.693592699430527
 20
16.461967928240824
 10
-9.40278039194988
 20
16.79182974150082
 10
-9.091829741500822
 20
17.102780391949878
 10
-8.761967928240828
 20
17.393592699430528
 10
-8.414496766047314
 20
17.66311896062463
 10
-8.05078756485298
 20
17.910295478514104
 10
-7.672275718712007
 20
18.134146760307047
 10
-7.280455040955511
 20
18.333789367262135
 10
-6.876871868792745
 20
18.50843540121776
 10
-6.463118960624634
 20
18.657395614066075
 10
-6.040829210153987
 20
18.780082127900418
 10
-5.611669202100073
 20
18.876010755100822
 10
-5.177332634950132
 20
18.944802909201343
 10
-4.739533636705192
 20
18.986187098997902
 10
-4.300000000000002
 20
19.0
 10
-3.8604663632948104
 20
18.986187098997902
 10
-3.4226673650498705
 20
18.944802909201346
 10
-2.9883307978999305
 20
18.876010755100822
 10
-2.5591707898460156
 20
18.780082127900418
 10
-2.1368810393753694
 20
18.657395614066075
 10
-1.7231281312072584
 20
18.50843540121776
 10
-1.3195449590444919
 20
18.333789367262135
 10
-0.9277242812879902
 20
18.134146760307043
 10
-0.5492124351470231
 20
17.910295478514104
 10
-0.18550323395268986
 20
17.663118960624633
 10
0.1619679282408244
 20
17.393592699430528
 10
0.4918297415008208
 20
17.10278039194988
 10
0.802780391949879
 20
16.791829741500823
 10
1.0935926994305252
 20
16.461967928240828
 10
1.3631189606246306
 20
16.114496766047314
 10
1.6102954785141037
 20
15.75078756485298
 10
1.8341467603070454
 20
15.372275718712007
 10
2.033789367262136
 20
14.980455040955512
 10
2.20843540121776
 20
14.576871868792745
 10
2.357395614066075
 20
14.163118960624633
 10
2.480082127900417
 20
13.740829210153988
 10
2.5760107551008202
 20
13.311669202100074
 10
2.6448029092013448
 20
12.877332634950132
 10
2.686187098997901
 20
12.439533636705193
 10
2.7
 20
12.000000000000002
  0
LWPOLYLINE
  5
32
330
17
100
AcDbEntity
  8
0
100
AcDbPolyline
 90
51
 70
0
 10
2.7
 20
1.91846538655227e-16
 10
2.092
 20
1.4864554032101292e-16
 10
1.4840000000000002
 20
1.0544454198679885e-16
 10
0.8760000000000003
 20
6.224354365258478e-17
 10
0.26800000000000024
 20
1.9042545318370695e-17
 10
-0.33999999999999986
 20
-2.415845301584339e-17
 10
-0.9479999999999995
 20
-6.735945135005744e-17
 10
-1.5559999999999992
 20
-1.105604496842715e-16
 10
-2.1639999999999997
 20
-1.537614480184856e-16
 10
-2.7719999999999994
 20
-1.9696244635269966e-16
 10
-3.38
 20
-2.401634446869138e-16
 10
-3.9879999999999995
 20
-2.8336444302112785e-16
 10
-4.595999999999999
 20
-3.265654413553419e-16
 10
-5.204
 20
-3.69766439689556e-16
 10
-5.8119999999999985
 20
-4.1296743802376997e-16
 10
-6.419999999999999
 20
-4.561684363579841e-16
 10
-7.028
 20
-4.993694346921982e-16
 10
-7.635999999999998
 20
-5.425704330264122e-16
 10
-8.244
 20
-5.857714313606264e-16
 10
-8.852
 20
-6.289724296948405e-16
 10
-9.46
 20
-6.721734280290546e-16
 10
-10.067999999999998
 20
-7.153744263632685e-16
 10
-10.675999999999998
 20
-7.585754246974826e-16
 10
-11.283999999999999
 20
-8.017764230316967e-16
 10
-11.892
 20
-8.449774213659108e-16
 10
-12.5
 20
-8.881784197001249e-16
 10
-13.108
 20
-9.313794180343391e-16
 10
-13.716000000000001
 20
-9.745804163685532e-16
 10
-14.323999999999998
 20
-1.017781414702767e-15
 10
-14.931999999999999
 20
-1.060982413036981e-15
 10
-15.54
 20
-1.1041834113711952e-15
 10
-16.148
 20
-1.1473844097054095e-15
 10
-16.756
 20
-1.1905854080396236e-15
 10
-17.364
 20
-1.2337864063738377e-15
 10
-17.971999999999998
 20
-1.2769874047080514e-15
 10
-18.580000000000002
 20
-1.3201884030422659e-15
 10
-19.188
 20
-1.3633894013764798e-15
 10
-19.796
 20
-1.406590399710694e-15
 10
-20.404
 20
-1.449791398044908e-15
 10
-21.012
 20
-1.4929923963791221e-15
 10
-21.62
 20
-1.5361933947133362e-15
 10
-22.227999999999998
 20
-1.57939439304755e-15
 10
-22.836
 20
-1.6225953913817642e-15
 10
-23.444000000000003
 20
-1.6657963897159785e-15
 10
-24.052
 20
-1.7089973880501925e-15
 10
-24.66
 20
-1.7521983863844066e-15
 10
-25.267999999999997
 20
-1.7953993847186205e-15
 10
-25.876
 20
-1.8386003830528348e-15
 10
-26.483999999999998
 20
-1.8818013813870487e-15
 10
-27.092
 20
-1.9250023797212626e-15
 10
-27.7
 20
-1.968203378055477e-15
  0
LWPOLYLINE
  5
33
330
17
100
AcDbEntity
  8
0
100
AcDbPolyline
 90
51
 70
0
 10
-0.2999999999999998
 20
12.0
 10
-0.31775214158767984
 20
11.623566746725944
 10
-0.37085099708524494
 20
11.2504747416571
 10
-0.45882525729222756
 20
10.884035575843082
 10
-0.580894056446994
 20
10.527501789261288
 10
-0.7359739032465282
 20
10.184038001041813
 10
-0.9226882979919391
 20
9.856692820084014
 10
-1.1393799504972377
 20
9.548371785388095
 10
-1.384125490314354
 20
9.261811576285245
 10
-1.6547525387053925
 20
8.999555721478162
 10
-1.9488589908301068
 20
8.76393202250021
 10
-2.2638343369985154
 20
8.557031891984225
 10
-2.5968828337397083
 20
8.380691790135923
 10
-2.9450483190188343
 20
8.236476924183098
 10
-3.3052404513405804
 20
8.125667355485476
 10
-3.674262139839076
 20
8.049246637619449
 10
-4.048837921882745
 20
8.007893086286913
 10
-4.425643036312512
 20
8.001973758537073
 10
-4.801332934257217
 20
8.031541194742088
 10
-5.172572965586168
 20
8.09633295224501
 10
-5.536067977499789
 20
8.195773934819385
 10
-5.888591562539123
 20
8.328981497264076
 10
-6.227014696406862
 20
8.494773279824546
 10
-6.548333511408522
 20
8.691677702901753
 10
-6.849695958994758
 20
8.917947028896844
 10
-7.12842712474619
 20
9.171572875253808
 10
-7.382052971103157
 20
9.450304041005243
 10
-7.608322297098246
 20
9.751666488591477
 10
-7.805226720175455
 20
10.07298530359314
 10
-7.971018502735923
 20
10.411408437460876
 10
-8.104226065180614
 20
10.76393202250021
 10
-8.203667047754989
 20
11.127427034413827
 10
-8.26845880525791
 20
11.498667065742781
 10
-8.298026241462926
 20
11.874356963687486
 10
-8.292106913713086
 20
12.251162078117252
 10
-8.25075336238055
 20
12.625737860160923
 10
-8.174332644514525
 20
12.99475954865942
 10
-8.063523075816903
 20
13.354951680981165
 10
-7.919308209864079
 20
13.703117166260288
 10
-7.7429681080157735
 20
14.036165663001487
 10
-7.5360679774997905
 20
14.351141009169892
 10
-7.30044427852184
 20
14.645247461294606
 10
-7.038188423714753
 20
14.915874509685647
 10
-6.751628214611905
 20
15.16062004950276
 10
-6.443307179915985
 20
15.377311702008061
 10
-6.115961998958188
 20
15.564026096753471
 10
-5.7724982107387115
 20
15.719105943553005
 10
-5.415964424156918
 20
15.841174742707771
 10
-5.049525258342898
 20
15.929149002914755
 10
-4.676433253274056
 20
15.98224785841232
 10
-4.300000000000001
 20
16.0
  0
LWPOLYLINE
  5
34
330
17
100
AcDbEntity
  8
0
100
AcDbPolyline
 90
51
 70
0
 10
-4.3
 20
16.0
 10
-4.174356963687487
 20
15.998026241462927
 10
-4.048837921882746
 20
15.992106913713087
 10
-3.9235667467259425
 20
15.98224785841232
 10
-3.798667065742783
 20
15.968458805257912
 10
-3.6742621398390765
 20
15.950753362380551
 10
-3.5504747416571014
 20
15.929149002914755
 10
-3.42742703441383
 20
15.90366704775499
 10
-3.3052404513405804
 20
15.874332644514524
 10
-3.1840355758430827
 20
15.841174742707771
 10
-3.06393202250021
 20
15.804226065180615
 10
-2.9450483190188343
 20
15.763523075816902
 10
-2.827501789261288
 20
15.719105943553005
 10
-2.7114084374608773
 20
15.671018502735924
 10
-2.596882833739709
 20
15.619308209864078
 10
-2.484038001041813
 20
15.564026096753471
 10
-2.3729853035931385
 20
15.505226720175454
 10
-2.2638343369985146
 20
15.442968108015775
 10
-2.156692820084013
 20
15.377311702008061
 10
-2.0516664885914775
 20
15.308322297098247
 10
-1.9488589908301073
 20
15.23606797749979
 10
-1.8483717853880939
 20
15.16062004950276
 10
-1.7503040410052413
 20
15.082052971103156
 10
-1.6547525387053925
 20
15.000444278521838
 10
-1.5618115762852454
 20
14.915874509685647
 10
-1.4715728752538095
 20
14.82842712474619
 10
-1.3841254903143536
 20
14.738188423714755
 10
-1.299555721478162
 20
14.645247461294607
 10
-1.2179470288968428
 20
14.549695958994759
 10
-1.1393799504972382
 20
14.451628214611906
 10
-1.0639320225002105
 20
14.351141009169893
 10
-0.9916777029017525
 20
14.248333511408523
 10
-0.9226882979919395
 20
14.143307179915986
 10
-0.8570318919842252
 20
14.036165663001485
 10
-0.794773279824545
 20
13.92701469640686
 10
-0.7359739032465287
 20
13.815961998958187
 10
-0.6806917901359215
 20
13.703117166260292
 10
-0.6289814972640753
 20
13.588591562539122
 10
-0.5808940564469944
 20
13.472498210738712
 10
-0.536476924183098
 20
13.354951680981166
 10
-0.4957739348193857
 20
13.23606797749979
 10
-0.458825257292228
 20
13.115964424156918
 10
-0.4256673554854755
 20
12.994759548659419
 10
-0.39633295224501053
 20
12.872572965586171
 10
-0.3708509970852454
 20
12.7495252583429
 10
-0.34924663761944874
 20
12.625737860160923
 10
-0.33154119474208876
 20
12.501332934257217
 10
-0.31775214158767984
 20
12.376433253274056
 10
-0.3078930862869136
 20
12.251162078117254
 10
-0.3019737585370734
 20
12.125643036312514
 10
-0.2999999999999998
 20
12.0
  0
LWPOLYLINE
  5
35
330
17
100
AcDbEntity
  8
0
100
AcDbPolyline
 90
51
 70
0
 10
-27.7
 20
-1.96820337805548e-15
 10
-27.7
 20
0.09999999999999806
 10
-27.7
 20
0.1999999999999981
 10
-27.7
 20
0.29999999999999816
 10
-27.7
 20
0.3999999999999982
 10
-27.7
 20
0.49999999999999817
 10
-27.7
 20
0.5999999999999982
 10
-27.7
 20
0.6999999999999983
 10
-27.7
 20
0.7999999999999983
 10
-27.7
 20
0.8999999999999982
 10
-27.7
 20
0.9999999999999982
 10
-27.7
 20
1.0999999999999985
 10
-27.7
 20
1.1999999999999984
 10
-27.7
 20
1.2999999999999985
 10
-27.7
 20
1.3999999999999986
 10
-27.7
 20
1.4999999999999987
 10
-27.7
 20
1.5999999999999985
 10
-27.7
 20
1.6999999999999986
 10
-27.7
 20
1.7999999999999985
 10
-27.7
 20
1.8999999999999986
 10
-27.7
 20
1.9999999999999987
 10
-27.7
 20
2.099999999999999
 10
-27.7
 20
2.1999999999999993
 10
-27.7
 20
2.299999999999999
 10
-27.7
 20
2.399999999999999
 10
-27.7
 20
2.499999999999999
 10
-27.7
 20
2.599999999999999
 10
-27.7
 20
2.6999999999999993
 10
-27.7
 20
2.7999999999999994
 10
-27.7
 20
2.8999999999999995
 10
-27.7
 20
2.9999999999999996
 10
-27.7
 20
3.099999999999999
 10
-27.7
 20
3.1999999999999993
 10
-27.7
 20
3.2999999999999994
 10
-27.7
 20
3.3999999999999995
 10
-27.7
 20
3.4999999999999996
 10
-27.7
 20
3.599999999999999
 10
-27.7
 20
3.6999999999999993
 10
-27.7
 20
3.7999999999999994
 10
-27.7
 20
3.8999999999999995
 10
-27.7
 20
3.999999999999999
 10
-27.7
 20
4.1
 10
-27.7
 20
4.2
 10
-27.7
 20
4.3
 10
-27.7
 20
4.4
 10
-27.7
 20
4.5
 10
-27.7
 20
4.6
 10
-27.7
 20
4.7
 10
-27.7
 20
4.8
 10
-27.7
 20
4.9
 10
-27.7
 20
5.0
  0
LWPOLYLINE
  5
36
330
17
100
AcDbEntity
  8
0
100
AcDbPolyline
 90
51
 70
0
 10
-20.0
 20
5.0
 10
-19.826
 20
5.0
 10
-19.652
 20
5.0
 10
-19.478
 20
5.0
 10
-19.304000000000002
 20
5.0
 10
-19.13
 20
5.0
 10
-18.956
 20
5.0
 10
-18.782
 20
5.0
 10
-18.608
 20
5.0
 10
-18.434
 20
5.0
 10
-18.259999999999998
 20
5.0
 10
-18.086
 20
5.0
 10
-17.912
 20
5.0
 10
-17.738
 20
5.0
 10
-17.564
 20
5.0
 10
-17.39
 20
5.0
 10
-17.216
 20
5.0
 10
-17.042
 20
5.0
 10
-16.868000000000002
 20
5.0
 10
-16.694000000000003
 20
5.0
 10
-16.52
 20
5.0
 10
-16.346
 20
5.0
 10
-16.172
 20
5.0
 10
-15.998000000000001
 20
5.0
 10
-15.824000000000002
 20
5.0
 10
-15.65
 20
5.0
 10
-15.475999999999999
 20
5.0
 10
-15.302
 20
5.0
 10
-15.128
 20
5.0
 10
-14.954
 20
5.0
 10
-14.780000000000001
 20
5.0
 10
-14.606
 20
5.0
 10
-14.432
 20
5.0
 10
-14.258000000000001
 20
5.0
 10
-14.084
 20
5.0
 10
-13.91
 20
5.0
 10
-13.736
 20
5.0
 10
-13.562000000000001
 20
5.0
 10
-13.388000000000002
 20
5.0
 10
-13.214000000000002
 20
5.0
 10
-13.04
 20
5.0
 10
-12.866
 20
5.0
 10
-12.692
 20
5.0
 10
-12.518
 20
5.0
 10
-12.344000000000001
 20
5.0
 10
-12.170000000000002
 20
5.0
 10
-11.996
 20
5.0
 10
-11.822000000000001
 20
5.0
 10
-11.648000000000001
 20
5.0
 10
-11.474
 20
5.0
 10
-11.3
 20
5.0
  0
LWPOLYLINE
  5
37
330
17
100
AcDbEntity
  8
0
100
AcDbPolyline
 90
51
 70
0
 10
-27.7
 20
5.0
 10
-27.372
 20
5.0
 10
-27.044
 20
5.0
 10
-26.716
 20
5.0
 10
-26.387999999999998
 20
5.0
 10
-26.06
 20
5.0
 10
-25.732
 20
5.0
 10
-25.404
 20
5.0
 10
-25.076
 20
5.0
 10
-24.747999999999998
 20
5.0
 10
-24.419999999999998
 20
5.0
 10
-24.092
 20
5.0
 10
-23.764
 20
5.0
 10
-23.436
 20
5.0
 10
-23.108
 20
5.0
 10
-22.78
 20
5.0
 10
-22.451999999999998
 20
5.0
 10
-22.124000000000002
 20
5.0
 10
-21.796
 20
5.0
 10
-21.468
 20
5.0
 10
-21.14
 20
5.0
 10
-20.811999999999998
 20
5.0
 10
-20.484
 20
5.0
 10
-20.156
 20
5.0
 10
-19.828
 20
5.0
 10
-19.5
 20
5.0
 10
-19.172
 20
5.0
 10
-18.844
 20
5.0
 10
-18.516
 20
5.0
 10
-18.188000000000002
 20
5.0
 10
-17.86
 20
5.0
 10
-17.532
 20
5.0
 10
-17.204
 20
5.0
 10
-16.876
 20
5.0
 10
-16.548000000000002
 20
5.0
 10
-16.22
 20
5.0
 10
-15.892
 20
5.0
 10
-15.564
 20
5.0
 10
-15.236
 20
5.0
 10
-14.908000000000001
 20
5.0
 10
-14.58
 20
5.0
 10
-14.251999999999999
 20
5.0
 10
-13.924
 20
5.0
 10
-13.596
 20
5.0
 10
-13.268
 20
5.0
 10
-12.940000000000001
 20
5.0
 10
-12.612
 20
5.0
 10
-12.284
 20
5.0
 10
-11.956000000000001
 20
5.0
 10
-11.628
 20
5.0
 10
-11.3
 20
5.0
  0
LWPOLYLINE
  5
38
330
17
100
AcDbEntity
  8
0
100
AcDbPolyline
 90
51
 70
0
 10
-11.3
 20
5.0
 10
-11.3
 20
5.14
 10
-11.3
 20
5.28
 10
-11.3
 20
5.42
 10
-11.3
 20
5.5600000000000005
 10
-11.3
 20
5.7
 10
-11.3
 20
5.84
 10
-11.3
 20
5.98
 10
-11.3
 20
6.12
 10
-11.3
 20
6.26
 10
-11.3
 20
6.4
 10
-11.3
 20
6.54
 10
-11.3
 20
6.68
 10
-11.3
 20
6.82
 10
-11.3
 20
6.96
 10
-11.3
 20
7.1
 10
-11.3
 20
7.24
 10
-11.3
 20
7.38
 10
-11.3
 20
7.52
 10
-11.3
 20
7.66
 10
-11.3
 20
7.8
 10
-11.3
 20
7.9399999999999995
 10
-11.3
 20
8.08
 10
-11.3
 20
8.22
 10
-11.3
 20
8.36
 10
-11.3
 20
8.5
 10
-11.300000000000002
 20
8.64
 10
-11.300000000000002
 20
8.78
 10
-11.300000000000002
 20
8.92
 10
-11.300000000000002
 20
9.059999999999999
 10
-11.300000000000002
 20
9.2
 10
-11.300000000000002
 20
9.34
 10
-11.300000000000002
 20
9.48
 10
-11.300000000000002
 20
9.620000000000001
 10
-11.300000000000002
 20
9.76
 10
-11.300000000000002
 20
9.9
 10
-11.300000000000002
 20
10.04
 10
-11.300000000000002
 20
10.18
 10
-11.300000000000002
 20
10.32
 10
-11.300000000000002
 20
10.46
 10
-11.300000000000002
 20
10.6
 10
-11.300000000000002
 20
10.74
 10
-11.300000000000002
 20
10.879999999999999
 10
-11.300000000000002
 20
11.02
 10
-11.300000000000002
 20
11.16
 10
-11.300000000000002
 20
11.3
 10
-11.300000000000002
 20
11.440000000000001
 10
-11.300000000000002
 20
11.58
 10
-11.300000000000002
 20
11.719999999999999
 10
-11.300000000000002
 20
11.86
 10
-11.300000000000002
 20
12.0
  0
ENDSEC
  0
SECTION
  2
OBJECTS
  0
DICTIONARY
  5
A
330
0
100
AcDbDictionary
280
0
281
1
  3
ACAD_COLOR
350
B
  3
ACAD_GROUP
350
C
  3
ACAD_LAYOUT
350
D
  3
ACAD_MATERIAL
350
E
  3
ACAD_MLEADERSTYLE
350
F
  3
ACAD_MLINESTYLE
350
10
  3
ACAD_PLOTSETTINGS
350
11
  3
ACAD_PLOTSTYLENAME
350
12
  3
ACAD_SCALELIST
350
14
  3
ACAD_TABLESTYLE
350
15
  3
ACAD_VISUALSTYLE
350
16
  3
EZDXF_META
350
2D
  0
DICTIONARY
  5
B
330
A
100
AcDbDictionary
280
0
281
1
  0
DICTIONARY
  5
C
330
A
100
AcDbDictionary
280
0
281
1
  0
DICTIONARY
  5
D
330
A
100
AcDbDictionary
280
0
281
1
  3
Model
350
1A
  3
Layout1
350
1E
  0
DICTIONARY
  5
E
330
A
100
AcDbDictionary
280
0
281
1
  3
ByBlock
350
1F
  3
ByLayer
350
20
  3
Global
350
21
  0
DICTIONARY
  5
F
330
A
100
AcDbDictionary
280
0
281
1
  3
Standard
350
2C
  0
DICTIONARY
  5
10
330
A
100
AcDbDictionary
280
0
281
1
  3
Standard
350
22
  0
DICTIONARY
  5
11
330
A
100
AcDbDictionary
280
0
281
1
  0
ACDBDICTIONARYWDFLT
  5
12
330
A
100
AcDbDictionary
280
0
281
1
  3
Normal
350
13
100
AcDbDictionaryWithDefault
340
13
  0
ACDBPLACEHOLDER
  5
13
330
12
  0
DICTIONARY
  5
14
330
A
100
AcDbDictionary
280
0
281
1
  0
DICTIONARY
  5
15
330
A
100
AcDbDictionary
280
0
281
1
  0
DICTIONARY
  5
16
330
A
100
AcDbDictionary
280
0
281
1
  0
LAYOUT
  5
1A
330
D
100
AcDbPlotSettings
  1

  2
Adobe PDF
  4
A3
  6

 40
7.5
 41
20.0
 42
7.5
 43
20.0
 44
420.0
 45
297.0
 46
0.0
 47
0.0
 48
0.0
 49
0.0
140
0.0
141
0.0
142
1.0
143
1.0
 70
1024
 72
1
 73
0
 74
5
  7

 75
16
 76
0
 77
2
 78
300
147
1.0
148
0.0
149
0.0
100
AcDbLayout
  1
Model
 70
1
 71
0
 10
0.0
 20
0.0
 11
420.0
 21
297.0
 12
0.0
 22
0.0
 32
0.0
 14
1e+20
 24
1e+20
 34
1e+20
 15
-1e+20
 25
-1e+20
 35
-1e+20
146
0.0
 13
0.0
 23
0.0
 33
0.0
 16
1.0
 26
0.0
 36
0.0
 17
0.0
 27
1.0
 37
0.0
 76
1
330
17
  0
LAYOUT
  5
1E
330
D
100
AcDbPlotSettings
  1

  2
Adobe PDF
  4
A3
  6

 40
7.5
 41
20.0
 42
7.5
 43
20.0
 44
420.0
 45
297.0
 46
0.0
 47
0.0
 48
0.0
 49
0.0
140
0.0
141
0.0
142
1.0
143
1.0
 70
0
 72
1
 73
0
 74
5
  7

 75
16
 76
0
 77
2
 78
300
147
1.0
148
0.0
149
0.0
100
AcDbLayout
  1
Layout1
 70
1
 71
1
 10
0.0
 20
0.0
 11
420.0
 21
297.0
 12
0.0
 22
0.0
 32
0.0
 14
1e+20
 24
1e+20
 34
1e+20
 15
-1e+20
 25
-1e+20
 35
-1e+20
146
0.0
 13
0.0
 23
0.0
 33
0.0
 16
1.0
 26
0.0
 36
0.0
 17
0.0
 27
1.0
 37
0.0
 76
1
330
1B
  0
MATERIAL
  5
1F
102
{ACAD_REACTORS
330
E
102
}
330
E
100
AcDbMaterial
  1
ByBlock
  2

 70
0
 40
1.0
 71
1
 41
1.0
 91
-1023410177
 42
1.0
 72
1
  3

 73
1
 74
1
 75
1
 44
0.5
 73
0
 45
1.0
 46
1.0
 77
1
  4

 78
1
 79
1
170
1
 48
1.0
171
1
  6

172
1
173
1
174
1
140
1.0
141
1.0
175
1
  7

176
1
177
1
178
1
143
1.0
179
1
  8

270
1
271
1
272
1
145
1.0
146
1.0
273
1
  9

274
1
275
1
276
1
 42
1.0
 72
1
  3

 73
1
 74
1
 75
1
 94
63
  0
MATERIAL
  5
20
102
{ACAD_REACTORS
330
E
102
}
330
E
100
AcDbMaterial
  1
ByLayer
  2

 70
0
 40
1.0
 71
1
 41
1.0
 91
-1023410177
 42
1.0
 72
1
  3

 73
1
 74
1
 75
1
 44
0.5
 73
0
 45
1.0
 46
1.0
 77
1
  4

 78
1
 79
1
170
1
 48
1.0
171
1
  6

172
1
173
1
174
1
140
1.0
141
1.0
175
1
  7

176
1
177
1
178
1
143
1.0
179
1
  8

270
1
271
1
272
1
145
1.0
146
1.0
273
1
  9

274
1
275
1
276
1
 42
1.0
 72
1
  3

 73
1
 74
1
 75
1
 94
63
  0
MATERIAL
  5
21
102
{ACAD_REACTORS
330
E
102
}
330
E
100
AcDbMaterial
  1
Global
  2

 70
0
 40
1.0
 71
1
 41
1.0
 91
-1023410177
 42
1.0
 72
1
  3

 73
1
 74
1
 75
1
 44
0.5
 73
0
 45
1.0
 46
1.0
 77
1
  4

 78
1
 79
1
170
1
 48
1.0
171
1
  6

172
1
173
1
174
1
140
1.0
141
1.0
175
1
  7

176
1
177
1
178
1
143
1.0
179
1
  8

270
1
271
1
272
1
145
1.0
146
1.0
273
1
  9

274
1
275
1
276
1
 42
1.0
 72
1
  3

 73
1
 74
1
 75
1
 94
63
  0
MLINESTYLE
  5
22
102
{ACAD_REACTORS
330
10
102
}
330
10
100
AcDbMlineStyle
  2
Standard
 70
0
  3

 62
256
 51
90.0
 52
90.0
 71
2
 49
0.5
 62
256
  6
BYLAYER
 49
-0.5
 62
256
  6
BYLAYER
  0
MLEADERSTYLE
  5
2C
102
{ACAD_REACTORS
330
F
102
}
330
F
100
AcDbMLeaderStyle
179
2
170
2
171
1
172
0
 90
2
 40
0.0
 41
0.0
173
1
 91
-1056964608
 92
-2
290
1
 42
2.0
291
1
 43
8.0
  3
Standard
 44
4.0
300

342
29
174
1
175
1
176
0
178
1
 93
-1056964608
 45
4.0
292
0
297
0
 46
4.0
 94
-1056964608
 47
1.0
 49
1.0
140
1.0
294
1
141
0.0
177
0
142
1.0
295
0
296
0
143
3.75
271
0
272
9
273
9
  0
DICTIONARY
  5
2D
330
A
100
AcDbDictionary
281
1
  3
CREATED_BY_EZDXF
350
2E
  3
WRITTEN_BY_EZDXF
350
3B
  0
DICTIONARYVAR
  5
2E
330
2D
100
DictionaryVariables
280
0
  1
1.0.3 @ 2025-05-29T09:38:38.114908+00:00
  0
DICTIONARYVAR
  5
3B
330
2D
100
DictionaryVariables
280
0
  1
1.0.3 @ 2025-05-29T09:38:38.117627+00:00
  0
ENDSEC
  0
EOF
