  0
SECTION
  2
HEADER
  9
$ACADVER
  1
AC1027
  9
$ACADMAINTVER
 70
105
  9
$DWGCODEPAGE
  3
ANSI_1252
  9
$LASTSAVEDBY
  1
ezdxf
  9
$REQUIREDVERSIONS
160
0
  9
$INSBASE
 10
0.0
 20
0.0
 30
0.0
  9
$EXTMIN
 10
1e+20
 20
1e+20
 30
1e+20
  9
$EXTMAX
 10
-1e+20
 20
-1e+20
 30
-1e+20
  9
$LIMMIN
 10
0.0
 20
0.0
  9
$LIMMAX
 10
420.0
 20
297.0
  9
$ORTHOMODE
 70
0
  9
$REGENMODE
 70
1
  9
$FILLMODE
 70
1
  9
$QTEXTMODE
 70
0
  9
$MIRRTEXT
 70
1
  9
$LTSCALE
 40
1.0
  9
$ATTMODE
 70
1
  9
$TEXTSIZE
 40
2.5
  9
$TRACEWID
 40
1.0
  9
$TEXTSTYLE
  7
Standard
  9
$CLAYER
  8
0
  9
$CELTYPE
  6
ByLayer
  9
$CECOLOR
 62
256
  9
$CELTSCALE
 40
1.0
  9
$DISPSILH
 70
0
  9
$DIMSCALE
 40
1.0
  9
$DIMASZ
 40
2.5
  9
$DIMEXO
 40
0.625
  9
$DIMDLI
 40
3.75
  9
$DIMRND
 40
0.0
  9
$DIMDLE
 40
0.0
  9
$DIMEXE
 40
1.25
  9
$DIMTP
 40
0.0
  9
$DIMTM
 40
0.0
  9
$DIMTXT
 40
2.5
  9
$DIMCEN
 40
2.5
  9
$DIMTSZ
 40
0.0
  9
$DIMTOL
 70
0
  9
$DIMLIM
 70
0
  9
$DIMTIH
 70
0
  9
$DIMTOH
 70
0
  9
$DIMSE1
 70
0
  9
$DIMSE2
 70
0
  9
$DIMTAD
 70
1
  9
$DIMZIN
 70
8
  9
$DIMBLK
  1

  9
$DIMASO
 70
1
  9
$DIMSHO
 70
1
  9
$DIMPOST
  1

  9
$DIMAPOST
  1

  9
$DIMALT
 70
0
  9
$DIMALTD
 70
3
  9
$DIMALTF
 40
0.03937007874
  9
$DIMLFAC
 40
1.0
  9
$DIMTOFL
 70
1
  9
$DIMTVP
 40
0.0
  9
$DIMTIX
 70
0
  9
$DIMSOXD
 70
0
  9
$DIMSAH
 70
0
  9
$DIMBLK1
  1

  9
$DIMBLK2
  1

  9
$DIMSTYLE
  2
ISO-25
  9
$DIMCLRD
 70
0
  9
$DIMCLRE
 70
0
  9
$DIMCLRT
 70
0
  9
$DIMTFAC
 40
1.0
  9
$DIMGAP
 40
0.625
  9
$DIMJUST
 70
0
  9
$DIMSD1
 70
0
  9
$DIMSD2
 70
0
  9
$DIMTOLJ
 70
0
  9
$DIMTZIN
 70
8
  9
$DIMALTZ
 70
0
  9
$DIMALTTZ
 70
0
  9
$DIMUPT
 70
0
  9
$DIMDEC
 70
2
  9
$DIMTDEC
 70
2
  9
$DIMALTU
 70
2
  9
$DIMALTTD
 70
3
  9
$DIMTXSTY
  7
Standard
  9
$DIMAUNIT
 70
0
  9
$DIMADEC
 70
0
  9
$DIMALTRND
 40
0.0
  9
$DIMAZIN
 70
0
  9
$DIMDSEP
 70
44
  9
$DIMATFIT
 70
3
  9
$DIMFRAC
 70
0
  9
$DIMLDRBLK
  1

  9
$DIMLUNIT
 70
2
  9
$DIMLWD
 70
-2
  9
$DIMLWE
 70
-2
  9
$DIMTMOVE
 70
0
  9
$DIMFXL
 40
1.0
  9
$DIMFXLON
 70
0
  9
$DIMJOGANG
 40
0.785398163397
  9
$DIMTFILL
 70
0
  9
$DIMTFILLCLR
 70
0
  9
$DIMARCSYM
 70
0
  9
$DIMLTYPE
  6

  9
$DIMLTEX1
  6

  9
$DIMLTEX2
  6

  9
$DIMTXTDIRECTION
 70
0
  9
$LUNITS
 70
2
  9
$LUPREC
 70
4
  9
$SKETCHINC
 40
1.0
  9
$FILLETRAD
 40
10.0
  9
$AUNITS
 70
0
  9
$AUPREC
 70
2
  9
$MENU
  1
.
  9
$ELEVATION
 40
0.0
  9
$PELEVATION
 40
0.0
  9
$THICKNESS
 40
0.0
  9
$LIMCHECK
 70
0
  9
$CHAMFERA
 40
0.0
  9
$CHAMFERB
 40
0.0
  9
$CHAMFERC
 40
0.0
  9
$CHAMFERD
 40
0.0
  9
$SKPOLY
 70
0
  9
$TDCREATE
 40
2460825.776898148
  9
$TDUCREATE
 40
2458532.153996898
  9
$TDUPDATE
 40
2460825.776898148
  9
$TDUUPDATE
 40
2458532.1544311
  9
$TDINDWG
 40
0.0
  9
$TDUSRTIMER
 40
0.0
  9
$USRTIMER
 70
1
  9
$ANGBASE
 50
0.0
  9
$ANGDIR
 70
0
  9
$PDMODE
 70
0
  9
$PDSIZE
 40
0.0
  9
$PLINEWID
 40
0.0
  9
$SPLFRAME
 70
0
  9
$SPLINETYPE
 70
6
  9
$SPLINESEGS
 70
8
  9
$HANDSEED
  5
40
  9
$SURFTAB1
 70
6
  9
$SURFTAB2
 70
6
  9
$SURFTYPE
 70
6
  9
$SURFU
 70
6
  9
$SURFV
 70
6
  9
$UCSBASE
  2

  9
$UCSNAME
  2

  9
$UCSORG
 10
0.0
 20
0.0
 30
0.0
  9
$UCSXDIR
 10
1.0
 20
0.0
 30
0.0
  9
$UCSYDIR
 10
0.0
 20
1.0
 30
0.0
  9
$UCSORTHOREF
  2

  9
$UCSORTHOVIEW
 70
0
  9
$UCSORGTOP
 10
0.0
 20
0.0
 30
0.0
  9
$UCSORGBOTTOM
 10
0.0
 20
0.0
 30
0.0
  9
$UCSORGLEFT
 10
0.0
 20
0.0
 30
0.0
  9
$UCSORGRIGHT
 10
0.0
 20
0.0
 30
0.0
  9
$UCSORGFRONT
 10
0.0
 20
0.0
 30
0.0
  9
$UCSORGBACK
 10
0.0
 20
0.0
 30
0.0
  9
$PUCSBASE
  2

  9
$PUCSNAME
  2

  9
$PUCSORG
 10
0.0
 20
0.0
 30
0.0
  9
$PUCSXDIR
 10
1.0
 20
0.0
 30
0.0
  9
$PUCSYDIR
 10
0.0
 20
1.0
 30
0.0
  9
$PUCSORTHOREF
  2

  9
$PUCSORTHOVIEW
 70
0
  9
$PUCSORGTOP
 10
0.0
 20
0.0
 30
0.0
  9
$PUCSORGBOTTOM
 10
0.0
 20
0.0
 30
0.0
  9
$PUCSORGLEFT
 10
0.0
 20
0.0
 30
0.0
  9
$PUCSORGRIGHT
 10
0.0
 20
0.0
 30
0.0
  9
$PUCSORGFRONT
 10
0.0
 20
0.0
 30
0.0
  9
$PUCSORGBACK
 10
0.0
 20
0.0
 30
0.0
  9
$USERI1
 70
0
  9
$USERI2
 70
0
  9
$USERI3
 70
0
  9
$USERI4
 70
0
  9
$USERI5
 70
0
  9
$USERR1
 40
0.0
  9
$USERR2
 40
0.0
  9
$USERR3
 40
0.0
  9
$USERR4
 40
0.0
  9
$USERR5
 40
0.0
  9
$WORLDVIEW
 70
1
  9
$SHADEDGE
 70
3
  9
$SHADEDIF
 70
70
  9
$TILEMODE
 70
1
  9
$MAXACTVP
 70
64
  9
$PINSBASE
 10
0.0
 20
0.0
 30
0.0
  9
$PLIMCHECK
 70
0
  9
$PEXTMIN
 10
1e+20
 20
1e+20
 30
1e+20
  9
$PEXTMAX
 10
-1e+20
 20
-1e+20
 30
-1e+20
  9
$PLIMMIN
 10
0.0
 20
0.0
  9
$PLIMMAX
 10
420.0
 20
297.0
  9
$UNITMODE
 70
0
  9
$VISRETAIN
 70
1
  9
$PLINEGEN
 70
0
  9
$PSLTSCALE
 70
1
  9
$TREEDEPTH
 70
3020
  9
$CMLSTYLE
  2
Standard
  9
$CMLJUST
 70
0
  9
$CMLSCALE
 40
20.0
  9
$PROXYGRAPHICS
 70
1
  9
$MEASUREMENT
 70
1
  9
$CELWEIGHT
370
-1
  9
$ENDCAPS
280
0
  9
$JOINSTYLE
280
0
  9
$LWDISPLAY
290
0
  9
$INSUNITS
 70
6
  9
$HYPERLINKBASE
  1

  9
$STYLESHEET
  1

  9
$XEDIT
290
1
  9
$CEPSNTYPE
380
0
  9
$PSTYLEMODE
290
1
  9
$FINGERPRINTGUID
  2
{9320F2CF-A189-446B-828D-4CD22A8FF5FB}
  9
$VERSIONGUID
  2
{451AFC58-F9F7-4AAA-9E7E-E788775FAC5E}
  9
$EXTNAMES
290
1
  9
$PSVPSCALE
 40
0.0
  9
$OLESTARTUP
290
0
  9
$SORTENTS
280
127
  9
$INDEXCTL
280
0
  9
$HIDETEXT
280
1
  9
$XCLIPFRAME
280
0
  9
$HALOGAP
280
0
  9
$OBSCOLOR
 70
257
  9
$OBSLTYPE
280
0
  9
$INTERSECTIONDISPLAY
280
0
  9
$INTERSECTIONCOLOR
 70
257
  9
$DIMASSOC
280
2
  9
$PROJECTNAME
  1

  9
$CAMERADISPLAY
290
0
  9
$LENSLENGTH
 40
50.0
  9
$CAMERAHEIGHT
 40
0.0
  9
$STEPSPERSEC
 40
24.0
  9
$STEPSIZE
 40
100.0
  9
$3DDWFPREC
 40
2.0
  9
$PSOLWIDTH
 40
0.005
  9
$PSOLHEIGHT
 40
0.08
  9
$LOFTANG1
 40
1.570796326795
  9
$LOFTANG2
 40
1.570796326795
  9
$LOFTMAG1
 40
0.0
  9
$LOFTMAG2
 40
0.0
  9
$LOFTPARAM
 70
7
  9
$LOFTNORMALS
280
1
  9
$LATITUDE
 40
37.795
  9
$LONGITUDE
 40
-122.394
  9
$NORTHDIRECTION
 40
0.0
  9
$TIMEZONE
 70
-8000
  9
$LIGHTGLYPHDISPLAY
280
1
  9
$TILEMODELIGHTSYNCH
280
1
  9
$CMATERIAL
347
20
  9
$SOLIDHIST
280
0
  9
$SHOWHIST
280
1
  9
$DWFFRAME
280
2
  9
$DGNFRAME
280
2
  9
$REALWORLDSCALE
290
1
  9
$INTERFERECOLOR
 62
256
  9
$CSHADOW
280
0
  9
$SHADOWPLANELOCATION
 40
0.0
  0
ENDSEC
  0
SECTION
  2
CLASSES
  0
CLASS
  1
ACDBDICTIONARYWDFLT
  2
AcDbDictionaryWithDefault
  3
ObjectDBX Classes
 90
0
 91
0
280
0
281
0
  0
CLASS
  1
SUN
  2
AcDbSun
  3
SCENEOE
 90
1153
 91
0
280
0
281
0
  0
CLASS
  1
VISUALSTYLE
  2
AcDbVisualStyle
  3
ObjectDBX Classes
 90
4095
 91
0
280
0
281
0
  0
CLASS
  1
MATERIAL
  2
AcDbMaterial
  3
ObjectDBX Classes
 90
1153
 91
0
280
0
281
0
  0
CLASS
  1
SCALE
  2
AcDbScale
  3
ObjectDBX Classes
 90
1153
 91
0
280
0
281
0
  0
CLASS
  1
TABLESTYLE
  2
AcDbTableStyle
  3
ObjectDBX Classes
 90
4095
 91
0
280
0
281
0
  0
CLASS
  1
MLEADERSTYLE
  2
AcDbMLeaderStyle
  3
ACDB_MLEADERSTYLE_CLASS
 90
4095
 91
0
280
0
281
0
  0
CLASS
  1
DICTIONARYVAR
  2
AcDbDictionaryVar
  3
ObjectDBX Classes
 90
0
 91
0
280
0
281
0
  0
CLASS
  1
CELLSTYLEMAP
  2
AcDbCellStyleMap
  3
ObjectDBX Classes
 90
1152
 91
0
280
0
281
0
  0
CLASS
  1
MENTALRAYRENDERSETTINGS
  2
AcDbMentalRayRenderSettings
  3
SCENEOE
 90
1024
 91
0
280
0
281
0
  0
CLASS
  1
ACDBDETAILVIEWSTYLE
  2
AcDbDetailViewStyle
  3
ObjectDBX Classes
 90
1025
 91
0
280
0
281
0
  0
CLASS
  1
ACDBSECTIONVIEWSTYLE
  2
AcDbSectionViewStyle
  3
ObjectDBX Classes
 90
1025
 91
0
280
0
281
0
  0
CLASS
  1
RASTERVARIABLES
  2
AcDbRasterVariables
  3
ISM
 90
0
 91
0
280
0
281
0
  0
CLASS
  1
LAYOUT
  2
AcDbLayout
  3
ObjectDBX Classes
 90
0
 91
0
280
0
281
0
  0
CLASS
  1
ACDBPLACEHOLDER
  2
AcDbPlaceHolder
  3
ObjectDBX Classes
 90
0
 91
0
280
0
281
0
  0
ENDSEC
  0
SECTION
  2
TABLES
  0
TABLE
  2
VPORT
  5
8
330
0
100
AcDbSymbolTable
 70
1
  0
VPORT
  5
23
330
8
100
AcDbSymbolTableRecord
100
AcDbViewportTableRecord
  2
*Active
 70
0
 10
0.0
 20
0.0
 11
1.0
 21
1.0
 12
0.0
 22
0.0
 13
0.0
 23
0.0
 14
0.5
 24
0.5
 15
0.5
 25
0.5
 16
0.0
 26
0.0
 36
1.0
 17
0.0
 27
0.0
 37
0.0
 40
1000.0
 41
1.34
 42
50.0
 43
0.0
 44
0.0
 50
0.0
 51
0.0
 71
0
 72
1000
 73
1
 74
3
 75
0
 76
0
 77
0
 78
0
281
0
 65
0
146
0.0
  0
ENDTAB
  0
TABLE
  2
LTYPE
  5
2
330
0
100
AcDbSymbolTable
 70
3
  0
LTYPE
  5
24
330
2
100
AcDbSymbolTableRecord
100
AcDbLinetypeTableRecord
  2
ByBlock
 70
0
  3

 72
65
 73
0
 40
0.0
  0
LTYPE
  5
25
330
2
100
AcDbSymbolTableRecord
100
AcDbLinetypeTableRecord
  2
ByLayer
 70
0
  3

 72
65
 73
0
 40
0.0
  0
LTYPE
  5
26
330
2
100
AcDbSymbolTableRecord
100
AcDbLinetypeTableRecord
  2
Continuous
 70
0
  3

 72
65
 73
0
 40
0.0
  0
ENDTAB
  0
TABLE
  2
LAYER
  5
1
330
0
100
AcDbSymbolTable
 70
2
  0
LAYER
  5
27
330
1
100
AcDbSymbolTableRecord
100
AcDbLayerTableRecord
  2
0
 70
0
 62
7
  6
Continuous
370
-3
390
13
347
21
  0
LAYER
  5
28
330
1
100
AcDbSymbolTableRecord
100
AcDbLayerTableRecord
  2
Defpoints
 70
0
 62
7
  6
Continuous
290
0
370
-3
390
13
347
21
  0
ENDTAB
  0
TABLE
  2
STYLE
  5
5
330
0
100
AcDbSymbolTable
 70
1
  0
STYLE
  5
29
330
5
100
AcDbSymbolTableRecord
100
AcDbTextStyleTableRecord
  2
Standard
 70
0
 40
0.0
 41
1.0
 50
0.0
 71
0
 42
2.5
  3
txt
  4

  0
ENDTAB
  0
TABLE
  2
VIEW
  5
7
330
0
100
AcDbSymbolTable
 70
0
  0
ENDTAB
  0
TABLE
  2
UCS
  5
6
330
0
100
AcDbSymbolTable
 70
0
  0
ENDTAB
  0
TABLE
  2
APPID
  5
3
330
0
100
AcDbSymbolTable
 70
3
  0
APPID
  5
2A
330
3
100
AcDbSymbolTableRecord
100
AcDbRegAppTableRecord
  2
ACAD
 70
0
  0
APPID
  5
3D
330
3
100
AcDbSymbolTableRecord
100
AcDbRegAppTableRecord
  2
HATCHBACKGROUNDCOLOR
 70
0
  0
APPID
  5
3E
330
3
100
AcDbSymbolTableRecord
100
AcDbRegAppTableRecord
  2
EZDXF
 70
0
  0
ENDTAB
  0
TABLE
  2
DIMSTYLE
  5
4
330
0
100
AcDbSymbolTable
 70
1
100
AcDbDimStyleTable
  0
DIMSTYLE
105
2B
330
4
100
AcDbSymbolTableRecord
100
AcDbDimStyleTableRecord
  2
Standard
 70
0
 40
1.0
 41
2.5
 42
0.625
 43
3.75
 44
1.25
 45
0.0
 46
0.0
 47
0.0
 48
0.0
 49
2.5
140
2.5
141
2.5
142
0.0
143
0.03937007874
144
1.0
145
0.0
146
1.0
147
0.625
148
0.0
 69
0
 70
0
 71
0
 72
0
 73
0
 74
0
 75
0
 76
0
 77
1
 78
8
 79
3
170
0
171
3
172
1
173
0
174
0
175
0
176
0
177
0
178
0
179
2
271
2
272
2
273
2
274
3
275
0
276
0
277
2
278
44
279
0
280
0
281
0
282
0
283
0
284
8
285
0
286
0
288
0
289
3
290
0
371
-2
372
-2
  0
ENDTAB
  0
TABLE
  2
BLOCK_RECORD
  5
9
330
0
100
AcDbSymbolTable
 70
2
  0
BLOCK_RECORD
  5
17
330
9
100
AcDbSymbolTableRecord
100
AcDbBlockTableRecord
  2
*Model_Space
340
1A
 70
0
280
1
281
0
  0
BLOCK_RECORD
  5
1B
330
9
100
AcDbSymbolTableRecord
100
AcDbBlockTableRecord
  2
*Paper_Space
340
1E
 70
0
280
1
281
0
  0
ENDTAB
  0
ENDSEC
  0
SECTION
  2
BLOCKS
  0
BLOCK
  5
18
330
17
100
AcDbEntity
  8
0
100
AcDbBlockBegin
  2
*Model_Space
 70
0
 10
0.0
 20
0.0
 30
0.0
  3
*Model_Space
  1

  0
ENDBLK
  5
19
330
17
100
AcDbEntity
  8
0
100
AcDbBlockEnd
  0
BLOCK
  5
1C
330
1B
100
AcDbEntity
  8
0
100
AcDbBlockBegin
  2
*Paper_Space
 70
0
 10
0.0
 20
0.0
 30
0.0
  3
*Paper_Space
  1

  0
ENDBLK
  5
1D
330
1B
100
AcDbEntity
  8
0
100
AcDbBlockEnd
  0
ENDSEC
  0
SECTION
  2
ENTITIES
  0
LWPOLYLINE
  5
2F
330
17
100
AcDbEntity
  8
0
100
AcDbPolyline
 90
51
 70
0
 10
-8.5
 20
-5.000000000000011
 10
-8.5
 20
-4.900000000000009
 10
-8.5
 20
-4.800000000000011
 10
-8.5
 20
-4.70000000000001
 10
-8.5
 20
-4.6000000000000085
 10
-8.5
 20
-4.500000000000011
 10
-8.5
 20
-4.400000000000009
 10
-8.5
 20
-4.300000000000008
 10
-8.5
 20
-4.20000000000001
 10
-8.5
 20
-4.1000000000000085
 10
-8.5
 20
-4.000000000000007
 10
-8.5
 20
-3.9000000000000092
 10
-8.5
 20
-3.800000000000008
 10
-8.5
 20
-3.7000000000000064
 10
-8.5
 20
-3.6000000000000085
 10
-8.5
 20
-3.500000000000007
 10
-8.5
 20
-3.4000000000000057
 10
-8.5
 20
-3.300000000000008
 10
-8.5
 20
-3.2000000000000064
 10
-8.5
 20
-3.1000000000000085
 10
-8.5
 20
-3.000000000000007
 10
-8.5
 20
-2.9000000000000057
 10
-8.5
 20
-2.8000000000000043
 10
-8.5
 20
-2.7000000000000064
 10
-8.5
 20
-2.600000000000005
 10
-8.5
 20
-2.500000000000007
 10
-8.5
 20
-2.4000000000000057
 10
-8.5
 20
-2.3000000000000043
 10
-8.5
 20
-2.2000000000000064
 10
-8.5
 20
-2.100000000000005
 10
-8.5
 20
-2.0000000000000036
 10
-8.5
 20
-1.9000000000000057
 10
-8.5
 20
-1.8000000000000043
 10
-8.5
 20
-1.7000000000000028
 10
-8.5
 20
-1.6000000000000014
 10
-8.5
 20
-1.5000000000000036
 10
-8.5
 20
-1.4000000000000021
 10
-8.5
 20
-1.3000000000000043
 10
-8.5
 20
-1.2000000000000028
 10
-8.5
 20
-1.1000000000000014
 10
-8.5
 20
-1.0
 10
-8.5
 20
-0.9000000000000021
 10
-8.5
 20
-0.8000000000000007
 10
-8.5
 20
-0.7000000000000028
 10
-8.5
 20
-0.6000000000000014
 10
-8.5
 20
-0.5
 10
-8.5
 20
-0.40000000000000213
 10
-8.5
 20
-0.3000000000000007
 10
-8.5
 20
-0.1999999999999993
 10
-8.5
 20
-0.10000000000000142
 10
-8.5
 20
0.0
  0
LWPOLYLINE
  5
30
330
17
100
AcDbEntity
  8
0
100
AcDbPolyline
 90
51
 70
0
 10
5.5
 20
-5.0
 10
5.5
 20
-4.899999999999999
 10
5.5
 20
-4.800000000000001
 10
5.5
 20
-4.699999999999999
 10
5.5
 20
-4.600000000000001
 10
5.5
 20
-4.5
 10
5.5
 20
-4.399999999999999
 10
5.5
 20
-4.300000000000001
 10
5.5
 20
-4.199999999999999
 10
5.5
 20
-4.100000000000001
 10
5.5
 20
-4.0
 10
5.5
 20
-3.8999999999999986
 10
5.5
 20
-3.8000000000000007
 10
5.5
 20
-3.6999999999999993
 10
5.5
 20
-3.6000000000000014
 10
5.5
 20
-3.5
 10
5.5
 20
-3.3999999999999986
 10
5.5
 20
-3.3000000000000007
 10
5.5
 20
-3.1999999999999993
 10
5.5
 20
-3.1000000000000014
 10
5.5
 20
-3.0
 10
5.5
 20
-2.8999999999999986
 10
5.5
 20
-2.8000000000000007
 10
5.5
 20
-2.6999999999999993
 10
5.5
 20
-2.6000000000000014
 10
5.5
 20
-2.5
 10
5.5
 20
-2.3999999999999986
 10
5.5
 20
-2.3000000000000007
 10
5.5
 20
-2.1999999999999993
 10
5.5
 20
-2.1000000000000014
 10
5.5
 20
-2.0
 10
5.5
 20
-1.8999999999999986
 10
5.5
 20
-1.8000000000000007
 10
5.5
 20
-1.6999999999999993
 10
5.5
 20
-1.6000000000000014
 10
5.5
 20
-1.5
 10
5.5
 20
-1.3999999999999986
 10
5.5
 20
-1.3000000000000007
 10
5.5
 20
-1.1999999999999993
 10
5.5
 20
-1.1000000000000014
 10
5.5
 20
-1.0
 10
5.5
 20
-0.8999999999999986
 10
5.5
 20
-0.8000000000000007
 10
5.5
 20
-0.6999999999999993
 10
5.5
 20
-0.6000000000000014
 10
5.5
 20
-0.5
 10
5.5
 20
-0.3999999999999986
 10
5.5
 20
-0.3000000000000007
 10
5.5
 20
-0.1999999999999993
 10
5.5
 20
-0.10000000000000142
 10
5.5
 20
0.0
  0
LWPOLYLINE
  5
31
330
17
100
AcDbEntity
  8
0
100
AcDbPolyline
 90
51
 70
0
 10
-8.5
 20
-5.000000000000003
 10
-8.450858707876375
 20
-5.000000000000003
 10
-8.40171741575275
 20
-5.000000000000003
 10
-8.352576123629124
 20
-5.000000000000003
 10
-8.262369788078066
 20
-5.000000000000003
 10
-8.117410061290434
 20
-5.000000000000003
 10
-7.9724503345028
 20
-5.000000000000002
 10
-7.827490607715167
 20
-5.000000000000002
 10
-7.60663126778716
 20
-5.000000000000002
 10
-7.373121992335757
 20
-5.000000000000002
 10
-7.139612716884354
 20
-5.000000000000002
 10
-6.884149036135003
 20
-5.000000000000002
 10
-6.5737993421407825
 20
-5.000000000000002
 10
-6.263449648146562
 20
-5.000000000000002
 10
-5.953099954152341
 20
-5.000000000000002
 10
-5.59898012517349
 20
-5.000000000000002
 10
-5.227352242200785
 20
-5.000000000000002
 10
-4.8557243592280805
 20
-5.000000000000001
 10
-4.478004588377758
 20
-5.000000000000001
 10
-4.063733490261722
 20
-5.000000000000001
 10
-3.6494623921456837
 20
-5.000000000000001
 10
-3.2351912940296454
 20
-5.000000000000001
 10
-2.8084230916631294
 20
-5.000000000000001
 10
-2.372282061108754
 20
-5.000000000000001
 10
-1.9361410305543771
 20
-5.0
 10
-1.5000000000000004
 20
-5.0
 10
-1.0638589694456235
 20
-5.0
 10
-0.6277179388912483
 20
-4.999999999999999
 10
-0.19157690833687147
 20
-4.999999999999999
 10
0.235191294029646
 20
-4.999999999999999
 10
0.6494623921456815
 20
-4.999999999999999
 10
1.0637334902617197
 20
-4.999999999999999
 10
1.4780045883777595
 20
-4.999999999999999
 10
1.8557243592280828
 20
-4.999999999999999
 10
2.227352242200787
 20
-4.999999999999998
 10
2.598980125173489
 20
-4.999999999999998
 10
2.9530999541523406
 20
-4.999999999999998
 10
3.263449648146562
 20
-4.999999999999998
 10
3.5737993421407808
 20
-4.999999999999998
 10
3.8841490361350015
 20
-4.999999999999998
 10
4.139612716884353
 20
-4.999999999999998
 10
4.373121992335755
 20
-4.999999999999998
 10
4.60663126778716
 20
-4.999999999999998
 10
4.827490607715166
 20
-4.999999999999998
 10
4.972450334502799
 20
-4.999999999999998
 10
5.117410061290433
 20
-4.999999999999997
 10
5.262369788078065
 20
-4.999999999999997
 10
5.352576123629123
 20
-4.999999999999997
 10
5.401717415752748
 20
-4.999999999999997
 10
5.450858707876375
 20
-4.999999999999997
 10
5.5
 20
-4.999999999999997
  0
LWPOLYLINE
  5
32
330
17
100
AcDbEntity
  8
0
100
AcDbPolyline
 90
51
 70
0
 10
5.5
 20
0.0
 10
5.450858707876375
 20
0.0
 10
5.401717415752748
 20
0.0
 10
5.352576123629123
 20
0.0
 10
5.262369788078065
 20
0.0
 10
5.117410061290434
 20
0.0
 10
4.972450334502802
 20
0.0
 10
4.827490607715168
 20
0.0
 10
4.6066312677871615
 20
0.0
 10
4.373121992335756
 20
0.0
 10
4.139612716884354
 20
0.0
 10
3.884149036135005
 20
0.0
 10
3.5737993421407817
 20
0.0
 10
3.263449648146563
 20
0.0
 10
2.95309995415234
 20
0.0
 10
2.5989801251734908
 20
0.0
 10
2.227352242200789
 20
0.0
 10
1.855724359228082
 20
0.0
 10
1.4780045883777615
 20
0.0
 10
1.0637334902617206
 20
0.0
 10
0.6494623921456851
 20
0.0
 10
0.2351912940296499
 20
0.0
 10
-0.19157690833687033
 20
0.0
 10
-0.6277179388912442
 20
0.0
 10
-1.0638589694456242
 20
0.0
 10
-1.4999999999999978
 20
0.0
 10
-1.9361410305543716
 20
0.0
 10
-2.3722820611087516
 20
0.0
 10
-2.8084230916631254
 20
0.0
 10
-3.2351912940296454
 20
0.0
 10
-3.649462392145681
 20
0.0
 10
-4.063733490261717
 20
0.0
 10
-4.4780045883777575
 20
0.0
 10
-4.855724359228084
 20
0.0
 10
-5.227352242200785
 20
0.0
 10
-5.5989801251734885
 20
0.0
 10
-5.9530999541523375
 20
0.0
 10
-6.263449648146561
 20
0.0
 10
-6.57379934214078
 20
0.0
 10
-6.884149036135003
 20
0.0
 10
-7.139612716884352
 20
0.0
 10
-7.373121992335754
 20
0.0
 10
-7.60663126778716
 20
0.0
 10
-7.827490607715166
 20
0.0
 10
-7.9724503345028
 20
0.0
 10
-8.117410061290432
 20
0.0
 10
-8.262369788078065
 20
0.0
 10
-8.352576123629124
 20
0.0
 10
-8.40171741575275
 20
0.0
 10
-8.450858707876375
 20
0.0
 10
-8.5
 20
0.0
  0
LWPOLYLINE
  5
33
330
17
100
AcDbEntity
  8
0
100
AcDbPolyline
 90
51
 70
0
 10
33.5
 20
-22.0
 10
33.5
 20
-21.56
 10
33.5
 20
-21.12
 10
33.5
 20
-20.68
 10
33.5
 20
-20.24
 10
33.5
 20
-19.8
 10
33.5
 20
-19.36
 10
33.5
 20
-18.92
 10
33.5
 20
-18.48
 10
33.5
 20
-18.04
 10
33.5
 20
-17.6
 10
33.5
 20
-17.16
 10
33.5
 20
-16.72
 10
33.5
 20
-16.28
 10
33.5
 20
-15.84
 10
33.5
 20
-15.4
 10
33.5
 20
-14.96
 10
33.5
 20
-14.52
 10
33.5
 20
-14.08
 10
33.5
 20
-13.64
 10
33.5
 20
-13.2
 10
33.5
 20
-12.76
 10
33.5
 20
-12.32
 10
33.5
 20
-11.88
 10
33.5
 20
-11.44
 10
33.5
 20
-11.0
 10
33.5
 20
-10.56
 10
33.5
 20
-10.12
 10
33.5
 20
-9.68
 10
33.5
 20
-9.24
 10
33.5
 20
-8.8
 10
33.5
 20
-8.36
 10
33.5
 20
-7.92
 10
33.5
 20
-7.48
 10
33.5
 20
-7.039999999999999
 10
33.5
 20
-6.6
 10
33.5
 20
-6.16
 10
33.5
 20
-5.719999999999999
 10
33.5
 20
-5.280000000000001
 10
33.5
 20
-4.84
 10
33.5
 20
-4.399999999999999
 10
33.5
 20
-3.960000000000001
 10
33.5
 20
-3.5199999999999996
 10
33.5
 20
-3.0799999999999983
 10
33.5
 20
-2.6400000000000006
 10
33.5
 20
-2.1999999999999993
 10
33.5
 20
-1.7600000000000016
 10
33.5
 20
-1.3200000000000003
 10
33.5
 20
-0.879999999999999
 10
33.5
 20
-0.4400000000000013
 10
33.5
 20
0.0
  0
LWPOLYLINE
  5
34
330
17
100
AcDbEntity
  8
0
100
AcDbPolyline
 90
51
 70
0
 10
5.5
 20
-5.000000000000007
 10
5.789999999999999
 20
-5.000000000000007
 10
6.079999999999998
 20
-5.000000000000006
 10
6.370000000000001
 20
-5.000000000000006
 10
6.66
 20
-5.000000000000006
 10
6.949999999999999
 20
-5.000000000000006
 10
7.239999999999998
 20
-5.000000000000006
 10
7.530000000000001
 20
-5.000000000000006
 10
7.82
 20
-5.000000000000006
 10
8.11
 20
-5.000000000000006
 10
8.399999999999999
 20
-5.000000000000005
 10
8.690000000000001
 20
-5.000000000000005
 10
8.98
 20
-5.000000000000005
 10
9.27
 20
-5.000000000000005
 10
9.559999999999999
 20
-5.000000000000005
 10
9.85
 20
-5.000000000000005
 10
10.14
 20
-5.000000000000005
 10
10.43
 20
-5.000000000000005
 10
10.719999999999999
 20
-5.000000000000005
 10
11.01
 20
-5.000000000000004
 10
11.3
 20
-5.000000000000004
 10
11.59
 20
-5.000000000000004
 10
11.879999999999999
 20
-5.000000000000004
 10
12.17
 20
-5.000000000000004
 10
12.46
 20
-5.000000000000004
 10
12.75
 20
-5.000000000000004
 10
13.04
 20
-5.000000000000004
 10
13.33
 20
-5.000000000000004
 10
13.62
 20
-5.0000000000000036
 10
13.91
 20
-5.0000000000000036
 10
14.2
 20
-5.0000000000000036
 10
14.49
 20
-5.0000000000000036
 10
14.78
 20
-5.0000000000000036
 10
15.07
 20
-5.0000000000000036
 10
15.36
 20
-5.0000000000000036
 10
15.65
 20
-5.0000000000000036
 10
15.94
 20
-5.0000000000000036
 10
16.23
 20
-5.000000000000003
 10
16.52
 20
-5.000000000000003
 10
16.810000000000002
 20
-5.000000000000003
 10
17.1
 20
-5.000000000000003
 10
17.39
 20
-5.000000000000003
 10
17.68
 20
-5.000000000000003
 10
17.97
 20
-5.000000000000003
 10
18.259999999999998
 20
-5.000000000000003
 10
18.55
 20
-5.000000000000003
 10
18.84
 20
-5.000000000000002
 10
19.130000000000003
 20
-5.000000000000002
 10
19.42
 20
-5.000000000000002
 10
19.71
 20
-5.000000000000002
 10
20.0
 20
-5.000000000000002
  0
LWPOLYLINE
  5
35
330
17
100
AcDbEntity
  8
0
100
AcDbPolyline
 90
51
 70
0
 10
20.0
 20
-5.0
 10
20.0
 20
-5.239999999999998
 10
20.0
 20
-5.48
 10
20.0
 20
-5.719999999999999
 10
20.0
 20
-5.960000000000001
 10
20.0
 20
-6.199999999999999
 10
20.0
 20
-6.4399999999999995
 10
20.0
 20
-6.68
 10
20.0
 20
-6.92
 10
20.0
 20
-7.16
 10
20.0
 20
-7.4
 10
20.0
 20
-7.640000000000001
 10
20.0
 20
-7.879999999999999
 10
20.0
 20
-8.120000000000001
 10
20.0
 20
-8.36
 10
20.0
 20
-8.6
 10
20.0
 20
-8.84
 10
20.0
 20
-9.08
 10
20.0
 20
-9.32
 10
20.0
 20
-9.559999999999999
 10
20.0
 20
-9.8
 10
20.0
 20
-10.04
 10
20.0
 20
-10.280000000000001
 10
20.0
 20
-10.52
 10
20.0
 20
-10.76
 10
20.0
 20
-11.0
 10
20.0
 20
-11.24
 10
20.0
 20
-11.48
 10
20.0
 20
-11.719999999999999
 10
20.0
 20
-11.96
 10
20.0
 20
-12.2
 10
20.0
 20
-12.440000000000001
 10
20.0
 20
-12.68
 10
20.0
 20
-12.92
 10
20.0
 20
-13.16
 10
20.0
 20
-13.4
 10
20.0
 20
-13.64
 10
20.0
 20
-13.88
 10
20.0
 20
-14.12
 10
20.0
 20
-14.36
 10
20.0
 20
-14.6
 10
20.0
 20
-14.84
 10
20.0
 20
-15.08
 10
20.0
 20
-15.32
 10
20.0
 20
-15.56
 10
20.0
 20
-15.8
 10
20.0
 20
-16.04
 10
20.0
 20
-16.28
 10
20.0
 20
-16.52
 10
20.0
 20
-16.759999999999998
 10
20.0
 20
-17.0
  0
LWPOLYLINE
  5
36
330
17
100
AcDbEntity
  8
0
100
AcDbPolyline
 90
51
 70
0
 10
20.0
 20
-16.999999999999996
 10
19.71
 20
-16.999999999999996
 10
19.42
 20
-16.999999999999996
 10
19.13
 20
-16.999999999999996
 10
18.84
 20
-16.999999999999996
 10
18.55
 20
-16.999999999999996
 10
18.259999999999998
 20
-16.999999999999996
 10
17.97
 20
-16.999999999999996
 10
17.68
 20
-16.999999999999996
 10
17.39
 20
-16.999999999999996
 10
17.1
 20
-16.999999999999996
 10
16.810000000000002
 20
-16.999999999999996
 10
16.52
 20
-16.999999999999996
 10
16.23
 20
-16.999999999999996
 10
15.940000000000001
 20
-16.999999999999996
 10
15.65
 20
-16.999999999999996
 10
15.36
 20
-16.999999999999996
 10
15.07
 20
-16.999999999999996
 10
14.780000000000001
 20
-16.999999999999996
 10
14.49
 20
-16.999999999999993
 10
14.2
 20
-16.999999999999993
 10
13.91
 20
-16.999999999999993
 10
13.620000000000001
 20
-16.999999999999993
 10
13.33
 20
-16.999999999999993
 10
13.04
 20
-16.999999999999993
 10
12.75
 20
-16.999999999999993
 10
12.46
 20
-16.999999999999993
 10
12.17
 20
-16.999999999999993
 10
11.88
 20
-16.999999999999993
 10
11.59
 20
-16.999999999999993
 10
11.3
 20
-16.999999999999993
 10
11.01
 20
-16.999999999999993
 10
10.72
 20
-16.999999999999993
 10
10.43
 20
-16.999999999999993
 10
10.14
 20
-16.999999999999993
 10
9.85
 20
-16.999999999999993
 10
9.56
 20
-16.999999999999993
 10
9.27
 20
-16.999999999999993
 10
8.98
 20
-16.999999999999993
 10
8.689999999999998
 20
-16.999999999999993
 10
8.399999999999999
 20
-16.999999999999993
 10
8.11
 20
-16.999999999999993
 10
7.82
 20
-16.99999999999999
 10
7.530000000000001
 20
-16.99999999999999
 10
7.240000000000002
 20
-16.99999999999999
 10
6.949999999999999
 20
-16.99999999999999
 10
6.66
 20
-16.99999999999999
 10
6.369999999999997
 20
-16.99999999999999
 10
6.079999999999998
 20
-16.99999999999999
 10
5.789999999999999
 20
-16.99999999999999
 10
5.5
 20
-16.99999999999999
  0
LWPOLYLINE
  5
37
330
17
100
AcDbEntity
  8
0
100
AcDbPolyline
 90
51
 70
0
 10
33.5
 20
-22.0
 10
32.94
 20
-22.0
 10
32.38
 20
-22.0
 10
31.82
 20
-22.0
 10
31.259999999999998
 20
-22.0
 10
30.7
 20
-22.0
 10
30.14
 20
-22.0
 10
29.58
 20
-22.0
 10
29.02
 20
-22.0
 10
28.46
 20
-22.0
 10
27.9
 20
-22.0
 10
27.34
 20
-22.0
 10
26.78
 20
-22.0
 10
26.22
 20
-22.0
 10
25.66
 20
-22.0
 10
25.1
 20
-22.0
 10
24.54
 20
-22.0
 10
23.98
 20
-22.0
 10
23.42
 20
-22.0
 10
22.86
 20
-22.0
 10
22.3
 20
-22.0
 10
21.740000000000002
 20
-22.0
 10
21.18
 20
-22.0
 10
20.619999999999997
 20
-22.0
 10
20.060000000000002
 20
-22.0
 10
19.5
 20
-22.0
 10
18.939999999999998
 20
-22.0
 10
18.380000000000003
 20
-22.0
 10
17.82
 20
-22.0
 10
17.26
 20
-22.0
 10
16.7
 20
-22.0
 10
16.14
 20
-22.0
 10
15.579999999999998
 20
-22.0
 10
15.02
 20
-22.0
 10
14.46
 20
-22.0
 10
13.899999999999999
 20
-22.0
 10
13.34
 20
-22.0
 10
12.780000000000001
 20
-22.0
 10
12.219999999999999
 20
-22.0
 10
11.66
 20
-22.0
 10
11.100000000000001
 20
-22.0
 10
10.54
 20
-22.0
 10
9.98
 20
-22.0
 10
9.420000000000002
 20
-22.0
 10
8.86
 20
-22.0
 10
8.3
 20
-22.0
 10
7.739999999999998
 20
-22.0
 10
7.18
 20
-22.0
 10
6.620000000000001
 20
-22.0
 10
6.059999999999999
 20
-22.0
 10
5.5
 20
-22.0
  0
LWPOLYLINE
  5
38
330
17
100
AcDbEntity
  8
0
100
AcDbPolyline
 90
51
 70
0
 10
33.5
 20
0.0
 10
32.94
 20
0.0
 10
32.38
 20
0.0
 10
31.82
 20
0.0
 10
31.259999999999998
 20
0.0
 10
30.7
 20
0.0
 10
30.14
 20
0.0
 10
29.58
 20
0.0
 10
29.02
 20
0.0
 10
28.46
 20
0.0
 10
27.9
 20
0.0
 10
27.34
 20
0.0
 10
26.78
 20
0.0
 10
26.22
 20
0.0
 10
25.66
 20
0.0
 10
25.1
 20
0.0
 10
24.54
 20
0.0
 10
23.98
 20
0.0
 10
23.42
 20
0.0
 10
22.86
 20
0.0
 10
22.3
 20
0.0
 10
21.740000000000002
 20
0.0
 10
21.18
 20
0.0
 10
20.619999999999997
 20
0.0
 10
20.060000000000002
 20
0.0
 10
19.5
 20
0.0
 10
18.939999999999998
 20
0.0
 10
18.380000000000003
 20
0.0
 10
17.82
 20
0.0
 10
17.26
 20
0.0
 10
16.7
 20
0.0
 10
16.14
 20
0.0
 10
15.579999999999998
 20
0.0
 10
15.02
 20
0.0
 10
14.46
 20
0.0
 10
13.899999999999999
 20
0.0
 10
13.34
 20
0.0
 10
12.780000000000001
 20
0.0
 10
12.219999999999999
 20
0.0
 10
11.66
 20
0.0
 10
11.100000000000001
 20
0.0
 10
10.54
 20
0.0
 10
9.98
 20
0.0
 10
9.420000000000002
 20
0.0
 10
8.86
 20
0.0
 10
8.3
 20
0.0
 10
7.739999999999998
 20
0.0
 10
7.18
 20
0.0
 10
6.620000000000001
 20
0.0
 10
6.059999999999999
 20
0.0
 10
5.5
 20
0.0
  0
LWPOLYLINE
  5
39
330
17
100
AcDbEntity
  8
0
100
AcDbPolyline
 90
51
 70
0
 10
5.5
 20
-22.0
 10
5.5
 20
-21.9
 10
5.5
 20
-21.8
 10
5.5
 20
-21.7
 10
5.5
 20
-21.6
 10
5.5
 20
-21.5
 10
5.5
 20
-21.4
 10
5.5
 20
-21.3
 10
5.5
 20
-21.2
 10
5.5
 20
-21.1
 10
5.5
 20
-21.0
 10
5.5
 20
-20.9
 10
5.5
 20
-20.8
 10
5.5
 20
-20.7
 10
5.5
 20
-20.6
 10
5.5
 20
-20.5
 10
5.5
 20
-20.4
 10
5.5
 20
-20.3
 10
5.5
 20
-20.2
 10
5.5
 20
-20.1
 10
5.5
 20
-20.0
 10
5.5
 20
-19.9
 10
5.5
 20
-19.8
 10
5.5
 20
-19.7
 10
5.5
 20
-19.6
 10
5.5
 20
-19.5
 10
5.5
 20
-19.4
 10
5.5
 20
-19.3
 10
5.5
 20
-19.2
 10
5.5
 20
-19.1
 10
5.5
 20
-19.0
 10
5.5
 20
-18.9
 10
5.5
 20
-18.8
 10
5.5
 20
-18.7
 10
5.5
 20
-18.6
 10
5.5
 20
-18.5
 10
5.5
 20
-18.4
 10
5.5
 20
-18.3
 10
5.5
 20
-18.2
 10
5.5
 20
-18.1
 10
5.5
 20
-18.0
 10
5.5
 20
-17.9
 10
5.5
 20
-17.8
 10
5.5
 20
-17.7
 10
5.5
 20
-17.6
 10
5.5
 20
-17.5
 10
5.5
 20
-17.4
 10
5.5
 20
-17.3
 10
5.5
 20
-17.2
 10
5.5
 20
-17.1
 10
5.5
 20
-17.0
  0
LWPOLYLINE
  5
3A
330
17
100
AcDbEntity
  8
0
100
AcDbPolyline
 90
51
 70
0
 10
5.5
 20
-17.000000000000004
 10
5.450858707876375
 20
-17.000000000000004
 10
5.401717415752748
 20
-17.000000000000004
 10
5.352576123629123
 20
-17.000000000000004
 10
5.2623697880780655
 20
-17.000000000000004
 10
5.117410061290433
 20
-17.000000000000004
 10
4.9724503345028
 20
-17.000000000000004
 10
4.827490607715167
 20
-17.000000000000004
 10
4.60663126778716
 20
-17.000000000000004
 10
4.373121992335757
 20
-17.000000000000004
 10
4.139612716884354
 20
-17.000000000000004
 10
3.8841490361350033
 20
-17.000000000000004
 10
3.5737993421407825
 20
-17.000000000000004
 10
3.263449648146562
 20
-17.000000000000004
 10
2.953099954152341
 20
-17.000000000000004
 10
2.5989801251734903
 20
-17.000000000000004
 10
2.2273522422007854
 20
-17.000000000000004
 10
1.855724359228081
 20
-17.0
 10
1.4780045883777588
 20
-17.0
 10
1.063733490261722
 20
-17.0
 10
0.6494623921456836
 20
-17.0
 10
0.23519129402964523
 20
-17.0
 10
-0.19157690833687058
 20
-17.0
 10
-0.6277179388912459
 20
-17.0
 10
-1.0638589694456229
 20
-17.0
 10
-1.4999999999999996
 20
-17.0
 10
-1.9361410305543765
 20
-17.0
 10
-2.3722820611087516
 20
-17.0
 10
-2.8084230916631285
 20
-17.0
 10
-3.235191294029646
 20
-17.0
 10
-3.6494623921456815
 20
-17.0
 10
-4.06373349026172
 20
-17.0
 10
-4.478004588377759
 20
-17.0
 10
-4.855724359228082
 20
-17.0
 10
-5.227352242200787
 20
-16.999999999999996
 10
-5.5989801251734885
 20
-16.999999999999996
 10
-5.953099954152341
 20
-16.999999999999996
 10
-6.263449648146562
 20
-16.999999999999996
 10
-6.573799342140781
 20
-16.999999999999996
 10
-6.8841490361350015
 20
-16.999999999999996
 10
-7.139612716884353
 20
-16.999999999999996
 10
-7.373121992335755
 20
-16.999999999999996
 10
-7.60663126778716
 20
-16.999999999999996
 10
-7.827490607715166
 20
-16.999999999999996
 10
-7.972450334502799
 20
-16.999999999999996
 10
-8.117410061290432
 20
-16.999999999999996
 10
-8.262369788078065
 20
-16.999999999999996
 10
-8.352576123629124
 20
-16.999999999999996
 10
-8.40171741575275
 20
-16.999999999999996
 10
-8.450858707876375
 20
-16.999999999999996
 10
-8.5
 20
-16.999999999999996
  0
LWPOLYLINE
  5
3B
330
17
100
AcDbEntity
  8
0
100
AcDbPolyline
 90
51
 70
0
 10
-8.5
 20
-22.0
 10
-8.5
 20
-21.9
 10
-8.5
 20
-21.8
 10
-8.5
 20
-21.7
 10
-8.5
 20
-21.6
 10
-8.5
 20
-21.5
 10
-8.5
 20
-21.4
 10
-8.5
 20
-21.3
 10
-8.5
 20
-21.2
 10
-8.5
 20
-21.1
 10
-8.5
 20
-21.0
 10
-8.5
 20
-20.9
 10
-8.5
 20
-20.8
 10
-8.5
 20
-20.7
 10
-8.5
 20
-20.6
 10
-8.5
 20
-20.5
 10
-8.5
 20
-20.4
 10
-8.5
 20
-20.3
 10
-8.5
 20
-20.2
 10
-8.5
 20
-20.1
 10
-8.5
 20
-20.0
 10
-8.5
 20
-19.9
 10
-8.5
 20
-19.8
 10
-8.5
 20
-19.7
 10
-8.5
 20
-19.6
 10
-8.5
 20
-19.5
 10
-8.5
 20
-19.4
 10
-8.5
 20
-19.3
 10
-8.5
 20
-19.2
 10
-8.5
 20
-19.1
 10
-8.5
 20
-19.0
 10
-8.5
 20
-18.9
 10
-8.5
 20
-18.8
 10
-8.5
 20
-18.7
 10
-8.5
 20
-18.6
 10
-8.5
 20
-18.5
 10
-8.5
 20
-18.4
 10
-8.5
 20
-18.3
 10
-8.5
 20
-18.2
 10
-8.5
 20
-18.1
 10
-8.5
 20
-18.0
 10
-8.5
 20
-17.9
 10
-8.5
 20
-17.8
 10
-8.5
 20
-17.7
 10
-8.5
 20
-17.6
 10
-8.5
 20
-17.5
 10
-8.5
 20
-17.4
 10
-8.5
 20
-17.3
 10
-8.5
 20
-17.2
 10
-8.5
 20
-17.1
 10
-8.5
 20
-17.0
  0
LWPOLYLINE
  5
3C
330
17
100
AcDbEntity
  8
0
100
AcDbPolyline
 90
51
 70
0
 10
5.5
 20
-22.0
 10
5.450858707876375
 20
-22.0
 10
5.401717415752748
 20
-22.0
 10
5.352576123629123
 20
-22.0
 10
5.262369788078065
 20
-22.0
 10
5.117410061290434
 20
-22.0
 10
4.972450334502802
 20
-22.0
 10
4.827490607715168
 20
-22.0
 10
4.6066312677871615
 20
-22.0
 10
4.373121992335756
 20
-22.0
 10
4.139612716884354
 20
-22.0
 10
3.884149036135005
 20
-22.0
 10
3.5737993421407817
 20
-22.0
 10
3.263449648146563
 20
-22.0
 10
2.95309995415234
 20
-22.0
 10
2.5989801251734908
 20
-22.0
 10
2.227352242200789
 20
-22.0
 10
1.855724359228082
 20
-22.0
 10
1.4780045883777615
 20
-22.0
 10
1.0637334902617206
 20
-22.0
 10
0.6494623921456851
 20
-22.0
 10
0.2351912940296499
 20
-22.0
 10
-0.19157690833687033
 20
-22.0
 10
-0.6277179388912442
 20
-22.0
 10
-1.0638589694456242
 20
-22.0
 10
-1.4999999999999978
 20
-22.0
 10
-1.9361410305543716
 20
-22.0
 10
-2.3722820611087516
 20
-22.0
 10
-2.8084230916631254
 20
-22.0
 10
-3.2351912940296454
 20
-22.0
 10
-3.649462392145681
 20
-22.0
 10
-4.063733490261717
 20
-22.0
 10
-4.4780045883777575
 20
-22.0
 10
-4.855724359228084
 20
-22.0
 10
-5.227352242200785
 20
-22.0
 10
-5.5989801251734885
 20
-22.0
 10
-5.9530999541523375
 20
-22.0
 10
-6.263449648146561
 20
-22.0
 10
-6.57379934214078
 20
-22.0
 10
-6.884149036135003
 20
-22.0
 10
-7.139612716884352
 20
-22.0
 10
-7.373121992335754
 20
-22.0
 10
-7.60663126778716
 20
-22.0
 10
-7.827490607715166
 20
-22.0
 10
-7.9724503345028
 20
-22.0
 10
-8.117410061290432
 20
-22.0
 10
-8.262369788078065
 20
-22.0
 10
-8.352576123629124
 20
-22.0
 10
-8.40171741575275
 20
-22.0
 10
-8.450858707876375
 20
-22.0
 10
-8.5
 20
-22.0
  0
ENDSEC
  0
SECTION
  2
OBJECTS
  0
DICTIONARY
  5
A
330
0
100
AcDbDictionary
280
0
281
1
  3
ACAD_COLOR
350
B
  3
ACAD_GROUP
350
C
  3
ACAD_LAYOUT
350
D
  3
ACAD_MATERIAL
350
E
  3
ACAD_MLEADERSTYLE
350
F
  3
ACAD_MLINESTYLE
350
10
  3
ACAD_PLOTSETTINGS
350
11
  3
ACAD_PLOTSTYLENAME
350
12
  3
ACAD_SCALELIST
350
14
  3
ACAD_TABLESTYLE
350
15
  3
ACAD_VISUALSTYLE
350
16
  3
EZDXF_META
350
2D
  0
DICTIONARY
  5
B
330
A
100
AcDbDictionary
280
0
281
1
  0
DICTIONARY
  5
C
330
A
100
AcDbDictionary
280
0
281
1
  0
DICTIONARY
  5
D
330
A
100
AcDbDictionary
280
0
281
1
  3
Model
350
1A
  3
Layout1
350
1E
  0
DICTIONARY
  5
E
330
A
100
AcDbDictionary
280
0
281
1
  3
ByBlock
350
1F
  3
ByLayer
350
20
  3
Global
350
21
  0
DICTIONARY
  5
F
330
A
100
AcDbDictionary
280
0
281
1
  3
Standard
350
2C
  0
DICTIONARY
  5
10
330
A
100
AcDbDictionary
280
0
281
1
  3
Standard
350
22
  0
DICTIONARY
  5
11
330
A
100
AcDbDictionary
280
0
281
1
  0
ACDBDICTIONARYWDFLT
  5
12
330
A
100
AcDbDictionary
280
0
281
1
  3
Normal
350
13
100
AcDbDictionaryWithDefault
340
13
  0
ACDBPLACEHOLDER
  5
13
330
12
  0
DICTIONARY
  5
14
330
A
100
AcDbDictionary
280
0
281
1
  0
DICTIONARY
  5
15
330
A
100
AcDbDictionary
280
0
281
1
  0
DICTIONARY
  5
16
330
A
100
AcDbDictionary
280
0
281
1
  0
LAYOUT
  5
1A
330
D
100
AcDbPlotSettings
  1

  2
Adobe PDF
  4
A3
  6

 40
7.5
 41
20.0
 42
7.5
 43
20.0
 44
420.0
 45
297.0
 46
0.0
 47
0.0
 48
0.0
 49
0.0
140
0.0
141
0.0
142
1.0
143
1.0
 70
1024
 72
1
 73
0
 74
5
  7

 75
16
 76
0
 77
2
 78
300
147
1.0
148
0.0
149
0.0
100
AcDbLayout
  1
Model
 70
1
 71
0
 10
0.0
 20
0.0
 11
420.0
 21
297.0
 12
0.0
 22
0.0
 32
0.0
 14
1e+20
 24
1e+20
 34
1e+20
 15
-1e+20
 25
-1e+20
 35
-1e+20
146
0.0
 13
0.0
 23
0.0
 33
0.0
 16
1.0
 26
0.0
 36
0.0
 17
0.0
 27
1.0
 37
0.0
 76
1
330
17
  0
LAYOUT
  5
1E
330
D
100
AcDbPlotSettings
  1

  2
Adobe PDF
  4
A3
  6

 40
7.5
 41
20.0
 42
7.5
 43
20.0
 44
420.0
 45
297.0
 46
0.0
 47
0.0
 48
0.0
 49
0.0
140
0.0
141
0.0
142
1.0
143
1.0
 70
0
 72
1
 73
0
 74
5
  7

 75
16
 76
0
 77
2
 78
300
147
1.0
148
0.0
149
0.0
100
AcDbLayout
  1
Layout1
 70
1
 71
1
 10
0.0
 20
0.0
 11
420.0
 21
297.0
 12
0.0
 22
0.0
 32
0.0
 14
1e+20
 24
1e+20
 34
1e+20
 15
-1e+20
 25
-1e+20
 35
-1e+20
146
0.0
 13
0.0
 23
0.0
 33
0.0
 16
1.0
 26
0.0
 36
0.0
 17
0.0
 27
1.0
 37
0.0
 76
1
330
1B
  0
MATERIAL
  5
1F
102
{ACAD_REACTORS
330
E
102
}
330
E
100
AcDbMaterial
  1
ByBlock
  2

 70
0
 40
1.0
 71
1
 41
1.0
 91
-1023410177
 42
1.0
 72
1
  3

 73
1
 74
1
 75
1
 44
0.5
 73
0
 45
1.0
 46
1.0
 77
1
  4

 78
1
 79
1
170
1
 48
1.0
171
1
  6

172
1
173
1
174
1
140
1.0
141
1.0
175
1
  7

176
1
177
1
178
1
143
1.0
179
1
  8

270
1
271
1
272
1
145
1.0
146
1.0
273
1
  9

274
1
275
1
276
1
 42
1.0
 72
1
  3

 73
1
 74
1
 75
1
 94
63
  0
MATERIAL
  5
20
102
{ACAD_REACTORS
330
E
102
}
330
E
100
AcDbMaterial
  1
ByLayer
  2

 70
0
 40
1.0
 71
1
 41
1.0
 91
-1023410177
 42
1.0
 72
1
  3

 73
1
 74
1
 75
1
 44
0.5
 73
0
 45
1.0
 46
1.0
 77
1
  4

 78
1
 79
1
170
1
 48
1.0
171
1
  6

172
1
173
1
174
1
140
1.0
141
1.0
175
1
  7

176
1
177
1
178
1
143
1.0
179
1
  8

270
1
271
1
272
1
145
1.0
146
1.0
273
1
  9

274
1
275
1
276
1
 42
1.0
 72
1
  3

 73
1
 74
1
 75
1
 94
63
  0
MATERIAL
  5
21
102
{ACAD_REACTORS
330
E
102
}
330
E
100
AcDbMaterial
  1
Global
  2

 70
0
 40
1.0
 71
1
 41
1.0
 91
-1023410177
 42
1.0
 72
1
  3

 73
1
 74
1
 75
1
 44
0.5
 73
0
 45
1.0
 46
1.0
 77
1
  4

 78
1
 79
1
170
1
 48
1.0
171
1
  6

172
1
173
1
174
1
140
1.0
141
1.0
175
1
  7

176
1
177
1
178
1
143
1.0
179
1
  8

270
1
271
1
272
1
145
1.0
146
1.0
273
1
  9

274
1
275
1
276
1
 42
1.0
 72
1
  3

 73
1
 74
1
 75
1
 94
63
  0
MLINESTYLE
  5
22
102
{ACAD_REACTORS
330
10
102
}
330
10
100
AcDbMlineStyle
  2
Standard
 70
0
  3

 62
256
 51
90.0
 52
90.0
 71
2
 49
0.5
 62
256
  6
BYLAYER
 49
-0.5
 62
256
  6
BYLAYER
  0
MLEADERSTYLE
  5
2C
102
{ACAD_REACTORS
330
F
102
}
330
F
100
AcDbMLeaderStyle
179
2
170
2
171
1
172
0
 90
2
 40
0.0
 41
0.0
173
1
 91
-1056964608
 92
-2
290
1
 42
2.0
291
1
 43
8.0
  3
Standard
 44
4.0
300

342
29
174
1
175
1
176
0
178
1
 93
-1056964608
 45
4.0
292
0
297
0
 46
4.0
 94
-1056964608
 47
1.0
 49
1.0
140
1.0
294
1
141
0.0
177
0
142
1.0
295
0
296
0
143
3.75
271
0
272
9
273
9
  0
DICTIONARY
  5
2D
330
A
100
AcDbDictionary
281
1
  3
CREATED_BY_EZDXF
350
2E
  3
WRITTEN_BY_EZDXF
350
3F
  0
DICTIONARYVAR
  5
2E
330
2D
100
DictionaryVariables
280
0
  1
1.0.3 @ 2025-05-29T09:38:44.085776+00:00
  0
DICTIONARYVAR
  5
3F
330
2D
100
DictionaryVariables
280
0
  1
1.0.3 @ 2025-05-29T09:38:44.089292+00:00
  0
ENDSEC
  0
EOF
