  0
SECTION
  2
HEADER
  9
$ACADVER
  1
AC1027
  9
$ACADMAINTVER
 70
105
  9
$DWGCODEPAGE
  3
ANSI_1252
  9
$LASTSAVEDBY
  1
ezdxf
  9
$REQUIREDVERSIONS
160
0
  9
$INSBASE
 10
0.0
 20
0.0
 30
0.0
  9
$EXTMIN
 10
1e+20
 20
1e+20
 30
1e+20
  9
$EXTMAX
 10
-1e+20
 20
-1e+20
 30
-1e+20
  9
$LIMMIN
 10
0.0
 20
0.0
  9
$LIMMAX
 10
420.0
 20
297.0
  9
$ORTHOMODE
 70
0
  9
$REGENMODE
 70
1
  9
$FILLMODE
 70
1
  9
$QTEXTMODE
 70
0
  9
$MIRRTEXT
 70
1
  9
$LTSCALE
 40
1.0
  9
$ATTMODE
 70
1
  9
$TEXTSIZE
 40
2.5
  9
$TRACEWID
 40
1.0
  9
$TEXTSTYLE
  7
Standard
  9
$CLAYER
  8
0
  9
$CELTYPE
  6
ByLayer
  9
$CECOLOR
 62
256
  9
$CELTSCALE
 40
1.0
  9
$DISPSILH
 70
0
  9
$DIMSCALE
 40
1.0
  9
$DIMASZ
 40
2.5
  9
$DIMEXO
 40
0.625
  9
$DIMDLI
 40
3.75
  9
$DIMRND
 40
0.0
  9
$DIMDLE
 40
0.0
  9
$DIMEXE
 40
1.25
  9
$DIMTP
 40
0.0
  9
$DIMTM
 40
0.0
  9
$DIMTXT
 40
2.5
  9
$DIMCEN
 40
2.5
  9
$DIMTSZ
 40
0.0
  9
$DIMTOL
 70
0
  9
$DIMLIM
 70
0
  9
$DIMTIH
 70
0
  9
$DIMTOH
 70
0
  9
$DIMSE1
 70
0
  9
$DIMSE2
 70
0
  9
$DIMTAD
 70
1
  9
$DIMZIN
 70
8
  9
$DIMBLK
  1

  9
$DIMASO
 70
1
  9
$DIMSHO
 70
1
  9
$DIMPOST
  1

  9
$DIMAPOST
  1

  9
$DIMALT
 70
0
  9
$DIMALTD
 70
3
  9
$DIMALTF
 40
0.03937007874
  9
$DIMLFAC
 40
1.0
  9
$DIMTOFL
 70
1
  9
$DIMTVP
 40
0.0
  9
$DIMTIX
 70
0
  9
$DIMSOXD
 70
0
  9
$DIMSAH
 70
0
  9
$DIMBLK1
  1

  9
$DIMBLK2
  1

  9
$DIMSTYLE
  2
ISO-25
  9
$DIMCLRD
 70
0
  9
$DIMCLRE
 70
0
  9
$DIMCLRT
 70
0
  9
$DIMTFAC
 40
1.0
  9
$DIMGAP
 40
0.625
  9
$DIMJUST
 70
0
  9
$DIMSD1
 70
0
  9
$DIMSD2
 70
0
  9
$DIMTOLJ
 70
0
  9
$DIMTZIN
 70
8
  9
$DIMALTZ
 70
0
  9
$DIMALTTZ
 70
0
  9
$DIMUPT
 70
0
  9
$DIMDEC
 70
2
  9
$DIMTDEC
 70
2
  9
$DIMALTU
 70
2
  9
$DIMALTTD
 70
3
  9
$DIMTXSTY
  7
Standard
  9
$DIMAUNIT
 70
0
  9
$DIMADEC
 70
0
  9
$DIMALTRND
 40
0.0
  9
$DIMAZIN
 70
0
  9
$DIMDSEP
 70
44
  9
$DIMATFIT
 70
3
  9
$DIMFRAC
 70
0
  9
$DIMLDRBLK
  1

  9
$DIMLUNIT
 70
2
  9
$DIMLWD
 70
-2
  9
$DIMLWE
 70
-2
  9
$DIMTMOVE
 70
0
  9
$DIMFXL
 40
1.0
  9
$DIMFXLON
 70
0
  9
$DIMJOGANG
 40
0.785398163397
  9
$DIMTFILL
 70
0
  9
$DIMTFILLCLR
 70
0
  9
$DIMARCSYM
 70
0
  9
$DIMLTYPE
  6

  9
$DIMLTEX1
  6

  9
$DIMLTEX2
  6

  9
$DIMTXTDIRECTION
 70
0
  9
$LUNITS
 70
2
  9
$LUPREC
 70
4
  9
$SKETCHINC
 40
1.0
  9
$FILLETRAD
 40
10.0
  9
$AUNITS
 70
0
  9
$AUPREC
 70
2
  9
$MENU
  1
.
  9
$ELEVATION
 40
0.0
  9
$PELEVATION
 40
0.0
  9
$THICKNESS
 40
0.0
  9
$LIMCHECK
 70
0
  9
$CHAMFERA
 40
0.0
  9
$CHAMFERB
 40
0.0
  9
$CHAMFERC
 40
0.0
  9
$CHAMFERD
 40
0.0
  9
$SKPOLY
 70
0
  9
$TDCREATE
 40
2460825.776863426
  9
$TDUCREATE
 40
2458532.153996898
  9
$TDUPDATE
 40
2460825.776863426
  9
$TDUUPDATE
 40
2458532.1544311
  9
$TDINDWG
 40
0.0
  9
$TDUSRTIMER
 40
0.0
  9
$USRTIMER
 70
1
  9
$ANGBASE
 50
0.0
  9
$ANGDIR
 70
0
  9
$PDMODE
 70
0
  9
$PDSIZE
 40
0.0
  9
$PLINEWID
 40
0.0
  9
$SPLFRAME
 70
0
  9
$SPLINETYPE
 70
6
  9
$SPLINESEGS
 70
8
  9
$HANDSEED
  5
3B
  9
$SURFTAB1
 70
6
  9
$SURFTAB2
 70
6
  9
$SURFTYPE
 70
6
  9
$SURFU
 70
6
  9
$SURFV
 70
6
  9
$UCSBASE
  2

  9
$UCSNAME
  2

  9
$UCSORG
 10
0.0
 20
0.0
 30
0.0
  9
$UCSXDIR
 10
1.0
 20
0.0
 30
0.0
  9
$UCSYDIR
 10
0.0
 20
1.0
 30
0.0
  9
$UCSORTHOREF
  2

  9
$UCSORTHOVIEW
 70
0
  9
$UCSORGTOP
 10
0.0
 20
0.0
 30
0.0
  9
$UCSORGBOTTOM
 10
0.0
 20
0.0
 30
0.0
  9
$UCSORGLEFT
 10
0.0
 20
0.0
 30
0.0
  9
$UCSORGRIGHT
 10
0.0
 20
0.0
 30
0.0
  9
$UCSORGFRONT
 10
0.0
 20
0.0
 30
0.0
  9
$UCSORGBACK
 10
0.0
 20
0.0
 30
0.0
  9
$PUCSBASE
  2

  9
$PUCSNAME
  2

  9
$PUCSORG
 10
0.0
 20
0.0
 30
0.0
  9
$PUCSXDIR
 10
1.0
 20
0.0
 30
0.0
  9
$PUCSYDIR
 10
0.0
 20
1.0
 30
0.0
  9
$PUCSORTHOREF
  2

  9
$PUCSORTHOVIEW
 70
0
  9
$PUCSORGTOP
 10
0.0
 20
0.0
 30
0.0
  9
$PUCSORGBOTTOM
 10
0.0
 20
0.0
 30
0.0
  9
$PUCSORGLEFT
 10
0.0
 20
0.0
 30
0.0
  9
$PUCSORGRIGHT
 10
0.0
 20
0.0
 30
0.0
  9
$PUCSORGFRONT
 10
0.0
 20
0.0
 30
0.0
  9
$PUCSORGBACK
 10
0.0
 20
0.0
 30
0.0
  9
$USERI1
 70
0
  9
$USERI2
 70
0
  9
$USERI3
 70
0
  9
$USERI4
 70
0
  9
$USERI5
 70
0
  9
$USERR1
 40
0.0
  9
$USERR2
 40
0.0
  9
$USERR3
 40
0.0
  9
$USERR4
 40
0.0
  9
$USERR5
 40
0.0
  9
$WORLDVIEW
 70
1
  9
$SHADEDGE
 70
3
  9
$SHADEDIF
 70
70
  9
$TILEMODE
 70
1
  9
$MAXACTVP
 70
64
  9
$PINSBASE
 10
0.0
 20
0.0
 30
0.0
  9
$PLIMCHECK
 70
0
  9
$PEXTMIN
 10
1e+20
 20
1e+20
 30
1e+20
  9
$PEXTMAX
 10
-1e+20
 20
-1e+20
 30
-1e+20
  9
$PLIMMIN
 10
0.0
 20
0.0
  9
$PLIMMAX
 10
420.0
 20
297.0
  9
$UNITMODE
 70
0
  9
$VISRETAIN
 70
1
  9
$PLINEGEN
 70
0
  9
$PSLTSCALE
 70
1
  9
$TREEDEPTH
 70
3020
  9
$CMLSTYLE
  2
Standard
  9
$CMLJUST
 70
0
  9
$CMLSCALE
 40
20.0
  9
$PROXYGRAPHICS
 70
1
  9
$MEASUREMENT
 70
1
  9
$CELWEIGHT
370
-1
  9
$ENDCAPS
280
0
  9
$JOINSTYLE
280
0
  9
$LWDISPLAY
290
0
  9
$INSUNITS
 70
6
  9
$HYPERLINKBASE
  1

  9
$STYLESHEET
  1

  9
$XEDIT
290
1
  9
$CEPSNTYPE
380
0
  9
$PSTYLEMODE
290
1
  9
$FINGERPRINTGUID
  2
{8639423C-8241-42F6-84F9-4E22BD56B6F1}
  9
$VERSIONGUID
  2
{EC4B3AA1-157E-4A51-820C-99D5381F148B}
  9
$EXTNAMES
290
1
  9
$PSVPSCALE
 40
0.0
  9
$OLESTARTUP
290
0
  9
$SORTENTS
280
127
  9
$INDEXCTL
280
0
  9
$HIDETEXT
280
1
  9
$XCLIPFRAME
280
0
  9
$HALOGAP
280
0
  9
$OBSCOLOR
 70
257
  9
$OBSLTYPE
280
0
  9
$INTERSECTIONDISPLAY
280
0
  9
$INTERSECTIONCOLOR
 70
257
  9
$DIMASSOC
280
2
  9
$PROJECTNAME
  1

  9
$CAMERADISPLAY
290
0
  9
$LENSLENGTH
 40
50.0
  9
$CAMERAHEIGHT
 40
0.0
  9
$STEPSPERSEC
 40
24.0
  9
$STEPSIZE
 40
100.0
  9
$3DDWFPREC
 40
2.0
  9
$PSOLWIDTH
 40
0.005
  9
$PSOLHEIGHT
 40
0.08
  9
$LOFTANG1
 40
1.570796326795
  9
$LOFTANG2
 40
1.570796326795
  9
$LOFTMAG1
 40
0.0
  9
$LOFTMAG2
 40
0.0
  9
$LOFTPARAM
 70
7
  9
$LOFTNORMALS
280
1
  9
$LATITUDE
 40
37.795
  9
$LONGITUDE
 40
-122.394
  9
$NORTHDIRECTION
 40
0.0
  9
$TIMEZONE
 70
-8000
  9
$LIGHTGLYPHDISPLAY
280
1
  9
$TILEMODELIGHTSYNCH
280
1
  9
$CMATERIAL
347
20
  9
$SOLIDHIST
280
0
  9
$SHOWHIST
280
1
  9
$DWFFRAME
280
2
  9
$DGNFRAME
280
2
  9
$REALWORLDSCALE
290
1
  9
$INTERFERECOLOR
 62
256
  9
$CSHADOW
280
0
  9
$SHADOWPLANELOCATION
 40
0.0
  0
ENDSEC
  0
SECTION
  2
CLASSES
  0
CLASS
  1
ACDBDICTIONARYWDFLT
  2
AcDbDictionaryWithDefault
  3
ObjectDBX Classes
 90
0
 91
0
280
0
281
0
  0
CLASS
  1
SUN
  2
AcDbSun
  3
SCENEOE
 90
1153
 91
0
280
0
281
0
  0
CLASS
  1
VISUALSTYLE
  2
AcDbVisualStyle
  3
ObjectDBX Classes
 90
4095
 91
0
280
0
281
0
  0
CLASS
  1
MATERIAL
  2
AcDbMaterial
  3
ObjectDBX Classes
 90
1153
 91
0
280
0
281
0
  0
CLASS
  1
SCALE
  2
AcDbScale
  3
ObjectDBX Classes
 90
1153
 91
0
280
0
281
0
  0
CLASS
  1
TABLESTYLE
  2
AcDbTableStyle
  3
ObjectDBX Classes
 90
4095
 91
0
280
0
281
0
  0
CLASS
  1
MLEADERSTYLE
  2
AcDbMLeaderStyle
  3
ACDB_MLEADERSTYLE_CLASS
 90
4095
 91
0
280
0
281
0
  0
CLASS
  1
DICTIONARYVAR
  2
AcDbDictionaryVar
  3
ObjectDBX Classes
 90
0
 91
0
280
0
281
0
  0
CLASS
  1
CELLSTYLEMAP
  2
AcDbCellStyleMap
  3
ObjectDBX Classes
 90
1152
 91
0
280
0
281
0
  0
CLASS
  1
MENTALRAYRENDERSETTINGS
  2
AcDbMentalRayRenderSettings
  3
SCENEOE
 90
1024
 91
0
280
0
281
0
  0
CLASS
  1
ACDBDETAILVIEWSTYLE
  2
AcDbDetailViewStyle
  3
ObjectDBX Classes
 90
1025
 91
0
280
0
281
0
  0
CLASS
  1
ACDBSECTIONVIEWSTYLE
  2
AcDbSectionViewStyle
  3
ObjectDBX Classes
 90
1025
 91
0
280
0
281
0
  0
CLASS
  1
RASTERVARIABLES
  2
AcDbRasterVariables
  3
ISM
 90
0
 91
0
280
0
281
0
  0
CLASS
  1
LAYOUT
  2
AcDbLayout
  3
ObjectDBX Classes
 90
0
 91
0
280
0
281
0
  0
CLASS
  1
ACDBPLACEHOLDER
  2
AcDbPlaceHolder
  3
ObjectDBX Classes
 90
0
 91
0
280
0
281
0
  0
ENDSEC
  0
SECTION
  2
TABLES
  0
TABLE
  2
VPORT
  5
8
330
0
100
AcDbSymbolTable
 70
1
  0
VPORT
  5
23
330
8
100
AcDbSymbolTableRecord
100
AcDbViewportTableRecord
  2
*Active
 70
0
 10
0.0
 20
0.0
 11
1.0
 21
1.0
 12
0.0
 22
0.0
 13
0.0
 23
0.0
 14
0.5
 24
0.5
 15
0.5
 25
0.5
 16
0.0
 26
0.0
 36
1.0
 17
0.0
 27
0.0
 37
0.0
 40
1000.0
 41
1.34
 42
50.0
 43
0.0
 44
0.0
 50
0.0
 51
0.0
 71
0
 72
1000
 73
1
 74
3
 75
0
 76
0
 77
0
 78
0
281
0
 65
0
146
0.0
  0
ENDTAB
  0
TABLE
  2
LTYPE
  5
2
330
0
100
AcDbSymbolTable
 70
3
  0
LTYPE
  5
24
330
2
100
AcDbSymbolTableRecord
100
AcDbLinetypeTableRecord
  2
ByBlock
 70
0
  3

 72
65
 73
0
 40
0.0
  0
LTYPE
  5
25
330
2
100
AcDbSymbolTableRecord
100
AcDbLinetypeTableRecord
  2
ByLayer
 70
0
  3

 72
65
 73
0
 40
0.0
  0
LTYPE
  5
26
330
2
100
AcDbSymbolTableRecord
100
AcDbLinetypeTableRecord
  2
Continuous
 70
0
  3

 72
65
 73
0
 40
0.0
  0
ENDTAB
  0
TABLE
  2
LAYER
  5
1
330
0
100
AcDbSymbolTable
 70
2
  0
LAYER
  5
27
330
1
100
AcDbSymbolTableRecord
100
AcDbLayerTableRecord
  2
0
 70
0
 62
7
  6
Continuous
370
-3
390
13
347
21
  0
LAYER
  5
28
330
1
100
AcDbSymbolTableRecord
100
AcDbLayerTableRecord
  2
Defpoints
 70
0
 62
7
  6
Continuous
290
0
370
-3
390
13
347
21
  0
ENDTAB
  0
TABLE
  2
STYLE
  5
5
330
0
100
AcDbSymbolTable
 70
1
  0
STYLE
  5
29
330
5
100
AcDbSymbolTableRecord
100
AcDbTextStyleTableRecord
  2
Standard
 70
0
 40
0.0
 41
1.0
 50
0.0
 71
0
 42
2.5
  3
txt
  4

  0
ENDTAB
  0
TABLE
  2
VIEW
  5
7
330
0
100
AcDbSymbolTable
 70
0
  0
ENDTAB
  0
TABLE
  2
UCS
  5
6
330
0
100
AcDbSymbolTable
 70
0
  0
ENDTAB
  0
TABLE
  2
APPID
  5
3
330
0
100
AcDbSymbolTable
 70
3
  0
APPID
  5
2A
330
3
100
AcDbSymbolTableRecord
100
AcDbRegAppTableRecord
  2
ACAD
 70
0
  0
APPID
  5
38
330
3
100
AcDbSymbolTableRecord
100
AcDbRegAppTableRecord
  2
HATCHBACKGROUNDCOLOR
 70
0
  0
APPID
  5
39
330
3
100
AcDbSymbolTableRecord
100
AcDbRegAppTableRecord
  2
EZDXF
 70
0
  0
ENDTAB
  0
TABLE
  2
DIMSTYLE
  5
4
330
0
100
AcDbSymbolTable
 70
1
100
AcDbDimStyleTable
  0
DIMSTYLE
105
2B
330
4
100
AcDbSymbolTableRecord
100
AcDbDimStyleTableRecord
  2
Standard
 70
0
 40
1.0
 41
2.5
 42
0.625
 43
3.75
 44
1.25
 45
0.0
 46
0.0
 47
0.0
 48
0.0
 49
2.5
140
2.5
141
2.5
142
0.0
143
0.03937007874
144
1.0
145
0.0
146
1.0
147
0.625
148
0.0
 69
0
 70
0
 71
0
 72
0
 73
0
 74
0
 75
0
 76
0
 77
1
 78
8
 79
3
170
0
171
3
172
1
173
0
174
0
175
0
176
0
177
0
178
0
179
2
271
2
272
2
273
2
274
3
275
0
276
0
277
2
278
44
279
0
280
0
281
0
282
0
283
0
284
8
285
0
286
0
288
0
289
3
290
0
371
-2
372
-2
  0
ENDTAB
  0
TABLE
  2
BLOCK_RECORD
  5
9
330
0
100
AcDbSymbolTable
 70
2
  0
BLOCK_RECORD
  5
17
330
9
100
AcDbSymbolTableRecord
100
AcDbBlockTableRecord
  2
*Model_Space
340
1A
 70
0
280
1
281
0
  0
BLOCK_RECORD
  5
1B
330
9
100
AcDbSymbolTableRecord
100
AcDbBlockTableRecord
  2
*Paper_Space
340
1E
 70
0
280
1
281
0
  0
ENDTAB
  0
ENDSEC
  0
SECTION
  2
BLOCKS
  0
BLOCK
  5
18
330
17
100
AcDbEntity
  8
0
100
AcDbBlockBegin
  2
*Model_Space
 70
0
 10
0.0
 20
0.0
 30
0.0
  3
*Model_Space
  1

  0
ENDBLK
  5
19
330
17
100
AcDbEntity
  8
0
100
AcDbBlockEnd
  0
BLOCK
  5
1C
330
1B
100
AcDbEntity
  8
0
100
AcDbBlockBegin
  2
*Paper_Space
 70
0
 10
0.0
 20
0.0
 30
0.0
  3
*Paper_Space
  1

  0
ENDBLK
  5
1D
330
1B
100
AcDbEntity
  8
0
100
AcDbBlockEnd
  0
ENDSEC
  0
SECTION
  2
ENTITIES
  0
LWPOLYLINE
  5
2F
330
17
100
AcDbEntity
  8
0
100
AcDbPolyline
 90
51
 70
0
 10
8.200000000000001
 20
12.0
 10
8.200000000000001
 20
11.86
 10
8.200000000000001
 20
11.719999999999999
 10
8.200000000000001
 20
11.58
 10
8.200000000000001
 20
11.44
 10
8.200000000000001
 20
11.3
 10
8.200000000000001
 20
11.16
 10
8.200000000000001
 20
11.02
 10
8.200000000000001
 20
10.879999999999999
 10
8.200000000000001
 20
10.74
 10
8.200000000000001
 20
10.6
 10
8.200000000000001
 20
10.46
 10
8.200000000000001
 20
10.32
 10
8.200000000000001
 20
10.18
 10
8.200000000000001
 20
10.04
 10
8.200000000000001
 20
9.9
 10
8.200000000000001
 20
9.76
 10
8.200000000000001
 20
9.620000000000001
 10
8.200000000000001
 20
9.48
 10
8.200000000000001
 20
9.34
 10
8.200000000000001
 20
9.2
 10
8.200000000000001
 20
9.06
 10
8.200000000000001
 20
8.92
 10
8.200000000000001
 20
8.78
 10
8.200000000000001
 20
8.64
 10
8.2
 20
8.5
 10
8.2
 20
8.36
 10
8.2
 20
8.22
 10
8.2
 20
8.08
 10
8.2
 20
7.94
 10
8.2
 20
7.8
 10
8.2
 20
7.66
 10
8.2
 20
7.52
 10
8.2
 20
7.38
 10
8.2
 20
7.24
 10
8.2
 20
7.1
 10
8.2
 20
6.96
 10
8.2
 20
6.82
 10
8.2
 20
6.68
 10
8.2
 20
6.54
 10
8.2
 20
6.4
 10
8.2
 20
6.26
 10
8.2
 20
6.12
 10
8.2
 20
5.98
 10
8.2
 20
5.84
 10
8.2
 20
5.7
 10
8.2
 20
5.56
 10
8.2
 20
5.42
 10
8.2
 20
5.28
 10
8.2
 20
5.14
 10
8.2
 20
5.0
  0
LWPOLYLINE
  5
30
330
17
100
AcDbEntity
  8
0
100
AcDbPolyline
 90
51
 70
0
 10
-5.8
 20
4.12114786740858e-16
 10
-5.068
 20
3.6010305848321865e-16
 10
-4.336
 20
3.0809133022557936e-16
 10
-3.6039999999999996
 20
2.5607960196794e-16
 10
-2.872
 20
2.040678737103007e-16
 10
-2.1399999999999997
 20
1.5205614545266136e-16
 10
-1.4079999999999995
 20
1.0004441719502204e-16
 10
-0.6760000000000002
 20
4.803268893738277e-17
 10
0.05600000000000005
 20
-3.979039320256563e-18
 10
0.7880000000000011
 20
-5.599076757789596e-17
 10
1.5200000000000005
 20
-1.0800249583553523e-16
 10
2.252
 20
-1.600142240931745e-16
 10
2.984000000000001
 20
-2.1202595235081388e-16
 10
3.716
 20
-2.6403768060845317e-16
 10
4.4479999999999995
 20
-3.160494088660924e-16
 10
5.180000000000001
 20
-3.6806113712373184e-16
 10
5.912
 20
-4.2007286538137107e-16
 10
6.644000000000001
 20
-4.720845936390105e-16
 10
7.376000000000002
 20
-5.240963218966498e-16
 10
8.108
 20
-5.761080501542891e-16
 10
8.84
 20
-6.281197784119283e-16
 10
9.572
 20
-6.801315066695676e-16
 10
10.303999999999998
 20
-7.321432349272069e-16
 10
11.036000000000001
 20
-7.841549631848464e-16
 10
11.768
 20
-8.361666914424857e-16
 10
12.5
 20
-8.881784197001249e-16
 10
13.232
 20
-9.401901479577641e-16
 10
13.963999999999999
 20
-9.922018762154034e-16
 10
14.695999999999998
 20
-1.0442136044730427e-15
 10
15.428
 20
-1.0962253327306822e-15
 10
16.16
 20
-1.1482370609883215e-15
 10
16.892000000000003
 20
-1.2002487892459611e-15
 10
17.624
 20
-1.2522605175036e-15
 10
18.355999999999998
 20
-1.3042722457612393e-15
 10
19.088
 20
-1.3562839740188788e-15
 10
19.82
 20
-1.408295702276518e-15
 10
20.552000000000003
 20
-1.4603074305341576e-15
 10
21.284
 20
-1.5123191587917967e-15
 10
22.016
 20
-1.564330887049436e-15
 10
22.748
 20
-1.6163426153070754e-15
 10
23.48
 20
-1.6683543435647147e-15
 10
24.212000000000003
 20
-1.7203660718223542e-15
 10
24.944
 20
-1.7723778000799933e-15
 10
25.676
 20
-1.8243895283376324e-15
 10
26.407999999999998
 20
-1.8764012565952716e-15
 10
27.139999999999997
 20
-1.928412984852911e-15
 10
27.872000000000003
 20
-1.980424713110551e-15
 10
28.604000000000003
 20
-2.0324364413681903e-15
 10
29.336000000000002
 20
-2.084448169625829e-15
 10
30.068
 20
-2.1364598978834685e-15
 10
30.8
 20
-2.1884716261411078e-15
  0
LWPOLYLINE
  5
31
330
17
100
AcDbEntity
  8
0
100
AcDbPolyline
 90
51
 70
0
 10
30.8
 20
-2.18847162614111e-15
 10
30.8
 20
0.09999999999999784
 10
30.8
 20
0.19999999999999787
 10
30.8
 20
0.29999999999999793
 10
30.8
 20
0.39999999999999797
 10
30.8
 20
0.49999999999999795
 10
30.8
 20
0.599999999999998
 10
30.8
 20
0.6999999999999981
 10
30.8
 20
0.799999999999998
 10
30.8
 20
0.899999999999998
 10
30.8
 20
0.999999999999998
 10
30.8
 20
1.0999999999999983
 10
30.8
 20
1.1999999999999982
 10
30.8
 20
1.2999999999999983
 10
30.8
 20
1.3999999999999984
 10
30.8
 20
1.4999999999999984
 10
30.8
 20
1.5999999999999983
 10
30.8
 20
1.6999999999999984
 10
30.8
 20
1.7999999999999983
 10
30.8
 20
1.8999999999999984
 10
30.8
 20
1.9999999999999982
 10
30.8
 20
2.0999999999999988
 10
30.8
 20
2.199999999999999
 10
30.8
 20
2.2999999999999985
 10
30.8
 20
2.3999999999999986
 10
30.8
 20
2.4999999999999987
 10
30.8
 20
2.5999999999999988
 10
30.8
 20
2.699999999999999
 10
30.8
 20
2.799999999999999
 10
30.8
 20
2.899999999999999
 10
30.8
 20
2.999999999999999
 10
30.8
 20
3.0999999999999988
 10
30.8
 20
3.199999999999999
 10
30.8
 20
3.299999999999999
 10
30.8
 20
3.399999999999999
 10
30.8
 20
3.499999999999999
 10
30.8
 20
3.5999999999999988
 10
30.8
 20
3.699999999999999
 10
30.8
 20
3.799999999999999
 10
30.8
 20
3.899999999999999
 10
30.8
 20
3.999999999999999
 10
30.8
 20
4.1
 10
30.8
 20
4.2
 10
30.8
 20
4.3
 10
30.8
 20
4.4
 10
30.8
 20
4.5
 10
30.8
 20
4.6
 10
30.8
 20
4.7
 10
30.8
 20
4.8
 10
30.8
 20
4.9
 10
30.8
 20
5.0
  0
LWPOLYLINE
  5
32
330
17
100
AcDbEntity
  8
0
100
AcDbPolyline
 90
51
 70
0
 10
8.2
 20
5.0
 10
8.436
 20
5.0
 10
8.672
 20
5.0
 10
8.907999999999998
 20
5.0
 10
9.144
 20
5.0
 10
9.379999999999999
 20
5.0
 10
9.616
 20
5.0
 10
9.852
 20
5.0
 10
10.088
 20
5.0
 10
10.324
 20
5.0
 10
10.559999999999999
 20
5.0
 10
10.796
 20
5.0
 10
11.032
 20
5.0
 10
11.267999999999999
 20
5.0
 10
11.504
 20
5.0
 10
11.739999999999998
 20
5.0
 10
11.975999999999999
 20
5.0
 10
12.212
 20
5.0
 10
12.448
 20
5.0
 10
12.684
 20
5.0
 10
12.919999999999998
 20
5.0
 10
13.155999999999999
 20
5.0
 10
13.392
 20
5.0
 10
13.628
 20
5.0
 10
13.864
 20
5.0
 10
14.1
 20
5.0
 10
14.335999999999999
 20
5.0
 10
14.572
 20
5.0
 10
14.808
 20
5.0
 10
15.044
 20
5.0
 10
15.28
 20
5.0
 10
15.515999999999998
 20
5.0
 10
15.751999999999999
 20
5.0
 10
15.988
 20
5.0
 10
16.224
 20
5.0
 10
16.46
 20
5.0
 10
16.695999999999998
 20
5.0
 10
16.932000000000002
 20
5.0
 10
17.168
 20
5.0
 10
17.404
 20
5.0
 10
17.64
 20
5.0
 10
17.875999999999998
 20
5.0
 10
18.112000000000002
 20
5.0
 10
18.348
 20
5.0
 10
18.584
 20
5.0
 10
18.82
 20
5.0
 10
19.056
 20
5.0
 10
19.292
 20
5.0
 10
19.528
 20
5.0
 10
19.764
 20
5.0
 10
20.0
 20
5.0
  0
LWPOLYLINE
  5
33
330
17
100
AcDbEntity
  8
0
100
AcDbPolyline
 90
51
 70
0
 10
30.8
 20
5.0
 10
30.348
 20
5.0
 10
29.896
 20
5.0
 10
29.444000000000003
 20
5.0
 10
28.992
 20
5.0
 10
28.54
 20
5.0
 10
28.088
 20
5.0
 10
27.636
 20
5.0
 10
27.184
 20
5.0
 10
26.732
 20
5.0
 10
26.28
 20
5.0
 10
25.828
 20
5.0
 10
25.375999999999998
 20
5.0
 10
24.924
 20
5.0
 10
24.472
 20
5.0
 10
24.02
 20
5.0
 10
23.568
 20
5.0
 10
23.116
 20
5.0
 10
22.664
 20
5.0
 10
22.212
 20
5.0
 10
21.76
 20
5.0
 10
21.308
 20
5.0
 10
20.856
 20
5.0
 10
20.404
 20
5.0
 10
19.951999999999998
 20
5.0
 10
19.5
 20
5.0
 10
19.048000000000002
 20
5.0
 10
18.596
 20
5.0
 10
18.144
 20
5.0
 10
17.692
 20
5.0
 10
17.240000000000002
 20
5.0
 10
16.788
 20
5.0
 10
16.336
 20
5.0
 10
15.883999999999999
 20
5.0
 10
15.431999999999999
 20
5.0
 10
14.98
 20
5.0
 10
14.527999999999999
 20
5.0
 10
14.076
 20
5.0
 10
13.623999999999999
 20
5.0
 10
13.172
 20
5.0
 10
12.720000000000002
 20
5.0
 10
12.268
 20
5.0
 10
11.815999999999999
 20
5.0
 10
11.364
 20
5.0
 10
10.911999999999999
 20
5.0
 10
10.459999999999997
 20
5.0
 10
10.008
 20
5.0
 10
9.556000000000001
 20
5.0
 10
9.103999999999996
 20
5.0
 10
8.651999999999997
 20
5.0
 10
8.2
 20
5.0
  0
LWPOLYLINE
  5
34
330
17
100
AcDbEntity
  8
0
100
AcDbPolyline
 90
51
 70
0
 10
8.2
 20
5.0
 10
8.2
 20
5.14
 10
8.2
 20
5.28
 10
8.2
 20
5.42
 10
8.2
 20
5.5600000000000005
 10
8.2
 20
5.7
 10
8.2
 20
5.84
 10
8.2
 20
5.98
 10
8.2
 20
6.12
 10
8.2
 20
6.26
 10
8.2
 20
6.4
 10
8.2
 20
6.54
 10
8.2
 20
6.68
 10
8.2
 20
6.82
 10
8.2
 20
6.96
 10
8.2
 20
7.1
 10
8.2
 20
7.24
 10
8.2
 20
7.38
 10
8.2
 20
7.52
 10
8.2
 20
7.66
 10
8.2
 20
7.8
 10
8.2
 20
7.9399999999999995
 10
8.2
 20
8.08
 10
8.2
 20
8.22
 10
8.2
 20
8.36
 10
8.2
 20
8.5
 10
8.200000000000001
 20
8.64
 10
8.200000000000001
 20
8.78
 10
8.200000000000001
 20
8.92
 10
8.200000000000001
 20
9.059999999999999
 10
8.200000000000001
 20
9.2
 10
8.200000000000001
 20
9.34
 10
8.200000000000001
 20
9.48
 10
8.200000000000001
 20
9.620000000000001
 10
8.200000000000001
 20
9.76
 10
8.200000000000001
 20
9.9
 10
8.200000000000001
 20
10.04
 10
8.200000000000001
 20
10.18
 10
8.200000000000001
 20
10.32
 10
8.200000000000001
 20
10.46
 10
8.200000000000001
 20
10.6
 10
8.200000000000001
 20
10.74
 10
8.200000000000001
 20
10.879999999999999
 10
8.200000000000001
 20
11.02
 10
8.200000000000001
 20
11.16
 10
8.200000000000001
 20
11.3
 10
8.200000000000001
 20
11.440000000000001
 10
8.200000000000001
 20
11.58
 10
8.200000000000001
 20
11.719999999999999
 10
8.200000000000001
 20
11.86
 10
8.200000000000001
 20
12.0
  0
LWPOLYLINE
  5
35
330
17
100
AcDbEntity
  8
0
100
AcDbPolyline
 90
51
 70
0
 10
8.2
 20
11.999999999999998
 10
8.1861870989979
 20
12.439533636705189
 10
8.144802909201346
 20
12.877332634950129
 10
8.076010755100821
 20
13.31166920210007
 10
7.980082127900418
 20
13.740829210153985
 10
7.857395614066076
 20
14.16311896062463
 10
7.708435401217761
 20
14.576871868792741
 10
7.533789367262137
 20
14.980455040955508
 10
7.334146760307047
 20
15.372275718712004
 10
7.110295478514105
 20
15.750787564852978
 10
6.863118960624633
 20
16.11449676604731
 10
6.593592699430527
 20
16.461967928240824
 10
6.302780391949881
 20
16.79182974150082
 10
5.991829741500823
 20
17.102780391949878
 10
5.661967928240828
 20
17.393592699430528
 10
5.314496766047314
 20
17.66311896062463
 10
4.95078756485298
 20
17.910295478514104
 10
4.5722757187120076
 20
18.134146760307047
 10
4.180455040955511
 20
18.333789367262135
 10
3.776871868792745
 20
18.50843540121776
 10
3.363118960624634
 20
18.657395614066075
 10
2.940829210153988
 20
18.780082127900418
 10
2.511669202100073
 20
18.876010755100822
 10
2.0773326349501327
 20
18.944802909201343
 10
1.6395336367051931
 20
18.986187098997902
 10
1.2000000000000022
 20
19.0
 10
0.760466363294811
 20
18.986187098997902
 10
0.32266736504987115
 20
18.944802909201346
 10
-0.11166920210006914
 20
18.876010755100822
 10
-0.5408292101539838
 20
18.780082127900418
 10
-0.96311896062463
 20
18.657395614066075
 10
-1.376871868792741
 20
18.50843540121776
 10
-1.7804550409555076
 20
18.333789367262135
 10
-2.172275718712009
 20
18.134146760307043
 10
-2.5507875648529765
 20
17.910295478514104
 10
-2.91449676604731
 20
17.663118960624633
 10
-3.261967928240824
 20
17.393592699430528
 10
-3.5918297415008205
 20
17.10278039194988
 10
-3.9027803919498787
 20
16.791829741500823
 10
-4.193592699430525
 20
16.461967928240828
 10
-4.46311896062463
 20
16.114496766047314
 10
-4.710295478514103
 20
15.750787564852981
 10
-4.934146760307045
 20
15.372275718712007
 10
-5.1337893672621355
 20
14.980455040955512
 10
-5.30843540121776
 20
14.576871868792747
 10
-5.457395614066074
 20
14.163118960624635
 10
-5.5800821279004165
 20
13.740829210153988
 10
-5.67601075510082
 20
13.311669202100074
 10
-5.744802909201344
 20
12.877332634950134
 10
-5.7861870989979005
 20
12.439533636705194
 10
-5.8
 20
12.000000000000002
  0
LWPOLYLINE
  5
36
330
17
100
AcDbEntity
  8
0
100
AcDbPolyline
 90
51
 70
0
 10
-5.8
 20
12.0
 10
-5.8
 20
11.76
 10
-5.8
 20
11.52
 10
-5.8
 20
11.28
 10
-5.8
 20
11.04
 10
-5.8
 20
10.8
 10
-5.8
 20
10.56
 10
-5.8
 20
10.32
 10
-5.8
 20
10.08
 10
-5.8
 20
9.84
 10
-5.8
 20
9.6
 10
-5.8
 20
9.36
 10
-5.8
 20
9.120000000000001
 10
-5.8
 20
8.879999999999999
 10
-5.8
 20
8.64
 10
-5.8
 20
8.4
 10
-5.8
 20
8.16
 10
-5.8
 20
7.92
 10
-5.8
 20
7.68
 10
-5.8
 20
7.44
 10
-5.8
 20
7.2
 10
-5.8
 20
6.96
 10
-5.8
 20
6.72
 10
-5.8
 20
6.48
 10
-5.8
 20
6.24
 10
-5.800000000000001
 20
6.0
 10
-5.800000000000001
 20
5.76
 10
-5.800000000000001
 20
5.52
 10
-5.800000000000001
 20
5.28
 10
-5.800000000000001
 20
5.04
 10
-5.800000000000001
 20
4.8
 10
-5.800000000000001
 20
4.56
 10
-5.800000000000001
 20
4.32
 10
-5.800000000000001
 20
4.08
 10
-5.800000000000001
 20
3.84
 10
-5.800000000000001
 20
3.5999999999999996
 10
-5.800000000000001
 20
3.3599999999999994
 10
-5.800000000000001
 20
3.119999999999999
 10
-5.800000000000001
 20
2.880000000000001
 10
-5.800000000000001
 20
2.6400000000000006
 10
-5.800000000000001
 20
2.4000000000000004
 10
-5.800000000000001
 20
2.16
 10
-5.800000000000001
 20
1.92
 10
-5.800000000000001
 20
1.6799999999999997
 10
-5.800000000000001
 20
1.4399999999999995
 10
-5.800000000000001
 20
1.1999999999999993
 10
-5.800000000000001
 20
0.9600000000000009
 10
-5.800000000000001
 20
0.7200000000000006
 10
-5.800000000000001
 20
0.4800000000000004
 10
-5.800000000000001
 20
0.2400000000000002
 10
-5.800000000000001
 20
0.0
  0
LWPOLYLINE
  5
37
330
17
100
AcDbEntity
  8
0
100
AcDbPolyline
 90
51
 70
0
 10
1.2000000000000002
 20
16.0
 10
0.6986670657427831
 20
15.968458805257912
 10
0.205240451340581
 20
15.874332644514524
 10
-0.2724982107387115
 20
15.719105943553005
 10
-0.7270146964068611
 20
15.505226720175454
 10
-1.1511410091698926
 20
15.23606797749979
 10
-1.5381884237147545
 20
14.915874509685647
 10
-1.882052971103157
 20
14.549695958994759
 10
-2.17731170200806
 20
14.143307179915986
 10
-2.419308209864078
 20
13.703117166260292
 10
-2.6042260651806144
 20
13.23606797749979
 10
-2.7291490029147543
 20
12.7495252583429
 10
-2.792106913713086
 20
12.251162078117254
 10
-2.792106913713086
 20
11.748837921882746
 10
-2.729149002914755
 20
11.250474741657102
 10
-2.6042260651806144
 20
10.763932022500212
 10
-2.419308209864078
 20
10.296882833739708
 10
-2.17731170200806
 20
9.856692820084012
 10
-1.882052971103157
 20
9.450304041005241
 10
-1.5381884237147554
 20
9.084125490314355
 10
-1.151141009169893
 20
8.76393202250021
 10
-0.7270146964068611
 20
8.494773279824546
 10
-0.27249821073871283
 20
8.280894056446995
 10
0.20524045134057878
 20
8.125667355485476
 10
0.6986670657427816
 20
8.03154119474209
 10
1.1999999999999993
 20
8.0
 10
1.7013329342572168
 20
8.031541194742088
 10
2.194759548659418
 20
8.125667355485476
 10
2.6724982107387114
 20
8.280894056446995
 10
3.127014696406861
 20
8.494773279824546
 10
3.551141009169891
 20
8.763932022500208
 10
3.9381884237147533
 20
9.084125490314353
 10
4.282052971103157
 20
9.450304041005243
 10
4.577311702008061
 20
9.856692820084014
 10
4.819308209864079
 20
10.296882833739712
 10
5.004226065180614
 20
10.76393202250021
 10
5.129149002914755
 20
11.2504747416571
 10
5.192106913713086
 20
11.748837921882746
 10
5.192106913713086
 20
12.25116207811725
 10
5.129149002914755
 20
12.749525258342898
 10
5.004226065180615
 20
13.236067977499788
 10
4.819308209864079
 20
13.703117166260288
 10
4.57731170200806
 20
14.143307179915986
 10
4.282052971103158
 20
14.549695958994757
 10
3.938188423714756
 20
14.915874509685645
 10
3.5511410091698936
 20
15.23606797749979
 10
3.1270146964068646
 20
15.505226720175452
 10
2.672498210738712
 20
15.719105943553005
 10
2.1947595486594214
 20
15.874332644514524
 10
1.7013329342572188
 20
15.96845880525791
 10
1.200000000000001
 20
16.0
  0
ENDSEC
  0
SECTION
  2
OBJECTS
  0
DICTIONARY
  5
A
330
0
100
AcDbDictionary
280
0
281
1
  3
ACAD_COLOR
350
B
  3
ACAD_GROUP
350
C
  3
ACAD_LAYOUT
350
D
  3
ACAD_MATERIAL
350
E
  3
ACAD_MLEADERSTYLE
350
F
  3
ACAD_MLINESTYLE
350
10
  3
ACAD_PLOTSETTINGS
350
11
  3
ACAD_PLOTSTYLENAME
350
12
  3
ACAD_SCALELIST
350
14
  3
ACAD_TABLESTYLE
350
15
  3
ACAD_VISUALSTYLE
350
16
  3
EZDXF_META
350
2D
  0
DICTIONARY
  5
B
330
A
100
AcDbDictionary
280
0
281
1
  0
DICTIONARY
  5
C
330
A
100
AcDbDictionary
280
0
281
1
  0
DICTIONARY
  5
D
330
A
100
AcDbDictionary
280
0
281
1
  3
Model
350
1A
  3
Layout1
350
1E
  0
DICTIONARY
  5
E
330
A
100
AcDbDictionary
280
0
281
1
  3
ByBlock
350
1F
  3
ByLayer
350
20
  3
Global
350
21
  0
DICTIONARY
  5
F
330
A
100
AcDbDictionary
280
0
281
1
  3
Standard
350
2C
  0
DICTIONARY
  5
10
330
A
100
AcDbDictionary
280
0
281
1
  3
Standard
350
22
  0
DICTIONARY
  5
11
330
A
100
AcDbDictionary
280
0
281
1
  0
ACDBDICTIONARYWDFLT
  5
12
330
A
100
AcDbDictionary
280
0
281
1
  3
Normal
350
13
100
AcDbDictionaryWithDefault
340
13
  0
ACDBPLACEHOLDER
  5
13
330
12
  0
DICTIONARY
  5
14
330
A
100
AcDbDictionary
280
0
281
1
  0
DICTIONARY
  5
15
330
A
100
AcDbDictionary
280
0
281
1
  0
DICTIONARY
  5
16
330
A
100
AcDbDictionary
280
0
281
1
  0
LAYOUT
  5
1A
330
D
100
AcDbPlotSettings
  1

  2
Adobe PDF
  4
A3
  6

 40
7.5
 41
20.0
 42
7.5
 43
20.0
 44
420.0
 45
297.0
 46
0.0
 47
0.0
 48
0.0
 49
0.0
140
0.0
141
0.0
142
1.0
143
1.0
 70
1024
 72
1
 73
0
 74
5
  7

 75
16
 76
0
 77
2
 78
300
147
1.0
148
0.0
149
0.0
100
AcDbLayout
  1
Model
 70
1
 71
0
 10
0.0
 20
0.0
 11
420.0
 21
297.0
 12
0.0
 22
0.0
 32
0.0
 14
1e+20
 24
1e+20
 34
1e+20
 15
-1e+20
 25
-1e+20
 35
-1e+20
146
0.0
 13
0.0
 23
0.0
 33
0.0
 16
1.0
 26
0.0
 36
0.0
 17
0.0
 27
1.0
 37
0.0
 76
1
330
17
  0
LAYOUT
  5
1E
330
D
100
AcDbPlotSettings
  1

  2
Adobe PDF
  4
A3
  6

 40
7.5
 41
20.0
 42
7.5
 43
20.0
 44
420.0
 45
297.0
 46
0.0
 47
0.0
 48
0.0
 49
0.0
140
0.0
141
0.0
142
1.0
143
1.0
 70
0
 72
1
 73
0
 74
5
  7

 75
16
 76
0
 77
2
 78
300
147
1.0
148
0.0
149
0.0
100
AcDbLayout
  1
Layout1
 70
1
 71
1
 10
0.0
 20
0.0
 11
420.0
 21
297.0
 12
0.0
 22
0.0
 32
0.0
 14
1e+20
 24
1e+20
 34
1e+20
 15
-1e+20
 25
-1e+20
 35
-1e+20
146
0.0
 13
0.0
 23
0.0
 33
0.0
 16
1.0
 26
0.0
 36
0.0
 17
0.0
 27
1.0
 37
0.0
 76
1
330
1B
  0
MATERIAL
  5
1F
102
{ACAD_REACTORS
330
E
102
}
330
E
100
AcDbMaterial
  1
ByBlock
  2

 70
0
 40
1.0
 71
1
 41
1.0
 91
-1023410177
 42
1.0
 72
1
  3

 73
1
 74
1
 75
1
 44
0.5
 73
0
 45
1.0
 46
1.0
 77
1
  4

 78
1
 79
1
170
1
 48
1.0
171
1
  6

172
1
173
1
174
1
140
1.0
141
1.0
175
1
  7

176
1
177
1
178
1
143
1.0
179
1
  8

270
1
271
1
272
1
145
1.0
146
1.0
273
1
  9

274
1
275
1
276
1
 42
1.0
 72
1
  3

 73
1
 74
1
 75
1
 94
63
  0
MATERIAL
  5
20
102
{ACAD_REACTORS
330
E
102
}
330
E
100
AcDbMaterial
  1
ByLayer
  2

 70
0
 40
1.0
 71
1
 41
1.0
 91
-1023410177
 42
1.0
 72
1
  3

 73
1
 74
1
 75
1
 44
0.5
 73
0
 45
1.0
 46
1.0
 77
1
  4

 78
1
 79
1
170
1
 48
1.0
171
1
  6

172
1
173
1
174
1
140
1.0
141
1.0
175
1
  7

176
1
177
1
178
1
143
1.0
179
1
  8

270
1
271
1
272
1
145
1.0
146
1.0
273
1
  9

274
1
275
1
276
1
 42
1.0
 72
1
  3

 73
1
 74
1
 75
1
 94
63
  0
MATERIAL
  5
21
102
{ACAD_REACTORS
330
E
102
}
330
E
100
AcDbMaterial
  1
Global
  2

 70
0
 40
1.0
 71
1
 41
1.0
 91
-1023410177
 42
1.0
 72
1
  3

 73
1
 74
1
 75
1
 44
0.5
 73
0
 45
1.0
 46
1.0
 77
1
  4

 78
1
 79
1
170
1
 48
1.0
171
1
  6

172
1
173
1
174
1
140
1.0
141
1.0
175
1
  7

176
1
177
1
178
1
143
1.0
179
1
  8

270
1
271
1
272
1
145
1.0
146
1.0
273
1
  9

274
1
275
1
276
1
 42
1.0
 72
1
  3

 73
1
 74
1
 75
1
 94
63
  0
MLINESTYLE
  5
22
102
{ACAD_REACTORS
330
10
102
}
330
10
100
AcDbMlineStyle
  2
Standard
 70
0
  3

 62
256
 51
90.0
 52
90.0
 71
2
 49
0.5
 62
256
  6
BYLAYER
 49
-0.5
 62
256
  6
BYLAYER
  0
MLEADERSTYLE
  5
2C
102
{ACAD_REACTORS
330
F
102
}
330
F
100
AcDbMLeaderStyle
179
2
170
2
171
1
172
0
 90
2
 40
0.0
 41
0.0
173
1
 91
-1056964608
 92
-2
290
1
 42
2.0
291
1
 43
8.0
  3
Standard
 44
4.0
300

342
29
174
1
175
1
176
0
178
1
 93
-1056964608
 45
4.0
292
0
297
0
 46
4.0
 94
-1056964608
 47
1.0
 49
1.0
140
1.0
294
1
141
0.0
177
0
142
1.0
295
0
296
0
143
3.75
271
0
272
9
273
9
  0
DICTIONARY
  5
2D
330
A
100
AcDbDictionary
281
1
  3
CREATED_BY_EZDXF
350
2E
  3
WRITTEN_BY_EZDXF
350
3A
  0
DICTIONARYVAR
  5
2E
330
2D
100
DictionaryVariables
280
0
  1
1.0.3 @ 2025-05-29T09:38:41.287562+00:00
  0
DICTIONARYVAR
  5
3A
330
2D
100
DictionaryVariables
280
0
  1
1.0.3 @ 2025-05-29T09:38:41.290573+00:00
  0
ENDSEC
  0
EOF
