  0
SECTION
  2
HEADER
  9
$ACADVER
  1
AC1027
  9
$ACADMAINTVER
 70
105
  9
$DWGCODEPAGE
  3
ANSI_1252
  9
$LASTSAVEDBY
  1
ezdxf
  9
$REQUIREDVERSIONS
160
0
  9
$INSBASE
 10
0.0
 20
0.0
 30
0.0
  9
$EXTMIN
 10
1e+20
 20
1e+20
 30
1e+20
  9
$EXTMAX
 10
-1e+20
 20
-1e+20
 30
-1e+20
  9
$LIMMIN
 10
0.0
 20
0.0
  9
$LIMMAX
 10
420.0
 20
297.0
  9
$ORTHOMODE
 70
0
  9
$REGENMODE
 70
1
  9
$FILLMODE
 70
1
  9
$QTEXTMODE
 70
0
  9
$MIRRTEXT
 70
1
  9
$LTSCALE
 40
1.0
  9
$ATTMODE
 70
1
  9
$TEXTSIZE
 40
2.5
  9
$TRACEWID
 40
1.0
  9
$TEXTSTYLE
  7
Standard
  9
$CLAYER
  8
0
  9
$CELTYPE
  6
ByLayer
  9
$CECOLOR
 62
256
  9
$CELTSCALE
 40
1.0
  9
$DISPSILH
 70
0
  9
$DIMSCALE
 40
1.0
  9
$DIMASZ
 40
2.5
  9
$DIMEXO
 40
0.625
  9
$DIMDLI
 40
3.75
  9
$DIMRND
 40
0.0
  9
$DIMDLE
 40
0.0
  9
$DIMEXE
 40
1.25
  9
$DIMTP
 40
0.0
  9
$DIMTM
 40
0.0
  9
$DIMTXT
 40
2.5
  9
$DIMCEN
 40
2.5
  9
$DIMTSZ
 40
0.0
  9
$DIMTOL
 70
0
  9
$DIMLIM
 70
0
  9
$DIMTIH
 70
0
  9
$DIMTOH
 70
0
  9
$DIMSE1
 70
0
  9
$DIMSE2
 70
0
  9
$DIMTAD
 70
1
  9
$DIMZIN
 70
8
  9
$DIMBLK
  1

  9
$DIMASO
 70
1
  9
$DIMSHO
 70
1
  9
$DIMPOST
  1

  9
$DIMAPOST
  1

  9
$DIMALT
 70
0
  9
$DIMALTD
 70
3
  9
$DIMALTF
 40
0.03937007874
  9
$DIMLFAC
 40
1.0
  9
$DIMTOFL
 70
1
  9
$DIMTVP
 40
0.0
  9
$DIMTIX
 70
0
  9
$DIMSOXD
 70
0
  9
$DIMSAH
 70
0
  9
$DIMBLK1
  1

  9
$DIMBLK2
  1

  9
$DIMSTYLE
  2
ISO-25
  9
$DIMCLRD
 70
0
  9
$DIMCLRE
 70
0
  9
$DIMCLRT
 70
0
  9
$DIMTFAC
 40
1.0
  9
$DIMGAP
 40
0.625
  9
$DIMJUST
 70
0
  9
$DIMSD1
 70
0
  9
$DIMSD2
 70
0
  9
$DIMTOLJ
 70
0
  9
$DIMTZIN
 70
8
  9
$DIMALTZ
 70
0
  9
$DIMALTTZ
 70
0
  9
$DIMUPT
 70
0
  9
$DIMDEC
 70
2
  9
$DIMTDEC
 70
2
  9
$DIMALTU
 70
2
  9
$DIMALTTD
 70
3
  9
$DIMTXSTY
  7
Standard
  9
$DIMAUNIT
 70
0
  9
$DIMADEC
 70
0
  9
$DIMALTRND
 40
0.0
  9
$DIMAZIN
 70
0
  9
$DIMDSEP
 70
44
  9
$DIMATFIT
 70
3
  9
$DIMFRAC
 70
0
  9
$DIMLDRBLK
  1

  9
$DIMLUNIT
 70
2
  9
$DIMLWD
 70
-2
  9
$DIMLWE
 70
-2
  9
$DIMTMOVE
 70
0
  9
$DIMFXL
 40
1.0
  9
$DIMFXLON
 70
0
  9
$DIMJOGANG
 40
0.785398163397
  9
$DIMTFILL
 70
0
  9
$DIMTFILLCLR
 70
0
  9
$DIMARCSYM
 70
0
  9
$DIMLTYPE
  6

  9
$DIMLTEX1
  6

  9
$DIMLTEX2
  6

  9
$DIMTXTDIRECTION
 70
0
  9
$LUNITS
 70
2
  9
$LUPREC
 70
4
  9
$SKETCHINC
 40
1.0
  9
$FILLETRAD
 40
10.0
  9
$AUNITS
 70
0
  9
$AUPREC
 70
2
  9
$MENU
  1
.
  9
$ELEVATION
 40
0.0
  9
$PELEVATION
 40
0.0
  9
$THICKNESS
 40
0.0
  9
$LIMCHECK
 70
0
  9
$CHAMFERA
 40
0.0
  9
$CHAMFERB
 40
0.0
  9
$CHAMFERC
 40
0.0
  9
$CHAMFERD
 40
0.0
  9
$SKPOLY
 70
0
  9
$TDCREATE
 40
2460825.776886574
  9
$TDUCREATE
 40
2458532.153996898
  9
$TDUPDATE
 40
2460825.776886574
  9
$TDUUPDATE
 40
2458532.1544311
  9
$TDINDWG
 40
0.0
  9
$TDUSRTIMER
 40
0.0
  9
$USRTIMER
 70
1
  9
$ANGBASE
 50
0.0
  9
$ANGDIR
 70
0
  9
$PDMODE
 70
0
  9
$PDSIZE
 40
0.0
  9
$PLINEWID
 40
0.0
  9
$SPLFRAME
 70
0
  9
$SPLINETYPE
 70
6
  9
$SPLINESEGS
 70
8
  9
$HANDSEED
  5
3C
  9
$SURFTAB1
 70
6
  9
$SURFTAB2
 70
6
  9
$SURFTYPE
 70
6
  9
$SURFU
 70
6
  9
$SURFV
 70
6
  9
$UCSBASE
  2

  9
$UCSNAME
  2

  9
$UCSORG
 10
0.0
 20
0.0
 30
0.0
  9
$UCSXDIR
 10
1.0
 20
0.0
 30
0.0
  9
$UCSYDIR
 10
0.0
 20
1.0
 30
0.0
  9
$UCSORTHOREF
  2

  9
$UCSORTHOVIEW
 70
0
  9
$UCSORGTOP
 10
0.0
 20
0.0
 30
0.0
  9
$UCSORGBOTTOM
 10
0.0
 20
0.0
 30
0.0
  9
$UCSORGLEFT
 10
0.0
 20
0.0
 30
0.0
  9
$UCSORGRIGHT
 10
0.0
 20
0.0
 30
0.0
  9
$UCSORGFRONT
 10
0.0
 20
0.0
 30
0.0
  9
$UCSORGBACK
 10
0.0
 20
0.0
 30
0.0
  9
$PUCSBASE
  2

  9
$PUCSNAME
  2

  9
$PUCSORG
 10
0.0
 20
0.0
 30
0.0
  9
$PUCSXDIR
 10
1.0
 20
0.0
 30
0.0
  9
$PUCSYDIR
 10
0.0
 20
1.0
 30
0.0
  9
$PUCSORTHOREF
  2

  9
$PUCSORTHOVIEW
 70
0
  9
$PUCSORGTOP
 10
0.0
 20
0.0
 30
0.0
  9
$PUCSORGBOTTOM
 10
0.0
 20
0.0
 30
0.0
  9
$PUCSORGLEFT
 10
0.0
 20
0.0
 30
0.0
  9
$PUCSORGRIGHT
 10
0.0
 20
0.0
 30
0.0
  9
$PUCSORGFRONT
 10
0.0
 20
0.0
 30
0.0
  9
$PUCSORGBACK
 10
0.0
 20
0.0
 30
0.0
  9
$USERI1
 70
0
  9
$USERI2
 70
0
  9
$USERI3
 70
0
  9
$USERI4
 70
0
  9
$USERI5
 70
0
  9
$USERR1
 40
0.0
  9
$USERR2
 40
0.0
  9
$USERR3
 40
0.0
  9
$USERR4
 40
0.0
  9
$USERR5
 40
0.0
  9
$WORLDVIEW
 70
1
  9
$SHADEDGE
 70
3
  9
$SHADEDIF
 70
70
  9
$TILEMODE
 70
1
  9
$MAXACTVP
 70
64
  9
$PINSBASE
 10
0.0
 20
0.0
 30
0.0
  9
$PLIMCHECK
 70
0
  9
$PEXTMIN
 10
1e+20
 20
1e+20
 30
1e+20
  9
$PEXTMAX
 10
-1e+20
 20
-1e+20
 30
-1e+20
  9
$PLIMMIN
 10
0.0
 20
0.0
  9
$PLIMMAX
 10
420.0
 20
297.0
  9
$UNITMODE
 70
0
  9
$VISRETAIN
 70
1
  9
$PLINEGEN
 70
0
  9
$PSLTSCALE
 70
1
  9
$TREEDEPTH
 70
3020
  9
$CMLSTYLE
  2
Standard
  9
$CMLJUST
 70
0
  9
$CMLSCALE
 40
20.0
  9
$PROXYGRAPHICS
 70
1
  9
$MEASUREMENT
 70
1
  9
$CELWEIGHT
370
-1
  9
$ENDCAPS
280
0
  9
$JOINSTYLE
280
0
  9
$LWDISPLAY
290
0
  9
$INSUNITS
 70
6
  9
$HYPERLINKBASE
  1

  9
$STYLESHEET
  1

  9
$XEDIT
290
1
  9
$CEPSNTYPE
380
0
  9
$PSTYLEMODE
290
1
  9
$FINGERPRINTGUID
  2
{AC02C568-91CE-4FBA-9E26-96CB16052509}
  9
$VERSIONGUID
  2
{725DC482-9618-4CF4-B525-0C107D8EE8CD}
  9
$EXTNAMES
290
1
  9
$PSVPSCALE
 40
0.0
  9
$OLESTARTUP
290
0
  9
$SORTENTS
280
127
  9
$INDEXCTL
280
0
  9
$HIDETEXT
280
1
  9
$XCLIPFRAME
280
0
  9
$HALOGAP
280
0
  9
$OBSCOLOR
 70
257
  9
$OBSLTYPE
280
0
  9
$INTERSECTIONDISPLAY
280
0
  9
$INTERSECTIONCOLOR
 70
257
  9
$DIMASSOC
280
2
  9
$PROJECTNAME
  1

  9
$CAMERADISPLAY
290
0
  9
$LENSLENGTH
 40
50.0
  9
$CAMERAHEIGHT
 40
0.0
  9
$STEPSPERSEC
 40
24.0
  9
$STEPSIZE
 40
100.0
  9
$3DDWFPREC
 40
2.0
  9
$PSOLWIDTH
 40
0.005
  9
$PSOLHEIGHT
 40
0.08
  9
$LOFTANG1
 40
1.570796326795
  9
$LOFTANG2
 40
1.570796326795
  9
$LOFTMAG1
 40
0.0
  9
$LOFTMAG2
 40
0.0
  9
$LOFTPARAM
 70
7
  9
$LOFTNORMALS
280
1
  9
$LATITUDE
 40
37.795
  9
$LONGITUDE
 40
-122.394
  9
$NORTHDIRECTION
 40
0.0
  9
$TIMEZONE
 70
-8000
  9
$LIGHTGLYPHDISPLAY
280
1
  9
$TILEMODELIGHTSYNCH
280
1
  9
$CMATERIAL
347
20
  9
$SOLIDHIST
280
0
  9
$SHOWHIST
280
1
  9
$DWFFRAME
280
2
  9
$DGNFRAME
280
2
  9
$REALWORLDSCALE
290
1
  9
$INTERFERECOLOR
 62
256
  9
$CSHADOW
280
0
  9
$SHADOWPLANELOCATION
 40
0.0
  0
ENDSEC
  0
SECTION
  2
CLASSES
  0
CLASS
  1
ACDBDICTIONARYWDFLT
  2
AcDbDictionaryWithDefault
  3
ObjectDBX Classes
 90
0
 91
0
280
0
281
0
  0
CLASS
  1
SUN
  2
AcDbSun
  3
SCENEOE
 90
1153
 91
0
280
0
281
0
  0
CLASS
  1
VISUALSTYLE
  2
AcDbVisualStyle
  3
ObjectDBX Classes
 90
4095
 91
0
280
0
281
0
  0
CLASS
  1
MATERIAL
  2
AcDbMaterial
  3
ObjectDBX Classes
 90
1153
 91
0
280
0
281
0
  0
CLASS
  1
SCALE
  2
AcDbScale
  3
ObjectDBX Classes
 90
1153
 91
0
280
0
281
0
  0
CLASS
  1
TABLESTYLE
  2
AcDbTableStyle
  3
ObjectDBX Classes
 90
4095
 91
0
280
0
281
0
  0
CLASS
  1
MLEADERSTYLE
  2
AcDbMLeaderStyle
  3
ACDB_MLEADERSTYLE_CLASS
 90
4095
 91
0
280
0
281
0
  0
CLASS
  1
DICTIONARYVAR
  2
AcDbDictionaryVar
  3
ObjectDBX Classes
 90
0
 91
0
280
0
281
0
  0
CLASS
  1
CELLSTYLEMAP
  2
AcDbCellStyleMap
  3
ObjectDBX Classes
 90
1152
 91
0
280
0
281
0
  0
CLASS
  1
MENTALRAYRENDERSETTINGS
  2
AcDbMentalRayRenderSettings
  3
SCENEOE
 90
1024
 91
0
280
0
281
0
  0
CLASS
  1
ACDBDETAILVIEWSTYLE
  2
AcDbDetailViewStyle
  3
ObjectDBX Classes
 90
1025
 91
0
280
0
281
0
  0
CLASS
  1
ACDBSECTIONVIEWSTYLE
  2
AcDbSectionViewStyle
  3
ObjectDBX Classes
 90
1025
 91
0
280
0
281
0
  0
CLASS
  1
RASTERVARIABLES
  2
AcDbRasterVariables
  3
ISM
 90
0
 91
0
280
0
281
0
  0
CLASS
  1
LAYOUT
  2
AcDbLayout
  3
ObjectDBX Classes
 90
0
 91
0
280
0
281
0
  0
CLASS
  1
ACDBPLACEHOLDER
  2
AcDbPlaceHolder
  3
ObjectDBX Classes
 90
0
 91
0
280
0
281
0
  0
ENDSEC
  0
SECTION
  2
TABLES
  0
TABLE
  2
VPORT
  5
8
330
0
100
AcDbSymbolTable
 70
1
  0
VPORT
  5
23
330
8
100
AcDbSymbolTableRecord
100
AcDbViewportTableRecord
  2
*Active
 70
0
 10
0.0
 20
0.0
 11
1.0
 21
1.0
 12
0.0
 22
0.0
 13
0.0
 23
0.0
 14
0.5
 24
0.5
 15
0.5
 25
0.5
 16
0.0
 26
0.0
 36
1.0
 17
0.0
 27
0.0
 37
0.0
 40
1000.0
 41
1.34
 42
50.0
 43
0.0
 44
0.0
 50
0.0
 51
0.0
 71
0
 72
1000
 73
1
 74
3
 75
0
 76
0
 77
0
 78
0
281
0
 65
0
146
0.0
  0
ENDTAB
  0
TABLE
  2
LTYPE
  5
2
330
0
100
AcDbSymbolTable
 70
3
  0
LTYPE
  5
24
330
2
100
AcDbSymbolTableRecord
100
AcDbLinetypeTableRecord
  2
ByBlock
 70
0
  3

 72
65
 73
0
 40
0.0
  0
LTYPE
  5
25
330
2
100
AcDbSymbolTableRecord
100
AcDbLinetypeTableRecord
  2
ByLayer
 70
0
  3

 72
65
 73
0
 40
0.0
  0
LTYPE
  5
26
330
2
100
AcDbSymbolTableRecord
100
AcDbLinetypeTableRecord
  2
Continuous
 70
0
  3

 72
65
 73
0
 40
0.0
  0
ENDTAB
  0
TABLE
  2
LAYER
  5
1
330
0
100
AcDbSymbolTable
 70
2
  0
LAYER
  5
27
330
1
100
AcDbSymbolTableRecord
100
AcDbLayerTableRecord
  2
0
 70
0
 62
7
  6
Continuous
370
-3
390
13
347
21
  0
LAYER
  5
28
330
1
100
AcDbSymbolTableRecord
100
AcDbLayerTableRecord
  2
Defpoints
 70
0
 62
7
  6
Continuous
290
0
370
-3
390
13
347
21
  0
ENDTAB
  0
TABLE
  2
STYLE
  5
5
330
0
100
AcDbSymbolTable
 70
1
  0
STYLE
  5
29
330
5
100
AcDbSymbolTableRecord
100
AcDbTextStyleTableRecord
  2
Standard
 70
0
 40
0.0
 41
1.0
 50
0.0
 71
0
 42
2.5
  3
txt
  4

  0
ENDTAB
  0
TABLE
  2
VIEW
  5
7
330
0
100
AcDbSymbolTable
 70
0
  0
ENDTAB
  0
TABLE
  2
UCS
  5
6
330
0
100
AcDbSymbolTable
 70
0
  0
ENDTAB
  0
TABLE
  2
APPID
  5
3
330
0
100
AcDbSymbolTable
 70
3
  0
APPID
  5
2A
330
3
100
AcDbSymbolTableRecord
100
AcDbRegAppTableRecord
  2
ACAD
 70
0
  0
APPID
  5
39
330
3
100
AcDbSymbolTableRecord
100
AcDbRegAppTableRecord
  2
HATCHBACKGROUNDCOLOR
 70
0
  0
APPID
  5
3A
330
3
100
AcDbSymbolTableRecord
100
AcDbRegAppTableRecord
  2
EZDXF
 70
0
  0
ENDTAB
  0
TABLE
  2
DIMSTYLE
  5
4
330
0
100
AcDbSymbolTable
 70
1
100
AcDbDimStyleTable
  0
DIMSTYLE
105
2B
330
4
100
AcDbSymbolTableRecord
100
AcDbDimStyleTableRecord
  2
Standard
 70
0
 40
1.0
 41
2.5
 42
0.625
 43
3.75
 44
1.25
 45
0.0
 46
0.0
 47
0.0
 48
0.0
 49
2.5
140
2.5
141
2.5
142
0.0
143
0.03937007874
144
1.0
145
0.0
146
1.0
147
0.625
148
0.0
 69
0
 70
0
 71
0
 72
0
 73
0
 74
0
 75
0
 76
0
 77
1
 78
8
 79
3
170
0
171
3
172
1
173
0
174
0
175
0
176
0
177
0
178
0
179
2
271
2
272
2
273
2
274
3
275
0
276
0
277
2
278
44
279
0
280
0
281
0
282
0
283
0
284
8
285
0
286
0
288
0
289
3
290
0
371
-2
372
-2
  0
ENDTAB
  0
TABLE
  2
BLOCK_RECORD
  5
9
330
0
100
AcDbSymbolTable
 70
2
  0
BLOCK_RECORD
  5
17
330
9
100
AcDbSymbolTableRecord
100
AcDbBlockTableRecord
  2
*Model_Space
340
1A
 70
0
280
1
281
0
  0
BLOCK_RECORD
  5
1B
330
9
100
AcDbSymbolTableRecord
100
AcDbBlockTableRecord
  2
*Paper_Space
340
1E
 70
0
280
1
281
0
  0
ENDTAB
  0
ENDSEC
  0
SECTION
  2
BLOCKS
  0
BLOCK
  5
18
330
17
100
AcDbEntity
  8
0
100
AcDbBlockBegin
  2
*Model_Space
 70
0
 10
0.0
 20
0.0
 30
0.0
  3
*Model_Space
  1

  0
ENDBLK
  5
19
330
17
100
AcDbEntity
  8
0
100
AcDbBlockEnd
  0
BLOCK
  5
1C
330
1B
100
AcDbEntity
  8
0
100
AcDbBlockBegin
  2
*Paper_Space
 70
0
 10
0.0
 20
0.0
 30
0.0
  3
*Paper_Space
  1

  0
ENDBLK
  5
1D
330
1B
100
AcDbEntity
  8
0
100
AcDbBlockEnd
  0
ENDSEC
  0
SECTION
  2
ENTITIES
  0
LWPOLYLINE
  5
2F
330
17
100
AcDbEntity
  8
0
100
AcDbPolyline
 90
51
 70
0
 10
7.9
 20
12.0
 10
7.9
 20
11.76
 10
7.9
 20
11.52
 10
7.9
 20
11.28
 10
7.9
 20
11.04
 10
7.9
 20
10.8
 10
7.9
 20
10.56
 10
7.9
 20
10.32
 10
7.9
 20
10.08
 10
7.9
 20
9.84
 10
7.9
 20
9.6
 10
7.9
 20
9.36
 10
7.9
 20
9.120000000000001
 10
7.9
 20
8.879999999999999
 10
7.9
 20
8.64
 10
7.9
 20
8.4
 10
7.9
 20
8.16
 10
7.9
 20
7.92
 10
7.9
 20
7.68
 10
7.9
 20
7.44
 10
7.9
 20
7.2
 10
7.9
 20
6.96
 10
7.9
 20
6.72
 10
7.9
 20
6.48
 10
7.9
 20
6.24
 10
7.900000000000001
 20
6.0
 10
7.900000000000001
 20
5.76
 10
7.900000000000001
 20
5.52
 10
7.900000000000001
 20
5.28
 10
7.900000000000001
 20
5.04
 10
7.900000000000001
 20
4.8
 10
7.900000000000001
 20
4.56
 10
7.900000000000001
 20
4.32
 10
7.900000000000001
 20
4.08
 10
7.900000000000001
 20
3.84
 10
7.900000000000001
 20
3.5999999999999996
 10
7.900000000000001
 20
3.3599999999999994
 10
7.900000000000001
 20
3.119999999999999
 10
7.900000000000001
 20
2.880000000000001
 10
7.900000000000001
 20
2.6400000000000006
 10
7.900000000000001
 20
2.4000000000000004
 10
7.900000000000001
 20
2.16
 10
7.900000000000001
 20
1.92
 10
7.900000000000001
 20
1.6799999999999997
 10
7.900000000000001
 20
1.4399999999999995
 10
7.900000000000001
 20
1.1999999999999993
 10
7.900000000000001
 20
0.9600000000000009
 10
7.900000000000001
 20
0.7200000000000006
 10
7.900000000000001
 20
0.4800000000000004
 10
7.900000000000001
 20
0.2400000000000002
 10
7.900000000000001
 20
0.0
  0
LWPOLYLINE
  5
30
330
17
100
AcDbEntity
  8
0
100
AcDbPolyline
 90
51
 70
0
 10
-6.1
 20
5.0
 10
-6.1
 20
5.14
 10
-6.1
 20
5.28
 10
-6.1
 20
5.42
 10
-6.1
 20
5.5600000000000005
 10
-6.1
 20
5.7
 10
-6.1
 20
5.84
 10
-6.1
 20
5.98
 10
-6.1
 20
6.12
 10
-6.1
 20
6.26
 10
-6.1
 20
6.4
 10
-6.1
 20
6.54
 10
-6.1
 20
6.68
 10
-6.1000000000000005
 20
6.82
 10
-6.1000000000000005
 20
6.96
 10
-6.1000000000000005
 20
7.1
 10
-6.1000000000000005
 20
7.24
 10
-6.1000000000000005
 20
7.38
 10
-6.1000000000000005
 20
7.52
 10
-6.1000000000000005
 20
7.66
 10
-6.1000000000000005
 20
7.8
 10
-6.1000000000000005
 20
7.9399999999999995
 10
-6.1000000000000005
 20
8.08
 10
-6.1000000000000005
 20
8.22
 10
-6.1000000000000005
 20
8.36
 10
-6.1000000000000005
 20
8.5
 10
-6.1000000000000005
 20
8.64
 10
-6.1000000000000005
 20
8.78
 10
-6.1000000000000005
 20
8.92
 10
-6.1000000000000005
 20
9.059999999999999
 10
-6.1000000000000005
 20
9.2
 10
-6.1000000000000005
 20
9.34
 10
-6.1000000000000005
 20
9.48
 10
-6.1000000000000005
 20
9.620000000000001
 10
-6.1000000000000005
 20
9.76
 10
-6.1000000000000005
 20
9.9
 10
-6.1000000000000005
 20
10.04
 10
-6.1000000000000005
 20
10.18
 10
-6.1000000000000005
 20
10.32
 10
-6.100000000000001
 20
10.46
 10
-6.100000000000001
 20
10.6
 10
-6.100000000000001
 20
10.74
 10
-6.100000000000001
 20
10.879999999999999
 10
-6.100000000000001
 20
11.02
 10
-6.100000000000001
 20
11.16
 10
-6.100000000000001
 20
11.3
 10
-6.100000000000001
 20
11.440000000000001
 10
-6.100000000000001
 20
11.58
 10
-6.100000000000001
 20
11.719999999999999
 10
-6.100000000000001
 20
11.86
 10
-6.100000000000001
 20
12.0
  0
LWPOLYLINE
  5
31
330
17
100
AcDbEntity
  8
0
100
AcDbPolyline
 90
51
 70
0
 10
-6.099999999999999
 20
11.999999999999998
 10
-6.0861870989978994
 20
12.439533636705189
 10
-6.044802909201344
 20
12.877332634950129
 10
-5.97601075510082
 20
13.31166920210007
 10
-5.880082127900416
 20
13.740829210153985
 10
-5.757395614066074
 20
14.16311896062463
 10
-5.6084354012177595
 20
14.576871868792741
 10
-5.433789367262135
 20
14.980455040955508
 10
-5.234146760307046
 20
15.372275718712004
 10
-5.010295478514103
 20
15.750787564852978
 10
-4.763118960624632
 20
16.11449676604731
 10
-4.4935926994305255
 20
16.461967928240824
 10
-4.202780391949879
 20
16.79182974150082
 10
-3.891829741500821
 20
17.102780391949878
 10
-3.5619679282408265
 20
17.393592699430528
 10
-3.2144967660473123
 20
17.66311896062463
 10
-2.850787564852979
 20
17.910295478514104
 10
-2.472275718712007
 20
18.134146760307047
 10
-2.0804550409555107
 20
18.333789367262135
 10
-1.6768718687927444
 20
18.50843540121776
 10
-1.2631189606246334
 20
18.657395614066075
 10
-0.8408292101539869
 20
18.780082127900418
 10
-0.4116692021000723
 20
18.876010755100822
 10
0.022667365049868105
 20
18.944802909201343
 10
0.4604663632948077
 20
18.986187098997902
 10
0.8999999999999989
 20
19.0
 10
1.33953363670519
 20
18.986187098997902
 10
1.7773326349501297
 20
18.944802909201346
 10
2.21166920210007
 20
18.876010755100822
 10
2.640829210153985
 20
18.780082127900418
 10
3.0631189606246307
 20
18.657395614066075
 10
3.476871868792742
 20
18.50843540121776
 10
3.8804550409555087
 20
18.333789367262135
 10
4.27227571871201
 20
18.134146760307043
 10
4.650787564852977
 20
17.910295478514104
 10
5.014496766047311
 20
17.663118960624633
 10
5.3619679282408255
 20
17.393592699430528
 10
5.691829741500822
 20
17.10278039194988
 10
6.00278039194988
 20
16.791829741500823
 10
6.293592699430526
 20
16.461967928240828
 10
6.563118960624632
 20
16.114496766047314
 10
6.810295478514105
 20
15.750787564852981
 10
7.034146760307046
 20
15.372275718712007
 10
7.233789367262137
 20
14.980455040955512
 10
7.408435401217761
 20
14.576871868792747
 10
7.557395614066076
 20
14.163118960624635
 10
7.680082127900418
 20
13.740829210153988
 10
7.776010755100821
 20
13.311669202100074
 10
7.844802909201346
 20
12.877332634950134
 10
7.886187098997902
 20
12.439533636705194
 10
7.900000000000001
 20
12.000000000000002
  0
LWPOLYLINE
  5
32
330
17
100
AcDbEntity
  8
0
100
AcDbPolyline
 90
51
 70
0
 10
7.9
 20
5.61328761250479e-16
 10
7.0840000000000005
 20
5.033484740124549e-16
 10
6.268000000000001
 20
4.453681867744307e-16
 10
5.452
 20
3.873878995364065e-16
 10
4.636000000000001
 20
3.2940761229838244e-16
 10
3.8200000000000003
 20
2.714273250603582e-16
 10
3.0040000000000004
 20
2.1344703782233405e-16
 10
2.1880000000000006
 20
1.5546675058430992e-16
 10
1.3720000000000008
 20
9.748646334628577e-17
 10
0.5560000000000009
 20
3.9506176108261625e-17
 10
-0.2599999999999998
 20
-1.8474111129762582e-17
 10
-1.0759999999999987
 20
-7.645439836778666e-17
 10
-1.8919999999999995
 20
-1.3443468560581088e-16
 10
-2.7079999999999984
 20
-1.9241497284383496e-16
 10
-3.523999999999999
 20
-2.5039526008185916e-16
 10
-4.34
 20
-3.083755473198834e-16
 10
-5.155999999999999
 20
-3.6635583455790747e-16
 10
-5.971999999999998
 20
-4.2433612179593155e-16
 10
-6.7879999999999985
 20
-4.823164090339558e-16
 10
-7.603999999999997
 20
-5.402966962719799e-16
 10
-8.42
 20
-5.982769835100041e-16
 10
-9.235999999999999
 20
-6.562572707480282e-16
 10
-10.051999999999998
 20
-7.142375579860523e-16
 10
-10.868
 20
-7.722178452240767e-16
 10
-11.684
 20
-8.301981324621008e-16
 10
-12.499999999999998
 20
-8.881784197001248e-16
 10
-13.315999999999997
 20
-9.461587069381488e-16
 10
-14.131999999999996
 20
-1.004138994176173e-15
 10
-14.947999999999999
 20
-1.0621192814141974e-15
 10
-15.763999999999998
 20
-1.1200995686522214e-15
 10
-16.58
 20
-1.1780798558902455e-15
 10
-17.396
 20
-1.23606014312827e-15
 10
-18.211999999999996
 20
-1.2940404303662937e-15
 10
-19.028
 20
-1.352020717604318e-15
 10
-19.843999999999994
 20
-1.4100010048423419e-15
 10
-20.659999999999997
 20
-1.4679812920803662e-15
 10
-21.476
 20
-1.5259615793183906e-15
 10
-22.291999999999994
 20
-1.5839418665564144e-15
 10
-23.107999999999997
 20
-1.6419221537944388e-15
 10
-23.924
 20
-1.6999024410324632e-15
 10
-24.740000000000002
 20
-1.7578827282704873e-15
 10
-25.555999999999997
 20
-1.8158630155085113e-15
 10
-26.372
 20
-1.8738433027465355e-15
 10
-27.187999999999995
 20
-1.9318235899845593e-15
 10
-28.003999999999998
 20
-1.989803877222584e-15
 10
-28.82
 20
-2.047784164460608e-15
 10
-29.636000000000003
 20
-2.1057644516986326e-15
 10
-30.451999999999998
 20
-2.1637447389366564e-15
 10
-31.268
 20
-2.2217250261746806e-15
 10
-32.083999999999996
 20
-2.2797053134127044e-15
 10
-32.9
 20
-2.337685600650729e-15
  0
LWPOLYLINE
  5
33
330
17
100
AcDbEntity
  8
0
100
AcDbPolyline
 90
51
 70
0
 10
4.900000000000001
 20
12.0
 10
4.882247858412321
 20
11.623566746725944
 10
4.829149002914756
 20
11.250474741657102
 10
4.7411747427077735
 20
10.884035575843084
 10
4.619105943553007
 20
10.527501789261288
 10
4.464026096753472
 20
10.184038001041813
 10
4.2773117020080615
 20
9.856692820084014
 10
4.060620049502763
 20
9.548371785388095
 10
3.8158745096856466
 20
9.261811576285245
 10
3.5452474612946085
 20
8.999555721478162
 10
3.251141009169894
 20
8.76393202250021
 10
2.9361656630014856
 20
8.557031891984225
 10
2.6031171662602928
 20
8.380691790135923
 10
2.2549516809811667
 20
8.236476924183098
 10
1.8947595486594206
 20
8.125667355485476
 10
1.525737860160925
 20
8.049246637619449
 10
1.1511620781172556
 20
8.007893086286913
 10
0.7743569636874893
 20
8.001973758537073
 10
0.3986670657427841
 20
8.031541194742088
 10
0.027427034413832985
 20
8.09633295224501
 10
-0.3360679774997879
 20
8.195773934819385
 10
-0.6885915625391219
 20
8.328981497264076
 10
-1.0270146964068603
 20
8.494773279824546
 10
-1.3483335114085213
 20
8.691677702901753
 10
-1.6496959589947575
 20
8.917947028896844
 10
-1.9284271247461888
 20
9.171572875253808
 10
-2.1820529711031567
 20
9.450304041005243
 10
-2.4083222970982456
 20
9.751666488591477
 10
-2.6052267201754535
 20
10.07298530359314
 10
-2.771018502735923
 20
10.411408437460874
 10
-2.9042260651806133
 20
10.76393202250021
 10
-3.0036670477549876
 20
11.127427034413827
 10
-3.06845880525791
 20
11.498667065742781
 10
-3.098026241462925
 20
11.874356963687486
 10
-3.092106913713085
 20
12.25116207811725
 10
-3.05075336238055
 20
12.625737860160923
 10
-2.974332644514523
 20
12.99475954865942
 10
-2.863523075816901
 20
13.354951680981165
 10
-2.719308209864079
 20
13.703117166260288
 10
-2.5429681080157724
 20
14.036165663001487
 10
-2.3360679774997894
 20
14.351141009169892
 10
-2.100444278521839
 20
14.645247461294606
 10
-1.838188423714752
 20
14.915874509685647
 10
-1.551628214611905
 20
15.16062004950276
 10
-1.2433071799159843
 20
15.377311702008061
 10
-0.9159619989581871
 20
15.564026096753471
 10
-0.5724982107387107
 20
15.719105943553005
 10
-0.21596442415691786
 20
15.841174742707771
 10
0.15047474165710206
 20
15.929149002914755
 10
0.5235667467259446
 20
15.98224785841232
 10
0.8999999999999998
 20
16.0
  0
LWPOLYLINE
  5
34
330
17
100
AcDbEntity
  8
0
100
AcDbPolyline
 90
51
 70
0
 10
0.9000000000000008
 20
16.0
 10
1.025643036312514
 20
15.998026241462927
 10
1.1511620781172542
 20
15.992106913713087
 10
1.276433253274058
 20
15.98224785841232
 10
1.4013329342572178
 20
15.968458805257912
 10
1.5257378601609242
 20
15.950753362380551
 10
1.6495252583428992
 20
15.929149002914755
 10
1.7725729655861708
 20
15.90366704775499
 10
1.89475954865942
 20
15.874332644514524
 10
2.015964424156918
 20
15.841174742707771
 10
2.13606797749979
 20
15.804226065180615
 10
2.2549516809811663
 20
15.763523075816902
 10
2.3724982107387125
 20
15.719105943553005
 10
2.4885915625391233
 20
15.671018502735924
 10
2.6031171662602914
 20
15.619308209864078
 10
2.715961998958188
 20
15.564026096753471
 10
2.827014696406862
 20
15.505226720175454
 10
2.9361656630014865
 20
15.442968108015775
 10
3.0433071799159874
 20
15.377311702008061
 10
3.1483335114085236
 20
15.308322297098247
 10
3.251141009169894
 20
15.23606797749979
 10
3.3516282146119067
 20
15.16062004950276
 10
3.4496959589947593
 20
15.082052971103156
 10
3.5452474612946085
 20
15.000444278521838
 10
3.6381884237147553
 20
14.915874509685647
 10
3.728427124746191
 20
14.82842712474619
 10
3.8158745096856475
 20
14.738188423714755
 10
3.9004442785218387
 20
14.645247461294607
 10
3.9820529711031583
 20
14.549695958994759
 10
4.060620049502763
 20
14.451628214611906
 10
4.13606797749979
 20
14.351141009169893
 10
4.208322297098248
 20
14.248333511408523
 10
4.2773117020080615
 20
14.143307179915986
 10
4.342968108015776
 20
14.036165663001485
 10
4.405226720175456
 20
13.92701469640686
 10
4.464026096753472
 20
13.815961998958187
 10
4.5193082098640796
 20
13.703117166260292
 10
4.571018502735925
 20
13.588591562539122
 10
4.619105943553007
 20
13.472498210738713
 10
4.663523075816903
 20
13.354951680981166
 10
4.704226065180615
 20
13.23606797749979
 10
4.741174742707773
 20
13.115964424156918
 10
4.7743326445145255
 20
12.994759548659419
 10
4.80366704775499
 20
12.872572965586171
 10
4.829149002914756
 20
12.7495252583429
 10
4.850753362380552
 20
12.625737860160925
 10
4.868458805257912
 20
12.501332934257219
 10
4.882247858412321
 20
12.376433253274058
 10
4.8921069137130875
 20
12.251162078117254
 10
4.898026241462928
 20
12.125643036312514
 10
4.900000000000001
 20
12.0
  0
LWPOLYLINE
  5
35
330
17
100
AcDbEntity
  8
0
100
AcDbPolyline
 90
51
 70
0
 10
-32.9
 20
-2.33768560065073e-15
 10
-32.9
 20
0.09999999999999772
 10
-32.9
 20
0.19999999999999776
 10
-32.9
 20
0.2999999999999978
 10
-32.9
 20
0.39999999999999786
 10
-32.9
 20
0.499999999999998
 10
-32.9
 20
0.599999999999998
 10
-32.9
 20
0.6999999999999981
 10
-32.9
 20
0.799999999999998
 10
-32.9
 20
0.8999999999999981
 10
-32.9
 20
0.9999999999999982
 10
-32.9
 20
1.099999999999998
 10
-32.9
 20
1.1999999999999982
 10
-32.9
 20
1.299999999999998
 10
-32.9
 20
1.3999999999999984
 10
-32.9
 20
1.4999999999999984
 10
-32.9
 20
1.5999999999999983
 10
-32.9
 20
1.6999999999999984
 10
-32.9
 20
1.7999999999999985
 10
-32.9
 20
1.8999999999999988
 10
-32.9
 20
1.9999999999999991
 10
-32.9
 20
2.0999999999999988
 10
-32.9
 20
2.199999999999999
 10
-32.9
 20
2.299999999999999
 10
-32.9
 20
2.399999999999999
 10
-32.9
 20
2.499999999999999
 10
-32.9
 20
2.5999999999999988
 10
-32.9
 20
2.6999999999999993
 10
-32.9
 20
2.7999999999999994
 10
-32.9
 20
2.8999999999999995
 10
-32.9
 20
2.9999999999999996
 10
-32.9
 20
3.0999999999999996
 10
-32.9
 20
3.1999999999999993
 10
-32.9
 20
3.2999999999999994
 10
-32.9
 20
3.3999999999999995
 10
-32.9
 20
3.4999999999999996
 10
-32.9
 20
3.5999999999999996
 10
-32.9
 20
3.6999999999999993
 10
-32.9
 20
3.8000000000000003
 10
-32.9
 20
3.9
 10
-32.9
 20
4.0
 10
-32.9
 20
4.1
 10
-32.9
 20
4.199999999999999
 10
-32.9
 20
4.3
 10
-32.9
 20
4.3999999999999995
 10
-32.9
 20
4.5
 10
-32.9
 20
4.6
 10
-32.9
 20
4.699999999999999
 10
-32.9
 20
4.8
 10
-32.9
 20
4.9
 10
-32.9
 20
5.0
  0
LWPOLYLINE
  5
36
330
17
100
AcDbEntity
  8
0
100
AcDbPolyline
 90
51
 70
0
 10
-20.0
 20
5.0
 10
-19.722
 20
5.0
 10
-19.444
 20
5.0
 10
-19.166
 20
5.0
 10
-18.887999999999998
 20
5.0
 10
-18.61
 20
5.0
 10
-18.332
 20
5.0
 10
-18.054000000000002
 20
5.0
 10
-17.776
 20
5.0
 10
-17.498
 20
5.0
 10
-17.22
 20
5.0
 10
-16.942
 20
5.0
 10
-16.664
 20
5.0
 10
-16.386
 20
5.0
 10
-16.108
 20
5.0
 10
-15.830000000000002
 20
5.0
 10
-15.552
 20
5.0
 10
-15.274000000000001
 20
5.0
 10
-14.996
 20
5.0
 10
-14.718
 20
5.0
 10
-14.440000000000001
 20
5.0
 10
-14.162
 20
5.0
 10
-13.884
 20
5.0
 10
-13.606
 20
5.0
 10
-13.328
 20
5.0
 10
-13.05
 20
5.0
 10
-12.772
 20
5.0
 10
-12.494
 20
5.0
 10
-12.216000000000001
 20
5.0
 10
-11.938
 20
5.0
 10
-11.660000000000002
 20
5.0
 10
-11.382
 20
5.0
 10
-11.104000000000001
 20
5.0
 10
-10.826
 20
5.0
 10
-10.548
 20
5.0
 10
-10.270000000000001
 20
5.0
 10
-9.992
 20
5.0
 10
-9.714
 20
5.0
 10
-9.436000000000002
 20
5.0
 10
-9.158000000000001
 20
5.0
 10
-8.880000000000003
 20
5.0
 10
-8.602
 20
5.0
 10
-8.324000000000002
 20
5.0
 10
-8.046
 20
5.0
 10
-7.768000000000001
 20
5.0
 10
-7.490000000000002
 20
5.0
 10
-7.212
 20
5.0
 10
-6.934000000000001
 20
5.0
 10
-6.655999999999999
 20
5.0
 10
-6.378
 20
5.0
 10
-6.100000000000001
 20
5.0
  0
LWPOLYLINE
  5
37
330
17
100
AcDbEntity
  8
0
100
AcDbPolyline
 90
51
 70
0
 10
-32.9
 20
5.0
 10
-32.364
 20
5.0
 10
-31.828
 20
5.0
 10
-31.291999999999998
 20
5.0
 10
-30.756
 20
5.0
 10
-30.22
 20
5.0
 10
-29.683999999999997
 20
5.0
 10
-29.148
 20
5.0
 10
-28.612
 20
5.0
 10
-28.076
 20
5.0
 10
-27.54
 20
5.0
 10
-27.003999999999998
 20
5.0
 10
-26.468
 20
5.0
 10
-25.932
 20
5.0
 10
-25.396
 20
5.0
 10
-24.86
 20
5.0
 10
-24.323999999999998
 20
5.0
 10
-23.787999999999997
 20
5.0
 10
-23.252
 20
5.0
 10
-22.716
 20
5.0
 10
-22.18
 20
5.0
 10
-21.644
 20
5.0
 10
-21.108
 20
5.0
 10
-20.572
 20
5.0
 10
-20.036
 20
5.0
 10
-19.5
 20
5.0
 10
-18.964
 20
5.0
 10
-18.428
 20
5.0
 10
-17.892000000000003
 20
5.0
 10
-17.356
 20
5.0
 10
-16.82
 20
5.0
 10
-16.284
 20
5.0
 10
-15.748000000000001
 20
5.0
 10
-15.212
 20
5.0
 10
-14.675999999999998
 20
5.0
 10
-14.14
 20
5.0
 10
-13.604
 20
5.0
 10
-13.068000000000001
 20
5.0
 10
-12.532
 20
5.0
 10
-11.996000000000002
 20
5.0
 10
-11.459999999999997
 20
5.0
 10
-10.924
 20
5.0
 10
-10.388000000000002
 20
5.0
 10
-9.852
 20
5.0
 10
-9.316000000000003
 20
5.0
 10
-8.780000000000005
 20
5.0
 10
-8.244
 20
5.0
 10
-7.708000000000002
 20
5.0
 10
-7.172000000000001
 20
5.0
 10
-6.636000000000003
 20
5.0
 10
-6.100000000000001
 20
5.0
  0
LWPOLYLINE
  5
38
330
17
100
AcDbEntity
  8
0
100
AcDbPolyline
 90
51
 70
0
 10
-6.1
 20
5.0
 10
-6.1
 20
5.14
 10
-6.1
 20
5.28
 10
-6.1
 20
5.42
 10
-6.1
 20
5.5600000000000005
 10
-6.1
 20
5.7
 10
-6.1
 20
5.84
 10
-6.1
 20
5.98
 10
-6.1
 20
6.12
 10
-6.1
 20
6.26
 10
-6.1
 20
6.4
 10
-6.1
 20
6.54
 10
-6.1
 20
6.68
 10
-6.1000000000000005
 20
6.82
 10
-6.1000000000000005
 20
6.96
 10
-6.1000000000000005
 20
7.1
 10
-6.1000000000000005
 20
7.24
 10
-6.1000000000000005
 20
7.38
 10
-6.1000000000000005
 20
7.52
 10
-6.1000000000000005
 20
7.66
 10
-6.1000000000000005
 20
7.8
 10
-6.1000000000000005
 20
7.9399999999999995
 10
-6.1000000000000005
 20
8.08
 10
-6.1000000000000005
 20
8.22
 10
-6.1000000000000005
 20
8.36
 10
-6.1000000000000005
 20
8.5
 10
-6.1000000000000005
 20
8.64
 10
-6.1000000000000005
 20
8.78
 10
-6.1000000000000005
 20
8.92
 10
-6.1000000000000005
 20
9.059999999999999
 10
-6.1000000000000005
 20
9.2
 10
-6.1000000000000005
 20
9.34
 10
-6.1000000000000005
 20
9.48
 10
-6.1000000000000005
 20
9.620000000000001
 10
-6.1000000000000005
 20
9.76
 10
-6.1000000000000005
 20
9.9
 10
-6.1000000000000005
 20
10.04
 10
-6.1000000000000005
 20
10.18
 10
-6.1000000000000005
 20
10.32
 10
-6.100000000000001
 20
10.46
 10
-6.100000000000001
 20
10.6
 10
-6.100000000000001
 20
10.74
 10
-6.100000000000001
 20
10.879999999999999
 10
-6.100000000000001
 20
11.02
 10
-6.100000000000001
 20
11.16
 10
-6.100000000000001
 20
11.3
 10
-6.100000000000001
 20
11.440000000000001
 10
-6.100000000000001
 20
11.58
 10
-6.100000000000001
 20
11.719999999999999
 10
-6.100000000000001
 20
11.86
 10
-6.100000000000001
 20
12.0
  0
ENDSEC
  0
SECTION
  2
OBJECTS
  0
DICTIONARY
  5
A
330
0
100
AcDbDictionary
280
0
281
1
  3
ACAD_COLOR
350
B
  3
ACAD_GROUP
350
C
  3
ACAD_LAYOUT
350
D
  3
ACAD_MATERIAL
350
E
  3
ACAD_MLEADERSTYLE
350
F
  3
ACAD_MLINESTYLE
350
10
  3
ACAD_PLOTSETTINGS
350
11
  3
ACAD_PLOTSTYLENAME
350
12
  3
ACAD_SCALELIST
350
14
  3
ACAD_TABLESTYLE
350
15
  3
ACAD_VISUALSTYLE
350
16
  3
EZDXF_META
350
2D
  0
DICTIONARY
  5
B
330
A
100
AcDbDictionary
280
0
281
1
  0
DICTIONARY
  5
C
330
A
100
AcDbDictionary
280
0
281
1
  0
DICTIONARY
  5
D
330
A
100
AcDbDictionary
280
0
281
1
  3
Model
350
1A
  3
Layout1
350
1E
  0
DICTIONARY
  5
E
330
A
100
AcDbDictionary
280
0
281
1
  3
ByBlock
350
1F
  3
ByLayer
350
20
  3
Global
350
21
  0
DICTIONARY
  5
F
330
A
100
AcDbDictionary
280
0
281
1
  3
Standard
350
2C
  0
DICTIONARY
  5
10
330
A
100
AcDbDictionary
280
0
281
1
  3
Standard
350
22
  0
DICTIONARY
  5
11
330
A
100
AcDbDictionary
280
0
281
1
  0
ACDBDICTIONARYWDFLT
  5
12
330
A
100
AcDbDictionary
280
0
281
1
  3
Normal
350
13
100
AcDbDictionaryWithDefault
340
13
  0
ACDBPLACEHOLDER
  5
13
330
12
  0
DICTIONARY
  5
14
330
A
100
AcDbDictionary
280
0
281
1
  0
DICTIONARY
  5
15
330
A
100
AcDbDictionary
280
0
281
1
  0
DICTIONARY
  5
16
330
A
100
AcDbDictionary
280
0
281
1
  0
LAYOUT
  5
1A
330
D
100
AcDbPlotSettings
  1

  2
Adobe PDF
  4
A3
  6

 40
7.5
 41
20.0
 42
7.5
 43
20.0
 44
420.0
 45
297.0
 46
0.0
 47
0.0
 48
0.0
 49
0.0
140
0.0
141
0.0
142
1.0
143
1.0
 70
1024
 72
1
 73
0
 74
5
  7

 75
16
 76
0
 77
2
 78
300
147
1.0
148
0.0
149
0.0
100
AcDbLayout
  1
Model
 70
1
 71
0
 10
0.0
 20
0.0
 11
420.0
 21
297.0
 12
0.0
 22
0.0
 32
0.0
 14
1e+20
 24
1e+20
 34
1e+20
 15
-1e+20
 25
-1e+20
 35
-1e+20
146
0.0
 13
0.0
 23
0.0
 33
0.0
 16
1.0
 26
0.0
 36
0.0
 17
0.0
 27
1.0
 37
0.0
 76
1
330
17
  0
LAYOUT
  5
1E
330
D
100
AcDbPlotSettings
  1

  2
Adobe PDF
  4
A3
  6

 40
7.5
 41
20.0
 42
7.5
 43
20.0
 44
420.0
 45
297.0
 46
0.0
 47
0.0
 48
0.0
 49
0.0
140
0.0
141
0.0
142
1.0
143
1.0
 70
0
 72
1
 73
0
 74
5
  7

 75
16
 76
0
 77
2
 78
300
147
1.0
148
0.0
149
0.0
100
AcDbLayout
  1
Layout1
 70
1
 71
1
 10
0.0
 20
0.0
 11
420.0
 21
297.0
 12
0.0
 22
0.0
 32
0.0
 14
1e+20
 24
1e+20
 34
1e+20
 15
-1e+20
 25
-1e+20
 35
-1e+20
146
0.0
 13
0.0
 23
0.0
 33
0.0
 16
1.0
 26
0.0
 36
0.0
 17
0.0
 27
1.0
 37
0.0
 76
1
330
1B
  0
MATERIAL
  5
1F
102
{ACAD_REACTORS
330
E
102
}
330
E
100
AcDbMaterial
  1
ByBlock
  2

 70
0
 40
1.0
 71
1
 41
1.0
 91
-1023410177
 42
1.0
 72
1
  3

 73
1
 74
1
 75
1
 44
0.5
 73
0
 45
1.0
 46
1.0
 77
1
  4

 78
1
 79
1
170
1
 48
1.0
171
1
  6

172
1
173
1
174
1
140
1.0
141
1.0
175
1
  7

176
1
177
1
178
1
143
1.0
179
1
  8

270
1
271
1
272
1
145
1.0
146
1.0
273
1
  9

274
1
275
1
276
1
 42
1.0
 72
1
  3

 73
1
 74
1
 75
1
 94
63
  0
MATERIAL
  5
20
102
{ACAD_REACTORS
330
E
102
}
330
E
100
AcDbMaterial
  1
ByLayer
  2

 70
0
 40
1.0
 71
1
 41
1.0
 91
-1023410177
 42
1.0
 72
1
  3

 73
1
 74
1
 75
1
 44
0.5
 73
0
 45
1.0
 46
1.0
 77
1
  4

 78
1
 79
1
170
1
 48
1.0
171
1
  6

172
1
173
1
174
1
140
1.0
141
1.0
175
1
  7

176
1
177
1
178
1
143
1.0
179
1
  8

270
1
271
1
272
1
145
1.0
146
1.0
273
1
  9

274
1
275
1
276
1
 42
1.0
 72
1
  3

 73
1
 74
1
 75
1
 94
63
  0
MATERIAL
  5
21
102
{ACAD_REACTORS
330
E
102
}
330
E
100
AcDbMaterial
  1
Global
  2

 70
0
 40
1.0
 71
1
 41
1.0
 91
-1023410177
 42
1.0
 72
1
  3

 73
1
 74
1
 75
1
 44
0.5
 73
0
 45
1.0
 46
1.0
 77
1
  4

 78
1
 79
1
170
1
 48
1.0
171
1
  6

172
1
173
1
174
1
140
1.0
141
1.0
175
1
  7

176
1
177
1
178
1
143
1.0
179
1
  8

270
1
271
1
272
1
145
1.0
146
1.0
273
1
  9

274
1
275
1
276
1
 42
1.0
 72
1
  3

 73
1
 74
1
 75
1
 94
63
  0
MLINESTYLE
  5
22
102
{ACAD_REACTORS
330
10
102
}
330
10
100
AcDbMlineStyle
  2
Standard
 70
0
  3

 62
256
 51
90.0
 52
90.0
 71
2
 49
0.5
 62
256
  6
BYLAYER
 49
-0.5
 62
256
  6
BYLAYER
  0
MLEADERSTYLE
  5
2C
102
{ACAD_REACTORS
330
F
102
}
330
F
100
AcDbMLeaderStyle
179
2
170
2
171
1
172
0
 90
2
 40
0.0
 41
0.0
173
1
 91
-1056964608
 92
-2
290
1
 42
2.0
291
1
 43
8.0
  3
Standard
 44
4.0
300

342
29
174
1
175
1
176
0
178
1
 93
-1056964608
 45
4.0
292
0
297
0
 46
4.0
 94
-1056964608
 47
1.0
 49
1.0
140
1.0
294
1
141
0.0
177
0
142
1.0
295
0
296
0
143
3.75
271
0
272
9
273
9
  0
DICTIONARY
  5
2D
330
A
100
AcDbDictionary
281
1
  3
CREATED_BY_EZDXF
350
2E
  3
WRITTEN_BY_EZDXF
350
3B
  0
DICTIONARYVAR
  5
2E
330
2D
100
DictionaryVariables
280
0
  1
1.0.3 @ 2025-05-29T09:38:43.491376+00:00
  0
DICTIONARYVAR
  5
3B
330
2D
100
DictionaryVariables
280
0
  1
1.0.3 @ 2025-05-29T09:38:43.494384+00:00
  0
ENDSEC
  0
EOF
