  0
SECTION
  2
HEADER
  9
$ACADVER
  1
AC1027
  9
$ACADMAINTVER
 70
105
  9
$DWGCODEPAGE
  3
ANSI_1252
  9
$LASTSAVEDBY
  1
ezdxf
  9
$REQUIREDVERSIONS
160
0
  9
$INSBASE
 10
0.0
 20
0.0
 30
0.0
  9
$EXTMIN
 10
1e+20
 20
1e+20
 30
1e+20
  9
$EXTMAX
 10
-1e+20
 20
-1e+20
 30
-1e+20
  9
$LIMMIN
 10
0.0
 20
0.0
  9
$LIMMAX
 10
420.0
 20
297.0
  9
$ORTHOMODE
 70
0
  9
$REGENMODE
 70
1
  9
$FILLMODE
 70
1
  9
$QTEXTMODE
 70
0
  9
$MIRRTEXT
 70
1
  9
$LTSCALE
 40
1.0
  9
$ATTMODE
 70
1
  9
$TEXTSIZE
 40
2.5
  9
$TRACEWID
 40
1.0
  9
$TEXTSTYLE
  7
Standard
  9
$CLAYER
  8
0
  9
$CELTYPE
  6
ByLayer
  9
$CECOLOR
 62
256
  9
$CELTSCALE
 40
1.0
  9
$DISPSILH
 70
0
  9
$DIMSCALE
 40
1.0
  9
$DIMASZ
 40
2.5
  9
$DIMEXO
 40
0.625
  9
$DIMDLI
 40
3.75
  9
$DIMRND
 40
0.0
  9
$DIMDLE
 40
0.0
  9
$DIMEXE
 40
1.25
  9
$DIMTP
 40
0.0
  9
$DIMTM
 40
0.0
  9
$DIMTXT
 40
2.5
  9
$DIMCEN
 40
2.5
  9
$DIMTSZ
 40
0.0
  9
$DIMTOL
 70
0
  9
$DIMLIM
 70
0
  9
$DIMTIH
 70
0
  9
$DIMTOH
 70
0
  9
$DIMSE1
 70
0
  9
$DIMSE2
 70
0
  9
$DIMTAD
 70
1
  9
$DIMZIN
 70
8
  9
$DIMBLK
  1

  9
$DIMASO
 70
1
  9
$DIMSHO
 70
1
  9
$DIMPOST
  1

  9
$DIMAPOST
  1

  9
$DIMALT
 70
0
  9
$DIMALTD
 70
3
  9
$DIMALTF
 40
0.03937007874
  9
$DIMLFAC
 40
1.0
  9
$DIMTOFL
 70
1
  9
$DIMTVP
 40
0.0
  9
$DIMTIX
 70
0
  9
$DIMSOXD
 70
0
  9
$DIMSAH
 70
0
  9
$DIMBLK1
  1

  9
$DIMBLK2
  1

  9
$DIMSTYLE
  2
ISO-25
  9
$DIMCLRD
 70
0
  9
$DIMCLRE
 70
0
  9
$DIMCLRT
 70
0
  9
$DIMTFAC
 40
1.0
  9
$DIMGAP
 40
0.625
  9
$DIMJUST
 70
0
  9
$DIMSD1
 70
0
  9
$DIMSD2
 70
0
  9
$DIMTOLJ
 70
0
  9
$DIMTZIN
 70
8
  9
$DIMALTZ
 70
0
  9
$DIMALTTZ
 70
0
  9
$DIMUPT
 70
0
  9
$DIMDEC
 70
2
  9
$DIMTDEC
 70
2
  9
$DIMALTU
 70
2
  9
$DIMALTTD
 70
3
  9
$DIMTXSTY
  7
Standard
  9
$DIMAUNIT
 70
0
  9
$DIMADEC
 70
0
  9
$DIMALTRND
 40
0.0
  9
$DIMAZIN
 70
0
  9
$DIMDSEP
 70
44
  9
$DIMATFIT
 70
3
  9
$DIMFRAC
 70
0
  9
$DIMLDRBLK
  1

  9
$DIMLUNIT
 70
2
  9
$DIMLWD
 70
-2
  9
$DIMLWE
 70
-2
  9
$DIMTMOVE
 70
0
  9
$DIMFXL
 40
1.0
  9
$DIMFXLON
 70
0
  9
$DIMJOGANG
 40
0.785398163397
  9
$DIMTFILL
 70
0
  9
$DIMTFILLCLR
 70
0
  9
$DIMARCSYM
 70
0
  9
$DIMLTYPE
  6

  9
$DIMLTEX1
  6

  9
$DIMLTEX2
  6

  9
$DIMTXTDIRECTION
 70
0
  9
$LUNITS
 70
2
  9
$LUPREC
 70
4
  9
$SKETCHINC
 40
1.0
  9
$FILLETRAD
 40
10.0
  9
$AUNITS
 70
0
  9
$AUPREC
 70
2
  9
$MENU
  1
.
  9
$ELEVATION
 40
0.0
  9
$PELEVATION
 40
0.0
  9
$THICKNESS
 40
0.0
  9
$LIMCHECK
 70
0
  9
$CHAMFERA
 40
0.0
  9
$CHAMFERB
 40
0.0
  9
$CHAMFERC
 40
0.0
  9
$CHAMFERD
 40
0.0
  9
$SKPOLY
 70
0
  9
$TDCREATE
 40
2460825.776875
  9
$TDUCREATE
 40
2458532.153996898
  9
$TDUPDATE
 40
2460825.776875
  9
$TDUUPDATE
 40
2458532.1544311
  9
$TDINDWG
 40
0.0
  9
$TDUSRTIMER
 40
0.0
  9
$USRTIMER
 70
1
  9
$ANGBASE
 50
0.0
  9
$ANGDIR
 70
0
  9
$PDMODE
 70
0
  9
$PDSIZE
 40
0.0
  9
$PLINEWID
 40
0.0
  9
$SPLFRAME
 70
0
  9
$SPLINETYPE
 70
6
  9
$SPLINESEGS
 70
8
  9
$HANDSEED
  5
3C
  9
$SURFTAB1
 70
6
  9
$SURFTAB2
 70
6
  9
$SURFTYPE
 70
6
  9
$SURFU
 70
6
  9
$SURFV
 70
6
  9
$UCSBASE
  2

  9
$UCSNAME
  2

  9
$UCSORG
 10
0.0
 20
0.0
 30
0.0
  9
$UCSXDIR
 10
1.0
 20
0.0
 30
0.0
  9
$UCSYDIR
 10
0.0
 20
1.0
 30
0.0
  9
$UCSORTHOREF
  2

  9
$UCSORTHOVIEW
 70
0
  9
$UCSORGTOP
 10
0.0
 20
0.0
 30
0.0
  9
$UCSORGBOTTOM
 10
0.0
 20
0.0
 30
0.0
  9
$UCSORGLEFT
 10
0.0
 20
0.0
 30
0.0
  9
$UCSORGRIGHT
 10
0.0
 20
0.0
 30
0.0
  9
$UCSORGFRONT
 10
0.0
 20
0.0
 30
0.0
  9
$UCSORGBACK
 10
0.0
 20
0.0
 30
0.0
  9
$PUCSBASE
  2

  9
$PUCSNAME
  2

  9
$PUCSORG
 10
0.0
 20
0.0
 30
0.0
  9
$PUCSXDIR
 10
1.0
 20
0.0
 30
0.0
  9
$PUCSYDIR
 10
0.0
 20
1.0
 30
0.0
  9
$PUCSORTHOREF
  2

  9
$PUCSORTHOVIEW
 70
0
  9
$PUCSORGTOP
 10
0.0
 20
0.0
 30
0.0
  9
$PUCSORGBOTTOM
 10
0.0
 20
0.0
 30
0.0
  9
$PUCSORGLEFT
 10
0.0
 20
0.0
 30
0.0
  9
$PUCSORGRIGHT
 10
0.0
 20
0.0
 30
0.0
  9
$PUCSORGFRONT
 10
0.0
 20
0.0
 30
0.0
  9
$PUCSORGBACK
 10
0.0
 20
0.0
 30
0.0
  9
$USERI1
 70
0
  9
$USERI2
 70
0
  9
$USERI3
 70
0
  9
$USERI4
 70
0
  9
$USERI5
 70
0
  9
$USERR1
 40
0.0
  9
$USERR2
 40
0.0
  9
$USERR3
 40
0.0
  9
$USERR4
 40
0.0
  9
$USERR5
 40
0.0
  9
$WORLDVIEW
 70
1
  9
$SHADEDGE
 70
3
  9
$SHADEDIF
 70
70
  9
$TILEMODE
 70
1
  9
$MAXACTVP
 70
64
  9
$PINSBASE
 10
0.0
 20
0.0
 30
0.0
  9
$PLIMCHECK
 70
0
  9
$PEXTMIN
 10
1e+20
 20
1e+20
 30
1e+20
  9
$PEXTMAX
 10
-1e+20
 20
-1e+20
 30
-1e+20
  9
$PLIMMIN
 10
0.0
 20
0.0
  9
$PLIMMAX
 10
420.0
 20
297.0
  9
$UNITMODE
 70
0
  9
$VISRETAIN
 70
1
  9
$PLINEGEN
 70
0
  9
$PSLTSCALE
 70
1
  9
$TREEDEPTH
 70
3020
  9
$CMLSTYLE
  2
Standard
  9
$CMLJUST
 70
0
  9
$CMLSCALE
 40
20.0
  9
$PROXYGRAPHICS
 70
1
  9
$MEASUREMENT
 70
1
  9
$CELWEIGHT
370
-1
  9
$ENDCAPS
280
0
  9
$JOINSTYLE
280
0
  9
$LWDISPLAY
290
0
  9
$INSUNITS
 70
6
  9
$HYPERLINKBASE
  1

  9
$STYLESHEET
  1

  9
$XEDIT
290
1
  9
$CEPSNTYPE
380
0
  9
$PSTYLEMODE
290
1
  9
$FINGERPRINTGUID
  2
{6A68BC52-B9FE-466D-B3AE-3C96F4F4480C}
  9
$VERSIONGUID
  2
{26B8E667-E874-4554-B22C-7C9EC471DB73}
  9
$EXTNAMES
290
1
  9
$PSVPSCALE
 40
0.0
  9
$OLESTARTUP
290
0
  9
$SORTENTS
280
127
  9
$INDEXCTL
280
0
  9
$HIDETEXT
280
1
  9
$XCLIPFRAME
280
0
  9
$HALOGAP
280
0
  9
$OBSCOLOR
 70
257
  9
$OBSLTYPE
280
0
  9
$INTERSECTIONDISPLAY
280
0
  9
$INTERSECTIONCOLOR
 70
257
  9
$DIMASSOC
280
2
  9
$PROJECTNAME
  1

  9
$CAMERADISPLAY
290
0
  9
$LENSLENGTH
 40
50.0
  9
$CAMERAHEIGHT
 40
0.0
  9
$STEPSPERSEC
 40
24.0
  9
$STEPSIZE
 40
100.0
  9
$3DDWFPREC
 40
2.0
  9
$PSOLWIDTH
 40
0.005
  9
$PSOLHEIGHT
 40
0.08
  9
$LOFTANG1
 40
1.570796326795
  9
$LOFTANG2
 40
1.570796326795
  9
$LOFTMAG1
 40
0.0
  9
$LOFTMAG2
 40
0.0
  9
$LOFTPARAM
 70
7
  9
$LOFTNORMALS
280
1
  9
$LATITUDE
 40
37.795
  9
$LONGITUDE
 40
-122.394
  9
$NORTHDIRECTION
 40
0.0
  9
$TIMEZONE
 70
-8000
  9
$LIGHTGLYPHDISPLAY
280
1
  9
$TILEMODELIGHTSYNCH
280
1
  9
$CMATERIAL
347
20
  9
$SOLIDHIST
280
0
  9
$SHOWHIST
280
1
  9
$DWFFRAME
280
2
  9
$DGNFRAME
280
2
  9
$REALWORLDSCALE
290
1
  9
$INTERFERECOLOR
 62
256
  9
$CSHADOW
280
0
  9
$SHADOWPLANELOCATION
 40
0.0
  0
ENDSEC
  0
SECTION
  2
CLASSES
  0
CLASS
  1
ACDBDICTIONARYWDFLT
  2
AcDbDictionaryWithDefault
  3
ObjectDBX Classes
 90
0
 91
0
280
0
281
0
  0
CLASS
  1
SUN
  2
AcDbSun
  3
SCENEOE
 90
1153
 91
0
280
0
281
0
  0
CLASS
  1
VISUALSTYLE
  2
AcDbVisualStyle
  3
ObjectDBX Classes
 90
4095
 91
0
280
0
281
0
  0
CLASS
  1
MATERIAL
  2
AcDbMaterial
  3
ObjectDBX Classes
 90
1153
 91
0
280
0
281
0
  0
CLASS
  1
SCALE
  2
AcDbScale
  3
ObjectDBX Classes
 90
1153
 91
0
280
0
281
0
  0
CLASS
  1
TABLESTYLE
  2
AcDbTableStyle
  3
ObjectDBX Classes
 90
4095
 91
0
280
0
281
0
  0
CLASS
  1
MLEADERSTYLE
  2
AcDbMLeaderStyle
  3
ACDB_MLEADERSTYLE_CLASS
 90
4095
 91
0
280
0
281
0
  0
CLASS
  1
DICTIONARYVAR
  2
AcDbDictionaryVar
  3
ObjectDBX Classes
 90
0
 91
0
280
0
281
0
  0
CLASS
  1
CELLSTYLEMAP
  2
AcDbCellStyleMap
  3
ObjectDBX Classes
 90
1152
 91
0
280
0
281
0
  0
CLASS
  1
MENTALRAYRENDERSETTINGS
  2
AcDbMentalRayRenderSettings
  3
SCENEOE
 90
1024
 91
0
280
0
281
0
  0
CLASS
  1
ACDBDETAILVIEWSTYLE
  2
AcDbDetailViewStyle
  3
ObjectDBX Classes
 90
1025
 91
0
280
0
281
0
  0
CLASS
  1
ACDBSECTIONVIEWSTYLE
  2
AcDbSectionViewStyle
  3
ObjectDBX Classes
 90
1025
 91
0
280
0
281
0
  0
CLASS
  1
RASTERVARIABLES
  2
AcDbRasterVariables
  3
ISM
 90
0
 91
0
280
0
281
0
  0
CLASS
  1
LAYOUT
  2
AcDbLayout
  3
ObjectDBX Classes
 90
0
 91
0
280
0
281
0
  0
CLASS
  1
ACDBPLACEHOLDER
  2
AcDbPlaceHolder
  3
ObjectDBX Classes
 90
0
 91
0
280
0
281
0
  0
ENDSEC
  0
SECTION
  2
TABLES
  0
TABLE
  2
VPORT
  5
8
330
0
100
AcDbSymbolTable
 70
1
  0
VPORT
  5
23
330
8
100
AcDbSymbolTableRecord
100
AcDbViewportTableRecord
  2
*Active
 70
0
 10
0.0
 20
0.0
 11
1.0
 21
1.0
 12
0.0
 22
0.0
 13
0.0
 23
0.0
 14
0.5
 24
0.5
 15
0.5
 25
0.5
 16
0.0
 26
0.0
 36
1.0
 17
0.0
 27
0.0
 37
0.0
 40
1000.0
 41
1.34
 42
50.0
 43
0.0
 44
0.0
 50
0.0
 51
0.0
 71
0
 72
1000
 73
1
 74
3
 75
0
 76
0
 77
0
 78
0
281
0
 65
0
146
0.0
  0
ENDTAB
  0
TABLE
  2
LTYPE
  5
2
330
0
100
AcDbSymbolTable
 70
3
  0
LTYPE
  5
24
330
2
100
AcDbSymbolTableRecord
100
AcDbLinetypeTableRecord
  2
ByBlock
 70
0
  3

 72
65
 73
0
 40
0.0
  0
LTYPE
  5
25
330
2
100
AcDbSymbolTableRecord
100
AcDbLinetypeTableRecord
  2
ByLayer
 70
0
  3

 72
65
 73
0
 40
0.0
  0
LTYPE
  5
26
330
2
100
AcDbSymbolTableRecord
100
AcDbLinetypeTableRecord
  2
Continuous
 70
0
  3

 72
65
 73
0
 40
0.0
  0
ENDTAB
  0
TABLE
  2
LAYER
  5
1
330
0
100
AcDbSymbolTable
 70
2
  0
LAYER
  5
27
330
1
100
AcDbSymbolTableRecord
100
AcDbLayerTableRecord
  2
0
 70
0
 62
7
  6
Continuous
370
-3
390
13
347
21
  0
LAYER
  5
28
330
1
100
AcDbSymbolTableRecord
100
AcDbLayerTableRecord
  2
Defpoints
 70
0
 62
7
  6
Continuous
290
0
370
-3
390
13
347
21
  0
ENDTAB
  0
TABLE
  2
STYLE
  5
5
330
0
100
AcDbSymbolTable
 70
1
  0
STYLE
  5
29
330
5
100
AcDbSymbolTableRecord
100
AcDbTextStyleTableRecord
  2
Standard
 70
0
 40
0.0
 41
1.0
 50
0.0
 71
0
 42
2.5
  3
txt
  4

  0
ENDTAB
  0
TABLE
  2
VIEW
  5
7
330
0
100
AcDbSymbolTable
 70
0
  0
ENDTAB
  0
TABLE
  2
UCS
  5
6
330
0
100
AcDbSymbolTable
 70
0
  0
ENDTAB
  0
TABLE
  2
APPID
  5
3
330
0
100
AcDbSymbolTable
 70
3
  0
APPID
  5
2A
330
3
100
AcDbSymbolTableRecord
100
AcDbRegAppTableRecord
  2
ACAD
 70
0
  0
APPID
  5
39
330
3
100
AcDbSymbolTableRecord
100
AcDbRegAppTableRecord
  2
HATCHBACKGROUNDCOLOR
 70
0
  0
APPID
  5
3A
330
3
100
AcDbSymbolTableRecord
100
AcDbRegAppTableRecord
  2
EZDXF
 70
0
  0
ENDTAB
  0
TABLE
  2
DIMSTYLE
  5
4
330
0
100
AcDbSymbolTable
 70
1
100
AcDbDimStyleTable
  0
DIMSTYLE
105
2B
330
4
100
AcDbSymbolTableRecord
100
AcDbDimStyleTableRecord
  2
Standard
 70
0
 40
1.0
 41
2.5
 42
0.625
 43
3.75
 44
1.25
 45
0.0
 46
0.0
 47
0.0
 48
0.0
 49
2.5
140
2.5
141
2.5
142
0.0
143
0.03937007874
144
1.0
145
0.0
146
1.0
147
0.625
148
0.0
 69
0
 70
0
 71
0
 72
0
 73
0
 74
0
 75
0
 76
0
 77
1
 78
8
 79
3
170
0
171
3
172
1
173
0
174
0
175
0
176
0
177
0
178
0
179
2
271
2
272
2
273
2
274
3
275
0
276
0
277
2
278
44
279
0
280
0
281
0
282
0
283
0
284
8
285
0
286
0
288
0
289
3
290
0
371
-2
372
-2
  0
ENDTAB
  0
TABLE
  2
BLOCK_RECORD
  5
9
330
0
100
AcDbSymbolTable
 70
2
  0
BLOCK_RECORD
  5
17
330
9
100
AcDbSymbolTableRecord
100
AcDbBlockTableRecord
  2
*Model_Space
340
1A
 70
0
280
1
281
0
  0
BLOCK_RECORD
  5
1B
330
9
100
AcDbSymbolTableRecord
100
AcDbBlockTableRecord
  2
*Paper_Space
340
1E
 70
0
280
1
281
0
  0
ENDTAB
  0
ENDSEC
  0
SECTION
  2
BLOCKS
  0
BLOCK
  5
18
330
17
100
AcDbEntity
  8
0
100
AcDbBlockBegin
  2
*Model_Space
 70
0
 10
0.0
 20
0.0
 30
0.0
  3
*Model_Space
  1

  0
ENDBLK
  5
19
330
17
100
AcDbEntity
  8
0
100
AcDbBlockEnd
  0
BLOCK
  5
1C
330
1B
100
AcDbEntity
  8
0
100
AcDbBlockBegin
  2
*Paper_Space
 70
0
 10
0.0
 20
0.0
 30
0.0
  3
*Paper_Space
  1

  0
ENDBLK
  5
1D
330
1B
100
AcDbEntity
  8
0
100
AcDbBlockEnd
  0
ENDSEC
  0
SECTION
  2
ENTITIES
  0
LWPOLYLINE
  5
2F
330
17
100
AcDbEntity
  8
0
100
AcDbPolyline
 90
51
 70
0
 10
6.9
 20
12.0
 10
6.9
 20
11.76
 10
6.9
 20
11.52
 10
6.9
 20
11.28
 10
6.9
 20
11.04
 10
6.9
 20
10.8
 10
6.9
 20
10.56
 10
6.9
 20
10.32
 10
6.9
 20
10.08
 10
6.9
 20
9.84
 10
6.9
 20
9.6
 10
6.9
 20
9.36
 10
6.9
 20
9.120000000000001
 10
6.9
 20
8.879999999999999
 10
6.9
 20
8.64
 10
6.9
 20
8.4
 10
6.9
 20
8.16
 10
6.9
 20
7.92
 10
6.9
 20
7.68
 10
6.9
 20
7.44
 10
6.9
 20
7.2
 10
6.9
 20
6.96
 10
6.9
 20
6.72
 10
6.9
 20
6.48
 10
6.9
 20
6.24
 10
6.900000000000001
 20
6.0
 10
6.900000000000001
 20
5.76
 10
6.900000000000001
 20
5.52
 10
6.900000000000001
 20
5.28
 10
6.900000000000001
 20
5.04
 10
6.900000000000001
 20
4.8
 10
6.900000000000001
 20
4.56
 10
6.900000000000001
 20
4.32
 10
6.900000000000001
 20
4.08
 10
6.900000000000001
 20
3.84
 10
6.900000000000001
 20
3.5999999999999996
 10
6.900000000000001
 20
3.3599999999999994
 10
6.900000000000001
 20
3.119999999999999
 10
6.900000000000001
 20
2.880000000000001
 10
6.900000000000001
 20
2.6400000000000006
 10
6.900000000000001
 20
2.4000000000000004
 10
6.900000000000001
 20
2.16
 10
6.900000000000001
 20
1.92
 10
6.900000000000001
 20
1.6799999999999997
 10
6.900000000000001
 20
1.4399999999999995
 10
6.900000000000001
 20
1.1999999999999993
 10
6.900000000000001
 20
0.9600000000000009
 10
6.900000000000001
 20
0.7200000000000006
 10
6.900000000000001
 20
0.4800000000000004
 10
6.900000000000001
 20
0.2400000000000002
 10
6.900000000000001
 20
0.0
  0
LWPOLYLINE
  5
30
330
17
100
AcDbEntity
  8
0
100
AcDbPolyline
 90
51
 70
0
 10
-7.1
 20
5.0
 10
-7.1
 20
5.14
 10
-7.1
 20
5.28
 10
-7.1
 20
5.42
 10
-7.1
 20
5.5600000000000005
 10
-7.1
 20
5.7
 10
-7.1
 20
5.84
 10
-7.1
 20
5.98
 10
-7.1
 20
6.12
 10
-7.1
 20
6.26
 10
-7.1
 20
6.4
 10
-7.1
 20
6.54
 10
-7.1
 20
6.68
 10
-7.1000000000000005
 20
6.82
 10
-7.1000000000000005
 20
6.96
 10
-7.1000000000000005
 20
7.1
 10
-7.1000000000000005
 20
7.24
 10
-7.1000000000000005
 20
7.38
 10
-7.1000000000000005
 20
7.52
 10
-7.1000000000000005
 20
7.66
 10
-7.1000000000000005
 20
7.8
 10
-7.1000000000000005
 20
7.9399999999999995
 10
-7.1000000000000005
 20
8.08
 10
-7.1000000000000005
 20
8.22
 10
-7.1000000000000005
 20
8.36
 10
-7.1000000000000005
 20
8.5
 10
-7.1000000000000005
 20
8.64
 10
-7.1000000000000005
 20
8.78
 10
-7.1000000000000005
 20
8.92
 10
-7.1000000000000005
 20
9.059999999999999
 10
-7.1000000000000005
 20
9.2
 10
-7.1000000000000005
 20
9.34
 10
-7.1000000000000005
 20
9.48
 10
-7.1000000000000005
 20
9.620000000000001
 10
-7.1000000000000005
 20
9.76
 10
-7.1000000000000005
 20
9.9
 10
-7.1000000000000005
 20
10.04
 10
-7.1000000000000005
 20
10.18
 10
-7.1000000000000005
 20
10.32
 10
-7.100000000000001
 20
10.46
 10
-7.100000000000001
 20
10.6
 10
-7.100000000000001
 20
10.74
 10
-7.100000000000001
 20
10.879999999999999
 10
-7.100000000000001
 20
11.02
 10
-7.100000000000001
 20
11.16
 10
-7.100000000000001
 20
11.3
 10
-7.100000000000001
 20
11.440000000000001
 10
-7.100000000000001
 20
11.58
 10
-7.100000000000001
 20
11.719999999999999
 10
-7.100000000000001
 20
11.86
 10
-7.100000000000001
 20
12.0
  0
LWPOLYLINE
  5
31
330
17
100
AcDbEntity
  8
0
100
AcDbPolyline
 90
51
 70
0
 10
-7.099999999999999
 20
11.999999999999998
 10
-7.0861870989978994
 20
12.439533636705189
 10
-7.044802909201344
 20
12.877332634950129
 10
-6.97601075510082
 20
13.31166920210007
 10
-6.880082127900416
 20
13.740829210153985
 10
-6.757395614066074
 20
14.16311896062463
 10
-6.6084354012177595
 20
14.576871868792741
 10
-6.433789367262135
 20
14.980455040955508
 10
-6.234146760307046
 20
15.372275718712004
 10
-6.010295478514103
 20
15.750787564852978
 10
-5.763118960624632
 20
16.11449676604731
 10
-5.4935926994305255
 20
16.461967928240824
 10
-5.202780391949879
 20
16.79182974150082
 10
-4.891829741500821
 20
17.102780391949878
 10
-4.5619679282408265
 20
17.393592699430528
 10
-4.214496766047312
 20
17.66311896062463
 10
-3.8507875648529786
 20
17.910295478514104
 10
-3.472275718712006
 20
18.134146760307047
 10
-3.08045504095551
 20
18.333789367262135
 10
-2.6768718687927437
 20
18.50843540121776
 10
-2.2631189606246327
 20
18.657395614066075
 10
-1.8408292101539865
 20
18.780082127900418
 10
-1.4116692021000719
 20
18.876010755100822
 10
-0.9773326349501315
 20
18.944802909201343
 10
-0.5395336367051918
 20
18.986187098997902
 10
-0.10000000000000066
 20
19.0
 10
0.33953363670519043
 20
18.986187098997902
 10
0.7773326349501303
 20
18.944802909201346
 10
1.2116692021000706
 20
18.876010755100822
 10
1.6408292101539852
 20
18.780082127900418
 10
2.0631189606246316
 20
18.657395614066075
 10
2.4768718687927427
 20
18.50843540121776
 10
2.880455040955509
 20
18.333789367262135
 10
3.272275718712011
 20
18.134146760307043
 10
3.650787564852978
 20
17.910295478514104
 10
4.014496766047311
 20
17.663118960624633
 10
4.3619679282408255
 20
17.393592699430528
 10
4.691829741500822
 20
17.10278039194988
 10
5.00278039194988
 20
16.791829741500823
 10
5.293592699430526
 20
16.461967928240828
 10
5.563118960624632
 20
16.114496766047314
 10
5.810295478514105
 20
15.750787564852981
 10
6.034146760307046
 20
15.372275718712007
 10
6.233789367262137
 20
14.980455040955512
 10
6.408435401217761
 20
14.576871868792747
 10
6.557395614066076
 20
14.163118960624635
 10
6.680082127900418
 20
13.740829210153988
 10
6.776010755100821
 20
13.311669202100074
 10
6.844802909201346
 20
12.877332634950134
 10
6.886187098997902
 20
12.439533636705194
 10
6.900000000000001
 20
12.000000000000002
  0
LWPOLYLINE
  5
32
330
17
100
AcDbEntity
  8
0
100
AcDbPolyline
 90
51
 70
0
 10
6.9
 20
4.90274487674469e-16
 10
6.1240000000000006
 20
4.3513637137948527e-16
 10
5.348000000000001
 20
3.7999825508450153e-16
 10
4.572000000000001
 20
3.248601387895178e-16
 10
3.7960000000000007
 20
2.69722022494534e-16
 10
3.0200000000000005
 20
2.1458390619955021e-16
 10
2.2440000000000007
 20
1.5944578990456647e-16
 10
1.4680000000000009
 20
1.0430767360958273e-16
 10
0.6920000000000011
 20
4.9169557314598994e-17
 10
-0.08399999999999963
 20
-5.968558980384813e-18
 10
-0.8599999999999994
 20
-6.110667527536855e-17
 10
-1.6359999999999992
 20
-1.162447915703523e-16
 10
-2.411999999999999
 20
-1.7138290786533604e-16
 10
-3.187999999999999
 20
-2.265210241603198e-16
 10
-3.9639999999999986
 20
-2.8165914045530353e-16
 10
-4.74
 20
-3.3679725675028737e-16
 10
-5.515999999999998
 20
-3.91935373045271e-16
 10
-6.291999999999998
 20
-4.470734893402548e-16
 10
-7.068
 20
-5.022116056352387e-16
 10
-7.843999999999998
 20
-5.573497219302223e-16
 10
-8.62
 20
-6.124878382252061e-16
 10
-9.395999999999999
 20
-6.676259545201899e-16
 10
-10.171999999999999
 20
-7.227640708151735e-16
 10
-10.947999999999999
 20
-7.779021871101573e-16
 10
-11.723999999999998
 20
-8.33040303405141e-16
 10
-12.499999999999998
 20
-8.881784197001248e-16
 10
-13.275999999999998
 20
-9.433165359951085e-16
 10
-14.051999999999998
 20
-9.984546522900922e-16
 10
-14.827999999999998
 20
-1.0535927685850761e-15
 10
-15.603999999999997
 20
-1.1087308848800598e-15
 10
-16.380000000000003
 20
-1.163869001175044e-15
 10
-17.156
 20
-1.2190071174700274e-15
 10
-17.931999999999995
 20
-1.274145233765011e-15
 10
-18.708
 20
-1.3292833500599948e-15
 10
-19.483999999999995
 20
-1.3844214663549783e-15
 10
-20.259999999999998
 20
-1.4395595826499624e-15
 10
-21.036
 20
-1.4946976989449463e-15
 10
-21.811999999999998
 20
-1.5498358152399298e-15
 10
-22.587999999999994
 20
-1.6049739315349133e-15
 10
-23.363999999999997
 20
-1.6601120478298974e-15
 10
-24.14
 20
-1.7152501641248813e-15
 10
-24.915999999999997
 20
-1.7703882804198648e-15
 10
-25.692
 20
-1.825526396714849e-15
 10
-26.467999999999996
 20
-1.880664513009832e-15
 10
-27.244
 20
-1.9358026293048163e-15
 10
-28.019999999999996
 20
-1.9909407455998e-15
 10
-28.796
 20
-2.0460788618947837e-15
 10
-29.572000000000003
 20
-2.1012169781897678e-15
 10
-30.348
 20
-2.1563550944847515e-15
 10
-31.123999999999995
 20
-2.2114932107797348e-15
 10
-31.9
 20
-2.266631327074719e-15
  0
LWPOLYLINE
  5
33
330
17
100
AcDbEntity
  8
0
100
AcDbPolyline
 90
51
 70
0
 10
3.9000000000000017
 20
12.0
 10
3.8822478584123217
 20
11.623566746725944
 10
3.8291490029147566
 20
11.250474741657102
 10
3.741174742707774
 20
10.884035575843084
 10
3.6191059435530075
 20
10.527501789261288
 10
3.4640260967534733
 20
10.184038001041813
 10
3.2773117020080624
 20
9.856692820084014
 10
3.060620049502764
 20
9.548371785388095
 10
2.8158745096856475
 20
9.261811576285245
 10
2.545247461294609
 20
8.999555721478162
 10
2.2511410091698947
 20
8.76393202250021
 10
1.9361656630014858
 20
8.557031891984225
 10
1.6031171662602932
 20
8.380691790135923
 10
1.254951680981167
 20
8.236476924183098
 10
0.894759548659421
 20
8.125667355485476
 10
0.5257378601609256
 20
8.049246637619449
 10
0.15116207811725604
 20
8.007893086286913
 10
-0.22564303631251023
 20
8.001973758537073
 10
-0.6013329342572155
 20
8.031541194742088
 10
-0.9725729655861666
 20
8.09633295224501
 10
-1.3360679774997875
 20
8.195773934819385
 10
-1.6885915625391215
 20
8.328981497264076
 10
-2.0270146964068596
 20
8.494773279824546
 10
-2.3483335114085206
 20
8.691677702901753
 10
-2.649695958994757
 20
8.917947028896844
 10
-2.928427124746188
 20
9.171572875253808
 10
-3.1820529711031558
 20
9.450304041005243
 10
-3.4083222970982447
 20
9.751666488591477
 10
-3.6052267201754526
 20
10.07298530359314
 10
-3.771018502735922
 20
10.411408437460874
 10
-3.9042260651806124
 20
10.76393202250021
 10
-4.003667047754988
 20
11.127427034413827
 10
-4.06845880525791
 20
11.498667065742781
 10
-4.098026241462925
 20
11.874356963687486
 10
-4.092106913713085
 20
12.25116207811725
 10
-4.05075336238055
 20
12.625737860160923
 10
-3.9743326445145226
 20
12.99475954865942
 10
-3.8635230758169006
 20
13.354951680981165
 10
-3.719308209864078
 20
13.703117166260288
 10
-3.542968108015772
 20
14.036165663001487
 10
-3.3360679774997886
 20
14.351141009169892
 10
-3.1004442785218385
 20
14.645247461294606
 10
-2.8381884237147514
 20
14.915874509685647
 10
-2.5516282146119043
 20
15.16062004950276
 10
-2.2433071799159836
 20
15.377311702008061
 10
-1.9159619989581866
 20
15.564026096753471
 10
-1.5724982107387102
 20
15.719105943553005
 10
-1.2159644241569174
 20
15.841174742707771
 10
-0.8495252583428975
 20
15.929149002914755
 10
-0.47643325327405484
 20
15.98224785841232
 10
-0.09999999999999973
 20
16.0
  0
LWPOLYLINE
  5
34
330
17
100
AcDbEntity
  8
0
100
AcDbPolyline
 90
51
 70
0
 10
-0.09999999999999876
 20
16.0
 10
0.02564303631251441
 20
15.998026241462927
 10
0.15116207811725477
 20
15.992106913713087
 10
0.27643325327405854
 20
15.98224785841232
 10
0.4013329342572183
 20
15.968458805257912
 10
0.5257378601609247
 20
15.950753362380551
 10
0.6495252583428996
 20
15.929149002914755
 10
0.7725729655861714
 20
15.90366704775499
 10
0.8947595486594204
 20
15.874332644514524
 10
1.0159644241569183
 20
15.841174742707771
 10
1.1360679774997908
 20
15.804226065180615
 10
1.2549516809811667
 20
15.763523075816902
 10
1.372498210738713
 20
15.719105943553005
 10
1.4885915625391237
 20
15.671018502735924
 10
1.6031171662602919
 20
15.619308209864078
 10
1.7159619989581882
 20
15.564026096753471
 10
1.8270146964068625
 20
15.505226720175454
 10
1.9361656630014867
 20
15.442968108015775
 10
2.0433071799159883
 20
15.377311702008061
 10
2.148333511408524
 20
15.308322297098247
 10
2.2511410091698942
 20
15.23606797749979
 10
2.3516282146119076
 20
15.16062004950276
 10
2.4496959589947602
 20
15.082052971103156
 10
2.545247461294609
 20
15.000444278521838
 10
2.638188423714756
 20
14.915874509685647
 10
2.728427124746192
 20
14.82842712474619
 10
2.815874509685648
 20
14.738188423714755
 10
2.9004442785218396
 20
14.645247461294607
 10
2.9820529711031587
 20
14.549695958994759
 10
3.0606200495027633
 20
14.451628214611906
 10
3.136067977499791
 20
14.351141009169893
 10
3.208322297098249
 20
14.248333511408523
 10
3.277311702008062
 20
14.143307179915986
 10
3.3429681080157763
 20
14.036165663001485
 10
3.4052267201754565
 20
13.92701469640686
 10
3.464026096753473
 20
13.815961998958187
 10
3.51930820986408
 20
13.703117166260292
 10
3.5710185027359262
 20
13.588591562539122
 10
3.619105943553007
 20
13.472498210738713
 10
3.6635230758169035
 20
13.354951680981166
 10
3.704226065180616
 20
13.23606797749979
 10
3.7411747427077735
 20
13.115964424156918
 10
3.774332644514526
 20
12.994759548659419
 10
3.803667047754991
 20
12.872572965586171
 10
3.829149002914756
 20
12.7495252583429
 10
3.8507533623805528
 20
12.625737860160925
 10
3.8684588052579127
 20
12.501332934257219
 10
3.8822478584123217
 20
12.376433253274058
 10
3.892106913713088
 20
12.251162078117254
 10
3.898026241462928
 20
12.125643036312514
 10
3.9000000000000017
 20
12.0
  0
LWPOLYLINE
  5
35
330
17
100
AcDbEntity
  8
0
100
AcDbPolyline
 90
51
 70
0
 10
-31.9
 20
-2.26663132707472e-15
 10
-31.9
 20
0.09999999999999779
 10
-31.9
 20
0.19999999999999782
 10
-31.9
 20
0.2999999999999979
 10
-31.9
 20
0.3999999999999979
 10
-31.9
 20
0.49999999999999806
 10
-31.9
 20
0.5999999999999981
 10
-31.9
 20
0.6999999999999982
 10
-31.9
 20
0.7999999999999982
 10
-31.9
 20
0.8999999999999982
 10
-31.9
 20
0.9999999999999984
 10
-31.9
 20
1.0999999999999983
 10
-31.9
 20
1.1999999999999984
 10
-31.9
 20
1.2999999999999983
 10
-31.9
 20
1.3999999999999986
 10
-31.9
 20
1.4999999999999987
 10
-31.9
 20
1.5999999999999985
 10
-31.9
 20
1.6999999999999986
 10
-31.9
 20
1.7999999999999987
 10
-31.9
 20
1.899999999999999
 10
-31.9
 20
1.9999999999999991
 10
-31.9
 20
2.0999999999999988
 10
-31.9
 20
2.199999999999999
 10
-31.9
 20
2.299999999999999
 10
-31.9
 20
2.399999999999999
 10
-31.9
 20
2.499999999999999
 10
-31.9
 20
2.5999999999999988
 10
-31.9
 20
2.6999999999999993
 10
-31.9
 20
2.7999999999999994
 10
-31.9
 20
2.8999999999999995
 10
-31.9
 20
2.9999999999999996
 10
-31.9
 20
3.0999999999999996
 10
-31.9
 20
3.1999999999999993
 10
-31.9
 20
3.2999999999999994
 10
-31.9
 20
3.3999999999999995
 10
-31.9
 20
3.4999999999999996
 10
-31.9
 20
3.5999999999999996
 10
-31.9
 20
3.6999999999999993
 10
-31.9
 20
3.8000000000000003
 10
-31.9
 20
3.9
 10
-31.9
 20
4.0
 10
-31.9
 20
4.1
 10
-31.9
 20
4.199999999999999
 10
-31.9
 20
4.3
 10
-31.9
 20
4.3999999999999995
 10
-31.9
 20
4.5
 10
-31.9
 20
4.6
 10
-31.9
 20
4.699999999999999
 10
-31.9
 20
4.8
 10
-31.9
 20
4.9
 10
-31.9
 20
5.0
  0
LWPOLYLINE
  5
36
330
17
100
AcDbEntity
  8
0
100
AcDbPolyline
 90
51
 70
0
 10
-20.0
 20
5.0
 10
-19.742
 20
5.0
 10
-19.484
 20
5.0
 10
-19.226
 20
5.0
 10
-18.968
 20
5.0
 10
-18.71
 20
5.0
 10
-18.451999999999998
 20
5.0
 10
-18.194000000000003
 20
5.0
 10
-17.936
 20
5.0
 10
-17.678
 20
5.0
 10
-17.42
 20
5.0
 10
-17.162
 20
5.0
 10
-16.904
 20
5.0
 10
-16.646
 20
5.0
 10
-16.388
 20
5.0
 10
-16.130000000000003
 20
5.0
 10
-15.872
 20
5.0
 10
-15.614
 20
5.0
 10
-15.356
 20
5.0
 10
-15.098
 20
5.0
 10
-14.84
 20
5.0
 10
-14.582
 20
5.0
 10
-14.324000000000002
 20
5.0
 10
-14.065999999999999
 20
5.0
 10
-13.808
 20
5.0
 10
-13.55
 20
5.0
 10
-13.292000000000002
 20
5.0
 10
-13.034
 20
5.0
 10
-12.776000000000002
 20
5.0
 10
-12.518
 20
5.0
 10
-12.260000000000002
 20
5.0
 10
-12.002
 20
5.0
 10
-11.744000000000002
 20
5.0
 10
-11.486
 20
5.0
 10
-11.228000000000002
 20
5.0
 10
-10.97
 20
5.0
 10
-10.712
 20
5.0
 10
-10.454
 20
5.0
 10
-10.196000000000002
 20
5.0
 10
-9.938
 20
5.0
 10
-9.68
 20
5.0
 10
-9.422
 20
5.0
 10
-9.164000000000001
 20
5.0
 10
-8.905999999999999
 20
5.0
 10
-8.648000000000003
 20
5.0
 10
-8.39
 20
5.0
 10
-8.131999999999998
 20
5.0
 10
-7.874000000000002
 20
5.0
 10
-7.616
 20
5.0
 10
-7.358000000000004
 20
5.0
 10
-7.100000000000001
 20
5.0
  0
LWPOLYLINE
  5
37
330
17
100
AcDbEntity
  8
0
100
AcDbPolyline
 90
51
 70
0
 10
-31.9
 20
5.0
 10
-31.404
 20
5.0
 10
-30.907999999999998
 20
5.0
 10
-30.412
 20
5.0
 10
-29.915999999999997
 20
5.0
 10
-29.419999999999998
 20
5.0
 10
-28.924
 20
5.0
 10
-28.427999999999997
 20
5.0
 10
-27.932
 20
5.0
 10
-27.436
 20
5.0
 10
-26.939999999999998
 20
5.0
 10
-26.444
 20
5.0
 10
-25.948
 20
5.0
 10
-25.451999999999998
 20
5.0
 10
-24.956
 20
5.0
 10
-24.46
 20
5.0
 10
-23.964
 20
5.0
 10
-23.468
 20
5.0
 10
-22.972
 20
5.0
 10
-22.476
 20
5.0
 10
-21.98
 20
5.0
 10
-21.484
 20
5.0
 10
-20.988
 20
5.0
 10
-20.491999999999997
 20
5.0
 10
-19.996000000000002
 20
5.0
 10
-19.5
 20
5.0
 10
-19.003999999999998
 20
5.0
 10
-18.508000000000003
 20
5.0
 10
-18.012
 20
5.0
 10
-17.516
 20
5.0
 10
-17.020000000000003
 20
5.0
 10
-16.524
 20
5.0
 10
-16.028
 20
5.0
 10
-15.532
 20
5.0
 10
-15.036000000000001
 20
5.0
 10
-14.54
 20
5.0
 10
-14.044
 20
5.0
 10
-13.548000000000002
 20
5.0
 10
-13.052
 20
5.0
 10
-12.556000000000001
 20
5.0
 10
-12.060000000000002
 20
5.0
 10
-11.564
 20
5.0
 10
-11.068000000000001
 20
5.0
 10
-10.572000000000003
 20
5.0
 10
-10.076
 20
5.0
 10
-9.580000000000002
 20
5.0
 10
-9.084
 20
5.0
 10
-8.588000000000001
 20
5.0
 10
-8.092000000000002
 20
5.0
 10
-7.596000000000004
 20
5.0
 10
-7.100000000000001
 20
5.0
  0
LWPOLYLINE
  5
38
330
17
100
AcDbEntity
  8
0
100
AcDbPolyline
 90
51
 70
0
 10
-7.1
 20
5.0
 10
-7.1
 20
5.14
 10
-7.1
 20
5.28
 10
-7.1
 20
5.42
 10
-7.1
 20
5.5600000000000005
 10
-7.1
 20
5.7
 10
-7.1
 20
5.84
 10
-7.1
 20
5.98
 10
-7.1
 20
6.12
 10
-7.1
 20
6.26
 10
-7.1
 20
6.4
 10
-7.1
 20
6.54
 10
-7.1
 20
6.68
 10
-7.1000000000000005
 20
6.82
 10
-7.1000000000000005
 20
6.96
 10
-7.1000000000000005
 20
7.1
 10
-7.1000000000000005
 20
7.24
 10
-7.1000000000000005
 20
7.38
 10
-7.1000000000000005
 20
7.52
 10
-7.1000000000000005
 20
7.66
 10
-7.1000000000000005
 20
7.8
 10
-7.1000000000000005
 20
7.9399999999999995
 10
-7.1000000000000005
 20
8.08
 10
-7.1000000000000005
 20
8.22
 10
-7.1000000000000005
 20
8.36
 10
-7.1000000000000005
 20
8.5
 10
-7.1000000000000005
 20
8.64
 10
-7.1000000000000005
 20
8.78
 10
-7.1000000000000005
 20
8.92
 10
-7.1000000000000005
 20
9.059999999999999
 10
-7.1000000000000005
 20
9.2
 10
-7.1000000000000005
 20
9.34
 10
-7.1000000000000005
 20
9.48
 10
-7.1000000000000005
 20
9.620000000000001
 10
-7.1000000000000005
 20
9.76
 10
-7.1000000000000005
 20
9.9
 10
-7.1000000000000005
 20
10.04
 10
-7.1000000000000005
 20
10.18
 10
-7.1000000000000005
 20
10.32
 10
-7.100000000000001
 20
10.46
 10
-7.100000000000001
 20
10.6
 10
-7.100000000000001
 20
10.74
 10
-7.100000000000001
 20
10.879999999999999
 10
-7.100000000000001
 20
11.02
 10
-7.100000000000001
 20
11.16
 10
-7.100000000000001
 20
11.3
 10
-7.100000000000001
 20
11.440000000000001
 10
-7.100000000000001
 20
11.58
 10
-7.100000000000001
 20
11.719999999999999
 10
-7.100000000000001
 20
11.86
 10
-7.100000000000001
 20
12.0
  0
ENDSEC
  0
SECTION
  2
OBJECTS
  0
DICTIONARY
  5
A
330
0
100
AcDbDictionary
280
0
281
1
  3
ACAD_COLOR
350
B
  3
ACAD_GROUP
350
C
  3
ACAD_LAYOUT
350
D
  3
ACAD_MATERIAL
350
E
  3
ACAD_MLEADERSTYLE
350
F
  3
ACAD_MLINESTYLE
350
10
  3
ACAD_PLOTSETTINGS
350
11
  3
ACAD_PLOTSTYLENAME
350
12
  3
ACAD_SCALELIST
350
14
  3
ACAD_TABLESTYLE
350
15
  3
ACAD_VISUALSTYLE
350
16
  3
EZDXF_META
350
2D
  0
DICTIONARY
  5
B
330
A
100
AcDbDictionary
280
0
281
1
  0
DICTIONARY
  5
C
330
A
100
AcDbDictionary
280
0
281
1
  0
DICTIONARY
  5
D
330
A
100
AcDbDictionary
280
0
281
1
  3
Model
350
1A
  3
Layout1
350
1E
  0
DICTIONARY
  5
E
330
A
100
AcDbDictionary
280
0
281
1
  3
ByBlock
350
1F
  3
ByLayer
350
20
  3
Global
350
21
  0
DICTIONARY
  5
F
330
A
100
AcDbDictionary
280
0
281
1
  3
Standard
350
2C
  0
DICTIONARY
  5
10
330
A
100
AcDbDictionary
280
0
281
1
  3
Standard
350
22
  0
DICTIONARY
  5
11
330
A
100
AcDbDictionary
280
0
281
1
  0
ACDBDICTIONARYWDFLT
  5
12
330
A
100
AcDbDictionary
280
0
281
1
  3
Normal
350
13
100
AcDbDictionaryWithDefault
340
13
  0
ACDBPLACEHOLDER
  5
13
330
12
  0
DICTIONARY
  5
14
330
A
100
AcDbDictionary
280
0
281
1
  0
DICTIONARY
  5
15
330
A
100
AcDbDictionary
280
0
281
1
  0
DICTIONARY
  5
16
330
A
100
AcDbDictionary
280
0
281
1
  0
LAYOUT
  5
1A
330
D
100
AcDbPlotSettings
  1

  2
Adobe PDF
  4
A3
  6

 40
7.5
 41
20.0
 42
7.5
 43
20.0
 44
420.0
 45
297.0
 46
0.0
 47
0.0
 48
0.0
 49
0.0
140
0.0
141
0.0
142
1.0
143
1.0
 70
1024
 72
1
 73
0
 74
5
  7

 75
16
 76
0
 77
2
 78
300
147
1.0
148
0.0
149
0.0
100
AcDbLayout
  1
Model
 70
1
 71
0
 10
0.0
 20
0.0
 11
420.0
 21
297.0
 12
0.0
 22
0.0
 32
0.0
 14
1e+20
 24
1e+20
 34
1e+20
 15
-1e+20
 25
-1e+20
 35
-1e+20
146
0.0
 13
0.0
 23
0.0
 33
0.0
 16
1.0
 26
0.0
 36
0.0
 17
0.0
 27
1.0
 37
0.0
 76
1
330
17
  0
LAYOUT
  5
1E
330
D
100
AcDbPlotSettings
  1

  2
Adobe PDF
  4
A3
  6

 40
7.5
 41
20.0
 42
7.5
 43
20.0
 44
420.0
 45
297.0
 46
0.0
 47
0.0
 48
0.0
 49
0.0
140
0.0
141
0.0
142
1.0
143
1.0
 70
0
 72
1
 73
0
 74
5
  7

 75
16
 76
0
 77
2
 78
300
147
1.0
148
0.0
149
0.0
100
AcDbLayout
  1
Layout1
 70
1
 71
1
 10
0.0
 20
0.0
 11
420.0
 21
297.0
 12
0.0
 22
0.0
 32
0.0
 14
1e+20
 24
1e+20
 34
1e+20
 15
-1e+20
 25
-1e+20
 35
-1e+20
146
0.0
 13
0.0
 23
0.0
 33
0.0
 16
1.0
 26
0.0
 36
0.0
 17
0.0
 27
1.0
 37
0.0
 76
1
330
1B
  0
MATERIAL
  5
1F
102
{ACAD_REACTORS
330
E
102
}
330
E
100
AcDbMaterial
  1
ByBlock
  2

 70
0
 40
1.0
 71
1
 41
1.0
 91
-1023410177
 42
1.0
 72
1
  3

 73
1
 74
1
 75
1
 44
0.5
 73
0
 45
1.0
 46
1.0
 77
1
  4

 78
1
 79
1
170
1
 48
1.0
171
1
  6

172
1
173
1
174
1
140
1.0
141
1.0
175
1
  7

176
1
177
1
178
1
143
1.0
179
1
  8

270
1
271
1
272
1
145
1.0
146
1.0
273
1
  9

274
1
275
1
276
1
 42
1.0
 72
1
  3

 73
1
 74
1
 75
1
 94
63
  0
MATERIAL
  5
20
102
{ACAD_REACTORS
330
E
102
}
330
E
100
AcDbMaterial
  1
ByLayer
  2

 70
0
 40
1.0
 71
1
 41
1.0
 91
-1023410177
 42
1.0
 72
1
  3

 73
1
 74
1
 75
1
 44
0.5
 73
0
 45
1.0
 46
1.0
 77
1
  4

 78
1
 79
1
170
1
 48
1.0
171
1
  6

172
1
173
1
174
1
140
1.0
141
1.0
175
1
  7

176
1
177
1
178
1
143
1.0
179
1
  8

270
1
271
1
272
1
145
1.0
146
1.0
273
1
  9

274
1
275
1
276
1
 42
1.0
 72
1
  3

 73
1
 74
1
 75
1
 94
63
  0
MATERIAL
  5
21
102
{ACAD_REACTORS
330
E
102
}
330
E
100
AcDbMaterial
  1
Global
  2

 70
0
 40
1.0
 71
1
 41
1.0
 91
-1023410177
 42
1.0
 72
1
  3

 73
1
 74
1
 75
1
 44
0.5
 73
0
 45
1.0
 46
1.0
 77
1
  4

 78
1
 79
1
170
1
 48
1.0
171
1
  6

172
1
173
1
174
1
140
1.0
141
1.0
175
1
  7

176
1
177
1
178
1
143
1.0
179
1
  8

270
1
271
1
272
1
145
1.0
146
1.0
273
1
  9

274
1
275
1
276
1
 42
1.0
 72
1
  3

 73
1
 74
1
 75
1
 94
63
  0
MLINESTYLE
  5
22
102
{ACAD_REACTORS
330
10
102
}
330
10
100
AcDbMlineStyle
  2
Standard
 70
0
  3

 62
256
 51
90.0
 52
90.0
 71
2
 49
0.5
 62
256
  6
BYLAYER
 49
-0.5
 62
256
  6
BYLAYER
  0
MLEADERSTYLE
  5
2C
102
{ACAD_REACTORS
330
F
102
}
330
F
100
AcDbMLeaderStyle
179
2
170
2
171
1
172
0
 90
2
 40
0.0
 41
0.0
173
1
 91
-1056964608
 92
-2
290
1
 42
2.0
291
1
 43
8.0
  3
Standard
 44
4.0
300

342
29
174
1
175
1
176
0
178
1
 93
-1056964608
 45
4.0
292
0
297
0
 46
4.0
 94
-1056964608
 47
1.0
 49
1.0
140
1.0
294
1
141
0.0
177
0
142
1.0
295
0
296
0
143
3.75
271
0
272
9
273
9
  0
DICTIONARY
  5
2D
330
A
100
AcDbDictionary
281
1
  3
CREATED_BY_EZDXF
350
2E
  3
WRITTEN_BY_EZDXF
350
3B
  0
DICTIONARYVAR
  5
2E
330
2D
100
DictionaryVariables
280
0
  1
1.0.3 @ 2025-05-29T09:38:42.390519+00:00
  0
DICTIONARYVAR
  5
3B
330
2D
100
DictionaryVariables
280
0
  1
1.0.3 @ 2025-05-29T09:38:42.393935+00:00
  0
ENDSEC
  0
EOF
