  0
SECTION
  2
HEADER
  9
$ACADVER
  1
AC1027
  9
$ACADMAINTVER
 70
105
  9
$DWGCODEPAGE
  3
ANSI_1252
  9
$LASTSAVEDBY
  1
ezdxf
  9
$REQUIREDVERSIONS
160
0
  9
$INSBASE
 10
0.0
 20
0.0
 30
0.0
  9
$EXTMIN
 10
1e+20
 20
1e+20
 30
1e+20
  9
$EXTMAX
 10
-1e+20
 20
-1e+20
 30
-1e+20
  9
$LIMMIN
 10
0.0
 20
0.0
  9
$LIMMAX
 10
420.0
 20
297.0
  9
$ORTHOMODE
 70
0
  9
$REGENMODE
 70
1
  9
$FILLMODE
 70
1
  9
$QTEXTMODE
 70
0
  9
$MIRRTEXT
 70
1
  9
$LTSCALE
 40
1.0
  9
$ATTMODE
 70
1
  9
$TEXTSIZE
 40
2.5
  9
$TRACEWID
 40
1.0
  9
$TEXTSTYLE
  7
Standard
  9
$CLAYER
  8
0
  9
$CELTYPE
  6
ByLayer
  9
$CECOLOR
 62
256
  9
$CELTSCALE
 40
1.0
  9
$DISPSILH
 70
0
  9
$DIMSCALE
 40
1.0
  9
$DIMASZ
 40
2.5
  9
$DIMEXO
 40
0.625
  9
$DIMDLI
 40
3.75
  9
$DIMRND
 40
0.0
  9
$DIMDLE
 40
0.0
  9
$DIMEXE
 40
1.25
  9
$DIMTP
 40
0.0
  9
$DIMTM
 40
0.0
  9
$DIMTXT
 40
2.5
  9
$DIMCEN
 40
2.5
  9
$DIMTSZ
 40
0.0
  9
$DIMTOL
 70
0
  9
$DIMLIM
 70
0
  9
$DIMTIH
 70
0
  9
$DIMTOH
 70
0
  9
$DIMSE1
 70
0
  9
$DIMSE2
 70
0
  9
$DIMTAD
 70
1
  9
$DIMZIN
 70
8
  9
$DIMBLK
  1

  9
$DIMASO
 70
1
  9
$DIMSHO
 70
1
  9
$DIMPOST
  1

  9
$DIMAPOST
  1

  9
$DIMALT
 70
0
  9
$DIMALTD
 70
3
  9
$DIMALTF
 40
0.03937007874
  9
$DIMLFAC
 40
1.0
  9
$DIMTOFL
 70
1
  9
$DIMTVP
 40
0.0
  9
$DIMTIX
 70
0
  9
$DIMSOXD
 70
0
  9
$DIMSAH
 70
0
  9
$DIMBLK1
  1

  9
$DIMBLK2
  1

  9
$DIMSTYLE
  2
ISO-25
  9
$DIMCLRD
 70
0
  9
$DIMCLRE
 70
0
  9
$DIMCLRT
 70
0
  9
$DIMTFAC
 40
1.0
  9
$DIMGAP
 40
0.625
  9
$DIMJUST
 70
0
  9
$DIMSD1
 70
0
  9
$DIMSD2
 70
0
  9
$DIMTOLJ
 70
0
  9
$DIMTZIN
 70
8
  9
$DIMALTZ
 70
0
  9
$DIMALTTZ
 70
0
  9
$DIMUPT
 70
0
  9
$DIMDEC
 70
2
  9
$DIMTDEC
 70
2
  9
$DIMALTU
 70
2
  9
$DIMALTTD
 70
3
  9
$DIMTXSTY
  7
Standard
  9
$DIMAUNIT
 70
0
  9
$DIMADEC
 70
0
  9
$DIMALTRND
 40
0.0
  9
$DIMAZIN
 70
0
  9
$DIMDSEP
 70
44
  9
$DIMATFIT
 70
3
  9
$DIMFRAC
 70
0
  9
$DIMLDRBLK
  1

  9
$DIMLUNIT
 70
2
  9
$DIMLWD
 70
-2
  9
$DIMLWE
 70
-2
  9
$DIMTMOVE
 70
0
  9
$DIMFXL
 40
1.0
  9
$DIMFXLON
 70
0
  9
$DIMJOGANG
 40
0.785398163397
  9
$DIMTFILL
 70
0
  9
$DIMTFILLCLR
 70
0
  9
$DIMARCSYM
 70
0
  9
$DIMLTYPE
  6

  9
$DIMLTEX1
  6

  9
$DIMLTEX2
  6

  9
$DIMTXTDIRECTION
 70
0
  9
$LUNITS
 70
2
  9
$LUPREC
 70
4
  9
$SKETCHINC
 40
1.0
  9
$FILLETRAD
 40
10.0
  9
$AUNITS
 70
0
  9
$AUPREC
 70
2
  9
$MENU
  1
.
  9
$ELEVATION
 40
0.0
  9
$PELEVATION
 40
0.0
  9
$THICKNESS
 40
0.0
  9
$LIMCHECK
 70
0
  9
$CHAMFERA
 40
0.0
  9
$CHAMFERB
 40
0.0
  9
$CHAMFERC
 40
0.0
  9
$CHAMFERD
 40
0.0
  9
$SKPOLY
 70
0
  9
$TDCREATE
 40
2460825.776898148
  9
$TDUCREATE
 40
2458532.153996898
  9
$TDUPDATE
 40
2460825.776898148
  9
$TDUUPDATE
 40
2458532.1544311
  9
$TDINDWG
 40
0.0
  9
$TDUSRTIMER
 40
0.0
  9
$USRTIMER
 70
1
  9
$ANGBASE
 50
0.0
  9
$ANGDIR
 70
0
  9
$PDMODE
 70
0
  9
$PDSIZE
 40
0.0
  9
$PLINEWID
 40
0.0
  9
$SPLFRAME
 70
0
  9
$SPLINETYPE
 70
6
  9
$SPLINESEGS
 70
8
  9
$HANDSEED
  5
3B
  9
$SURFTAB1
 70
6
  9
$SURFTAB2
 70
6
  9
$SURFTYPE
 70
6
  9
$SURFU
 70
6
  9
$SURFV
 70
6
  9
$UCSBASE
  2

  9
$UCSNAME
  2

  9
$UCSORG
 10
0.0
 20
0.0
 30
0.0
  9
$UCSXDIR
 10
1.0
 20
0.0
 30
0.0
  9
$UCSYDIR
 10
0.0
 20
1.0
 30
0.0
  9
$UCSORTHOREF
  2

  9
$UCSORTHOVIEW
 70
0
  9
$UCSORGTOP
 10
0.0
 20
0.0
 30
0.0
  9
$UCSORGBOTTOM
 10
0.0
 20
0.0
 30
0.0
  9
$UCSORGLEFT
 10
0.0
 20
0.0
 30
0.0
  9
$UCSORGRIGHT
 10
0.0
 20
0.0
 30
0.0
  9
$UCSORGFRONT
 10
0.0
 20
0.0
 30
0.0
  9
$UCSORGBACK
 10
0.0
 20
0.0
 30
0.0
  9
$PUCSBASE
  2

  9
$PUCSNAME
  2

  9
$PUCSORG
 10
0.0
 20
0.0
 30
0.0
  9
$PUCSXDIR
 10
1.0
 20
0.0
 30
0.0
  9
$PUCSYDIR
 10
0.0
 20
1.0
 30
0.0
  9
$PUCSORTHOREF
  2

  9
$PUCSORTHOVIEW
 70
0
  9
$PUCSORGTOP
 10
0.0
 20
0.0
 30
0.0
  9
$PUCSORGBOTTOM
 10
0.0
 20
0.0
 30
0.0
  9
$PUCSORGLEFT
 10
0.0
 20
0.0
 30
0.0
  9
$PUCSORGRIGHT
 10
0.0
 20
0.0
 30
0.0
  9
$PUCSORGFRONT
 10
0.0
 20
0.0
 30
0.0
  9
$PUCSORGBACK
 10
0.0
 20
0.0
 30
0.0
  9
$USERI1
 70
0
  9
$USERI2
 70
0
  9
$USERI3
 70
0
  9
$USERI4
 70
0
  9
$USERI5
 70
0
  9
$USERR1
 40
0.0
  9
$USERR2
 40
0.0
  9
$USERR3
 40
0.0
  9
$USERR4
 40
0.0
  9
$USERR5
 40
0.0
  9
$WORLDVIEW
 70
1
  9
$SHADEDGE
 70
3
  9
$SHADEDIF
 70
70
  9
$TILEMODE
 70
1
  9
$MAXACTVP
 70
64
  9
$PINSBASE
 10
0.0
 20
0.0
 30
0.0
  9
$PLIMCHECK
 70
0
  9
$PEXTMIN
 10
1e+20
 20
1e+20
 30
1e+20
  9
$PEXTMAX
 10
-1e+20
 20
-1e+20
 30
-1e+20
  9
$PLIMMIN
 10
0.0
 20
0.0
  9
$PLIMMAX
 10
420.0
 20
297.0
  9
$UNITMODE
 70
0
  9
$VISRETAIN
 70
1
  9
$PLINEGEN
 70
0
  9
$PSLTSCALE
 70
1
  9
$TREEDEPTH
 70
3020
  9
$CMLSTYLE
  2
Standard
  9
$CMLJUST
 70
0
  9
$CMLSCALE
 40
20.0
  9
$PROXYGRAPHICS
 70
1
  9
$MEASUREMENT
 70
1
  9
$CELWEIGHT
370
-1
  9
$ENDCAPS
280
0
  9
$JOINSTYLE
280
0
  9
$LWDISPLAY
290
0
  9
$INSUNITS
 70
6
  9
$HYPERLINKBASE
  1

  9
$STYLESHEET
  1

  9
$XEDIT
290
1
  9
$CEPSNTYPE
380
0
  9
$PSTYLEMODE
290
1
  9
$FINGERPRINTGUID
  2
{30FE2099-C0D0-4446-9FF7-9C35B9AAEE90}
  9
$VERSIONGUID
  2
{4E25BDD7-67C2-4EA6-BE3B-99AE1353EB00}
  9
$EXTNAMES
290
1
  9
$PSVPSCALE
 40
0.0
  9
$OLESTARTUP
290
0
  9
$SORTENTS
280
127
  9
$INDEXCTL
280
0
  9
$HIDETEXT
280
1
  9
$XCLIPFRAME
280
0
  9
$HALOGAP
280
0
  9
$OBSCOLOR
 70
257
  9
$OBSLTYPE
280
0
  9
$INTERSECTIONDISPLAY
280
0
  9
$INTERSECTIONCOLOR
 70
257
  9
$DIMASSOC
280
2
  9
$PROJECTNAME
  1

  9
$CAMERADISPLAY
290
0
  9
$LENSLENGTH
 40
50.0
  9
$CAMERAHEIGHT
 40
0.0
  9
$STEPSPERSEC
 40
24.0
  9
$STEPSIZE
 40
100.0
  9
$3DDWFPREC
 40
2.0
  9
$PSOLWIDTH
 40
0.005
  9
$PSOLHEIGHT
 40
0.08
  9
$LOFTANG1
 40
1.570796326795
  9
$LOFTANG2
 40
1.570796326795
  9
$LOFTMAG1
 40
0.0
  9
$LOFTMAG2
 40
0.0
  9
$LOFTPARAM
 70
7
  9
$LOFTNORMALS
280
1
  9
$LATITUDE
 40
37.795
  9
$LONGITUDE
 40
-122.394
  9
$NORTHDIRECTION
 40
0.0
  9
$TIMEZONE
 70
-8000
  9
$LIGHTGLYPHDISPLAY
280
1
  9
$TILEMODELIGHTSYNCH
280
1
  9
$CMATERIAL
347
20
  9
$SOLIDHIST
280
0
  9
$SHOWHIST
280
1
  9
$DWFFRAME
280
2
  9
$DGNFRAME
280
2
  9
$REALWORLDSCALE
290
1
  9
$INTERFERECOLOR
 62
256
  9
$CSHADOW
280
0
  9
$SHADOWPLANELOCATION
 40
0.0
  0
ENDSEC
  0
SECTION
  2
CLASSES
  0
CLASS
  1
ACDBDICTIONARYWDFLT
  2
AcDbDictionaryWithDefault
  3
ObjectDBX Classes
 90
0
 91
0
280
0
281
0
  0
CLASS
  1
SUN
  2
AcDbSun
  3
SCENEOE
 90
1153
 91
0
280
0
281
0
  0
CLASS
  1
VISUALSTYLE
  2
AcDbVisualStyle
  3
ObjectDBX Classes
 90
4095
 91
0
280
0
281
0
  0
CLASS
  1
MATERIAL
  2
AcDbMaterial
  3
ObjectDBX Classes
 90
1153
 91
0
280
0
281
0
  0
CLASS
  1
SCALE
  2
AcDbScale
  3
ObjectDBX Classes
 90
1153
 91
0
280
0
281
0
  0
CLASS
  1
TABLESTYLE
  2
AcDbTableStyle
  3
ObjectDBX Classes
 90
4095
 91
0
280
0
281
0
  0
CLASS
  1
MLEADERSTYLE
  2
AcDbMLeaderStyle
  3
ACDB_MLEADERSTYLE_CLASS
 90
4095
 91
0
280
0
281
0
  0
CLASS
  1
DICTIONARYVAR
  2
AcDbDictionaryVar
  3
ObjectDBX Classes
 90
0
 91
0
280
0
281
0
  0
CLASS
  1
CELLSTYLEMAP
  2
AcDbCellStyleMap
  3
ObjectDBX Classes
 90
1152
 91
0
280
0
281
0
  0
CLASS
  1
MENTALRAYRENDERSETTINGS
  2
AcDbMentalRayRenderSettings
  3
SCENEOE
 90
1024
 91
0
280
0
281
0
  0
CLASS
  1
ACDBDETAILVIEWSTYLE
  2
AcDbDetailViewStyle
  3
ObjectDBX Classes
 90
1025
 91
0
280
0
281
0
  0
CLASS
  1
ACDBSECTIONVIEWSTYLE
  2
AcDbSectionViewStyle
  3
ObjectDBX Classes
 90
1025
 91
0
280
0
281
0
  0
CLASS
  1
RASTERVARIABLES
  2
AcDbRasterVariables
  3
ISM
 90
0
 91
0
280
0
281
0
  0
CLASS
  1
LAYOUT
  2
AcDbLayout
  3
ObjectDBX Classes
 90
0
 91
0
280
0
281
0
  0
CLASS
  1
ACDBPLACEHOLDER
  2
AcDbPlaceHolder
  3
ObjectDBX Classes
 90
0
 91
0
280
0
281
0
  0
ENDSEC
  0
SECTION
  2
TABLES
  0
TABLE
  2
VPORT
  5
8
330
0
100
AcDbSymbolTable
 70
1
  0
VPORT
  5
23
330
8
100
AcDbSymbolTableRecord
100
AcDbViewportTableRecord
  2
*Active
 70
0
 10
0.0
 20
0.0
 11
1.0
 21
1.0
 12
0.0
 22
0.0
 13
0.0
 23
0.0
 14
0.5
 24
0.5
 15
0.5
 25
0.5
 16
0.0
 26
0.0
 36
1.0
 17
0.0
 27
0.0
 37
0.0
 40
1000.0
 41
1.34
 42
50.0
 43
0.0
 44
0.0
 50
0.0
 51
0.0
 71
0
 72
1000
 73
1
 74
3
 75
0
 76
0
 77
0
 78
0
281
0
 65
0
146
0.0
  0
ENDTAB
  0
TABLE
  2
LTYPE
  5
2
330
0
100
AcDbSymbolTable
 70
3
  0
LTYPE
  5
24
330
2
100
AcDbSymbolTableRecord
100
AcDbLinetypeTableRecord
  2
ByBlock
 70
0
  3

 72
65
 73
0
 40
0.0
  0
LTYPE
  5
25
330
2
100
AcDbSymbolTableRecord
100
AcDbLinetypeTableRecord
  2
ByLayer
 70
0
  3

 72
65
 73
0
 40
0.0
  0
LTYPE
  5
26
330
2
100
AcDbSymbolTableRecord
100
AcDbLinetypeTableRecord
  2
Continuous
 70
0
  3

 72
65
 73
0
 40
0.0
  0
ENDTAB
  0
TABLE
  2
LAYER
  5
1
330
0
100
AcDbSymbolTable
 70
2
  0
LAYER
  5
27
330
1
100
AcDbSymbolTableRecord
100
AcDbLayerTableRecord
  2
0
 70
0
 62
7
  6
Continuous
370
-3
390
13
347
21
  0
LAYER
  5
28
330
1
100
AcDbSymbolTableRecord
100
AcDbLayerTableRecord
  2
Defpoints
 70
0
 62
7
  6
Continuous
290
0
370
-3
390
13
347
21
  0
ENDTAB
  0
TABLE
  2
STYLE
  5
5
330
0
100
AcDbSymbolTable
 70
1
  0
STYLE
  5
29
330
5
100
AcDbSymbolTableRecord
100
AcDbTextStyleTableRecord
  2
Standard
 70
0
 40
0.0
 41
1.0
 50
0.0
 71
0
 42
2.5
  3
txt
  4

  0
ENDTAB
  0
TABLE
  2
VIEW
  5
7
330
0
100
AcDbSymbolTable
 70
0
  0
ENDTAB
  0
TABLE
  2
UCS
  5
6
330
0
100
AcDbSymbolTable
 70
0
  0
ENDTAB
  0
TABLE
  2
APPID
  5
3
330
0
100
AcDbSymbolTable
 70
3
  0
APPID
  5
2A
330
3
100
AcDbSymbolTableRecord
100
AcDbRegAppTableRecord
  2
ACAD
 70
0
  0
APPID
  5
38
330
3
100
AcDbSymbolTableRecord
100
AcDbRegAppTableRecord
  2
HATCHBACKGROUNDCOLOR
 70
0
  0
APPID
  5
39
330
3
100
AcDbSymbolTableRecord
100
AcDbRegAppTableRecord
  2
EZDXF
 70
0
  0
ENDTAB
  0
TABLE
  2
DIMSTYLE
  5
4
330
0
100
AcDbSymbolTable
 70
1
100
AcDbDimStyleTable
  0
DIMSTYLE
105
2B
330
4
100
AcDbSymbolTableRecord
100
AcDbDimStyleTableRecord
  2
Standard
 70
0
 40
1.0
 41
2.5
 42
0.625
 43
3.75
 44
1.25
 45
0.0
 46
0.0
 47
0.0
 48
0.0
 49
2.5
140
2.5
141
2.5
142
0.0
143
0.03937007874
144
1.0
145
0.0
146
1.0
147
0.625
148
0.0
 69
0
 70
0
 71
0
 72
0
 73
0
 74
0
 75
0
 76
0
 77
1
 78
8
 79
3
170
0
171
3
172
1
173
0
174
0
175
0
176
0
177
0
178
0
179
2
271
2
272
2
273
2
274
3
275
0
276
0
277
2
278
44
279
0
280
0
281
0
282
0
283
0
284
8
285
0
286
0
288
0
289
3
290
0
371
-2
372
-2
  0
ENDTAB
  0
TABLE
  2
BLOCK_RECORD
  5
9
330
0
100
AcDbSymbolTable
 70
2
  0
BLOCK_RECORD
  5
17
330
9
100
AcDbSymbolTableRecord
100
AcDbBlockTableRecord
  2
*Model_Space
340
1A
 70
0
280
1
281
0
  0
BLOCK_RECORD
  5
1B
330
9
100
AcDbSymbolTableRecord
100
AcDbBlockTableRecord
  2
*Paper_Space
340
1E
 70
0
280
1
281
0
  0
ENDTAB
  0
ENDSEC
  0
SECTION
  2
BLOCKS
  0
BLOCK
  5
18
330
17
100
AcDbEntity
  8
0
100
AcDbBlockBegin
  2
*Model_Space
 70
0
 10
0.0
 20
0.0
 30
0.0
  3
*Model_Space
  1

  0
ENDBLK
  5
19
330
17
100
AcDbEntity
  8
0
100
AcDbBlockEnd
  0
BLOCK
  5
1C
330
1B
100
AcDbEntity
  8
0
100
AcDbBlockBegin
  2
*Paper_Space
 70
0
 10
0.0
 20
0.0
 30
0.0
  3
*Paper_Space
  1

  0
ENDBLK
  5
1D
330
1B
100
AcDbEntity
  8
0
100
AcDbBlockEnd
  0
ENDSEC
  0
SECTION
  2
ENTITIES
  0
LWPOLYLINE
  5
2F
330
17
100
AcDbEntity
  8
0
100
AcDbPolyline
 90
51
 70
0
 10
4.700000000000002
 20
12.0
 10
4.700000000000002
 20
11.86
 10
4.700000000000002
 20
11.719999999999999
 10
4.700000000000002
 20
11.58
 10
4.700000000000002
 20
11.44
 10
4.700000000000002
 20
11.3
 10
4.700000000000002
 20
11.16
 10
4.700000000000002
 20
11.02
 10
4.700000000000002
 20
10.879999999999999
 10
4.700000000000002
 20
10.74
 10
4.700000000000002
 20
10.6
 10
4.700000000000002
 20
10.46
 10
4.700000000000001
 20
10.32
 10
4.700000000000001
 20
10.18
 10
4.700000000000001
 20
10.04
 10
4.700000000000001
 20
9.9
 10
4.700000000000001
 20
9.76
 10
4.700000000000001
 20
9.620000000000001
 10
4.700000000000001
 20
9.48
 10
4.700000000000001
 20
9.34
 10
4.700000000000001
 20
9.2
 10
4.700000000000001
 20
9.06
 10
4.700000000000001
 20
8.92
 10
4.700000000000001
 20
8.78
 10
4.700000000000001
 20
8.64
 10
4.700000000000001
 20
8.5
 10
4.700000000000001
 20
8.36
 10
4.700000000000001
 20
8.22
 10
4.700000000000001
 20
8.08
 10
4.700000000000001
 20
7.94
 10
4.700000000000001
 20
7.8
 10
4.700000000000001
 20
7.66
 10
4.700000000000001
 20
7.52
 10
4.700000000000001
 20
7.38
 10
4.700000000000001
 20
7.24
 10
4.700000000000001
 20
7.1
 10
4.700000000000001
 20
6.96
 10
4.700000000000001
 20
6.82
 10
4.7
 20
6.68
 10
4.7
 20
6.54
 10
4.7
 20
6.4
 10
4.7
 20
6.26
 10
4.7
 20
6.12
 10
4.7
 20
5.98
 10
4.7
 20
5.84
 10
4.7
 20
5.7
 10
4.7
 20
5.56
 10
4.7
 20
5.42
 10
4.7
 20
5.28
 10
4.7
 20
5.14
 10
4.7
 20
5.0
  0
LWPOLYLINE
  5
30
330
17
100
AcDbEntity
  8
0
100
AcDbPolyline
 90
51
 70
0
 10
-9.3
 20
6.60804744256893e-16
 10
-8.428
 20
5.988454176986123e-16
 10
-7.556000000000001
 20
5.368860911403316e-16
 10
-6.684000000000001
 20
4.749267645820508e-16
 10
-5.812000000000001
 20
4.1296743802377016e-16
 10
-4.940000000000001
 20
3.510081114654895e-16
 10
-4.068000000000001
 20
2.8904878490720876e-16
 10
-3.1960000000000024
 20
2.2708945834892813e-16
 10
-2.3240000000000016
 20
1.6513013179064733e-16
 10
-1.4520000000000008
 20
1.0317080523236657e-16
 10
-0.5800000000000018
 20
4.121147867408593e-17
 10
0.29199999999999804
 20
-2.074784788419478e-17
 10
1.163999999999998
 20
-8.270717444247548e-17
 10
2.035999999999998
 20
-1.446665010007562e-16
 10
2.907999999999996
 20
-2.0662582755903678e-16
 10
3.7799999999999976
 20
-2.6858515411731763e-16
 10
4.6519999999999975
 20
-3.305444806755983e-16
 10
5.523999999999997
 20
-3.9250380723387903e-16
 10
6.395999999999999
 20
-4.544631337921599e-16
 10
7.267999999999997
 20
-5.164224603504405e-16
 10
8.139999999999997
 20
-5.783817869087212e-16
 10
9.011999999999997
 20
-6.403411134670018e-16
 10
9.883999999999997
 20
-7.023004400252826e-16
 10
10.755999999999997
 20
-7.642597665835633e-16
 10
11.627999999999997
 20
-8.26219093141844e-16
 10
12.499999999999996
 20
-8.881784197001247e-16
 10
13.371999999999996
 20
-9.501377462584054e-16
 10
14.243999999999996
 20
-1.0120970728166862e-15
 10
15.115999999999993
 20
-1.0740563993749666e-15
 10
15.987999999999996
 20
-1.1360157259332475e-15
 10
16.859999999999996
 20
-1.1979750524915283e-15
 10
17.731999999999996
 20
-1.2599343790498089e-15
 10
18.603999999999996
 20
-1.3218937056080897e-15
 10
19.475999999999996
 20
-1.3838530321663704e-15
 10
20.347999999999995
 20
-1.445812358724651e-15
 10
21.219999999999995
 20
-1.5077716852829318e-15
 10
22.092
 20
-1.5697310118412128e-15
 10
22.963999999999995
 20
-1.6316903383994932e-15
 10
23.835999999999995
 20
-1.693649664957774e-15
 10
24.707999999999995
 20
-1.7556089915160545e-15
 10
25.579999999999995
 20
-1.8175683180743353e-15
 10
26.451999999999995
 20
-1.879527644632616e-15
 10
27.323999999999995
 20
-1.941486971190897e-15
 10
28.195999999999994
 20
-2.0034462977491776e-15
 10
29.067999999999994
 20
-2.065405624307458e-15
 10
29.939999999999994
 20
-2.1273649508657388e-15
 10
30.811999999999994
 20
-2.1893242774240195e-15
 10
31.683999999999994
 20
-2.2512836039823003e-15
 10
32.556
 20
-2.313242930540581e-15
 10
33.428
 20
-2.375202257098862e-15
 10
34.3
 20
-2.4371615836571426e-15
  0
LWPOLYLINE
  5
31
330
17
100
AcDbEntity
  8
0
100
AcDbPolyline
 90
51
 70
0
 10
34.3
 20
-2.43716158365714e-15
 10
34.3
 20
0.0999999999999976
 10
34.3
 20
0.19999999999999765
 10
34.3
 20
0.2999999999999977
 10
34.3
 20
0.39999999999999775
 10
34.3
 20
0.4999999999999979
 10
34.3
 20
0.5999999999999979
 10
34.3
 20
0.699999999999998
 10
34.3
 20
0.7999999999999979
 10
34.3
 20
0.899999999999998
 10
34.3
 20
0.9999999999999982
 10
34.3
 20
1.099999999999998
 10
34.3
 20
1.1999999999999982
 10
34.3
 20
1.299999999999998
 10
34.3
 20
1.3999999999999984
 10
34.3
 20
1.4999999999999984
 10
34.3
 20
1.5999999999999983
 10
34.3
 20
1.6999999999999984
 10
34.3
 20
1.7999999999999985
 10
34.3
 20
1.8999999999999988
 10
34.3
 20
1.9999999999999991
 10
34.3
 20
2.0999999999999988
 10
34.3
 20
2.199999999999999
 10
34.3
 20
2.299999999999999
 10
34.3
 20
2.399999999999999
 10
34.3
 20
2.499999999999999
 10
34.3
 20
2.5999999999999988
 10
34.3
 20
2.6999999999999993
 10
34.3
 20
2.7999999999999994
 10
34.3
 20
2.8999999999999995
 10
34.3
 20
2.9999999999999996
 10
34.3
 20
3.0999999999999996
 10
34.3
 20
3.1999999999999993
 10
34.3
 20
3.2999999999999994
 10
34.3
 20
3.3999999999999995
 10
34.3
 20
3.4999999999999996
 10
34.3
 20
3.5999999999999996
 10
34.3
 20
3.6999999999999993
 10
34.3
 20
3.8000000000000003
 10
34.3
 20
3.9
 10
34.3
 20
4.0
 10
34.3
 20
4.1
 10
34.3
 20
4.199999999999999
 10
34.3
 20
4.3
 10
34.3
 20
4.3999999999999995
 10
34.3
 20
4.5
 10
34.3
 20
4.6
 10
34.3
 20
4.699999999999999
 10
34.3
 20
4.8
 10
34.3
 20
4.9
 10
34.3
 20
5.0
  0
LWPOLYLINE
  5
32
330
17
100
AcDbEntity
  8
0
100
AcDbPolyline
 90
51
 70
0
 10
4.699999999999999
 20
5.0
 10
5.006
 20
5.0
 10
5.311999999999998
 20
5.0
 10
5.6179999999999986
 20
5.0
 10
5.9239999999999995
 20
5.0
 10
6.23
 20
5.0
 10
6.536000000000001
 20
5.0
 10
6.841999999999999
 20
5.0
 10
7.148
 20
5.0
 10
7.454000000000001
 20
5.0
 10
7.759999999999998
 20
5.0
 10
8.065999999999999
 20
5.0
 10
8.372
 20
5.0
 10
8.678
 20
5.0
 10
8.984000000000002
 20
5.0
 10
9.29
 20
5.0
 10
9.596
 20
5.0
 10
9.902000000000001
 20
5.0
 10
10.208
 20
5.0
 10
10.514
 20
5.0
 10
10.82
 20
5.0
 10
11.126
 20
5.0
 10
11.431999999999999
 20
5.0
 10
11.738
 20
5.0
 10
12.044
 20
5.0
 10
12.35
 20
5.0
 10
12.655999999999999
 20
5.0
 10
12.962
 20
5.0
 10
13.268
 20
5.0
 10
13.574
 20
5.0
 10
13.879999999999999
 20
5.0
 10
14.186
 20
5.0
 10
14.491999999999999
 20
5.0
 10
14.798
 20
5.0
 10
15.104000000000001
 20
5.0
 10
15.41
 20
5.0
 10
15.716000000000001
 20
5.0
 10
16.022
 20
5.0
 10
16.328
 20
5.0
 10
16.634
 20
5.0
 10
16.939999999999998
 20
5.0
 10
17.246000000000002
 20
5.0
 10
17.552
 20
5.0
 10
17.857999999999997
 20
5.0
 10
18.164
 20
5.0
 10
18.47
 20
5.0
 10
18.776
 20
5.0
 10
19.082
 20
5.0
 10
19.388
 20
5.0
 10
19.694000000000003
 20
5.0
 10
20.0
 20
5.0
  0
LWPOLYLINE
  5
33
330
17
100
AcDbEntity
  8
0
100
AcDbPolyline
 90
51
 70
0
 10
34.3
 20
5.0
 10
33.708
 20
5.0
 10
33.116
 20
5.0
 10
32.524
 20
5.0
 10
31.931999999999995
 20
5.0
 10
31.339999999999996
 20
5.0
 10
30.747999999999998
 20
5.0
 10
30.156
 20
5.0
 10
29.563999999999997
 20
5.0
 10
28.971999999999998
 20
5.0
 10
28.379999999999995
 20
5.0
 10
27.787999999999997
 20
5.0
 10
27.195999999999998
 20
5.0
 10
26.604
 20
5.0
 10
26.011999999999997
 20
5.0
 10
25.419999999999998
 20
5.0
 10
24.827999999999996
 20
5.0
 10
24.235999999999997
 20
5.0
 10
23.644
 20
5.0
 10
23.052
 20
5.0
 10
22.459999999999997
 20
5.0
 10
21.868
 20
5.0
 10
21.275999999999996
 20
5.0
 10
20.683999999999997
 20
5.0
 10
20.092
 20
5.0
 10
19.499999999999996
 20
5.0
 10
18.908
 20
5.0
 10
18.316
 20
5.0
 10
17.723999999999997
 20
5.0
 10
17.131999999999998
 20
5.0
 10
16.54
 20
5.0
 10
15.948
 20
5.0
 10
15.355999999999998
 20
5.0
 10
14.764
 20
5.0
 10
14.171999999999997
 20
5.0
 10
13.579999999999998
 20
5.0
 10
12.988
 20
5.0
 10
12.396
 20
5.0
 10
11.803999999999998
 20
5.0
 10
11.212
 20
5.0
 10
10.619999999999997
 20
5.0
 10
10.027999999999999
 20
5.0
 10
9.436
 20
5.0
 10
8.843999999999998
 20
5.0
 10
8.251999999999999
 20
5.0
 10
7.659999999999997
 20
5.0
 10
7.067999999999998
 20
5.0
 10
6.475999999999999
 20
5.0
 10
5.883999999999997
 20
5.0
 10
5.292000000000002
 20
5.0
 10
4.699999999999996
 20
5.0
  0
LWPOLYLINE
  5
34
330
17
100
AcDbEntity
  8
0
100
AcDbPolyline
 90
51
 70
0
 10
4.7
 20
5.0
 10
4.7
 20
5.14
 10
4.7
 20
5.28
 10
4.7
 20
5.42
 10
4.7
 20
5.5600000000000005
 10
4.7
 20
5.7
 10
4.7
 20
5.84
 10
4.7
 20
5.98
 10
4.7
 20
6.12
 10
4.7
 20
6.26
 10
4.7
 20
6.4
 10
4.7
 20
6.54
 10
4.7
 20
6.68
 10
4.700000000000001
 20
6.82
 10
4.700000000000001
 20
6.96
 10
4.700000000000001
 20
7.1
 10
4.700000000000001
 20
7.24
 10
4.700000000000001
 20
7.38
 10
4.700000000000001
 20
7.52
 10
4.700000000000001
 20
7.66
 10
4.700000000000001
 20
7.8
 10
4.700000000000001
 20
7.9399999999999995
 10
4.700000000000001
 20
8.08
 10
4.700000000000001
 20
8.22
 10
4.700000000000001
 20
8.36
 10
4.700000000000001
 20
8.5
 10
4.700000000000001
 20
8.64
 10
4.700000000000001
 20
8.78
 10
4.700000000000001
 20
8.92
 10
4.700000000000001
 20
9.059999999999999
 10
4.700000000000001
 20
9.2
 10
4.700000000000001
 20
9.34
 10
4.700000000000001
 20
9.48
 10
4.700000000000001
 20
9.620000000000001
 10
4.700000000000001
 20
9.76
 10
4.700000000000001
 20
9.9
 10
4.700000000000001
 20
10.04
 10
4.700000000000001
 20
10.18
 10
4.700000000000001
 20
10.32
 10
4.700000000000002
 20
10.46
 10
4.700000000000002
 20
10.6
 10
4.700000000000002
 20
10.74
 10
4.700000000000002
 20
10.879999999999999
 10
4.700000000000002
 20
11.02
 10
4.700000000000002
 20
11.16
 10
4.700000000000002
 20
11.3
 10
4.700000000000002
 20
11.440000000000001
 10
4.700000000000002
 20
11.58
 10
4.700000000000002
 20
11.719999999999999
 10
4.700000000000002
 20
11.86
 10
4.700000000000002
 20
12.0
  0
LWPOLYLINE
  5
35
330
17
100
AcDbEntity
  8
0
100
AcDbPolyline
 90
51
 70
0
 10
4.7
 20
11.999999999999998
 10
4.686187098997901
 20
12.439533636705189
 10
4.644802909201346
 20
12.877332634950129
 10
4.576010755100821
 20
13.31166920210007
 10
4.480082127900418
 20
13.740829210153985
 10
4.357395614066076
 20
14.16311896062463
 10
4.208435401217761
 20
14.576871868792741
 10
4.033789367262137
 20
14.980455040955508
 10
3.834146760307047
 20
15.372275718712004
 10
3.6102954785141046
 20
15.750787564852978
 10
3.3631189606246332
 20
16.11449676604731
 10
3.093592699430527
 20
16.461967928240824
 10
2.802780391949881
 20
16.79182974150082
 10
2.4918297415008226
 20
17.102780391949878
 10
2.161967928240828
 20
17.393592699430528
 10
1.8144967660473137
 20
17.66311896062463
 10
1.4507875648529804
 20
17.910295478514104
 10
1.072275718712008
 20
18.134146760307047
 10
0.6804550409555117
 20
18.333789367262135
 10
0.2768718687927456
 20
18.50843540121776
 10
-0.13688103937536544
 20
18.657395614066075
 10
-0.5591707898460119
 20
18.780082127900418
 10
-0.9883307978999265
 20
18.876010755100822
 10
-1.422667365049867
 20
18.944802909201343
 10
-1.8604663632948064
 20
18.986187098997902
 10
-2.2999999999999976
 20
19.0
 10
-2.739533636705189
 20
18.986187098997902
 10
-3.1773326349501287
 20
18.944802909201346
 10
-3.611669202100069
 20
18.876010755100822
 10
-4.0408292101539836
 20
18.780082127900418
 10
-4.46311896062463
 20
18.657395614066075
 10
-4.87687186879274
 20
18.50843540121776
 10
-5.280455040955507
 20
18.333789367262135
 10
-5.672275718712009
 20
18.134146760307043
 10
-6.0507875648529765
 20
17.910295478514104
 10
-6.41449676604731
 20
17.663118960624633
 10
-6.761967928240824
 20
17.393592699430528
 10
-7.0918297415008205
 20
17.10278039194988
 10
-7.402780391949879
 20
16.791829741500823
 10
-7.693592699430525
 20
16.461967928240828
 10
-7.96311896062463
 20
16.114496766047314
 10
-8.210295478514103
 20
15.750787564852981
 10
-8.434146760307044
 20
15.372275718712007
 10
-8.633789367262136
 20
14.980455040955512
 10
-8.80843540121776
 20
14.576871868792747
 10
-8.957395614066074
 20
14.163118960624635
 10
-9.080082127900416
 20
13.740829210153988
 10
-9.176010755100819
 20
13.311669202100074
 10
-9.244802909201344
 20
12.877332634950134
 10
-9.2861870989979
 20
12.439533636705194
 10
-9.3
 20
12.000000000000002
  0
LWPOLYLINE
  5
36
330
17
100
AcDbEntity
  8
0
100
AcDbPolyline
 90
51
 70
0
 10
-9.3
 20
12.0
 10
-9.3
 20
11.76
 10
-9.3
 20
11.52
 10
-9.3
 20
11.28
 10
-9.3
 20
11.04
 10
-9.3
 20
10.8
 10
-9.3
 20
10.56
 10
-9.3
 20
10.32
 10
-9.3
 20
10.08
 10
-9.3
 20
9.84
 10
-9.3
 20
9.6
 10
-9.3
 20
9.36
 10
-9.3
 20
9.120000000000001
 10
-9.3
 20
8.879999999999999
 10
-9.3
 20
8.64
 10
-9.3
 20
8.4
 10
-9.3
 20
8.16
 10
-9.3
 20
7.92
 10
-9.3
 20
7.68
 10
-9.3
 20
7.44
 10
-9.3
 20
7.2
 10
-9.3
 20
6.96
 10
-9.3
 20
6.72
 10
-9.3
 20
6.48
 10
-9.3
 20
6.24
 10
-9.3
 20
6.0
 10
-9.3
 20
5.76
 10
-9.3
 20
5.52
 10
-9.3
 20
5.28
 10
-9.3
 20
5.04
 10
-9.3
 20
4.8
 10
-9.3
 20
4.56
 10
-9.3
 20
4.32
 10
-9.3
 20
4.08
 10
-9.3
 20
3.84
 10
-9.3
 20
3.5999999999999996
 10
-9.3
 20
3.3599999999999994
 10
-9.3
 20
3.119999999999999
 10
-9.3
 20
2.880000000000001
 10
-9.3
 20
2.6400000000000006
 10
-9.3
 20
2.4000000000000004
 10
-9.3
 20
2.16
 10
-9.3
 20
1.92
 10
-9.3
 20
1.6799999999999997
 10
-9.3
 20
1.4399999999999995
 10
-9.3
 20
1.1999999999999993
 10
-9.3
 20
0.9600000000000009
 10
-9.3
 20
0.7200000000000006
 10
-9.3
 20
0.4800000000000004
 10
-9.3
 20
0.2400000000000002
 10
-9.300000000000002
 20
0.0
  0
LWPOLYLINE
  5
37
330
17
100
AcDbEntity
  8
0
100
AcDbPolyline
 90
51
 70
0
 10
-2.2999999999999994
 20
16.0
 10
-2.8013329342572164
 20
15.968458805257912
 10
-3.2947595486594183
 20
15.874332644514524
 10
-3.772498210738711
 20
15.719105943553005
 10
-4.227014696406861
 20
15.505226720175454
 10
-4.651141009169892
 20
15.23606797749979
 10
-5.038188423714754
 20
14.915874509685647
 10
-5.382052971103157
 20
14.549695958994759
 10
-5.67731170200806
 20
14.143307179915986
 10
-5.919308209864078
 20
13.703117166260292
 10
-6.1042260651806135
 20
13.23606797749979
 10
-6.229149002914754
 20
12.7495252583429
 10
-6.292106913713086
 20
12.251162078117254
 10
-6.292106913713086
 20
11.748837921882746
 10
-6.229149002914754
 20
11.250474741657102
 10
-6.104226065180614
 20
10.763932022500212
 10
-5.919308209864077
 20
10.29688283373971
 10
-5.67731170200806
 20
9.856692820084014
 10
-5.382052971103157
 20
9.450304041005241
 10
-5.038188423714756
 20
9.084125490314355
 10
-4.651141009169893
 20
8.76393202250021
 10
-4.227014696406862
 20
8.494773279824546
 10
-3.772498210738713
 20
8.280894056446995
 10
-3.294759548659421
 20
8.125667355485476
 10
-2.8013329342572186
 20
8.03154119474209
 10
-2.3000000000000007
 20
8.0
 10
-1.7986670657427832
 20
8.031541194742088
 10
-1.305240451340582
 20
8.125667355485476
 10
-0.8275017892612886
 20
8.280894056446995
 10
-0.37298530359313875
 20
8.494773279824546
 10
0.051141009169890506
 20
8.763932022500208
 10
0.4381884237147533
 20
9.084125490314353
 10
0.7820529711031572
 20
9.450304041005241
 10
1.077311702008061
 20
9.856692820084014
 10
1.3193082098640794
 20
10.29688283373971
 10
1.5042260651806143
 20
10.76393202250021
 10
1.629149002914755
 20
11.2504747416571
 10
1.6921069137130864
 20
11.748837921882746
 10
1.6921069137130864
 20
12.25116207811725
 10
1.629149002914755
 20
12.749525258342896
 10
1.5042260651806147
 20
13.236067977499788
 10
1.3193082098640798
 20
13.703117166260286
 10
1.0773117020080605
 20
14.143307179915986
 10
0.782052971103159
 20
14.549695958994757
 10
0.4381884237147564
 20
14.915874509685644
 10
0.05114100916989406
 20
15.23606797749979
 10
-0.372985303593135
 20
15.505226720175452
 10
-0.8275017892612879
 20
15.719105943553005
 10
-1.305240451340578
 20
15.874332644514524
 10
-1.7986670657427808
 20
15.96845880525791
 10
-2.2999999999999985
 20
16.0
  0
ENDSEC
  0
SECTION
  2
OBJECTS
  0
DICTIONARY
  5
A
330
0
100
AcDbDictionary
280
0
281
1
  3
ACAD_COLOR
350
B
  3
ACAD_GROUP
350
C
  3
ACAD_LAYOUT
350
D
  3
ACAD_MATERIAL
350
E
  3
ACAD_MLEADERSTYLE
350
F
  3
ACAD_MLINESTYLE
350
10
  3
ACAD_PLOTSETTINGS
350
11
  3
ACAD_PLOTSTYLENAME
350
12
  3
ACAD_SCALELIST
350
14
  3
ACAD_TABLESTYLE
350
15
  3
ACAD_VISUALSTYLE
350
16
  3
EZDXF_META
350
2D
  0
DICTIONARY
  5
B
330
A
100
AcDbDictionary
280
0
281
1
  0
DICTIONARY
  5
C
330
A
100
AcDbDictionary
280
0
281
1
  0
DICTIONARY
  5
D
330
A
100
AcDbDictionary
280
0
281
1
  3
Model
350
1A
  3
Layout1
350
1E
  0
DICTIONARY
  5
E
330
A
100
AcDbDictionary
280
0
281
1
  3
ByBlock
350
1F
  3
ByLayer
350
20
  3
Global
350
21
  0
DICTIONARY
  5
F
330
A
100
AcDbDictionary
280
0
281
1
  3
Standard
350
2C
  0
DICTIONARY
  5
10
330
A
100
AcDbDictionary
280
0
281
1
  3
Standard
350
22
  0
DICTIONARY
  5
11
330
A
100
AcDbDictionary
280
0
281
1
  0
ACDBDICTIONARYWDFLT
  5
12
330
A
100
AcDbDictionary
280
0
281
1
  3
Normal
350
13
100
AcDbDictionaryWithDefault
340
13
  0
ACDBPLACEHOLDER
  5
13
330
12
  0
DICTIONARY
  5
14
330
A
100
AcDbDictionary
280
0
281
1
  0
DICTIONARY
  5
15
330
A
100
AcDbDictionary
280
0
281
1
  0
DICTIONARY
  5
16
330
A
100
AcDbDictionary
280
0
281
1
  0
LAYOUT
  5
1A
330
D
100
AcDbPlotSettings
  1

  2
Adobe PDF
  4
A3
  6

 40
7.5
 41
20.0
 42
7.5
 43
20.0
 44
420.0
 45
297.0
 46
0.0
 47
0.0
 48
0.0
 49
0.0
140
0.0
141
0.0
142
1.0
143
1.0
 70
1024
 72
1
 73
0
 74
5
  7

 75
16
 76
0
 77
2
 78
300
147
1.0
148
0.0
149
0.0
100
AcDbLayout
  1
Model
 70
1
 71
0
 10
0.0
 20
0.0
 11
420.0
 21
297.0
 12
0.0
 22
0.0
 32
0.0
 14
1e+20
 24
1e+20
 34
1e+20
 15
-1e+20
 25
-1e+20
 35
-1e+20
146
0.0
 13
0.0
 23
0.0
 33
0.0
 16
1.0
 26
0.0
 36
0.0
 17
0.0
 27
1.0
 37
0.0
 76
1
330
17
  0
LAYOUT
  5
1E
330
D
100
AcDbPlotSettings
  1

  2
Adobe PDF
  4
A3
  6

 40
7.5
 41
20.0
 42
7.5
 43
20.0
 44
420.0
 45
297.0
 46
0.0
 47
0.0
 48
0.0
 49
0.0
140
0.0
141
0.0
142
1.0
143
1.0
 70
0
 72
1
 73
0
 74
5
  7

 75
16
 76
0
 77
2
 78
300
147
1.0
148
0.0
149
0.0
100
AcDbLayout
  1
Layout1
 70
1
 71
1
 10
0.0
 20
0.0
 11
420.0
 21
297.0
 12
0.0
 22
0.0
 32
0.0
 14
1e+20
 24
1e+20
 34
1e+20
 15
-1e+20
 25
-1e+20
 35
-1e+20
146
0.0
 13
0.0
 23
0.0
 33
0.0
 16
1.0
 26
0.0
 36
0.0
 17
0.0
 27
1.0
 37
0.0
 76
1
330
1B
  0
MATERIAL
  5
1F
102
{ACAD_REACTORS
330
E
102
}
330
E
100
AcDbMaterial
  1
ByBlock
  2

 70
0
 40
1.0
 71
1
 41
1.0
 91
-1023410177
 42
1.0
 72
1
  3

 73
1
 74
1
 75
1
 44
0.5
 73
0
 45
1.0
 46
1.0
 77
1
  4

 78
1
 79
1
170
1
 48
1.0
171
1
  6

172
1
173
1
174
1
140
1.0
141
1.0
175
1
  7

176
1
177
1
178
1
143
1.0
179
1
  8

270
1
271
1
272
1
145
1.0
146
1.0
273
1
  9

274
1
275
1
276
1
 42
1.0
 72
1
  3

 73
1
 74
1
 75
1
 94
63
  0
MATERIAL
  5
20
102
{ACAD_REACTORS
330
E
102
}
330
E
100
AcDbMaterial
  1
ByLayer
  2

 70
0
 40
1.0
 71
1
 41
1.0
 91
-1023410177
 42
1.0
 72
1
  3

 73
1
 74
1
 75
1
 44
0.5
 73
0
 45
1.0
 46
1.0
 77
1
  4

 78
1
 79
1
170
1
 48
1.0
171
1
  6

172
1
173
1
174
1
140
1.0
141
1.0
175
1
  7

176
1
177
1
178
1
143
1.0
179
1
  8

270
1
271
1
272
1
145
1.0
146
1.0
273
1
  9

274
1
275
1
276
1
 42
1.0
 72
1
  3

 73
1
 74
1
 75
1
 94
63
  0
MATERIAL
  5
21
102
{ACAD_REACTORS
330
E
102
}
330
E
100
AcDbMaterial
  1
Global
  2

 70
0
 40
1.0
 71
1
 41
1.0
 91
-1023410177
 42
1.0
 72
1
  3

 73
1
 74
1
 75
1
 44
0.5
 73
0
 45
1.0
 46
1.0
 77
1
  4

 78
1
 79
1
170
1
 48
1.0
171
1
  6

172
1
173
1
174
1
140
1.0
141
1.0
175
1
  7

176
1
177
1
178
1
143
1.0
179
1
  8

270
1
271
1
272
1
145
1.0
146
1.0
273
1
  9

274
1
275
1
276
1
 42
1.0
 72
1
  3

 73
1
 74
1
 75
1
 94
63
  0
MLINESTYLE
  5
22
102
{ACAD_REACTORS
330
10
102
}
330
10
100
AcDbMlineStyle
  2
Standard
 70
0
  3

 62
256
 51
90.0
 52
90.0
 71
2
 49
0.5
 62
256
  6
BYLAYER
 49
-0.5
 62
256
  6
BYLAYER
  0
MLEADERSTYLE
  5
2C
102
{ACAD_REACTORS
330
F
102
}
330
F
100
AcDbMLeaderStyle
179
2
170
2
171
1
172
0
 90
2
 40
0.0
 41
0.0
173
1
 91
-1056964608
 92
-2
290
1
 42
2.0
291
1
 43
8.0
  3
Standard
 44
4.0
300

342
29
174
1
175
1
176
0
178
1
 93
-1056964608
 45
4.0
292
0
297
0
 46
4.0
 94
-1056964608
 47
1.0
 49
1.0
140
1.0
294
1
141
0.0
177
0
142
1.0
295
0
296
0
143
3.75
271
0
272
9
273
9
  0
DICTIONARY
  5
2D
330
A
100
AcDbDictionary
281
1
  3
CREATED_BY_EZDXF
350
2E
  3
WRITTEN_BY_EZDXF
350
3A
  0
DICTIONARYVAR
  5
2E
330
2D
100
DictionaryVariables
280
0
  1
1.0.3 @ 2025-05-29T09:38:44.841661+00:00
  0
DICTIONARYVAR
  5
3A
330
2D
100
DictionaryVariables
280
0
  1
1.0.3 @ 2025-05-29T09:38:44.845675+00:00
  0
ENDSEC
  0
EOF
