  0
SECTION
  2
HEADER
  9
$ACADVER
  1
AC1027
  9
$ACADMAINTVER
 70
105
  9
$DWGCODEPAGE
  3
ANSI_1252
  9
$LASTSAVEDBY
  1
ezdxf
  9
$REQUIREDVERSIONS
160
0
  9
$INSBASE
 10
0.0
 20
0.0
 30
0.0
  9
$EXTMIN
 10
1e+20
 20
1e+20
 30
1e+20
  9
$EXTMAX
 10
-1e+20
 20
-1e+20
 30
-1e+20
  9
$LIMMIN
 10
0.0
 20
0.0
  9
$LIMMAX
 10
420.0
 20
297.0
  9
$ORTHOMODE
 70
0
  9
$REGENMODE
 70
1
  9
$FILLMODE
 70
1
  9
$QTEXTMODE
 70
0
  9
$MIRRTEXT
 70
1
  9
$LTSCALE
 40
1.0
  9
$ATTMODE
 70
1
  9
$TEXTSIZE
 40
2.5
  9
$TRACEWID
 40
1.0
  9
$TEXTSTYLE
  7
Standard
  9
$CLAYER
  8
0
  9
$CELTYPE
  6
ByLayer
  9
$CECOLOR
 62
256
  9
$CELTSCALE
 40
1.0
  9
$DISPSILH
 70
0
  9
$DIMSCALE
 40
1.0
  9
$DIMASZ
 40
2.5
  9
$DIMEXO
 40
0.625
  9
$DIMDLI
 40
3.75
  9
$DIMRND
 40
0.0
  9
$DIMDLE
 40
0.0
  9
$DIMEXE
 40
1.25
  9
$DIMTP
 40
0.0
  9
$DIMTM
 40
0.0
  9
$DIMTXT
 40
2.5
  9
$DIMCEN
 40
2.5
  9
$DIMTSZ
 40
0.0
  9
$DIMTOL
 70
0
  9
$DIMLIM
 70
0
  9
$DIMTIH
 70
0
  9
$DIMTOH
 70
0
  9
$DIMSE1
 70
0
  9
$DIMSE2
 70
0
  9
$DIMTAD
 70
1
  9
$DIMZIN
 70
8
  9
$DIMBLK
  1

  9
$DIMASO
 70
1
  9
$DIMSHO
 70
1
  9
$DIMPOST
  1

  9
$DIMAPOST
  1

  9
$DIMALT
 70
0
  9
$DIMALTD
 70
3
  9
$DIMALTF
 40
0.03937007874
  9
$DIMLFAC
 40
1.0
  9
$DIMTOFL
 70
1
  9
$DIMTVP
 40
0.0
  9
$DIMTIX
 70
0
  9
$DIMSOXD
 70
0
  9
$DIMSAH
 70
0
  9
$DIMBLK1
  1

  9
$DIMBLK2
  1

  9
$DIMSTYLE
  2
ISO-25
  9
$DIMCLRD
 70
0
  9
$DIMCLRE
 70
0
  9
$DIMCLRT
 70
0
  9
$DIMTFAC
 40
1.0
  9
$DIMGAP
 40
0.625
  9
$DIMJUST
 70
0
  9
$DIMSD1
 70
0
  9
$DIMSD2
 70
0
  9
$DIMTOLJ
 70
0
  9
$DIMTZIN
 70
8
  9
$DIMALTZ
 70
0
  9
$DIMALTTZ
 70
0
  9
$DIMUPT
 70
0
  9
$DIMDEC
 70
2
  9
$DIMTDEC
 70
2
  9
$DIMALTU
 70
2
  9
$DIMALTTD
 70
3
  9
$DIMTXSTY
  7
Standard
  9
$DIMAUNIT
 70
0
  9
$DIMADEC
 70
0
  9
$DIMALTRND
 40
0.0
  9
$DIMAZIN
 70
0
  9
$DIMDSEP
 70
44
  9
$DIMATFIT
 70
3
  9
$DIMFRAC
 70
0
  9
$DIMLDRBLK
  1

  9
$DIMLUNIT
 70
2
  9
$DIMLWD
 70
-2
  9
$DIMLWE
 70
-2
  9
$DIMTMOVE
 70
0
  9
$DIMFXL
 40
1.0
  9
$DIMFXLON
 70
0
  9
$DIMJOGANG
 40
0.785398163397
  9
$DIMTFILL
 70
0
  9
$DIMTFILLCLR
 70
0
  9
$DIMARCSYM
 70
0
  9
$DIMLTYPE
  6

  9
$DIMLTEX1
  6

  9
$DIMLTEX2
  6

  9
$DIMTXTDIRECTION
 70
0
  9
$LUNITS
 70
2
  9
$LUPREC
 70
4
  9
$SKETCHINC
 40
1.0
  9
$FILLETRAD
 40
10.0
  9
$AUNITS
 70
0
  9
$AUPREC
 70
2
  9
$MENU
  1
.
  9
$ELEVATION
 40
0.0
  9
$PELEVATION
 40
0.0
  9
$THICKNESS
 40
0.0
  9
$LIMCHECK
 70
0
  9
$CHAMFERA
 40
0.0
  9
$CHAMFERB
 40
0.0
  9
$CHAMFERC
 40
0.0
  9
$CHAMFERD
 40
0.0
  9
$SKPOLY
 70
0
  9
$TDCREATE
 40
2460825.776909722
  9
$TDUCREATE
 40
2458532.153996898
  9
$TDUPDATE
 40
2460825.776909722
  9
$TDUUPDATE
 40
2458532.1544311
  9
$TDINDWG
 40
0.0
  9
$TDUSRTIMER
 40
0.0
  9
$USRTIMER
 70
1
  9
$ANGBASE
 50
0.0
  9
$ANGDIR
 70
0
  9
$PDMODE
 70
0
  9
$PDSIZE
 40
0.0
  9
$PLINEWID
 40
0.0
  9
$SPLFRAME
 70
0
  9
$SPLINETYPE
 70
6
  9
$SPLINESEGS
 70
8
  9
$HANDSEED
  5
3C
  9
$SURFTAB1
 70
6
  9
$SURFTAB2
 70
6
  9
$SURFTYPE
 70
6
  9
$SURFU
 70
6
  9
$SURFV
 70
6
  9
$UCSBASE
  2

  9
$UCSNAME
  2

  9
$UCSORG
 10
0.0
 20
0.0
 30
0.0
  9
$UCSXDIR
 10
1.0
 20
0.0
 30
0.0
  9
$UCSYDIR
 10
0.0
 20
1.0
 30
0.0
  9
$UCSORTHOREF
  2

  9
$UCSORTHOVIEW
 70
0
  9
$UCSORGTOP
 10
0.0
 20
0.0
 30
0.0
  9
$UCSORGBOTTOM
 10
0.0
 20
0.0
 30
0.0
  9
$UCSORGLEFT
 10
0.0
 20
0.0
 30
0.0
  9
$UCSORGRIGHT
 10
0.0
 20
0.0
 30
0.0
  9
$UCSORGFRONT
 10
0.0
 20
0.0
 30
0.0
  9
$UCSORGBACK
 10
0.0
 20
0.0
 30
0.0
  9
$PUCSBASE
  2

  9
$PUCSNAME
  2

  9
$PUCSORG
 10
0.0
 20
0.0
 30
0.0
  9
$PUCSXDIR
 10
1.0
 20
0.0
 30
0.0
  9
$PUCSYDIR
 10
0.0
 20
1.0
 30
0.0
  9
$PUCSORTHOREF
  2

  9
$PUCSORTHOVIEW
 70
0
  9
$PUCSORGTOP
 10
0.0
 20
0.0
 30
0.0
  9
$PUCSORGBOTTOM
 10
0.0
 20
0.0
 30
0.0
  9
$PUCSORGLEFT
 10
0.0
 20
0.0
 30
0.0
  9
$PUCSORGRIGHT
 10
0.0
 20
0.0
 30
0.0
  9
$PUCSORGFRONT
 10
0.0
 20
0.0
 30
0.0
  9
$PUCSORGBACK
 10
0.0
 20
0.0
 30
0.0
  9
$USERI1
 70
0
  9
$USERI2
 70
0
  9
$USERI3
 70
0
  9
$USERI4
 70
0
  9
$USERI5
 70
0
  9
$USERR1
 40
0.0
  9
$USERR2
 40
0.0
  9
$USERR3
 40
0.0
  9
$USERR4
 40
0.0
  9
$USERR5
 40
0.0
  9
$WORLDVIEW
 70
1
  9
$SHADEDGE
 70
3
  9
$SHADEDIF
 70
70
  9
$TILEMODE
 70
1
  9
$MAXACTVP
 70
64
  9
$PINSBASE
 10
0.0
 20
0.0
 30
0.0
  9
$PLIMCHECK
 70
0
  9
$PEXTMIN
 10
1e+20
 20
1e+20
 30
1e+20
  9
$PEXTMAX
 10
-1e+20
 20
-1e+20
 30
-1e+20
  9
$PLIMMIN
 10
0.0
 20
0.0
  9
$PLIMMAX
 10
420.0
 20
297.0
  9
$UNITMODE
 70
0
  9
$VISRETAIN
 70
1
  9
$PLINEGEN
 70
0
  9
$PSLTSCALE
 70
1
  9
$TREEDEPTH
 70
3020
  9
$CMLSTYLE
  2
Standard
  9
$CMLJUST
 70
0
  9
$CMLSCALE
 40
20.0
  9
$PROXYGRAPHICS
 70
1
  9
$MEASUREMENT
 70
1
  9
$CELWEIGHT
370
-1
  9
$ENDCAPS
280
0
  9
$JOINSTYLE
280
0
  9
$LWDISPLAY
290
0
  9
$INSUNITS
 70
6
  9
$HYPERLINKBASE
  1

  9
$STYLESHEET
  1

  9
$XEDIT
290
1
  9
$CEPSNTYPE
380
0
  9
$PSTYLEMODE
290
1
  9
$FINGERPRINTGUID
  2
{563651E8-3403-411A-81C1-2C2298753A1D}
  9
$VERSIONGUID
  2
{0000D12C-DD89-4ED7-BA6C-2FBA5135EDD8}
  9
$EXTNAMES
290
1
  9
$PSVPSCALE
 40
0.0
  9
$OLESTARTUP
290
0
  9
$SORTENTS
280
127
  9
$INDEXCTL
280
0
  9
$HIDETEXT
280
1
  9
$XCLIPFRAME
280
0
  9
$HALOGAP
280
0
  9
$OBSCOLOR
 70
257
  9
$OBSLTYPE
280
0
  9
$INTERSECTIONDISPLAY
280
0
  9
$INTERSECTIONCOLOR
 70
257
  9
$DIMASSOC
280
2
  9
$PROJECTNAME
  1

  9
$CAMERADISPLAY
290
0
  9
$LENSLENGTH
 40
50.0
  9
$CAMERAHEIGHT
 40
0.0
  9
$STEPSPERSEC
 40
24.0
  9
$STEPSIZE
 40
100.0
  9
$3DDWFPREC
 40
2.0
  9
$PSOLWIDTH
 40
0.005
  9
$PSOLHEIGHT
 40
0.08
  9
$LOFTANG1
 40
1.570796326795
  9
$LOFTANG2
 40
1.570796326795
  9
$LOFTMAG1
 40
0.0
  9
$LOFTMAG2
 40
0.0
  9
$LOFTPARAM
 70
7
  9
$LOFTNORMALS
280
1
  9
$LATITUDE
 40
37.795
  9
$LONGITUDE
 40
-122.394
  9
$NORTHDIRECTION
 40
0.0
  9
$TIMEZONE
 70
-8000
  9
$LIGHTGLYPHDISPLAY
280
1
  9
$TILEMODELIGHTSYNCH
280
1
  9
$CMATERIAL
347
20
  9
$SOLIDHIST
280
0
  9
$SHOWHIST
280
1
  9
$DWFFRAME
280
2
  9
$DGNFRAME
280
2
  9
$REALWORLDSCALE
290
1
  9
$INTERFERECOLOR
 62
256
  9
$CSHADOW
280
0
  9
$SHADOWPLANELOCATION
 40
0.0
  0
ENDSEC
  0
SECTION
  2
CLASSES
  0
CLASS
  1
ACDBDICTIONARYWDFLT
  2
AcDbDictionaryWithDefault
  3
ObjectDBX Classes
 90
0
 91
0
280
0
281
0
  0
CLASS
  1
SUN
  2
AcDbSun
  3
SCENEOE
 90
1153
 91
0
280
0
281
0
  0
CLASS
  1
VISUALSTYLE
  2
AcDbVisualStyle
  3
ObjectDBX Classes
 90
4095
 91
0
280
0
281
0
  0
CLASS
  1
MATERIAL
  2
AcDbMaterial
  3
ObjectDBX Classes
 90
1153
 91
0
280
0
281
0
  0
CLASS
  1
SCALE
  2
AcDbScale
  3
ObjectDBX Classes
 90
1153
 91
0
280
0
281
0
  0
CLASS
  1
TABLESTYLE
  2
AcDbTableStyle
  3
ObjectDBX Classes
 90
4095
 91
0
280
0
281
0
  0
CLASS
  1
MLEADERSTYLE
  2
AcDbMLeaderStyle
  3
ACDB_MLEADERSTYLE_CLASS
 90
4095
 91
0
280
0
281
0
  0
CLASS
  1
DICTIONARYVAR
  2
AcDbDictionaryVar
  3
ObjectDBX Classes
 90
0
 91
0
280
0
281
0
  0
CLASS
  1
CELLSTYLEMAP
  2
AcDbCellStyleMap
  3
ObjectDBX Classes
 90
1152
 91
0
280
0
281
0
  0
CLASS
  1
MENTALRAYRENDERSETTINGS
  2
AcDbMentalRayRenderSettings
  3
SCENEOE
 90
1024
 91
0
280
0
281
0
  0
CLASS
  1
ACDBDETAILVIEWSTYLE
  2
AcDbDetailViewStyle
  3
ObjectDBX Classes
 90
1025
 91
0
280
0
281
0
  0
CLASS
  1
ACDBSECTIONVIEWSTYLE
  2
AcDbSectionViewStyle
  3
ObjectDBX Classes
 90
1025
 91
0
280
0
281
0
  0
CLASS
  1
RASTERVARIABLES
  2
AcDbRasterVariables
  3
ISM
 90
0
 91
0
280
0
281
0
  0
CLASS
  1
LAYOUT
  2
AcDbLayout
  3
ObjectDBX Classes
 90
0
 91
0
280
0
281
0
  0
CLASS
  1
ACDBPLACEHOLDER
  2
AcDbPlaceHolder
  3
ObjectDBX Classes
 90
0
 91
0
280
0
281
0
  0
ENDSEC
  0
SECTION
  2
TABLES
  0
TABLE
  2
VPORT
  5
8
330
0
100
AcDbSymbolTable
 70
1
  0
VPORT
  5
23
330
8
100
AcDbSymbolTableRecord
100
AcDbViewportTableRecord
  2
*Active
 70
0
 10
0.0
 20
0.0
 11
1.0
 21
1.0
 12
0.0
 22
0.0
 13
0.0
 23
0.0
 14
0.5
 24
0.5
 15
0.5
 25
0.5
 16
0.0
 26
0.0
 36
1.0
 17
0.0
 27
0.0
 37
0.0
 40
1000.0
 41
1.34
 42
50.0
 43
0.0
 44
0.0
 50
0.0
 51
0.0
 71
0
 72
1000
 73
1
 74
3
 75
0
 76
0
 77
0
 78
0
281
0
 65
0
146
0.0
  0
ENDTAB
  0
TABLE
  2
LTYPE
  5
2
330
0
100
AcDbSymbolTable
 70
3
  0
LTYPE
  5
24
330
2
100
AcDbSymbolTableRecord
100
AcDbLinetypeTableRecord
  2
ByBlock
 70
0
  3

 72
65
 73
0
 40
0.0
  0
LTYPE
  5
25
330
2
100
AcDbSymbolTableRecord
100
AcDbLinetypeTableRecord
  2
ByLayer
 70
0
  3

 72
65
 73
0
 40
0.0
  0
LTYPE
  5
26
330
2
100
AcDbSymbolTableRecord
100
AcDbLinetypeTableRecord
  2
Continuous
 70
0
  3

 72
65
 73
0
 40
0.0
  0
ENDTAB
  0
TABLE
  2
LAYER
  5
1
330
0
100
AcDbSymbolTable
 70
2
  0
LAYER
  5
27
330
1
100
AcDbSymbolTableRecord
100
AcDbLayerTableRecord
  2
0
 70
0
 62
7
  6
Continuous
370
-3
390
13
347
21
  0
LAYER
  5
28
330
1
100
AcDbSymbolTableRecord
100
AcDbLayerTableRecord
  2
Defpoints
 70
0
 62
7
  6
Continuous
290
0
370
-3
390
13
347
21
  0
ENDTAB
  0
TABLE
  2
STYLE
  5
5
330
0
100
AcDbSymbolTable
 70
1
  0
STYLE
  5
29
330
5
100
AcDbSymbolTableRecord
100
AcDbTextStyleTableRecord
  2
Standard
 70
0
 40
0.0
 41
1.0
 50
0.0
 71
0
 42
2.5
  3
txt
  4

  0
ENDTAB
  0
TABLE
  2
VIEW
  5
7
330
0
100
AcDbSymbolTable
 70
0
  0
ENDTAB
  0
TABLE
  2
UCS
  5
6
330
0
100
AcDbSymbolTable
 70
0
  0
ENDTAB
  0
TABLE
  2
APPID
  5
3
330
0
100
AcDbSymbolTable
 70
3
  0
APPID
  5
2A
330
3
100
AcDbSymbolTableRecord
100
AcDbRegAppTableRecord
  2
ACAD
 70
0
  0
APPID
  5
39
330
3
100
AcDbSymbolTableRecord
100
AcDbRegAppTableRecord
  2
HATCHBACKGROUNDCOLOR
 70
0
  0
APPID
  5
3A
330
3
100
AcDbSymbolTableRecord
100
AcDbRegAppTableRecord
  2
EZDXF
 70
0
  0
ENDTAB
  0
TABLE
  2
DIMSTYLE
  5
4
330
0
100
AcDbSymbolTable
 70
1
100
AcDbDimStyleTable
  0
DIMSTYLE
105
2B
330
4
100
AcDbSymbolTableRecord
100
AcDbDimStyleTableRecord
  2
Standard
 70
0
 40
1.0
 41
2.5
 42
0.625
 43
3.75
 44
1.25
 45
0.0
 46
0.0
 47
0.0
 48
0.0
 49
2.5
140
2.5
141
2.5
142
0.0
143
0.03937007874
144
1.0
145
0.0
146
1.0
147
0.625
148
0.0
 69
0
 70
0
 71
0
 72
0
 73
0
 74
0
 75
0
 76
0
 77
1
 78
8
 79
3
170
0
171
3
172
1
173
0
174
0
175
0
176
0
177
0
178
0
179
2
271
2
272
2
273
2
274
3
275
0
276
0
277
2
278
44
279
0
280
0
281
0
282
0
283
0
284
8
285
0
286
0
288
0
289
3
290
0
371
-2
372
-2
  0
ENDTAB
  0
TABLE
  2
BLOCK_RECORD
  5
9
330
0
100
AcDbSymbolTable
 70
2
  0
BLOCK_RECORD
  5
17
330
9
100
AcDbSymbolTableRecord
100
AcDbBlockTableRecord
  2
*Model_Space
340
1A
 70
0
280
1
281
0
  0
BLOCK_RECORD
  5
1B
330
9
100
AcDbSymbolTableRecord
100
AcDbBlockTableRecord
  2
*Paper_Space
340
1E
 70
0
280
1
281
0
  0
ENDTAB
  0
ENDSEC
  0
SECTION
  2
BLOCKS
  0
BLOCK
  5
18
330
17
100
AcDbEntity
  8
0
100
AcDbBlockBegin
  2
*Model_Space
 70
0
 10
0.0
 20
0.0
 30
0.0
  3
*Model_Space
  1

  0
ENDBLK
  5
19
330
17
100
AcDbEntity
  8
0
100
AcDbBlockEnd
  0
BLOCK
  5
1C
330
1B
100
AcDbEntity
  8
0
100
AcDbBlockBegin
  2
*Paper_Space
 70
0
 10
0.0
 20
0.0
 30
0.0
  3
*Paper_Space
  1

  0
ENDBLK
  5
1D
330
1B
100
AcDbEntity
  8
0
100
AcDbBlockEnd
  0
ENDSEC
  0
SECTION
  2
ENTITIES
  0
LWPOLYLINE
  5
2F
330
17
100
AcDbEntity
  8
0
100
AcDbPolyline
 90
51
 70
0
 10
10.3
 20
12.0
 10
10.3
 20
11.76
 10
10.3
 20
11.52
 10
10.3
 20
11.28
 10
10.3
 20
11.04
 10
10.3
 20
10.8
 10
10.3
 20
10.56
 10
10.3
 20
10.32
 10
10.3
 20
10.08
 10
10.3
 20
9.84
 10
10.3
 20
9.6
 10
10.3
 20
9.36
 10
10.3
 20
9.120000000000001
 10
10.3
 20
8.879999999999999
 10
10.3
 20
8.64
 10
10.3
 20
8.4
 10
10.3
 20
8.16
 10
10.3
 20
7.92
 10
10.3
 20
7.68
 10
10.3
 20
7.44
 10
10.3
 20
7.2
 10
10.3
 20
6.96
 10
10.3
 20
6.72
 10
10.3
 20
6.48
 10
10.3
 20
6.24
 10
10.3
 20
6.0
 10
10.3
 20
5.76
 10
10.3
 20
5.52
 10
10.3
 20
5.28
 10
10.3
 20
5.04
 10
10.3
 20
4.8
 10
10.3
 20
4.56
 10
10.3
 20
4.32
 10
10.3
 20
4.08
 10
10.3
 20
3.84
 10
10.3
 20
3.5999999999999996
 10
10.3
 20
3.3599999999999994
 10
10.3
 20
3.119999999999999
 10
10.3
 20
2.880000000000001
 10
10.3
 20
2.6400000000000006
 10
10.3
 20
2.4000000000000004
 10
10.3
 20
2.16
 10
10.3
 20
1.92
 10
10.3
 20
1.6799999999999997
 10
10.3
 20
1.4399999999999995
 10
10.3
 20
1.1999999999999993
 10
10.3
 20
0.9600000000000009
 10
10.3
 20
0.7200000000000006
 10
10.3
 20
0.4800000000000004
 10
10.3
 20
0.2400000000000002
 10
10.300000000000002
 20
0.0
  0
LWPOLYLINE
  5
30
330
17
100
AcDbEntity
  8
0
100
AcDbPolyline
 90
51
 70
0
 10
-3.7
 20
5.0
 10
-3.7
 20
5.14
 10
-3.7
 20
5.28
 10
-3.7
 20
5.42
 10
-3.7
 20
5.5600000000000005
 10
-3.7
 20
5.7
 10
-3.7
 20
5.84
 10
-3.7000000000000006
 20
5.98
 10
-3.7000000000000006
 20
6.12
 10
-3.7000000000000006
 20
6.26
 10
-3.7000000000000006
 20
6.4
 10
-3.7000000000000006
 20
6.54
 10
-3.7000000000000006
 20
6.68
 10
-3.7000000000000006
 20
6.82
 10
-3.7000000000000006
 20
6.96
 10
-3.7000000000000006
 20
7.1
 10
-3.7000000000000006
 20
7.24
 10
-3.7000000000000006
 20
7.38
 10
-3.7000000000000006
 20
7.52
 10
-3.7000000000000006
 20
7.66
 10
-3.700000000000001
 20
7.8
 10
-3.700000000000001
 20
7.9399999999999995
 10
-3.700000000000001
 20
8.08
 10
-3.700000000000001
 20
8.22
 10
-3.700000000000001
 20
8.36
 10
-3.700000000000001
 20
8.5
 10
-3.700000000000001
 20
8.64
 10
-3.700000000000001
 20
8.78
 10
-3.700000000000001
 20
8.92
 10
-3.700000000000001
 20
9.059999999999999
 10
-3.700000000000001
 20
9.2
 10
-3.700000000000001
 20
9.34
 10
-3.700000000000001
 20
9.48
 10
-3.7000000000000015
 20
9.620000000000001
 10
-3.7000000000000015
 20
9.76
 10
-3.7000000000000015
 20
9.9
 10
-3.7000000000000015
 20
10.04
 10
-3.7000000000000015
 20
10.18
 10
-3.7000000000000015
 20
10.32
 10
-3.7000000000000015
 20
10.46
 10
-3.7000000000000015
 20
10.6
 10
-3.7000000000000015
 20
10.74
 10
-3.7000000000000015
 20
10.879999999999999
 10
-3.7000000000000015
 20
11.02
 10
-3.7000000000000015
 20
11.16
 10
-3.700000000000002
 20
11.3
 10
-3.700000000000002
 20
11.440000000000001
 10
-3.700000000000002
 20
11.58
 10
-3.700000000000002
 20
11.719999999999999
 10
-3.700000000000002
 20
11.86
 10
-3.700000000000002
 20
12.0
  0
LWPOLYLINE
  5
31
330
17
100
AcDbEntity
  8
0
100
AcDbPolyline
 90
51
 70
0
 10
-3.7
 20
11.999999999999998
 10
-3.686187098997901
 20
12.439533636705189
 10
-3.6448029092013456
 20
12.877332634950129
 10
-3.576010755100821
 20
13.31166920210007
 10
-3.4800821279004177
 20
13.740829210153985
 10
-3.3573956140660757
 20
14.16311896062463
 10
-3.208435401217761
 20
14.576871868792741
 10
-3.0337893672621368
 20
14.980455040955508
 10
-2.834146760307047
 20
15.372275718712004
 10
-2.6102954785141046
 20
15.750787564852978
 10
-2.3631189606246332
 20
16.11449676604731
 10
-2.093592699430527
 20
16.461967928240824
 10
-1.8027803919498808
 20
16.79182974150082
 10
-1.4918297415008226
 20
17.102780391949878
 10
-1.161967928240828
 20
17.393592699430528
 10
-0.8144967660473137
 20
17.66311896062463
 10
-0.45078756485298044
 20
17.910295478514104
 10
-0.072275718712008
 20
18.134146760307047
 10
0.3195449590444883
 20
18.333789367262135
 10
0.7231281312072544
 20
18.50843540121776
 10
1.1368810393753654
 20
18.657395614066075
 10
1.5591707898460119
 20
18.780082127900418
 10
1.9883307978999265
 20
18.876010755100822
 10
2.422667365049867
 20
18.944802909201343
 10
2.8604663632948064
 20
18.986187098997902
 10
3.2999999999999976
 20
19.0
 10
3.739533636705189
 20
18.986187098997902
 10
4.177332634950129
 20
18.944802909201346
 10
4.611669202100069
 20
18.876010755100822
 10
5.0408292101539836
 20
18.780082127900418
 10
5.46311896062463
 20
18.657395614066075
 10
5.87687186879274
 20
18.50843540121776
 10
6.280455040955507
 20
18.333789367262135
 10
6.672275718712009
 20
18.134146760307043
 10
7.0507875648529765
 20
17.910295478514104
 10
7.41449676604731
 20
17.663118960624633
 10
7.761967928240824
 20
17.393592699430528
 10
8.09182974150082
 20
17.10278039194988
 10
8.402780391949879
 20
16.791829741500823
 10
8.693592699430525
 20
16.461967928240828
 10
8.96311896062463
 20
16.114496766047314
 10
9.210295478514103
 20
15.750787564852981
 10
9.434146760307044
 20
15.372275718712007
 10
9.633789367262136
 20
14.980455040955512
 10
9.80843540121776
 20
14.576871868792747
 10
9.957395614066074
 20
14.163118960624635
 10
10.080082127900416
 20
13.740829210153988
 10
10.176010755100819
 20
13.311669202100074
 10
10.244802909201344
 20
12.877332634950134
 10
10.2861870989979
 20
12.439533636705194
 10
10.3
 20
12.000000000000002
  0
LWPOLYLINE
  5
32
330
17
100
AcDbEntity
  8
0
100
AcDbPolyline
 90
51
 70
0
 10
10.3
 20
7.31859017832903e-16
 10
9.388000000000002
 20
6.67057520331582e-16
 10
8.476
 20
6.022560228302607e-16
 10
7.564000000000001
 20
5.374545253289397e-16
 10
6.652000000000001
 20
4.726530278276185e-16
 10
5.740000000000001
 20
4.0785153032629745e-16
 10
4.828000000000001
 20
3.4305003282497635e-16
 10
3.916000000000002
 20
2.782485353236553e-16
 10
3.0040000000000013
 20
2.1344703782233413e-16
 10
2.0920000000000005
 20
1.4864554032101294e-16
 10
1.1800000000000015
 20
8.384404281969191e-17
 10
0.26800000000000246
 20
1.9042545318370852e-17
 10
-0.6439999999999984
 20
-4.575895218295032e-17
 10
-1.5559999999999992
 20
-1.105604496842715e-16
 10
-2.4679999999999964
 20
-1.753619471855924e-16
 10
-3.3799999999999972
 20
-2.401634446869136e-16
 10
-4.291999999999998
 20
-3.0496494218823475e-16
 10
-5.203999999999997
 20
-3.697664396895558e-16
 10
-6.116
 20
-4.345679371908771e-16
 10
-7.027999999999995
 20
-4.993694346921979e-16
 10
-7.939999999999998
 20
-5.641709321935192e-16
 10
-8.851999999999997
 20
-6.289724296948402e-16
 10
-9.763999999999996
 20
-6.937739271961613e-16
 10
-10.675999999999998
 20
-7.585754246974826e-16
 10
-11.587999999999997
 20
-8.233769221988037e-16
 10
-12.499999999999996
 20
-8.881784197001247e-16
 10
-13.411999999999999
 20
-9.529799172014459e-16
 10
-14.323999999999995
 20
-1.0177814147027668e-15
 10
-15.235999999999994
 20
-1.0825829122040878e-15
 10
-16.147999999999996
 20
-1.147384409705409e-15
 10
-17.059999999999995
 20
-1.2121859072067301e-15
 10
-17.971999999999998
 20
-1.2769874047080514e-15
 10
-18.883999999999997
 20
-1.3417889022093725e-15
 10
-19.795999999999992
 20
-1.4065903997106933e-15
 10
-20.707999999999995
 20
-1.4713918972120146e-15
 10
-21.619999999999994
 20
-1.5361933947133356e-15
 10
-22.532
 20
-1.6009948922146573e-15
 10
-23.444
 20
-1.6657963897159784e-15
 10
-24.35599999999999
 20
-1.7305978872172988e-15
 10
-25.267999999999997
 20
-1.7953993847186205e-15
 10
-26.179999999999996
 20
-1.8602008822199413e-15
 10
-27.091999999999995
 20
-1.9250023797212626e-15
 10
-28.003999999999994
 20
-1.9898038772225835e-15
 10
-28.915999999999993
 20
-2.0546053747239047e-15
 10
-29.827999999999992
 20
-2.1194068722252256e-15
 10
-30.73999999999999
 20
-2.184208369726547e-15
 10
-31.651999999999997
 20
-2.249009867227868e-15
 10
-32.56399999999999
 20
-2.313811364729189e-15
 10
-33.476
 20
-2.3786128622305106e-15
 10
-34.38799999999999
 20
-2.443414359731831e-15
 10
-35.3
 20
-2.5082158572331527e-15
  0
LWPOLYLINE
  5
33
330
17
100
AcDbEntity
  8
0
100
AcDbPolyline
 90
51
 70
0
 10
7.3
 20
12.0
 10
7.28224785841232
 20
11.623566746725944
 10
7.229149002914754
 20
11.250474741657102
 10
7.141174742707772
 20
10.884035575843084
 10
7.019105943553006
 20
10.527501789261288
 10
6.864026096753472
 20
10.184038001041813
 10
6.677311702008061
 20
9.856692820084014
 10
6.460620049502762
 20
9.548371785388095
 10
6.215874509685646
 20
9.261811576285245
 10
5.945247461294608
 20
8.999555721478163
 10
5.651141009169893
 20
8.76393202250021
 10
5.336165663001484
 20
8.557031891984225
 10
5.003117166260292
 20
8.380691790135923
 10
4.654951680981165
 20
8.236476924183098
 10
4.294759548659419
 20
8.125667355485476
 10
3.925737860160924
 20
8.049246637619449
 10
3.5511620781172546
 20
8.007893086286913
 10
3.1743569636874884
 20
8.001973758537073
 10
2.7986670657427832
 20
8.031541194742088
 10
2.427427034413832
 20
8.09633295224501
 10
2.063932022500211
 20
8.195773934819385
 10
1.7114084374608771
 20
8.328981497264076
 10
1.3729853035931388
 20
8.494773279824546
 10
1.051666488591478
 20
8.691677702901753
 10
0.7503040410052417
 20
8.917947028896842
 10
0.4715728752538104
 20
9.171572875253808
 10
0.2179470288968428
 20
9.450304041005241
 10
-0.008322297098246167
 20
9.751666488591475
 10
-0.2052267201754545
 20
10.07298530359314
 10
-0.37101850273592385
 20
10.411408437460874
 10
-0.5042260651806143
 20
10.76393202250021
 10
-0.603667047754989
 20
11.127427034413827
 10
-0.6684588052579112
 20
11.498667065742781
 10
-0.6980262414629266
 20
11.874356963687486
 10
-0.6921069137130864
 20
12.25116207811725
 10
-0.6507533623805513
 20
12.625737860160923
 10
-0.5743326445145245
 20
12.994759548659419
 10
-0.46352307581690244
 20
13.354951680981163
 10
-0.3193082098640798
 20
13.703117166260286
 10
-0.14296810801577386
 20
14.036165663001485
 10
0.06393202250020913
 20
14.351141009169892
 10
0.29955572147815923
 20
14.645247461294606
 10
0.5618115762852463
 20
14.915874509685647
 10
0.8483717853880934
 20
15.16062004950276
 10
1.156692820084014
 20
15.377311702008061
 10
1.4840380010418115
 20
15.564026096753471
 10
1.827501789261288
 20
15.719105943553005
 10
2.1840355758430805
 20
15.841174742707771
 10
2.5504747416571005
 20
15.929149002914755
 10
2.9235667467259434
 20
15.98224785841232
 10
3.2999999999999985
 20
16.0
  0
LWPOLYLINE
  5
34
330
17
100
AcDbEntity
  8
0
100
AcDbPolyline
 90
51
 70
0
 10
3.2999999999999994
 20
16.0
 10
3.4256430363125125
 20
15.998026241462927
 10
3.551162078117253
 20
15.992106913713087
 10
3.6764332532740567
 20
15.98224785841232
 10
3.8013329342572164
 20
15.968458805257912
 10
3.9257378601609227
 20
15.950753362380551
 10
4.049525258342898
 20
15.929149002914755
 10
4.17257296558617
 20
15.90366704775499
 10
4.294759548659418
 20
15.874332644514524
 10
4.4159644241569165
 20
15.841174742707771
 10
4.536067977499789
 20
15.804226065180615
 10
4.654951680981165
 20
15.763523075816902
 10
4.772498210738711
 20
15.719105943553005
 10
4.888591562539122
 20
15.671018502735924
 10
5.0031171662602905
 20
15.619308209864078
 10
5.115961998958186
 20
15.564026096753471
 10
5.227014696406861
 20
15.505226720175454
 10
5.336165663001484
 20
15.442968108015775
 10
5.443307179915986
 20
15.377311702008061
 10
5.548333511408522
 20
15.308322297098247
 10
5.651141009169892
 20
15.23606797749979
 10
5.751628214611905
 20
15.160620049502763
 10
5.849695958994758
 20
15.082052971103158
 10
5.945247461294606
 20
15.000444278521838
 10
6.038188423714754
 20
14.915874509685647
 10
6.12842712474619
 20
14.828427124746192
 10
6.215874509685646
 20
14.738188423714755
 10
6.300444278521837
 20
14.645247461294609
 10
6.382052971103157
 20
14.549695958994759
 10
6.4606200495027615
 20
14.451628214611906
 10
6.536067977499789
 20
14.351141009169893
 10
6.608322297098247
 20
14.248333511408523
 10
6.67731170200806
 20
14.143307179915986
 10
6.742968108015774
 20
14.036165663001485
 10
6.805226720175455
 20
13.92701469640686
 10
6.864026096753471
 20
13.815961998958187
 10
6.919308209864078
 20
13.703117166260292
 10
6.971018502735925
 20
13.588591562539122
 10
7.019105943553005
 20
13.472498210738713
 10
7.063523075816901
 20
13.354951680981166
 10
7.1042260651806135
 20
13.23606797749979
 10
7.141174742707772
 20
13.115964424156918
 10
7.174332644514524
 20
12.99475954865942
 10
7.203667047754989
 20
12.872572965586171
 10
7.229149002914754
 20
12.7495252583429
 10
7.250753362380551
 20
12.625737860160925
 10
7.268458805257911
 20
12.501332934257219
 10
7.28224785841232
 20
12.376433253274058
 10
7.292106913713086
 20
12.251162078117254
 10
7.298026241462926
 20
12.125643036312514
 10
7.3
 20
12.0
  0
LWPOLYLINE
  5
35
330
17
100
AcDbEntity
  8
0
100
AcDbPolyline
 90
51
 70
0
 10
-35.3
 20
-2.50821585723315e-15
 10
-35.3
 20
0.09999999999999754
 10
-35.3
 20
0.1999999999999976
 10
-35.3
 20
0.29999999999999766
 10
-35.3
 20
0.3999999999999977
 10
-35.3
 20
0.49999999999999784
 10
-35.3
 20
0.5999999999999978
 10
-35.3
 20
0.6999999999999978
 10
-35.3
 20
0.7999999999999978
 10
-35.3
 20
0.8999999999999979
 10
-35.3
 20
0.9999999999999981
 10
-35.3
 20
1.099999999999998
 10
-35.3
 20
1.1999999999999982
 10
-35.3
 20
1.299999999999998
 10
-35.3
 20
1.3999999999999984
 10
-35.3
 20
1.4999999999999984
 10
-35.3
 20
1.5999999999999983
 10
-35.3
 20
1.6999999999999984
 10
-35.3
 20
1.7999999999999985
 10
-35.3
 20
1.8999999999999988
 10
-35.3
 20
1.9999999999999987
 10
-35.3
 20
2.0999999999999983
 10
-35.3
 20
2.1999999999999984
 10
-35.3
 20
2.2999999999999985
 10
-35.3
 20
2.3999999999999986
 10
-35.3
 20
2.4999999999999987
 10
-35.3
 20
2.5999999999999983
 10
-35.3
 20
2.699999999999999
 10
-35.3
 20
2.799999999999999
 10
-35.3
 20
2.899999999999999
 10
-35.3
 20
2.999999999999999
 10
-35.3
 20
3.099999999999999
 10
-35.3
 20
3.199999999999999
 10
-35.3
 20
3.299999999999999
 10
-35.3
 20
3.399999999999999
 10
-35.3
 20
3.499999999999999
 10
-35.3
 20
3.599999999999999
 10
-35.3
 20
3.699999999999999
 10
-35.3
 20
3.8
 10
-35.3
 20
3.8999999999999995
 10
-35.3
 20
4.0
 10
-35.3
 20
4.1
 10
-35.3
 20
4.199999999999999
 10
-35.3
 20
4.3
 10
-35.3
 20
4.3999999999999995
 10
-35.3
 20
4.5
 10
-35.3
 20
4.6
 10
-35.3
 20
4.699999999999999
 10
-35.3
 20
4.8
 10
-35.3
 20
4.9
 10
-35.3
 20
5.0
  0
LWPOLYLINE
  5
36
330
17
100
AcDbEntity
  8
0
100
AcDbPolyline
 90
51
 70
0
 10
-20.0
 20
5.0
 10
-19.674
 20
5.0
 10
-19.348
 20
5.0
 10
-19.022
 20
5.0
 10
-18.695999999999998
 20
5.0
 10
-18.37
 20
5.0
 10
-18.044
 20
5.0
 10
-17.718
 20
5.0
 10
-17.392
 20
5.0
 10
-17.066
 20
5.0
 10
-16.740000000000002
 20
5.0
 10
-16.414
 20
5.0
 10
-16.088
 20
5.0
 10
-15.762
 20
5.0
 10
-15.436
 20
5.0
 10
-15.11
 20
5.0
 10
-14.783999999999999
 20
5.0
 10
-14.457999999999998
 20
5.0
 10
-14.132
 20
5.0
 10
-13.806000000000001
 20
5.0
 10
-13.48
 20
5.0
 10
-13.154
 20
5.0
 10
-12.828
 20
5.0
 10
-12.501999999999999
 20
5.0
 10
-12.175999999999998
 20
5.0
 10
-11.85
 20
5.0
 10
-11.524
 20
5.0
 10
-11.198
 20
5.0
 10
-10.872
 20
5.0
 10
-10.546
 20
5.0
 10
-10.22
 20
5.0
 10
-9.894
 20
5.0
 10
-9.568
 20
5.0
 10
-9.242
 20
5.0
 10
-8.915999999999997
 20
5.0
 10
-8.59
 20
5.0
 10
-8.264
 20
5.0
 10
-7.937999999999999
 20
5.0
 10
-7.612000000000002
 20
5.0
 10
-7.286000000000001
 20
5.0
 10
-6.960000000000001
 20
5.0
 10
-6.634
 20
5.0
 10
-6.308
 20
5.0
 10
-5.981999999999999
 20
5.0
 10
-5.655999999999999
 20
5.0
 10
-5.329999999999998
 20
5.0
 10
-5.003999999999998
 20
5.0
 10
-4.677999999999997
 20
5.0
 10
-4.351999999999997
 20
5.0
 10
-4.026
 20
5.0
 10
-3.6999999999999993
 20
5.0
  0
LWPOLYLINE
  5
37
330
17
100
AcDbEntity
  8
0
100
AcDbPolyline
 90
51
 70
0
 10
-35.3
 20
5.0
 10
-34.668
 20
5.0
 10
-34.036
 20
5.0
 10
-33.403999999999996
 20
5.0
 10
-32.772
 20
5.0
 10
-32.14
 20
5.0
 10
-31.507999999999996
 20
5.0
 10
-30.875999999999998
 20
5.0
 10
-30.243999999999996
 20
5.0
 10
-29.612
 20
5.0
 10
-28.979999999999997
 20
5.0
 10
-28.348
 20
5.0
 10
-27.715999999999998
 20
5.0
 10
-27.083999999999996
 20
5.0
 10
-26.451999999999998
 20
5.0
 10
-25.82
 20
5.0
 10
-25.187999999999995
 20
5.0
 10
-24.555999999999997
 20
5.0
 10
-23.924
 20
5.0
 10
-23.291999999999998
 20
5.0
 10
-22.659999999999997
 20
5.0
 10
-22.028
 20
5.0
 10
-21.396
 20
5.0
 10
-20.763999999999996
 20
5.0
 10
-20.131999999999998
 20
5.0
 10
-19.499999999999996
 20
5.0
 10
-18.868
 20
5.0
 10
-18.235999999999997
 20
5.0
 10
-17.604
 20
5.0
 10
-16.971999999999998
 20
5.0
 10
-16.34
 20
5.0
 10
-15.707999999999998
 20
5.0
 10
-15.075999999999997
 20
5.0
 10
-14.443999999999999
 20
5.0
 10
-13.812000000000001
 20
5.0
 10
-13.179999999999996
 20
5.0
 10
-12.547999999999998
 20
5.0
 10
-11.916
 20
5.0
 10
-11.283999999999999
 20
5.0
 10
-10.652000000000001
 20
5.0
 10
-10.019999999999996
 20
5.0
 10
-9.387999999999998
 20
5.0
 10
-8.756
 20
5.0
 10
-8.123999999999999
 20
5.0
 10
-7.492000000000001
 20
5.0
 10
-6.859999999999996
 20
5.0
 10
-6.227999999999998
 20
5.0
 10
-5.596
 20
5.0
 10
-4.963999999999999
 20
5.0
 10
-4.332000000000001
 20
5.0
 10
-3.6999999999999957
 20
5.0
  0
LWPOLYLINE
  5
38
330
17
100
AcDbEntity
  8
0
100
AcDbPolyline
 90
51
 70
0
 10
-3.7
 20
5.0
 10
-3.7
 20
5.14
 10
-3.7
 20
5.28
 10
-3.7
 20
5.42
 10
-3.7
 20
5.5600000000000005
 10
-3.7
 20
5.7
 10
-3.7
 20
5.84
 10
-3.7000000000000006
 20
5.98
 10
-3.7000000000000006
 20
6.12
 10
-3.7000000000000006
 20
6.26
 10
-3.7000000000000006
 20
6.4
 10
-3.7000000000000006
 20
6.54
 10
-3.7000000000000006
 20
6.68
 10
-3.7000000000000006
 20
6.82
 10
-3.7000000000000006
 20
6.96
 10
-3.7000000000000006
 20
7.1
 10
-3.7000000000000006
 20
7.24
 10
-3.7000000000000006
 20
7.38
 10
-3.7000000000000006
 20
7.52
 10
-3.7000000000000006
 20
7.66
 10
-3.700000000000001
 20
7.8
 10
-3.700000000000001
 20
7.9399999999999995
 10
-3.700000000000001
 20
8.08
 10
-3.700000000000001
 20
8.22
 10
-3.700000000000001
 20
8.36
 10
-3.700000000000001
 20
8.5
 10
-3.700000000000001
 20
8.64
 10
-3.700000000000001
 20
8.78
 10
-3.700000000000001
 20
8.92
 10
-3.700000000000001
 20
9.059999999999999
 10
-3.700000000000001
 20
9.2
 10
-3.700000000000001
 20
9.34
 10
-3.700000000000001
 20
9.48
 10
-3.7000000000000015
 20
9.620000000000001
 10
-3.7000000000000015
 20
9.76
 10
-3.7000000000000015
 20
9.9
 10
-3.7000000000000015
 20
10.04
 10
-3.7000000000000015
 20
10.18
 10
-3.7000000000000015
 20
10.32
 10
-3.7000000000000015
 20
10.46
 10
-3.7000000000000015
 20
10.6
 10
-3.7000000000000015
 20
10.74
 10
-3.7000000000000015
 20
10.879999999999999
 10
-3.7000000000000015
 20
11.02
 10
-3.7000000000000015
 20
11.16
 10
-3.700000000000002
 20
11.3
 10
-3.700000000000002
 20
11.440000000000001
 10
-3.700000000000002
 20
11.58
 10
-3.700000000000002
 20
11.719999999999999
 10
-3.700000000000002
 20
11.86
 10
-3.700000000000002
 20
12.0
  0
ENDSEC
  0
SECTION
  2
OBJECTS
  0
DICTIONARY
  5
A
330
0
100
AcDbDictionary
280
0
281
1
  3
ACAD_COLOR
350
B
  3
ACAD_GROUP
350
C
  3
ACAD_LAYOUT
350
D
  3
ACAD_MATERIAL
350
E
  3
ACAD_MLEADERSTYLE
350
F
  3
ACAD_MLINESTYLE
350
10
  3
ACAD_PLOTSETTINGS
350
11
  3
ACAD_PLOTSTYLENAME
350
12
  3
ACAD_SCALELIST
350
14
  3
ACAD_TABLESTYLE
350
15
  3
ACAD_VISUALSTYLE
350
16
  3
EZDXF_META
350
2D
  0
DICTIONARY
  5
B
330
A
100
AcDbDictionary
280
0
281
1
  0
DICTIONARY
  5
C
330
A
100
AcDbDictionary
280
0
281
1
  0
DICTIONARY
  5
D
330
A
100
AcDbDictionary
280
0
281
1
  3
Model
350
1A
  3
Layout1
350
1E
  0
DICTIONARY
  5
E
330
A
100
AcDbDictionary
280
0
281
1
  3
ByBlock
350
1F
  3
ByLayer
350
20
  3
Global
350
21
  0
DICTIONARY
  5
F
330
A
100
AcDbDictionary
280
0
281
1
  3
Standard
350
2C
  0
DICTIONARY
  5
10
330
A
100
AcDbDictionary
280
0
281
1
  3
Standard
350
22
  0
DICTIONARY
  5
11
330
A
100
AcDbDictionary
280
0
281
1
  0
ACDBDICTIONARYWDFLT
  5
12
330
A
100
AcDbDictionary
280
0
281
1
  3
Normal
350
13
100
AcDbDictionaryWithDefault
340
13
  0
ACDBPLACEHOLDER
  5
13
330
12
  0
DICTIONARY
  5
14
330
A
100
AcDbDictionary
280
0
281
1
  0
DICTIONARY
  5
15
330
A
100
AcDbDictionary
280
0
281
1
  0
DICTIONARY
  5
16
330
A
100
AcDbDictionary
280
0
281
1
  0
LAYOUT
  5
1A
330
D
100
AcDbPlotSettings
  1

  2
Adobe PDF
  4
A3
  6

 40
7.5
 41
20.0
 42
7.5
 43
20.0
 44
420.0
 45
297.0
 46
0.0
 47
0.0
 48
0.0
 49
0.0
140
0.0
141
0.0
142
1.0
143
1.0
 70
1024
 72
1
 73
0
 74
5
  7

 75
16
 76
0
 77
2
 78
300
147
1.0
148
0.0
149
0.0
100
AcDbLayout
  1
Model
 70
1
 71
0
 10
0.0
 20
0.0
 11
420.0
 21
297.0
 12
0.0
 22
0.0
 32
0.0
 14
1e+20
 24
1e+20
 34
1e+20
 15
-1e+20
 25
-1e+20
 35
-1e+20
146
0.0
 13
0.0
 23
0.0
 33
0.0
 16
1.0
 26
0.0
 36
0.0
 17
0.0
 27
1.0
 37
0.0
 76
1
330
17
  0
LAYOUT
  5
1E
330
D
100
AcDbPlotSettings
  1

  2
Adobe PDF
  4
A3
  6

 40
7.5
 41
20.0
 42
7.5
 43
20.0
 44
420.0
 45
297.0
 46
0.0
 47
0.0
 48
0.0
 49
0.0
140
0.0
141
0.0
142
1.0
143
1.0
 70
0
 72
1
 73
0
 74
5
  7

 75
16
 76
0
 77
2
 78
300
147
1.0
148
0.0
149
0.0
100
AcDbLayout
  1
Layout1
 70
1
 71
1
 10
0.0
 20
0.0
 11
420.0
 21
297.0
 12
0.0
 22
0.0
 32
0.0
 14
1e+20
 24
1e+20
 34
1e+20
 15
-1e+20
 25
-1e+20
 35
-1e+20
146
0.0
 13
0.0
 23
0.0
 33
0.0
 16
1.0
 26
0.0
 36
0.0
 17
0.0
 27
1.0
 37
0.0
 76
1
330
1B
  0
MATERIAL
  5
1F
102
{ACAD_REACTORS
330
E
102
}
330
E
100
AcDbMaterial
  1
ByBlock
  2

 70
0
 40
1.0
 71
1
 41
1.0
 91
-1023410177
 42
1.0
 72
1
  3

 73
1
 74
1
 75
1
 44
0.5
 73
0
 45
1.0
 46
1.0
 77
1
  4

 78
1
 79
1
170
1
 48
1.0
171
1
  6

172
1
173
1
174
1
140
1.0
141
1.0
175
1
  7

176
1
177
1
178
1
143
1.0
179
1
  8

270
1
271
1
272
1
145
1.0
146
1.0
273
1
  9

274
1
275
1
276
1
 42
1.0
 72
1
  3

 73
1
 74
1
 75
1
 94
63
  0
MATERIAL
  5
20
102
{ACAD_REACTORS
330
E
102
}
330
E
100
AcDbMaterial
  1
ByLayer
  2

 70
0
 40
1.0
 71
1
 41
1.0
 91
-1023410177
 42
1.0
 72
1
  3

 73
1
 74
1
 75
1
 44
0.5
 73
0
 45
1.0
 46
1.0
 77
1
  4

 78
1
 79
1
170
1
 48
1.0
171
1
  6

172
1
173
1
174
1
140
1.0
141
1.0
175
1
  7

176
1
177
1
178
1
143
1.0
179
1
  8

270
1
271
1
272
1
145
1.0
146
1.0
273
1
  9

274
1
275
1
276
1
 42
1.0
 72
1
  3

 73
1
 74
1
 75
1
 94
63
  0
MATERIAL
  5
21
102
{ACAD_REACTORS
330
E
102
}
330
E
100
AcDbMaterial
  1
Global
  2

 70
0
 40
1.0
 71
1
 41
1.0
 91
-1023410177
 42
1.0
 72
1
  3

 73
1
 74
1
 75
1
 44
0.5
 73
0
 45
1.0
 46
1.0
 77
1
  4

 78
1
 79
1
170
1
 48
1.0
171
1
  6

172
1
173
1
174
1
140
1.0
141
1.0
175
1
  7

176
1
177
1
178
1
143
1.0
179
1
  8

270
1
271
1
272
1
145
1.0
146
1.0
273
1
  9

274
1
275
1
276
1
 42
1.0
 72
1
  3

 73
1
 74
1
 75
1
 94
63
  0
MLINESTYLE
  5
22
102
{ACAD_REACTORS
330
10
102
}
330
10
100
AcDbMlineStyle
  2
Standard
 70
0
  3

 62
256
 51
90.0
 52
90.0
 71
2
 49
0.5
 62
256
  6
BYLAYER
 49
-0.5
 62
256
  6
BYLAYER
  0
MLEADERSTYLE
  5
2C
102
{ACAD_REACTORS
330
F
102
}
330
F
100
AcDbMLeaderStyle
179
2
170
2
171
1
172
0
 90
2
 40
0.0
 41
0.0
173
1
 91
-1056964608
 92
-2
290
1
 42
2.0
291
1
 43
8.0
  3
Standard
 44
4.0
300

342
29
174
1
175
1
176
0
178
1
 93
-1056964608
 45
4.0
292
0
297
0
 46
4.0
 94
-1056964608
 47
1.0
 49
1.0
140
1.0
294
1
141
0.0
177
0
142
1.0
295
0
296
0
143
3.75
271
0
272
9
273
9
  0
DICTIONARY
  5
2D
330
A
100
AcDbDictionary
281
1
  3
CREATED_BY_EZDXF
350
2E
  3
WRITTEN_BY_EZDXF
350
3B
  0
DICTIONARYVAR
  5
2E
330
2D
100
DictionaryVariables
280
0
  1
1.0.3 @ 2025-05-29T09:38:45.825234+00:00
  0
DICTIONARYVAR
  5
3B
330
2D
100
DictionaryVariables
280
0
  1
1.0.3 @ 2025-05-29T09:38:45.827741+00:00
  0
ENDSEC
  0
EOF
