  0
SECTION
  2
HEADER
  9
$ACADVER
  1
AC1027
  9
$ACADMAINTVER
 70
105
  9
$DWGCODEPAGE
  3
ANSI_1252
  9
$LASTSAVEDBY
  1
ezdxf
  9
$REQUIREDVERSIONS
160
0
  9
$INSBASE
 10
0.0
 20
0.0
 30
0.0
  9
$EXTMIN
 10
1e+20
 20
1e+20
 30
1e+20
  9
$EXTMAX
 10
-1e+20
 20
-1e+20
 30
-1e+20
  9
$LIMMIN
 10
0.0
 20
0.0
  9
$LIMMAX
 10
420.0
 20
297.0
  9
$ORTHOMODE
 70
0
  9
$REGENMODE
 70
1
  9
$FILLMODE
 70
1
  9
$QTEXTMODE
 70
0
  9
$MIRRTEXT
 70
1
  9
$LTSCALE
 40
1.0
  9
$ATTMODE
 70
1
  9
$TEXTSIZE
 40
2.5
  9
$TRACEWID
 40
1.0
  9
$TEXTSTYLE
  7
Standard
  9
$CLAYER
  8
0
  9
$CELTYPE
  6
ByLayer
  9
$CECOLOR
 62
256
  9
$CELTSCALE
 40
1.0
  9
$DISPSILH
 70
0
  9
$DIMSCALE
 40
1.0
  9
$DIMASZ
 40
2.5
  9
$DIMEXO
 40
0.625
  9
$DIMDLI
 40
3.75
  9
$DIMRND
 40
0.0
  9
$DIMDLE
 40
0.0
  9
$DIMEXE
 40
1.25
  9
$DIMTP
 40
0.0
  9
$DIMTM
 40
0.0
  9
$DIMTXT
 40
2.5
  9
$DIMCEN
 40
2.5
  9
$DIMTSZ
 40
0.0
  9
$DIMTOL
 70
0
  9
$DIMLIM
 70
0
  9
$DIMTIH
 70
0
  9
$DIMTOH
 70
0
  9
$DIMSE1
 70
0
  9
$DIMSE2
 70
0
  9
$DIMTAD
 70
1
  9
$DIMZIN
 70
8
  9
$DIMBLK
  1

  9
$DIMASO
 70
1
  9
$DIMSHO
 70
1
  9
$DIMPOST
  1

  9
$DIMAPOST
  1

  9
$DIMALT
 70
0
  9
$DIMALTD
 70
3
  9
$DIMALTF
 40
0.03937007874
  9
$DIMLFAC
 40
1.0
  9
$DIMTOFL
 70
1
  9
$DIMTVP
 40
0.0
  9
$DIMTIX
 70
0
  9
$DIMSOXD
 70
0
  9
$DIMSAH
 70
0
  9
$DIMBLK1
  1

  9
$DIMBLK2
  1

  9
$DIMSTYLE
  2
ISO-25
  9
$DIMCLRD
 70
0
  9
$DIMCLRE
 70
0
  9
$DIMCLRT
 70
0
  9
$DIMTFAC
 40
1.0
  9
$DIMGAP
 40
0.625
  9
$DIMJUST
 70
0
  9
$DIMSD1
 70
0
  9
$DIMSD2
 70
0
  9
$DIMTOLJ
 70
0
  9
$DIMTZIN
 70
8
  9
$DIMALTZ
 70
0
  9
$DIMALTTZ
 70
0
  9
$DIMUPT
 70
0
  9
$DIMDEC
 70
2
  9
$DIMTDEC
 70
2
  9
$DIMALTU
 70
2
  9
$DIMALTTD
 70
3
  9
$DIMTXSTY
  7
Standard
  9
$DIMAUNIT
 70
0
  9
$DIMADEC
 70
0
  9
$DIMALTRND
 40
0.0
  9
$DIMAZIN
 70
0
  9
$DIMDSEP
 70
44
  9
$DIMATFIT
 70
3
  9
$DIMFRAC
 70
0
  9
$DIMLDRBLK
  1

  9
$DIMLUNIT
 70
2
  9
$DIMLWD
 70
-2
  9
$DIMLWE
 70
-2
  9
$DIMTMOVE
 70
0
  9
$DIMFXL
 40
1.0
  9
$DIMFXLON
 70
0
  9
$DIMJOGANG
 40
0.785398163397
  9
$DIMTFILL
 70
0
  9
$DIMTFILLCLR
 70
0
  9
$DIMARCSYM
 70
0
  9
$DIMLTYPE
  6

  9
$DIMLTEX1
  6

  9
$DIMLTEX2
  6

  9
$DIMTXTDIRECTION
 70
0
  9
$LUNITS
 70
2
  9
$LUPREC
 70
4
  9
$SKETCHINC
 40
1.0
  9
$FILLETRAD
 40
10.0
  9
$AUNITS
 70
0
  9
$AUPREC
 70
2
  9
$MENU
  1
.
  9
$ELEVATION
 40
0.0
  9
$PELEVATION
 40
0.0
  9
$THICKNESS
 40
0.0
  9
$LIMCHECK
 70
0
  9
$CHAMFERA
 40
0.0
  9
$CHAMFERB
 40
0.0
  9
$CHAMFERC
 40
0.0
  9
$CHAMFERD
 40
0.0
  9
$SKPOLY
 70
0
  9
$TDCREATE
 40
2460825.7771527776
  9
$TDUCREATE
 40
2458532.153996898
  9
$TDUPDATE
 40
2460825.7771527776
  9
$TDUUPDATE
 40
2458532.1544311
  9
$TDINDWG
 40
0.0
  9
$TDUSRTIMER
 40
0.0
  9
$USRTIMER
 70
1
  9
$ANGBASE
 50
0.0
  9
$ANGDIR
 70
0
  9
$PDMODE
 70
0
  9
$PDSIZE
 40
0.0
  9
$PLINEWID
 40
0.0
  9
$SPLFRAME
 70
0
  9
$SPLINETYPE
 70
6
  9
$SPLINESEGS
 70
8
  9
$HANDSEED
  5
3B
  9
$SURFTAB1
 70
6
  9
$SURFTAB2
 70
6
  9
$SURFTYPE
 70
6
  9
$SURFU
 70
6
  9
$SURFV
 70
6
  9
$UCSBASE
  2

  9
$UCSNAME
  2

  9
$UCSORG
 10
0.0
 20
0.0
 30
0.0
  9
$UCSXDIR
 10
1.0
 20
0.0
 30
0.0
  9
$UCSYDIR
 10
0.0
 20
1.0
 30
0.0
  9
$UCSORTHOREF
  2

  9
$UCSORTHOVIEW
 70
0
  9
$UCSORGTOP
 10
0.0
 20
0.0
 30
0.0
  9
$UCSORGBOTTOM
 10
0.0
 20
0.0
 30
0.0
  9
$UCSORGLEFT
 10
0.0
 20
0.0
 30
0.0
  9
$UCSORGRIGHT
 10
0.0
 20
0.0
 30
0.0
  9
$UCSORGFRONT
 10
0.0
 20
0.0
 30
0.0
  9
$UCSORGBACK
 10
0.0
 20
0.0
 30
0.0
  9
$PUCSBASE
  2

  9
$PUCSNAME
  2

  9
$PUCSORG
 10
0.0
 20
0.0
 30
0.0
  9
$PUCSXDIR
 10
1.0
 20
0.0
 30
0.0
  9
$PUCSYDIR
 10
0.0
 20
1.0
 30
0.0
  9
$PUCSORTHOREF
  2

  9
$PUCSORTHOVIEW
 70
0
  9
$PUCSORGTOP
 10
0.0
 20
0.0
 30
0.0
  9
$PUCSORGBOTTOM
 10
0.0
 20
0.0
 30
0.0
  9
$PUCSORGLEFT
 10
0.0
 20
0.0
 30
0.0
  9
$PUCSORGRIGHT
 10
0.0
 20
0.0
 30
0.0
  9
$PUCSORGFRONT
 10
0.0
 20
0.0
 30
0.0
  9
$PUCSORGBACK
 10
0.0
 20
0.0
 30
0.0
  9
$USERI1
 70
0
  9
$USERI2
 70
0
  9
$USERI3
 70
0
  9
$USERI4
 70
0
  9
$USERI5
 70
0
  9
$USERR1
 40
0.0
  9
$USERR2
 40
0.0
  9
$USERR3
 40
0.0
  9
$USERR4
 40
0.0
  9
$USERR5
 40
0.0
  9
$WORLDVIEW
 70
1
  9
$SHADEDGE
 70
3
  9
$SHADEDIF
 70
70
  9
$TILEMODE
 70
1
  9
$MAXACTVP
 70
64
  9
$PINSBASE
 10
0.0
 20
0.0
 30
0.0
  9
$PLIMCHECK
 70
0
  9
$PEXTMIN
 10
1e+20
 20
1e+20
 30
1e+20
  9
$PEXTMAX
 10
-1e+20
 20
-1e+20
 30
-1e+20
  9
$PLIMMIN
 10
0.0
 20
0.0
  9
$PLIMMAX
 10
420.0
 20
297.0
  9
$UNITMODE
 70
0
  9
$VISRETAIN
 70
1
  9
$PLINEGEN
 70
0
  9
$PSLTSCALE
 70
1
  9
$TREEDEPTH
 70
3020
  9
$CMLSTYLE
  2
Standard
  9
$CMLJUST
 70
0
  9
$CMLSCALE
 40
20.0
  9
$PROXYGRAPHICS
 70
1
  9
$MEASUREMENT
 70
1
  9
$CELWEIGHT
370
-1
  9
$ENDCAPS
280
0
  9
$JOINSTYLE
280
0
  9
$LWDISPLAY
290
0
  9
$INSUNITS
 70
6
  9
$HYPERLINKBASE
  1

  9
$STYLESHEET
  1

  9
$XEDIT
290
1
  9
$CEPSNTYPE
380
0
  9
$PSTYLEMODE
290
1
  9
$FINGERPRINTGUID
  2
{3BED170F-A7EA-4E6C-9832-99BC0BC73501}
  9
$VERSIONGUID
  2
{65123E0B-3491-449F-A650-62CC01C7B5F2}
  9
$EXTNAMES
290
1
  9
$PSVPSCALE
 40
0.0
  9
$OLESTARTUP
290
0
  9
$SORTENTS
280
127
  9
$INDEXCTL
280
0
  9
$HIDETEXT
280
1
  9
$XCLIPFRAME
280
0
  9
$HALOGAP
280
0
  9
$OBSCOLOR
 70
257
  9
$OBSLTYPE
280
0
  9
$INTERSECTIONDISPLAY
280
0
  9
$INTERSECTIONCOLOR
 70
257
  9
$DIMASSOC
280
2
  9
$PROJECTNAME
  1

  9
$CAMERADISPLAY
290
0
  9
$LENSLENGTH
 40
50.0
  9
$CAMERAHEIGHT
 40
0.0
  9
$STEPSPERSEC
 40
24.0
  9
$STEPSIZE
 40
100.0
  9
$3DDWFPREC
 40
2.0
  9
$PSOLWIDTH
 40
0.005
  9
$PSOLHEIGHT
 40
0.08
  9
$LOFTANG1
 40
1.570796326795
  9
$LOFTANG2
 40
1.570796326795
  9
$LOFTMAG1
 40
0.0
  9
$LOFTMAG2
 40
0.0
  9
$LOFTPARAM
 70
7
  9
$LOFTNORMALS
280
1
  9
$LATITUDE
 40
37.795
  9
$LONGITUDE
 40
-122.394
  9
$NORTHDIRECTION
 40
0.0
  9
$TIMEZONE
 70
-8000
  9
$LIGHTGLYPHDISPLAY
280
1
  9
$TILEMODELIGHTSYNCH
280
1
  9
$CMATERIAL
347
20
  9
$SOLIDHIST
280
0
  9
$SHOWHIST
280
1
  9
$DWFFRAME
280
2
  9
$DGNFRAME
280
2
  9
$REALWORLDSCALE
290
1
  9
$INTERFERECOLOR
 62
256
  9
$CSHADOW
280
0
  9
$SHADOWPLANELOCATION
 40
0.0
  0
ENDSEC
  0
SECTION
  2
CLASSES
  0
CLASS
  1
ACDBDICTIONARYWDFLT
  2
AcDbDictionaryWithDefault
  3
ObjectDBX Classes
 90
0
 91
0
280
0
281
0
  0
CLASS
  1
SUN
  2
AcDbSun
  3
SCENEOE
 90
1153
 91
0
280
0
281
0
  0
CLASS
  1
VISUALSTYLE
  2
AcDbVisualStyle
  3
ObjectDBX Classes
 90
4095
 91
0
280
0
281
0
  0
CLASS
  1
MATERIAL
  2
AcDbMaterial
  3
ObjectDBX Classes
 90
1153
 91
0
280
0
281
0
  0
CLASS
  1
SCALE
  2
AcDbScale
  3
ObjectDBX Classes
 90
1153
 91
0
280
0
281
0
  0
CLASS
  1
TABLESTYLE
  2
AcDbTableStyle
  3
ObjectDBX Classes
 90
4095
 91
0
280
0
281
0
  0
CLASS
  1
MLEADERSTYLE
  2
AcDbMLeaderStyle
  3
ACDB_MLEADERSTYLE_CLASS
 90
4095
 91
0
280
0
281
0
  0
CLASS
  1
DICTIONARYVAR
  2
AcDbDictionaryVar
  3
ObjectDBX Classes
 90
0
 91
0
280
0
281
0
  0
CLASS
  1
CELLSTYLEMAP
  2
AcDbCellStyleMap
  3
ObjectDBX Classes
 90
1152
 91
0
280
0
281
0
  0
CLASS
  1
MENTALRAYRENDERSETTINGS
  2
AcDbMentalRayRenderSettings
  3
SCENEOE
 90
1024
 91
0
280
0
281
0
  0
CLASS
  1
ACDBDETAILVIEWSTYLE
  2
AcDbDetailViewStyle
  3
ObjectDBX Classes
 90
1025
 91
0
280
0
281
0
  0
CLASS
  1
ACDBSECTIONVIEWSTYLE
  2
AcDbSectionViewStyle
  3
ObjectDBX Classes
 90
1025
 91
0
280
0
281
0
  0
CLASS
  1
RASTERVARIABLES
  2
AcDbRasterVariables
  3
ISM
 90
0
 91
0
280
0
281
0
  0
CLASS
  1
LAYOUT
  2
AcDbLayout
  3
ObjectDBX Classes
 90
0
 91
0
280
0
281
0
  0
CLASS
  1
ACDBPLACEHOLDER
  2
AcDbPlaceHolder
  3
ObjectDBX Classes
 90
0
 91
0
280
0
281
0
  0
ENDSEC
  0
SECTION
  2
TABLES
  0
TABLE
  2
VPORT
  5
8
330
0
100
AcDbSymbolTable
 70
1
  0
VPORT
  5
23
330
8
100
AcDbSymbolTableRecord
100
AcDbViewportTableRecord
  2
*Active
 70
0
 10
0.0
 20
0.0
 11
1.0
 21
1.0
 12
0.0
 22
0.0
 13
0.0
 23
0.0
 14
0.5
 24
0.5
 15
0.5
 25
0.5
 16
0.0
 26
0.0
 36
1.0
 17
0.0
 27
0.0
 37
0.0
 40
1000.0
 41
1.34
 42
50.0
 43
0.0
 44
0.0
 50
0.0
 51
0.0
 71
0
 72
1000
 73
1
 74
3
 75
0
 76
0
 77
0
 78
0
281
0
 65
0
146
0.0
  0
ENDTAB
  0
TABLE
  2
LTYPE
  5
2
330
0
100
AcDbSymbolTable
 70
3
  0
LTYPE
  5
24
330
2
100
AcDbSymbolTableRecord
100
AcDbLinetypeTableRecord
  2
ByBlock
 70
0
  3

 72
65
 73
0
 40
0.0
  0
LTYPE
  5
25
330
2
100
AcDbSymbolTableRecord
100
AcDbLinetypeTableRecord
  2
ByLayer
 70
0
  3

 72
65
 73
0
 40
0.0
  0
LTYPE
  5
26
330
2
100
AcDbSymbolTableRecord
100
AcDbLinetypeTableRecord
  2
Continuous
 70
0
  3

 72
65
 73
0
 40
0.0
  0
ENDTAB
  0
TABLE
  2
LAYER
  5
1
330
0
100
AcDbSymbolTable
 70
2
  0
LAYER
  5
27
330
1
100
AcDbSymbolTableRecord
100
AcDbLayerTableRecord
  2
0
 70
0
 62
7
  6
Continuous
370
-3
390
13
347
21
  0
LAYER
  5
28
330
1
100
AcDbSymbolTableRecord
100
AcDbLayerTableRecord
  2
Defpoints
 70
0
 62
7
  6
Continuous
290
0
370
-3
390
13
347
21
  0
ENDTAB
  0
TABLE
  2
STYLE
  5
5
330
0
100
AcDbSymbolTable
 70
1
  0
STYLE
  5
29
330
5
100
AcDbSymbolTableRecord
100
AcDbTextStyleTableRecord
  2
Standard
 70
0
 40
0.0
 41
1.0
 50
0.0
 71
0
 42
2.5
  3
txt
  4

  0
ENDTAB
  0
TABLE
  2
VIEW
  5
7
330
0
100
AcDbSymbolTable
 70
0
  0
ENDTAB
  0
TABLE
  2
UCS
  5
6
330
0
100
AcDbSymbolTable
 70
0
  0
ENDTAB
  0
TABLE
  2
APPID
  5
3
330
0
100
AcDbSymbolTable
 70
3
  0
APPID
  5
2A
330
3
100
AcDbSymbolTableRecord
100
AcDbRegAppTableRecord
  2
ACAD
 70
0
  0
APPID
  5
38
330
3
100
AcDbSymbolTableRecord
100
AcDbRegAppTableRecord
  2
HATCHBACKGROUNDCOLOR
 70
0
  0
APPID
  5
39
330
3
100
AcDbSymbolTableRecord
100
AcDbRegAppTableRecord
  2
EZDXF
 70
0
  0
ENDTAB
  0
TABLE
  2
DIMSTYLE
  5
4
330
0
100
AcDbSymbolTable
 70
1
100
AcDbDimStyleTable
  0
DIMSTYLE
105
2B
330
4
100
AcDbSymbolTableRecord
100
AcDbDimStyleTableRecord
  2
Standard
 70
0
 40
1.0
 41
2.5
 42
0.625
 43
3.75
 44
1.25
 45
0.0
 46
0.0
 47
0.0
 48
0.0
 49
2.5
140
2.5
141
2.5
142
0.0
143
0.03937007874
144
1.0
145
0.0
146
1.0
147
0.625
148
0.0
 69
0
 70
0
 71
0
 72
0
 73
0
 74
0
 75
0
 76
0
 77
1
 78
8
 79
3
170
0
171
3
172
1
173
0
174
0
175
0
176
0
177
0
178
0
179
2
271
2
272
2
273
2
274
3
275
0
276
0
277
2
278
44
279
0
280
0
281
0
282
0
283
0
284
8
285
0
286
0
288
0
289
3
290
0
371
-2
372
-2
  0
ENDTAB
  0
TABLE
  2
BLOCK_RECORD
  5
9
330
0
100
AcDbSymbolTable
 70
2
  0
BLOCK_RECORD
  5
17
330
9
100
AcDbSymbolTableRecord
100
AcDbBlockTableRecord
  2
*Model_Space
340
1A
 70
0
280
1
281
0
  0
BLOCK_RECORD
  5
1B
330
9
100
AcDbSymbolTableRecord
100
AcDbBlockTableRecord
  2
*Paper_Space
340
1E
 70
0
280
1
281
0
  0
ENDTAB
  0
ENDSEC
  0
SECTION
  2
BLOCKS
  0
BLOCK
  5
18
330
17
100
AcDbEntity
  8
0
100
AcDbBlockBegin
  2
*Model_Space
 70
0
 10
0.0
 20
0.0
 30
0.0
  3
*Model_Space
  1

  0
ENDBLK
  5
19
330
17
100
AcDbEntity
  8
0
100
AcDbBlockEnd
  0
BLOCK
  5
1C
330
1B
100
AcDbEntity
  8
0
100
AcDbBlockBegin
  2
*Paper_Space
 70
0
 10
0.0
 20
0.0
 30
0.0
  3
*Paper_Space
  1

  0
ENDBLK
  5
1D
330
1B
100
AcDbEntity
  8
0
100
AcDbBlockEnd
  0
ENDSEC
  0
SECTION
  2
ENTITIES
  0
LWPOLYLINE
  5
2F
330
17
100
AcDbEntity
  8
0
100
AcDbPolyline
 90
51
 70
0
 10
-15.599999999999998
 20
12.0
 10
-15.599999999999998
 20
11.86
 10
-15.599999999999998
 20
11.719999999999999
 10
-15.599999999999998
 20
11.58
 10
-15.599999999999998
 20
11.44
 10
-15.599999999999998
 20
11.3
 10
-15.599999999999998
 20
11.16
 10
-15.599999999999998
 20
11.02
 10
-15.599999999999998
 20
10.879999999999999
 10
-15.599999999999998
 20
10.74
 10
-15.599999999999998
 20
10.6
 10
-15.599999999999998
 20
10.46
 10
-15.599999999999998
 20
10.32
 10
-15.599999999999998
 20
10.18
 10
-15.599999999999998
 20
10.04
 10
-15.599999999999998
 20
9.9
 10
-15.599999999999998
 20
9.76
 10
-15.599999999999998
 20
9.620000000000001
 10
-15.599999999999998
 20
9.48
 10
-15.599999999999998
 20
9.34
 10
-15.599999999999998
 20
9.2
 10
-15.599999999999998
 20
9.06
 10
-15.599999999999998
 20
8.92
 10
-15.599999999999998
 20
8.78
 10
-15.599999999999998
 20
8.64
 10
-15.6
 20
8.5
 10
-15.6
 20
8.36
 10
-15.6
 20
8.22
 10
-15.6
 20
8.08
 10
-15.6
 20
7.94
 10
-15.6
 20
7.8
 10
-15.6
 20
7.66
 10
-15.6
 20
7.52
 10
-15.6
 20
7.38
 10
-15.6
 20
7.24
 10
-15.6
 20
7.1
 10
-15.6
 20
6.96
 10
-15.6
 20
6.82
 10
-15.6
 20
6.68
 10
-15.6
 20
6.54
 10
-15.6
 20
6.4
 10
-15.6
 20
6.26
 10
-15.6
 20
6.12
 10
-15.6
 20
5.98
 10
-15.6
 20
5.84
 10
-15.6
 20
5.7
 10
-15.6
 20
5.56
 10
-15.6
 20
5.42
 10
-15.6
 20
5.28
 10
-15.6
 20
5.14
 10
-15.6
 20
5.0
  0
LWPOLYLINE
  5
30
330
17
100
AcDbEntity
  8
0
100
AcDbPolyline
 90
51
 70
0
 10
-29.6
 20
2.103206497849896e-15
 10
-27.916
 20
1.983551101147895e-15
 10
-26.232
 20
1.863895704445894e-15
 10
-24.548000000000002
 20
1.7442403077438936e-15
 10
-22.864
 20
1.6245849110418925e-15
 10
-21.18
 20
1.5049295143398917e-15
 10
-19.496000000000002
 20
1.385274117637891e-15
 10
-17.812
 20
1.26561872093589e-15
 10
-16.128
 20
1.1459633242338892e-15
 10
-14.444
 20
1.0263079275318884e-15
 10
-12.760000000000002
 20
9.066525308298876e-16
 10
-11.076
 20
7.8699713412788675e-16
 10
-9.392
 20
6.673417374258858e-16
 10
-7.707999999999998
 20
5.476863407238849e-16
 10
-6.024000000000001
 20
4.2803094402188427e-16
 10
-4.34
 20
3.083755473198834e-16
 10
-2.655999999999999
 20
1.8872015061788246e-16
 10
-0.9720000000000013
 20
6.906475391588181e-17
 10
0.7119999999999997
 20
-5.05906427861191e-17
 10
2.3959999999999972
 20
-1.7024603948811975e-16
 10
4.079999999999998
 20
-2.8990143619012065e-16
 10
5.764000000000003
 20
-4.095568328921218e-16
 10
7.448
 20
-5.292122295941225e-16
 10
9.131999999999998
 20
-6.488676262961231e-16
 10
10.816000000000003
 20
-7.685230229981243e-16
 10
12.5
 20
-8.881784197001249e-16
 10
14.184000000000005
 20
-1.007833816402126e-15
 10
15.868000000000002
 20
-1.1274892131041267e-15
 10
17.552
 20
-1.2471446098061273e-15
 10
19.236000000000004
 20
-1.3668000065081285e-15
 10
20.92
 20
-1.4864554032101292e-15
 10
22.604000000000006
 20
-1.6061107999121304e-15
 10
24.288000000000004
 20
-1.725766196614131e-15
 10
25.971999999999994
 20
-1.845421593316131e-15
 10
27.656
 20
-1.9650769900181325e-15
 10
29.339999999999996
 20
-2.084732386720133e-15
 10
31.024
 20
-2.204387783422134e-15
 10
32.708
 20
-2.3240431801241348e-15
 10
34.391999999999996
 20
-2.4436985768261354e-15
 10
36.076
 20
-2.563353973528137e-15
 10
37.76
 20
-2.6830093702301375e-15
 10
39.44400000000001
 20
-2.802664766932139e-15
 10
41.12800000000001
 20
-2.9223201636341395e-15
 10
42.81199999999999
 20
-3.0419755603361393e-15
 10
44.496
 20
-3.1616309570381408e-15
 10
46.18
 20
-3.2812863537401414e-15
 10
47.864
 20
-3.4009417504421424e-15
 10
49.547999999999995
 20
-3.520597147144143e-15
 10
51.232000000000006
 20
-3.6402525438461445e-15
 10
52.916000000000004
 20
-3.759907940548145e-15
 10
54.6
 20
-3.879563337250146e-15
  0
LWPOLYLINE
  5
31
330
17
100
AcDbEntity
  8
0
100
AcDbPolyline
 90
51
 70
0
 10
54.6
 20
-3.87956333725015e-15
 10
54.6
 20
0.09999999999999619
 10
54.6
 20
0.19999999999999626
 10
54.6
 20
0.2999999999999963
 10
54.6
 20
0.3999999999999964
 10
54.6
 20
0.49999999999999645
 10
54.6
 20
0.5999999999999965
 10
54.6
 20
0.6999999999999967
 10
54.6
 20
0.7999999999999967
 10
54.6
 20
0.8999999999999967
 10
54.6
 20
0.9999999999999968
 10
54.6
 20
1.099999999999997
 10
54.6
 20
1.199999999999997
 10
54.6
 20
1.2999999999999972
 10
54.6
 20
1.3999999999999975
 10
54.6
 20
1.4999999999999973
 10
54.6
 20
1.5999999999999974
 10
54.6
 20
1.6999999999999973
 10
54.6
 20
1.7999999999999974
 10
54.6
 20
1.8999999999999977
 10
54.6
 20
1.9999999999999976
 10
54.6
 20
2.0999999999999974
 10
54.6
 20
2.1999999999999975
 10
54.6
 20
2.2999999999999976
 10
54.6
 20
2.3999999999999977
 10
54.6
 20
2.499999999999998
 10
54.6
 20
2.599999999999998
 10
54.6
 20
2.6999999999999975
 10
54.6
 20
2.7999999999999985
 10
54.6
 20
2.899999999999998
 10
54.6
 20
2.9999999999999982
 10
54.6
 20
3.0999999999999983
 10
54.6
 20
3.1999999999999984
 10
54.6
 20
3.2999999999999985
 10
54.6
 20
3.399999999999998
 10
54.6
 20
3.4999999999999982
 10
54.6
 20
3.5999999999999983
 10
54.6
 20
3.699999999999999
 10
54.6
 20
3.799999999999999
 10
54.6
 20
3.899999999999999
 10
54.6
 20
3.999999999999999
 10
54.6
 20
4.1
 10
54.6
 20
4.199999999999999
 10
54.6
 20
4.299999999999999
 10
54.6
 20
4.3999999999999995
 10
54.6
 20
4.5
 10
54.6
 20
4.6
 10
54.6
 20
4.7
 10
54.6
 20
4.8
 10
54.6
 20
4.8999999999999995
 10
54.6
 20
5.0
  0
LWPOLYLINE
  5
32
330
17
100
AcDbEntity
  8
0
100
AcDbPolyline
 90
51
 70
0
 10
-15.600000000000001
 20
5.0
 10
-14.887999999999998
 20
5.0
 10
-14.176000000000002
 20
5.0
 10
-13.463999999999999
 20
5.0
 10
-12.752000000000002
 20
5.0
 10
-12.04
 20
5.0
 10
-11.328000000000003
 20
5.0
 10
-10.616
 20
5.0
 10
-9.904000000000003
 20
5.0
 10
-9.192
 20
5.0
 10
-8.480000000000004
 20
5.0
 10
-7.768000000000001
 20
5.0
 10
-7.055999999999997
 20
5.0
 10
-6.344000000000001
 20
5.0
 10
-5.6320000000000014
 20
5.0
 10
-4.920000000000002
 20
5.0
 10
-4.207999999999998
 20
5.0
 10
-3.496000000000002
 20
5.0
 10
-2.783999999999999
 20
5.0
 10
-2.0720000000000027
 20
5.0
 10
-1.3599999999999994
 20
5.0
 10
-0.6480000000000032
 20
5.0
 10
0.06400000000000006
 20
5.0
 10
0.7759999999999998
 20
5.0
 10
1.4879999999999995
 20
5.0
 10
2.1999999999999993
 20
5.0
 10
2.911999999999999
 20
5.0
 10
3.6239999999999988
 20
5.0
 10
4.3359999999999985
 20
5.0
 10
5.048000000000002
 20
5.0
 10
5.759999999999998
 20
5.0
 10
6.472000000000001
 20
5.0
 10
7.184000000000001
 20
5.0
 10
7.895999999999997
 20
5.0
 10
8.608
 20
5.0
 10
9.32
 20
5.0
 10
10.032
 20
5.0
 10
10.744
 20
5.0
 10
11.455999999999996
 20
5.0
 10
12.168
 20
5.0
 10
12.879999999999999
 20
5.0
 10
13.592000000000002
 20
5.0
 10
14.303999999999998
 20
5.0
 10
15.015999999999998
 20
5.0
 10
15.728000000000002
 20
5.0
 10
16.439999999999998
 20
5.0
 10
17.152
 20
5.0
 10
17.863999999999997
 20
5.0
 10
18.576
 20
5.0
 10
19.288000000000004
 20
5.0
 10
20.0
 20
5.0
  0
LWPOLYLINE
  5
33
330
17
100
AcDbEntity
  8
0
100
AcDbPolyline
 90
51
 70
0
 10
54.6
 20
5.0
 10
53.196
 20
5.0
 10
51.792
 20
5.0
 10
50.388000000000005
 20
5.0
 10
48.984
 20
5.0
 10
47.58
 20
5.0
 10
46.176
 20
5.0
 10
44.772
 20
5.0
 10
43.368
 20
5.0
 10
41.964
 20
5.0
 10
40.56
 20
5.0
 10
39.156
 20
5.0
 10
37.751999999999995
 20
5.0
 10
36.348
 20
5.0
 10
34.944
 20
5.0
 10
33.540000000000006
 20
5.0
 10
32.135999999999996
 20
5.0
 10
30.732
 20
5.0
 10
29.328
 20
5.0
 10
27.924000000000003
 20
5.0
 10
26.520000000000003
 20
5.0
 10
25.116
 20
5.0
 10
23.712
 20
5.0
 10
22.308
 20
5.0
 10
20.903999999999996
 20
5.0
 10
19.5
 20
5.0
 10
18.096000000000004
 20
5.0
 10
16.692
 20
5.0
 10
15.287999999999997
 20
5.0
 10
13.884
 20
5.0
 10
12.480000000000004
 20
5.0
 10
11.075999999999993
 20
5.0
 10
9.671999999999997
 20
5.0
 10
8.268
 20
5.0
 10
6.863999999999997
 20
5.0
 10
5.460000000000001
 20
5.0
 10
4.055999999999997
 20
5.0
 10
2.652000000000001
 20
5.0
 10
1.2480000000000047
 20
5.0
 10
-0.1559999999999988
 20
5.0
 10
-1.5599999999999952
 20
5.0
 10
-2.9640000000000057
 20
5.0
 10
-4.368000000000002
 20
5.0
 10
-5.7719999999999985
 20
5.0
 10
-7.176000000000002
 20
5.0
 10
-8.579999999999998
 20
5.0
 10
-9.984000000000002
 20
5.0
 10
-11.387999999999998
 20
5.0
 10
-12.792000000000009
 20
5.0
 10
-14.196000000000005
 20
5.0
 10
-15.600000000000001
 20
5.0
  0
LWPOLYLINE
  5
34
330
17
100
AcDbEntity
  8
0
100
AcDbPolyline
 90
51
 70
0
 10
-15.6
 20
5.0
 10
-15.6
 20
5.14
 10
-15.6
 20
5.28
 10
-15.6
 20
5.42
 10
-15.6
 20
5.5600000000000005
 10
-15.6
 20
5.7
 10
-15.6
 20
5.84
 10
-15.6
 20
5.98
 10
-15.6
 20
6.12
 10
-15.6
 20
6.26
 10
-15.6
 20
6.4
 10
-15.6
 20
6.54
 10
-15.6
 20
6.68
 10
-15.6
 20
6.82
 10
-15.6
 20
6.96
 10
-15.6
 20
7.1
 10
-15.6
 20
7.24
 10
-15.6
 20
7.38
 10
-15.6
 20
7.52
 10
-15.6
 20
7.66
 10
-15.6
 20
7.8
 10
-15.6
 20
7.9399999999999995
 10
-15.6
 20
8.08
 10
-15.6
 20
8.22
 10
-15.6
 20
8.36
 10
-15.6
 20
8.5
 10
-15.599999999999998
 20
8.64
 10
-15.599999999999998
 20
8.78
 10
-15.599999999999998
 20
8.92
 10
-15.599999999999998
 20
9.059999999999999
 10
-15.599999999999998
 20
9.2
 10
-15.599999999999998
 20
9.34
 10
-15.599999999999998
 20
9.48
 10
-15.599999999999998
 20
9.620000000000001
 10
-15.599999999999998
 20
9.76
 10
-15.599999999999998
 20
9.9
 10
-15.599999999999998
 20
10.04
 10
-15.599999999999998
 20
10.18
 10
-15.599999999999998
 20
10.32
 10
-15.599999999999998
 20
10.46
 10
-15.599999999999998
 20
10.6
 10
-15.599999999999998
 20
10.74
 10
-15.599999999999998
 20
10.879999999999999
 10
-15.599999999999998
 20
11.02
 10
-15.599999999999998
 20
11.16
 10
-15.599999999999998
 20
11.3
 10
-15.599999999999998
 20
11.440000000000001
 10
-15.599999999999998
 20
11.58
 10
-15.599999999999998
 20
11.719999999999999
 10
-15.599999999999998
 20
11.86
 10
-15.599999999999998
 20
12.0
  0
LWPOLYLINE
  5
35
330
17
100
AcDbEntity
  8
0
100
AcDbPolyline
 90
51
 70
0
 10
-15.600000000000001
 20
11.999999999999998
 10
-15.6138129010021
 20
12.439533636705189
 10
-15.655197090798655
 20
12.877332634950129
 10
-15.72398924489918
 20
13.31166920210007
 10
-15.819917872099584
 20
13.740829210153985
 10
-15.942604385933926
 20
14.16311896062463
 10
-16.09156459878224
 20
14.576871868792741
 10
-16.266210632737867
 20
14.980455040955508
 10
-16.465853239692954
 20
15.372275718712004
 10
-16.689704521485897
 20
15.750787564852978
 10
-16.93688103937537
 20
16.11449676604731
 10
-17.206407300569474
 20
16.461967928240824
 10
-17.49721960805012
 20
16.79182974150082
 10
-17.808170258499178
 20
17.102780391949878
 10
-18.138032071759174
 20
17.393592699430528
 10
-18.485503233952688
 20
17.66311896062463
 10
-18.84921243514702
 20
17.910295478514104
 10
-19.227724281287994
 20
18.134146760307047
 10
-19.61954495904449
 20
18.333789367262135
 10
-20.023128131207258
 20
18.50843540121776
 10
-20.43688103937537
 20
18.657395614066075
 10
-20.859170789846015
 20
18.780082127900418
 10
-21.288330797899928
 20
18.876010755100822
 10
-21.72266736504987
 20
18.944802909201343
 10
-22.16046636329481
 20
18.986187098997902
 10
-22.6
 20
19.0
 10
-23.03953363670519
 20
18.986187098997902
 10
-23.47733263495013
 20
18.944802909201346
 10
-23.91166920210007
 20
18.876010755100822
 10
-24.340829210153984
 20
18.780082127900418
 10
-24.76311896062463
 20
18.657395614066075
 10
-25.176871868792745
 20
18.50843540121776
 10
-25.58045504095551
 20
18.333789367262135
 10
-25.972275718712012
 20
18.134146760307043
 10
-26.35078756485298
 20
17.910295478514104
 10
-26.71449676604731
 20
17.663118960624633
 10
-27.061967928240826
 20
17.393592699430528
 10
-27.39182974150082
 20
17.10278039194988
 10
-27.70278039194988
 20
16.791829741500823
 10
-27.993592699430526
 20
16.461967928240828
 10
-28.26311896062463
 20
16.114496766047314
 10
-28.510295478514106
 20
15.75078756485298
 10
-28.73414676030705
 20
15.372275718712007
 10
-28.933789367262136
 20
14.980455040955512
 10
-29.10843540121776
 20
14.576871868792745
 10
-29.257395614066077
 20
14.163118960624633
 10
-29.38008212790042
 20
13.740829210153988
 10
-29.476010755100823
 20
13.311669202100074
 10
-29.544802909201344
 20
12.877332634950132
 10
-29.586187098997904
 20
12.439533636705193
 10
-29.6
 20
12.000000000000002
  0
LWPOLYLINE
  5
36
330
17
100
AcDbEntity
  8
0
100
AcDbPolyline
 90
51
 70
0
 10
-29.6
 20
12.0
 10
-29.6
 20
11.76
 10
-29.6
 20
11.52
 10
-29.6
 20
11.28
 10
-29.6
 20
11.04
 10
-29.6
 20
10.8
 10
-29.6
 20
10.56
 10
-29.6
 20
10.32
 10
-29.6
 20
10.08
 10
-29.6
 20
9.84
 10
-29.6
 20
9.6
 10
-29.6
 20
9.36
 10
-29.6
 20
9.120000000000001
 10
-29.6
 20
8.879999999999999
 10
-29.6
 20
8.64
 10
-29.6
 20
8.4
 10
-29.6
 20
8.16
 10
-29.6
 20
7.92
 10
-29.6
 20
7.68
 10
-29.6
 20
7.44
 10
-29.6
 20
7.2
 10
-29.6
 20
6.96
 10
-29.6
 20
6.72
 10
-29.6
 20
6.48
 10
-29.6
 20
6.24
 10
-29.6
 20
6.0
 10
-29.6
 20
5.76
 10
-29.6
 20
5.52
 10
-29.6
 20
5.28
 10
-29.6
 20
5.04
 10
-29.6
 20
4.8
 10
-29.6
 20
4.56
 10
-29.6
 20
4.32
 10
-29.6
 20
4.08
 10
-29.6
 20
3.84
 10
-29.6
 20
3.5999999999999996
 10
-29.6
 20
3.3599999999999994
 10
-29.6
 20
3.119999999999999
 10
-29.6
 20
2.880000000000001
 10
-29.6
 20
2.6400000000000006
 10
-29.6
 20
2.4000000000000004
 10
-29.6
 20
2.16
 10
-29.6
 20
1.92
 10
-29.6
 20
1.6799999999999997
 10
-29.6
 20
1.4399999999999995
 10
-29.6
 20
1.1999999999999993
 10
-29.6
 20
0.9600000000000009
 10
-29.6
 20
0.7200000000000006
 10
-29.6
 20
0.4800000000000004
 10
-29.6
 20
0.2400000000000002
 10
-29.6
 20
0.0
  0
LWPOLYLINE
  5
37
330
17
100
AcDbEntity
  8
0
100
AcDbPolyline
 90
51
 70
0
 10
-22.6
 20
16.0
 10
-23.10133293425722
 20
15.968458805257912
 10
-23.59475954865942
 20
15.874332644514524
 10
-24.072498210738715
 20
15.719105943553005
 10
-24.527014696406862
 20
15.505226720175454
 10
-24.951141009169895
 20
15.23606797749979
 10
-25.338188423714755
 20
14.915874509685647
 10
-25.682052971103158
 20
14.549695958994759
 10
-25.977311702008063
 20
14.143307179915986
 10
-26.21930820986408
 20
13.703117166260292
 10
-26.404226065180616
 20
13.23606797749979
 10
-26.529149002914757
 20
12.7495252583429
 10
-26.59210691371309
 20
12.251162078117254
 10
-26.59210691371309
 20
11.748837921882746
 10
-26.529149002914757
 20
11.2504747416571
 10
-26.404226065180616
 20
10.763932022500212
 10
-26.219308209864078
 20
10.296882833739708
 10
-25.977311702008063
 20
9.856692820084012
 10
-25.682052971103158
 20
9.450304041005241
 10
-25.338188423714758
 20
9.084125490314355
 10
-24.951141009169895
 20
8.76393202250021
 10
-24.527014696406862
 20
8.494773279824546
 10
-24.072498210738715
 20
8.280894056446995
 10
-23.59475954865942
 20
8.125667355485476
 10
-23.10133293425722
 20
8.03154119474209
 10
-22.6
 20
8.0
 10
-22.098667065742784
 20
8.031541194742088
 10
-21.605240451340585
 20
8.125667355485476
 10
-21.127501789261288
 20
8.280894056446995
 10
-20.67298530359314
 20
8.494773279824546
 10
-20.24885899083011
 20
8.763932022500208
 10
-19.86181157628525
 20
9.084125490314353
 10
-19.517947028896845
 20
9.450304041005243
 10
-19.22268829799194
 20
9.856692820084014
 10
-18.98069179013592
 20
10.296882833739712
 10
-18.795773934819387
 20
10.76393202250021
 10
-18.670850997085246
 20
11.2504747416571
 10
-18.607893086286914
 20
11.748837921882748
 10
-18.607893086286914
 20
12.251162078117252
 10
-18.670850997085246
 20
12.749525258342898
 10
-18.795773934819387
 20
13.23606797749979
 10
-18.98069179013592
 20
13.703117166260288
 10
-19.22268829799194
 20
14.143307179915986
 10
-19.51794702889684
 20
14.549695958994757
 10
-19.861811576285245
 20
14.915874509685645
 10
-20.248858990830108
 20
15.23606797749979
 10
-20.672985303593137
 20
15.505226720175452
 10
-21.12750178926129
 20
15.719105943553005
 10
-21.60524045134058
 20
15.874332644514524
 10
-22.098667065742784
 20
15.96845880525791
 10
-22.6
 20
16.0
  0
ENDSEC
  0
SECTION
  2
OBJECTS
  0
DICTIONARY
  5
A
330
0
100
AcDbDictionary
280
0
281
1
  3
ACAD_COLOR
350
B
  3
ACAD_GROUP
350
C
  3
ACAD_LAYOUT
350
D
  3
ACAD_MATERIAL
350
E
  3
ACAD_MLEADERSTYLE
350
F
  3
ACAD_MLINESTYLE
350
10
  3
ACAD_PLOTSETTINGS
350
11
  3
ACAD_PLOTSTYLENAME
350
12
  3
ACAD_SCALELIST
350
14
  3
ACAD_TABLESTYLE
350
15
  3
ACAD_VISUALSTYLE
350
16
  3
EZDXF_META
350
2D
  0
DICTIONARY
  5
B
330
A
100
AcDbDictionary
280
0
281
1
  0
DICTIONARY
  5
C
330
A
100
AcDbDictionary
280
0
281
1
  0
DICTIONARY
  5
D
330
A
100
AcDbDictionary
280
0
281
1
  3
Model
350
1A
  3
Layout1
350
1E
  0
DICTIONARY
  5
E
330
A
100
AcDbDictionary
280
0
281
1
  3
ByBlock
350
1F
  3
ByLayer
350
20
  3
Global
350
21
  0
DICTIONARY
  5
F
330
A
100
AcDbDictionary
280
0
281
1
  3
Standard
350
2C
  0
DICTIONARY
  5
10
330
A
100
AcDbDictionary
280
0
281
1
  3
Standard
350
22
  0
DICTIONARY
  5
11
330
A
100
AcDbDictionary
280
0
281
1
  0
ACDBDICTIONARYWDFLT
  5
12
330
A
100
AcDbDictionary
280
0
281
1
  3
Normal
350
13
100
AcDbDictionaryWithDefault
340
13
  0
ACDBPLACEHOLDER
  5
13
330
12
  0
DICTIONARY
  5
14
330
A
100
AcDbDictionary
280
0
281
1
  0
DICTIONARY
  5
15
330
A
100
AcDbDictionary
280
0
281
1
  0
DICTIONARY
  5
16
330
A
100
AcDbDictionary
280
0
281
1
  0
LAYOUT
  5
1A
330
D
100
AcDbPlotSettings
  1

  2
Adobe PDF
  4
A3
  6

 40
7.5
 41
20.0
 42
7.5
 43
20.0
 44
420.0
 45
297.0
 46
0.0
 47
0.0
 48
0.0
 49
0.0
140
0.0
141
0.0
142
1.0
143
1.0
 70
1024
 72
1
 73
0
 74
5
  7

 75
16
 76
0
 77
2
 78
300
147
1.0
148
0.0
149
0.0
100
AcDbLayout
  1
Model
 70
1
 71
0
 10
0.0
 20
0.0
 11
420.0
 21
297.0
 12
0.0
 22
0.0
 32
0.0
 14
1e+20
 24
1e+20
 34
1e+20
 15
-1e+20
 25
-1e+20
 35
-1e+20
146
0.0
 13
0.0
 23
0.0
 33
0.0
 16
1.0
 26
0.0
 36
0.0
 17
0.0
 27
1.0
 37
0.0
 76
1
330
17
  0
LAYOUT
  5
1E
330
D
100
AcDbPlotSettings
  1

  2
Adobe PDF
  4
A3
  6

 40
7.5
 41
20.0
 42
7.5
 43
20.0
 44
420.0
 45
297.0
 46
0.0
 47
0.0
 48
0.0
 49
0.0
140
0.0
141
0.0
142
1.0
143
1.0
 70
0
 72
1
 73
0
 74
5
  7

 75
16
 76
0
 77
2
 78
300
147
1.0
148
0.0
149
0.0
100
AcDbLayout
  1
Layout1
 70
1
 71
1
 10
0.0
 20
0.0
 11
420.0
 21
297.0
 12
0.0
 22
0.0
 32
0.0
 14
1e+20
 24
1e+20
 34
1e+20
 15
-1e+20
 25
-1e+20
 35
-1e+20
146
0.0
 13
0.0
 23
0.0
 33
0.0
 16
1.0
 26
0.0
 36
0.0
 17
0.0
 27
1.0
 37
0.0
 76
1
330
1B
  0
MATERIAL
  5
1F
102
{ACAD_REACTORS
330
E
102
}
330
E
100
AcDbMaterial
  1
ByBlock
  2

 70
0
 40
1.0
 71
1
 41
1.0
 91
-1023410177
 42
1.0
 72
1
  3

 73
1
 74
1
 75
1
 44
0.5
 73
0
 45
1.0
 46
1.0
 77
1
  4

 78
1
 79
1
170
1
 48
1.0
171
1
  6

172
1
173
1
174
1
140
1.0
141
1.0
175
1
  7

176
1
177
1
178
1
143
1.0
179
1
  8

270
1
271
1
272
1
145
1.0
146
1.0
273
1
  9

274
1
275
1
276
1
 42
1.0
 72
1
  3

 73
1
 74
1
 75
1
 94
63
  0
MATERIAL
  5
20
102
{ACAD_REACTORS
330
E
102
}
330
E
100
AcDbMaterial
  1
ByLayer
  2

 70
0
 40
1.0
 71
1
 41
1.0
 91
-1023410177
 42
1.0
 72
1
  3

 73
1
 74
1
 75
1
 44
0.5
 73
0
 45
1.0
 46
1.0
 77
1
  4

 78
1
 79
1
170
1
 48
1.0
171
1
  6

172
1
173
1
174
1
140
1.0
141
1.0
175
1
  7

176
1
177
1
178
1
143
1.0
179
1
  8

270
1
271
1
272
1
145
1.0
146
1.0
273
1
  9

274
1
275
1
276
1
 42
1.0
 72
1
  3

 73
1
 74
1
 75
1
 94
63
  0
MATERIAL
  5
21
102
{ACAD_REACTORS
330
E
102
}
330
E
100
AcDbMaterial
  1
Global
  2

 70
0
 40
1.0
 71
1
 41
1.0
 91
-1023410177
 42
1.0
 72
1
  3

 73
1
 74
1
 75
1
 44
0.5
 73
0
 45
1.0
 46
1.0
 77
1
  4

 78
1
 79
1
170
1
 48
1.0
171
1
  6

172
1
173
1
174
1
140
1.0
141
1.0
175
1
  7

176
1
177
1
178
1
143
1.0
179
1
  8

270
1
271
1
272
1
145
1.0
146
1.0
273
1
  9

274
1
275
1
276
1
 42
1.0
 72
1
  3

 73
1
 74
1
 75
1
 94
63
  0
MLINESTYLE
  5
22
102
{ACAD_REACTORS
330
10
102
}
330
10
100
AcDbMlineStyle
  2
Standard
 70
0
  3

 62
256
 51
90.0
 52
90.0
 71
2
 49
0.5
 62
256
  6
BYLAYER
 49
-0.5
 62
256
  6
BYLAYER
  0
MLEADERSTYLE
  5
2C
102
{ACAD_REACTORS
330
F
102
}
330
F
100
AcDbMLeaderStyle
179
2
170
2
171
1
172
0
 90
2
 40
0.0
 41
0.0
173
1
 91
-1056964608
 92
-2
290
1
 42
2.0
291
1
 43
8.0
  3
Standard
 44
4.0
300

342
29
174
1
175
1
176
0
178
1
 93
-1056964608
 45
4.0
292
0
297
0
 46
4.0
 94
-1056964608
 47
1.0
 49
1.0
140
1.0
294
1
141
0.0
177
0
142
1.0
295
0
296
0
143
3.75
271
0
272
9
273
9
  0
DICTIONARY
  5
2D
330
A
100
AcDbDictionary
281
1
  3
CREATED_BY_EZDXF
350
2E
  3
WRITTEN_BY_EZDXF
350
3A
  0
DICTIONARYVAR
  5
2E
330
2D
100
DictionaryVariables
280
0
  1
1.0.3 @ 2025-05-29T09:39:06.298250+00:00
  0
DICTIONARYVAR
  5
3A
330
2D
100
DictionaryVariables
280
0
  1
1.0.3 @ 2025-05-29T09:39:06.301256+00:00
  0
ENDSEC
  0
EOF
