999
DXF file: 20_1_2.dxf
999
Pro/ENGINEER 2020414 by Parametric Technology Corporation
  0
SECTION
  2
HEADER
  9
$ACADVER
  1
AC1015
  9
$DWGCODEPAGE
  3
ANSI_949
  9
$EXTMAX
 10
11.6929133858
 20
8.2677165354
 30
0.0
  9
$EXTMIN
 10
0.0
 20
-0.0
 30
0.0
  9
$LIMMIN
 10
0.0
 20
-0.0
  9
$LIMMAX
 10
11.6929133858
 20
8.2677165354
  9
$VIEWCTR
 10
5.8464566929
 20
4.1338582677
  9
$VIEWSIZE
 40
8.2677165354
  9
$CLAYER
  8
0
  9
$LTSCALE
 40
0.6431102362
  9
$CELTYPE
  6
BYLAYER
  9
$DIMSCALE
 40
1.0
  9
$DIMASZ
 40
0.1875
  9
$DIMEXO
 40
0.0625
  9
$DIMDLI
 40
0.4443307087
  9
$DIMEXE
 40
0.125
  9
$DIMCEN
 40
0.1052362205
  9
$DIMLFAC
 40
1.0
  9
$DIMBLK
  1
_CLOSED
  9
$DIMALT
 70
0
  9
$DIMALTF
 40
25.4
  9
$DIMTXT
 40
0.15625
  9
$DIMTOL
 70
0
  9
$DIMLIM
 70
0
  9
$DIMTFAC
 40
1.0
  9
$DIMGAP
 40
0.09
  9
$DIMDSEP
 70
46
  9
$AUNITS
 70
0
  9
$PDMODE
 70
3
  9
$PDSIZE
 40
0.3125
  9
$HANDSEED
  5
285
  9
$TILEMODE
 70
1
  9
$MEASUREMENT
 70
0
  9
$INSUNITS
 70
1
  0
ENDSEC
  0
SECTION
  2
CLASSES
  0
CLASS
  1
ACDBDICTIONARYWDFLT
  2
AcDbDictionaryWithDefault
  3
AutoCAD 2000
 90
0
280
0
281
0
  0
CLASS
  1
ACDBPLACEHOLDER
  2
AcDbPlaceHolder
  3
AutoCAD 2000
 90
0
280
0
281
0
  0
CLASS
  1
LAYOUT
  2
AcDbLayout
  3
AutoCAD 2000
 90
0
280
0
281
0
  0
ENDSEC
  0
SECTION
  2
TABLES
  0
TABLE
  2
VPORT
  5
8
100
AcDbSymbolTable
 70
2
  0
VPORT
  5
1F4
100
AcDbSymbolTableRecord
100
AcDbViewportTableRecord
  2
*ACTIVE
 70
0
 10
0.0
 20
0.0
 11
1.0
 21
1.0
 12
5.8464566929
 22
4.1338582677
 13
0.0
 23
0.0
 14
1.0
 24
1.0
 15
0.0
 25
0.0
 16
0.0
 26
0.0
 36
1.0
 17
0.0
 27
0.0
 37
0.0
 40
8.2677165354
 41
1.4142857143
 42
50.0
 43
0.0
 44
0.0
 50
0.0
 51
0.0
 71
0
 72
100
 73
1
 74
1
 75
0
 76
0
 77
0
 78
0
  0
ENDTAB
  0
TABLE
  2
LTYPE
  5
5
100
AcDbSymbolTable
 70
6
  0
LTYPE
  5
14
100
AcDbSymbolTableRecord
100
AcDbLinetypeTableRecord
  2
BYBLOCK
 70
0
  3

 72
65
 73
0
 40
0.0
  0
LTYPE
  5
15
100
AcDbSymbolTableRecord
100
AcDbLinetypeTableRecord
  2
BYLAYER
 70
0
  3

 72
65
 73
0
 40
0.0
  0
LTYPE
  5
16
100
AcDbSymbolTableRecord
100
AcDbLinetypeTableRecord
  2
CONTINUOUS
 70
64
  3
Solid line
 72
65
 73
0
 40
0.0
  0
LTYPE
  5
1F5
100
AcDbSymbolTableRecord
100
AcDbLinetypeTableRecord
  2
CENTER
 70
64
  3
____ _ ____ _ ____ _ ____ _ ____ _ ____ _ ____
 72
65
 73
4
 40
0.6
 49
0.375
 74
0
 49
-0.075
 74
0
 49
0.075
 74
0
 49
-0.075
 74
0
  0
LTYPE
  5
1F6
100
AcDbSymbolTableRecord
100
AcDbLinetypeTableRecord
  2
HIDDEN
 70
64
  3
- - - - - - - - - - - - - - - - - - - -
 72
65
 73
2
 40
0.2
 49
0.1
 74
0
 49
-0.1
 74
0
  0
LTYPE
  5
1F7
100
AcDbSymbolTableRecord
100
AcDbLinetypeTableRecord
  2
PHANTOM
 70
64
  3
_____ _ _ _____ _ _ _____ _ _ _____
 72
65
 73
6
 40
0.8
 49
0.45
 74
0
 49
-0.05
 74
0
 49
0.1
 74
0
 49
-0.05
 74
0
 49
0.1
 74
0
 49
-0.05
 74
0
  0
LTYPE
  5
1F8
100
AcDbSymbolTableRecord
100
AcDbLinetypeTableRecord
  2
DOT
 70
64
  3
. . . . . . . . . . . . . . . . . . . .
 72
65
 73
2
 40
0.2
 49
0.1
 74
0
 49
-0.1
 74
0
  0
LTYPE
  5
1F9
100
AcDbSymbolTableRecord
100
AcDbLinetypeTableRecord
  2
DASHED
 70
64
  3
- - - - - - - - - - - - - - - - - - - -
 72
65
 73
2
 40
0.2
 49
0.1
 74
0
 49
-0.1
 74
0
  0
ENDTAB
  0
TABLE
  2
LAYER
  5
2
100
AcDbSymbolTable
 70
36
  0
LAYER
  5
10
100
AcDbSymbolTableRecord
100
AcDbLayerTableRecord
  2
0
 70
0
 62
7
  6
CONTINUOUS
370
-3
390
F
  0
LAYER
  5
1FA
100
AcDbSymbolTableRecord
100
AcDbLayerTableRecord
  2
DEFAULT_1
 70
0
 62
7
  6
CENTER
370
-3
390
F
  0
LAYER
  5
1FB
100
AcDbSymbolTableRecord
100
AcDbLayerTableRecord
  2
DEFAULT_2
 70
0
 62
8
  6
HIDDEN
370
-3
390
F
  0
LAYER
  5
1FC
100
AcDbSymbolTableRecord
100
AcDbLayerTableRecord
  2
DEFAULT_3
 70
0
 62
7
  6
PHANTOM
370
-3
390
F
  0
ENDTAB
  0
TABLE
  2
STYLE
  5
3
100
AcDbSymbolTable
 70
1
  0
STYLE
  5
11
100
AcDbSymbolTableRecord
100
AcDbTextStyleTableRecord
  2
STANDARD
 70
0
 40
0.0
 41
0.8
 50
0.0
 71
0
 42
0.2
  3
txt
  4

  0
STYLE
  5
1FD
100
AcDbSymbolTableRecord
100
AcDbTextStyleTableRecord
  2
TEXTSTYLE_1
 70
0
 40
0.0
 41
0.8
 50
0.0
 71
0
 42
0.2
  3
gdt
  4

  0
STYLE
  5
1FE
100
AcDbSymbolTableRecord
100
AcDbTextStyleTableRecord
  2
TEXTSTYLE_2
 70
0
 40
0.0
 41
1.0
 50
0.0
 71
0
 42
0.2
  3
symbol_asme.ttf
  4

  0
ENDTAB
  0
TABLE
  2
VIEW
  5
6
100
AcDbSymbolTable
 70
0
  0
ENDTAB
  0
TABLE
  2
UCS
  5
7
100
AcDbSymbolTable
 70
0
  0
ENDTAB
  0
TABLE
  2
APPID
  5
9
100
AcDbSymbolTable
 70
1
  0
APPID
  5
1FF
100
AcDbSymbolTableRecord
100
AcDbRegAppTableRecord
  2
ACAD
 70
0
  0
ENDTAB
  0
TABLE
  2
BLOCK_RECORD
  5
1
100
AcDbSymbolTable
 70
0
  0
BLOCK_RECORD
  5
200
100
AcDbSymbolTableRecord
100
AcDbBlockTableRecord
  2
*Model_Space
  0
BLOCK_RECORD
  5
201
100
AcDbSymbolTableRecord
100
AcDbBlockTableRecord
  2
*Paper_Space
  0
BLOCK_RECORD
  5
202
100
AcDbSymbolTableRecord
100
AcDbBlockTableRecord
  2
_CLOSED
  0
BLOCK_RECORD
  5
203
100
AcDbSymbolTableRecord
100
AcDbBlockTableRecord
  2
*D0
  0
BLOCK_RECORD
  5
204
100
AcDbSymbolTableRecord
100
AcDbBlockTableRecord
  2
*D1
  0
BLOCK_RECORD
  5
205
100
AcDbSymbolTableRecord
100
AcDbBlockTableRecord
  2
*D2
  0
BLOCK_RECORD
  5
206
100
AcDbSymbolTableRecord
100
AcDbBlockTableRecord
  2
*D3
  0
BLOCK_RECORD
  5
207
100
AcDbSymbolTableRecord
100
AcDbBlockTableRecord
  2
*D4
  0
BLOCK_RECORD
  5
208
100
AcDbSymbolTableRecord
100
AcDbBlockTableRecord
  2
*D5
  0
BLOCK_RECORD
  5
209
100
AcDbSymbolTableRecord
100
AcDbBlockTableRecord
  2
*D6
  0
BLOCK_RECORD
  5
20A
100
AcDbSymbolTableRecord
100
AcDbBlockTableRecord
  2
*D7
  0
BLOCK_RECORD
  5
20B
100
AcDbSymbolTableRecord
100
AcDbBlockTableRecord
  2
*D8
  0
ENDTAB
  0
TABLE
  2
DIMSTYLE
  5
A
100
AcDbSymbolTable
 70
1
100
AcDbDimStyleTable
 71
0
  0
DIMSTYLE
105
20C
100
AcDbSymbolTableRecord
100
AcDbDimStyleTableRecord
  2
STANDARD
 70
0
  3

  4

 40
1.0
 41
0.1875
 42
0.0625
 43
0.38
 44
0.125
 45
0.0
 46
0.0
 47
0.01
 48
0.01
140
0.15625
141
0.09
142
0.0
143
25.4
144
1.0
145
0.0
146
1.0
147
0.09
 71
0
 72
0
 73
1
 74
1
 75
0
 76
0
 77
0
 78
4
 79
1
170
0
171
1
172
0
173
0
174
0
175
0
176
0
177
0
178
0
270
2
179
2
271
2
272
2
273
2
274
2
275
0
280
0
281
0
282
0
283
1
284
4
285
0
286
0
287
3
288
0
340
11
278
46
341
202
342
202
343
202
344
202
  0
DIMSTYLE
105
20D
100
AcDbSymbolTableRecord
100
AcDbDimStyleTableRecord
  2
DIMSTYLE_1
 70
0
  3
<>
  4

 40
1.0
 41
0.1875
 42
0.0625
 43
0.38
 44
0.125
 45
0.0
 46
0.0
 47
0.0
 48
0.0
140
0.15625
141
0.09
142
0.0
143
25.4
144
1.0
145
0.0
146
1.0
147
0.09
 71
0
 72
0
 73
1
 74
1
 75
0
 76
0
 77
0
 78
4
 79
1
170
0
171
1
172
1
173
0
174
0
175
0
176
0
177
0
178
0
270
2
179
2
271
2
272
2
273
2
274
2
275
0
280
0
281
0
282
0
283
1
284
4
285
0
286
0
287
3
288
1
340
11
278
46
289
2
341
202
342
202
343
202
344
202
  0
DIMSTYLE
105
20E
100
AcDbSymbolTableRecord
100
AcDbDimStyleTableRecord
  2
DIMSTYLE_2
 70
0
  3

  4

 40
1.0
 41
0.1875
 42
0.0625
 43
0.38
 44
0.125
 45
0.0
 46
0.0
 47
0.0
 48
0.0
140
0.15625
141
0.09
142
0.0
143
25.4
144
1.0
145
0.0
146
1.0
147
0.078125
 71
0
 72
0
 73
1
 74
1
 75
0
 76
0
 77
0
 78
4
 79
1
170
0
171
1
172
0
173
0
174
0
175
0
176
0
177
0
178
0
270
2
179
2
271
2
272
2
273
2
274
2
275
0
280
0
281
0
282
0
283
1
284
4
285
0
286
0
287
3
288
0
340
11
278
46
341
202
342
202
343
202
344
202
  0
DIMSTYLE
105
20F
100
AcDbSymbolTableRecord
100
AcDbDimStyleTableRecord
  2
DIMSTYLE_3
 70
0
  3
<>
  4

 40
1.0
 41
0.1875
 42
0.0625
 43
0.38
 44
0.125
 45
0.0
 46
0.0
 47
0.0
 48
0.0
140
0.15625
141
0.09
142
0.0
143
25.4
144
1.0
145
0.0
146
1.0
147
0.09
 71
0
 72
0
 73
1
 74
1
 75
0
 76
0
 77
0
 78
4
 79
1
170
0
171
1
172
0
173
0
174
0
175
0
176
0
177
0
178
0
270
2
179
2
271
2
272
2
273
2
274
2
275
0
280
0
281
0
282
0
283
1
284
4
285
0
286
0
287
3
288
0
340
11
278
46
341
202
342
202
343
202
344
202
  0
ENDTAB
  0
ENDSEC
  0
SECTION
  2
BLOCKS
  0
BLOCK
  5
20
100
AcDbEntity
  8
0
100
AcDbBlockBegin
  2
*Model_Space
 70
0
 10
0.0
 20
0.0
 30
0.0
  3
*Model_Space
  1

  0
ENDBLK
  5
21
100
AcDbEntity
  8
0
100
AcDbBlockEnd
  0
BLOCK
  5
1C
100
AcDbEntity
  8
0
100
AcDbBlockBegin
  2
*Paper_Space
 70
0
 10
0.0
 20
0.0
 30
0.0
  3
*Paper_Space
  1

  0
ENDBLK
  5
1D
100
AcDbEntity
  8
0
100
AcDbBlockEnd
  0
BLOCK
  5
210
100
AcDbEntity
  8
0
100
AcDbBlockBegin
  2
_CLOSED
 70
64
 10
0.0
 20
0.0
  3
_CLOSED
  1

  0
LINE
  5
211
100
AcDbEntity
  8
0
  6
BYBLOCK
 62
0
100
AcDbLine
 10
0.0
 20
0.0
 11
-1.0
 21
0.1666666667
  0
LINE
  5
212
100
AcDbEntity
  8
0
  6
BYBLOCK
 62
0
100
AcDbLine
 10
-1.0
 20
0.1666666667
 11
-1.0
 21
-0.1666666667
  0
LINE
  5
213
100
AcDbEntity
  8
0
  6
BYBLOCK
 62
0
100
AcDbLine
 10
-1.0
 20
-0.1666666667
 11
0.0
 21
0.0
  0
LINE
  5
214
100
AcDbEntity
  8
0
  6
BYBLOCK
 62
0
100
AcDbLine
 10
-1.0
 20
0.0
 11
0.0
 21
0.0
  0
ENDBLK
  5
215
100
AcDbEntity
  8
0
  6
BYBLOCK
 62
0
100
AcDbBlockEnd
  0
BLOCK
  5
216
100
AcDbEntity
  8
0
100
AcDbBlockBegin
 62
2
  6
CONTINUOUS
  2
*D0
 70
65
 10
0.0
 20
0.0
  3
*D0
  1

  0
MTEXT
  5
217
100
AcDbEntity
  8
0
100
AcDbMText
 62
2
  6
CONTINUOUS
  7
TEXTSTYLE_2
 71
1
 72
1
 10
4.7364913161
 20
2.5332842308
 30
0.0
 11
1.0
 21
0.0
 31
0.0
 73
2
 44
0.9
  1
?\ftxt;{\W0.8;6}
 40
0.15625
 41
0.3092948718
  0
LINE
  5
218
100
AcDbEntity
  8
0
100
AcDbLine
 62
2
  6
CONTINUOUS
 10
4.0537704448
 20
1.8096060744
 11
3.9880074076
 21
1.7114977117
  0
LINE
  5
219
100
AcDbEntity
  8
0
100
AcDbLine
 62
2
  6
CONTINUOUS
 10
3.9880074076
 20
1.7114977117
 11
4.4864913161
 21
2.4551592308
  0
LINE
  5
21A
100
AcDbEntity
  8
0
100
AcDbLine
 62
2
  6
CONTINUOUS
 10
4.4864913161
 20
2.4551592308
 11
4.6583663161
 21
2.4551592308
  0
LINE
  5
21B
100
AcDbEntity
  8
0
100
AcDbLine
 62
2
  6
CONTINUOUS
 10
3.9222443704
 20
1.6133893489
 11
3.9880074076
 21
1.7114977117
  0
INSERT
  5
21C
100
AcDbEntity
  8
0
100
AcDbBlockReference
 62
2
  6
CONTINUOUS
  2
_CLOSED
 10
4.0537704448
 20
1.8096060744
 41
0.1875
 42
0.1875
 43
0.1875
 50
56.1656495243
  0
INSERT
  5
21D
100
AcDbEntity
  8
0
100
AcDbBlockReference
 62
2
  6
CONTINUOUS
  2
_CLOSED
 10
3.9222443704
 20
1.6133893489
 41
0.1875
 42
0.1875
 43
0.1875
 50
236.1656495243
  0
ENDBLK
  5
21E
100
AcDbEntity
  8
0
  6
BYBLOCK
 62
0
100
AcDbBlockEnd
  0
BLOCK
  5
21F
100
AcDbEntity
  8
0
100
AcDbBlockBegin
 62
2
  6
CONTINUOUS
  2
*D1
 70
65
 10
0.0
 20
0.0
  3
*D1
  1

  0
MTEXT
  5
220
100
AcDbEntity
  8
0
100
AcDbMText
 62
2
  6
CONTINUOUS
  7
STANDARD
 71
2
 72
1
 10
5.4000058257
 20
1.9963156251
 30
0.0
 11
1.0
 21
0.0
 31
0.0
 73
2
 44
0.9
  1
10.5
 40
0.15625
 41
0.5
  0
LINE
  5
221
100
AcDbEntity
  8
0
100
AcDbLine
 62
2
  6
CONTINUOUS
 10
4.0505074076
 20
2.1248835385
 11
5.5250058257
 21
2.1248835385
  0
LINE
  5
222
100
AcDbEntity
  8
0
100
AcDbLine
 62
2
  6
CONTINUOUS
 10
4.0505074076
 20
1.7114977117
 11
5.5250058257
 21
1.7114977117
  0
LINE
  5
223
100
AcDbEntity
  8
0
100
AcDbLine
 62
2
  6
CONTINUOUS
 10
5.4000058257
 20
2.1248835385
 11
5.4000058257
 21
2.6248835385
  0
LINE
  5
224
100
AcDbEntity
  8
0
100
AcDbLine
 62
2
  6
CONTINUOUS
 10
5.4000058257
 20
1.7114977117
 11
5.4000058257
 21
1.2114977117
  0
INSERT
  5
225
100
AcDbEntity
  8
0
100
AcDbBlockReference
 62
2
  6
CONTINUOUS
  2
_CLOSED
 10
5.4000058257
 20
2.1248835385
 41
0.1875
 42
0.1875
 43
0.1875
 50
270.0
  0
INSERT
  5
226
100
AcDbEntity
  8
0
100
AcDbBlockReference
 62
2
  6
CONTINUOUS
  2
_CLOSED
 10
5.4000058257
 20
1.7114977117
 41
0.1875
 42
0.1875
 43
0.1875
 50
90.0
  0
ENDBLK
  5
227
100
AcDbEntity
  8
0
  6
BYBLOCK
 62
0
100
AcDbBlockEnd
  0
BLOCK
  5
228
100
AcDbEntity
  8
0
100
AcDbBlockBegin
 62
2
  6
CONTINUOUS
  2
*D2
 70
65
 10
0.0
 20
0.0
  3
*D2
  1

  0
MTEXT
  5
229
100
AcDbEntity
  8
0
100
AcDbMText
 62
2
  6
CONTINUOUS
  7
STANDARD
 71
2
 72
1
 10
3.1218656753
 20
3.6324953188
 30
0.0
 11
1.0
 21
0.0
 31
0.0
 73
2
 44
0.9
  1
44
 40
0.15625
 41
0.25
  0
LINE
  5
22A
100
AcDbEntity
  8
0
100
AcDbLine
 62
2
  6
CONTINUOUS
 10
2.255723943
 20
1.7739977117
 11
2.255723943
 21
3.6793703188
  0
LINE
  5
22B
100
AcDbEntity
  8
0
100
AcDbLine
 62
2
  6
CONTINUOUS
 10
3.9880074076
 20
1.7739977117
 11
3.9880074076
 21
3.6793703188
  0
LINE
  5
22C
100
AcDbEntity
  8
0
100
AcDbLine
 62
2
  6
CONTINUOUS
 10
2.255723943
 20
3.5543703188
 11
2.9187406753
 21
3.5543703188
  0
LINE
  5
22D
100
AcDbEntity
  8
0
100
AcDbLine
 62
2
  6
CONTINUOUS
 10
3.9880074076
 20
3.5543703188
 11
3.3249906753
 21
3.5543703188
  0
INSERT
  5
22E
100
AcDbEntity
  8
0
100
AcDbBlockReference
 62
2
  6
CONTINUOUS
  2
_CLOSED
 10
2.255723943
 20
3.5543703188
 41
0.1875
 42
0.1875
 43
0.1875
 50
180.0
  0
INSERT
  5
22F
100
AcDbEntity
  8
0
100
AcDbBlockReference
 62
2
  6
CONTINUOUS
  2
_CLOSED
 10
3.9880074076
 20
3.5543703188
 41
0.1875
 42
0.1875
 43
0.1875
  0
ENDBLK
  5
230
100
AcDbEntity
  8
0
  6
BYBLOCK
 62
0
100
AcDbBlockEnd
  0
BLOCK
  5
231
100
AcDbEntity
  8
0
100
AcDbBlockBegin
 62
2
  6
CONTINUOUS
  2
*D3
 70
65
 10
0.0
 20
0.0
  3
*D3
  1

  0
MTEXT
  5
232
100
AcDbEntity
  8
0
100
AcDbMText
 62
2
  6
CONTINUOUS
  7
STANDARD
 71
2
 72
1
 10
1.7701671818
 20
2.0652132629
 30
0.0
 11
1.0
 21
0.0
 31
0.0
 73
2
 44
0.9
  1
7
 40
0.15625
 41
0.125
  0
LINE
  5
233
100
AcDbEntity
  8
0
100
AcDbLine
 62
2
  6
CONTINUOUS
 10
2.5081845729
 20
2.1248835385
 11
1.6451671818
 21
2.1248835385
  0
LINE
  5
234
100
AcDbEntity
  8
0
100
AcDbLine
 62
2
  6
CONTINUOUS
 10
2.5081845729
 20
1.8492929873
 11
1.6451671818
 21
1.8492929873
  0
LINE
  5
235
100
AcDbEntity
  8
0
100
AcDbLine
 62
2
  6
CONTINUOUS
 10
1.7701671818
 20
2.1248835385
 11
1.7701671818
 21
2.6248835385
  0
LINE
  5
236
100
AcDbEntity
  8
0
100
AcDbLine
 62
2
  6
CONTINUOUS
 10
1.7701671818
 20
1.8492929873
 11
1.7701671818
 21
1.3492929873
  0
INSERT
  5
237
100
AcDbEntity
  8
0
100
AcDbBlockReference
 62
2
  6
CONTINUOUS
  2
_CLOSED
 10
1.7701671818
 20
2.1248835385
 41
0.1875
 42
0.1875
 43
0.1875
 50
270.0
  0
INSERT
  5
238
100
AcDbEntity
  8
0
100
AcDbBlockReference
 62
2
  6
CONTINUOUS
  2
_CLOSED
 10
1.7701671818
 20
1.8492929873
 41
0.1875
 42
0.1875
 43
0.1875
 50
90.0
  0
ENDBLK
  5
239
100
AcDbEntity
  8
0
  6
BYBLOCK
 62
0
100
AcDbBlockEnd
  0
BLOCK
  5
23A
100
AcDbEntity
  8
0
100
AcDbBlockBegin
 62
2
  6
CONTINUOUS
  2
*D4
 70
65
 10
0.0
 20
0.0
  3
*D4
  1

  0
MTEXT
  5
23B
100
AcDbEntity
  8
0
100
AcDbMText
 62
2
  6
CONTINUOUS
  7
STANDARD
 71
2
 72
1
 10
2.9643853603
 20
2.7030085385
 30
0.0
 11
1.0
 21
0.0
 31
0.0
 73
2
 44
0.9
  1
36
 40
0.15625
 41
0.25
  0
LINE
  5
23C
100
AcDbEntity
  8
0
100
AcDbLine
 62
2
  6
CONTINUOUS
 10
3.6730467777
 20
2.1873835385
 11
3.6730467777
 21
2.7498835385
  0
LINE
  5
23D
100
AcDbEntity
  8
0
100
AcDbLine
 62
2
  6
CONTINUOUS
 10
2.255723943
 20
2.1873835385
 11
2.255723943
 21
2.7498835385
  0
LINE
  5
23E
100
AcDbEntity
  8
0
100
AcDbLine
 62
2
  6
CONTINUOUS
 10
3.6730467777
 20
2.6248835385
 11
3.1675103603
 21
2.6248835385
  0
LINE
  5
23F
100
AcDbEntity
  8
0
100
AcDbLine
 62
2
  6
CONTINUOUS
 10
2.255723943
 20
2.6248835385
 11
2.7612603603
 21
2.6248835385
  0
INSERT
  5
240
100
AcDbEntity
  8
0
100
AcDbBlockReference
 62
2
  6
CONTINUOUS
  2
_CLOSED
 10
3.6730467777
 20
2.6248835385
 41
0.1875
 42
0.1875
 43
0.1875
  0
INSERT
  5
241
100
AcDbEntity
  8
0
100
AcDbBlockReference
 62
2
  6
CONTINUOUS
  2
_CLOSED
 10
2.255723943
 20
2.6248835385
 41
0.1875
 42
0.1875
 43
0.1875
 50
180.0
  0
ENDBLK
  5
242
100
AcDbEntity
  8
0
  6
BYBLOCK
 62
0
100
AcDbBlockEnd
  0
BLOCK
  5
243
100
AcDbEntity
  8
0
100
AcDbBlockBegin
 62
2
  6
CONTINUOUS
  2
*D5
 70
65
 10
0.0
 20
0.0
  3
*D5
  1

  0
MTEXT
  5
244
100
AcDbEntity
  8
0
100
AcDbMText
 62
2
  6
CONTINUOUS
  7
STANDARD
 71
2
 72
1
 10
4.5727867302
 20
0.9839877418
 30
0.0
 11
1.0
 21
0.0
 31
0.0
 73
2
 44
0.9
  1
7
 40
0.15625
 41
0.125
  0
LINE
  5
245
100
AcDbEntity
  8
0
100
AcDbLine
 62
2
  6
CONTINUOUS
 10
3.714581775
 20
2.0781813544
 11
4.7588221701
 21
0.9040315962
  0
LINE
  5
246
100
AcDbEntity
  8
0
100
AcDbLine
 62
2
  6
CONTINUOUS
 10
3.5908668621
 20
1.8025908032
 11
4.5528912798
 21
0.7208851511
  0
LINE
  5
247
100
AcDbEntity
  8
0
100
AcDbLine
 62
2
  6
CONTINUOUS
 10
4.6757521753
 20
0.9974359643
 11
5.0493696477
 21
1.3297159432
  0
LINE
  5
248
100
AcDbEntity
  8
0
100
AcDbLine
 62
2
  6
CONTINUOUS
 10
4.4698212851
 20
0.8142895192
 11
4.0962038128
 21
0.4820095403
  0
INSERT
  5
249
100
AcDbEntity
  8
0
100
AcDbBlockReference
 62
2
  6
CONTINUOUS
  2
_CLOSED
 10
4.6757521753
 20
0.9974359643
 41
0.1875
 42
0.1875
 43
0.1875
 50
221.6485754092
  0
INSERT
  5
24A
100
AcDbEntity
  8
0
100
AcDbBlockReference
 62
2
  6
CONTINUOUS
  2
_CLOSED
 10
4.4698212851
 20
0.8142895192
 41
0.1875
 42
0.1875
 43
0.1875
 50
41.6485754092
  0
ENDBLK
  5
24B
100
AcDbEntity
  8
0
  6
BYBLOCK
 62
0
100
AcDbBlockEnd
  0
BLOCK
  5
24C
100
AcDbEntity
  8
0
100
AcDbBlockBegin
 62
2
  6
CONTINUOUS
  2
*D6
 70
65
 10
0.0
 20
0.0
  3
*D6
  1

  0
MTEXT
  5
24D
100
AcDbEntity
  8
0
100
AcDbMText
 62
2
  6
CONTINUOUS
  7
STANDARD
 71
2
 72
1
 10
2.413204258
 20
1.0538545036
 30
0.0
 11
1.0
 21
0.0
 31
0.0
 73
2
 44
0.9
  1
8
 40
0.15625
 41
0.125
  0
LINE
  5
24E
100
AcDbEntity
  8
0
100
AcDbLine
 62
2
  6
CONTINUOUS
 10
2.5706845729
 20
1.5112024361
 11
2.5706845729
 21
0.8507295036
  0
LINE
  5
24F
100
AcDbEntity
  8
0
100
AcDbLine
 62
2
  6
CONTINUOUS
 10
2.255723943
 20
1.5112024361
 11
2.255723943
 21
0.8507295036
  0
LINE
  5
250
100
AcDbEntity
  8
0
100
AcDbLine
 62
2
  6
CONTINUOUS
 10
2.5706845729
 20
0.9757295036
 11
3.0706845729
 21
0.9757295036
  0
LINE
  5
251
100
AcDbEntity
  8
0
100
AcDbLine
 62
2
  6
CONTINUOUS
 10
2.255723943
 20
0.9757295036
 11
1.755723943
 21
0.9757295036
  0
INSERT
  5
252
100
AcDbEntity
  8
0
100
AcDbBlockReference
 62
2
  6
CONTINUOUS
  2
_CLOSED
 10
2.5706845729
 20
0.9757295036
 41
0.1875
 42
0.1875
 43
0.1875
 50
180.0
  0
INSERT
  5
253
100
AcDbEntity
  8
0
100
AcDbBlockReference
 62
2
  6
CONTINUOUS
  2
_CLOSED
 10
2.255723943
 20
0.9757295036
 41
0.1875
 42
0.1875
 43
0.1875
  0
ENDBLK
  5
254
100
AcDbEntity
  8
0
  6
BYBLOCK
 62
0
100
AcDbBlockEnd
  0
BLOCK
  5
255
100
AcDbEntity
  8
0
100
AcDbBlockBegin
 62
2
  6
CONTINUOUS
  2
*D7
 70
65
 10
0.0
 20
0.0
  3
*D7
  1

  0
MTEXT
  5
256
100
AcDbEntity
  8
0
100
AcDbMText
 62
2
  6
CONTINUOUS
  7
STANDARD
 71
2
 72
1
 10
1.1674469342
 20
1.9274179873
 30
0.0
 11
1.0
 21
0.0
 31
0.0
 73
2
 44
0.9
  1
14
 40
0.15625
 41
0.25
  0
LINE
  5
257
100
AcDbEntity
  8
0
100
AcDbLine
 62
2
  6
CONTINUOUS
 10
2.193223943
 20
1.5737024361
 11
1.0424469342
 21
1.5737024361
  0
LINE
  5
258
100
AcDbEntity
  8
0
100
AcDbLine
 62
2
  6
CONTINUOUS
 10
2.193223943
 20
2.1248835385
 11
1.0424469342
 21
2.1248835385
  0
LINE
  5
259
100
AcDbEntity
  8
0
100
AcDbLine
 62
2
  6
CONTINUOUS
 10
1.1674469342
 20
1.5737024361
 11
1.1674469342
 21
1.0737024361
  0
LINE
  5
25A
100
AcDbEntity
  8
0
100
AcDbLine
 62
2
  6
CONTINUOUS
 10
1.1674469342
 20
2.1248835385
 11
1.1674469342
 21
2.6248835385
  0
INSERT
  5
25B
100
AcDbEntity
  8
0
100
AcDbBlockReference
 62
2
  6
CONTINUOUS
  2
_CLOSED
 10
1.1674469342
 20
1.5737024361
 41
0.1875
 42
0.1875
 43
0.1875
 50
90.0
  0
INSERT
  5
25C
100
AcDbEntity
  8
0
100
AcDbBlockReference
 62
2
  6
CONTINUOUS
  2
_CLOSED
 10
1.1674469342
 20
2.1248835385
 41
0.1875
 42
0.1875
 43
0.1875
 50
270.0
  0
ENDBLK
  5
25D
100
AcDbEntity
  8
0
  6
BYBLOCK
 62
0
100
AcDbBlockEnd
  0
BLOCK
  5
25E
100
AcDbEntity
  8
0
100
AcDbBlockBegin
 62
2
  6
CONTINUOUS
  2
*D8
 70
65
 10
0.0
 20
0.0
  3
*D8
  1

  0
MTEXT
  5
25F
100
AcDbEntity
  8
0
100
AcDbMText
 62
2
  6
CONTINUOUS
  7
STANDARD
 71
1
 72
1
 10
5.5821417915
 20
1.0470313899
 30
0.0
 11
1.0
 21
0.0
 31
0.0
 73
2
 44
0.9
  1
R6
 40
0.15625
 41
0.25
  0
LINE
  5
260
100
AcDbEntity
  8
0
100
AcDbLine
 62
2
  6
CONTINUOUS
 10
4.1947716877
 20
1.59726705
 11
5.3321417915
 21
0.9689063899
  0
LINE
  5
261
100
AcDbEntity
  8
0
100
AcDbLine
 62
2
  6
CONTINUOUS
 10
5.3321417915
 20
0.9689063899
 11
5.5040167915
 21
0.9689063899
  0
INSERT
  5
262
100
AcDbEntity
  8
0
100
AcDbBlockReference
 62
2
  6
CONTINUOUS
  2
_CLOSED
 10
4.1947716877
 20
1.59726705
 41
0.1875
 42
0.1875
 43
0.1875
 50
151.0807515152
  0
ENDBLK
  5
263
100
AcDbEntity
  8
0
  6
BYBLOCK
 62
0
100
AcDbBlockEnd
  0
ENDSEC
  0
SECTION
  2
ENTITIES
  0
DIMENSION
  5
264
100
AcDbEntity
  8
0
100
AcDbDimension
 62
2
  6
CONTINUOUS
  2
*D0
 10
4.0537704448
 20
1.8096060744
 11
4.891138752
 21
2.4551592308
 70
163
 71
1
 72
2
 41
0.9
 42
6.0
  1
{\fSymbol_ASME;\W1.0;?}<>
  3
DIMSTYLE_1
100
AcDbDiametricDimension
 15
3.9222443704
 25
1.6133893489
  0
DIMENSION
  5
265
100
AcDbEntity
  8
0
100
AcDbDimension
 62
2
  6
CONTINUOUS
  2
*D1
 10
5.4000058257
 20
1.7114977117
 11
5.4195370706
 21
1.9181906161
 70
160
 71
2
 72
2
 41
0.9
 42
10.5
  3
DIMSTYLE_2
100
AcDbAlignedDimension
 13
3.9880074076
 23
2.1248835385
 14
3.9880074076
 24
1.7114977117
 50
270.0
100
AcDbRotatedDimension
  0
DIMENSION
  5
266
100
AcDbEntity
  8
0
100
AcDbDimension
 62
2
  6
CONTINUOUS
  2
*D2
 10
3.9880074076
 20
3.5543703188
 11
3.125771816
 21
3.5543703551
 70
160
 71
2
 72
2
 41
0.9
 42
44.0
  3
DIMSTYLE_2
100
AcDbAlignedDimension
 13
2.255723943
 23
1.7114977117
 14
3.9880074076
 24
1.7114977117
100
AcDbRotatedDimension
  0
DIMENSION
  5
267
100
AcDbEntity
  8
0
100
AcDbDimension
 62
2
  6
CONTINUOUS
  2
*D3
 10
1.7701671818
 20
1.8492929873
 11
1.7701671342
 21
1.9870881857
 70
160
 71
2
 72
2
 41
0.9
 42
7.0
  3
DIMSTYLE_2
100
AcDbAlignedDimension
 13
2.5706845729
 23
2.1248835385
 14
2.5706845729
 24
1.8492929873
 50
270.0
100
AcDbRotatedDimension
  0
DIMENSION
  5
268
100
AcDbEntity
  8
0
100
AcDbDimension
 62
2
  6
CONTINUOUS
  2
*D4
 10
2.255723943
 20
2.6248835385
 11
2.9643853997
 21
2.6248836559
 70
160
 71
2
 72
2
 41
0.9
 42
36.0
  3
DIMSTYLE_2
100
AcDbAlignedDimension
 13
3.6730467777
 23
2.1248835385
 14
2.255723943
 24
2.1248835385
 50
180.0
100
AcDbRotatedDimension
  0
DIMENSION
  5
269
100
AcDbEntity
  8
0
100
AcDbDimension
 62
2
  6
CONTINUOUS
  2
*D5
 10
4.4698212851
 20
0.8142895192
 11
4.5727867974
 21
0.9058626695
 70
160
 71
2
 72
2
 41
0.9
 42
7.0
  3
DIMSTYLE_2
100
AcDbAlignedDimension
 13
3.6730467777
 23
2.1248835385
 14
3.5493318647
 24
1.8492929873
 50
221.6485754092
100
AcDbRotatedDimension
  0
DIMENSION
  5
26A
100
AcDbEntity
  8
0
100
AcDbDimension
 62
2
  6
CONTINUOUS
  2
*D6
 10
2.255723943
 20
0.9757295036
 11
2.4132042183
 21
0.9757295041
 70
160
 71
2
 72
2
 41
0.9
 42
8.0
  3
DIMSTYLE_2
100
AcDbAlignedDimension
 13
2.5706845729
 23
1.5737024361
 14
2.255723943
 24
1.5737024361
 50
180.0
100
AcDbRotatedDimension
  0
DIMENSION
  5
26B
100
AcDbEntity
  8
0
100
AcDbDimension
 62
2
  6
CONTINUOUS
  2
*D7
 10
1.1674469342
 20
2.1248835385
 11
1.1869781725
 21
1.8492930465
 70
160
 71
2
 72
2
 41
0.9
 42
14.0
  3
DIMSTYLE_2
100
AcDbAlignedDimension
 13
2.255723943
 23
1.5737024361
 14
2.255723943
 24
2.1248835385
 50
90.0
100
AcDbRotatedDimension
  0
DIMENSION
  5
26C
100
AcDbEntity
  8
0
100
AcDbDimension
 62
2
  6
CONTINUOUS
  2
*D8
 10
3.9880074076
 20
1.7114977117
 11
5.7071417915
 21
0.9689063899
 70
164
 71
1
 72
2
 41
0.9
 42
6.0
  1
R<>
  3
DIMSTYLE_3
100
AcDbRadialDimension
 15
4.1947716877
 25
1.59726705
  0
LINE
  5
26D
100
AcDbEntity
  8
0
100
AcDbLine
 62
7
  6
CONTINUOUS
 10
0.0
 20
-0.0
 11
0.0
 21
8.2677165354
  0
LINE
  5
26E
100
AcDbEntity
  8
0
100
AcDbLine
 62
7
  6
CONTINUOUS
 10
0.0
 20
-0.0
 11
11.6929133858
 21
-0.0
  0
LINE
  5
26F
100
AcDbEntity
  8
0
100
AcDbLine
 62
7
  6
CONTINUOUS
 10
0.0
 20
8.2677165354
 11
11.6929133858
 21
8.2677165354
  0
LINE
  5
270
100
AcDbEntity
  8
0
100
AcDbLine
 62
7
  6
CONTINUOUS
 10
11.6929133858
 20
-0.0
 11
11.6929133858
 21
8.2677165354
  0
LINE
  5
271
100
AcDbEntity
  8
0
100
AcDbLine
 62
9
  6
CONTINUOUS
 10
2.2381845729
 20
2.1368131645
 11
2.2381845729
 21
1.463218183
  0
LINE
  5
272
100
AcDbEntity
  8
0
100
AcDbLine
 62
7
  6
CONTINUOUS
 10
2.255723943
 20
2.1248835385
 11
2.255723943
 21
1.5737024361
  0
LINE
  5
273
100
AcDbEntity
  8
0
100
AcDbLine
 62
7
  6
CONTINUOUS
 10
2.2732633131
 20
2.1368131645
 11
2.2732633131
 21
1.463218183
  0
LINE
  5
274
100
AcDbEntity
  8
0
100
AcDbLine
 62
7
  6
CONTINUOUS
 10
2.5706845729
 20
1.8492929873
 11
2.5706845729
 21
1.5737024361
  0
LINE
  5
275
100
AcDbEntity
  8
0
100
AcDbLine
 62
7
  6
CONTINUOUS
 10
2.8659601635
 20
2.1248835385
 11
2.8659601635
 21
1.8492929873
  0
LINE
  5
276
100
AcDbEntity
  8
0
100
AcDbLine
 62
7
  6
CONTINUOUS
 10
2.994403581
 20
2.1248835385
 11
2.994403581
 21
1.8492929873
  0
LINE
  5
277
100
AcDbEntity
  8
0
100
AcDbLine
 62
7
  6
CONTINUOUS
 10
2.5706845729
 20
1.5737024361
 11
2.255723943
 21
1.5737024361
  0
LINE
  5
278
100
AcDbEntity
  8
0
100
AcDbLine
 62
7
  6
CONTINUOUS
 10
3.0431255178
 20
2.1248835385
 11
3.0431255178
 21
1.8492929873
  0
LINE
  5
279
100
AcDbEntity
  8
0
100
AcDbLine
 62
7
  6
CONTINUOUS
 10
3.5493318647
 20
1.8492929873
 11
2.255723943
 21
1.8492929873
  0
LINE
  5
27A
100
AcDbEntity
  8
0
100
AcDbLine
 62
7
  6
CONTINUOUS
 10
3.3580861477
 20
2.1248835385
 11
3.3580861477
 21
1.8492929873
  0
LINE
  5
27B
100
AcDbEntity
  8
0
100
AcDbLine
 62
7
  6
CONTINUOUS
 10
3.9880074076
 20
1.9477181841
 11
3.8306103408
 21
1.9477181841
  0
LINE
  5
27C
100
AcDbEntity
  8
0
100
AcDbLine
 62
7
  6
CONTINUOUS
 10
3.5493318647
 20
1.8492929873
 11
3.8114952159
 21
1.5545150445
  0
LINE
  5
27D
100
AcDbEntity
  8
0
100
AcDbLine
 62
9
  6
CONTINUOUS
 10
4.236277404
 20
2.1073441684
 11
2.243794317
 21
2.1073441684
  0
LINE
  5
27E
100
AcDbEntity
  8
0
100
AcDbLine
 62
7
  6
CONTINUOUS
 10
3.6730467777
 20
2.1248835385
 11
2.255723943
 21
2.1248835385
  0
LINE
  5
27F
100
AcDbEntity
  8
0
100
AcDbLine
 62
7
  6
CONTINUOUS
 10
4.236277404
 20
2.1424229085
 11
2.243794317
 21
2.1424229085
  0
LINE
  5
280
100
AcDbEntity
  8
0
100
AcDbLine
 62
7
  6
CONTINUOUS
 10
3.8306103408
 20
1.9477181841
 11
3.6730467777
 21
2.1248835385
  0
ARC
  5
281
100
AcDbEntity
  8
0
100
AcDbCircle
 62
7
  6
CONTINUOUS
 10
3.9880074076
 20
1.7114977117
 40
0.2362204724
100
AcDbArc
 50
221.6485754092
 51
90.0
  0
CIRCLE
  5
282
100
AcDbEntity
  8
0
100
AcDbCircle
 62
7
  6
CONTINUOUS
 10
3.9880074076
 20
1.7114977117
 40
0.1181102362
  0
ENDSEC
  0
SECTION
  2
OBJECTS
  0
DICTIONARY
  5
C
100
AcDbDictionary
280
0
281
1
  3
ACAD_GROUP
350
D
  3
ACAD_MLINESTYLE
350
17
  3
ACAD_LAYOUT
350
1A
  3
ACAD_PLOTSETTINGS
350
19
  3
ACAD_PLOTSTYLENAME
350
E
  0
DICTIONARY
  5
D
102
{ACAD_REACTORS
330
C
102
}
100
AcDbDictionary
280
0
281
1
  0
ACDBDICTIONARYWDFLT
  5
E
102
{ACAD_REACTORS
330
C
102
}
100
AcDbDictionary
281
1
  3
Normal
350
F
100
AcDbDictionaryWithDefault
340
F
  0
DICTIONARY
  5
17
102
{ACAD_REACTORS
330
C
102
}
100
AcDbDictionary
280
0
281
1
  3
Standard
350
18
  0
DICTIONARY
  5
19
102
{ACAD_REACTORS
330
C
102
}
100
AcDbDictionary
281
1
  0
DICTIONARY
  5
1A
102
{ACAD_REACTORS
330
C
102
}
100
AcDbDictionary
281
1
  3
Model
350
283
  3
Layout1
350
284
  0
ACDBPLACEHOLDER
  5
F
102
{ACAD_REACTORS
330
E
102
}
  0
MLINESTYLE
  5
18
102
{ACAD_REACTORS
330
17
102
}
100
AcDbMlineStyle
  2
STANDARD
 70
0
  3

 62
256
 51
90.0
 52
90.0
 71
2
 49
0.5
 62
256
  6
BYLAYER
 49
-0.5
 62
256
  6
BYLAYER
  0
LAYOUT
  5
283
102
{ACAD_REACTORS
330
1A
102
}
100
AcDbPlotSettings
  1

  2
none_device
  4
ISO_A4_(297.00_x_210.00_MM)
  6

 40
0.0
 41
0.0
 42
0.0
 43
0.0
 44
297.0
 45
210.0
 46
0.0
 47
0.0
 48
0.0
 49
0.0
140
0.0
141
0.0
142
1.0
143
1.0
 70
1024
 72
0
 73
0
 74
0
  7

 75
0
147
1.0
148
0.0
149
0.0
100
AcDbLayout
  1
Model
 70
0
 71
0
 10
0.0
 20
0.0
 11
11.6929133858
 21
8.2677165354
 12
0.0
 22
0.0
 32
0.0
 14
0.0
 24
0.0
 34
0.0
 15
0.0
 25
0.0
 35
0.0
146
0.0
 13
0.0
 23
0.0
 33
0.0
 16
1.0
 26
0.0
 36
0.0
 17
0.0
 27
1.0
 37
0.0
 76
0
330
200
345
0
346
0
  0
LAYOUT
  5
284
102
{ACAD_REACTORS
330
1A
102
}
100
AcDbPlotSettings
  1

  2
none_device
  4
ISO_A4_(297.00_x_210.00_MM)
  6

 40
0.0
 41
0.0
 42
0.0
 43
0.0
 44
297.0
 45
210.0
 46
0.0
 47
0.0
 48
0.0
 49
0.0
140
0.0
141
0.0
142
1.0
143
1.0
 70
0
 72
0
 73
0
 74
0
  7

 75
0
147
1.0
148
0.0
149
0.0
100
AcDbLayout
  1
Layout1
 70
0
 71
1
 10
0.0
 20
0.0
 11
11.6929133858
 21
8.2677165354
 12
0.0
 22
0.0
 32
0.0
 14
0.0
 24
0.0
 34
0.0
 15
0.0
 25
0.0
 35
0.0
146
0.0
 13
0.0
 23
0.0
 33
0.0
 16
1.0
 26
0.0
 36
0.0
 17
0.0
 27
1.0
 37
0.0
 76
0
330
201
345
0
346
0
  0
ENDSEC
  0
EOF
