999
DXF file: 22_2_2.dxf
999
Pro/ENGINEER 2020414 by Parametric Technology Corporation
  0
SECTION
  2
HEADER
  9
$ACADVER
  1
AC1015
  9
$DWGCODEPAGE
  3
ANSI_949
  9
$EXTMAX
 10
11.6929133858
 20
8.2677165354
 30
0.0
  9
$EXTMIN
 10
0.0
 20
-0.0
 30
0.0
  9
$LIMMIN
 10
0.0
 20
-0.0
  9
$LIMMAX
 10
11.6929133858
 20
8.2677165354
  9
$VIEWCTR
 10
5.8464566929
 20
4.1338582677
  9
$VIEWSIZE
 40
8.2677165354
  9
$CLAYER
  8
0
  9
$LTSCALE
 40
0.6431102362
  9
$CELTYPE
  6
BYLAYER
  9
$DIMSCALE
 40
1.0
  9
$DIMASZ
 40
0.1875
  9
$DIMEXO
 40
0.0625
  9
$DIMDLI
 40
0.4443307087
  9
$DIMEXE
 40
0.125
  9
$DIMCEN
 40
0.1052362205
  9
$DIMLFAC
 40
1.0
  9
$DIMBLK
  1
_CLOSED
  9
$DIMALT
 70
0
  9
$DIMALTF
 40
25.4
  9
$DIMTXT
 40
0.15625
  9
$DIMTOL
 70
0
  9
$DIMLIM
 70
0
  9
$DIMTFAC
 40
1.0
  9
$DIMGAP
 40
0.09
  9
$DIMDSEP
 70
46
  9
$AUNITS
 70
0
  9
$PDMODE
 70
3
  9
$PDSIZE
 40
0.3125
  9
$HANDSEED
  5
256
  9
$TILEMODE
 70
1
  9
$MEASUREMENT
 70
0
  9
$INSUNITS
 70
1
  0
ENDSEC
  0
SECTION
  2
CLASSES
  0
CLASS
  1
ACDBDICTIONARYWDFLT
  2
AcDbDictionaryWithDefault
  3
AutoCAD 2000
 90
0
280
0
281
0
  0
CLASS
  1
ACDBPLACEHOLDER
  2
AcDbPlaceHolder
  3
AutoCAD 2000
 90
0
280
0
281
0
  0
CLASS
  1
LAYOUT
  2
AcDbLayout
  3
AutoCAD 2000
 90
0
280
0
281
0
  0
ENDSEC
  0
SECTION
  2
TABLES
  0
TABLE
  2
VPORT
  5
8
100
AcDbSymbolTable
 70
2
  0
VPORT
  5
1F4
100
AcDbSymbolTableRecord
100
AcDbViewportTableRecord
  2
*ACTIVE
 70
0
 10
0.0
 20
0.0
 11
1.0
 21
1.0
 12
5.8464566929
 22
4.1338582677
 13
0.0
 23
0.0
 14
1.0
 24
1.0
 15
0.0
 25
0.0
 16
0.0
 26
0.0
 36
1.0
 17
0.0
 27
0.0
 37
0.0
 40
8.2677165354
 41
1.4142857143
 42
50.0
 43
0.0
 44
0.0
 50
0.0
 51
0.0
 71
0
 72
100
 73
1
 74
1
 75
0
 76
0
 77
0
 78
0
  0
ENDTAB
  0
TABLE
  2
LTYPE
  5
5
100
AcDbSymbolTable
 70
6
  0
LTYPE
  5
14
100
AcDbSymbolTableRecord
100
AcDbLinetypeTableRecord
  2
BYBLOCK
 70
0
  3

 72
65
 73
0
 40
0.0
  0
LTYPE
  5
15
100
AcDbSymbolTableRecord
100
AcDbLinetypeTableRecord
  2
BYLAYER
 70
0
  3

 72
65
 73
0
 40
0.0
  0
LTYPE
  5
16
100
AcDbSymbolTableRecord
100
AcDbLinetypeTableRecord
  2
CONTINUOUS
 70
64
  3
Solid line
 72
65
 73
0
 40
0.0
  0
LTYPE
  5
1F5
100
AcDbSymbolTableRecord
100
AcDbLinetypeTableRecord
  2
CENTER
 70
64
  3
____ _ ____ _ ____ _ ____ _ ____ _ ____ _ ____
 72
65
 73
4
 40
0.6
 49
0.375
 74
0
 49
-0.075
 74
0
 49
0.075
 74
0
 49
-0.075
 74
0
  0
LTYPE
  5
1F6
100
AcDbSymbolTableRecord
100
AcDbLinetypeTableRecord
  2
HIDDEN
 70
64
  3
- - - - - - - - - - - - - - - - - - - -
 72
65
 73
2
 40
0.2
 49
0.1
 74
0
 49
-0.1
 74
0
  0
LTYPE
  5
1F7
100
AcDbSymbolTableRecord
100
AcDbLinetypeTableRecord
  2
PHANTOM
 70
64
  3
_____ _ _ _____ _ _ _____ _ _ _____
 72
65
 73
6
 40
0.8
 49
0.45
 74
0
 49
-0.05
 74
0
 49
0.1
 74
0
 49
-0.05
 74
0
 49
0.1
 74
0
 49
-0.05
 74
0
  0
LTYPE
  5
1F8
100
AcDbSymbolTableRecord
100
AcDbLinetypeTableRecord
  2
DOT
 70
64
  3
. . . . . . . . . . . . . . . . . . . .
 72
65
 73
2
 40
0.2
 49
0.1
 74
0
 49
-0.1
 74
0
  0
LTYPE
  5
1F9
100
AcDbSymbolTableRecord
100
AcDbLinetypeTableRecord
  2
DASHED
 70
64
  3
- - - - - - - - - - - - - - - - - - - -
 72
65
 73
2
 40
0.2
 49
0.1
 74
0
 49
-0.1
 74
0
  0
ENDTAB
  0
TABLE
  2
LAYER
  5
2
100
AcDbSymbolTable
 70
36
  0
LAYER
  5
10
100
AcDbSymbolTableRecord
100
AcDbLayerTableRecord
  2
0
 70
0
 62
7
  6
CONTINUOUS
370
-3
390
F
  0
LAYER
  5
1FA
100
AcDbSymbolTableRecord
100
AcDbLayerTableRecord
  2
DEFAULT_1
 70
0
 62
7
  6
CENTER
370
-3
390
F
  0
LAYER
  5
1FB
100
AcDbSymbolTableRecord
100
AcDbLayerTableRecord
  2
DEFAULT_2
 70
0
 62
8
  6
HIDDEN
370
-3
390
F
  0
LAYER
  5
1FC
100
AcDbSymbolTableRecord
100
AcDbLayerTableRecord
  2
DEFAULT_3
 70
0
 62
7
  6
PHANTOM
370
-3
390
F
  0
ENDTAB
  0
TABLE
  2
STYLE
  5
3
100
AcDbSymbolTable
 70
1
  0
STYLE
  5
11
100
AcDbSymbolTableRecord
100
AcDbTextStyleTableRecord
  2
STANDARD
 70
0
 40
0.0
 41
0.8
 50
0.0
 71
0
 42
0.2
  3
txt
  4

  0
STYLE
  5
1FD
100
AcDbSymbolTableRecord
100
AcDbTextStyleTableRecord
  2
TEXTSTYLE_1
 70
0
 40
0.0
 41
0.8
 50
0.0
 71
0
 42
0.2
  3
gdt
  4

  0
ENDTAB
  0
TABLE
  2
VIEW
  5
6
100
AcDbSymbolTable
 70
0
  0
ENDTAB
  0
TABLE
  2
UCS
  5
7
100
AcDbSymbolTable
 70
0
  0
ENDTAB
  0
TABLE
  2
APPID
  5
9
100
AcDbSymbolTable
 70
1
  0
APPID
  5
1FE
100
AcDbSymbolTableRecord
100
AcDbRegAppTableRecord
  2
ACAD
 70
0
  0
ENDTAB
  0
TABLE
  2
BLOCK_RECORD
  5
1
100
AcDbSymbolTable
 70
0
  0
BLOCK_RECORD
  5
1FF
100
AcDbSymbolTableRecord
100
AcDbBlockTableRecord
  2
*Model_Space
  0
BLOCK_RECORD
  5
200
100
AcDbSymbolTableRecord
100
AcDbBlockTableRecord
  2
*Paper_Space
  0
BLOCK_RECORD
  5
201
100
AcDbSymbolTableRecord
100
AcDbBlockTableRecord
  2
_CLOSED
  0
BLOCK_RECORD
  5
202
100
AcDbSymbolTableRecord
100
AcDbBlockTableRecord
  2
*D0
  0
BLOCK_RECORD
  5
203
100
AcDbSymbolTableRecord
100
AcDbBlockTableRecord
  2
*D1
  0
BLOCK_RECORD
  5
204
100
AcDbSymbolTableRecord
100
AcDbBlockTableRecord
  2
*D2
  0
BLOCK_RECORD
  5
205
100
AcDbSymbolTableRecord
100
AcDbBlockTableRecord
  2
*D3
  0
BLOCK_RECORD
  5
206
100
AcDbSymbolTableRecord
100
AcDbBlockTableRecord
  2
*D4
  0
BLOCK_RECORD
  5
207
100
AcDbSymbolTableRecord
100
AcDbBlockTableRecord
  2
*D5
  0
ENDTAB
  0
TABLE
  2
DIMSTYLE
  5
A
100
AcDbSymbolTable
 70
1
100
AcDbDimStyleTable
 71
0
  0
DIMSTYLE
105
208
100
AcDbSymbolTableRecord
100
AcDbDimStyleTableRecord
  2
STANDARD
 70
0
  3

  4

 40
1.0
 41
0.1875
 42
0.0625
 43
0.38
 44
0.125
 45
0.0
 46
0.0
 47
0.01
 48
0.01
140
0.15625
141
0.09
142
0.0
143
25.4
144
1.0
145
0.0
146
1.0
147
0.09
 71
0
 72
0
 73
1
 74
1
 75
0
 76
0
 77
0
 78
4
 79
1
170
0
171
1
172
0
173
0
174
0
175
0
176
0
177
0
178
0
270
2
179
2
271
2
272
2
273
2
274
2
275
0
280
0
281
0
282
0
283
1
284
4
285
0
286
0
287
3
288
0
340
11
278
46
341
201
342
201
343
201
344
201
  0
DIMSTYLE
105
209
100
AcDbSymbolTableRecord
100
AcDbDimStyleTableRecord
  2
DIMSTYLE_1
 70
0
  3

  4

 40
1.0
 41
0.1875
 42
0.0625
 43
0.38
 44
0.125
 45
0.0
 46
0.0
 47
0.0
 48
0.0
140
0.15625
141
0.09
142
0.0
143
25.4
144
1.0
145
0.0
146
1.0
147
0.078125
 71
0
 72
0
 73
1
 74
1
 75
0
 76
0
 77
0
 78
4
 79
1
170
0
171
1
172
0
173
0
174
0
175
0
176
0
177
0
178
0
270
2
179
2
271
2
272
2
273
2
274
2
275
0
280
0
281
0
282
0
283
1
284
4
285
0
286
0
287
3
288
0
340
11
278
46
341
201
342
201
343
201
344
201
  0
DIMSTYLE
105
20A
100
AcDbSymbolTableRecord
100
AcDbDimStyleTableRecord
  2
DIMSTYLE_2
 70
0
  3
<>
  4

 40
1.0
 41
0.1875
 42
0.0625
 43
0.38
 44
0.125
 45
0.0
 46
0.0
 47
0.0
 48
0.0
140
0.15625
141
0.09
142
0.0
143
25.4
144
1.0
145
0.0
146
1.0
147
0.09
 71
0
 72
0
 73
1
 74
1
 75
0
 76
0
 77
0
 78
4
 79
1
170
0
171
1
172
0
173
0
174
0
175
0
176
0
177
0
178
0
270
2
179
2
271
2
272
2
273
2
274
2
275
0
280
0
281
0
282
0
283
1
284
4
285
0
286
0
287
3
288
0
340
11
278
46
341
201
342
201
343
201
344
201
  0
ENDTAB
  0
ENDSEC
  0
SECTION
  2
BLOCKS
  0
BLOCK
  5
20
100
AcDbEntity
  8
0
100
AcDbBlockBegin
  2
*Model_Space
 70
0
 10
0.0
 20
0.0
 30
0.0
  3
*Model_Space
  1

  0
ENDBLK
  5
21
100
AcDbEntity
  8
0
100
AcDbBlockEnd
  0
BLOCK
  5
1C
100
AcDbEntity
  8
0
100
AcDbBlockBegin
  2
*Paper_Space
 70
0
 10
0.0
 20
0.0
 30
0.0
  3
*Paper_Space
  1

  0
ENDBLK
  5
1D
100
AcDbEntity
  8
0
100
AcDbBlockEnd
  0
BLOCK
  5
20B
100
AcDbEntity
  8
0
100
AcDbBlockBegin
  2
_CLOSED
 70
64
 10
0.0
 20
0.0
  3
_CLOSED
  1

  0
LINE
  5
20C
100
AcDbEntity
  8
0
  6
BYBLOCK
 62
0
100
AcDbLine
 10
0.0
 20
0.0
 11
-1.0
 21
0.1666666667
  0
LINE
  5
20D
100
AcDbEntity
  8
0
  6
BYBLOCK
 62
0
100
AcDbLine
 10
-1.0
 20
0.1666666667
 11
-1.0
 21
-0.1666666667
  0
LINE
  5
20E
100
AcDbEntity
  8
0
  6
BYBLOCK
 62
0
100
AcDbLine
 10
-1.0
 20
-0.1666666667
 11
0.0
 21
0.0
  0
LINE
  5
20F
100
AcDbEntity
  8
0
  6
BYBLOCK
 62
0
100
AcDbLine
 10
-1.0
 20
0.0
 11
0.0
 21
0.0
  0
ENDBLK
  5
210
100
AcDbEntity
  8
0
  6
BYBLOCK
 62
0
100
AcDbBlockEnd
  0
BLOCK
  5
211
100
AcDbEntity
  8
0
100
AcDbBlockBegin
 62
2
  6
CONTINUOUS
  2
*D0
 70
65
 10
0.0
 20
0.0
  3
*D0
  1

  0
MTEXT
  5
212
100
AcDbEntity
  8
0
100
AcDbMText
 62
2
  6
CONTINUOUS
  7
STANDARD
 71
1
 72
1
 10
5.3620105761
 20
6.9298189935
 30
0.0
 11
1.0
 21
0.0
 31
0.0
 73
2
 44
0.9
  1
8
 40
0.15625
 41
0.125
  0
LINE
  5
213
100
AcDbEntity
  8
0
100
AcDbLine
 62
2
  6
CONTINUOUS
 10
5.2935925197
 20
5.6445913662
 11
5.2935925197
 21
6.9766939935
  0
LINE
  5
214
100
AcDbEntity
  8
0
100
AcDbLine
 62
2
  6
CONTINUOUS
 10
4.9786318898
 20
5.6445913662
 11
4.9786318898
 21
6.9766939935
  0
LINE
  5
215
100
AcDbEntity
  8
0
100
AcDbLine
 62
2
  6
CONTINUOUS
 10
4.9786318898
 20
6.8516939935
 11
4.4786318898
 21
6.8516939935
  0
INSERT
  5
216
100
AcDbEntity
  8
0
100
AcDbBlockReference
 62
2
  6
CONTINUOUS
  2
_CLOSED
 10
5.2935925197
 20
6.8516939935
 41
0.1875
 42
0.1875
 43
0.1875
  0
INSERT
  5
217
100
AcDbEntity
  8
0
100
AcDbBlockReference
 62
2
  6
CONTINUOUS
  2
_CLOSED
 10
4.9786318898
 20
6.8516939935
 41
0.1875
 42
0.1875
 43
0.1875
  0
ENDBLK
  5
218
100
AcDbEntity
  8
0
  6
BYBLOCK
 62
0
100
AcDbBlockEnd
  0
BLOCK
  5
219
100
AcDbEntity
  8
0
100
AcDbBlockBegin
 62
2
  6
CONTINUOUS
  2
*D1
 70
65
 10
0.0
 20
0.0
  3
*D1
  1

  0
MTEXT
  5
21A
100
AcDbEntity
  8
0
100
AcDbMText
 62
2
  6
CONTINUOUS
  7
STANDARD
 71
1
 72
1
 10
5.3861122047
 20
5.1519486497
 30
0.0
 11
1.0
 21
0.0
 31
0.0
 73
2
 44
0.9
  1
R4
 40
0.15625
 41
0.25
  0
LINE
  5
21B
100
AcDbEntity
  8
0
100
AcDbLine
 62
2
  6
CONTINUOUS
 10
5.1361122047
 20
5.4246110513
 11
5.1361122047
 21
5.0738236497
  0
LINE
  5
21C
100
AcDbEntity
  8
0
100
AcDbLine
 62
2
  6
CONTINUOUS
 10
5.1361122047
 20
5.0738236497
 11
5.3079872047
 21
5.0738236497
  0
INSERT
  5
21D
100
AcDbEntity
  8
0
100
AcDbBlockReference
 62
2
  6
CONTINUOUS
  2
_CLOSED
 10
5.1361122047
 20
5.4246110513
 41
0.1875
 42
0.1875
 43
0.1875
 50
90.0
  0
ENDBLK
  5
21E
100
AcDbEntity
  8
0
  6
BYBLOCK
 62
0
100
AcDbBlockEnd
  0
BLOCK
  5
21F
100
AcDbEntity
  8
0
100
AcDbBlockBegin
 62
2
  6
CONTINUOUS
  2
*D2
 70
65
 10
0.0
 20
0.0
  3
*D2
  1

  0
MTEXT
  5
220
100
AcDbEntity
  8
0
100
AcDbMText
 62
2
  6
CONTINUOUS
  7
STANDARD
 71
2
 72
1
 10
6.1290706154
 20
6.3585578343
 30
0.0
 11
1.0
 21
0.0
 31
0.0
 73
2
 44
0.9
  1
8
 40
0.15625
 41
0.125
  0
LINE
  5
221
100
AcDbEntity
  8
0
100
AcDbLine
 62
2
  6
CONTINUOUS
 10
5.3560925197
 20
6.0939023898
 11
6.2540706154
 21
6.0939023898
  0
LINE
  5
222
100
AcDbEntity
  8
0
100
AcDbLine
 62
2
  6
CONTINUOUS
 10
5.3560925197
 20
6.4088630198
 11
6.2540706154
 21
6.4088630198
  0
LINE
  5
223
100
AcDbEntity
  8
0
100
AcDbLine
 62
2
  6
CONTINUOUS
 10
6.1290706154
 20
6.0939023898
 11
6.1290706154
 21
5.5939023898
  0
LINE
  5
224
100
AcDbEntity
  8
0
100
AcDbLine
 62
2
  6
CONTINUOUS
 10
6.1290706154
 20
6.4088630198
 11
6.1290706154
 21
6.9088630198
  0
INSERT
  5
225
100
AcDbEntity
  8
0
100
AcDbBlockReference
 62
2
  6
CONTINUOUS
  2
_CLOSED
 10
6.1290706154
 20
6.0939023898
 41
0.1875
 42
0.1875
 43
0.1875
 50
90.0
  0
INSERT
  5
226
100
AcDbEntity
  8
0
100
AcDbBlockReference
 62
2
  6
CONTINUOUS
  2
_CLOSED
 10
6.1290706154
 20
6.4088630198
 41
0.1875
 42
0.1875
 43
0.1875
 50
270.0
  0
ENDBLK
  5
227
100
AcDbEntity
  8
0
  6
BYBLOCK
 62
0
100
AcDbBlockEnd
  0
BLOCK
  5
228
100
AcDbEntity
  8
0
100
AcDbBlockBegin
 62
2
  6
CONTINUOUS
  2
*D3
 70
65
 10
0.0
 20
0.0
  3
*D3
  1

  0
MTEXT
  5
229
100
AcDbEntity
  8
0
100
AcDbMText
 62
2
  6
CONTINUOUS
  7
STANDARD
 71
2
 72
1
 10
4.353258418
 20
6.0448100962
 30
0.0
 11
1.0
 21
0.0
 31
0.0
 73
2
 44
0.9
  1
25
 40
0.15625
 41
0.25
  0
LINE
  5
22A
100
AcDbEntity
  8
0
100
AcDbLine
 62
2
  6
CONTINUOUS
 10
4.9161318898
 20
6.4088630198
 11
4.228258418
 21
6.4088630198
  0
LINE
  5
22B
100
AcDbEntity
  8
0
100
AcDbLine
 62
2
  6
CONTINUOUS
 10
5.0736122047
 20
5.4246110513
 11
4.228258418
 21
5.4246110513
  0
LINE
  5
22C
100
AcDbEntity
  8
0
100
AcDbLine
 62
2
  6
CONTINUOUS
 10
4.353258418
 20
6.4088630198
 11
4.353258418
 21
6.1229350962
  0
LINE
  5
22D
100
AcDbEntity
  8
0
100
AcDbLine
 62
2
  6
CONTINUOUS
 10
4.353258418
 20
5.4246110513
 11
4.353258418
 21
5.8104350962
  0
INSERT
  5
22E
100
AcDbEntity
  8
0
100
AcDbBlockReference
 62
2
  6
CONTINUOUS
  2
_CLOSED
 10
4.353258418
 20
6.4088630198
 41
0.1875
 42
0.1875
 43
0.1875
 50
90.0
  0
INSERT
  5
22F
100
AcDbEntity
  8
0
100
AcDbBlockReference
 62
2
  6
CONTINUOUS
  2
_CLOSED
 10
4.353258418
 20
5.4246110513
 41
0.1875
 42
0.1875
 43
0.1875
 50
270.0
  0
ENDBLK
  5
230
100
AcDbEntity
  8
0
  6
BYBLOCK
 62
0
100
AcDbBlockEnd
  0
BLOCK
  5
231
100
AcDbEntity
  8
0
100
AcDbBlockBegin
 62
2
  6
CONTINUOUS
  2
*D4
 70
65
 10
0.0
 20
0.0
  3
*D4
  1

  0
MTEXT
  5
232
100
AcDbEntity
  8
0
100
AcDbMText
 62
2
  6
CONTINUOUS
  7
STANDARD
 71
1
 72
1
 10
5.7424388052
 20
5.5158565097
 30
0.0
 11
1.0
 21
0.0
 31
0.0
 73
2
 44
0.9
  1
R3
 40
0.15625
 41
0.25
  0
LINE
  5
233
100
AcDbEntity
  8
0
100
AcDbLine
 62
2
  6
CONTINUOUS
 10
5.2455799577
 20
5.5377423081
 11
5.4924388052
 21
5.4377315097
  0
LINE
  5
234
100
AcDbEntity
  8
0
100
AcDbLine
 62
2
  6
CONTINUOUS
 10
5.4924388052
 20
5.4377315097
 11
5.6643138052
 21
5.4377315097
  0
INSERT
  5
235
100
AcDbEntity
  8
0
100
AcDbBlockReference
 62
2
  6
CONTINUOUS
  2
_CLOSED
 10
5.2455799577
 20
5.5377423081
 41
0.1875
 42
0.1875
 43
0.1875
 50
157.9454797928
  0
ENDBLK
  5
236
100
AcDbEntity
  8
0
  6
BYBLOCK
 62
0
100
AcDbBlockEnd
  0
BLOCK
  5
237
100
AcDbEntity
  8
0
100
AcDbBlockBegin
 62
2
  6
CONTINUOUS
  2
*D5
 70
65
 10
0.0
 20
0.0
  3
*D5
  1

  0
MTEXT
  5
238
100
AcDbEntity
  8
0
100
AcDbMText
 62
2
  6
CONTINUOUS
  7
STANDARD
 71
1
 72
1
 10
5.6848096207
 20
5.8072152092
 30
0.0
 11
1.0
 21
0.0
 31
0.0
 73
2
 44
0.9
  1
R2
 40
0.15625
 41
0.25
  0
LINE
  5
239
100
AcDbEntity
  8
0
100
AcDbLine
 62
2
  6
CONTINUOUS
 10
5.2067604561
 20
5.6168596992
 11
5.4348096207
 21
5.7290902092
  0
LINE
  5
23A
100
AcDbEntity
  8
0
100
AcDbLine
 62
2
  6
CONTINUOUS
 10
5.4348096207
 20
5.7290902092
 11
5.6066846207
 21
5.7290902092
  0
INSERT
  5
23B
100
AcDbEntity
  8
0
100
AcDbBlockReference
 62
2
  6
CONTINUOUS
  2
_CLOSED
 10
5.2067604561
 20
5.6168596992
 41
0.1875
 42
0.1875
 43
0.1875
 50
206.2033190363
  0
ENDBLK
  5
23C
100
AcDbEntity
  8
0
  6
BYBLOCK
 62
0
100
AcDbBlockEnd
  0
ENDSEC
  0
SECTION
  2
ENTITIES
  0
DIMENSION
  5
23D
100
AcDbEntity
  8
0
100
AcDbDimension
 62
2
  6
CONTINUOUS
  2
*D0
 10
4.9786318898
 20
6.8516939935
 11
5.4245105197
 21
6.8516941389
 70
160
 71
1
 72
2
 41
0.9
 42
8.0
  3
DIMSTYLE_1
100
AcDbAlignedDimension
 13
5.2935925197
 23
5.5820913662
 14
4.9786318898
 24
5.5820913662
 50
180.0
100
AcDbRotatedDimension
  0
DIMENSION
  5
23E
100
AcDbEntity
  8
0
100
AcDbDimension
 62
2
  6
CONTINUOUS
  2
*D1
 10
5.1361122047
 20
5.5820913662
 11
5.5111122047
 21
5.0738236497
 70
164
 71
1
 72
2
 41
0.9
 42
4.0
  1
R<>
  3
DIMSTYLE_2
100
AcDbRadialDimension
 15
5.1361122047
 25
5.4246110513
  0
DIMENSION
  5
23F
100
AcDbEntity
  8
0
100
AcDbDimension
 62
2
  6
CONTINUOUS
  2
*D2
 10
6.1290706154
 20
6.4088630198
 11
6.1290706412
 21
6.2804328017
 70
160
 71
2
 72
2
 41
0.9
 42
8.0
  3
DIMSTYLE_1
100
AcDbAlignedDimension
 13
5.2935925197
 23
6.0939023898
 14
5.2935925197
 24
6.4088630198
 50
90.0
100
AcDbRotatedDimension
  0
DIMENSION
  5
240
100
AcDbEntity
  8
0
100
AcDbDimension
 62
2
  6
CONTINUOUS
  2
*D3
 10
4.353258418
 20
5.4246110513
 11
4.3571646286
 21
5.9666853296
 70
160
 71
2
 72
2
 41
0.9
 42
25.0
  3
DIMSTYLE_1
100
AcDbAlignedDimension
 13
4.9786318898
 23
6.4088630198
 14
5.1361122047
 24
5.4246110513
 50
270.0
100
AcDbRotatedDimension
  0
DIMENSION
  5
241
100
AcDbEntity
  8
0
100
AcDbDimension
 62
2
  6
CONTINUOUS
  2
*D4
 10
5.1361122047
 20
5.5820913662
 11
5.8674388052
 21
5.4377315097
 70
164
 71
1
 72
2
 41
0.9
 42
3.0
  1
R<>
  3
DIMSTYLE_2
100
AcDbRadialDimension
 15
5.2455799577
 25
5.5377423081
  0
DIMENSION
  5
242
100
AcDbEntity
  8
0
100
AcDbDimension
 62
2
  6
CONTINUOUS
  2
*D5
 10
5.1361122047
 20
5.5820913662
 11
5.8098096207
 21
5.7290902092
 70
164
 71
1
 72
2
 41
0.9
 42
2.0
  1
R<>
  3
DIMSTYLE_2
100
AcDbRadialDimension
 15
5.2067604561
 25
5.6168596992
  0
LINE
  5
243
100
AcDbEntity
  8
0
100
AcDbLine
 62
7
  6
CONTINUOUS
 10
0.0
 20
-0.0
 11
0.0
 21
8.2677165354
  0
LINE
  5
244
100
AcDbEntity
  8
0
100
AcDbLine
 62
7
  6
CONTINUOUS
 10
0.0
 20
-0.0
 11
11.6929133858
 21
-0.0
  0
LINE
  5
245
100
AcDbEntity
  8
0
100
AcDbLine
 62
7
  6
CONTINUOUS
 10
0.0
 20
8.2677165354
 11
11.6929133858
 21
8.2677165354
  0
LINE
  5
246
100
AcDbEntity
  8
0
100
AcDbLine
 62
7
  6
CONTINUOUS
 10
11.6929133858
 20
-0.0
 11
11.6929133858
 21
8.2677165354
  0
LINE
  5
247
100
AcDbEntity
  8
0
100
AcDbLine
 62
7
  6
CONTINUOUS
 10
5.30268447
 20
5.4070716812
 11
4.9695399395
 21
5.4070716812
  0
LINE
  5
248
100
AcDbEntity
  8
0
100
AcDbLine
 62
9
  6
CONTINUOUS
 10
5.30268447
 20
5.4421504213
 11
4.9695399395
 21
5.4421504213
  0
LINE
  5
249
100
AcDbEntity
  8
0
100
AcDbLine
 62
7
  6
CONTINUOUS
 10
4.9786318898
 20
6.4088630198
 11
4.9786318898
 21
5.5820913662
  0
LINE
  5
24A
100
AcDbEntity
  8
0
100
AcDbLine
 62
7
  6
CONTINUOUS
 10
5.2935925197
 20
5.9757921536
 11
4.9786318898
 21
5.9757921536
  0
LINE
  5
24B
100
AcDbEntity
  8
0
100
AcDbLine
 62
7
  6
CONTINUOUS
 10
5.2760531496
 20
6.4179549701
 11
5.2760531496
 21
5.4153231347
  0
LINE
  5
24C
100
AcDbEntity
  8
0
100
AcDbLine
 62
7
  6
CONTINUOUS
 10
4.9786318898
 20
6.0545323111
 11
5.2935925197
 21
6.0545323111
  0
LINE
  5
24D
100
AcDbEntity
  8
0
100
AcDbLine
 62
7
  6
CONTINUOUS
 10
5.2935925197
 20
6.4088630198
 11
5.2935925197
 21
5.5820913662
  0
LINE
  5
24E
100
AcDbEntity
  8
0
100
AcDbLine
 62
9
  6
CONTINUOUS
 10
5.3111318898
 20
6.4179549701
 11
5.3111318898
 21
5.4153231347
  0
LINE
  5
24F
100
AcDbEntity
  8
0
100
AcDbLine
 62
7
  6
CONTINUOUS
 10
5.2935925197
 20
6.0939023898
 11
4.9786318898
 21
6.0939023898
  0
LINE
  5
250
100
AcDbEntity
  8
0
100
AcDbLine
 62
7
  6
CONTINUOUS
 10
4.9786318898
 20
6.4088630198
 11
5.2935925197
 21
6.4088630198
  0
ARC
  5
251
100
AcDbEntity
  8
0
100
AcDbCircle
 62
7
  6
CONTINUOUS
 10
5.1361122047
 20
5.5820913662
 40
0.157480315
100
AcDbArc
 50
180.0
 51
360.0
  0
CIRCLE
  5
252
100
AcDbEntity
  8
0
100
AcDbCircle
 62
7
  6
CONTINUOUS
 10
5.1361122047
 20
5.5820913662
 40
0.1181102362
  0
CIRCLE
  5
253
100
AcDbEntity
  8
0
100
AcDbCircle
 62
7
  6
CONTINUOUS
 10
5.1361122047
 20
5.5820913662
 40
0.0787401575
  0
ENDSEC
  0
SECTION
  2
OBJECTS
  0
DICTIONARY
  5
C
100
AcDbDictionary
280
0
281
1
  3
ACAD_GROUP
350
D
  3
ACAD_MLINESTYLE
350
17
  3
ACAD_LAYOUT
350
1A
  3
ACAD_PLOTSETTINGS
350
19
  3
ACAD_PLOTSTYLENAME
350
E
  0
DICTIONARY
  5
D
102
{ACAD_REACTORS
330
C
102
}
100
AcDbDictionary
280
0
281
1
  0
ACDBDICTIONARYWDFLT
  5
E
102
{ACAD_REACTORS
330
C
102
}
100
AcDbDictionary
281
1
  3
Normal
350
F
100
AcDbDictionaryWithDefault
340
F
  0
DICTIONARY
  5
17
102
{ACAD_REACTORS
330
C
102
}
100
AcDbDictionary
280
0
281
1
  3
Standard
350
18
  0
DICTIONARY
  5
19
102
{ACAD_REACTORS
330
C
102
}
100
AcDbDictionary
281
1
  0
DICTIONARY
  5
1A
102
{ACAD_REACTORS
330
C
102
}
100
AcDbDictionary
281
1
  3
Model
350
254
  3
Layout1
350
255
  0
ACDBPLACEHOLDER
  5
F
102
{ACAD_REACTORS
330
E
102
}
  0
MLINESTYLE
  5
18
102
{ACAD_REACTORS
330
17
102
}
100
AcDbMlineStyle
  2
STANDARD
 70
0
  3

 62
256
 51
90.0
 52
90.0
 71
2
 49
0.5
 62
256
  6
BYLAYER
 49
-0.5
 62
256
  6
BYLAYER
  0
LAYOUT
  5
254
102
{ACAD_REACTORS
330
1A
102
}
100
AcDbPlotSettings
  1

  2
none_device
  4
ISO_A4_(297.00_x_210.00_MM)
  6

 40
0.0
 41
0.0
 42
0.0
 43
0.0
 44
297.0
 45
210.0
 46
0.0
 47
0.0
 48
0.0
 49
0.0
140
0.0
141
0.0
142
1.0
143
1.0
 70
1024
 72
0
 73
0
 74
0
  7

 75
0
147
1.0
148
0.0
149
0.0
100
AcDbLayout
  1
Model
 70
0
 71
0
 10
0.0
 20
0.0
 11
11.6929133858
 21
8.2677165354
 12
0.0
 22
0.0
 32
0.0
 14
0.0
 24
0.0
 34
0.0
 15
0.0
 25
0.0
 35
0.0
146
0.0
 13
0.0
 23
0.0
 33
0.0
 16
1.0
 26
0.0
 36
0.0
 17
0.0
 27
1.0
 37
0.0
 76
0
330
1FF
345
0
346
0
  0
LAYOUT
  5
255
102
{ACAD_REACTORS
330
1A
102
}
100
AcDbPlotSettings
  1

  2
none_device
  4
ISO_A4_(297.00_x_210.00_MM)
  6

 40
0.0
 41
0.0
 42
0.0
 43
0.0
 44
297.0
 45
210.0
 46
0.0
 47
0.0
 48
0.0
 49
0.0
140
0.0
141
0.0
142
1.0
143
1.0
 70
0
 72
0
 73
0
 74
0
  7

 75
0
147
1.0
148
0.0
149
0.0
100
AcDbLayout
  1
Layout1
 70
0
 71
1
 10
0.0
 20
0.0
 11
11.6929133858
 21
8.2677165354
 12
0.0
 22
0.0
 32
0.0
 14
0.0
 24
0.0
 34
0.0
 15
0.0
 25
0.0
 35
0.0
146
0.0
 13
0.0
 23
0.0
 33
0.0
 16
1.0
 26
0.0
 36
0.0
 17
0.0
 27
1.0
 37
0.0
 76
0
330
200
345
0
346
0
  0
ENDSEC
  0
EOF
